<svg xmlns="http://www.w3.org/2000/svg" width="472" height="500.82" viewBox="0 0 472 500.82">
  <g id="Grupo_34757" data-name="Grupo 34757" transform="translate(-75.481 -72.693)">
    <path id="Trazado_35379" data-name="Trazado 35379" d="M266.524,204.262s-53.8-52.836-124.016-12.592S117.05,297.617,121.979,305.005s24.635,12.317,22.175,59.137,8.212,77.2,113.335,63.243,128.5,19.716,164.035-23.821S462.465,274,437.9,232.738,303.476,243.134,266.524,204.262Z" transform="translate(12.091 12.543)" fill="#6d31ff"/>
    <path id="Trazado_35380" data-name="Trazado 35380" d="M336.348,310.929s47.564,28.123,61.479,6.751,2.371-61.548,2.371-61.548l10.838-3.743s29.426,70.435-15.933,93.973c-28.074,14.571-66.614,11.72-79.019,2.744S321.327,305.618,336.348,310.929Z" transform="translate(7.9 11.018)" fill="#f2a678"/>
    <path id="Trazado_35381" data-name="Trazado 35381" d="M416.152,261.886,404.8,218.77s-3.361.872-2.881,5.683a101.1,101.1,0,0,0,2.479,12.308s-4.253-5.282-9.25-1.627-4.1,8.143-4.1,8.143l2.871-.745s1.705-5.233,5.056-4.2,7.673,7.761,2.293,11.2-7.33-4.89-7.33-4.89l-3.067,1.127s2.313,11.249,10.857,9.378l2.1,9.221Z" transform="translate(6.313 11.694)" fill="#f2a678"/>
    <path id="Trazado_35382" data-name="Trazado 35382" d="M330.851,455.788c-5.938.843-28.887,2.822-31.857-16.57-.01-.039-.01-.069-.02-.108-.059-.392-.108-.784-.147-1.186-1.5-14.581,11.974-18.207,22.665-18.824v-.01s66.329-3.224,88.906-1.264c0,0,18.04.637,18.873,11.739C430.673,448.586,360.787,454.152,330.851,455.788Z" transform="translate(8.165 7.706)" fill="#d88d63"/>
    <path id="Trazado_35383" data-name="Trazado 35383" d="M293.554,196.711l-6.438-5.8.225,2.381L281.8,190.91l2.822,4.116H272.094l2.636,1.323L263.2,197.838l1.754,1.734-9.427,5.409h3.449l-2.3,2.812-2.783,1.088L256.1,210.4l-4.615,3.675H254.6l-4.645,8.878.323,4.508-1.4,7.251,1.078,1.627V245.9l2.793,6.418L294.5,206.285Z" transform="translate(9.167 12.254)" fill="#d8d7d6"/>
    <path id="Trazado_35384" data-name="Trazado 35384" d="M287.171,198.251l6.262-5.8-.225,2.381,5.389-2.381-2.744,4.116h12.19l-2.558,1.323,10.358,1.666-4.606,1.764,8.809,4.615h-3.361l2.244,2.812,2.714,1.088-2.156,1.509,4.488,3.684h-3.038l4.517,12.8-2.077,1.166,1.372,7.261-1.048,1.627v9.554l-2.724,6.428-40.6-46.046Z" transform="translate(8.534 12.223)" fill="#d8d7d6"/>
    <path id="Trazado_35385" data-name="Trazado 35385" d="M257.93,263.69l-1.881-3.459s-5.046-28.917-2.077-38.8,10.514-18.04,24.409-20.764,39.823.431,41.626,19.706a221.132,221.132,0,0,1,0,37.452l-1.2,5.85H257.93Z" transform="translate(9.083 12.075)" fill="#d8d7d6"/>
    <g id="Grupo_33551" data-name="Grupo 33551" transform="translate(322.622 257.617)">
      <circle id="Elipse_272" data-name="Elipse 272" cx="5.331" cy="5.331" r="5.331" fill="#ee9a66"/>
      <circle id="Elipse_273" data-name="Elipse 273" cx="3.126" cy="3.126" r="3.126" transform="translate(2.205 2.205)" fill="#d78550"/>
    </g>
    <g id="Grupo_33552" data-name="Grupo 33552" transform="translate(259.801 259.244)">
      <circle id="Elipse_274" data-name="Elipse 274" cx="5.331" cy="5.331" r="5.331" fill="#ee9a66"/>
      <circle id="Elipse_275" data-name="Elipse 275" cx="3.126" cy="3.126" r="3.126" transform="translate(2.205 2.205)" fill="#d78550"/>
    </g>
    <path id="Trazado_35386" data-name="Trazado 35386" d="M275.549,417.182,250.2,412.91s-7.663,39.99,35.894,39.99c40.676,0,24.713-30.514,24.713-30.514Z" transform="translate(9.151 7.792)" fill="#f2a678"/>
    <path id="Trazado_35387" data-name="Trazado 35387" d="M305.254,417.051,330.5,406.38s10.23,46.389-35.786,46.389c-40.676,0-24.713-30.514-24.713-30.514Z" transform="translate(8.804 7.923)" fill="#f2a678"/>
    <path id="Trazado_35388" data-name="Trazado 35388" d="M258.261,457.788c5.938.843,28.887,2.822,31.857-16.57.01-.039.01-.069.02-.108.059-.392.108-.784.147-1.186,1.5-14.581-11.974-18.207-22.665-18.824v-.01s-66.33-3.224-88.906-1.264c0,0-18.04.637-18.873,11.739C158.438,450.586,228.325,456.152,258.261,457.788Z" transform="translate(10.957 7.666)" fill="#f2a678"/>
    <path id="Trazado_35389" data-name="Trazado 35389" d="M171.39,411.1" transform="translate(10.724 7.828)" fill="#d98f66" opacity="0.48"/>
    <path id="Trazado_35390" data-name="Trazado 35390" d="M165.01,414.49" transform="translate(10.852 7.76)" fill="#d98f66" opacity="0.48"/>
    <path id="Trazado_35391" data-name="Trazado 35391" d="M164.16,424.364c18.089,4.468,77.491,32.925,77.491,32.925l-2.273-37.324-36.021-.755c6.183,6.477-32.111,1.862-32.111,1.862A20.508,20.508,0,0,0,164.16,424.364Z" transform="translate(10.87 7.665)" fill="#d98f66" opacity="0.48"/>
    <path id="Trazado_35392" data-name="Trazado 35392" d="M329.769,402.644l13.474-44.4c5.2-5.517,8.388-18.608,8.388-18.608s7.859-14.248-7.3-20.019l-31.465-6.144-45.291-.353-34.6,5.507c-15.247,5.546-7.6,19.912-7.6,19.912s6.2,13.376,11.308,18.971l13.405,44.311s3.332,18.295,35.08,19.333S326.741,408.072,329.769,402.644Z" transform="translate(9.678 9.798)" fill="#f2a678"/>
    <path id="Trazado_35393" data-name="Trazado 35393" d="M263.047,336.3l-39.578-5.438s-3.753-23.459,59.1-25.213,71.552,16.6,71.1,23.037S263.047,336.3,263.047,336.3Z" transform="translate(9.678 9.95)" fill="#f2a678"/>
    <path id="Trazado_35394" data-name="Trazado 35394" d="M297.77,322.217l3.537-4.272,27.251-3.665S304.365,318.66,297.77,322.217Z" transform="translate(8.184 9.774)" fill="#d98f66"/>
    <path id="Trazado_35395" data-name="Trazado 35395" d="M271.366,322.9l-41.44-4.145s-19.618,13.219,6.742,38.873Z" transform="translate(9.689 9.684)" fill="#f2a678"/>
    <path id="Trazado_35396" data-name="Trazado 35396" d="M308.43,322.9l41.44-4.145s21.44,13.954-4.919,39.6Z" transform="translate(7.97 9.684)" fill="#f2a678"/>
    <path id="Trazado_35397" data-name="Trazado 35397" d="M290.9,427.306,250.21,411.971s.647-44.194,39.617-45.752,41.156,45.752,41.156,45.752Z" transform="translate(9.14 8.731)" fill="#f2a678"/>
    <path id="Trazado_35398" data-name="Trazado 35398" d="M302.274,291.659v17.05l-24.331.519L277.6,291.12Z" transform="translate(8.59 10.24)" fill="#f2a678"/>
    <path id="Trazado_35399" data-name="Trazado 35399" d="M302.274,300.2s-16.3,4.3-24.478,1.068l-.2-10.152,24.664.539V300.2Z" transform="translate(8.59 10.24)" fill="#d58858" opacity="0.8"/>
    <path id="Trazado_35400" data-name="Trazado 35400" d="M319.873,265.379l-.186-41.9s-2.783-19.912-33.513-19.049-29.044,27.712-29.044,27.712a1.422,1.422,0,0,1,.157.039l2.038,37.6a13.118,13.118,0,0,0,5.409,11.612l10.779,8.692c15.365,12.121,26.536,2.058,26.536,2.058l8.4-6.81A23.321,23.321,0,0,0,319.873,265.379Z" transform="translate(9.001 11.983)" fill="#f2a678"/>
    <g id="Grupo_33553" data-name="Grupo 33553" transform="translate(306.653 243.15)">
      <path id="Trazado_35401" data-name="Trazado 35401" d="M299.842,232.014s7.937-1.166,9.9,1.117a14.249,14.249,0,0,1,2.538,6.115,32.623,32.623,0,0,0-7.183-2.842c-2.94-.559-6-.51-6.516-1.715S299.842,232.014,299.842,232.014Z" transform="translate(-298.483 -231.716)" fill="#939393"/>
      <path id="Trazado_35402" data-name="Trazado 35402" d="M302.035,231.8l-2.195,3.743a12.075,12.075,0,0,0,1.666.343l2.46-4.155C303.27,231.73,302.613,231.759,302.035,231.8Z" transform="translate(-298.511 -231.716)" fill="#848383"/>
      <path id="Trazado_35403" data-name="Trazado 35403" d="M305.358,231.75l-2.528,4.3c.559.069,1.137.147,1.725.245l2.577-4.361A16.407,16.407,0,0,0,305.358,231.75Z" transform="translate(-298.571 -231.717)" fill="#848383"/>
      <path id="Trazado_35404" data-name="Trazado 35404" d="M308.438,232.27l-2.528,4.312c.51.127,1.049.3,1.578.49l2.342-3.959A3.2,3.2,0,0,0,308.438,232.27Z" transform="translate(-298.632 -231.727)" fill="#848383"/>
      <path id="Trazado_35405" data-name="Trazado 35405" d="M310.629,234.14l-1.979,3.381c.529.216,1.029.431,1.489.637l1.352-2.293A11.334,11.334,0,0,0,310.629,234.14Z" transform="translate(-298.688 -231.765)" fill="#848383"/>
    </g>
    <path id="Trazado_35406" data-name="Trazado 35406" d="M257.2,253.045l1.979-1.96-.99-12.611,4.5-12.053s3.567-6.859,8.2-8.339,6.252-3.341,12.925-3.714l6.673-.372v2.783l1.293-2.224v1.578l1.578-1.391.461,1.666.931-2.411,6.575.647s9.456,5.556,11.955,8.437,3.42,14.826,3.42,14.826l1.029,14.326h1.009l.941-15.277s8.682-35.717-25.007-38.559c-29.015-2.45-39.049,16.825-41.136,22.508C251.453,226.607,257.2,253.045,257.2,253.045Z" transform="translate(9.082 12.108)" fill="#d8d7d6"/>
    <path id="Trazado_35407" data-name="Trazado 35407" d="M257.28,252.346l1.979-1.96s5.625,19.872,12.572,19.667,25.693-2.479,31.582-.823,11.494,1.029,12.406-1.646,1.529-22.518,1.529-22.518l1.607-.245s2.92,21.058.97,30.367-10.387,14.15-12.053,19.049.108,10.064-9.231,12.435-19.657-.686-24.194-9.054-7.016-7.134-11.553-11.671S257.28,252.346,257.28,252.346Z" transform="translate(8.998 11.171)" fill="#d8d7d6"/>
    <path id="Trazado_35408" data-name="Trazado 35408" d="M261.321,256.63l-3.361,6.389c.2,2.293.441,4.772.735,7.241l4.125-10.034C262.262,259,261.762,257.776,261.321,256.63Z" transform="translate(8.984 10.933)" fill="#cecdcc"/>
    <path id="Trazado_35409" data-name="Trazado 35409" d="M264.859,264.33l-5.409,11.19a52.449,52.449,0,0,0,1.558,6.957l5.6-15.5A23.793,23.793,0,0,1,264.859,264.33Z" transform="translate(8.954 10.778)" fill="#cecdcc"/>
    <path id="Trazado_35410" data-name="Trazado 35410" d="M271.955,270.543a5.006,5.006,0,0,1-3.263-1.323l-5.252,17.628a38.936,38.936,0,0,0,5.193,3.871l3.871-20.186C272.308,270.533,272.122,270.533,271.955,270.543Z" transform="translate(8.874 10.68)" fill="#cecdcc"/>
    <path id="Trazado_35411" data-name="Trazado 35411" d="M276.057,270.335l-4.027,23.537a31.175,31.175,0,0,1,2.7,4.243,18.023,18.023,0,0,0,1.989,2.92l2.95-30.965C278.39,270.168,277.174,270.266,276.057,270.335Z" transform="translate(8.701 10.663)" fill="#cecdcc"/>
    <path id="Trazado_35412" data-name="Trazado 35412" d="M282.647,269.844l-2.1,34.473a20.616,20.616,0,0,0,7.114,3.028l-.853-37.8C285.41,269.638,284.009,269.746,282.647,269.844Z" transform="translate(8.53 10.674)" fill="#cecdcc"/>
    <path id="Trazado_35413" data-name="Trazado 35413" d="M289.36,269.386l4.194,38.53a25.278,25.278,0,0,0,5.723-.764c.1-.02.176-.049.274-.078L293.2,269.19C291.947,269.249,290.663,269.317,289.36,269.386Z" transform="translate(8.353 10.681)" fill="#cecdcc"/>
    <path id="Trazado_35414" data-name="Trazado 35414" d="M296.83,269.12l6.085,36.8a7.705,7.705,0,0,0,4.341-4.949l-6.8-31.768C299.358,269.13,298.133,269.11,296.83,269.12Z" transform="translate(8.203 10.682)" fill="#cecdcc"/>
    <path id="Trazado_35415" data-name="Trazado 35415" d="M304.335,269.725a10.748,10.748,0,0,0-1.205-.255l6.8,23.1a51.5,51.5,0,0,1,3.9-4.694L307,270.323C306.129,270.166,305.237,269.97,304.335,269.725Z" transform="translate(8.076 10.675)" fill="#cecdcc"/>
    <path id="Trazado_35416" data-name="Trazado 35416" d="M311.18,270.629l5.4,14.13a25.925,25.925,0,0,0,3.008-4.89l-5.154-9.76A10.933,10.933,0,0,1,311.18,270.629Z" transform="translate(7.915 10.662)" fill="#cecdcc"/>
    <path id="Trazado_35417" data-name="Trazado 35417" d="M317.689,262.73a43.4,43.4,0,0,1-.539,4.694l4.214,6.673a51.373,51.373,0,0,0,.421-6.624Z" transform="translate(7.795 10.811)" fill="#cecdcc"/>
    <path id="Trazado_35418" data-name="Trazado 35418" d="M321.176,254.06l-2.871-1.95c-.069,1.509-.147,3.126-.235,4.753l3.5,2.42C321.46,257.47,321.323,255.7,321.176,254.06Z" transform="translate(7.776 11.024)" fill="#cecdcc"/>
    <path id="Trazado_35419" data-name="Trazado 35419" d="M297.013,271.413s-16.306-1.891-16.766,3.488-.431,8.378,7.065,9.093,18.03.333,18.941-2.793S307.341,271.521,297.013,271.413Z" transform="translate(8.54 10.643)" fill="#f2a678"/>
    <path id="Trazado_35420" data-name="Trazado 35420" d="M296.854,277.052s-1.058,2.509-3.165,2.391a3.455,3.455,0,0,1-3.155-2.509s-.265-1.068-.98-.666c0,0-.617.323-.157,1.176,0,0,1.146,3.116,4.263,3.214,0,0,2.989.451,4.468-3.155,0,0,.235-.706-.157-.951C297.971,276.552,297.236,276.111,296.854,277.052Z" transform="translate(8.356 10.54)" fill="#39393a"/>
    <path id="Trazado_35421" data-name="Trazado 35421" d="M293.395,268.033s-5.938-5.223-11.592-1.3-6.889,8.662-5.438,13.826-2.891,5.644-3.194,10.044a22.142,22.142,0,0,0,1.744,9.054s-1.2-8.378,2.812-10.848,5.85-4.743,5.546-10.73,7.771-2.891,10.132-4.949C295.746,271.061,294.766,269.023,293.395,268.033Z" transform="translate(8.679 10.759)" fill="#f4f4f2"/>
    <path id="Trazado_35422" data-name="Trazado 35422" d="M293.74,268.37a4.134,4.134,0,0,1-1.313,1.881c-2.362,2.068-10.436-1.029-10.132,4.948s-1.538,8.251-5.546,10.73-2.812,10.848-2.812,10.848-.029-.059-.069-.157a23.414,23.414,0,0,0,1.048,3.1s-1.2-8.378,2.812-10.848,5.85-4.743,5.546-10.73,7.771-2.891,10.132-4.948C295.563,271.3,294.916,269.428,293.74,268.37Z" transform="translate(8.667 10.697)" fill="#e9e8e8"/>
    <path id="Trazado_35423" data-name="Trazado 35423" d="M294.721,268.033s5.938-5.223,11.592-1.3,6.889,8.662,5.438,13.826,2.891,5.644,3.195,10.044a22.142,22.142,0,0,1-1.744,9.054s1.2-8.378-2.812-10.848-5.85-4.743-5.546-10.73-7.771-2.891-10.132-4.949S293.339,269.023,294.721,268.033Z" transform="translate(8.274 10.759)" fill="#f4f4f2"/>
    <path id="Trazado_35424" data-name="Trazado 35424" d="M312.359,286.892c-4.008-2.479-5.85-4.743-5.546-10.73s-7.771-2.891-10.132-4.948c-1.548-1.352-1.656-2.695-1.156-3.733-.5.353-.8.608-.8.608-1.382.99-2.362,3.028,0,5.086s10.436-1.029,10.132,4.948,1.538,8.251,5.546,10.73,2.812,10.848,2.812,10.848a23.036,23.036,0,0,0,1.774-8.417A6.621,6.621,0,0,0,312.359,286.892Z" transform="translate(8.274 10.715)" fill="#e9e8e8"/>
    <g id="Grupo_33554" data-name="Grupo 33554" transform="translate(296.241 261.858)">
      <path id="Trazado_35425" data-name="Trazado 35425" d="M295.346,256.474a21.906,21.906,0,0,1-2.832-3.733c-1.088-1.911-2.175-2.44-3.969-1.431s-.627,16.786,10.113,16.58,8.408-7.428,6.791-9.015S299.687,260.932,295.346,256.474Z" transform="translate(-287.858 -250.807)" fill="#e6874a"/>
      <path id="Trazado_35426" data-name="Trazado 35426" d="M298.933,267.054c-9.25.176-11.4-11.484-10.671-15.384-1.333,2.509.3,16.433,10.4,16.247,5.654-.108,7.682-2.166,8.1-4.312C305.988,265.408,303.813,266.956,298.933,267.054Z" transform="translate(-287.858 -250.825)" fill="#cd6a27"/>
    </g>
    <g id="Grupo_33555" data-name="Grupo 33555" transform="translate(275.42 244.13)">
      <path id="Trazado_35427" data-name="Trazado 35427" d="M279.045,233.014s-7.937-1.166-9.9,1.117a14.249,14.249,0,0,0-2.538,6.115,32.625,32.625,0,0,1,7.183-2.842c2.94-.559,6-.51,6.516-1.715S279.045,233.014,279.045,233.014Z" transform="translate(-266.61 -232.716)" fill="#939393"/>
      <path id="Trazado_35428" data-name="Trazado 35428" d="M277.05,232.8l2.195,3.743a12.082,12.082,0,0,1-1.666.343l-2.46-4.155C275.806,232.73,276.462,232.759,277.05,232.8Z" transform="translate(-266.781 -232.716)" fill="#848383"/>
      <path id="Trazado_35429" data-name="Trazado 35429" d="M273.714,232.75l2.528,4.3c-.559.069-1.137.147-1.725.245l-2.577-4.361A16.955,16.955,0,0,1,273.714,232.75Z" transform="translate(-266.717 -232.717)" fill="#848383"/>
      <path id="Trazado_35430" data-name="Trazado 35430" d="M270.641,233.27l2.528,4.312c-.51.127-1.049.3-1.578.49l-2.342-3.959A3.315,3.315,0,0,1,270.641,233.27Z" transform="translate(-266.663 -232.727)" fill="#848383"/>
      <path id="Trazado_35431" data-name="Trazado 35431" d="M268.482,235.14l1.979,3.381c-.529.216-1.029.431-1.489.637l-1.352-2.293A10.5,10.5,0,0,1,268.482,235.14Z" transform="translate(-266.63 -232.765)" fill="#848383"/>
    </g>
    <path id="Trazado_35432" data-name="Trazado 35432" d="M288.855,210.13s6.183-.666,17.971,2.166,12.582,32.748,12.582,32.748a6.4,6.4,0,0,1,4.508,4.331s11.661-6.428,9.476-28S313.244,178.7,288.139,179.41c-32.915.921-69.593,36-37.187,70.288l4.351-2.8s-.637-23.3,10.9-30.2A45.877,45.877,0,0,1,288.855,210.13Z" transform="translate(9.378 12.486)" fill="#e23a2e"/>
    <path id="Trazado_35433" data-name="Trazado 35433" d="M335.159,224.3a32.939,32.939,0,0,1-6.791,18.863,25.716,25.716,0,0,0,3.694-16.4,27.949,27.949,0,0,1-5.85,14.865c7.437-14.375,0-28.015,0-28.015,5.115,12.533-2.293,27.192-2.293,27.192,2.362-6.84-.333-19.98-.333-19.98,1.254,5.977-1.48,18.51-1.48,18.51.853-8.006-4.037-15.757-4.037-15.757a57.316,57.316,0,0,1,2.195,13.542c.637,4.919.735,8.623.735,8.623a6.4,6.4,0,0,1,4.508,4.331c.088-.049.157-.1.245-.147C327.34,248.9,336.247,242.331,335.159,224.3Z" transform="translate(7.776 11.798)" fill="#a22825" opacity="0.56"/>
    <path id="Trazado_35434" data-name="Trazado 35434" d="M286.119,179.4s-19.774,1.235-33.2,14.748a75.051,75.051,0,0,1,17.256-7.369l-6.33,7.6L276.34,186s-3.459,3.969-10.162,13.415a75.666,75.666,0,0,1,12.631-9.084s1,6.752-9.28,12.749C269.52,203.074,292.518,199.615,286.119,179.4Z" transform="translate(9.086 12.485)" fill="#a22825" opacity="0.48"/>
    <path id="Trazado_35435" data-name="Trazado 35435" d="M250.934,250.142s-19.206-16.982-10.828-38.02c0,0-1.529,11.739,2.185,19.02,0,0-3.116-18.706,8.653-30.161,0,0-9.26,12.445-4.625,30.808,0,0-1.95-11.651,7.359-22.695,0,0-5.507,26.467,1.617,38.246Z" transform="translate(9.386 12.052)" fill="#a22825" opacity="0.56"/>
    <path id="Trazado_35436" data-name="Trazado 35436" d="M255.5,246.749s-3.988-35.414,30.72-35.894,13.4-39.265,3.116-38.745,3.518,20.088-11.612,26.546-36.57,15.159-26.565,50.9Z" transform="translate(9.173 12.632)" fill="#d3322c"/>
    <path id="Trazado_35437" data-name="Trazado 35437" d="M289.353,172.12a3.93,3.93,0,0,0-3.234,1.489c10.348,7.79,21.8,36.394-7.976,36.805-19.774.274-24.958,12.082-27.5,22.028-1.754,9.554-1.333,10.456.529,17.109l4.351-2.8s-2.685-34.914,30.72-35.061C321.269,211.532,299.632,171.6,289.353,172.12Z" transform="translate(9.154 12.632)" fill="#bb2b28"/>
    <path id="Trazado_35438" data-name="Trazado 35438" d="M251.052,231.94s.137-17.129,19.765-22.44c14.414-3.9,25.105-3.586,23.714-17.05,0,0,2.607,10.857-23.086,15.345s-21.5,33.013-21.5,33.013Z" transform="translate(9.15 12.223)" fill="#bb2b28"/>
    <path id="Trazado_35439" data-name="Trazado 35439" d="M258.32,211.621s10.828-7.731,22.567-10.524,6.134-24.547,6.134-24.547,9.015,21.362-5.8,25.791S258.32,211.621,258.32,211.621Z" transform="translate(8.977 12.543)" fill="#bb2b28"/>
    <path id="Trazado_35440" data-name="Trazado 35440" d="M291.737,181.87s3.341,12.993-2.587,17.021C289.15,198.891,297.773,196.412,291.737,181.87Z" transform="translate(8.357 12.436)" fill="#bb2b28"/>
    <path id="Trazado_35441" data-name="Trazado 35441" d="M285.806,183.93s2.7,14.787-15.286,21.078C270.52,205.008,290.3,202.391,285.806,183.93Z" transform="translate(8.732 12.394)" fill="#bb2b28"/>
    <path id="Trazado_35442" data-name="Trazado 35442" d="M302.84,185.66s23.527,7.055,28.015,30.837C330.846,216.5,323.408,194.166,302.84,185.66Z" transform="translate(8.082 12.36)" fill="#bb2b28"/>
    <path id="Trazado_35443" data-name="Trazado 35443" d="M308.91,194.45s14.042,5.076,17.129,27.241C326.029,221.691,321.188,204.455,308.91,194.45Z" transform="translate(7.96 12.183)" fill="#bb2b28"/>
    <path id="Trazado_35444" data-name="Trazado 35444" d="M310.1,201.39a30.641,30.641,0,0,1,11.445,24.174S319.066,211.081,310.1,201.39Z" transform="translate(7.936 12.043)" fill="#bb2b28"/>
    <path id="Trazado_35445" data-name="Trazado 35445" d="M306.45,208.35s7.682,2.675,10.975,9.946A36.756,36.756,0,0,0,306.45,208.35Z" transform="translate(8.01 11.904)" fill="#bb2b28"/>
    <path id="Trazado_35446" data-name="Trazado 35446" d="M315.536,301.623s-10.367-3.165-12.357,19.167-27.937,68.691-57.05,74.6c0,0-6.242,7.869,0,15.228,0,0-31.6-1.254-33.65,6.164,0,0,36.266,11.1,37.422,38.04,0,0,14.3,2.411,39.911,1.058s37.393,6.026,55.257,0c0,0,.1-31.661,9.672-39.1s-11.465-6.124-20.754-6.164c0,0,9.28-4.116,3.1-15.228,0,0,2.273-21.489,4.655-48.77s9.583-32.582,6.487-37.226-15.355-2.871-15.355-2.871S330.1,294.371,315.536,301.623Z" transform="translate(9.898 10.075)" fill="#f2dd98"/>
    <path id="Trazado_35447" data-name="Trazado 35447" d="M272.69,416.7s22.312,5.7,40.529.99c0,0-13.091,16.3-10.818,33.424,0,0-6.369-14.983,2.077-27.81C304.468,423.295,285.213,422.785,272.69,416.7Z" transform="translate(8.688 7.716)" fill="#deca8c"/>
    <path id="Trazado_35448" data-name="Trazado 35448" d="M335.475,415.6s-22.283,2.685-28.055,30.122C307.42,445.722,316.5,425.3,335.475,415.6Z" transform="translate(7.99 7.738)" fill="#deca8c"/>
    <path id="Trazado_35449" data-name="Trazado 35449" d="M413.268,445.594s15.963-4.341,15.776-14.4c-.265-13.924-17.6-11.631-27.055-7.829s-40.235.421-57.344,6.712-70.426,23.478-70.426,23.478l2.656,14.63Z" transform="translate(8.657 7.64)" fill="#df926a"/>
    <path id="Trazado_35450" data-name="Trazado 35450" d="M274.827,456.62s-3.89-2.9-13.3,1.205-19.206,8.084-29.936,8.692-9.387,17.256-.48,19.549C238.6,488,268,475.179,275.866,470.848S278.962,456.139,274.827,456.62Z" transform="translate(9.667 6.934)" fill="#df926a"/>
    <path id="Trazado_35451" data-name="Trazado 35451" d="M414.8,441.81s-20.735,11.68-45.183,14.973S276.93,468.61,276.93,468.61L349.2,444.75Z" transform="translate(8.603 7.211)" fill="#df926a"/>
    <path id="Trazado_35452" data-name="Trazado 35452" d="M312.48,383.5s23.753-43.811,22.4-76.834a26.135,26.135,0,0,1,8.241,0C343.112,306.663,336.615,349.152,312.48,383.5Z" transform="translate(7.888 9.934)" fill="#deca8c"/>
    <path id="Trazado_35453" data-name="Trazado 35453" d="M317.291,301.627s-.274,40.881-17.521,72.444c0,0,21.724-27.908,23.557-74.551Z" transform="translate(8.144 10.071)" fill="#deca8c"/>
    <path id="Trazado_35454" data-name="Trazado 35454" d="M246.82,412.444s19.686-6.389,30.71-22.734C277.53,389.71,266.046,415.119,246.82,412.444Z" transform="translate(9.208 8.258)" fill="#deca8c"/>
    <path id="Trazado_35455" data-name="Trazado 35455" d="M272.69,412.458s28.447-20.382,40.529-48.848C313.219,363.6,305.487,400.239,272.69,412.458Z" transform="translate(8.688 8.783)" fill="#deca8c"/>
    <path id="Trazado_35456" data-name="Trazado 35456" d="M250.64,401.836S304.6,353.018,304.4,313.41C304.388,313.41,310.512,365.982,250.64,401.836Z" transform="translate(9.131 9.792)" fill="#deca8c"/>
    <path id="Trazado_35457" data-name="Trazado 35457" d="M343.77,347.59l-.627,9.485s-22.3,29.24-29.093,55.472C314.05,412.548,320.89,377.085,343.77,347.59Z" transform="translate(7.857 9.105)" fill="#deca8c"/>
    <path id="Trazado_35458" data-name="Trazado 35458" d="M340.958,380.74s-3.6,18.089-17.158,32.523a25.694,25.694,0,0,0,15.522-16.227Z" transform="translate(7.661 8.439)" fill="#deca8c"/>
    <path id="Trazado_35459" data-name="Trazado 35459" d="M224.64,413.809s53.885,7.937,64.233,33.1c0,0-7.594-28.8-56.344-33.62Z" transform="translate(9.654 7.784)" fill="#deca8c"/>
    <path id="Trazado_35460" data-name="Trazado 35460" d="M175.346,447.594s-15.963-4.341-15.776-14.4c.265-13.924,17.6-11.631,27.055-7.829s40.235.421,57.344,6.712,70.425,23.478,70.425,23.478l-2.655,14.63Z" transform="translate(10.962 7.6)" fill="#f19f6e"/>
    <path id="Trazado_35461" data-name="Trazado 35461" d="M315.812,456.62s3.89-2.9,13.3,1.205,19.206,8.084,29.936,8.692,9.387,17.256.48,19.549c-7.486,1.93-36.883-10.887-44.752-15.218S311.677,456.139,315.812,456.62Z" transform="translate(7.927 6.934)" fill="#f19f6e"/>
    <path id="Trazado_35462" data-name="Trazado 35462" d="M174.16,443.81s20.735,11.68,45.183,14.973,92.689,11.827,92.689,11.827L239.764,446.75Z" transform="translate(10.669 7.171)" fill="#f19f6e"/>
    <path id="Trazado_35463" data-name="Trazado 35463" d="M249,364.346s2.94,4.214,10.828,3.812,21.911-1.029,23.645-5.977c0,0,.029,5.566-12.964,6.967S251.009,369.451,249,364.346Z" transform="translate(9.164 8.812)" fill="#d98f66"/>
    <circle id="Elipse_276" data-name="Elipse 276" cx="2.861" cy="2.861" r="2.861" transform="translate(268.943 365.788)" fill="#d98f66"/>
    <circle id="Elipse_277" data-name="Elipse 277" cx="1.431" cy="1.431" r="1.431" transform="translate(269.923 367.67)" fill="#c07d5b"/>
    <path id="Trazado_35464" data-name="Trazado 35464" d="M247.63,376.45a56.577,56.577,0,0,0,20.01,3.9S254.646,382.7,247.63,376.45Z" transform="translate(9.192 8.525)" fill="#d98f66"/>
    <path id="Trazado_35465" data-name="Trazado 35465" d="M247.21,382.87a42.4,42.4,0,0,0,14.973,2.92S252.452,387.544,247.21,382.87Z" transform="translate(9.2 8.396)" fill="#d98f66"/>
    <path id="Trazado_35466" data-name="Trazado 35466" d="M229.832,466.989s-12.092-.794-12.092,4.184,7.633,2.636,9.907,2.881S231.3,469.488,229.832,466.989Z" transform="translate(9.793 6.706)" fill="#df926a"/>
    <path id="Trazado_35467" data-name="Trazado 35467" d="M227.362,474.04s-7.222.265-7.192,2.273,2.871,1.705,6.056,1.117S227.362,474.04,227.362,474.04Z" transform="translate(9.744 6.563)" fill="#df926a"/>
    <path id="Trazado_35468" data-name="Trazado 35468" d="M227.842,477.38s-7.222.265-7.192,2.273,2.871,1.705,6.056,1.117S227.842,477.38,227.842,477.38Z" transform="translate(9.734 6.496)" fill="#df926a"/>
    <path id="Trazado_35469" data-name="Trazado 35469" d="M229.423,480.57s-7.222.265-7.192,2.273,2.871,1.705,6.056,1.117S229.423,480.57,229.423,480.57Z" transform="translate(9.702 6.432)" fill="#df926a"/>
    <path id="Trazado_35470" data-name="Trazado 35470" d="M231.647,483.17s-7.163.9-6.957,2.91,3.018,1.44,6.134.578S231.647,483.17,231.647,483.17Z" transform="translate(9.653 6.38)" fill="#df926a"/>
    <path id="Trazado_35471" data-name="Trazado 35471" d="M362.888,467.919s12.092-.794,12.092,4.184-7.633,2.636-9.907,2.881S361.418,470.408,362.888,467.919Z" transform="translate(6.888 6.687)" fill="#f19f6e"/>
    <path id="Trazado_35472" data-name="Trazado 35472" d="M365.457,474.97s7.222.265,7.192,2.273-2.871,1.705-6.056,1.117S365.457,474.97,365.457,474.97Z" transform="translate(6.837 6.545)" fill="#f19f6e"/>
    <path id="Trazado_35473" data-name="Trazado 35473" d="M364.977,478.31s7.222.265,7.192,2.273-2.871,1.705-6.056,1.117S364.977,478.31,364.977,478.31Z" transform="translate(6.846 6.478)" fill="#f19f6e"/>
    <path id="Trazado_35474" data-name="Trazado 35474" d="M363.4,481.5s7.222.265,7.193,2.273-2.871,1.7-6.056,1.117S363.4,481.5,363.4,481.5Z" transform="translate(6.878 6.414)" fill="#f19f6e"/>
    <path id="Trazado_35475" data-name="Trazado 35475" d="M361.163,484.09s7.163.9,6.957,2.91-3.018,1.44-6.134.578S361.163,484.09,361.163,484.09Z" transform="translate(6.926 6.361)" fill="#f19f6e"/>
    <path id="Trazado_35476" data-name="Trazado 35476" d="M235.966,312.929s-47.564,28.123-61.479,6.752-2.371-61.548-2.371-61.548l-10.838-3.743s-29.426,70.435,15.933,93.973c28.074,14.571,66.614,11.72,79.019,2.744S251,307.618,235.966,312.929Z" transform="translate(11.116 10.978)" fill="#f2a678"/>
    <path id="Trazado_35477" data-name="Trazado 35477" d="M286.789,322.067l-3.537-4.272L256,314.13S280.194,318.51,286.789,322.067Z" transform="translate(9.024 9.777)" fill="#d98f66"/>
    <path id="Trazado_35478" data-name="Trazado 35478" d="M270.52,244.159s4.576,3.077,9.123-.069C279.643,244.08,275.615,251.3,270.52,244.159Z" transform="translate(8.732 11.185)" fill="#4e0e02"/>
    <path id="Trazado_35479" data-name="Trazado 35479" d="M300.52,244.159s4.576,3.077,9.123-.069C309.643,244.08,305.615,251.3,300.52,244.159Z" transform="translate(8.129 11.185)" fill="#4e0e02"/>
    <path id="Trazado_35480" data-name="Trazado 35480" d="M157.88,263.886l11.347-43.116s3.361.872,2.881,5.683a101.1,101.1,0,0,1-2.479,12.308s4.253-5.282,9.25-1.627,4.1,8.143,4.1,8.143l-2.871-.745s-1.705-5.233-5.056-4.2-7.673,7.761-2.293,11.2,7.33-4.89,7.33-4.89l3.067,1.127s-2.313,11.249-10.857,9.378l-2.1,9.221Z" transform="translate(10.996 11.654)" fill="#f2a678"/>
    <ellipse id="Elipse_278" data-name="Elipse 278" cx="79.411" cy="8.045" rx="79.411" ry="8.045" transform="translate(220.585 557.423)" fill="#6D31FF"/>
    <g id="Grupo_33556" data-name="Grupo 33556" transform="translate(377.458 140.744)">
      <path id="Trazado_35481" data-name="Trazado 35481" d="M394.348,127.21a18.635,18.635,0,0,0-18.618,18.618v17.9h37.236v-17.9A18.648,18.648,0,0,0,394.348,127.21Zm-12.464,30.377V145.838a12.464,12.464,0,0,1,24.929,0v11.749Z" transform="translate(-370.84 -127.21)" fill="#e96f4e"/>
      <path id="Trazado_35482" data-name="Trazado 35482" d="M394.425,130.97a14.882,14.882,0,0,0-14.865,14.865v14.3h29.73v-14.3A14.888,14.888,0,0,0,394.425,130.97Zm12.464,26.693H381.961V145.913a12.464,12.464,0,0,1,24.929,0Z" transform="translate(-370.917 -127.286)" fill="#e96f4e" opacity="0.4"/>
      <path id="Trazado_35483" data-name="Trazado 35483" d="M411.112,190.831H377.374a6.633,6.633,0,0,1-6.634-6.634V159.964a6.633,6.633,0,0,1,6.634-6.634h33.738a6.633,6.633,0,0,1,6.634,6.634V184.2A6.633,6.633,0,0,1,411.112,190.831Z" transform="translate(-370.74 -127.735)" fill="#f4ad56"/>
      <path id="Trazado_35484" data-name="Trazado 35484" d="M401.42,169.68a6.83,6.83,0,1,0-9.975,6.066v7.388h6.291v-7.388A6.851,6.851,0,0,0,401.42,169.68Z" transform="translate(-371.082 -127.926)" fill="#e96f4e"/>
      <path id="Trazado_35485" data-name="Trazado 35485" d="M413.264,153.34H401.975a70.338,70.338,0,0,1-11.181,21.254c-4.537,5.9-11.69,13.385-19.774,13.229a4.486,4.486,0,0,0,4.233,3.008h38.02a4.487,4.487,0,0,0,4.488-4.488V157.828A4.5,4.5,0,0,0,413.264,153.34Z" transform="translate(-370.746 -127.735)" fill="#f4ad56" opacity="0.4"/>
    </g>
    <g id="Grupo_33558" data-name="Grupo 33558" transform="translate(115.864 377.246)">
      <rect id="Rectángulo_4470" data-name="Rectángulo 4470" width="9.084" height="6.399" transform="translate(60.523 11.103) rotate(-122.935)" fill="#f4ad56"/>
      <rect id="Rectángulo_4471" data-name="Rectángulo 4471" width="9.084" height="6.399" transform="translate(53.872 15.409) rotate(-122.935)" fill="#f4ad56"/>
      <rect id="Rectángulo_4472" data-name="Rectángulo 4472" width="2.313" height="6.399" transform="translate(60.52 11.097) rotate(-122.935)" fill="#f6c37b" opacity="0.5"/>
      <rect id="Rectángulo_4473" data-name="Rectángulo 4473" width="2.313" height="6.399" transform="translate(53.875 15.41) rotate(-122.935)" fill="#f6c37b" opacity="0.5"/>
      <rect id="Rectángulo_4474" data-name="Rectángulo 4474" width="7.095" height="55.591" transform="translate(22.991 42.058) rotate(-122.935)" fill="#f4ad56"/>
      <path id="Trazado_35486" data-name="Trazado 35486" d="M123.628,408.895h0a.541.541,0,0,0,.755.157l45.752-29.632a.541.541,0,0,0,.157-.755h0a.541.541,0,0,0-.755-.157L123.785,408.14A.549.549,0,0,0,123.628,408.895Z" transform="translate(-104.178 -368.76)" fill="#f6c37b" opacity="0.5"/>
      <g id="Grupo_33557" data-name="Grupo 33557" transform="translate(0 31.642)">
        <path id="Trazado_35487" data-name="Trazado 35487" d="M109.62,402.908a12.8,12.8,0,1,1-3.782,17.7A12.809,12.809,0,0,1,109.62,402.908Zm3.586,5.536a6.2,6.2,0,1,0,8.574,1.832A6.2,6.2,0,0,0,113.207,408.444Z" transform="translate(-103.781 -400.853)" fill="#f4ad56"/>
      </g>
      <path id="Trazado_35488" data-name="Trazado 35488" d="M113.006,408.068a6.8,6.8,0,1,0,9.407,2.009A6.813,6.813,0,0,0,113.006,408.068Zm.323.5a6.2,6.2,0,1,1-1.832,8.574A6.2,6.2,0,0,1,113.33,408.567Z" transform="translate(-103.904 -369.334)" fill="#f6c37b" opacity="0.5"/>
    </g>
    <g id="Grupo_33559" data-name="Grupo 33559" transform="translate(388.501 379.321)">
      <path id="Trazado_35489" data-name="Trazado 35489" d="M458.139,389.788H391.564a9.554,9.554,0,0,1-9.554-9.554h0a9.554,9.554,0,0,1,9.554-9.554h66.574a9.554,9.554,0,0,1,9.554,9.554h0A9.56,9.56,0,0,1,458.139,389.788Z" transform="translate(-382.01 -370.68)" fill="#fff"/>
      <path id="Trazado_35490" data-name="Trazado 35490" d="M394.729,383.047h0a2.5,2.5,0,0,1-2.5-2.5h0a2.5,2.5,0,0,1,2.5-2.5h0a2.5,2.5,0,0,1,2.5,2.5h0A2.509,2.509,0,0,1,394.729,383.047Zm9.917-2.5h0a2.5,2.5,0,0,0-2.5-2.5h0a2.5,2.5,0,0,0-2.5,2.5h0a2.5,2.5,0,0,0,2.5,2.5h0A2.5,2.5,0,0,0,404.645,380.549Zm7.418,0h0a2.5,2.5,0,0,0-2.5-2.5h0a2.5,2.5,0,0,0-2.5,2.5h0a2.5,2.5,0,0,0,2.5,2.5h0A2.5,2.5,0,0,0,412.063,380.549Zm7.418,0h0a2.5,2.5,0,0,0-2.5-2.5h0a2.5,2.5,0,0,0-2.5,2.5h0a2.5,2.5,0,0,0,2.5,2.5h0A2.5,2.5,0,0,0,419.481,380.549Zm7.418,0h0a2.5,2.5,0,0,0-2.5-2.5h0a2.5,2.5,0,0,0-2.5,2.5h0a2.5,2.5,0,0,0,2.5,2.5h0A2.5,2.5,0,0,0,426.9,380.549Zm7.428,0h0a2.5,2.5,0,0,0-2.5-2.5h0a2.5,2.5,0,0,0-2.5,2.5h0a2.5,2.5,0,0,0,2.5,2.5h0A2.5,2.5,0,0,0,434.327,380.549Zm7.418,0h0a2.5,2.5,0,0,0-2.5-2.5h0a2.5,2.5,0,0,0-2.5,2.5h0a2.5,2.5,0,0,0,2.5,2.5h0A2.5,2.5,0,0,0,441.744,380.549Z" transform="translate(-382.215 -370.828)" fill="#d82366"/>
    </g>
    <path id="Trazado_35491" data-name="Trazado 35491" d="M87.381,216.573s1.235-16.913,17.325-16.913,18.158,16.913,18.158,16.913,20.627-7.428,27.643,17.325H62.629S60.15,219.042,87.381,216.573Z" transform="translate(12.911 12.078)" fill="#fff"/>
    <path id="Trazado_35492" data-name="Trazado 35492" d="M422.341,280.316s1.725-23.576,24.155-23.576,25.3,23.576,25.3,23.576,28.75-10.348,38.53,24.155H387.838C387.838,304.461,384.389,283.766,422.341,280.316Z" transform="translate(6.376 10.931)" fill="#fff"/>
    <g id="Grupo_33573" data-name="Grupo 33573" transform="translate(272.608 311.404)">
      <g id="Grupo_33560" data-name="Grupo 33560" transform="translate(2.744)">
        <path id="Trazado_35493" data-name="Trazado 35493" d="M271.381,311.051h0a4.857,4.857,0,0,1-4.841-4.841h0a4.857,4.857,0,0,1,4.841-4.841h0a4.858,4.858,0,0,1,4.841,4.841h0A4.864,4.864,0,0,1,271.381,311.051Z" transform="translate(-266.54 -301.37)" fill="#18a5be"/>
        <path id="Trazado_35494" data-name="Trazado 35494" d="M271.46,301.38a5.356,5.356,0,0,0-.98.1,4.831,4.831,0,0,1,0,9.466,4.614,4.614,0,0,0,.98.1,4.831,4.831,0,1,0,0-9.662Z" transform="translate(-266.619 -301.37)" fill="#43b4b7"/>
      </g>
      <g id="Grupo_33561" data-name="Grupo 33561" transform="translate(0 7.33)">
        <path id="Trazado_35495" data-name="Trazado 35495" d="M268.581,318.531h0a4.858,4.858,0,0,1-4.841-4.841h0a4.858,4.858,0,0,1,4.841-4.841h0a4.857,4.857,0,0,1,4.841,4.841h0A4.864,4.864,0,0,1,268.581,318.531Z" transform="translate(-263.74 -308.85)" fill="#18a5be"/>
        <path id="Trazado_35496" data-name="Trazado 35496" d="M268.66,308.86a5.36,5.36,0,0,0-.98.1,4.831,4.831,0,0,1,0,9.466,4.615,4.615,0,0,0,.98.1,4.831,4.831,0,1,0,0-9.662Z" transform="translate(-263.819 -308.85)" fill="#43b4b7"/>
      </g>
      <g id="Grupo_33562" data-name="Grupo 33562" transform="translate(0.813 15.306)">
        <path id="Trazado_35497" data-name="Trazado 35497" d="M269.411,326.671h0a4.858,4.858,0,0,1-4.841-4.841h0a4.858,4.858,0,0,1,4.841-4.841h0a4.858,4.858,0,0,1,4.841,4.841h0A4.858,4.858,0,0,1,269.411,326.671Z" transform="translate(-264.57 -316.99)" fill="#18a5be"/>
        <path id="Trazado_35498" data-name="Trazado 35498" d="M269.49,317a5.362,5.362,0,0,0-.98.1,4.831,4.831,0,0,1,0,9.466,4.617,4.617,0,0,0,.98.1,4.831,4.831,0,1,0,0-9.662Z" transform="translate(-264.649 -316.99)" fill="#43b4b7"/>
      </g>
      <g id="Grupo_33563" data-name="Grupo 33563" transform="translate(4.263 21.999)">
        <path id="Trazado_35499" data-name="Trazado 35499" d="M272.931,333.5h0a4.858,4.858,0,0,1-4.841-4.841h0a4.858,4.858,0,0,1,4.841-4.841h0a4.857,4.857,0,0,1,4.841,4.841h0A4.851,4.851,0,0,1,272.931,333.5Z" transform="translate(-268.09 -323.82)" fill="#18a5be"/>
        <path id="Trazado_35500" data-name="Trazado 35500" d="M273.01,323.83a5.358,5.358,0,0,0-.98.1,4.831,4.831,0,0,1,0,9.466,4.617,4.617,0,0,0,.98.1,4.831,4.831,0,1,0,0-9.662Z" transform="translate(-268.169 -323.82)" fill="#43b4b7"/>
      </g>
      <g id="Grupo_33564" data-name="Grupo 33564" transform="translate(9.672 28.192)">
        <path id="Trazado_35501" data-name="Trazado 35501" d="M278.451,339.821h0a4.857,4.857,0,0,1-4.841-4.841h0a4.858,4.858,0,0,1,4.841-4.841h0a4.858,4.858,0,0,1,4.841,4.841h0A4.864,4.864,0,0,1,278.451,339.821Z" transform="translate(-273.61 -330.14)" fill="#18a5be"/>
        <path id="Trazado_35502" data-name="Trazado 35502" d="M278.53,330.15a5.36,5.36,0,0,0-.98.1,4.831,4.831,0,0,1,0,9.466,4.617,4.617,0,0,0,.98.1,4.831,4.831,0,1,0,0-9.662Z" transform="translate(-273.689 -330.14)" fill="#43b4b7"/>
      </g>
      <g id="Grupo_33565" data-name="Grupo 33565" transform="translate(16.149 32.356)">
        <path id="Trazado_35503" data-name="Trazado 35503" d="M285.061,344.071h0a4.858,4.858,0,0,1-4.841-4.841h0a4.857,4.857,0,0,1,4.841-4.841h0a4.857,4.857,0,0,1,4.841,4.841h0A4.858,4.858,0,0,1,285.061,344.071Z" transform="translate(-280.22 -334.39)" fill="#18a5be"/>
        <path id="Trazado_35504" data-name="Trazado 35504" d="M285.14,334.4a5.358,5.358,0,0,0-.98.1,4.831,4.831,0,0,1,0,9.466,4.618,4.618,0,0,0,.98.1,4.831,4.831,0,1,0,0-9.662Z" transform="translate(-280.299 -334.39)" fill="#43b4b7"/>
      </g>
      <g id="Grupo_33566" data-name="Grupo 33566" transform="translate(22.401 34.61)">
        <path id="Trazado_35505" data-name="Trazado 35505" d="M291.441,346.371h0a4.857,4.857,0,0,1-4.841-4.841h0a4.857,4.857,0,0,1,4.841-4.841h0a4.857,4.857,0,0,1,4.841,4.841h0A4.864,4.864,0,0,1,291.441,346.371Z" transform="translate(-286.6 -336.69)" fill="#18a5be"/>
        <path id="Trazado_35506" data-name="Trazado 35506" d="M291.52,336.7a5.358,5.358,0,0,0-.98.1,4.831,4.831,0,0,1,0,9.466,4.617,4.617,0,0,0,.98.1,4.831,4.831,0,1,0,0-9.662Z" transform="translate(-286.679 -336.69)" fill="#43b4b7"/>
      </g>
      <g id="Grupo_33567" data-name="Grupo 33567" transform="translate(30.22 33.552)">
        <path id="Trazado_35507" data-name="Trazado 35507" d="M299.421,345.291h0a4.857,4.857,0,0,1-4.841-4.841h0a4.857,4.857,0,0,1,4.841-4.841h0a4.857,4.857,0,0,1,4.841,4.841h0A4.864,4.864,0,0,1,299.421,345.291Z" transform="translate(-294.58 -335.61)" fill="#18a5be"/>
        <path id="Trazado_35508" data-name="Trazado 35508" d="M299.5,335.62a5.357,5.357,0,0,0-.98.1,4.831,4.831,0,0,1,0,9.466,4.617,4.617,0,0,0,.98.1,4.831,4.831,0,1,0,0-9.662Z" transform="translate(-294.659 -335.61)" fill="#43b4b7"/>
      </g>
      <g id="Grupo_33568" data-name="Grupo 33568" transform="translate(37.383 30.759)">
        <path id="Trazado_35509" data-name="Trazado 35509" d="M306.731,342.441h0a4.858,4.858,0,0,1-4.841-4.841h0a4.857,4.857,0,0,1,4.841-4.841h0a4.858,4.858,0,0,1,4.841,4.841h0A4.851,4.851,0,0,1,306.731,342.441Z" transform="translate(-301.89 -332.76)" fill="#18a5be"/>
        <path id="Trazado_35510" data-name="Trazado 35510" d="M306.81,332.77a5.358,5.358,0,0,0-.98.1,4.831,4.831,0,0,1,0,9.466,4.622,4.622,0,0,0,.98.1,4.831,4.831,0,1,0,0-9.662Z" transform="translate(-301.969 -332.76)" fill="#43b4b7"/>
      </g>
      <g id="Grupo_33569" data-name="Grupo 33569" transform="translate(42.224 24.243)">
        <path id="Trazado_35511" data-name="Trazado 35511" d="M311.671,335.791h0a4.857,4.857,0,0,1-4.841-4.841h0a4.857,4.857,0,0,1,4.841-4.841h0a4.857,4.857,0,0,1,4.841,4.841h0A4.87,4.87,0,0,1,311.671,335.791Z" transform="translate(-306.83 -326.11)" fill="#18a5be"/>
        <path id="Trazado_35512" data-name="Trazado 35512" d="M311.75,326.12a5.36,5.36,0,0,0-.98.1,4.831,4.831,0,0,1,0,9.466,4.615,4.615,0,0,0,.98.1,4.831,4.831,0,1,0,0-9.662Z" transform="translate(-306.909 -326.11)" fill="#43b4b7"/>
      </g>
      <g id="Grupo_33570" data-name="Grupo 33570" transform="translate(45.477 17.001)">
        <path id="Trazado_35513" data-name="Trazado 35513" d="M314.991,328.4h0a4.857,4.857,0,0,1-4.841-4.841h0a4.858,4.858,0,0,1,4.841-4.841h0a4.858,4.858,0,0,1,4.841,4.841h0A4.851,4.851,0,0,1,314.991,328.4Z" transform="translate(-310.15 -318.72)" fill="#18a5be"/>
        <path id="Trazado_35514" data-name="Trazado 35514" d="M315.07,318.73a5.36,5.36,0,0,0-.98.1,4.831,4.831,0,0,1,0,9.466,4.617,4.617,0,0,0,.98.1,4.831,4.831,0,1,0,0-9.662Z" transform="translate(-310.229 -318.72)" fill="#43b4b7"/>
      </g>
      <g id="Grupo_33571" data-name="Grupo 33571" transform="translate(46.075 9.182)">
        <path id="Trazado_35515" data-name="Trazado 35515" d="M315.6,320.421h0a4.858,4.858,0,0,1-4.841-4.841h0a4.857,4.857,0,0,1,4.841-4.841h0a4.858,4.858,0,0,1,4.841,4.841h0A4.857,4.857,0,0,1,315.6,320.421Z" transform="translate(-310.76 -310.74)" fill="#18a5be"/>
        <path id="Trazado_35516" data-name="Trazado 35516" d="M315.68,310.75a5.358,5.358,0,0,0-.98.1,4.831,4.831,0,0,1,0,9.466,4.619,4.619,0,0,0,.98.1,4.831,4.831,0,1,0,0-9.662Z" transform="translate(-310.839 -310.74)" fill="#43b4b7"/>
      </g>
      <g id="Grupo_33572" data-name="Grupo 33572" transform="translate(45.095 0.98)">
        <path id="Trazado_35517" data-name="Trazado 35517" d="M314.6,312.051h0a4.858,4.858,0,0,1-4.841-4.841h0a4.857,4.857,0,0,1,4.841-4.841h0a4.857,4.857,0,0,1,4.841,4.841h0A4.851,4.851,0,0,1,314.6,312.051Z" transform="translate(-309.76 -302.37)" fill="#18a5be"/>
        <path id="Trazado_35518" data-name="Trazado 35518" d="M314.68,302.38a5.357,5.357,0,0,0-.98.1,4.831,4.831,0,0,1,0,9.466,4.619,4.619,0,0,0,.98.1,4.831,4.831,0,1,0,0-9.662Z" transform="translate(-309.839 -302.37)" fill="#43b4b7"/>
      </g>
    </g>
    <g id="Grupo_33580" data-name="Grupo 33580" transform="translate(407.099 262.908)">
      <g id="Grupo_33574" data-name="Grupo 33574" transform="translate(0 5.047)">
        <path id="Trazado_35519" data-name="Trazado 35519" d="M404.429,258.51l.01.4a1.527,1.527,0,0,1-1.48,1.558l-.4.01A1.527,1.527,0,0,1,401,259l-.01-.4a1.527,1.527,0,0,1,1.48-1.558l.4-.01A1.521,1.521,0,0,1,404.429,258.51Z" transform="translate(-400.99 -257.03)" fill="#18a5be"/>
        <path id="Trazado_35520" data-name="Trazado 35520" d="M400.99,258.8a1.457,1.457,0,0,0,.049.353,1.728,1.728,0,0,1,3.381-.078,2.146,2.146,0,0,0,.029-.353,1.73,1.73,0,0,0-3.459.078Z" transform="translate(-400.99 -257.03)" fill="#43b4b7"/>
      </g>
      <g id="Grupo_33575" data-name="Grupo 33575" transform="translate(2.636 5.968)">
        <path id="Trazado_35521" data-name="Trazado 35521" d="M407.119,259.45l.01.4a1.527,1.527,0,0,1-1.48,1.558l-.4.01a1.527,1.527,0,0,1-1.558-1.48l-.01-.4a1.527,1.527,0,0,1,1.48-1.558l.4-.01A1.514,1.514,0,0,1,407.119,259.45Z" transform="translate(-403.679 -257.969)" fill="#18a5be"/>
        <path id="Trazado_35522" data-name="Trazado 35522" d="M403.68,259.734a1.459,1.459,0,0,0,.049.353,1.728,1.728,0,0,1,3.381-.078,2.143,2.143,0,0,0,.029-.353,1.73,1.73,0,0,0-3.459.078Z" transform="translate(-403.679 -257.969)" fill="#43b4b7"/>
      </g>
      <g id="Grupo_33576" data-name="Grupo 33576" transform="translate(5.468 5.606)">
        <path id="Trazado_35523" data-name="Trazado 35523" d="M410.009,259.08l.01.4a1.527,1.527,0,0,1-1.48,1.558l-.4.01a1.527,1.527,0,0,1-1.558-1.48l-.01-.4a1.527,1.527,0,0,1,1.48-1.558l.4-.01A1.521,1.521,0,0,1,410.009,259.08Z" transform="translate(-406.57 -257.6)" fill="#18a5be"/>
        <path id="Trazado_35524" data-name="Trazado 35524" d="M406.57,259.364a1.458,1.458,0,0,0,.049.353,1.728,1.728,0,0,1,3.381-.078,2.146,2.146,0,0,0,.029-.353,1.73,1.73,0,0,0-3.459.078Z" transform="translate(-406.57 -257.6)" fill="#43b4b7"/>
      </g>
      <g id="Grupo_33577" data-name="Grupo 33577" transform="translate(7.82 4.321)">
        <path id="Trazado_35525" data-name="Trazado 35525" d="M412.419,257.77l.01.4a1.527,1.527,0,0,1-1.48,1.558l-.4.01a1.527,1.527,0,0,1-1.558-1.48l-.01-.4a1.527,1.527,0,0,1,1.48-1.558l.4-.01A1.527,1.527,0,0,1,412.419,257.77Z" transform="translate(-408.97 -256.289)" fill="#18a5be"/>
        <path id="Trazado_35526" data-name="Trazado 35526" d="M408.97,258.054a1.458,1.458,0,0,0,.049.353,1.728,1.728,0,0,1,3.381-.078,2.146,2.146,0,0,0,.029-.353,1.73,1.73,0,0,0-3.459.078Z" transform="translate(-408.97 -256.289)" fill="#43b4b7"/>
      </g>
      <g id="Grupo_33578" data-name="Grupo 33578" transform="translate(9.985 2.342)">
        <path id="Trazado_35527" data-name="Trazado 35527" d="M414.62,255.75l.01.4a1.527,1.527,0,0,1-1.48,1.558l-.4.01a1.527,1.527,0,0,1-1.558-1.48l-.01-.4a1.527,1.527,0,0,1,1.48-1.558l.4-.01A1.521,1.521,0,0,1,414.62,255.75Z" transform="translate(-411.179 -254.269)" fill="#18a5be"/>
        <path id="Trazado_35528" data-name="Trazado 35528" d="M411.18,256.034a1.458,1.458,0,0,0,.049.353,1.728,1.728,0,0,1,3.381-.078,2.143,2.143,0,0,0,.029-.353,1.73,1.73,0,0,0-3.459.078Z" transform="translate(-411.179 -254.269)" fill="#43b4b7"/>
      </g>
      <g id="Grupo_33579" data-name="Grupo 33579" transform="translate(11.415)">
        <path id="Trazado_35529" data-name="Trazado 35529" d="M416.079,253.36l.01.4a1.527,1.527,0,0,1-1.48,1.558l-.4.01a1.527,1.527,0,0,1-1.558-1.48l-.01-.4a1.527,1.527,0,0,1,1.48-1.558l.4-.01A1.514,1.514,0,0,1,416.079,253.36Z" transform="translate(-412.639 -251.879)" fill="#18a5be"/>
        <path id="Trazado_35530" data-name="Trazado 35530" d="M412.64,253.644a1.458,1.458,0,0,0,.049.353,1.728,1.728,0,0,1,3.381-.078,2.143,2.143,0,0,0,.029-.353,1.73,1.73,0,0,0-3.459.078Z" transform="translate(-412.639 -251.879)" fill="#43b4b7"/>
      </g>
    </g>
    <g id="Grupo_33587" data-name="Grupo 33587" transform="translate(318.175 460.625)">
      <g id="Grupo_33581" data-name="Grupo 33581" transform="translate(0 14.284)">
        <path id="Trazado_35531" data-name="Trazado 35531" d="M312.954,468.416l.813.451a1.514,1.514,0,0,1,.588,2.068l-.451.813a1.514,1.514,0,0,1-2.068.588l-.813-.451a1.514,1.514,0,0,1-.588-2.068l.451-.813A1.536,1.536,0,0,1,312.954,468.416Z" transform="translate(-310.242 -468.228)" fill="#18a5be"/>
        <path id="Trazado_35532" data-name="Trazado 35532" d="M311.439,472.114a1.771,1.771,0,0,0,.372.157,1.986,1.986,0,0,1,1.891-3.4,2.032,2.032,0,0,0-.333-.235,1.989,1.989,0,0,0-1.93,3.479Z" transform="translate(-310.246 -468.232)" fill="#43b4b7"/>
      </g>
      <g id="Grupo_33582" data-name="Grupo 33582" transform="translate(2.45 12.2)">
        <path id="Trazado_35533" data-name="Trazado 35533" d="M315.454,466.3l.813.451a1.514,1.514,0,0,1,.588,2.068l-.451.813a1.514,1.514,0,0,1-2.068.588l-.813-.451a1.514,1.514,0,0,1-.588-2.068l.451-.813A1.514,1.514,0,0,1,315.454,466.3Z" transform="translate(-312.742 -466.102)" fill="#18a5be"/>
        <path id="Trazado_35534" data-name="Trazado 35534" d="M313.929,469.994a1.766,1.766,0,0,0,.372.157,1.986,1.986,0,0,1,1.891-3.4,2.032,2.032,0,0,0-.333-.235,1.989,1.989,0,0,0-1.93,3.479Z" transform="translate(-312.745 -466.105)" fill="#43b4b7"/>
      </g>
      <g id="Grupo_33583" data-name="Grupo 33583" transform="translate(3.743 9.174)">
        <path id="Trazado_35535" data-name="Trazado 35535" d="M316.774,463.206l.813.451a1.514,1.514,0,0,1,.588,2.068l-.451.813a1.514,1.514,0,0,1-2.068.588l-.813-.451a1.514,1.514,0,0,1-.588-2.068l.451-.813A1.527,1.527,0,0,1,316.774,463.206Z" transform="translate(-314.062 -463.014)" fill="#18a5be"/>
        <path id="Trazado_35536" data-name="Trazado 35536" d="M315.259,466.9a1.768,1.768,0,0,0,.372.157,1.986,1.986,0,0,1,1.891-3.4,2.036,2.036,0,0,0-.333-.235,1.989,1.989,0,0,0-1.93,3.479Z" transform="translate(-314.066 -463.017)" fill="#43b4b7"/>
      </g>
      <g id="Grupo_33584" data-name="Grupo 33584" transform="translate(3.841 6.085)">
        <path id="Trazado_35537" data-name="Trazado 35537" d="M316.874,460.056l.813.451a1.514,1.514,0,0,1,.588,2.068l-.451.813a1.514,1.514,0,0,1-2.068.588l-.813-.451a1.514,1.514,0,0,1-.588-2.068l.451-.813A1.519,1.519,0,0,1,316.874,460.056Z" transform="translate(-314.162 -459.862)" fill="#18a5be"/>
        <path id="Trazado_35538" data-name="Trazado 35538" d="M315.359,463.754a1.767,1.767,0,0,0,.372.157,1.986,1.986,0,0,1,1.891-3.4,2.032,2.032,0,0,0-.333-.235,1.989,1.989,0,0,0-1.93,3.479Z" transform="translate(-314.166 -459.865)" fill="#43b4b7"/>
      </g>
      <g id="Grupo_33585" data-name="Grupo 33585" transform="translate(3.136 2.789)">
        <path id="Trazado_35539" data-name="Trazado 35539" d="M316.154,456.686l.813.451a1.514,1.514,0,0,1,.588,2.068l-.451.813a1.514,1.514,0,0,1-2.068.588l-.813-.451a1.514,1.514,0,0,1-.588-2.068l.451-.813A1.536,1.536,0,0,1,316.154,456.686Z" transform="translate(-313.442 -456.498)" fill="#18a5be"/>
        <path id="Trazado_35540" data-name="Trazado 35540" d="M314.639,460.384a1.769,1.769,0,0,0,.372.157,1.986,1.986,0,0,1,1.891-3.4,2.033,2.033,0,0,0-.333-.235,1.989,1.989,0,0,0-1.93,3.479Z" transform="translate(-313.446 -456.502)" fill="#43b4b7"/>
      </g>
      <g id="Grupo_33586" data-name="Grupo 33586" transform="translate(1.646)">
        <path id="Trazado_35541" data-name="Trazado 35541" d="M314.634,453.846l.813.451a1.514,1.514,0,0,1,.588,2.068l-.451.813a1.514,1.514,0,0,1-2.068.588l-.813-.451a1.514,1.514,0,0,1-.588-2.068l.451-.813A1.514,1.514,0,0,1,314.634,453.846Z" transform="translate(-311.922 -453.652)" fill="#18a5be"/>
        <path id="Trazado_35542" data-name="Trazado 35542" d="M313.119,457.544a1.763,1.763,0,0,0,.372.157,1.986,1.986,0,0,1,1.891-3.4,2.031,2.031,0,0,0-.333-.235,1.989,1.989,0,0,0-1.93,3.479Z" transform="translate(-311.926 -453.655)" fill="#43b4b7"/>
      </g>
    </g>
    <g id="Grupo_33588" data-name="Grupo 33588" transform="translate(108.151 106.723)">
      <path id="Unión_1" data-name="Unión 1" d="M-3535.016,660.821h-83.654c5.693-22.567,37.6-22.91,37.6-22.91,6.479-16.055,20.645-17.587,31.568-15.967,3.52-6.107,9.933-12.048,21.562-12.048,23.928,0,26.9,22.919,26.9,22.919s41.2-.519,41.2,28.006Z" transform="translate(3594 -643.926)" fill="#bea0ff"/>
    </g>
    <g id="Grupo_33589" data-name="Grupo 33589" transform="translate(454.047 104.429)">
      <path id="Unión_2" data-name="Unión 2" d="M-3927.583,616.245h-36.982c0-14.032,20.275-13.777,20.275-13.777s1.45-11.278,13.228-11.278a11.487,11.487,0,0,1,10.613,5.932c5.372-.8,12.335-.038,15.522,7.855,0,0,15.7.166,18.5,11.268Z" transform="translate(3979.863 -589)" fill="#bea0ff"/>
    </g>
    <g id="Grupo_33590" data-name="Grupo 33590" transform="translate(350.834 214.174)">
      <path id="Trazado_35547" data-name="Trazado 35547" d="M343.57,205.54c0,2.754,0,7.486,12.151,6.712,3.724-.235,6.761-2.234,6.761-4.988s-3.028-4.988-6.761-4.988S343.57,201.141,343.57,205.54Z" transform="translate(-343.57 -202.145)" fill="#4b23ef"/>
    </g>
    <g id="Grupo_33592" data-name="Grupo 33592" transform="translate(132.536 349.621)">
      <path id="Trazado_35549" data-name="Trazado 35549" d="M133.548,343.29c-.96-2.587-3.038-3.8-6.056-2.195a11.261,11.261,0,0,0-4.037,4.37c-1.656,2.754-3.057,5.87-2.558,9.005a8.375,8.375,0,0,0,3.782,5.664,4.659,4.659,0,0,0,2.783.843,5.188,5.188,0,0,0,2.861-1.391,28.9,28.9,0,0,0,4.831-5.752,7.4,7.4,0,0,0,1.617-3.459C136.978,347.68,134.43,345.671,133.548,343.29Z" transform="translate(-120.795 -340.371)" fill="#bea0ff"/>
    </g>
    <g id="Grupo_33593" data-name="Grupo 33593" transform="translate(129.376 334.67)">
      <path id="Trazado_35550" data-name="Trazado 35550" d="M119.412,325.835a2.85,2.85,0,0,0-1.352.941,2.756,2.756,0,0,0-.343,1.205,23.59,23.59,0,0,0-.147,2.626,3.445,3.445,0,0,0,.843,2.675c1,.882,2.577.568,3.88.206a3.766,3.766,0,0,0,1.989-1.019,3.219,3.219,0,0,0,.568-1.489c.314-1.754,1.284-4.41.216-5.321C123.988,324.767,121.274,325.071,119.412,325.835Z" transform="translate(-117.57 -325.113)" fill="#bea0ff"/>
    </g>
    <g id="Grupo_33594" data-name="Grupo 33594" transform="translate(469.823 322.802)">
      <path id="Trazado_35551" data-name="Trazado 35551" d="M475.25,315.509a5.667,5.667,0,0,0-1.117-1.656,3.407,3.407,0,0,0-4.841.343,7.215,7.215,0,0,0-1.146,2.577c-2.283,7.771-4.566,16.188-2.038,23.743.314.921.833,1.94,1.764,2.077,1.127.167,2.009-1.019,2.577-2.077C474.329,333.245,479.16,323.524,475.25,315.509Z" transform="translate(-465 -313.001)" fill="#4b23ef"/>
    </g>
    <g id="Grupo_33595" data-name="Grupo 33595" transform="translate(212.579 171.54)">
      <path id="Trazado_35552" data-name="Trazado 35552" d="M220.736,159.492c-7.046-.951-18.256-2.293-18.256,3.4,0,2.156,9.946,4.223,11.592,4.615a132.406,132.406,0,0,1,14.826,4.88c9.231,3.41,16.619-1.186,9.309-6.33A37.443,37.443,0,0,0,220.736,159.492Z" transform="translate(-202.48 -158.637)" fill="#bea0ff"/>
    </g>
    <g id="Grupo_33596" data-name="Grupo 33596" transform="translate(409.125 454.929)">
      <path id="Trazado_35553" data-name="Trazado 35553" d="M426.391,460.226c6.634-2.558,17.109-6.771,14.365-11.769-1.039-1.881-10.75,1.088-12.386,1.529a132.8,132.8,0,0,1-15.345,2.861c-9.73,1.45-14,9.035-5.115,10.034A37.666,37.666,0,0,0,426.391,460.226Z" transform="translate(-403.057 -447.839)" fill="#bea0ff"/>
    </g>
  </g>
</svg>
