<?xml version="1.0" encoding="utf-8"?>
<!-- Generator: Adobe Illustrator 23.0.4, SVG Export Plug-In . SVG Version: 6.00 Build 0)  -->
<svg version="1.1" id="Capa_1" xmlns="http://www.w3.org/2000/svg" xmlns:xlink="http://www.w3.org/1999/xlink" x="0px" y="0px"
	 viewBox="0 0 124 107.6" style="enable-background:new 0 0 124 107.6;" xml:space="preserve">
<style type="text/css">
	.st0{enable-background:new    ;}
	.st1{fill:#FFF;}
	.st2{fill:#383838;}
	.st3{fill:#303030;}
	.st4{fill:#191919;}
	.st5{fill:#1C1C1C;}
	.st6{fill:#262626;}
	.st7{fill:#161616;}
	.st8{fill:#FBFBF9;}
</style>
<g id="Grupo_3995" transform="translate(-118 -69.445)">
	<g class="st0">
		<path class="st1" d="M134.5,166.7c-1.3,0.6-2.8,0.9-4.5,0.9c-1.5,0-2.9-0.3-4.2-0.8s-2.4-1.2-3.4-2.1c-1-0.9-1.7-2-2.2-3.3
			c-0.5-1.3-0.8-2.7-0.8-4.3c0-1.6,0.3-3,0.8-4.3s1.3-2.4,2.3-3.3c1-0.9,2.1-1.6,3.4-2.1c1.3-0.5,2.7-0.7,4.2-0.7
			c1.4,0,2.8,0.2,4.1,0.7c1.4,0.5,2.5,1.2,3.3,2.2l-3.2,3.2c-0.4-0.6-1-1.1-1.8-1.4c-0.7-0.3-1.5-0.4-2.2-0.4
			c-0.8,0-1.6,0.2-2.3,0.5c-0.7,0.3-1.3,0.7-1.8,1.3c-0.5,0.5-0.9,1.2-1.2,1.9c-0.3,0.7-0.4,1.5-0.4,2.4c0,0.9,0.1,1.7,0.4,2.5
			c0.3,0.7,0.7,1.4,1.2,1.9c0.5,0.5,1.1,0.9,1.8,1.2c0.7,0.3,1.4,0.4,2.3,0.4c1,0,1.8-0.2,2.5-0.6c0.7-0.4,1.3-0.9,1.7-1.5l3.3,3.1
			C136.9,165.3,135.8,166.1,134.5,166.7z"/>
		<path class="st1" d="M153.3,167l-1.5-3.9h-7.7l-1.5,3.9h-5.2l8.3-19.8h4.6l8.2,19.8H153.3z M148,152.5l-2.5,6.8h5L148,152.5z"/>
		<path class="st1" d="M171.2,152.3c-0.4-0.5-0.9-0.9-1.6-1.2s-1.3-0.5-1.9-0.5c-0.3,0-0.6,0-1,0.1c-0.3,0.1-0.6,0.2-0.9,0.3
			c-0.3,0.2-0.5,0.4-0.7,0.6c-0.2,0.3-0.3,0.6-0.3,1c0,0.3,0.1,0.6,0.2,0.8c0.1,0.2,0.3,0.4,0.6,0.6c0.3,0.2,0.6,0.3,1,0.5
			s0.8,0.3,1.3,0.4c0.7,0.2,1.4,0.5,2.1,0.7s1.4,0.6,2,1.1c0.6,0.4,1.1,1,1.5,1.7c0.4,0.7,0.6,1.5,0.6,2.5c0,1.1-0.2,2.1-0.6,3
			c-0.4,0.8-1,1.5-1.7,2.1c-0.7,0.5-1.5,0.9-2.4,1.2c-0.9,0.3-1.9,0.4-2.8,0.4c-1.4,0-2.8-0.2-4.1-0.7c-1.3-0.5-2.4-1.2-3.3-2.1
			l3.1-3.2c0.5,0.6,1.1,1.1,1.9,1.5c0.8,0.4,1.6,0.6,2.4,0.6c0.4,0,0.7,0,1-0.1c0.3-0.1,0.6-0.2,0.9-0.4s0.5-0.4,0.6-0.7
			s0.2-0.6,0.2-1c0-0.4-0.1-0.7-0.3-1c-0.2-0.3-0.5-0.5-0.8-0.7c-0.3-0.2-0.8-0.4-1.3-0.6c-0.5-0.2-1.1-0.4-1.8-0.6
			c-0.6-0.2-1.3-0.4-1.9-0.7c-0.6-0.3-1.1-0.6-1.6-1.1c-0.5-0.4-0.9-1-1.1-1.6c-0.3-0.6-0.4-1.4-0.4-2.3c0-1.1,0.2-2,0.7-2.8
			c0.4-0.8,1-1.4,1.8-1.9s1.5-0.9,2.5-1.1s1.8-0.4,2.8-0.4c1.1,0,2.3,0.2,3.4,0.6c1.2,0.4,2.2,1,3.1,1.8L171.2,152.3z"/>
		<path class="st1" d="M190.3,167v-8.3h-7.7v8.3h-4.8v-19.8h4.8v7.5h7.7v-7.5h4.8V167H190.3z"/>
		<path class="st1" d="M217.6,167l0.1-14h-0.1l-5.2,14h-3.4l-5-14H204l0.1,14h-4.5v-19.8h6.8l4.5,12.7h0.1l4.3-12.7h6.9V167H217.6z"
			/>
		<path class="st1" d="M226.8,167v-19.8h13.3v4h-8.7v3.8h8.2v3.8h-8.2v4.1h9.2v4.1H226.8z"/>
	</g>
	<g id="Grupo_1108" transform="translate(-8.192 28.404)">
		<g id="Grupo_1107" transform="translate(151.192 41.041)">
			<path id="Trazado_643" class="st2" d="M45.6,0.9C27.9-2.6,9.6,4.3,8.3,18.5c-1,10,1.9,13.6,0.3,19.7s-2.8,13.7,8,17.4
				S50,60,62.6,53.7s3.7-16.5,4.8-23.7S67.6,5.2,45.6,0.9z"/>
			<path id="Trazado_644" class="st3" d="M30.2,28.5c-2.5,0.3-2.3-2.3-3.1-5.4s-5.3-7.3-11.1-3.8s-6.5,7.2-4.8,13s7.2,3.6,6.7,6.9
				S15,49,19.8,52.8c6.6,5.3,20.6,5.3,30.5,0.8c5.3-2.4,0.7-11.7,2.1-13.1s10.8-0.4,10.7-8.6S56.8,19.4,51,20.7s-6.6,4-6.7,7.5
				c-0.1,2.1-1.8,2.1-2.8,1.6C37.9,28.5,34,28,30.2,28.5z"/>
			<path id="Trazado_645" d="M26.9,46.8c-3.1,4.6,13.1,6,14.5,2.3s-5.6-13.5-6.6-13.3S28.9,42.6,26.9,46.8z"/>
			<path id="Trazado_646" class="st4" d="M29.3,46.8c-0.2,0.9,0.3,1.9,1.2,2.2c1.6,0.6,6.6,0.9,7.5,0.2s0.4-2.3,0.4-2.3L29.3,46.8z"
				/>
			<path id="Trazado_647" class="st1" d="M26,27.4c0,3.5-2.8,6.4-6.3,6.4c-3.5,0-6.4-2.8-6.4-6.3c0-3.4,2.6-6.2,6-6.4
				C22.9,21,25.9,23.8,26,27.4z"/>
			<path id="Trazado_648" class="st5" d="M19.4,4.2c-1.1-3.1-3.6-6.3-9-0.4C6.2,8.3,0.6,7.1,0,11.4s5,5.4,5.8,10.4s6.1-0.8,7-7.1
				s4.4-9.3,4.4-9.3L19.4,4.2z"/>
			<path id="Trazado_649" class="st5" d="M55.4,4.3c1.3-3.1,4-6.1,9,0.1c3.9,4.8,9.6,3.8,9.9,8.1S69,17.7,68,22.7s-6.1-1.1-6.6-7.4
				s-3.9-9.5-3.9-9.5L55.4,4.3z"/>
			<path id="Trazado_650" class="st1" d="M60.3,29.7c0,3.5-2.8,6.4-6.3,6.4c-3.5,0-6.4-2.8-6.4-6.3c0-3.4,2.6-6.2,6-6.4
				C57.1,23.3,60.1,26.1,60.3,29.7C60.3,29.7,60.3,29.7,60.3,29.7z"/>
			<path id="Trazado_651" d="M58.7,30c0.2,2.6-1.8,4.8-4.4,5c-2.6,0.2-4.8-1.8-5-4.4c-0.2-2.6,1.8-4.8,4.4-5
				C56.3,25.4,58.5,27.4,58.7,30C58.7,30,58.7,30,58.7,30z"/>
			<path id="Trazado_652" d="M24.1,28.4c0,2.6-2.2,4.7-4.8,4.7c-2.6,0-4.7-2.2-4.7-4.8s2.2-4.7,4.8-4.7c0,0,0,0,0,0
				C22,23.6,24.1,25.7,24.1,28.4z"/>
			<path id="Trazado_653" class="st4" d="M29.6,31c-4.2,1.1-13,6.9-13.1,12.4c-0.2,3.7,2.5,6.9,6.2,7.1c1.2,0.1,2.3-0.2,3.4-0.7
				c4.4-2.1,7.7-13,8.8-14.7C33.7,33,29.6,31,29.6,31z"/>
			<path id="Trazado_654" class="st4" d="M34.4,35.6c0.2,1.8,3.4,7.1,4.6,10.9s5.1,5.7,9.6,3.6s6.4-6.8,2.3-11.4s-9.7-7.3-11.1-6.9
				C38.3,32.3,34.4,35.6,34.4,35.6z"/>
			<path id="Trazado_655" d="M23.8,14.5c-0.1,0.2-0.6,0.1-1.5,0c-1.1-0.1-2.2,0.1-3.2,0.4c-1,0.4-2,0.9-2.9,1.5
				c-0.7,0.5-1.2,0.8-1.3,0.7c-0.1-0.1,0.1-0.6,0.8-1.3c0.8-0.9,1.9-1.6,3.1-2c0.7-0.2,1.3-0.3,2-0.4c0.6,0,1.1,0.1,1.7,0.2
				C23.4,14,23.9,14.4,23.8,14.5z"/>
			<path id="Trazado_656" d="M58.3,18.5c-0.1,0.1-0.5-0.2-1.1-0.6c-0.7-0.5-1.5-1-2.4-1.4c-0.9-0.4-1.7-0.6-2.6-0.8
				c-0.7-0.2-1.2-0.2-1.2-0.4s0.4-0.4,1.2-0.4c1-0.1,2.1,0.1,3,0.5c1,0.4,1.8,1,2.5,1.9c0.2,0.2,0.4,0.5,0.5,0.8
				C58.4,18.4,58.4,18.5,58.3,18.5z"/>
			<g id="Grupo_1106" transform="translate(29.379 28.666)">
				<path id="Trazado_657" d="M0,2C0,2,0-0.3,4.7,0s6,1.7,6.3,2.6s-0.4,5.3-5.9,5C2.3,7.6,0,5.2,0,2.3C0,2.2,0,2.1,0,2z"/>
				<path id="Trazado_658" class="st6" d="M4.5,3.8c0,0-0.2-2-1.9-1.7c-1.2,0.2-0.3,3.6,0.8,4S4.6,4.8,4.5,3.8z"/>
				<path id="Trazado_659" class="st6" d="M6.4,3.8c0,0,0.3-2,2-1.6c1.2,0.3,0.1,3.6-1,3.9S6.3,4.9,6.4,3.8z"/>
				<path id="Trazado_660" class="st7" d="M5.6,0.5c0,0,2.5,0,3.5,0.8c0,0,0.1,0.5-1.5,0.2S5.4,1,5.6,0.5z"/>
			</g>
			<path id="Trazado_661" class="st1" d="M17,29.5c-0.4,0-0.8-0.3-0.8-0.8c-0.2-1.5,0.7-2.9,2.1-3.5c0.4-0.2,0.9,0.1,1.1,0.5
				c0.2,0.4-0.1,0.9-0.5,1.1c-0.7,0.3-1.1,1.1-1,1.9C17.9,29.1,17.5,29.4,17,29.5C17.1,29.5,17.1,29.5,17,29.5L17,29.5z"/>
			<path id="Trazado_662" class="st1" d="M51.9,31.3c-0.4,0-0.8-0.3-0.8-0.8c-0.2-1.5,0.7-2.9,2-3.5c0.4-0.2,0.9,0.1,1.1,0.5
				s-0.1,0.9-0.5,1.1c-0.7,0.3-1.1,1.1-1,1.9C52.7,30.9,52.4,31.3,51.9,31.3C51.9,31.3,51.9,31.3,51.9,31.3L51.9,31.3z"/>
		</g>
		<path id="Trazado_663" class="st8" d="M181.5,87.5c0,0-0.6-1.1,0.4-3.8c0.5,1.3,1.1,2.5,2,3.6C183.2,87.6,182.3,87.7,181.5,87.5z"
			/>
		<path id="Trazado_664" class="st8" d="M183.6,85l-0.7,2.3c0.7,0.5,1.5,0.5,2.3,0.2L183.6,85z"/>
		<path id="Trazado_665" class="st6" d="M181.3,86.6c2.8,0.3,5.6,0.4,8.5,0.2c0.4,0,0.7,0.1,1,0.4l0,0c0.3,0.5,0.2,1.1-0.3,1.4
			c-0.1,0.1-0.3,0.1-0.4,0.2c-3,0.4-6,0.3-9-0.1c-0.6-0.1-1-0.6-0.9-1.1c0-0.2,0.1-0.4,0.2-0.6l0-0.1
			C180.6,86.7,180.9,86.6,181.3,86.6z"/>
	</g>
</g>
</svg>
