<svg xmlns="http://www.w3.org/2000/svg" xmlns:xlink="http://www.w3.org/1999/xlink" width="176" height="176" viewBox="0 0 176 176">
  <defs>
    <clipPath id="clip-path">
      <path id="Path_40274" data-name="Path 40274" d="M5323.284,5022.675h-165.52a2.026,2.026,0,0,0-2.021,2.021v118.237a2.027,2.027,0,0,0,2.021,2.022h19.083c-1.193,24.861,19.517,40.527,19.517,40.527,20.866,18.012,103.594,20.928,124.731-39.717.094-.271.174-.54.265-.81h1.924a2.027,2.027,0,0,0,2.021-2.022V5024.7A2.027,2.027,0,0,0,5323.284,5022.675Z" fill="none"/>
    </clipPath>
    <clipPath id="clip-path-2">
      <rect id="Rectangle_4261" data-name="Rectangle 4261" width="44.136" height="28.391" rx="1.34" transform="translate(5166.718 5046.563) rotate(-5.282)" fill="none"/>
    </clipPath>
    <linearGradient id="linear-gradient" x1="16.833" y1="6.728" x2="18.701" y2="6.728" gradientUnits="objectBoundingBox">
      <stop offset="0" stop-color="#4a1ed9"/>
      <stop offset="0.917" stop-color="#5d2af5"/>
      <stop offset="1" stop-color="#602cf8"/>
    </linearGradient>
    <linearGradient id="linear-gradient-2" x1="-109.348" y1="-425.172" x2="-109.169" y2="-427.51" gradientUnits="objectBoundingBox">
      <stop offset="0" stop-color="#fff"/>
      <stop offset="0.036" stop-color="#fff" stop-opacity="0.941"/>
      <stop offset="0.192" stop-color="#fff" stop-opacity="0.694"/>
      <stop offset="0.347" stop-color="#fff" stop-opacity="0.482"/>
      <stop offset="0.497" stop-color="#fff" stop-opacity="0.31"/>
      <stop offset="0.64" stop-color="#fff" stop-opacity="0.176"/>
      <stop offset="0.775" stop-color="#fff" stop-opacity="0.078"/>
      <stop offset="0.898" stop-color="#fff" stop-opacity="0.02"/>
      <stop offset="1" stop-color="#fff" stop-opacity="0"/>
    </linearGradient>
    <linearGradient id="linear-gradient-3" x1="-97.584" y1="-251.472" x2="-97.401" y2="-253.046" xlink:href="#linear-gradient-2"/>
  </defs>
  <g id="Group_37242" data-name="Group 37242" transform="translate(-5154.167 -5021.675)">
    <g id="Group_36504" data-name="Group 36504">
      <g id="Group_36503" data-name="Group 36503" clip-path="url(#clip-path)">
        <path id="Path_40203" data-name="Path 40203" d="M5196.364,5185.482s-30.481-23.049-15.363-57.6,43.92-12.932,70.592-54.077,90.639,11.318,69.5,71.964S5217.23,5203.494,5196.364,5185.482Z" fill="#6d31ff"/>
        <g id="Group_36502" data-name="Group 36502">
          <path id="Path_40204" data-name="Path 40204" d="M5272.575,5139.93l23.3-3.133s5.889-15.016-31-16.73-34.736,9.64-34.537,13.79S5272.575,5139.93,5272.575,5139.93Z" fill="#f2bc98"/>
          <g id="Group_36480" data-name="Group 36480">
            <path id="Path_40205" data-name="Path 40205" d="M5227.158,5129.914c-4.266-12.932,22.29-10.842,22.29-10.842l21.512.341s30.5,2.45,25.945,13.364c-5.394,12.927-9.273,15.48-9.273,15.48s-1.73,29.956-1.818,35.514l-.557,35.13-25.93,1.078L5232,5218.056l.557-35.13c.089-5.557-.188-38.258-.188-38.258S5231.6,5143.377,5227.158,5129.914Z" fill="#392e2e"/>
          </g>
          <path id="Path_40206" data-name="Path 40206" d="M5288.917,5129.531l2.906-5.26s10.182,5.261,15.458,4c5.861-1.4-.764-27.379-18.364-38.135l2.956-7.435s27.893,17.564,32.02,43.532c5.6,35.213-41.251,23.441-41.251,23.441Z" fill="#392e2e"/>
          <path id="Path_40207" data-name="Path 40207" d="M5238.233,5134.64l-9.691-11.6s-16.543,13.882-30.566,6.494-8.408-42.589-8.408-42.589l-9.416-2.246s-20.051,75.062,51.313,63.97l7.979-3.325Z" fill="#392e2e"/>
          <path id="Path_40208" data-name="Path 40208" d="M5285.257,5218.9s.469-29.573.557-35.13c.073-4.609,1.274-25.985,1.682-33.152,11.83,1.886,40.87,3.764,36.4-24.387a52.313,52.313,0,0,0-9.405-21.809c.053.13,14.333,34.965-10.988,35.508-25.369.543-26.282-.625-26.282-.625s-1.489,77.232-45.215,78.75l27.323,1.923Z" fill="#302525"/>
          <path id="Path_40209" data-name="Path 40209" d="M5187.786,5086.942l.962-6.278-5.588-.16-.96,4.548Z" fill="#f7af80"/>
          <g id="Group_36481" data-name="Group 36481">
            <path id="Path_40210" data-name="Path 40210" d="M5182.252,5071.341c.012-.1.117-1.509.147-1.6.286-.922,1.152-1,2.053-.8l7.682.262a1.709,1.709,0,0,1,.868.243,1.762,1.762,0,0,1,.767,1.877l-3.252,10.625a1.919,1.919,0,0,1-.615.9,2.367,2.367,0,0,1-2.42.407l-3.7-.842c-2.128-.3-2.382-1.352-2.165-2.3Z" fill="#f7af80"/>
          </g>
          <g id="Group_36483" data-name="Group 36483">
            <g id="Group_36482" data-name="Group 36482">
              <path id="Path_40211" data-name="Path 40211" d="M5288.806,5125.349l.111-5.834c.049-2.587-12.438-4.922-27.892-5.217s-28.022,1.563-28.072,4.15l-.111,5.835h0c-.049,2.586,12.439,4.922,27.893,5.217s28.022-1.563,28.071-4.15Z" fill="#cfcdd5"/>
              <ellipse id="Ellipse_767" data-name="Ellipse 767" cx="4.647" cy="27.987" rx="4.647" ry="27.987" transform="translate(5232.866 5123.057) rotate(-88.907)" fill="#f9f3ef"/>
            </g>
            <path id="Path_40212" data-name="Path 40212" d="M5249.518,5118.088s-7.99-2.165-13.532,1.17C5235.986,5119.258,5240.6,5118.019,5249.518,5118.088Z" fill="#cfcdd5"/>
            <path id="Path_40213" data-name="Path 40213" d="M5252.95,5120.155a10.869,10.869,0,0,0-4.969,1.5Z" fill="#cfcdd5"/>
            <path id="Path_40214" data-name="Path 40214" d="M5269.911,5120.478a10.868,10.868,0,0,1,4.908,1.687Z" fill="#cfcdd5"/>
            <path id="Path_40215" data-name="Path 40215" d="M5260.471,5121.509l-.029,1.528S5261.213,5122.669,5260.471,5121.509Z" fill="#cfcdd5"/>
            <path id="Path_40216" data-name="Path 40216" d="M5271.02,5118.84s9.9-.7,15.374,1.379C5286.394,5120.219,5280.787,5117.111,5271.02,5118.84Z" fill="#cfcdd5"/>
            <path id="Path_40217" data-name="Path 40217" d="M5270.606,5117.9l5.257-1.858S5272.472,5116.078,5270.606,5117.9Z" fill="#cfcdd5"/>
            <path id="Path_40218" data-name="Path 40218" d="M5247.143,5115.5s3.611.621,4.728,2.049C5251.871,5117.548,5251.358,5114.985,5247.143,5115.5Z" fill="#cfcdd5"/>
          </g>
          <g id="Group_36484" data-name="Group 36484">
            <path id="Path_40219" data-name="Path 40219" d="M5253.123,5110.277l-.174,8.675,15.657.462.406-9.212Z" fill="#f2bc98"/>
            <path id="Path_40220" data-name="Path 40220" d="M5253,5116.456s10.486.492,15.785-1.09l.228-5.164-15.889.075Z" fill="#e3ae8a"/>
            <path id="Path_40221" data-name="Path 40221" d="M5268.7,5117.345v3s-1.663,1.61-7.692,1.51-8.072-1.967-8.072-1.967l.066-2.26h11.357Z" fill="#f2bc98"/>
          </g>
          <g id="Group_36492" data-name="Group 36492">
            <path id="Path_40222" data-name="Path 40222" d="M5285.644,5073.643l.718,4.549-.838-.014.8,2.36-.864-.6-4.775,17.709-.627-2.786-4.759,1.6-3.354-5.836-3.87-19.926Z" fill="#49230f"/>
            <path id="Path_40223" data-name="Path 40223" d="M5242.188,5068.617l-2.742,8.831.838.013-.875,2.333.883-.573,4.589,17.857.337-2.771,4.706,1.745,3.537-5.727,4.5-19.792Z" fill="#49230f"/>
            <g id="Group_36485" data-name="Group 36485">
              <circle id="Ellipse_768" data-name="Ellipse 768" cx="3.436" cy="3.436" r="3.436" transform="translate(5239.444 5082.894)" fill="#f2bc98"/>
              <circle id="Ellipse_769" data-name="Ellipse 769" cx="2.016" cy="2.016" r="2.016" transform="translate(5240.865 5084.314)" fill="#d18a5b"/>
            </g>
            <g id="Group_36486" data-name="Group 36486">
              <circle id="Ellipse_770" data-name="Ellipse 770" cx="3.436" cy="3.436" r="3.436" transform="translate(5278.747 5084.563)" fill="#f2bc98"/>
              <circle id="Ellipse_771" data-name="Ellipse 771" cx="2.016" cy="2.016" r="2.016" transform="translate(5280.167 5085.983)" fill="#d18a5b"/>
            </g>
            <path id="Path_40224" data-name="Path 40224" d="M5243.217,5095.056l.174-26.6s1.937-12.612,21.13-11.761,17.864,17.879,17.864,17.879l-.1.02-1.65,23.844a12.458,12.458,0,0,1-5.792,8.839l-4.9,3.881c-9.72,7.538-16.23,1.049-16.23,1.049l-5.18-4.4C5242.835,5103.468,5243.217,5095.056,5243.217,5095.056Z" fill="#f2bc98"/>
            <g id="Group_36487" data-name="Group 36487">
              <path id="Path_40225" data-name="Path 40225" d="M5266.312,5082.569a2.873,2.873,0,1,0,2.912-2.669A2.8,2.8,0,0,0,5266.312,5082.569Z" fill="#19594d"/>
              <path id="Path_40226" data-name="Path 40226" d="M5268.332,5082a.749.749,0,0,0-.006,1.011c.36.411-.249,1.005-.61.592a1.585,1.585,0,0,1-.111-2.044.439.439,0,0,1,.584-.143.426.426,0,0,1,.143.584Z" fill="#fff"/>
            </g>
            <g id="Group_36488" data-name="Group 36488">
              <path id="Path_40227" data-name="Path 40227" d="M5248.925,5082.293a2.873,2.873,0,1,0,2.912-2.669A2.8,2.8,0,0,0,5248.925,5082.293Z" fill="#19594d"/>
              <path id="Path_40228" data-name="Path 40228" d="M5250.946,5081.722a.749.749,0,0,0-.006,1.011c.359.411-.25,1-.611.592a1.588,1.588,0,0,1-.111-2.044.441.441,0,0,1,.584-.143.427.427,0,0,1,.144.584Z" fill="#fff"/>
            </g>
            <g id="Group_36489" data-name="Group 36489">
              <path id="Path_40229" data-name="Path 40229" d="M5253.052,5089.5v0l.029,0c.06.006.118.01.18.018l.067.019c2.6.393,3.808-.226,3.965-.316a6.372,6.372,0,0,0,2.113-2.358c1.3-2.3,2.157-.392,2.2-.2a6.289,6.289,0,0,1-3.9,7.269c-5.049,2.018-7.116.069-7.466-.894C5249.9,5092.1,5249.349,5089.154,5253.052,5089.5Z" fill="#f38f81"/>
              <path id="Path_40230" data-name="Path 40230" d="M5250.247,5092.635c.349.963,2.416,2.911,7.465.893a5.986,5.986,0,0,0,4.025-5.575,6.038,6.038,0,0,1-4.031,5.987c-5.049,2.018-7.116.069-7.466-.894a4.151,4.151,0,0,1-.236-1.644A4.356,4.356,0,0,0,5250.247,5092.635Z" fill="#db7f76"/>
            </g>
            <path id="Path_40231" data-name="Path 40231" d="M5281.435,5086.942a6.027,6.027,0,0,1-1.207-2.812c-.1-1.427.684-17.069-7.849-20.827,0,0-6.039-2.359-10.04.511,0,0-6.562-1.992-10.267-1.36s-4.891,2.726-6.916,7.512c-2.135,5.044.138,10.643-1.874,15.137l-.818-3.114-1.224.561.312-1.188-.754-.012.5-2.2-1-.015s1.376-10.036,1.783-13.3,9.089-11.254,19.324-11.846,20.016.988,25.331,11.884l-1.415-.358.886,4.541-.947-.686,2.082,4.81-1.688-.541-.92,4.691-1.32,6.454Z" fill="#49230f"/>
            <path id="Path_40232" data-name="Path 40232" d="M5255.086,5057.082s1.152-9.047,8.719-9.007l-1.231.947a16.63,16.63,0,0,1,11.047.014l-2.3.206s6.638.911,8.763,4.329l-1.749-.735a10.73,10.73,0,0,1,4.308,5.933l-1.281-1.27a2.229,2.229,0,0,0-2.14.308c-1.1.789-5.558,4.205-5.558,4.205s-9.637-.153-10.654.556S5255.086,5057.082,5255.086,5057.082Z" fill="#49230f"/>
            <path id="Path_40233" data-name="Path 40233" d="M5250.292,5058.659s-1.22-4.846.619-7.2l.051,1.729s1-4.094,3.575-4.215l-1.22,1.834s1.365-1.993,3.129-2.206a3.382,3.382,0,0,0-1.271,2.925,9.577,9.577,0,0,1,7.818-3.552s-7.6,4.317-6.628,8.6-4.926,3.306-4.926,3.306Z" fill="#49230f"/>
            <path id="Path_40234" data-name="Path 40234" d="M5252.158,5057.036s-5.226-3.024-9.961.85l2.016.032s-1.748.214-3.642,3.407l1.58-.539a7.43,7.43,0,0,0-2.06,2.788l2.031-.935a4.8,4.8,0,0,0-1.631,3.682l1.6-1.667a7.392,7.392,0,0,0-1.164,5.945l1.26-1.905S5247.475,5058.694,5252.158,5057.036Z" fill="#49230f"/>
            <g id="Group_36490" data-name="Group 36490">
              <path id="Path_40235" data-name="Path 40235" d="M5252.943,5101.757s.575-3.814,5.3-3.917,7.82,2.2,7.812,4.119-1.979,3.029-3.942,2.219a7.519,7.519,0,0,0-5.422-.409C5254.746,5104.32,5252.692,5103.745,5252.943,5101.757Z" fill="#3a3a3a"/>
              <path id="Path_40236" data-name="Path 40236" d="M5252.943,5101.757s.575-3.814,5.3-3.917,7.82,2.2,7.812,4.119-1.979,3.029-3.942,2.219a7.519,7.519,0,0,0-5.422-.409C5254.746,5104.32,5252.692,5103.745,5252.943,5101.757Z" fill="#3a3a3a"/>
              <path id="Path_40237" data-name="Path 40237" d="M5263.726,5100.412l.634-.99a10.4,10.4,0,0,0-6.117-1.582,5.642,5.642,0,0,0-3.875,1.4l.205,1Z" fill="#fff"/>
              <path id="Path_40238" data-name="Path 40238" d="M5258.559,5101.047c-2.779-.145-3.356,1.684-3.446,2.912a5,5,0,0,0,1.578-.19,7.519,7.519,0,0,1,5.422.409,3.328,3.328,0,0,0,1.731.236C5263.581,5102.408,5262.049,5101.228,5258.559,5101.047Z" fill="#d11a1a"/>
              <path id="Path_40239" data-name="Path 40239" d="M5256.691,5103.769a7.519,7.519,0,0,1,5.422.409,3.5,3.5,0,0,0,.938.242c-.382-1.81-1.93-2.875-5.229-3.046a4.368,4.368,0,0,0-1.446.142,3.047,3.047,0,0,0-1.263,2.443A5,5,0,0,0,5256.691,5103.769Z" fill="#e33333"/>
            </g>
            <circle id="Ellipse_772" data-name="Ellipse 772" cx="0.367" cy="0.367" r="0.367" transform="translate(5250.847 5096.837)" fill="#d18a5b"/>
            <path id="Path_40240" data-name="Path 40240" d="M5260.912,5107.309a8.283,8.283,0,0,0-2.767-.721S5259.552,5105.5,5260.912,5107.309Z" fill="#e3ae8a"/>
            <path id="Path_40241" data-name="Path 40241" d="M5257.076,5056.564a16.568,16.568,0,0,1,12.921-.89,5.944,5.944,0,0,0-2.274.479s4.708,1.041,7.153,4.536c0,0-1.088-.941-1.844-.817,0,0,3.49,1.735,3.615,4.552a3.038,3.038,0,0,0-2-1.624s2.686,3.081,2.674,5.375c0,0-7.106-8.391-14.979-4.361a42.312,42.312,0,0,0-7.337-1.432S5255.476,5057.286,5257.076,5056.564Z" fill="#562917"/>
            <path id="Path_40242" data-name="Path 40242" d="M5261.648,5060.918a3.1,3.1,0,0,1,3.6-1.536l-1.173.749s3.607-.962,6.819,2.61l-2.582-.362s3.325,1.044,3.279,3.977a3.829,3.829,0,0,0-2.355-1.533,3.553,3.553,0,0,1-.051,3.223s-.026-2.148-1.6-2.843c0,0,.267,2.853-1,4.258,0,0,1.036-4.522-4.241-5.647C5262.339,5063.814,5260.922,5061.828,5261.648,5060.918Z" fill="#49230f"/>
            <path id="Path_40243" data-name="Path 40243" d="M5267.772,5077.295s2.311,2.443,7.333,2.315l.648-1.917a20.149,20.149,0,0,1-7.08-2.577Z" fill="#49230f"/>
            <path id="Path_40244" data-name="Path 40244" d="M5254.11,5076.573s-2.543,1.807-7.09.783l-.244-1.861a18.686,18.686,0,0,0,6.908-1.068Z" fill="#49230f"/>
            <path id="Path_40245" data-name="Path 40245" d="M5244.46,5072.295s16.75-14.453,41.918-.761c0,0,13.957-1.414,15.02-6.385s-10.655-24.043-40.486-21.411S5224.571,5077.22,5244.46,5072.295Z" fill="#9a2c31"/>
            <path id="Path_40246" data-name="Path 40246" d="M5290.741,5070.846c-16.569-21.334-40.81-6.635-47.266-4.224a9.334,9.334,0,0,1-10.345-2.17c-.654,5.737,3.046,9.894,11.33,7.843,0,0,16.75-14.453,41.918-.761l4.358-.687Z" fill="#76222e"/>
            <path id="Path_40247" data-name="Path 40247" d="M5278.659,5058.271s13.882-20.192,44.178-19.652l-8.019,2.438s6.872.315,6.444.381-9.811.74-12.735,1.456l9.5,2.391s-19.866,3.084-23.02,3.279l5.672,1.451s-17.366,8.81-20.027,9.368Z" fill="#0e0503"/>
            <g id="Group_36491" data-name="Group 36491">
              <circle id="Ellipse_773" data-name="Ellipse 773" cx="4.126" cy="4.126" r="4.126" transform="translate(5275.791 5054.53)" fill="#f9d974"/>
              <path id="Path_40248" data-name="Path 40248" d="M5281.974,5061.61a4.111,4.111,0,0,1-2.723-7.025,4.124,4.124,0,1,0,3.578,6.974A4.035,4.035,0,0,1,5281.974,5061.61Z" fill="#f4c94e"/>
            </g>
          </g>
          <path id="Path_40249" data-name="Path 40249" d="M5289.184,5088.128l-5.706-4.642,4.036-3.87,3.227,3.848Z" fill="#f7af80"/>
          <path id="Path_40250" data-name="Path 40250" d="M5283.478,5083.487l.136.669a.79.79,0,0,1-.616.929l-5.093,1.436a.791.791,0,0,1-.93-.616l-.293-1.442a.792.792,0,0,1,.616-.93l5.251-.662A.79.79,0,0,1,5283.478,5083.487Z" fill="#e08d56"/>
          <g id="Group_36493" data-name="Group 36493">
            <path id="Path_40251" data-name="Path 40251" d="M5282.037,5072.216c-.076-.066-1.1-1.04-1.186-1.091-.831-.491-1.528.029-2.058.786l-5.519,5.35a1.708,1.708,0,0,0-.48.762,1.763,1.763,0,0,0,.691,1.907l9.542,5.694a1.909,1.909,0,0,0,1.06.255,2.366,2.366,0,0,0,2.067-1.323l2.176-3.1c1.375-1.651.858-2.6.06-3.159Z" fill="#f7af80"/>
          </g>
          <path id="Path_40252" data-name="Path 40252" d="M5293.937,5082.493l-4.618,8.449-3.316-.857,5.62-8.922Z" fill="#301414"/>
          <path id="Path_40253" data-name="Path 40253" d="M5271.762,5085.328s-2.163,5.722.274,6.059C5274.357,5091.708,5273.061,5086.91,5271.762,5085.328Z" fill="#a2e5f4"/>
          <g id="Group_36494" data-name="Group 36494">
            <path id="Path_40254" data-name="Path 40254" d="M5271.762,5085.328s-2.163,5.722.274,6.059C5274.357,5091.708,5273.061,5086.91,5271.762,5085.328Z" fill="#6bcddd"/>
            <path id="Path_40255" data-name="Path 40255" d="M5271.763,5085.327a17.768,17.768,0,0,0-.553,1.817,7.844,7.844,0,0,1,.983,4.244C5274.283,5091.457,5273.029,5086.87,5271.763,5085.327Z" fill="#80e3ed"/>
          </g>
          <path id="Path_40256" data-name="Path 40256" d="M5178.92,5085.742l10.5,3.357,1.883-2.861-11.432-3.634Z" fill="#301414"/>
          <g id="Group_36501" data-name="Group 36501">
            <path id="Path_40257" data-name="Path 40257" d="M5165.617,5038.211l-2.6-.365s-2.745-.086-3.7,2.023a7.08,7.08,0,0,0-.234,2.371c.075,1.44,4.008,36.34,4.008,36.34s.207,2.785,2.56,2.663,4.413-.282,4.413-.282Z" fill="#2d2d2d"/>
            <path id="Path_40258" data-name="Path 40258" d="M5160.443,5040.979l4.125,37.652a2.833,2.833,0,0,0,2.957,2.515l47.356-3.455a2.831,2.831,0,0,0,2.676-3.1l-3.648-38.3a2.831,2.831,0,0,0-3.061-2.552l-47.833,4.1A2.831,2.831,0,0,0,5160.443,5040.979Z" fill="#434444"/>
            <path id="Path_40259" data-name="Path 40259" d="M5167.4,5079.034a.717.717,0,0,1-.733-.637l-4.125-37.648a.716.716,0,0,1,.65-.8l47.834-4.1.026,0a.714.714,0,0,1,.748.648l3.649,38.3a.717.717,0,0,1-.676.783h-.022Z" fill="#0c1319"/>
            <g id="Group_36498" data-name="Group 36498">
              <g id="Group_36497" data-name="Group 36497" clip-path="url(#clip-path-2)">
                <g id="Group_36496" data-name="Group 36496">
                  <rect id="Rectangle_4252" data-name="Rectangle 4252" width="36.627" height="26.515" transform="translate(5174.319 5047.831) rotate(-5.431)" fill="#edeef0"/>
                  <rect id="Rectangle_4253" data-name="Rectangle 4253" width="36.633" height="2.703" transform="matrix(0.996, -0.094, 0.094, 0.996, 5174.168, 5045.936)" fill="#f1e8ff"/>
                  <rect id="Rectangle_4254" data-name="Rectangle 4254" width="7.49" height="28.442" transform="translate(5166.717 5046.55) rotate(-5.282)" fill="url(#linear-gradient)"/>
                  <path id="Path_40260" data-name="Path 40260" d="M5212.4,5070.061l-34.792,3.313a.1.1,0,0,1-.106-.088l-2.253-23.946a.1.1,0,0,1,.087-.106l34.792-3.312a.1.1,0,0,1,.106.087l2.253,23.947A.1.1,0,0,1,5212.4,5070.061Z" fill="#fff"/>
                  <rect id="Rectangle_4255" data-name="Rectangle 4255" width="5.698" height="0.712" rx="0.356" transform="matrix(0.996, -0.092, 0.092, 0.996, 5167.566, 5047.441)" fill="#fff" opacity="0.39"/>
                  <rect id="Rectangle_4256" data-name="Rectangle 4256" width="5.698" height="0.712" rx="0.356" transform="translate(5167.693 5048.814) rotate(-5.282)" fill="#fff" opacity="0.39"/>
                  <rect id="Rectangle_4257" data-name="Rectangle 4257" width="5.698" height="0.712" rx="0.356" transform="matrix(0.996, -0.092, 0.092, 0.996, 5167.82, 5050.187)" fill="#fff" opacity="0.39"/>
                  <rect id="Rectangle_4258" data-name="Rectangle 4258" width="3.86" height="0.712" rx="0.356" transform="matrix(0.996, -0.092, 0.092, 0.996, 5169.777, 5051.39)" fill="#fff" opacity="0.39"/>
                  <rect id="Rectangle_4259" data-name="Rectangle 4259" width="3.86" height="0.712" rx="0.356" transform="translate(5169.904 5052.763) rotate(-5.282)" fill="#fff" opacity="0.39"/>
                  <rect id="Rectangle_4260" data-name="Rectangle 4260" width="32.617" height="9.93" rx="2.025" transform="translate(5177.021 5055.133) rotate(-5.118)" fill="#e00755"/>
                  <g id="Group_36495" data-name="Group 36495">
                    <path id="Path_40261" data-name="Path 40261" d="M5179.754,5059.937v-.009a1.721,1.721,0,0,1,1.6-1.9,1.783,1.783,0,0,1,1.158.241.376.376,0,0,1,.17.281.362.362,0,0,1-.333.394.394.394,0,0,1-.229-.053,1.117,1.117,0,0,0-.711-.179,1,1,0,0,0-.884,1.137v.01a1,1,0,0,0,1.071.973,1.085,1.085,0,0,0,.71-.331.357.357,0,0,1,.215-.1.344.344,0,0,1,.275.588,1.785,1.785,0,0,1-3.046-1.052Z" fill="#fff"/>
                    <path id="Path_40262" data-name="Path 40262" d="M5183.381,5060.825l.939-2.76a.462.462,0,0,1,.408-.332l.043,0a.454.454,0,0,1,.455.255l1.413,2.551a.4.4,0,0,1,.051.145.353.353,0,0,1-.32.388.377.377,0,0,1-.38-.223l-.274-.51-1.484.132-.187.575a.364.364,0,0,1-.322.261.344.344,0,0,1-.373-.316A.377.377,0,0,1,5183.381,5060.825Zm2-1.121-.565-1.072-.369,1.155Z" fill="#fff"/>
                    <path id="Path_40263" data-name="Path 40263" d="M5187.035,5057.937a.37.37,0,0,1,.338-.4l.076-.007a.457.457,0,0,1,.406.184l1.6,1.75-.154-1.739a.367.367,0,0,1,.732-.065l.239,2.684a.37.37,0,0,1-.339.405l-.024,0a.461.461,0,0,1-.4-.184l-1.658-1.816.16,1.808a.367.367,0,0,1-.732.066Z" fill="#fff"/>
                    <path id="Path_40264" data-name="Path 40264" d="M5190.816,5058.956v-.011a1.717,1.717,0,0,1,1.6-1.9,1.79,1.79,0,0,1,1.158.241.376.376,0,0,1,.17.281.36.36,0,0,1-.334.393.386.386,0,0,1-.228-.052,1.114,1.114,0,0,0-.71-.179,1,1,0,0,0-.885,1.137v.009a1.006,1.006,0,0,0,1.072.974,1.088,1.088,0,0,0,.709-.33.346.346,0,0,1,.591.21.346.346,0,0,1-.1.276,1.783,1.783,0,0,1-3.044-1.05Z" fill="#fff"/>
                    <path id="Path_40265" data-name="Path 40265" d="M5194.638,5059.932l-.233-2.63a.368.368,0,0,1,.337-.4l1.87-.166a.331.331,0,1,1,.059.66l-1.5.134.061.684,1.288-.115a.332.332,0,0,1,.36.3.328.328,0,0,1-.3.357l-1.287.115.063.707,1.528-.136a.337.337,0,0,1,.362.3.331.331,0,0,1-.3.357l-1.9.169A.37.37,0,0,1,5194.638,5059.932Z" fill="#fff"/>
                    <path id="Path_40266" data-name="Path 40266" d="M5197.632,5056.984a.373.373,0,0,1,.742-.065l.209,2.357,1.374-.122a.339.339,0,0,1,.061.675l-1.746.156a.372.372,0,0,1-.4-.34Z" fill="#fff"/>
                    <path id="Path_40267" data-name="Path 40267" d="M5200.656,5059.292l.939-2.761a.459.459,0,0,1,.407-.331l.043,0a.457.457,0,0,1,.457.255l1.411,2.551a.377.377,0,0,1,.052.146.353.353,0,0,1-.321.388.38.38,0,0,1-.379-.224l-.274-.51-1.484.132-.187.575a.364.364,0,0,1-.321.261.344.344,0,0,1-.374-.315A.38.38,0,0,1,5200.656,5059.292Zm2-1.121-.566-1.072-.37,1.155Z" fill="#fff"/>
                    <path id="Path_40268" data-name="Path 40268" d="M5204.313,5056.422a.367.367,0,0,1,.336-.4l1.173-.1a1.358,1.358,0,0,1,1.013.255,1.071,1.071,0,0,1,.358.745v.011a1.033,1.033,0,0,1-.585,1.086l.572.58a.439.439,0,0,1,.146.273.346.346,0,0,1-.322.374.436.436,0,0,1-.382-.161l-.806-.85-.591.053.064.738a.373.373,0,0,1-.742.065Zm1.606,1.134c.361-.032.551-.243.526-.527v-.011c-.028-.316-.264-.462-.625-.429l-.738.065.086.969Z" fill="#fff"/>
                  </g>
                </g>
              </g>
            </g>
            <g id="Group_36499" data-name="Group 36499">
              <circle id="Ellipse_774" data-name="Ellipse 774" cx="0.456" cy="0.456" r="0.456" transform="translate(5214.167 5055.333)" fill="#212121"/>
            </g>
            <g id="Group_36500" data-name="Group 36500">
              <circle id="Ellipse_775" data-name="Ellipse 775" cx="0.616" cy="0.616" r="0.616" transform="translate(5163.093 5059.773)" fill="#212121"/>
              <path id="Path_40269" data-name="Path 40269" d="M5164.323,5060.332a.619.619,0,0,0-.17-.37.66.66,0,0,1,.025.125.616.616,0,0,1-1.057.486.616.616,0,0,0,1.2-.241Z" fill="#212121"/>
            </g>
            <path id="Path_40270" data-name="Path 40270" d="M5212.971,5048.752l-31.744-10.307-6.468.551-8.041.686,47.229,19.324Z" opacity="0.1" fill="url(#linear-gradient-2)"/>
            <path id="Path_40271" data-name="Path 40271" d="M5214.4,5064.044l-51.709-22.125,2.168,19.86,34.913,14.894,14.725-1.054a1.046,1.046,0,0,0,.95-1.225Z" opacity="0.1" fill="url(#linear-gradient-3)"/>
          </g>
          <path id="Path_40272" data-name="Path 40272" d="M5190.5,5082.283l.673-.113a.791.791,0,0,0,.648-.908l-.484-5.27a.79.79,0,0,0-.908-.647l-1.451.243a.79.79,0,0,0-.647.908l1.261,5.139A.792.792,0,0,0,5190.5,5082.283Z" fill="#e08d56"/>
          <path id="Path_40273" data-name="Path 40273" d="M5232.559,5182.926s37.17,8.189,53.835,2.811a9.771,9.771,0,0,1-.391,8.571s-25.932,4.205-53.595-1.847C5232.408,5192.461,5229.115,5188.349,5232.559,5182.926Z" fill="#602e3f"/>
        </g>
      </g>
    </g>
    <rect id="Rectangle_4262" data-name="Rectangle 4262" width="176" height="176" transform="translate(5154.167 5021.675)" fill="none"/>
  </g>
</svg>
