<svg xmlns="http://www.w3.org/2000/svg" xmlns:xlink="http://www.w3.org/1999/xlink" width="176" height="176" viewBox="0 0 176 176">
  <defs>
    <clipPath id="clip-path">
      <path id="Trazado_36853" data-name="Trazado 36853" d="M306,205.049s-25.42-15.991-41.44,3.28,1.038,39.934-4.726,53.509-23.4,11.86-19.483,37.577C245.664,334.3,334.3,336.731,380.5,319.194s28.468-44.7,18.585-54.061c-10.344-9.8,7.916-25.554-12.212-41.88C369.979,209.548,337.122,222.142,306,205.049Z" transform="translate(-239.794 -198.823)" fill="none"/>
    </clipPath>
  </defs>
  <g id="Grupo_34326" data-name="Grupo 34326" transform="translate(-92.184 -150)">
    <rect id="Rectángulo_2191" data-name="Rectángulo 2191" width="176" height="176" transform="translate(92.184 150)" fill="none"/>
    <g id="Grupo_34334" data-name="Grupo 34334" transform="translate(-144.794 27.824)">
      <path id="Trazado_36800" data-name="Trazado 36800" d="M306,205.049s-25.42-15.991-41.44,3.28,1.038,39.934-4.726,53.509-23.4,11.86-19.483,37.577C245.664,334.3,334.3,336.731,380.5,319.194s28.468-44.7,18.585-54.061c-10.344-9.8,7.916-25.554-12.212-41.88C369.979,209.548,337.122,222.142,306,205.049Z" transform="translate(0 -48.719)" fill="#6d31ff"/>
      <path id="Trazado_36801" data-name="Trazado 36801" d="M560.848,366.92s-10.781,33.479-5.391,70c0,0,14.16,1.746,18.652,14.988,0,0,29.084-.728,33.886-14.843s-7.712-73.27-7.712-73.27Z" transform="translate(-245.417 -177.6)" fill="#191919"/>
      <path id="Trazado_36802" data-name="Trazado 36802" d="M410.793,313.354s-6.44,22.3-43.91,25.608c0,0-4.463.184-6.2.349s.235,6.192,5.131,8.678,36.811,6.941,50.659-6.416C416.47,341.573,422.3,322.437,410.793,313.354Z" transform="translate(-93.951 -138.191)" fill="#191919"/>
      <path id="Trazado_36803" data-name="Trazado 36803" d="M882.168,660.394c2.659,2.878,7.054-1.016,7.523-4.93-3.507,2.352-6.023.114-6.357-1.379" transform="translate(-501.824 -404.372)" fill="#303030"/>
      <path id="Trazado_36804" data-name="Trazado 36804" d="M816.54,639.343c7.3,3.741,10.534-2.064,10.534-2.064-1.32-3.4,2.609-10.869,4.367-8.013S833.212,642.2,826,645.493s-10.276-.267-10.276-.267" transform="translate(-449.914 -384.485)" fill="#303030"/>
      <path id="Trazado_36805" data-name="Trazado 36805" d="M484.586,621.409s-14.734,7.276-20.991,17.025-4.22,11.933-1.746,13.242,17.56-13.1,26.024-15.716C487.872,635.961,490.006,626.065,484.586,621.409Z" transform="translate(-171.593 -378.845)" fill="#191919"/>
      <g id="Grupo_34327" data-name="Grupo 34327" transform="translate(284.226 205.249)">
        <path id="Trazado_36806" data-name="Trazado 36806" d="M454.913,450.862s11.415,5.86,6.914,14.131c-5.028,9.24-16.76,5.127-18.954,1.07C442.873,466.063,442.3,452.663,454.913,450.862Z" transform="translate(-442.869 -450.862)" fill="#f15a29"/>
        <path id="Trazado_36807" data-name="Trazado 36807" d="M522.1,520.156a4.471,4.471,0,0,0,3.339-4.512l-2.969-.456-.914,1.823Z" transform="translate(-504.343 -501.114)" fill="#5e5e5e"/>
        <path id="Trazado_36808" data-name="Trazado 36808" d="M503.686,506.4a25.009,25.009,0,0,0,4.455,2.432,4.935,4.935,0,0,1,3.339-4.512l-3.032-3.627S504.181,502.228,503.686,506.4Z" transform="translate(-490.379 -489.789)" fill="#848484"/>
        <path id="Trazado_36809" data-name="Trazado 36809" d="M527.241,524.727c1.725,2.526,4.125,6.828,3.427,14.164-1.105,11.626-7.04,36.349.541,38.21s20.143-1.945,22.814,4.711c0,0,4.681.5,6.015-.679,0,0,1.075-8.077-26.406-6.976,0,0-2.117-.128-2.32-3.178s.256-12.755,1.686-23.595c1.348-10.213,3.792-15.589-3.5-25.558,0,0-.786-.092-1.615.979A2.328,2.328,0,0,0,527.241,524.727Z" transform="translate(-508.76 -506.299)" fill="#eab521"/>
      </g>
      <path id="Trazado_36810" data-name="Trazado 36810" d="M613.823,264.785l3.141-1.594s2.679,17.925,1.515,27.415c0,0,9.313,24.068,10.914,43.713s-.728,41.909-20.082,46.711c0,0-7.377,2.474-14.6.582,0,0-11.1.582-20.8,5.239,0,0-5.217,1.892-4.841-2.474s6.274-9.313,11.328-11.351c0,0,2.726-10.041,18.442-13.533s5.53-60.125,5.384-69.584S613.823,264.785,613.823,264.785Z" transform="translate(-257.212 -99.004)" fill="#383838"/>
      <g id="Grupo_34329" data-name="Grupo 34329" transform="translate(294.869 136.458)">
        <path id="Trazado_36811" data-name="Trazado 36811" d="M558.358,138.572c-16.956-3.886-34.883,2.2-36.647,15.833-1.245,9.613,1.365,13.234-.326,19.067s-3.1,13.149,7.222,17.088,32.1,5.311,44.478-.371,4.145-15.859,5.419-22.768S579.458,143.407,558.358,138.572Z" transform="translate(-513.926 -137.207)" fill="#383838"/>
        <path id="Trazado_36812" data-name="Trazado 36812" d="M551.989,224.93c-2.449.188.025-2.37-.668-5.393s-4.9-7.233-10.628-4.029-6.539,6.743-5.1,12.383,8.53,4.857,8.009,7.983-4.395,10.222,3.872,12.989c6.05,2.026,15.761,1.618,24.205-.589,5.636-1.473-.131-10.5,1.319-11.9s10.479-.024,10.6-7.939-5.62-12.284-11.338-11.244-6.461,3.681-6.7,7.018c-.146,2.033-1.813,2.819-2.7,2.372A23.489,23.489,0,0,0,551.989,224.93Z" transform="translate(-525.464 -197.316)" fill="#303030"/>
        <path id="Trazado_36813" data-name="Trazado 36813" d="M606.018,306.6c-2.64,4.69,13.031,4.87,14.146,1.234s-6.321-12.63-7.326-12.333S607.625,302.471,606.018,306.6Z" transform="translate(-580.731 -260.697)"/>
        <path id="Trazado_36814" data-name="Trazado 36814" d="M560.557,234.727a6.142,6.142,0,1,1-6.313-6.263A6.292,6.292,0,0,1,560.557,234.727Z" transform="translate(-535.868 -208.331)" fill="#fff"/>
        <path id="Trazado_36815" data-name="Trazado 36815" d="M510.523,140.167c-.962-3.06-3.316-6.223-8.727-.643-4.131,4.26-9.581,2.887-10.229,7.019s4.693,5.377,5.317,10.285,5.959-.538,6.958-6.6,4.531-8.828,4.531-8.828Z" transform="translate(-491.512 -136.458)" fill="#1c1c1c"/>
        <path id="Trazado_36816" data-name="Trazado 36816" d="M737.331,147.6c1.315-2.926,4.025-5.79,8.742.389,3.6,4.717,9.175,4,9.331,8.175s-5.294,4.787-6.49,9.588-5.855-1.235-6.132-7.377-3.461-9.3-3.461-9.3Z" transform="translate(-683.547 -142.598)" fill="#1c1c1c"/>
        <path id="Trazado_36817" data-name="Trazado 36817" d="M698.271,238.547a6.142,6.142,0,1,1-7.041-5.432A6.293,6.293,0,0,1,698.271,238.547Z" transform="translate(-643.498 -211.913)" fill="#fff"/>
        <path id="Trazado_36818" data-name="Trazado 36818" d="M700.21,253.239a4.563,4.563,0,1,1-5.914-2.583A4.563,4.563,0,0,1,700.21,253.239Z" transform="translate(-647.664 -225.423)"/>
        <path id="Trazado_36819" data-name="Trazado 36819" d="M564.535,249.825a4.562,4.562,0,1,1-5.262-3.732A4.562,4.562,0,0,1,564.535,249.825Z" transform="translate(-541.48 -222.054)"/>
        <path id="Trazado_36820" data-name="Trazado 36820" d="M558.1,193.284c-.063.153-.6.055-1.411-.016a8.18,8.18,0,0,0-3.079.324,12.009,12.009,0,0,0-2.847,1.378c-.7.442-1.156.752-1.277.633-.1-.1.14-.607.771-1.256a7.3,7.3,0,0,1,3.019-1.839,6.214,6.214,0,0,1,1.974-.284,5.723,5.723,0,0,1,1.6.258C557.727,192.778,558.163,193.151,558.1,193.284Z" transform="translate(-536.788 -180.022)"/>
        <path id="Trazado_36821" data-name="Trazado 36821" d="M719.417,200.309c.14-.091.484.215,1.023.647a11,11,0,0,0,2.248,1.4,13.621,13.621,0,0,0,2.53.857c.677.168,1.126.266,1.137.429s-.442.339-1.215.369a6.538,6.538,0,0,1-2.928-.625,6.01,6.01,0,0,1-2.356-1.876,3.094,3.094,0,0,1-.433-.81C719.355,200.485,719.351,200.352,719.417,200.309Z" transform="translate(-669.515 -186.326)"/>
        <path id="Trazado_36822" data-name="Trazado 36822" d="M563.416,258.028a.777.777,0,0,1-.89-.572,3.246,3.246,0,0,1,1.315-3.654.777.777,0,0,1,.8,1.335,1.678,1.678,0,0,0-.606,1.931.777.777,0,0,1-.559.947Z" transform="translate(-546.89 -228.044)" fill="#fff"/>
        <path id="Trazado_36823" data-name="Trazado 36823" d="M700.483,262.431a.793.793,0,0,1-.977-.457,3.31,3.31,0,0,1,.833-3.871.793.793,0,0,1,.986,1.241,1.711,1.711,0,0,0-.35,2.034.792.792,0,0,1-.437,1.032Z" transform="translate(-653.772 -231.355)" fill="#fff"/>
        <g id="Grupo_34328" data-name="Grupo 34328" transform="translate(27.347 44.411)">
          <path id="Trazado_36824" data-name="Trazado 36824" d="M619.792,346.762a1.776,1.776,0,0,0,1.214,2.048c1.527.483,6.4.577,7.272-.112s.288-2.2.288-2.2Z" transform="translate(-619.051 -344.956)" fill="#191919"/>
          <path id="Trazado_36825" data-name="Trazado 36825" d="M617.593,339.616a46.319,46.319,0,0,0,8.2-.167.987.987,0,0,1,.937.385h0a.989.989,0,0,1-.591,1.563,32.824,32.824,0,0,1-8.71.251.991.991,0,0,1-.705-1.606l.044-.055A.987.987,0,0,1,617.593,339.616Z" transform="translate(-616.501 -339.438)" fill="#262626"/>
        </g>
        <path id="Trazado_36826" data-name="Trazado 36826" d="M625.242,296.983a11.279,11.279,0,0,0,6.609-.631l-.546-2.3-4.284-.6S624.926,295.552,625.242,296.983Z" transform="translate(-595.957 -259.1)" fill="#262626"/>
        <path id="Trazado_36827" data-name="Trazado 36827" d="M620.472,303.546a1.513,1.513,0,0,0,1.034,1.745c1.3.412,5.449.492,6.2-.1s.245-1.871.245-1.871Z" transform="translate(-592.238 -266.814)" fill="#494949"/>
        <path id="Trazado_36828" data-name="Trazado 36828" d="M573.82,275.693c-4.019,1.269-13.178,7.409-12.969,12.772a6.466,6.466,0,0,0,9.647,5.667c4.127-2.3,6.7-12.985,7.607-14.7A13.206,13.206,0,0,0,573.82,275.693Z" transform="translate(-545.677 -245.229)" fill="#191919"/>
        <path id="Trazado_36829" data-name="Trazado 36829" d="M615.708,327.89s-5.311,1.968-3.988,6.046a3.42,3.42,0,0,0,3.1,1.495c2.051-.2,3.534-4.553,6.4-5.171S620.489,326.044,615.708,327.89Z" transform="translate(-585.253 -285.597)" fill="#ef3a6a"/>
        <path id="Trazado_36830" data-name="Trazado 36830" d="M626.028,332.4a10.9,10.9,0,0,0-5.8,5.438S620.8,333.524,626.028,332.4Z" transform="translate(-592.062 -289.53)" fill="#e81f5d"/>
        <path id="Trazado_36831" data-name="Trazado 36831" d="M637.96,280.438c.332,1.759,3.7,6.664,5.1,10.223s5.221,5.185,9.5,2.93,5.814-6.966,1.578-11.119-9.753-6.479-11.162-6.029C641.5,276.96,637.96,280.438,637.96,280.438Z" transform="translate(-605.918 -245.772)" fill="#191919"/>
      </g>
      <path id="Trazado_36832" data-name="Trazado 36832" d="M909.049,636.188s-4.961-1.28-7.375,2.214C901.674,638.4,903.435,631.821,909.049,636.188Z" transform="translate(-517.063 -389.221)" fill="#f7941d"/>
      <path id="Trazado_36833" data-name="Trazado 36833" d="M909.442,624.7s-3.834-1.476-6.08,1.085C903.362,625.789,905.371,620.708,909.442,624.7Z" transform="translate(-518.381 -380.222)" fill="#f7941d"/>
      <path id="Trazado_36834" data-name="Trazado 36834" d="M911.825,681.887s4.3-.142,5.422-3.529C917.247,678.358,917.383,684.08,911.825,681.887Z" transform="translate(-524.993 -423.334)" fill="#f7941d"/>
      <path id="Trazado_36835" data-name="Trazado 36835" d="M917.923,694.382s3.44.283,4.645-2.312C922.568,692.07,922.149,696.641,917.923,694.382Z" transform="translate(-529.756 -434.046)" fill="#f7941d"/>
      <path id="Trazado_36836" data-name="Trazado 36836" d="M560.954,472.536s-1.659,3.992.488,10.351l1.005-1.738,1.72,4.824.841-2.1,1.116,2.274,2.134-3.173.507,3.039,2.629-3.276.282,2.552,1.952-2.211,1.621,5.473,2.7-4.8,2.336,3.271,4.773-11.177-4.8,8.179-2.45-3.062-2.232,3.836-1.633-4.393-1.5,1.914-.812-2.335-2.265,2.87-.968-2.933-2.234,4.055-1.576-3.7-.408,3-.7-4.991-1.26,1.279A20.41,20.41,0,0,1,560.954,472.536Z" transform="translate(-250.413 -262.545)" fill="#383838"/>
      <path id="Trazado_36837" data-name="Trazado 36837" d="M561.979,462.862s-1.659,3.992.488,10.351l1.005-1.738,1.72,4.824.841-2.1,1.116,2.274,2.134-3.173.507,3.039,2.629-3.276.282,2.552,1.952-2.211,1.621,5.473,2.7-4.8,2.336,3.271,4.773-11.177-4.8,8.18-2.45-3.062-2.232,3.837-1.633-4.393-1.5,1.914-.813-2.335-2.264,2.87-.968-2.933-2.234,4.055-1.576-3.7-.408,3-.7-4.991-1.26,1.279A20.41,20.41,0,0,1,561.979,462.862Z" transform="translate(-251.214 -254.988)" fill="#494949"/>
      <g id="Grupo_34330" data-name="Grupo 34330" transform="translate(354.192 164.133)">
        <path id="Trazado_36838" data-name="Trazado 36838" d="M788.519,267.088l7.361-.265s3.479-.1,3.833,2.237a11.729,11.729,0,0,1-.07,4.1s-.461,1.708-1.773.707c-.638-.487.026-1.835-.107-4.051,0,0,.113-1.078-1.95-1.2s-7.295.244-7.295.244Z" transform="translate(-782.857 -265.973)" fill="#754c29"/>
        <path id="Trazado_36839" data-name="Trazado 36839" d="M776.416,265.935h3.043a4.648,4.648,0,0,1,0,2.359h-2.748Z" transform="translate(-773.402 -265.28)" fill="#bf7011"/>
        <path id="Trazado_36840" data-name="Trazado 36840" d="M762.642,263.068a8.317,8.317,0,0,1,0,3.715h4.875a8.832,8.832,0,0,0,0-3.841Z" transform="translate(-762.642 -262.942)" fill="#e89213"/>
        <path id="Trazado_36841" data-name="Trazado 36841" d="M766.565,262.967c-.539,2.219-2.556,2.447-3.737,2.38a9.7,9.7,0,0,1-.186,1.436h4.875a8.832,8.832,0,0,0,0-3.841Z" transform="translate(-762.642 -262.942)" fill="#d68316"/>
      </g>
      <circle id="Elipse_708" data-name="Elipse 708" cx="11.04" cy="11.04" r="11.04" transform="translate(300.646 152.82)" fill="#a5dcef" opacity="0.34"/>
      <path id="Trazado_36842" data-name="Trazado 36842" d="M537.7,210.451l-10.817,17.565a6.519,6.519,0,0,0,3.37,3.135l11.962-18.725A6.862,6.862,0,0,0,537.7,210.451Z" transform="translate(-224.275 -57.803)" fill="#fff" opacity="0.14"/>
      <path id="Trazado_36843" data-name="Trazado 36843" d="M558.02,222.109,546.2,240.685s.8.761,4.074.972l10.223-16.13A8.958,8.958,0,0,0,558.02,222.109Z" transform="translate(-239.368 -66.911)" fill="#fff" opacity="0.14"/>
      <circle id="Elipse_709" data-name="Elipse 709" cx="11.04" cy="11.04" r="11.04" transform="translate(332.753 154.271)" fill="#a5dcef" opacity="0.34"/>
      <path id="Trazado_36844" data-name="Trazado 36844" d="M685.887,218.744,675.07,236.309a6.52,6.52,0,0,0,3.37,3.135L690.4,220.72A6.862,6.862,0,0,0,685.887,218.744Z" transform="translate(-340.039 -64.282)" fill="#fff" opacity="0.14"/>
      <path id="Trazado_36845" data-name="Trazado 36845" d="M706.207,230.4l-11.816,18.576s.8.761,4.074.972l10.223-16.13A8.954,8.954,0,0,0,706.207,230.4Z" transform="translate(-355.132 -73.39)" fill="#fff" opacity="0.14"/>
      <g id="Grupo_34331" data-name="Grupo 34331" transform="translate(322.29 163.515)">
        <path id="Trazado_36846" data-name="Trazado 36846" d="M616.836,262.214s-.125-2.132,4.466-2.1,5.915,1.36,6.261,2.2-.123,5.179-5.488,5.095A5.037,5.037,0,0,1,616.836,262.214Z" transform="translate(-616.835 -260.118)"/>
        <path id="Trazado_36847" data-name="Trazado 36847" d="M628.785,271.208s-.271-1.918-1.9-1.519c-1.119.275-.079,3.528.962,3.818S628.88,272.194,628.785,271.208Z" transform="translate(-624.313 -267.553)" fill="#262626"/>
        <path id="Trazado_36848" data-name="Trazado 36848" d="M645.64,270.737s.175-1.929,1.818-1.611c1.131.219.255,3.52-.77,3.862S645.6,271.727,645.64,270.737Z" transform="translate(-639.33 -267.127)" fill="#262626"/>
        <path id="Trazado_36849" data-name="Trazado 36849" d="M641.139,262.022s2.436-.114,3.407.618c0,0,.079.526-1.45.233S640.931,262.539,641.139,262.022Z" transform="translate(-635.791 -261.6)" fill="#161616"/>
      </g>
      <path id="Trazado_36850" data-name="Trazado 36850" d="M563.232,210.956a11.675,11.675,0,0,0-12.993,3.5,11.463,11.463,0,0,0-1.579,2.561,9.035,9.035,0,0,0-10.6-.264,11.481,11.481,0,1,0,.61,3.607,11.964,11.964,0,0,0-.162-1.806,7.4,7.4,0,0,1,9.529.206,11.573,11.573,0,1,0,15.2-7.809ZM530.7,230.219a10.5,10.5,0,1,1,6.876-9.855A10.6,10.6,0,0,1,530.7,230.219Zm32.107,1.451a10.493,10.493,0,0,1-13.3-13.886l.03-.033-.012-.011a10.171,10.171,0,0,1,.607-1.221,10.495,10.495,0,1,1,12.677,15.151Z" transform="translate(-215.397 -56.504)" fill="#be1e2d"/>
      <path id="Trazado_36851" data-name="Trazado 36851" d="M564.532,385.3s-3.583,25.06-40.172,33.791c0,0-3.929-1.228-5.626-.811s1.134,6.092,6.34,7.838,37.43,1.5,49.184-13.727C574.259,412.4,577.238,392.615,564.532,385.3Z" transform="translate(-217.525 -194.4)" fill="#383838"/>
      <g id="Grupo_34333" data-name="Grupo 34333" transform="translate(239.794 150.103)">
        <g id="Grupo_34332" data-name="Grupo 34332" transform="translate(0 0)" clip-path="url(#clip-path)">
          <path id="Trazado_36852" data-name="Trazado 36852" d="M259.62,430.6s-6.766-4.366-11.641-.291c-6.275,5.245,4.438,21.184,5.966,28.958,1.065,5.42,3.347,12.515.073,18.481s-13.97,11.278-37.544,7.785l-.364,3.565c11.35,2.619,39.4,3.595,42.055-14.916s-10.681-31.66-9.9-38.109,8.658-3.218,8.658-3.218" transform="translate(-221.292 -378.303)" fill="#eab521"/>
        </g>
      </g>
      <path id="Trazado_36854" data-name="Trazado 36854" d="M402.948,432.316l-5.057-1.922a5.209,5.209,0,0,0-2.874,3.741l3.747,3.363Z" transform="translate(-121.261 -229.623)" fill="#848484"/>
      <path id="Trazado_36855" data-name="Trazado 36855" d="M425.284,434.935s-11.447-8.988-17.535-1.673c-6.694,8.043,6.181,16.812,6.181,16.812S416.917,435.953,425.284,434.935Z" transform="translate(-129.7 -229.623)" fill="#f15a29"/>
      <path id="Trazado_36856" data-name="Trazado 36856" d="M438.337,464.068A20.253,20.253,0,0,1,443.2,453.5c4.279-4.662,7.9-4.821,7.9-4.821s-1.1-1.757-2.46-1.869a15.538,15.538,0,0,0-9.344,5.74c-4.27,5.216-3.284,10.057-3.284,10.057S436.838,464.229,438.337,464.068Z" transform="translate(-153.213 -242.448)" fill="#dd441b"/>
      <path id="Trazado_36857" data-name="Trazado 36857" d="M434.53,349.474l6.95-1.947-3.475,8.662,3.475-.576-1.777,5.543-.694-3.639-2.935.859,1.081-7.532-4.537,2.274Z" transform="translate(-150.635 -164.887)" fill="#fbb040"/>
      <path id="Trazado_36858" data-name="Trazado 36858" d="M490.519,388.672l4.171.709-4.011,3.72,1.986.565-2.33,2.493.543-2.1-1.77-.28,2.46-3.721-2.974.069Z" transform="translate(-194.363 -197.03)" fill="#fbb040"/>
    </g>
  </g>
</svg>
