<svg xmlns="http://www.w3.org/2000/svg" xmlns:xlink="http://www.w3.org/1999/xlink" width="176" height="176" viewBox="0 0 176 176">
  <defs>
    <clipPath id="clip-path">
      <path id="Trazado_2175" data-name="Trazado 2175" d="M294.314,229.417h0l-22.6-63.06-43.966-3.33L172.22,188.659l-19.171,86.636s7.279,5.138,14.055,9.942a27.689,27.689,0,0,0-5.955,3.589c-13.691,10.983,10.81,39.868,51.527,48.115,0,0,89.056,19.267,88.369-68.588C300.914,251.677,298.411,238.9,294.314,229.417Z" transform="translate(-153.049 -163.025)" fill="none"/>
    </clipPath>
  </defs>
  <g id="Grupo_2373" data-name="Grupo 2373" transform="translate(-96 -120)">
    <g id="Grupo_1289" data-name="Grupo 1289" transform="translate(106 120)">
      <g id="Grupo_1288" data-name="Grupo 1288" clip-path="url(#clip-path)">
        <path id="Trazado_2106" data-name="Trazado 2106" d="M214.437,354.4s89.056,19.267,88.369-68.588-67.093-67.778-86.738-24.822S176.6,295.3,162.91,306.28,175.4,352.042,214.437,354.4Z" transform="translate(-154.81 -180.479)" fill="#6d31ff"/>
        <g id="Grupo_1287" data-name="Grupo 1287" transform="translate(8.284 5.893)">
          <g id="Grupo_1283" data-name="Grupo 1283" transform="translate(0 1.301)">
            <path id="Trazado_2107" data-name="Trazado 2107" d="M293.23,199.079l3.152-2.682s5.835,3.345,4.245,9.573S295.1,223.4,295.1,223.4l-2.593.806-9.89-29.009Z" transform="translate(-198.222 -179.379)" fill="#231f20"/>
            <g id="Grupo_1259" data-name="Grupo 1259" transform="translate(93.253 38.278)">
              <circle id="Elipse_272" data-name="Elipse 272" cx="3.621" cy="3.621" r="3.621" transform="translate(0 0)" fill="#eaa271"/>
              <circle id="Elipse_273" data-name="Elipse 273" cx="2.124" cy="2.124" r="2.124" transform="translate(1.497 1.497)" fill="#d38c5b"/>
            </g>
            <path id="Trazado_2108" data-name="Trazado 2108" d="M239.637,196.219l-.948,2.6s2.61,13.911-.834,18.523h-2.5l-2.28-16.711S237.518,194.717,239.637,196.219Z" transform="translate(-184.116 -179.6)" fill="#231f20"/>
            <g id="Grupo_1260" data-name="Grupo 1260" transform="translate(48.953 34.658)">
              <circle id="Elipse_274" data-name="Elipse 274" cx="3.621" cy="3.621" r="3.621" transform="translate(0 0)" fill="#eaa271"/>
              <circle id="Elipse_275" data-name="Elipse 275" cx="2.124" cy="2.124" r="2.124" transform="translate(1.497 1.497)" fill="#d38c5b"/>
            </g>
            <path id="Trazado_2109" data-name="Trazado 2109" d="M236.942,229.892l.833-33.787s2.312-14.4,24.588-13.318,20.648,20.533,20.648,20.533l-.112.022-2.061,28.515a9.507,9.507,0,0,1-4.1,8.338l-7.949,6.145c-11.323,8.558-19.273,1.1-19.273,1.1l-5.172-3.234a15.2,15.2,0,0,1-7.407-14.314Z" transform="translate(-185.201 -175.829)" fill="#f9b180"/>
            <path id="Trazado_2110" data-name="Trazado 2110" d="M255.116,273.4l2.338,15.938h12.459l1.341-16.33Z" transform="translate(-190.393 -201.533)" fill="#f9b180"/>
            <path id="Trazado_2111" data-name="Trazado 2111" d="M255.891,278.682s9.048,4.34,14.881.212l.483-5.886-16.138.392Z" transform="translate(-190.393 -201.533)" fill="#e28f56"/>
            <path id="Trazado_2112" data-name="Trazado 2112" d="M255.535,298.284l24.667,3.983s8.41,4.718-.589,14.391L272.361,370.7a63.945,63.945,0,0,1-38.436-2.6L229.5,317.685s-10.879-7.329,0-16.439Z" transform="translate(-181.724 -208.73)" fill="#f9b180"/>
            <path id="Trazado_2113" data-name="Trazado 2113" d="M231.428,300.08l13.6,10.067,31.7-5.793,5.392-3.254s-18.08-7.578-27.812-6.866a72.269,72.269,0,0,0-22.887,5.846" transform="translate(-183.649 -207.563)" fill="#f9b180"/>
            <ellipse id="Elipse_276" data-name="Elipse 276" cx="19.543" cy="15.159" rx="19.543" ry="15.159" transform="translate(51.61 144.23) rotate(-2.232)" fill="#f9b180"/>
            <path id="Trazado_2114" data-name="Trazado 2114" d="M244.487,216.079a5.327,5.327,0,0,1,4.234-4.634,9.24,9.24,0,0,1,1.79-.214,2.744,2.744,0,0,1,1.182.092l-.281-.741c.551.162,1.56,1.473,1.56,1.473L253.1,211a7.589,7.589,0,0,1,.589,2.546l-1.275-.035C251.071,213.641,246.024,214.251,244.487,216.079Z" transform="translate(-187.367 -183.759)" fill="#231f20"/>
            <path id="Trazado_2115" data-name="Trazado 2115" d="M284.051,214.731a5.325,5.325,0,0,0-4.234-4.634,9.235,9.235,0,0,0-1.79-.214,2.744,2.744,0,0,0-1.182.092l.28-.741c-.551.162-1.56,1.473-1.56,1.473l-.129-1.058a7.6,7.6,0,0,0-.589,2.546l1.275-.035C277.468,212.293,282.515,212.9,284.051,214.731Z" transform="translate(-196.012 -183.375)" fill="#231f20"/>
            <path id="Trazado_2116" data-name="Trazado 2116" d="M277.329,202.844s.59-10.276-4.178-11.336-13.343,2.336-18.946,3.111-25.078-.9-26.533-13.266c0,0,3,1.5,6.585-1.369,5.406-4.332,22.749-9.979,33.206-4.879S285.569,188.217,277.329,202.844Z" transform="translate(-182.58 -173.082)" fill="#231f20"/>
            <path id="Trazado_2117" data-name="Trazado 2117" d="M298.189,193.989s3.291-4.42,2.7-7.247c0,0,1.546,3,.768,5.563,0,0,4.378,1.589,4.644,3.621,0,0-.426-.883-4.055-.883a8.209,8.209,0,0,1,1.847,3.8,20.7,20.7,0,0,0-5.9-4.854Z" transform="translate(-202.657 -176.971)" fill="#231f20"/>
            <path id="Trazado_2118" data-name="Trazado 2118" d="M295.948,199.024l-.834,2.651s-2.229,16.034,1.215,20.647l1.863.637,4.556-15.987S298.067,197.522,295.948,199.024Z" transform="translate(-201.58 -180.422)" fill="#231f20"/>
            <path id="Trazado_2119" data-name="Trazado 2119" d="M243.992,200.1s-4.251-.523-5.046,2.785-.361,14.459-.361,14.459l-1.62.538.118-3.62-1.448-9.323,1.259-5.862.762-3.1Z" transform="translate(-184.847 -179.6)" fill="#231f20"/>
            <path id="Trazado_2120" data-name="Trazado 2120" d="M257.6,196.506s-12.3,2.233-16.9-4.792S236.86,182,236.86,182l2.88-1.842S240.074,196.842,257.6,196.506Z" transform="translate(-185.182 -175.096)" fill="#514b4d"/>
            <path id="Trazado_2121" data-name="Trazado 2121" d="M261.068,195.237s-16.4-5.852-15.159-17.848L249,176.274s-1.955,9.773,13.507,18.653Z" transform="translate(-187.753 -173.991)" fill="#514b4d"/>
            <path id="Trazado_2122" data-name="Trazado 2122" d="M240.295,196.884s-12-3.493-12.623-12.241a5.009,5.009,0,0,0,2.911.328S233.5,194.191,240.295,196.884Z" transform="translate(-182.58 -176.374)" fill="#514b4d"/>
            <path id="Trazado_2123" data-name="Trazado 2123" d="M294.407,217.659h6.76l-6.722,1.773Z" transform="translate(-201.58 -185.774)" fill="#514b4d"/>
            <path id="Trazado_2124" data-name="Trazado 2124" d="M294.757,223.567l.282,1.81,5.639-3.067Z" transform="translate(-201.68 -187.098)" fill="#514b4d"/>
            <path id="Trazado_2125" data-name="Trazado 2125" d="M295.984,228.9l.8,1.5,2.944-3.159Z" transform="translate(-202.029 -188.503)" fill="#514b4d"/>
            <path id="Trazado_2126" data-name="Trazado 2126" d="M238.121,213.752l-3.744-1.689,3.744,4Z" transform="translate(-184.489 -184.181)" fill="#514b4d"/>
            <path id="Trazado_2127" data-name="Trazado 2127" d="M238.292,219.051l-3.334-2.732,3.362,4.285Z" transform="translate(-184.654 -185.393)" fill="#514b4d"/>
            <path id="Trazado_2128" data-name="Trazado 2128" d="M239.14,224.3l-1.48-1.635.574,2.58.928-.308Z" transform="translate(-185.423 -187.2)" fill="#514b4d"/>
            <path id="Trazado_2129" data-name="Trazado 2129" d="M281.582,230.64l-1.863-.64s-7.534,26.42-17.336,27.126c-4.981.359-4.621-4.563-4.621-4.563h-3.494s-.389,4-1.965,3.729-10.236-5.83-11.138-11-2.456-19.452-2.456-19.452l-1.62.538s-1.019,18.03-1.021,19.091c-.008,5.441,6.493,13,11.243,15.476a17.315,17.315,0,0,0,6.957,2.443c5.022.584,9.54,1.461,18.3-5.317,0,0,6.476-5.508,7.933-10.376C281.827,243.274,281.582,230.64,281.582,230.64Z" transform="translate(-184.97 -188.105)" fill="#2d2a2b"/>
            <path id="Trazado_2130" data-name="Trazado 2130" d="M255.774,245.207a6.927,6.927,0,0,1,4.061-1.332,35.064,35.064,0,0,1,5.269.657c1.95.47,3.357,1.086,5.271,1.086s7.01,1.857,7.181,5.393-3.27,6.155-4.242,6.307.923-4.764-.513-5.82-9.026-3.714-12.967-3.205a21.975,21.975,0,0,1-5.681,0,9.624,9.624,0,0,0-4.309.746c-1.787.918-5.232.436-7.1,3.9s-2.875-3.059-2.986-3.34,3.842-4.284,7.562-4.387S252.705,243.36,255.774,245.207Z" transform="translate(-186.021 -193.233)" fill="#2d2a2b"/>
            <g id="Grupo_1276" data-name="Grupo 1276" transform="translate(42.013 79.582)">
              <g id="Grupo_1261" data-name="Grupo 1261">
                <path id="Trazado_2131" data-name="Trazado 2131" d="M229.586,296.922a69.7,69.7,0,0,1,15.507-6.638c1.5-.456.858-5.942.858-5.942l8.831.393,8.832-.393s-.6,5.378.856,5.942a91.551,91.551,0,0,1,15.509,8.314s5.257,2.537,4.373,9.508-4.521,8.924-4.521,8.924l-5.739,61.51H232.845l-4.592-64.02S216.418,304.28,229.586,296.922Z" transform="translate(-223.367 -284.342)" fill="#511d39"/>
              </g>
              <g id="Grupo_1262" data-name="Grupo 1262" transform="translate(23.173 0.636)">
                <path id="Trazado_2132" data-name="Trazado 2132" d="M272.323,285.344l-2.592.181c-.777.051-1.685.094-2.657.139s-2.009.079-3.046.087c-1.037.024-2.074.013-3.044-.015l-1.4-.06-1.251-.1-1.054-.118c-.315-.028-.586-.082-.81-.119l-.706-.114.694.174c.222.051.49.125.8.174s.665.125,1.052.178l1.254.149c.446.035.918.077,1.406.1.976.041,2.019.067,3.061.057s2.082-.065,3.056-.13,1.88-.158,2.657-.236C271.3,285.526,272.323,285.344,272.323,285.344Z" transform="translate(-255.764 -285.231)" fill="#7a2158"/>
              </g>
              <g id="Grupo_1274" data-name="Grupo 1274" transform="translate(23.741 1.853)">
                <g id="Grupo_1273" data-name="Grupo 1273">
                  <g id="Grupo_1263" data-name="Grupo 1263" transform="translate(14.463)">
                    <path id="Trazado_2133" data-name="Trazado 2133" d="M276.8,286.932a6.815,6.815,0,0,0-.019.686,10.227,10.227,0,0,0,.155,1.456,8.567,8.567,0,0,0,.374,1.4,5.042,5.042,0,0,0,.275.607,5.633,5.633,0,0,0,.03-.69,9,9,0,0,0-.166-1.454,9.693,9.693,0,0,0-.386-1.393,6.251,6.251,0,0,0-.263-.612Z" transform="translate(-276.777 -286.932)" fill="#7a2158"/>
                  </g>
                  <g id="Grupo_1264" data-name="Grupo 1264" transform="translate(12.93 0.366)">
                    <path id="Trazado_2134" data-name="Trazado 2134" d="M274.682,287.444s-.036.278-.046.684a10.3,10.3,0,0,0,.094,1.464,8.983,8.983,0,0,0,.315,1.418,5.077,5.077,0,0,0,.25.622,5.806,5.806,0,0,0,.058-.687,8.919,8.919,0,0,0-.107-1.462,9.812,9.812,0,0,0-.326-1.415A5.3,5.3,0,0,0,274.682,287.444Z" transform="translate(-274.635 -287.444)" fill="#7a2158"/>
                  </g>
                  <g id="Grupo_1265" data-name="Grupo 1265" transform="translate(11.376 0.641)">
                    <path id="Trazado_2135" data-name="Trazado 2135" d="M272.548,287.828s-.048.275-.074.681a10.2,10.2,0,0,0,.034,1.467,8.784,8.784,0,0,0,.256,1.436,5.264,5.264,0,0,0,.223.636,5.5,5.5,0,0,0,.086-.682,9.139,9.139,0,0,0-.045-1.468,10.043,10.043,0,0,0-.268-1.432A6.72,6.72,0,0,0,272.548,287.828Z" transform="translate(-272.461 -287.828)" fill="#7a2158"/>
                  </g>
                  <g id="Grupo_1266" data-name="Grupo 1266" transform="translate(9.797 0.825)">
                    <path id="Trazado_2136" data-name="Trazado 2136" d="M270.4,288.085a6.679,6.679,0,0,0-.1.675,10.3,10.3,0,0,0-.027,1.468,9.111,9.111,0,0,0,.2,1.449,5.342,5.342,0,0,0,.2.649,5.4,5.4,0,0,0,.115-.677,9.135,9.135,0,0,0,.014-1.468,10.024,10.024,0,0,0-.208-1.446C270.49,288.343,270.4,288.085,270.4,288.085Z" transform="translate(-270.254 -288.085)" fill="#7a2158"/>
                  </g>
                  <g id="Grupo_1267" data-name="Grupo 1267" transform="translate(8.196 0.916)">
                    <path id="Trazado_2137" data-name="Trazado 2137" d="M268.234,288.213a6.5,6.5,0,0,0-.13.668,10.313,10.313,0,0,0-.088,1.464,9.153,9.153,0,0,0,.136,1.458,5.477,5.477,0,0,0,.17.66,5.576,5.576,0,0,0,.142-.67,9.162,9.162,0,0,0,.075-1.465,10.213,10.213,0,0,0-.148-1.457C268.316,288.476,268.233,288.213,268.234,288.213Z" transform="translate(-268.015 -288.213)" fill="#7a2158"/>
                  </g>
                  <g id="Grupo_1268" data-name="Grupo 1268" transform="translate(6.578 0.916)">
                    <path id="Trazado_2138" data-name="Trazado 2138" d="M266.061,288.213a6.662,6.662,0,0,0-.158.659,10.111,10.111,0,0,0-.147,1.457,9.081,9.081,0,0,0,.074,1.465,5.351,5.351,0,0,0,.142.669,5.112,5.112,0,0,0,.169-.659,9.06,9.06,0,0,0,.136-1.458,10.422,10.422,0,0,0-.087-1.464,6.779,6.779,0,0,0-.129-.669Z" transform="translate(-265.753 -288.213)" fill="#7a2158"/>
                  </g>
                  <g id="Grupo_1269" data-name="Grupo 1269" transform="translate(4.944 0.825)">
                    <path id="Trazado_2139" data-name="Trazado 2139" d="M263.884,288.085s-.092.258-.185.65a9.941,9.941,0,0,0-.207,1.446,9.062,9.062,0,0,0,.015,1.468,5.245,5.245,0,0,0,.115.677,5.33,5.33,0,0,0,.2-.649,9.026,9.026,0,0,0,.2-1.449A10.2,10.2,0,0,0,264,288.76,6.685,6.685,0,0,0,263.884,288.085Z" transform="translate(-263.47 -288.085)" fill="#7a2158"/>
                  </g>
                  <g id="Grupo_1270" data-name="Grupo 1270" transform="translate(3.3 0.641)">
                    <path id="Trazado_2140" data-name="Trazado 2140" d="M261.707,287.828a6.631,6.631,0,0,0-.211.637,9.852,9.852,0,0,0-.268,1.432,9.059,9.059,0,0,0-.046,1.468,5.506,5.506,0,0,0,.086.682,5.18,5.18,0,0,0,.224-.636,8.941,8.941,0,0,0,.255-1.436,10.109,10.109,0,0,0,.034-1.467A6.816,6.816,0,0,0,261.707,287.828Z" transform="translate(-261.171 -287.828)" fill="#7a2158"/>
                  </g>
                  <g id="Grupo_1271" data-name="Grupo 1271" transform="translate(1.649 0.366)">
                    <path id="Trazado_2141" data-name="Trazado 2141" d="M259.535,287.444a6.586,6.586,0,0,0-.237.624,9.819,9.819,0,0,0-.326,1.415,9.085,9.085,0,0,0-.107,1.462,5.629,5.629,0,0,0,.058.687,5.215,5.215,0,0,0,.25-.622,8.841,8.841,0,0,0,.315-1.418,10.1,10.1,0,0,0,.094-1.464,6.274,6.274,0,0,0-.047-.684Z" transform="translate(-258.863 -287.444)" fill="#7a2158"/>
                  </g>
                  <g id="Grupo_1272" data-name="Grupo 1272">
                    <path id="Trazado_2142" data-name="Trazado 2142" d="M257.374,286.932a6.455,6.455,0,0,0-.265.609,9.83,9.83,0,0,0-.385,1.393,9.087,9.087,0,0,0-.167,1.454,5.531,5.531,0,0,0,.031.69,5.034,5.034,0,0,0,.275-.607,8.652,8.652,0,0,0,.373-1.4,10.11,10.11,0,0,0,.154-1.456A6.792,6.792,0,0,0,257.374,286.932Z" transform="translate(-256.557 -286.932)" fill="#7a2158"/>
                  </g>
                </g>
              </g>
              <g id="Grupo_1275" data-name="Grupo 1275" transform="translate(21.727 5.942)">
                <path id="Trazado_2143" data-name="Trazado 2143" d="M273.118,292.649a27.241,27.241,0,0,1-19.376,0S262.164,297.5,273.118,292.649Z" transform="translate(-253.742 -292.649)" fill="#7a2158"/>
              </g>
            </g>
            <path id="Trazado_2144" data-name="Trazado 2144" d="M282.5,298.284l15.79,5.05s4.784,11.939-3.607,19.358v66.87L272.4,391.09l-.425-40.976s9.3-8.814,10.412-27.422S282.5,298.284,282.5,298.284Z" transform="translate(-195.194 -208.73)" fill="#252430"/>
            <path id="Trazado_2145" data-name="Trazado 2145" d="M278.31,292.574s10.7,16.884-6.333,55.861l.047,4.536s25.212-46.09,18.524-55.788C290.548,297.182,288.043,291.264,278.31,292.574Z" transform="translate(-195.194 -207.05)" fill="#1d1d1e"/>
            <path id="Trazado_2146" data-name="Trazado 2146" d="M236.067,298.284l-15.79,5.05s-4.785,11.939,3.607,19.358l1.014,66.691,21.269,1.707.425-40.976s-9.3-8.814-10.412-27.422S236.067,298.284,236.067,298.284Z" transform="translate(-180.088 -208.73)" fill="#252430"/>
            <path id="Trazado_2147" data-name="Trazado 2147" d="M247,292.574s-14.268,16.884,2.765,55.861l-.047,4.536s-25.212-46.09-18.524-55.788A19.93,19.93,0,0,1,247,292.574Z" transform="translate(-183.261 -207.05)" fill="#1d1d1e"/>
            <g id="Grupo_1281" data-name="Grupo 1281" transform="translate(59.062 35.24)">
              <g id="Grupo_1277" data-name="Grupo 1277">
                <path id="Trazado_2148" data-name="Trazado 2148" d="M254.216,225.074s-4.111-1.878-6.31.048a2.808,2.808,0,0,1-.643-2.571S251.9,221.293,254.216,225.074Z" transform="translate(-247.202 -222.35)" fill="#020202"/>
                <path id="Trazado_2149" data-name="Trazado 2149" d="M251.7,226.918s-1.725-.406-2.187.322" transform="translate(-247.859 -223.618)" fill="#020202"/>
              </g>
              <g id="Grupo_1278" data-name="Grupo 1278" transform="translate(19.107 0.291)">
                <path id="Trazado_2150" data-name="Trazado 2150" d="M273.914,225.6s4.069-1.968,6.31-.092a2.809,2.809,0,0,0,.586-2.585S276.142,221.765,273.914,225.6Z" transform="translate(-273.914 -222.756)" fill="#020202"/>
                <path id="Trazado_2151" data-name="Trazado 2151" d="M278.371,227.379s1.716-.444,2.193.273" transform="translate(-275.183 -224.033)" fill="#020202"/>
              </g>
              <g id="Grupo_1280" data-name="Grupo 1280" transform="translate(5.885 21.601)">
                <g id="Grupo_1279" data-name="Grupo 1279" transform="translate(0 0.708)">
                  <path id="Trazado_2152" data-name="Trazado 2152" d="M264.39,259.764a4.449,4.449,0,0,1-4.277-.652S261.979,261.561,264.39,259.764Z" transform="translate(-256.763 -255.125)" fill="#f29fa0"/>
                  <path id="Trazado_2153" data-name="Trazado 2153" d="M256.088,253.552s-.668.059-.482.607C255.606,254.158,254.978,253.43,256.088,253.552Z" transform="translate(-255.429 -253.538)" fill="#e69f73"/>
                </g>
                <path id="Trazado_2154" data-name="Trazado 2154" d="M274.2,254.9s1.5-2.815-.893-2.291C273.306,252.613,274.945,252.667,274.2,254.9Z" transform="translate(-260.519 -252.548)" fill="#3a3a3a"/>
                <path id="Trazado_2155" data-name="Trazado 2155" d="M269.7,253.473s-7.453,6.515-13.447.453c0,0,3.973,4.48,12.906-.814Z" transform="translate(-255.665 -252.709)" fill="#3a3a3a"/>
              </g>
            </g>
            <path id="Trazado_2156" data-name="Trazado 2156" d="M299.275,322.577l3.182,2.124a22.7,22.7,0,0,1,13.352,14.742c2.7,9.225-13.649,42.941-13.649,42.941l9.614,5.526s17.651-35.434,15.475-50.49c-2.782-19.247-21.185-32.077-21.185-32.077Z" transform="translate(-202.966 -210.74)" fill="#252430"/>
            <g id="Grupo_1282" data-name="Grupo 1282" transform="translate(7.863 31.95)">
              <path id="Trazado_2157" data-name="Trazado 2157" d="M178.084,231.257c-.11-.048-1.692-.655-1.791-.722-.96-.647-.756-1.669-.21-2.633l2.949-8.729a2.056,2.056,0,0,1,.578-.913,2.113,2.113,0,0,1,2.42-.234l11.078,7.4a2.3,2.3,0,0,1,.822,1.016,2.837,2.837,0,0,1-.367,2.918l-2.241,3.956c-1.079,2.339-2.374,2.268-3.389,1.692Z" transform="translate(-175.623 -217.75)" fill="#f9b180"/>
            </g>
            <path id="Trazado_2158" data-name="Trazado 2158" d="M197.707,229.194l.816.065a.948.948,0,0,0,1.018-.866l.978-6.269a.948.948,0,0,0-.867-1.018l-1.758-.141a.948.948,0,0,0-1.018.866l-.035,6.344A.948.948,0,0,0,197.707,229.194Z" transform="translate(-173.8 -186.715)" fill="#e28f56"/>
            <path id="Trazado_2159" data-name="Trazado 2159" d="M187.15,248.815c.072-.145,4.986-13.864,4.986-13.864l-8.628,2.694-3.657,9.812Z" transform="translate(-168.964 -190.697)" fill="#f9b180"/>
            <path id="Trazado_2160" data-name="Trazado 2160" d="M206.616,289.743l-1.93-1.05s-18.364,8.921-27.442,1.3c-6.016-5.049,9.989-41.52,9.989-41.52l-10.971-1.612s-17.2,37.484-9.771,50.761,41.8,10.427,41.8,10.427Z" transform="translate(-164.631 -194.089)" fill="#252430"/>
          </g>
          <g id="Grupo_1285" data-name="Grupo 1285" transform="translate(50.888 32.59)">
            <path id="Trazado_2161" data-name="Trazado 2161" d="M275.93,218.1c1.541.079,4.583.109,6.047,1.348s1.255,4.278.808,6-1.265,4.392-4.317,5.476a7.63,7.63,0,0,1-8.377-2.187c-2.01-2.31-3.008-6.224-1.763-8.254S274.319,218.015,275.93,218.1Z" transform="translate(-244.887 -217.186)" fill="#fff" opacity="0.05"/>
            <path id="Trazado_2162" data-name="Trazado 2162" d="M239.624,219.061c1.486-1.212,4.528-1.187,6.071-1.239,1.611-.054,6.35.467,7.558,2.52s.139,5.947-1.913,8.221a7.629,7.629,0,0,1-8.416,2.034c-3.031-1.139-3.8-3.824-4.217-5.553S238.137,220.274,239.624,219.061Z" transform="translate(-236.528 -217.109)" fill="#fff" opacity="0.05"/>
            <g id="Grupo_1284" data-name="Grupo 1284">
              <path id="Trazado_2163" data-name="Trazado 2163" d="M235.79,217.991l-.016,1.8a1,1,0,0,1,.809.825c.164.75.221,3.988,1.019,5.967a7.252,7.252,0,0,0,4.9,4.64,8.651,8.651,0,0,0,6.992-.924,10.492,10.492,0,0,0,3.477-4.02c1.19-2.327,1.044-4.9,1.324-5.661.209-.566.88-.65,1.561-.644s1.35.1,1.549.672c.267.762.075,3.337,1.222,5.685a10.5,10.5,0,0,0,3.406,4.082,8.658,8.658,0,0,0,6.978,1.05,7.264,7.264,0,0,0,4.995-4.551c.833-1.963,1-5.2,1.177-5.947a1.049,1.049,0,0,1,.892-.809l.016-1.8s-.74-.072-1.521-.182a45.735,45.735,0,0,0-6.682-1.129,19.2,19.2,0,0,0-6.4.711c-1.639.461-2.563,1.109-3.039,1.036a11.71,11.71,0,0,0-5.171-.047c-.477.064-1.386-.6-3.016-1.091a19.151,19.151,0,0,0-6.372-.827,44.824,44.824,0,0,0-6.651,1.009C236.463,217.931,235.79,217.991,235.79,217.991Zm23.426,2.13c1.245-2.03,5.991-2.465,7.6-2.383,1.541.079,4.584.109,6.047,1.348s1.255,4.278.808,6-1.265,4.392-4.317,5.476a7.63,7.63,0,0,1-8.377-2.187c-2.009-2.31-3.006-6.224-1.762-8.254Zm-20.345-1.342c1.486-1.212,4.528-1.187,6.071-1.239,1.612-.054,6.35.467,7.558,2.52s.139,5.947-1.913,8.221a7.629,7.629,0,0,1-8.416,2.034c-3.031-1.139-3.8-3.824-4.217-5.553s-.571-4.771.916-5.983Zm35.6,2.909,7.784,3.637.416-1.51-7.9-3.863Z" transform="translate(-235.774 -216.827)" fill="#0d1642"/>
              <path id="Trazado_2164" data-name="Trazado 2164" d="M270.091,228.734a7.63,7.63,0,0,0,8.377,2.187c3.051-1.084,3.87-3.755,4.317-5.476s.656-4.76-.808-6-4.506-1.269-6.047-1.348c-1.611-.082-6.357.353-7.6,2.383S268.081,226.424,270.091,228.734Z" transform="translate(-244.887 -217.186)" fill="#212121"/>
              <path id="Trazado_2165" data-name="Trazado 2165" d="M239.624,219.061c1.486-1.212,4.528-1.187,6.071-1.239,1.611-.054,6.35.467,7.558,2.52s.139,5.947-1.913,8.221a7.629,7.629,0,0,1-8.416,2.034c-3.031-1.139-3.8-3.824-4.217-5.553S238.137,220.274,239.624,219.061Z" transform="translate(-236.528 -217.109)" fill="#212121"/>
              <path id="Trazado_2166" data-name="Trazado 2166" d="M274.577,218.244l6.985,11.317a6.006,6.006,0,0,1-2.263,1.4,7.908,7.908,0,0,1-1.586.384l-7.016-12.09A12.478,12.478,0,0,1,274.577,218.244Z" transform="translate(-245.717 -217.23)" fill="#515151" opacity="0.58"/>
              <path id="Trazado_2167" data-name="Trazado 2167" d="M269.27,220.365l7.189,11.649a7.6,7.6,0,0,1-1.212-.036L268.576,221.1A2.874,2.874,0,0,1,269.27,220.365Z" transform="translate(-245.113 -217.834)" fill="#515151" opacity="0.58"/>
              <path id="Trazado_2168" data-name="Trazado 2168" d="M246.79,217.7l4.551,11.944a7.685,7.685,0,0,1-4.094,1.488l-5.189-12.892A18.094,18.094,0,0,1,246.79,217.7Z" transform="translate(-237.563 -217.076)" fill="#515151" opacity="0.58"/>
              <path id="Trazado_2169" data-name="Trazado 2169" d="M240.889,218.8l4.941,12.649a7.944,7.944,0,0,1-1.071-.132l-4.591-12.086a3.671,3.671,0,0,1,.721-.431Z" transform="translate(-237.025 -217.39)" fill="#515151" opacity="0.58"/>
            </g>
          </g>
          <g id="Grupo_1286" data-name="Grupo 1286" transform="translate(62.285 40.122)">
            <path id="Trazado_2170" data-name="Trazado 2170" d="M258.33,231.276a13.849,13.849,0,0,0,1.443-2.526c.518-1.268,1.141-1.678,2.329-1.2s1.738,10.292-4.895,11.033-5.781-3.9-4.911-5.008S256.015,234.373,258.33,231.276Z" transform="translate(-251.709 -227.357)" fill="#e28f56"/>
            <path id="Trazado_2171" data-name="Trazado 2171" d="M257.035,238.222c5.711-.638,6.1-8,5.334-10.336,1.024,1.439,1.137,10.151-5.1,10.848-3.493.39-4.908-.712-5.341-2C252.551,237.78,254.017,238.559,257.035,238.222Z" transform="translate(-251.771 -227.508)" fill="#c97236"/>
          </g>
          <path id="Trazado_2172" data-name="Trazado 2172" d="M204.949,195.178a3.309,3.309,0,0,0,3.684-3.48s0,3.48,3.071,2.661a2.908,2.908,0,0,0-.818,4.3s-2.833-1.229-3.685,1.365c0,0,.239-1.945-1.126-1.6C206.075,198.42,209.316,195.758,204.949,195.178Z" transform="translate(-176.11 -177.082)" fill="#f7941d"/>
          <path id="Trazado_2173" data-name="Trazado 2173" d="M314.16,172.973a3.309,3.309,0,0,0-.019,5.068s-2.521-2.4-4.045.39a2.908,2.908,0,0,0-2.549-3.557s2.842-1.2,1.551-3.61c0,0,1.245,1.514,1.938.29C311.035,171.554,310.728,175.737,314.16,172.973Z" transform="translate(-205.321 -171.264)" fill="#f7941d"/>
          <path id="Trazado_2174" data-name="Trazado 2174" d="M219.321,251.1a3.454,3.454,0,0,0,3.845-3.632s0,3.632,3.2,2.777a3.034,3.034,0,0,0-.854,4.486s-2.955-1.282-3.845,1.424c0,0,.25-2.029-1.174-1.673C220.5,254.479,223.878,251.7,219.321,251.1Z" transform="translate(-180.202 -192.96)" fill="#f7941d"/>
        </g>
      </g>
    </g>
    <rect id="Rectángulo_1830" data-name="Rectángulo 1830" width="176" height="176" transform="translate(96 120)" fill="none"/>
  </g>
</svg>
