<svg xmlns="http://www.w3.org/2000/svg" xmlns:xlink="http://www.w3.org/1999/xlink" width="176" height="176" viewBox="0 0 176 176">
  <defs>
    <clipPath id="clip-path">
      <rect width="176" height="176" fill="none"/>
    </clipPath>
    <clipPath id="clip-path-2">
      <path id="Path_40315" data-name="Path 40315" d="M5524.423,5013.317H5374.9a2.027,2.027,0,0,0-2.021,2.021v118.237a2.028,2.028,0,0,0,2.021,2.022h3.083c-1.193,24.861,19.518,40.527,19.518,40.527,20.865,18.012,103.593,20.928,124.73-39.717.094-.271.174-.54.265-.81h1.924a2.028,2.028,0,0,0,2.022-2.022V5015.338A2.027,2.027,0,0,0,5524.423,5013.317Z" fill="none"/>
    </clipPath>
    <clipPath id="clip-path-3">
      <rect id="Rectangle_4272" data-name="Rectangle 4272" width="32.65" height="21.003" rx="0.991" transform="translate(5435.29 5139.965) rotate(1.413)" fill="none"/>
    </clipPath>
    <linearGradient id="linear-gradient" x1="47.56" y1="14.501" x2="49.427" y2="14.501" gradientUnits="objectBoundingBox">
      <stop offset="0" stop-color="#4a1ed9"/>
      <stop offset="0.917" stop-color="#5d2af5"/>
      <stop offset="1" stop-color="#602cf8"/>
    </linearGradient>
    <linearGradient id="linear-gradient-2" x1="-154.713" y1="-502.703" x2="-154.525" y2="-504.65" gradientUnits="objectBoundingBox">
      <stop offset="0" stop-color="#fff"/>
      <stop offset="0.036" stop-color="#fff" stop-opacity="0.941"/>
      <stop offset="0.192" stop-color="#fff" stop-opacity="0.694"/>
      <stop offset="0.347" stop-color="#fff" stop-opacity="0.482"/>
      <stop offset="0.497" stop-color="#fff" stop-opacity="0.31"/>
      <stop offset="0.64" stop-color="#fff" stop-opacity="0.176"/>
      <stop offset="0.775" stop-color="#fff" stop-opacity="0.078"/>
      <stop offset="0.898" stop-color="#fff" stop-opacity="0.02"/>
      <stop offset="1" stop-color="#fff" stop-opacity="0"/>
    </linearGradient>
    <linearGradient id="linear-gradient-3" x1="-141.555" y1="-314.136" x2="-141.358" y2="-315.52" xlink:href="#linear-gradient-2"/>
  </defs>
  <g id="Repeat_Grid_2" data-name="Repeat Grid 2" clip-path="url(#clip-path)">
    <g id="Group_36506" data-name="Group 36506" transform="translate(-5365.306 -5012.317)">
      <g id="Group_36522" data-name="Group 36522">
        <g id="Group_36521" data-name="Group 36521">
          <g id="Group_36520" data-name="Group 36520" clip-path="url(#clip-path-2)">
            <path id="Path_40275" data-name="Path 40275" d="M5397.5,5176.124s-30.48-23.049-15.363-57.6,43.92-12.932,70.592-54.077,90.639,11.318,69.5,71.964S5418.369,5194.137,5397.5,5176.124Z" fill="#6d31ff"/>
            <g id="Group_36519" data-name="Group 36519">
              <path id="Path_40276" data-name="Path 40276" d="M5463.566,5116.773l23.3-3.134s5.889-15.015-31-16.73-34.736,9.64-34.538,13.791S5463.566,5116.773,5463.566,5116.773Z" fill="#f2bc98"/>
              <g id="Group_36506-2" data-name="Group 36506">
                <path id="Path_40277" data-name="Path 40277" d="M5418.149,5106.757c-4.265-12.932,22.29-10.843,22.29-10.843l21.512.341s30.5,2.451,25.946,13.364c-5.394,12.927-9.274,15.48-9.274,15.48s-1.729,29.957-1.817,35.514l-.558,35.13-25.93,1.079-27.324-1.924.557-35.13c.088-5.557-.189-38.258-.189-38.258S5422.589,5120.219,5418.149,5106.757Z" fill="#392e2e"/>
              </g>
              <g id="Group_36508" data-name="Group 36508">
                <g id="Group_36507" data-name="Group 36507">
                  <path id="Path_40278" data-name="Path 40278" d="M5479.8,5102.192l.112-5.835c.049-2.586-12.439-4.922-27.893-5.217s-28.022,1.563-28.071,4.15l-.112,5.835h0c-.049,2.587,12.438,4.922,27.892,5.217s28.022-1.563,28.072-4.149Z" fill="#cfcdd5"/>
                  <ellipse id="Ellipse_776" data-name="Ellipse 776" cx="4.647" cy="27.987" rx="4.647" ry="27.987" transform="translate(5423.857 5099.899) rotate(-88.907)" fill="#f9f3ef"/>
                </g>
                <path id="Path_40279" data-name="Path 40279" d="M5440.51,5094.93s-7.99-2.165-13.533,1.17C5426.977,5096.1,5431.6,5094.862,5440.51,5094.93Z" fill="#cfcdd5"/>
                <path id="Path_40280" data-name="Path 40280" d="M5443.941,5097a10.858,10.858,0,0,0-4.968,1.5Z" fill="#cfcdd5"/>
                <path id="Path_40281" data-name="Path 40281" d="M5460.9,5097.32a10.867,10.867,0,0,1,4.908,1.687Z" fill="#cfcdd5"/>
                <path id="Path_40282" data-name="Path 40282" d="M5451.462,5098.351l-.029,1.528S5452.205,5099.512,5451.462,5098.351Z" fill="#cfcdd5"/>
                <path id="Path_40283" data-name="Path 40283" d="M5462.012,5095.682s9.9-.7,15.374,1.38C5477.386,5097.062,5471.778,5093.954,5462.012,5095.682Z" fill="#cfcdd5"/>
                <path id="Path_40284" data-name="Path 40284" d="M5461.6,5094.748l5.257-1.858S5463.463,5092.92,5461.6,5094.748Z" fill="#cfcdd5"/>
                <path id="Path_40285" data-name="Path 40285" d="M5438.134,5092.342s3.612.621,4.728,2.048C5442.862,5094.39,5442.349,5091.828,5438.134,5092.342Z" fill="#cfcdd5"/>
              </g>
              <g id="Group_36509" data-name="Group 36509">
                <path id="Path_40286" data-name="Path 40286" d="M5444.114,5087.12l-.174,8.674,15.657.462.406-9.212Z" fill="#f2bc98"/>
                <path id="Path_40287" data-name="Path 40287" d="M5443.99,5093.3s10.487.491,15.786-1.09l.227-5.165-15.889.076Z" fill="#e3ae8a"/>
                <path id="Path_40288" data-name="Path 40288" d="M5459.689,5094.187v3s-1.664,1.611-7.692,1.51-8.073-1.966-8.073-1.966l.066-2.261h11.357Z" fill="#f2bc98"/>
              </g>
              <g id="Group_36518" data-name="Group 36518">
                <path id="Path_40289" data-name="Path 40289" d="M5476.635,5050.486l.718,4.549-.838-.013.8,2.359-.864-.6-4.776,17.709-.627-2.786-4.759,1.6-3.354-5.836-3.87-19.925Z" fill="#49230f"/>
                <path id="Path_40290" data-name="Path 40290" d="M5433.179,5045.459l-2.742,8.831.838.014-.875,2.333.883-.573,4.589,17.857.337-2.771,4.706,1.746,3.538-5.728,4.5-19.792Z" fill="#49230f"/>
                <g id="Group_36510" data-name="Group 36510">
                  <circle id="Ellipse_777" data-name="Ellipse 777" cx="3.436" cy="3.436" r="3.436" transform="translate(5430.436 5059.737)" fill="#f2bc98"/>
                  <circle id="Ellipse_778" data-name="Ellipse 778" cx="2.016" cy="2.016" r="2.016" transform="translate(5431.856 5061.157)" fill="#d18a5b"/>
                </g>
                <g id="Group_36511" data-name="Group 36511">
                  <circle id="Ellipse_779" data-name="Ellipse 779" cx="3.436" cy="3.436" r="3.436" transform="translate(5469.738 5061.406)" fill="#f2bc98"/>
                  <circle id="Ellipse_780" data-name="Ellipse 780" cx="2.016" cy="2.016" r="2.016" transform="translate(5471.159 5062.826)" fill="#d18a5b"/>
                </g>
                <path id="Path_40291" data-name="Path 40291" d="M5434.208,5071.9l.174-26.6s1.938-12.612,21.13-11.761,17.865,17.879,17.865,17.879l-.1.021-1.65,23.844a12.458,12.458,0,0,1-5.792,8.838l-4.894,3.881c-9.721,7.539-16.231,1.05-16.231,1.05l-5.18-4.405C5433.827,5080.31,5434.208,5071.9,5434.208,5071.9Z" fill="#f2bc98"/>
                <g id="Group_36512" data-name="Group 36512">
                  <path id="Path_40292" data-name="Path 40292" d="M5457.3,5059.411a2.873,2.873,0,1,0,2.913-2.669A2.795,2.795,0,0,0,5457.3,5059.411Z" fill="#19594d"/>
                  <path id="Path_40293" data-name="Path 40293" d="M5459.324,5058.84a.75.75,0,0,0-.006,1.011c.359.412-.25,1-.611.592a1.587,1.587,0,0,1-.111-2.044.44.44,0,0,1,.584-.143.429.429,0,0,1,.144.584Z" fill="#fff"/>
                </g>
                <g id="Group_36513" data-name="Group 36513">
                  <path id="Path_40294" data-name="Path 40294" d="M5439.917,5059.135a2.873,2.873,0,1,0,2.912-2.669A2.8,2.8,0,0,0,5439.917,5059.135Z" fill="#19594d"/>
                  <path id="Path_40295" data-name="Path 40295" d="M5441.937,5058.564a.751.751,0,0,0-.006,1.012c.36.411-.25,1-.611.591a1.586,1.586,0,0,1-.11-2.044.44.44,0,0,1,.584-.143.427.427,0,0,1,.143.584Z" fill="#fff"/>
                </g>
                <g id="Group_36514" data-name="Group 36514">
                  <path id="Path_40296" data-name="Path 40296" d="M5444.044,5066.346h0l.03,0c.059.006.117.01.179.018l.067.02c2.6.393,3.809-.227,3.965-.317a6.367,6.367,0,0,0,2.114-2.357c1.3-2.3,2.157-.393,2.2-.2a6.288,6.288,0,0,1-3.9,7.269c-5.049,2.018-7.116.07-7.465-.894C5440.888,5068.943,5440.341,5066,5444.044,5066.346Z" fill="#f38f81"/>
                  <path id="Path_40297" data-name="Path 40297" d="M5441.238,5069.477c.35.963,2.417,2.912,7.466.894a5.99,5.99,0,0,0,4.024-5.575,6.038,6.038,0,0,1-4.031,5.986c-5.049,2.018-7.116.07-7.465-.894a4.132,4.132,0,0,1-.236-1.644A4.345,4.345,0,0,0,5441.238,5069.477Z" fill="#db7f76"/>
                </g>
                <path id="Path_40298" data-name="Path 40298" d="M5472.426,5063.784a6.029,6.029,0,0,1-1.206-2.812c-.1-1.426.684-17.069-7.85-20.827,0,0-6.038-2.359-10.039.511,0,0-6.562-1.992-10.268-1.359s-4.89,2.726-6.916,7.512c-2.135,5.043.138,10.642-1.874,15.136l-.818-3.114-1.224.562.312-1.189-.754-.012.5-2.2-1.006-.016s1.376-10.036,1.784-13.3,9.089-11.255,19.323-11.847,20.017.988,25.332,11.885l-1.415-.358.885,4.54-.946-.686,2.081,4.811-1.688-.541-.919,4.69-1.321,6.454Z" fill="#49230f"/>
                <path id="Path_40299" data-name="Path 40299" d="M5446.078,5033.925s1.152-9.047,8.719-9.008l-1.232.948a16.622,16.622,0,0,1,11.047.014l-2.3.205s6.638.911,8.763,4.33l-1.748-.736a10.73,10.73,0,0,1,4.308,5.934l-1.281-1.27a2.226,2.226,0,0,0-2.14.308c-1.1.788-5.559,4.2-5.559,4.2s-9.636-.153-10.653.556S5446.078,5033.925,5446.078,5033.925Z" fill="#49230f"/>
                <path id="Path_40300" data-name="Path 40300" d="M5441.283,5035.5s-1.22-4.845.619-7.2l.052,1.729s1-4.094,3.575-4.214l-1.22,1.834s1.365-1.993,3.128-2.207a3.387,3.387,0,0,0-1.271,2.926,9.579,9.579,0,0,1,7.819-3.552s-7.6,4.316-6.629,8.6-4.925,3.306-4.925,3.306Z" fill="#49230f"/>
                <path id="Path_40301" data-name="Path 40301" d="M5443.149,5033.878s-5.225-3.023-9.96.85l2.015.032s-1.747.214-3.642,3.408l1.581-.539a7.4,7.4,0,0,0-2.06,2.788l2.03-.935a4.8,4.8,0,0,0-1.63,3.681l1.6-1.667a7.392,7.392,0,0,0-1.163,5.945l1.26-1.9S5438.466,5035.536,5443.149,5033.878Z" fill="#49230f"/>
                <circle id="Ellipse_781" data-name="Ellipse 781" cx="0.367" cy="0.367" r="0.367" transform="translate(5441.839 5073.68)" fill="#d18a5b"/>
                <path id="Path_40302" data-name="Path 40302" d="M5448.067,5033.406a16.569,16.569,0,0,1,12.922-.89,5.942,5.942,0,0,0-2.275.479s4.708,1.042,7.154,4.536c0,0-1.088-.941-1.845-.816,0,0,3.49,1.735,3.616,4.552a3.039,3.039,0,0,0-2-1.624s2.687,3.081,2.675,5.375c0,0-7.106-8.392-14.979-4.362a42.4,42.4,0,0,0-7.337-1.432S5446.468,5034.128,5448.067,5033.406Z" fill="#562917"/>
                <path id="Path_40303" data-name="Path 40303" d="M5452.639,5037.76a3.1,3.1,0,0,1,3.6-1.535l-1.172.749s3.606-.962,6.818,2.609l-2.581-.362s3.325,1.044,3.278,3.977a3.833,3.833,0,0,0-2.354-1.533,3.56,3.56,0,0,1-.051,3.224s-.026-2.149-1.6-2.844c0,0,.267,2.854-1,4.259,0,0,1.037-4.522-4.24-5.648C5453.331,5040.656,5451.913,5038.671,5452.639,5037.76Z" fill="#49230f"/>
                <path id="Path_40304" data-name="Path 40304" d="M5435.452,5049.137s16.749-14.453,41.918-.76c0,0,13.957-1.414,15.019-6.386s-10.655-24.042-40.485-21.411S5415.563,5054.063,5435.452,5049.137Z" fill="#9a2c31"/>
                <path id="Path_40305" data-name="Path 40305" d="M5481.733,5047.689c-16.57-21.335-40.81-6.636-47.266-4.225a9.331,9.331,0,0,1-10.346-2.17c-.653,5.738,3.047,9.9,11.331,7.843,0,0,16.749-14.453,41.918-.76l4.358-.688Z" fill="#76222e"/>
                <path id="Path_40306" data-name="Path 40306" d="M5469.651,5035.114s13.881-20.193,44.177-19.652l-8.019,2.437s6.872.316,6.444.381-9.811.74-12.734,1.456l9.5,2.391s-19.866,3.084-23.021,3.28l5.672,1.45s-17.366,8.81-20.027,9.368Z" fill="#0e0503"/>
                <g id="Group_36515" data-name="Group 36515">
                  <circle id="Ellipse_782" data-name="Ellipse 782" cx="4.126" cy="4.126" r="4.126" transform="translate(5466.782 5031.372)" fill="#f9d974"/>
                  <path id="Path_40307" data-name="Path 40307" d="M5472.965,5038.453a4.113,4.113,0,0,1-2.723-7.026,4.124,4.124,0,1,0,3.579,6.975A4.21,4.21,0,0,1,5472.965,5038.453Z" fill="#f4c94e"/>
                </g>
                <g id="Group_36517" data-name="Group 36517">
                  <g id="Group_36516" data-name="Group 36516" opacity="0.43">
                    <path id="Path_40308" data-name="Path 40308" d="M5452.312,5081.368a3.686,3.686,0,0,1-3.576-.212A2.51,2.51,0,0,0,5452.312,5081.368Z" fill="#ee8460"/>
                    <path id="Path_40309" data-name="Path 40309" d="M5446.215,5078.085s-.547.1-.352.537C5445.863,5078.622,5445.29,5078.069,5446.215,5078.085Z" fill="#ee8460"/>
                  </g>
                  <path id="Path_40310" data-name="Path 40310" d="M5457.075,5078.44s1.019-2.435-.911-1.821C5456.164,5076.619,5457.52,5076.539,5457.075,5078.44Z" fill="#3a3939"/>
                  <path id="Path_40311" data-name="Path 40311" d="M5457.25,5077.1s-5.649,5.939-11.052,1.4c0,0,3.616,3.391,10.579-1.655Z" fill="#3a3939"/>
                </g>
                <path id="Path_40312" data-name="Path 40312" d="M5458.227,5053.949s4.688-.252,6.614,2.475c0,0-.112-3.585-2.661-4.2s-3.7-.669-4.177.031S5458.227,5053.949,5458.227,5053.949Z" fill="#49230f"/>
                <path id="Path_40313" data-name="Path 40313" d="M5444.614,5053.949s-4.688-.252-6.615,2.475c0,0,.112-3.585,2.661-4.2s3.695-.669,4.177.031S5444.614,5053.949,5444.614,5053.949Z" fill="#49230f"/>
              </g>
              <path id="Path_40314" data-name="Path 40314" d="M5423.551,5159.768s37.17,8.189,53.835,2.812a9.772,9.772,0,0,1-.392,8.571s-25.932,4.2-53.594-1.847C5423.4,5169.3,5420.106,5165.192,5423.551,5159.768Z" fill="#602e3f"/>
            </g>
          </g>
        </g>
        <rect id="Rectangle_4263" data-name="Rectangle 4263" width="176" height="176" transform="translate(5365.306 5012.317)" fill="none"/>
      </g>
      <path id="Path_40316" data-name="Path 40316" d="M5417.291,5153.829l7.08,2-2.169,5.153-4.489-2.25Z" fill="#f7af80"/>
      <path id="Path_40317" data-name="Path 40317" d="M5425.69,5156.59l-.39-.56a.791.791,0,0,1,.2-1.1l4.1-3.339a.792.792,0,0,1,1.1.2l.84,1.207a.791.791,0,0,1-.2,1.1l-4.556,2.692A.791.791,0,0,1,5425.69,5156.59Z" fill="#e08d56"/>
      <path id="Path_40318" data-name="Path 40318" d="M5422.347,5108.439l.223-10.485s-34.346,15.125-38.568,37.121,34.941,25.7,34.941,25.7l2.677-7.308s-23-8.322-22.51-15.32,25.987-18.063,25.987-18.063A45.321,45.321,0,0,1,5422.347,5108.439Z" fill="#392e2e"/>
      <path id="Path_40319" data-name="Path 40319" d="M5415.958,5161.163l4.107-8.708,3.361.658-5.08,9.241Z" fill="#301414"/>
      <path id="Path_40320" data-name="Path 40320" d="M5483.673,5154.437l-6.992,1.91,2.142,4.931,4.434-2.154Z" fill="#f7af80"/>
      <path id="Path_40321" data-name="Path 40321" d="M5480.193,5110.761l2.622-9.647s31.081,14.087,35.25,35.136-34.51,24.6-34.51,24.6l-2.643-6.994s22.716-7.963,22.232-14.66-29.435-14.782-29.435-14.782S5479.3,5117.864,5480.193,5110.761Z" fill="#392e2e"/>
      <path id="Path_40322" data-name="Path 40322" d="M5486.5,5161.214l-4.057-8.333-3.319.63,5.017,8.843Z" fill="#301414"/>
      <path id="Path_40323" data-name="Path 40323" d="M5475.327,5156.59l.39-.56a.79.79,0,0,0-.2-1.1l-4.106-3.339a.791.791,0,0,0-1.1.2l-.841,1.207a.791.791,0,0,0,.2,1.1l4.556,2.692A.791.791,0,0,0,5475.327,5156.59Z" fill="#e08d56"/>
      <g id="Group_36528" data-name="Group 36528">
        <path id="Path_40324" data-name="Path 40324" d="M5435.2,5133.734l-1.88-.493a3.049,3.049,0,0,0-2.9,1.167,5.253,5.253,0,0,0-.375,1.722c-.07,1.064-.19,27.045-.19,27.045s-.088,2.064,1.651,2.177,3.267.173,3.267.173Z" fill="#2d2d2d"/>
        <path id="Path_40325" data-name="Path 40325" d="M5431.16,5135.321l-.216,28.019a2.094,2.094,0,0,0,1.955,2.1l35.091,1.546a2.094,2.094,0,0,0,2.233-2.044l.623-28.453a2.1,2.1,0,0,0-2.028-2.139l-35.5-1.112A2.093,2.093,0,0,0,5431.16,5135.321Z" fill="#434444"/>
        <path id="Path_40326" data-name="Path 40326" d="M5432.991,5163.881a.53.53,0,0,1-.483-.531l.216-28.017a.53.53,0,0,1,.547-.529l35.5,1.112h.019a.529.529,0,0,1,.494.54l-.623,28.454a.531.531,0,0,1-.564.517h-.016Z" fill="#0c1319"/>
        <g id="Group_36525" data-name="Group 36525">
          <g id="Group_36524" data-name="Group 36524" clip-path="url(#clip-path-3)">
            <g id="Group_36523" data-name="Group 36523">
              <rect id="Rectangle_4264" data-name="Rectangle 4264" width="27.095" height="19.614" transform="matrix(1, 0.022, -0.022, 1, 5440.764, 5141.552)" fill="#edeef0"/>
              <rect id="Rectangle_4265" data-name="Rectangle 4265" width="1.999" height="27.1" transform="translate(5440.771 5142.146) rotate(-88.7)" fill="#f1e8ff"/>
              <rect id="Rectangle_4266" data-name="Rectangle 4266" width="5.541" height="21.04" transform="translate(5435.29 5139.956) rotate(1.413)" fill="url(#linear-gradient)"/>
              <path id="Path_40327" data-name="Path 40327" d="M5466.824,5161.169l-25.848-.567a.072.072,0,0,1-.07-.073l.409-17.789a.073.073,0,0,1,.074-.07l25.848.567a.073.073,0,0,1,.07.074l-.41,17.788A.072.072,0,0,1,5466.824,5161.169Z" fill="#fff"/>
              <rect id="Rectangle_4267" data-name="Rectangle 4267" width="4.215" height="0.527" rx="0.263" transform="translate(5435.836 5140.684) rotate(1.413)" fill="#fff" opacity="0.39"/>
              <rect id="Rectangle_4268" data-name="Rectangle 4268" width="4.215" height="0.527" rx="0.263" transform="translate(5435.812 5141.703) rotate(1.413)" fill="#fff" opacity="0.39"/>
              <rect id="Rectangle_4269" data-name="Rectangle 4269" width="4.215" height="0.527" rx="0.263" transform="matrix(1, 0.025, -0.025, 1, 5435.786, 5142.722)" fill="#fff" opacity="0.39"/>
              <rect id="Rectangle_4270" data-name="Rectangle 4270" width="2.855" height="0.527" rx="0.263" transform="translate(5437.12 5143.775) rotate(1.413)" fill="#fff" opacity="0.39"/>
              <rect id="Rectangle_4271" data-name="Rectangle 4271" width="2.855" height="0.527" rx="0.263" transform="translate(5437.095 5144.794) rotate(1.413)" fill="#fff" opacity="0.39"/>
              <circle id="Ellipse_783" data-name="Ellipse 783" cx="6.485" cy="6.485" r="6.485" transform="translate(5446.962 5145.598)" fill="#1ec652"/>
              <circle id="Ellipse_784" data-name="Ellipse 784" cx="5.323" cy="5.323" r="5.323" transform="translate(5448.123 5146.76)" fill="#36ea6d"/>
              <path id="Path_40328" data-name="Path 40328" d="M5449.873,5153.158l.617,1.62.86.63,5.964-4.811-1.456-1.84-4.509,5.349-.455-.306v-1.868Z" fill="#1ec652"/>
              <path id="Path_40329" data-name="Path 40329" d="M5449.873,5152.881l.837,1.793.64.457,5.964-4.811-1.456-1.839-4.509,5.349h0l-.455-2.174Z" fill="#fff"/>
            </g>
          </g>
        </g>
        <g id="Group_36526" data-name="Group 36526">
          <circle id="Ellipse_785" data-name="Ellipse 785" cx="0.337" cy="0.337" r="0.337" transform="translate(5469.353 5150.538)" fill="#212121"/>
        </g>
        <g id="Group_36527" data-name="Group 36527">
          <circle id="Ellipse_786" data-name="Ellipse 786" cx="0.456" cy="0.456" r="0.456" transform="translate(5431.43 5149.408)" fill="#212121"/>
          <path id="Path_40330" data-name="Path 40330" d="M5432.342,5149.874a.451.451,0,0,0-.094-.286.429.429,0,0,1,.008.094.456.456,0,0,1-.818.266.456.456,0,0,0,.9-.074Z" fill="#212121"/>
        </g>
        <path id="Path_40331" data-name="Path 40331" d="M5469.083,5145.563l-22.434-10.311-4.8-.153-5.967-.19,33.033,18.271Z" opacity="0.1" fill="url(#linear-gradient-2)"/>
        <path id="Path_40332" data-name="Path 40332" d="M5468.812,5156.921l-36.083-20.716-.121,14.779,24.367,13.953,10.91.5a.774.774,0,0,0,.8-.818Z" opacity="0.1" fill="url(#linear-gradient-3)"/>
      </g>
      <g id="Group_36529" data-name="Group 36529">
        <path id="Path_40333" data-name="Path 40333" d="M5431.487,5166.364c.1.03,1.422.517,1.521.53.957.121,1.391-.633,1.577-1.538l2.943-7.1a1.715,1.715,0,0,0,.138-.89,1.762,1.762,0,0,0-1.391-1.476l-11.019-1.439a1.9,1.9,0,0,0-1.074.186,2.365,2.365,0,0,0-1.372,2.034l-.766,3.714c-.606,2.062.245,2.729,1.2,2.924Z" fill="#f7af80"/>
      </g>
      <g id="Group_36530" data-name="Group 36530">
        <path id="Path_40334" data-name="Path 40334" d="M5470.531,5166.364c-.1.03-1.422.517-1.522.53-.957.121-1.391-.633-1.577-1.538l-2.942-7.1a1.7,1.7,0,0,1-.138-.89,1.76,1.76,0,0,1,1.391-1.476l11.018-1.439a1.9,1.9,0,0,1,1.074.186,2.364,2.364,0,0,1,1.372,2.034l.766,3.714c.607,2.062-.245,2.729-1.2,2.924Z" fill="#f7af80"/>
      </g>
      <path id="Path_40335" data-name="Path 40335" d="M5477.7,5106.232s-4.9,10.087,1.428,16.849C5479.127,5123.081,5475.489,5116.106,5477.7,5106.232Z" fill="#301414"/>
      <path id="Path_40336" data-name="Path 40336" d="M5423.236,5102.354s4.9,10.087-1.429,16.849C5421.807,5119.2,5425.445,5112.228,5423.236,5102.354Z" fill="#301414"/>
    </g>
  </g>
</svg>
