<svg xmlns="http://www.w3.org/2000/svg" xmlns:xlink="http://www.w3.org/1999/xlink" width="176" height="176" viewBox="0 0 176 176">
  <defs>
    <linearGradient id="linear-gradient" y1="0.5" x2="1" y2="0.5" gradientUnits="objectBoundingBox">
      <stop offset="0" stop-color="#4a1ed9"/>
      <stop offset="0.917" stop-color="#5d2af5"/>
      <stop offset="1" stop-color="#602cf8"/>
    </linearGradient>
  </defs>
  <g id="Group_2501" data-name="Group 2501" transform="translate(-6834.93 -428.452)">
    <path id="Path_4977" data-name="Path 4977" d="M6963.934,436.486s-63.645-19.494-90.072,4.66-5.518,59.888-23.9,87.409c-18.814,28.165-9.959,50.222,5.757,63.059s76.075,15.97,110.436-12.631C7009.078,543.254,7034.328,463.253,6963.934,436.486Z" fill="url(#linear-gradient)"/>
    <rect id="Rectangle_1878" data-name="Rectangle 1878" width="176" height="176" transform="translate(6834.93 428.452)" fill="none"/>
    <g id="Group_2500" data-name="Group 2500">
      <g id="Group_2490" data-name="Group 2490">
        <path id="Path_4978" data-name="Path 4978" d="M6851.385,556.787c36.445-32.666,42.228-100.395,42.228-100.395l4.4,5.1,7.05-5.74,5.017,8.565,4.6-3.981,6.493,4.547,7.552-4.147,4.178,6.024,5.445-4.028,3.1,4.737,6.791-5.292,4.356,6.888,4.9-3.684,4.982,7.944,6.232-5.164,3.727,9.8s-5.783,67.729-42.228,100.395l.552-8.089-9.354,10.165-2.422-7.8-10.2,10.213.026-9.642-8.241,4.716-.647-6.485-6.905,8.326-1.371-9.28-7.331,5.8-.6-5.637-6.028,3.741-1.731-5.574-7.393,4.668-1.165-5.6-6.012,4.023-.46-8.2-7.394,4.668.468-6.831-12.405,1.263Z" fill="#f2e3c7"/>
        <path id="Path_4979" data-name="Path 4979" d="M6897.372,470.325s-5.847,47.41-35.02,83.354l70.638,10.781s24.179-23.87,32.8-82.562Z" fill="#f9eede"/>
        <path id="Path_4980" data-name="Path 4980" d="M6899.854,479.192l45.281,8.6-.845,5.151-45.208-7.3Z" fill="#f2e3c7"/>
        <path id="Path_4981" data-name="Path 4981" d="M6897.29,489.085l45.281,8.6-.845,5.151-45.208-7.3Z" fill="#f2e3c7"/>
        <path id="Path_4982" data-name="Path 4982" d="M6892.419,545.781l40.87,8.847-.733,5.145-40.8-7.551Z" fill="#f2e3c7"/>
        <path id="Path_4983" data-name="Path 4983" d="M6894.8,500.255s-7.776,23.119-16.422,35.8l61.06,11.886a109.751,109.751,0,0,0,16.06-37.193Zm42.674,43-54.2-10.88c10.37-17.31,15.091-29.2,15.091-29.2l52.186,10.4C6949.552,526.1,6937.471,543.254,6937.471,543.254Z" fill="#f2e3c7"/>
        <path id="Path_4984" data-name="Path 4984" d="M6893.091,510.275l57.9,11.084-1.573,2.91-57.491-10.81Z" fill="#f2e3c7"/>
        <path id="Path_4985" data-name="Path 4985" d="M6925.255,506.805l-13.473,33.4,3.593.862,12.26-33.542Z" fill="#f2e3c7"/>
        <path id="Path_4986" data-name="Path 4986" d="M6918.5,528.555l26.065,4.7-1.152,3.467-25.995-4.709Z" fill="#f2e3c7"/>
      </g>
      <path id="Path_4987" data-name="Path 4987" d="M6932.635,458.029a.669.669,0,0,1-.9-.489l-.544-2.656-2.5-1.057a.668.668,0,0,1-.069-1.2l2.358-1.338.234-2.7a.668.668,0,0,1,1.117-.436l2,1.829,2.642-.612a.668.668,0,0,1,.759.927l-1.121,2.469,1.4,2.323a.668.668,0,0,1-.647,1.009l-2.7-.3-1.777,2.047A.673.673,0,0,1,6932.635,458.029Z" fill="#ffc039"/>
      <path id="Path_4988" data-name="Path 4988" d="M6855.534,475.8a1.289,1.289,0,0,1-1.037-1.678l1.629-4.972-3.174-4.161a1.29,1.29,0,0,1,1.029-2.072l5.232.013,2.976-4.3a1.29,1.29,0,0,1,2.288.338l1.607,4.98,5.012,1.5a1.289,1.289,0,0,1,.386,2.281l-4.241,3.066.122,5.231a1.29,1.29,0,0,1-2.05,1.072l-4.227-3.086-4.935,1.732A1.288,1.288,0,0,1,6855.534,475.8Z" fill="#ffc039"/>
      <path id="Path_4989" data-name="Path 4989" d="M6983.805,489.473a1.107,1.107,0,0,1-.954-1.4l1.207-4.327-2.881-3.448a1.108,1.108,0,0,1,.8-1.817l4.488-.189,2.389-3.8a1.108,1.108,0,0,1,1.976.2l1.568,4.211,4.356,1.1a1.108,1.108,0,0,1,.419,1.942l-3.521,2.791.3,4.482a1.107,1.107,0,0,1-1.717,1l-3.743-2.485-4.168,1.673A1.1,1.1,0,0,1,6983.805,489.473Z" fill="#ffc039"/>
      <g id="Group_2491" data-name="Group 2491">
        <path id="Path_4990" data-name="Path 4990" d="M6986.33,497.665a12.952,12.952,0,0,1-10.893,3.131l2.817,4.119s6.229.556,10.344-3.24Z" fill="#423b4f" opacity="0.22"/>
        <path id="Path_4991" data-name="Path 4991" d="M6986.471,496.1a12.951,12.951,0,0,1-10.893,3.13l2.817,4.12s6.229.555,10.344-3.24Z" fill="#e04784"/>
      </g>
      <g id="Group_2492" data-name="Group 2492">
        <path id="Path_4992" data-name="Path 4992" d="M6918.6,443.943a14.418,14.418,0,0,1-9.75,8.008l4.7,2.966s6.611-2.183,9.141-7.878Z" fill="#423b4f" opacity="0.22"/>
        <path id="Path_4993" data-name="Path 4993" d="M6918.046,442.276a14.416,14.416,0,0,1-9.75,8.008l4.7,2.966s6.611-2.183,9.14-7.878Z" fill="#05e666"/>
      </g>
      <g id="Group_2493" data-name="Group 2493">
        <path id="Path_4994" data-name="Path 4994" d="M6932.709,438.152a14.407,14.407,0,0,1-11.082-6.009l-.976,5.464s4.508,5.3,10.732,5.495Z" fill="#423b4f" opacity="0.22"/>
        <path id="Path_4995" data-name="Path 4995" d="M6934.046,437.016a14.406,14.406,0,0,1-11.083-6.009l-.976,5.464s4.508,5.3,10.732,5.495Z" fill="#ef740f"/>
      </g>
      <g id="Group_2494" data-name="Group 2494">
        <path id="Path_4996" data-name="Path 4996" d="M6879.262,486.762a12.579,12.579,0,0,1-9.7,5.213l3.522,3.331s6.029-.753,9.155-5.2Z" fill="#423b4f" opacity="0.22"/>
        <path id="Path_4997" data-name="Path 4997" d="M6879.073,485.242a12.579,12.579,0,0,1-9.7,5.213l3.522,3.331s6.029-.753,9.155-5.2Z" fill="#ef740f"/>
      </g>
      <g id="Group_2495" data-name="Group 2495">
        <path id="Path_4998" data-name="Path 4998" d="M6892.669,472.133a13.111,13.111,0,0,1-8.865,7.282l4.271,2.7s6.012-1.984,8.312-7.163Z" fill="#423b4f" opacity="0.22"/>
        <path id="Path_4999" data-name="Path 4999" d="M6892.169,470.617a13.108,13.108,0,0,1-8.865,7.282l4.272,2.7s6.011-1.984,8.311-7.163Z" fill="#05e666"/>
      </g>
      <g id="Group_2496" data-name="Group 2496">
        <path id="Path_5000" data-name="Path 5000" d="M6884.955,451.787a12.205,12.205,0,0,1-8.709,6.185l3.792,2.783s5.713-1.451,8.187-6.111Z" fill="#423b4f" opacity="0.22"/>
        <path id="Path_5001" data-name="Path 5001" d="M6884.59,450.346a12.2,12.2,0,0,1-8.708,6.186l3.791,2.783s5.713-1.451,8.187-6.111Z" fill="#e04784"/>
      </g>
      <g id="Group_2497" data-name="Group 2497">
        <path id="Path_5002" data-name="Path 5002" d="M6997.31,512.88a12.58,12.58,0,0,1-10.6-2.973l.225,4.842s4.865,3.639,10.2,2.6Z" fill="#423b4f" opacity="0.22"/>
        <path id="Path_5003" data-name="Path 5003" d="M6998.229,511.654a12.583,12.583,0,0,1-10.6-2.973l.226,4.842s4.864,3.639,10.2,2.6Z" fill="#ef740f"/>
      </g>
      <g id="Group_2498" data-name="Group 2498">
        <path id="Path_5004" data-name="Path 5004" d="M6902.006,448.617a12.58,12.58,0,0,1-8.759-6.67l-1.575,4.585s3.181,5.175,8.526,6.179Z" fill="#423b4f" opacity="0.22"/>
        <path id="Path_5005" data-name="Path 5005" d="M6903.311,447.816a12.581,12.581,0,0,1-8.759-6.67l-1.574,4.584s3.181,5.176,8.526,6.18Z" fill="#ef740f"/>
      </g>
      <g id="Group_2499" data-name="Group 2499">
        <path id="Path_5006" data-name="Path 5006" d="M6977.755,512.861a14.416,14.416,0,0,1-9.75,8.008l4.7,2.966s6.611-2.183,9.141-7.878Z" fill="#423b4f" opacity="0.22"/>
        <path id="Path_5007" data-name="Path 5007" d="M6977.206,511.194a14.416,14.416,0,0,1-9.75,8.008l4.7,2.966s6.611-2.182,9.14-7.878Z" fill="#05e666"/>
      </g>
    </g>
  </g>
</svg>
