<svg xmlns="http://www.w3.org/2000/svg" width="176" height="176" viewBox="0 0 176 176">
  <g id="Group_35438" data-name="Group 35438" transform="translate(-6204.469 -400.457)">
    <rect id="Rectangle_1876" data-name="Rectangle 1876" width="176" height="176" transform="translate(6204.469 400.457)" fill="none"/>
    <g id="Group_35441" data-name="Group 35441" transform="translate(6072.705 392.518)">
      <path id="Path_39772" data-name="Path 39772" d="M198.007,240.01s-22.346-11.049-33.94,6.221,4.243,32.886.634,44.584-18.313,11.776-12.9,32.68c7.341,28.357,80.734,22.849,117.4,4.451s19.717-39.322,10.763-46.216c-9.372-7.215,4.37-21.772-13.634-33.546C251.215,238.3,225.151,251.486,198.007,240.01Z" transform="translate(0 -177.371)" fill="#6d31ff"/>
      <path id="Path_39773" data-name="Path 39773" d="M644.063,614.014c1.771,2.592,5.709.021,6.539-3.026-3.054,1.453-4.786-.615-4.876-1.837" transform="translate(-388.087 -470.433)" fill="#191919"/>
      <path id="Path_39774" data-name="Path 39774" d="M588.856,594.8c5.348,3.819,8.59-.4,8.59-.4-.648-2.85,3.34-8.307,4.4-5.839s-.112,10.457-6.216,12.221-8.112-1.415-8.112-1.415" transform="translate(-343.614 -453.742)" fill="#1c1c1c"/>
      <path id="Path_39775" data-name="Path 39775" d="M667.975,598.177s-3.663-1.851-6.15.47C661.825,598.647,664.33,593.8,667.975,598.177Z" transform="translate(-402.057 -460.362)" fill="#f7941d"/>
      <path id="Path_39776" data-name="Path 39776" d="M671.019,588.626s-2.748-1.812-4.943-.192C666.076,588.434,668.518,584.8,671.019,588.626Z" transform="translate(-405.4 -452.913)" fill="#f7941d"/>
      <path id="Path_39777" data-name="Path 39777" d="M662.451,636.5s3.391.626,4.847-1.833C667.3,634.669,666.425,639.17,662.451,636.5Z" transform="translate(-402.549 -490.502)" fill="#f7941d"/>
      <path id="Path_39778" data-name="Path 39778" d="M665.91,647.125s2.644.811,4.031-1.014C669.94,646.111,668.831,649.617,665.91,647.125Z" transform="translate(-405.269 -499.501)" fill="#f7941d"/>
      <path id="Path_39779" data-name="Path 39779" d="M251.274,422.562l-.534,1.05s-1.7,7.552-30.511,20.82c0,0-4.214,1.838-3.981,4.555s12.784,7.015,30.61-2.593c0,0,12.779-9.4,10.17-17.52S251.274,422.562,251.274,422.562Z" transform="translate(-51.61 -323.548)" fill="#262626"/>
      <path id="Path_39780" data-name="Path 39780" d="M268.852,428.873c-2.608-8.125-5.753-6.311-5.753-6.311l-.534,1.05s-.255,1.125-2.219,3.267c1.6,7.69-9.15,16.985-9.15,16.985-7.772,5.016-14.674,7.051-19.923,7.528,4.84,1.636,14.806,1.8,27.409-5C258.682,446.393,271.46,437,268.852,428.873Z" transform="translate(-63.435 -323.548)" fill="#191919"/>
      <path id="Path_39781" data-name="Path 39781" d="M339.293,413.856s-3.408,5.166-11.141,10.468c0,0,2.388,8.873,9.271,12.969,0,0,10.607-14.728,10.071-22.02S339.828,412.807,339.293,413.856Z" transform="translate(-139.629 -314.842)" fill="#e5c129"/>
      <path id="Path_39782" data-name="Path 39782" d="M370.391,399.382a143.325,143.325,0,0,0-3.272,60.876s2.316,4.3,8.968,3.733,6.143-4.1,6.143-4.1,5.387-3.333,14.732-.6a10.507,10.507,0,0,0,8.2,3.3c5.474-.105,7.593-2.338,8.324-6.077,0,0,7.931-3.52,3.263-18.018,0,0-2.5-18.618-1.422-32.433,0,0,.791-4.05-4.942-6.213S387.923,390.079,370.391,399.382Z" transform="translate(-168.822 -301.902)" fill="#f9d641"/>
      <path id="Path_39783" data-name="Path 39783" d="M392.659,409.037s-3.679,15.043,10.172,16.988c15.868,2.229,22.828-9.181,24.186-18.883Z" transform="translate(-190.014 -311.556)" fill="#262626"/>
      <path id="Path_39784" data-name="Path 39784" d="M392.659,409.037s-3.679,15.043,10.172,16.988c15.868,2.229,22.828-9.181,24.186-18.883Z" transform="translate(-190.014 -311.556)" fill="#262626"/>
      <path id="Path_39785" data-name="Path 39785" d="M428.26,452.289c.284-1.7-1.562-4.331-1.562-4.331a6.959,6.959,0,0,1-1.349,3.489,6.13,6.13,0,0,1-1.272-2,3.811,3.811,0,0,0-.432,2,5.728,5.728,0,0,1-1.42-3.063,18.035,18.035,0,0,0-1.136,3.063,6.39,6.39,0,0,1-1.5-2.85,8.451,8.451,0,0,0-1.143,2.85,11.786,11.786,0,0,1-1.193-4.3,10.162,10.162,0,0,0-1.621,3.932,22.363,22.363,0,0,1-1.29-5.254,15.1,15.1,0,0,0-2.769,5.112,13.128,13.128,0,0,1-1.278-3.2,10.82,10.82,0,0,0-1.559,5.575,12.447,12.447,0,0,0,7.087,3.131c6.046.849,10.8-.283,14.441-2.545a5.456,5.456,0,0,0-.806-4.1A8.7,8.7,0,0,1,428.26,452.289Z" transform="translate(-203.007 -341.982)" fill="#383838"/>
      <path id="Path_39786" data-name="Path 39786" d="M425.16,467.155a14.4,14.4,0,0,0-.907,2.445,5.1,5.1,0,0,1-1.2-2.275,6.747,6.747,0,0,0-.912,2.275,9.41,9.41,0,0,1-.952-3.429,8.111,8.111,0,0,0-1.294,3.138,17.857,17.857,0,0,1-1.03-4.194,12.052,12.052,0,0,0-2.21,4.08,10.478,10.478,0,0,1-1.02-2.55,7.318,7.318,0,0,0-1.081,2.85,13.4,13.4,0,0,0,5.845,2.125,22.73,22.73,0,0,0,11.251-.979,4.245,4.245,0,0,0-.719-2.352,6.944,6.944,0,0,1-.957,1.983c.227-1.36-1.247-3.457-1.247-3.457a5.556,5.556,0,0,1-1.077,2.784,4.9,4.9,0,0,1-1.016-1.595,3.04,3.04,0,0,0-.344,1.595A4.572,4.572,0,0,1,425.16,467.155Z" transform="translate(-207.585 -357.151)" fill="#494949"/>
      <path id="Path_39787" data-name="Path 39787" d="M387.474,670.423c.539,3.113,1.373,22.19.133,24.19s-5.278,2.814-11.72,2.664c-5.139-.12-5.286-1.606-4.727-2.281s3.636-3.827,4.419-4.787a2.021,2.021,0,0,0,.453-1.872,136.1,136.1,0,0,1-4.285-16.865s-1.926-6.982,5.331-7.684S387.154,668.577,387.474,670.423Z" transform="translate(-173.279 -513.355)" fill="#231f20"/>
      <path id="Path_39788" data-name="Path 39788" d="M396.352,670.423c-.32-1.846-3.138-7.338-10.4-6.635a6.766,6.766,0,0,0-3.73,1.355,8.6,8.6,0,0,1,3.692,3.886c1.125,2.952,5.6,21.517,4.762,23.717-.709,1.868-3.564,3.285-8.3,4.334a17.606,17.606,0,0,0,2.383.2c6.441.151,10.479-.664,11.72-2.664S396.891,673.536,396.352,670.423Z" transform="translate(-182.157 -513.355)" fill="#191919"/>
      <path id="Path_39789" data-name="Path 39789" d="M372.972,671.331a26.937,26.937,0,0,0,15.5.01l-1.256-16.781s-3.939-2.939-11.148-2.284a8.38,8.38,0,0,0-5.445,4.418A116.643,116.643,0,0,0,372.972,671.331Z" transform="translate(-173.029 -504.275)" fill="#f9d641"/>
      <path id="Path_39790" data-name="Path 39790" d="M523.714,669.734c.363,3.138.124,22.232-1.227,24.159s-5.428,2.513-11.851,2c-5.124-.408-5.187-1.9-4.591-2.543s3.845-3.616,4.681-4.531a2.021,2.021,0,0,0,.558-1.844,136.143,136.143,0,0,1-3.331-17.079s-1.531-7.079,5.755-7.372S523.5,667.873,523.714,669.734Z" transform="translate(-279.338 -512.402)" fill="#231f20"/>
      <path id="Path_39791" data-name="Path 39791" d="M533.8,669.734c-.215-1.861-2.721-7.5-10.007-7.209a6.56,6.56,0,0,0-4.008,1.305,8.737,8.737,0,0,1,3.7,4.72c.726,3.075,2.708,22.067,1.589,24.138-.786,1.455-2.988,2.409-6.461,2.93a18.647,18.647,0,0,0,2.107.275c6.423.512,10.5-.075,11.851-2S534.166,672.873,533.8,669.734Z" transform="translate(-289.427 -512.402)" fill="#191919"/>
      <path id="Path_39792" data-name="Path 39792" d="M513.211,669.794a26.935,26.935,0,0,0,15.471.881l-.311-16.825s-3.768-3.156-11-2.906c0,0-4.336.76-6.128,4.244C511.241,655.188,511.868,661.941,513.211,669.794Z" transform="translate(-283.625 -503.291)" fill="#f4768e"/>
      <path id="Path_39793" data-name="Path 39793" d="M455.512,448.151s-1.008-7.5-1.469-16.506a5.024,5.024,0,0,1,.815.863s.074-.067.208-.191l-.429-3.685-1.3-17.641-4.951-3.849a9.975,9.975,0,0,0-1.616,1.443c-.689-.265-1.451-.55-2.275-.843a26.7,26.7,0,0,1-2.218,7.162c1.472,8.52,3.137,22.4-.751,26.319-5.731,5.775-26.969,13.349-26.969,13.349s2.249,16.926,2.054,25.169a24.289,24.289,0,0,0,6.413-1.119l-.725-9.68c2.124-.812,6.77-1.943,13.426,0,0,0,.039.048.114.131.319,2.507.76,5.645,1.331,8.984a26.935,26.935,0,0,0,15.471.881l-.238-12.851C453.49,465.5,459.789,461.434,455.512,448.151Z" transform="translate(-207.585 -311.556)" fill="#efca2e"/>
      <path id="Path_39794" data-name="Path 39794" d="M522.558,804.133c.1.077.327-.031.6-.271a7.288,7.288,0,0,0,.888-1.013c.309-.407.568-.769.755-1.042s.3-.475.23-.588-.326-.093-.666.092a3.543,3.543,0,0,0-1.063.973,5.15,5.15,0,0,0-.687,1.2C522.485,803.816,522.454,804.055,522.558,804.133Z" transform="translate(-292.476 -621.437)" fill="#383838"/>
      <path id="Path_39795" data-name="Path 39795" d="M512.617,802.123c.252.075.64-.51,1.137-1.145.249-.321.477-.606.643-.836s.261-.414.2-.529-.289-.123-.6,0a2.523,2.523,0,0,0-.982.79,2.635,2.635,0,0,0-.522,1.136C512.44,801.866,512.5,802.083,512.617,802.123Z" transform="translate(-284.593 -620.16)" fill="#383838"/>
      <path id="Path_39796" data-name="Path 39796" d="M390.723,804.945c.1.077.327-.03.6-.271a7.3,7.3,0,0,0,.888-1.014c.309-.407.568-.769.755-1.042s.3-.475.23-.588-.326-.093-.666.092a3.542,3.542,0,0,0-1.063.973,5.157,5.157,0,0,0-.687,1.2C390.65,804.628,390.619,804.867,390.723,804.945Z" transform="translate(-188.79 -622.075)" fill="#383838"/>
      <path id="Path_39797" data-name="Path 39797" d="M380.782,802.935c.252.075.64-.51,1.137-1.145.249-.321.477-.606.643-.836s.261-.414.2-.528-.289-.123-.6,0a2.52,2.52,0,0,0-.982.79,2.638,2.638,0,0,0-.522,1.136C380.6,802.678,380.661,802.9,380.782,802.935Z" transform="translate(-180.907 -620.799)" fill="#383838"/>
      <path id="Path_39798" data-name="Path 39798" d="M223.971,533.826s-3.052.784-2.76,1.544,3.8-.629,3.949-1.167C225.377,533.411,223.971,533.826,223.971,533.826Z" transform="translate(-55.506 -411.105)" fill="#494949"/>
      <path id="Path_39799" data-name="Path 39799" d="M226.083,543.883s-3.151,0-3.057.81,3.839.336,4.116-.15C227.547,543.83,226.083,543.883,226.083,543.883Z" transform="translate(-56.947 -419.1)" fill="#494949"/>
      <path id="Path_39800" data-name="Path 39800" d="M556.6,432.3s7.285,3.965,11.878,9.656c0,0-7.153,9.952-6.652,12.87s9.382,3.083,16.3-7.941c6.54-10.423,2.134-16.988-17.111-30.867C561.013,416.015,551.77,418.19,556.6,432.3Z" transform="translate(-318.2 -318.534)" fill="#262626"/>
      <path id="Path_39801" data-name="Path 39801" d="M561.312,416.015s-5.032,1.185-5.73,7.473c16.346,7.677,20.487,13.13,16.823,23.456a23.228,23.228,0,0,1-5.841,9.45c3.306-.564,7.9-3.208,11.858-9.512C584.962,436.459,580.556,429.893,561.312,416.015Z" transform="translate(-318.498 -318.534)" fill="#191919"/>
      <path id="Path_39802" data-name="Path 39802" d="M551.183,411.9s-2.786,4.464.546,13.135c0,0,8.807,6.01,9.724,7.474,0,0,8.894-8.028,9.554-12.908l-16.023-12.458A11.8,11.8,0,0,0,551.183,411.9Z" transform="translate(-314.181 -311.556)" fill="#efca2e"/>
      <path id="Path_39803" data-name="Path 39803" d="M593.43,580.445s-2.326,2.125-1.712,2.659,3.062-2.339,2.939-2.885C594.476,579.419,593.43,580.445,593.43,580.445Z" transform="translate(-346.837 -447.438)" fill="#494949"/>
      <path id="Path_39804" data-name="Path 39804" d="M598.69,588.345s-2.781,1.48-2.319,2.15,3.547-1.505,3.564-2.064C599.959,587.611,598.69,588.345,598.69,588.345Z" transform="translate(-350.537 -453.832)" fill="#494949"/>
      <path id="Path_39805" data-name="Path 39805" d="M332.8,200.5s2.859.238,6.434,5.957c0,0,7.324-8.976,6.521-11.518s-8.375-6.593-8.375-6.593S331.684,195.493,332.8,200.5Z" transform="translate(-143.168 -139.475)" fill="#4c4247"/>
      <path id="Path_39806" data-name="Path 39806" d="M321.9,184.637c2.78-.159,5.242,3.733,5.242,3.733s2.542-.636,2.7-2.939c0,0-3.332-8.1-7.266-8.182s-5.364,2.065-7.191,4.091-5.163,2.9-3.813,7.506" transform="translate(-126.344 -130.748)" fill="#1c1c1c"/>
      <g id="Group_35439" data-name="Group 35439" transform="translate(196.34 11.004)">
        <path id="Path_39807" data-name="Path 39807" d="M371.255,53.164s-8.391-17.072-6.1-36.513c0,0,.366-4.878,2.395-5.624s12,16.828,13.56,37.55Z" transform="translate(-364.761 -11.004)" fill="#f9ecb9"/>
        <path id="Path_39808" data-name="Path 39808" d="M380.454,55.244c-.1,3.64.072,15.23,5.324,30.368a.428.428,0,0,0,.511.274l4.349-1.127a.425.425,0,0,0,.313-.487c-.524-2.876-3.994-20.981-9.72-29.259A.426.426,0,0,0,380.454,55.244Z" transform="translate(-377.089 -45.471)" fill="#603913"/>
        <path id="Path_39809" data-name="Path 39809" d="M390.639,84.759a.425.425,0,0,0,.313-.487c-.524-2.876-3.994-20.981-9.72-29.259a.427.427,0,0,0-.776.231,63.7,63.7,0,0,0,.243,7.084c2.455,2.641,7.07,9.348,7.851,22.973Z" transform="translate(-377.09 -45.471)" fill="#3c2415"/>
      </g>
      <g id="Group_35440" data-name="Group 35440" transform="translate(226.681 12.708)">
        <path id="Path_39810" data-name="Path 39810" d="M516.721,61.145s8.391-17.072,6.1-36.513c0,0-.366-4.878-2.395-5.624s-12,16.828-13.561,37.55Z" transform="translate(-506.863 -18.985)" fill="#f9ecb9"/>
        <path id="Path_39811" data-name="Path 39811" d="M529,63.225c.1,3.64-.071,15.23-5.324,30.368a.428.428,0,0,1-.511.274l-4.349-1.127a.425.425,0,0,1-.313-.487c.524-2.876,3.995-20.981,9.721-29.259A.426.426,0,0,1,529,63.225Z" transform="translate(-516.013 -53.452)" fill="#603913"/>
        <path id="Path_39812" data-name="Path 39812" d="M518.816,92.74a.425.425,0,0,1-.313-.487c.524-2.876,3.995-20.981,9.721-29.259a.426.426,0,0,1,.776.231,63.585,63.585,0,0,1-.243,7.084c-2.455,2.641-7.07,9.347-7.85,22.973Z" transform="translate(-516.013 -53.452)" fill="#3c2415"/>
      </g>
      <path id="Path_39813" data-name="Path 39813" d="M563.176,213.847s-2.859.238-6.434,5.957c0,0-7.324-8.976-6.521-11.518s8.375-6.593,8.375-6.593S564.288,208.843,563.176,213.847Z" transform="translate(-314.234 -149.975)" fill="#4c4247"/>
      <path id="Path_39814" data-name="Path 39814" d="M554.1,197.987c-2.78-.159-5.242,3.733-5.242,3.733s-2.542-.636-2.7-2.939c0,0,3.332-8.1,7.266-8.182s5.364,2.065,7.191,4.091,5.163,2.9,3.813,7.506" transform="translate(-311.086 -141.248)" fill="#1c1c1c"/>
      <path id="Path_39815" data-name="Path 39815" d="M381.537,186.9c-15.7-3.059-31.983,3.069-33.193,15.651-.854,8.87,1.653,12.118.275,17.528s-2.449,12.174,7.15,15.482,29.656,3.913,40.854-1.681,3.331-14.7,4.293-21.082S401.069,190.708,381.537,186.9Z" transform="translate(-155.024 -137.729)" fill="#383838"/>
      <path id="Path_39816" data-name="Path 39816" d="M376.987,270.144c-2.245.246-2.056-2.053-2.784-4.81s-4.722-6.5-9.886-3.381-5.8,6.392-4.309,11.531,6.361,3.223,5.976,6.11-2.562,8.793,1.695,12.223c5.832,4.7,18.322,4.7,27.116.711,4.671-2.12.6-10.37,1.893-11.694s9.628-.337,9.5-7.613-5.533-11.117-10.756-9.989-5.825,3.577-5.944,6.65c-.073,1.872-1.631,1.842-2.463,1.457A21.592,21.592,0,0,0,376.987,270.144Z" transform="translate(-164.129 -196.439)" fill="#303030"/>
      <path id="Path_39817" data-name="Path 39817" d="M427.1,345.159c-2.734,4.124,11.621,5.336,12.887,2.077s-4.951-12-5.892-11.8S428.852,341.482,427.1,345.159Z" transform="translate(-217.18 -255.16)"/>
      <path id="Path_39818" data-name="Path 39818" d="M383.146,279.725a5.646,5.646,0,1,1-5.989-5.564A5.784,5.784,0,0,1,383.146,279.725Z" transform="translate(-174.018 -206.96)" fill="#fff"/>
      <path id="Path_39819" data-name="Path 39819" d="M525.72,289.4a5.646,5.646,0,1,1-5.989-5.565A5.785,5.785,0,0,1,525.72,289.4Z" transform="translate(-286.15 -214.567)" fill="#fff"/>
      <path id="Path_39820" data-name="Path 39820" d="M529.649,296.55a4.195,4.195,0,1,1-4.442-3.931A4.194,4.194,0,0,1,529.649,296.55Z" transform="translate(-291.511 -221.479)"/>
      <path id="Path_39821" data-name="Path 39821" d="M385.512,288.6a4.194,4.194,0,1,1-4.149-4.237A4.194,4.194,0,0,1,385.512,288.6Z" transform="translate(-178.145 -214.991)"/>
      <path id="Path_39822" data-name="Path 39822" d="M386.5,243.288c-.053.143-.547.068-1.3.028a7.52,7.52,0,0,0-2.819.39,11.031,11.031,0,0,0-2.574,1.351c-.634.427-1.04.726-1.155.62-.1-.088.111-.562.671-1.177a6.712,6.712,0,0,1,2.718-1.781,5.714,5.714,0,0,1,1.8-.32,5.268,5.268,0,0,1,1.476.189C386.133,242.834,386.545,243.164,386.5,243.288Z" transform="translate(-179.327 -181.989)"/>
      <path id="Path_39823" data-name="Path 39823" d="M535.331,251.454c-.126.088-.451-.182-.96-.562a10.116,10.116,0,0,0-2.108-1.213,12.524,12.524,0,0,0-2.351-.708c-.628-.133-1.043-.21-1.057-.358s.4-.325,1.1-.377a6.01,6.01,0,0,1,2.709.483,5.527,5.527,0,0,1,2.222,1.65,2.838,2.838,0,0,1,.423.73C535.383,251.29,535.39,251.412,535.331,251.454Z" transform="translate(-297.477 -186.568)"/>
      <path id="Path_39824" data-name="Path 39824" d="M384.406,294.667a.729.729,0,0,1-.726-.676,3.043,3.043,0,0,1,1.823-3.151.729.729,0,0,1,.512,1.365,1.572,1.572,0,0,0-.881,1.68.729.729,0,0,1-.674.78Z" transform="translate(-183.292 -220.052)" fill="#fff"/>
      <path id="Path_39825" data-name="Path 39825" d="M529.59,302.428a.729.729,0,0,1-.726-.676,3.043,3.043,0,0,1,1.823-3.151.729.729,0,0,1,.512,1.365,1.573,1.573,0,0,0-.881,1.68.729.729,0,0,1-.674.78Z" transform="translate(-297.477 -226.155)" fill="#fff"/>
      <path id="Path_39826" data-name="Path 39826" d="M351.318,201.439a34.639,34.639,0,0,1,25.79-10.751,39.017,39.017,0,0,1,25.667,10.751s-2.271-15.316-26.027-15.316S351.318,201.439,351.318,201.439Z" transform="translate(-157.848 -137.728)" fill="#f7941d"/>
      <path id="Path_39827" data-name="Path 39827" d="M593.684,229.416c-1.35,4.607-7.42,8.793-8.664,7.97-3.067-2.028,1.118-12.021-1.662-12.18Z" transform="translate(-340.344 -168.466)" fill="#1c1c1c"/>
      <path id="Path_39828" data-name="Path 39828" d="M312.73,216.066c1.35,4.607,7.419,8.793,8.664,7.97,3.067-2.028-1.118-12.021,1.662-12.18Z" transform="translate(-127.499 -157.967)" fill="#1c1c1c"/>
      <path id="Path_39829" data-name="Path 39829" d="M396.54,315.258c-3.758.942-11.586,6.125-11.69,11.058a5.944,5.944,0,0,0,8.539,5.734c3.914-1.88,6.864-11.545,7.793-13.067C400.158,317.005,396.54,315.258,396.54,315.258Z" transform="translate(-184.219 -239.291)" fill="#191919"/>
      <path id="Path_39830" data-name="Path 39830" d="M459.569,321.994c.208,1.633,3.029,6.32,4.118,9.663s4.5,5.046,8.555,3.214,5.72-6.07,2.063-10.116-8.591-6.485-9.909-6.15C463.013,319,459.569,321.994,459.569,321.994Z" transform="translate(-242.986 -241.9)" fill="#191919"/>
      <path id="Path_39831" data-name="Path 39831" d="M438.567,307.25s-.015-1.963,4.2-1.714,5.367,1.527,5.645,2.311-.357,4.749-5.278,4.419A4.63,4.63,0,0,1,438.567,307.25Z" transform="translate(-226.464 -231.628)"/>
      <path id="Path_39832" data-name="Path 39832" d="M449.524,315.753s-.158-1.773-1.669-1.483c-1.04.2-.238,3.235.7,3.551S449.564,316.663,449.524,315.753Z" transform="translate(-233.388 -238.488)" fill="#262626"/>
      <path id="Path_39833" data-name="Path 39833" d="M465.245,316.222s.252-1.763,1.744-1.394c1.028.254.068,3.243-.889,3.509S465.158,317.128,465.245,316.222Z" transform="translate(-247.42 -238.913)" fill="#262626"/>
      <path id="Path_39834" data-name="Path 39834" d="M461.787,307.623s2.242.01,3.1.727c0,0,.048.486-1.342.145S461.572,308.087,461.787,307.623Z" transform="translate(-244.696 -233.286)" fill="#161616"/>
      <path id="Path_39835" data-name="Path 39835" d="M438.076,380.842a1.633,1.633,0,0,0,1.036,1.927c1.384.5,5.852.774,6.684.175s.348-2.006.348-2.006Z" transform="translate(-226.051 -290.871)" fill="#191919"/>
      <path id="Path_39836" data-name="Path 39836" d="M441.2,365.148s-.544-.955.347-3.359A11.3,11.3,0,0,0,443.329,365,3.38,3.38,0,0,1,441.2,365.148Z" transform="translate(-228.412 -275.887)" fill="#fbfbf9"/>
      <path id="Path_39837" data-name="Path 39837" d="M447.944,367.2l-.659,2.027a2,2,0,0,0,2,.182Z" transform="translate(-233.325 -280.145)" fill="#fbfbf9"/>
      <path id="Path_39838" data-name="Path 39838" d="M436.743,373.91a42.581,42.581,0,0,0,7.534.16.907.907,0,0,1,.846.39h0a.909.909,0,0,1-.6,1.413,30.174,30.174,0,0,1-8.009-.1.911.911,0,0,1-.586-1.5l.043-.049A.908.908,0,0,1,436.743,373.91Z" transform="translate(-224.213 -285.416)" fill="#262626"/>
    </g>
  </g>
</svg>
