<svg xmlns="http://www.w3.org/2000/svg" xmlns:xlink="http://www.w3.org/1999/xlink" width="176" height="176" viewBox="0 0 176 176">
  <defs>
    <clipPath id="clip-path">
      <path id="Path_41767" data-name="Path 41767" d="M193.449,45.9H158.857V59.092A57.062,57.062,0,0,0,139.141,45.47V23.747H57.357v51.81h1.531c-2.826,12.521.97,22.378-20.661,42.531C8.865,145.446,15.7,197.569,95.682,197.746s87.951-51.906,87.951-80.871c0-.563-.015-1.141-.036-1.726h9.852Z" fill="none"/>
    </clipPath>
  </defs>
  <g id="Group_37633" data-name="Group 37633" transform="translate(-20.449 -21.747)">
    <rect id="Rectangle_4602" data-name="Rectangle 4602" width="176" height="176" transform="translate(20.449 21.747)" fill="none"/>
    <path id="Path_41699" data-name="Path 41699" d="M122.66,42.207S81.744,38.684,65.921,60.516s1.668,30.215-27.694,57.572S15.7,197.569,95.682,197.746s87.951-51.906,87.951-80.871C183.633,91.029,161.28,42.529,122.66,42.207Z" fill="#6d31ff"/>
    <g id="Group_37477" data-name="Group 37477">
      <g id="Group_37476" data-name="Group 37476">
        <path id="Path_41700" data-name="Path 41700" d="M178.649,107.149c.02-.147.389-2.2.382-2.35-.069-1.424-1.277-1.861-2.642-1.9L165.3,100.438a2.531,2.531,0,0,0-1.33.027,2.6,2.6,0,0,0-1.791,2.4l.73,16.4a2.834,2.834,0,0,0,.547,1.515,3.5,3.5,0,0,0,3.312,1.475l5.6.162c3.155.354,3.907-1.056,3.946-2.495Z" fill="#e0945c"/>
      </g>
      <rect id="Rectangle_4603" data-name="Rectangle 4603" width="26.137" height="41.727" rx="4.566" transform="matrix(0.992, 0.129, -0.129, 0.992, 161.357, 70.97)" fill="#ef185b"/>
      <path id="Path_41701" data-name="Path 41701" d="M182.627,73.729l-16.619-2.156a4.638,4.638,0,0,0-1.6.086l15.953,2.07a4.691,4.691,0,0,1,4.047,5.254l-4.163,32.08a4.674,4.674,0,0,1-3.65,3.96l.667.087a4.691,4.691,0,0,0,5.254-4.047l4.162-32.08A4.69,4.69,0,0,0,182.627,73.729Z" fill="#e21b63"/>
      <path id="Path_41702" data-name="Path 41702" d="M181.011,89.6l-2.638-4.779-6.2,5.537L167.7,83.684l-5.04,2.1,5.692,7.994-6.912,6.175,3.718,3.02,6.086-5.132,4.583,6.436,3.412-3.363-4.2-6.272Z" fill="#a81852" opacity="0.49" style="mix-blend-mode: multiply;isolation: isolate"/>
      <path id="Path_41703" data-name="Path 41703" d="M180.955,88.621l-2.638-4.779-6.2,5.537L167.647,82.7l-5.04,2.1,5.692,7.994-6.912,6.175,3.718,3.02,6.086-5.132,4.583,6.436,3.412-3.363-4.2-6.272Z" fill="#fff"/>
    </g>
    <path id="Path_41704" data-name="Path 41704" d="M167.79,117l-.987.469a1.266,1.266,0,0,1-1.68-.6l-4.187-7.354a1.266,1.266,0,0,1,.6-1.68l2.126-1.008a1.265,1.265,0,0,1,1.68.6l3.047,7.9A1.263,1.263,0,0,1,167.79,117Z" fill="#bc784a"/>
    <g id="Group_37491" data-name="Group 37491">
      <g id="Group_37490" data-name="Group 37490" clip-path="url(#clip-path)">
        <g id="Group_37489" data-name="Group 37489">
          <path id="Path_41705" data-name="Path 41705" d="M153.181,138.009s9.833,10.668,14.018,36.833c0,0,3.288,17.433-5.693,20.343l-6.176-3.015-17.016-50.643Z" fill="#e0945c"/>
          <path id="Path_41706" data-name="Path 41706" d="M136.825,142.964s-2.149,14.348,9.076,38.351c0,0,7.065,16.273,16.131,13.64l3.419-5.962L151.1,137.53Z" fill="#e0945c"/>
          <g id="Group_37478" data-name="Group 37478">
            <circle id="Ellipse_825" data-name="Ellipse 825" cx="4.602" cy="4.602" r="4.602" transform="translate(67.208 61.673)" fill="#e8a071"/>
            <circle id="Ellipse_826" data-name="Ellipse 826" cx="2.7" cy="2.7" r="2.7" transform="translate(69.11 63.575)" fill="#d18a5b"/>
          </g>
          <g id="Group_37479" data-name="Group 37479">
            <circle id="Ellipse_827" data-name="Ellipse 827" cx="4.602" cy="4.602" r="4.602" transform="translate(120.475 63.073)" fill="#e8a071"/>
            <circle id="Ellipse_828" data-name="Ellipse 828" cx="2.7" cy="2.7" r="2.7" transform="translate(122.377 64.975)" fill="#d18a5b"/>
          </g>
          <path id="Path_41707" data-name="Path 41707" d="M100.512,194.3l27.849-18.121s6.811,48.666-28.809,48.666c-33.259,0-15.412-24.949-15.412-24.949Z" fill="#f7af80"/>
          <path id="Path_41708" data-name="Path 41708" d="M88.532,196.675l-20.5-17.464s-8.5,46.668,29.124,46.668c33.258,0,18.291-24.948,18.291-24.948Z" fill="#f7af80"/>
          <path id="Path_41709" data-name="Path 41709" d="M99.794,225.849c-.308-4.645-.5-22.512,14.684-23.68l.082-.008c.3-.022.612-.038.929-.047,11.365-.306,13.384,10.331,13.241,18.632l.008,0s-1.383,51.508-4.217,68.855c0,0-2.123,21.5-10.756,21.494C98.965,311.087,99.314,249.111,99.794,225.849Z" fill="#f7af80"/>
          <path id="Path_41710" data-name="Path 41710" d="M94.828,225.849c.308-4.645.5-22.512-14.684-23.68l-.082-.008c-.3-.022-.613-.038-.929-.047-11.365-.306-13.385,10.331-13.241,18.632l-.008,0S67.266,272.256,70.1,289.6c0,0,2.123,21.5,10.755,21.494C95.657,311.087,95.308,249.111,94.828,225.849Z" fill="#f7af80"/>
          <path id="Path_41711" data-name="Path 41711" d="M130.917,215.925S121.121,374,118.751,401.443H105.089S97.7,250.13,99.794,225.849l-2.144-20.13Z" fill="#385e94"/>
          <path id="Path_41712" data-name="Path 41712" d="M64.922,215.28s5.761,158.279,7.409,185.775l13.658.359S97.23,250.347,95.774,226.02l2.672-20.068Z" fill="#385e94"/>
          <path id="Path_41713" data-name="Path 41713" d="M104.051,214.9l-3.578,24.937a18.934,18.934,0,0,1-4.781,0V213.8Z" fill="#2a4d77"/>
          <path id="Path_41714" data-name="Path 41714" d="M103.227,214.49l-3.344,24.877a12.183,12.183,0,0,1-3.834-.073l.5-26.032Z" fill="#1f66ca" opacity="0.19" style="mix-blend-mode: multiply;isolation: isolate"/>
          <path id="Path_41715" data-name="Path 41715" d="M115.342,218.727V234.8l6.18,7.023,7.962-3.6,1.189-17.044Z" fill="#1f66ca" opacity="0.59" style="mix-blend-mode: multiply;isolation: isolate"/>
          <path id="Path_41716" data-name="Path 41716" d="M80.436,218.727V234.8l-6.18,7.023-8.486-4.191-.664-16.451Z" fill="#1f66ca" opacity="0.59" style="mix-blend-mode: multiply;isolation: isolate"/>
          <path id="Path_41717" data-name="Path 41717" d="M70.221,186.426l-11.015-36.3c-4.251-4.51-6.862-15.217-6.862-15.217s-6.427-11.648,5.966-16.372l20.93-5.02,32.239-.286,28.291,4.5c12.464,4.534,6.218,16.28,6.218,16.28s-5.069,10.941-9.251,15.515l-10.962,36.235s-2.722,14.957-28.685,15.808S72.7,190.862,70.221,186.426Z" fill="#f7af80"/>
          <path id="Path_41718" data-name="Path 41718" d="M114.7,133.26l32.366-4.448s7.866-19.181-43.527-20.614S49.83,121.77,50.2,127.035,114.7,133.26,114.7,133.26Z" fill="#d68a56"/>
          <path id="Path_41719" data-name="Path 41719" d="M88.8,96.032v13.944l19.889.427.281-14.813Z" fill="#eba77c"/>
          <path id="Path_41720" data-name="Path 41720" d="M88.8,103.023s13.325,3.52,20.012.872l.157-8.305L88.8,96.032Z" fill="#cf8d62" opacity="0.8"/>
          <path id="Path_41721" data-name="Path 41721" d="M73.4,45.557s-5.165.225-2.017,5.628Z" fill="#474646"/>
          <path id="Path_41722" data-name="Path 41722" d="M123.982,46.435s5.165.225,2.018,5.628Z" fill="#474646"/>
          <path id="Path_41723" data-name="Path 41723" d="M71.86,78.709l.165-36.141s2.4-17.179,28.909-16.436,25.051,23.909,25.051,23.909l-.133.029L124.1,82.5a11.3,11.3,0,0,1-4.665,10.013l-9.3,7.5c-13.253,10.452-22.887,1.776-22.887,1.776L80,95.92A20.1,20.1,0,0,1,71.86,78.709Z" fill="#e0945c"/>
          <path id="Path_41724" data-name="Path 41724" d="M126.485,47.53s.194,2.057-3.52,2.057-1.351,11.3-1.426,13.807c-.045,1.5-.632,2.562-.938,7.467-.144,2.307,3.636,3.237,4.051,1.395a62.825,62.825,0,0,0,.5-7.754,7.9,7.9,0,0,0,1.419-2.925C127.129,59.6,128.283,48.574,126.485,47.53Z" fill="#2d2c2c"/>
          <path id="Path_41725" data-name="Path 41725" d="M70.894,46.651s-.194,2.057,3.521,2.057,1.351,11.3,1.426,13.808c.045,1.5-.107,2.364.261,7.444.188,2.592-4.212,2.364-4.207,1.125.009-1.972-.073-7.728-.073-7.728A11.044,11.044,0,0,1,70.813,60.7C70.25,58.726,69.1,47.695,70.894,46.651Z" fill="#2d2c2c"/>
          <g id="Group_37481" data-name="Group 37481">
            <path id="Path_41726" data-name="Path 41726" d="M48.017,131.611s-11.112,9.328-18.6,34.746c0,0-5.483,16.871,3.054,20.9l6.509-2.2L62.314,137Z" fill="#e0945c"/>
            <path id="Path_41727" data-name="Path 41727" d="M111.625,107.245s37.231,2.6,38.295,19.856a26.715,26.715,0,0,1-12.343,24.705s-5.8,29.786-5.8,36.843v44.61L96.663,219.342l-34.321,4.965s3.542-28.813,3.542-35.87-7.121-36.631-7.121-36.631A26.575,26.575,0,0,1,45.942,127.1c1.1-17.257,40.293-20.278,40.293-20.278s-1.718,13.581,13.427,12.6C112.893,118.574,111.625,107.245,111.625,107.245Z" fill="#424242"/>
            <path id="Path_41728" data-name="Path 41728" d="M84,106.143s-1.739,14.885,13.935,15.312,15.568-11.124,15.888-14.632h-3.2s1.173,11.644-12.1,11.857c-11.372.183-11.8-12.59-11.8-12.59Z" fill="#1e1e1e"/>
            <path id="Path_41729" data-name="Path 41729" d="M61.534,124.264l-6.063-9.335s-11.293,4.853-16.7,16.341-8.252,27.423-8.252,27.423,10.528,7.114,23.332,4.268l5.691-13.088Z" fill="#424242"/>
            <path id="Path_41730" data-name="Path 41730" d="M49.639,120.654s15.222,11.2,7.728,25.009C57.367,145.663,62.263,133.367,49.639,120.654Z" fill="#2d2d2d"/>
            <path id="Path_41731" data-name="Path 41731" d="M31.286,151.5s11.754,8.656,24.984,7.2l-2.276,6.822s-15.1,3.419-24.754-6.907Z" fill="#2d2d2d"/>
            <path id="Path_41732" data-name="Path 41732" d="M31.587,149.659a23.215,23.215,0,0,0,6.046,2.632l1.21-3.77-6.189-2.276Z" fill="#ef185b"/>
            <path id="Path_41733" data-name="Path 41733" d="M33.792,167.443s30.27-33.472,40.656-47.771l8.314,3.771S53.245,180.52,47.555,185.419s-15.083,1.841-15.083,1.841S30.662,176.832,33.792,167.443Z" fill="#e0945c"/>
            <g id="Group_37480" data-name="Group 37480">
              <path id="Path_41734" data-name="Path 41734" d="M113.4,113.448s2.919,24.908-14.643,25.85" fill="none" stroke="#ff33ad" stroke-linecap="round" stroke-miterlimit="10" stroke-width="0.5"/>
              <path id="Path_41735" data-name="Path 41735" d="M98.936,140.752a4.37,4.37,0,0,1,4.194,4.5h0l-.455,11.459a.558.558,0,0,1-.58.536l-1.824-.072s-.853-.794-.839-1.147l.113-2.844.008-.4a3.923,3.923,0,0,0-2.381-3.608l-.047-.02a4.447,4.447,0,0,1-2.736-4.1c.028-1.744,2.162-4.395,2.162-4.395Z" fill="#16ba94"/>
              <path id="Path_41736" data-name="Path 41736" d="M99.739,139.377l-.092,2.332-.939-.037-.938-.037-.214-.009.13-3.27,1.152.045A.94.94,0,0,1,99.739,139.377Z" fill="#16ba94"/>
              <path id="Path_41737" data-name="Path 41737" d="M100.748,145.156h0l-.477,12.017-2.644-.512a.714.714,0,0,1-.577-.729l.121-3.055a3.932,3.932,0,0,0-2.381-3.8l-.047-.02a4.449,4.449,0,0,1-2.736-4.1,4.37,4.37,0,1,1,8.738.2Z" fill="#19cfa5"/>
              <circle id="Ellipse_829" data-name="Ellipse 829" cx="2.971" cy="2.971" r="2.971" transform="matrix(0.909, -0.416, 0.416, 0.909, 92.443, 143.561)" fill="#ffd940"/>
              <circle id="Ellipse_830" data-name="Ellipse 830" cx="2.653" cy="2.653" r="2.653" transform="matrix(0.996, -0.085, 0.085, 0.996, 93.512, 142.608)" fill="#16ba94"/>
              <rect id="Rectangle_4604" data-name="Rectangle 4604" width="1.797" height="1.97" transform="translate(100.764 149.952) rotate(-87.728)" fill="#10856a"/>
              <path id="Rectangle_4605" data-name="Rectangle 4605" d="M0,0H2.359a.915.915,0,0,1,.915.915V.964a.915.915,0,0,1-.915.915H0a0,0,0,0,1,0,0V0A0,0,0,0,1,0,0Z" transform="translate(96.617 141.589) rotate(-87.728)" fill="#19cfa5"/>
              <path id="Path_41738" data-name="Path 41738" d="M97.666,138.855a.444.444,0,1,0,.425.461A.444.444,0,0,0,97.666,138.855Z" fill="#10856a"/>
            </g>
            <path id="Path_41739" data-name="Path 41739" d="M82.008,117.664s-1.359,20.692,15.64,21.634" fill="none" stroke="#ff33ad" stroke-linecap="round" stroke-miterlimit="10" stroke-width="0.5"/>
          </g>
          <g id="Group_37482" data-name="Group 37482">
            <path id="Path_41740" data-name="Path 41740" d="M104.66,59.714a3.848,3.848,0,1,0,3.844-3.636A3.745,3.745,0,0,0,104.66,59.714Z" fill="#282322"/>
            <path id="Path_41741" data-name="Path 41741" d="M107.354,58.906a1,1,0,0,0,.014,1.355c.49.543-.314,1.351-.806.805a2.125,2.125,0,0,1-.192-2.735.591.591,0,0,1,.78-.2.573.573,0,0,1,.2.779Z" fill="#fff"/>
          </g>
          <g id="Group_37483" data-name="Group 37483">
            <path id="Path_41742" data-name="Path 41742" d="M81.369,59.714a3.848,3.848,0,1,0,3.844-3.636A3.745,3.745,0,0,0,81.369,59.714Z" fill="#282322"/>
            <path id="Path_41743" data-name="Path 41743" d="M84.063,58.906a1,1,0,0,0,.014,1.355c.49.543-.313,1.351-.806.805a2.125,2.125,0,0,1-.191-2.735.589.589,0,0,1,.779-.2.573.573,0,0,1,.2.779Z" fill="#fff"/>
          </g>
          <path id="Path_41744" data-name="Path 41744" d="M139.82,122.729l2.924-6.535s10.714,5.272,14.732,19.748c3.531,12.721,6.93,24.147,6.93,24.147s-10.739,10.435-25.265,8.619l-7.4-18.539S129.526,131.458,139.82,122.729Z" fill="#424242"/>
          <path id="Path_41745" data-name="Path 41745" d="M136.08,165.447s18.486-.4,26.369-10.841l2.449,6.862s-10.683,11.276-26.646,9.282Z" fill="#2d2d2d"/>
          <path id="Path_41746" data-name="Path 41746" d="M104.178,47.051,113.39,45.9l.219,3.622-9.2,1.313Z" fill="#161311"/>
          <path id="Path_41747" data-name="Path 41747" d="M88.767,47.272l-8.751-1.409-.333,3.449,8.736,1.567Z" fill="#161311"/>
          <g id="Group_37485" data-name="Group 37485">
            <path id="Path_41748" data-name="Path 41748" d="M87.57,69.1c-2.137,1.5-5.125,1.4-7.626,1.028-3.446-.519-5.839-2.4-6.676-5.853-.637-3.073-.23-7.041,2.368-9.115,3.2-2.557,11.67-3.98,15.183-.685a.322.322,0,0,0,.126.125,4.793,4.793,0,0,1,.75.968C94.008,59.564,91.006,66.677,87.57,69.1Z" fill="#006838" opacity="0.92" style="mix-blend-mode: multiply;isolation: isolate"/>
            <path id="Path_41749" data-name="Path 41749" d="M84.928,52.093,72.644,63.108l1.208,3.424,15.5-13.317Z" fill="#fff" opacity="0.18"/>
            <path id="Path_41750" data-name="Path 41750" d="M90.41,53.646,74.244,67.062l2.117,2.713L92.6,56.637Z" fill="#fff" opacity="0.18"/>
            <path id="Path_41751" data-name="Path 41751" d="M112.273,69.991c-2.44.29-5.651.263-7.717-1.2-3.589-2.545-6.108-10.2-3.48-14.14,2.968-4.446,12.163-2.17,15.593.469,2.838,2.183,3.047,6.4,2.119,9.613A7.248,7.248,0,0,1,112.273,69.991Z" fill="#006838" opacity="0.92" style="mix-blend-mode: multiply;isolation: isolate"/>
            <path id="Path_41752" data-name="Path 41752" d="M111.124,52.276,100.13,62.135l1.208,3.424,13.745-11.807Z" fill="#fff" opacity="0.18"/>
            <path id="Path_41753" data-name="Path 41753" d="M115.859,54.458,101.726,66.186l2.117,2.713,15.079-12.2Z" fill="#fff" opacity="0.18"/>
            <g id="Group_37484" data-name="Group 37484">
              <path id="Path_41754" data-name="Path 41754" d="M118.695,56.1c-2.54-3.815-9.265-5.089-13.492-4.483-.211.03-.409.072-.607.114a.348.348,0,0,0-.368-.356c-6.379.107-11.332.213-17.711.32a.382.382,0,0,0-.348.219c-3.761-.422-8.181.514-10.834,2.478-3.018,2.233-3.569,6.6-2.85,10.067,1.239,5.124,5.623,6.7,10.488,6.644,4.97-.061,7.958-3.312,9.436-7.917.9-2.8,1.221-6.232-.463-8.544,3.285-.022,5.145-.045,8.43-.068a8.9,8.9,0,0,0-.959,5.424c.394,4.128,2.559,9.458,7.034,10.516,5.292,1.251,11.272.116,13.1-5.537C120.371,62.144,120.37,58.613,118.695,56.1ZM87.57,69.1c-2.137,1.5-5.125,1.4-7.626,1.028-3.446-.519-5.839-2.4-6.676-5.853-.637-3.073-.23-7.041,2.368-9.115,3.2-2.557,11.67-3.98,15.183-.685a.322.322,0,0,0,.126.125,4.793,4.793,0,0,1,.75.968C94.008,59.564,91.006,66.677,87.57,69.1Zm13.205-15.332c-3.657.025-5.888.05-9.545.076a5.859,5.859,0,0,0-1.429-.961,9.182,9.182,0,0,0-1.076-.421c5.271-.089,9.117-.177,14.388-.265a5.865,5.865,0,0,0-2.186,1.6A.374.374,0,0,0,100.775,53.764Zm11.5,16.227c-2.44.29-5.651.263-7.717-1.2-3.589-2.545-6.108-10.2-3.48-14.14,2.968-4.446,12.163-2.17,15.593.469,2.838,2.183,3.047,6.4,2.119,9.613A7.248,7.248,0,0,1,112.273,69.991Z" fill="#f9c941"/>
              <path id="Path_41755" data-name="Path 41755" d="M118.923,58.583l8.292-1.505v1.139l-7.526,1.968Z" fill="#f9c941"/>
              <path id="Path_41756" data-name="Path 41756" d="M72.953,58.015,70.2,56.588l-.019,1.4L73,59.312Z" fill="#f9c941"/>
            </g>
          </g>
          <path id="Path_41757" data-name="Path 41757" d="M119.666,86.019s-1.318-11.594-15.452-8.892c0,0-3.124-3.377-7.964-.226,0,0-6.5-2.588-10.29,1.689,0,0-8.02-2.476-9.256,4.952,0,0-4.71,1.689-2.314,7.655,0,0-4.193,5.965,1.078,9.342a6.229,6.229,0,0,0,4.316,8.361s-.124,8.636,8.5,9.424c0,0,4.905,6.8,14.852.535,0,0,9.758,1.738,12.066-7.616,0,0,7.795-3.95,5.063-10.929C120.265,100.314,125.295,91.422,119.666,86.019ZM97.912,93.336c-5.373-.2-9.849-1.752-8.907-8.356a5.039,5.039,0,0,1,.582-1.748c.544-.758,1.316-1.9,5.725-1.9,6.716,0,10.006.2,11.024,3.459S103.326,93.539,97.912,93.336Z" fill="#2d2c2c"/>
          <path id="Path_41758" data-name="Path 41758" d="M100.171,87.956s-.847-2.616-2.976-2.687a3.49,3.49,0,0,0-3.4,2.245s-.364,1.052-1.042.586c0,0-.589-.38-.054-1.2,0,0,1.426-3.031,4.574-2.859,0,0,3.045-.191,4.22,3.562,0,0,.175.734-.244.943C101.252,88.55,100.469,88.934,100.171,87.956Z" fill="#3a3a3a"/>
          <g id="Group_37486" data-name="Group 37486">
            <path id="Path_41759" data-name="Path 41759" d="M84.914,69.751v0l.046.006c.092.008.181.013.277.024l.1.028c4.022.543,5.871-.443,6.11-.585a9.833,9.833,0,0,0,3.2-3.69c1.946-3.582,3.319-.658,3.389-.361s1.9,8.074-5.841,11.311-10.979.282-11.542-1.2C80.109,73.834,79.192,69.3,84.914,69.751Z" fill="#bc784a"/>
            <path id="Path_41760" data-name="Path 41760" d="M80.662,74.65c.563,1.478,3.8,4.434,11.542,1.2a9.244,9.244,0,0,0,6.073-8.7A9.317,9.317,0,0,1,92.2,76.481c-7.742,3.238-10.979.282-11.542-1.2a6.411,6.411,0,0,1-.4-2.532A6.7,6.7,0,0,0,80.662,74.65Z" fill="#a5683d"/>
          </g>
          <path id="Path_41761" data-name="Path 41761" d="M76.04,116.119l-1.089.072a1.264,1.264,0,0,1-1.341-1.175l-1.186-8.379A1.264,1.264,0,0,1,73.6,105.3l2.348-.155a1.264,1.264,0,0,1,1.341,1.175l-.073,8.461A1.265,1.265,0,0,1,76.04,116.119Z" fill="#bc784a"/>
          <g id="Group_37488" data-name="Group 37488">
            <g id="Group_37487" data-name="Group 37487">
              <path id="Path_41762" data-name="Path 41762" d="M88.909,126.186c.147-.014,2.233-.108,2.375-.148,1.374-.383,1.533-1.658,1.269-3L92.5,111.685a2.519,2.519,0,0,0-.322-1.292,2.6,2.6,0,0,0-2.739-1.215l-15.832,4.343a2.82,2.82,0,0,0-1.357.869,3.494,3.494,0,0,0-.705,3.556l1.082,5.5c.353,3.155,1.894,3.576,3.306,3.3Z" fill="#e0945c"/>
            </g>
          </g>
          <path id="Path_41763" data-name="Path 41763" d="M79.9,115.481l-.319-3.513,20.237-6.3s2.115-.849,2.633.156,1.814,3.148.221,3.96c-1.264.645-19.552,7.724-19.552,7.724Z" fill="#e0945c"/>
          <path id="Path_41764" data-name="Path 41764" d="M162.534,149.878a51.23,51.23,0,0,0-4.7,2.355l1.1,3.091a14,14,0,0,0,4.446-2.821Z" fill="#ef185b"/>
          <path id="Path_41765" data-name="Path 41765" d="M144.493,121.466s-14.385,8.739-9.8,28.414A34.4,34.4,0,0,1,144.493,121.466Z" fill="#2d2d2d"/>
          <path id="Path_41766" data-name="Path 41766" d="M149.98,180.69s15.644-25.536,14.426-64.5a15.376,15.376,0,0,0,10.674,1.776s6.486,62.612-13.048,76.985Z" fill="#e0945c"/>
        </g>
      </g>
    </g>
  </g>
</svg>
