<svg xmlns="http://www.w3.org/2000/svg" width="176" height="176" viewBox="0 0 176 176">
  <g id="Group_37630" data-name="Group 37630" transform="translate(-231.005 -208.014)">
    <path id="Path_41321" data-name="Path 41321" d="M299.863,226.5s-25.732-16.187-41.95,3.32,1.051,40.425-4.784,54.167-23.683,12.006-19.721,38.039c5.374,35.316,95.1,37.775,141.869,20.021S404.1,296.8,394.09,287.321c-10.47-9.92,8.014-25.868-12.362-42.4C364.625,231.054,331.364,243.8,299.863,226.5Z" fill="#6d31ff"/>
    <path id="Path_41322" data-name="Path 41322" d="M304.555,321.26s3.462-4.971,3.106-8.965S290.216,306.7,281.1,309.72c0,0-10.221,3.007-15.777,10.386a9.286,9.286,0,0,0-.731,1.142h0s-2.108,3.234-3.705,13.873a93.406,93.406,0,0,0-.9,11.011,101.843,101.843,0,0,0,10.153,2.854,59.667,59.667,0,0,1,1.712-12.59c.276.249.516.474.7.665,2.275,2.4,5.115,9.676,5.027,12.25-.011.3-.034.692-.066,1.133a184.83,184.83,0,0,0,29.27,2.393V341.588s3.728-2.93,4.083-6.924S304.555,321.26,304.555,321.26Z" fill="#cc0d72"/>
    <path id="Path_41323" data-name="Path 41323" d="M380.783,266.624c3.728-.066,4.194-12.183,3.528-20.372-.565-6.954-.355-20.216,3.507-25.875a13.664,13.664,0,0,0-3.285.932l.046-2.024-3.463,2.068-.866-2.862-4.926,3-1.176-2.974-3.6,2.441-.822-2.8-5.192,2.729-.4-3.062-5.326,2.8.466-2.8-5.925,2.663.466-2.663-4.727,2.463.466-2.463-4.394,2.663.267-1.664-3.662,2.33L340.7,219.09s-3.214,10.552-2.4,19.906c.837,9.589.406,13.425.406,13.425L323.878,265.54Z" fill="#e9f1f2"/>
    <path id="Path_41324" data-name="Path 41324" d="M341.57,227.611h41.143l-.666,1.6H340.9Z" fill="#dae4e5"/>
    <path id="Path_41325" data-name="Path 41325" d="M341.57,230.815h41.143l-.666,1.6H340.9Z" fill="#dae4e5"/>
    <path id="Path_41326" data-name="Path 41326" d="M341.57,234.018h41.143l-.666,1.6H340.9Z" fill="#dae4e5"/>
    <path id="Path_41327" data-name="Path 41327" d="M341.57,237.221h41.143l-.666,1.6H340.9Z" fill="#dae4e5"/>
    <path id="Path_41328" data-name="Path 41328" d="M341.57,240.424h41.143l-.666,1.6H340.9Z" fill="#dae4e5"/>
    <path id="Path_41329" data-name="Path 41329" d="M341.57,243.627h41.143l-.666,1.6H340.9Z" fill="#dae4e5"/>
    <path id="Path_41330" data-name="Path 41330" d="M341.57,246.831h41.143l-.666,1.6H340.9Z" fill="#dae4e5"/>
    <path id="Path_41331" data-name="Path 41331" d="M341.57,250.034h41.143l-.666,1.6H340.9Z" fill="#dae4e5"/>
    <path id="Path_41332" data-name="Path 41332" d="M341.57,253.237h41.143l-.666,1.6H340.9Z" fill="#dae4e5"/>
    <path id="Path_41333" data-name="Path 41333" d="M341.57,256.44h41.143l-.666,1.6H340.9Z" fill="#dae4e5"/>
    <path id="Path_41334" data-name="Path 41334" d="M341.57,260.444h41.143l-.666,1.6H340.9Z" fill="#dae4e5"/>
    <path id="Path_41335" data-name="Path 41335" d="M372.994,250.646s4.194.466,3.994,5.726.067,10.319,3.795,10.252l-18.441.866s2.729-17.509,10.652-16.844" fill="#bed1d3"/>
    <path id="Path_41336" data-name="Path 41336" d="M319.734,336.8s-.133-62.457,0-74.913,6.125-11.245,6.125-11.245h47.135s-5.992-1.21-6.125,11.245,0,74.913,0,74.913Z" fill="#dfe9ea"/>
    <path id="Path_41337" data-name="Path 41337" d="M366.874,263.369s.133,69.664,0,82.119-6.125,11.245-6.125,11.245H313.614s5.992,1.211,6.125-11.245,0-82.119,0-82.119Z" fill="#dfe9ea"/>
    <g id="Group_37393" data-name="Group 37393">
      <path id="Path_41338" data-name="Path 41338" d="M323.3,255.664h41.143l-.666,1.6H322.636Z" fill="#d1dadb"/>
      <path id="Path_41339" data-name="Path 41339" d="M323.3,258.867h41.143l-.666,1.6H322.636Z" fill="#d1dadb"/>
      <path id="Path_41340" data-name="Path 41340" d="M323.3,262.071h41.143l-.666,1.6H322.636Z" fill="#d1dadb"/>
      <path id="Path_41341" data-name="Path 41341" d="M323.3,265.274h41.143l-.666,1.6H322.636Z" fill="#d1dadb"/>
      <path id="Path_41342" data-name="Path 41342" d="M323.3,276.087h41.143l-.666,1.6H322.636Z" fill="#d1dadb"/>
      <path id="Path_41343" data-name="Path 41343" d="M323.3,279.29h41.143l-.666,1.6H322.636Z" fill="#d1dadb"/>
      <path id="Path_41344" data-name="Path 41344" d="M323.3,282.493h41.143l-.666,1.6H322.636Z" fill="#d1dadb"/>
      <path id="Path_41345" data-name="Path 41345" d="M323.3,285.7h41.143l-.666,1.6H322.636Z" fill="#d1dadb"/>
    </g>
    <g id="Group_37394" data-name="Group 37394">
      <path id="Path_41346" data-name="Path 41346" d="M323.3,296.868h41.143l-.666,1.6H322.636Z" fill="#d1dadb"/>
      <path id="Path_41347" data-name="Path 41347" d="M323.3,300.071h41.143l-.666,1.6H322.636Z" fill="#d1dadb"/>
      <path id="Path_41348" data-name="Path 41348" d="M323.3,303.275h41.143l-.666,1.6H322.636Z" fill="#d1dadb"/>
      <path id="Path_41349" data-name="Path 41349" d="M323.3,306.478h41.143l-.666,1.6H322.636Z" fill="#d1dadb"/>
      <path id="Path_41350" data-name="Path 41350" d="M323.3,309.681h41.143l-.666,1.6H322.636Z" fill="#d1dadb"/>
      <path id="Path_41351" data-name="Path 41351" d="M323.3,312.884h41.143l-.666,1.6H322.636Z" fill="#d1dadb"/>
      <path id="Path_41352" data-name="Path 41352" d="M323.3,316.087h41.143l-.666,1.6H322.636Z" fill="#d1dadb"/>
    </g>
    <path id="Path_41353" data-name="Path 41353" d="M275.372,293.11s-9.774,5.507-6.542,11.483,9.654,5.971,14.1,3.067.794-16.142-3.438-17.033S275.372,293.11,275.372,293.11Z" fill="#231510"/>
    <path id="Path_41354" data-name="Path 41354" d="M279.495,290.627c-1.793-.377-2.8.013-3.374.585,2.04,4.358,2.755,10.744-.137,12.716a11.3,11.3,0,0,1-6.281,2.014c3.417,4.592,9.15,4.382,13.23,1.718C287.382,304.755,283.727,291.518,279.495,290.627Z" fill="#331f19"/>
    <path id="Path_41355" data-name="Path 41355" d="M278.635,307.191s8.255-2.723,13.581,2.367C292.216,309.558,283.251,313.315,278.635,307.191Z" fill="#af0b71"/>
    <path id="Path_41356" data-name="Path 41356" d="M279.529,294.941a16.518,16.518,0,0,1,1.543,7.634c-.085,4.66-.77,10.518-.77,10.518s6.687,5.06,10.144,2c0,0-1.171-9.72,2.341-14.38Z" fill="#ddaf90"/>
    <path id="Path_41357" data-name="Path 41357" d="M293.809,300.178a5.744,5.744,0,0,0-1.744,1.677,17.908,17.908,0,0,0-1.759,7.668s-5.727.243-9.376-3.575c0,0,.514-6.2-.569-8.838S293.809,300.178,293.809,300.178Z" fill="#d1a180"/>
    <path id="Path_41358" data-name="Path 41358" d="M271.171,292.944s-.409,4.083,2.729,4.349,5.635-1.242,5.629-2.352a13.548,13.548,0,0,0-1.338-3.715Z" fill="#e50c74"/>
    <path id="Path_41359" data-name="Path 41359" d="M274.836,295.508a2.966,2.966,0,0,1-2.656-2.811l-1.009.246s-.409,4.084,2.729,4.35,5.635-1.242,5.629-2.352a2.483,2.483,0,0,0-.056-.457A7.472,7.472,0,0,1,274.836,295.508Z" fill="#cc0d72"/>
    <path id="Path_41360" data-name="Path 41360" d="M273.688,265.734s-5.215-1.322-7.532,2.925c-4.531,8.306-3.7,14.845.425,21.351s11.791,3.985,13.536,1.51S281.986,266.6,273.688,265.734Z" fill="#231510"/>
    <rect id="Rectangle_4589" data-name="Rectangle 4589" width="176" height="176" transform="translate(231.005 208.014)" fill="none"/>
    <g id="Group_37395" data-name="Group 37395">
      <circle id="Ellipse_806" data-name="Ellipse 806" cx="3.058" cy="3.058" r="3.058" transform="translate(270.841 286.374)" fill="#ddaf90"/>
      <circle id="Ellipse_807" data-name="Ellipse 807" cx="1.794" cy="1.794" r="1.794" transform="translate(272.106 287.638)" fill="#c18b67"/>
    </g>
    <path id="Path_41361" data-name="Path 41361" d="M292.208,261.731s5.863-.663,7.816,7.291-1.509,10.1-1.509,10.1S289.988,267.643,292.208,261.731Z" fill="#231510"/>
    <path id="Path_41362" data-name="Path 41362" d="M287.378,301.043c-2.718-.417-7.491-3.515-11.181-8.122-3.476-4.34-8.309-18.295-3.484-26.054s11.1-8.192,17.084-6.5,7.524,9.439,7.524,9.439a77.146,77.146,0,0,0,2.994,8.082c.974,2.505,4.531,12.808-.42,18.362a8.1,8.1,0,0,1-2.1,3.964C296.255,301.5,292.9,302.708,287.378,301.043Z" fill="#ddaf90"/>
    <g id="Group_37397" data-name="Group 37397">
      <g id="Group_37396" data-name="Group 37396">
        <path id="Path_41363" data-name="Path 41363" d="M293.493,277.671a1.829,1.829,0,1,0,.551-2.584A1.871,1.871,0,0,0,293.493,277.671Z" fill="#2f1b11"/>
        <path id="Path_41364" data-name="Path 41364" d="M293.228,276.7s1.052-1.719,2.549-1.353a2.11,2.11,0,0,0,2.2-.548,4.394,4.394,0,0,1-1.776-.131A2.3,2.3,0,0,0,293.228,276.7Z" fill="#2f1b11"/>
      </g>
      <path id="Path_41365" data-name="Path 41365" d="M295.377,276.1a.512.512,0,0,1,.356.591c-.067.367.5.5.565.134a1.081,1.081,0,0,0-.649-1.237.3.3,0,0,0-.392.12.291.291,0,0,0,.12.392Z" fill="#fff"/>
    </g>
    <g id="Group_37399" data-name="Group 37399">
      <g id="Group_37398" data-name="Group 37398">
        <path id="Path_41366" data-name="Path 41366" d="M284.72,279.738a1.828,1.828,0,1,1-2.025-1.7A1.871,1.871,0,0,1,284.72,279.738Z" fill="#2f1b11"/>
        <path id="Path_41367" data-name="Path 41367" d="M284.329,278.807s-1.887-.708-2.842.5a2.11,2.11,0,0,1-2.074.925,4.392,4.392,0,0,0,1.319-1.2A2.3,2.3,0,0,1,284.329,278.807Z" fill="#2f1b11"/>
      </g>
      <path id="Path_41368" data-name="Path 41368" d="M282.27,279.661a.511.511,0,0,0,.083.685c.278.248-.083.7-.363.453a1.082,1.082,0,0,1-.25-1.374.3.3,0,0,1,.383-.147.292.292,0,0,1,.147.383Z" fill="#fff"/>
    </g>
    <path id="Path_41369" data-name="Path 41369" d="M285.531,287.769a2.538,2.538,0,1,1-2.707-2.356A2.538,2.538,0,0,1,285.531,287.769Z" fill="#f07c80" opacity="0.46" style="mix-blend-mode: multiply;isolation: isolate"/>
    <path id="Path_41370" data-name="Path 41370" d="M294.528,282.9a2.538,2.538,0,1,0,2.356-2.708A2.539,2.539,0,0,0,294.528,282.9Z" fill="#f07c80" opacity="0.46" style="mix-blend-mode: multiply;isolation: isolate"/>
    <g id="Group_37400" data-name="Group 37400">
      <path id="Path_41371" data-name="Path 41371" d="M290.694,289.456s3.379-1.2,4.023-.7,2.793,3.969.62,5.707a3.316,3.316,0,0,1-5.258-2.132C289.777,290.234,290.694,289.456,290.694,289.456Z" fill="#3a3a3a"/>
      <path id="Path_41372" data-name="Path 41372" d="M290.694,289.456s3.379-1.2,4.023-.7a2.943,2.943,0,0,1,.51.607c-.133.312-.3.577-.477.634a19.032,19.032,0,0,1-3.748.589c-.178-.045-.425-.326-.655-.641A1.646,1.646,0,0,1,290.694,289.456Z" fill="#fff"/>
      <path id="Path_41373" data-name="Path 41373" d="M294.646,292.474a2.255,2.255,0,0,1,1.242,1.383,2.519,2.519,0,0,1-.551.608,3.261,3.261,0,0,1-4.891-1.087C291.157,291.971,293.279,291.907,294.646,292.474Z" fill="#e33333"/>
      <path id="Path_41374" data-name="Path 41374" d="M294.646,292.474a2.032,2.032,0,0,1,.7.485c-1.361-.45-3.259-.309-3.924,1.007a3.591,3.591,0,0,0,.822.975,3.636,3.636,0,0,1-1.8-1.563C291.157,291.971,293.279,291.907,294.646,292.474Z" fill="#d11a1a"/>
    </g>
    <path id="Path_41375" data-name="Path 41375" d="M291.922,271.995a6.726,6.726,0,0,1,4.452-.378,3.308,3.308,0,0,0-2.332-1.446,3.946,3.946,0,0,0-2.686.719C291.1,271.149,291.275,272.108,291.922,271.995Z" fill="#231510"/>
    <path id="Path_41376" data-name="Path 41376" d="M281.264,275.2a6.725,6.725,0,0,0-3.741,2.442,3.307,3.307,0,0,1,.948-2.575,3.943,3.943,0,0,1,2.559-1.087C281.388,274.03,281.844,274.892,281.264,275.2Z" fill="#231510"/>
    <path id="Path_41377" data-name="Path 41377" d="M268.389,268.252s1.843-9,8.6-10.847,13.7-2.555,16.076-5.876c0,0,7.489,9.434.513,13.006s-18.384,5.857-18.384,5.857S269.505,270.819,268.389,268.252Z" fill="#231510"/>
    <path id="Path_41378" data-name="Path 41378" d="M274.05,268.967s1.5.227,1.228,3.237-2.679,8.845-1.378,12.351l.9,1.908a2.882,2.882,0,0,1-1.537.881L272.089,285s-6.932-6.72-4.567-11.876S274.05,268.967,274.05,268.967Z" fill="#231510"/>
    <path id="Path_41379" data-name="Path 41379" d="M290.446,264.938s4.167,5.813,8.073,6.147c0,0-1.5-9.37-4.037-9.445S290.446,264.938,290.446,264.938Z" fill="#231510"/>
    <path id="Path_41380" data-name="Path 41380" d="M273.521,282.335s.117,4.473,3.437,5.61c0,0-3.569,1.714-6.117-2.28S273.521,282.335,273.521,282.335Z" fill="#231510"/>
    <path id="Path_41381" data-name="Path 41381" d="M270.142,268.889s2.763,2.44,8.868,2.2,17.482-4.765,17.519-10.8C296.529,260.28,287.213,271.819,270.142,268.889Z" fill="#331f19"/>
    <path id="Path_41382" data-name="Path 41382" d="M295.993,256.859s-11.981,8.737-26.564,8.208l-.664,1.808s15.773,2.59,27.609-8.333C296.374,258.542,296.182,257.5,295.993,256.859Z" fill="#331f19"/>
    <path id="Path_41383" data-name="Path 41383" d="M271.153,261.861s14.1.859,24.195-6.576l-1.25-2.266s-9.5,6.083-20.958,6.538A8.183,8.183,0,0,0,271.153,261.861Z" fill="#331f19"/>
    <path id="Path_41384" data-name="Path 41384" d="M278.635,307.191l.778,7.633a13.078,13.078,0,0,0,11.738,1.421l1.065-6.687S283.561,313.049,278.635,307.191Z" fill="#cc0d72"/>
    <path id="Path_41385" data-name="Path 41385" d="M279.663,314.689s3.457,3.956,10.837,1.86C290.5,316.549,283.224,320.463,279.663,314.689Z" fill="#af0b71"/>
    <path id="Path_41386" data-name="Path 41386" d="M279.789,310.208l.311,3.773S280.943,312.782,279.789,310.208Z" fill="#af0b71"/>
    <path id="Path_41387" data-name="Path 41387" d="M281.493,310.791l.042,3.785S282.461,313.44,281.493,310.791Z" fill="#af0b71"/>
    <path id="Path_41388" data-name="Path 41388" d="M283.175,311.426l-.013,3.786S284.105,314.09,283.175,311.426Z" fill="#af0b71"/>
    <path id="Path_41389" data-name="Path 41389" d="M285.122,311.84l-.072,3.785S286.01,314.518,285.122,311.84Z" fill="#af0b71"/>
    <path id="Path_41390" data-name="Path 41390" d="M286.858,311.987l-.286,3.774S287.593,314.711,286.858,311.987Z" fill="#af0b71"/>
    <path id="Path_41391" data-name="Path 41391" d="M288.857,311.994l-.618,3.735S289.349,314.772,288.857,311.994Z" fill="#af0b71"/>
    <path id="Path_41392" data-name="Path 41392" d="M290.746,311.865l-.618,3.735S291.238,314.643,290.746,311.865Z" fill="#af0b71"/>
    <g id="Group_37401" data-name="Group 37401">
      <path id="Path_41393" data-name="Path 41393" d="M369.724,297.334c.071-.07,1.121-1.009,1.179-1.091.557-.786.107-1.525-.591-2.116l-4.779-5.946a1.689,1.689,0,0,0-.708-.542,1.736,1.736,0,0,0-1.938.53l-6.451,9.033a1.94,1.94,0,0,0-.345,1.035,2.356,2.356,0,0,0,1.119,2.17l2.864,2.428c1.5,1.508,2.485,1.072,3.1.323Z" fill="#ddaf90"/>
    </g>
    <path id="Path_41394" data-name="Path 41394" d="M359.808,295.943l-12.782,11.185,3.861,4.241,11.983-10.533Z" fill="#ddaf90"/>
    <path id="Path_41395" data-name="Path 41395" d="M350.225,301.855s2.2-3.674,3.861-3.408,5.992,5.792,5.992,6.658-2.064,3.888-3.6,3.861S349.626,303.8,350.225,301.855Z" fill="#cc0d72"/>
    <path id="Path_41396" data-name="Path 41396" d="M301.359,313.319l5.6-2.26s12.977,12.342,15.64,12.254,25.808-22.558,27.939-22.647.821,3.174,7.012,7.915c0,0,.267.517-.355,1.627s-26.924,27.207-33.315,27.651c-5.779.4-19.64-11.451-21.415-13.581S298.341,319.048,301.359,313.319Z" fill="#cc0d72"/>
    <path id="Path_41397" data-name="Path 41397" d="M351.656,301.576s1.466,4.74,5.011,6.3C356.667,307.874,352.122,307.768,351.656,301.576Z" fill="#af0b71"/>
    <path id="Path_41398" data-name="Path 41398" d="M266.629,322.347a22.424,22.424,0,0,1,6.325,10.9S273.352,325.3,266.629,322.347Z" fill="#af0b71"/>
    <path id="Path_41399" data-name="Path 41399" d="M287.23,342.711s5.532,1.819,9.954-1.448C297.184,341.263,293.706,346.395,287.23,342.711Z" fill="#af0b71"/>
    <path id="Path_41400" data-name="Path 41400" d="M358.387,297.791l-.564.068a.659.659,0,0,1-.728-.58l-.845-4.371a.664.664,0,0,1,.573-.738l1.214-.147a.659.659,0,0,1,.728.58l.195,4.45A.664.664,0,0,1,358.387,297.791Z" fill="#d18a5b"/>
    <path id="Path_41401" data-name="Path 41401" d="M351.542,335.12s3.43.617,3.586,7.2-.48,14.38,5.507,14.413l-19.6.032v-21.68Z" fill="#bed1d3"/>
    <path id="Path_41402" data-name="Path 41402" d="M343.187,379.4l-2.13-2.4-.932,2.93-3.361-3.063-1.832,2.264-3.046-2.264-2.147,2.264-3.2-2.93-2.663,2.264-2.929-2.53-2.072,2.53-3.92-2.8-2.929,2.13-3.4-2.8-2.1,1.864-2.232-2.384-4.071,1.718c2.708-2.8,1.416-14.054,1.484-25.385.1-15.7,10.189-15.707,10.189-15.707l9.187.006H350.56s-4.226,0-4.226,6.867C346.334,373.373,343.187,379.4,343.187,379.4Z" fill="#e9f1f2"/>
    <g id="Group_37402" data-name="Group 37402">
      <path id="Path_41403" data-name="Path 41403" d="M305.8,343.157h36.124l-.585,1.6H305.217Z" fill="#dae4e5"/>
      <path id="Path_41404" data-name="Path 41404" d="M305.8,346.361h36.124l-.585,1.6H305.217Z" fill="#dae4e5"/>
      <path id="Path_41405" data-name="Path 41405" d="M305.8,349.564h36.124l-.585,1.6H305.217Z" fill="#dae4e5"/>
      <path id="Path_41406" data-name="Path 41406" d="M305.8,352.767h36.124l-.585,1.6H305.217Z" fill="#dae4e5"/>
      <path id="Path_41407" data-name="Path 41407" d="M305.8,355.97h36.124l-.585,1.6H305.217Z" fill="#dae4e5"/>
      <path id="Path_41408" data-name="Path 41408" d="M305.8,359.173h36.124l-.585,1.6H305.217Z" fill="#dae4e5"/>
      <path id="Path_41409" data-name="Path 41409" d="M305.8,362.377h36.124l-.585,1.6H305.217Z" fill="#dae4e5"/>
      <path id="Path_41410" data-name="Path 41410" d="M305.8,365.58h36.124l-.585,1.6H305.217Z" fill="#dae4e5"/>
    </g>
    <rect id="Rectangle_4590" data-name="Rectangle 4590" width="23.777" height="3.728" transform="translate(354.845 321.543)" fill="#ff9815"/>
    <rect id="Rectangle_4591" data-name="Rectangle 4591" width="16.28" height="3.728" transform="translate(354.845 327.545)" fill="#ff9815"/>
    <rect id="Rectangle_4592" data-name="Rectangle 4592" width="9.81" height="3.728" transform="translate(354.845 333.548)" fill="#ff9815"/>
    <g id="Group_37403" data-name="Group 37403">
      <path id="Path_41411" data-name="Path 41411" d="M308.119,309.13l33.012-59.365c2.885-.006,4.811,1.673,4.814,3.26l.116,56.829a2.893,2.893,0,0,1-2.879,2.89l-30.3.062S308.127,313.175,308.119,309.13Z" fill="#353535"/>
      <rect id="Rectangle_4593" data-name="Rectangle 4593" width="36.07" height="61.637" rx="2.885" transform="translate(344.13 311.469) rotate(-179.883)" fill="#474646"/>
      <circle id="Ellipse_808" data-name="Ellipse 808" cx="1.259" cy="1.259" r="1.259" transform="translate(324.836 250.818)" fill="#353535"/>
      <rect id="Rectangle_4594" data-name="Rectangle 4594" width="29.025" height="53.405" transform="translate(340.99 308.335) rotate(-180)" fill="#f4f4f4"/>
      <rect id="Rectangle_4595" data-name="Rectangle 4595" width="24.539" height="49.441" transform="translate(314.267 256.836)" fill="#fff"/>
    </g>
    <g id="Group_37404" data-name="Group 37404">
      <path id="Path_41412" data-name="Path 41412" d="M331.089,263.327a1.2,1.2,0,0,0-1.618.528l-8.951,17.6a1.2,1.2,0,1,0,2.146,1.09l8.951-17.6A1.2,1.2,0,0,0,331.089,263.327Z" fill="#0dba25"/>
      <path id="Path_41413" data-name="Path 41413" d="M324.662,269.125a4.564,4.564,0,1,0-4.564,4.564A4.57,4.57,0,0,0,324.662,269.125Zm-4.564,2.157a2.158,2.158,0,1,1,2.157-2.157A2.159,2.159,0,0,1,320.1,271.282Z" fill="#0dba25"/>
      <path id="Path_41414" data-name="Path 41414" d="M332.093,272.716a4.564,4.564,0,1,0,4.565,4.564A4.57,4.57,0,0,0,332.093,272.716Zm0,6.722a2.158,2.158,0,1,1,2.158-2.158A2.16,2.16,0,0,1,332.093,279.438Z" fill="#0dba25"/>
    </g>
    <rect id="Rectangle_4596" data-name="Rectangle 4596" width="18.844" height="2.955" transform="translate(316.868 288.094)" fill="#e9f1f2"/>
    <rect id="Rectangle_4597" data-name="Rectangle 4597" width="12.903" height="2.955" transform="translate(316.868 292.851)" fill="#e9f1f2"/>
    <rect id="Rectangle_4598" data-name="Rectangle 4598" width="7.775" height="2.955" transform="translate(316.868 297.608)" fill="#e9f1f2"/>
    <g id="Group_37405" data-name="Group 37405">
      <path id="Path_41415" data-name="Path 41415" d="M269.477,243.77a2.755,2.755,0,0,1,.525,1.7,2.824,2.824,0,0,1-.494,1.664,3.15,3.15,0,0,1-1.42,1.091,5.579,5.579,0,0,1-2.15.385,6.4,6.4,0,0,1-1.954-.3,5.028,5.028,0,0,1-1.61-.833,1.063,1.063,0,0,1-.337-.377,1.033,1.033,0,0,1-.1-.47,1.077,1.077,0,0,1,.236-.7.706.706,0,0,1,.565-.29,1.057,1.057,0,0,1,.345.055,2.207,2.207,0,0,1,.392.2,10.456,10.456,0,0,0,1.193.6,3.116,3.116,0,0,0,1.177.2,2.227,2.227,0,0,0,1.4-.353,1.336,1.336,0,0,0,.439-1.106,1.225,1.225,0,0,0-.456-1.067,2.52,2.52,0,0,0-1.46-.33h-.926a.789.789,0,0,1-.642-.283,1.02,1.02,0,0,1-.237-.675,1,1,0,0,1,.237-.659.791.791,0,0,1,.642-.282h.661a2.464,2.464,0,0,0,1.42-.33,1.167,1.167,0,0,0,.462-1.02,1.34,1.34,0,0,0-.392-1.028,1.542,1.542,0,0,0-1.1-.369,2.857,2.857,0,0,0-1.084.2,8.983,8.983,0,0,0-1.161.6,2.227,2.227,0,0,1-.393.2,1.058,1.058,0,0,1-.345.055.707.707,0,0,1-.565-.291,1.073,1.073,0,0,1-.236-.7,1.039,1.039,0,0,1,.1-.478,1.111,1.111,0,0,1,.338-.369,4.872,4.872,0,0,1,1.577-.832,6.069,6.069,0,0,1,1.877-.3,4.884,4.884,0,0,1,1.962.369,2.935,2.935,0,0,1,1.3,1.044,2.741,2.741,0,0,1,.455,1.569,2.675,2.675,0,0,1-.462,1.562,2.592,2.592,0,0,1-1.28.965A2.784,2.784,0,0,1,269.477,243.77Z" fill="#ff9815"/>
      <path id="Path_41416" data-name="Path 41416" d="M274.365,251.238a1.194,1.194,0,0,1-.69.211,1.22,1.22,0,0,1-.82-.311,1,1,0,0,1-.362-.79,1.649,1.649,0,0,1,.061-.421l4.584-14.414a1.165,1.165,0,0,1,1.121-.841,1.25,1.25,0,0,1,.841.31,1,1,0,0,1,.362.791,1.643,1.643,0,0,1-.06.42L274.8,250.608A1.1,1.1,0,0,1,274.365,251.238Z" fill="#ff9815"/>
      <path id="Path_41417" data-name="Path 41417" d="M289.6,247.5q0,.988-1.146.989h-5.369q-1.161,0-1.161-.989,0-.974,1.161-.973h1.46V240.1l-1.381.832a.91.91,0,0,1-.471.141.84.84,0,0,1-.667-.329,1.12,1.12,0,0,1-.275-.738.908.908,0,0,1,.487-.832l2.479-1.491a2.117,2.117,0,0,1,1.1-.329,1.119,1.119,0,0,1,1.178,1.192v7.974h1.46Q289.6,246.525,289.6,247.5Z" fill="#ff9815"/>
      <path id="Path_41418" data-name="Path 41418" d="M291.565,247.169a8.918,8.918,0,0,1,0-8.43,3.957,3.957,0,0,1,6.138,0,8.918,8.918,0,0,1,0,8.43,3.957,3.957,0,0,1-6.138,0Zm4.4-1.319a10.368,10.368,0,0,0,0-5.808,1.429,1.429,0,0,0-2.653.008,10.292,10.292,0,0,0,0,5.8,1.421,1.421,0,0,0,2.653,0Z" fill="#ff9815"/>
      <path id="Path_41419" data-name="Path 41419" d="M300.982,247.169a8.918,8.918,0,0,1,0-8.43,3.957,3.957,0,0,1,6.138,0,8.925,8.925,0,0,1,0,8.43,3.957,3.957,0,0,1-6.138,0Zm4.4-1.319a10.369,10.369,0,0,0,0-5.808,1.429,1.429,0,0,0-2.653.008,10.317,10.317,0,0,0,0,5.8,1.421,1.421,0,0,0,2.653,0Z" fill="#ff9815"/>
    </g>
    <path id="Path_41420" data-name="Path 41420" d="M316.74,220.217s5.272.621,5.582-5.272c0,0,0,5.272,4.652,4.032,0,0-4.031,2.481-1.24,6.513,0,0-4.29-1.861-5.583,2.067,0,0,.362-2.946-1.7-2.429C318.446,225.128,323.356,221.1,316.74,220.217Z" fill="#ff9815"/>
    <path id="Path_41421" data-name="Path 41421" d="M246.295,309.916s4.376,2.579,6.924-2.46c0,0-2.037,4.616,2.515,5.327,0,0-4.488.615-3.6,5.222,0,0-3.037-3.286-5.686-.346,0,0,1.455-2.44-.555-2.786C245.891,314.873,251.748,313.241,246.295,309.916Z" fill="#ff9815"/>
    <path id="Path_41422" data-name="Path 41422" d="M386.289,308.07s4.484-2.387,1.515-7.189c0,0,2.875,4.146,5.857.634,0,0-1.818,4.149,2.575,5.8,0,0-4.388.875-3.263,4.669,0,0-1.321-2.514-2.665-.98C390.308,311,391.971,305.154,386.289,308.07Z" fill="#ff9815"/>
  </g>
</svg>
