<svg xmlns="http://www.w3.org/2000/svg" xmlns:xlink="http://www.w3.org/1999/xlink" width="176" height="176" viewBox="0 0 176 176">
  <defs>
    <clipPath id="clip-path">
      <path id="Path_41515" data-name="Path 41515" d="M129.6,214.163s-21.446-1.845-40.066,5.081v-6.607h-28.9v43.3c-1.365,10.731-1.616,21.022-20.96,39.045-31.272,29.137-24,84.651,61.192,84.839s93.671-55.282,93.671-86.131C194.54,266.161,170.733,214.506,129.6,214.163Z" fill="none"/>
    </clipPath>
  </defs>
  <g id="Group_37631" data-name="Group 37631" transform="translate(-19.864 -208.014)">
    <path id="Path_41512" data-name="Path 41512" d="M129.6,214.163s-43.577-3.752-60.429,19.5,1.777,32.18-29.495,61.317-24,84.651,61.192,84.839,93.671-55.282,93.671-86.131C194.54,266.161,170.733,214.506,129.6,214.163Z" fill="#6d31ff"/>
    <rect id="Rectangle_4600" data-name="Rectangle 4600" width="176" height="176" transform="translate(19.864 208.014)" fill="none"/>
    <g id="Group_37430" data-name="Group 37430">
      <g id="Group_37429" data-name="Group 37429" clip-path="url(#clip-path)">
        <g id="Group_37428" data-name="Group 37428">
          <path id="Path_41513" data-name="Path 41513" d="M70.594,394.347l-2.98-175.035s3.649-2.965,9.529.111l2.413,179.263Z" fill="#683c11"/>
          <path id="Path_41514" data-name="Path 41514" d="M74.271,222.076l2.358,175.193,2.927,1.417L77.143,219.423c-5.88-3.076-9.529-.111-9.529-.111l.025,1.5A10.3,10.3,0,0,1,74.271,222.076Z" fill="#4c2b0e"/>
        </g>
      </g>
    </g>
    <g id="Group_37432" data-name="Group 37432">
      <path id="Path_41516" data-name="Path 41516" d="M103.339,228.3l-57.345-4.247-14.908,8.5,13.731,9.222,62.482,1.738-11.568-6.989Z" fill="#d68032"/>
      <path id="Path_41517" data-name="Path 41517" d="M31.086,232.556l-1.029,3.734,12.72,8.233,2.04-2.745Z" fill="#c6712c"/>
      <path id="Path_41518" data-name="Path 41518" d="M42.777,244.524l64.521-1.008-62.482-1.738Z" fill="#b56326"/>
      <g id="Group_37431" data-name="Group 37431">
        <path id="Path_41519" data-name="Path 41519" d="M44.6,237.088a.654.654,0,0,1-.185-.484v-4.8a.568.568,0,0,1,.626-.626h2.949a.738.738,0,0,1,.48.129.491.491,0,0,1,.154.4.484.484,0,0,1-.154.4.744.744,0,0,1-.48.128H45.737v1.389h2.084a.74.74,0,0,1,.48.129.494.494,0,0,1,.154.4.483.483,0,0,1-.154.394.74.74,0,0,1-.48.129H45.737V236.6a.67.67,0,0,1-.175.489.639.639,0,0,1-.476.179A.652.652,0,0,1,44.6,237.088Z" fill="#b56326"/>
        <path id="Path_41520" data-name="Path 41520" d="M54.4,236.741a.48.48,0,0,1-.193.394.7.7,0,0,1-.45.155.691.691,0,0,1-.317-.078.638.638,0,0,1-.257-.239l-1.132-1.681a1.037,1.037,0,0,0-.309-.321.781.781,0,0,0-.412-.1h-.694V236.6a.667.667,0,0,1-.176.489.637.637,0,0,1-.475.179.62.62,0,0,1-.669-.668v-4.8a.568.568,0,0,1,.626-.626H52.1a2.411,2.411,0,0,1,1.607.467,1.683,1.683,0,0,1,.544,1.351,1.747,1.747,0,0,1-.385,1.157,1.857,1.857,0,0,1-1.089.609,1.131,1.131,0,0,1,.459.2,1.747,1.747,0,0,1,.39.433l.651.978A.65.65,0,0,1,54.4,236.741Zm-1.672-3.082a.906.906,0,0,0,0-1.264,1.376,1.376,0,0,0-.832-.2H50.624v1.663H51.9A1.36,1.36,0,0,0,52.733,233.659Z" fill="#b56326"/>
        <path id="Path_41521" data-name="Path 41521" d="M56.5,236.917a2.57,2.57,0,0,1-1.024-1.081,3.922,3.922,0,0,1,0-3.283,2.552,2.552,0,0,1,1.024-1.076,3.435,3.435,0,0,1,3.129,0,2.554,2.554,0,0,1,1.025,1.076,3.922,3.922,0,0,1,0,3.283,2.572,2.572,0,0,1-1.025,1.081,3.4,3.4,0,0,1-3.129,0Zm2.752-1.188a2.935,2.935,0,0,0,.005-3.064,1.605,1.605,0,0,0-2.38,0,2.965,2.965,0,0,0,.005,3.064,1.586,1.586,0,0,0,2.37,0Z" fill="#b56326"/>
        <path id="Path_41522" data-name="Path 41522" d="M67.106,231.318a.659.659,0,0,1,.176.476v4.81a.669.669,0,0,1-.176.484.6.6,0,0,1-.458.184.622.622,0,0,1-.5-.222l-2.872-3.678V236.6a.69.69,0,0,1-.167.484.576.576,0,0,1-.45.184.59.59,0,0,1-.454-.184.679.679,0,0,1-.172-.484v-4.81a.663.663,0,0,1,.176-.476.6.6,0,0,1,.458-.184.579.579,0,0,1,.489.223l2.872,3.652v-3.215a.669.669,0,0,1,.172-.476.58.58,0,0,1,.446-.184A.6.6,0,0,1,67.106,231.318Z" fill="#b56326"/>
        <path id="Path_41523" data-name="Path 41523" d="M70.064,237.084a.64.64,0,0,1-.184-.48v-4.338H68.491q-.634,0-.635-.549t.635-.54h4.115q.634,0,.635.54t-.635.549H71.217V236.6a.652.652,0,0,1-.179.48.749.749,0,0,1-.974,0Z" fill="#b56326"/>
        <path id="Path_41524" data-name="Path 41524" d="M73.978,237.058a.624.624,0,0,1-.163-.463V231.8a.568.568,0,0,1,.626-.626h3.035q.635,0,.634.514t-.634.523H75.118v1.415H77.3c.424,0,.635.174.635.523s-.211.515-.635.515H75.118v1.517h2.358q.635,0,.634.523t-.634.514H74.441A.624.624,0,0,1,73.978,237.058Z" fill="#b56326"/>
        <path id="Path_41525" data-name="Path 41525" d="M83.983,236.741a.48.48,0,0,1-.193.394.711.711,0,0,1-.767.077.638.638,0,0,1-.257-.239l-1.132-1.681a1.015,1.015,0,0,0-.309-.321.777.777,0,0,0-.411-.1h-.695V236.6a.667.667,0,0,1-.176.489.636.636,0,0,1-.475.179.62.62,0,0,1-.669-.668v-4.8a.568.568,0,0,1,.626-.626h2.152a2.411,2.411,0,0,1,1.607.467,1.684,1.684,0,0,1,.545,1.351,1.747,1.747,0,0,1-.386,1.157,1.854,1.854,0,0,1-1.089.609,1.131,1.131,0,0,1,.459.2,1.748,1.748,0,0,1,.39.433l.651.978A.65.65,0,0,1,83.983,236.741Zm-1.672-3.082a.906.906,0,0,0,0-1.264,1.376,1.376,0,0,0-.832-.2H80.2v1.663h1.277A1.36,1.36,0,0,0,82.311,233.659Z" fill="#b56326"/>
        <path id="Path_41526" data-name="Path 41526" d="M90.524,236.681a.519.519,0,0,1-.192.407.654.654,0,0,1-.442.167.576.576,0,0,1-.308-.089.567.567,0,0,1-.223-.27l-.455-1.012H86l-.455,1.012a.582.582,0,0,1-.218.27.573.573,0,0,1-.313.089.667.667,0,0,1-.446-.167.515.515,0,0,1-.2-.407.684.684,0,0,1,.069-.274l2.314-4.862a.679.679,0,0,1,.283-.313.808.808,0,0,1,.4-.107.8.8,0,0,1,.412.112.751.751,0,0,1,.291.308l2.315,4.862A.681.681,0,0,1,90.524,236.681Zm-4.072-1.809h2l-.994-2.229Z" fill="#b56326"/>
      </g>
    </g>
    <g id="Group_37434" data-name="Group 37434">
      <path id="Path_41527" data-name="Path 41527" d="M51,250.284l50.376-2.55,12.9,7.759-12.23,7.806-54.829.244,10.288-5.892Z" fill="#d68032"/>
      <path id="Path_41528" data-name="Path 41528" d="M114.278,255.492l.826,3.3-11.324,6.959-1.732-2.449Z" fill="#c6712c"/>
      <path id="Path_41529" data-name="Path 41529" d="M103.78,265.747l-56.561-2.205,54.829-.244Z" fill="#b56326"/>
      <g id="Group_37433" data-name="Group 37433">
        <path id="Path_41530" data-name="Path 41530" d="M69.968,259.553a2.919,2.919,0,0,1-1.054-.5.668.668,0,0,1-.2-.223.646.646,0,0,1-.062-.3.64.64,0,0,1,.148-.418.428.428,0,0,1,.336-.18.652.652,0,0,1,.2.033,1.288,1.288,0,0,1,.242.119,3.18,3.18,0,0,0,.826.375,3.361,3.361,0,0,0,.92.118,1.814,1.814,0,0,0,.959-.208.666.666,0,0,0,.333-.6.537.537,0,0,0-.309-.475,3.989,3.989,0,0,0-1.1-.342,6.047,6.047,0,0,1-1.41-.437,1.827,1.827,0,0,1-.769-.636,1.672,1.672,0,0,1-.242-.921,1.793,1.793,0,0,1,.346-1.077,2.292,2.292,0,0,1,.959-.75,3.375,3.375,0,0,1,1.382-.271,3.532,3.532,0,0,1,2.221.674.754.754,0,0,1,.2.233.62.62,0,0,1,.062.289.641.641,0,0,1-.147.418.432.432,0,0,1-.337.181.643.643,0,0,1-.195-.029,1.336,1.336,0,0,1-.252-.124,4.065,4.065,0,0,0-.716-.37,2.4,2.4,0,0,0-.831-.123,1.613,1.613,0,0,0-.911.223.7.7,0,0,0-.333.612.552.552,0,0,0,.128.375,1.07,1.07,0,0,0,.428.262,6.784,6.784,0,0,0,.849.237,4.735,4.735,0,0,1,1.857.731,1.476,1.476,0,0,1,.564,1.225,1.779,1.779,0,0,1-.337,1.072,2.166,2.166,0,0,1-.949.722,3.651,3.651,0,0,1-1.419.256A5.3,5.3,0,0,1,69.968,259.553Z" fill="#b56326"/>
        <path id="Path_41531" data-name="Path 41531" d="M75.831,259a2.852,2.852,0,0,1-.736-2.122v-3.247a.685.685,0,0,1,.73-.731.7.7,0,0,1,.527.2.729.729,0,0,1,.195.532v3.313a1.794,1.794,0,0,0,.366,1.216,1.55,1.55,0,0,0,2.121,0,1.781,1.781,0,0,0,.371-1.211v-3.313a.729.729,0,0,1,.194-.532.707.707,0,0,1,.527-.2.685.685,0,0,1,.731.731v3.247a2.843,2.843,0,0,1-.74,2.117,3.516,3.516,0,0,1-4.286.005Z" fill="#b56326"/>
        <path id="Path_41532" data-name="Path 41532" d="M87.778,259.111a.535.535,0,0,1-.214.437.789.789,0,0,1-.849.085.71.71,0,0,1-.285-.266l-1.253-1.861a1.123,1.123,0,0,0-.342-.355.865.865,0,0,0-.456-.11H83.61v1.918a.744.744,0,0,1-.194.541.7.7,0,0,1-.527.2.687.687,0,0,1-.741-.74v-5.316a.628.628,0,0,1,.693-.693h2.383a2.666,2.666,0,0,1,1.78.517,1.863,1.863,0,0,1,.6,1.5,1.934,1.934,0,0,1-.427,1.282,2.053,2.053,0,0,1-1.206.674,1.247,1.247,0,0,1,.508.223,1.919,1.919,0,0,1,.432.479l.721,1.083A.724.724,0,0,1,87.778,259.111ZM85.927,255.7a1,1,0,0,0,0-1.4,1.525,1.525,0,0,0-.921-.219H83.591v1.842h1.415A1.5,1.5,0,0,0,85.927,255.7Z" fill="#b56326"/>
      </g>
    </g>
    <g id="Group_37435" data-name="Group 37435">
      <path id="Path_41533" data-name="Path 41533" d="M97.072,270.889,49.7,268.759l-14.908,8.5,13.731,9.222,50.483,1.6-9.545-8.966Z" fill="#d68032"/>
      <path id="Path_41534" data-name="Path 41534" d="M34.8,277.258l-1.029,3.734,12.72,8.233,2.04-2.745Z" fill="#c6712c"/>
      <path id="Path_41535" data-name="Path 41535" d="M46.486,289.225l52.522-1.148-50.483-1.6Z" fill="#b56326"/>
    </g>
    <g id="Group_37436" data-name="Group 37436">
      <path id="Path_41536" data-name="Path 41536" d="M50.288,280.969a2.761,2.761,0,0,1-1.114-1.17,4.262,4.262,0,0,1,0-3.558,2.76,2.76,0,0,1,1.114-1.165,3.652,3.652,0,0,1,3.786.26.686.686,0,0,1,.195.223.62.62,0,0,1,.056.278.649.649,0,0,1-.135.413.4.4,0,0,1-.329.171.713.713,0,0,1-.228-.032.846.846,0,0,1-.217-.116,3.128,3.128,0,0,0-.687-.348,2.108,2.108,0,0,0-.678-.107,1.627,1.627,0,0,0-1.341.553,2.564,2.564,0,0,0-.45,1.647q0,2.208,1.791,2.208a1.964,1.964,0,0,0,.65-.106,4.139,4.139,0,0,0,.715-.349,1.284,1.284,0,0,1,.231-.115.637.637,0,0,1,.214-.033.4.4,0,0,1,.329.172.647.647,0,0,1,.135.413.61.61,0,0,1-.06.283.7.7,0,0,1-.191.218,3.658,3.658,0,0,1-3.786.26Z" fill="#b56326"/>
      <path id="Path_41537" data-name="Path 41537" d="M55.438,281.117a.678.678,0,0,1-.176-.5v-5.187a.615.615,0,0,1,.677-.678h3.286q.686,0,.686.557t-.686.566H56.672V277.4h2.367q.687,0,.687.566t-.687.557H56.672v1.642h2.553q.686,0,.686.567t-.686.556H55.939A.677.677,0,0,1,55.438,281.117Z" fill="#b56326"/>
      <path id="Path_41538" data-name="Path 41538" d="M66.254,274.9a.721.721,0,0,1,.19.515v5.206a.728.728,0,0,1-.19.524.653.653,0,0,1-.5.2.67.67,0,0,1-.538-.241l-3.109-3.981v3.5a.745.745,0,0,1-.181.524.621.621,0,0,1-.487.2.638.638,0,0,1-.492-.2.739.739,0,0,1-.185-.524v-5.206a.717.717,0,0,1,.19-.515.656.656,0,0,1,.5-.2.627.627,0,0,1,.528.241l3.109,3.953v-3.48a.727.727,0,0,1,.186-.515.626.626,0,0,1,.482-.2A.656.656,0,0,1,66.254,274.9Z" fill="#b56326"/>
      <path id="Path_41539" data-name="Path 41539" d="M69.456,281.145a.69.69,0,0,1-.2-.52v-4.7h-1.5q-.686,0-.686-.594t.686-.585h4.455q.687,0,.687.585t-.687.594H70.7v4.7a.7.7,0,0,1-.195.52.808.808,0,0,1-1.053,0Z" fill="#b56326"/>
      <path id="Path_41540" data-name="Path 41540" d="M79.018,280.774a.524.524,0,0,1-.208.427.774.774,0,0,1-.831.083.69.69,0,0,1-.278-.26l-1.225-1.818a1.124,1.124,0,0,0-.334-.349.863.863,0,0,0-.446-.106h-.752v1.874a.724.724,0,0,1-.19.529.686.686,0,0,1-.515.2.673.673,0,0,1-.724-.724v-5.2a.615.615,0,0,1,.678-.678h2.329a2.609,2.609,0,0,1,1.74.506,1.82,1.82,0,0,1,.589,1.461,1.891,1.891,0,0,1-.417,1.253,2.009,2.009,0,0,1-1.179.659,1.215,1.215,0,0,1,.5.218,1.875,1.875,0,0,1,.423.469l.7,1.058A.706.706,0,0,1,79.018,280.774Zm-1.81-3.336a.979.979,0,0,0,0-1.369,1.491,1.491,0,0,0-.9-.214H74.926v1.8h1.383A1.468,1.468,0,0,0,77.208,277.438Z" fill="#b56326"/>
      <path id="Path_41541" data-name="Path 41541" d="M81.287,280.964a2.794,2.794,0,0,1-1.109-1.169,4.243,4.243,0,0,1,0-3.554,2.761,2.761,0,0,1,1.109-1.165,3.711,3.711,0,0,1,3.387,0,2.761,2.761,0,0,1,1.109,1.165,4.243,4.243,0,0,1,0,3.554,2.794,2.794,0,0,1-1.109,1.169,3.678,3.678,0,0,1-3.387,0Zm2.979-1.285a3.189,3.189,0,0,0,.005-3.318,1.574,1.574,0,0,0-1.291-.57,1.558,1.558,0,0,0-1.285.57,3.213,3.213,0,0,0,0,3.318,1.552,1.552,0,0,0,1.28.575A1.568,1.568,0,0,0,84.266,279.679Z" fill="#b56326"/>
    </g>
    <g id="Group_37452" data-name="Group 37452">
      <g id="Group_37451" data-name="Group 37451" clip-path="url(#clip-path)">
        <g id="Group_37450" data-name="Group 37450">
          <path id="Path_41542" data-name="Path 41542" d="M158.635,272s-2.8,1.759-8.221,1.759l-2.557-6Z" fill="#564c22"/>
          <path id="Path_41543" data-name="Path 41543" d="M97.134,249.748l-1.156,1.464a21.369,21.369,0,0,0,10.734,5.448l7.869-6.279S105.623,245.368,97.134,249.748Z" fill="#564c22"/>
          <path id="Path_41544" data-name="Path 41544" d="M133.309,246.572l6.649-1.055s15.783,8.95,13.146,21.783,12.988,18.954,7.78,31.407,1.25,13.746,2.916,25.658-11.147,25.332-29.544,21.174S83.844,344.013,85,331.3s15.126-13.629,14.062-23.626-12.031-12.255-4.244-26.754a141.655,141.655,0,0,0,9.226-22.814Z" fill="#662207"/>
          <path id="Path_41545" data-name="Path 41545" d="M145.349,343.894s13.333,34.037,3.7,46.6l8.753.3s5.374-15.2-1.025-36.933l-4.913-13.416Z" fill="#f7af80"/>
          <path id="Path_41546" data-name="Path 41546" d="M138.487,352.064l1.9-.739s1.083-6.146,6.067-17.934c0,0,2.406-6.148,1.048-7.552,0,0-7.76,2.743-10.052,9.181S138.487,352.064,138.487,352.064Z" fill="#1a2309"/>
          <path id="Path_41547" data-name="Path 41547" d="M72.752,359.67C81.684,368.105,107.7,325.1,107.7,325.1s2.9-.654-6.378-3.056c0,0-13.948,18.8-22.725,28.97Z" fill="#eaa27a"/>
          <path id="Path_41548" data-name="Path 41548" d="M119.641,318.782l-3.651-3.212s-10.269,2.271-14.164,4.385-19.4,19.834-19.4,19.834,3.749,5.8,13.314,7.233l7.835-8.82Z" fill="#eadda7"/>
          <path id="Path_41549" data-name="Path 41549" d="M97.385,346.111l-2.506,3.131s-8.9-.9-13.195-8.979l2.653-3.326S87.605,342.555,97.385,346.111Z" fill="#e2d7aa"/>
          <g id="Group_37437" data-name="Group 37437">
            <ellipse id="Ellipse_814" data-name="Ellipse 814" cx="3.828" cy="3.879" rx="3.828" ry="3.879" transform="translate(137.018 275.062)" fill="#f7af80"/>
            <ellipse id="Ellipse_815" data-name="Ellipse 815" cx="2.246" cy="2.275" rx="2.246" ry="2.275" transform="translate(138.6 276.666)" fill="#d18a5b"/>
          </g>
          <g id="Group_37438" data-name="Group 37438">
            <ellipse id="Ellipse_816" data-name="Ellipse 816" cx="3.828" cy="3.879" rx="3.828" ry="3.879" transform="translate(100.243 270.393)" fill="#f7af80"/>
            <ellipse id="Ellipse_817" data-name="Ellipse 817" cx="2.246" cy="2.275" rx="2.246" ry="2.275" transform="translate(101.826 271.996)" fill="#d18a5b"/>
          </g>
          <path id="Path_41550" data-name="Path 41550" d="M114.166,318l11.579.36a22.623,22.623,0,0,1,.84-13.941l-12.8.021S116.4,312.971,114.166,318Z" fill="#f7af80"/>
          <path id="Path_41551" data-name="Path 41551" d="M114.931,310.31c-.379-2.606-1.143-5.869-1.143-5.869l12.8-.021a21.29,21.29,0,0,0-1.534,7.32A11.674,11.674,0,0,1,114.931,310.31Z" fill="#d4966e"/>
          <path id="Path_41552" data-name="Path 41552" d="M93.623,386.88c2.275-5.484,9.634-23.494,23.121-24.334,9.952-.62,19.891,21.117,19.9,21.128,5.977,14.611,18.274,42.494-16.521,44.648l-2.7.169C69.2,430.344,93.623,386.88,93.623,386.88Z" fill="#1b2b3f"/>
          <path id="Path_41553" data-name="Path 41553" d="M131.555,385.965c-3.9,1.608-10,3.74-14.356,3.44-.606-.041-2.474-.1-3.081-.1-6.9.046-20.4-5.952-20.4-5.952s9.546-12.935,6.174-25.211c-17.972-8.941-2.267-29.721,6.187-38.817a10.91,10.91,0,0,0,4.059-1.722c2.431-1.533,10.075.6,14.016.7a25.8,25.8,0,0,1,7.518,1.46l8.281,8.834s2.777,13.26-3.054,26.025,1.333,27.783,1.333,27.783Z" fill="#eadda7"/>
          <ellipse id="Ellipse_818" data-name="Ellipse 818" cx="18.968" cy="18.561" rx="18.968" ry="18.561" transform="translate(105.029 277.643) rotate(-87.136)" fill="#f7af80"/>
          <path id="Path_41554" data-name="Path 41554" d="M129.964,252.341l12.786,10.051s-1.892,10.518-2.006,14.732-.191,23.093-14.159,27.3a18.083,18.083,0,0,0-3.349,2.306c-2.261,1.824-7.244.785-9.823-1.247S129.964,252.341,129.964,252.341Z" fill="#f7af80"/>
          <path id="Path_41555" data-name="Path 41555" d="M121.571,251.386l-15.472,5.9s-.791,10.634-1.875,14.7-6.358,22.177,5.831,30.265a18.211,18.211,0,0,1,2.555,3.183c1.65,2.4,6.717,2.857,9.763,1.661S121.571,251.386,121.571,251.386Z" fill="#f7af80"/>
          <path id="Path_41556" data-name="Path 41556" d="M139.956,328.605s.89,1.349.1,15.312c-.462,8.125-44.834-9.5-44.834-9.5l6.1-12.38a22.343,22.343,0,0,1,13.837-6.144c8.34-.624,17.889,1.949,17.889,1.949S138.666,319.261,139.956,328.605Z" fill="#eadda7"/>
          <path id="Path_41557" data-name="Path 41557" d="M130.22,320.615l4.413-2s10.52,7.228,13.645,10.394,11.563,22.637,11.563,22.637-5.246,4.45-14.81,3.017l-4.979-10.742Z" fill="#eadda7"/>
          <path id="Path_41558" data-name="Path 41558" d="M141.472,341.7s-.392-7.063,4.977-11.556C146.449,330.143,142.08,336.19,141.472,341.7Z" fill="#c9bd8b"/>
          <path id="Path_41559" data-name="Path 41559" d="M143.711,353.3l1.5,3.733s8.772,1.752,15.2-4.724l-1.589-3.961S154.088,352.769,143.711,353.3Z" fill="#e2d7aa"/>
          <path id="Path_41560" data-name="Path 41560" d="M120.186,313.333H115.06l-3.139,6.561s3.65,5.417,7.712,3.728,6.25-6.965,6.25-6.965S126.573,312.752,120.186,313.333Z" fill="#f7af80"/>
          <g id="Group_37440" data-name="Group 37440">
            <g id="Group_37439" data-name="Group 37439">
              <path id="Path_41561" data-name="Path 41561" d="M118.056,296.508a3,3,0,0,1-2.9-.547A2.053,2.053,0,0,0,118.056,296.508Z" fill="#f09d9e"/>
              <path id="Path_41562" data-name="Path 41562" d="M113.408,293.156s-.457.026-.342.409C113.066,293.565,112.654,293.047,113.408,293.156Z" fill="#e49d73"/>
            </g>
            <path id="Path_41563" data-name="Path 41563" d="M122.249,294.577s1.081-1.91-.559-1.6C121.69,292.975,122.807,293.049,122.249,294.577Z" fill="#3a3a3a"/>
            <path id="Path_41564" data-name="Path 41564" d="M122.529,293.486s-5.225,4.333-9.178.011c0,0,2.61,3.184,8.817-.272Z" fill="#3a3a3a"/>
          </g>
          <g id="Group_37442" data-name="Group 37442">
            <g id="Group_37441" data-name="Group 37441">
              <path id="Path_41565" data-name="Path 41565" d="M114.148,272.1a2.988,2.988,0,1,1-2.571-3.51A3.063,3.063,0,0,1,114.148,272.1Z" fill="#2f1b11"/>
              <path id="Path_41566" data-name="Path 41566" d="M114.167,271.475s.011-2.654-2.367-2.955-3.077-.566-3.294-1.248c0,0-.112,1.254.808,1.478a3.485,3.485,0,0,1-2.6-.571,2.765,2.765,0,0,0,2.537,1.791C111.335,270.162,113.182,270.225,114.167,271.475Z" fill="#2f1b11"/>
            </g>
            <path id="Path_41567" data-name="Path 41567" d="M110.287,271.032a.854.854,0,0,0-.129,1.134c.348.506-.4,1.1-.748.589a1.809,1.809,0,0,1,.124-2.307.476.476,0,1,1,.753.584Z" fill="#fff"/>
          </g>
          <g id="Group_37444" data-name="Group 37444">
            <g id="Group_37443" data-name="Group 37443">
              <path id="Path_41568" data-name="Path 41568" d="M125.47,273.535a2.988,2.988,0,1,0,3.346-2.759A3.086,3.086,0,0,0,125.47,273.535Z" fill="#2f1b11"/>
              <path id="Path_41569" data-name="Path 41569" d="M125.6,272.927s.636-2.574,3.013-2.272,3.119.221,3.5-.385c0,0-.2,1.242-1.143,1.23a3.48,3.48,0,0,0,2.661.1,2.744,2.744,0,0,1-2.9,1.1C128.667,272.363,126.862,271.962,125.6,272.927Z" fill="#2f1b11"/>
            </g>
            <path id="Path_41570" data-name="Path 41570" d="M127.979,273.279a.853.853,0,0,0-.129,1.134c.348.505-.4,1.1-.748.589a1.808,1.808,0,0,1,.124-2.307.476.476,0,1,1,.753.584Z" fill="#fff"/>
          </g>
          <path id="Path_41571" data-name="Path 41571" d="M114.964,262.646c-.132-.151-3.706,1.858-7.622.667a5,5,0,0,0,4.822,2.276C115.5,265.236,115.961,263.785,114.964,262.646Z" fill="#662207"/>
          <path id="Path_41572" data-name="Path 41572" d="M128.722,266.924c.057.194,4.135-.083,7.178,2.682a5.076,5.076,0,0,0-3.407-4.139C129.329,264.35,128.3,265.464,128.722,266.924Z" fill="#662207"/>
          <path id="Path_41573" data-name="Path 41573" d="M126.438,284.019a3.849,3.849,0,1,0,4.14-3.578A3.883,3.883,0,0,0,126.438,284.019Z" fill="#f2957a"/>
          <path id="Path_41574" data-name="Path 41574" d="M111.106,282.787a3.849,3.849,0,1,1-3.532-4.194A3.864,3.864,0,0,1,111.106,282.787Z" fill="#f2957a"/>
          <path id="Path_41575" data-name="Path 41575" d="M93.308,308.492l.7.085a.822.822,0,0,0,.909-.725l1.055-5.459a.828.828,0,0,0-.715-.921l-1.516-.183a.822.822,0,0,0-.909.725l-.243,5.557A.83.83,0,0,0,93.308,308.492Z" fill="#d18a5b"/>
          <g id="Group_37445" data-name="Group 37445">
            <path id="Path_41576" data-name="Path 41576" d="M107.286,305.409c.058-.1.941-1.4.982-1.507.39-1.007-.3-1.686-1.221-2.137l-6.816-5.151a1.871,1.871,0,0,0-.917-.4,1.944,1.944,0,0,0-1.961,1.105L92.817,308.9a2.167,2.167,0,0,0-.092,1.219,2.641,2.641,0,0,0,1.809,2.051l3.775,1.854c2.046,1.226,2.992.484,3.461-.5Z" fill="#eaa27a"/>
          </g>
          <path id="Path_41577" data-name="Path 41577" d="M76.015,340.563S91.188,311.639,96.427,306l4.4,1.736s-18.2,58.947-28.073,51.937C72.752,359.67,68.788,356.325,76.015,340.563Z" fill="#eaa27a"/>
          <path id="Path_41578" data-name="Path 41578" d="M125.3,313.333s-2.705,6.561-11.43,8.548l2.251,6.016a20.95,20.95,0,0,0,12.613-10.538Z" fill="#f4e8b3"/>
          <path id="Path_41579" data-name="Path 41579" d="M92.979,384.78l-.508,1.383a1.812,1.812,0,0,0,.429,1.93c1.81,1.741,7,5.4,18.817,5.657,14.735.315,24.159-4.088,27.387-5.894a1.812,1.812,0,0,0,.836-2.109l-.443-1.464a1.786,1.786,0,0,0-1.73-1.279l-43.14.6A1.784,1.784,0,0,0,92.979,384.78Z" fill="#384f1f"/>
          <path id="Path_41580" data-name="Path 41580" d="M110.076,315.57s-3.434,20.637,1.1,26.732c0,0-1.295,46.541-4.854,47.807s-12.959-4.59-12.959-4.59-1.25-.871-.469-3.008,5.433-21.261,5.391-23.271c0,0-8.594-4.353-7.266-13.534s9.2-26.591,10.3-27.345S108.975,315.391,110.076,315.57Z" fill="#445e28"/>
          <path id="Path_41581" data-name="Path 41581" d="M105.136,316.437s-5.157,14.622-4.483,18.93l.859.286s2.705-14.592,4.814-19.216Z" fill="#2f4216"/>
          <path id="Path_41582" data-name="Path 41582" d="M109.373,315.127s-3.541,19.459.417,27.3l1.381-.126.546.176a31.93,31.93,0,0,1-1.927-13.368c.521-7.6,1.146-13.983,1.146-13.983Z" fill="#2f4216"/>
          <path id="Path_41583" data-name="Path 41583" d="M140.382,351.325c-.716,2.648-3.009,6.194-3.365,8.834-1.179,8.763,2.824,17.919,3.365,20.452a4.7,4.7,0,0,1-.7,3.958c-12.031,8.39-30.468,7.6-33.368,5.54s4.854-47.807,4.854-47.807c11.955-6.332,21.873-24.458,21.873-24.458,7.162,1.188,14.453,7.995,14.453,7.995s-5.937,7.281-8.125,14.4S140.382,351.325,140.382,351.325Z" fill="#48662b"/>
          <path id="Path_41584" data-name="Path 41584" d="M120.779,335.653l18.327,5.553a16.975,16.975,0,0,0-.494,3.519L117.9,338.608Z" fill="#2f4216"/>
          <path id="Path_41585" data-name="Path 41585" d="M129.079,340.867A67.945,67.945,0,0,1,140.349,321l-1.185-.6s-8.039,9.892-11.092,20.207Z" fill="#2f4216"/>
          <g id="Group_37446" data-name="Group 37446">
            <path id="Path_41586" data-name="Path 41586" d="M135.606,317.844s6.735,2.4,9.7,4.723l.859,2.718-3.419-.838a36.087,36.087,0,0,0-9-4.492Z" fill="#384f1f"/>
            <path id="Path_41587" data-name="Path 41587" d="M135.193,319.7l.767-1.093s6.108,2.241,8.412,3.9l.977,1.86-2.6-.633A24.452,24.452,0,0,0,135.193,319.7Z" fill="#2f4216"/>
          </g>
          <g id="Group_37447" data-name="Group 37447">
            <path id="Path_41588" data-name="Path 41588" d="M107.893,315.229a31.236,31.236,0,0,0-5.928,1.558l-1.312,1.932,2.887.162a11.081,11.081,0,0,1,5.322-1.545Z" fill="#384f1f"/>
            <path id="Path_41589" data-name="Path 41589" d="M107.783,316.792l-.348-1.045a39.034,39.034,0,0,0-4.72,1.223l-1.2,1.23,2.193.126A10.472,10.472,0,0,1,107.783,316.792Z" fill="#2f4216"/>
          </g>
          <path id="Path_41590" data-name="Path 41590" d="M115.06,313.333s-1.709,6.561-1.186,8.548l-4.452,4.7s-1.517-3.482.442-10.01Z" fill="#f4e8b3"/>
          <g id="Group_37448" data-name="Group 37448">
            <path id="Path_41591" data-name="Path 41591" d="M119.984,344.07s4.62-1.524,13.228,1.479l-1.3,9.86-6.749,3.19-5.98-3.19Z" fill="#384f1f"/>
            <path id="Path_41592" data-name="Path 41592" d="M130.967,345.758l-1.224,10.676,2.168-1.025,1.3-9.86Z" fill="#2f4216" opacity="0.45"/>
            <path id="Path_41593" data-name="Path 41593" d="M124.149,347.787l-4.165-3.717a24.083,24.083,0,0,1,13.228,1.479Z" fill="#313f1b"/>
            <path id="Path_41594" data-name="Path 41594" d="M124.544,348.431l-.81,5.546-4.036,1.246,4.316-.643,5.022,1.716-4.842-2.22Z" fill="#2f4216"/>
          </g>
          <g id="Group_37449" data-name="Group 37449">
            <path id="Path_41595" data-name="Path 41595" d="M94.817,341.665s4.368-1.441,12.506,1.4l-1.231,9.322L99.711,355.4l-5.653-3.015Z" fill="#384f1f"/>
            <path id="Path_41596" data-name="Path 41596" d="M105.2,343.26l-1.157,10.093,2.049-.969,1.231-9.322Z" fill="#2f4216" opacity="0.45"/>
            <path id="Path_41597" data-name="Path 41597" d="M98.755,345.179l-3.938-3.514a22.775,22.775,0,0,1,12.506,1.4Z" fill="#313f1b"/>
            <path id="Path_41598" data-name="Path 41598" d="M99.128,345.787l-.765,5.243-3.815,1.177,4.08-.608,4.747,1.622-4.578-2.1Z" fill="#2f4216"/>
          </g>
          <path id="Path_41599" data-name="Path 41599" d="M132.549,317.29S122.133,336.7,109.79,342.428l.364,1.088s5-1.183,10.365-6.739,13.692-18.933,13.692-18.933Z" fill="#384f1f"/>
          <path id="Path_41600" data-name="Path 41600" d="M94.781,332.642l13.863-1.346.781,4.357-16.021.869Z" fill="#2f4216"/>
          <path id="Path_41601" data-name="Path 41601" d="M110.952,340.189s-8.364,44.855-5.284,50.87h1.362s-1.467-3.324-.7-13.456,5.391-36.187,5.391-36.187Z" fill="#263311"/>
          <path id="Path_41602" data-name="Path 41602" d="M111.171,342.3" fill="#263311"/>
          <path id="Path_41603" data-name="Path 41603" d="M112.342,342.3s-7.578,36.093-5.234,47.57l-.791.237s-1.259-5.857,0-15.672,4.854-32.135,4.854-32.135Z" fill="#1a2309"/>
          <path id="Path_41604" data-name="Path 41604" d="M121.893,368.937s-.818,9.138,5.928,13.554l2.127-1.773s-5.077-3.637-5.435-11.928Z" fill="#384f1f"/>
          <path id="Path_41605" data-name="Path 41605" d="M102.369,368.9s1.1,8.514-5.121,11.951l-2.071-1.838s4.666-2.876,4.712-10.5Z" fill="#384f1f"/>
          <path id="Path_41606" data-name="Path 41606" d="M152.061,347.42a14.277,14.277,0,0,0,5.436-2.241l.885,2.241a8.043,8.043,0,0,1-5.312,2.085Z" fill="#ccc29a"/>
          <path id="Path_41607" data-name="Path 41607" d="M96.777,298.951l.471-1.378a1.731,1.731,0,0,1,.4-.652l7.063-7.188a1.687,1.687,0,0,1,2.006-.306l.56.3a1.739,1.739,0,0,1,.493,2.648l-6.728,7.935a1.7,1.7,0,0,1-.9.554l-1.368.329A1.716,1.716,0,0,1,96.777,298.951Z" fill="#eaa27a"/>
          <path id="Path_41608" data-name="Path 41608" d="M100.04,259.626s13.428,7.069,24.618-3.7a13.356,13.356,0,0,1-1.9,9.082s6.583.372,8.081-8.1c0,0,3.013,8.93,7.761,9.3,0,0,1.59,8.024-2.7,10.345a6.34,6.34,0,0,0,6.85-4.046c2.2-4.961,3.429-15.164,0-23.4s-26.791-15.634-35.348-3.377C103.459,251.386,104.043,258.1,100.04,259.626Z" fill="#662207"/>
          <path id="Path_41609" data-name="Path 41609" d="M108.54,260.512s-3.854,6.412-2.5,10.963c0,0-3.143.973-2.865-4.789S105.891,259.146,108.54,260.512Z" fill="#662207"/>
          <path id="Path_41610" data-name="Path 41610" d="M112.305,240.642s7.563-12.68,12.753-14.264,7.167-.948,10.774,1.615,5.6,6.181,9.489,6.656,11.176,2.384,11.709,7.5-2.814,18.129-2.814,18.129Z" fill="#7f7133"/>
          <path id="Path_41611" data-name="Path 41611" d="M115.088,235.246s19.847,1.138,28.672,6.588,12.541,9.847,12.541,9.847.2,1.792-1.7,5.969L111.565,239.9Z" fill="#f2b15a"/>
          <path id="Path_41612" data-name="Path 41612" d="M143.736,245.034a69.646,69.646,0,0,1,11.961,9.821,8.959,8.959,0,0,0,.6-3.174s-3.717-4.4-12.541-9.847-28.672-6.588-28.672-6.588l-1.313,1.735C116.734,237.28,135.244,239.343,143.736,245.034Z" fill="#e2a052"/>
          <path id="Path_41613" data-name="Path 41613" d="M142.75,250.724l4.747-7.084s.469-.554,1.289,0,3.75,2.808,3.75,2.808a1.084,1.084,0,0,1,.234,1.505c-.248.449-3.085,6.9-3.085,6.9Z" fill="#5b082a"/>
          <path id="Path_41614" data-name="Path 41614" d="M152.536,246.448s-2.93-2.254-3.75-2.808-1.289,0-1.289,0l-.691,1.031c1.061.759,3.465,2.608,3.465,2.608a1.084,1.084,0,0,1,.234,1.5c-.165.3-1.465,3.229-2.325,5.175l1.505.9s2.837-6.453,3.085-6.9A1.084,1.084,0,0,0,152.536,246.448Z" fill="#510829"/>
          <path id="Path_41615" data-name="Path 41615" d="M95.978,251.212s8.813-7.414,32.344,7.119,24.456,14,28.859,13.859,3.451-3.236,3.206-4.369c-.31-1.44-.917-5.488-5.406-11.02,0,0-26.262-17.542-40.577-18.171,0,0-13.668.215-18.663,9.7C95.741,248.326,94.7,249.408,95.978,251.212Z" fill="#7f7133"/>
          <path id="Path_41616" data-name="Path 41616" d="M159.763,270.863c-4.63.149-5.795.514-30.535-14.766-21.351-13.187-29.739-9.19-33.441-7.847-.014.026-.032.05-.046.076,0,0-1.043,1.082.237,2.886,0,0,8.813-7.414,32.344,7.119s24.456,14,28.859,13.859c1.922-.062,2.921-.735,3.2-1.453C160.237,270.749,159.923,270.858,159.763,270.863Z" fill="#756830"/>
        </g>
      </g>
    </g>
  </g>
</svg>
