<svg xmlns="http://www.w3.org/2000/svg" xmlns:xlink="http://www.w3.org/1999/xlink" width="176" height="176" viewBox="0 0 176 176">
  <defs>
    <clipPath id="clip-path">
      <path id="Path_41698" data-name="Path 41698" d="M394.74,120.392c-6.084-5.764-2.34-13.577-2.219-22.353l14.484-1.132-.561-55.528-95.67-11.945-48.839-4.066L245.952,49.616l-14.947,2.218v58.825l24.834-1.941a18.675,18.675,0,0,1-1.212,8.36c-5.8,13.659-23.541,11.933-19.6,37.81,5.341,35.1,94.525,37.547,141.015,19.9S404.684,129.814,394.74,120.392Z" fill="none"/>
    </clipPath>
    <linearGradient id="linear-gradient" x1="0.5" y1="1" x2="0.5" gradientUnits="objectBoundingBox">
      <stop offset="0" stop-color="#e94e1b"/>
      <stop offset="0.042" stop-color="#ea5b2c" stop-opacity="0.925"/>
      <stop offset="0.187" stop-color="#ef8663" stop-opacity="0.682"/>
      <stop offset="0.332" stop-color="#f4ab93" stop-opacity="0.475"/>
      <stop offset="0.475" stop-color="#f8c9b9" stop-opacity="0.302"/>
      <stop offset="0.615" stop-color="#fbe0d8" stop-opacity="0.173"/>
      <stop offset="0.751" stop-color="#fdf1ed" stop-opacity="0.075"/>
      <stop offset="0.882" stop-color="#fefbfa" stop-opacity="0.02"/>
      <stop offset="1" stop-color="#fff" stop-opacity="0"/>
    </linearGradient>
    <clipPath id="clip-path-2">
      <path id="Path_41639" data-name="Path 41639" d="M321.576,88.44c-2.259-.836-4.155.668-1.829,2.458,3.387,2.6,6.831,1.749,8.806-.181,2.723-2.663.664-4.276-.894-3.256S324.373,89.474,321.576,88.44Z" fill="none"/>
    </clipPath>
  </defs>
  <g id="Group_37632" data-name="Group 37632" transform="translate(-231.005 -21.747)">
    <rect id="Rectangle_4601" data-name="Rectangle 4601" width="176" height="176" transform="translate(231.005 21.747)" fill="none"/>
    <g id="Group_37475" data-name="Group 37475">
      <g id="Group_37474" data-name="Group 37474" clip-path="url(#clip-path)">
        <path id="Path_41618" data-name="Path 41618" d="M301.079,59.937s-25.577-16.09-41.7,3.3,1.045,40.181-4.755,53.841-23.541,11.933-19.6,37.81c5.341,35.1,94.525,37.547,141.015,19.9s28.645-44.975,18.7-54.4c-10.408-9.861,7.965-25.712-12.288-42.14C365.452,64.463,332.391,77.136,301.079,59.937Z" fill="#6d31ff"/>
        <path id="Path_41619" data-name="Path 41619" d="M339.736,169.76l4.657,15.762s-34.052,3.883-42.467,1.146l3.94-13.474Z" fill="#132a54"/>
        <g id="Group_37453" data-name="Group 37453">
          <path id="Path_41620" data-name="Path 41620" d="M269.161,73.81c-.016-.1-.311-1.461-.31-1.56.013-.953.81-1.274,1.72-1.332l7.348-1.9a1.7,1.7,0,0,1,.89-.013,1.739,1.739,0,0,1,1.252,1.563l-.1,10.972a1.885,1.885,0,0,1-.33,1.025,2.333,2.333,0,0,1-2.177,1.063l-3.737.24c-2.1.31-2.634-.614-2.694-1.574Z" fill="#f7af80"/>
        </g>
        <g id="Group_37454" data-name="Group 37454">
          <path id="Path_41621" data-name="Path 41621" d="M366.469,64.777c0-.1.07-1.493.053-1.59-.167-.938-1.006-1.125-1.914-1.035l-7.559-.686a1.7,1.7,0,0,0-.88.132,1.738,1.738,0,0,0-.982,1.745l1.882,10.81a1.894,1.894,0,0,0,.492.958,2.334,2.334,0,0,0,2.321.695l3.727-.37c2.121-.034,2.5-1.033,2.4-1.99Z" fill="#f7af80"/>
        </g>
        <path id="Path_41622" data-name="Path 41622" d="M375.345,66.23C310.7,59.637,261.95,78.8,261.95,78.8l.137,4.207s48.755-19.163,113.395-12.57Z" fill="#838483"/>
        <path id="Path_41623" data-name="Path 41623" d="M262.087,82.194l-.059-2.607-.078.023.137,3.4s48.755-19.163,113.395-12.57L375.4,68C310.79,61.426,262.087,82.194,262.087,82.194Z" fill="#a9aaa9"/>
        <path id="Path_41624" data-name="Path 41624" d="M301.926,111.289s-.759,19.163,1.123,32.912l13.291-2.989-5.832-17.236-6.463-13.317Z" fill="#17490d"/>
        <path id="Path_41625" data-name="Path 41625" d="M327.894,99.878l-1.674,11.411H317.3L316.34,99.6Z" fill="#f7af80"/>
        <path id="Path_41626" data-name="Path 41626" d="M327.34,103.659s-6.478,3.108-10.654.152L316.34,99.6l11.554.281Z" fill="#e89d74" opacity="0.42"/>
        <g id="Group_37455" data-name="Group 37455">
          <circle id="Ellipse_819" data-name="Ellipse 819" cx="2.592" cy="2.592" r="2.592" transform="matrix(0.997, -0.079, 0.079, 0.997, 333.27, 73.062)" fill="#f7af80"/>
          <path id="Path_41627" data-name="Path 41627" d="M337.576,75.32a1.521,1.521,0,1,1-1.636-1.4A1.52,1.52,0,0,1,337.576,75.32Z" fill="#e89d74"/>
        </g>
        <g id="Group_37456" data-name="Group 37456">
          <circle id="Ellipse_820" data-name="Ellipse 820" cx="3.158" cy="3.158" r="3.158" transform="matrix(0.997, -0.079, 0.079, 0.997, 300.652, 76.909)" fill="#f7af80"/>
          <path id="Path_41628" data-name="Path 41628" d="M305.9,79.658a1.852,1.852,0,1,1-1.993-1.7A1.851,1.851,0,0,1,305.9,79.658Z" fill="#e89d74"/>
        </g>
        <path id="Path_41629" data-name="Path 41629" d="M337.552,85.848l-2.516-24.067s-2.469-10.146-18.306-8.107S303.161,69.5,303.161,69.5l.082.01,3.093,20.233a6.805,6.805,0,0,0,3.4,5.718l6.023,3.934c8.567,5.464,13.817-.313,13.817-.313l3.507-2.6A10.884,10.884,0,0,0,337.552,85.848Z" fill="#f7af80"/>
        <path id="Path_41630" data-name="Path 41630" d="M337.552,85.848l-2.516-24.067s-2.469-10.146-18.306-8.107S303.161,69.5,303.161,69.5l.082.01,3.093,20.233a6.805,6.805,0,0,0,3.4,5.718l6.023,3.934c8.567,5.464,13.817-.313,13.817-.313l3.507-2.6A10.884,10.884,0,0,0,337.552,85.848Z" opacity="0.45" fill="url(#linear-gradient)"/>
        <path id="Path_41631" data-name="Path 41631" d="M335.23,64.035s1.586,12,1.566,14.581l-2.256-.726,1.028-.436L334.3,76.7l1.508.364-1.537-1.4s-.708-8.23-2.053-10.472S335.23,64.035,335.23,64.035Z" fill="#4f280e"/>
        <path id="Path_41632" data-name="Path 41632" d="M305.9,64.611s3.389,4.144,2.492,7.292-1.857,8.044-.64,9.823l-1.852,1.01h1.98l-1.409.769h2.072l-2.95,1.4s-6.231-17.92-3.862-21S305.9,64.611,305.9,64.611Z" fill="#4f280e"/>
        <g id="Group_37457" data-name="Group 37457">
          <path id="Path_41633" data-name="Path 41633" d="M317.5,76.094a2.168,2.168,0,1,1-2.321-1.869A2.11,2.11,0,0,1,317.5,76.094Z" fill="#231f20"/>
          <path id="Path_41634" data-name="Path 41634" d="M315.948,75.761a.566.566,0,0,1,.053.762c-.251.326.236.744.488.416a1.2,1.2,0,0,0-.014-1.544.332.332,0,0,0-.447-.08.322.322,0,0,0-.08.446Z" fill="#fff"/>
        </g>
        <g id="Group_37458" data-name="Group 37458">
          <path id="Path_41635" data-name="Path 41635" d="M330.862,73.78a2.168,2.168,0,1,1-2.321-1.87A2.107,2.107,0,0,1,330.862,73.78Z" fill="#231f20"/>
          <path id="Path_41636" data-name="Path 41636" d="M329.313,73.447a.564.564,0,0,1,.053.761c-.25.327.237.745.489.416a1.2,1.2,0,0,0-.015-1.544.333.333,0,0,0-.447-.08.324.324,0,0,0-.08.447Z" fill="#fff"/>
        </g>
        <g id="Group_37463" data-name="Group 37463">
          <g id="Group_37462" data-name="Group 37462">
            <g id="Group_37461" data-name="Group 37461">
              <path id="Path_41637" data-name="Path 41637" d="M321.576,88.44c-2.259-.836-4.155.668-1.829,2.458,3.387,2.6,6.831,1.749,8.806-.181,2.723-2.663.664-4.276-.894-3.256S324.373,89.474,321.576,88.44Z" fill="#3a1d0d"/>
              <g id="Group_37460" data-name="Group 37460">
                <g id="Group_37459" data-name="Group 37459" clip-path="url(#clip-path-2)">
                  <path id="Path_41638" data-name="Path 41638" d="M319.4,87.616l.893,1.71s-1,1.056-1.712,1.65a11.7,11.7,0,0,0,12.14.576l-2.1-3.071.174-2.376Z" fill="#fff"/>
                </g>
              </g>
            </g>
            <path id="Path_41640" data-name="Path 41640" d="M320.764,89.462a6.478,6.478,0,0,0,1.132.425c.174.049.363.092.564.135s.415.072.636.095c.111.015.224.019.338.028s.23.009.346.01.234,0,.352-.007.236-.015.354-.027a6.723,6.723,0,0,0,.7-.1l.339-.076.328-.089c.106-.033.21-.07.313-.1s.2-.073.3-.107.188-.076.278-.113.178-.07.259-.111c.163-.078.316-.144.446-.214s.249-.123.34-.177c.187-.1.3-.16.3-.16s-.091.082-.256.22c-.082.071-.187.149-.308.237s-.263.182-.421.28a5.675,5.675,0,0,1-.527.288c-.1.045-.194.095-.3.139s-.211.084-.321.125l-.339.112c-.116.032-.234.065-.354.093a6.879,6.879,0,0,1-.738.12c-.125.011-.25.02-.375.022s-.249,0-.373,0a5.384,5.384,0,0,1-.72-.073,5.209,5.209,0,0,1-.658-.149,5.124,5.124,0,0,1-.568-.2,4.561,4.561,0,0,1-.792-.42A2.586,2.586,0,0,1,320.764,89.462Z" fill="#f1f1f1"/>
          </g>
        </g>
        <path id="Path_41641" data-name="Path 41641" d="M326.077,93.79s-2.521.488-2.641,1.966Z" fill="#c77236"/>
        <path id="Path_41642" data-name="Path 41642" d="M308.165,68.677s-9.8-1.488-8.865-6.628c.512-2.818,3.694-2.61,3.694-2.61s-3.343-14.453,3.374-16.154,8.038,5.246,8.038,5.246,1.174-7.1,8.4-7.152S326.067,52.1,326.067,52.1,332.852,45.6,337.3,47.83s-.1,9.894-1.01,10.529c0,0,3.87,4.4,1.638,7.059S325.645,62.8,325.645,62.8s2.5,3.733-.8,4.108-7.627-3.212-7.627-3.212,1.955,5.911-1.68,4.852a21.935,21.935,0,0,1-6.759-3.618S310.533,68.664,308.165,68.677Z" fill="#351b07"/>
        <path id="Path_41643" data-name="Path 41643" d="M325.986,70.169a11.005,11.005,0,0,0,4.973.121,1.343,1.343,0,0,0,.955-1.39h0a.441.441,0,0,0-.452-.409,21.874,21.874,0,0,1-4.307-.272C325.779,67.974,324.883,69.613,325.986,70.169Z" fill="#351b07"/>
        <path id="Path_41644" data-name="Path 41644" d="M316.049,72.121a11.016,11.016,0,0,1-4.516,2.086,1.343,1.343,0,0,1-1.429-.9h0a.438.438,0,0,1,.253-.554A21.964,21.964,0,0,0,314.2,70.8C315.367,70.024,316.84,71.172,316.049,72.121Z" fill="#351b07"/>
        <path id="Path_41645" data-name="Path 41645" d="M321.346,109.552l-20.011,3.231s-6.823,3.828.477,11.675L307.7,168.3a51.871,51.871,0,0,0,31.181-2.107l3.588-40.9s8.826-5.946,0-13.336Z" fill="#f7af80"/>
        <path id="Path_41646" data-name="Path 41646" d="M342.464,111.956l-11.038,8.166-25.717-4.7-4.374-2.64s14.667-6.148,22.562-5.57a58.633,58.633,0,0,1,18.567,4.743" fill="#f7af80"/>
        <path id="Path_41647" data-name="Path 41647" d="M303.263,113.649s10.511-2.475,12.689-1.323l1.41,1.323a18.676,18.676,0,0,0-4.8-.49C309.8,113.223,303.263,113.649,303.263,113.649Z" fill="#e89d74"/>
        <path id="Path_41648" data-name="Path 41648" d="M301.335,112.783s-17.5,6.14-22.876,2.3-.581-33.07-.581-33.07l-5.823-.993s-8.711,31.5-2.05,40.212S304.05,124.3,304.05,124.3,309.583,116.378,301.335,112.783Z" fill="#f7af80"/>
        <path id="Path_41649" data-name="Path 41649" d="M336.933,109.876s23.681,3.43,28.188-1.407-6.824-36.5-6.824-36.5l5.508-2.133s15.618,33.111,10.825,42.973-32.612,11.166-32.612,11.166S329.567,115.042,336.933,109.876Z" fill="#f7af80"/>
        <path id="Path_41650" data-name="Path 41650" d="M336.736,112.259s-7.678-1.613-9.755-.287l-1.3,1.433a18.668,18.668,0,0,1,4.749-.879C333.182,112.366,336.736,112.259,336.736,112.259Z" fill="#e89d74"/>
        <path id="Path_41651" data-name="Path 41651" d="M277.924,80.818l.494.459a.782.782,0,0,0,1.1-.042l3.828-3.557a.781.781,0,0,0-.041-1.1l-1.066-.988a.781.781,0,0,0-1.1.042l-3.258,4.086A.781.781,0,0,0,277.924,80.818Z" fill="#d69164"/>
        <path id="Path_41652" data-name="Path 41652" d="M358.96,73.115l-.413.532a.782.782,0,0,1-1.093.138L353.1,70.9a.78.78,0,0,1-.137-1.092l.891-1.148a.78.78,0,0,1,1.092-.137l3.878,3.5A.781.781,0,0,1,358.96,73.115Z" fill="#d69164"/>
        <path id="Path_41653" data-name="Path 41653" d="M302.224,123.62s-4.041.768-4.582,1.537,1.764.94,1.764.94-.822,1.537.486,1.537,1.443-.513,1.443-.513.121,1.281.889,1.111S303.591,123.62,302.224,123.62Z" fill="#4f280e"/>
        <path id="Path_41654" data-name="Path 41654" d="M342.468,122.809s4.042.768,4.583,1.537-1.765.94-1.765.94.822,1.537-.485,1.537-1.443-.513-1.443-.513-.121,1.281-.89,1.11S341.1,122.809,342.468,122.809Z" fill="#4f280e"/>
        <path id="Path_41655" data-name="Path 41655" d="M307.292,127.436c-.291,7.215-1.353,14.4-4.243,16.765,0,0,3.7,22.63,2.079,23.569s-.512,3.331-.512,3.331l-1.025,1.793s-1.11,2.9,0,3.331,27.5,4.355,38.941-4.014l-1.281-3.2.64-2.05-1.409-2.05L343,138.658a80.389,80.389,0,0,1-6.714-29.677l-4.325-1s3.27,23.234-7.677,23.3c-4.661.028-7.668-2.919-9.609-6.7-5.447-10.937-9.534-14.253-9.534-14.253l-3.214.956S307.653,118.52,307.292,127.436Z" fill="#206d15"/>
        <g id="Group_37464" data-name="Group 37464">
          <path id="Path_41656" data-name="Path 41656" d="M318.688,146.071c0,.077,0,.232-.019.495a3.215,3.215,0,0,1,2.146-.834,3.646,3.646,0,0,1,2.944,1.137A4.528,4.528,0,0,1,324.9,149.9c.128,2.955-1.489,4.784-4.339,4.907a4.262,4.262,0,0,1-3.885-1.728,5.221,5.221,0,0,1-.747-1.695l2.681-.594a1.652,1.652,0,0,0,1.825,1.416,1.86,1.86,0,0,0,1.793-2.129,1.828,1.828,0,0,0-1.942-1.951,1.664,1.664,0,0,0-1.645,1.213l-2.512-.169c.034-.464.058-.835.08-1.268l.154-4.819c.013-.324.01-.694,0-1.28.566.006.7,0,1.345-.027l4.02-.175a14.552,14.552,0,0,0,2.213-.2l.117,2.693a18.93,18.93,0,0,0-2.2-.012l-3.118.135Z" fill="#26931d"/>
          <path id="Path_41657" data-name="Path 41657" d="M327.655,153.023a4.945,4.945,0,0,1-1.055-1.666,11.592,11.592,0,0,1-.678-3.5,10.088,10.088,0,0,1,.662-4.3,4.4,4.4,0,0,1,7.134-1.312,4.97,4.97,0,0,1,1.055,1.666,11.6,11.6,0,0,1,.678,3.517,10.183,10.183,0,0,1-.661,4.317,4.3,4.3,0,0,1-3.82,2.572A4.173,4.173,0,0,1,327.655,153.023Zm1.018-5.411c.119,2.755.866,4.142,2.2,4.084s1.928-1.472,1.809-4.212c-.114-2.632-.872-3.987-2.176-3.931C329.239,143.608,328.564,145.1,328.673,147.612Z" fill="#26931d"/>
        </g>
        <path id="Path_41658" data-name="Path 41658" d="M302.352,174.352s22.842,5.79,40.631-3.368v1.789s-3.157,3.79-24.421,5.579c0,0-10.21.106-16.21-1.473Z" fill="#26931d"/>
        <path id="Path_41659" data-name="Path 41659" d="M305.544,110.277a41.41,41.41,0,0,1,9.127,12.937c3.278,7.168,8.235,7.486,10.7,7.11,0,0,4.419.96,6.042-9.693,1.2-7.882.084-12.645.084-12.645h1.357s2.493,22.156-7.163,23.619c-8.454,1.281-11.361-6.031-12.959-9.65-2.092-4.74-8.518-11.3-8.518-11.3Z" fill="#26931d"/>
        <path id="Path_41660" data-name="Path 41660" d="M302.748,111.044s4.973,4.058,5.454,16.392c.346,8.857-3.907,17.234-5.508,17.875l-.32-1.409s5.93-6.576,4.419-19.278c-1.242-10.444-5.159-13.139-5.159-13.139Z" fill="#26931d"/>
        <path id="Path_41661" data-name="Path 41661" d="M335.463,108.792s-.023,17.817,7.536,31.224l.387-1.537a69.8,69.8,0,0,1-5.295-16.908c-1.708-10.59-1.069-12.324-1.069-12.324Z" fill="#26931d"/>
        <g id="Group_37465" data-name="Group 37465">
          <path id="Path_41662" data-name="Path 41662" d="M318.607,119.281a1.7,1.7,0,0,1-.141-2.089.931.931,0,0,1,.814-.348.8.8,0,0,1,.652.46.306.306,0,0,0,.416.109.31.31,0,0,0,.109-.416,1.446,1.446,0,0,0-1.86-.644,1.869,1.869,0,0,0-1.038,1.881,2.756,2.756,0,0,0,.522,1.354.312.312,0,0,0,.416.109.306.306,0,0,0,.11-.416Z" fill="#4f280e"/>
          <path id="Path_41663" data-name="Path 41663" d="M320.462,120.36a.8.8,0,0,1-.055-.235c0,.068,0,.017,0,0s0-.04,0-.06a1.429,1.429,0,0,1,0-.146l0-.048c.007-.078-.01.045,0,0s.013-.071.022-.106a1.139,1.139,0,0,1,.034-.114c0-.013.037-.085,0-.016.01-.022.02-.044.031-.065s.039-.069.061-.1l.028-.039c-.043.06,0,0,.012-.013a.863.863,0,0,1,.08-.08l.033-.029c-.032.025-.035.027-.008.008l.018-.013c.031-.02.063-.039.1-.056a.222.222,0,0,1,.06-.029c-.008,0-.065.023-.011,0,.035-.011.07-.024.106-.033l.043-.01.043-.008-.015,0c.033,0,.066,0,.1,0s.082-.008.1,0l-.038,0,.043.008.043.009.062.019.021.007c.031.012.027.01-.013-.006.025,0,.076.04.1.053a.175.175,0,0,1,.035.023l-.03-.023.031.027c.01.009.072.062.068.072s-.043-.063-.011-.014l.033.051c.005.009.052.077.046.089l-.016-.035.014.038.012.038c0,.007.019.1.022.1s-.006-.068,0-.021c0,.027,0,.053,0,.08v.04c0,.013-.016.065,0,.018s-.008.04-.013.056-.011.038-.017.057c-.016.054,0-.02.009-.019s-.053.094-.058.1c-.031.049.01-.016.011-.015s-.053.048-.053.056.064-.042.021-.016l-.045.026c-.053.033.068-.02.008,0l-.051.015c-.009,0-.068.011-.011,0s-.018,0-.03,0H321.4c-.057,0,.074.022.007,0a.121.121,0,0,0-.039-.011c.055,0,.05.031.016,0s.042.048.018.017-.057-.067,0,.012a.137.137,0,0,1-.014-.027c.041.081.014.028.009,0a.3.3,0,0,0-.374-.212.313.313,0,0,0-.212.374.559.559,0,0,0,.422.432.824.824,0,0,0,.6-.082,1,1,0,0,0,.4-1.121,1.091,1.091,0,0,0-.926-.809,1.309,1.309,0,0,0-1.172.458,1.614,1.614,0,0,0-.26,1.5.3.3,0,0,0,.586-.162Z" fill="#4f280e"/>
          <path id="Path_41664" data-name="Path 41664" d="M322.559,117.9a.947.947,0,0,1-.115-.057c-.02-.012-.039-.025-.059-.039.011.008.039.036-.005,0a1.074,1.074,0,0,1-.091-.088c-.013-.013-.025-.028-.037-.042s-.012-.015,0,.005l-.024-.035c-.022-.037-.045-.072-.064-.11-.009-.017-.017-.035-.025-.052.02.047,0,0,0-.007-.015-.046-.03-.09-.041-.137,0-.019-.007-.038-.011-.057-.014-.064,0,.039-.005-.033,0-.038,0-.076,0-.114s0-.048,0-.072c0-.049-.008.045,0,0a1.131,1.131,0,0,1,.028-.126c0-.018.012-.036.018-.054.024-.076-.023.036.017-.04a1.129,1.129,0,0,1,.069-.122c.014-.021.028-.043.044-.063-.01.012-.028.03.011-.011s.056-.061.086-.089.039-.035.059-.052h0l.038-.027a1.043,1.043,0,0,1,.964-.149.669.669,0,0,1,.347.265s.039.079.023.041.015.05.014.045c.006.021.02.115.015.062a.706.706,0,0,1,0,.13c0,.049.011-.042,0,.005-.008.027-.014.055-.023.082-.015.047.036-.053-.008.019a.642.642,0,0,1-.044.071c.008-.01.032-.04-.007,0s.028-.008-.026.024l-.045.025c.059-.03-.011,0-.023,0s-.053,0,.005,0h-.077c.058,0,.021,0,0,0s-.05-.013-.074-.021c.053.017.015.008,0,0s-.044-.025-.065-.04c.051.037.006,0,0-.009a.319.319,0,0,1-.025-.027q.03.039.012.012c-.005-.009-.026-.056-.011-.019s-.01-.1,0,0a.311.311,0,0,0-.3-.3.306.306,0,0,0-.3.3.745.745,0,0,0,.442.634.823.823,0,0,0,.8-.044,1.009,1.009,0,0,0,.086-1.513,1.611,1.611,0,0,0-2.634.871,1.412,1.412,0,0,0,.759,1.491.315.315,0,0,0,.416-.109.308.308,0,0,0-.109-.417Z" fill="#4f280e"/>
          <path id="Path_41665" data-name="Path 41665" d="M322.82,119.123a1.12,1.12,0,0,0,.353,1.219,1.3,1.3,0,0,0,1.4.141,1.472,1.472,0,0,0,.844-1.061.88.88,0,0,0-.623-1.07c-.434-.075-1,.188-.957.7a.31.31,0,0,0,.3.3.306.306,0,0,0,.3-.3c0-.012,0-.026,0-.038-.008-.058-.018.049-.005.018a.1.1,0,0,0,.009-.034c0-.039-.027.074-.007.018a.131.131,0,0,1,.018-.029c.006,0-.058.056-.015.021a.284.284,0,0,0,.025-.024c.036-.04-.054.028,0,0,.02-.009.043-.033.065-.035-.047,0-.049.018-.02.01l.046-.013.037-.008c.04-.013-.078,0-.013,0,.028,0,.059,0,.087,0s-.076-.019-.014,0l.037.009.037.011c.053.016-.021,0-.021-.008l.033.018c.055.025-.032-.036-.008-.009s.061.074.032.029a.663.663,0,0,1,.034.057c0,.008.024.058.012.022s.01.038.01.037c0,.017.007.034.011.051,0-.012,0-.063,0,0,0,.017,0,.035,0,.052s0,.036,0,.053-.018.089,0,.026c-.009.036-.015.072-.025.107s-.014.043-.022.065c-.015.045.019-.039,0,0a1.161,1.161,0,0,1-.057.111c-.009.016-.019.032-.029.047s-.056.074-.018.027a1.325,1.325,0,0,1-.158.16c-.043.039-.016.014,0,.006l-.058.041q-.06.039-.123.072l-.051.025c-.048.022.066-.021-.019.007-.035.012-.071.025-.107.034s-.073.017-.109.024c.055-.011.01,0,0,0s-.055,0-.083,0a.5.5,0,0,1-.055,0s-.088-.008-.043,0-.02,0-.028-.006l-.055-.014c-.021-.005-.042-.013-.064-.02s-.044-.026,0,0c-.036-.021-.073-.04-.108-.062-.011-.007-.045-.035,0,0-.02-.016-.039-.033-.057-.05a.938.938,0,0,1-.085-.093c.008.01.032.047,0,0-.013-.022-.027-.042-.04-.064l-.023-.045c-.031-.054.012.046-.008-.019-.011-.035-.021-.07-.031-.106,0-.019-.007-.073,0,0,0-.02,0-.04,0-.061s0-.04,0-.06c0-.056-.013.025,0,0s.023-.09.039-.13a.3.3,0,0,0-.212-.374.315.315,0,0,0-.375.212Z" fill="#4f280e"/>
          <path id="Path_41666" data-name="Path 41666" d="M327.044,118.912a1.283,1.283,0,0,1,.324-1.886,1.257,1.257,0,0,1,1.06-.132.619.619,0,0,1,.225.133.405.405,0,0,1,.1.154.5.5,0,0,1,.035.226.722.722,0,0,1-.045.218.764.764,0,0,1-.979.326l.223.293-.022-.344a.312.312,0,0,0-.305-.3.306.306,0,0,0-.3.3l.023.344a.318.318,0,0,0,.223.294,1.4,1.4,0,0,0,1.577-.456,1.173,1.173,0,0,0-.129-1.514,1.676,1.676,0,0,0-1.688-.213,1.884,1.884,0,0,0-1.122,1.173,1.949,1.949,0,0,0,.371,1.814.308.308,0,0,0,.431,0,.311.311,0,0,0,0-.43Z" fill="#4f280e"/>
          <path id="Path_41667" data-name="Path 41667" d="M322.121,121.182a2.094,2.094,0,0,0-.59,1.81,1.853,1.853,0,0,0,1.182,1.449,1.491,1.491,0,0,0,1.7-.543,1.261,1.261,0,0,0-.223-1.64.937.937,0,0,0-1.029-.172.656.656,0,0,0-.353.9c.19.343.716.036.525-.307.016.029-.012-.008-.006-.017s.005.04.005.043c0,.033-.011,0,.008-.012-.028.019.011-.012.014-.016a.314.314,0,0,1,.176-.082.173.173,0,0,1,.072.011.27.27,0,0,1,.09.036.551.551,0,0,1,.191.166.73.73,0,0,1,.133.432.642.642,0,0,1-.2.428.888.888,0,0,1-1.008.148,1.277,1.277,0,0,1-.679-.97,1.473,1.473,0,0,1,.431-1.239c.28-.274-.15-.7-.431-.43Z" fill="#4f280e"/>
          <path id="Path_41668" data-name="Path 41668" d="M325.868,122.446s-.038-.091-.015-.033c-.009-.022-.017-.044-.025-.067-.018-.05-.034-.1-.047-.151s-.022-.094-.031-.141c0,0-.013-.09-.008-.045,0,.03-.005-.064-.006-.075a1.941,1.941,0,0,1,.005-.285c.007-.091-.014.057.005-.032.005-.023.009-.046.014-.069a1.579,1.579,0,0,1,.046-.163c.005-.013.027-.07.006-.018.011-.026.023-.052.036-.077a1.243,1.243,0,0,1,.072-.121s.052-.073.025-.037.024-.028.024-.028a1.445,1.445,0,0,1,.105-.1c.059-.054-.05.03.016-.013l.041-.028c.038-.024.079-.045.118-.067.015-.008.067-.03.006,0l.07-.026a1.146,1.146,0,0,1,.142-.039l.048-.009c.079-.016-.064,0,.016,0,.041,0,.081-.005.121,0l.072,0c.019,0,.054.014-.009,0,.046.011.093.018.139.033.013,0,.085.035.016,0l.053.026a.815.815,0,0,1,.112.071c-.056-.042.026.028.039.042s.05.053.016.016.017.026.022.036.051.072.047.089l-.015-.035.014.039.011.039q.009.03.015.06c0,.023-.006.056,0,.02s0,0,0,.021,0,.048,0,.072,0,.035,0,.052c-.005.074.006,0,0,0a.46.46,0,0,1-.021.1.381.381,0,0,1-.031.1c.011,0,.029-.06,0,0-.009.018-.019.036-.029.053s-.021.033-.032.05c-.035.055.045-.047,0,0a1.045,1.045,0,0,1-.084.081s.06-.04,0,0c-.016.01-.034.018-.051.028-.058.033.065-.017,0,0l-.059.017c.068-.022.01,0-.014,0-.063.006.042.017-.015,0-.023-.007-.047-.013-.07-.021.067.024,0-.005-.013-.012-.058-.027.025.041-.012-.008s.014.054-.013-.015c-.016-.041.018.072,0,.007.005.047.007.054.007.02a.106.106,0,0,1-.019.071.313.313,0,0,0-.109-.417.308.308,0,0,0-.416.11.55.55,0,0,0,0,.5.681.681,0,0,0,.294.283.807.807,0,0,0,.8-.033,1.173,1.173,0,0,0,.474-1.223,1.127,1.127,0,0,0-1.06-.875,1.476,1.476,0,0,0-1.333.68,1.97,1.97,0,0,0-.036,1.868.305.305,0,0,0,.416.109.312.312,0,0,0,.109-.416Z" fill="#4f280e"/>
          <path id="Path_41669" data-name="Path 41669" d="M320.36,121.181a2.09,2.09,0,0,0-1.64-.091,1.506,1.506,0,0,0-.946,1.211,1.187,1.187,0,0,0,.6,1.248,1.24,1.24,0,0,0,1.3-.164.864.864,0,0,0,.32-.689.706.706,0,0,0-.21-.464.485.485,0,0,0-.556-.075.305.305,0,0,0-.109.416.313.313,0,0,0,.416.109c-.036.017-.164.046-.181-.019,0,0,.051.085.01.006.007.014.016.027.023.041-.033-.063,0,0,0,.019.017.058,0,0,0-.009-.021.076.021-.061,0,.01-.006.021-.01.041-.016.06-.022.07,0,0,0,0l-.019.035c-.01.018-.021.034-.032.051-.025.04.01-.018.012-.015s-.061.062-.07.071c-.048.048.057-.035,0,0-.017.011-.033.023-.051.033s-.06.032-.09.047c.079-.038-.024.006-.044.012s-.068.016-.1.024c-.068.015.051,0,.008,0-.024,0-.05,0-.074,0s-.07,0-.1,0c-.061,0,.019,0,.018,0s-.053-.01-.061-.011c-.034-.008-.067-.019-.1-.03-.05-.015.007,0,.015.008-.025-.013-.05-.024-.074-.038l-.035-.022c-.06-.035.046.045-.005,0-.026-.025-.052-.05-.077-.077s-.028-.045,0,0c-.013-.021-.027-.04-.04-.061l-.024-.043-.021-.044c.013.032.016.038.008.017s-.023-.07-.032-.1-.009-.047-.015-.071c.015.061,0,.026,0,.008,0-.041-.006-.082,0-.123,0-.025,0-.049,0-.074,0-.081-.014.061,0-.018a1.522,1.522,0,0,1,.067-.242c-.024.067,0-.01.01-.02l.023-.045c.024-.045.051-.087.079-.129.042-.064-.027.022.006-.008a.472.472,0,0,0,.042-.047c.029-.031.059-.058.091-.087.058-.053-.031.021.012-.009l.06-.041a1.484,1.484,0,0,1,.152-.082c-.045.022,0,0,.007,0,.036-.013.072-.026.109-.037a1.375,1.375,0,0,1,.154-.036c.014,0,.077-.012.019,0l.087-.008c.059,0,.117,0,.176,0l.088,0c.012,0,.1.011.036,0q.087.012.174.033c.057.014.114.03.17.049l.055.02.055.021c-.028-.012-.025-.01.008,0a.3.3,0,1,0,.307-.525Z" fill="#4f280e"/>
          <path id="Path_41670" data-name="Path 41670" d="M325.716,117.023a1.793,1.793,0,0,1-.062-.188c-.007-.027-.013-.055-.018-.082l-.01-.056c.005.031,0,.025,0,0-.005-.066-.009-.131-.008-.2,0-.033,0-.066,0-.1s.013-.1,0-.045a1.84,1.84,0,0,1,.042-.193c.008-.032.018-.063.029-.1l.014-.04c0-.006.029-.076.015-.042s.006-.014.007-.016l.025-.051q.018-.039.039-.075a1.867,1.867,0,0,1,.114-.179c.02-.028,0,0-.006,0l.036-.043c.018-.022.037-.043.056-.063a1.609,1.609,0,0,1,.154-.144c.037-.031-.034.024.005,0l.034-.024c.027-.019.055-.036.083-.053s.057-.033.087-.047l.038-.019c.043-.02-.038.014.017-.007a1.166,1.166,0,0,1,.224-.064c.017,0,.072,0,.1,0,.017,0,.036,0,.053,0,.049.006-.04-.016.043.01.012,0,.084.032.056.017a.509.509,0,0,1,.05.03s-.03-.026,0,0c.01.009.073.074.042.036.011.013.06.1.04.055.009.021.023.115.02.059a.2.2,0,0,1,0,.042c0,.018,0,.019,0,0s0-.017-.006.015c.012-.006.008-.039.006-.013s-.049.029,0,.005c-.042.021.038-.017-.021.018-.009,0-.055.025-.017.01s-.016.006-.019,0c-.03-.016.049,0,.011,0a.234.234,0,0,0-.046,0c-.042.008.054,0,.013,0l-.021-.006c-.016-.005-.015,0,.005,0s.027.007,0,0c.028.023.035.027.019.011s-.011-.01.012.016a.311.311,0,0,0-.416-.109.307.307,0,0,0-.109.416.665.665,0,0,0,1.105-.037.817.817,0,0,0-.508-1.139,1.446,1.446,0,0,0-1.321.342,2.02,2.02,0,0,0-.627.939,1.888,1.888,0,0,0,.024,1.265.313.313,0,0,0,.374.213.305.305,0,0,0,.212-.374Z" fill="#4f280e"/>
          <path id="Path_41671" data-name="Path 41671" d="M321.1,116.413a1.622,1.622,0,0,0-1.556-2.191c-.206,0-.479.023-.585.224a.784.784,0,0,0-.053.535.871.871,0,0,0,.818.673.3.3,0,1,0,0-.609H319.7c-.024,0-.014,0,.028.005-.005,0-.045-.011-.051-.012-.057-.014-.008.009,0,0a.215.215,0,0,1-.055-.031c-.012-.007-.048-.045-.021-.013s-.01-.011-.017-.019-.029-.031-.043-.047c.023.027.023.034,0,0l-.027-.047c-.029-.046.009.038,0,0,0-.017-.012-.033-.017-.05l-.007-.031c0-.024,0-.014,0,.028a.309.309,0,0,1,0-.1q-.009.064,0,.03l.008-.031c.01-.058-.027.051,0-.007l-.182.14c.029-.008.059-.015.089-.021.079-.015-.027,0,.035-.006s.1-.007.156-.006c.026,0,.052,0,.078,0l.052,0c-.034,0-.039-.006-.016,0,.055.012.11.022.165.038.025.007.05.015.074.024s.073.031.024.008a1.563,1.563,0,0,1,.162.086c.022.013.043.028.065.043.069.046-.042-.039.021.016a1.347,1.347,0,0,1,.122.117c.006.006.058.067.036.04s.033.047.038.055a1.58,1.58,0,0,1,.079.138c.008.018.031.075.012.025.011.029.022.058.031.087a1.377,1.377,0,0,1,.042.168c0,.011.008.094,0,.024,0,.027,0,.053.007.08,0,.062,0,.123,0,.185s.011-.047,0,.025c-.005.026-.01.052-.016.077a1.172,1.172,0,0,1-.056.177.306.306,0,0,0,.213.375.314.314,0,0,0,.374-.213Z" fill="#4f280e"/>
        </g>
        <g id="Group_37466" data-name="Group 37466">
          <circle id="Ellipse_821" data-name="Ellipse 821" cx="17.534" cy="17.534" r="17.534" transform="translate(231.787 67.367)" fill="#212020"/>
          <path id="Path_41672" data-name="Path 41672" d="M249.883,67.367a17.567,17.567,0,0,0-3.931.458,17.519,17.519,0,0,1,0,34.152,17.529,17.529,0,1,0,3.931-34.61Z" fill="#303030"/>
        </g>
        <g id="Group_37467" data-name="Group 37467">
          <circle id="Ellipse_822" data-name="Ellipse 822" cx="17.534" cy="17.534" r="17.534" transform="translate(371.375 51.834)" fill="#212020"/>
          <path id="Path_41673" data-name="Path 41673" d="M389.471,51.834a17.553,17.553,0,0,0-3.931.458,17.52,17.52,0,0,1,0,34.152,17.529,17.529,0,1,0,3.931-34.61Z" fill="#303030"/>
        </g>
        <ellipse id="Ellipse_823" data-name="Ellipse 823" cx="3.262" cy="1.972" rx="3.262" ry="1.972" transform="translate(311.908 82.241) rotate(-8.566)" fill="#f45b8e" opacity="0.4" style="mix-blend-mode: multiply;isolation: isolate"/>
        <ellipse id="Ellipse_824" data-name="Ellipse 824" cx="2.942" cy="1.778" rx="2.942" ry="1.778" transform="translate(329.659 79.168) rotate(-8.566)" fill="#f45b8e" opacity="0.4" style="mix-blend-mode: multiply;isolation: isolate"/>
        <g id="Group_37468" data-name="Group 37468">
          <path id="Path_41674" data-name="Path 41674" d="M323.754,79.34a12.172,12.172,0,0,1-1.4-2.164c-.52-1.1-1.092-1.429-2.119-.947S319.2,85.418,325.1,85.75s4.924-3.732,4.1-4.67S325.953,81.967,323.754,79.34Z" fill="#e08d56"/>
          <path id="Path_41675" data-name="Path 41675" d="M325.286,85.286C320.2,85,319.5,78.51,320.062,76.4c-.835,1.323-.51,9.036,5.041,9.348,3.109.175,4.308-.869,4.627-2.034C329.231,84.677,327.973,85.437,325.286,85.286Z" fill="#c77236"/>
        </g>
        <g id="Group_37469" data-name="Group 37469">
          <path id="Path_41676" data-name="Path 41676" d="M240.081,90.054a1.132,1.132,0,0,1-.453-.773l-1.191-6.657a1.117,1.117,0,0,1,.16-.869,1.13,1.13,0,0,1,.772-.453,1.176,1.176,0,0,1,.9.153,1.11,1.11,0,0,1,.457.76l1.19,6.657a1.12,1.12,0,0,1-.163.883,1.177,1.177,0,0,1-.792.456A1.134,1.134,0,0,1,240.081,90.054Z" fill="#fff"/>
          <path id="Path_41677" data-name="Path 41677" d="M248.828,79.765a1.059,1.059,0,0,1,.521-.248,1.3,1.3,0,0,1,.86.142.9.9,0,0,1,.49.657.979.979,0,0,1-.035.456l-2.072,7.369a1.163,1.163,0,0,1-.393.6,1.456,1.456,0,0,1-1.393.249,1.164,1.164,0,0,1-.578-.43l-4.5-6.194a.976.976,0,0,1-.178-.417.9.9,0,0,1,.246-.783,1.341,1.341,0,0,1,.781-.441,1.09,1.09,0,0,1,.58.05.988.988,0,0,1,.472.378l3.4,4.862,1.491-5.736A1,1,0,0,1,248.828,79.765Z" fill="#fff"/>
          <path id="Path_41678" data-name="Path 41678" d="M260.39,85.684a.9.9,0,0,1-.205.756,1.128,1.128,0,0,1-.7.421.981.981,0,0,1-.55-.056,1.023,1.023,0,0,1-.453-.381l-.785-1.157-4.031.721-.348,1.359a.987.987,0,0,1-.8.76,1.177,1.177,0,0,1-.816-.15.889.889,0,0,1-.467-.635,1.079,1.079,0,0,1,.03-.481l2.079-7.331a1.181,1.181,0,0,1,.386-.6,1.471,1.471,0,0,1,1.4-.25,1.162,1.162,0,0,1,.578.429l4.491,6.157A1.089,1.089,0,0,1,260.39,85.684Zm-6.261-1.551,2.489-.445-1.741-2.552Z" fill="#fff"/>
        </g>
        <g id="Group_37470" data-name="Group 37470">
          <path id="Path_41679" data-name="Path 41679" d="M380.675,74.112a1.137,1.137,0,0,1-.38-.811l-.578-6.738a1.116,1.116,0,0,1,.238-.851,1.132,1.132,0,0,1,.811-.381,1.175,1.175,0,0,1,.882.235,1.1,1.1,0,0,1,.386.8l.578,6.738a1.119,1.119,0,0,1-.243.864,1.174,1.174,0,0,1-.83.382A1.134,1.134,0,0,1,380.675,74.112Z" fill="#fff"/>
          <path id="Path_41680" data-name="Path 41680" d="M390.325,64.663a1.062,1.062,0,0,1,.542-.2,1.29,1.29,0,0,1,.843.219.9.9,0,0,1,.428.7.985.985,0,0,1-.076.45l-2.736,7.149a1.168,1.168,0,0,1-.446.565,1.46,1.46,0,0,1-1.411.121,1.168,1.168,0,0,1-.536-.481L383.02,66.61a.979.979,0,0,1-.139-.432.893.893,0,0,1,.316-.757,1.336,1.336,0,0,1,.818-.368,1.079,1.079,0,0,1,.574.1.985.985,0,0,1,.435.419l2.941,5.152,2.009-5.576A.994.994,0,0,1,390.325,64.663Z" fill="#fff"/>
          <path id="Path_41681" data-name="Path 41681" d="M401.3,71.613a.9.9,0,0,1-.273.734,1.129,1.129,0,0,1-.737.355.979.979,0,0,1-.542-.105,1.022,1.022,0,0,1-.417-.422l-.676-1.223-4.08.35-.471,1.322a1.011,1.011,0,0,1-.345.486,1,1,0,0,1-.522.2,1.172,1.172,0,0,1-.8-.223.886.886,0,0,1-.407-.676,1.083,1.083,0,0,1,.073-.475l2.739-7.111a1.182,1.182,0,0,1,.44-.565,1.467,1.467,0,0,1,1.417-.121,1.166,1.166,0,0,1,.536.48l3.911,6.541A1.092,1.092,0,0,1,401.3,71.613ZM395.2,69.5l2.519-.216-1.5-2.7Z" fill="#fff"/>
        </g>
        <g id="Group_37471" data-name="Group 37471">
          <path id="Path_41682" data-name="Path 41682" d="M305.8,69.837s-2.1,4.65,0,4.65S307.157,72.459,305.8,69.837Z" fill="#4897d3"/>
          <path id="Path_41683" data-name="Path 41683" d="M305.8,69.837s-.154.345-.336.84c.8,1.59,1.326,2.923,1.063,3.673C307.652,73.87,306.959,72.076,305.8,69.837Z" fill="#70b9e5"/>
        </g>
        <g id="Group_37472" data-name="Group 37472">
          <path id="Path_41684" data-name="Path 41684" d="M309.477,75.628s-2.1,4.65,0,4.65S310.832,78.25,309.477,75.628Z" fill="#4897d3"/>
          <path id="Path_41685" data-name="Path 41685" d="M309.477,75.628s-.154.345-.336.84c.805,1.59,1.326,2.923,1.063,3.673C311.326,79.661,310.634,77.867,309.477,75.628Z" fill="#70b9e5"/>
        </g>
        <g id="Group_37473" data-name="Group 37473">
          <path id="Path_41686" data-name="Path 41686" d="M291.824,63.638s-3.495-2.107-3.694-.442S289.612,64.466,291.824,63.638Z" fill="#4897d3"/>
          <path id="Path_41687" data-name="Path 41687" d="M291.824,63.638s-.259-.155-.635-.347c-1.34.489-2.448.777-3.019.5C288.444,64.724,289.936,64.345,291.824,63.638Z" fill="#70b9e5"/>
        </g>
        <path id="Path_41688" data-name="Path 41688" d="M297.372,63.1s-1.236-4.74-3.756-4.26a1.383,1.383,0,0,0-.77,2.486C293.451,61.806,295.944,61.78,297.372,63.1Z" fill="#4897d3"/>
        <path id="Path_41689" data-name="Path 41689" d="M292.832,60.8a1.6,1.6,0,0,1-.5-.872,1.614,1.614,0,0,0,.515,1.39c.6.485,3.1.459,4.526,1.774,0,0-.071-.268-.208-.663C295.714,61.276,293.411,61.268,292.832,60.8Z" fill="#70b9e5"/>
        <path id="Path_41690" data-name="Path 41690" d="M295.424,63.739s-.271,3.419-2.066,3.4a.968.968,0,0,1-.836-1.619C292.88,65.108,294.6,64.821,295.424,63.739Z" fill="#4897d3"/>
        <path id="Path_41691" data-name="Path 41691" d="M292.576,65.875a1.128,1.128,0,0,0-.239.662,1.132,1.132,0,0,1,.185-1.021c.358-.408,2.079-.695,2.9-1.777,0,0-.016.194-.062.483C294.5,65.2,292.918,65.483,292.576,65.875Z" fill="#70b9e5"/>
        <path id="Path_41692" data-name="Path 41692" d="M268.118,35.964s6.53.769,6.914-6.53c0,0,0,6.53,5.762,4.994,0,0-4.993,3.073-1.536,8.066,0,0-5.314-2.3-6.914,2.561,0,0,.448-3.649-2.113-3.009C270.231,42.046,276.313,37.053,268.118,35.964Z" fill="#ff9815"/>
        <path id="Path_41693" data-name="Path 41693" d="M375.049,137.664s1.137,5.158,6.777,3.527c0,0-4.956,1.72-2.272,5.689,0,0-3.647-2.981-6.526.959,0,0,.349-4.64-3.766-4.573,0,0,2.888-.621,1.727-2.4C370.989,140.87,376.382,144.17,375.049,137.664Z" fill="#ff9815"/>
        <path id="Path_41694" data-name="Path 41694" d="M282.516,150.451s-4.614-2.124-6.64,3.146c0,0,1.56-4.8-3.04-5.045,0,0,4.4-1.065,3.055-5.56,0,0,3.354,2.963,5.692-.23,0,0-1.2,2.574.834,2.716C282.417,145.478,276.755,147.694,282.516,150.451Z" fill="#ff9815"/>
        <path id="Path_41695" data-name="Path 41695" d="M315.24,138.1l18.29-1.441.222,2.106-18.29,1.164Z" fill="#26931d"/>
        <path id="Path_41696" data-name="Path 41696" d="M316.587,156.835,334.9,155.7l.187,2.109-18.307.859Z" fill="#26931d"/>
        <path id="Path_41697" data-name="Path 41697" d="M315.24,138.1l18.29-1.441.222,2.106-18.29,1.164Z" fill="#26931d"/>
      </g>
    </g>
  </g>
</svg>
