<svg xmlns="http://www.w3.org/2000/svg" xmlns:xlink="http://www.w3.org/1999/xlink" width="176" height="176" viewBox="0 0 176 176">
  <defs>
    <clipPath id="clip-path">
      <rect id="Rectangle_4557" data-name="Rectangle 4557" width="176" height="176" transform="translate(5151.764 3704.918)" fill="none"/>
    </clipPath>
    <clipPath id="clip-path-2">
      <path id="Path_41255" data-name="Path 41255" d="M5311.058,3795.352v-90.434H5200.275v32.415a43.912,43.912,0,0,0-24.789,12.813c-31.517,31.928.581,67.656,21.312,85.376,40.53,34.644,106.631,53.681,118.088-7.471C5317.665,3813.215,5316.376,3803.546,5311.058,3795.352Z" fill="none"/>
    </clipPath>
  </defs>
  <g id="Group_37543" data-name="Group 37543" transform="translate(-5151.764 -3704.918)">
    <g id="Group_37330" data-name="Group 37330" clip-path="url(#clip-path)">
      <path id="Path_41193" data-name="Path 41193" d="M5251.135,3749.622s-46.043-29.468-75.649.524c-31.517,31.928.581,67.656,21.312,85.376,40.53,34.644,106.631,53.681,118.088-7.471C5322.294,3788.506,5300.8,3785.674,5251.135,3749.622Z" fill="#6d31ff"/>
      <path id="Path_41194" data-name="Path 41194" d="M5192.983,3721.567c-2.711-4.141-7.363-11.248-24.86,1.866-5.368,4.023-7.967,10.012-5.256,14.154s9.46,4.519,15.075.843S5197.315,3728.184,5192.983,3721.567Z" fill="#6d31ff"/>
      <path id="Path_41195" data-name="Path 41195" d="M5293.125,3877.056c4.307-1.815,11.1-4.793,9.195-8.019-.719-1.217-7.038.93-8.1,1.254a87.012,87.012,0,0,1-10.021,2.187c-6.361,1.15-9.01,6.216-3.157,6.69A24.644,24.644,0,0,0,5293.125,3877.056Z" fill="#6d31ff"/>
      <g id="Group_37329" data-name="Group 37329">
        <g id="Group_37328" data-name="Group 37328" clip-path="url(#clip-path-2)">
          <g id="Group_37327" data-name="Group 37327">
            <g id="Group_37325" data-name="Group 37325">
              <path id="Path_41196" data-name="Path 41196" d="M5220.28,3730.3l-2.927-2.491s-5.419,3.106-3.943,8.891,5.137,16.192,5.137,16.192l2.409.748,9.186-26.943Z" fill="#231f20"/>
              <g id="Group_37301" data-name="Group 37301">
                <circle id="Ellipse_735" data-name="Ellipse 735" cx="3.363" cy="3.363" r="3.363" transform="translate(5215.185 3747.561)" fill="#eaa271"/>
                <circle id="Ellipse_736" data-name="Ellipse 736" cx="1.973" cy="1.973" r="1.973" transform="translate(5216.575 3748.951)" fill="#d38c5b"/>
              </g>
              <path id="Path_41197" data-name="Path 41197" d="M5256.956,3727.444l.88,2.413s-2.424,12.92.774,17.2h2.327l2.118-15.521S5258.924,3726.049,5256.956,3727.444Z" fill="#231f20"/>
              <g id="Group_37302" data-name="Group 37302">
                <circle id="Ellipse_737" data-name="Ellipse 737" cx="3.363" cy="3.363" r="3.363" transform="translate(5256.33 3744.198)" fill="#eaa271"/>
                <circle id="Ellipse_738" data-name="Ellipse 738" cx="1.973" cy="1.973" r="1.973" transform="translate(5257.72 3745.588)" fill="#d38c5b"/>
              </g>
              <path id="Path_41198" data-name="Path 41198" d="M5260.465,3762.223l-.773-31.382s-2.147-13.375-22.837-12.37-19.178,19.071-19.178,19.071l.1.021,1.915,26.484a8.83,8.83,0,0,0,3.8,7.744l7.383,5.707c10.516,7.949,17.9,1.02,17.9,1.02l4.8-3.005A14.118,14.118,0,0,0,5260.465,3762.223Z" fill="#f9b180"/>
              <path id="Path_41199" data-name="Path 41199" d="M5248.409,3778.758l-2.171,14.8h-11.572l-1.246-15.167Z" fill="#f9b180"/>
              <path id="Path_41200" data-name="Path 41200" d="M5247.689,3783.664s-8.4,4.031-13.821.2l-.448-5.467,14.989.364Z" fill="#e28f56"/>
              <path id="Path_41201" data-name="Path 41201" d="M5239.968,3795.186l-22.91,3.7s-7.812,4.382.546,13.366l6.736,50.2a59.385,59.385,0,0,0,35.7-2.412l4.107-46.831s10.1-6.808,0-15.268Z" fill="#f9b180"/>
              <path id="Path_41202" data-name="Path 41202" d="M5264.146,3797.938l-12.637,9.35-29.443-5.381-5.008-3.022s16.792-7.038,25.831-6.377a67.119,67.119,0,0,1,21.257,5.43" fill="#f9b180"/>
              <ellipse id="Ellipse_739" data-name="Ellipse 739" cx="14.08" cy="18.152" rx="14.08" ry="18.152" transform="translate(5223.214 3872.693) rotate(-87.768)" fill="#f9b180"/>
              <path id="Path_41203" data-name="Path 41203" d="M5255.47,3742.027a4.949,4.949,0,0,0-3.933-4.305,8.624,8.624,0,0,0-1.662-.2,2.548,2.548,0,0,0-1.1.086l.26-.688c-.511.15-1.449,1.368-1.449,1.368l-.119-.983a7.034,7.034,0,0,0-.547,2.365l1.184-.032C5249.355,3739.762,5254.043,3740.329,5255.47,3742.027Z" fill="#231f20"/>
              <path id="Path_41204" data-name="Path 41204" d="M5226.752,3741.131a4.947,4.947,0,0,1,3.933-4.3,8.632,8.632,0,0,1,1.662-.2,2.545,2.545,0,0,1,1.1.086l-.26-.688c.511.15,1.449,1.368,1.449,1.368l.119-.982a7.04,7.04,0,0,1,.547,2.365l-1.184-.033C5232.867,3738.867,5228.179,3739.433,5226.752,3741.131Z" fill="#231f20"/>
              <path id="Path_41205" data-name="Path 41205" d="M5220.52,3739.65s-.548-9.544,3.881-10.529,12.392,2.17,17.6,2.889,23.292-.838,24.643-12.321c0,0-2.789,1.394-6.116-1.272-5.021-4.024-21.129-9.268-30.841-4.531S5212.867,3726.066,5220.52,3739.65Z" fill="#231f20"/>
              <path id="Path_41206" data-name="Path 41206" d="M5219.793,3727.814s-3.056-4.106-2.5-6.731c0,0-1.436,2.79-.713,5.168,0,0-4.067,1.476-4.313,3.362,0,0,.4-.82,3.765-.82a7.63,7.63,0,0,0-1.715,3.527A19.238,19.238,0,0,1,5219.793,3727.814Z" fill="#231f20"/>
              <path id="Path_41207" data-name="Path 41207" d="M5220.874,3729.285l.775,2.462s2.07,14.893-1.129,19.177l-1.73.591-4.232-14.848S5218.9,3727.891,5220.874,3729.285Z" fill="#231f20"/>
              <path id="Path_41208" data-name="Path 41208" d="M5253.589,3731.045s3.948-.486,4.686,2.587.335,13.429.335,13.429l1.505.5-.11-3.363,1.346-8.659-1.169-5.444-.708-2.878Z" fill="#231f20"/>
              <path id="Path_41209" data-name="Path 41209" d="M5241.257,3731.894s11.427,2.074,15.7-4.45,3.569-9.027,3.569-9.027l-2.675-1.711S5257.54,3732.207,5241.257,3731.894Z" fill="#514b4d"/>
              <path id="Path_41210" data-name="Path 41210" d="M5240.428,3731.742s15.233-5.436,14.079-16.577l-2.874-1.036s1.816,9.077-12.544,17.325Z" fill="#514b4d"/>
              <path id="Path_41211" data-name="Path 41211" d="M5254.918,3731.058s11.149-3.244,11.723-11.369a4.654,4.654,0,0,1-2.7.3S5261.228,3728.557,5254.918,3731.058Z" fill="#514b4d"/>
              <path id="Path_41212" data-name="Path 41212" d="M5222.306,3741.623h-6.279l6.244,1.647Z" fill="#514b4d"/>
              <path id="Path_41213" data-name="Path 41213" d="M5222.074,3745.88l-.262,1.681-5.237-2.848Z" fill="#514b4d"/>
              <path id="Path_41214" data-name="Path 41214" d="M5221.258,3749.534l-.738,1.39-2.735-2.934Z" fill="#514b4d"/>
              <path id="Path_41215" data-name="Path 41215" d="M5258.709,3739.474l3.478-1.569-3.478,3.718Z" fill="#514b4d"/>
              <path id="Path_41216" data-name="Path 41216" d="M5258.7,3743.27l3.1-2.538-3.123,3.98Z" fill="#514b4d"/>
              <path id="Path_41217" data-name="Path 41217" d="M5258.631,3746.469l1.375-1.518-.533,2.4-.862-.286Z" fill="#514b4d"/>
              <path id="Path_41218" data-name="Path 41218" d="M5218.79,3751.515l1.73-.591s7,24.538,16.1,25.195c4.626.333,4.292-4.238,4.292-4.238h3.246s.361,3.714,1.825,3.463,9.507-5.415,10.345-10.216,2.28-18.067,2.28-18.067l1.505.5s.947,16.746.949,17.731c.007,5.054-6.031,12.078-10.443,14.374a16.092,16.092,0,0,1-6.461,2.27c-4.665.542-8.861,1.357-17-4.939,0,0-6.015-5.116-7.368-9.637C5218.563,3763.25,5218.79,3751.515,5218.79,3751.515Z" fill="#2d2a2b"/>
              <path id="Path_41219" data-name="Path 41219" d="M5243.736,3760.281a6.43,6.43,0,0,0-3.771-1.237,32.6,32.6,0,0,0-4.894.61,19.84,19.84,0,0,1-4.9,1.009c-1.778,0-6.512,1.724-6.671,5.008a6.557,6.557,0,0,0,3.94,5.859c.9.141-.858-4.426.477-5.406s8.383-3.45,12.043-2.977a20.468,20.468,0,0,0,5.276,0,8.937,8.937,0,0,1,4,.692c1.66.853,4.86.406,6.592,3.619s2.67-2.841,2.773-3.1-3.568-3.979-7.023-4.075S5246.587,3758.565,5243.736,3760.281Z" fill="#2d2a2b"/>
              <g id="Group_37318" data-name="Group 37318">
                <g id="Group_37303" data-name="Group 37303">
                  <path id="Path_41220" data-name="Path 41220" d="M5263.725,3797.607a64.808,64.808,0,0,0-14.4-6.165c-1.39-.423-.8-5.518-.8-5.518l-8.2.365-8.2-.365s.559,4.994-.8,5.518a85.1,85.1,0,0,0-14.4,7.723s-4.882,2.356-4.062,8.831,4.2,8.289,4.2,8.289l5.33,57.13h38.31l4.265-59.462S5275.955,3804.443,5263.725,3797.607Z" fill="#511d39"/>
                </g>
                <g id="Group_37304" data-name="Group 37304">
                  <path id="Path_41221" data-name="Path 41221" d="M5232.6,3786.619l2.408.168c.721.048,1.565.088,2.467.13s1.866.073,2.829.081,1.925.012,2.827-.014l1.3-.056,1.162-.089.98-.109c.293-.026.544-.076.752-.11l.655-.106-.644.162c-.206.048-.455.116-.746.161s-.618.116-.978.166l-1.164.137c-.415.033-.852.073-1.306.1-.906.039-1.874.063-2.842.053s-1.934-.06-2.839-.12-1.747-.148-2.467-.22C5233.551,3786.789,5232.6,3786.619,5232.6,3786.619Z" fill="#7a2158"/>
                </g>
                <g id="Group_37316" data-name="Group 37316">
                  <g id="Group_37315" data-name="Group 37315">
                    <g id="Group_37305" data-name="Group 37305">
                      <path id="Path_41222" data-name="Path 41222" d="M5234,3787.644a6.212,6.212,0,0,1,.018.637,9.6,9.6,0,0,1-.144,1.353,8.019,8.019,0,0,1-.348,1.3,4.705,4.705,0,0,1-.255.563,5.081,5.081,0,0,1-.028-.642,8.33,8.33,0,0,1,.154-1.35,9.2,9.2,0,0,1,.358-1.293A5.792,5.792,0,0,1,5234,3787.644Z" fill="#7a2158"/>
                    </g>
                    <g id="Group_37306" data-name="Group 37306">
                      <path id="Path_41223" data-name="Path 41223" d="M5235.4,3787.985s.034.258.043.635a9.554,9.554,0,0,1-.088,1.359,8.285,8.285,0,0,1-.293,1.318,4.673,4.673,0,0,1-.232.577,5.518,5.518,0,0,1-.054-.638,8.442,8.442,0,0,1,.1-1.358,9.191,9.191,0,0,1,.3-1.314A5.932,5.932,0,0,1,5235.4,3787.985Z" fill="#7a2158"/>
                    </g>
                    <g id="Group_37307" data-name="Group 37307">
                      <path id="Path_41224" data-name="Path 41224" d="M5236.8,3788.24s.045.255.07.632a9.4,9.4,0,0,1-.032,1.362,8.19,8.19,0,0,1-.237,1.334,4.962,4.962,0,0,1-.207.591,5.19,5.19,0,0,1-.08-.634,8.449,8.449,0,0,1,.042-1.363,9.178,9.178,0,0,1,.248-1.33A6.222,6.222,0,0,1,5236.8,3788.24Z" fill="#7a2158"/>
                    </g>
                    <g id="Group_37308" data-name="Group 37308">
                      <path id="Path_41225" data-name="Path 41225" d="M5238.218,3788.411a6.241,6.241,0,0,1,.1.626,9.625,9.625,0,0,1,.025,1.363,8.524,8.524,0,0,1-.182,1.346,5.015,5.015,0,0,1-.183.6,5.232,5.232,0,0,1-.106-.629,8.31,8.31,0,0,1-.014-1.364,9.493,9.493,0,0,1,.193-1.343C5238.133,3788.65,5238.219,3788.411,5238.218,3788.411Z" fill="#7a2158"/>
                    </g>
                    <g id="Group_37309" data-name="Group 37309">
                      <path id="Path_41226" data-name="Path 41226" d="M5239.636,3788.5a6.194,6.194,0,0,1,.121.621,9.576,9.576,0,0,1,.082,1.36,8.434,8.434,0,0,1-.127,1.354,5.118,5.118,0,0,1-.157.614,5.269,5.269,0,0,1-.132-.622,8.573,8.573,0,0,1-.07-1.361,9.665,9.665,0,0,1,.137-1.353C5239.561,3788.74,5239.637,3788.5,5239.636,3788.5Z" fill="#7a2158"/>
                    </g>
                    <g id="Group_37310" data-name="Group 37310">
                      <path id="Path_41227" data-name="Path 41227" d="M5241.056,3788.5a6.289,6.289,0,0,1,.146.613,9.384,9.384,0,0,1,.137,1.353,8.4,8.4,0,0,1-.07,1.361,5.187,5.187,0,0,1-.131.621,4.776,4.776,0,0,1-.158-.613,8.387,8.387,0,0,1-.126-1.354,9.445,9.445,0,0,1,.081-1.36A6.266,6.266,0,0,1,5241.056,3788.5Z" fill="#7a2158"/>
                    </g>
                    <g id="Group_37311" data-name="Group 37311">
                      <path id="Path_41228" data-name="Path 41228" d="M5242.474,3788.411s.085.239.171.6a9.275,9.275,0,0,1,.194,1.343,8.586,8.586,0,0,1-.015,1.364.326.326,0,1,1-.288.026,8.3,8.3,0,0,1-.182-1.346,9.481,9.481,0,0,1,.025-1.363C5242.419,3788.663,5242.474,3788.411,5242.474,3788.411Z" fill="#7a2158"/>
                    </g>
                    <g id="Group_37312" data-name="Group 37312">
                      <path id="Path_41229" data-name="Path 41229" d="M5243.888,3788.24s.095.234.2.592a9.048,9.048,0,0,1,.248,1.33,8.293,8.293,0,0,1,.043,1.363,5.074,5.074,0,0,1-.08.634,4.843,4.843,0,0,1-.208-.591,8.3,8.3,0,0,1-.237-1.334,9.316,9.316,0,0,1-.031-1.362A6.292,6.292,0,0,1,5243.888,3788.24Z" fill="#7a2158"/>
                    </g>
                    <g id="Group_37313" data-name="Group 37313">
                      <path id="Path_41230" data-name="Path 41230" d="M5245.295,3787.985a5.8,5.8,0,0,1,.221.579,9,9,0,0,1,.3,1.314,8.442,8.442,0,0,1,.1,1.358,4.944,4.944,0,0,1-.054.638,4.87,4.87,0,0,1-.232-.577,8.364,8.364,0,0,1-.293-1.318,9.4,9.4,0,0,1-.087-1.359A6.139,6.139,0,0,1,5245.295,3787.985Z" fill="#7a2158"/>
                    </g>
                    <g id="Group_37314" data-name="Group 37314">
                      <path id="Path_41231" data-name="Path 41231" d="M5246.693,3787.644a5.792,5.792,0,0,1,.245.566,9.006,9.006,0,0,1,.358,1.293,8.457,8.457,0,0,1,.155,1.35,5,5,0,0,1-.029.642,4.79,4.79,0,0,1-.256-.563,8.185,8.185,0,0,1-.346-1.3,9.457,9.457,0,0,1-.144-1.353C5246.67,3787.9,5246.693,3787.644,5246.693,3787.644Z" fill="#7a2158"/>
                    </g>
                  </g>
                </g>
                <g id="Group_37317" data-name="Group 37317">
                  <path id="Path_41232" data-name="Path 41232" d="M5231.325,3791.442a25.3,25.3,0,0,0,18,0S5241.5,3795.949,5231.325,3791.442Z" fill="#7a2158"/>
                </g>
              </g>
              <path id="Path_41233" data-name="Path 41233" d="M5227.431,3795.186l-14.665,4.69s-4.444,11.089,3.35,17.979v62.109l20.7,1.42.4-38.058s-8.635-8.186-9.671-25.471S5227.431,3795.186,5227.431,3795.186Z" fill="#252430"/>
              <path id="Path_41234" data-name="Path 41234" d="M5231.325,3791.442s-9.938,15.682,5.882,51.884l-.044,4.212s-23.416-42.808-17.205-51.816C5219.958,3795.722,5222.285,3790.226,5231.325,3791.442Z" fill="#1d1d1e"/>
              <path id="Path_41235" data-name="Path 41235" d="M5256.529,3795.186l14.665,4.69s4.444,11.089-3.35,17.979l-.942,61.943-19.754,1.586-.4-38.058s8.635-8.186,9.671-25.471S5256.529,3795.186,5256.529,3795.186Z" fill="#252430"/>
              <path id="Path_41236" data-name="Path 41236" d="M5249.321,3791.442s13.252,15.682-2.568,51.884l.044,4.212s23.416-42.808,17.205-51.816A18.516,18.516,0,0,0,5249.321,3791.442Z" fill="#1d1d1e"/>
              <g id="Group_37322" data-name="Group 37322">
                <g id="Group_37319" data-name="Group 37319">
                  <path id="Path_41237" data-name="Path 41237" d="M5241.042,3764.469s3.468-.341,3.957.288,1.7,4.4-.758,5.526a3.221,3.221,0,0,1-4.454-3.246C5240,3764.987,5241.042,3764.469,5241.042,3764.469Z" fill="#3a3a3a"/>
                  <path id="Path_41238" data-name="Path 41238" d="M5241.042,3764.469s3.468-.341,3.957.288a2.841,2.841,0,0,1,.338.692c-.2.263-.415.474-.6.485a18.493,18.493,0,0,1-3.671-.326,1.718,1.718,0,0,1-.467-.758A1.617,1.617,0,0,1,5241.042,3764.469Z" fill="#fff"/>
                  <path id="Path_41239" data-name="Path 41239" d="M5244.057,3768.243a2.192,2.192,0,0,1,.847,1.6,2.452,2.452,0,0,1-.663.444,3.169,3.169,0,0,1-4.355-2.175C5240.887,3766.949,5242.9,3767.388,5244.057,3768.243Z" fill="#e33333"/>
                  <path id="Path_41240" data-name="Path 41240" d="M5244.057,3768.243a1.965,1.965,0,0,1,.548.623c-1.177-.745-3-1.058-3.935.026a3.475,3.475,0,0,0,.545,1.112,3.527,3.527,0,0,1-1.329-1.9C5240.887,3766.949,5242.9,3767.388,5244.057,3768.243Z" fill="#d11a1a"/>
                </g>
                <g id="Group_37320" data-name="Group 37320">
                  <path id="Path_41241" data-name="Path 41241" d="M5235.321,3746.329a3.142,3.142,0,1,1-3.138-2.969A3.057,3.057,0,0,1,5235.321,3746.329Z" fill="#231f20"/>
                  <path id="Path_41242" data-name="Path 41242" d="M5233.121,3745.669a.82.82,0,0,1-.011,1.106c-.4.444.256,1.1.658.658a1.735,1.735,0,0,0,.157-2.233.482.482,0,0,0-.637-.167.468.468,0,0,0-.167.636Z" fill="#fff"/>
                </g>
                <g id="Group_37321" data-name="Group 37321">
                  <path id="Path_41243" data-name="Path 41243" d="M5254.924,3746.329a3.142,3.142,0,1,1-3.139-2.969A3.057,3.057,0,0,1,5254.924,3746.329Z" fill="#231f20"/>
                  <path id="Path_41244" data-name="Path 41244" d="M5252.724,3745.669a.82.82,0,0,1-.011,1.106c-.4.444.256,1.1.658.658a1.735,1.735,0,0,0,.156-2.233.481.481,0,0,0-.636-.167.467.467,0,0,0-.167.636Z" fill="#fff"/>
                </g>
              </g>
              <g id="Group_37323" data-name="Group 37323">
                <path id="Path_41245" data-name="Path 41245" d="M5298.934,3754.228c.1-.044,1.572-.608,1.664-.67.891-.6.7-1.55.195-2.445l-2.74-8.108a1.9,1.9,0,0,0-.537-.848,1.961,1.961,0,0,0-2.247-.217l-10.29,6.87a2.139,2.139,0,0,0-.763.944,2.634,2.634,0,0,0,.341,2.711l2.081,3.674c1,2.172,2.2,2.107,3.148,1.571Z" fill="#f9b180"/>
              </g>
              <path id="Path_41246" data-name="Path 41246" d="M5286.318,3751.463l-.757.061a.881.881,0,0,1-.946-.8l-.908-5.822a.88.88,0,0,1,.805-.945l1.633-.132a.881.881,0,0,1,.945.8l.033,5.892A.88.88,0,0,1,5286.318,3751.463Z" fill="#e28f56"/>
              <path id="Path_41247" data-name="Path 41247" d="M5291.631,3765.988c-.067-.135-4.631-12.877-4.631-12.877l8.014,2.5,3.4,9.113Z" fill="#f9b180"/>
              <path id="Path_41248" data-name="Path 41248" d="M5269.527,3800.852l1.793-.976s17.056,8.286,25.487,1.21c5.588-4.69-9.277-38.564-9.277-38.564l10.189-1.5s15.971,34.815,9.076,47.147-38.825,9.684-38.825,9.684Z" fill="#252430"/>
              <g id="Group_37324" data-name="Group 37324">
                <path id="Path_41249" data-name="Path 41249" d="M5185.3,3753.988c-.1-.045-1.571-.609-1.663-.671-.892-.6-.7-1.55-.2-2.445l2.739-8.108a1.917,1.917,0,0,1,.537-.848,1.962,1.962,0,0,1,2.248-.217l10.289,6.871a2.124,2.124,0,0,1,.764.944,2.635,2.635,0,0,1-.341,2.71l-2.081,3.674c-1,2.173-2.205,2.107-3.148,1.571Z" fill="#f9b180"/>
              </g>
              <path id="Path_41250" data-name="Path 41250" d="M5197.919,3751.222l.758.061a.881.881,0,0,0,.946-.8l.908-5.822a.881.881,0,0,0-.8-.945l-1.633-.131a.88.88,0,0,0-.946.8l-.033,5.892A.881.881,0,0,0,5197.919,3751.222Z" fill="#e28f56"/>
              <path id="Path_41251" data-name="Path 41251" d="M5192.606,3765.747c.068-.134,4.631-12.877,4.631-12.877l-8.013,2.5-3.4,9.113Z" fill="#f9b180"/>
              <path id="Path_41252" data-name="Path 41252" d="M5214.711,3800.611l-1.793-.976s-17.056,8.287-25.487,1.21c-5.588-4.69,9.277-38.563,9.277-38.563l-10.19-1.5s-15.971,34.815-9.075,47.147,38.825,9.684,38.825,9.684Z" fill="#252430"/>
            </g>
            <g id="Group_37326" data-name="Group 37326">
              <path id="Path_41253" data-name="Path 41253" d="M5244.523,3751.706a12.869,12.869,0,0,1-1.341-2.346c-.48-1.178-1.059-1.559-2.163-1.114s-1.614,9.558,4.546,10.247,5.37-3.623,4.562-4.652S5246.673,3754.582,5244.523,3751.706Z" fill="#e28f56"/>
              <path id="Path_41254" data-name="Path 41254" d="M5245.783,3758.017c-5.3-.593-5.661-7.426-4.954-9.6-.95,1.337-1.055,9.428,4.736,10.076,3.244.362,4.559-.662,4.961-1.863C5249.948,3757.607,5248.587,3758.33,5245.783,3758.017Z" fill="#c97236"/>
            </g>
          </g>
        </g>
      </g>
    </g>
  </g>
</svg>
