<svg height="176" viewBox="0 0 176 176" width="176" xmlns="http://www.w3.org/2000/svg" xmlns:xlink="http://www.w3.org/1999/xlink"><clipPath id="a"><path d="m0 0h176v176h-176z"/></clipPath><g clip-path="url(#a)"><path d="m0 0h176v176h-176z" fill="none"/><g transform="translate(-211.168 -90.523)"><path d="m283.311 121.665s-25.069-16.822-41.739 2.067-.141 40.158-6.336 53.628-23.861 11.223-20.691 37.181c4.3 35.214 93.291 40.284 140.24 24.032s29.932-44.073 20.279-53.773c-10.1-10.154 8.713-25.443-11.029-42.446-16.571-14.271-49.961-2.59-80.724-20.689z" fill="#6d31ff"/><path d="m873.724 664.46c5.1.126 4.647 1.36 4.647 1.36-.434 3.123 3.876 7.795 4.787 5.043s-1.084-11.231-7.81-12.565-6.1 3.1-6.1 3.1" fill="#1c1c1c" transform="translate(-521.331 -432.372)"/><path d="m533.819 456.257s-4.618 21.86 2.511 30.878c0 0-4.964 4.467-4.721 9.112.253 4.841 13.219-5.807 46.3 1.83 0 0 13.31-43.4-5.271-61.783s-34.618-.581-34.618-.581z" fill="#191919" transform="translate(-252.628 -249.264)"/><path d="m476 353.049c-6.384 22.143-4.872 64.3.688 84.539-5.532 2.566-5.355 5.132-4.772 5.472 1.548.9 11.546 1.394 12.186-.64s1.763-32.923 1.763-32.923l2.628-47.216z" fill="#262626" transform="translate(-204.907 -189.638)"/><path d="m493.581 358.369s-5.813 21.543.524 36.569l.381-2.082 1.7 8.01 1.022-5.113 2.973 7.151.551-4.164 3.4 5.793 1-1.72 1.106 2.716.911-2.082 1.229 2.488.578-1.854s1.991 3.259 3.349 5.25l1.638-2.716 1.133 3.168 1.755-2.535 8.167-28.513 2.678-17.845z" fill="#191919" transform="translate(-220.433 -193.872)"/><path d="m498.414 513.7-1.284-2.8a33.613 33.613 0 0 0 1.737 5.431l.381-2.082 1.7 8.01 1.022-5.113 2.973 7.151.452-3.412-1.224 1.24-1.239-8.147-2.578 1.81v-3.44z" fill="#494949" transform="translate(-225.195 -315.261)"/><path d="m551.79 516.245a22.065 22.065 0 0 1 -.464 7.061l-.643-3.349-1.439 4.406-.516-3.546-2.5 7.649-.2-3.349-2.017 3.349-1.154-4.1-1.057 4.1-2.182-4.1-.342.347 3.159 5.385 1-1.72 1.106 2.716.911-2.082.316.64.468-.55.608 1.875.415-1.332s.158.258.414.673l.818-3.887.244 3.3s3.758-4.421 4.921-8.221a24.587 24.587 0 0 0 -1.849-5.365c-.007.031-.013.065-.017.1z" fill="#494949" transform="translate(-258.737 -319.434)"/><path d="m702.606 337.48.905-1.539c1.309 3.472 8.258 25.013 16.2 37.112 9.183 13.986 22.878 28.988 20.638 41.819s-16.481 13.822-22.675 13.781c-9.075-.06-15.722 3.425-17.351-.241s12.056-8.109 12.056-8.109-7.249-5.091-2.851-29.735c3.566-19.968-6.922-53.088-6.922-53.088z" fill="#262626" transform="translate(-386.802 -176.023)"/><path d="m649.5 372.534s15.751 7.536 15.955 24.032 12.016 8.729 12.016 8.729l1.426-16.876s-16.454-31.24-19.235-44.942l-14.852 2.73z" fill="#262626" transform="translate(-342.724 -182.021)"/><path d="m708.743 777.73s-2.057.934-1.757 1.434 2.606-.917 2.643-1.316c.055-.586-.886-.118-.886-.118z" fill="#494949" transform="translate(-392.187 -527.48)"/><path d="m711.229 784.977s-2.225.394-2.058.953 2.752-.241 2.887-.618c.199-.554-.829-.335-.829-.335z" fill="#494949" transform="translate(-393.942 -533.354)"/><path d="m609.693 367.59c-6.384 22.143-2.285 61.329 3.275 81.57-5.532 2.566-5.355 5.132-4.772 5.472 1.548.9 11.546 1.393 12.187-.64s1.762-32.923 1.762-32.923l4.007-39.612-5.25-12.164z" fill="#262626" transform="translate(-312.201 -201.211)"/><g fill="#494949"><path d="m624.109 779.538s-2.057.934-1.756 1.434 2.606-.917 2.643-1.316c.055-.585-.887-.118-.887-.118z" transform="translate(-324.831 -528.92)"/><path d="m626.6 786.786s-2.225.393-2.058.953 2.753-.241 2.887-.618c.194-.554-.829-.335-.829-.335z" transform="translate(-326.586 -534.794)"/><path d="m480.808 778.511s-2.057.934-1.756 1.434 2.606-.917 2.643-1.316c.055-.586-.887-.118-.887-.118z" transform="translate(-210.784 -528.102)"/><path d="m483.294 785.759s-2.225.393-2.058.953 2.753-.241 2.887-.618c.199-.554-.829-.335-.829-.335z" transform="translate(-212.539 -533.977)"/></g><path d="m476.419 116.864c-16.881-3.29-34.4 3.3-35.7 16.832-.918 9.539 1.777 13.032.3 18.851s-2.634 13.093 7.69 16.651 31.894 4.208 43.938-1.808 2.2-16.273 3.238-23.141 1.54-23.29-19.466-27.385z" fill="#383838" transform="translate(-179.773 -1.005)"/><path d="m472.1 210.074c-2.414.265-2.211-2.208-2.994-5.174s-5.079-6.988-10.632-3.637-6.242 6.875-4.634 12.4 6.841 3.466 6.427 6.571-2.756 9.456 1.823 13.145c6.272 5.053 19.7 5.058 29.162.765 5.023-2.28.649-11.152 2.036-12.577s10.354-.363 10.212-8.188-5.951-11.956-11.568-10.743-6.264 3.847-6.393 7.152c-.079 2.014-1.754 1.981-2.649 1.567a23.228 23.228 0 0 0 -10.79-1.281z" fill="#303030" transform="translate(-190.137 -67.831)"/><path d="m529.324 294.436c-2.94 4.435 12.5 5.739 13.859 2.234s-5.325-12.909-6.337-12.688-5.646 6.499-7.522 10.454z" transform="translate(-250.521 -134.668)"/><path d="m541.682 335.054a1.756 1.756 0 0 0 1.114 2.072c1.488.54 6.294.833 7.188.188s.374-2.157.374-2.157z" fill="#191919" transform="translate(-260.618 -175.317)"/><path d="m479.341 221.039a6.072 6.072 0 1 1 -6.441-5.984 6.221 6.221 0 0 1 6.441 5.984z" fill="#fff" transform="translate(-201.392 -79.807)"/><path d="m410.117 141.271c-1.849-2.576-5.038-4.819-8.395 2.094-2.562 5.277-8.1 5.673-7.436 9.754s6.07 3.6 8.173 8.015 5.43-2.347 4.492-8.352 1.526-9.692 1.526-9.692z" fill="#1c1c1c" transform="translate(-143.303 -19.096)"/><path d="m680.989 138.172c1.893-2.544 5.12-4.731 8.357 2.239 2.471 5.321 8.005 5.813 7.266 9.881s-6.131 3.493-8.31 7.872-5.388-2.441-4.347-8.429-1.358-9.716-1.358-9.716z" fill="#1c1c1c" transform="translate(-371.52 -16.68)"/><path d="m639.713 231.919a6.072 6.072 0 1 1 -6.441-5.985 6.221 6.221 0 0 1 6.441 5.985z" fill="#fff" transform="translate(-329.025 -88.466)"/><path d="m644.274 240.046a4.511 4.511 0 1 1 -4.778-4.228 4.511 4.511 0 0 1 4.778 4.228z" transform="translate(-335.126 -96.333)"/><path d="m494.386 261.283c-4.041 1.013-12.46 6.587-12.572 11.892a6.393 6.393 0 0 0 9.186 6.167c4.21-2.022 7.382-12.416 8.381-14.053-1.105-2.127-4.995-4.006-4.995-4.006z" fill="#191919" transform="translate(-213.004 -116.606)"/><path d="m565.859 268.69c.224 1.755 3.258 6.8 4.429 10.392s4.844 5.427 9.2 3.457 6.152-6.529 2.218-10.879-9.239-6.975-10.657-6.614c-1.485.423-5.19 3.644-5.19 3.644z" fill="#191919" transform="translate(-279.893 -119.575)"/><path d="m459.679 197.273c.046-.157.582-.115 1.389-.129a8.092 8.092 0 0 0 2.995-.632 11.883 11.883 0 0 0 2.659-1.645c.648-.507 1.06-.857 1.191-.753.111.087-.076.611-.631 1.314a7.216 7.216 0 0 1 -2.781 2.116 6.136 6.136 0 0 1 -1.912.48 5.657 5.657 0 0 1 -1.6-.091c-.889-.2-1.353-.523-1.31-.66z" transform="translate(-195.388 -63.136)"/><path d="m657.685 206.606c.134-.1.487.193 1.037.6a10.87 10.87 0 0 0 2.278 1.283 13.457 13.457 0 0 0 2.534.742c.676.138 1.123.217 1.14.377s-.423.353-1.185.414a6.467 6.467 0 0 1 -2.918-.5 5.945 5.945 0 0 1 -2.4-1.757 3.052 3.052 0 0 1 -.461-.782c-.079-.201-.088-.332-.025-.377z" transform="translate(-352.94 -73.077)"/><path d="m542.236 252.19s-.016-2.111 4.515-1.843 5.772 1.642 6.071 2.485-.383 5.107-5.676 4.753a4.98 4.98 0 0 1 -4.91-5.395z" transform="translate(-261.088 -107.884)"/><path d="m554.455 261.766s-.171-1.908-1.795-1.6c-1.119.215-.256 3.479.757 3.819s1.083-1.241 1.038-2.219z" fill="#262626" transform="translate(-268.97 -115.693)"/><path d="m572.243 262.3s.27-1.9 1.876-1.5c1.106.273.074 3.488-.956 3.774s-1.014-1.303-.92-2.274z" fill="#262626" transform="translate(-284.942 -116.176)"/><path d="m572.719 277.591s-1.1 4.612.289 4.964 1.1-5.672.73-5.931-.852.147-1.019.967z" fill="#00aeef" transform="translate(-285.023 -128.753)"/><path d="m574.424 276.625c-.219-.151-.473-.073-.679.18.206 1.435.211 4.682-.577 5.2a.805.805 0 0 0 .527.55c1.391.353 1.105-5.671.729-5.93z" fill="#48cff9" transform="translate(-285.71 -128.755)"/><path d="m568.353 252.694s2.411.011 3.333.782c0 0 .051.523-1.443.156s-2.122-.438-1.89-.938z" fill="#161616" transform="translate(-281.841 -109.771)"/><path d="m545.193 317.235s-.585-1.027.373-3.613a12.156 12.156 0 0 0 1.913 3.45 3.634 3.634 0 0 1 -2.286.163z" fill="#fbfbf9" transform="translate(-263.306 -158.26)"/><path d="m552.751 319.713-.709 2.18a2.147 2.147 0 0 0 2.153.2z" fill="#fbfbf9" transform="translate(-268.897 -163.108)"/><path d="m540.133 327.257a45.809 45.809 0 0 0 8.1.172.975.975 0 0 1 .909.419.978.978 0 0 1 -.648 1.519 32.45 32.45 0 0 1 -8.614-.11.98.98 0 0 1 -.63-1.616l.046-.053a.975.975 0 0 1 .837-.331z" fill="#262626" transform="translate(-258.526 -169.108)"/><circle cx="1.463" cy="1.463" fill="#fff" r="1.463" transform="translate(303.172 140.169)"/><circle cx=".926" cy=".926" fill="#fff" r=".926" transform="translate(306.366 142.317)"/><circle cx="1.508" cy="1.508" fill="#fff" r="1.508" transform="translate(304.216 144.415)"/><path d="m483.852 228.512a4.511 4.511 0 1 1 -4.778-4.228 4.511 4.511 0 0 1 4.778 4.228z" transform="translate(-207.454 -87.154)"/><circle cx="1.463" cy="1.463" fill="#fff" r="1.463" transform="translate(270.422 137.815)"/><circle cx=".926" cy=".926" fill="#fff" r=".926" transform="translate(273.616 139.962)"/><circle cx="1.508" cy="1.508" fill="#fff" r="1.508" transform="translate(271.466 142.06)"/><path d="m652.93 281.81s-.435-1.031.081-1.309 2.892.156 4.188-1.024 2.687 2.6 1.921 3.1-1.3-.7-1.673-.147 2 2.906.595 3.615-1.9-2.572-2.656-2.37.419 1.466-.371 1.989-2.085-3.854-2.085-3.854z" fill="#00aeef" transform="translate(-349.052 -130.906)"/><path d="m674.732 279.452c.828.635 1.4 2.6.949 3.079a.8.8 0 0 0 .926.06c.757-.491-.592-4.191-1.875-3.139z" fill="#48cff9" transform="translate(-366.54 -130.918)"/><path d="m659.747 300.863c-.587.156-.02.946-.095 1.538.25.386.5.6.709.46.41-.271.289-.741.185-1.16-.269-.501-.516-.913-.799-.838z" fill="#48cff9" transform="translate(-354.399 -148.1)"/><path d="m671.689 294.4c-.4-.175-.709-.554-.948-.193-.358.541 1.854 2.765.712 3.546a.764.764 0 0 0 .868.078c1.279-.647-.581-2.662-.632-3.431z" fill="#48cff9" transform="translate(-363.332 -142.69)"/><path d="m921.622 670.446c1.664-2.95 6.135-.549 7.309 2.65-3.418-1.281-5.089 1.1-5.073 2.425" fill="#191919" transform="translate(-563.028 -441.175)"/></g></g></svg>