<svg id="Grupo_2456" data-name="Grupo 2456" xmlns="http://www.w3.org/2000/svg" width="176" height="176" viewBox="0 0 176 176">
  <rect id="Rectángulo_1872" data-name="Rectángulo 1872" width="176" height="176" fill="none"/>
  <g id="Grupo_34315" data-name="Grupo 34315" transform="translate(-31.126 -39.008)">
    <path id="Trazado_36713" data-name="Trazado 36713" d="M563.263,67.76a7.514,7.514,0,0,1,2.411-7.529c3.739-3.526-4.167-10.7-4.167-10.7l-6.379,1.861-5.095,7.246Z" transform="translate(-410.256 -8.288)" fill="#4c4247"/>
    <path id="Trazado_36714" data-name="Trazado 36714" d="M551.639,48.575c-3.306-1.629-5.188,1.963-5.188,1.963l-4.759-1.417s6.793-10.229,12.283-10.112,5.765,8.461,9.177,12.328" transform="translate(-403.686 0)" fill="#1c1c1c"/>
    <path id="Trazado_36715" data-name="Trazado 36715" d="M95.042,165.979s-23.615-15.847-39.318,1.947-.133,37.828-5.968,50.517-22.477,10.572-19.491,35.024c4.05,33.171,87.88,37.947,132.1,22.638s28.2-41.514,19.1-50.653c-9.517-9.565,8.207-23.967-10.389-39.984C155.473,172.025,124.02,183.028,95.042,165.979Z" transform="translate(8.317 -77.671)" fill="#6d31ff"/>
    <path id="Trazado_36716" data-name="Trazado 36716" d="M333.252,330.6l4.869,84.352s9.27-2,10.4,2.8S340.8,423.686,327.062,425c0,0-6.212,1.035-7.906-2.73s-5.835-7.623-14.023-6.306-16.282,7.529-16.282,7.529l-26.07-5.459-4.8-25.505s2.1-33.309,5.27-51.858a69.046,69.046,0,0,1,13.661-30.725Z" transform="translate(-180.197 -213.43)" fill="#262626"/>
    <path id="Trazado_36717" data-name="Trazado 36717" d="M461.479,586.671l1.43,11.294,2.8-4.538.892,4.538,1.975-4.538,2.473,3.776.878-3.8,2.265,3.8,1.124-3.776,1.976,3.776,1.832-4.884,1.7,3.671,1.412-5.929,3.192,5.365.777-15.247Z" transform="translate(-340.499 -426.297)" fill="#383838"/>
    <path id="Trazado_36718" data-name="Trazado 36718" d="M461.479,586.671l1.43,11.294,2.8-4.538.892,4.538,1.975-4.538,2.473,3.776.878-3.8,2.265,3.8,1.124-3.776,1.976,3.776,1.832-4.884,1.7,3.671,1.412-5.929,3.192,5.365.777-15.247Z" transform="translate(-340.499 -426.297)" fill="#383838"/>
    <path id="Trazado_36719" data-name="Trazado 36719" d="M467.814,574.555l1.256,9.917,2.458-3.985.783,3.985,1.734-3.985,2.171,3.316.771-3.338,1.989,3.338.987-3.316L481.7,583.8l1.608-4.289,1.491,3.223,1.24-5.207,2.8,4.711.683-13.389Z" transform="translate(-345.489 -417.377)" fill="#494949"/>
    <path id="Trazado_36720" data-name="Trazado 36720" d="M245.717,337.9s-19.38,60.463-18.109,84.039S235,450.452,250.29,450.452s23.764-.565,23.905-5.223-10.87-7.623-17.506-5.929c0,0,2.682-18.353-11.435-20.753S245.717,337.9,245.717,337.9Z" transform="translate(-156.223 -235.443)" fill="#191919"/>
    <g id="Grupo_34312" data-name="Grupo 34312" transform="translate(101.354 143.815)">
      <path id="Trazado_36721" data-name="Trazado 36721" d="M369.021,541.355s0,56.106,11.368,55.259c10.659-.794,10.134-31.927,6.3-57.882C384.5,523.909,369.021,541.355,369.021,541.355Z" transform="translate(-369.021 -532.761)" fill="#191919"/>
      <path id="Trazado_36722" data-name="Trazado 36722" d="M408.4,790.016s.3,5.862,1.793,5.612.265-7.173-.664-7.643C408.166,787.3,408.4,790.016,408.4,790.016Z" transform="translate(-400.029 -733.721)" fill="#494949"/>
      <path id="Trazado_36723" data-name="Trazado 36723" d="M425.769,788.716s-1.168,5.753.343,5.882,2.04-6.883,1.257-7.568C426.218,786.023,425.769,788.716,425.769,788.716Z" transform="translate(-413.384 -732.88)" fill="#494949"/>
    </g>
    <g id="Grupo_34313" data-name="Grupo 34313" transform="translate(144.926 139.002)">
      <path id="Trazado_36724" data-name="Trazado 36724" d="M574.33,518.386s-1.279,56.091,10.107,55.5c10.674-.551,10.859-31.688,7.619-57.723C590.206,501.3,574.33,518.386,574.33,518.386Z" transform="translate(-574.287 -510.088)" fill="#191919"/>
      <path id="Trazado_36725" data-name="Trazado 36725" d="M608.77,766.853s.164,5.868,1.665,5.651.429-7.166-.489-7.656C608.6,764.128,608.77,766.853,608.77,766.853Z" transform="translate(-601.445 -710.676)" fill="#494949"/>
      <path id="Trazado_36726" data-name="Trazado 36726" d="M625.821,766.017s-1.3,5.724.209,5.888,2.2-6.834,1.429-7.538C626.331,763.335,625.821,766.017,625.821,766.017Z" transform="translate(-614.473 -710.206)" fill="#494949"/>
    </g>
    <path id="Trazado_36727" data-name="Trazado 36727" d="M306.293,63.113c21.1-6.405,44.442-1.1,48.056,14.878,2.549,11.263-.393,15.831,2.34,22.566s5.253,15.257-7.429,21.021-40.16,9.7-56.422,4.28-6.857-18.358-9.17-26.413S280.033,71.084,306.293,63.113Z" transform="translate(-199.537 -16.901)" fill="#383838"/>
    <path id="Trazado_36728" data-name="Trazado 36728" d="M376.318,164.175c2.571-.311,2.772-3.61,3.769-5.856,1.62-3.649,7.368-6.357,13.364-4.318,5.045,1.715,6.133,6.292,4.8,12.28s-6.071,4.75-5.421,8.025,3.571,9.874-1.05,14.108c-6.33,5.8-20.621,6.714-30.973,2.786-5.5-2.086-1.444-11.821-3.017-13.242s-10.22-.384-10.6-8.718,4.634-11.457,10.76-11.514c6.472-.061,8.524,2.262,9.511,5.647.577,1.98,2.074,1.659,3.111,1.488C373.269,164.417,371.431,164.767,376.318,164.175Z" transform="translate(-250.453 -90.032)" fill="#303030"/>
    <path id="Trazado_36729" data-name="Trazado 36729" d="M473.866,281.615c4.893,5.532-16.08,10.289-18.623,5.733s4.841-18.767,6.275-18.658S470.521,276.54,473.866,281.615Z" transform="translate(-335.17 -180.927)"/>
    <path id="Trazado_36730" data-name="Trazado 36730" d="M249.456,89.124c-2-3.427-6.489-7.734-11.484.485-3.812,6.275-10.765,6.117-10.411,11.28s7.14,5.2,9.241,10.947,7.042-2.287,6.579-9.879S247.2,91.2,247.2,91.2Z" transform="translate(-156.224 -36.141)" fill="#1c1c1c"/>
    <path id="Trazado_36731" data-name="Trazado 36731" d="M367.344,192.23a7.438,7.438,0,1,0,6.8-8.352A7.621,7.621,0,0,0,367.344,192.23Z" transform="translate(-266.326 -114.101)" fill="#fff"/>
    <path id="Trazado_36732" data-name="Trazado 36732" d="M376.388,201.453a5.526,5.526,0,1,0,5.08-5.939A5.526,5.526,0,0,0,376.388,201.453Z" transform="translate(-273.457 -123.272)"/>
    <path id="Trazado_36733" data-name="Trazado 36733" d="M156.119,673.527c-4.62,2.44-8.419-4.4-7.275-9.534,3.367,4.512,7.523,2.813,8.605,1.083" transform="translate(-94.064 -492.322)" fill="#191919"/>
    <path id="Trazado_36734" data-name="Trazado 36734" d="M190.492,654.139c-6.519-4.42-4.9-5.64-4.9-5.64,3.168-3.692,1.47-13.348-2.006-10.537s-7.96,15.479-.344,22.819,10.505,1.068,10.505,1.068" transform="translate(-118.039 -471.418)" fill="#1c1c1c"/>
    <path id="Trazado_36735" data-name="Trazado 36735" d="M402.3,207.9a.96.96,0,0,0,.824-1.014,4.009,4.009,0,0,0-2.953-3.779.96.96,0,0,0-.419,1.874,2.072,2.072,0,0,1,1.456,2.032.96.96,0,0,0,1.021.895Z" transform="translate(-291.288 -129.251)" fill="#fff"/>
    <path id="Trazado_36736" data-name="Trazado 36736" d="M504.471,173.055a7.438,7.438,0,1,0,6.8-8.352A7.621,7.621,0,0,0,504.471,173.055Z" transform="translate(-374.346 -98.996)" fill="#fff"/>
    <path id="Trazado_36737" data-name="Trazado 36737" d="M513.514,182.278a5.526,5.526,0,1,0,5.08-5.939A5.526,5.526,0,0,0,513.514,182.278Z" transform="translate(-381.475 -108.167)"/>
    <path id="Trazado_36738" data-name="Trazado 36738" d="M539.427,188.728a.96.96,0,0,0,.824-1.014,4.009,4.009,0,0,0-2.953-3.779.96.96,0,0,0-.419,1.874,2.071,2.071,0,0,1,1.456,2.032.96.96,0,0,0,1.021.894Z" transform="translate(-399.307 -114.147)" fill="#fff"/>
    <path id="Trazado_36739" data-name="Trazado 36739" d="M136.034,629.38s6.829.121,8.688,5.469C144.722,634.849,144.8,625.767,136.034,629.38Z" transform="translate(-84.135 -464.387)" fill="#f7941d"/>
    <path id="Trazado_36740" data-name="Trazado 36740" d="M145.806,615.167s5.452-.532,7.425,3.557C153.231,618.725,152.458,611.481,145.806,615.167Z" transform="translate(-91.833 -453.036)" fill="#f7941d"/>
    <path id="Trazado_36741" data-name="Trazado 36741" d="M125.556,687.321s-5.477-1.713-5.711-6.464C119.845,680.857,117.633,688.161,125.556,687.321Z" transform="translate(-71.159 -505.606)" fill="#f7941d"/>
    <path id="Trazado_36742" data-name="Trazado 36742" d="M117.371,702.71s-4.521-.861-5.145-4.624C112.226,698.085,111.136,704.107,117.371,702.71Z" transform="translate(-65.323 -519.177)" fill="#f7941d"/>
    <path id="Trazado_36743" data-name="Trazado 36743" d="M476.659,305.25a63.577,63.577,0,0,1-11.105,1.792,1.353,1.353,0,0,0-1.169.751h0a1.358,1.358,0,0,0,1.183,1.964,45.039,45.039,0,0,0,11.82-1.805,1.36,1.36,0,0,0,.556-2.342l-.073-.064A1.356,1.356,0,0,0,476.659,305.25Z" transform="translate(-342.674 -209.697)" fill="#262626"/>
    <path id="Trazado_36744" data-name="Trazado 36744" d="M303.21,305.454s26.516-4.392,61.686-11.055c0,0,10.259-2.086,11.388,6.29,1.068,7.922,6.7,47.332,6.7,47.332s2.24,8.761-8.781,10.643c-10.255,1.752-60.319,9.412-60.319,9.412a9.927,9.927,0,0,1-10.675-8.47c-2.082-10.194-7.113-40.658-7.113-40.658S293.839,308.061,303.21,305.454Z" transform="translate(-210.034 -200.999)" fill="#f7c23e"/>
    <path id="Trazado_36745" data-name="Trazado 36745" d="M371.914,464.12l-36.142,32.647s2.967,5.66,8.9,5.212,62-9.641,62-9.641,9.1-1.028,7.755-10.44Z" transform="translate(-241.475 -334.875)" fill="#e5a81f" opacity="0.31"/>
    <path id="Trazado_36746" data-name="Trazado 36746" d="M295.922,317.485l42.159,19.922s4.564,2.259,7.67-1.318S375.946,298.8,375.946,298.8s-1.574-6.152-9.95-5.09S303.18,305,303.18,305a8.421,8.421,0,0,0-6.816,6.681A15.257,15.257,0,0,0,295.922,317.485Z" transform="translate(-210.003 -200.541)" fill="#e5a81f"/>
    <g id="Grupo_34314" data-name="Grupo 34314" transform="translate(106.927 78.607)">
      <path id="Trazado_36747" data-name="Trazado 36747" d="M489.448,235.122c5.075.544,16.233,5.88,17.269,12.3a7.832,7.832,0,0,1-10.1,9.038c-5.45-1.74-11.061-13.812-12.55-15.629C485.046,238.061,489.448,235.122,489.448,235.122Z" transform="translate(-465.221 -233.093)" fill="#191919"/>
      <path id="Trazado_36748" data-name="Trazado 36748" d="M415.864,248.514c.027,2.168-2.8,8.8-3.612,13.359s-4.957,7.406-10.577,5.754-8.57-6.878-4.535-12.823,10.027-10.027,11.808-9.83C410.824,245.234,415.864,248.514,415.864,248.514Z" transform="translate(-395.272 -240.848)" fill="#191919"/>
      <path id="Trazado_36749" data-name="Trazado 36749" d="M465.632,227.305s-.339-2.564-5.79-1.471-6.725,2.97-6.944,4.044,1.331,6.131,7.692,4.8S465.632,227.305,465.632,227.305Z" transform="translate(-440.65 -225.563)"/>
      <path id="Trazado_36750" data-name="Trazado 36750" d="M489.582,239s-.116-2.343,1.907-2.24c1.393.071.9,4.178-.271,4.761S489.7,240.2,489.582,239Z" transform="translate(-469.563 -234.384)" fill="#262626"/>
      <path id="Trazado_36751" data-name="Trazado 36751" d="M468.189,242.91s-.649-2.254-2.53-1.5c-1.3.519.5,4.244,1.8,4.417S468.469,244.077,468.189,242.91Z" transform="translate(-450.366 -237.925)" fill="#262626"/>
      <path id="Trazado_36752" data-name="Trazado 36752" d="M466.685,230.151s-2.923.422-3.911,1.514c0,0,.027.643,1.778-.055S467.051,230.718,466.685,230.151Z" transform="translate(-448.446 -229.177)" fill="#161616"/>
    </g>
    <path id="Trazado_36753" data-name="Trazado 36753" d="M339.664,152.876s1.807-3.843,8.223-4c0,0,1.059-.347.561-1.718s-4.049-1.246-6.6,0-4.921,4.6-4.3,6.258S339.664,152.876,339.664,152.876Z" transform="translate(-242.793 -84.417)" fill="#1c1c1c"/>
    <path id="Trazado_36754" data-name="Trazado 36754" d="M545.834,131.88s-2.464-3.459-8.806-2.471c0,0-1.1-.153-.858-1.59s3.762-1.949,6.5-1.179,5.665,3.65,5.347,5.389S545.834,131.88,545.834,131.88Z" transform="translate(-399.307 -68.749)" fill="#1c1c1c"/>
    <path id="Trazado_36755" data-name="Trazado 36755" d="M600.067,86.839c3.412,3.866-5.743,11.243-7.379,10.525s-.828-11.658-4.134-13.287" transform="translate(-440.6 -35.502)" fill="#1c1c1c"/>
  </g>
</svg>
