<svg xmlns="http://www.w3.org/2000/svg" xmlns:xlink="http://www.w3.org/1999/xlink" width="176" height="176" viewBox="0 0 176 176">
  <defs>
    <clipPath id="clip-path">
      <path id="Trazado_37160" data-name="Trazado 37160" d="M5808.9,937.327c-3.907-2.87,2.145-2.675,5.01-4.185.372-.173,3.3-9.26,2.59-9.575l-2.59-76.5H5685.795L5675.2,887.644c0,20.6,3.6,28.935,0,38.906-8.334,23.058,0,22.669,0,32.747,0,15.692,31,8.272,36.416,34.038,0,0,.379,18.35,30.42,18.35,20.159,0,22.345-5.039,34.325-25.576s19.483-5.895,30.8-15.878S5816.591,942.98,5808.9,937.327Z" transform="translate(-5671.498 -847.062)" fill="none"/>
    </clipPath>
  </defs>
  <g id="Group_37547" data-name="Group 37547" transform="translate(-6204.469 -400.457)">
    <rect id="Rectangle_1876" data-name="Rectangle 1876" width="176" height="176" transform="translate(6204.469 400.457)" fill="none"/>
    <g id="Grupo_3995" data-name="Grupo 3995" transform="translate(6171.469 280.457)">
      <rect id="Rectángulo_2130" data-name="Rectángulo 2130" width="146.667" height="176" transform="translate(48 120)" fill="none"/>
      <g id="Grupo_34851" data-name="Grupo 34851" transform="translate(51.305 129.471)">
        <path id="Trazado_37071" data-name="Trazado 37071" d="M5714.467,1034.313s.381,18.35,30.42,18.35c20.157,0,22.343-5.039,34.322-25.576s19.483-5.895,30.8-15.878,7.894-33.39-7.117-38.048c-27.518-8.539-25.105-13.675-42.884-26.416s-56.32-2.046-64.655,21.013-17.3,22.438-17.3,32.517C5678.052,1015.967,5709.048,1008.547,5714.467,1034.313Z" transform="translate(-5674.35 -888.039)" fill="#6d31ff"/>
        <g id="Grupo_34687" data-name="Grupo 34687" transform="translate(0)">
          <g id="Grupo_34686" data-name="Grupo 34686" clip-path="url(#clip-path)">
            <g id="Grupo_34685" data-name="Grupo 34685" transform="translate(22.998 0.185)">
              <g id="Grupo_34658" data-name="Grupo 34658" transform="translate(103.557 62.509)">
                <path id="Trazado_37072" data-name="Trazado 37072" d="M5902.735,955.83c.08-.053,1.239-.738,1.307-.8.667-.64.37-1.407-.186-2.089l-3.469-6.443a1.638,1.638,0,0,0-.573-.64,1.678,1.678,0,0,0-1.921.138l-7.693,7.264a1.838,1.838,0,0,0-.508.9,2.255,2.255,0,0,0,.677,2.24l2.278,2.8c1.157,1.688,2.161,1.461,2.88.874Z" transform="translate(-5889.621 -945.62)" fill="#f7af80"/>
              </g>
              <path id="Trazado_37073" data-name="Trazado 37073" d="M5891.992,956.562l-.611.218a.752.752,0,0,1-.96-.456l-2.039-4.606a.753.753,0,0,1,.456-.96l1.319-.471a.753.753,0,0,1,.96.454l1.332,4.859a.752.752,0,0,1-.457.962Z" transform="translate(-5785.602 -884.798)" fill="#e08d56"/>
              <path id="Trazado_37074" data-name="Trazado 37074" d="M5889.113,971.469c0-.128,1.383-11.619,1.383-11.619l5.171,4.979-.887,8.268Z" transform="translate(-5785.883 -888.291)" fill="#f7af80"/>
              <path id="Trazado_37075" data-name="Trazado 37075" d="M5729.917,1101.513l1.413,11.5,5.72-.447-2.544-15.813Z" transform="translate(-5727.983 -938.083)" fill="#f7af80"/>
              <path id="Trazado_37076" data-name="Trazado 37076" d="M5759.84,873.88l-2.9-2.473s-5.375,3.084-3.913,8.824,5.1,16.067,5.1,16.067l2.391.743,9.123-26.737Z" transform="translate(-5736.296 -855.723)" fill="#231f20"/>
              <g id="Grupo_34659" data-name="Grupo 34659" transform="translate(18.49 35.281)">
                <circle id="Elipse_750" data-name="Elipse 750" cx="3.337" cy="3.337" r="3.337" transform="translate(0 0)" fill="#e8a071"/>
                <circle id="Elipse_751" data-name="Elipse 751" cx="1.957" cy="1.957" r="1.957" transform="translate(1.379 1.379)" fill="#d18a5b"/>
              </g>
              <path id="Trazado_37077" data-name="Trazado 37077" d="M5821.081,871.332l.874,2.4s-2.4,12.822.768,17.073h2.308l2.1-15.4S5823.031,869.949,5821.081,871.332Z" transform="translate(-5761.139 -856.016)" fill="#231f20"/>
              <g id="Grupo_34660" data-name="Grupo 34660" transform="translate(59.321 31.943)">
                <circle id="Elipse_752" data-name="Elipse 752" cx="3.337" cy="3.337" r="3.337" transform="translate(0 0)" fill="#e8a071"/>
                <circle id="Elipse_753" data-name="Elipse 753" cx="1.957" cy="1.957" r="1.957" transform="translate(1.379 1.379)" fill="#d18a5b"/>
              </g>
              <path id="Trazado_37078" data-name="Trazado 37078" d="M5802.271,900.854l-.769-31.141s-2.13-13.273-22.663-12.276-19.029,18.926-19.029,18.926l.1.021,1.9,26.281a8.763,8.763,0,0,0,3.774,7.682l7.328,5.663c10.436,7.888,17.764,1.011,17.764,1.011l4.768-2.981A14.011,14.011,0,0,0,5802.271,900.854Z" transform="translate(-5738.849 -851.025)" fill="#f7af80"/>
              <path id="Trazado_37079" data-name="Trazado 37079" d="M5799.249,951.281l-2.156,14.69h-11.482l-1.235-15.043Z" transform="translate(-5747.791 -885.041)" fill="#f7af80"/>
              <path id="Trazado_37080" data-name="Trazado 37080" d="M5798.535,956.152s-8.34,4-13.715.2l-.445-5.425,14.876.362Z" transform="translate(-5747.788 -885.044)" fill="#e08d56"/>
              <path id="Trazado_37081" data-name="Trazado 37081" d="M5801.467,1118.375s-1.72-21.006,6.881-21.584c7.115-.48,8.457,3.4,9.566,14.539,1.076,10.81,2.118,64.345-7.212,64.923C5804.7,1176.622,5803.13,1170.871,5801.467,1118.375Z" transform="translate(-5753.954 -938.083)" fill="#f7af80"/>
              <path id="Trazado_37082" data-name="Trazado 37082" d="M5767.24,1117.052s-1.312-21.037,7.3-21.445c7.124-.339,8.39,3.561,9.283,14.723.865,10.828.867,64.374-8.472,64.769C5769.336,1175.348,5767.882,1169.566,5767.24,1117.052Z" transform="translate(-5741.53 -937.655)" fill="#f7af80"/>
              <path id="Trazado_37083" data-name="Trazado 37083" d="M5781.784,1201.889s-.566-7.734-4.961-7.682-6.375,6.467-5.478,10.7.416,21.509.995,29.222c.929,12.414,1.12,31.188,1.12,31.188h6.5Z" transform="translate(-5742.974 -973.529)" fill="#f7af80"/>
              <path id="Trazado_37084" data-name="Trazado 37084" d="M5806.526,1201.889s.567-7.734,4.962-7.682,6.375,6.467,5.476,10.7-.414,21.509-.992,29.222c-.93,12.414-1.121,31.188-1.121,31.188h-6.5Z" transform="translate(-5755.846 -973.529)" fill="#f7af80"/>
              <g id="Grupo_34661" data-name="Grupo 34661" transform="translate(50.376 290.896)">
                <path id="Trazado_37085" data-name="Trazado 37085" d="M5811.253,1304.557l-.111,3.577,6.082.459-.3-3.865Z" transform="translate(-5807.9 -1304.557)" fill="#c755ff"/>
                <path id="Trazado_37086" data-name="Trazado 37086" d="M5811.209,1308.112l-.024,1.044,6.031.48-.114-1.508Z" transform="translate(-5807.918 -1305.851)" fill="#b42eed"/>
                <path id="Trazado_37087" data-name="Trazado 37087" d="M5812.837,1323.292v.171l-6.055-.6-.328-2.37,6.325,2.783" transform="translate(-5806.195 -1310.354)" fill="#404040"/>
                <path id="Trazado_37088" data-name="Trazado 37088" d="M5815.293,1309.793a26.608,26.608,0,0,1-6.08-.48s-4.436,5.132-2.81,7.975c0,0,14,5.684,20.907,3.653s1.827-5.075.407-4.668C5827.716,1316.273,5819.31,1315.9,5815.293,1309.793Z" transform="translate(-5806.045 -1306.287)" fill="#020202"/>
                <path id="Trazado_37089" data-name="Trazado 37089" d="M5809.991,1311.4c-.724-1.008.576-2.08.576-2.08a26.61,26.61,0,0,0,6.081.48c4.019,6.107,12.423,6.479,12.423,6.479s3.45,3.452-6.294,1.421C5822.779,1317.692,5813.535,1316.331,5809.991,1311.4Z" transform="translate(-5807.401 -1306.284)" fill="#30302f"/>
                <path id="Trazado_37090" data-name="Trazado 37090" d="M5822.958,1319.74a30.689,30.689,0,0,0,4.653,1.157c9.743,2.031,6.294-1.421,6.294-1.421a19.7,19.7,0,0,1-5.242-1.135s-5.834-.931-5.729,1.047" transform="translate(-5812.186 -1309.49)" fill="#404040"/>
                <path id="Trazado_37091" data-name="Trazado 37091" d="M5820.807,1315.943a4.592,4.592,0,0,1,3.956-.1,2.526,2.526,0,0,0-3.956.1Z" transform="translate(-5811.414 -1308.337)" fill="#020202"/>
                <path id="Trazado_37092" data-name="Trazado 37092" d="M5823.263,1317.089a4.6,4.6,0,0,1,3.958-.1,2.529,2.529,0,0,0-3.958.1Z" transform="translate(-5812.307 -1308.753)" fill="#020202"/>
                <path id="Trazado_37093" data-name="Trazado 37093" d="M5825.554,1318.233a4.6,4.6,0,0,1,3.956-.1,2.527,2.527,0,0,0-3.956.1Z" transform="translate(-5813.14 -1309.17)" fill="#020202"/>
              </g>
              <g id="Grupo_34662" data-name="Grupo 34662" transform="translate(15.368 290.896)">
                <path id="Trazado_37094" data-name="Trazado 37094" d="M5781.333,1304.557l.11,3.577-6.082.459.306-3.865Z" transform="translate(-5759.88 -1304.557)" fill="#c755ff"/>
                <path id="Trazado_37095" data-name="Trazado 37095" d="M5781.4,1308.112l.024,1.044-6.031.48.117-1.508Z" transform="translate(-5759.889 -1305.851)" fill="#b42eed"/>
                <path id="Trazado_37096" data-name="Trazado 37096" d="M5779.577,1323.292v.171l6.054-.6.329-2.37-6.325,2.783" transform="translate(-5761.412 -1310.354)" fill="#404040"/>
                <path id="Trazado_37097" data-name="Trazado 37097" d="M5766.591,1309.793a26.617,26.617,0,0,0,6.081-.48s4.435,5.132,2.809,7.975c0,0-14,5.684-20.909,3.653s-1.827-5.075-.4-4.668C5754.17,1316.273,5762.575,1315.9,5766.591,1309.793Z" transform="translate(-5751.033 -1306.287)" fill="#020202"/>
                <path id="Trazado_37098" data-name="Trazado 37098" d="M5774.7,1311.4c.726-1.008-.576-2.08-.576-2.08a26.606,26.606,0,0,1-6.08.48c-4.02,6.107-12.424,6.479-12.424,6.479s-3.45,3.452,6.295,1.421C5761.913,1317.692,5771.157,1316.331,5774.7,1311.4Z" transform="translate(-5752.481 -1306.284)" fill="#30302f"/>
                <path id="Trazado_37099" data-name="Trazado 37099" d="M5766.492,1319.74a30.551,30.551,0,0,1-4.651,1.157c-9.743,2.031-6.295-1.421-6.295-1.421a19.7,19.7,0,0,0,5.241-1.135s5.834-.931,5.73,1.047" transform="translate(-5752.457 -1309.49)" fill="#404040"/>
                <path id="Trazado_37100" data-name="Trazado 37100" d="M5772.993,1315.943a4.592,4.592,0,0,0-3.957-.1,2.527,2.527,0,0,1,3.957.1Z" transform="translate(-5757.58 -1308.337)" fill="#020202"/>
                <path id="Trazado_37101" data-name="Trazado 37101" d="M5770.538,1317.089a4.588,4.588,0,0,0-3.956-.1,2.526,2.526,0,0,1,3.956.1Z" transform="translate(-5756.685 -1308.753)" fill="#020202"/>
                <path id="Trazado_37102" data-name="Trazado 37102" d="M5768.25,1318.233a4.6,4.6,0,0,0-3.958-.1,2.528,2.528,0,0,1,3.958.1Z" transform="translate(-5755.852 -1309.17)" fill="#020202"/>
              </g>
              <path id="Trazado_37103" data-name="Trazado 37103" d="M5779.713,977.11l-22.736,3.671s-7.752,4.348.542,13.264l6.682,49.814a58.945,58.945,0,0,0,35.428-2.4l4.074-46.474s10.03-6.755,0-15.151Z" transform="translate(-5736.628 -894.569)" fill="#f7af80"/>
              <path id="Trazado_37104" data-name="Trazado 37104" d="M5805.582,978.3l-12.541,9.282-29.215-5.339-4.961-3s16.663-6.985,25.633-6.328a66.558,66.558,0,0,1,21.094,5.388" transform="translate(-5738.507 -893.023)" fill="#f7af80"/>
              <ellipse id="Elipse_754" data-name="Elipse 754" cx="13.973" cy="18.013" rx="13.973" ry="18.013" transform="translate(26.458 159.455) rotate(-87.768)" fill="#f7af80"/>
              <path id="Trazado_37105" data-name="Trazado 37105" d="M5788.312,1069.39c-.548,0-19.835,4.234-19.835,4.234s-1.386,22.947-1.464,30.842c-.073,7.326,39.137,7.6,38.744,1.005-.516-8.7-1.28-30.443-1.28-30.443Z" transform="translate(-5741.476 -928.131)" fill="#f7af80"/>
              <path id="Trazado_37106" data-name="Trazado 37106" d="M5806.688,1082.219a26.992,26.992,0,0,1-8.017,21.216,20.29,20.29,0,0,1-12.963,5.429c-12.387.7-22.245-8.3-22.226-22.885,0,0-2.763-25.348,17.457-26.2C5800.761,1058.934,5806.583,1071.646,5806.688,1082.219Z" transform="translate(-5740.143 -924.617)" fill="#4c2b0c"/>
              <path id="Trazado_37107" data-name="Trazado 37107" d="M5799.942,1119.328l4,113.338,10.152-.251,6.1-131.008Z" transform="translate(-5753.452 -939.775)" fill="#4c2b0c"/>
              <path id="Trazado_37108" data-name="Trazado 37108" d="M5783.218,1119.746l-4.03,114.39h-10.071l-5.6-129.458Z" transform="translate(-5740.207 -940.964)" fill="#4c2b0c"/>
              <g id="Grupo_34663" data-name="Grupo 34663" transform="translate(32.876 31.022)">
                <path id="Trazado_37109" data-name="Trazado 37109" d="M5784.123,898.782a2.79,2.79,0,1,1-2.786-2.637A2.721,2.721,0,0,1,5784.123,898.782Z" transform="translate(-5778.546 -896.143)" fill="#231f20"/>
                <path id="Trazado_37110" data-name="Trazado 37110" d="M5784.168,899.012a.73.73,0,0,1-.009.983c-.356.393.228.979.584.584a1.541,1.541,0,0,0,.137-1.983.424.424,0,0,0-.564-.149.414.414,0,0,0-.148.565Z" transform="translate(-5780.544 -896.96)" fill="#fff"/>
              </g>
              <g id="Grupo_34664" data-name="Grupo 34664" transform="translate(50.498 31.021)">
                <path id="Trazado_37111" data-name="Trazado 37111" d="M5811.818,898.782a2.79,2.79,0,1,1-2.787-2.637A2.721,2.721,0,0,1,5811.818,898.782Z" transform="translate(-5806.243 -896.143)" fill="#231f20"/>
                <path id="Trazado_37112" data-name="Trazado 37112" d="M5811.864,899.012a.729.729,0,0,1-.011.983c-.355.393.229.979.584.584a1.541,1.541,0,0,0,.14-1.983.428.428,0,0,0-.566-.149.415.415,0,0,0-.146.565Z" transform="translate(-5808.241 -896.96)" fill="#fff"/>
              </g>
              <g id="Grupo_34665" data-name="Grupo 34665" transform="translate(42.687 38.228)">
                <path id="Trazado_37113" data-name="Trazado 37113" d="M5798.118,911.079a12.838,12.838,0,0,1-1.332-2.327c-.48-1.168-1.049-1.547-2.146-1.106s-1.6,9.485,4.512,10.169,5.327-3.594,4.527-4.615S5800.251,913.932,5798.118,911.079Z" transform="translate(-5793.963 -907.467)" fill="#e08d56"/>
                <path id="Trazado_37114" data-name="Trazado 37114" d="M5799.368,917.542c-5.262-.587-5.619-7.362-4.916-9.527-.942,1.327-1.046,9.356,4.7,10,3.22.36,4.524-.656,4.922-1.849C5803.5,917.134,5802.151,917.852,5799.368,917.542Z" transform="translate(-5793.965 -907.667)" fill="#c77236"/>
              </g>
              <g id="Grupo_34667" data-name="Grupo 34667" transform="translate(41.062 54.239)">
                <g id="Grupo_34666" data-name="Grupo 34666" transform="translate(3.612 1.129)">
                  <path id="Trazado_37115" data-name="Trazado 37115" d="M5797.089,938.014a2.648,2.648,0,0,0,2.561-.152,1.8,1.8,0,0,1-2.562.152Z" transform="translate(-5797.088 -935.663)" fill="#f09d9e"/>
                  <path id="Trazado_37116" data-name="Trazado 37116" d="M5803.971,934.4s.393.072.254.386C5804.222,934.779,5804.636,934.383,5803.971,934.4Z" transform="translate(-5799.591 -934.4)" fill="#e49d73"/>
                </g>
                <path id="Trazado_37117" data-name="Trazado 37117" d="M5791.6,934.009s-.731-1.749.656-1.308C5792.259,932.7,5791.285,932.643,5791.6,934.009Z" transform="translate(-5791.41 -932.63)" fill="#3a3a3a"/>
                <path id="Trazado_37118" data-name="Trazado 37118" d="M5791.516,933.18s4.059,4.265,7.938,1c0,0-2.6,2.436-7.6-1.187Z" transform="translate(-5791.449 -932.763)" fill="#3a3a3a"/>
              </g>
              <path id="Trazado_37119" data-name="Trazado 37119" d="M5813.916,891.31a4.909,4.909,0,0,0-3.9-4.271,8.589,8.589,0,0,0-1.647-.2,2.538,2.538,0,0,0-1.089.085l.259-.683c-.507.149-1.44,1.357-1.44,1.357l-.119-.974a7,7,0,0,0-.542,2.348l1.175-.032C5807.848,889.055,5812.5,889.623,5813.916,891.31Z" transform="translate(-5755.45 -861.521)" fill="#231f20"/>
              <path id="Trazado_37120" data-name="Trazado 37120" d="M5773.977,893.757a4.91,4.91,0,0,1,3.9-4.271,8.572,8.572,0,0,1,1.651-.2,2.531,2.531,0,0,1,1.088.085l-.257-.684c.507.149,1.44,1.357,1.44,1.357l.117-.975a7,7,0,0,1,.543,2.348l-1.175-.032C5780.044,891.508,5775.391,892.067,5773.977,893.757Z" transform="translate(-5744.007 -862.411)" fill="#231f20"/>
              <path id="Trazado_37121" data-name="Trazado 37121" d="M5762.425,874.82s-.545-9.473,3.85-10.449,12.3,2.152,17.461,2.868,23.113-.832,24.455-12.227a5.821,5.821,0,0,1-6.068-1.263c-4.982-4-20.965-9.2-30.605-4.5S5754.83,861.339,5762.425,874.82Z" transform="translate(-5738.639 -847.389)" fill="#231f20"/>
              <path id="Trazado_37122" data-name="Trazado 37122" d="M5758.851,868.22s-3.04-4.074-2.487-6.678a7.982,7.982,0,0,0-.708,5.121s-4.034,1.464-4.278,3.337c0,0,.394-.815,3.737-.815a7.561,7.561,0,0,0-1.7,3.5,19.066,19.066,0,0,1,5.438-4.465Z" transform="translate(-5735.79 -852.537)" fill="#231f20"/>
              <path id="Trazado_37123" data-name="Trazado 37123" d="M5761.227,874.249l.769,2.442s2.055,14.779-1.12,19.03l-1.717.587-4.2-14.734S5759.272,872.865,5761.227,874.249Z" transform="translate(-5737.09 -857.105)" fill="#231f20"/>
              <path id="Trazado_37124" data-name="Trazado 37124" d="M5815.831,874.91s3.917-.48,4.649,2.561.333,13.326.333,13.326l1.495.5-.109-3.337,1.335-8.592-1.16-5.4-.7-2.857Z" transform="translate(-5759.228 -856.018)" fill="#231f20"/>
              <path id="Trazado_37125" data-name="Trazado 37125" d="M5796.6,869.79s11.338,2.058,15.578-4.417,3.542-8.962,3.542-8.962l-2.656-1.7S5812.764,870.1,5796.6,869.79Z" transform="translate(-5752.234 -850.056)" fill="#514b4d"/>
              <path id="Trazado_37126" data-name="Trazado 37126" d="M5794.544,868.174s15.117-5.393,13.973-16.45l-2.853-1.029s1.8,9.007-12.449,17.193Z" transform="translate(-5751.004 -848.593)" fill="#514b4d"/>
              <path id="Trazado_37127" data-name="Trazado 37127" d="M5817.9,870.65s11.064-3.22,11.634-11.282a4.622,4.622,0,0,1-2.682.3S5824.165,868.168,5817.9,870.65Z" transform="translate(-5759.984 -851.746)" fill="#514b4d"/>
              <path id="Trazado_37128" data-name="Trazado 37128" d="M5763.481,893.575h-6.23l6.2,1.634Z" transform="translate(-5737.924 -864.187)" fill="#514b4d"/>
              <path id="Trazado_37129" data-name="Trazado 37129" d="M5763.562,899.552l-.261,1.668-5.2-2.826Z" transform="translate(-5738.233 -865.94)" fill="#514b4d"/>
              <path id="Trazado_37130" data-name="Trazado 37130" d="M5763.442,905.036l-.734,1.379-2.721-2.913Z" transform="translate(-5738.925 -867.8)" fill="#514b4d"/>
              <path id="Trazado_37131" data-name="Trazado 37131" d="M5823.816,889.334l3.449-1.557-3.449,3.69Z" transform="translate(-5762.135 -862.079)" fill="#514b4d"/>
              <path id="Trazado_37132" data-name="Trazado 37132" d="M5823.794,894.7l3.073-2.519-3.1,3.95Z" transform="translate(-5762.117 -863.683)" fill="#514b4d"/>
              <path id="Trazado_37133" data-name="Trazado 37133" d="M5823.682,900.272l1.365-1.506-.53,2.378-.856-.283Z" transform="translate(-5762.079 -866.074)" fill="#514b4d"/>
              <path id="Trazado_37134" data-name="Trazado 37134" d="M5761.549,906.475l1.719-.587s6.942,24.351,15.978,25a3.777,3.777,0,0,0,4.26-4.206h3.22s.359,3.681,1.811,3.436,9.435-5.374,10.267-10.138,2.263-17.924,2.263-17.924l1.495.5s.94,16.618.94,17.6c0,5.016-5.983,11.985-10.363,14.264a15.954,15.954,0,0,1-6.412,2.252c-4.628.538-8.792,1.347-16.868-4.9,0,0-5.969-5.078-7.311-9.564C5761.32,918.119,5761.549,906.475,5761.549,906.475Z" transform="translate(-5739.483 -867.27)" fill="#2d2a2b"/>
              <path id="Trazado_37135" data-name="Trazado 37135" d="M5791.246,926.545a5.493,5.493,0,0,0-3.222-1.056,27.734,27.734,0,0,0-4.179.52,16.949,16.949,0,0,1-4.178.861c-1.519,0-5.561,1.472-5.7,4.278a5.606,5.606,0,0,0,3.362,5c.77.12-.735-3.779.4-4.617s7.159-2.946,10.284-2.541a17.47,17.47,0,0,0,4.5,0,7.627,7.627,0,0,1,3.416.59c1.417.728,4.149.346,5.629,3.09s2.28-2.426,2.369-2.649a9.342,9.342,0,0,0-6-3.479C5795,926.467,5793.68,925.079,5791.246,926.545Z" transform="translate(-5744 -875.786)" fill="#2d2a2b"/>
              <g id="Grupo_34683" data-name="Grupo 34683" transform="translate(16.033 73.35)">
                <g id="Grupo_34668" data-name="Grupo 34668" transform="translate(0)">
                  <path id="Trazado_37136" data-name="Trazado 37136" d="M5802.754,974.259a64.306,64.306,0,0,0-14.3-6.118c-1.378-.419-.788-5.476-.788-5.476l-8.139.362-8.14-.362s.556,4.961-.791,5.476a84.48,84.48,0,0,0-14.293,7.664,8.3,8.3,0,0,0-4.03,8.763c.812,6.427,4.16,8.224,4.16,8.224l5.291,56.694h38.017l4.232-59.006S5814.892,981.042,5802.754,974.259Z" transform="translate(-5752.129 -962.665)" fill="#511d39"/>
                </g>
                <g id="Grupo_34669" data-name="Grupo 34669" transform="translate(19.737 0.583)" opacity="0.41">
                  <path id="Trazado_37137" data-name="Trazado 37137" d="M5783.094,963.691l2.39.16c.715.048,1.555.086,2.447.13s1.852.072,2.807.082,1.909.011,2.806-.014l1.29-.054,1.153-.088.972-.109c.291-.026.536-.075.745-.109l.651-.1-.639.16c-.206.048-.454.115-.741.16s-.614.115-.971.16l-1.157.136c-.411.032-.844.072-1.3.1-.9.038-1.859.062-2.82.053s-1.922-.059-2.817-.12-1.732-.146-2.447-.218C5784.039,963.859,5783.094,963.691,5783.094,963.691Z" transform="translate(-5783.094 -963.584)" fill="#7a2158"/>
                </g>
                <g id="Grupo_34681" data-name="Grupo 34681" transform="translate(20.375 1.708)">
                  <g id="Grupo_34680" data-name="Grupo 34680" transform="translate(0)">
                    <g id="Grupo_34670" data-name="Grupo 34670">
                      <path id="Trazado_37138" data-name="Trazado 37138" d="M5784.847,965.348a6.369,6.369,0,0,1,.021.64,9.392,9.392,0,0,1-.145,1.343,7.841,7.841,0,0,1-.345,1.28,5.084,5.084,0,0,1-.252.559,5,5,0,0,1-.028-.64,8.021,8.021,0,0,1,.159-1.339,9.213,9.213,0,0,1,.356-1.28C5784.741,965.569,5784.847,965.348,5784.847,965.348Z" transform="translate(-5784.097 -965.348)" fill="#7a2158"/>
                    </g>
                    <g id="Grupo_34671" data-name="Grupo 34671" transform="translate(1.52 0.338)">
                      <path id="Trazado_37139" data-name="Trazado 37139" d="M5787.106,965.879s.034.256.042.63a9.374,9.374,0,0,1-.087,1.349,8.151,8.151,0,0,1-.292,1.307,4.625,4.625,0,0,1-.232.573,5.733,5.733,0,0,1-.053-.64,8.526,8.526,0,0,1,.1-1.348,9.184,9.184,0,0,1,.3-1.3c.065-.193.138-.382.222-.568Z" transform="translate(-5786.484 -965.879)" fill="#7a2158"/>
                    </g>
                    <g id="Grupo_34672" data-name="Grupo 34672" transform="translate(3.044 0.59)">
                      <path id="Trazado_37140" data-name="Trazado 37140" d="M5789.372,966.277s.042.253.066.628a9.519,9.519,0,0,1-.031,1.35,8.22,8.22,0,0,1-.235,1.324,4.915,4.915,0,0,1-.2.587,5.049,5.049,0,0,1-.081-.629,8.568,8.568,0,0,1,.042-1.352,9.047,9.047,0,0,1,.247-1.32,5.566,5.566,0,0,1,.194-.588Z" transform="translate(-5788.877 -966.277)" fill="#7a2158"/>
                    </g>
                    <g id="Grupo_34673" data-name="Grupo 34673" transform="translate(4.566 0.76)">
                      <path id="Trazado_37141" data-name="Trazado 37141" d="M5791.642,966.543s.054.25.095.621a9.54,9.54,0,0,1,.025,1.352,8.221,8.221,0,0,1-.178,1.337,4.746,4.746,0,0,1-.181.6,5.188,5.188,0,0,1-.105-.624,8.3,8.3,0,0,1-.013-1.354,9.031,9.031,0,0,1,.192-1.333A4.918,4.918,0,0,1,5791.642,966.543Z" transform="translate(-5791.263 -966.543)" fill="#7a2158"/>
                    </g>
                    <g id="Grupo_34674" data-name="Grupo 34674" transform="translate(6.052 0.845)">
                      <path id="Trazado_37142" data-name="Trazado 37142" d="M5793.908,966.675a5.882,5.882,0,0,1,.119.616,9.107,9.107,0,0,1,.081,1.349,8.221,8.221,0,0,1-.126,1.344,4.841,4.841,0,0,1-.16.608,5.292,5.292,0,0,1-.133-.616,8.328,8.328,0,0,1-.067-1.351,9.047,9.047,0,0,1,.134-1.343C5793.837,966.918,5793.908,966.675,5793.908,966.675Z" transform="translate(-5793.617 -966.675)" fill="#7a2158"/>
                    </g>
                    <g id="Grupo_34675" data-name="Grupo 34675" transform="translate(7.546 0.845)">
                      <path id="Trazado_37143" data-name="Trazado 37143" d="M5796.171,966.675a5.923,5.923,0,0,1,.146.608,9.315,9.315,0,0,1,.135,1.343,8.441,8.441,0,0,1-.07,1.351,5.008,5.008,0,0,1-.132.616,5.218,5.218,0,0,1-.161-.608,8.275,8.275,0,0,1-.126-1.344,9.661,9.661,0,0,1,.081-1.349C5796.107,966.921,5796.171,966.675,5796.171,966.675Z" transform="translate(-5795.962 -966.675)" fill="#7a2158"/>
                    </g>
                    <g id="Grupo_34676" data-name="Grupo 34676" transform="translate(9.031 0.76)">
                      <path id="Trazado_37144" data-name="Trazado 37144" d="M5798.42,966.543s.083.239.168.6a9.443,9.443,0,0,1,.193,1.333,8.355,8.355,0,0,1-.016,1.354,4.667,4.667,0,0,1-.106.624,4.926,4.926,0,0,1-.177-.6,8.432,8.432,0,0,1-.179-1.336,9.191,9.191,0,0,1,.023-1.352A5.821,5.821,0,0,1,5798.42,966.543Z" transform="translate(-5798.289 -966.543)" fill="#7a2158"/>
                    </g>
                    <g id="Grupo_34677" data-name="Grupo 34677" transform="translate(10.484 0.591)">
                      <path id="Trazado_37145" data-name="Trazado 37145" d="M5800.656,966.277a5.981,5.981,0,0,1,.193.587,8.92,8.92,0,0,1,.247,1.32,8.568,8.568,0,0,1,.042,1.352,5.046,5.046,0,0,1-.082.629,4.909,4.909,0,0,1-.206-.587,8.44,8.44,0,0,1-.234-1.324,9.306,9.306,0,0,1-.032-1.35C5800.615,966.531,5800.656,966.277,5800.656,966.277Z" transform="translate(-5800.574 -966.277)" fill="#7a2158"/>
                    </g>
                    <g id="Grupo_34678" data-name="Grupo 34678" transform="translate(11.916 0.338)">
                      <path id="Trazado_37146" data-name="Trazado 37146" d="M5802.871,965.879q.123.281.218.575a9.038,9.038,0,0,1,.3,1.3,8.411,8.411,0,0,1,.1,1.348,5.2,5.2,0,0,1-.052.64,4.725,4.725,0,0,1-.23-.573,8.317,8.317,0,0,1-.292-1.307,9.312,9.312,0,0,1-.087-1.35,5.786,5.786,0,0,1,.045-.637Z" transform="translate(-5802.824 -965.879)" fill="#7a2158"/>
                    </g>
                    <g id="Grupo_34679" data-name="Grupo 34679" transform="translate(13.336)">
                      <path id="Trazado_37147" data-name="Trazado 37147" d="M5805.065,965.348a5.77,5.77,0,0,1,.243.562,9.215,9.215,0,0,1,.354,1.28,8.455,8.455,0,0,1,.158,1.339,5,5,0,0,1-.027.64,4.331,4.331,0,0,1-.254-.558,7.9,7.9,0,0,1-.344-1.28,9.322,9.322,0,0,1-.143-1.343A5.877,5.877,0,0,1,5805.065,965.348Z" transform="translate(-5805.049 -965.348)" fill="#7a2158"/>
                    </g>
                  </g>
                </g>
                <g id="Grupo_34682" data-name="Grupo 34682" transform="translate(18.475 5.476)">
                  <path id="Trazado_37148" data-name="Trazado 37148" d="M5781.109,971.271a25.1,25.1,0,0,0,17.858,0,20.681,20.681,0,0,1-17.858,0Z" transform="translate(-5781.109 -971.271)" fill="#7a2158"/>
                </g>
              </g>
              <path id="Trazado_37149" data-name="Trazado 37149" d="M5766,977.11l-14.552,4.654s-4.408,11,3.325,17.842v61.634l20.537,1.408.393-37.768s-8.568-8.123-9.6-25.276S5766,977.11,5766,977.11Z" transform="translate(-5735.358 -894.569)" fill="#252430"/>
              <path id="Trazado_37150" data-name="Trazado 37150" d="M5774.065,971.172s-9.861,15.562,5.837,51.486l-.044,4.18s-23.237-42.48-17.072-51.419C5762.792,975.419,5765.095,969.965,5774.065,971.172Z" transform="translate(-5739.559 -892.345)" fill="#1d1d1e"/>
              <path id="Trazado_37151" data-name="Trazado 37151" d="M5747.108,989.241l-4.14-4.817s-22.1,38.9-14.5,81.481l7.681-.6s-5.251-35.3,11.082-64.6Z" transform="translate(-5726.879 -897.23)" fill="#252430"/>
              <path id="Trazado_37152" data-name="Trazado 37152" d="M5814.871,977.11l14.551,4.654s4.412,11-3.324,17.842l-.935,61.469-19.6,1.573-.392-37.768s8.569-8.123,9.6-25.276S5814.871,977.11,5814.871,977.11Z" transform="translate(-5755.353 -894.569)" fill="#252430"/>
              <path id="Trazado_37153" data-name="Trazado 37153" d="M5807.718,971.176s13.149,15.562-2.549,51.486l.043,4.18s23.238-42.48,17.075-51.419A18.377,18.377,0,0,0,5807.718,971.176Z" transform="translate(-5755.351 -892.349)" fill="#1d1d1e"/>
              <path id="Trazado_37154" data-name="Trazado 37154" d="M5740.8,1118.788l.31-.57a.753.753,0,0,1,1.019-.3l4.59,2.081a.755.755,0,0,1,.3,1.019l-.672,1.229a.754.754,0,0,1-1.021.3l-4.225-2.743a.752.752,0,0,1-.3-1.016Z" transform="translate(-5731.907 -945.747)" fill="#e08d56"/>
              <g id="Grupo_34684" data-name="Grupo 34684" transform="translate(2.047 170.429)">
                <path id="Trazado_37155" data-name="Trazado 37155" d="M5731.063,1126.933c.015.094.161,1.433.192,1.522.3.867,1.13.919,1.979.693l7.3-.5a1.639,1.639,0,0,0,.819-.259,1.676,1.676,0,0,0,.668-1.811l-3.442-10a1.821,1.821,0,0,0-.614-.837,2.25,2.25,0,0,0-2.314-.307l-3.491.922c-2.016.357-2.224,1.365-1.987,2.261Z" transform="translate(-5730.095 -1115.241)" fill="#f7af80"/>
              </g>
              <path id="Trazado_37156" data-name="Trazado 37156" d="M5838.063,998.062s11.92,27.366,21.944,27.553S5878,973.839,5878,973.839l-8.741-.973s-6.168,41.153-10.411,40.766c-6.142-.558-17.461-33.41-17.461-33.41Z" transform="translate(-5767.313 -893.023)" fill="#252430"/>
              <path id="Trazado_37157" data-name="Trazado 37157" d="M5906.235,947.768s-2.056-3.007-3.983-2.892c-1.891.114-5.316,2.46-2.348,6.221,1.068,1.352,4.848,5.262,6.154,4.459S5910.542,954.139,5906.235,947.768Z" transform="translate(-5789.383 -882.845)" fill="#e8a478"/>
              <path id="Trazado_37158" data-name="Trazado 37158" d="M5767.013,1124.515l5.617,114.734S5769.215,1139.493,5767.013,1124.515Z" transform="translate(-5741.475 -948.18)" fill="#5e3513"/>
              <path id="Trazado_37159" data-name="Trazado 37159" d="M5824.989,1124.525l-5.874,114.721S5822.757,1139.5,5824.989,1124.525Z" transform="translate(-5760.424 -948.183)" fill="#5e3513"/>
            </g>
          </g>
        </g>
      </g>
    </g>
  </g>
</svg>
