<svg xmlns="http://www.w3.org/2000/svg" xmlns:xlink="http://www.w3.org/1999/xlink" width="176" height="176" viewBox="0 0 176 176">
  <defs>
    <clipPath id="clip-path">
      <path id="Path_40890" data-name="Path 40890" d="M35.287,30.619S61.6,4.066,93.135,23.22,99.956,67.485,136.376,98.7s-22.771,86.4-78.817,58.018S15.108,48.5,35.287,30.619Z" transform="translate(-17.745 -16.277)" fill="none"/>
    </clipPath>
  </defs>
  <g id="Group_37364" data-name="Group 37364" transform="translate(-6834.93 -428.452)">
    <rect id="Rectangle_1878" data-name="Rectangle 1878" width="176" height="176" transform="translate(6834.93 428.452)" fill="none"/>
    <g id="Group_37352" data-name="Group 37352" transform="translate(6846.34 452.608)">
      <g id="Group_36973" data-name="Group 36973" transform="translate(-10.243 -28.359)">
        <path id="Path_40876" data-name="Path 40876" d="M35.287,30.619S61.6,4.066,93.135,23.22,99.956,67.485,136.376,98.7s-22.771,86.4-78.817,58.018S15.108,48.5,35.287,30.619Z" transform="translate(0.885 2.408)" fill="#6d31ff"/>
        <g id="Group_36969" data-name="Group 36969" transform="translate(18.63 18.686)">
          <g id="Group_36968" data-name="Group 36968" clip-path="url(#clip-path)">
            <g id="Group_36961" data-name="Group 36961" transform="translate(-57.816 20.092)">
              <g id="Group_36960" data-name="Group 36960">
                <path id="Path_40877" data-name="Path 40877" d="M63.213,42.879S13.272,78.659-27.036,63.861L-29.918,79.22S14.4,97.736,68.8,47.971Z" transform="translate(29.918 -30.702)" fill="#a87752"/>
                <g id="Group_36959" data-name="Group 36959" transform="translate(90.796)">
                  <path id="Path_40878" data-name="Path 40878" d="M63.759,47.883c.119-.068,1.846-.958,1.951-1.047,1.013-.858.653-2-.091-3.027l-4.457-9.578a2.341,2.341,0,0,0-.773-.967A2.421,2.421,0,0,0,57.6,33.3l-11.7,9.82a2.63,2.63,0,0,0-.809,1.262,3.25,3.25,0,0,0,.785,3.28l3.05,4.226c1.524,2.53,2.99,2.287,4.075,1.5Z" transform="translate(-44.932 -32.841)" fill="#a87752"/>
                </g>
              </g>
            </g>
            <g id="Group_36967" data-name="Group 36967" transform="translate(64.923 99.318)">
              <g id="Group_36962" data-name="Group 36962" transform="translate(15.305 5.209)">
                <path id="Path_40879" data-name="Path 40879" d="M89.169,113.871l1.133.075a1.316,1.316,0,0,0,1.4-1.222l1.235-8.717a1.315,1.315,0,0,0-1.222-1.4l-2.443-.163a1.315,1.315,0,0,0-1.395,1.223l.073,8.8A1.316,1.316,0,0,0,89.169,113.871Z" transform="translate(-83.033 -102.447)" fill="#e28f56"/>
                <path id="Path_40880" data-name="Path 40880" d="M90.351,111.01S131.5,156.179,200,147.827l-3.672,22.194s-63.8,9.363-112.443-51.3Z" transform="translate(-83.883 -100.622)" fill="#f4be9a"/>
              </g>
              <g id="Group_36963" data-name="Group 36963">
                <path id="Path_40881" data-name="Path 40881" d="M73.8,114.914c-.125-.11-1.958-1.583-2.061-1.713-.995-1.26-.292-2.526.837-3.569l7.6-10.288a2.847,2.847,0,0,1,1.15-.961,2.93,2.93,0,0,1,3.3.716L96.13,113.567a3.191,3.191,0,0,1,.656,1.692c.16,1.982-.7,2.755-1.721,3.7l-4.636,4.278c-2.418,2.633-4.1,1.992-5.2.8Z" transform="translate(-71.266 -98.153)" fill="#f4be9a"/>
              </g>
              <g id="Group_36966" data-name="Group 36966" transform="translate(18.824 20.692)">
                <rect id="Rectangle_4241" data-name="Rectangle 4241" width="8.439" height="18.266" rx="0.651" transform="translate(12.418 0) rotate(39.63)" fill="#04adc5"/>
                <rect id="Rectangle_4242" data-name="Rectangle 4242" width="6.859" height="16.128" rx="2.827" transform="matrix(0.77, 0.638, -0.638, 0.77, 12.171, 1.537)" fill="#55c8d9"/>
                <rect id="Rectangle_4243" data-name="Rectangle 4243" width="13.662" height="13.662" rx="3.487" transform="translate(19.236 9.092) rotate(129.63)" fill="#b7d2d9"/>
                <g id="Group_36964" data-name="Group 36964" transform="translate(1.191 1.569)">
                  <rect id="Rectangle_4244" data-name="Rectangle 4244" width="11.97" height="11.971" rx="2.789" transform="translate(16.854 7.635) rotate(129.63)" fill="#1a1a1a"/>
                  <path id="Path_40882" data-name="Path 40882" d="M100.805,121.739,96.8,118.42a3.384,3.384,0,0,0-3.356-.556,3.37,3.37,0,0,1,1.57.723l4.008,3.319a3.389,3.389,0,0,1,.448,4.765l-3.319,4.007a3.351,3.351,0,0,1-1.407,1,3.384,3.384,0,0,0,3.194-1.171l3.319-4.008A3.387,3.387,0,0,0,100.805,121.739Z" transform="translate(-86.556 -116.262)" fill="#333"/>
                </g>
                <g id="Group_36965" data-name="Group 36965" transform="translate(5.723 5.639)">
                  <path id="Path_40883" data-name="Path 40883" d="M92.449,120.617l.59-.711.488-.046-.866,1.046-.182.017Zm-.039.591-.864,1.042-.045-.488.588-.711.306-.029Z" transform="translate(-91.502 -119.86)" fill="#d2f0f4"/>
                  <path id="Path_40884" data-name="Path 40884" d="M93.137,121.309,94,120.265l.046.486-.588.711-.306.029Zm2.342.1-.483.049-.864-.714-.042-.484Zm-2.057,2.484-1.389-1.151.484-.049.864.716Zm.909-1.567.024.246-.245.021-.927-.768-.022-.243.243-.024Zm.045.518-.861,1.041-.046-.488.588-.711.308-.027Z" transform="translate(-91.389 -119.775)" fill="#d2f0f4"/>
                  <path id="Path_40885" data-name="Path 40885" d="M95.131,122.2l.22-.266.267.221-.221.266ZM93.638,124l.221-.267.267.221-.221.267Z" transform="translate(-91.047 -119.419)" fill="#d2f0f4"/>
                  <path id="Path_40886" data-name="Path 40886" d="M95.746,123.355l-.306.028-.017-.182.865-1.044.046.488ZM94.8,124.5l-.488.046.862-1.042.184-.021.029.306Zm2.967-1.2-.483.05-.864-.716-.042-.484Zm-2.057,2.484-1.389-1.15.484-.05.864.716Zm1.2-1.351-.18.018-.032-.307.588-.711.488-.045ZM95.8,125.778l-.046-.486.588-.711.308-.028.011.184Z" transform="translate(-90.904 -119.372)" fill="#d2f0f4"/>
                  <path id="Path_40887" data-name="Path 40887" d="M97.325,124.662l-.306.029L97,124.509l.865-1.044.046.486Zm-.947,1.145-.488.045.862-1.041.184-.021.029.306Zm2.967-1.2-.483.049L98,123.944l-.042-.484Zm-2.057,2.484L95.9,125.943l.484-.049.864.716Zm1.2-1.351-.18.018-.032-.307.588-.711.488-.046Zm-1.112,1.343-.046-.488.588-.711.308-.027.012.184Z" transform="translate(-90.567 -119.093)" fill="#d2f0f4"/>
                </g>
                <path id="Path_40888" data-name="Path 40888" d="M90.74,122.435l6.929,5.738-.728.006-5.761-4.771Z" transform="translate(-85.941 -113.672)" fill="#a8e3eb"/>
                <path id="Path_40889" data-name="Path 40889" d="M89.85,123.509l6.929,5.738-.728.006-5.761-4.771Z" transform="translate(-86.13 -113.443)" fill="#a8e3eb"/>
              </g>
            </g>
          </g>
        </g>
        <g id="Group_36970" data-name="Group 36970" transform="translate(13.59 5.203)">
          <rect id="Rectangle_4245" data-name="Rectangle 4245" width="145" height="174" transform="translate(0.243 0)" fill="none"/>
        </g>
        <g id="Group_36972" data-name="Group 36972" transform="translate(43.016 44.625)">
          <path id="Path_40891" data-name="Path 40891" d="M49.344,57.167a.506.506,0,0,1-.482-.368c-.106-.366-2.546-9.03.805-14.326a8.3,8.3,0,0,1,5.973-3.762,8.563,8.563,0,0,1,6.975,1.668c4.91,3.9,5.552,12.662,5.578,13.033a.508.508,0,0,1-.473.54.487.487,0,0,1-.54-.472c-.006-.086-.638-8.689-5.2-12.307A7.575,7.575,0,0,0,55.8,39.714a7.321,7.321,0,0,0-5.278,3.3c-3.111,4.915-.713,13.417-.689,13.5a.51.51,0,0,1-.492.648Z" transform="translate(-35.706 -37.468)" fill="#51250d"/>
          <g id="Group_36971" data-name="Group 36971" transform="translate(0 8.865)">
            <path id="Path_40892" data-name="Path 40892" d="M87.275,44.97l21.039,52.222-58.7,14.026L45.112,51.07Z" transform="translate(-36.301 -44.97)" fill="#f4cc22"/>
            <path id="Path_40893" data-name="Path 40893" d="M37.848,53.009,46.66,50l4.506,60.147-10.879-.255Z" transform="translate(-37.848 -43.898)" fill="#ccaa17"/>
            <path id="Path_40894" data-name="Path 40894" d="M41.777,51.374l2.955,49.155,6.433,9.324-6.646-5.141L40.287,109.6,37.848,52.716Z" transform="translate(-37.848 -43.605)" fill="#bc9c17"/>
          </g>
          <circle id="Ellipse_801" data-name="Ellipse 801" cx="1.187" cy="1.187" r="1.187" transform="translate(20.097 16.897)" fill="#bc9c17"/>
          <circle id="Ellipse_802" data-name="Ellipse 802" cx="1.187" cy="1.187" r="1.187" transform="translate(38.463 13.69)" fill="#bc9c17"/>
          <path id="Path_40895" data-name="Path 40895" d="M55.666,56.259a.508.508,0,0,1-.482-.366c-.106-.366-2.546-9.031.807-14.327A8.305,8.305,0,0,1,61.964,37.8a8.567,8.567,0,0,1,6.975,1.668c4.909,3.9,5.552,12.662,5.576,13.033a.507.507,0,0,1-.472.54.5.5,0,0,1-.541-.472c0-.086-.638-8.689-5.2-12.307a7.579,7.579,0,0,0-6.179-1.459,7.321,7.321,0,0,0-5.278,3.3c-3.111,4.914-.714,13.417-.69,13.5a.507.507,0,0,1-.347.628A.546.546,0,0,1,55.666,56.259Z" transform="translate(-34.359 -37.661)" fill="#51250d"/>
        </g>
        <path id="Path_40896" data-name="Path 40896" d="M44.922,41.918l-.114,1.109a1.291,1.291,0,0,0,1.149,1.413l8.507,1.521a1.29,1.29,0,0,0,1.412-1.15l.246-2.39a1.291,1.291,0,0,0-1.15-1.412l-8.638-.24A1.289,1.289,0,0,0,44.922,41.918Z" transform="translate(6.649 7.625)" fill="#8e6244"/>
        <path id="Path_40897" data-name="Path 40897" d="M43.986,118.892s4.22-4.625-1.211-8.974c0,0,5.05,3.626,7.061-1.684,0,0-.4,5.568,5.386,5.667,0,0-4.733,2.83-1.858,6.769,0,0-2.574-2.373-3.5-.036C49.863,120.634,49.378,113.158,43.986,118.892Z" transform="translate(5.217 27.998)" fill="#ff9815"/>
      </g>
      <path id="Path_41270" data-name="Path 41270" d="M6932.635,458.029a.669.669,0,0,1-.9-.489l-.544-2.656-2.5-1.057a.668.668,0,0,1-.069-1.2l2.358-1.338.234-2.7a.668.668,0,0,1,1.117-.436l2,1.829,2.642-.612a.668.668,0,0,1,.759.927l-1.121,2.469,1.4,2.323a.668.668,0,0,1-.647,1.009l-2.7-.3-1.777,2.047A.673.673,0,0,1,6932.635,458.029Z" transform="translate(-6849.34 -444.608)" fill="#ffc039"/>
      <path id="Path_41271" data-name="Path 41271" d="M6854.852,471.557a.98.98,0,0,1-.789-1.276l1.239-3.781-2.414-3.164a.981.981,0,0,1,.782-1.576l3.979.01,2.263-3.273a.981.981,0,0,1,1.74.257l1.222,3.787,3.812,1.141a.98.98,0,0,1,.293,1.735l-3.225,2.332.093,3.978a.981.981,0,0,1-1.559.815l-3.214-2.347-3.753,1.317A.979.979,0,0,1,6854.852,471.557Z" transform="matrix(0.848, -0.53, 0.53, 0.848, -6049.57, 3263.994)" fill="#ffc039"/>
      <path id="Path_41272" data-name="Path 41272" d="M6983.805,489.473a1.107,1.107,0,0,1-.954-1.4l1.207-4.327-2.881-3.448a1.108,1.108,0,0,1,.8-1.817l4.488-.189,2.389-3.8a1.108,1.108,0,0,1,1.976.2l1.568,4.211,4.356,1.1a1.108,1.108,0,0,1,.419,1.942l-3.521,2.791.3,4.482a1.107,1.107,0,0,1-1.717,1l-3.743-2.485-4.168,1.673A1.1,1.1,0,0,1,6983.805,489.473Z" transform="translate(-6849.34 -444.608)" fill="#ffc039"/>
      <g id="Group_37352-2" data-name="Group 37352" transform="translate(-6854.34 -444.608)">
        <path id="Path_4990" data-name="Path 4990" d="M6986.33,497.665a12.952,12.952,0,0,1-10.893,3.131l2.817,4.119s6.229.556,10.344-3.24Z" fill="#423b4f" opacity="0.22"/>
        <path id="Path_4991" data-name="Path 4991" d="M6986.471,496.1a12.951,12.951,0,0,1-10.893,3.13l2.817,4.12s6.229.555,10.344-3.24Z" fill="#e04784"/>
      </g>
      <g id="Group_37353" data-name="Group 37353" transform="translate(-6849.34 -444.608)">
        <path id="Path_4992" data-name="Path 4992" d="M6918.6,443.943a14.418,14.418,0,0,1-9.75,8.008l4.7,2.966s6.611-2.183,9.141-7.878Z" fill="#423b4f" opacity="0.22"/>
        <path id="Path_4993" data-name="Path 4993" d="M6918.046,442.276a14.416,14.416,0,0,1-9.75,8.008l4.7,2.966s6.611-2.183,9.14-7.878Z" fill="#05e666"/>
      </g>
      <g id="Group_37354" data-name="Group 37354" transform="translate(-6849.34 -444.608)">
        <path id="Path_4994" data-name="Path 4994" d="M6932.709,438.152a14.407,14.407,0,0,1-11.082-6.009l-.976,5.464s4.508,5.3,10.732,5.495Z" fill="#423b4f" opacity="0.22"/>
        <path id="Path_4995" data-name="Path 4995" d="M6934.046,437.016a14.406,14.406,0,0,1-11.083-6.009l-.976,5.464s4.508,5.3,10.732,5.495Z" fill="#ef740f"/>
      </g>
      <g id="Group_37355" data-name="Group 37355" transform="translate(-6829.34 -356.608)">
        <path id="Path_4996" data-name="Path 4996" d="M6879.262,486.762a12.579,12.579,0,0,1-9.7,5.213l3.522,3.331s6.029-.753,9.155-5.2Z" fill="#423b4f" opacity="0.22"/>
        <path id="Path_4997" data-name="Path 4997" d="M6879.073,485.242a12.579,12.579,0,0,1-9.7,5.213l3.522,3.331s6.029-.753,9.155-5.2Z" fill="#ef740f"/>
      </g>
      <g id="Group_37356" data-name="Group 37356" transform="translate(-6829.34 -356.608)">
        <path id="Path_4998" data-name="Path 4998" d="M6892.669,472.133a13.111,13.111,0,0,1-8.865,7.282l4.271,2.7s6.012-1.984,8.312-7.163Z" fill="#423b4f" opacity="0.22"/>
        <path id="Path_4999" data-name="Path 4999" d="M6892.169,470.617a13.108,13.108,0,0,1-8.865,7.282l4.272,2.7s6.011-1.984,8.311-7.163Z" fill="#05e666"/>
      </g>
      <g id="Group_37357" data-name="Group 37357" transform="translate(-6849.34 -444.608)">
        <path id="Path_5000" data-name="Path 5000" d="M6884.955,451.787a12.205,12.205,0,0,1-8.709,6.185l3.792,2.783s5.713-1.451,8.187-6.111Z" fill="#423b4f" opacity="0.22"/>
        <path id="Path_5001" data-name="Path 5001" d="M6884.59,450.346a12.2,12.2,0,0,1-8.708,6.186l3.791,2.783s5.713-1.451,8.187-6.111Z" fill="#e04784"/>
      </g>
      <g id="Group_37358" data-name="Group 37358" transform="translate(-6849.34 -444.608)">
        <path id="Path_5002" data-name="Path 5002" d="M6997.31,512.88a12.58,12.58,0,0,1-10.6-2.973l.225,4.842s4.865,3.639,10.2,2.6Z" fill="#423b4f" opacity="0.22"/>
        <path id="Path_5003" data-name="Path 5003" d="M6998.229,511.654a12.583,12.583,0,0,1-10.6-2.973l.226,4.842s4.864,3.639,10.2,2.6Z" fill="#ef740f"/>
      </g>
      <g id="Group_37359" data-name="Group 37359" transform="translate(-6849.34 -444.608)">
        <path id="Path_5004" data-name="Path 5004" d="M6902.006,448.617a12.58,12.58,0,0,1-8.759-6.67l-1.575,4.585s3.181,5.175,8.526,6.179Z" fill="#423b4f" opacity="0.22"/>
        <path id="Path_5005" data-name="Path 5005" d="M6903.311,447.816a12.581,12.581,0,0,1-8.759-6.67l-1.574,4.584s3.181,5.176,8.526,6.18Z" fill="#ef740f"/>
      </g>
      <g id="Group_37360" data-name="Group 37360" transform="translate(-6849.34 -444.608)">
        <path id="Path_5006" data-name="Path 5006" d="M6977.755,512.861a14.416,14.416,0,0,1-9.75,8.008l4.7,2.966s6.611-2.183,9.141-7.878Z" fill="#423b4f" opacity="0.22"/>
        <path id="Path_5007" data-name="Path 5007" d="M6977.206,511.194a14.416,14.416,0,0,1-9.75,8.008l4.7,2.966s6.611-2.182,9.14-7.878Z" fill="#05e666"/>
      </g>
      <g id="Group_37361" data-name="Group 37361" transform="matrix(-0.927, 0.375, -0.375, -0.927, 6610.294, -2164.741)">
        <path id="Path_5000-2" data-name="Path 5000" d="M6884.955,451.787a12.205,12.205,0,0,1-8.709,6.185l3.792,2.783s5.713-1.451,8.187-6.111Z" fill="#423b4f" opacity="0.22"/>
        <path id="Path_5001-2" data-name="Path 5001" d="M6884.59,450.346a12.2,12.2,0,0,1-8.708,6.186l3.791,2.783s5.713-1.451,8.187-6.111Z" fill="#e04784"/>
      </g>
      <g id="Group_37362" data-name="Group 37362" transform="translate(-6882.34 -458.608)">
        <path id="Path_4992-2" data-name="Path 4992" d="M6918.6,443.943a14.418,14.418,0,0,1-9.75,8.008l4.7,2.966s6.611-2.183,9.141-7.878Z" fill="#423b4f" opacity="0.22"/>
        <path id="Path_4993-2" data-name="Path 4993" d="M6918.046,442.276a14.416,14.416,0,0,1-9.75,8.008l4.7,2.966s6.611-2.183,9.14-7.878Z" fill="#05e666"/>
      </g>
      <g id="Group_37363" data-name="Group 37363" transform="matrix(-0.927, 0.375, -0.375, -0.927, 6615.294, -2019.741)">
        <path id="Path_5000-3" data-name="Path 5000" d="M6884.955,451.787a12.205,12.205,0,0,1-8.709,6.185l3.792,2.783s5.713-1.451,8.187-6.111Z" fill="#423b4f" opacity="0.22"/>
        <path id="Path_5001-3" data-name="Path 5001" d="M6884.59,450.346a12.2,12.2,0,0,1-8.708,6.186l3.791,2.783s5.713-1.451,8.187-6.111Z" fill="#e04784"/>
      </g>
    </g>
  </g>
</svg>
