<svg xmlns="http://www.w3.org/2000/svg" xmlns:xlink="http://www.w3.org/1999/xlink" width="350" height="350" viewBox="0 0 350 350">
  <defs>
    <linearGradient id="linear-gradient" y1="0.5" x2="1" y2="0.5" gradientUnits="objectBoundingBox">
      <stop offset="0" stop-color="#4a1ed9"/>
      <stop offset="0.917" stop-color="#5d2af5"/>
      <stop offset="1" stop-color="#602cf8"/>
    </linearGradient>
    <linearGradient id="linear-gradient-2" x1="0" y1="0.5" x2="1" y2="0.5" xlink:href="#linear-gradient"/>
    <clipPath id="clip-path">
      <path id="Trazado_40679" data-name="Trazado 40679" d="M6385.125,5314.874s-49.79-33.415-82.9,4.1-.28,79.764-12.585,106.52-47.394,22.291-41.1,73.849c8.542,69.944,185.3,80.013,278.547,47.734s63.982-87.752,40.279-106.806-20.123-53.69-30.646-78.173S6446.226,5350.823,6385.125,5314.874Z" transform="translate(-6247.791 -5301.168)" fill="url(#linear-gradient)"/>
    </clipPath>
    <clipPath id="clip-path-2">
      <path id="Trazado_40937" data-name="Trazado 40937" d="M6307.527,5289.9c-26.255,4.937-9.829,39.985-9.829,39.985.414,2.208,8.253,2.587,17.5.847s16.416-4.939,16-7.146C6331.2,5323.585,6333.781,5284.962,6307.527,5289.9Z" transform="translate(-6292.624 -5289.463)" fill="none"/>
    </clipPath>
    <clipPath id="clip-path-3">
      <path id="Trazado_40934" data-name="Trazado 40934" d="M6304.233,5306.1c-1.41-.383-2.473.628-.972,1.582a3.916,3.916,0,0,0,5.306-.583c1.5-1.753.171-2.617-.714-1.918A3.668,3.668,0,0,1,6304.233,5306.1Z" transform="translate(-6302.533 -5304.942)" fill="none"/>
    </clipPath>
  </defs>
  <g id="Grupo_37001" data-name="Grupo 37001" transform="translate(-6247.02 -5289.064)">
    <path id="Trazado_40674" data-name="Trazado 40674" d="M6412.273,5444.654s-57.608-6.713-55.854,4.853-23.183,5.889-37.936,6.057-50.933,1.864-52.692,19.241,122.355,6.688,187.008,8.046c64.028,1.345,77.137,1.109,78.2-9.191S6480.068,5443.879,6412.273,5444.654Z" transform="translate(18.279 149.769)" fill="#382a42" opacity="0.06"/>
    <g id="Grupo_37002" data-name="Grupo 37002" transform="translate(6248.542 5312.967)">
      <path id="Trazado_40675" data-name="Trazado 40675" d="M6385.125,5314.874s-49.79-33.415-82.9,4.1-.28,79.764-12.585,106.52-47.394,22.291-41.1,73.849c8.542,69.944,185.3,80.013,278.547,47.734s63.982-87.752,40.279-106.806-20.123-53.69-30.646-78.173S6446.226,5350.823,6385.125,5314.874Z" transform="translate(-6247.791 -5301.168)" fill="url(#linear-gradient-2)"/>
      <g id="Grupo_37001-2" data-name="Grupo 37001" clip-path="url(#clip-path)">
        <rect id="Rectángulo_4511" data-name="Rectángulo 4511" width="343.392" height="288.373" transform="translate(0.001 -8.747)" fill="#6d31ff"/>
        <path id="Trazado_40676" data-name="Trazado 40676" d="M6307.2,5478.917h2.694l-6.158-14.1h3.464l-5-11.152h3.079l-6.926-10.768h4.232l-6.928-13.845h2.7l-5.39-12.177h3.85l-6.16-10.511h4.235l-7.313-10.382h3.463l-8.083-17.69-8.083,17.69h3.463l-7.312,10.382h4.233l-6.159,10.511h3.851l-5.39,12.177h2.7l-6.928,13.845h4.233l-6.93,10.768h3.081l-5,11.152h3.465l-6.16,14.1h2.695l-6.542,12.819h61.588Z" transform="translate(-6243.538 -5225.993)" fill="#372ba5"/>
        <path id="Trazado_40677" data-name="Trazado 40677" d="M6313.84,5459.951h1.511l-3.454-7.907h1.943l-2.806-6.253h1.727l-3.884-6.038h2.374l-3.884-7.764h1.51l-3.021-6.827h2.158l-3.454-5.895h2.375l-4.1-5.821h1.942l-4.532-9.92-4.533,9.92h1.942l-4.1,5.821h2.374l-3.453,5.895h2.158l-3.021,6.827h1.51l-3.885,7.764h2.375l-3.886,6.038h1.727l-2.806,6.253h1.943l-3.455,7.907h1.511l-3.668,7.188h34.534Z" transform="translate(-6213.495 -5201.396)" fill="#372ba5"/>
        <path id="Trazado_40678" data-name="Trazado 40678" d="M6327.417,5457.116h1.263l-2.888-6.611h1.625l-2.347-5.229h1.443l-3.247-5.049h1.985l-3.25-6.491h1.264l-2.528-5.71h1.8l-2.887-4.928h1.985l-3.429-4.868h1.624l-3.789-8.3-3.791,8.3h1.624l-3.428,4.868h1.985l-2.888,4.928h1.806l-2.528,5.71h1.264l-3.249,6.491h1.985l-3.249,5.049h1.444l-2.347,5.229h1.625l-2.887,6.611h1.262l-3.068,6.011h28.878Z" transform="translate(-6195.334 -5195.149)" fill="#372ba5"/>
      </g>
    </g>
    <g id="Grupo_37017" data-name="Grupo 37017" transform="translate(6464.012 5487.725)">
      <g id="Grupo_37003" data-name="Grupo 37003" transform="translate(33.375 133.135)">
        <path id="Trazado_40680" data-name="Trazado 40680" d="M6378.916,5460.642v.1l3.364-.333.183-1.317-3.515,1.547" transform="translate(-6368.823 -5455.132)" fill="#3f3f3f"/>
        <path id="Trazado_40681" data-name="Trazado 40681" d="M6382.449,5457.352a14.871,14.871,0,0,0,3.381-.267s2.462,2.854,1.559,4.433c0,0-7.782,3.158-11.62,2.03s-1.014-2.822-.224-2.595C6375.546,5460.953,6380.216,5460.745,6382.449,5457.352Z" transform="translate(-6373.805 -5457.084)" fill="#020202"/>
        <path id="Trazado_40682" data-name="Trazado 40682" d="M6385.454,5458.245c.4-.56-.32-1.16-.32-1.16a14.87,14.87,0,0,1-3.381.267c-2.233,3.394-6.9,3.6-6.9,3.6s-1.918,1.917,3.5.789C6378.346,5461.742,6383.485,5460.987,6385.454,5458.245Z" transform="translate(-6373.109 -5457.084)" fill="#303030"/>
        <path id="Trazado_40683" data-name="Trazado 40683" d="M6380.92,5459.562a16.9,16.9,0,0,1-2.587.644c-5.414,1.127-3.5-.79-3.5-.79a10.956,10.956,0,0,0,2.913-.631s3.243-.519,3.186.583" transform="translate(-6373.123 -5455.546)" fill="#3f3f3f"/>
        <path id="Trazado_40684" data-name="Trazado 40684" d="M6379.227,5458.648a2.551,2.551,0,0,0-2.2-.058A1.4,1.4,0,0,1,6379.227,5458.648Z" transform="translate(-6370.664 -5456.102)" fill="#020202"/>
        <path id="Trazado_40685" data-name="Trazado 40685" d="M6378.788,5458.854a2.552,2.552,0,0,0-2.2-.06A1.4,1.4,0,0,1,6378.788,5458.854Z" transform="translate(-6371.091 -5455.901)" fill="#020202"/>
        <path id="Trazado_40686" data-name="Trazado 40686" d="M6378.377,5459.058a2.552,2.552,0,0,0-2.2-.058A1.4,1.4,0,0,1,6378.377,5459.058Z" transform="translate(-6371.49 -5455.702)" fill="#020202"/>
      </g>
      <g id="Grupo_37004" data-name="Grupo 37004" transform="translate(46.863 133.139)">
        <path id="Trazado_40687" data-name="Trazado 40687" d="M6385.747,5460.643v.1l3.364-.333.182-1.317-3.514,1.547" transform="translate(-6375.654 -5455.135)" fill="#3f3f3f"/>
        <path id="Trazado_40688" data-name="Trazado 40688" d="M6389.279,5457.354a14.842,14.842,0,0,0,3.38-.268s2.463,2.853,1.561,4.432c0,0-7.782,3.158-11.62,2.03s-1.014-2.819-.225-2.595C6382.375,5460.953,6387.045,5460.745,6389.279,5457.354Z" transform="translate(-6380.635 -5457.086)" fill="#020202"/>
        <path id="Trazado_40689" data-name="Trazado 40689" d="M6392.283,5458.245c.4-.56-.32-1.159-.32-1.159a14.842,14.842,0,0,1-3.38.268c-2.234,3.392-6.9,3.6-6.9,3.6s-1.917,1.917,3.5.789C6385.176,5461.742,6390.314,5460.987,6392.283,5458.245Z" transform="translate(-6379.938 -5457.086)" fill="#303030"/>
        <path id="Trazado_40690" data-name="Trazado 40690" d="M6387.751,5459.563a16.914,16.914,0,0,1-2.587.644c-5.415,1.127-3.5-.79-3.5-.79a10.972,10.972,0,0,0,2.913-.631s3.243-.517,3.185.583" transform="translate(-6379.953 -5455.55)" fill="#3f3f3f"/>
        <path id="Trazado_40691" data-name="Trazado 40691" d="M6386.057,5458.649a2.553,2.553,0,0,0-2.2-.058A1.4,1.4,0,0,1,6386.057,5458.649Z" transform="translate(-6377.493 -5456.105)" fill="#020202"/>
        <path id="Trazado_40692" data-name="Trazado 40692" d="M6385.618,5458.855a2.549,2.549,0,0,0-2.2-.06A1.4,1.4,0,0,1,6385.618,5458.855Z" transform="translate(-6377.922 -5455.904)" fill="#020202"/>
        <path id="Trazado_40693" data-name="Trazado 40693" d="M6385.208,5459.061a2.56,2.56,0,0,0-2.2-.061A1.4,1.4,0,0,1,6385.208,5459.061Z" transform="translate(-6378.321 -5455.705)" fill="#020202"/>
      </g>
      <path id="Trazado_40694" data-name="Trazado 40694" d="M6385.407,5440.264c5.2-.109,9.081-1.624,11.539-4.5,4.129-4.828,2.722-11.677,2.658-11.966l-.124-.587-10.415,1.979-13.935,2.352-.142.283c-.1.212-2.553,5.23,0,8.9C6376.7,5439.181,6380.2,5440.374,6385.407,5440.264Z" transform="translate(-6340.407 -5356.969)" fill="#1e1e1d"/>
      <path id="Trazado_40695" data-name="Trazado 40695" d="M6373.551,5428.126s-1.26,23.084.88,32.1,6.838,29.653,7.447,29.548,4.56-.543,4.56-.543-3.355-25.37-2.866-29.879,1.822-23.593,1.775-31.756S6373.551,5428.126,6373.551,5428.126Z" transform="translate(-6341.038 -5356.099)" fill="#1e1e1d"/>
      <path id="Trazado_40696" data-name="Trazado 40696" d="M6380.431,5428.1s-1.26,23.084.88,32.106,6.74,29.285,7.349,29.178,5.272-.614,5.272-.614-3.969-24.929-3.479-29.442,1.819-23.59,1.775-31.756S6380.431,5428.1,6380.431,5428.1Z" transform="translate(-6334.331 -5356.129)" fill="#1e1e1d"/>
      <path id="Trazado_40697" data-name="Trazado 40697" d="M6396.445,5440.271l1.955-.587s5.746-4.355,1.784-12.646l-3.108-1.927-17.275-1.9-5.569.179-.862,5.607,6.431,13.142Z" transform="translate(-6340.856 -5356.969)" fill="#1e1e1d"/>
      <path id="Trazado_40698" data-name="Trazado 40698" d="M6382.074,5427.173l.567,6.5,4.768,2.234.847-9.224Z" transform="translate(-6332.372 -5353.585)" fill="#333" opacity="0.7"/>
      <path id="Trazado_40699" data-name="Trazado 40699" d="M6376.551,5426.455l-.9,7.435-2.411,1.1.261-8.851Z" transform="translate(-6340.984 -5354.112)" fill="#333" opacity="0.7"/>
      <path id="Trazado_40700" data-name="Trazado 40700" d="M6389.577,5420.849s-26.134,5.155-28.987-26.76l-2.2,1.82s-1.833,32.295,31.938,31.322Z" transform="translate(-6355.472 -5385.354)" fill="#f9b180"/>
      <path id="Trazado_40701" data-name="Trazado 40701" d="M6395.818,5395.938s1.033,6.527-1.669,8.928l-17.6-.783-1.341-7.305Z" transform="translate(-6339.06 -5383.552)" fill="#452319"/>
      <path id="Trazado_40702" data-name="Trazado 40702" d="M6377.788,5405.326l9.7-.434-4.651,7.27Z" transform="translate(-6336.548 -5374.822)" fill="#af3a80"/>
      <path id="Trazado_40703" data-name="Trazado 40703" d="M6368.268,5405.525l.335.036a.388.388,0,0,0,.427-.346l.472-2.567a.391.391,0,0,0-.346-.428l-.722-.077a.388.388,0,0,0-.428.345l-.084,2.609A.392.392,0,0,0,6368.268,5405.525Z" transform="translate(-6346.167 -5377.506)" fill="#d89364"/>
      <g id="Grupo_37005" data-name="Grupo 37005" transform="translate(15.782 22.967)">
        <path id="Trazado_40704" data-name="Trazado 40704" d="M6365.611,5406.159c-.035-.034-.56-.493-.59-.534-.278-.385-.055-.75.292-1.046l2.375-2.957a.827.827,0,0,1,.351-.27.865.865,0,0,1,.968.25l3.236,4.425a.924.924,0,0,1,.174.51,1.167,1.167,0,0,1-.556,1.074l-1.423,1.212c-.748.751-1.238.54-1.549.175Z" transform="translate(-6364.896 -5401.297)" fill="#f9b180"/>
      </g>
      <g id="Grupo_37006" data-name="Grupo 37006" transform="translate(0 5.843)">
        <path id="Trazado_40705" data-name="Trazado 40705" d="M6357.22,5395.922c-.018-.047-.294-.687-.3-.734-.084-.468.272-.7.715-.82l3.414-1.648a.864.864,0,0,1,.435-.092.875.875,0,0,1,.767.644l1.017,5.387a.935.935,0,0,1-.064.536,1.161,1.161,0,0,1-.962.731l-1.808.481c-1,.357-1.351-.044-1.473-.51Z" transform="translate(-6356.903 -5392.625)" fill="#f9b180"/>
      </g>
      <g id="Grupo_37007" data-name="Grupo 37007" transform="translate(53.421 15.31)">
        <circle id="Elipse_824" data-name="Elipse 824" cx="1.669" cy="1.669" r="1.669" fill="#f9ae7c"/>
        <circle id="Elipse_825" data-name="Elipse 825" cx="0.979" cy="0.979" r="0.979" transform="translate(0.689 0.689)" fill="#cc9266"/>
      </g>
      <g id="Grupo_37008" data-name="Grupo 37008" transform="translate(36.204 15.138)">
        <circle id="Elipse_826" data-name="Elipse 826" cx="1.669" cy="1.669" r="1.669" fill="#f9ae7c"/>
        <circle id="Elipse_827" data-name="Elipse 827" cx="0.979" cy="0.979" r="0.979" transform="translate(0.69 0.689)" fill="#cc9266"/>
      </g>
      <path id="Trazado_40706" data-name="Trazado 40706" d="M6389.892,5406.226l10.684,1.724s3.644,2.044-.254,6.234l-3.139,23.415s-11.935,2.354-20.761-1.125l-1.915-21.843s-4.714-3.176,0-7.121Z" transform="translate(-6341.788 -5373.522)" fill="#f9b180"/>
      <path id="Trazado_40707" data-name="Trazado 40707" d="M6374.357,5424.949c.141,3.624,9.867,6.414,14.54,6.233s8.345-3.269,8.205-6.893-4.044-6.415-8.716-6.232S6374.216,5421.326,6374.357,5424.949Z" transform="translate(-6339.896 -5361.999)" fill="#f4be9a"/>
      <path id="Trazado_40708" data-name="Trazado 40708" d="M6386.267,5435.852l12.644-5.074s-.2-14.619-12.314-15.137-12.791,15.137-12.791,15.137Z" transform="translate(-6340.429 -5364.358)" fill="#1e1e1d"/>
      <rect id="Rectángulo_4512" data-name="Rectángulo 4512" width="17.934" height="3.069" transform="translate(54.599 73.406) rotate(-180)" fill="#731e1d"/>
      <path id="Trazado_40709" data-name="Trazado 40709" d="M6378.975,5425.566v2.9a.332.332,0,0,0,.343.318h3.107a.333.333,0,0,0,.343-.318v-2.9a.333.333,0,0,0-.343-.32h-3.107A.333.333,0,0,0,6378.975,5425.566Zm.514.157h2.766v2.585h-2.766Z" transform="translate(-6335.391 -5354.984)" fill="#ffae0d"/>
      <rect id="Rectángulo_4513" data-name="Rectángulo 4513" width="1.244" height="0.425" transform="translate(44.956 72.297) rotate(-180)" fill="#ffae0d"/>
      <path id="Trazado_40710" data-name="Trazado 40710" d="M6391.937,5412.51c.711-.62,7.522-3.92,7.522-3.92s-3.529-3.361-12.692-2.994c-10.124.408-13.381,2.554-13.381,2.554l8.8,5.289Z" transform="translate(-6340.84 -5374.163)" fill="#f9b180"/>
      <path id="Trazado_40711" data-name="Trazado 40711" d="M6378.178,5404.156v5.87l8.471.2-.811-6.258Z" transform="translate(-6336.167 -5375.722)" fill="#f9b180"/>
      <path id="Trazado_40712" data-name="Trazado 40712" d="M6378.178,5407.17s5.36,2.617,8.126.658l-.465-3.607-7.661-.506Z" transform="translate(-6336.167 -5375.971)" fill="#ed9a62"/>
      <path id="Trazado_40713" data-name="Trazado 40713" d="M6384.065,5405.482c-2.646.558-2.671.564-3.509.757a83.163,83.163,0,0,0-8.971,3.237l4.493,24.624s-2.9,6.833,0,8.691,21.751,2,24.491.833,1.063-9.4.667-11.132,4.658-22.241,4.658-22.241c-2.968-2.321-9.513-4.178-9.513-4.178l-2.917-.648-4.725,5.929Z" transform="translate(-6342.594 -5374.302)" fill="#96236d"/>
      <path id="Trazado_40714" data-name="Trazado 40714" d="M6390.5,5438.854c7.693-.257,11.262-1.767,11.262-1.767l-.966-19.767-27.368-1.5c-.006,3.372-.639,21.656-.639,21.656a101.794,101.794,0,0,0,10.543,1.25Z" transform="translate(-6341.425 -5364.168)" fill="#96236d"/>
      <path id="Trazado_40715" data-name="Trazado 40715" d="M6389.233,5411.054l7.575,1.106-.306,2.7-1.543,7.109.966,19.767s-4.343,2-16.237,1.681c0,0,8.987-4.411,7.484-6.082s-1.2-6.222,1.349-9.434,2.173-10.136-2.792-10.305-6.962-1.413-6.962-1.413Z" transform="translate(-6335.593 -5368.818)" fill="#841e64" opacity="0.49"/>
      <path id="Trazado_40716" data-name="Trazado 40716" d="M6381.789,5417.335l.343-9.642-1.16,1.453-1.189-1.453-.229,9.642v.208l1.1-1.266Z" transform="translate(-6334.828 -5372.093)" fill="#841e64"/>
      <path id="Trazado_40717" data-name="Trazado 40717" d="M6393.477,5410.795c-.409,2.8-1.547,3.46-1.547,3.46l-3.079,2.586c-4.385,3.606-7.915.6-7.915.6l-2.059-1.292a6.377,6.377,0,0,1-3.027-5.828l.838-12.577s1.009-7.266,8.371-6.758c8.256.57,8.481,7.234,8.481,7.234Z" transform="translate(-6338.452 -5388.405)" fill="#f9ae7c"/>
      <path id="Trazado_40718" data-name="Trazado 40718" d="M6378.566,5415.116s3.528,3.01,7.916-.6l3.079-2.585a3.954,3.954,0,0,0,1.546-3.462l.065-12.577a7.645,7.645,0,0,0-1.671-4.141,7.613,7.613,0,0,1,3.386,5.685l-.064,12.577c-.228,2.607-1.547,3.462-1.547,3.462l-3.078,2.584c-4.385,3.606-7.915.6-7.915.6l-2.06-1.292a6.684,6.684,0,0,1-1.717-1.543Z" transform="translate(-6337.797 -5387.628)" fill="#ed9a62" opacity="0.2"/>
      <path id="Trazado_40719" data-name="Trazado 40719" d="M6382.89,5412.162l-2.239-1.361,4.052-5.908,1.655,3.327Z" transform="translate(-6333.758 -5374.822)" fill="#d6569c"/>
      <path id="Trazado_40720" data-name="Trazado 40720" d="M6380.643,5411.99l2.158-1.387-4.174-5.491-1.7,3.174Z" transform="translate(-6337.387 -5374.609)" fill="#d6569c"/>
      <path id="Trazado_40721" data-name="Trazado 40721" d="M6381.019,5407.885l-.747,1.075,1.012-.537,1.974.823Z" transform="translate(-6334.127 -5371.906)" fill="#993074"/>
      <path id="Trazado_40722" data-name="Trazado 40722" d="M6380.952,5407.885l.746,1.075-1.011-.537-1.877.864Z" transform="translate(-6335.553 -5371.906)" fill="#993074"/>
      <g id="Grupo_37009" data-name="Grupo 37009" transform="translate(40.966 15.118)">
        <path id="Trazado_40723" data-name="Trazado 40723" d="M6380.821,5399.054a6.322,6.322,0,0,0,.734-1.128c.271-.571.571-.744,1.106-.492s.534,4.8-2.549,4.965-2.567-1.953-2.137-2.441S6379.671,5400.424,6380.821,5399.054Z" transform="translate(-6377.649 -5397.321)" fill="#e28f56"/>
        <path id="Trazado_40724" data-name="Trazado 40724" d="M6379.993,5402.056c2.651-.145,3.023-3.531,2.733-4.631.437.691.257,4.716-2.638,4.874-1.623.089-2.248-.458-2.414-1.066C6377.933,5401.734,6378.591,5402.133,6379.993,5402.056Z" transform="translate(-6377.625 -5397.222)" fill="#c97236"/>
      </g>
      <path id="Trazado_40725" data-name="Trazado 40725" d="M6381.571,5395.835s2.58.367,2.969,1.017a4.7,4.7,0,0,1,.511,1.531l-3.734-1.837Z" transform="translate(-6333.108 -5383.651)" fill="#452319"/>
      <path id="Trazado_40726" data-name="Trazado 40726" d="M6380.589,5395.642s-2.6-.168-3.113.389a4.656,4.656,0,0,0-.814,1.392l4.031-1.033Z" transform="translate(-6337.645 -5383.863)" fill="#452319"/>
      <g id="Grupo_37010" data-name="Grupo 37010" transform="translate(39.802 13.535)">
        <path id="Trazado_40727" data-name="Trazado 40727" d="M6377.065,5397.72a1.395,1.395,0,1,0,1.5-1.195A1.357,1.357,0,0,0,6377.065,5397.72Z" transform="translate(-6377.061 -5396.52)" fill="#231f20"/>
        <path id="Trazado_40728" data-name="Trazado 40728" d="M6377.829,5397.183a.363.363,0,0,0-.037.49c.159.21-.154.478-.315.266a.772.772,0,0,1,.015-.995.213.213,0,0,1,.289-.05.209.209,0,0,1,.049.289Z" transform="translate(-6376.824 -5396.189)" fill="#fff"/>
      </g>
      <g id="Grupo_37011" data-name="Grupo 37011" transform="translate(48.242 14.26)">
        <path id="Trazado_40729" data-name="Trazado 40729" d="M6381.339,5398.087a1.4,1.4,0,1,0,1.5-1.2A1.36,1.36,0,0,0,6381.339,5398.087Z" transform="translate(-6381.334 -5396.887)" fill="#231f20"/>
        <path id="Trazado_40730" data-name="Trazado 40730" d="M6382.1,5397.548a.364.364,0,0,0-.037.49c.16.212-.156.479-.316.267a.771.771,0,0,1,.016-.993.214.214,0,0,1,.286-.051.207.207,0,0,1,.051.288Z" transform="translate(-6381.098 -5396.558)" fill="#fff"/>
      </g>
      <g id="Grupo_37012" data-name="Grupo 37012" transform="translate(38.692 10.746)">
        <circle id="Elipse_828" data-name="Elipse 828" cx="0.19" cy="0.19" r="0.19" transform="translate(3.234)" fill="#c97236"/>
        <circle id="Elipse_829" data-name="Elipse 829" cx="0.19" cy="0.19" r="0.19" transform="translate(0 5.023)" fill="#c97236"/>
        <circle id="Elipse_830" data-name="Elipse 830" cx="0.126" cy="0.126" r="0.126" transform="translate(2.631 0.148)" fill="#c97236"/>
      </g>
      <path id="Trazado_40731" data-name="Trazado 40731" d="M6393.743,5406.1l-.939-.5s.579-4.77-.289-5.275c0,0-.208-5.562-5.089-6.283s-10.543,1.846-10.559,4.848c-.014,3.1-.516,7.8-.474,7.129l-.806-3.065.489-8.191s5.9-5.591,11.749-3.59,6.35,6.374,6.35,8.124S6393.743,5406.1,6393.743,5406.1Z" transform="translate(-6338.693 -5388.62)" fill="#452319"/>
      <path id="Trazado_40732" data-name="Trazado 40732" d="M6376.576,5402.736a1.531,1.531,0,0,1-.222-1.667,9.49,9.49,0,0,0,.464-1.542,2.012,2.012,0,0,1,1.96-1.72,1.941,1.941,0,0,1,1.294-1.574,5.354,5.354,0,0,1,3.221-.533c1.443.315,4.4.109,5.826.491a2.938,2.938,0,0,1,2,2.121,6.758,6.758,0,0,0,1.375,2.5,3.146,3.146,0,0,1,.9,2.091,6.649,6.649,0,0,0,.2,1.615c.075.3.371.828.689.48.465-.512,1.161-1.019.891-1.933-.038-.134.14-.388.285-.5a1.316,1.316,0,0,1,.489-.164,5.38,5.38,0,0,0,.341-1.4,20.359,20.359,0,0,0-.332-3.1,11.418,11.418,0,0,0-.786-2.35,4.09,4.09,0,0,0-1.669-2.322c-.389-.2-.787-.39-1.164-.613-.259-.156-.467-.44-.744-.528-.712-.228-1.562-.038-2.125-.74-.078-.094-.283-.084-.429-.124-.252-.067-.508-.124-.755-.2-.362-.118-.722-.254-1.155-.407l.178-.948c-.637,1.12-.626,1.086-1.883.719a20.154,20.154,0,0,0-3.485.06c-1.093.154-1.7.923-2.787,1.15a2.952,2.952,0,0,0-.77.393c-.036.02-.028.111-.051.216l.456-.093-.156.6c.77-.822.5-.931,1.514-.3a14.828,14.828,0,0,0-1.785.765,13.733,13.733,0,0,0-1.557,1.18,3.725,3.725,0,0,0-1.067,2.379c-.156.707-.06,1.467-.189,2.182a9.5,9.5,0,0,0-.279,3.967c.043.185.936,1.349,1.03,1.519Z" transform="translate(-6339.122 -5389.665)" fill="#452319"/>
      <path id="Trazado_40733" data-name="Trazado 40733" d="M6381.584,5392.237s-2.877.541-3.009,1.733l1.925-.6-.812,1.193,3.25-1.166Z" transform="translate(-6335.782 -5387.16)" fill="#452319"/>
      <path id="Trazado_40734" data-name="Trazado 40734" d="M6379.144,5403s-.61,1.708-.315,2.26,1.5.4,1.842.361,1.235.1,1.664-.171a2.9,2.9,0,0,1-1.63.487c-.9-.036-1.662.058-1.951-.289A2.694,2.694,0,0,1,6379.144,5403Z" transform="translate(-6335.793 -5376.669)" fill="#ed9a62"/>
      <g id="Grupo_37013" data-name="Grupo 37013" transform="translate(45.413 37.814)">
        <path id="Trazado_40735" data-name="Trazado 40735" d="M6379.9,5409.355a.542.542,0,1,0,.54-.54A.54.54,0,0,0,6379.9,5409.355Z" transform="translate(-6379.902 -5408.815)" fill="#b5418c"/>
        <circle id="Elipse_831" data-name="Elipse 831" cx="0.129" cy="0.129" r="0.129" transform="translate(0.594 0.247)" fill="#d6569c"/>
        <circle id="Elipse_832" data-name="Elipse 832" cx="0.129" cy="0.129" r="0.129" transform="translate(0.594 0.569)" fill="#d6569c"/>
        <circle id="Elipse_833" data-name="Elipse 833" cx="0.129" cy="0.129" r="0.129" transform="translate(0.245 0.247)" fill="#d6569c"/>
        <circle id="Elipse_834" data-name="Elipse 834" cx="0.129" cy="0.129" r="0.129" transform="translate(0.245 0.569)" fill="#d6569c"/>
      </g>
      <g id="Grupo_37014" data-name="Grupo 37014" transform="translate(45.464 39.815)">
        <path id="Trazado_40736" data-name="Trazado 40736" d="M6379.927,5410.37a.542.542,0,1,0,.544-.542A.543.543,0,0,0,6379.927,5410.37Z" transform="translate(-6379.927 -5409.828)" fill="#b5418c"/>
        <circle id="Elipse_835" data-name="Elipse 835" cx="0.129" cy="0.129" r="0.129" transform="translate(0.596 0.248)" fill="#d6569c"/>
        <circle id="Elipse_836" data-name="Elipse 836" cx="0.129" cy="0.129" r="0.129" transform="translate(0.596 0.57)" fill="#d6569c"/>
        <circle id="Elipse_837" data-name="Elipse 837" cx="0.129" cy="0.129" r="0.129" transform="translate(0.246 0.248)" fill="#d6569c"/>
        <circle id="Elipse_838" data-name="Elipse 838" cx="0.129" cy="0.129" r="0.129" transform="translate(0.246 0.57)" fill="#d6569c"/>
      </g>
      <g id="Grupo_37015" data-name="Grupo 37015" transform="translate(45.413 41.728)">
        <path id="Trazado_40737" data-name="Trazado 40737" d="M6379.9,5411.339a.542.542,0,1,0,.54-.542A.542.542,0,0,0,6379.9,5411.339Z" transform="translate(-6379.902 -5410.797)" fill="#b5418c"/>
        <circle id="Elipse_839" data-name="Elipse 839" cx="0.129" cy="0.129" r="0.129" transform="translate(0.594 0.249)" fill="#d6569c"/>
        <circle id="Elipse_840" data-name="Elipse 840" cx="0.129" cy="0.129" r="0.129" transform="translate(0.594 0.571)" fill="#d6569c"/>
        <circle id="Elipse_841" data-name="Elipse 841" cx="0.129" cy="0.129" r="0.129" transform="translate(0.245 0.249)" fill="#d6569c"/>
        <circle id="Elipse_842" data-name="Elipse 842" cx="0.129" cy="0.129" r="0.129" transform="translate(0.245 0.571)" fill="#d6569c"/>
      </g>
      <path id="Trazado_40738" data-name="Trazado 40738" d="M6380.833,5412.612l-6.881.292v1.605l6.881-.217Z" transform="translate(-6340.286 -5367.297)" fill="#841e64"/>
      <path id="Trazado_40739" data-name="Trazado 40739" d="M6384.48,5411.01l-3.121-3.738s-7.309,1.282-11.933-1.479c0,0-3.6,3.987-3.007,8.795,0,0,8.465,5.618,15.5,4.008Z" transform="translate(-6347.694 -5373.945)" fill="#96236d"/>
      <path id="Trazado_40740" data-name="Trazado 40740" d="M6371.9,5406.4a46.426,46.426,0,0,0-3.833,10.045l-2.594-1.94a38.888,38.888,0,0,1,4.778-9.21Z" transform="translate(-6348.555 -5374.437)" fill="#b5418c"/>
      <path id="Trazado_40741" data-name="Trazado 40741" d="M6406.14,5413.422s-20.725,16.739-38.115-10.177l-1.1,2.636s13.419,29.431,42.851,12.841Z" transform="translate(-6347.135 -5376.428)" fill="#f9b180"/>
      <path id="Trazado_40742" data-name="Trazado 40742" d="M6393.7,5407.129s-3.138,3.54-12.209,4.16c0,0-.836,6.3,2.938,9.437,0,0,6.427.383,11.462-3.228S6396.81,5407.436,6393.7,5407.129Z" transform="translate(-6333.016 -5372.644)" fill="#96236d"/>
      <g id="Grupo_37016" data-name="Grupo 37016" transform="translate(43.165 21.385)">
        <path id="Trazado_40743" data-name="Trazado 40743" d="M6379.157,5400.665s2.037-.614,2.709.492.822,3.49-.485,3.474-2.283-.039-2.558-.806.5-1.417.04-2.386A.545.545,0,0,1,6379.157,5400.665Z" transform="translate(-6378.762 -5400.495)" fill="#452319"/>
        <path id="Trazado_40744" data-name="Trazado 40744" d="M6378.823,5402.72c.275.767,1.25.791,2.558.806.625.007.916-.538.978-1.227-.026-.011-2.207-.965-3.479-.579h0A1.6,1.6,0,0,0,6378.823,5402.72Z" transform="translate(-6378.763 -5399.39)" fill="#d80757"/>
        <path id="Trazado_40745" data-name="Trazado 40745" d="M6378.843,5401.72h0c-.015.054-.029.108-.043.163a7.888,7.888,0,0,1,2.992.661,1.618,1.618,0,0,1-.363.974c.565-.044.834-.563.893-1.219C6382.3,5402.287,6380.115,5401.333,6378.843,5401.72Z" transform="translate(-6378.726 -5399.39)" fill="#c10a55"/>
      </g>
      <path id="Trazado_40746" data-name="Trazado 40746" d="M6377.146,5457.048l6.095-.352v1.1l-6.095.668Z" transform="translate(-6337.174 -5324.329)" fill="#141413"/>
      <path id="Trazado_40747" data-name="Trazado 40747" d="M6384.2,5456.988l6.1-.352v1.1l-6.1.668Z" transform="translate(-6330.295 -5324.385)" fill="#141413"/>
      <path id="Trazado_40748" data-name="Trazado 40748" d="M6382.937,5409.707a39.2,39.2,0,0,0,2.084,8.91l-2.706.241a33.953,33.953,0,0,1-1.042-8.911Z" transform="translate(-6333.182 -5370.131)" fill="#b5418c"/>
      <path id="Trazado_40749" data-name="Trazado 40749" d="M6359.674,5397.1l.289.177a.392.392,0,0,0,.535-.128l1.531-2.114a.393.393,0,0,0-.129-.536l-.618-.382a.393.393,0,0,0-.535.128l-1.2,2.319A.391.391,0,0,0,6359.674,5397.1Z" transform="translate(-6354.384 -5385.379)" fill="#d89364"/>
    </g>
    <g id="Grupo_37031" data-name="Grupo 37031" transform="translate(6318.347 5486.182)">
      <g id="Grupo_37018" data-name="Grupo 37018" transform="translate(3.731 127.932)">
        <path id="Trazado_40750" data-name="Trazado 40750" d="M6292.559,5453.669s-2.322,5.389-2.964,5.884l-.565,1.284,8.64,4.3s2.22,1.134,3.033-.549c0,0,.313-1.118-1.627-2.113a10.546,10.546,0,0,1-2.733-6.974l-1.3-.285A4.089,4.089,0,0,1,6292.559,5453.669Z" transform="translate(-6289.029 -5453.669)" fill="#2c2c35"/>
        <path id="Trazado_40751" data-name="Trazado 40751" d="M6297.744,5463.49l-2.476-.743c-3.282-2.537-3.2-8.3-3.2-8.3l1.3.285a10.548,10.548,0,0,0,2.733,6.974c1.283.66,1.58,1.372,1.634,1.78" transform="translate(-6286.063 -5452.905)" fill="#0c0c17"/>
        <path id="Trazado_40752" data-name="Trazado 40752" d="M6289.595,5456.648l-.565,1.284,8.64,4.3s2.22,1.134,3.033-.549a.9.9,0,0,0,.008-.333A45,45,0,0,1,6289.595,5456.648Z" transform="translate(-6289.029 -5450.763)" fill="#fff"/>
        <path id="Trazado_40753" data-name="Trazado 40753" d="M6291.105,5454.992s-1.274,2.424-1.79,3.27c0,0,1.212.687,3.736,1.937C6293.052,5460.2,6294.211,5456.555,6291.105,5454.992Z" transform="translate(-6288.751 -5452.377)" fill="#0c0c17"/>
        <path id="Trazado_40754" data-name="Trazado 40754" d="M6292.445,5455.162s.667-.311.769.313c0,0,.036-.9-.82-.568Z" transform="translate(-6285.749 -5452.533)" fill="#fff"/>
        <path id="Trazado_40755" data-name="Trazado 40755" d="M6292.505,5455.61s.656-.335.78.285c0,0,0-.907-.842-.538Z" transform="translate(-6285.701 -5452.109)" fill="#fff"/>
        <path id="Trazado_40756" data-name="Trazado 40756" d="M6292.539,5455.936s.667-.31.767.316c0,0,.036-.907-.819-.571Z" transform="translate(-6285.66 -5451.779)" fill="#fff"/>
        <path id="Trazado_40757" data-name="Trazado 40757" d="M6292.677,5456.334s.655-.335.781.285c0,0,0-.9-.841-.535Z" transform="translate(-6285.53 -5451.4)" fill="#fff"/>
        <path id="Trazado_40758" data-name="Trazado 40758" d="M6289.761,5457.164s6.354,3.539,8.916,4.2c0,0,.537.2-.091.187,0,0-3.234-.7-9.054-4.154C6289.532,5457.4,6288.991,5456.848,6289.761,5457.164Z" transform="translate(-6288.719 -5450.356)" fill="#c6c5c4"/>
        <path id="Trazado_40759" data-name="Trazado 40759" d="M6294.116,5458.127l.01.991,1.587.577A2.848,2.848,0,0,0,6294.116,5458.127Z" transform="translate(-6284.07 -5449.322)" fill="#fff"/>
      </g>
      <g id="Grupo_37019" data-name="Grupo 37019" transform="translate(30.254 107.853)">
        <path id="Trazado_40760" data-name="Trazado 40760" d="M6306.571,5443.5s-2.76,5.18-3.441,5.621l-.669,1.232,8.255,5s2.119,1.311,3.069-.3c0,0,.4-1.089-1.448-2.244a10.539,10.539,0,0,1-2.146-7.174l-1.276-.394A4.08,4.08,0,0,1,6306.571,5443.5Z" transform="translate(-6302.46 -5443.5)" fill="#2c2c35"/>
        <path id="Trazado_40761" data-name="Trazado 40761" d="M6310.654,5453.862l-2.405-.944c-3.063-2.8-2.5-8.534-2.5-8.534l1.276.393a10.541,10.541,0,0,0,2.146,7.174c1.225.764,1.462,1.5,1.483,1.91" transform="translate(-6299.295 -5442.639)" fill="#0c0c17"/>
        <path id="Trazado_40762" data-name="Trazado 40762" d="M6303.129,5446.347l-.669,1.233,8.255,5s2.119,1.312,3.069-.3a.95.95,0,0,0,.036-.333A44.989,44.989,0,0,1,6303.129,5446.347Z" transform="translate(-6302.46 -5440.726)" fill="#fff"/>
        <path id="Trazado_40763" data-name="Trazado 40763" d="M6304.854,5444.771s-1.471,2.311-2.055,3.111c0,0,1.15.786,3.563,2.239C6306.362,5450.122,6307.819,5446.584,6304.854,5444.771Z" transform="translate(-6302.13 -5442.261)" fill="#0c0c17"/>
        <path id="Trazado_40764" data-name="Trazado 40764" d="M6306.043,5445.111s.693-.252.74.377c0,0,.111-.9-.767-.633Z" transform="translate(-6298.996 -5442.229)" fill="#fff"/>
        <path id="Trazado_40765" data-name="Trazado 40765" d="M6306.065,5445.56s.682-.28.756.35c0,0,.072-.9-.794-.607Z" transform="translate(-6298.984 -5441.8)" fill="#fff"/>
        <path id="Trazado_40766" data-name="Trazado 40766" d="M6306.073,5445.888s.691-.253.74.38c0,0,.11-.9-.77-.637Z" transform="translate(-6298.969 -5441.469)" fill="#fff"/>
        <path id="Trazado_40767" data-name="Trazado 40767" d="M6306.178,5446.3s.683-.283.757.347c0,0,.073-.9-.794-.6Z" transform="translate(-6298.873 -5441.082)" fill="#fff"/>
        <path id="Trazado_40768" data-name="Trazado 40768" d="M6303.2,5446.894s6.042,4.053,8.54,4.927c0,0,.517.244-.1.177,0,0-3.166-.966-8.681-4.89C6302.956,5447.108,6302.461,5446.517,6303.2,5446.894Z" transform="translate(-6302.135 -5440.315)" fill="#c6c5c4"/>
        <path id="Trazado_40769" data-name="Trazado 40769" d="M6307.5,5448.216l-.073.989,1.538.708A2.86,2.86,0,0,0,6307.5,5448.216Z" transform="translate(-6297.622 -5438.904)" fill="#fff"/>
      </g>
      <path id="Trazado_40770" data-name="Trazado 40770" d="M6305.332,5428.877l-6.348-5.761s-6.5,8.1-1.276,17.561c0,0-.241,15.046-7.393,43.753,0,0,1.708,1.96,5.915,1.96,0,0,12.745-43.438,12.372-54.914Z" transform="translate(-6284.046 -5355.517)" fill="#10281c"/>
      <path id="Trazado_40771" data-name="Trazado 40771" d="M6307.912,5424.16l2.04,4.189s15.8,10.584,14.763,15.1c-1.437,6.268-23.758-8.884-23.758-8.884S6301.314,5420.908,6307.912,5424.16Z" transform="translate(-6273.673 -5354.986)" fill="#10281c"/>
      <path id="Trazado_40772" data-name="Trazado 40772" d="M6297.207,5437.118l-.732,23.027,7.362-28.116a9.231,9.231,0,0,0,7-4.21l-11.762-1.218Z" transform="translate(-6278.043 -5352.121)" fill="#10281c"/>
      <path id="Trazado_40773" data-name="Trazado 40773" d="M6304.2,5422.841s7.1-4.413,10.105-16.607c2.7-10.964,2.124-15.052,2.124-15.052l2.813.791s.438,22.9-12.725,33.171Z" transform="translate(-6270.513 -5386.644)" fill="#d3a179"/>
      <path id="Trazado_40774" data-name="Trazado 40774" d="M6295.924,5410.918s-1.552,5.879-8.053,16.332c0,0,.281.742,2.354,1.477,0,0,4.6-6.2,8.5-17.311Z" transform="translate(-6286.428 -5367.406)" fill="#d3a179"/>
      <g id="Grupo_37021" data-name="Grupo 37021" transform="translate(43.455)">
        <path id="Trazado_40775" data-name="Trazado 40775" d="M6311.792,5392.888l-.222.217a.365.365,0,0,1-.513-.008l-1.808-1.605a.359.359,0,0,1,.006-.509l.483-.471a.364.364,0,0,1,.51.007l1.551,1.859A.358.358,0,0,1,6311.792,5392.888Z" transform="translate(-6309.146 -5387.396)" fill="#d89364"/>
        <g id="Grupo_37020" data-name="Grupo 37020" transform="translate(1.549)">
          <path id="Trazado_40776" data-name="Trazado 40776" d="M6315.01,5391.04c.006-.045.129-.68.127-.727-.015-.44-.387-.581-.811-.6l-3.421-.8a.793.793,0,0,0-.413,0,.807.807,0,0,0-.562.737l.164,5.079a.881.881,0,0,0,.164.472,1.078,1.078,0,0,0,1.019.467l1.731.073c.976.121,1.215-.312,1.232-.757Z" transform="translate(-6309.93 -5388.886)" fill="#d3a179"/>
        </g>
      </g>
      <path id="Trazado_40777" data-name="Trazado 40777" d="M6312.576,5395.434a3.607,3.607,0,0,0,.375-2.73,2.63,2.63,0,0,0-.9-1.217s-4.989-2.538-7.713-2.4l.715.916s-3.775-.987-6.11-.071l1.6.306s-3.691-.023-5.713,1.457l1.7.141s-2.524,1.9-3.157,3.172l1.457-.565-1.068,2.538,1.068-.845a4.47,4.47,0,0,0-1.068,3.028c.1,1.764,1.918,7.076,1.918,7.076l18.588-1.07Z" transform="translate(-6281.07 -5388.688)" fill="#231f20"/>
      <path id="Trazado_40778" data-name="Trazado 40778" d="M6304.524,5404.23l-.937,6.378H6298.6l-.536-6.536Z" transform="translate(-6276.492 -5374.079)" fill="#d3a179"/>
      <path id="Trazado_40779" data-name="Trazado 40779" d="M6304.214,5406.344s-3.62,1.738-5.956.085l-.194-2.357,6.459.159Z" transform="translate(-6276.492 -5374.08)" fill="#c19063"/>
      <path id="Trazado_40780" data-name="Trazado 40780" d="M6304.938,5406.591l-10.108,1.634s-3.445,1.933.242,5.9l2.972,22.146a26.2,26.2,0,0,0,15.749-1.062l1.813-20.662s4.458-3,0-6.736Z" transform="translate(-6281.069 -5371.624)" fill="#f9b180"/>
      <path id="Trazado_40781" data-name="Trazado 40781" d="M6314.883,5408.4l-5.574,4.125-12.99-2.375-2.21-1.333s7.408-3.105,11.4-2.813a29.641,29.641,0,0,1,9.377,2.4" transform="translate(-6280.347 -5372.216)" fill="#d3a179"/>
      <ellipse id="Elipse_843" data-name="Elipse 843" cx="6.212" cy="8.008" rx="6.212" ry="8.008" transform="translate(16.478 69.162) rotate(-87.768)" fill="#f9b180"/>
      <path id="Trazado_40782" data-name="Trazado 40782" d="M6316.17,5422.572a13.839,13.839,0,0,1-4.109,10.874,10.4,10.4,0,0,1-6.644,2.782c-6.348.357-11.4-4.255-11.392-11.731Z" transform="translate(-6280.429 -5356.047)" fill="#10281c"/>
      <g id="Grupo_37023" data-name="Grupo 37023" transform="translate(11.409 33.455)">
        <g id="Grupo_37022" data-name="Grupo 37022" transform="translate(0.46)">
          <path id="Trazado_40783" data-name="Trazado 40783" d="M6310.9,5406.065c3.122,1.1,5.875,2.107,5.875,2.107,7-1.069.729,5.735.729,5.735l-1.068,29.663H6295.65l-.606-27.157s-1.49-.8-1.852-3.657a4.032,4.032,0,0,1,1.791-4.059s1.566-.684,4.96-1.951a9.507,9.507,0,0,1,1.444-.574s.617,4.254,4.045,4.469S6310.9,5406.065,6310.9,5406.065Z" transform="translate(-6293.15 -5405.591)" fill="#fbb03b"/>
          <path id="Trazado_40784" data-name="Trazado 40784" d="M6297.99,5406.137s1,4.071,4.374,4.206c2.845.114,4.561-4.518,4.561-4.518l.757.143s-.963,5.54-5.146,5.54c-5.014,0-5.6-5.21-5.6-5.21Z" transform="translate(-6289.466 -5405.826)" fill="#f49445"/>
        </g>
        <path id="Trazado_40785" data-name="Trazado 40785" d="M6301.925,5416.553c-.311-.249-6.571-3.373-6.571-3.373s-.249,16.684-2.437,27.709c0,0,17.635,1.979,25.108-2.968l-.522-24.741Z" transform="translate(-6292.917 -5398.656)" fill="#fbb03b"/>
      </g>
      <path id="Trazado_40786" data-name="Trazado 40786" d="M6301.265,5392.242l3.971-.823s3.679,4.53,3.043,7.022-2.215,6.976-2.215,6.976l-1.037.324-3.959-11.611Z" transform="translate(-6273.566 -5386.413)" fill="#231f20"/>
      <g id="Grupo_37024" data-name="Grupo 37024" transform="translate(31.446 15.257)">
        <circle id="Elipse_844" data-name="Elipse 844" cx="1.449" cy="1.449" r="1.449" fill="#d3a179"/>
        <circle id="Elipse_845" data-name="Elipse 845" cx="0.85" cy="0.85" r="0.85" transform="translate(0.599 0.6)" fill="#c6906b"/>
      </g>
      <g id="Grupo_37025" data-name="Grupo 37025" transform="translate(13.694 16.404)">
        <circle id="Elipse_846" data-name="Elipse 846" cx="1.449" cy="1.449" r="1.449" fill="#d3a179"/>
        <circle id="Elipse_847" data-name="Elipse 847" cx="0.85" cy="0.85" r="0.85" transform="translate(0.6 0.599)" fill="#c6906b"/>
      </g>
      <path id="Trazado_40787" data-name="Trazado 40787" d="M6313.072,5409.86l-.332-13.523s-.926-5.764-9.842-5.329-8.264,8.217-8.264,8.217l.045.01.825,11.412a3.8,3.8,0,0,0,1.64,3.337l3.182,2.46c4.531,3.424,7.712.439,7.712.439l2.069-1.294A6.083,6.083,0,0,0,6313.072,5409.86Z" transform="translate(-6279.845 -5386.836)" fill="#d3a179"/>
      <g id="Grupo_37026" data-name="Grupo 37026" transform="translate(19.987 15.268)">
        <path id="Trazado_40788" data-name="Trazado 40788" d="M6299.673,5397.63a1.212,1.212,0,1,1-1.325-1.006A1.177,1.177,0,0,1,6299.673,5397.63Z" transform="translate(-6297.262 -5396.616)" fill="#231f20"/>
        <path id="Trazado_40789" data-name="Trazado 40789" d="M6298.06,5397.187a.317.317,0,0,1,.041.426c-.133.187.144.413.281.224a.672.672,0,0,0-.032-.862.189.189,0,0,0-.252-.038.182.182,0,0,0-.038.25Z" transform="translate(-6296.52 -5396.335)" fill="#fff"/>
      </g>
      <g id="Grupo_37027" data-name="Grupo 37027" transform="translate(27.595 14.772)">
        <path id="Trazado_40790" data-name="Trazado 40790" d="M6303.526,5397.378a1.212,1.212,0,1,1-1.325-1.006A1.179,1.179,0,0,1,6303.526,5397.378Z" transform="translate(-6301.115 -5396.364)" fill="#231f20"/>
        <path id="Trazado_40791" data-name="Trazado 40791" d="M6301.913,5396.937a.316.316,0,0,1,.042.425c-.134.188.143.413.281.225a.671.671,0,0,0-.034-.863.188.188,0,0,0-.251-.038.18.18,0,0,0-.038.251Z" transform="translate(-6300.372 -5396.083)" fill="#fff"/>
      </g>
      <g id="Grupo_37028" data-name="Grupo 37028" transform="translate(24.232 17.241)">
        <path id="Trazado_40792" data-name="Trazado 40792" d="M6301.643,5399.558a6.84,6.84,0,0,1-.714-1.253c-.258-.628-.565-.832-1.154-.592s-.86,5.1,2.425,5.465,2.863-1.934,2.432-2.481S6302.79,5401.091,6301.643,5399.558Z" transform="translate(-6299.411 -5397.615)" fill="#e28f56"/>
        <path id="Trazado_40793" data-name="Trazado 40793" d="M6302.314,5402.829c-2.828-.315-3.017-3.959-2.642-5.119-.505.713-.563,5.028,2.528,5.375,1.73.192,2.432-.354,2.644-.993C6304.537,5402.611,6303.812,5403,6302.314,5402.829Z" transform="translate(-6299.411 -5397.522)" fill="#c97236"/>
      </g>
      <path id="Trazado_40794" data-name="Trazado 40794" d="M6295.136,5406.213l1.04.324s-.711-4.068,0-4.238a3.2,3.2,0,0,0,1.792-3.59c-.343-2.078.794-4.326,3.979-4.312l2.229.529,1.868-.529s4.471-.248,5.374,1.283.6,9.939.6,9.939l1.076.292s.3-8.169.132-10.02-3.186-5.391-9.552-5.286-9.19,4.864-9.178,7.56S6295.136,5406.213,6295.136,5406.213Z" transform="translate(-6279.972 -5387.208)" fill="#231f20"/>
      <path id="Trazado_40795" data-name="Trazado 40795" d="M6303.178,5391.419s2.709.964,3.7,2.233l-1.4-.425.6,1.058h-1.685l.257,3.083Z" transform="translate(-6271.508 -5386.413)" fill="#231f20"/>
      <path id="Trazado_40796" data-name="Trazado 40796" d="M6301.32,5402.677s-1.427.16-1.56.978Z" transform="translate(-6274.839 -5375.439)" fill="#c97236"/>
      <path id="Trazado_40797" data-name="Trazado 40797" d="M6299.639,5411.383l-2.041-4.057s-5.692,3.846-6.959,9.218l5.159,2.344Z" transform="translate(-6283.73 -5370.909)" fill="#fbb03b"/>
      <path id="Trazado_40798" data-name="Trazado 40798" d="M6303.876,5410.916l1.649,4.232s6.029-3.292,7.8-8.519l-4.454-2.557Z" transform="translate(-6270.828 -5374.08)" fill="#fbb03b"/>
      <path id="Trazado_40799" data-name="Trazado 40799" d="M6290.637,5411.66l6.083,2.761-.651,1.053-5.738-2.8Z" transform="translate(-6284.03 -5366.685)" fill="#f49445"/>
      <path id="Trazado_40800" data-name="Trazado 40800" d="M6294.439,5428.246a15.064,15.064,0,0,0,4.3,0S6297.054,5434.645,6294.439,5428.246Z" transform="translate(-6280.025 -5350.517)" fill="#206b3f"/>
      <path id="Trazado_40801" data-name="Trazado 40801" d="M6294.2,5427.986v.513l5.306.511v-1.024Z" transform="translate(-6280.259 -5350.771)" fill="#17422a"/>
      <path id="Trazado_40802" data-name="Trazado 40802" d="M6289.424,5413.306l-.226.155a.32.32,0,0,1-.439-.086l-1.311-1.669a.318.318,0,0,1,.087-.438l.489-.33a.318.318,0,0,1,.439.087l1.048,1.845A.315.315,0,0,1,6289.424,5413.306Z" transform="translate(-6286.893 -5367.44)" fill="#d89364"/>
      <g id="Grupo_37029" data-name="Grupo 37029" transform="translate(1.664 41.067)">
        <path id="Trazado_40803" data-name="Trazado 40803" d="M6292.807,5412.222c.013-.037.216-.566.222-.605.055-.384-.243-.562-.6-.642l-2.827-1.229a.688.688,0,0,0-.355-.061.709.709,0,0,0-.6.547l-.652,4.407a.782.782,0,0,0,.067.433.945.945,0,0,0,.806.563l1.483.332c.823.259,1.1-.078,1.181-.461Z" transform="translate(-6287.983 -5409.681)" fill="#d3a179"/>
      </g>
      <g id="Grupo_37030" data-name="Grupo 37030" transform="translate(23.045 23.464)">
        <path id="Trazado_40804" data-name="Trazado 40804" d="M6304.769,5402.668a2.277,2.277,0,0,0-2.327-1.887c-2.142-.146-3.593.834-3.631,1.707a1.212,1.212,0,0,0,1.744,1.089,3.411,3.411,0,0,1,2.47-.073C6303.9,5403.794,6304.84,5403.577,6304.769,5402.668Z" transform="translate(-6298.81 -5400.767)" fill="#3a3a3a"/>
        <path id="Trazado_40805" data-name="Trazado 40805" d="M6304.769,5402.668a2.277,2.277,0,0,0-2.327-1.887c-2.142-.146-3.593.834-3.631,1.707a1.212,1.212,0,0,0,1.744,1.089,3.411,3.411,0,0,1,2.47-.073C6303.9,5403.794,6304.84,5403.577,6304.769,5402.668Z" transform="translate(-6298.81 -5400.767)" fill="#3a3a3a"/>
        <path id="Trazado_40806" data-name="Trazado 40806" d="M6299.494,5401.834l-.266-.463a4.728,4.728,0,0,1,2.809-.589,2.562,2.562,0,0,1,1.73.714l-.115.446Z" transform="translate(-6298.403 -5400.767)" fill="#fff"/>
        <path id="Trazado_40807" data-name="Trazado 40807" d="M6301.762,5401.507a1.319,1.319,0,0,1,1.5,1.392,2.2,2.2,0,0,1-.713-.118,3.414,3.414,0,0,0-2.47.073,1.52,1.52,0,0,1-.79.071C6299.453,5402.021,6300.173,5401.516,6301.762,5401.507Z" transform="translate(-6298.338 -5400.043)" fill="#d31a1a"/>
        <path id="Trazado_40808" data-name="Trazado 40808" d="M6302.375,5402.7a3.414,3.414,0,0,0-2.47.073,1.587,1.587,0,0,1-.431.09c.211-.812.937-1.264,2.437-1.273a1.955,1.955,0,0,1,.654.1,1.382,1.382,0,0,1,.523,1.132A2.191,2.191,0,0,1,6302.375,5402.7Z" transform="translate(-6298.161 -5399.963)" fill="#e53333"/>
      </g>
      <path id="Trazado_40809" data-name="Trazado 40809" d="M6297.056,5397.358s2.069.126,2.8-1.178l-.7-1.022-.048.482-.529-.161a7.309,7.309,0,0,1-1.872,1.354S6296.512,5397.179,6297.056,5397.358Z" transform="translate(-6277.849 -5382.768)" fill="#231f20"/>
      <path id="Trazado_40810" data-name="Trazado 40810" d="M6303.833,5397.173s-2.07.128-2.8-1.175l.7-1.025.045.484.53-.16a7.337,7.337,0,0,0,1.871,1.354S6304.376,5397,6303.833,5397.173Z" transform="translate(-6273.599 -5382.949)" fill="#231f20"/>
      <path id="Trazado_40811" data-name="Trazado 40811" d="M6289.813,5411.426s-4.305,16.652-1.987,18.4c1.763,1.329,4.068-2.661,5.988-6.861l-3.548,1.98s-.156-4.838,2.274-13.3Z" transform="translate(-6287.141 -5366.911)" fill="#d3a179"/>
      <path id="Trazado_40812" data-name="Trazado 40812" d="M6310.8,5406.066l-2.729-.89s-2.109,2.888-5.006,2.406c0,0,1.455,5.7,4.772,7.192,0,0,5.575-4.733,6.7-9.124Z" transform="translate(-6271.618 -5373.003)" fill="#fbb03b"/>
      <path id="Trazado_40813" data-name="Trazado 40813" d="M6312.336,5408.187l-6.544-3.7.747-.988,6.2,3.7Z" transform="translate(-6268.959 -5374.635)" fill="#f49445"/>
      <path id="Trazado_40814" data-name="Trazado 40814" d="M6313.83,5436.9l1.883-7.259s6.765,5.08,5.7,8.366c-1.189,3.692-12.9,22.687-12.9,22.687s-3.4-.715-4.268-3.576a84.3,84.3,0,0,0,5.02-10.76A47.381,47.381,0,0,1,6313.83,5436.9Z" transform="translate(-6270.462 -5349.157)" fill="#10281c"/>
      <path id="Trazado_40815" data-name="Trazado 40815" d="M6290.386,5453.8a10.2,10.2,0,0,0,6.387,2.035l-.273,1.251a15.1,15.1,0,0,1-6.445-2Z" transform="translate(-6284.299 -5325.605)" fill="#133523"/>
      <path id="Trazado_40816" data-name="Trazado 40816" d="M6304.566,5443.333a8.983,8.983,0,0,0,5.349,3.249l-.5,1.288a13.6,13.6,0,0,1-5.492-3.377Z" transform="translate(-6270.775 -5335.812)" fill="#133523"/>
    </g>
    <g id="Grupo_37033" data-name="Grupo 37033" transform="translate(6449.297 5396.813)">
      <path id="Trazado_40817" data-name="Trazado 40817" d="M6372.157,5352.328s1.879-9.225,10.86-8.677,9.39,9.974,9.39,9.974,10.353-5.2,16.568,2.91c5.112,6.675,3.937,12.337,3.937,12.337s7.517-1.12,9.767,5.92l-73.227.807s0-12.046,12.682-10.371C6362.134,5365.229,6360.7,5353.3,6372.157,5352.328Z" transform="translate(-6349.453 -5343.628)" fill="#f1e8ff"/>
      <g id="Grupo_37032" data-name="Grupo 37032" transform="translate(27.101)">
        <path id="Trazado_40818" data-name="Trazado 40818" d="M6366.59,5345.087c8.981.546,9.391,9.974,9.391,9.974s10.353-5.2,16.567,2.911c5.113,6.674,3.938,12.336,3.938,12.336s6.466-.96,9.2,4.524l3.618-.04c-2.251-7.041-9.768-5.92-9.768-5.92s1.175-5.66-3.937-12.337c-6.215-8.112-16.568-2.91-16.568-2.91s-.409-9.428-9.391-9.974a9.654,9.654,0,0,0-6.463,1.745A10.765,10.765,0,0,1,6366.59,5345.087Z" transform="translate(-6363.176 -5343.628)" fill="#fff"/>
      </g>
    </g>
    <g id="Grupo_37035" data-name="Grupo 37035" transform="translate(6306.031 5442.576)">
      <path id="Trazado_40819" data-name="Trazado 40819" d="M6304.642,5371.579s-1.035-5.065-5.962-4.763-5.157,5.475-5.157,5.475-5.683-2.854-9.1,1.6c-2.808,3.665-2.162,6.773-2.162,6.773s-4.128-.616-5.362,3.251l40.2.442s0-6.613-6.963-5.694C6310.143,5378.661,6310.929,5372.113,6304.642,5371.579Z" transform="translate(-6276.904 -5366.803)" fill="#f1e8ff"/>
      <g id="Grupo_37034" data-name="Grupo 37034">
        <path id="Trazado_40820" data-name="Trazado 40820" d="M6300.352,5367.6c-4.931.3-5.154,5.477-5.154,5.477s-5.685-2.855-9.1,1.6c-2.808,3.665-2.163,6.773-2.163,6.773s-3.55-.527-5.05,2.484l-1.985-.022c1.235-3.867,5.362-3.251,5.362-3.251s-.646-3.108,2.162-6.773c3.413-4.453,9.1-1.6,9.1-1.6s.226-5.175,5.154-5.475a5.293,5.293,0,0,1,3.549.958A5.921,5.921,0,0,0,6300.352,5367.6Z" transform="translate(-6276.904 -5366.803)" fill="#fff"/>
      </g>
    </g>
    <g id="Grupo_37036" data-name="Grupo 37036" transform="translate(6309.929 5389.405)">
      <path id="Trazado_40821" data-name="Trazado 40821" d="M6279.723,5345.619l1.418.729,1.4-.755-.254,1.574,1.152,1.1-1.576.245-.692,1.436-.719-1.422-1.58-.214,1.13-1.124Z" transform="translate(-6278.877 -5334.307)" fill="#f9f7b2"/>
      <path id="Trazado_40822" data-name="Trazado 40822" d="M6280.57,5339.9l1.418.728,1.4-.756-.253,1.575,1.151,1.1-1.575.245-.692,1.437-.72-1.423-1.579-.213,1.13-1.124Z" transform="translate(-6278.052 -5339.877)" fill="#f9f7b2"/>
      <path id="Trazado_40823" data-name="Trazado 40823" d="M6286.19,5343.367l1.419.728,1.4-.756-.255,1.573,1.153,1.1-1.576.245-.691,1.437-.719-1.423-1.581-.215,1.131-1.123Z" transform="translate(-6272.575 -5336.503)" fill="#f9f7b2"/>
    </g>
    <g id="Grupo_37037" data-name="Grupo 37037" transform="translate(6493.311 5454.645)">
      <path id="Trazado_40824" data-name="Trazado 40824" d="M6374,5377.057l.726,1.419,1.582.208-1.127,1.128.292,1.568-1.422-.722-1.4.761.246-1.575-1.157-1.1,1.575-.252Z" transform="translate(-6371.741 -5368.876)" fill="#f9f7b2"/>
      <path id="Trazado_40825" data-name="Trazado 40825" d="M6378.027,5372.914l.726,1.42,1.582.207-1.127,1.129.292,1.566-1.422-.721-1.4.763.247-1.576-1.158-1.1,1.575-.251Z" transform="translate(-6367.815 -5372.914)" fill="#f9f7b2"/>
      <path id="Trazado_40826" data-name="Trazado 40826" d="M6380.564,5379.007l.726,1.419,1.581.208-1.125,1.129.29,1.567-1.421-.721-1.4.761.248-1.576-1.157-1.1,1.574-.251Z" transform="translate(-6365.342 -5366.976)" fill="#f9f7b2"/>
    </g>
    <g id="Grupo_37048" data-name="Grupo 37048" transform="translate(6373.483 5400.675)">
      <path id="Trazado_40827" data-name="Trazado 40827" d="M6336.943,5375.079s1,6.426,4.126,10.766c4.263,5.927,8.07,5.1,17.614.559,0,0,2.42,13.421-8.877,18.665l-4.266,1.417-13.854-3.375-4.153-20.76Z" transform="translate(-6295.002 -5316.833)" fill="#5e1737"/>
      <path id="Trazado_40828" data-name="Trazado 40828" d="M6325.137,5404.046s20.716-5.122,24.212-7.567,8.168-8.283,8.168-8.283l-18.645,3.307S6325.669,5399.169,6325.137,5404.046Z" transform="translate(-6297.34 -5304.049)" fill="#5e1737"/>
      <path id="Trazado_40829" data-name="Trazado 40829" d="M6344.014,5410.041l-2.621-.548a4.8,4.8,0,0,0-2.229,3.29Z" transform="translate(-6283.667 -5283.29)" fill="#2d1607"/>
      <path id="Trazado_40830" data-name="Trazado 40830" d="M6341.4,5409.8s.565-.514,1.113.271,4.468,6.158,4.468,6.158l-.94.833-2.737-.671Z" transform="translate(-6281.488 -5283.153)" fill="#2d1607"/>
      <path id="Trazado_40831" data-name="Trazado 40831" d="M6344.4,5408.736l-.263,3.776a33.687,33.687,0,0,0,3.326,4.827c1.153,1.1-1.542,3.745-1.542,3.745l-6.109-7.787.6-1.417.63-4.089Z" transform="translate(-6283.033 -5284.947)" fill="#f4be9a"/>
      <path id="Trazado_40832" data-name="Trazado 40832" d="M6330.092,5388.771l9.557-2.564s16.938,16.118,19.523,23.388c0,0,1.609,4.195-2.655,4.264s-15.292-9.925-20.857-16.427S6330.092,5388.771,6330.092,5388.771Z" transform="translate(-6292.51 -5305.989)" fill="#2975fc"/>
      <path id="Trazado_40833" data-name="Trazado 40833" d="M6344.262,5397.784h4.931s1.167,1.66.5,4.788-4.7,16.969-4.7,16.969a5.353,5.353,0,0,1-4.875-1.153,30.548,30.548,0,0,0,.681-8.037A19.014,19.014,0,0,1,6344.262,5397.784Z" transform="translate(-6282.735 -5294.703)" fill="#2975fc"/>
      <path id="Trazado_40834" data-name="Trazado 40834" d="M6341.634,5411.055a35.508,35.508,0,0,0,2.794,4.529,9.712,9.712,0,0,0,2.324,2.238,3.162,3.162,0,0,0,2.256-1.354s2.879,3.878,3.142,5.237-3.356,1.531-5,.332-2.812-3.643-4.3-4.746-3.513-3.092-3.671-4.245c-.214-1.59,1.389-3.449,1.764-3.162A3.152,3.152,0,0,1,6341.634,5411.055Z" transform="translate(-6283.676 -5282.937)" fill="#2d1607"/>
      <path id="Trazado_40835" data-name="Trazado 40835" d="M6347.057,5414.691s-1.029-2.187-2.245-2.195-2.482.7-2.36,1.869,3.576,6.122,5.468,5.777C6350.359,5419.7,6348.131,5416.684,6347.057,5414.691Z" transform="translate(-6280.471 -5280.363)" fill="#211d1b"/>
      <path id="Trazado_40836" data-name="Trazado 40836" d="M6335.791,5363.441s-2.157,3.445-4.592,1.81a6.227,6.227,0,0,1-2.578-4.968S6331.2,5367.619,6335.791,5363.441Z" transform="translate(-6293.942 -5331.256)" fill="#2b1302"/>
      <path id="Trazado_40837" data-name="Trazado 40837" d="M6342.483,5367.288a5.762,5.762,0,0,1-1.217-4.009c.341-2.09-1.057-12.92-11.052-11.665,0,0-6.221,3.075-7.83,1.047s-.488-6.572-4.195-6.992-6.919.63-7.128,4.613c0,0,1.188-5.381,5.451-3.005s-1.468,3.826-2.237,7.367.141,5.677,2.937,6.007,6.221-2.537,8.18-.369-2.587,10.106-2.237,14.141.7,8.787,5.033,11.093c0,0,.938,4.64,6.619,2.287S6349.716,5371.43,6342.483,5367.288Z" transform="translate(-6311.061 -5345.584)" fill="#632e07"/>
      <path id="Trazado_40838" data-name="Trazado 40838" d="M6323.99,5366.689s-3.713.689-2.039,5.19C6321.951,5371.879,6320.866,5369.041,6323.99,5366.689Z" transform="translate(-6300.868 -5325.012)" fill="#632e07"/>
      <path id="Trazado_40839" data-name="Trazado 40839" d="M6323.255,5366.739s-3.079,2.188.332,5.566C6323.587,5372.3,6321.408,5370.188,6323.255,5366.739Z" transform="translate(-6300.417 -5324.962)" fill="#632e07"/>
      <path id="Trazado_40840" data-name="Trazado 40840" d="M6327.931,5365.968s3.77.188,2.714,4.873C6330.645,5370.841,6331.342,5367.882,6327.931,5365.968Z" transform="translate(-6294.615 -5325.715)" fill="#632e07"/>
      <path id="Trazado_40841" data-name="Trazado 40841" d="M6328.081,5366s3.343,1.755.415,5.561C6328.5,5371.56,6330.372,5369.17,6328.081,5366Z" transform="translate(-6294.471 -5325.685)" fill="#632e07"/>
      <path id="Trazado_40842" data-name="Trazado 40842" d="M6330.695,5365.239a12.294,12.294,0,0,0-1.729-.117c-5.313-.015,3.169-8.967-1.247-10.083s-13.075,2.572-12.874-1.723a13.9,13.9,0,0,1,1.213-5.37c-.952,1.17-2.824,2.474-3.241,4.393-.768,3.54.141,5.677,2.936,6.007s6.222-2.538,8.18-.37-2.587,10.107-2.237,14.141.7,8.786,5.033,11.093c0,0,.79,3.888,5.285,2.734a13.425,13.425,0,0,1-1.615-3.71C6329.946,5380.69,6324.422,5369.652,6330.695,5365.239Z" transform="translate(-6309.602 -5343.28)" fill="#562707"/>
      <path id="Trazado_40843" data-name="Trazado 40843" d="M6329.609,5361.977s-.261,4.738,2.622,5.138,2.184-1.992,2.184-1.992-1.066,2.336-1.9.976-1.844-9.319-3.838-9.452S6329.609,5361.977,6329.609,5361.977Z" transform="translate(-6294.571 -5334.802)" fill="#2b1302"/>
      <path id="Trazado_40844" data-name="Trazado 40844" d="M6317.823,5394.776l3.313,6.484,2.245-1.726-2.6-6.337Z" transform="translate(-6304.469 -5299.173)" fill="#f4be9a"/>
      <g id="Grupo_37039" data-name="Grupo 37039" transform="translate(15.034 98.227)">
        <path id="Trazado_40845" data-name="Trazado 40845" d="M6320.417,5396.316l.062-.337a.4.4,0,0,1,.459-.32l2.645.283a.4.4,0,0,1,.32.459l-.135.728a.4.4,0,0,1-.46.32l-2.573-.671A.4.4,0,0,1,6320.417,5396.316Z" transform="translate(-6316.981 -5395.008)" fill="#e28f56"/>
        <g id="Grupo_37038" data-name="Grupo 37038">
          <path id="Trazado_40846" data-name="Trazado 40846" d="M6320.678,5402.161c.022.045.318.691.35.729.294.386.716.273,1.105.018l3.574-1.465a.858.858,0,0,0,.365-.267.882.882,0,0,0,.035-1.017l-3.389-4.44a.963.963,0,0,0-.446-.315,1.189,1.189,0,0,0-1.211.231l-1.595,1.042c-.95.515-.887,1.053-.617,1.462Z" transform="translate(-6318.675 -5395.325)" fill="#f4be9a"/>
        </g>
      </g>
      <path id="Trazado_40847" data-name="Trazado 40847" d="M6345.158,5384.46l6.292,3.665-1.847,2.146-6.184-2.945Z" transform="translate(-6279.52 -5307.689)" fill="#f4be9a"/>
      <path id="Trazado_40848" data-name="Trazado 40848" d="M6330.982,5374.16l3.232,3.618s1.716,7.936,4.9,10.679C6339.11,5388.456,6334.251,5383.7,6330.982,5374.16Z" transform="translate(-6291.643 -5317.73)" fill="#8e2052"/>
      <path id="Trazado_40849" data-name="Trazado 40849" d="M6328.423,5370.261s4.472-.523,6.482,1.416,12.97,16.568,13.7,17.408,9.456,7.549,13.142,9.07c0,0,.281,4-2.6,5.278,0,0-9.228-5.8-13.473-10.05s-11.412-13.124-11.412-13.124Z" transform="translate(-6294.136 -5321.593)" fill="#8e2052"/>
      <path id="Trazado_40850" data-name="Trazado 40850" d="M6321.468,5373.823s2.57-6.031,13.235-4.264l-1.214,4.264Z" transform="translate(-6300.917 -5322.53)" fill="#6b1b3c"/>
      <path id="Trazado_40851" data-name="Trazado 40851" d="M6327.535,5370.832s.051-1.533,1.254-1.431,2.213,1.116,3.052,2.446,3.286,9.192,3.286,9.192l-6.056-4.058Z" transform="translate(-6295.002 -5322.372)" fill="#6b1b3c"/>
      <path id="Trazado_40852" data-name="Trazado 40852" d="M6327.119,5417.315a5.808,5.808,0,0,1,.209,2.542c-.237,1.207-2.088,7.911-2.088,7.911l-.614-1.042v-1.441S6326.436,5417.788,6327.119,5417.315Z" transform="translate(-6297.838 -5275.664)" fill="#2d1607"/>
      <path id="Trazado_40853" data-name="Trazado 40853" d="M6328.416,5416.79l-.943-.505a17.1,17.1,0,0,0-2.552.977c-1.4.667-1.817,5.174-2.131,7.063s-.943,1.99-1.329,3.6a7.9,7.9,0,0,0,1.329,5.312,2.181,2.181,0,0,0,2.761.838c.9-.571,1.675-2.216,2.307-4.266a7.9,7.9,0,0,0,.559-2.515l-4.368-.594a9.734,9.734,0,0,0,1.433-3.6C6325.8,5421.106,6326.354,5416.737,6328.416,5416.79Z" transform="translate(-6301.014 -5276.669)" fill="#2d1607"/>
      <path id="Trazado_40854" data-name="Trazado 40854" d="M6329.267,5413.142l-2.815,6.206a4.685,4.685,0,0,0-1.572,2.865,42.623,42.623,0,0,1-1.748,7.132c-.7,1.711-1.539,3.808.978,4.227s3.285-2.342,3.285-2.342a47,47,0,0,1,1.643-6.778c.8-1.924,3.892-9.1,3.892-9.1A4.814,4.814,0,0,0,6329.267,5413.142Z" transform="translate(-6299.994 -5279.733)" fill="#f4be9a"/>
      <path id="Trazado_40855" data-name="Trazado 40855" d="M6333.786,5387.1s3.5-1.327,3.985-3.982c0,0-2.208,1.887-4.6.7S6331.551,5386.54,6333.786,5387.1Z" transform="translate(-6290.937 -5309)" fill="#232221"/>
      <path id="Trazado_40856" data-name="Trazado 40856" d="M6338.007,5382.893a15.877,15.877,0,0,0,3.792,5.3,34.83,34.83,0,0,1-15.425,4.195l.448-7.726Z" transform="translate(-6296.134 -5309.217)" fill="#f4be9a"/>
      <path id="Trazado_40857" data-name="Trazado 40857" d="M6324.974,5372.223s3.428-1.488,4.267-1.26a4.034,4.034,0,0,0,3.838-.838,2.566,2.566,0,0,1,1.169,1.625,10.056,10.056,0,0,1,1.137.943,3.194,3.194,0,0,1,.209,1.337s5.005,5.164,6.266,6.529,2.412,4.088-.839,7.5c0,0,.174,2.9,6.36,7.725,0,0-1.816,1.887-3.808,1.748s-8.53-1.853-11.815,3.11l-3.52-2.093-2.947-9.9S6317.757,5375.938,6324.974,5372.223Z" transform="translate(-6300.547 -5321.665)" fill="#3f3d3b"/>
      <path id="Trazado_40858" data-name="Trazado 40858" d="M6326.193,5380.149a4.238,4.238,0,0,0,3.636-.732S6328.254,5381.618,6326.193,5380.149Z" transform="translate(-6296.31 -5312.606)" fill="#3e3e3f" opacity="0.29"/>
      <g id="Grupo_37045" data-name="Grupo 37045" transform="translate(17.546 15.678)">
        <g id="Grupo_37040" data-name="Grupo 37040" transform="translate(0.645 19.318)">
          <circle id="Elipse_848" data-name="Elipse 848" cx="1.606" cy="1.606" r="1.606" fill="#f4be9a"/>
          <circle id="Elipse_849" data-name="Elipse 849" cx="0.942" cy="0.942" r="0.942" transform="translate(0.663 0.664)" fill="#d38c5b"/>
        </g>
        <path id="Trazado_40859" data-name="Trazado 40859" d="M6324.335,5367.465l1.7,6.668,4.022-.145-.8-6.149Z" transform="translate(-6315.667 -5339.934)" fill="#f4be9a"/>
        <path id="Trazado_40860" data-name="Trazado 40860" d="M6324.441,5367.865l.74,3.073h4.405l-.426-3.283Z" transform="translate(-6315.564 -5339.749)" fill="#e89d6b"/>
        <path id="Trazado_40861" data-name="Trazado 40861" d="M6327.833,5355.915c4.048-.554,7.982,1.464,8.972,5.466a7.735,7.735,0,0,1,.2,1.21,45.569,45.569,0,0,0,1.132,4.668c.553,1.562,3.129,7.09-1.268,11.846,0,0-.33.414-1.064,1.525a2.241,2.241,0,0,1-1.094.817,3.1,3.1,0,0,1-1.969.176c-.989-.287-4.56-1.45-6.4-1.914s-2.892-3.332-3.427-5.153S6314.787,5357.694,6327.833,5355.915Z" transform="translate(-6319.665 -5351.28)" fill="#f4be9a"/>
        <g id="Grupo_37042" data-name="Grupo 37042" transform="translate(14.985 14.351)">
          <g id="Grupo_37041" data-name="Grupo 37041">
            <path id="Trazado_40862" data-name="Trazado 40862" d="M6327.556,5362.612a1.252,1.252,0,1,0,1-1.5A1.281,1.281,0,0,0,6327.556,5362.612Z" transform="translate(-6327.534 -5360.499)" fill="#2f1b11"/>
            <path id="Trazado_40863" data-name="Trazado 40863" d="M6327.535,5362.647a1.21,1.21,0,0,1,.93-1.272c.989-.174,1.278-.3,1.354-.584,0,0,.073.515-.308.628a1.481,1.481,0,0,0,1.078-.291,1.156,1.156,0,0,1-1.025.793C6328.695,5362.044,6327.922,5362.11,6327.535,5362.647Z" transform="translate(-6327.535 -5360.791)" fill="#2f1b11"/>
          </g>
          <path id="Trazado_40864" data-name="Trazado 40864" d="M6328.377,5361.757a.351.351,0,0,1,.077.465c-.136.217.189.446.326.23a.742.742,0,0,0-.1-.953.207.207,0,0,0-.281-.023.2.2,0,0,0-.021.281Z" transform="translate(-6326.759 -5360.166)" fill="#fff"/>
        </g>
        <g id="Grupo_37044" data-name="Grupo 37044" transform="translate(6.895 16.434)">
          <g id="Grupo_37043" data-name="Grupo 37043">
            <path id="Trazado_40865" data-name="Trazado 40865" d="M6326.416,5363a1.252,1.252,0,1,1-1.458-1.07A1.28,1.28,0,0,1,6326.416,5363Z" transform="translate(-6322.956 -5361.786)" fill="#2f1b11"/>
            <path id="Trazado_40866" data-name="Trazado 40866" d="M6326.828,5362.807a1.207,1.207,0,0,0-1.309-.875c-.989.174-1.3.156-1.472-.086,0,0,.106.509.5.485a1.476,1.476,0,0,1-1.113.1,1.156,1.156,0,0,0,1.235.394C6325.533,5362.64,6326.281,5362.436,6326.828,5362.807Z" transform="translate(-6323.438 -5361.846)" fill="#2f1b11"/>
          </g>
          <path id="Trazado_40867" data-name="Trazado 40867" d="M6324.678,5362.592a.35.35,0,0,1,.077.465c-.133.217.19.446.326.229a.742.742,0,0,0-.1-.953.209.209,0,0,0-.281-.023.2.2,0,0,0-.024.281Z" transform="translate(-6322.275 -5361.435)" fill="#fff"/>
        </g>
        <path id="Trazado_40868" data-name="Trazado 40868" d="M6325,5357.8" transform="translate(-6315.018 -5349.354)" fill="#222f51"/>
        <path id="Trazado_40869" data-name="Trazado 40869" d="M6325.793,5361.579s-1.9.164-2.229.642a2.048,2.048,0,0,0-.367.9s-.339-1.147.175-1.562,2.177-.891,2.229-.643S6325.986,5360.964,6325.793,5361.579Z" transform="translate(-6316.885 -5346.386)" fill="#2b1302"/>
        <path id="Trazado_40870" data-name="Trazado 40870" d="M6327.487,5361.247s1.7-.861,2.236-.628a2.04,2.04,0,0,1,.782.569s-.314-1.157-.97-1.234-2.32.386-2.235.627S6327,5360.827,6327.487,5361.247Z" transform="translate(-6312.841 -5347.266)" fill="#2b1302"/>
        <circle id="Elipse_850" data-name="Elipse 850" cx="1.072" cy="1.072" r="1.072" transform="translate(16.667 18.806)" fill="#f4b0b7" opacity="0.53"/>
        <circle id="Elipse_851" data-name="Elipse 851" cx="1.072" cy="1.072" r="1.072" transform="translate(7.595 21.319)" fill="#f4b0b7" opacity="0.53"/>
        <path id="Trazado_40871" data-name="Trazado 40871" d="M6329.316,5364.947a2.779,2.779,0,0,0-2.118.574c-.878.784-.077,3.478,1.311,3.428S6329.2,5366.321,6329.316,5364.947Z" transform="translate(-6313.235 -5342.413)" fill="#3f2c1b"/>
        <path id="Trazado_40872" data-name="Trazado 40872" d="M6327.976,5365.9a1.648,1.648,0,0,0-.993,1.1,1.6,1.6,0,0,0,1.378,1.092c.85-.03.918-1.015.869-2.092A1.5,1.5,0,0,0,6327.976,5365.9Z" transform="translate(-6313.087 -5341.551)" fill="#f20c65"/>
        <path id="Trazado_40873" data-name="Trazado 40873" d="M6327.976,5365.9a1.648,1.648,0,0,0-.993,1.1,1.6,1.6,0,0,0,1.378,1.092c.85-.03.918-1.015.869-2.092A1.5,1.5,0,0,0,6327.976,5365.9Z" transform="translate(-6313.087 -5341.551)" fill="#f20c65"/>
        <path id="Trazado_40874" data-name="Trazado 40874" d="M6329.23,5366a1.5,1.5,0,0,0-1.254-.1,1.648,1.648,0,0,0-.993,1.1l.016.03a2.232,2.232,0,0,1,1.336-.451,1.213,1.213,0,0,1,.61,1.236A2.96,2.96,0,0,0,6329.23,5366Z" transform="translate(-6313.087 -5341.551)" fill="#d30d5e"/>
        <path id="Trazado_40875" data-name="Trazado 40875" d="M6331.863,5354.744l-10.494-1.22c-.97,2.845-2.836,6.153.393,6.163a12.3,12.3,0,0,1,1.73.117c-4.086,2.873-3.481,8.558-2.219,12.6a3.175,3.175,0,0,0,1.678-.62c2.977-2.422,5.568-12.19,7.372-12.414a2.5,2.5,0,0,1,2.538,1.244Z" transform="translate(-6319.946 -5353.524)" fill="#632e07"/>
      </g>
      <path id="Trazado_40876" data-name="Trazado 40876" d="M6327.479,5370.946" transform="translate(-6295.056 -5320.862)" fill="#f4be9a"/>
      <path id="Trazado_40877" data-name="Trazado 40877" d="M6325.674,5388.875c4.8.732,14.947-1.939,17.174-3.743,0,0,10,8.529,2.725,13.073a25.252,25.252,0,0,1-6.7,2.936c-1.979.478-4.259,2.813-6.992,2.7C6322.43,5403.432,6325.674,5388.875,6325.674,5388.875Z" transform="translate(-6297.341 -5307.034)" fill="#2975fc"/>
      <path id="Trazado_40878" data-name="Trazado 40878" d="M6326.5,5391.4s7.714.312,17.037-4.52l-1.768-1.75a44.124,44.124,0,0,1-13.316,3.772l-2.2-.03Z" transform="translate(-6296.258 -5307.034)" fill="#0d60b2"/>
      <path id="Trazado_40879" data-name="Trazado 40879" d="M6325.483,5388.8l9.708,1.9s8.127,21.923,7.251,29.591c0,0-.4,4.473-4.258,2.662s-9.371-15.643-11.509-23.928S6325.483,5388.8,6325.483,5388.8Z" transform="translate(-6297.207 -5303.458)" fill="#2975fc"/>
      <path id="Trazado_40880" data-name="Trazado 40880" d="M6328.054,5387.761l-1.906-.733s-4.292,8.913,1.653,15.623l6.7-7.2Z" transform="translate(-6297.814 -5305.188)" fill="#2975fc"/>
      <path id="Trazado_40881" data-name="Trazado 40881" d="M6339.067,5403.965h-4.226a33.571,33.571,0,0,0-7.038,11.412c-2.377,6.764-2.868,7.813-2.868,7.813s2.378,2.936,5.663,2.934c0,0,11.771-17.869,12-19.768S6339.067,5403.965,6339.067,5403.965Z" transform="translate(-6297.534 -5288.677)" fill="#2975fc"/>
      <path id="Trazado_40882" data-name="Trazado 40882" d="M6325.073,5429.261s-2.8.347-2.8-3.053c0-2.728.77-4.735,1.844-5.182s3.432.112,3.629,1.51S6326.2,5429.051,6325.073,5429.261Z" transform="translate(-6300.132 -5272.193)" fill="#211d1b"/>
      <path id="Trazado_40883" data-name="Trazado 40883" d="M6325.664,5416.655l.612-.251a7.807,7.807,0,0,0-1.312,3.608c-.187,2.1-.6,4.7-1.748,6.152s-.858-1.172-.858-1.172S6323.985,5417.678,6325.664,5416.655Z" transform="translate(-6300.079 -5276.552)" fill="#2d1607"/>
      <path id="Trazado_40884" data-name="Trazado 40884" d="M6326.731,5370.842a22.625,22.625,0,0,0-6.432,3.546c-2.725,2.3,1.452,10.85,3.391,14.259s4.842,7.9,4.842,7.9-.958,1.4.036,2.133c0,0-5.75,13.107,2.159,22.282a8.153,8.153,0,0,1,4.6-3.19c2.99-.689,6.24-.9,7.917-1.687,0,0-8.022-6.238-8.808-12.688s-1.113-14.2-1.113-14.2Z" transform="translate(-6302.93 -5320.963)" fill="#8e2052"/>
      <path id="Trazado_40885" data-name="Trazado 40885" d="M6327.954,5369.658s-2.757,2.926-1.027,6.168a41.585,41.585,0,0,1,3.863,9.168c.541,2.465,1.117,11.956,1.117,11.956a5.965,5.965,0,0,1-1.8-2.046c-1.082-1.677-4.8-7.456-4.332-9.075a7.951,7.951,0,0,1,.891-2.2s-6.6-7.375-5.085-10.221C6323.013,5370.717,6324.964,5369.763,6327.954,5369.658Z" transform="translate(-6301.028 -5322.118)" fill="#6b1b3c"/>
      <path id="Trazado_40886" data-name="Trazado 40886" d="M6327.01,5375.084l-1.924-2.446s-10.375,13.213-10.59,23.487c-.2,9.611,6.013,21.181,6.013,21.181s4.474-.911,5.8-2.447c0,0-5.3-12.148-5.449-17.224s6.148-16.121,6.148-16.121S6328.058,5377.6,6327.01,5375.084Z" transform="translate(-6307.716 -5319.214)" fill="#8e2052"/>
      <path id="Trazado_40887" data-name="Trazado 40887" d="M6324.4,5371.372a15.071,15.071,0,0,1,5.932-1.131s1.805,3.057,1.8,4.522C6332.131,5376.1,6327.216,5376.839,6324.4,5371.372Z" transform="translate(-6298.063 -5321.559)" fill="#f4be9a"/>
      <g id="Grupo_37047" data-name="Grupo 37047" transform="translate(67.99 78.72)">
        <path id="Trazado_40888" data-name="Trazado 40888" d="M6346.485,5387.157l-.341.045a.4.4,0,0,0-.344.441l.137,2.656a.4.4,0,0,0,.442.343l.732-.092a.4.4,0,0,0,.344-.443l-.528-2.606A.4.4,0,0,0,6346.485,5387.157Z" transform="translate(-6345.191 -5383.783)" fill="#e28f56"/>
        <g id="Grupo_37046" data-name="Grupo 37046">
          <path id="Trazado_40889" data-name="Trazado 40889" d="M6352.381,5387.7c.043.023.671.355.71.389.367.315.232.73-.043,1.106l-1.66,3.486a.838.838,0,0,1-.287.351.882.882,0,0,1-1.019-.022l-4.244-3.627a.982.982,0,0,1-.292-.464,1.2,1.2,0,0,1,.3-1.2l1.128-1.535c.565-.919,1.1-.827,1.494-.536Z" transform="translate(-6345.49 -5385.448)" fill="#f4be9a"/>
        </g>
      </g>
      <path id="Trazado_40890" data-name="Trazado 40890" d="M6328.786,5358.393a2.234,2.234,0,0,0-1.993-1.329c-1.364.087-3.627.741-3.011,6.172,0,0,.114-4.193,1.649-5.053s2.609,0,3.533.759Z" transform="translate(-6298.761 -5334.398)" fill="#3d1c04"/>
      <path id="Trazado_40891" data-name="Trazado 40891" d="M6327.765,5357.483s-2.126-.6-3.025.559-.983,4.147-.983,4.147-.051-3.063,2.3-3.272,2.829-.237,2.829-.237S6328.452,5357.61,6327.765,5357.483Z" transform="translate(-6298.684 -5334.137)" fill="#2b1302"/>
      <path id="Trazado_40892" data-name="Trazado 40892" d="M6326.707,5357.493s2.035-2.029,3.522.767a3.744,3.744,0,0,0-2.448.123,4.626,4.626,0,0,0-1.412.83S6326.186,5357.922,6326.707,5357.493Z" transform="translate(-6296.168 -5334.669)" fill="#3d1c04"/>
      <path id="Trazado_40893" data-name="Trazado 40893" d="M6326.5,5360.875s-1.4-5.583,1.866-5.792,4.911,3.7,4.789,5.593c-.12,1.839.418,5.175,1.619,6.2a.455.455,0,0,0,.224.106c.3.059,1.02.131,1.144-.51,0,0,0,1.754-1.539,1.578s-2.393-3.268-2.638-5.61-1.919-5.25-3.845-4.281A2.656,2.656,0,0,0,6326.5,5360.875Z" transform="translate(-6296.301 -5336.331)" fill="#492304"/>
      <path id="Trazado_40894" data-name="Trazado 40894" d="M6326.357,5359.5s.59-1.991,1.621-1.882,2.828,3.294,2.394,6.333c0,0,1.321-1.227.993-4.2s-2.407-3.653-3.787-3.094S6326.357,5359.5,6326.357,5359.5Z" transform="translate(-6296.155 -5334.959)" fill="#632e07"/>
      <path id="Trazado_40895" data-name="Trazado 40895" d="M6336.633,5361.586s.279-7.148-3.533-7.239-7.026,3.083-9.542,8.452-7.9,2.331-7.621-.835c0,0-1.2,4.853,3.76,5.094s6.649-9,10.779-10.664C6334.825,5354.639,6334.828,5357.135,6336.633,5361.586Z" transform="translate(-6306.431 -5337.043)" fill="#492304"/>
      <path id="Trazado_40896" data-name="Trazado 40896" d="M6326.155,5361.432s-.163,4.061-3.087,3.85a6.218,6.218,0,0,1-4.707-3.033S6324.247,5367.335,6326.155,5361.432Z" transform="translate(-6303.944 -5330.137)" fill="#2b1302"/>
      <path id="Trazado_40897" data-name="Trazado 40897" d="M6332.947,5359.8s-2.03-2.174-3.989-.419-.069,9.92-4.332,9.928-5.034-3.095-5.034-3.095,2,1.722,3.479,0-.186-6.359,2.6-8.5S6332.88,5355.176,6332.947,5359.8Z" transform="translate(-6302.746 -5335.256)" fill="#492304"/>
      <path id="Trazado_40898" data-name="Trazado 40898" d="M6322.749,5362.828s-1.846,1.5-.13,5.089C6322.619,5367.917,6318.857,5364.7,6322.749,5362.828Z" transform="translate(-6301.385 -5328.776)" fill="#632e07"/>
      <path id="Trazado_40899" data-name="Trazado 40899" d="M6329.964,5379.729a12.125,12.125,0,0,0,3.146-.525s.294,3.041,6.36,7.725a4.907,4.907,0,0,1-4.873,1.621s.923-1.415-.089-2.061.068-2.252-1.365-3.65A24.5,24.5,0,0,1,6329.964,5379.729Z" transform="translate(-6292.636 -5312.813)" fill="#3e3e3f" opacity="0.29"/>
      <path id="Trazado_40900" data-name="Trazado 40900" d="M6324.028,5389.077l3.787-.77.336,6.3-2.08,3.574-1.3-2.628Z" transform="translate(-6298.421 -5303.939)" fill="#6b1b3c"/>
      <path id="Trazado_40901" data-name="Trazado 40901" d="M6324.339,5389.077a5.479,5.479,0,0,1-.631,1.809l3.443-.592a3.563,3.563,0,0,0,.977-1.986Z" transform="translate(-6298.733 -5303.939)" fill="#541532"/>
      <path id="Trazado_40902" data-name="Trazado 40902" d="M6334.431,5387.3s1.39,5.611,3.261,10.678l-2.5.859s-4.5-4.615-5.722-10.2A32.444,32.444,0,0,0,6334.431,5387.3Z" transform="translate(-6293.114 -5304.92)" fill="#0f6bd8"/>
      <path id="Trazado_40903" data-name="Trazado 40903" d="M6328.978,5389.517s6.3-.212,7.557-1.207-4.771,4.806-4.771,4.806l6.2-.716-4.263,3.408,2.148-2.465-4.881.264,3.519-3.985Z" transform="translate(-6293.597 -5304.049)" fill="#0d60b2"/>
      <circle id="Elipse_852" data-name="Elipse 852" cx="0.685" cy="0.685" r="0.685" transform="translate(37.899 81.096)" fill="#2975fc"/>
      <path id="Trazado_40904" data-name="Trazado 40904" d="M6330.923,5386.65a.684.684,0,0,0-.656.5.7.7,0,0,1,.306-.121.686.686,0,0,1,.765.593.665.665,0,0,1-.023.276.684.684,0,0,0-.393-1.244Z" transform="translate(-6292.338 -5305.555)" fill="#2670db"/>
    </g>
    <path id="Trazado_40905" data-name="Trazado 40905" d="M6296.021,5325.707l19.752,262.123,167.254-2.723-146.455-266.928Z" transform="translate(47.762 28.378)" fill="#f1e8ff" opacity="0.068"/>
    <path id="Trazado_40906" data-name="Trazado 40906" d="M6303.505,5326.363l38.462,258.685,108.242-2.92-132.5-261.56Z" transform="translate(55.057 30.706)" fill="#f6f0ff" opacity="0.105"/>
    <g id="Grupo_37072" data-name="Grupo 37072" transform="translate(6324.807 5289.853)">
      <path id="Trazado_40907" data-name="Trazado 40907" d="M6339.146,5318.007c.851,4.53-8.261,11.584-20.695,13.922s-23.487-.927-24.339-5.457,8.819-8.611,21.255-10.95S6338.295,5313.475,6339.146,5318.007Z" transform="translate(-6278.956 -5265.468)" fill="#cc2555"/>
      <path id="Trazado_40908" data-name="Trazado 40908" d="M6308.2,5315.522c-2.384.449-4.667.959-6.793,1.529,9.222-1.029,16.209-.136,16.9,3.527s-5.131,8.971-13.957,12.106a45.026,45.026,0,0,0,6.938-.756c12.434-2.338,21.545-9.392,20.695-13.922S6320.637,5313.185,6308.2,5315.522Z" transform="translate(-6271.792 -5265.468)" fill="#b72052"/>
      <path id="Trazado_40909" data-name="Trazado 40909" d="M6292.555,5323.625l.083,1.685-.111.367a3.788,3.788,0,0,0,2.692,2.367c2.693.663,13.758.232,24.01-1.66s19.319-5.08,21.961-6.808a4.967,4.967,0,0,0,2.408-4.095Z" transform="translate(-6280.45 -5264.103)" fill="#f15a29"/>
      <path id="Trazado_40910" data-name="Trazado 40910" d="M6356.93,5317.313a6.079,6.079,0,0,0-.909-6.766,2.935,2.935,0,0,0-1.012-.833c-3.7-2.119-16.545-1.8-34.414,1.559-18.332,3.446-30.569,7.954-32.818,11.3v0s-2.411,3.186.74,7.126a3.112,3.112,0,0,0,.721.661c3.366,2.622,16.656,3.7,34.992.251,17.667-3.322,29.444-8.854,32.235-12.532h0s.028-.036.073-.1A3.681,3.681,0,0,0,6356.93,5317.313Z" transform="translate(-6285.94 -5271.027)" fill="#939598"/>
      <path id="Trazado_40911" data-name="Trazado 40911" d="M6356.93,5317.313a6.079,6.079,0,0,0-.909-6.766,2.935,2.935,0,0,0-1.012-.833c-3.7-2.119-16.545-1.8-34.414,1.559-18.332,3.446-30.569,7.954-32.818,11.3v0s-2.411,3.186.74,7.126a3.112,3.112,0,0,0,.721.661c3.366,2.622,16.656,3.7,34.992.251,17.667-3.322,29.444-8.854,32.235-12.532h0s.028-.036.073-.1A3.681,3.681,0,0,0,6356.93,5317.313Z" transform="translate(-6285.94 -5271.027)" fill="#939598"/>
      <g id="Grupo_37049" data-name="Grupo 37049" transform="translate(2.231 37.353)">
        <path id="Trazado_40912" data-name="Trazado 40912" d="M6354.1,5309.57c-4.034-1.956-16.687-1.578-34.136,1.7s-29.376,7.52-32.423,10.81c1.833,3.034,16.953,2.99,34.4-.29S6352.183,5313.075,6354.1,5309.57Z" transform="translate(-6287.542 -5308.38)" fill="#6d6e71"/>
      </g>
      <path id="Trazado_40913" data-name="Trazado 40913" d="M6332.767,5308.083l-.04.006c-1.159-2.868-9.923-3.663-20.1-1.749s-18.056,5.838-18.093,8.93l-.036.01a18.754,18.754,0,0,0-.85,7.935c2.524,2.207,11.7,2.5,22.248.514l0-.019.006.019c10.554-1.984,18.991-5.588,20.54-8.561A18.689,18.689,0,0,0,6332.767,5308.083Z" transform="translate(-6279.467 -5274.032)" fill="#30a2ef"/>
      <path id="Trazado_40914" data-name="Trazado 40914" d="M6305.973,5309.225c4.1.236,6.957,1.183,7.583,2.732l.042,0a19.8,19.8,0,0,1,3.552,6.617,26.916,26.916,0,0,0,5-2.6,19.971,19.971,0,0,0-3.512-6.492l-.042,0c-.725-1.79-4.42-2.773-9.574-2.792Z" transform="translate(-6267.344 -5272.668)" fill="#3fb0ef"/>
      <ellipse id="Elipse_853" data-name="Elipse 853" cx="17.046" cy="4.067" rx="17.046" ry="4.067" transform="translate(16.591 36.424) rotate(-10.648)" fill="#d6e3ea"/>
      <circle id="Elipse_854" data-name="Elipse 854" cx="1.255" cy="1.255" r="1.255" transform="translate(36.189 53.925)" fill="#6d6e71"/>
      <g id="Grupo_37050" data-name="Grupo 37050" transform="translate(36.189 53.925)">
        <circle id="Elipse_855" data-name="Elipse 855" cx="1.255" cy="1.255" r="1.255" fill="#6d6e71"/>
        <path id="Trazado_40915" data-name="Trazado 40915" d="M6305.419,5316.794a1.234,1.234,0,0,0-.332.111,1.255,1.255,0,0,1,.446,2.371,1.3,1.3,0,0,0,.35-.017,1.255,1.255,0,1,0-.464-2.466Z" transform="translate(-6304.396 -5316.771)" fill="#636468"/>
      </g>
      <g id="Grupo_37051" data-name="Grupo 37051" transform="translate(44.254 52.162)">
        <circle id="Elipse_856" data-name="Elipse 856" cx="1.255" cy="1.255" r="1.255" fill="#6d6e71"/>
        <path id="Trazado_40916" data-name="Trazado 40916" d="M6309.5,5315.9a1.251,1.251,0,0,0-.332.111,1.255,1.255,0,0,1,.447,2.37,1.254,1.254,0,1,0-.116-2.481Z" transform="translate(-6308.48 -5315.879)" fill="#636468"/>
      </g>
      <g id="Grupo_37052" data-name="Grupo 37052" transform="translate(51.65 50.278)">
        <circle id="Elipse_857" data-name="Elipse 857" cx="1.255" cy="1.255" r="1.255" transform="translate(0 0.001)" fill="#6d6e71"/>
        <path id="Trazado_40917" data-name="Trazado 40917" d="M6313.249,5314.946a1.253,1.253,0,0,0-.332.113,1.255,1.255,0,0,1,.446,2.37,1.217,1.217,0,0,0,.349-.013,1.256,1.256,0,1,0-.463-2.469Z" transform="translate(-6312.227 -5314.925)" fill="#636468"/>
      </g>
      <g id="Grupo_37053" data-name="Grupo 37053" transform="translate(58.329 48.062)">
        <circle id="Elipse_858" data-name="Elipse 858" cx="1.255" cy="1.255" r="1.255" fill="#6d6e71"/>
        <path id="Trazado_40918" data-name="Trazado 40918" d="M6316.631,5313.824a1.285,1.285,0,0,0-.332.113,1.253,1.253,0,0,1,.444,2.369,1.255,1.255,0,1,0-.112-2.482Z" transform="translate(-6315.608 -5313.802)" fill="#636468"/>
      </g>
      <g id="Grupo_37054" data-name="Grupo 37054" transform="translate(64.553 45.303)">
        <circle id="Elipse_859" data-name="Elipse 859" cx="1.255" cy="1.255" r="1.255" fill="#6d6e71"/>
        <path id="Trazado_40919" data-name="Trazado 40919" d="M6319.784,5312.427a1.182,1.182,0,0,0-.332.113,1.253,1.253,0,0,1,.443,2.37,1.317,1.317,0,0,0,.352-.015,1.255,1.255,0,0,0-.463-2.467Z" transform="translate(-6318.76 -5312.405)" fill="#636468"/>
      </g>
      <g id="Grupo_37055" data-name="Grupo 37055" transform="translate(69.824 41.303)">
        <circle id="Elipse_860" data-name="Elipse 860" cx="1.255" cy="1.255" r="1.255" fill="#6d6e71"/>
        <path id="Trazado_40920" data-name="Trazado 40920" d="M6322.453,5310.4a1.217,1.217,0,0,0-.332.111,1.255,1.255,0,0,1,.446,2.37,1.361,1.361,0,0,0,.349-.016,1.254,1.254,0,0,0-.463-2.466Z" transform="translate(-6321.429 -5310.38)" fill="#636468"/>
      </g>
      <g id="Grupo_37056" data-name="Grupo 37056" transform="translate(0 54.43)">
        <circle id="Elipse_861" data-name="Elipse 861" cx="1.255" cy="1.255" r="1.255" fill="#6d6e71"/>
        <path id="Trazado_40921" data-name="Trazado 40921" d="M6287.094,5317.049a1.187,1.187,0,0,0-.332.114,1.254,1.254,0,0,1,.445,2.369,1.367,1.367,0,0,0,.35-.016,1.255,1.255,0,1,0-.463-2.468Z" transform="translate(-6286.071 -5317.027)" fill="#636468"/>
      </g>
      <g id="Grupo_37057" data-name="Grupo 37057" transform="translate(27.957 55.225)">
        <circle id="Elipse_862" data-name="Elipse 862" cx="1.255" cy="1.255" r="1.255" transform="translate(0 0.001)" fill="#6d6e71"/>
        <path id="Trazado_40922" data-name="Trazado 40922" d="M6301.251,5317.451a1.357,1.357,0,0,0-.332.114,1.256,1.256,0,0,1,.444,2.371,1.3,1.3,0,0,0,.351-.017,1.256,1.256,0,1,0-.463-2.469Z" transform="translate(-6300.227 -5317.43)" fill="#636468"/>
      </g>
      <g id="Grupo_37058" data-name="Grupo 37058" transform="translate(20.383 56.157)">
        <circle id="Elipse_863" data-name="Elipse 863" cx="1.255" cy="1.255" r="1.255" transform="translate(0 0.001)" fill="#6d6e71"/>
        <path id="Trazado_40923" data-name="Trazado 40923" d="M6297.415,5317.923a1.191,1.191,0,0,0-.332.112,1.254,1.254,0,0,1,.447,2.369,1.254,1.254,0,1,0-.115-2.481Z" transform="translate(-6296.392 -5317.901)" fill="#636468"/>
      </g>
      <g id="Grupo_37059" data-name="Grupo 37059" transform="translate(13.295 56.528)">
        <circle id="Elipse_864" data-name="Elipse 864" cx="1.255" cy="1.255" r="1.255" transform="translate(0 0.001)" fill="#6d6e71"/>
        <path id="Trazado_40924" data-name="Trazado 40924" d="M6293.827,5318.111a1.181,1.181,0,0,0-.332.112,1.254,1.254,0,0,1,.446,2.369,1.189,1.189,0,0,0,.349-.014,1.255,1.255,0,0,0-.463-2.468Z" transform="translate(-6292.803 -5318.089)" fill="#636468"/>
      </g>
      <g id="Grupo_37060" data-name="Grupo 37060" transform="translate(6.552 56.202)">
        <circle id="Elipse_865" data-name="Elipse 865" cx="1.255" cy="1.255" r="1.255" transform="translate(0 0.001)" fill="#6d6e71"/>
        <path id="Trazado_40925" data-name="Trazado 40925" d="M6290.411,5317.946a1.211,1.211,0,0,0-.332.114,1.255,1.255,0,0,1,.447,2.37,1.256,1.256,0,1,0-.116-2.484Z" transform="translate(-6289.388 -5317.925)" fill="#636468"/>
      </g>
      <g id="Grupo_37071" data-name="Grupo 37071" transform="translate(12.267)">
        <g id="Grupo_37070" data-name="Grupo 37070" clip-path="url(#clip-path-2)">
          <g id="Grupo_37062" data-name="Grupo 37062" transform="translate(3.838 8.37)">
            <path id="Trazado_40926" data-name="Trazado 40926" d="M6313.019,5326.943l-.371-2.068s-13.192-4.183-16.786-12.7.3-16.786,11.666-18.312,15.555,8.072,15.457,14.572-3.3,11.568-7.974,15.555l.888,3.32Z" transform="translate(-6294.567 -5293.702)" fill="#4bc148"/>
            <path id="Trazado_40927" data-name="Trazado 40927" d="M6299.414,5312.175c-3.594-8.515.3-16.786,11.667-18.311.182-.024.357-.038.536-.058a16.2,16.2,0,0,0-4.089.058c-11.37,1.525-15.261,9.8-11.666,18.311s16.786,12.7,16.786,12.7l.371,2.068,2.879.367-.752-2.807C6311.958,5323.312,6302.392,5319.232,6299.414,5312.175Z" transform="translate(-6294.567 -5293.701)" fill="#43af3e"/>
            <path id="Trazado_40928" data-name="Trazado 40928" d="M6305.694,5309.243s-.406-10.338,6.147-11.225C6311.841,5298.019,6314.406,5306.51,6305.694,5309.243Z" transform="translate(-6283.726 -5289.496)" fill="#42429b"/>
            <path id="Trazado_40929" data-name="Trazado 40929" d="M6311.841,5298.019a5.642,5.642,0,0,0-1.854.583c.351,1.763.91,7.085-4.292,9.819-.013.511,0,.823,0,.823C6314.406,5306.51,6311.841,5298.019,6311.841,5298.019Z" transform="translate(-6283.726 -5289.496)" fill="#5454b2"/>
            <path id="Trazado_40930" data-name="Trazado 40930" d="M6295.409,5300.617s10.116-2.437,14.1,7.457C6309.512,5308.074,6299.619,5309.772,6295.409,5300.617Z" transform="translate(-6293.747 -5287.221)" fill="#42429b"/>
            <path id="Trazado_40931" data-name="Trazado 40931" d="M6296.735,5300.385a10.57,10.57,0,0,0-1.327.2c4.21,9.155,14.1,7.457,14.1,7.457-.193-.48-.406-.924-.626-1.349C6306.244,5306.792,6300.186,5306.308,6296.735,5300.385Z" transform="translate(-6293.747 -5287.188)" fill="#5454b2"/>
            <g id="Grupo_37061" data-name="Grupo 37061" transform="translate(19.149 2.208)">
              <ellipse id="Elipse_866" data-name="Elipse 866" cx="0.369" cy="0.665" rx="0.369" ry="0.665" transform="matrix(0.464, -0.886, 0.886, 0.464, 1.405, 0.654)" fill="#64db5e"/>
              <ellipse id="Elipse_867" data-name="Elipse 867" cx="0.369" cy="0.665" rx="0.369" ry="0.665" transform="matrix(0.464, -0.886, 0.886, 0.464, 0, 1.423)" fill="#64db5e"/>
              <ellipse id="Elipse_868" data-name="Elipse 868" cx="0.369" cy="0.665" rx="0.369" ry="0.665" transform="matrix(0.464, -0.886, 0.886, 0.464, 1.968, 2.451)" fill="#64db5e"/>
            </g>
          </g>
          <g id="Grupo_37069" data-name="Grupo 37069" transform="translate(19.567 30.566)">
            <g id="Grupo_37066" data-name="Grupo 37066">
              <g id="Grupo_37065" data-name="Grupo 37065">
                <path id="Trazado_40932" data-name="Trazado 40932" d="M6304.233,5306.1c-1.41-.383-2.473.628-.972,1.582a3.916,3.916,0,0,0,5.306-.583c1.5-1.753.171-2.617-.714-1.918A3.668,3.668,0,0,1,6304.233,5306.1Z" transform="translate(-6302.533 -5304.942)" fill="#381d06"/>
                <g id="Grupo_37064" data-name="Grupo 37064">
                  <g id="Grupo_37063" data-name="Grupo 37063" clip-path="url(#clip-path-3)">
                    <path id="Trazado_40933" data-name="Trazado 40933" d="M6302.863,5306.037l.63.985s-.549.691-.944,1.088a7.093,7.093,0,0,0,7.362-.305l-1.434-1.741-.023-1.444Z" transform="translate(-6302.517 -5305.256)" fill="#fff"/>
                  </g>
                </g>
              </g>
              <path id="Trazado_40935" data-name="Trazado 40935" d="M6303.173,5306.236a4.108,4.108,0,0,0,.707.2c.108.021.225.036.348.052s.254.021.389.021c.069,0,.136,0,.206,0s.141-.008.21-.014.142-.012.213-.022.141-.021.21-.036a4.056,4.056,0,0,0,.417-.1l.2-.065.193-.07c.063-.026.122-.054.184-.077s.117-.057.174-.082.109-.058.162-.083.106-.054.151-.081c.094-.056.183-.1.259-.155s.141-.086.195-.124c.107-.073.17-.112.17-.112s-.049.054-.143.146c-.045.047-.1.1-.173.161a2.846,2.846,0,0,1-.239.19,3.334,3.334,0,0,1-.3.2c-.055.032-.113.067-.171.1l-.188.092-.2.085c-.067.026-.137.053-.208.075a3.837,3.837,0,0,1-.439.112c-.076.014-.151.025-.226.033s-.15.017-.225.022a3.734,3.734,0,0,1-.438-.005,2.985,2.985,0,0,1-.4-.056,2.533,2.533,0,0,1-.354-.09,2.586,2.586,0,0,1-.5-.211A1.967,1.967,0,0,1,6303.173,5306.236Z" transform="translate(-6301.909 -5304.414)" fill="#f1f1f1"/>
            </g>
            <g id="Grupo_37068" data-name="Grupo 37068" transform="translate(2.949 3.429)">
              <g id="Grupo_37067" data-name="Grupo 37067">
                <path id="Trazado_40936" data-name="Trazado 40936" d="M6304.026,5307.491l.124.035c.079.022.192.054.326.08a2.537,2.537,0,0,0,.45.053c.042,0,.082,0,.123,0s.083,0,.122-.009a1.754,1.754,0,0,0,.244-.051,1.374,1.374,0,0,0,.224-.1,1.268,1.268,0,0,0,.2-.133,1.939,1.939,0,0,0,.175-.157c.027-.024.049-.056.074-.081s.048-.054.067-.079c.043-.054.083-.1.114-.149s.065-.085.087-.121c.045-.066.077-.105.077-.105s-.006.047-.024.13a1.105,1.105,0,0,1-.037.146c-.01.03-.018.06-.029.09l-.042.1c-.016.034-.033.066-.053.1a.878.878,0,0,1-.062.107,1.531,1.531,0,0,1-.169.212,1.245,1.245,0,0,1-.235.187,1.229,1.229,0,0,1-.283.13,1.253,1.253,0,0,1-.3.054,1.361,1.361,0,0,1-.294-.013,1.682,1.682,0,0,1-.481-.153,1.726,1.726,0,0,1-.3-.187A.935.935,0,0,1,6304.026,5307.491Z" transform="translate(-6304.026 -5306.679)" fill="#3d8e36"/>
              </g>
            </g>
          </g>
        </g>
      </g>
      <path id="Trazado_40938" data-name="Trazado 40938" d="M6307.588,5289.9c-26.254,4.937-9.827,39.985-9.827,39.985.415,2.208,8.251,2.587,17.5.847s16.417-4.939,16-7.146C6331.268,5323.585,6333.842,5284.962,6307.588,5289.9Z" transform="translate(-6280.296 -5289.463)" fill="#d6e3ea" opacity="0.08"/>
      <path id="Trazado_40939" data-name="Trazado 40939" d="M6305.3,5289.517c19.994,1.481,17.824,34.064,17.824,34.064.414,2.208-6.75,5.407-16,7.146a61.988,61.988,0,0,1-9.031,1.063,55.1,55.1,0,0,0,11.906-1.062c9.252-1.739,16.417-4.939,16-7.146C6326,5323.581,6328.369,5287.964,6305.3,5289.517Z" transform="translate(-6275.027 -5289.46)" fill="#d6e3ea" opacity="0.08"/>
    </g>
    <rect id="Rectángulo_4514" data-name="Rectángulo 4514" width="350" height="350" transform="translate(6247.02 5289.064)" fill="none"/>
    <g id="Grupo_37075" data-name="Grupo 37075" transform="translate(6499.608 5326.365)">
      <path id="Rectángulo_4515" data-name="Rectángulo 4515" d="M1.723,0h5.2A1.724,1.724,0,0,1,8.646,1.724V7.495A1.723,1.723,0,0,1,6.924,9.217h-5.2A1.723,1.723,0,0,1,0,7.494V1.723A1.723,1.723,0,0,1,1.723,0Z" transform="translate(19.062 60.458) rotate(-83.011)" fill="#c2c2c2"/>
      <path id="Rectángulo_4516" data-name="Rectángulo 4516" d="M1.273,0h6.67A1.274,1.274,0,0,1,9.217,1.274v6.1A1.274,1.274,0,0,1,7.943,8.647H1.274A1.274,1.274,0,0,1,0,7.373v-6.1A1.273,1.273,0,0,1,1.273,0Z" transform="matrix(-0.358, 0.934, -0.934, -0.358, 60.827, 34.797)" fill="#c2c2c2"/>
      <rect id="Rectángulo_4517" data-name="Rectángulo 4517" width="8.646" height="9.218" rx="1.804" transform="matrix(0.802, -0.598, 0.598, 0.802, 44.627, 14)" fill="#d6d6d6"/>
      <rect id="Rectángulo_4518" data-name="Rectángulo 4518" width="9.218" height="8.646" rx="1.301" transform="matrix(-0.999, -0.034, 0.034, -0.999, 31.994, 8.958)" fill="#d6d6d6"/>
      <path id="Trazado_40940" data-name="Trazado 40940" d="M6385.366,5320.109l-1.29,1.635a4.339,4.339,0,0,1-6.074.71h0a4.337,4.337,0,0,1-.711-6.071l1.292-1.633a4.338,4.338,0,0,1,6.073-.712h0A4.335,4.335,0,0,1,6385.366,5320.109Z" transform="translate(-6373.53 -5302.926)" fill="#d6d6d6"/>
      <path id="Trazado_40941" data-name="Trazado 40941" d="M6433.628,5338.184a29.349,29.349,0,1,1-29.351-29.35A29.352,29.352,0,0,1,6433.628,5338.184Z" transform="translate(-6374.93 -5307.097)" fill="#f6f6f6"/>
      <path id="Trazado_40942" data-name="Trazado 40942" d="M6404.278,5343.879a29.358,29.358,0,0,1-28.715-23.265,29.35,29.35,0,1,0,57.43,0A29.357,29.357,0,0,1,6404.278,5343.879Z" transform="translate(-6374.93 -5295.613)" fill="#230753" opacity="0.15"/>
      <path id="Trazado_40943" data-name="Trazado 40943" d="M6389.431,5315.736c.5,1.195-.531,2.757-2.3,3.494s-3.6.362-4.1-.831.532-2.758,2.3-3.492S6388.934,5314.542,6389.431,5315.736Z" transform="translate(-6367.151 -5301.546)" fill="#e3e3e3"/>
      <path id="Trazado_40944" data-name="Trazado 40944" d="M6382.7,5320.1c-.751-1.8.8-4.157,3.464-5.265a5.7,5.7,0,0,1,5.215.107c-1.122-1.178-3.435-1.43-5.673-.5-2.663,1.108-4.214,3.464-3.464,5.265a2.611,2.611,0,0,0,.96,1.144A2.446,2.446,0,0,1,6382.7,5320.1Z" transform="translate(-6367.983 -5302.181)" fill="#e3e3e3"/>
      <path id="Trazado_40945" data-name="Trazado 40945" d="M6389.4,5315.5a1.715,1.715,0,0,0-.582-.721c.339,1.17-.671,2.621-2.354,3.322a3.737,3.737,0,0,1-3.518-.109c.019.058.034.115.058.171.5,1.193,2.332,1.564,4.1.831S6389.894,5316.69,6389.4,5315.5Z" transform="translate(-6367.117 -5301.306)" fill="#230753" opacity="0.15"/>
      <path id="Trazado_40946" data-name="Trazado 40946" d="M6393.608,5312.24c.079.713-.889,1.4-2.163,1.545s-2.367-.322-2.446-1.036.888-1.4,2.162-1.544S6393.529,5311.527,6393.608,5312.24Z" transform="translate(-6361.221 -5304.809)" fill="#e3e3e3"/>
      <path id="Trazado_40947" data-name="Trazado 40947" d="M6394.8,5318.055a1.581,1.581,0,0,1-.3-2.043,2.111,2.111,0,0,0-.154.229c-.525.907-.448,1.934.174,2.293s1.548-.088,2.072-1a2.214,2.214,0,0,0,.122-.249C6396.176,5318.038,6395.36,5318.381,6394.8,5318.055Z" transform="translate(-6356.344 -5300.1)" fill="#e3e3e3"/>
      <path id="Trazado_40948" data-name="Trazado 40948" d="M6388.812,5313.5c-.128-1.14,1.422-2.246,3.46-2.472a5.746,5.746,0,0,1,2.332.192,5.311,5.311,0,0,0-2.844-.4c-2.038.228-3.588,1.333-3.461,2.475.071.655.689,1.181,1.586,1.463A1.708,1.708,0,0,1,6388.812,5313.5Z" transform="translate(-6361.904 -5305.199)" fill="#230753" opacity="0.15"/>
      <path id="Trazado_40949" data-name="Trazado 40949" d="M6393.1,5312.239c-.067-.616-.9-1.044-1.943-1.058.577.173.973.5,1.02.923.079.711-.89,1.4-2.162,1.545a4.424,4.424,0,0,1-.5.023,3.6,3.6,0,0,0,1.425.111C6392.212,5313.643,6393.181,5312.952,6393.1,5312.239Z" transform="translate(-6360.714 -5304.809)" fill="#230753" opacity="0.15"/>
      <path id="Trazado_40950" data-name="Trazado 40950" d="M6381.209,5320.64c1.1.684,1.179,2.533.184,4.127s-2.693,2.333-3.79,1.645-1.179-2.532-.183-4.127S6380.113,5319.955,6381.209,5320.64Z" transform="translate(-6373.183 -5295.838)" fill="#e3e3e3"/>
      <path id="Trazado_40951" data-name="Trazado 40951" d="M6380.207,5320.346c1.17.73,1.417,2.514.7,4.261,1-1.754.877-3.724-.318-4.471a2.32,2.32,0,0,0-2.182-.037A2.346,2.346,0,0,1,6380.207,5320.346Z" transform="translate(-6371.544 -5296.361)" fill="#230753" opacity="0.15"/>
      <path id="Trazado_40952" data-name="Trazado 40952" d="M6377.759,5326.5c-1.5-.938-1.714-3.35-.573-5.575-.122.163-.24.332-.351.509-1.475,2.362-1.355,5.1.27,6.114s4.138-.075,5.613-2.436c.111-.178.211-.361.3-.54C6381.524,5326.573,6379.262,5327.439,6377.759,5326.5Z" transform="translate(-6374.078 -5295.312)" fill="#230753" opacity="0.15"/>
      <path id="Trazado_40953" data-name="Trazado 40953" d="M6381.055,5320.64c-1.1-.686-2.792.052-3.789,1.645a4.778,4.778,0,0,0-.385.763c1-1.1,2.348-1.542,3.272-.963s1.125,1.982.568,3.365a4.85,4.85,0,0,0,.517-.682C6382.234,5323.173,6382.153,5321.324,6381.055,5320.64Z" transform="translate(-6373.029 -5295.838)" fill="#230753" opacity="0.15"/>
      <path id="Trazado_40954" data-name="Trazado 40954" d="M6386.8,5326.876c2.376,1.485,3.318,4.262,2.1,6.2s-4.122,2.311-6.5.828-3.317-4.261-2.1-6.2S6384.429,5325.391,6386.8,5326.876Z" transform="translate(-6370.206 -5290.396)" fill="#e3e3e3"/>
      <path id="Trazado_40955" data-name="Trazado 40955" d="M6380.306,5330.429c1.212-1.942,4.123-2.314,6.5-.829a5.69,5.69,0,0,1,2.387,2.9c.732-1.884-.238-4.283-2.387-5.626-2.375-1.485-5.286-1.114-6.5.828a3.8,3.8,0,0,0-.283,3.3A3.25,3.25,0,0,1,6380.306,5330.429Z" transform="translate(-6370.206 -5290.396)" fill="#230753" opacity="0.15"/>
      <path id="Trazado_40956" data-name="Trazado 40956" d="M6392.546,5328.6a5.064,5.064,0,0,1-.656,2.784c-1.635,2.834-5.772,3.507-9.238,1.507a7.973,7.973,0,0,1-3.72-4.526,7.572,7.572,0,0,0,3.969,5.97c3.468,2,7.6,1.327,9.24-1.5A5.329,5.329,0,0,0,6392.546,5328.6Z" transform="translate(-6371.028 -5288.059)" fill="#230753" opacity="0.15"/>
      <path id="Trazado_40957" data-name="Trazado 40957" d="M6384.628,5335.732c.93-1.488,3.406-1.621,5.527-.294a5.051,5.051,0,0,1,2.5,3.533,4.726,4.726,0,0,0-2.5-4.042c-2.121-1.325-4.6-1.2-5.527.294a2.467,2.467,0,0,0-.34,1.563A2.359,2.359,0,0,1,6384.628,5335.732Z" transform="translate(-6365.821 -5282.551)" fill="#230753" opacity="0.15"/>
      <path id="Trazado_40958" data-name="Trazado 40958" d="M6390.705,5336.425a1.673,1.673,0,0,1-.215.59c-.684,1.1-2.506,1.193-4.068.215a4.138,4.138,0,0,1-1.624-1.806,3.344,3.344,0,0,0,1.8,3.164c1.564.978,3.386.882,4.071-.215A2.066,2.066,0,0,0,6390.705,5336.425Z" transform="translate(-6365.344 -5281.176)" fill="#230753" opacity="0.15"/>
      <path id="Trazado_40959" data-name="Trazado 40959" d="M6402.985,5327.232c3.557,2.224,4.831,6.6,2.846,9.778s-6.479,3.95-10.036,1.729-4.83-6.6-2.846-9.778S6399.429,5325.01,6402.985,5327.232Z" transform="translate(-6358.278 -5290.397)" fill="#e3e3e3"/>
      <path id="Trazado_40960" data-name="Trazado 40960" d="M6394.933,5332.938c1.986-3.178,6.478-3.952,10.036-1.729a8.421,8.421,0,0,1,1.7,1.407,7.921,7.921,0,0,0-3.687-5.383c-3.557-2.222-8.05-1.45-10.036,1.729a6.935,6.935,0,0,0,1.141,8.371A6.294,6.294,0,0,1,6394.933,5332.938Z" transform="translate(-6358.277 -5290.397)" fill="#230753" opacity="0.15"/>
      <path id="Trazado_40961" data-name="Trazado 40961" d="M6409.764,5328.886a10.089,10.089,0,0,1-1.548,5.433,9.631,9.631,0,0,1-13.2,3.347,9.187,9.187,0,0,1-4.1-5.879,9.316,9.316,0,0,0,4.325,7.9,9.629,9.629,0,0,0,13.2-3.347A10.018,10.018,0,0,0,6409.764,5328.886Z" transform="translate(-6359.343 -5287.549)" fill="#230753" opacity="0.15"/>
      <path id="Trazado_40962" data-name="Trazado 40962" d="M6388.177,5322.919c-.206.591-1.07.831-1.932.531s-1.394-1.021-1.187-1.614,1.071-.831,1.932-.53S6388.382,5322.326,6388.177,5322.919Z" transform="translate(-6365.1 -5295.065)" fill="#e3e3e3"/>
      <path id="Trazado_40963" data-name="Trazado 40963" d="M6388.678,5321.569a1.256,1.256,0,0,1,.109,1c-.279.8-1.452,1.126-2.619.721a2.886,2.886,0,0,1-1.273-.856,2.658,2.658,0,0,0,1.5,1.193c1.168.4,2.34.083,2.619-.72A1.388,1.388,0,0,0,6388.678,5321.569Z" transform="translate(-6365.217 -5294.683)" fill="#230753" opacity="0.15"/>
      <path id="Trazado_40964" data-name="Trazado 40964" d="M6385.464,5322.258c.2-.593,1.07-.833,1.931-.532a2.3,2.3,0,0,1,.622.33,2.026,2.026,0,0,0-1.027-.75c-.86-.3-1.726-.062-1.932.53a1.2,1.2,0,0,0,.564,1.285A.973.973,0,0,1,6385.464,5322.258Z" transform="translate(-6365.1 -5295.065)" fill="#230753" opacity="0.15"/>
      <path id="Trazado_40965" data-name="Trazado 40965" d="M6394,5321.064a1.461,1.461,0,0,0-1.578.335,1.638,1.638,0,0,1,.827.074,1.358,1.358,0,0,1,.983,1.634,1.059,1.059,0,0,1-.193.336,1.185,1.185,0,0,0,.944-.743A1.362,1.362,0,0,0,6394,5321.064Z" transform="translate(-6357.878 -5295.268)" fill="#230753" opacity="0.15"/>
      <path id="Trazado_40966" data-name="Trazado 40966" d="M6394.405,5324.3a2.72,2.72,0,0,1-2.179-3.136,2.068,2.068,0,0,1,.3-.627,2.158,2.158,0,0,0-.884,1.211,2.722,2.722,0,0,0,2.178,3.139,2.9,2.9,0,0,0,3.164-.952A3.122,3.122,0,0,1,6394.405,5324.3Z" transform="translate(-6358.712 -5295.685)" fill="#230753" opacity="0.15"/>
      <path id="Trazado_40967" data-name="Trazado 40967" d="M6401.73,5322.152a1.03,1.03,0,0,1-.224.695.876.876,0,0,1-1.2.255.655.655,0,0,1-.16-.183.706.706,0,0,0,.256.507.876.876,0,0,0,1.2-.255A.939.939,0,0,0,6401.73,5322.152Z" transform="translate(-6350.353 -5294.114)" fill="#230753" opacity="0.15"/>
      <path id="Trazado_40968" data-name="Trazado 40968" d="M6394.661,5316.3a.929.929,0,0,1,1.292.167.765.765,0,0,1,.069.65.847.847,0,0,0,.1-.975.929.929,0,0,0-1.291-.168,1.084,1.084,0,0,0-.455.589A1.152,1.152,0,0,1,6394.661,5316.3Z" transform="translate(-6355.972 -5300.312)" fill="#230753" opacity="0.15"/>
      <path id="Trazado_40969" data-name="Trazado 40969" d="M6401.692,5318.24a.929.929,0,0,0-1.2-.5,1.1,1.1,0,0,0-.54.369,1.2,1.2,0,0,1,.323-.167.931.931,0,0,1,1.2.5.8.8,0,0,1-.165.729A.851.851,0,0,0,6401.692,5318.24Z" transform="translate(-6350.54 -5298.468)" fill="#230753" opacity="0.15"/>
      <path id="Trazado_40970" data-name="Trazado 40970" d="M6395.364,5313.857c.12-.592,1.088-.892,2.16-.673a3.26,3.26,0,0,1,.787.265,2.7,2.7,0,0,0-1.493-.783c-1.072-.216-2.04.083-2.161.676-.088.433.307.9.942,1.2A.81.81,0,0,1,6395.364,5313.857Z" transform="translate(-6355.714 -5303.429)" fill="#230753" opacity="0.15"/>
      <g id="Grupo_37074" data-name="Grupo 37074" transform="translate(1.659 40.697)">
        <g id="Grupo_37073" data-name="Grupo 37073" transform="translate(0.171)">
          <path id="Trazado_40971" data-name="Trazado 40971" d="M6378.857,5331.035c-.8-1.676-2.045-2.76-2.769-2.4a.705.705,0,0,0-.231.22,5.5,5.5,0,0,1,2.174,2.6,5.262,5.262,0,0,1,.46,3.28.629.629,0,0,0,.493-.036C6379.713,5334.353,6379.656,5332.711,6378.857,5331.035Z" transform="translate(-6375.857 -5328.563)" fill="#230753" opacity="0.15"/>
        </g>
        <path id="Trazado_40972" data-name="Trazado 40972" d="M6378.1,5331.3c.773,1.625,1.07,3.1.66,3.3s-1.373-.962-2.146-2.585-1.072-3.1-.663-3.3S6377.328,5329.677,6378.1,5331.3Z" transform="translate(-6375.77 -5328.432)" fill="#c2c2c2"/>
        <path id="Trazado_40973" data-name="Trazado 40973" d="M6377.789,5330.24c-.077-.158-.156-.309-.233-.456.612,1.429.822,2.65.451,2.827s-1.187-.751-1.914-2.127c.067.153.134.308.21.467.773,1.623,1.735,2.781,2.146,2.585S6378.562,5331.864,6377.789,5330.24Z" transform="translate(-6375.456 -5327.372)" fill="#230753" opacity="0.15"/>
      </g>
      <path id="Trazado_40974" data-name="Trazado 40974" d="M6401.682,5319.576a1.422,1.422,0,0,1-1.842-.771,1.23,1.23,0,0,1,.216-1.111,1.305,1.305,0,0,0-.5,1.418,1.416,1.416,0,0,0,1.84.768,1.651,1.651,0,0,0,.826-.59A1.777,1.777,0,0,1,6401.682,5319.576Z" transform="translate(-6350.985 -5298.461)" fill="#230753" opacity="0.15"/>
    </g>
  </g>
</svg>
