<svg xmlns="http://www.w3.org/2000/svg" width="176" height="176" viewBox="0 0 176 176">
  <g id="Grupo_37404" data-name="Grupo 37404" transform="translate(-6204.469 -400.457)">
    <rect id="Rectángulo_1876" data-name="Rectángulo 1876" width="176" height="176" transform="translate(6204.469 400.457)" fill="none"/>
    <g id="Grupo_40110" data-name="Grupo 40110" transform="translate(5549.752 64.454)">
      <path id="Trazado_42618" data-name="Trazado 42618" d="M1115.677,469.254l-3.9,4.19s.209,9.638,0,9.847,7.193-6.355,7.193-6.355Z" transform="translate(-311.708 -89.462)" fill="#b2835d"/>
      <path id="Trazado_42619" data-name="Trazado 42619" d="M1101.237,663.649s11.032,1.029,13.548,4.046,2.655,14.13-10.615,14.65-14.107-6.254-14.107-6.254Z" transform="translate(-296.835 -222.62)" fill="#b2835d"/>
      <path id="Trazado_42620" data-name="Trazado 42620" d="M770.041,558.385s-1.051,28.171,31.6,22.109l59.408-2.618-1.85-53.807L788.2,518.506S762.059,532.284,770.041,558.385Z" transform="translate(-76.587 -123.199)" fill="#d3a57a"/>
      <path id="Trazado_42621" data-name="Trazado 42621" d="M658.568,524.179s-10.678-33.045,19.254-48.915l54.344,21.907-7.117,53.7Z" transform="translate(0 -93.579)" fill="#d3a57a"/>
      <path id="Trazado_42622" data-name="Trazado 42622" d="M702.365,475.264l39.368,15.87s-15.643,4.4-23.292,24.708c0,0-.3-.666-5.987-14.966-8.46-21.259-19.908-18.572-19.908-18.572S697.6,477.331,702.365,475.264Z" transform="translate(-24.543 -93.579)" fill="#b2835d" opacity="0.39"/>
      <path id="Trazado_42623" data-name="Trazado 42623" d="M861.27,579.288S848.5,581.847,847.389,595a23.362,23.362,0,0,0,7.982,20.03Z" transform="translate(-130.543 -164.834)" fill="#b2835d" opacity="0.39"/>
      <g id="Grupo_40081" data-name="Grupo 40081" transform="translate(721.685 338.649)">
        <path id="Trazado_42624" data-name="Trazado 42624" d="M862.985,471.488s-.03-99.1-.03-104.128c0-7.822,4.36-9.917,4.36-9.917L876,353.33l7.793,3.136V478.192l-7.2,7.517S862.985,482.8,862.985,471.488Z" transform="translate(-862.955 -348.705)" fill="#5ed4f0"/>
        <path id="Trazado_42625" data-name="Trazado 42625" d="M961.661,460.809V345.426a6.777,6.777,0,0,0-7.254-6.76L898.612,342.6a6.778,6.778,0,0,0-6.3,6.761V469.308a6.777,6.777,0,0,0,7.8,6.7l55.794-8.5A6.777,6.777,0,0,0,961.661,460.809Z" transform="translate(-883.064 -338.649)" fill="#85dbf0"/>
        <path id="Trazado_42626" data-name="Trazado 42626" d="M973.291,368.605V479.088l-56.149,8.66V373.075Z" transform="translate(-900.072 -359.168)" fill="#006070"/>
        <g id="Grupo_40080" data-name="Grupo 40080" transform="translate(42.665 4.465)">
          <circle id="Elipse_755" data-name="Elipse 755" cx="2.852" cy="2.852" r="2.852" fill="#2bbee0"/>
          <path id="Trazado_42627" data-name="Trazado 42627" d="M1005.392,352.824a2.846,2.846,0,0,0-.945.163,2.849,2.849,0,0,1,0,5.377,2.851,2.851,0,1,0,.945-5.54Z" transform="translate(-1002.54 -352.824)" fill="#27aec4"/>
        </g>
        <path id="Trazado_42628" data-name="Trazado 42628" d="M973.291,690.079l-17-13.45-39.153,4.581v17.529Z" transform="translate(-900.072 -570.159)" fill="#0e7992"/>
        <path id="Trazado_42629" data-name="Trazado 42629" d="M1034.778,370.125l2.1,95.513,17,13.45V368.605Z" transform="translate(-980.651 -359.168)" fill="#4295a8"/>
        <path id="Trazado_42630" data-name="Trazado 42630" d="M959.086,687.769s-28.294,3.533-28.18,5.625,6.448-.351,6.446,2.167-3.584,2.224-3.067,4.014,27.261-.3,30.627-2.052S967.141,689.019,959.086,687.769Z" transform="translate(-909.5 -577.79)" fill="#006070"/>
      </g>
      <path id="Trazado_42631" data-name="Trazado 42631" d="M862.955,467.157V459.6l0-4.979s16.7,1.992,15.25,27.137c-1.117,19.36-15.235,24.409-15.235,24.409Z" transform="translate(-141.27 -79.44)" fill="#5ed4f0" opacity="0.24" style="mix-blend-mode: multiply;isolation: isolate"/>
      <path id="Trazado_42632" data-name="Trazado 42632" d="M774.745,512.479s1.185-11.7,11.086-18.671,8.093-10.572,8.758-15.351,4.767-10.385,10.975-7.139,8.98,17.485,5.765,26.995-14.412,15.679-13.636,22.073Z" transform="translate(-80.848 -90.217)" fill="#d3a57a"/>
      <path id="Trazado_42633" data-name="Trazado 42633" d="M1077.434,465.707" transform="translate(-288.184 -87.033)" fill="#f9cdaf"/>
      <path id="Trazado_42634" data-name="Trazado 42634" d="M1125.535,551.181" transform="translate(-321.133 -145.581)" fill="none"/>
      <path id="Trazado_42635" data-name="Trazado 42635" d="M1111.922,611.139s4.47.279,4.609,8.1-7.123,13.968-13.13,14.247-12.431-7.319-1.955-14.834Z" transform="translate(-300.815 -186.651)" fill="#d3a57a"/>
      <path id="Trazado_42636" data-name="Trazado 42636" d="M1106.614,621.8l9.3-6.672c-1.258-3.822-3.994-3.994-3.994-3.994l-10.476,7.514c-9.7,6.959-4.907,13.991.625,14.769C1100.147,630.561,1100.53,626.169,1106.614,621.8Z" transform="translate(-300.815 -186.651)" fill="#b2835d" opacity="0.39"/>
      <path id="Trazado_42637" data-name="Trazado 42637" d="M1099.221,539.639s7.123,1.633,8.38,10.624-6.146,19.69-17.18,19.3-11.174-7.654-10.336-11.285,4.609-6.646,12.291-13.449S1099.221,539.639,1099.221,539.639Z" transform="translate(-289.79 -137.56)" fill="#d3a57a"/>
      <path id="Trazado_42638" data-name="Trazado 42638" d="M1085.652,563.085c.9-3.9,4.954-7.143,13.21-14.455,3.2-2.836,5.024-4.307,6.057-5.05a11.167,11.167,0,0,0-5.7-3.941s.838-1.615-6.844,5.188-11.453,9.818-12.291,13.449c-.7,3.02-.711,8.547,5.646,10.55A11.445,11.445,0,0,1,1085.652,563.085Z" transform="translate(-289.792 -137.56)" fill="#b2835d" opacity="0.39"/>
      <path id="Trazado_42639" data-name="Trazado 42639" d="M1083.949,456.82s18.7-1.378,22.278,9.325c4.329,12.944-9.079,22.049-25.7,24.224,0,0-7.822.542-9.5-6.394s8.1-12.243,15.644-16.853l-2.724-1.6Z" transform="translate(-283.667 -80.906)" fill="#d3a57a"/>
      <g id="Grupo_40109" data-name="Grupo 40109" transform="translate(738.933 379.053)">
        <g id="Grupo_40082" data-name="Grupo 40082" transform="translate(44.289 103.863)">
          <path id="Trazado_42640" data-name="Trazado 42640" d="M1061.214,797.531a1.7,1.7,0,0,0-1.917-.874c-1.4.273-1.1,1.484-.468,1.809.38.195,1.8.641,2.014,1.5A2.406,2.406,0,0,0,1061.214,797.531Z" transform="translate(-1058.3 -796.615)" fill="#422c9b"/>
          <path id="Trazado_42641" data-name="Trazado 42641" d="M1059.274,799.844a.183.183,0,0,1-.111-.254c.157-.2,1.115,0,1.34.486s-.061.378-.128.337S1059.494,799.95,1059.274,799.844Z" transform="translate(-1058.879 -798.601)" fill="#6d31fd"/>
        </g>
        <path id="Trazado_42642" data-name="Trazado 42642" d="M1067.435,853.6l-1.344,3.175s.845,2.949,5.281,2.794c3.891-.136,6.233-3.537,4.7-8.312Z" transform="translate(-1019.348 -730.181)" fill="#2bbee0"/>
        <path id="Trazado_42643" data-name="Trazado 42643" d="M1053.862,816.179a17.321,17.321,0,0,1,2.21,5.17c.442,2.432,1.222,8.487,1.312,9.609a4.643,4.643,0,0,0,.664,1.986s.929,1.846.6,1.636c-1.659-1.05-2.793-2.8-3.147-8.832-.288-4.917-.84-4.6-2.343-8.355C1053.1,817.258,1052.977,816.27,1053.862,816.179Z" transform="translate(-1010.46 -706.153)" fill="#2bbee0"/>
        <path id="Trazado_42644" data-name="Trazado 42644" d="M1061.26,802.754a6.269,6.269,0,0,0-3.475.236,4.582,4.582,0,0,0-2.627,4.576c.332,1.7,1.857,2.94,2.343,7.45s.818,11.164,6.853,10.059,3.913-8.46,3.448-11.172S1066.543,802.342,1061.26,802.754Z" transform="translate(-1011.824 -696.858)" fill="#422c9b"/>
        <path id="Trazado_42645" data-name="Trazado 42645" d="M1085.71,812.305l.261-.292s1.725,1.54,2.672,10.888l-.9-1.134s-.552-7.375-2.141-9.273Z" transform="translate(-1032.711 -703.3)" fill="#2bbee0"/>
        <path id="Trazado_42646" data-name="Trazado 42646" d="M1055.134,806.745s8.391,1.2,10.207-2.455a4.96,4.96,0,0,0-4.983-2.843C1056.386,801.908,1054.714,803.347,1055.134,806.745Z" transform="translate(-1011.799 -696.037)" fill="#6d31fd"/>
        <path id="Trazado_42647" data-name="Trazado 42647" d="M1071.874,812.94s1.666,2.234,2.31,9.889l-6.219.855-2.564-8.772S1069.725,814.885,1071.874,812.94Z" transform="translate(-1018.875 -703.935)" fill="#fccc05"/>
        <path id="Trazado_42648" data-name="Trazado 42648" d="M1060.7,816.145l-.5.823a23.648,23.648,0,0,1,2.631,9.487l1.451-.985-1.036-4.962S1062.693,816.134,1060.7,816.145Z" transform="translate(-1015.314 -706.13)" fill="#2bbee0"/>
        <path id="Trazado_42649" data-name="Trazado 42649" d="M1062.721,813.54l-.923.821s2.857,5.373,2.939,10.03l2.931-1.423-1.646-7.132A2.545,2.545,0,0,1,1062.721,813.54Z" transform="translate(-1016.407 -704.346)" fill="#fccc05"/>
        <path id="Trazado_42650" data-name="Trazado 42650" d="M1063.324,807.116l-1.526,2.6a4.824,4.824,0,0,0,3.579,1.909c2.39.133,4.029-2.918,4.029-2.918l-2.037-1.945Z" transform="translate(-1016.407 -699.705)" fill="#dbb100"/>
        <g id="Grupo_40083" data-name="Grupo 40083" transform="translate(45.924 98.509)">
          <path id="Trazado_42651" data-name="Trazado 42651" d="M1064.241,779.62s-.122,5.4-.749,11.394c0,0,3.186,2.566,6.565.588a81.339,81.339,0,0,0,.785-11.981Z" transform="translate(-1063.492 -779.62)" fill="#edb477"/>
          <path id="Trazado_42652" data-name="Trazado 42652" d="M1070.057,803.919s.413-2.987.655-6.316a7.217,7.217,0,0,1-6.742.044c-.111,1.7-.266,3.66-.478,5.685C1063.492,803.332,1066.678,805.9,1070.057,803.919Z" transform="translate(-1063.492 -791.938)" fill="#eaf6f9"/>
          <path id="Trazado_42653" data-name="Trazado 42653" d="M1064.872,795.386s3.978,1.7,6.749-.1l-.147,1.962a7.89,7.89,0,0,1-6.726,0Z" transform="translate(-1064.352 -790.349)" fill="#e00b71"/>
          <path id="Trazado_42654" data-name="Trazado 42654" d="M1066.9,796.3l-.075,1.92q.324.121.641.207l.066-1.944C1067.292,796.422,1067.079,796.359,1066.9,796.3Z" transform="translate(-1065.775 -791.046)" fill="#f80a73"/>
          <path id="Trazado_42655" data-name="Trazado 42655" d="M1070.876,797.33l-.076,1.944q.329.062.645.093l.066-1.933C1071.29,797.4,1071.077,797.37,1070.876,797.33Z" transform="translate(-1068.498 -791.751)" fill="#f80a73"/>
          <path id="Trazado_42656" data-name="Trazado 42656" d="M1075.367,797.882l-.074,1.9c.224,0,.441-.009.649-.026l.064-1.87C1075.79,797.894,1075.576,797.892,1075.367,797.882Z" transform="translate(-1071.575 -792.129)" fill="#f80a73"/>
          <path id="Trazado_42657" data-name="Trazado 42657" d="M1079.865,797.386l-.072,1.84c.235-.042.454-.091.653-.144l.062-1.829A5.8,5.8,0,0,1,1079.865,797.386Z" transform="translate(-1074.659 -791.699)" fill="#f80a73"/>
          <path id="Trazado_42658" data-name="Trazado 42658" d="M1083.806,795.931l-.072,1.848a6.344,6.344,0,0,0,.658-.266l.065-1.9A4.8,4.8,0,0,1,1083.806,795.931Z" transform="translate(-1077.357 -790.573)" fill="#f80a73"/>
        </g>
        <path id="Trazado_42659" data-name="Trazado 42659" d="M1072.069,787.621l-6.729.155c-.026.546-.058,1.162-.1,1.831,2.981.363,4.807,4.926,5.643,7.671.123-.06.247-.125.37-.2C1071.256,797.082,1071.968,791.935,1072.069,787.621Z" transform="translate(-1018.767 -686.592)" fill="#bcb5b1" opacity="0.2" style="mix-blend-mode: multiply;isolation: isolate"/>
        <path id="Trazado_42660" data-name="Trazado 42660" d="M1071.388,819.568a50.707,50.707,0,0,0-1.879-7.645,2.486,2.486,0,0,1,2.846-3.315c2,.29,2.592,3.156,2.968,4.549s.995,6.035.995,6.035S1073.014,818.861,1071.388,819.568Z" transform="translate(-1021.554 -700.946)" fill="#422c9b"/>
        <path id="Trazado_42661" data-name="Trazado 42661" d="M1071.247,812.525a2.438,2.438,0,0,1,2.293-3.338,2.216,2.216,0,0,0-1.185-.579,2.486,2.486,0,0,0-2.846,3.315,50.671,50.671,0,0,1,1.879,7.645,5.684,5.684,0,0,1,1.56-.369A41.914,41.914,0,0,0,1071.247,812.525Z" transform="translate(-1021.554 -700.946)" fill="#241c6b" opacity="0.5"/>
        <path id="Trazado_42662" data-name="Trazado 42662" d="M1064.074,845.119s2.236-3.939,6.126-3.969,4.151,1.342,4.151,1.342,2.215,7.656-3.134,9.1S1063.872,848.248,1064.074,845.119Z" transform="translate(-1017.957 -723.258)" fill="#6d31fd"/>
        <g id="Grupo_40088" data-name="Grupo 40088" transform="translate(45.609 115.7)">
          <g id="Grupo_40087" data-name="Grupo 40087">
            <g id="Grupo_40086" data-name="Grupo 40086">
              <g id="Grupo_40084" data-name="Grupo 40084" transform="translate(0.311 0.222)">
                <path id="Trazado_42663" data-name="Trazado 42663" d="M1063.927,835.341a.169.169,0,0,1-.237.031l-.014-.011s-.087.149-.2.1l.092.07a.364.364,0,1,0,.443-.578l-.014-.011a.166.166,0,0,0-.241.022l-.019.025.147.112.008.006a.169.169,0,0,1,.031.237" transform="translate(-1063.48 -834.897)" fill="#fccc05"/>
              </g>
              <g id="Grupo_40085" data-name="Grupo 40085">
                <path id="Trazado_42664" data-name="Trazado 42664" d="M1062.722,834.453a.169.169,0,0,1,.237-.031l.014.011s.087-.149.2-.1l-.092-.07a.364.364,0,0,0-.442.578l.014.011a.166.166,0,0,0,.241-.022l.019-.025-.147-.112-.008-.006a.169.169,0,0,1-.031-.237" transform="translate(-1062.492 -834.192)" fill="#fccc05"/>
              </g>
            </g>
            <path id="Trazado_42665" data-name="Trazado 42665" d="M1063.84,835.4l-.227-.174a.056.056,0,1,0-.067.088l.227.174a.056.056,0,0,0,.068-.089Z" transform="translate(-1063.199 -834.89)" fill="#fccc05"/>
          </g>
        </g>
        <g id="Grupo_40089" data-name="Grupo 40089" transform="translate(27.421 106.035)">
          <path id="Trazado_42666" data-name="Trazado 42666" d="M1007.215,804.283a1.431,1.431,0,0,0-1.618-.738c-1.178.231-.932,1.253-.4,1.528.321.164,1.521.541,1.7,1.262A2.03,2.03,0,0,0,1007.215,804.283Z" transform="translate(-1004.755 -803.509)" fill="#422c9b"/>
          <path id="Trazado_42667" data-name="Trazado 42667" d="M1005.577,806.236a.154.154,0,0,1-.094-.215c.132-.165.941,0,1.131.41s-.051.319-.108.285S1005.763,806.325,1005.577,806.236Z" transform="translate(-1005.244 -805.186)" fill="#6d31fd"/>
        </g>
        <path id="Trazado_42668" data-name="Trazado 42668" d="M1014.3,860.069l-1.344,3.175s.845,2.949,5.281,2.794c3.89-.136,6.232-3.537,4.7-8.312Z" transform="translate(-982.952 -734.612)" fill="#2bbee0"/>
        <path id="Trazado_42669" data-name="Trazado 42669" d="M1000.728,822.648a17.318,17.318,0,0,1,2.21,5.17c.442,2.432,1.222,8.487,1.312,9.609a4.645,4.645,0,0,0,.664,1.986s.929,1.846.6,1.636c-1.659-1.05-2.793-2.8-3.147-8.832-.288-4.918-.84-4.6-2.343-8.355C999.966,823.727,999.844,822.738,1000.728,822.648Z" transform="translate(-974.064 -710.585)" fill="#2bbee0"/>
        <path id="Trazado_42670" data-name="Trazado 42670" d="M1008.126,809.223a6.269,6.269,0,0,0-3.475.236,4.582,4.582,0,0,0-2.627,4.576c.332,1.7,1.857,2.94,2.343,7.45s.818,11.164,6.853,10.059,3.913-8.46,3.448-11.172S1013.409,808.811,1008.126,809.223Z" transform="translate(-975.428 -701.29)" fill="#422c9b"/>
        <path id="Trazado_42671" data-name="Trazado 42671" d="M1032.576,818.774l.261-.292s1.724,1.54,2.672,10.888l-.9-1.134s-.552-7.375-2.141-9.273Z" transform="translate(-996.315 -707.731)" fill="#2bbee0"/>
        <path id="Trazado_42672" data-name="Trazado 42672" d="M1002,813.214s8.391,1.2,10.208-2.455a4.96,4.96,0,0,0-4.983-2.843C1003.252,808.377,1001.58,809.816,1002,813.214Z" transform="translate(-975.404 -700.468)" fill="#6d31fd"/>
        <path id="Trazado_42673" data-name="Trazado 42673" d="M1018.74,819.409s1.666,2.234,2.31,9.889l-6.219.855-2.565-8.772S1016.591,821.354,1018.74,819.409Z" transform="translate(-982.479 -708.366)" fill="#fccc05"/>
        <path id="Trazado_42674" data-name="Trazado 42674" d="M1007.571,822.614l-.5.823a23.648,23.648,0,0,1,2.631,9.487l1.451-.985-1.036-4.962S1009.56,822.6,1007.571,822.614Z" transform="translate(-978.918 -710.561)" fill="#2bbee0"/>
        <path id="Trazado_42675" data-name="Trazado 42675" d="M1009.587,820.009l-.923.821s2.857,5.373,2.939,10.03l2.931-1.423-1.646-7.132A2.545,2.545,0,0,1,1009.587,820.009Z" transform="translate(-980.011 -708.777)" fill="#fccc05"/>
        <path id="Trazado_42676" data-name="Trazado 42676" d="M1010.19,813.585l-1.526,2.6a4.825,4.825,0,0,0,3.579,1.909c2.389.133,4.029-2.918,4.029-2.918l-2.038-1.945Z" transform="translate(-980.011 -704.136)" fill="#dbb100"/>
        <g id="Grupo_40090" data-name="Grupo 40090" transform="translate(29.15 101.027)">
          <path id="Trazado_42677" data-name="Trazado 42677" d="M1010.965,787.614s-.117,5.2-.721,10.964c0,0,3.066,2.47,6.317.565a78.255,78.255,0,0,0,.755-11.529Z" transform="translate(-1010.244 -787.614)" fill="#edb477"/>
          <path id="Trazado_42678" data-name="Trazado 42678" d="M1016.561,811s.4-2.874.63-6.077a6.945,6.945,0,0,1-6.488.042c-.107,1.639-.255,3.522-.459,5.47C1010.244,810.431,1013.31,812.9,1016.561,811Z" transform="translate(-1010.244 -799.468)" fill="#eaf6f9"/>
          <path id="Trazado_42679" data-name="Trazado 42679" d="M1011.572,802.785s3.828,1.636,6.495-.1l-.142,1.888a7.592,7.592,0,0,1-6.472,0Z" transform="translate(-1011.071 -797.938)" fill="#e00b71"/>
          <path id="Trazado_42680" data-name="Trazado 42680" d="M1013.523,803.666l-.072,1.848q.312.116.617.2l.064-1.871C1013.9,803.782,1013.7,803.721,1013.523,803.666Z" transform="translate(-1012.441 -798.609)" fill="#f80a73"/>
          <path id="Trazado_42681" data-name="Trazado 42681" d="M1017.349,804.656l-.073,1.871q.317.06.621.09l.063-1.86C1017.748,804.728,1017.543,804.694,1017.349,804.656Z" transform="translate(-1015.061 -799.287)" fill="#f80a73"/>
          <path id="Trazado_42682" data-name="Trazado 42682" d="M1021.67,805.188l-.071,1.828c.216,0,.425-.009.625-.025l.061-1.8C1022.077,805.2,1021.872,805.2,1021.67,805.188Z" transform="translate(-1018.022 -799.652)" fill="#f80a73"/>
          <path id="Trazado_42683" data-name="Trazado 42683" d="M1026,804.71l-.069,1.771c.226-.04.437-.088.629-.138l.06-1.76A5.6,5.6,0,0,1,1026,804.71Z" transform="translate(-1020.989 -799.237)" fill="#f80a73"/>
          <path id="Trazado_42684" data-name="Trazado 42684" d="M1029.79,803.31l-.069,1.778a6.077,6.077,0,0,0,.633-.256l.062-1.831A4.6,4.6,0,0,1,1029.79,803.31Z" transform="translate(-1023.585 -798.154)" fill="#f80a73"/>
        </g>
        <path id="Trazado_42685" data-name="Trazado 42685" d="M1018.5,795.314l-6.475.149c-.025.525-.055,1.118-.093,1.762,2.868.349,4.626,4.74,5.43,7.382.118-.059.237-.121.356-.191C1017.715,804.417,1018.4,799.465,1018.5,795.314Z" transform="translate(-982.248 -691.861)" fill="#bcb5b1" opacity="0.2" style="mix-blend-mode: multiply;isolation: isolate"/>
        <path id="Trazado_42686" data-name="Trazado 42686" d="M1019.725,675.557s11.335,4.272,13.39,10.4c1.956,5.831,2.053,21.817-.531,23.283l.1.291c.255.733-.048,1.1-.774,1.376a15.706,15.706,0,0,1-7.647.733c-.547-.08-.912-.11-.828-.656l.1-.636s-1.749-.245-1.435-3.842c.2-2.3,1.117-12.955-1.641-16.761-3.312-4.57-9.882-2.893-9.882-2.893l-4.029-8.82Z" transform="translate(-978.561 -609.83)" fill="#422c9b"/>
        <path id="Trazado_42687" data-name="Trazado 42687" d="M1013.119,685.082l-4.014,1.243,1.738,3.8,3.366,2.983c2.2-.15,5.811.14,8,3.162a12.191,12.191,0,0,1,1.681,5.419h0C1027.129,690.231,1013.119,685.082,1013.119,685.082Z" transform="translate(-980.313 -616.354)" fill="#422c9b" opacity="0.3" style="mix-blend-mode: multiply;isolation: isolate"/>
        <path id="Trazado_42688" data-name="Trazado 42688" d="M956.972,685.332c-.342,1.675-1.717,9.972,4.282,11.332l.038.007c.42.064,8.265,1.289,9.35,3.94,1.415,3.456-1,16.4.782,17.544a.444.444,0,0,1,.186.379h0a1.46,1.46,0,0,0,1.27,1.45,23.9,23.9,0,0,0,7.965-.259.423.423,0,0,0,.326-.443l-.043-.612a.421.421,0,0,1,.205-.392,4.081,4.081,0,0,0,2.076-3.071c.145-2.165,2.309-18.3-2.719-23.6a54.55,54.55,0,0,1-6.794-8.448.422.422,0,0,0-.413-.2L957.332,685A.419.419,0,0,0,956.972,685.332Z" transform="translate(-944.344 -614.895)" fill="#422c9b"/>
        <path id="Trazado_42689" data-name="Trazado 42689" d="M982.484,730.542l-.325-2.594c-.752-1.525-.562-5.667-.465-9.468a42.058,42.058,0,0,0-.232-7.995c-.65-3.037-4.69-4.178-7.64-5.011-.886-.25-1.652-.466-2.254-.707-2.854-1.138-1.729-6.089-1.679-6.3l.051-.217h1.781l-.051.325c0,.028-.434,2.841.544,3.988a10.892,10.892,0,0,0,3.03,1.4c2.926,1.1,6.568,2.46,7.478,4.762s.827,5.19.736,8.241c-.043,1.436-.088,2.921-.016,4.326.2,4,.577,6.587.581,6.613l.191,2.755Z" transform="translate(-953.273 -625.375)" fill="#6d31fd"/>
        <path id="Trazado_42690" data-name="Trazado 42690" d="M970.782,699.144s-1.152,4.913,1.51,5.975,9.185,1.809,10.065,5.919-.581,14.308.8,17.46l1.2.061s-.378-2.576-.584-6.64c-.217-4.3.631-9.114-.7-12.477-1.337-3.38-9.387-4.823-10.461-6.084s-.607-4.215-.607-4.215Z" transform="translate(-953.893 -625.986)" fill="#f80a73"/>
        <path id="Trazado_42691" data-name="Trazado 42691" d="M1011.136,791.08l-.523.392s.118,1.453.261,2.678l1.164.081-.221-2.7Z" transform="translate(-981.346 -688.961)" fill="#f80a73"/>
        <path id="Trazado_42692" data-name="Trazado 42692" d="M1056.849,508.258s-2.7-3.313.209-9.232c0,0,4.985.052,7.752,2.907a1.738,1.738,0,0,1,.131,1.571c-.288,1.1-2.279,5.212-2.279,5.212Z" transform="translate(-1012.237 -488.909)" fill="#edb477"/>
        <path id="Trazado_42693" data-name="Trazado 42693" d="M1060.261,483.6l-.27-.864a22.057,22.057,0,0,1,1.624-5.683c1.178-2.409,2.488-1.781,2.776-1.6s.34,1.178-.209,2.907-1.493,5.683-1.493,5.683Z" transform="translate(-1015.169 -472.619)" fill="#edb477"/>
        <path id="Trazado_42694" data-name="Trazado 42694" d="M1070.134,487.845s2.069-7.2,3.483-7.28,1.1,1.912,1.1,1.912a1.018,1.018,0,0,1,1.283-.288c.733.419-.775,5.081-2.037,7.15Z" transform="translate(-1022.117 -476.262)" fill="#edb477"/>
        <path id="Trazado_42695" data-name="Trazado 42695" d="M1081.037,502.743s4.309-2.3,4.106-3.924-1.419-1.014-1.8-.786-2.966,2.433-2.966,2.433A1.775,1.775,0,0,0,1081.037,502.743Z" transform="translate(-1029.015 -488.022)" fill="#edb477"/>
        <path id="Trazado_42696" data-name="Trazado 42696" d="M1060.195,500.91l.594-.586s1.279.468,1.148,1.608a3.622,3.622,0,0,1-1.414,2.056s1.99.042,2.01,1.913l-4.079-.46Z" transform="translate(-1014.116 -489.798)" fill="#dba06a"/>
        <path id="Trazado_42697" data-name="Trazado 42697" d="M1057.182,507.622s1.711-3.876-2.584-4.007c0,0,2.962-2.2,1.573-3.457s-3.144-.209-4.4,1.65-1.021,5.552,1.885,6.848Z" transform="translate(-1009.043 -489.308)" fill="#edb477"/>
        <path id="Trazado_42698" data-name="Trazado 42698" d="M1070.716,503.557s3.038.34,4.164,2.265A16.718,16.718,0,0,0,1070.716,503.557Z" transform="translate(-1022.516 -492.013)" fill="#dba06a"/>
        <path id="Trazado_42699" data-name="Trazado 42699" d="M1076.736,513.957a1.9,1.9,0,0,0-2.112,2.206A3.858,3.858,0,0,1,1076.736,513.957Z" transform="translate(-1025.19 -499.133)" fill="#dba06a"/>
        <path id="Trazado_42700" data-name="Trazado 42700" d="M1080.453,487.886,1079.2,492A9,9,0,0,0,1080.453,487.886Z" transform="translate(-1028.325 -481.278)" fill="#dba06a"/>
        <path id="Trazado_42701" data-name="Trazado 42701" d="M937.089,477.814a6.222,6.222,0,0,1,4.066-7.965c5.038-1.969,6.615.075,6.615.075s.764-3.013,4.673-3.014a5.012,5.012,0,0,1,4.74,3.014,6.729,6.729,0,0,1,8.609,1.212c4.1,4.246,2.362,7.41,2.362,7.41s2.326-.116,2.636,3.19a4.114,4.114,0,0,1-2.232,4.351s1.57,6.191-4.185,6.988c0,0,1.663,3.913-1.563,5.955a5.884,5.884,0,0,1-7.806-.887l-1.633.623-3.258,2.151s-10.4,2.341-9.8-6.223c0,0-6.363,1.076-7.552-6.544S937.089,477.814,937.089,477.814Z" transform="translate(-927.905 -466.91)" fill="#f80a73"/>
        <path id="Trazado_42702" data-name="Trazado 42702" d="M975.886,566.4s7.523-3.133,14.639-.429l-.161,2.188s-12.592.735-12.837.521S975.886,566.4,975.886,566.4Z" transform="translate(-957.559 -534.015)" fill="#725d03"/>
        <path id="Trazado_42703" data-name="Trazado 42703" d="M971.452,571.445s7.373-2.724,14.084-1.31c0,0-1.041,4.452-4.079,5.238S971.452,571.445,971.452,571.445Z" transform="translate(-954.522 -537.339)" fill="#edb477"/>
        <path id="Trazado_42704" data-name="Trazado 42704" d="M968.408,571.406l-.787-.862a34.439,34.439,0,0,0-7.031,2.291l11.384,7.37,6.805-.7,2.676-8.52-3.929-.908s.2,4.107-3.457,4.725C968.76,575.7,968.408,571.406,968.408,571.406Z" transform="translate(-947.081 -537.579)" fill="#c9ebf5"/>
        <path id="Trazado_42705" data-name="Trazado 42705" d="M971.3,573.075q1.145.1,2.358.243s5.531,8.485,5.688,16.656-.314,11.157.262,12.257.943,3.195,0,4.138c0,0-15.19,5.919-22.889,5.762s-8.59-.314-8.59-.314,6.949-27.5-1.781-33.731c0,0,1.948-3.059,9.365-4.542,0,0,3.712,5.782,8.88,7.318a24.513,24.513,0,0,0,4.978-4.41C971.349,574.151,971.3,573.075,971.3,573.075Z" transform="translate(-937.325 -539.631)" fill="#fccc05"/>
        <path id="Trazado_42706" data-name="Trazado 42706" d="M946.922,606.572l2.652-2.181s4.267,5.52,2.868,16.107c0,0-.885,5.638,7.627,3.856l-9.595,3.9-4.128-1.706Z" transform="translate(-937.325 -561.082)" fill="#dbb100" opacity="0.2" style="mix-blend-mode: multiply;isolation: isolate"/>
        <path id="Trazado_42707" data-name="Trazado 42707" d="M976.3,658.147s.314,6.233-2.357,9.533l1.676.367a18.478,18.478,0,0,0,2.252-9.9Z" transform="translate(-956.23 -597.904)" fill="#dbb100"/>
        <path id="Trazado_42708" data-name="Trazado 42708" d="M1008.776,564.419s-.083,1.482-1.933,4.036a12.487,12.487,0,0,1-3.483,3.343l.079,2.507c4.119-1.987,7.137-5.348,7.818-7.237a3.162,3.162,0,0,0-.3-3.283,7.575,7.575,0,0,0-1.871-1.531s-1.421-1.086-5.2-1.1l-.031,1.536S1007.961,563,1008.776,564.419Z" transform="translate(-976.378 -531.468)" fill="#dbb100"/>
        <g id="Grupo_40091" data-name="Grupo 40091" transform="translate(32.177 20.03)">
          <circle id="Elipse_756" data-name="Elipse 756" cx="1.736" cy="1.736" r="1.736" transform="translate(0 0)" fill="#dd9f66"/>
          <path id="Trazado_42709" data-name="Trazado 42709" d="M1025.372,534.017a.6.6,0,0,0-.767.484c-.125.65.356.783.578.756a.272.272,0,0,0,.087-.487c-.194-.1-.349.11-.349.11A.669.669,0,0,1,1025.372,534.017Z" transform="translate(-1023.093 -532.894)" fill="#cc8652"/>
          <path id="Trazado_42710" data-name="Trazado 42710" d="M1023.093,530.493a1.734,1.734,0,0,1,1.626,1.135,2.892,2.892,0,0,0-2.225,1.555l-.445-2.338A1.724,1.724,0,0,1,1023.093,530.493Z" transform="translate(-1021.358 -530.493)" fill="#db9b63" opacity="0.29" style="mix-blend-mode: multiply;isolation: isolate"/>
        </g>
        <g id="Grupo_40092" data-name="Grupo 40092" transform="translate(16.042 21.234)">
          <circle id="Elipse_757" data-name="Elipse 757" cx="1.736" cy="1.736" r="1.736" transform="translate(0 0)" fill="#dd9f66"/>
          <path id="Trazado_42711" data-name="Trazado 42711" d="M972.389,537.841a.6.6,0,0,1,.767.484c.125.65-.356.783-.577.756a.272.272,0,0,1-.087-.487c.194-.1.349.11.349.11A.669.669,0,0,0,972.389,537.841Z" transform="translate(-971.196 -536.718)" fill="#cc8652"/>
          <path id="Trazado_42712" data-name="Trazado 42712" d="M970.605,534.317a1.735,1.735,0,0,0-1.626,1.135,2.891,2.891,0,0,1,2.225,1.555l.445-2.339A1.726,1.726,0,0,0,970.605,534.317Z" transform="translate(-968.87 -534.317)" fill="#db9b63" opacity="0.29" style="mix-blend-mode: multiply;isolation: isolate"/>
        </g>
        <path id="Trazado_42713" data-name="Trazado 42713" d="M995.053,558.421,995,552.473l-5.983.058-.081,6.2,2.783,1.392a.344.344,0,0,0,.366.017S994.858,558.573,995.053,558.421Z" transform="translate(-966.495 -525.519)" fill="#edb477"/>
        <path id="Trazado_42714" data-name="Trazado 42714" d="M989,553.322l5.984-1.688.063,4.23-6.105,1.949Z" transform="translate(-966.502 -524.945)" fill="#db9b63"/>
        <circle id="Elipse_758" data-name="Elipse 758" cx="8.399" cy="8.399" r="8.399" transform="translate(17.775 13.353)" fill="#edb477"/>
        <path id="Trazado_42715" data-name="Trazado 42715" d="M973.254,516.808a2.624,2.624,0,0,0,3.181-1.589,4.646,4.646,0,0,0,5.775-.773s3.1,2.465,5.325-.17a2.914,2.914,0,0,0,2.5,2.03,10.159,10.159,0,0,0-.255-2.371c-.227-1.206-.091-7.77-9.379-6.668C972.467,508.214,972.222,512.979,973.254,516.808Z" transform="translate(-955.458 -494.47)" fill="#db9b63" opacity="0.19" style="mix-blend-mode: multiply;isolation: isolate"/>
        <path id="Trazado_42716" data-name="Trazado 42716" d="M984.993,541.553" transform="translate(-963.797 -518.039)" fill="none"/>
        <g id="Grupo_40093" data-name="Grupo 40093" transform="translate(31.633 21.932)">
          <circle id="Elipse_759" data-name="Elipse 759" cx="0.222" cy="0.222" r="0.222" fill="#f80a73"/>
          <circle id="Elipse_760" data-name="Elipse 760" cx="0.222" cy="0.222" r="0.222" transform="translate(0.916)" fill="#f80a73"/>
          <circle id="Elipse_761" data-name="Elipse 761" cx="0.222" cy="0.222" r="0.222" transform="translate(0.443 0.51)" fill="#f80a73"/>
        </g>
        <g id="Grupo_40094" data-name="Grupo 40094" transform="translate(21.828 22.535)">
          <circle id="Elipse_762" data-name="Elipse 762" cx="0.222" cy="0.222" r="0.222" fill="#f80a73"/>
          <circle id="Elipse_763" data-name="Elipse 763" cx="0.222" cy="0.222" r="0.222" transform="translate(0.916)" fill="#f80a73"/>
          <circle id="Elipse_764" data-name="Elipse 764" cx="0.222" cy="0.222" r="0.222" transform="translate(0.443 0.51)" fill="#f80a73"/>
        </g>
        <path id="Trazado_42717" data-name="Trazado 42717" d="M983.871,568.925s0,4.6,4.232,4.594,4.105-4.334,3.992-5.151l1.113.208s.837,5.611-4.579,6.032-5.911-5.508-5.911-5.508Z" transform="translate(-962.238 -536.406)" fill="#2bbee0"/>
        <g id="Grupo_40095" data-name="Grupo 40095" transform="translate(20.918 32.116)">
          <path id="Trazado_42718" data-name="Trazado 42718" d="M994.163,568.912l-.282-.053c.048,1.536-.27,5.1-4.6,5.441a5.275,5.275,0,0,1-5.17-3.019,5.068,5.068,0,0,0,5.472,3.663C995,574.523,994.163,568.912,994.163,568.912Z" transform="translate(-984.112 -568.859)" fill="#1eaac1"/>
        </g>
        <path id="Trazado_42719" data-name="Trazado 42719" d="M970.041,565.13a12.9,12.9,0,0,0,4.773,5.408,25.651,25.651,0,0,0,3.723,2.145l-.9,2.033c-4.256-1.676-8.926-5.063-10.911-6.391-1.913-1.28-.584-3.421-.584-3.421a7.564,7.564,0,0,1,1.752-1.666s1.393-1.189,5.161-1.479l-.023,1.687S970.7,563.934,970.041,565.13Z" transform="translate(-950.579 -531.879)" fill="#dbb100"/>
        <path id="Trazado_42720" data-name="Trazado 42720" d="M970.041,565.13a12.9,12.9,0,0,0,4.773,5.408,25.651,25.651,0,0,0,3.723,2.145l-.9,2.033c-4.256-1.676-8.926-5.063-10.911-6.391-1.913-1.28-.584-3.421-.584-3.421a7.564,7.564,0,0,1,1.752-1.666s1.393-1.189,5.161-1.479l-.023,1.687S970.7,563.934,970.041,565.13Z" transform="translate(-950.579 -531.879)" fill="#fff" opacity="0.4" style="mix-blend-mode: multiply;isolation: isolate"/>
        <g id="Grupo_40096" data-name="Grupo 40096" transform="translate(23.272 23.796)">
          <path id="Trazado_42721" data-name="Trazado 42721" d="M992.289,542.674l6.376-.225a.731.731,0,0,1,.751.82c-.142,1.165-.843,3.131-3.939,3.238a3.508,3.508,0,0,1-3.876-2.95A.73.73,0,0,1,992.289,542.674Z" transform="translate(-991.584 -542.448)" fill="#062625"/>
          <path id="Trazado_42722" data-name="Trazado 42722" d="M997.868,547.185a3.919,3.919,0,0,0-3.292,1.493,3.611,3.611,0,0,0,2.95,1.072,3.919,3.919,0,0,0,3.292-1.493A3.611,3.611,0,0,0,997.868,547.185Z" transform="translate(-993.633 -545.691)" fill="#ed1c24"/>
          <path id="Trazado_42723" data-name="Trazado 42723" d="M1000.12,547.185a4.837,4.837,0,0,0-2.256.565,5.582,5.582,0,0,1,1.547.065,3.7,3.7,0,0,1,2.521,1.424,3.211,3.211,0,0,0,1.137-.983A3.611,3.611,0,0,0,1000.12,547.185Z" transform="translate(-995.886 -545.691)" fill="#fc3a49"/>
        </g>
        <path id="Trazado_42724" data-name="Trazado 42724" d="M970.516,513.354a5.364,5.364,0,0,0,2.3-3.3s3.655,2.2,6.459-.526c0,0,3.42,2.228,5.741-.6a2.459,2.459,0,0,0,2.141,2.329,4.563,4.563,0,0,0,.681-2.2c.025-1.227-1.026-7.936-10.315-6.835S967.263,511.642,970.516,513.354Z" transform="translate(-952.721 -491.015)" fill="#f80a73"/>
        <path id="Trazado_42725" data-name="Trazado 42725" d="M999.136,655.736a4.052,4.052,0,0,1,.618-2.164,2.09,2.09,0,0,1,1.122-2.853c2.016-.794,2.218-1.978,2.846-1.562s.538,2.6-.734,3.853a4.27,4.27,0,0,1-2.389,1.338A1.544,1.544,0,0,1,999.136,655.736Z" transform="translate(-973.485 -591.688)" fill="#edb477"/>
        <path id="Trazado_42726" data-name="Trazado 42726" d="M1015.338,645.4l-.987-13.439a1.041,1.041,0,0,0-1.126-.962l-8.008.673a1.042,1.042,0,0,0-.952,1.115l1,13.585a1.042,1.042,0,0,0,1.145.96l8-.82A1.042,1.042,0,0,0,1015.338,645.4Z" transform="translate(-976.997 -579.304)" fill="#85dbf0"/>
        <path id="Trazado_42727" data-name="Trazado 42727" d="M1017.622,645.228l-.987-13.439a1.042,1.042,0,0,0-1.126-.962l-8.008.673a1.042,1.042,0,0,0-.952,1.115l1,13.586a1.042,1.042,0,0,0,1.145.96l8-.82A1.042,1.042,0,0,0,1017.622,645.228Z" transform="translate(-978.561 -579.188)" fill="#2bbee0"/>
        <g id="Grupo_40102" data-name="Grupo 40102" transform="translate(32.015 56.009)">
          <g id="Grupo_40101" data-name="Grupo 40101">
            <g id="Grupo_40100" data-name="Grupo 40100">
              <g id="Grupo_40099" data-name="Grupo 40099">
                <g id="Grupo_40097" data-name="Grupo 40097" transform="translate(0.951)">
                  <path id="Trazado_42728" data-name="Trazado 42728" d="M1023.944,645.574a.6.6,0,0,1,0,.848l-.044.044s.483.374.243.736l.29-.29a1.292,1.292,0,0,0-1.828-1.827l-.044.044a.59.59,0,0,0-.033.857l.078.078.464-.464.025-.025a.6.6,0,0,1,.849,0" transform="translate(-1022.356 -644.707)" fill="#0e7992"/>
                </g>
                <g id="Grupo_40098" data-name="Grupo 40098" transform="translate(0 0.912)">
                  <path id="Trazado_42729" data-name="Trazado 42729" d="M1020.2,649.229a.6.6,0,0,1,0-.849l.044-.044s-.483-.374-.243-.735l-.29.29a1.292,1.292,0,0,0,1.827,1.827l.044-.044a.59.59,0,0,0,.033-.857l-.078-.077-.464.464-.025.025a.6.6,0,0,1-.849,0" transform="translate(-1019.337 -647.601)" fill="#0e7992"/>
                </g>
              </g>
              <path id="Trazado_42730" data-name="Trazado 42730" d="M1023.755,648.407l-.718.718a.2.2,0,0,0,.279.279l.718-.718a.2.2,0,0,0-.279-.279Z" transform="translate(-1021.832 -647.202)" fill="#0e7992"/>
            </g>
          </g>
        </g>
        <g id="Grupo_40103" data-name="Grupo 40103" transform="translate(29.003 53.114)">
          <circle id="Elipse_765" data-name="Elipse 765" cx="0.45" cy="0.45" r="0.45" fill="#85dbf0"/>
          <path id="Trazado_42731" data-name="Trazado 42731" d="M1010.883,635.517a.45.45,0,0,0-.149.026.45.45,0,0,1,0,.849.45.45,0,1,0,.149-.875Z" transform="translate(-1010.433 -635.517)" fill="#b2eff9"/>
        </g>
        <path id="Trazado_42732" data-name="Trazado 42732" d="M1016.926,656.628l2.047-2.374s2.812-.567,3.3.541-.6,2.283-.6,2.283,1.266.468,1.3,1.477a4.089,4.089,0,0,1-1.1,2.219s1.18.663,1.193,1.384-1.012.98-1.012.98.816.341.749.99c-.1.982-3.37,1.793-5.507,1.5Z" transform="translate(-985.671 -595.138)" fill="#edb477"/>
        <path id="Trazado_42733" data-name="Trazado 42733" d="M997.945,660.333a5.45,5.45,0,0,1,2.826-4.131,18.391,18.391,0,0,1,5-1.632,26.9,26.9,0,0,1,2.209,10.672s-4.168,1.629-7.154-.063l-3.173.761Z" transform="translate(-972.467 -595.454)" fill="#edb477"/>
        <path id="Trazado_42734" data-name="Trazado 42734" d="M993.028,668.2l.993-.326a.688.688,0,0,1,.651.12c.712.582,2.339,2.348,1.976,6.113a1.186,1.186,0,0,1-.775.994l-1.209.443a.691.691,0,0,1-.915-.516l-1.184-6.039A.691.691,0,0,1,993.028,668.2Z" transform="translate(-968.975 -604.541)" fill="#dbb100"/>
        <path id="Trazado_42735" data-name="Trazado 42735" d="M930.4,585.887l-1.889-2.1s-2.726,1.023-5.606,5.806-5.395,16.831-5.185,22.488,2.828,9.952,10.161,10.109,15.137-2.41,15.87-4.4-.1-7.176-2.724-7.647c0,0-7.385,1.309-9.166.314-1.612-.9-1.55-2.832-.319-8.982a16.544,16.544,0,0,0,.288-4.373A77.014,77.014,0,0,0,930.4,585.887Z" transform="translate(-917.708 -546.972)" fill="#fccc05"/>
        <path id="Trazado_42736" data-name="Trazado 42736" d="M1056.434,526.4l-.162-1.1a.733.733,0,0,1,.244-.663c.741-.643,2.892-2.033,6.783-.969a1.265,1.265,0,0,1,.9.995l.246,1.351a.737.737,0,0,1-.708.869l-6.563.149A.736.736,0,0,1,1056.434,526.4Z" transform="translate(-1012.616 -505.521)" fill="#dbb100"/>
        <path id="Trazado_42737" data-name="Trazado 42737" d="M1030.811,546.795l.749-4.134s6.238.726,6.963-2.849-.613-7.207,0-9.051,2.512-2.235,4.887-2.4,4.386.453,4.777,1.972,7.672,23.653-13.111,27.6Z" transform="translate(-995.182 -508.983)" fill="#fccc05"/>
        <path id="Trazado_42738" data-name="Trazado 42738" d="M1007.018,794.655a22.474,22.474,0,0,0,7.128.314A10.112,10.112,0,0,1,1007.018,794.655Z" transform="translate(-978.884 -691.41)" fill="#241c6b"/>
        <path id="Trazado_42739" data-name="Trazado 42739" d="M1063.654,783.62a22.48,22.48,0,0,0,7.1-.746A10.114,10.114,0,0,1,1063.654,783.62Z" transform="translate(-1017.679 -683.34)" fill="#241c6b"/>
        <path id="Trazado_42740" data-name="Trazado 42740" d="M1018.254,826.037a50.669,50.669,0,0,0-1.879-7.645,2.486,2.486,0,0,1,2.846-3.315c2,.29,2.592,3.156,2.968,4.549s.995,6.035.995,6.035S1019.88,825.329,1018.254,826.037Z" transform="translate(-985.158 -705.377)" fill="#422c9b"/>
        <path id="Trazado_42741" data-name="Trazado 42741" d="M1018.113,818.994a2.438,2.438,0,0,1,2.293-3.338,2.216,2.216,0,0,0-1.185-.579,2.486,2.486,0,0,0-2.846,3.315,50.669,50.669,0,0,1,1.879,7.645,5.684,5.684,0,0,1,1.56-.369A41.908,41.908,0,0,0,1018.113,818.994Z" transform="translate(-985.158 -705.377)" fill="#241c6b" opacity="0.5"/>
        <path id="Trazado_42742" data-name="Trazado 42742" d="M1010.94,851.588s2.236-3.939,6.126-3.969,4.151,1.342,4.151,1.342,2.216,7.656-3.134,9.1S1010.738,854.717,1010.94,851.588Z" transform="translate(-981.561 -727.689)" fill="#6d31fd"/>
        <g id="Grupo_40108" data-name="Grupo 40108" transform="translate(28.871 117.738)">
          <g id="Grupo_40107" data-name="Grupo 40107">
            <g id="Grupo_40106" data-name="Grupo 40106">
              <g id="Grupo_40104" data-name="Grupo 40104" transform="translate(0.311 0.222)">
                <path id="Trazado_42743" data-name="Trazado 42743" d="M1010.794,841.81a.169.169,0,0,1-.237.031l-.014-.011s-.087.149-.2.1l.091.07a.364.364,0,1,0,.443-.578l-.014-.011a.166.166,0,0,0-.24.022l-.019.025.147.112.008.006a.169.169,0,0,1,.031.237" transform="translate(-1010.347 -841.366)" fill="#fccc05"/>
              </g>
              <g id="Grupo_40105" data-name="Grupo 40105">
                <path id="Trazado_42744" data-name="Trazado 42744" d="M1009.588,840.922a.169.169,0,0,1,.237-.031l.014.011s.087-.149.2-.1l-.091-.07a.364.364,0,1,0-.443.578l.014.011a.166.166,0,0,0,.24-.022l.019-.025-.147-.112-.008-.006a.169.169,0,0,1-.031-.237" transform="translate(-1009.359 -840.661)" fill="#fccc05"/>
              </g>
            </g>
            <path id="Trazado_42745" data-name="Trazado 42745" d="M1010.706,841.866l-.227-.174a.056.056,0,1,0-.068.088l.227.174a.056.056,0,0,0,.068-.089Z" transform="translate(-1010.065 -841.359)" fill="#fccc05"/>
          </g>
        </g>
        <path id="Trazado_42746" data-name="Trazado 42746" d="M1036,578.828s2.924,3.6,4.181,11.84C1040.177,590.668,1040.552,583.3,1036,578.828Z" transform="translate(-998.733 -543.572)" fill="#dbb100"/>
        <path id="Trazado_42747" data-name="Trazado 42747" d="M952.8,593s2.529,3.114,3.616,10.242C956.418,603.243,956.743,596.869,952.8,593Z" transform="translate(-941.747 -553.28)" fill="#dbb100"/>
        <path id="Trazado_42748" data-name="Trazado 42748" d="M1059.17,533.727s4.515-1.309,6.983-.275A56.452,56.452,0,0,0,1059.17,533.727Z" transform="translate(-1014.607 -512.218)" fill="#dbb100"/>
        <path id="Trazado_42749" data-name="Trazado 42749" d="M991.317,670.211s2.215,4.146,1.714,6.775A56.45,56.45,0,0,0,991.317,670.211Z" transform="translate(-968.129 -606.168)" fill="#dbb100"/>
      </g>
    </g>
  </g>
</svg>
