<svg xmlns="http://www.w3.org/2000/svg" xmlns:xlink="http://www.w3.org/1999/xlink" width="176" height="176" viewBox="0 0 176 176">
  <defs>
    <linearGradient id="linear-gradient" x1="-0.071" y1="0.693" x2="0.921" y2="0.693" gradientUnits="objectBoundingBox">
      <stop offset="0" stop-color="#6d31ff"/>
      <stop offset="0.917" stop-color="#5d2af5"/>
      <stop offset="1" stop-color="#602cf8"/>
    </linearGradient>
    <linearGradient id="linear-gradient-2" x1="-298.053" y1="-194.22" x2="-296.924" y2="-194.22" gradientUnits="objectBoundingBox">
      <stop offset="0" stop-color="#4a1ed9"/>
      <stop offset="0.917" stop-color="#5d2af5"/>
      <stop offset="1" stop-color="#602cf8"/>
    </linearGradient>
    <clipPath id="clip-path">
      <path id="Trazado_38519" data-name="Trazado 38519" d="M6579.276,3709.848H6438.75a1.03,1.03,0,0,0-1.026,1.027v47.931c-14.61,16.406-23.021,43.011-13.134,71.376,21.508,61.713,105.692,58.746,126.925,40.417,0,0,20.669-15.631,19.893-40.5h7.868a1.029,1.029,0,0,0,1.026-1.026v-118.2A1.03,1.03,0,0,0,6579.276,3709.848Z" fill="none"/>
    </clipPath>
  </defs>
  <g id="Grupo_36277" data-name="Grupo 36277" transform="translate(-6420.305 -3707.257)">
    <path id="Trazado_38477" data-name="Trazado 38477" d="M6551.515,3870.6s31.018-23.455,15.634-58.618-44.693-13.16-71.834-55.029-92.234,11.517-70.725,73.23S6530.282,3888.928,6551.515,3870.6Z" fill="url(#linear-gradient)"/>
    <path id="Trazado_38478" data-name="Trazado 38478" d="M6581.817,3812.08s-6.11,1.984-10.335-6.245-3.985-8.052-9.745-11.566-3.473-11.759,5.456-14.167,19.64,6.343,20.925,14.907S6588.433,3809.912,6581.817,3812.08Z" fill="url(#linear-gradient-2)"/>
    <rect id="Rect치ngulo_4135" data-name="Rect치ngulo 4135" width="142.578" height="120.249" rx="1.026" transform="translate(6437.724 3709.848)" fill="none"/>
    <g id="Grupo_35897" data-name="Grupo 35897">
      <g id="Grupo_35896" data-name="Grupo 35896" clip-path="url(#clip-path)">
        <path id="Trazado_38479" data-name="Trazado 38479" d="M6508.737,3798.408s12.285,16.777,29.065,13.139c12.2-2.645,9.47-47.371,9.47-47.371h4.863s5.034,51.466-14.333,53.475c-19.293,2-33.532-14.792-33.532-14.792Z" fill="#bf8354"/>
        <g id="Grupo_35883" data-name="Grupo 35883">
          <g id="Grupo_35882" data-name="Grupo 35882">
            <path id="Trazado_38480" data-name="Trazado 38480" d="M6554.367,3756.35c.007-.084.163-1.257.155-1.341-.076-.8-.771-1.022-1.545-1.008l-6.344-1.108a1.435,1.435,0,0,0-.753.05,1.477,1.477,0,0,0-.953,1.407l.838,9.272a1.6,1.6,0,0,0,.349.844,1.983,1.983,0,0,0,1.914.75l3.176-.053c1.8.119,2.186-.7,2.171-1.515Z" fill="#bf8354"/>
          </g>
        </g>
        <path id="Trazado_38481" data-name="Trazado 38481" d="M6548.95,3763.15a4.262,4.262,0,0,1,3.774-2.993A7.564,7.564,0,0,0,6548.95,3763.15Z" fill="#a8704a"/>
        <g id="Grupo_35893" data-name="Grupo 35893">
          <g id="Grupo_35892" data-name="Grupo 35892">
            <g id="Grupo_35891" data-name="Grupo 35891">
              <path id="Trazado_38482" data-name="Trazado 38482" d="M6504.27,3802.859s-5.748-5.629-3.343-8.623,14.776,4.685,19.639,7.586c0,0-4.266,10.835-9.215,12.712Z" fill="#0bb5a8"/>
              <path id="Trazado_38483" data-name="Trazado 38483" d="M6488.305,3733.788c.5-.577,19.534-.7,20.984,7.87s3.09,13.748,5.989,22.317-6.347,21.19-2.165,23.767c0,0-4.27-1.457-4.393-3.6,0,0,.129,5.934-3.905,6.938a2.579,2.579,0,0,0-.557-3.338s-1.87,1.9-1.823,3.648c0,0-1.985-.567-2.411-2.127,0,0-3.368,4.46-8.578,4.113Z" fill="#3c2415"/>
              <path id="Trazado_38484" data-name="Trazado 38484" d="M6490.389,3733.788c-.5-.577-19.534-.7-20.984,7.87s-3.09,13.748-5.989,22.317,6.347,21.19,2.165,23.767c0,0,4.27-1.457,4.393-3.6,0,0-.129,5.934,3.9,6.938a2.579,2.579,0,0,1,.557-3.338s1.87,1.9,1.823,3.648c0,0,3.7.237,4.125-1.323a8.242,8.242,0,0,0,5.741,3.309Z" fill="#3c2415"/>
              <path id="Trazado_38485" data-name="Trazado 38485" d="M6500.231,3780.936s-1.6,7.772-.47,11.714c0,0-2.821,2.028-2.143-8.222S6500.231,3780.936,6500.231,3780.936Z" fill="#3c2415"/>
              <path id="Trazado_38486" data-name="Trazado 38486" d="M6478.267,3775.69s1.787,8.7.526,13.111c0,0,3.157,2.269,2.4-9.2S6478.267,3775.69,6478.267,3775.69Z" fill="#3c2415"/>
              <path id="Trazado_38487" data-name="Trazado 38487" d="M6507.358,3751.978s4.414,7.205,3.433,11.946-2.74,9.4.143,10.3c0,0-3.739,1.213-3.985-4.912s-.408-13.161-.408-13.161Z" fill="#3c2415"/>
              <path id="Trazado_38488" data-name="Trazado 38488" d="M6506.305,3753.456s1.552,11.8.345,14.3-4.42,14.634-3.116,19.091c0,0-2.665-4.39-1.576-9.08s2.826-21.235,2.191-25.794Z" fill="#3c2415"/>
              <path id="Trazado_38489" data-name="Trazado 38489" d="M6484.4,3799.705h9.843a19.54,19.54,0,0,1,.355-11.963l-10.868.358S6486.164,3795.337,6484.4,3799.705Z" fill="#d7a16d"/>
              <path id="Trazado_38490" data-name="Trazado 38490" d="M6484.677,3792a29.538,29.538,0,0,0-.952-3.9l10.868-.358a18.394,18.394,0,0,0-1.114,6.31C6490.281,3795.19,6486.8,3793.437,6484.677,3792Z" fill="#bb855a"/>
              <path id="Trazado_38491" data-name="Trazado 38491" d="M6507.108,3749.891a16.167,16.167,0,1,0-32.33.414c.005.438.033.87.072,1.3,0,3.874-.2,7,.042,11.446,0,0,.249,11.354,1.026,15.552.868,4.7,7.582,9.548,7.572,9.527a15.773,15.773,0,0,1,2.579,2.406c1.3,1.412,4.187,1.617,6.587,1.021a4.586,4.586,0,0,0,2.734-1.194,15.711,15.711,0,0,1,2.618-2.363,22.376,22.376,0,0,0,7.931-8.841c1.043-2.317,1.07-16.1,1.07-16.1a100.658,100.658,0,0,1-.085-10.5,16.533,16.533,0,0,0,.184-2.672" fill="#d7a16d"/>
              <path id="Trazado_38492" data-name="Trazado 38492" d="M6505.535,3849.317c-.852-4.025,1.166-10.287,2.9-15.308,4.607-2.117,6.305-5.129,7.292-8.955,2.349-9.1-7.383-20.466-12.02-26.587-.27-.417.1-3.4-3.422-4.049h-1.7a113.8,113.8,0,0,1-25.625,1.322c-12.815-1.009-5.632,18.405-3.676,21.179.838,1.189,3.22,5.835,5.646,10.873,0,0,6.079,12.2,5.228,15.317s-9.045,13.646-11.818,21.336-4.539,26.978,8.7,30.76,50.26-8.722,40.118-25.386C6513.411,3863.656,6509.465,3858.048,6505.535,3849.317Z" fill="#d7a16d"/>
              <g id="Grupo_35890" data-name="Grupo 35890">
                <g id="Grupo_35885" data-name="Grupo 35885">
                  <g id="Grupo_35884" data-name="Grupo 35884">
                    <path id="Trazado_38493" data-name="Trazado 38493" d="M6486.343,3763.065a2.35,2.35,0,1,1-2.379-2.424A2.4,2.4,0,0,1,6486.343,3763.065Z" fill="#2e2119"/>
                    <path id="Trazado_38494" data-name="Trazado 38494" d="M6486.125,3762.065a2.6,2.6,0,0,0-2.646-.512,3.039,3.039,0,0,1-3.1-.072,5.425,5.425,0,0,0,2.072-.55A2.5,2.5,0,0,1,6486.125,3762.065Z" fill="#2e2119"/>
                  </g>
                  <path id="Trazado_38495" data-name="Trazado 38495" d="M6484.4,3762.647a.657.657,0,0,1,0,.887c-.317.359.216.882.534.52a1.391,1.391,0,0,0,.1-1.792.387.387,0,0,0-.512-.127.376.376,0,0,0-.128.512Z" fill="#fff"/>
                </g>
                <g id="Grupo_35887" data-name="Grupo 35887">
                  <g id="Grupo_35886" data-name="Grupo 35886">
                    <path id="Trazado_38496" data-name="Trazado 38496" d="M6502.078,3762.864a2.35,2.35,0,1,1-2.378-2.425A2.4,2.4,0,0,1,6502.078,3762.864Z" fill="#2e2119"/>
                    <path id="Trazado_38497" data-name="Trazado 38497" d="M6497.573,3761.918a2.6,2.6,0,0,1,2.632-.579,3.039,3.039,0,0,0,3.092-.151,5.427,5.427,0,0,1-2.085-.5A2.5,2.5,0,0,0,6497.573,3761.918Z" fill="#2e2119"/>
                  </g>
                  <path id="Trazado_38498" data-name="Trazado 38498" d="M6500.138,3762.445a.658.658,0,0,1,0,.887c-.316.36.217.882.534.521a1.391,1.391,0,0,0,.1-1.792.385.385,0,0,0-.512-.128.374.374,0,0,0-.127.512Z" fill="#fff"/>
                </g>
                <path id="Trazado_38499" data-name="Trazado 38499" d="M6484.338,3772.228a3.029,3.029,0,1,1-3.068-2.99A3.029,3.029,0,0,1,6484.338,3772.228Z" fill="#d25a2c" opacity="0.37"/>
                <path id="Trazado_38500" data-name="Trazado 38500" d="M6497.439,3772.06a3.029,3.029,0,1,0,2.99-3.067A3.029,3.029,0,0,0,6497.439,3772.06Z" fill="#d25a2c" opacity="0.37"/>
                <g id="Grupo_35889" data-name="Grupo 35889">
                  <g id="Grupo_35888" data-name="Grupo 35888">
                    <path id="Trazado_38501" data-name="Trazado 38501" d="M6486.6,3778.461s-.6-1.461.55-1.089C6487.145,3777.372,6486.333,3777.321,6486.6,3778.461Z" fill="#3d3d3d"/>
                  </g>
                  <path id="Trazado_38502" data-name="Trazado 38502" d="M6492,3779.881a7.369,7.369,0,0,0,3.954-1.131,3.448,3.448,0,0,1-4.1,2.951c-3.732-.4-3.707-2.99-3.707-2.99" fill="#e52c61" opacity="0.5"/>
                  <path id="Trazado_38503" data-name="Trazado 38503" d="M6495.943,3778.934l.232-.261a2.914,2.914,0,0,0-2.265-1.588s-.359-.126-.937.448l-.185.185s-.468-.647-1-.642a5.081,5.081,0,0,0-3.607,1.74,13.046,13.046,0,0,0,5.808.836A3.675,3.675,0,0,0,6495.943,3778.934Z" fill="#e52c61" opacity="0.5"/>
                  <path id="Trazado_38504" data-name="Trazado 38504" d="M6496.382,3778.4a6.3,6.3,0,0,1-4.082,1.218,9.7,9.7,0,0,1-5.791-2.058s1.437,2.007,5.651,2.4C6492.16,3779.965,6495.574,3780.2,6496.382,3778.4Z" fill="#4a4949"/>
                </g>
                <path id="Trazado_38505" data-name="Trazado 38505" d="M6486.033,3758.67s-3.243-.538-3.934-.168a17.7,17.7,0,0,1-2.822,1.275s1.58-2.322,2.876-2.581a11.415,11.415,0,0,1,4.573.169C6487.339,3757.692,6487.006,3758.809,6486.033,3758.67Z" fill="#3c2415"/>
                <path id="Trazado_38506" data-name="Trazado 38506" d="M6497.646,3758.4s3.251-.486,3.937-.106a17.649,17.649,0,0,0,2.8,1.319s-1.542-2.346-2.834-2.626a11.4,11.4,0,0,0-4.575.1C6496.355,3757.4,6496.671,3758.523,6497.646,3758.4Z" fill="#3c2415"/>
              </g>
              <path id="Trazado_38507" data-name="Trazado 38507" d="M6477.213,3739.161s7.748,16.676,27.239,17.029c0,0-13.059-5.357-16.913-9.527,0,0,18.5,10.815,29.044,10.448,0,0-.731-2.09-2.21-8.293-1.45-6.08-4.047-15.786-22.326-19.136C6471.533,3725.921,6477.213,3739.161,6477.213,3739.161Z" fill="#3c2415"/>
              <path id="Trazado_38508" data-name="Trazado 38508" d="M6483.725,3744.434s-4.512,9.751-7.109,13.511-1.135,8.046,1.663,9.307c0,0-7.767,1.487-10.816-5.772-3.513-8.364-2.8-26.031,10.816-28.629S6483.725,3744.434,6483.725,3744.434Z" fill="#3c2415"/>
              <path id="Trazado_38509" data-name="Trazado 38509" d="M6483.725,3744.434a13.121,13.121,0,0,0-4.448-10.085S6481.456,3736.87,6483.725,3744.434Z" fill="#2d1a10"/>
              <path id="Trazado_38510" data-name="Trazado 38510" d="M6467.316,3742.278a23.721,23.721,0,0,0-4.208,14.966c.643,8.664,2.9,9.46-.183,13.481,0,0,3.558,1.77,3.844-4.981s-.653-13.53-.65-15.38A80.772,80.772,0,0,1,6467.316,3742.278Z" fill="#3c2415"/>
              <path id="Trazado_38511" data-name="Trazado 38511" d="M6497.573,3794.418a23.385,23.385,0,0,1,0,19.475s-14.362-6.107-19.972-17.925c0,0-9.78-1.741-11.929,1.379s-.41,13.974,3.525,21.652c3.027,5.908,9.833,20.044,9.833,22.03s-7.564,14.938-9.172,17.68c0,0,30.04,6.43,42.583,0,0,0-6.37-5.873-6.465-10.967s2.742-12.954,2.742-12.954,12.19-4.607,7.278-17.68c-4.442-11.819-13.462-22.69-13.462-22.69S6501.083,3792.907,6497.573,3794.418Z" fill="#10c6bd"/>
              <path id="Trazado_38512" data-name="Trazado 38512" d="M6488.142,3836.459c-4.66.126-5.3-3.278-5.3-3.278a65.713,65.713,0,0,1,17.625-1.513c10.565.378,15.137-2.774,15.138-2.775a15.179,15.179,0,0,1-6.888,5.9s-2.836,7.859-2.742,12.954,6.465,10.967,6.465,10.967a22.236,22.236,0,0,1-5.319,1.819c-5.128-2.759-9.733-8.308-9.609-13.48C6497.686,3839.862,6492.8,3836.333,6488.142,3836.459Z" fill="#0bb5a8"/>
            </g>
          </g>
          <path id="Trazado_38513" data-name="Trazado 38513" d="M6466.7,3813.68l7.9,16.417s-.621-7.26,4.1-7.6,15.274.591,15.274.591-22.441-17.825-25.171-17.882S6466.7,3813.68,6466.7,3813.68Z" fill="#0bb5a8" opacity="0.47"/>
          <path id="Trazado_38514" data-name="Trazado 38514" d="M6467.316,3866.748s23.193,5.8,48.29-.683c0,0,6.817,8.7,5.377,22.865,0,0-26.879,17.234-47.6,10.238S6467.316,3866.748,6467.316,3866.748Z" fill="#3f3f4f"/>
        </g>
        <path id="Trazado_38515" data-name="Trazado 38515" d="M6476.515,3809.035s22.717,15.516,36.084,6.745,15.29-36.363,15.29-36.363l6.017,1.982s-6.04,45.265-29.147,43.843c-20.6-1.268-29.975-9.756-29.975-9.756Z" fill="#d7a16d"/>
        <path id="Trazado_38516" data-name="Trazado 38516" d="M6473.3,3799.133l-7.028-2.357s-7.373,5.468-2.352,14.828c4.408,8.219,17.989,8.757,17.989,8.757s1.645,1.645,2.687-11.715Z" fill="#10c6bd"/>
        <path id="Trazado_38517" data-name="Trazado 38517" d="M6527.776,3781.908l-.559.118a.662.662,0,0,1-.783-.51l-1.235-4.258a.663.663,0,0,1,.51-.783l1.207-.254a.663.663,0,0,1,.782.51l.589,4.4A.663.663,0,0,1,6527.776,3781.908Z" fill="#bf8354"/>
        <g id="Grupo_35895" data-name="Grupo 35895">
          <g id="Grupo_35894" data-name="Grupo 35894">
            <path id="Trazado_38518" data-name="Trazado 38518" d="M6536.555,3776.255c.023-.081.4-1.2.4-1.288.075-.8-.568-1.148-1.331-1.279l-6.026-2.27a1.437,1.437,0,0,0-.749-.092,1.477,1.477,0,0,0-1.2,1.205l-.9,9.266a1.6,1.6,0,0,0,.185.894,1.981,1.981,0,0,0,1.741,1.094l3.131.54c1.742.452,2.277-.28,2.415-1.084Z" fill="#d7a16d"/>
          </g>
        </g>
      </g>
    </g>
    <g id="Grupo_35898" data-name="Grupo 35898">
      <path id="Trazado_38520" data-name="Trazado 38520" d="M6535.667,3722.023s15.219,1.263,35.523,2.476c0,0,5.942.276,5.4,5.048-.511,4.513-2.881,27.01-2.881,27.01s.017,5.138-6.317,4.644c-5.893-.459-34.542-3.192-34.542-3.192a5.64,5.64,0,0,1-4.705-6.149c.268-5.906,1.728-23.39,1.728-23.39S6530.141,3722.158,6535.667,3722.023Z" fill="#f7c23e"/>
      <path id="Trazado_38521" data-name="Trazado 38521" d="M6552.755,3740.857l-24.448,12.968s.849,3.531,4.178,4.107,35.5,3.3,35.5,3.3,5.156.7,5.723-4.675Z" fill="#e5a81f" opacity="0.31"/>
      <path id="Trazado_38522" data-name="Trazado 38522" d="M6529.933,3727.9l20.462,16.832s2.2,1.879,4.409.34,21.816-16.353,21.816-16.353-.013-3.608-4.775-4.186-36.178-2.506-36.178-2.506a4.785,4.785,0,0,0-4.684,2.734A8.675,8.675,0,0,0,6529.933,3727.9Z" fill="#e5a81f"/>
    </g>
    <g id="Grupo_35899" data-name="Grupo 35899">
      <path id="Trazado_38523" data-name="Trazado 38523" d="M6527.29,3731.332s-11.826-13.082-9.97-13.59S6527.29,3731.332,6527.29,3731.332Z" fill="#ee9321"/>
      <path id="Trazado_38524" data-name="Trazado 38524" d="M6526.318,3732.725s-17.612.91-16.833-.849S6526.318,3732.725,6526.318,3732.725Z" fill="#ee9321"/>
      <path id="Trazado_38525" data-name="Trazado 38525" d="M6525.719,3731.244s-8.537-4.326-9.383-3.837S6520.816,3730.2,6525.719,3731.244Z" fill="#ee9321"/>
    </g>
    <g id="Grupo_35900" data-name="Grupo 35900">
      <path id="Trazado_38526" data-name="Trazado 38526" d="M6578.475,3736.464s11.826-13.083,9.97-13.59S6578.475,3736.464,6578.475,3736.464Z" fill="#ee9321"/>
      <path id="Trazado_38527" data-name="Trazado 38527" d="M6579.447,3737.856s17.611.91,16.833-.849S6579.447,3737.856,6579.447,3737.856Z" fill="#ee9321"/>
      <path id="Trazado_38528" data-name="Trazado 38528" d="M6580.046,3736.375s8.537-4.326,9.382-3.837S6584.948,3735.329,6580.046,3736.375Z" fill="#ee9321"/>
    </g>
    <path id="Trazado_38529" data-name="Trazado 38529" d="M6546.965,3763.072l-.535.2a.662.662,0,0,1-.851-.385l-1.872-4.019a.662.662,0,0,1,.384-.851l1.153-.436a.664.664,0,0,1,.852.385l1.254,4.252A.664.664,0,0,1,6546.965,3763.072Z" fill="#a8704a"/>
    <rect id="Rect치ngulo_4136" data-name="Rect치ngulo 4136" width="176" height="176" transform="translate(6420.305 3707.257)" fill="none"/>
  </g>
</svg>
