<svg xmlns="http://www.w3.org/2000/svg" xmlns:xlink="http://www.w3.org/1999/xlink" width="176" height="176" viewBox="0 0 176 176">
  <defs>
    <clipPath id="clip-path">
      <path id="Trazado_41008" data-name="Trazado 41008" d="M457.02,188.8H321.57a1,1,0,0,0-1,1v46.583c-15.382,16.268-24.573,43.575-14.4,72.75,21.509,61.713,105.693,58.746,126.926,40.417,0,0,27.149-20.533,18.046-51.975h5.883a1,1,0,0,0,1-1V189.8A1,1,0,0,0,457.02,188.8Z" fill="none"/>
    </clipPath>
    <clipPath id="clip-path-2">
      <path id="Trazado_41258" data-name="Trazado 41258" d="M432.771,240.152l-3.605-3.412,1.236-21.9H406.013c-4.957-4.682-9.232-8.712-11.47-10.807-7.814-7.316-14.662-1.5-14.662-1.5l-16.064,12.3H337.726l3.219,17.518h0l-2.159,1.653a6.11,6.11,0,0,0-2.363,4.252l-.421,4.31-.29,2.972a6.1,6.1,0,0,0,3.566,6.158l42.857,19.321a6.1,6.1,0,0,0,4.1.326l42.9-11.631a6.1,6.1,0,0,0,4.469-5.218l1.027-9.252A6.1,6.1,0,0,0,432.771,240.152Z" fill="none"/>
    </clipPath>
    <clipPath id="clip-path-3">
      <circle id="Elipse_724" data-name="Elipse 724" cx="5.017" cy="5.017" r="5.017" transform="translate(357.331 229.666)" fill="none"/>
    </clipPath>
    <clipPath id="clip-path-4">
      <circle id="Elipse_730" data-name="Elipse 730" cx="5.017" cy="5.017" r="5.017" transform="translate(356.873 243.416)" fill="none"/>
    </clipPath>
    <clipPath id="clip-path-5">
      <circle id="Elipse_754" data-name="Elipse 754" cx="5.017" cy="5.017" r="5.017" transform="translate(356.416 257.166)" fill="none"/>
    </clipPath>
  </defs>
  <g id="Grupo_37083" data-name="Grupo 37083" transform="translate(-301.881 -186.206)">
    <g id="Grupo_37090" data-name="Grupo 37090">
      <g id="Grupo_37089" data-name="Grupo 37089" clip-path="url(#clip-path)">
        <g id="Grupo_37081" data-name="Grupo 37081">
          <path id="Trazado_40994" data-name="Trazado 40994" d="M433.091,349.548s31.017-23.455,15.634-58.618-44.693-13.159-71.834-55.029-92.235,11.518-70.726,73.231S411.858,367.877,433.091,349.548Z" fill="#6d31ff"/>
        </g>
        <rect id="Rectángulo_4490" data-name="Rectángulo 4490" width="142.578" height="120.249" rx="1.026" transform="translate(300.229 222.541)" fill="none"/>
        <g id="Grupo_37084" data-name="Grupo 37084">
          <path id="Trazado_40995" data-name="Trazado 40995" d="M263.261,348.557s9.793,35.4,39.79,39.9c21.81,3.266,45.293-72.328,45.293-72.328l8.033,3.044s-23.9,88.17-57.146,79.367c-33.123-8.769-46.135-45.422-46.135-45.422Z" fill="#bf8354"/>
          <g id="Grupo_37083-2" data-name="Grupo 37083">
            <g id="Grupo_37082" data-name="Grupo 37082">
              <path id="Trazado_40996" data-name="Trazado 40996" d="M364.962,307.636c.064-.133,1.057-1.974,1.1-2.117.378-1.378-.635-2.171-1.922-2.634l-9.787-5.8a2.529,2.529,0,0,0-1.275-.389,2.606,2.606,0,0,0-2.454,1.728L346.2,314.266a2.831,2.831,0,0,0,.048,1.613,3.5,3.5,0,0,0,2.692,2.437l5.281,1.9c2.893,1.321,4.048.213,4.535-1.144Z" fill="#bf8354"/>
            </g>
          </g>
          <path id="Trazado_40997" data-name="Trazado 40997" d="M351.758,315.479a7.528,7.528,0,0,1,8.107-2.581S354.945,312.74,351.758,315.479Z" fill="#a8704a"/>
        </g>
        <g id="Grupo_37085" data-name="Grupo 37085">
          <path id="Trazado_40998" data-name="Trazado 40998" d="M347.509,236.3s32.114,2.664,74.957,5.225c0,0,12.538.581,11.4,10.65-1.08,9.523-6.08,56.993-6.08,56.993s.036,10.842-13.328,9.8c-12.436-.969-72.886-6.735-72.886-6.735s-10.452-1.471-9.928-12.976c.566-12.462,3.646-49.354,3.646-49.354S335.85,236.589,347.509,236.3Z" fill="#f7c23e"/>
          <path id="Trazado_40999" data-name="Trazado 40999" d="M383.567,276.045,331.98,303.409s1.791,7.45,8.815,8.666,74.912,6.963,74.912,6.963,10.878,1.47,12.075-9.865Z" fill="#e5a81f" opacity="0.31"/>
          <path id="Trazado_41000" data-name="Trazado 41000" d="M394.543,204.038c-7.814-7.316-14.662-1.5-14.662-1.5l-41.1,31.476a6.106,6.106,0,0,0-2.363,4.251l-.421,4.31h0l-.29,2.972a6.1,6.1,0,0,0,3.566,6.158l42.857,19.321a6.1,6.1,0,0,0,4.1.326l42.9-11.631a6.1,6.1,0,0,0,4.469-5.217l1.027-9.253a6.1,6.1,0,0,0-1.867-5.1C425.317,233.1,401.128,210.2,394.543,204.038Z" fill="#e5a81f"/>
        </g>
        <path id="Trazado_41001" data-name="Trazado 41001" d="M287.677,376.76s40.13,27.41,63.743,11.914,27.01-64.236,27.01-64.236l10.63,3.5s-10.67,79.963-51.489,77.45c-36.385-2.239-52.953-17.234-52.953-17.234Z" fill="#d7a16d"/>
        <path id="Trazado_41002" data-name="Trazado 41002" d="M379.119,324.2l-.989.208a1.171,1.171,0,0,1-1.383-.9l-2.181-7.522a1.171,1.171,0,0,1,.9-1.383l2.131-.449a1.172,1.172,0,0,1,1.383.9l1.039,7.762A1.17,1.17,0,0,1,379.119,324.2Z" fill="#bf8354"/>
        <path id="Trazado_41003" data-name="Trazado 41003" d="M347.735,313.731l-1,.168a1.171,1.171,0,0,1-1.345-.957l-1.876-7.6a1.171,1.171,0,0,1,.956-1.346l2.147-.362a1.171,1.171,0,0,1,1.346.956l.725,7.8A1.171,1.171,0,0,1,347.735,313.731Z" fill="#a36b45"/>
        <g id="Grupo_37086" data-name="Grupo 37086">
          <path id="Trazado_41004" data-name="Trazado 41004" d="M347.509,236.3s32.114,2.664,74.957,5.225c0,0,12.538.581,11.4,10.65-1.08,9.523-6.08,56.993-6.08,56.993s.036,10.842-13.328,9.8c-12.436-.969-72.886-6.735-72.886-6.735s-10.452-1.471-9.928-12.976c.566-12.462,3.646-49.354,3.646-49.354S335.85,236.589,347.509,236.3Z" fill="#f7c23e"/>
          <path id="Trazado_41005" data-name="Trazado 41005" d="M383.567,276.045,331.98,303.409s1.791,7.45,8.815,8.666,74.912,6.963,74.912,6.963,10.878,1.47,12.075-9.865Z" fill="#e5a81f" opacity="0.31"/>
          <path id="Trazado_41006" data-name="Trazado 41006" d="M394.543,204.038c-7.814-7.316-14.662-1.5-14.662-1.5l-41.1,31.476a6.106,6.106,0,0,0-2.363,4.251l-.421,4.31h0l-.29,2.972a6.1,6.1,0,0,0,3.566,6.158l42.857,19.321a6.1,6.1,0,0,0,4.1.326l42.9-11.631a6.1,6.1,0,0,0,4.469-5.217l1.027-9.253a6.1,6.1,0,0,0-1.867-5.1C425.317,233.1,401.128,210.2,394.543,204.038Z" fill="#e5a81f"/>
        </g>
        <g id="Grupo_37088" data-name="Grupo 37088">
          <g id="Grupo_37087" data-name="Grupo 37087">
            <path id="Trazado_41007" data-name="Trazado 41007" d="M396.448,312.736c.046-.166.811-2.475.827-2.646.155-1.654-1.166-2.358-2.733-2.627L382.163,302.8a2.942,2.942,0,0,0-1.539-.188,3.031,3.031,0,0,0-2.46,2.475L376.3,324.118a3.3,3.3,0,0,0,.381,1.838c.975,1.811,2.153,2,3.575,2.246l6.431,1.109c3.58.928,4.679-.574,4.961-2.226Z" fill="#d7a16d"/>
          </g>
        </g>
      </g>
    </g>
    <g id="Grupo_37091" data-name="Grupo 37091">
      <path id="Trazado_41009" data-name="Trazado 41009" d="M355.137,209.3S338.7,191.108,341.275,190.4,355.137,209.3,355.137,209.3Z" fill="#ee9321"/>
      <path id="Trazado_41010" data-name="Trazado 41010" d="M353.786,211.234s-24.486,1.265-23.4-1.181S353.786,211.234,353.786,211.234Z" fill="#ee9321"/>
      <path id="Trazado_41011" data-name="Trazado 41011" d="M352.953,209.174s-11.87-6.014-13.045-5.335S346.137,207.72,352.953,209.174Z" fill="#ee9321"/>
    </g>
    <rect id="Rectángulo_4491" data-name="Rectángulo 4491" width="176" height="176" transform="translate(301.881 186.206)" fill="none"/>
    <g id="Grupo_37137" data-name="Grupo 37137">
      <g id="Grupo_37136" data-name="Grupo 37136" clip-path="url(#clip-path-2)">
        <path id="Trazado_41012" data-name="Trazado 41012" d="M343.277,264.061S346.1,230.142,346.106,218l78.532,2.162s.268,12.543-2.438,48.48l-40.628,7.4Z" fill="#e8e6e3"/>
        <path id="Trazado_41013" data-name="Trazado 41013" d="M351.129,222.541l-2.643,42.518s34.7,10.42,35.028,10.42,34.03-7.427,34.03-7.427l1.995-43.674Z" fill="#f4f4f4"/>
        <g id="Grupo_37135" data-name="Grupo 37135">
          <g id="Grupo_37106" data-name="Grupo 37106">
            <g id="Grupo_37105" data-name="Grupo 37105">
              <g id="Grupo_37104" data-name="Grupo 37104" clip-path="url(#clip-path-3)">
                <circle id="Elipse_718" data-name="Elipse 718" cx="5.017" cy="5.017" r="5.017" transform="translate(357.331 229.666)" fill="#57cecb"/>
                <g id="Grupo_37103" data-name="Grupo 37103">
                  <path id="Trazado_41014" data-name="Trazado 41014" d="M365.694,244.09a8.481,8.481,0,0,0-.115-3.816,16.593,16.593,0,0,0-.631-2.019l-.541.217.27-.108-.27.108a16.6,16.6,0,0,1,.609,1.949,8.529,8.529,0,0,1,.253,3.58Z" fill="#d8976a"/>
                  <path id="Trazado_41015" data-name="Trazado 41015" d="M365.257,243.951l-.017-.048a.06.06,0,0,0-.076-.036l-.382.108a.059.059,0,0,0-.036.075l.038.1a.059.059,0,0,0,.076.036l.362-.163A.06.06,0,0,0,365.257,243.951Z" fill="#d69164"/>
                  <g id="Grupo_37092" data-name="Grupo 37092">
                    <path id="Trazado_41016" data-name="Trazado 41016" d="M365.605,244.729c0,.007-.029.11-.033.116-.034.064-.1.058-.162.03l-.563-.126a.131.131,0,0,1-.06-.03.133.133,0,0,1-.031-.15l.389-.737a.135.135,0,0,1,.058-.058.177.177,0,0,1,.184,0l.26.114c.153.052.157.133.128.2Z" fill="#d8976a"/>
                  </g>
                  <path id="Trazado_41017" data-name="Trazado 41017" d="M358.532,243.917a8.477,8.477,0,0,1,.368-3.8,16.613,16.613,0,0,1,.764-1.972l.525.252-.262-.126.262.126a16.148,16.148,0,0,0-.736,1.9,8.509,8.509,0,0,0-.491,3.556Z" fill="#d8976a"/>
                  <g id="Grupo_37093" data-name="Grupo 37093">
                    <path id="Trazado_41018" data-name="Trazado 41018" d="M362.236,255.01a6.639,6.639,0,0,1-.052,1.07v.228l1.567.069s.4.022.415-.281c0,0-.028-.187-.382-.207a1.715,1.715,0,0,1-.866-.856l-.212.044A.664.664,0,0,1,362.236,255.01Z" fill="#2c2c35"/>
                    <path id="Trazado_41019" data-name="Trazado 41019" d="M364.146,256.045l-.417.054c-.656-.161-1.022-1.022-1.022-1.022l.212-.044a1.715,1.715,0,0,0,.866.856.419.419,0,0,1,.361.156" fill="#0c0c17"/>
                    <path id="Trazado_41020" data-name="Trazado 41020" d="M362.184,256.08v.228l1.567.069s.4.022.415-.281a.174.174,0,0,0-.021-.051A7.288,7.288,0,0,1,362.184,256.08Z" fill="#fff"/>
                    <path id="Trazado_41021" data-name="Trazado 41021" d="M362.234,255.477s-.029.444-.05.6c0,0,.225.023.683.042C362.867,256.122,362.8,255.5,362.234,255.477Z" fill="#0c0c17"/>
                    <path id="Trazado_41022" data-name="Trazado 41022" d="M362.88,255.192s.079-.09.135,0a.089.089,0,0,0-.159-.03Z" fill="#fff"/>
                    <path id="Trazado_41023" data-name="Trazado 41023" d="M362.953,255.315s.076-.093.135-.009c0,0-.06-.135-.16-.025Z" fill="#fff"/>
                    <path id="Trazado_41024" data-name="Trazado 41024" d="M363.008,255.407s.079-.09.135,0a.089.089,0,0,0-.159-.03Z" fill="#fff"/>
                    <path id="Trazado_41025" data-name="Trazado 41025" d="M363.1,255.505s.075-.093.135-.009a.089.089,0,0,0-.16-.024Z" fill="#fff"/>
                    <path id="Trazado_41026" data-name="Trazado 41026" d="M362.315,256.186a10.24,10.24,0,0,0,1.6.036s.093,0,0,.034a5.659,5.659,0,0,1-1.619-.02S362.18,256.19,362.315,256.186Z" fill="#c4c3c2"/>
                    <path id="Trazado_41027" data-name="Trazado 41027" d="M363.785,255.889l.067.147.274-.019A.463.463,0,0,0,363.785,255.889Z" fill="#fff"/>
                  </g>
                  <g id="Grupo_37094" data-name="Grupo 37094">
                    <path id="Trazado_41028" data-name="Trazado 41028" d="M361.14,254.974a6.661,6.661,0,0,0-.019,1.071l-.016.228-1.568-.036s-.4-.005-.395-.308c0,0,.04-.184.394-.181a1.714,1.714,0,0,0,.921-.8l.209.058A.663.663,0,0,0,361.14,254.974Z" fill="#2c2c35"/>
                    <path id="Trazado_41029" data-name="Trazado 41029" d="M359.166,255.88l.413.081c.664-.117,1.087-.952,1.087-.952l-.209-.058a1.714,1.714,0,0,1-.921.8.419.419,0,0,0-.37.132" fill="#0c0c17"/>
                    <path id="Trazado_41030" data-name="Trazado 41030" d="M361.121,256.045l-.016.228-1.568-.036s-.4-.005-.395-.308a.166.166,0,0,1,.024-.049A7.285,7.285,0,0,0,361.121,256.045Z" fill="#fff"/>
                    <path id="Trazado_41031" data-name="Trazado 41031" d="M361.111,255.44s0,.445.01.605c0,0-.226.008-.684,0C360.437,256.041,360.546,255.429,361.111,255.44Z" fill="#0c0c17"/>
                    <path id="Trazado_41032" data-name="Trazado 41032" d="M360.486,255.113s-.073-.1-.135-.013a.089.089,0,0,1,.161-.02Z" fill="#fff"/>
                    <path id="Trazado_41033" data-name="Trazado 41033" d="M360.4,255.23s-.069-.1-.134-.018a.089.089,0,0,1,.162-.013Z" fill="#fff"/>
                    <path id="Trazado_41034" data-name="Trazado 41034" d="M360.344,255.319s-.073-.1-.135-.013a.089.089,0,0,1,.161-.02Z" fill="#fff"/>
                    <path id="Trazado_41035" data-name="Trazado 41035" d="M360.246,255.411s-.068-.1-.134-.019a.089.089,0,0,1,.162-.013Z" fill="#fff"/>
                    <path id="Trazado_41036" data-name="Trazado 41036" d="M360.983,256.142a10.346,10.346,0,0,1-1.6-.07s-.092-.012,0,.034a5.686,5.686,0,0,0,1.617.087S361.118,256.155,360.983,256.142Z" fill="#c4c3c2"/>
                    <path id="Trazado_41037" data-name="Trazado 41037" d="M359.536,255.748l-.076.142-.272-.037A.461.461,0,0,1,359.536,255.748Z" fill="#fff"/>
                  </g>
                  <path id="Trazado_41038" data-name="Trazado 41038" d="M362.243,245.237s-.085-1.752.631-1.776c.593-.02.694.306.756,1.236.059.9-.023,5.964-.8,5.987C362.33,250.7,362.236,249.606,362.243,245.237Z" fill="#d19f79"/>
                  <path id="Trazado_41039" data-name="Trazado 41039" d="M360.432,245.1s-.051-1.753.666-1.763c.594-.009.688.319.731,1.249.042.9-.126,5.964-.9,5.971C360.425,250.564,360.34,249.47,360.432,245.1Z" fill="#d19f79"/>
                  <path id="Trazado_41040" data-name="Trazado 41040" d="M361.366,249.818s-.026-.644-.391-.652-.548.52-.485.875-.025,1.79,0,2.433c.043,1.034.007,2.6.007,2.6l.54.018Z" fill="#d19f79"/>
                  <path id="Trazado_41041" data-name="Trazado 41041" d="M362.353,249.851s.068-.641.434-.625.512.556.426.906-.094,1.787-.164,2.427c-.111,1.029-.179,2.59-.179,2.59l-.54-.018Z" fill="#d19f79"/>
                  <path id="Trazado_41042" data-name="Trazado 41042" d="M362.145,237.1l-1.9.242s-.656.34.009,1.1l.418,4.161a4.906,4.906,0,0,0,2.952-.1l.468-3.853a.73.73,0,0,0,.041-1.26Z" fill="#f7af80"/>
                  <path id="Trazado_41043" data-name="Trazado 41043" d="M364.132,237.39l-1.068.737-2.415-.525-.4-.263a6.562,6.562,0,0,1,2.149-.455,5.532,5.532,0,0,1,1.739.506" fill="#d8976a"/>
                  <ellipse id="Elipse_719" data-name="Elipse 719" cx="1.162" cy="1.499" rx="1.162" ry="1.499" transform="matrix(0.072, -0.997, 0.997, 0.072, 360.55, 243.446)" fill="#f7af80"/>
                  <path id="Trazado_41044" data-name="Trazado 41044" d="M362.3,241.989c-.046,0-1.661.3-1.661.3s-.179,1.9-.207,2.56c-.027.609,3.233.74,3.218.191-.018-.725-.022-2.535-.022-2.535Z" fill="#d19f79"/>
                  <path id="Trazado_41045" data-name="Trazado 41045" d="M363.888,243.4a2.246,2.246,0,0,1-.725,1.742,1.689,1.689,0,0,1-1.093.415,1.746,1.746,0,0,1-1.785-1.965s-.159-2.115,1.524-2.13A1.812,1.812,0,0,1,363.888,243.4Z" fill="#1a6999"/>
                  <path id="Trazado_41046" data-name="Trazado 41046" d="M362.16,245.173v10.044l.845.007.89-11.485Z" fill="#1a6999"/>
                  <path id="Trazado_41047" data-name="Trazado 41047" d="M361.873,245.1l-.672,10.109-.837-.028-.087-11.389Z" fill="#1a6999"/>
                  <g id="Grupo_37096" data-name="Grupo 37096">
                    <g id="Grupo_37095" data-name="Grupo 37095">
                      <path id="Trazado_41048" data-name="Trazado 41048" d="M363.226,236.938c.577.225,1.086.431,1.086.431.99.6.057,1.352.057,1.352l-.341,5.266-3.887-.129.056-5.083a.872.872,0,0,1-.324-.7.756.756,0,0,1,.36-.748s.3-.118.94-.334a1.829,1.829,0,0,1,.274-.1s.089.8.728.861S363.226,236.938,363.226,236.938Z" fill="#293033"/>
                      <path id="Trazado_41049" data-name="Trazado 41049" d="M361.5,236.85s.161.768.791.814c.531.039.881-.816.881-.816l.141.031s-.215,1.03-1,1a1.082,1.082,0,0,1-1.016-1.009Z" fill="#ea1b6f"/>
                    </g>
                  </g>
                  <path id="Trazado_41050" data-name="Trazado 41050" d="M360.616,238.09l-.383-.759a3.434,3.434,0,0,0-1.3,1.726l.966.438Z" fill="#293033"/>
                  <path id="Trazado_41051" data-name="Trazado 41051" d="M363.968,238.152l.432-.731a3.43,3.43,0,0,1,1.183,1.808l-.993.373Z" fill="#293033"/>
                  <path id="Trazado_41052" data-name="Trazado 41052" d="M358.876,238.934l1.139.515-.122.2-1.074-.522Z" fill="#ea1b6f"/>
                  <path id="Trazado_41053" data-name="Trazado 41053" d="M365.627,239.117l-1.171.439.108.2,1.107-.45Z" fill="#ea1b6f"/>
                  <path id="Trazado_41054" data-name="Trazado 41054" d="M360.208,254.943l1.1.12-.01.287-1.21-.117Z" fill="#0f4154"/>
                  <path id="Trazado_41055" data-name="Trazado 41055" d="M363.154,254.978l-1.106.046-.01.287,1.215-.036Z" fill="#0f4154"/>
                  <path id="Trazado_41056" data-name="Trazado 41056" d="M362.8,244.3a2.8,2.8,0,0,0,.8.026S363.244,245.515,362.8,244.3Z" fill="#125577"/>
                  <path id="Trazado_41057" data-name="Trazado 41057" d="M362.709,244.2l0,.1.989.129.006-.192Z" fill="#0f4154"/>
                  <path id="Trazado_41058" data-name="Trazado 41058" d="M360.422,244.223a2.8,2.8,0,0,0,.8.026S360.871,245.436,360.422,244.223Z" fill="#125577"/>
                  <path id="Trazado_41059" data-name="Trazado 41059" d="M360.336,244.124l0,.1.989.129.006-.192Z" fill="#0f4154"/>
                  <path id="Trazado_41060" data-name="Trazado 41060" d="M358.977,243.807l.021-.046a.059.059,0,0,1,.078-.031l.374.133a.059.059,0,0,1,.03.078l-.044.1a.06.06,0,0,1-.078.03l-.351-.187A.06.06,0,0,1,358.977,243.807Z" fill="#d69164"/>
                  <g id="Grupo_37097" data-name="Grupo 37097">
                    <path id="Trazado_41061" data-name="Trazado 41061" d="M358.578,244.561c0,.007.022.111.025.118.03.066.1.064.16.041l.57-.089a.128.128,0,0,0,.1-.173l-.339-.762a.133.133,0,0,0-.054-.061.178.178,0,0,0-.184-.009l-.267.1c-.156.042-.166.123-.141.191Z" fill="#d8976a"/>
                  </g>
                  <g id="Grupo_37098" data-name="Grupo 37098">
                    <circle id="Elipse_720" data-name="Elipse 720" cx="0.269" cy="0.269" r="0.269" transform="translate(360.532 233.986)" fill="#d8976a"/>
                    <circle id="Elipse_721" data-name="Elipse 721" cx="0.158" cy="0.158" r="0.158" transform="translate(360.643 234.097)" fill="#c17e4d"/>
                  </g>
                  <g id="Grupo_37099" data-name="Grupo 37099">
                    <circle id="Elipse_722" data-name="Elipse 722" cx="0.269" cy="0.269" r="0.269" transform="translate(363.727 234.093)" fill="#d8976a"/>
                    <circle id="Elipse_723" data-name="Elipse 723" cx="0.158" cy="0.158" r="0.158" transform="translate(363.838 234.204)" fill="#c17e4d"/>
                  </g>
                  <path id="Trazado_41062" data-name="Trazado 41062" d="M363.078,236.072l-.238,1.316-1.034-.034-.066-1.359Z" fill="#d8976a"/>
                  <path id="Trazado_41063" data-name="Trazado 41063" d="M362.938,236.844a1.382,1.382,0,0,1-1.163-.115l-.036-.735,1.339.078Z" fill="#b27246" opacity="0.52"/>
                  <path id="Trazado_41064" data-name="Trazado 41064" d="M364,235.1l-.075-2.286a1.336,1.336,0,0,0-1.416-1.274,1.46,1.46,0,0,0-1.582,1.261l-.008.294h0l.006,2.1a.7.7,0,0,0,.317.616,5.763,5.763,0,0,0,1.078.658.68.68,0,0,0,.478.016,4.4,4.4,0,0,0,.88-.737A1.241,1.241,0,0,0,364,235.1Z" fill="#d8976a"/>
                  <path id="Trazado_41065" data-name="Trazado 41065" d="M362.633,236.3a5.818,5.818,0,0,1-1.078-.658.7.7,0,0,1-.317-.617l-.006-2.1.008-.295a1.384,1.384,0,0,1,.56-.951,1.382,1.382,0,0,0-.87,1.121l-.008.294.006,2.1a.7.7,0,0,0,.317.616,5.763,5.763,0,0,0,1.078.658.68.68,0,0,0,.478.016.827.827,0,0,0,.255-.158A.636.636,0,0,1,362.633,236.3Z" fill="#cc8c60"/>
                  <g id="Grupo_37100" data-name="Grupo 37100">
                    <path id="Trazado_41066" data-name="Trazado 41066" d="M361.964,233.835a.255.255,0,1,1-.246-.249A.249.249,0,0,1,361.964,233.835Z" fill="#231f20"/>
                    <path id="Trazado_41067" data-name="Trazado 41067" d="M361.788,233.776a.068.068,0,0,1,0,.09c-.034.034.018.09.051.055a.142.142,0,0,0,.019-.181.038.038,0,0,0-.066.036Z" fill="#fff"/>
                  </g>
                  <g id="Grupo_37101" data-name="Grupo 37101">
                    <path id="Trazado_41068" data-name="Trazado 41068" d="M363.572,233.884a.255.255,0,1,1-.246-.249A.249.249,0,0,1,363.572,233.884Z" fill="#231f20"/>
                    <path id="Trazado_41069" data-name="Trazado 41069" d="M363.4,233.825a.069.069,0,0,1,0,.09c-.034.034.018.09.051.055a.142.142,0,0,0,.019-.181.038.038,0,0,0-.066.036Z" fill="#fff"/>
                  </g>
                  <g id="Grupo_37102" data-name="Grupo 37102">
                    <path id="Trazado_41070" data-name="Trazado 41070" d="M362.674,234.317a1.191,1.191,0,0,1-.118-.223c-.041-.112-.094-.149-.2-.111s-.18.887.393.971.512-.322.44-.42S362.865,234.592,362.674,234.317Z" fill="#cc7a4c"/>
                    <path id="Trazado_41071" data-name="Trazado 41071" d="M362.772,234.91c-.494-.072-.506-.711-.433-.911-.093.121-.128.876.411.955.3.044.428-.048.469-.159C363.162,234.885,363.032,234.948,362.772,234.91Z" fill="#af632f"/>
                  </g>
                  <path id="Trazado_41072" data-name="Trazado 41072" d="M362.8,235.42s-.064.137-.18.127a.193.193,0,0,1-.171-.145s-.013-.06-.053-.039c0,0-.035.017-.011.065a.28.28,0,0,0,.231.186.242.242,0,0,0,.254-.166s.014-.039-.007-.054C362.868,235.394,362.828,235.368,362.8,235.42Z" fill="#3a3a3a"/>
                  <path id="Trazado_41073" data-name="Trazado 41073" d="M363,233.236s.5-.085.6.061a1.387,1.387,0,0,1,.154.312s-.183-.1-.295-.145-.45.034-.455-.1Z" fill="#231f20"/>
                  <path id="Trazado_41074" data-name="Trazado 41074" d="M362.034,233.2s-.494-.118-.6.022a1.351,1.351,0,0,0-.174.3s.188-.088.3-.126.447.065.461-.066Z" fill="#231f20"/>
                  <path id="Trazado_41075" data-name="Trazado 41075" d="M360.959,234.26l-.142-.472-.047.105-.027-.344s-.05-.759-.049-.827.017-.453.331-.46.252.615.252.615a.346.346,0,0,0-.171.311C361.093,233.429,360.959,234.26,360.959,234.26Z" fill="#231f20"/>
                  <path id="Trazado_41076" data-name="Trazado 41076" d="M363.952,234.138l.174-.462.039.108.05-.341s.1-.755.1-.822.014-.454-.3-.481-.327.4-.327.4a1.084,1.084,0,0,1,.185.516C363.873,233.3,363.952,234.138,363.952,234.138Z" fill="#231f20"/>
                  <path id="Trazado_41077" data-name="Trazado 41077" d="M363.856,232.241s.262-.55.029-.878-1.126-.466-1.126-.466a.5.5,0,0,1,.229.243l-.268-.151a1.6,1.6,0,0,0-.746-.039l.191.054s-.883.1-1.136.52a.94.94,0,0,0-.008.872l.265.292a.556.556,0,0,1,.593-.423c.533-.021.539.178.943.143a.551.551,0,0,0,.057-.006s.42-.1.552.017a.449.449,0,0,0,.261.124Z" fill="#231f20"/>
                </g>
              </g>
            </g>
            <rect id="Rectángulo_4492" data-name="Rectángulo 4492" width="42.038" height="2.952" rx="0.809" transform="matrix(0.999, 0.033, -0.033, 0.999, 369.996, 231.21)" fill="#57cecb"/>
            <rect id="Rectángulo_4493" data-name="Rectángulo 4493" width="32.888" height="1.884" rx="0.809" transform="matrix(0.999, 0.033, -0.033, 0.999, 369.839, 235.909)" fill="#a1b7b6"/>
          </g>
          <g id="Grupo_37119" data-name="Grupo 37119">
            <g id="Grupo_37118" data-name="Grupo 37118">
              <g id="Grupo_37117" data-name="Grupo 37117" clip-path="url(#clip-path-4)">
                <circle id="Elipse_725" data-name="Elipse 725" cx="5.017" cy="5.017" r="5.017" transform="translate(356.873 243.416)" fill="#58ace0"/>
                <g id="Grupo_37116" data-name="Grupo 37116">
                  <path id="Trazado_41078" data-name="Trazado 41078" d="M360.587,251.876l-.81.178.205,2.057,3.75.222.511-1.98-.776-.29Z" fill="#babac2"/>
                  <path id="Trazado_41079" data-name="Trazado 41079" d="M359.794,246.914a3.4,3.4,0,0,0-.5,2.357s.322.574.035.8c0,0,.336-.055.287-.873A3.92,3.92,0,0,1,359.794,246.914Z" fill="#563929"/>
                  <path id="Trazado_41080" data-name="Trazado 41080" d="M361.249,245.147s.037-.379-.5-.324a1.638,1.638,0,0,0-1.263,1.632.949.949,0,0,1-.4,1.052.928.928,0,0,0,.8-.728c.13-.665,1.435-1.113,1.435-1.113Z" fill="#442c1b"/>
                  <path id="Trazado_41081" data-name="Trazado 41081" d="M361.27,245.356a.445.445,0,0,0-.675-.254,1.577,1.577,0,0,0-.816,1.7c.143.76-.581,1.672-.845,1.548,0,0,.495.2.891-.579,0,0-.674.641-.513,1.292s.508.6.345,1.412a.826.826,0,0,0,.336-.768,4.812,4.812,0,0,1-.052,1.554.558.558,0,0,0,.349-.5,1.03,1.03,0,0,0,.47.725l.12-.51.38.4.118-.166,1.183.222.285-.478.339.41.143-.6a1.1,1.1,0,0,1,.264.457,2.053,2.053,0,0,0,.094-.812,1,1,0,0,0,.549.385,1.842,1.842,0,0,1,.136-1.312c.344-.719.9-3.247-.191-4.031S361.27,245.356,361.27,245.356Z" fill="#2d221b"/>
                  <path id="Trazado_41082" data-name="Trazado 41082" d="M365.037,260.895a25.764,25.764,0,0,0-.44-7.239l-.518.195.259-.1-.259.1a26.149,26.149,0,0,1,.407,7Z" fill="#e5995a"/>
                  <g id="Grupo_37107" data-name="Grupo 37107">
                    <circle id="Elipse_726" data-name="Elipse 726" cx="0.396" cy="0.396" r="0.396" transform="translate(359.679 247.99)" fill="#e5995a"/>
                    <circle id="Elipse_727" data-name="Elipse 727" cx="0.232" cy="0.232" r="0.232" transform="translate(359.843 248.154)" fill="#d18a5b"/>
                  </g>
                  <g id="Grupo_37108" data-name="Grupo 37108">
                    <circle id="Elipse_728" data-name="Elipse 728" cx="0.396" cy="0.396" r="0.396" transform="translate(363.53 248.118)" fill="#e5995a"/>
                    <circle id="Elipse_729" data-name="Elipse 729" cx="0.232" cy="0.232" r="0.232" transform="translate(363.694 248.282)" fill="#d18a5b"/>
                  </g>
                  <path id="Trazado_41083" data-name="Trazado 41083" d="M359.922,253.538h0s.879-1.888,1.525-1.866l.346.011.3.01.346.012c.647.021,1.4,1.963,1.4,1.963h0a2.016,2.016,0,0,1-.183,1.937,3.053,3.053,0,0,0,.081,2.795,5.283,5.283,0,0,1-1.878.506c-.061-.005-.248-.011-.309-.011a5.779,5.779,0,0,1-1.793-.494,3.439,3.439,0,0,0,.22-2.918A2.015,2.015,0,0,1,359.922,253.538Z" fill="#babac2"/>
                  <path id="Trazado_41084" data-name="Trazado 41084" d="M362.208,251.534l1.26.529a2.13,2.13,0,0,1-1.567.662,1.512,1.512,0,0,1-1.314-.849l1.164-.327Z" fill="#e5995a"/>
                  <path id="Trazado_41085" data-name="Trazado 41085" d="M361.393,250.739l.217,1.159.679.044.2-1.2Z" fill="#e5995a"/>
                  <path id="Trazado_41086" data-name="Trazado 41086" d="M361.5,251.31a.651.651,0,0,0,.89.035l.1-.606h-1.1Z" fill="#d3874f"/>
                  <path id="Trazado_41087" data-name="Trazado 41087" d="M364.17,246.7s.027-1.484-1.856-1.708l-.3-.01c-1.893.1-1.965,1.581-1.965,1.581l.093,2.8a.871.871,0,0,0,.343.775l.582.582c.3.249.433.364.674.4l.147.005q.036,0,.072,0l.072.005v-.008a1.408,1.408,0,0,0,.737-.344l.666-.472a1.117,1.117,0,0,0,.352-.821Z" fill="#e5995a"/>
                  <g id="Grupo_37110" data-name="Grupo 37110">
                    <g id="Grupo_37109" data-name="Grupo 37109">
                      <path id="Trazado_41088" data-name="Trazado 41088" d="M361.176,247.963a.257.257,0,1,1-.248-.276A.264.264,0,0,1,361.176,247.963Z" fill="#2f1b11"/>
                      <path id="Trazado_41089" data-name="Trazado 41089" d="M361.172,247.91s-.019-.224-.225-.231-.268-.023-.292-.079c0,0,0,.107.081.118a.3.3,0,0,1-.227-.028.235.235,0,0,0,.231.132C360.92,247.822,361.078,247.813,361.172,247.91Z" fill="#2f1b11"/>
                    </g>
                    <path id="Trazado_41090" data-name="Trazado 41090" d="M360.837,247.9a.072.072,0,0,0,0,.1c.034.04-.025.1-.059.056a.151.151,0,0,1-.007-.2.043.043,0,0,1,.056-.013.041.041,0,0,1,.013.056Z" fill="#fff"/>
                  </g>
                  <g id="Grupo_37112" data-name="Grupo 37112">
                    <g id="Grupo_37111" data-name="Grupo 37111">
                      <path id="Trazado_41091" data-name="Trazado 41091" d="M362.42,247.965a.257.257,0,1,0,.265-.26A.262.262,0,0,0,362.42,247.965Z" fill="#2f1b11"/>
                      <path id="Trazado_41092" data-name="Trazado 41092" d="M362.427,247.912s.034-.222.24-.216.269-.005.3-.06c0,0-.007.107-.088.113a.3.3,0,0,0,.229-.012.237.237,0,0,1-.24.115C362.685,247.84,362.527,247.821,362.427,247.912Z" fill="#2f1b11"/>
                    </g>
                    <path id="Trazado_41093" data-name="Trazado 41093" d="M362.633,247.923a.071.071,0,0,0,0,.1c.033.04-.026.1-.06.056a.153.153,0,0,1-.007-.2.042.042,0,0,1,.056-.013.041.041,0,0,1,.013.056Z" fill="#fff"/>
                  </g>
                  <path id="Trazado_41094" data-name="Trazado 41094" d="M362.584,248.888a.331.331,0,1,0,.342-.319A.331.331,0,0,0,362.584,248.888Z" fill="#87173d" opacity="0.11"/>
                  <path id="Trazado_41095" data-name="Trazado 41095" d="M361.153,248.881a.331.331,0,1,1-.32-.342A.331.331,0,0,1,361.153,248.881Z" fill="#87173d" opacity="0.11"/>
                  <g id="Grupo_37114" data-name="Grupo 37114">
                    <g id="Grupo_37113" data-name="Grupo 37113">
                      <path id="Trazado_41096" data-name="Trazado 41096" d="M362.447,249.678s.077-.175-.063-.133C362.384,249.545,362.482,249.541,362.447,249.678Z" fill="#3a3a3a"/>
                    </g>
                    <path id="Trazado_41097" data-name="Trazado 41097" d="M361.791,249.836a.89.89,0,0,1-.475-.146.416.416,0,0,0,.488.366c.452-.039.456-.352.456-.352" fill="#f2aeb5" opacity="0.53"/>
                    <path id="Trazado_41098" data-name="Trazado 41098" d="M361.316,249.712l-.027-.032a.353.353,0,0,1,.278-.187s.043-.014.112.057l.022.023s.058-.077.122-.075a.611.611,0,0,1,.432.219,1.571,1.571,0,0,1-.7.086A.449.449,0,0,1,361.316,249.712Z" fill="#f2aeb5" opacity="0.53"/>
                    <path id="Trazado_41099" data-name="Trazado 41099" d="M361.265,249.647a.763.763,0,0,0,.49.157,1.174,1.174,0,0,0,.7-.234.943.943,0,0,1-.689.276S361.358,249.866,361.265,249.647Z" fill="#494747"/>
                  </g>
                  <path id="Trazado_41100" data-name="Trazado 41100" d="M362.375,247.206c-.017.05-.039.162-.039.162s.419.026.669.036a.634.634,0,0,1,.425.291s-.012-.141-.249-.377a.426.426,0,0,0-.283-.119c-.185-.011-.374-.04-.374-.04S362.4,247.118,362.375,247.206Z" fill="#3a1b17"/>
                  <path id="Trazado_41101" data-name="Trazado 41101" d="M361.285,247.17c.013.051.028.164.028.164s-.42,0-.67-.009a.632.632,0,0,0-.443.262s.021-.139.273-.359a.421.421,0,0,1,.29-.1c.185,0,.376-.015.376-.015S361.261,247.08,361.285,247.17Z" fill="#3a1b17"/>
                  <path id="Trazado_41102" data-name="Trazado 41102" d="M361.2,245.849s-.269.745-.7.736-.448,1.568-.448,1.568a4.676,4.676,0,0,1-.111-.831c-.011-.412-.144-2.034,1.081-2.26S361.2,245.849,361.2,245.849Z" fill="#2d221b"/>
                  <path id="Trazado_41103" data-name="Trazado 41103" d="M361.2,245.849s-.653-1.451.837-1.435,2.8,1.1,2.671,2.311-.356,2.672.038,2.96a1.77,1.77,0,0,1-.506-.8,2.629,2.629,0,0,1-.1-1.129,9.743,9.743,0,0,0-.278,1.218,3.1,3.1,0,0,1-.236-1.527c.084-.879-.315-2.158-1.3-1.947S361.2,245.849,361.2,245.849Z" fill="#442c1b"/>
                  <path id="Trazado_41104" data-name="Trazado 41104" d="M361.2,245.849a1.241,1.241,0,0,1,1.479-.678c1.152.206,1.038,2.526,1.005,3.335a3.32,3.32,0,0,1-.44-1.83l.029,1.476a5.684,5.684,0,0,0-.533-2.033C362.3,245.374,361.2,245.849,361.2,245.849Z" fill="#2d221b"/>
                  <path id="Trazado_41105" data-name="Trazado 41105" d="M361.057,245.141a1.126,1.126,0,0,1,1.459-.953c.968.17.853.684,1.683.718a2.1,2.1,0,0,1-1.565-.3C362.011,244.108,361.057,245.141,361.057,245.141Z" fill="#563929"/>
                  <path id="Trazado_41106" data-name="Trazado 41106" d="M361.2,245.849s.975-.211,1.278.262a4.412,4.412,0,0,1,.42,1.438s.292-1.682-.4-1.876S361.636,245.511,361.2,245.849Z" fill="#563929"/>
                  <path id="Trazado_41107" data-name="Trazado 41107" d="M361.044,245.948l-.007-.192a.89.89,0,0,0-.844-.209c-.457.164-.26,1.422-.571,1.872s-1.045.327-1.045.327.865.388,1.176-.113S359.953,245.514,361.044,245.948Z" fill="#563929"/>
                  <path id="Trazado_41108" data-name="Trazado 41108" d="M364.052,249.308a4.263,4.263,0,0,0,.056,2.089A1.9,1.9,0,0,1,364.052,249.308Z" fill="#684330"/>
                  <path id="Trazado_41109" data-name="Trazado 41109" d="M359.786,249.038a4.269,4.269,0,0,1-.194,2.081A1.9,1.9,0,0,0,359.786,249.038Z" fill="#684330"/>
                  <path id="Trazado_41110" data-name="Trazado 41110" d="M363.963,246.193s.009,2.029,1.1,2.447A4.724,4.724,0,0,1,363.963,246.193Z" fill="#684330"/>
                  <path id="Trazado_41111" data-name="Trazado 41111" d="M363.966,252.832l.278-.478s1.116,1.55.894,6.216l-.07,1.857-.5-1.1s.014-4.424-.86-5.978Z" fill="#e5995a"/>
                  <path id="Trazado_41112" data-name="Trazado 41112" d="M358.064,260.663a25.755,25.755,0,0,1,.92-7.193l.5.228-.251-.114.251.114a26.248,26.248,0,0,0-.871,6.96Z" fill="#e5995a"/>
                  <path id="Trazado_41113" data-name="Trazado 41113" d="M359.8,252.37l-.024-.316s-1.571,1.612-1.659,6.282l-.054,1.858.576-1.064s.306-4.1,1.282-5.592Z" fill="#e5995a"/>
                  <g id="Grupo_37115" data-name="Grupo 37115">
                    <path id="Trazado_41114" data-name="Trazado 41114" d="M359.516,253.72l.005-.02,0,0-.008,0Z" fill="none"/>
                    <path id="Trazado_41115" data-name="Trazado 41115" d="M359.506,253.781v0l-.009-.009v0Z" fill="none"/>
                    <path id="Trazado_41116" data-name="Trazado 41116" d="M359.609,253.724l-.006,0-.008-.01a.209.209,0,0,0-.037.036l0,0,0,.005a.246.246,0,0,0,.028-.028h0v0l0,.006a.026.026,0,0,1,.019.006.038.038,0,0,1,.01.019.375.375,0,0,0,.017-.035A.029.029,0,0,1,359.609,253.724Z" fill="none"/>
                    <path id="Trazado_41117" data-name="Trazado 41117" d="M359.51,253.782v0h0l.007-.006Z" fill="none"/>
                    <path id="Trazado_41118" data-name="Trazado 41118" d="M359.51,253.751l0-.01v-.007h0a.066.066,0,0,1-.023-.024h0A.15.15,0,0,1,359.51,253.751Z" fill="none"/>
                    <path id="Trazado_41119" data-name="Trazado 41119" d="M359.5,253.8l-.005,0h0l-.005,0h0l.011.014Z" fill="none"/>
                    <path id="Trazado_41120" data-name="Trazado 41120" d="M359.565,253.513l-.008.007.009.017.005.01,0,0,.015-.024.013-.02h0v0a.207.207,0,0,1-.015.054l-.008.015h0a.2.2,0,0,1,.045-.029v0c.005-.006.014-.005.021,0h0l-.007-.022a.02.02,0,0,1-.015.009h-.005l0,0,0-.006a.015.015,0,0,1,.01-.013h.009a.146.146,0,0,0-.017-.026.023.023,0,0,1-.007.015l-.009,0h0l0,0a.014.014,0,0,1,0-.015.021.021,0,0,1,.014-.007l-.014-.014a.09.09,0,0,1-.012.031.109.109,0,0,1-.016.02Z" fill="none"/>
                    <path id="Trazado_41121" data-name="Trazado 41121" d="M359.65,253.556a.026.026,0,0,1-.015,0l0,0,0,0c-.009.008-.017.017-.026.026l-.011.012,0,0a.142.142,0,0,0,.031-.024h0v0a.149.149,0,0,1-.033.041v.011a.18.18,0,0,0,.02-.019h0v0a.2.2,0,0,1-.013.025.17.17,0,0,1-.033.038l-.007.006a.088.088,0,0,1-.041.025h0l0,.016a.2.2,0,0,1,.04-.036.173.173,0,0,0,.038-.033h0v0a.133.133,0,0,1-.013.027.148.148,0,0,1-.032.039.152.152,0,0,1,.035-.014v0a.018.018,0,0,1,.022,0,.025.025,0,0,1,.016.017.229.229,0,0,0,.012-.034.054.054,0,0,1-.018,0l0,0c-.009-.006-.013-.013-.01-.02a.016.016,0,0,1,.019-.007.026.026,0,0,1,.017.014l.005-.029a.021.021,0,0,1-.016,0h0c-.008,0-.012-.007-.012-.013a.013.013,0,0,1,.013-.013.025.025,0,0,1,.02.009v-.024l-.005,0a.027.027,0,0,1-.015,0l-.006,0v-.01l0-.006a.023.023,0,0,1,.022,0h0l0-.021Z" fill="none"/>
                    <path id="Trazado_41122" data-name="Trazado 41122" d="M359.575,253.761l0-.009a.154.154,0,0,1-.026.031.111.111,0,0,1-.026.015l-.011,0v.008h0a.111.111,0,0,1,.03-.022l.017-.012a.05.05,0,0,0,.015-.014h0v0a.1.1,0,0,1-.014.024h0l.011-.015h0l0,0-.006.013,0,.006a.038.038,0,0,1,.007.017v0l.022-.035-.006,0A.043.043,0,0,1,359.575,253.761Z" fill="none"/>
                    <path id="Trazado_41123" data-name="Trazado 41123" d="M359.541,253.815v0l-.021.014,0,0,.005,0,.011-.007Z" fill="none"/>
                    <path id="Trazado_41124" data-name="Trazado 41124" d="M359.49,253.823h0l-.013-.013h0l.008.009Z" fill="none"/>
                    <path id="Trazado_41125" data-name="Trazado 41125" d="M359.548,253.857h0l0,0,.016-.029-.007,0-.005,0a.109.109,0,0,1-.017.022Z" fill="none"/>
                    <path id="Trazado_41126" data-name="Trazado 41126" d="M359.514,253.756l.017-.018-.015,0Z" fill="none"/>
                    <path id="Trazado_41127" data-name="Trazado 41127" d="M359.559,253.6h0v0Z" fill="none"/>
                    <path id="Trazado_41128" data-name="Trazado 41128" d="M359.644,253.9a.112.112,0,0,0-.087-.035v0l.016-.031h0l.009,0a.045.045,0,0,0,.028,0,.021.021,0,0,0,.014-.009v-.01a.024.024,0,0,0-.024-.012.028.028,0,0,0-.017.007l.022-.036h0l.008,0a.036.036,0,0,0,.025,0,.021.021,0,0,0,.013-.009v-.009a.02.02,0,0,0-.021-.012.029.029,0,0,0-.017.006c.006-.011.012-.021.017-.032l.007,0a.034.034,0,0,0,.02,0c.008,0,.017-.009.015-.018a.019.019,0,0,0-.019-.012.024.024,0,0,0-.015.006l.009-.029.007,0a.025.025,0,0,0,.017,0c.01,0,.016-.009.015-.016a.017.017,0,0,0-.016-.013.025.025,0,0,0-.018.008l.005-.029.005,0a.032.032,0,0,0,.014,0q.015,0,.015-.015a.014.014,0,0,0-.013-.013.024.024,0,0,0-.019.008l0-.026h.012c.01,0,.016-.008.016-.015a.01.01,0,0,0-.01-.012.017.017,0,0,0-.012,0l-.007.006,0-.024h.008c.006,0,.014,0,.016-.013a.011.011,0,0,0-.008-.013.018.018,0,0,0-.017.007l0,0,0-.009-.005-.016h0a.026.026,0,0,0,.017-.011v-.009l0-.005a.017.017,0,0,0-.016.006l0,.005a.231.231,0,0,0-.017-.026.026.026,0,0,0,.014-.01l0-.009,0,0h0a.011.011,0,0,0-.014,0l0,.011-.016-.015v-.007a.155.155,0,0,0-.071-.124.247.247,0,0,0-.068-.031l-.016-.005h0l-.019-.005-.019,0c-.013,0-.017-.01-.023-.02a.11.11,0,0,0-.152-.031l-.016.013h0l0,0h-.007a.109.109,0,0,0-.031,0,.107.107,0,0,0-.036.02.2.2,0,0,0-.029.04.141.141,0,0,1-.039.038.071.071,0,0,0-.022.032.067.067,0,0,0,0,.037.115.115,0,0,0,.022.035c.005.008,0,.011,0,.019a.026.026,0,0,0,.005.012.1.1,0,0,1-.019.021l-.021.019s-.012.007-.015.013a.022.022,0,0,0,.008.024c.007.007.018.014.01.026s-.007.008-.008.014a.025.025,0,0,0,0,.017.023.023,0,0,0,0,.025.042.042,0,0,1,.008.022.141.141,0,0,1,0,.02.051.051,0,0,0,.025.057.081.081,0,0,0,.048.009l.044,0a.2.2,0,0,1-.027.136.042.042,0,0,0-.016,0h0a.083.083,0,0,0-.049-.014c-.021,0-.045.006-.061-.011h0a.055.055,0,0,0,.054.056.066.066,0,0,0-.014.081h0c.007-.041.067-.033.079-.071l.008.006a.285.285,0,0,0,.089.056.135.135,0,0,0-.02.055l0,0a.172.172,0,0,0,.02-.009.058.058,0,0,1,.036-.012.161.161,0,0,0,.044,0,.08.08,0,0,0,.043.028h0l.006,0,.007,0,0,0,.011.006.011,0a.044.044,0,0,0,.02,0l.028-.009.011-.006.009-.011a.024.024,0,0,0,.018,0l.012,0a.117.117,0,0,0,.041-.01l.008,0,.006-.011,0-.021v0l0-.014.006-.007.005-.007a.145.145,0,0,0,.032-.023.066.066,0,0,1,.031-.013.082.082,0,0,0,.026-.006Zm-.008-.181a.026.026,0,0,1,.019-.01c.006,0,.013,0,.014.008s-.009.012-.011.012a.03.03,0,0,1-.024,0l0-.005Zm.017-.047a.02.02,0,0,1,.019-.011c.005,0,.011,0,.011.008s-.008.011-.011.011a.025.025,0,0,1-.021,0h0v0Zm-.1.2,0,.005v.013a.017.017,0,0,1-.005.019h-.009a.05.05,0,0,0-.022.021.049.049,0,0,1-.018.017l0,0,.011-.011h0a.058.058,0,0,0,.019-.025.038.038,0,0,0,0-.024.121.121,0,0,0-.012-.019.072.072,0,0,0-.02-.019l-.013,0,.005-.013a.033.033,0,0,1,.023,0,.055.055,0,0,1,.022.018.065.065,0,0,0,.017.016h0l.006.007Zm-.261.012,0-.007,0-.006v-.01l0-.011a.035.035,0,0,1,.011-.01h0l.011-.009a.154.154,0,0,1,.021-.014.033.033,0,0,1,.017,0l.01.006,0,0v0l0,0,0,.005-.01.009-.01.016a.016.016,0,0,0-.016.006.036.036,0,0,0-.007.017.044.044,0,0,1-.006.016l-.006.006-.008.009a.022.022,0,0,0,0,.018.048.048,0,0,0,.008.016l.008.009h0a.036.036,0,0,1-.022.005l-.012-.005a.031.031,0,0,1-.008-.04l.007-.008.005,0A.023.023,0,0,0,359.291,253.885Zm.167-.077.014.005a.016.016,0,0,1,.008.01v.006l-.007.015-.007,0a.065.065,0,0,0-.021-.007h-.012l0,0-.006,0-.031,0a.038.038,0,0,0-.021,0l-.007-.008,0-.005a.02.02,0,0,1,0-.023l.005,0a.022.022,0,0,1,.021,0l.006,0a.051.051,0,0,0,.017.007.033.033,0,0,0,.014,0h0A.123.123,0,0,1,359.458,253.808Zm0-.012,0-.016a.136.136,0,0,0,.015.026l-.009,0Zm.119-.16a.154.154,0,0,0-.043.037l.006-.019h0a.172.172,0,0,0,.049-.036h0v.009Zm.035-.021-.008.015a.224.224,0,0,1-.032.037l-.007,0a.088.088,0,0,1-.035.024v-.009a.127.127,0,0,1,.048-.047A.285.285,0,0,0,359.611,253.615Zm-.025,0a.176.176,0,0,1-.043.033.1.1,0,0,1,.037-.043l.009-.006a.132.132,0,0,0,.029-.019A.181.181,0,0,1,359.586,253.615Zm-.037.014,0-.011.011-.006A.08.08,0,0,0,359.549,253.629Zm.038-.034-.01.006h0l.011-.01v0Zm-.031.016h0a.156.156,0,0,1,.066-.062l-.024.024A.2.2,0,0,1,359.556,253.611Zm.032-.059a.1.1,0,0,1-.026.036.257.257,0,0,1,.016-.044l.015-.023.008-.012A.2.2,0,0,1,359.588,253.552Zm-.029.044,0,0v0Zm-.038.1a.118.118,0,0,1-.022-.044.132.132,0,0,1-.006-.048v-.017a.3.3,0,0,0,.013.039.119.119,0,0,1,.015.066Zm0,.006-.005.02-.005-.019.008,0Zm-.009.027v0a.085.085,0,0,1-.025-.032.147.147,0,0,1-.013-.042l0-.014a.307.307,0,0,0,.017.031A.1.1,0,0,1,359.512,253.727Zm-.024-.016h0a.066.066,0,0,0,.023.024h0v.007l0,.01a.15.15,0,0,0-.022-.039Zm.019.046v.014a.135.135,0,0,1-.028-.04l0,0a.184.184,0,0,0-.019-.04A.147.147,0,0,1,359.507,253.757Zm.005.034.024-.019a.253.253,0,0,0,.036-.029.175.175,0,0,1-.03.036.1.1,0,0,1-.025.015l-.006,0Zm0,.006h0Zm0-.011h0v0l.007,0Zm.042-.039a.082.082,0,0,1-.04.03l0-.014a.155.155,0,0,1,.075-.053.182.182,0,0,0-.034.034Zm-.038.009,0-.013.015,0Zm0-.018v-.006a.132.132,0,0,1,.046-.045.258.258,0,0,0,.032-.026l-.009.015a.148.148,0,0,1-.031.039A.09.09,0,0,1,359.517,253.738Zm-.011.039v0l-.009-.01v0Zm0,.01v.005l0,0h0a.108.108,0,0,1-.019-.018.137.137,0,0,1-.019-.036.242.242,0,0,0,.025.031Zm-.013,0,.005,0h0l.005,0v.007l-.011-.014Zm.011.023v.009h0a.116.116,0,0,1-.042-.06.233.233,0,0,0,.021.023A.111.111,0,0,1,359.5,253.812Zm-.023,0,.013.013h0l0,0-.008-.009Zm0,.15h0v0l0,0a.013.013,0,0,1-.013,0h0l.015-.015a.111.111,0,0,0,.017-.021.049.049,0,0,0,.008-.028.055.055,0,0,0-.008-.019.069.069,0,0,0-.013-.017h0a.122.122,0,0,0-.016-.016.023.023,0,0,1,.019,0,.062.062,0,0,1,.018.018.08.08,0,0,1,.012.018.035.035,0,0,1,0,.021.056.056,0,0,1-.018.023h0A.041.041,0,0,0,359.485,253.96Zm-.032-.105-.009,0-.011,0h0l0,0h.008a.06.06,0,0,1,.039.027l0,.008a.028.028,0,0,1-.011.021l-.025.026-.005,0h-.007a.028.028,0,0,1-.02-.006h.01l.009,0a.021.021,0,0,0,.01-.011l.007-.012h0v0l0-.008A.027.027,0,0,0,359.453,253.855Zm-.017,0,.006,0,.009,0a.02.02,0,0,1,.006.027h0v0l0-.012-.009-.006-.028-.013h-.007l0,0-.012.015,0,.008a.022.022,0,0,0,.005.014l0,0,.005.008h0l0,.005,0,0h0l.02,0h.008l.005,0V253.9l0-.006h0l0,0v-.006s-.005-.006-.008-.007l0,0,0,0,0,0a.02.02,0,0,0-.023,0l-.006.007,0,.011.014.008.01,0h.007l0,.005,0,.005h-.007l-.019,0,0,0,0,0v0l-.007-.009v0l0-.01,0-.006.012-.015h0l.028.013.007,0,0,.009v0a.024.024,0,0,1,0,.012l-.006.011v0l-.009.009h-.007a.079.079,0,0,1-.042-.01l-.005,0,0-.008a.072.072,0,0,1,.013-.048l.006-.005a.026.026,0,0,1,.015,0l.014,0h0Zm-.018.028a.015.015,0,0,1,.013.011v0l-.009,0-.013-.008,0-.006,0,0a.02.02,0,0,1,.013,0l0,0,0,0,0,0,.005,0,.005,0v.005h-.008v0a.019.019,0,0,0-.016-.013l0,0Zm.01-.036-.012,0a.028.028,0,0,0-.018,0l-.007.006a.076.076,0,0,0-.014.052l0,.009.007.006.011.005h-.008a.072.072,0,0,0-.024.01h0l-.015-.028-.005-.015a.07.07,0,0,1,0-.014.089.089,0,0,1,.015-.029.036.036,0,0,1,.012-.01.045.045,0,0,1,.02,0l.031,0h0v0Zm-.064.1,0,0a.065.065,0,0,1,.023-.009.1.1,0,0,1,.023,0h0a.035.035,0,0,0,.026.01l.009,0,.007-.006.024-.025a.035.035,0,0,0,.012-.026l0,.007a.048.048,0,0,1,.007.018.04.04,0,0,1-.006.024.175.175,0,0,1-.017.021l-.015.015a.142.142,0,0,1-.026.023.042.042,0,0,1-.06-.007.087.087,0,0,1-.015-.029Zm.121-.115h0Zm-.171.12-.008-.014a.019.019,0,0,1,0-.015l.007-.007.007-.008a.035.035,0,0,0,.006-.017.051.051,0,0,1,.006-.015.013.013,0,0,1,.012,0l0,.011a.04.04,0,0,0,0,.015.048.048,0,0,0,.005.017l.015.029h0a.014.014,0,0,0,0,.014l0,.01a.057.057,0,0,1-.037,0A.053.053,0,0,1,359.314,253.944Zm.052.021.01.016a.051.051,0,0,0,.021.015l.009,0a.052.052,0,0,0,.035-.009.158.158,0,0,0,.024-.02l.005,0a.017.017,0,0,0,.012,0l.007-.006v0h0l0-.009,0,.005,0,.011,0,0a.031.031,0,0,1-.015.01l-.007,0a.032.032,0,0,0-.015.006l-.01.011-.007.009a.035.035,0,0,1-.03.007.073.073,0,0,1-.054-.042.02.02,0,0,1,0-.01Zm.194-.157a.111.111,0,0,1-.024.037l0,0-.009-.01.005,0,.011-.007a.125.125,0,0,0,.027-.029Zm0,.018.005,0,.007,0-.016.029,0,0h0l-.009-.009A.109.109,0,0,0,359.556,253.826Zm-.03,0-.005,0,0,0,.021-.014v0l0,0Zm.019-.013,0,0,.015-.016h0Zm-.031.012-.005,0v-.006a.113.113,0,0,1,.031-.023.238.238,0,0,0,.026-.018A.123.123,0,0,1,359.514,253.824Zm.056,0-.012,0,.006-.012,0-.007a.043.043,0,0,1,.005.018Zm.031-.015a.02.02,0,0,1,.019.009v.007l-.011.007a.045.045,0,0,1-.032-.006v0h0A.04.04,0,0,1,359.6,253.811Zm-.023,0v0a.038.038,0,0,0-.007-.017l0-.006.006-.013,0,0h0l-.011.015h0a.1.1,0,0,0,.014-.024v0h0a.05.05,0,0,1-.015.014l-.017.012a.111.111,0,0,0-.03.022h0V253.8l.011,0a.111.111,0,0,0,.026-.015.154.154,0,0,0,.026-.031l0,.009a.043.043,0,0,0,.019.014l.006,0Zm.025-.039a.04.04,0,0,1-.024-.015.014.014,0,0,1,0-.012l0,0h.011l.007,0a.032.032,0,0,1,.009.023Zm.007-.012a.038.038,0,0,0-.01-.019.026.026,0,0,0-.019-.006l0-.006v0h0a.246.246,0,0,1-.028.028l0-.005,0,0a.209.209,0,0,1,.037-.036l.008.01.006,0a.029.029,0,0,0,.018,0A.375.375,0,0,1,359.61,253.761Zm-.009-.057,0,0h0a.014.014,0,0,1,.016,0h0a.03.03,0,0,1,.016.019h0l0,0a.034.034,0,0,1-.023-.005l-.008-.008h0Zm.031.054a.017.017,0,0,1,.017.009v.006l-.01.007a.047.047,0,0,1-.028-.005v0h0A.034.034,0,0,1,359.632,253.758Zm.015-.089v0a.028.028,0,0,1-.02,0s-.011-.008-.009-.014a.013.013,0,0,1,.014-.005.028.028,0,0,1,.016.016Zm.015-.046a.021.021,0,0,1,.018-.009.009.009,0,0,1,.009.008c0,.006-.009.01-.013.011a.025.025,0,0,1-.016,0Zm-.007.005a.027.027,0,0,1-.015,0s-.013,0-.013-.01,0-.008.009-.009h.007l.011.008v.007Zm.01-.05a.017.017,0,0,1,.015-.008.008.008,0,0,1,.007.008.016.016,0,0,1-.013.01l-.011,0v0h0v0Zm-.008.008-.006.005c-.006,0-.013,0-.016,0v-.01a.018.018,0,0,1,.017,0l0,0Zm0-.012h0a.023.023,0,0,0-.022,0l0,.006v.01l.006,0a.027.027,0,0,0,.015,0l.005,0v.024a.025.025,0,0,0-.02-.009.013.013,0,0,0-.013.013c0,.006,0,.01.012.013h0a.021.021,0,0,0,.016,0l-.005.029a.026.026,0,0,0-.017-.014.016.016,0,0,0-.019.007c0,.007,0,.014.01.02l0,0a.054.054,0,0,0,.018,0,.229.229,0,0,1-.012.034.025.025,0,0,0-.016-.017.018.018,0,0,0-.022,0v0a.152.152,0,0,0-.035.014.148.148,0,0,0,.032-.039.133.133,0,0,0,.013-.027v0h0a.173.173,0,0,1-.038.033.2.2,0,0,0-.04.036l0-.016h0a.088.088,0,0,0,.041-.025l.007-.006a.17.17,0,0,0,.033-.038.2.2,0,0,0,.013-.025v0h0a.18.18,0,0,1-.02.019v-.011a.149.149,0,0,0,.033-.041v0h0a.142.142,0,0,1-.031.024l0,0,.011-.012c.009-.009.017-.018.026-.026l0,0,0,0a.026.026,0,0,0,.015,0l.005,0Zm0-.039s.008-.007.013-.005a.006.006,0,0,1,.005.007s-.006.007-.014.01l-.006,0h0Zm-.011,0h0l0,.006-.006,0a.014.014,0,0,1-.014,0l0,0,.005,0v0h.013Zm0-.046.011,0,0,0v0c0,.005-.008.007-.014.009h0v0h0Zm-.008.011h0v0s-.008.009-.013.009l-.005,0v-.005l.008-.006Zm-.015-.051.008,0h0v.007a.029.029,0,0,1-.013.008A.016.016,0,0,1,359.626,253.454Zm-.009.017a.023.023,0,0,1-.006.014l-.005,0h0v-.009A.023.023,0,0,1,359.617,253.471Zm-.027.013a.09.09,0,0,0,.012-.031l.014.014a.021.021,0,0,0-.014.007.014.014,0,0,0,0,.015l0,0h0l.009,0a.023.023,0,0,0,.007-.015.146.146,0,0,1,.017.026h-.009a.015.015,0,0,0-.01.013l0,.006,0,0h.005a.02.02,0,0,0,.015-.009l.007.022h0c-.007,0-.016,0-.021,0v0a.2.2,0,0,0-.045.029h0l.008-.015a.207.207,0,0,0,.015-.054v0h0l-.013.02-.015.024,0,0-.005-.01-.009-.017.008-.007.009-.009A.109.109,0,0,0,359.59,253.484Zm-.029.092a.167.167,0,0,0-.005-.049l.013.025Zm-.01.03a.175.175,0,0,1,0-.051c0-.009,0-.019,0-.029A.145.145,0,0,1,359.551,253.606Zm-.15-.331c.013,0,.026.005.039.008h.005a.291.291,0,0,1-.03.354.521.521,0,0,0-.018-.364Zm-.184-.035a.109.109,0,0,0,.016-.014.1.1,0,0,1,.028-.014h0a.085.085,0,0,1,.026.046.393.393,0,0,1,.016.059.853.853,0,0,1,.016.113h0a.661.661,0,0,0-.018-.125.177.177,0,0,0-.04-.094.1.1,0,0,1,.065,0,.1.1,0,0,1,.044.032c.005.006.009.014.014.021h0a.446.446,0,0,1,.045.186.466.466,0,0,1-.027.193v0h0a.29.29,0,0,0,.041-.363l.027.008a.23.23,0,0,1,.068.039.14.14,0,0,1,.048.075.1.1,0,0,1,0,.057.125.125,0,0,1-.041.053h0l0-.007,0,0,0,0a.209.209,0,0,1,0,.043.168.168,0,0,0,0,.059h0v0l-.005.012a.1.1,0,0,0,0-.035l0-.011a.14.14,0,0,1-.005-.046h0l0,0,0,0a.188.188,0,0,0-.007.061.17.17,0,0,0,.009.059v0h0l-.006.02a.155.155,0,0,0-.015-.056.148.148,0,0,1-.015-.048h0l0,0,0,0a.144.144,0,0,0,0,.029.177.177,0,0,0,.007.05.115.115,0,0,0,.02.042l-.006,0a.156.156,0,0,0-.016-.028.136.136,0,0,1-.02-.04l0,0,0,0,0,.026a.155.155,0,0,0,.014.043l0,.007,0,0a.147.147,0,0,0-.035-.031h0v0a.172.172,0,0,1,.026.048l0,0a.165.165,0,0,0,.019.03v0l0,0a.193.193,0,0,1-.033-.046h0v0a.168.168,0,0,0,.026.054l.011.012h0l-.007-.007a.111.111,0,0,1-.026-.031l0,0,0,0a.129.129,0,0,0,.028.056l0,0a.168.168,0,0,1-.024-.046l0,0,0,0,0,.015,0,.019,0,.005a.141.141,0,0,0-.029,0h-.016a.07.07,0,0,1-.016-.007l-.006,0a.025.025,0,0,0-.025,0l-.006,0a.021.021,0,0,0,0,.02h0a.035.035,0,0,0-.02,0h0l-.013,0a.163.163,0,0,0-.038,0,.056.056,0,0,1-.042-.008.077.077,0,0,1-.017-.019.149.149,0,0,1-.024-.049v-.005h0l.01,0,.018-.008a.083.083,0,0,0,.036-.031c.02-.037-.031-.055-.05-.076a.037.037,0,0,1-.008-.033.053.053,0,0,1,.011-.024l.011-.015c.009-.016-.005-.031-.005-.047s.015-.029.019-.045a.065.065,0,0,0,0-.034.162.162,0,0,0-.027-.041l-.016-.018C359.16,253.323,359.188,253.267,359.217,253.24Zm.316.411a.2.2,0,0,1-.006-.054.259.259,0,0,1,0-.047.185.185,0,0,0,.006.034l0,.011A.091.091,0,0,1,359.533,253.651Zm-.454-.2a.02.02,0,0,0-.006-.012.094.094,0,0,1-.023-.044.062.062,0,0,1,.015-.045c.011-.012.027-.02.038-.033s.019-.03.03-.044a.086.086,0,0,1,.044-.028.164.164,0,0,1,.032,0c-.027.028-.049.076-.026.11h0l-.006,0a.243.243,0,0,1-.014.02c-.013.013-.026.012-.043.015a.034.034,0,0,0-.025.017.058.058,0,0,0,0,.037.046.046,0,0,1-.008.025C359.076,253.463,359.079,253.459,359.079,253.452Zm-.041.15v-.011l.007,0h0a.011.011,0,0,1,.011.006l.011.013a.036.036,0,0,0,.019.012.053.053,0,0,1-.026-.007l-.012-.006C359.046,253.608,359.041,253.608,359.038,253.6Zm.009.04h0c0-.01-.014-.021-.007-.031l0,0,.01,0,.01.006.011,0A.043.043,0,0,1,359.047,253.642Zm.079.094a.129.129,0,0,1-.044,0,.048.048,0,0,1-.036-.061.063.063,0,0,0,0-.027h0a.047.047,0,0,0,.031-.018h0a.026.026,0,0,0,.023-.006h0l0,0c-.018.008-.03-.01-.04-.022l-.008-.008-.016,0h0c0-.007.011-.011.007-.02a.055.055,0,0,0-.017-.02c-.013-.017.014-.03.024-.039a.219.219,0,0,0,.025-.028.049.049,0,0,0,.013-.028c0-.013,0-.028,0-.04a.039.039,0,0,1,.017-.014l.015,0a.048.048,0,0,0,.026-.007.069.069,0,0,0,.02-.022l0-.006c.007,0,.011,0,.015.006s.01.011.015.016a.116.116,0,0,1,.021.033.053.053,0,0,1,0,.041c0,.011-.012.02-.015.031a.049.049,0,0,0,0,.024.037.037,0,0,1,.005.025c0,.01-.013.016-.018.025a.059.059,0,0,0-.008.032c0,.036.049.041.061.07s-.01.039-.026.049a.185.185,0,0,1-.038.017Zm.036,0,.028,0a.09.09,0,0,0,.021.048c.012.019.023.034.046.037a.418.418,0,0,0,.051,0l.015,0-.016.012-.011.008h0a.037.037,0,0,0-.013.012l0,.013a.026.026,0,0,0,0,.012l0,.006,0,.007a.017.017,0,0,1,0,.014l-.005.005-.007.009,0,.009a.192.192,0,0,1-.052-.007.223.223,0,0,1-.041-.02.2.2,0,0,0-.03-.021l-.007,0A.2.2,0,0,0,359.162,253.737Zm-.158.123a.055.055,0,0,0,.04.009.113.113,0,0,1,.066.012v0h0v0l0,0,0,0h-.01a.051.051,0,0,0-.033.013A.049.049,0,0,1,359,253.86Zm.036.124c-.019-.036.018-.095.059-.087l0,.006s.007.006.011.009l.006,0C359.108,253.953,359.051,253.947,359.04,253.984Zm.181-.007a.249.249,0,0,1-.088-.056l-.012-.009-.013-.008c-.008-.009,0-.01.006-.015v0l0-.006.014,0c.012,0,.022.01.031.017a.156.156,0,0,0,.1.033h0a.03.03,0,0,0,0,.016l-.014.005A.112.112,0,0,0,359.221,253.977Zm.063.036a.221.221,0,0,0-.045,0c-.013,0-.022.013-.035.017a.1.1,0,0,1,.055-.081l.01,0,0,.007,0,0a.1.1,0,0,0-.058.052l0,0a.1.1,0,0,1,.06-.052h0l.01,0,0,.013v.011a.048.048,0,0,0,0,.012l.006.009Zm.158.026-.011.005-.027.009a.107.107,0,0,1-.019,0,.032.032,0,0,1-.019-.007l0,0-.008-.006h-.009a.082.082,0,0,1-.043-.03L359.3,254v-.013l0-.011v-.01a.035.035,0,0,0,.022,0l.005,0,0,0,0,0a.042.042,0,0,0,.022,0l0,.012a.075.075,0,0,0,.043.041l.014,0a.04.04,0,0,0,.034-.007l0-.005v.009l0,.007A.023.023,0,0,1,359.442,254.039Zm.1-.091-.006.008a.09.09,0,0,0,0,.016v0l0,.02-.005.009-.007,0a.14.14,0,0,1-.039.01l-.014,0a.024.024,0,0,1-.015,0v-.008a.07.07,0,0,0,0-.015l.008-.01.013-.005.008,0a.066.066,0,0,0,.017-.012l0-.007a.018.018,0,0,0-.005-.013.069.069,0,0,0,.019-.019v0a.057.057,0,0,1,.018-.017h.005l0,0,.005.007a.022.022,0,0,1,0,.014Zm.055-.041a.22.22,0,0,0-.035.025l-.009.006a.034.034,0,0,0,0-.014l-.006-.008,0,0h0a.022.022,0,0,0,.007-.023v-.007a.092.092,0,0,1,.061.007v0a.1.1,0,0,0-.062-.008l0,0,0-.007a.109.109,0,0,1,.08.031C359.626,253.9,359.613,253.9,359.6,253.907Z" fill="#1e120d"/>
                    <path id="Trazado_41129" data-name="Trazado 41129" d="M359.558,253.868l0,.007,0,0a.1.1,0,0,1,.062.008v0a.092.092,0,0,0-.061-.007v.007a.022.022,0,0,1-.007.023h0l0,0,.006.008a.034.034,0,0,1,0,.014l.009-.006a.22.22,0,0,1,.035-.025c.012-.005.025,0,.037-.008A.109.109,0,0,0,359.558,253.868Z" fill="#a1c858"/>
                    <path id="Trazado_41130" data-name="Trazado 41130" d="M359.634,253.724a.03.03,0,0,0,.024,0s.013,0,.011-.012-.008-.008-.014-.008a.026.026,0,0,0-.019.01h0Z" fill="#99ad49"/>
                    <path id="Trazado_41131" data-name="Trazado 41131" d="M359.61,253.771v0a.047.047,0,0,0,.028.005l.01-.007v-.006a.017.017,0,0,0-.017-.009.034.034,0,0,0-.022.013Z" fill="#99ad49"/>
                    <path id="Trazado_41132" data-name="Trazado 41132" d="M359.651,253.675a.025.025,0,0,0,.021,0s.012,0,.011-.011-.006-.008-.011-.008a.02.02,0,0,0-.019.011h0v0Z" fill="#99ad49"/>
                    <path id="Trazado_41133" data-name="Trazado 41133" d="M359.577,253.826v0a.045.045,0,0,0,.032.006l.011-.007v-.007a.02.02,0,0,0-.019-.009.04.04,0,0,0-.024.014Z" fill="#99ad49"/>
                    <path id="Trazado_41134" data-name="Trazado 41134" d="M359.676,253.633s.013,0,.013-.011a.009.009,0,0,0-.009-.008.021.021,0,0,0-.018.009l0,.006A.025.025,0,0,0,359.676,253.633Z" fill="#99ad49"/>
                    <path id="Trazado_41135" data-name="Trazado 41135" d="M359.547,253.919l0,0h-.005a.057.057,0,0,0-.018.017v0a.069.069,0,0,1-.019.019.018.018,0,0,1,.005.013l0,.007a.066.066,0,0,1-.017.012l-.008,0-.013.005-.008.01a.07.07,0,0,1,0,.015v.008a.024.024,0,0,0,.015,0l.014,0a.14.14,0,0,0,.039-.01l.007,0,.005-.009,0-.02v0a.09.09,0,0,1,0-.016l.006-.008.006-.008a.022.022,0,0,0,0-.014Z" fill="#e4003b"/>
                    <path id="Trazado_41136" data-name="Trazado 41136" d="M359.664,253.583h0v0l.011,0a.016.016,0,0,0,.013-.01.008.008,0,0,0-.007-.008.017.017,0,0,0-.015.008l0,0v0Z" fill="#99ad49"/>
                    <path id="Trazado_41137" data-name="Trazado 41137" d="M359.6,253.709l.008.008a.034.034,0,0,0,.023.005l0,0h0a.03.03,0,0,0-.016-.019h0a.014.014,0,0,0-.016,0h0l0,0v0Z" fill="#99ad49"/>
                    <path id="Trazado_41138" data-name="Trazado 41138" d="M359.631,253.652a.013.013,0,0,0-.014.005c0,.006.006.012.009.014a.028.028,0,0,0,.02,0v0h0A.028.028,0,0,0,359.631,253.652Z" fill="#99ad49"/>
                    <path id="Trazado_41139" data-name="Trazado 41139" d="M359.6,253.745l-.007,0h-.011l0,0a.014.014,0,0,0,0,.012.04.04,0,0,0,.024.015l0,0A.032.032,0,0,0,359.6,253.745Z" fill="#99ad49"/>
                    <path id="Trazado_41140" data-name="Trazado 41140" d="M359.643,253.613h-.007s-.009,0-.009.009.009.009.013.01a.027.027,0,0,0,.015,0v-.007Z" fill="#99ad49"/>
                    <path id="Trazado_41141" data-name="Trazado 41141" d="M359.547,253.861h0a.065.065,0,0,1-.017-.016.055.055,0,0,0-.022-.018.033.033,0,0,0-.023,0l-.005.013.013,0a.072.072,0,0,1,.02.019.121.121,0,0,1,.012.019.038.038,0,0,1,0,.024.058.058,0,0,1-.019.025h0l-.011.011,0,0a.049.049,0,0,0,.018-.017.05.05,0,0,1,.022-.021h.009a.017.017,0,0,0,.005-.019v-.013l0-.005v-.005Z" fill="#e4003b"/>
                    <path id="Trazado_41142" data-name="Trazado 41142" d="M359.66,253.543h0l.006,0c.008,0,.013-.006.014-.01a.006.006,0,0,0-.005-.007s-.01,0-.013.005l0,.007Z" fill="#99ad49"/>
                    <path id="Trazado_41143" data-name="Trazado 41143" d="M359.568,253.8l0,.007-.006.012.012,0,0-.005A.043.043,0,0,0,359.568,253.8Z" fill="#99ad49"/>
                    <path id="Trazado_41144" data-name="Trazado 41144" d="M359.636,253.579v.01s.01,0,.016,0l.006-.005v-.007l0,0A.018.018,0,0,0,359.636,253.579Z" fill="#99ad49"/>
                    <path id="Trazado_41145" data-name="Trazado 41145" d="M359.529,253.829l-.005,0,.009.01,0,0a.111.111,0,0,0,.024-.037l.007-.015a.125.125,0,0,1-.027.029Z" fill="#a1c858"/>
                    <path id="Trazado_41146" data-name="Trazado 41146" d="M359.663,253.464l.014-.006.01.011-.006-.014.011-.01-.014.006-.01-.011.006.014Z" fill="#1e120d"/>
                    <path id="Trazado_41147" data-name="Trazado 41147" d="M359.413,254.018a.035.035,0,0,0,.03-.007l.007-.009.01-.011a.032.032,0,0,1,.015-.006l.007,0a.031.031,0,0,0,.015-.01l0,0,0-.011,0-.005,0,.009h0v0l-.007.006a.017.017,0,0,1-.012,0l-.005,0a.158.158,0,0,1-.024.02.052.052,0,0,1-.035.009l-.009,0a.051.051,0,0,1-.021-.015l-.01-.016h-.009a.02.02,0,0,0,0,.01A.073.073,0,0,0,359.413,254.018Z" fill="#e4003b"/>
                    <path id="Trazado_41148" data-name="Trazado 41148" d="M359.5,253.932a.056.056,0,0,0,.018-.023.035.035,0,0,0,0-.021.08.08,0,0,0-.012-.018.062.062,0,0,0-.018-.018.023.023,0,0,0-.019,0,.122.122,0,0,1,.016.016h0a.069.069,0,0,1,.013.017.055.055,0,0,1,.008.019.049.049,0,0,1-.008.028.111.111,0,0,1-.017.021l-.015.015h0a.013.013,0,0,0,.013,0l0,0v0h0a.041.041,0,0,1,.018-.027Z" fill="#e4003b"/>
                    <path id="Trazado_41149" data-name="Trazado 41149" d="M359.637,253.543l-.005,0,0,0a.014.014,0,0,0,.014,0l.006,0,0-.006h-.014Z" fill="#99ad49"/>
                    <path id="Trazado_41150" data-name="Trazado 41150" d="M359.543,253.81l0,0,.015-.017h0Z" fill="#99ad49"/>
                    <path id="Trazado_41151" data-name="Trazado 41151" d="M359.509,253.816v.006l.005,0a.123.123,0,0,0,.052-.049.238.238,0,0,1-.026.018A.113.113,0,0,0,359.509,253.816Z" fill="#a1c858"/>
                    <path id="Trazado_41152" data-name="Trazado 41152" d="M359.517,253.794a.1.1,0,0,0,.025-.015.175.175,0,0,0,.03-.036.253.253,0,0,1-.036.029l-.024.019v.005Z" fill="#a1c858"/>
                    <path id="Trazado_41153" data-name="Trazado 41153" d="M359.645,253.5h0v0h0c.006,0,.012,0,.014-.009v0l0,0-.011,0,0,.008Z" fill="#99ad49"/>
                    <path id="Trazado_41154" data-name="Trazado 41154" d="M359.379,253.978a.042.042,0,0,0,.06.007.142.142,0,0,0,.026-.023l.015-.015a.175.175,0,0,0,.017-.021.04.04,0,0,0,.006-.024.048.048,0,0,0-.007-.018l0-.007a.035.035,0,0,1-.012.026l-.024.025-.007.006-.009,0a.035.035,0,0,1-.026-.01h0a.1.1,0,0,0-.023,0,.065.065,0,0,0-.023.009l0,0v.01A.087.087,0,0,0,359.379,253.978Z" fill="#e4003b"/>
                    <path id="Trazado_41155" data-name="Trazado 41155" d="M359.6,253.661a.258.258,0,0,1-.032.026.132.132,0,0,0-.046.045v.006a.09.09,0,0,0,.039-.023.148.148,0,0,0,.031-.039Z" fill="#a1c858"/>
                    <path id="Trazado_41156" data-name="Trazado 41156" d="M359.529,253.7a.088.088,0,0,0,.035-.024l.007,0a.224.224,0,0,0,.032-.037l.008-.015a.285.285,0,0,1-.033.025.127.127,0,0,0-.048.047Z" fill="#a1c858"/>
                    <path id="Trazado_41157" data-name="Trazado 41157" d="M359.514,253.763l0,.014a.082.082,0,0,0,.04-.03l0,0a.182.182,0,0,1,.034-.034A.155.155,0,0,0,359.514,253.763Z" fill="#a1c858"/>
                    <path id="Trazado_41158" data-name="Trazado 41158" d="M359.451,254.019v-.009l0,.005a.04.04,0,0,1-.034.007l-.014,0a.075.075,0,0,1-.043-.041l0-.012a.042.042,0,0,1-.022,0l0,0,0,0-.005,0a.035.035,0,0,1-.022,0v.01l0,.011V254l.005.008a.082.082,0,0,0,.043.03h.009l.008.006,0,0a.032.032,0,0,0,.019.007.107.107,0,0,0,.019,0l.027-.009.011-.005a.023.023,0,0,0,.007-.013Z" fill="#e4003b"/>
                    <path id="Trazado_41159" data-name="Trazado 41159" d="M359.623,253.511v.005l.005,0c.005,0,.009-.005.013-.009v0h-.01Z" fill="#99ad49"/>
                    <path id="Trazado_41160" data-name="Trazado 41160" d="M359.59,253.618a.172.172,0,0,1-.049.036h0l-.006.019a.154.154,0,0,1,.043-.037l.014-.01v-.009Z" fill="#422918"/>
                    <path id="Trazado_41161" data-name="Trazado 41161" d="M359.663,253.415h0l0,0h0Z" fill="#1e120d"/>
                    <path id="Trazado_41162" data-name="Trazado 41162" d="M359.589,253.6l-.009.006a.1.1,0,0,0-.037.043.176.176,0,0,0,.043-.033.181.181,0,0,0,.032-.035A.132.132,0,0,1,359.589,253.6Z" fill="#a1c858"/>
                    <path id="Trazado_41163" data-name="Trazado 41163" d="M359.623,253.549a.156.156,0,0,0-.066.062h0a.2.2,0,0,0,.043-.038Z" fill="#a1c858"/>
                    <path id="Trazado_41164" data-name="Trazado 41164" d="M359.457,253.9v0h0l-.007.012a.021.021,0,0,1-.01.011l-.009,0h-.01a.028.028,0,0,0,.02.006h.007l.005,0,.025-.026a.028.028,0,0,0,.011-.021l0-.008a.06.06,0,0,0-.039-.027h-.008l0,0h0l.011,0,.009,0a.027.027,0,0,1,.008.036Z" fill="#e4003b"/>
                    <path id="Trazado_41165" data-name="Trazado 41165" d="M359.674,253.315l.01,0,.008.008,0-.01.008-.008-.01,0-.008-.008,0,.01Z" fill="#1e120d"/>
                    <path id="Trazado_41166" data-name="Trazado 41166" d="M359.576,253.6h0l.01-.006h0v0Z" fill="#422918"/>
                    <path id="Trazado_41167" data-name="Trazado 41167" d="M359.457,253.761a.116.116,0,0,0,.042.06h0v-.009a.111.111,0,0,0-.025-.028A.233.233,0,0,1,359.457,253.761Z" fill="#a1c858"/>
                    <path id="Trazado_41168" data-name="Trazado 41168" d="M359.509,253.8h0Z" fill="#a1c858"/>
                    <path id="Trazado_41169" data-name="Trazado 41169" d="M359.635,253.458v-.007h0l-.008,0a.016.016,0,0,0,0,.012A.029.029,0,0,0,359.635,253.458Z" fill="#99ad49"/>
                    <path id="Trazado_41170" data-name="Trazado 41170" d="M359.663,253.361l0,0Z" fill="#1e120d"/>
                    <path id="Trazado_41171" data-name="Trazado 41171" d="M359.462,253.735a.137.137,0,0,0,.019.036.108.108,0,0,0,.019.018h0l0,0v-.005l-.018-.021A.242.242,0,0,1,359.462,253.735Z" fill="#a1c858"/>
                    <path id="Trazado_41172" data-name="Trazado 41172" d="M359.593,253.521l-.015.023a.257.257,0,0,0-.016.044.1.1,0,0,0,.026-.036.2.2,0,0,0,.013-.043Z" fill="#a1c858"/>
                    <path id="Trazado_41173" data-name="Trazado 41173" d="M359.485,253.824v0h0Z" fill="#a1c858"/>
                    <path id="Trazado_41174" data-name="Trazado 41174" d="M359.476,253.727l0,0a.135.135,0,0,0,.028.04v-.014a.147.147,0,0,0-.05-.07A.184.184,0,0,1,359.476,253.727Z" fill="#a1c858"/>
                    <path id="Trazado_41175" data-name="Trazado 41175" d="M359.605,253.477v.009h0l.005,0a.008.008,0,1,0-.006-.008Z" fill="#99ad49"/>
                    <path id="Trazado_41176" data-name="Trazado 41176" d="M359.422,253.8a.033.033,0,0,1-.014,0,.051.051,0,0,1-.017-.007l-.006,0a.022.022,0,0,0-.021,0l-.005,0a.02.02,0,0,0,0,.023l0,.005.007.008a.038.038,0,0,1,.021,0l.031,0,.006,0,0,0h.012a.065.065,0,0,1,.021.007l.007,0,.007-.015v-.006a.016.016,0,0,0-.008-.01l-.014-.005a.123.123,0,0,0-.033,0Z" fill="#e4003b"/>
                    <path id="Trazado_41177" data-name="Trazado 41177" d="M359.43,253.85h0l-.014,0a.026.026,0,0,0-.015,0l-.006.005a.072.072,0,0,0-.013.048l0,.008.005,0a.079.079,0,0,0,.042.01h.007l.009-.009v0l.006-.011a.024.024,0,0,0,0-.012v0l0-.009-.007,0-.028-.013h0l-.012.015,0,.006,0,.01v0l.007.009v0l0,0,0,0,.019,0h.007l0-.005,0-.005h-.007l-.01,0-.014-.008,0-.011.006-.007a.02.02,0,0,1,.023,0l0,0,0,0,0,0s.008,0,.008.007v.006l0,0h0l0,.006v.006l-.005,0h-.008l-.02,0h0l0,0,0-.005h0l-.005-.008,0,0a.022.022,0,0,1-.005-.014l0-.008.012-.015,0,0h.007l.028.013.009.006,0,.012v0h0a.02.02,0,0,0-.006-.027l-.009,0-.006,0-.006,0Z" fill="#e4003b"/>
                    <path id="Trazado_41178" data-name="Trazado 41178" d="M359.553,253.618l0,.011a.08.08,0,0,1,.015-.017Z" fill="#422918"/>
                    <path id="Trazado_41179" data-name="Trazado 41179" d="M359.489,253.672a.307.307,0,0,1-.017-.031l0,.014a.147.147,0,0,0,.013.042.085.085,0,0,0,.025.032v0A.1.1,0,0,0,359.489,253.672Z" fill="#a1c858"/>
                    <path id="Trazado_41180" data-name="Trazado 41180" d="M359.193,253.356l.016.018a.162.162,0,0,1,.027.041.065.065,0,0,1,0,.034c0,.016-.018.029-.019.045s.014.031.005.047l-.011.015a.053.053,0,0,0-.011.024.037.037,0,0,0,.008.033c.019.021.07.039.05.076a.083.083,0,0,1-.036.031l-.018.008-.01,0h0v.005a.149.149,0,0,0,.024.049.077.077,0,0,0,.017.019.056.056,0,0,0,.042.008.163.163,0,0,1,.038,0l.013,0h0a.035.035,0,0,1,.02,0h0a.021.021,0,0,1,0-.02l.006,0a.025.025,0,0,1,.025,0l.006,0a.07.07,0,0,0,.016.007h.016a.141.141,0,0,1,.029,0l0-.005,0-.019,0-.015,0,0,0,0a.168.168,0,0,0,.024.046l0,0a.129.129,0,0,1-.028-.056l0,0,0,0a.111.111,0,0,0,.026.031l.007.007h0l-.011-.012a.168.168,0,0,1-.026-.054v0h0a.193.193,0,0,0,.033.046l0,0v0a.165.165,0,0,1-.019-.03l0,0a.172.172,0,0,0-.026-.048v0h0a.147.147,0,0,1,.035.031l0,0,0-.007a.155.155,0,0,1-.014-.043l0-.026,0,0,0,0a.136.136,0,0,0,.02.04.156.156,0,0,1,.016.028l.006,0a.115.115,0,0,1-.02-.042.177.177,0,0,1-.007-.05.144.144,0,0,1,0-.029l0,0,0,0h0a.148.148,0,0,0,.015.048.155.155,0,0,1,.015.056l.006-.02h0v0a.17.17,0,0,1-.009-.059.188.188,0,0,1,.007-.061l0,0,0,0h0a.14.14,0,0,0,.005.046l0,.011a.1.1,0,0,1,0,.035l.005-.012v0h0a.168.168,0,0,1,0-.059.209.209,0,0,0,0-.043l0,0,0,0,0,.007h0a.125.125,0,0,0,.041-.053.1.1,0,0,0,0-.057.14.14,0,0,0-.048-.075.23.23,0,0,0-.068-.039l-.027-.008a.29.29,0,0,1-.041.363h0v0a.466.466,0,0,0,.027-.193.446.446,0,0,0-.045-.186h0c-.005-.007-.009-.015-.014-.021a.1.1,0,0,0-.044-.032.1.1,0,0,0-.065,0,.177.177,0,0,1,.04.094.661.661,0,0,1,.018.125h0a.853.853,0,0,0-.016-.113.393.393,0,0,0-.016-.059.085.085,0,0,0-.026-.046h0a.1.1,0,0,0-.028.014.109.109,0,0,1-.016.014C359.188,253.267,359.16,253.323,359.193,253.356Z" fill="#422918"/>
                    <path id="Trazado_41181" data-name="Trazado 41181" d="M359.507,253.624a.3.3,0,0,1-.013-.039v.017a.132.132,0,0,0,.006.048.118.118,0,0,0,.022.044v0A.119.119,0,0,0,359.507,253.624Z" fill="#a1c858"/>
                    <path id="Trazado_41182" data-name="Trazado 41182" d="M359.419,253.876a.019.019,0,0,1,.016.013v0h.008v-.005l-.005,0-.005,0,0,0,0,0,0,0a.02.02,0,0,0-.013,0l0,0,0,.006.013.008.009,0v0a.015.015,0,0,0-.013-.011l0,0Z" fill="#e4003b"/>
                    <path id="Trazado_41183" data-name="Trazado 41183" d="M359.536,253.584a.185.185,0,0,1-.006-.034.259.259,0,0,0,0,.047.2.2,0,0,0,.006.054.091.091,0,0,0,.005-.056Z" fill="#a1c858"/>
                    <path id="Trazado_41184" data-name="Trazado 41184" d="M359.556,253.527a.167.167,0,0,1,.005.049l.008-.024Z" fill="#422918"/>
                    <path id="Trazado_41185" data-name="Trazado 41185" d="M359.62,253.4l0,0Z" fill="#1e120d"/>
                    <path id="Trazado_41186" data-name="Trazado 41186" d="M359.55,253.555a.175.175,0,0,0,0,.051.145.145,0,0,0,0-.08C359.551,253.536,359.55,253.546,359.55,253.555Z" fill="#a1c858"/>
                    <path id="Trazado_41187" data-name="Trazado 41187" d="M359.453,253.78l0,.016,0,.007.009,0A.136.136,0,0,1,359.453,253.78Z" fill="#a1c858"/>
                    <path id="Trazado_41188" data-name="Trazado 41188" d="M359.629,253.313l0,0Z" fill="#1e120d"/>
                    <path id="Trazado_41189" data-name="Trazado 41189" d="M359.428,253.84h0l-.031,0a.045.045,0,0,0-.02,0,.036.036,0,0,0-.012.01.089.089,0,0,0-.015.029.07.07,0,0,0,0,.014l.005.015.015.028h0a.072.072,0,0,1,.024-.01h.008l-.011-.005-.007-.006,0-.009a.076.076,0,0,1,.014-.052l.007-.006a.028.028,0,0,1,.018,0l.012,0h0Z" fill="#e4003b"/>
                    <path id="Trazado_41190" data-name="Trazado 41190" d="M359.6,253.348l0,0Z" fill="#1e120d"/>
                    <path id="Trazado_41191" data-name="Trazado 41191" d="M359.364,253.96l0-.01a.014.014,0,0,1,0-.014h0l-.015-.029a.048.048,0,0,1-.005-.017.04.04,0,0,1,0-.015l0-.011a.013.013,0,0,0-.012,0,.051.051,0,0,0-.006.015.035.035,0,0,1-.006.017l-.007.008-.007.007a.019.019,0,0,0,0,.015l.008.014a.053.053,0,0,0,.013.013A.057.057,0,0,0,359.364,253.96Z" fill="#e4003b"/>
                    <path id="Trazado_41192" data-name="Trazado 41192" d="M359.561,253.314l0,0Z" fill="#1e120d"/>
                    <path id="Trazado_41193" data-name="Trazado 41193" d="M359.281,253.909l-.007.008a.031.031,0,0,0,.008.04l.012.005a.036.036,0,0,0,.022-.005h0l-.008-.009a.048.048,0,0,1-.008-.016.022.022,0,0,1,0-.018l.008-.009.006-.006a.044.044,0,0,0,.006-.016.036.036,0,0,1,.007-.017.016.016,0,0,1,.016-.006l.01-.016.01-.009,0-.005,0,0v0l0,0-.01-.006a.033.033,0,0,0-.017,0,.154.154,0,0,0-.021.014l-.011.009h0a.035.035,0,0,0-.011.01l0,.011v.01l0,.006,0,.007a.023.023,0,0,1,0,.019Z" fill="#e4003b"/>
                    <path id="Trazado_41194" data-name="Trazado 41194" d="M359.293,254a.048.048,0,0,1,0-.012v-.011l0-.013-.01,0h0a.1.1,0,0,0-.06.052l0,0a.1.1,0,0,1,.058-.052l0,0,0-.007-.01,0a.1.1,0,0,0-.055.081c.013,0,.022-.014.035-.017a.221.221,0,0,1,.045,0l.015,0Z" fill="#a1c858"/>
                    <path id="Trazado_41195" data-name="Trazado 41195" d="M359.535,253.283l.014-.006.01.011-.006-.014.011-.01-.014.006-.01-.011.006.014Z" fill="#1e120d"/>
                    <path id="Trazado_41196" data-name="Trazado 41196" d="M359.439,253.457a.464.464,0,0,1-.024.181.291.291,0,0,0,.03-.354h-.005c-.013,0-.026,0-.039-.008h0A.462.462,0,0,1,359.439,253.457Z" fill="#e4003b"/>
                    <path id="Trazado_41197" data-name="Trazado 41197" d="M359.136,253.874l.007,0a.2.2,0,0,1,.03.021.223.223,0,0,0,.041.02.192.192,0,0,0,.052.007l0-.009.007-.009.005-.005a.017.017,0,0,0,0-.014l0-.007,0-.006a.026.026,0,0,1,0-.012l0-.013a.037.037,0,0,1,.013-.012h0l.011-.008.016-.012-.015,0a.418.418,0,0,1-.051,0c-.023,0-.034-.018-.046-.037a.09.09,0,0,1-.021-.048l-.028,0A.2.2,0,0,1,359.136,253.874Z" fill="#fcd1a4"/>
                    <path id="Trazado_41198" data-name="Trazado 41198" d="M359.268,253.944a.03.03,0,0,1,0-.016h0a.156.156,0,0,1-.1-.033c-.009-.007-.019-.017-.031-.017l-.014,0,0,.006v0s-.014.006-.006.015l.013.008.012.009a.249.249,0,0,0,.088.056.112.112,0,0,1,.033-.028Z" fill="#e4003b"/>
                    <path id="Trazado_41199" data-name="Trazado 41199" d="M359.525,253.235l0,0Z" fill="#1e120d"/>
                    <path id="Trazado_41200" data-name="Trazado 41200" d="M359.492,253.281l0-.005Z" fill="#1e120d"/>
                    <path id="Trazado_41201" data-name="Trazado 41201" d="M359.472,253.238l0,0Z" fill="#1e120d"/>
                    <path id="Trazado_41202" data-name="Trazado 41202" d="M359.419,253.264h0l0,0h0Z" fill="#1e120d"/>
                    <path id="Trazado_41203" data-name="Trazado 41203" d="M359.23,253.711c.016-.01.035-.029.026-.049s-.059-.034-.061-.07a.059.059,0,0,1,.008-.032c.005-.009.015-.015.018-.025a.037.037,0,0,0-.005-.025.049.049,0,0,1,0-.024c0-.011.011-.02.015-.031a.053.053,0,0,0,0-.041.116.116,0,0,0-.021-.033c-.005,0-.01-.012-.015-.016s-.008-.011-.015-.006l0,.006a.069.069,0,0,1-.02.022.048.048,0,0,1-.026.007l-.015,0a.039.039,0,0,0-.017.014c-.009.012,0,.027,0,.04a.049.049,0,0,1-.013.028.219.219,0,0,1-.025.028c-.01.009-.037.022-.024.039a.055.055,0,0,1,.017.02c0,.009,0,.013-.007.02h0l.016,0,.008.008c.01.012.022.03.04.022l0,0h0a.026.026,0,0,1-.023.006h0a.047.047,0,0,1-.031.018h0a.063.063,0,0,1,0,.027.048.048,0,0,0,.036.061.129.129,0,0,0,.044,0l.066-.008A.185.185,0,0,0,359.23,253.711Zm-.151-.145a.015.015,0,0,1-.016,0c-.009,0-.008-.017-.018-.02l0,0c.01,0,.009.014.017.02a.012.012,0,0,0,.018-.007.017.017,0,0,0-.005-.017l0,0A.02.02,0,0,1,359.079,253.566Zm.109-.061,0-.008h-.008l0,.008h0l0-.009h-.009l0,.007h0l0-.007h0a.1.1,0,0,1-.053-.022l0,0a.1.1,0,0,0,.083.019v0h0l0,.007Zm.029-.038h0a.3.3,0,0,0-.029-.034.058.058,0,0,0-.051-.011c-.005,0-.015.007-.018,0s.036-.014.043-.012a.109.109,0,0,1,.058.056h0Z" fill="#fcd1a4"/>
                    <path id="Trazado_41204" data-name="Trazado 41204" d="M359.422,253.185l.01,0,.007.008,0-.01.008-.008-.01,0-.008-.008,0,.01Z" fill="#1e120d"/>
                    <path id="Trazado_41205" data-name="Trazado 41205" d="M359.414,253.233l0,0Z" fill="#1e120d"/>
                    <path id="Trazado_41206" data-name="Trazado 41206" d="M359.384,253.231l0,0Z" fill="#1e120d"/>
                    <path id="Trazado_41207" data-name="Trazado 41207" d="M359.112,253.912s-.009-.005-.011-.009l0-.006c-.041-.008-.078.051-.059.087.011-.037.068-.031.078-.068Z" fill="#e4003b"/>
                    <path id="Trazado_41208" data-name="Trazado 41208" d="M359.091,253.892h.01l0,0,0,0v0h0v0a.113.113,0,0,0-.066-.012.055.055,0,0,1-.04-.009.049.049,0,0,0,.054.045A.051.051,0,0,1,359.091,253.892Z" fill="#e4003b"/>
                    <path id="Trazado_41209" data-name="Trazado 41209" d="M359.359,253.2l0,0Z" fill="#1e120d"/>
                    <path id="Trazado_41210" data-name="Trazado 41210" d="M359.307,253.188l.014-.006.01.011-.006-.014.011-.01-.014.006-.01-.011.006.014Z" fill="#1e120d"/>
                    <path id="Trazado_41211" data-name="Trazado 41211" d="M359.218,253.465h0a.109.109,0,0,0-.058-.056c-.007,0-.049,0-.043.012s.013,0,.018,0a.058.058,0,0,1,.051.011.3.3,0,0,1,.029.034h0v0Zm-.059-.048a.076.076,0,0,0-.026,0h-.006s0,0,.007-.005h.017a.058.058,0,0,1,.034.017A.056.056,0,0,0,359.159,253.417Z" fill="#1e120d"/>
                    <path id="Trazado_41212" data-name="Trazado 41212" d="M359.19,253.5h0v0a.1.1,0,0,1-.083-.019l0,0a.1.1,0,0,0,.053.022h0l0,.007h0l0-.007h.009l0,.009h0l0-.008h.008l0,.008,0,0Z" fill="#1e120d"/>
                    <path id="Trazado_41213" data-name="Trazado 41213" d="M359.151,253.411h-.017s-.011,0-.007.005h.006a.076.076,0,0,1,.026,0,.056.056,0,0,1,.026.011A.058.058,0,0,0,359.151,253.411Z" fill="#422918"/>
                    <path id="Trazado_41214" data-name="Trazado 41214" d="M359.051,253.611l.012.006a.053.053,0,0,0,.026.007.036.036,0,0,1-.019-.012l-.011-.013a.011.011,0,0,0-.011-.006h0l-.007,0v.011C359.041,253.608,359.046,253.608,359.051,253.611Z" fill="#e4003b"/>
                    <path id="Trazado_41215" data-name="Trazado 41215" d="M359.088,253.445a.058.058,0,0,1,0-.037.034.034,0,0,1,.025-.017c.017,0,.03,0,.043-.015a.243.243,0,0,0,.014-.02l.006,0h0c-.023-.034,0-.082.026-.11a.164.164,0,0,0-.032,0,.086.086,0,0,0-.044.028c-.011.014-.018.031-.03.044s-.027.021-.038.033a.062.062,0,0,0-.015.045.094.094,0,0,0,.023.044.02.02,0,0,1,.006.012c0,.007,0,.011,0,.018A.046.046,0,0,0,359.088,253.445Z" fill="#422918"/>
                    <path id="Trazado_41216" data-name="Trazado 41216" d="M359.075,253.627l-.011,0-.01-.006-.01,0,0,0c-.007.01,0,.021.007.031h0A.043.043,0,0,0,359.075,253.627Z" fill="#e4003b"/>
                    <path id="Trazado_41217" data-name="Trazado 41217" d="M359.08,253.535l0,0a.017.017,0,0,1,.005.017.012.012,0,0,1-.018.007c-.008-.006-.007-.017-.017-.02l0,0c.01,0,.009.016.018.02a.015.015,0,0,0,.016,0A.02.02,0,0,0,359.08,253.535Z" fill="#1e120d"/>
                  </g>
                </g>
              </g>
            </g>
            <rect id="Rectángulo_4494" data-name="Rectángulo 4494" width="42.038" height="2.952" rx="0.809" transform="matrix(0.999, 0.033, -0.033, 0.999, 369.538, 244.96)" fill="#58ace0"/>
            <rect id="Rectángulo_4495" data-name="Rectángulo 4495" width="32.888" height="1.884" rx="0.809" transform="matrix(0.999, 0.033, -0.033, 0.999, 369.382, 249.659)" fill="#aabbc1"/>
          </g>
          <g id="Grupo_37134" data-name="Grupo 37134">
            <g id="Grupo_37133" data-name="Grupo 37133">
              <g id="Grupo_37132" data-name="Grupo 37132" clip-path="url(#clip-path-5)">
                <circle id="Elipse_731" data-name="Elipse 731" cx="5.017" cy="5.017" r="5.017" transform="translate(356.416 257.166)" fill="#57cecb"/>
                <g id="Grupo_37131" data-name="Grupo 37131">
                  <path id="Trazado_41218" data-name="Trazado 41218" d="M358.635,260.964s-.3,1.55.328,2.145l4.209-.047.378-1.734Z" fill="#452319"/>
                  <path id="Trazado_41219" data-name="Trazado 41219" d="M362.2,265.414l-2.314-.18,1.053,1.773Z" fill="#1b2b3f"/>
                  <path id="Trazado_41220" data-name="Trazado 41220" d="M364.857,266.764s2.778,3.222,3.865,2.43c.974-.711.938-3.773.938-3.773l.648-.132s.307,4.788-1.687,5.143-5.082-2.612-5.082-2.612Z" fill="#f7af80"/>
                  <path id="Trazado_41221" data-name="Trazado 41221" d="M354.515,275.721a11.6,11.6,0,0,1,.838-7.212,5.749,5.749,0,0,1,1.555-1.836l1.63.449a9.9,9.9,0,0,0-3.192,5.1,12.748,12.748,0,0,0-.222,3.4Z" fill="#f7af80"/>
                  <g id="Grupo_37120" data-name="Grupo 37120">
                    <circle id="Elipse_732" data-name="Elipse 732" cx="0.399" cy="0.399" r="0.399" transform="translate(358.598 261.675)" fill="#f7ac7c"/>
                    <circle id="Elipse_733" data-name="Elipse 733" cx="0.234" cy="0.234" r="0.234" transform="translate(358.763 261.84)" fill="#ca9066"/>
                  </g>
                  <g id="Grupo_37121" data-name="Grupo 37121">
                    <circle id="Elipse_734" data-name="Elipse 734" cx="0.399" cy="0.399" r="0.399" transform="translate(362.712 261.771)" fill="#f7ac7c"/>
                    <circle id="Elipse_735" data-name="Elipse 735" cx="0.234" cy="0.234" r="0.234" transform="translate(362.876 261.936)" fill="#ca9066"/>
                  </g>
                  <path id="Trazado_41222" data-name="Trazado 41222" d="M360.541,265.885l-2.566.327s-.886.459.011,1.491l.565,5.616a10.438,10.438,0,0,0,4.966-.1l.631-5.2a.986.986,0,0,0,.057-1.7Z" fill="#f7af80"/>
                  <path id="Trazado_41223" data-name="Trazado 41223" d="M360.774,275.166l-2.98-1.312s.165-3.489,3.062-3.516,2.934,3.716,2.934,3.716Z" fill="#1e1e1d"/>
                  <path id="Trazado_41224" data-name="Trazado 41224" d="M359.781,267.209c-.165-.154-1.765-1-1.765-1a4.262,4.262,0,0,1,3.054-.614,6.982,6.982,0,0,1,3.176.716l-2.144,1.193Z" fill="#f7af80"/>
                  <path id="Trazado_41225" data-name="Trazado 41225" d="M362.03,264.914l-.047,1.4-2.025-.019.243-1.488Z" fill="#f7af80"/>
                  <path id="Trazado_41226" data-name="Trazado 41226" d="M362.008,265.574s-1.3.582-1.946.092l.14-.858,1.833-.059Z" fill="#eb9862"/>
                  <path id="Trazado_41227" data-name="Trazado 41227" d="M362.136,265.573c.628.155.634.156.832.209a19.832,19.832,0,0,1,2.117.845l-1.268,5.845s.637,1.654-.069,2.075-5.211.3-5.856.005-.179-2.255-.071-2.664-.935-5.349-.935-5.349a8.641,8.641,0,0,1,2.305-.921l.7-.132,1.082,1.453Z" fill="#364f6b"/>
                  <path id="Trazado_41228" data-name="Trazado 41228" d="M359.976,275.9a8.313,8.313,0,0,1-2.676-.511l.388-4.713,6.548-.14c-.025.8-.019,5.177-.019,5.177a24.492,24.492,0,0,1-2.528.214Z" fill="#364f6b"/>
                  <path id="Trazado_41229" data-name="Trazado 41229" d="M360.714,268.888l-.005-2.305.265.356.3-.338-.022,2.3,0,.05-.252-.311Z" fill="#1b2b3f"/>
                  <path id="Trazado_41230" data-name="Trazado 41230" d="M358.97,263.367c.075.671.341.838.341.838l.715.642a1.449,1.449,0,0,0,1.886.206l.5-.292a1.524,1.524,0,0,0,.768-1.369l-.1-3.01a1.865,1.865,0,0,0-1.946-1.68,1.923,1.923,0,0,0-2.083,1.66Z" fill="#f7ac7c"/>
                  <path id="Trazado_41231" data-name="Trazado 41231" d="M362.334,264.7a1.448,1.448,0,0,1-1.886-.2l-.715-.642a.943.943,0,0,1-.341-.838l.084-3.005a1.825,1.825,0,0,1,.432-.975,1.819,1.819,0,0,0-.854,1.33l-.084,3.005a1.075,1.075,0,0,0,.341.838l.715.642a1.449,1.449,0,0,0,1.886.206l.5-.292a1.6,1.6,0,0,0,.422-.356Z" fill="#eb9862" opacity="0.2"/>
                  <path id="Trazado_41232" data-name="Trazado 41232" d="M360.258,266.984l.546-.307-.921-1.443-.422.781Z" fill="#476782"/>
                  <path id="Trazado_41233" data-name="Trazado 41233" d="M361.661,267.04l-.5-.348,1.04-1.278.38.772Z" fill="#476782"/>
                  <path id="Trazado_41234" data-name="Trazado 41234" d="M360.8,266.676l.17.263-.237-.136-.478.181Z" fill="#3e5c72"/>
                  <path id="Trazado_41235" data-name="Trazado 41235" d="M361.161,266.688l-.187.251.246-.12.442.221Z" fill="#3e5c72"/>
                  <path id="Trazado_41236" data-name="Trazado 41236" d="M356.615,269.553a7.856,7.856,0,0,1,1.7-2.165l-1.427-.849a6.3,6.3,0,0,0-1.767,2.18" fill="#364f6b"/>
                  <path id="Trazado_41237" data-name="Trazado 41237" d="M366.477,268.106c-.483-.464-1.147-1.195-1.392-1.479l-.207-.09-1.587,1.272.135.129a15.411,15.411,0,0,0,1.606,1.311c.083.059.166.117.247.172a6.3,6.3,0,0,0,.762-.654A2.4,2.4,0,0,0,366.477,268.106Z" fill="#364f6b"/>
                  <g id="Grupo_37122" data-name="Grupo 37122">
                    <path id="Trazado_41238" data-name="Trazado 41238" d="M361.608,262.29a1.543,1.543,0,0,1-.166-.275c-.06-.139-.13-.182-.26-.126s-.166,1.141.569,1.206.629-.446.53-.566S361.872,262.626,361.608,262.29Z" fill="#e08d56"/>
                    <path id="Trazado_41239" data-name="Trazado 41239" d="M361.776,263.038c-.633-.056-.694-.868-.616-1.128-.11.161-.1,1.124.591,1.185.387.034.541-.092.585-.236C362.27,262.977,362.11,263.067,361.776,263.038Z" fill="#c77236"/>
                  </g>
                  <path id="Trazado_41240" data-name="Trazado 41240" d="M360.738,260.888s-.622.015-.733.158a1.126,1.126,0,0,0-.165.348l.938-.33Z" fill="#452319"/>
                  <path id="Trazado_41241" data-name="Trazado 41241" d="M362.059,260.948s.621.034.728.181a1.119,1.119,0,0,1,.153.353l-.927-.359Z" fill="#452319"/>
                  <g id="Grupo_37123" data-name="Grupo 37123">
                    <path id="Trazado_41242" data-name="Trazado 41242" d="M362.719,261.739a.333.333,0,1,1-.322-.326A.324.324,0,0,1,362.719,261.739Z" fill="#231f20"/>
                    <path id="Trazado_41243" data-name="Trazado 41243" d="M362.488,261.661a.085.085,0,0,1-.005.117c-.044.046.024.118.068.073a.185.185,0,0,0,.024-.237.049.049,0,1,0-.087.047Z" fill="#fff"/>
                  </g>
                  <g id="Grupo_37124" data-name="Grupo 37124">
                    <path id="Trazado_41244" data-name="Trazado 41244" d="M360.7,261.672a.333.333,0,1,1-.322-.326A.324.324,0,0,1,360.7,261.672Z" fill="#231f20"/>
                    <path id="Trazado_41245" data-name="Trazado 41245" d="M360.465,261.594a.085.085,0,0,1-.005.117c-.044.046.024.118.068.072a.184.184,0,0,0,.024-.236.049.049,0,0,0-.087.047Z" fill="#fff"/>
                  </g>
                  <g id="Grupo_37125" data-name="Grupo 37125">
                    <circle id="Elipse_736" data-name="Elipse 736" cx="0.045" cy="0.045" r="0.045" transform="translate(362.098 260.688)" fill="#c77236"/>
                    <circle id="Elipse_737" data-name="Elipse 737" cx="0.045" cy="0.045" r="0.045" transform="translate(362.831 261.914)" fill="#c77236"/>
                    <circle id="Elipse_738" data-name="Elipse 738" cx="0.03" cy="0.03" r="0.03" transform="translate(362.272 260.729)" fill="#c77236"/>
                  </g>
                  <circle id="Elipse_739" data-name="Elipse 739" cx="0.045" cy="0.045" r="0.045" transform="translate(361.737 262.203)" fill="#e08d56"/>
                  <g id="Grupo_37127" data-name="Grupo 37127">
                    <g id="Grupo_37126" data-name="Grupo 37126">
                      <path id="Trazado_41246" data-name="Trazado 41246" d="M360.951,263.438a2.287,2.287,0,0,0,1.123-.013s.067-.006.021.059c0,0-.542,1.156-1.168,0C360.927,263.48,360.879,263.425,360.951,263.438Z" fill="#9a322e"/>
                      <path id="Trazado_41247" data-name="Trazado 41247" d="M362.024,263.565a.175.175,0,0,0,.071-.081c.046-.065-.021-.059-.021-.059a2.287,2.287,0,0,1-1.123.013c-.072-.013-.024.042-.024.042.018.033.036.064.053.094A1.4,1.4,0,0,0,362.024,263.565Z" fill="#fff"/>
                      <path id="Trazado_41248" data-name="Trazado 41248" d="M361.211,263.866a.421.421,0,0,0,.629-.025s-.171.174-.629.025" fill="#fff"/>
                    </g>
                    <circle id="Elipse_740" data-name="Elipse 740" cx="0.039" cy="0.039" r="0.039" transform="translate(360.996 263.293)" fill="#e08d56"/>
                    <circle id="Elipse_741" data-name="Elipse 741" cx="0.039" cy="0.039" r="0.039" transform="translate(361.833 264.009)" fill="#e08d56"/>
                  </g>
                  <path id="Trazado_41249" data-name="Trazado 41249" d="M359,262.2l.228-.114s-.1-1.143.111-1.257c0,0,.094-1.326,1.265-1.46s2.5.525,2.483,1.242c-.021.739.061,1.866.057,1.706l.217-.726-.052-1.96s-1.365-1.382-2.777-.95a1.986,1.986,0,0,0-1.582,1.889C358.939,260.984,359,262.2,359,262.2Z" fill="#452319"/>
                  <path id="Trazado_41250" data-name="Trazado 41250" d="M363.24,261.281a.367.367,0,0,0,.066-.4,2.209,2.209,0,0,1-.1-.372.481.481,0,0,0-.455-.426.463.463,0,0,0-.3-.386,1.275,1.275,0,0,0-.764-.153c-.348.064-1.051-.008-1.4.071a.7.7,0,0,0-.495.49,1.622,1.622,0,0,1-.348.586.749.749,0,0,0-.231.492,1.561,1.561,0,0,1-.061.384c-.02.072-.1.2-.168.109-.107-.126-.269-.252-.2-.469.011-.031-.03-.093-.063-.12a.322.322,0,0,0-.116-.043,1.3,1.3,0,0,1-.071-.337,4.928,4.928,0,0,1,.1-.738,2.788,2.788,0,0,1,.206-.555.985.985,0,0,1,.418-.542c.094-.045.19-.086.282-.137.064-.035.116-.1.182-.12.172-.049.374,0,.514-.16.019-.022.068-.018.1-.026.061-.014.122-.025.182-.043.088-.025.174-.054.279-.088l-.035-.227c.143.272.141.264.444.186a4.955,4.955,0,0,1,.832.042c.26.045.4.234.656.3a.718.718,0,0,1,.181.1c.008.005.005.027.01.052l-.108-.026.033.146c-.178-.2-.114-.226-.36-.083a3.644,3.644,0,0,1,.421.2,3.472,3.472,0,0,1,.362.294.892.892,0,0,1,.236.577c.031.17,0,.351.028.523a2.285,2.285,0,0,1,.035.949c-.012.044-.234.315-.259.355Z" fill="#452319"/>
                  <path id="Trazado_41251" data-name="Trazado 41251" d="M361.31,259.3s.682.152.705.438l-.456-.158.185.292-.767-.3Z" fill="#452319"/>
                  <path id="Trazado_41252" data-name="Trazado 41252" d="M361.727,264.4s.132.413.057.542-.362.083-.443.072-.3.013-.395-.054a.694.694,0,0,0,.385.129c.216,0,.4.027.468-.053A.646.646,0,0,0,361.727,264.4Z" fill="#eb9862"/>
                  <g id="Grupo_37128" data-name="Grupo 37128">
                    <path id="Trazado_41253" data-name="Trazado 41253" d="M361.138,267.256a.13.13,0,1,1-.125-.134A.128.128,0,0,1,361.138,267.256Z" fill="#476782"/>
                    <circle id="Elipse_742" data-name="Elipse 742" cx="0.031" cy="0.031" r="0.031" transform="translate(360.935 267.24) rotate(-88.094)" fill="#344f60"/>
                    <circle id="Elipse_743" data-name="Elipse 743" cx="0.031" cy="0.031" r="0.031" transform="translate(360.932 267.317) rotate(-88.094)" fill="#344f60"/>
                    <circle id="Elipse_744" data-name="Elipse 744" cx="0.031" cy="0.031" r="0.031" transform="matrix(0.033, -0.999, 0.999, 0.033, 361.018, 267.243)" fill="#344f60"/>
                    <circle id="Elipse_745" data-name="Elipse 745" cx="0.031" cy="0.031" r="0.031" transform="translate(361.016 267.32) rotate(-88.094)" fill="#344f60"/>
                  </g>
                  <g id="Grupo_37129" data-name="Grupo 37129">
                    <path id="Trazado_41254" data-name="Trazado 41254" d="M361.11,267.733a.13.13,0,1,1-.259-.008.13.13,0,0,1,.259.008Z" fill="#476782"/>
                    <circle id="Elipse_746" data-name="Elipse 746" cx="0.031" cy="0.031" r="0.031" transform="translate(360.906 267.718) rotate(-88.094)" fill="#344f60"/>
                    <circle id="Elipse_747" data-name="Elipse 747" cx="0.031" cy="0.031" r="0.031" transform="matrix(0.033, -0.999, 0.999, 0.033, 360.904, 267.795)" fill="#344f60"/>
                    <circle id="Elipse_748" data-name="Elipse 748" cx="0.031" cy="0.031" r="0.031" transform="translate(360.99 267.721) rotate(-88.094)" fill="#344f60"/>
                    <circle id="Elipse_749" data-name="Elipse 749" cx="0.031" cy="0.031" r="0.031" transform="translate(360.987 267.798) rotate(-88.094)" fill="#344f60"/>
                  </g>
                  <g id="Grupo_37130" data-name="Grupo 37130">
                    <path id="Trazado_41255" data-name="Trazado 41255" d="M361.107,268.191a.13.13,0,1,1-.125-.134A.13.13,0,0,1,361.107,268.191Z" fill="#476782"/>
                    <circle id="Elipse_750" data-name="Elipse 750" cx="0.031" cy="0.031" r="0.031" transform="translate(360.904 268.176) rotate(-88.094)" fill="#344f60"/>
                    <circle id="Elipse_751" data-name="Elipse 751" cx="0.031" cy="0.031" r="0.031" transform="translate(360.901 268.253) rotate(-88.094)" fill="#344f60"/>
                    <circle id="Elipse_752" data-name="Elipse 752" cx="0.031" cy="0.031" r="0.031" transform="translate(360.987 268.178) rotate(-88.094)" fill="#344f60"/>
                    <circle id="Elipse_753" data-name="Elipse 753" cx="0.031" cy="0.031" r="0.031" transform="translate(360.985 268.255) rotate(-88.094)" fill="#344f60"/>
                  </g>
                  <path id="Trazado_41256" data-name="Trazado 41256" d="M362.245,268.957l1.641.124-.013.383-1.642-.106Z" fill="#1b2b3f"/>
                  <path id="Trazado_41257" data-name="Trazado 41257" d="M366.486,267.854a6.025,6.025,0,0,1-1.367,1.562l.2.173a8.034,8.034,0,0,0,1.316-1.416Z" fill="#1b2b3f"/>
                </g>
              </g>
            </g>
            <rect id="Rectángulo_4496" data-name="Rectángulo 4496" width="42.038" height="2.952" rx="0.809" transform="matrix(0.999, 0.033, -0.033, 0.999, 369.081, 258.71)" fill="#57cecb"/>
            <rect id="Rectángulo_4497" data-name="Rectángulo 4497" width="32.888" height="1.884" rx="0.809" transform="matrix(0.999, 0.033, -0.033, 0.999, 368.924, 263.409)" fill="#a1b7b6"/>
          </g>
        </g>
      </g>
    </g>
    <g id="Grupo_37138" data-name="Grupo 37138">
      <path id="Trazado_41259" data-name="Trazado 41259" d="M425.416,216.929s17.6-19.476,14.842-20.231S425.416,216.929,425.416,216.929Z" fill="#ee9321"/>
      <path id="Trazado_41260" data-name="Trazado 41260" d="M426.863,219s26.217,1.354,25.058-1.264S426.863,219,426.863,219Z" fill="#ee9321"/>
      <path id="Trazado_41261" data-name="Trazado 41261" d="M427.754,216.8s12.71-6.44,13.968-5.713S435.053,215.239,427.754,216.8Z" fill="#ee9321"/>
    </g>
    <path id="Trazado_41262" data-name="Trazado 41262" d="M463.392,291.029s-6.109,1.985-10.334-6.245-3.985-8.052-9.745-11.565-3.474-11.76,5.456-14.168,19.64,6.343,20.925,14.907S470.008,288.861,463.392,291.029Z" fill="#6d31ff"/>
  </g>
</svg>
