<?xml version="1.0" encoding="utf-8"?>
<!-- Generator: Adobe Illustrator 23.0.4, SVG Export Plug-In . SVG Version: 6.00 Build 0)  -->
<svg version="1.1" id="Capa_1" xmlns="http://www.w3.org/2000/svg" xmlns:xlink="http://www.w3.org/1999/xlink" x="0px" y="0px"
	 viewBox="0 0 176 176" style="enable-background:new 0 0 176 176;" xml:space="preserve">
<style type="text/css">
	.st0{fill:#6D31FF;}
	.st1{fill:url(#Trazado_38478_1_);}
	.st2{fill:none;}
	.st3{clip-path:url(#SVGID_2_);}
	.st4{fill:#BF8354;}
	.st5{fill:#A8704A;}
	.st6{fill:#0BB5A8;}
	.st7{fill:#3C2415;}
	.st8{fill:#D7A16D;}
	.st9{fill:#BB855A;}
	.st10{fill:#2E2119;}
	.st11{fill:#FFFFFF;}
	.st12{opacity:0.37;fill:#D25A2C;enable-background:new    ;}
	.st13{fill:#3D3D3D;}
	.st14{opacity:0.5;fill:#E52C61;enable-background:new    ;}
	.st15{fill:#4A4949;}
	.st16{fill:#2D1A10;}
	.st17{fill:#10C6BD;}
	.st18{opacity:0.47;fill:#0BB5A8;enable-background:new    ;}
	.st19{fill:#3F3F4F;}
	.st20{fill:#F7C23E;}
	.st21{opacity:0.31;fill:#E5A81F;enable-background:new    ;}
	.st22{fill:#E5A81F;}
	.st23{fill:#EE9321;}
</style>
<g id="Grupo_35901" transform="translate(-6420.305 -3707.257)">
	<path id="Trazado_38477" class="st0" d="M6551.5,3870.6c0,0,31-23.5,15.6-58.6s-44.7-13.2-71.8-55s-92.2,11.5-70.7,73.2
		S6530.3,3888.9,6551.5,3870.6z"/>
	
		<linearGradient id="Trazado_38478_1_" gradientUnits="userSpaceOnUse" x1="5773.2739" y1="4234.6812" x2="5774.4028" y2="4234.6812" gradientTransform="matrix(30.0293 0 0 -32.5933 -175759.0938 141818.0625)">
		<stop  offset="0" style="stop-color:#4A1ED9"/>
		<stop  offset="0.917" style="stop-color:#5D2AF5"/>
		<stop  offset="1" style="stop-color:#602CF8"/>
	</linearGradient>
	<path id="Trazado_38478" class="st1" d="M6581.8,3812.1c0,0-6.1,2-10.3-6.2s-4-8.1-9.7-11.6s-3.5-11.8,5.5-14.2s19.6,6.3,20.9,14.9
		S6588.4,3809.9,6581.8,3812.1z"/>
	<path id="Rectángulo_4135" class="st2" d="M6438.8,3709.8h140.5c0.6,0,1,0.5,1,1v118.2c0,0.6-0.5,1-1,1h-140.5c-0.6,0-1-0.5-1-1
		v-118.2C6437.7,3710.3,6438.2,3709.8,6438.8,3709.8z"/>
	<g id="Grupo_35897">
		<g>
			<defs>
				<path id="SVGID_1_" d="M6579.3,3709.8h-140.5c-0.6,0-1,0.5-1,1v47.9c-14.6,16.4-23,43-13.1,71.4
					c21.5,61.7,105.7,58.7,126.9,40.4c0,0,20.7-15.6,19.9-40.5h7.9c0.6,0,1-0.5,1-1v-118.2
					C6580.3,3710.3,6579.8,3709.8,6579.3,3709.8z"/>
			</defs>
			<clipPath id="SVGID_2_">
				<use xlink:href="#SVGID_1_"  style="overflow:visible;"/>
			</clipPath>
			<g id="Grupo_35896" class="st3">
				<path id="Trazado_38479" class="st4" d="M6508.7,3798.4c0,0,12.3,16.8,29.1,13.1c12.2-2.6,9.5-47.4,9.5-47.4h4.9
					c0,0,5,51.5-14.3,53.5c-19.3,2-33.5-14.8-33.5-14.8L6508.7,3798.4z"/>
				<g id="Grupo_35883">
					<g id="Grupo_35882">
						<path id="Trazado_38480" class="st4" d="M6554.4,3756.4c0-0.1,0.2-1.3,0.2-1.3c-0.1-0.8-0.8-1-1.5-1l-6.3-1.1
							c-0.3-0.1-0.5,0-0.8,0.1c-0.6,0.2-1,0.8-1,1.4l0.8,9.3c0,0.3,0.2,0.6,0.3,0.8c0.4,0.6,1.2,0.9,1.9,0.8l3.2-0.1
							c1.8,0.1,2.2-0.7,2.2-1.5L6554.4,3756.4z"/>
					</g>
				</g>
				<path id="Trazado_38481" class="st5" d="M6549,3763.1c0.5-1.7,2-2.9,3.8-3C6551.2,3760.7,6549.8,3761.8,6549,3763.1z"/>
				<g id="Grupo_35893">
					<g id="Grupo_35892">
						<g id="Grupo_35891">
							<path id="Trazado_38482" class="st6" d="M6504.3,3802.9c0,0-5.7-5.6-3.3-8.6s14.8,4.7,19.6,7.6c0,0-4.3,10.8-9.2,12.7
								L6504.3,3802.9z"/>
							<path id="Trazado_38483" class="st7" d="M6488.3,3733.8c0.5-0.6,19.5-0.7,21,7.9s3.1,13.7,6,22.3s-6.3,21.2-2.2,23.8
								c0,0-4.3-1.5-4.4-3.6c0,0,0.1,5.9-3.9,6.9c0.7-1.1,0.4-2.5-0.6-3.3c0,0-1.9,1.9-1.8,3.6c0,0-2-0.6-2.4-2.1
								c0,0-3.4,4.5-8.6,4.1L6488.3,3733.8z"/>
							<path id="Trazado_38484" class="st7" d="M6490.4,3733.8c-0.5-0.6-19.5-0.7-21,7.9s-3.1,13.7-6,22.3s6.3,21.2,2.2,23.8
								c0,0,4.3-1.5,4.4-3.6c0,0-0.1,5.9,3.9,6.9c-0.7-1.1-0.4-2.5,0.6-3.3c0,0,1.9,1.9,1.8,3.6c0,0,3.7,0.2,4.1-1.3
								c1.4,1.9,3.4,3.1,5.7,3.3L6490.4,3733.8z"/>
							<path id="Trazado_38485" class="st7" d="M6500.2,3780.9c0,0-1.6,7.8-0.5,11.7c0,0-2.8,2-2.1-8.2S6500.2,3780.9,6500.2,3780.9
								z"/>
							<path id="Trazado_38486" class="st7" d="M6478.3,3775.7c0,0,1.8,8.7,0.5,13.1c0,0,3.2,2.3,2.4-9.2
								S6478.3,3775.7,6478.3,3775.7z"/>
							<path id="Trazado_38487" class="st7" d="M6507.4,3752c0,0,4.4,7.2,3.4,11.9s-2.7,9.4,0.1,10.3c0,0-3.7,1.2-4-4.9
								s-0.4-13.2-0.4-13.2L6507.4,3752z"/>
							<path id="Trazado_38488" class="st7" d="M6506.3,3753.5c0,0,1.6,11.8,0.3,14.3s-4.4,14.6-3.1,19.1c0,0-2.7-4.4-1.6-9.1
								s2.8-21.2,2.2-25.8L6506.3,3753.5z"/>
							<path id="Trazado_38489" class="st8" d="M6484.4,3799.7h9.8c-1.1-3.9-1-8.1,0.4-12l-10.9,0.4
								C6483.7,3788.1,6486.2,3795.3,6484.4,3799.7z"/>
							<path id="Trazado_38490" class="st9" d="M6484.7,3792c-0.2-1.3-0.5-2.6-1-3.9l10.9-0.4c-0.7,2-1.1,4.2-1.1,6.3
								C6490.3,3795.2,6486.8,3793.4,6484.7,3792z"/>
							<path id="Trazado_38491" class="st8" d="M6507.1,3749.9c0-8.9-7.3-16.1-16.2-16.1c-8.9,0-16.1,7.3-16.1,16.2
								c0,0.1,0,0.2,0,0.3c0,0.4,0,0.9,0.1,1.3c0,3.9-0.2,7,0,11.4c0,0,0.2,11.4,1,15.6c0.9,4.7,7.6,9.5,7.6,9.5
								c0.9,0.7,1.8,1.5,2.6,2.4c1.3,1.4,4.2,1.6,6.6,1c1-0.1,2-0.5,2.7-1.2c0.8-0.9,1.7-1.7,2.6-2.4c3.4-2.2,6.1-5.2,7.9-8.8
								c1-2.3,1.1-16.1,1.1-16.1c-0.2-3.5-0.2-7-0.1-10.5C6507.1,3751.7,6507.1,3750.8,6507.1,3749.9"/>
							<path id="Trazado_38492" class="st8" d="M6505.5,3849.3c-0.9-4,1.2-10.3,2.9-15.3c4.6-2.1,6.3-5.1,7.3-9
								c2.3-9.1-7.4-20.5-12-26.6c-0.3-0.4,0.1-3.4-3.4-4h-1.7c-8.5,1.4-17.1,1.8-25.6,1.3c-12.8-1-5.6,18.4-3.7,21.2
								c0.8,1.2,3.2,5.8,5.6,10.9c0,0,6.1,12.2,5.2,15.3s-9,13.6-11.8,21.3s-4.5,27,8.7,30.8s50.3-8.7,40.1-25.4
								C6513.4,3863.7,6509.5,3858,6505.5,3849.3z"/>
							<g id="Grupo_35890">
								<g id="Grupo_35885">
									<g id="Grupo_35884">
										<path id="Trazado_38493" class="st10" d="M6486.3,3763.1c0,1.3-1.1,2.3-2.4,2.3c-1.3,0-2.3-1.1-2.3-2.4
											c0-1.3,1.1-2.3,2.3-2.3C6485.3,3760.7,6486.4,3761.7,6486.3,3763.1C6486.3,3763.1,6486.3,3763.1,6486.3,3763.1z"/>
										<path id="Trazado_38494" class="st10" d="M6486.1,3762.1c-0.7-0.7-1.7-0.8-2.6-0.5c-1,0.5-2.2,0.5-3.1-0.1
											c0.7,0,1.4-0.2,2.1-0.6c1.2-0.8,2.7-0.4,3.5,0.7C6486,3761.8,6486.1,3761.9,6486.1,3762.1z"/>
									</g>
									<path id="Trazado_38495" class="st11" d="M6484.4,3762.6c0.2,0.3,0.2,0.6,0,0.9c-0.3,0.4,0.2,0.9,0.5,0.5
										c0.5-0.5,0.5-1.3,0.1-1.8c-0.1-0.2-0.3-0.2-0.5-0.1C6484.3,3762.2,6484.3,3762.5,6484.4,3762.6L6484.4,3762.6z"/>
								</g>
								<g id="Grupo_35887">
									<g id="Grupo_35886">
										<path id="Trazado_38496" class="st10" d="M6502.1,3762.9c0,1.3-1.1,2.3-2.4,2.3c-1.3,0-2.3-1.1-2.3-2.4
											c0-1.3,1.1-2.3,2.3-2.3C6501,3760.5,6502.1,3761.5,6502.1,3762.9C6502.1,3762.9,6502.1,3762.9,6502.1,3762.9z"/>
										<path id="Trazado_38497" class="st10" d="M6497.6,3761.9c0.7-0.7,1.7-0.9,2.6-0.6c1,0.5,2.2,0.5,3.1-0.2
											c-0.7,0-1.4-0.2-2.1-0.5c-1.2-0.7-2.7-0.4-3.4,0.8C6497.7,3761.6,6497.6,3761.8,6497.6,3761.9z"/>
									</g>
									<path id="Trazado_38498" class="st11" d="M6500.1,3762.4c0.2,0.3,0.2,0.6,0,0.9c-0.3,0.4,0.2,0.9,0.5,0.5
										c0.5-0.5,0.5-1.3,0.1-1.8c-0.1-0.2-0.3-0.2-0.5-0.1C6500.1,3762,6500,3762.3,6500.1,3762.4L6500.1,3762.4z"/>
								</g>
								<path id="Trazado_38499" class="st12" d="M6484.3,3772.2c0,1.7-1.3,3-3,3.1c-1.7,0-3-1.3-3.1-3c0-1.7,1.3-3,3-3.1
									C6482.9,3769.2,6484.3,3770.6,6484.3,3772.2L6484.3,3772.2z"/>
								<path id="Trazado_38500" class="st12" d="M6497.4,3772.1c0,1.7,1.4,3,3.1,3c1.7,0,3-1.4,3-3.1c0-1.7-1.4-3-3.1-3h0
									C6498.8,3769,6497.4,3770.4,6497.4,3772.1z"/>
								<g id="Grupo_35889">
									<g id="Grupo_35888">
										<path id="Trazado_38501" class="st13" d="M6486.6,3778.5c0,0-0.6-1.5,0.5-1.1C6487.1,3777.4,6486.3,3777.3,6486.6,3778.5z
											"/>
									</g>
									<path id="Trazado_38502" class="st14" d="M6492,3779.9c1.4,0,2.8-0.4,4-1.1c-0.2,1.9-2,3.2-3.9,3c-0.1,0-0.2,0-0.2,0
										c-3.7-0.4-3.7-3-3.7-3"/>
									<path id="Trazado_38503" class="st14" d="M6495.9,3778.9l0.2-0.3c-0.4-0.9-1.3-1.5-2.3-1.6c0,0-0.4-0.1-0.9,0.4l-0.2,0.2
										c0,0-0.5-0.6-1-0.6c-1.4,0.1-2.7,0.7-3.6,1.7c1.8,0.7,3.8,1,5.8,0.8C6494.7,3779.6,6495.4,3779.4,6495.9,3778.9z"/>
									<path id="Trazado_38504" class="st15" d="M6496.4,3778.4c-1.2,0.9-2.6,1.3-4.1,1.2c-2.1,0-4.1-0.8-5.8-2.1
										c0,0,1.4,2,5.7,2.4C6492.2,3780,6495.6,3780.2,6496.4,3778.4z"/>
								</g>
								<path id="Trazado_38505" class="st7" d="M6486,3758.7c0,0-3.2-0.5-3.9-0.2c-0.9,0.5-1.8,0.9-2.8,1.3c0,0,1.6-2.3,2.9-2.6
									c1.5-0.3,3.1-0.2,4.6,0.2C6487.3,3757.7,6487,3758.8,6486,3758.7z"/>
								<path id="Trazado_38506" class="st7" d="M6497.6,3758.4c0,0,3.3-0.5,3.9-0.1c0.9,0.5,1.8,1,2.8,1.3c0,0-1.5-2.3-2.8-2.6
									c-1.5-0.3-3.1-0.2-4.6,0.1C6496.4,3757.4,6496.7,3758.5,6497.6,3758.4z"/>
							</g>
							<path id="Trazado_38507" class="st7" d="M6477.2,3739.2c0,0,7.7,16.7,27.2,17c0,0-13.1-5.4-16.9-9.5c0,0,18.5,10.8,29,10.4
								c0,0-0.7-2.1-2.2-8.3c-1.5-6.1-4-15.8-22.3-19.1C6471.5,3725.9,6477.2,3739.2,6477.2,3739.2z"/>
							<path id="Trazado_38508" class="st7" d="M6483.7,3744.4c0,0-4.5,9.8-7.1,13.5s-1.1,8,1.7,9.3c0,0-7.8,1.5-10.8-5.8
								c-3.5-8.4-2.8-26,10.8-28.6S6483.7,3744.4,6483.7,3744.4z"/>
							<path id="Trazado_38509" class="st16" d="M6483.7,3744.4c0.1-3.9-1.6-7.5-4.4-10.1
								C6479.3,3734.3,6481.5,3736.9,6483.7,3744.4z"/>
							<path id="Trazado_38510" class="st7" d="M6467.3,3742.3c-3,4.4-4.5,9.6-4.2,15c0.6,8.7,2.9,9.5-0.2,13.5c0,0,3.6,1.8,3.8-5
								s-0.7-13.5-0.6-15.4C6466.4,3747.7,6466.8,3745,6467.3,3742.3z"/>
							<path id="Trazado_38511" class="st17" d="M6497.6,3794.4c2.8,6.2,2.8,13.3,0,19.5c0,0-14.4-6.1-20-17.9c0,0-9.8-1.7-11.9,1.4
								s-0.4,14,3.5,21.7c3,5.9,9.8,20,9.8,22s-7.6,14.9-9.2,17.7c0,0,30,6.4,42.6,0c0,0-6.4-5.9-6.5-11s2.7-13,2.7-13
								s12.2-4.6,7.3-17.7c-4.4-11.8-13.5-22.7-13.5-22.7S6501.1,3792.9,6497.6,3794.4z"/>
							<path id="Trazado_38512" class="st6" d="M6488.1,3836.5c-4.7,0.1-5.3-3.3-5.3-3.3c5.8-1.3,11.7-1.8,17.6-1.5
								c10.6,0.4,15.1-2.8,15.1-2.8c-1.6,2.6-4,4.7-6.9,5.9c0,0-2.8,7.9-2.7,13s6.5,11,6.5,11c-1.7,0.8-3.5,1.4-5.3,1.8
								c-5.1-2.8-9.7-8.3-9.6-13.5C6497.7,3839.9,6492.8,3836.3,6488.1,3836.5z"/>
						</g>
					</g>
					<path id="Trazado_38513" class="st18" d="M6466.7,3813.7l7.9,16.4c0,0-0.6-7.3,4.1-7.6s15.3,0.6,15.3,0.6s-22.4-17.8-25.2-17.9
						S6466.7,3813.7,6466.7,3813.7z"/>
					<path id="Trazado_38514" class="st19" d="M6467.3,3866.7c0,0,23.2,5.8,48.3-0.7c0,0,6.8,8.7,5.4,22.9c0,0-26.9,17.2-47.6,10.2
						S6467.3,3866.7,6467.3,3866.7z"/>
				</g>
				<path id="Trazado_38515" class="st8" d="M6476.5,3809c0,0,22.7,15.5,36.1,6.7s15.3-36.4,15.3-36.4l6,2c0,0-6,45.3-29.1,43.8
					c-20.6-1.3-30-9.8-30-9.8L6476.5,3809z"/>
				<path id="Trazado_38516" class="st17" d="M6473.3,3799.1l-7-2.4c0,0-7.4,5.5-2.4,14.8c4.4,8.2,18,8.8,18,8.8s1.6,1.6,2.7-11.7
					L6473.3,3799.1z"/>
				<path id="Trazado_38517" class="st4" d="M6527.8,3781.9l-0.6,0.1c-0.4,0.1-0.7-0.2-0.8-0.5l-1.2-4.3c-0.1-0.4,0.2-0.7,0.5-0.8
					l1.2-0.3c0.4-0.1,0.7,0.2,0.8,0.5l0.6,4.4C6528.4,3781.5,6528.1,3781.8,6527.8,3781.9z"/>
				<g id="Grupo_35895">
					<g id="Grupo_35894">
						<path id="Trazado_38518" class="st8" d="M6536.6,3776.3c0-0.1,0.4-1.2,0.4-1.3c0.1-0.8-0.6-1.1-1.3-1.3l-6-2.3
							c-0.2-0.1-0.5-0.1-0.7-0.1c-0.6,0.1-1.1,0.6-1.2,1.2l-0.9,9.3c0,0.3,0,0.6,0.2,0.9c0.3,0.7,1,1.1,1.7,1.1l3.1,0.5
							c1.7,0.5,2.3-0.3,2.4-1.1L6536.6,3776.3z"/>
					</g>
				</g>
			</g>
		</g>
	</g>
	<g id="Grupo_35898">
		<path id="Trazado_38520" class="st20" d="M6535.7,3722c0,0,15.2,1.3,35.5,2.5c0,0,5.9,0.3,5.4,5c-0.5,4.5-2.9,27-2.9,27
			s0,5.1-6.3,4.6c-5.9-0.5-34.5-3.2-34.5-3.2c-2.9-0.5-5-3.2-4.7-6.1c0.3-5.9,1.7-23.4,1.7-23.4S6530.1,3722.2,6535.7,3722z"/>
		<path id="Trazado_38521" class="st21" d="M6552.8,3740.9l-24.4,13c0,0,0.8,3.5,4.2,4.1s35.5,3.3,35.5,3.3s5.2,0.7,5.7-4.7
			L6552.8,3740.9z"/>
		<path id="Trazado_38522" class="st22" d="M6529.9,3727.9l20.5,16.8c0,0,2.2,1.9,4.4,0.3s21.8-16.4,21.8-16.4s0-3.6-4.8-4.2
			s-36.2-2.5-36.2-2.5c-2-0.1-3.8,0.9-4.7,2.7C6530.4,3725.7,6530.1,3726.8,6529.9,3727.9z"/>
	</g>
	<g id="Grupo_35899">
		<path id="Trazado_38523" class="st23" d="M6527.3,3731.3c0,0-11.8-13.1-10-13.6S6527.3,3731.3,6527.3,3731.3z"/>
		<path id="Trazado_38524" class="st23" d="M6526.3,3732.7c0,0-17.6,0.9-16.8-0.8S6526.3,3732.7,6526.3,3732.7z"/>
		<path id="Trazado_38525" class="st23" d="M6525.7,3731.2c0,0-8.5-4.3-9.4-3.8S6520.8,3730.2,6525.7,3731.2z"/>
	</g>
	<g id="Grupo_35900">
		<path id="Trazado_38526" class="st23" d="M6578.5,3736.5c0,0,11.8-13.1,10-13.6S6578.5,3736.5,6578.5,3736.5z"/>
		<path id="Trazado_38527" class="st23" d="M6579.4,3737.9c0,0,17.6,0.9,16.8-0.8S6579.4,3737.9,6579.4,3737.9z"/>
		<path id="Trazado_38528" class="st23" d="M6580,3736.4c0,0,8.5-4.3,9.4-3.8S6584.9,3735.3,6580,3736.4z"/>
	</g>
	<path id="Trazado_38529" class="st5" d="M6547,3763.1l-0.5,0.2c-0.3,0.1-0.7,0-0.9-0.4l-1.9-4c-0.1-0.3,0-0.7,0.4-0.9l1.2-0.4
		c0.3-0.1,0.7,0,0.9,0.4l1.3,4.3C6547.5,3762.6,6547.3,3762.9,6547,3763.1z"/>
	<rect id="Rectángulo_4136" x="6420.3" y="3707.3" class="st2" width="176" height="176"/>
</g>
</svg>
