<svg xmlns="http://www.w3.org/2000/svg" width="176" height="176" viewBox="0 0 176 176">
  <g id="Grupo_35605" data-name="Grupo 35605" transform="translate(-6204.469 -400.457)">
    <rect id="Rectángulo_1876" data-name="Rectángulo 1876" width="176" height="176" transform="translate(6204.469 400.457)" fill="none"/>
    <g id="Grupo_35510" data-name="Grupo 35510" transform="translate(6017.513 252.37)">
      <g id="Grupo_35489" data-name="Grupo 35489" transform="translate(347.986 178.774)">
        <path id="Trazado_39984" data-name="Trazado 39984" d="M1125.607,248.172c3.1.326,3.683-4.3,1.912-6.889-.863,3.243-3.54,3.225-4.522,2.507" transform="translate(-1119.012 -235.772)" fill="#191919"/>
        <path id="Trazado_39985" data-name="Trazado 39985" d="M1101.568,248.871c2.628-3.891,1.459-4.207,1.459-4.207-2.572-1.341-3.773-7.061-1.226-6.276s7.836,6.8,5.25,12.552-5.577,2.92-5.577,2.92" transform="translate(-1100.39 -233.327)" fill="#1c1c1c"/>
        <path id="Trazado_39986" data-name="Trazado 39986" d="M1130.788,216.695s-3.752,1.581-3.6,4.953C1127.192,221.648,1125.135,216.639,1130.788,216.695Z" transform="translate(-1122.167 -215.518)" fill="#f7941d"/>
        <path id="Trazado_39987" data-name="Trazado 39987" d="M1123.017,210.075s-3.135.914-3.32,3.615C1119.7,213.69,1118.519,209.51,1123.017,210.075Z" transform="translate(-1116.179 -210.022)" fill="#f7941d"/>
        <path id="Trazado_39988" data-name="Trazado 39988" d="M1162.481,249.7s2.651-2.162,1.727-4.843C1164.208,244.856,1167.051,248.407,1162.481,249.7Z" transform="translate(-1151.535 -238.715)" fill="#f7941d"/>
        <path id="Trazado_39989" data-name="Trazado 39989" d="M1172.141,257.792s2.311-1.479,1.822-3.7C1173.963,254.092,1175.9,257.183,1172.141,257.792Z" transform="translate(-1159.492 -246.323)" fill="#f7941d"/>
      </g>
      <path id="Trazado_39990" data-name="Trazado 39990" d="M248,177.614s-24.266-14.67-39.068,3.791,1.65,37.682-3.564,50.6-21.888,11.589-17.763,35.8c5.6,32.847,89.314,33.655,132.639,16.323s26.127-42.675,16.64-51.349c-9.929-9.079,7.045-24.257-12.231-39.333C308.473,180.788,277.665,193.229,248,177.614Z" transform="translate(0 0)" fill="#6d31ff"/>
      <path id="Trazado_39991" data-name="Trazado 39991" d="M504.421,543.617s-.566,11.878-7.353,17.818-9.333,7.07-9.333,9.9,12.444,1.7,16.686-1.414,12.161-9.333,15.838-26.3C520.259,543.617,512.9,536.16,504.421,543.617Z" transform="translate(-247.754 -303.303)" fill="#262626"/>
      <path id="Trazado_39992" data-name="Trazado 39992" d="M905.87,491.384s2.961,13.273,13.65,10.433l3.34-20.9Z" transform="translate(-592.176 -254.384)" fill="#383838"/>
      <path id="Trazado_39993" data-name="Trazado 39993" d="M906.9,424.438s10.032,20.647,7.817,30.167c0,0-3.266,3.086-3.594,4.808s7.525,1.278,11.244-1.358,7.082-30.516,2.091-39.812S901.409,410.708,906.9,424.438Z" transform="translate(-592.176 -197.988)" fill="#383838"/>
      <g id="Grupo_35500" data-name="Grupo 35500" transform="translate(201.65 227.577)">
        <g id="Grupo_35499" data-name="Grupo 35499" transform="translate(0 0)">
          <path id="Trazado_39994" data-name="Trazado 39994" d="M317.4,628.315s-2.378.872-2.338,5.311,4.4,8.046,14.784,8.521,19.936-2.457,19.936-9.671c0,0,.045-3.924-2.712-5.747,0,0,.493-7.689-5.77-10.583,0,0-2.378-12.525-13.634-11.494,0,0-2.616.039-2.576,2.021s2.378,2.656,2.021,3.924-3.8,2.581-4.281,7.018C322.83,617.616,316.33,619.992,317.4,628.315Z" transform="translate(-307.171 -583.837)" fill="#b26e4d"/>
          <path id="Trazado_39995" data-name="Trazado 39995" d="M398.569,626.73s.493-7.689-5.77-10.583c0,0-2.378-12.525-13.634-11.494a3.987,3.987,0,0,0-1.582.4c11.017.414,9.034,11.1,9.034,11.1,6.262,2.893,5.77,10.583,5.77,10.583,2.757,1.823,2.712,5.747,2.712,5.747,0,5.988-6.582,9.026-14.759,9.613q.493.034,1.006.057c10.384.476,19.936-2.457,19.936-9.671C401.282,632.477,401.327,628.553,398.569,626.73Z" transform="translate(-358.671 -583.837)" fill="#a05f45"/>
          <path id="Trazado_39996" data-name="Trazado 39996" d="M316.91,642.1c-1.318-6.436,1.5-7.9,1.5-7.9a13.939,13.939,0,0,0,8.323.159c-6.54-.079-7.848-2.7-7.848-2.7-.317-7.451,5.509-8.8,5.509-8.8,3.488.675,5.311-.664,5.311-.664a7.871,7.871,0,0,1-4.915-1.358c-.357-3.131,2.919-5.035,3.488-5.688.743-.852-.436-1.685-.436-1.685-2.427-1.794-2.518-3.2-2.308-3.942a1.653,1.653,0,0,0-.441,1.211c.04,1.982,2.378,2.655,2.021,3.924s-3.8,2.581-4.281,7.018c0,0-6.5,2.376-5.43,10.7,0,0-2.378.872-2.338,5.311a6.439,6.439,0,0,0,1,3.357A8.4,8.4,0,0,0,316.91,642.1Z" transform="translate(-307.171 -587.904)" fill="#cc8366"/>
          <path id="Trazado_39997" data-name="Trazado 39997" d="M401.282,632.477s.045-3.924-2.712-5.747c0,0,.493-7.689-5.77-10.583,0,0-2.378-12.525-13.634-11.494,0,0-.073,0-.192.012-.451.113-.914.24-1.391.384,0,0,9.22-2.47,13.606,9.081l.423,1.457a2.934,2.934,0,0,1-1.717.846,9.527,9.527,0,0,0,2.378.264s4.148,1.955,5.205,8.535a2.806,2.806,0,0,1-1.718,1.744,5.011,5.011,0,0,0,2.14,0s6.389,9.4-5.164,14.081C397.791,639.633,401.282,636.837,401.282,632.477Z" transform="translate(-358.671 -583.837)" fill="#844c3a"/>
          <path id="Trazado_39998" data-name="Trazado 39998" d="M354.223,701.208a23.694,23.694,0,0,0,11.793.986s-1.374,5.5-11.838,5.869a6.042,6.042,0,0,1-3.911-1.163C348.26,705.262,350.154,699.689,354.223,701.208Z" transform="translate(-335.506 -663.206)" fill="#cc8366"/>
          <path id="Trazado_39999" data-name="Trazado 39999" d="M384.9,788.952a11.384,11.384,0,0,1-5.182,2.344s1.507,2.269,6.3.753a2.9,2.9,0,0,0,1.584-1.156C388.253,789.828,386.5,787.609,384.9,788.952Z" transform="translate(-360.431 -735.35)" fill="#cc8366"/>
          <g id="Grupo_35492" data-name="Grupo 35492" transform="translate(9.326)">
            <g id="Grupo_35490" data-name="Grupo 35490" transform="translate(0 1.232)">
              <path id="Trazado_40000" data-name="Trazado 40000" d="M326.856,494.325s-4.281-1.665-3.567,1.189,4.122,0,4.122,0Z" transform="translate(-323.209 -493.842)" fill="#e8f1f9"/>
              <path id="Trazado_40001" data-name="Trazado 40001" d="M323.474,496.208c-.015-.058-.026-.114-.037-.169a1.375,1.375,0,0,0-.148,1.284c.713,2.854,4.122,0,4.122,0l-.339-.727C326.087,497.264,324.013,498.363,323.474,496.208Z" transform="translate(-323.209 -495.652)" fill="#dae4ea"/>
            </g>
            <g id="Grupo_35491" data-name="Grupo 35491" transform="translate(5.138)">
              <path id="Trazado_40002" data-name="Trazado 40002" d="M352.907,489.313s4.28,1.665,3.567-1.189-4.122,0-4.122,0Z" transform="translate(-352.352 -486.856)" fill="#e8f1f9"/>
              <path id="Trazado_40003" data-name="Trazado 40003" d="M357.784,488.164c-.216-.865-.681-1.205-1.223-1.26a2.641,2.641,0,0,1,.139.414c.513,2.052-1.555,1.768-2.758,1.446l.275.588S358.5,491.018,357.784,488.164Z" transform="translate(-353.662 -486.895)" fill="#dae4ea"/>
            </g>
            <path id="Trazado_40004" data-name="Trazado 40004" d="M343.388,487.555a.991.991,0,0,0-.845,1.076c-.026,1.011.608,2.834,1.427,2.94s1.559-.476,1.321-2.114S344.18,487.37,343.388,487.555Z" transform="translate(-339.133 -487.4)" fill="#21140e"/>
          </g>
          <g id="Grupo_35495" data-name="Grupo 35495" transform="translate(35.395 8.854)">
            <g id="Grupo_35493" data-name="Grupo 35493" transform="translate(0 0.12)">
              <path id="Trazado_40005" data-name="Trazado 40005" d="M474.846,538.977s-3.631-2.813-3.758.126,3.952,1.171,3.952,1.171Z" transform="translate(-471.085 -537.763)" fill="#e8f1f9"/>
              <path id="Trazado_40006" data-name="Trazado 40006" d="M471.583,538.789c0-.06.007-.117.013-.173a1.376,1.376,0,0,0-.507,1.189c-.127,2.939,3.952,1.171,3.952,1.171l-.119-.794C473.788,540.544,471.487,541.008,471.583,538.789Z" transform="translate(-471.085 -538.466)" fill="#dae4ea"/>
            </g>
            <g id="Grupo_35494" data-name="Grupo 35494" transform="translate(5.316 0.803)">
              <path id="Trazado_40007" data-name="Trazado 40007" d="M501.437,543.46s3.631,2.813,3.758-.126-3.952-1.171-3.952-1.171Z" transform="translate(-501.243 -541.635)" fill="#e8f1f9"/>
              <path id="Trazado_40008" data-name="Trazado 40008" d="M505.653,544a1.413,1.413,0,0,0-.814-1.555,2.6,2.6,0,0,1,.016.437c-.091,2.113-1.993,1.253-3.056.6l.1.642S505.526,546.941,505.653,544Z" transform="translate(-501.701 -542.304)" fill="#dae4ea"/>
            </g>
            <path id="Trazado_40009" data-name="Trazado 40009" d="M492.226,537.093a.991.991,0,0,0-1.117.792c-.313.962-.223,2.89.532,3.224s1.63-.013,1.867-1.651S493.039,537.14,492.226,537.093Z" transform="translate(-487.44 -537.081)" fill="#21140e"/>
          </g>
          <g id="Grupo_35498" data-name="Grupo 35498" transform="translate(0 19.146)">
            <g id="Grupo_35496" data-name="Grupo 35496" transform="translate(0 1.394)">
              <path id="Trazado_40010" data-name="Trazado 40010" d="M273.938,603.793s-4.321-1.557-3.536,1.278,4.121-.1,4.121-.1Z" transform="translate(-270.307 -603.367)" fill="#e8f1f9"/>
              <path id="Trazado_40011" data-name="Trazado 40011" d="M270.559,605.9c-.016-.058-.029-.114-.041-.168a1.376,1.376,0,0,0-.116,1.288c.785,2.835,4.121-.1,4.121-.1l-.358-.718C273.2,606.89,271.152,608.04,270.559,605.9Z" transform="translate(-270.307 -605.315)" fill="#dae4ea"/>
            </g>
            <g id="Grupo_35497" data-name="Grupo 35497" transform="translate(5.11)">
              <path id="Trazado_40012" data-name="Trazado 40012" d="M299.879,597.972s4.321,1.557,3.536-1.278-4.121.1-4.121.1Z" transform="translate(-299.294 -595.46)" fill="#e8f1f9"/>
              <path id="Trazado_40013" data-name="Trazado 40013" d="M304.794,596.718c-.238-.86-.711-1.188-1.254-1.229a2.605,2.605,0,0,1,.15.411c.564,2.038-1.51,1.806-2.721,1.515l.289.581S305.579,599.552,304.794,596.718Z" transform="translate(-300.674 -595.484)" fill="#dae4ea"/>
            </g>
            <path id="Trazado_40014" data-name="Trazado 40014" d="M290.3,596.637a.991.991,0,0,0-.818,1.1c0,1.011.679,2.818,1.5,2.9s1.547-.515,1.268-2.146S291.092,596.432,290.3,596.637Z" transform="translate(-286.105 -596.39)" fill="#21140e"/>
          </g>
          <path id="Trazado_40015" data-name="Trazado 40015" d="M355.353,520.908a3.572,3.572,0,0,0,.113,3.912c.706.995,2.508,1.863,3.332.494.614-1.02-.764-2.348-1.592-1.378a1.706,1.706,0,0,0,.072,1.953,4.672,4.672,0,0,0,1.948,1.493,4.561,4.561,0,0,1,2.411,2.4c.491,1.369-.542,1.943-1.68,2.263a.3.3,0,0,0,.159.575c1.252-.352,2.478-1.022,2.217-2.532-.279-1.618-1.638-2.608-2.992-3.311-.748-.388-1.734-.929-1.8-1.882-.076-1.053,1.183-.61.746.123a1.074,1.074,0,0,1-1.4.262,2.888,2.888,0,0,1-1.012-4.067c.2-.326-.311-.625-.515-.3Z" transform="translate(-339.925 -514.79)" fill="#ffd42a"/>
          <path id="Trazado_40016" data-name="Trazado 40016" d="M451.632,578.342a7.268,7.268,0,0,0,2.63-.7,2.786,2.786,0,0,0,1.022-.751,1.265,1.265,0,0,0,.231-1.2.83.83,0,0,0-1.036-.492.859.859,0,0,0-.382.352,1.438,1.438,0,0,0,.767,1.941,2.3,2.3,0,0,0,2.22-.43,3.359,3.359,0,0,0,1.271-2.775,18.254,18.254,0,0,0-.593-2.531,2.328,2.328,0,0,1,.656-2.372" transform="translate(-419.666 -554.83)" fill="none"/>
        </g>
        <path id="Trazado_40017" data-name="Trazado 40017" d="M304.8,625.914a7.713,7.713,0,0,0-.146,2.117,2.772,2.772,0,0,0,.917,1.861,2.706,2.706,0,0,0,2.576.317,1.48,1.48,0,0,0,.694-.442.946.946,0,0,0-.017-1.149,1.2,1.2,0,0,0-1.8.211,2.341,2.341,0,0,0-.178,2.017,2.809,2.809,0,0,0,.587,1.111,4.449,4.449,0,0,0,2.531,1.024,3.224,3.224,0,0,1,2.35,1.3" transform="translate(-298.574 -601.399)" fill="none"/>
      </g>
      <path id="Trazado_40018" data-name="Trazado 40018" d="M586.554,272.382a36.4,36.4,0,0,0,16.933-1.961c8.819-3.3,24.611-16.372,36.239-16.372,20.4,0,25.675,21.182,18.883,43.406,0,0,6.9,22.224,1.994,37.041,0,0-1.732,2.933-10.327,2.648a1.611,1.611,0,0,1-1.323-2.443l3.964-6.555s-3.57-21.872-13.095-27.516c0,0-21.059,23.815-58.047,17.064-31.279-5.71-24.5-27.211-24.148-30.78S568.915,271.3,586.554,272.382Z" transform="translate(-304.62 -67.513)" fill="#262626"/>
      <path id="Trazado_40019" data-name="Trazado 40019" d="M594.617,506.1a60.2,60.2,0,0,1,.413,9.71l-2.438-3.786a49.534,49.534,0,0,1-3.158,10.243l-2.737-1.447v2.607l-2.57-1.939v2.672l-4.6-4.12.692,2.227c-5.01-2.115-9.5-8.184-9.5-8.184V515.7a19.23,19.23,0,0,1-4.946-5.751l-.735.237s.459,5.643,6.617,10.542v-1.615s4.488,6.068,9.5,8.184l-.692-2.227,4.6,4.12V526.52l2.57,1.939v-2.607l2.737,1.447a49.551,49.551,0,0,0,3.158-10.243l2.438,3.786A56.2,56.2,0,0,0,594.617,506.1Z" transform="translate(-311.433 -275.134)" fill="#565656"/>
      <path id="Trazado_40020" data-name="Trazado 40020" d="M695.294,583.22s-.566,11.878-7.353,17.818-9.333,7.07-9.333,9.9,12.444,1.7,16.686-1.414,12.161-9.333,15.838-26.3C711.132,583.22,703.775,575.763,695.294,583.22Z" transform="translate(-404.978 -335.925)" fill="#262626"/>
      <g id="Grupo_35504" data-name="Grupo 35504" transform="translate(230.133 184.005)">
        <path id="Trazado_40021" data-name="Trazado 40021" d="M470.57,270.753s2.368.064,5.579,4.614c0,0,5.623-7.737,4.845-9.8s-7.209-5.049-7.209-5.049S469.423,266.679,470.57,270.753Z" transform="translate(-463.59 -256.851)" fill="#4c4247"/>
        <path id="Trazado_40022" data-name="Trazado 40022" d="M487.713,256.994l3.584-2.034,3.472,4.3-2.523,1.081Z" transform="translate(-477.869 -252.269)" fill="#1c1c1c"/>
        <path id="Trazado_40023" data-name="Trazado 40023" d="M681.452,263.131s-2.346.328-5.029,5.208c0,0-6.451-7.061-5.907-9.194s6.6-5.821,6.6-5.821S682.138,258.955,681.452,263.131Z" transform="translate(-628.419 -250.921)" fill="#4c4247"/>
        <path id="Trazado_40024" data-name="Trazado 40024" d="M679.176,251.463l-3.788-1.621-2.97,4.661,2.628.792Z" transform="translate(-630.012 -248.053)" fill="#1c1c1c"/>
        <g id="Grupo_35503" data-name="Grupo 35503" transform="translate(6.068 2.708)">
          <g id="Grupo_35502" data-name="Grupo 35502">
            <path id="Trazado_40025" data-name="Trazado 40025" d="M496.309,255.421c-14.723-2.023-29.517,4.508-29.986,16.246-.332,8.274,2.163,11.158,1.165,16.249s-1.64,11.423,7.439,13.994,27.72,2.091,37.82-3.681,2.327-13.809,2.889-19.785S514.63,257.939,496.309,255.421Z" transform="translate(-466.292 -255.056)" fill="#383838"/>
            <path id="Trazado_40026" data-name="Trazado 40026" d="M494.992,351.739c-2.07.345-2.014-1.8-2.833-4.319s-4.719-5.784-9.348-2.624-5.054,6.233-3.4,10.923,6.069,2.66,5.862,5.359-1.921,8.292,2.207,11.253c5.655,4.056,17.244,3.413,25.2-.748,4.224-2.21.021-9.653,1.15-10.949s8.916-.813,8.415-7.557-5.711-10.028-10.5-8.71-5.219,3.621-5.17,6.479c.029,1.741-1.417,1.794-2.21,1.48A20.069,20.069,0,0,0,494.992,351.739Z" transform="translate(-476.371 -327.902)" fill="#303030"/>
            <path id="Trazado_40027" data-name="Trazado 40027" d="M560,433.033c-2.322,3.968,11.06,4.348,12.065,1.258s-5.217-10.88-6.08-10.64S561.435,429.53,560,433.033Z" transform="translate(-543.261 -393.925)"/>
            <path id="Trazado_40028" data-name="Trazado 40028" d="M572.233,474.588a1.517,1.517,0,0,0,1.061,1.734c1.31.394,5.47.415,6.211-.184s.219-1.879.219-1.879Z" transform="translate(-553.541 -435.616)" fill="#191919"/>
            <path id="Trazado_40029" data-name="Trazado 40029" d="M503.184,363.589a5.247,5.247,0,1,1-5.846-4.852A5.375,5.375,0,0,1,503.184,363.589Z" transform="translate(-488.073 -340.431)" fill="#fff"/>
            <path id="Trazado_40030" data-name="Trazado 40030" d="M664.018,365.492a5.247,5.247,0,1,1-5.846-4.852A5.376,5.376,0,0,1,664.018,365.492Z" transform="translate(-620.553 -341.998)" fill="#fff"/>
            <path id="Trazado_40031" data-name="Trazado 40031" d="M662.914,380.595a3.9,3.9,0,1,0,3.918-3.878A3.9,3.9,0,0,0,662.914,380.595Z" transform="translate(-628.251 -355.269)"/>
            <path id="Trazado_40032" data-name="Trazado 40032" d="M501.821,380.9a3.9,3.9,0,1,0,3.63-4.147A3.9,3.9,0,0,0,501.821,380.9Z" transform="translate(-495.551 -355.292)"/>
            <path id="Trazado_40033" data-name="Trazado 40033" d="M521.743,402.337c-3.438,1.069-10.432,6.285-10.273,10.867a5.524,5.524,0,0,0,8.221,4.877c3.534-1.948,5.77-11.068,6.552-12.529C525.191,403.77,521.743,402.337,521.743,402.337Z" transform="translate(-503.504 -376.373)" fill="#191919"/>
            <path id="Trazado_40034" data-name="Trazado 40034" d="M593.4,406.729c.278,1.5,3.138,5.706,4.322,8.752s4.441,4.448,8.1,2.538,4.992-5.93,1.389-9.493-8.308-5.571-9.513-5.192C596.444,403.771,593.4,406.729,593.4,406.729Z" transform="translate(-570.995 -377.157)" fill="#191919"/>
            <path id="Trazado_40035" data-name="Trazado 40035" d="M503.865,324.859c-.063.127-.512.009-1.2-.1a6.988,6.988,0,0,0-2.643.083,10.262,10.262,0,0,0-2.512.995c-.628.332-1.032.568-1.128.46-.082-.091.158-.508.736-1.021a6.233,6.233,0,0,1,2.688-1.377,5.3,5.3,0,0,1,1.7-.118,4.889,4.889,0,0,1,1.345.32C503.575,324.4,503.923,324.749,503.865,324.859Z" transform="translate(-491.064 -311.644)"/>
            <path id="Trazado_40036" data-name="Trazado 40036" d="M671.685,324.024c-.091.109-.449-.054-1-.272a9.38,9.38,0,0,0-2.186-.577,11.635,11.635,0,0,0-2.281-.066c-.6.032-.986.065-1.036-.065s.276-.388.9-.606a5.586,5.586,0,0,1,2.548-.223,5.135,5.135,0,0,1,2.394.942,2.639,2.639,0,0,1,.557.553C671.692,323.864,671.728,323.972,671.685,324.024Z" transform="translate(-630.119 -310.329)"/>
            <g id="Grupo_35501" data-name="Grupo 35501" transform="translate(18.019 23.847)">
              <path id="Trazado_40037" data-name="Trazado 40037" d="M568.507,392.138s-.115-1.821,3.806-1.808,5.059,1.138,5.358,1.851-.084,4.425-4.667,4.375A4.3,4.3,0,0,1,568.507,392.138Z" transform="translate(-568.507 -390.33)"/>
              <path id="Trazado_40038" data-name="Trazado 40038" d="M580.712,401.79s-.239-1.638-1.626-1.29c-.955.24-.053,3.014.837,3.258S580.8,402.632,580.712,401.79Z" transform="translate(-576.885 -398.667)" fill="#262626"/>
              <path id="Trazado_40039" data-name="Trazado 40039" d="M599.088,401.177s.142-1.649,1.546-1.384c.967.182.232,3.006-.642,3.3S599.054,402.023,599.088,401.177Z" transform="translate(-593.691 -398.101)" fill="#262626"/>
              <path id="Trazado_40040" data-name="Trazado 40040" d="M594.232,392.318a6,6,0,0,1,2.913.514s.069.449-1.238.2S594.056,392.76,594.232,392.318Z" transform="translate(-589.67 -391.962)" fill="#161616"/>
            </g>
            <path id="Trazado_40041" data-name="Trazado 40041" d="M525.3,387.32a.677.677,0,0,0,.638-.665,2.828,2.828,0,0,0-1.855-2.829.677.677,0,0,0-.4,1.293,1.462,1.462,0,0,1,.9,1.513.677.677,0,0,0,.665.688Z" transform="translate(-513.173 -361.101)" fill="#fff"/>
            <path id="Trazado_40042" data-name="Trazado 40042" d="M685.205,386.805a.677.677,0,0,0,.639-.665,2.828,2.828,0,0,0-1.855-2.829.677.677,0,0,0-.4,1.293,1.462,1.462,0,0,1,.9,1.513.677.677,0,0,0,.666.688Z" transform="translate(-644.89 -360.677)" fill="#fff"/>
          </g>
          <path id="Trazado_40043" data-name="Trazado 40043" d="M571.738,456.233s-.491-.9.373-3.116a10.509,10.509,0,0,0,1.6,3.008A3.14,3.14,0,0,1,571.738,456.233Z" transform="translate(-553.034 -418.201)" fill="#fbfbf9"/>
          <path id="Trazado_40044" data-name="Trazado 40044" d="M579.207,459.34l-.643,1.873a1.855,1.855,0,0,0,1.857.2Z" transform="translate(-558.772 -423.327)" fill="#fbfbf9"/>
          <path id="Trazado_40045" data-name="Trazado 40045" d="M576.8,467.415a39.574,39.574,0,0,1-7,.034.843.843,0,0,0-.792.349h0a.845.845,0,0,0,.539,1.322,28.049,28.049,0,0,0,7.443.027.847.847,0,0,0,.567-1.387l-.039-.046A.843.843,0,0,0,576.8,467.415Z" transform="translate(-550.767 -429.976)" fill="#262626"/>
        </g>
        <path id="Trazado_40046" data-name="Trazado 40046" d="M684.967,242.942c.949-2.37,3.4-5.533,7.351-.777,3.018,3.631,7.426,2.874,7.689,6.191s-4.051,3.98-4.844,7.837-4.7-.789-5.119-5.662-3.446-6.483-3.446-6.483Z" transform="translate(-640.349 -239.696)" fill="#1c1c1c"/>
        <path id="Trazado_40047" data-name="Trazado 40047" d="M446.217,249.375c-1.208-2.249-3.993-5.119-7.392.048-2.594,3.945-7.059,3.684-6.95,7.011s4.469,3.5,5.688,7.247,4.578-1.308,4.455-6.2,2.7-6.826,2.7-6.826Z" transform="translate(-431.874 -245.32)" fill="#1c1c1c"/>
      </g>
      <g id="Grupo_35505" data-name="Grupo 35505" transform="translate(345.216 265.623)">
        <path id="Trazado_40048" data-name="Trazado 40048" d="M1086.385,703.025s-2.1,1.536-1.644,2.029,2.723-1.646,2.671-2.1C1087.336,702.277,1086.385,703.025,1086.385,703.025Z" transform="translate(-1084.677 -702.669)" fill="#494949"/>
        <path id="Trazado_40049" data-name="Trazado 40049" d="M1090.936,711.693s-2.416.966-2.1,1.557,3.046-.918,3.11-1.375C1092.043,711.2,1090.936,711.693,1090.936,711.693Z" transform="translate(-1088.082 -709.961)" fill="#494949"/>
      </g>
      <g id="Grupo_35506" data-name="Grupo 35506" transform="translate(320.371 257.941)">
        <path id="Trazado_40050" data-name="Trazado 40050" d="M945.452,659.446s-2.1,1.536-1.643,2.029,2.723-1.646,2.671-2.1C946.4,658.7,945.452,659.446,945.452,659.446Z" transform="translate(-943.744 -659.09)" fill="#262626"/>
        <path id="Trazado_40051" data-name="Trazado 40051" d="M950,668.114s-2.416.966-2.1,1.557,3.046-.917,3.11-1.374C951.109,667.625,950,668.114,950,668.114Z" transform="translate(-947.148 -666.381)" fill="#262626"/>
      </g>
      <g id="Grupo_35507" data-name="Grupo 35507" transform="translate(276.2 271.696)">
        <path id="Trazado_40052" data-name="Trazado 40052" d="M694.9,737.473s-2.1,1.536-1.644,2.029,2.723-1.646,2.671-2.1C695.847,736.725,694.9,737.473,694.9,737.473Z" transform="translate(-693.188 -737.117)" fill="#383838"/>
        <path id="Trazado_40053" data-name="Trazado 40053" d="M699.447,746.141s-2.416.966-2.1,1.557,3.046-.917,3.11-1.374C700.554,745.653,699.447,746.141,699.447,746.141Z" transform="translate(-696.593 -744.409)" fill="#383838"/>
      </g>
      <g id="Grupo_35508" data-name="Grupo 35508" transform="translate(276.2 271.696)">
        <path id="Trazado_40054" data-name="Trazado 40054" d="M694.9,737.473s-2.1,1.536-1.644,2.029,2.723-1.646,2.671-2.1C695.847,736.725,694.9,737.473,694.9,737.473Z" transform="translate(-693.188 -737.117)" fill="#383838"/>
        <path id="Trazado_40055" data-name="Trazado 40055" d="M699.447,746.141s-2.416.966-2.1,1.557,3.046-.917,3.11-1.374C700.554,745.653,699.447,746.141,699.447,746.141Z" transform="translate(-696.593 -744.409)" fill="#383838"/>
      </g>
      <g id="Grupo_35509" data-name="Grupo 35509" transform="translate(242.437 264.833)">
        <path id="Trazado_40056" data-name="Trazado 40056" d="M503.376,698.544s-2.1,1.536-1.644,2.029,2.723-1.646,2.671-2.1C504.327,697.8,503.376,698.544,503.376,698.544Z" transform="translate(-501.668 -698.188)" fill="#383838"/>
        <path id="Trazado_40057" data-name="Trazado 40057" d="M507.927,707.212s-2.416.966-2.1,1.557,3.047-.918,3.11-1.375C509.034,706.723,507.927,707.212,507.927,707.212Z" transform="translate(-505.073 -705.479)" fill="#383838"/>
      </g>
    </g>
  </g>
</svg>
