<svg xmlns="http://www.w3.org/2000/svg" xmlns:xlink="http://www.w3.org/1999/xlink" width="176" height="176" viewBox="0 0 176 176">
  <defs>
    <linearGradient id="linear-gradient" x1="0.443" y1="-5.315" x2="0.324" y2="-6.274" gradientUnits="objectBoundingBox">
      <stop offset="0" stop-color="#f1e8ff"/>
      <stop offset="0.256" stop-color="#e0d1ff"/>
      <stop offset="1" stop-color="#b393ff"/>
    </linearGradient>
    <clipPath id="clip-path">
      <path id="Trazado_4973" data-name="Trazado 4973" d="M6605.029,437.118c-33.659,3.795-16.128,49.644-16.128,49.644.323,2.826,10.191,4.035,22.052,2.7s21.218-4.711,20.9-7.543C6631.83,481.915,6638.681,433.335,6605.029,437.118Z" fill="none"/>
    </clipPath>
  </defs>
  <g id="Grupo_2489" data-name="Grupo 2489" transform="translate(-6526.469 -427.457)">
    <path id="Trazado_4945" data-name="Trazado 4945" d="M6623.057,431.659s-34.383-12.329-56.79,10.412,3.524,55.892-4.18,72.126-8.254,41.892,20.742,46.449,92.286-19.359,102.785-62.495S6623.057,431.659,6623.057,431.659Z" transform="translate(-3)" fill="#6d31ff"/>
    <rect id="Rectángulo_1877" data-name="Rectángulo 1877" width="176" height="176" transform="translate(6526.469 427.457)" fill="none"/>
    <g id="Grupo_2488" data-name="Grupo 2488">
      <path id="Trazado_4946" data-name="Trazado 4946" d="M6577.112,602.567l103.113-8.034-46.687-83-38.953,4.478-17.473,86.553" fill="url(#linear-gradient)"/>
      <path id="Trazado_4947" data-name="Trazado 4947" d="M6600.8,600.722l55.215-4.3-32.73-83.642-16.812,1.632-3.58,55.456Z" fill="#fff" opacity="0.34"/>
      <g id="Grupo_2487" data-name="Grupo 2487">
        <path id="Trazado_4948" data-name="Trazado 4948" d="M6641.922,506.068c.655,5.833-11.516,13.88-27.461,15.678s-29.614-3.36-30.268-9.142,11.949-10.068,27.894-11.866S6641.268,500.293,6641.922,506.068Z" fill="#cc2555"/>
        <path id="Trazado_4949" data-name="Trazado 4949" d="M6612.089,500.713c-3.061.365-5.992.782-8.733,1.3,11.754-.436,20.506,1.34,21.039,6.039s-7.333,10.889-18.777,14.009a57.284,57.284,0,0,0,8.843-.313c15.937-1.773,28.118-9.87,27.461-15.678S6628.027,498.914,6612.089,500.713Z" fill="#b72052"/>
        <path id="Trazado_4950" data-name="Trazado 4950" d="M6580.476,510.422l-.057,2.137-.17.453a4.812,4.812,0,0,0,3.179,3.244c3.347,1.091,17.375,1.565,30.515.137s24.9-4.623,28.4-6.566a6.275,6.275,0,0,0,3.422-4.946Z" fill="#f15a29"/>
        <path id="Trazado_4951" data-name="Trazado 4951" d="M6656.157,499.17a7.717,7.717,0,0,0-.505-8.637,3.76,3.76,0,0,0-1.18-1.145c-4.489-3.022-20.754-3.794-43.658-1.231-23.5,2.645-39.4,7.206-42.548,11.227h0s-3.344,3.8.274,9.077a4.044,4.044,0,0,0,.849.9c4.01,3.627,20.714,6.222,44.223,3.572,22.647-2.554,38.05-8.449,41.923-12.842h0a1.043,1.043,0,0,0,.1-.119A4.019,4.019,0,0,0,6656.157,499.17Z" fill="#939598"/>
        <path id="Trazado_4952" data-name="Trazado 4952" d="M6656.157,499.17a7.717,7.717,0,0,0-.505-8.637,3.76,3.76,0,0,0-1.18-1.145c-4.489-3.022-20.754-3.794-43.658-1.231-23.5,2.645-39.4,7.206-42.548,11.227h0s-3.344,3.8.274,9.077a4.044,4.044,0,0,0,.849.9c4.01,3.627,20.714,6.222,44.223,3.572,22.647-2.554,38.05-8.449,41.923-12.842h0a1.043,1.043,0,0,0,.1-.119A4.019,4.019,0,0,0,6656.157,499.17Z" fill="#939598"/>
        <path id="Trazado_4953" data-name="Trazado 4953" d="M6654.125,489.177c-4.915-2.849-20.949-3.548-43.318-1.02s-37.822,6.776-42.02,10.645c2.03,4.032,21.152,5.357,43.52,2.835S6651.349,493.431,6654.125,489.177Z" fill="#6d6e71"/>
        <path id="Trazado_4954" data-name="Trazado 4954" d="M6634.935,482.053l-.057-.005c-1.2-3.726-12.2-5.552-25.251-4.083s-23.373,5.7-23.712,9.606l-.044,0a23.668,23.668,0,0,0-1.808,9.955c2.98,3.027,14.547,4.248,28.074,2.727h0c13.527-1.522,24.536-5.291,26.767-8.908A23.462,23.462,0,0,0,6634.935,482.053Z" fill="#30a2ef"/>
        <path id="Trazado_4955" data-name="Trazado 4955" d="M6616.148,483.852c5.167.683,8.687,2.142,9.332,4.163l.057,0a25.017,25.017,0,0,1,3.87,8.689,34.242,34.242,0,0,0,6.573-2.814,25.483,25.483,0,0,0-3.838-8.539l-.057,0c-.746-2.332-5.325-3.919-11.844-4.422Z" fill="#3fb0ef"/>
        <ellipse id="Elipse_450" data-name="Elipse 450" cx="21.611" cy="5.157" rx="21.611" ry="5.157" transform="translate(6588.296 481.635) rotate(-6.434)" fill="#d6e3ea"/>
        <circle id="Elipse_451" data-name="Elipse 451" cx="1.591" cy="1.591" r="1.591" transform="translate(6611.33 505.702)" fill="#6d6e71"/>
        <circle id="Elipse_452" data-name="Elipse 452" cx="1.591" cy="1.591" r="1.591" transform="translate(6611.33 505.702)" fill="#6d6e71"/>
        <path id="Trazado_4956" data-name="Trazado 4956" d="M6612.742,505.712a1.711,1.711,0,0,0-.433.108,1.591,1.591,0,0,1,.368,3.042,1.483,1.483,0,0,0,.445.04,1.592,1.592,0,0,0-.357-3.163Z" fill="#636468"/>
        <circle id="Elipse_453" data-name="Elipse 453" cx="1.591" cy="1.591" r="1.591" transform="translate(6621.689 504.229)" fill="#6d6e71"/>
        <path id="Trazado_4957" data-name="Trazado 4957" d="M6623.1,504.232a1.519,1.519,0,0,0-.433.115,1.585,1.585,0,0,1,.368,3.036,1.516,1.516,0,0,0,.445.04,1.591,1.591,0,0,0-.356-3.163Z" fill="#636468"/>
        <circle id="Elipse_454" data-name="Elipse 454" cx="1.591" cy="1.591" r="1.591" transform="translate(6631.215 502.533)" fill="#6d6e71"/>
        <path id="Trazado_4958" data-name="Trazado 4958" d="M6632.628,502.543a1.576,1.576,0,0,0-.433.108,1.592,1.592,0,0,1,.367,3.043,1.805,1.805,0,0,0,.446.04,1.592,1.592,0,1,0-.357-3.163h0Z" fill="#636468"/>
        <circle id="Elipse_455" data-name="Elipse 455" cx="1.591" cy="1.591" r="1.591" transform="translate(6639.868 500.355)" fill="#6d6e71"/>
        <path id="Trazado_4959" data-name="Trazado 4959" d="M6641.281,500.358a1.477,1.477,0,0,0-.434.115,1.585,1.585,0,0,1,.368,3.036,1.558,1.558,0,0,0,.446.04,1.592,1.592,0,0,0-.357-3.163Z" fill="#636468"/>
        <circle id="Elipse_456" data-name="Elipse 456" cx="1.591" cy="1.591" r="1.591" transform="translate(6647.996 497.443)" fill="#6d6e71"/>
        <path id="Trazado_4960" data-name="Trazado 4960" d="M6649.408,497.452a1.7,1.7,0,0,0-.433.109,1.591,1.591,0,0,1,.368,3.042,1.52,1.52,0,0,0,.445.04,1.591,1.591,0,0,0-.356-3.163Z" fill="#636468"/>
        <circle id="Elipse_457" data-name="Elipse 457" cx="1.591" cy="1.591" r="1.591" transform="translate(6655.028 492.879)" fill="#6d6e71"/>
        <path id="Trazado_4961" data-name="Trazado 4961" d="M6656.441,492.882a1.542,1.542,0,0,0-.427.116,1.591,1.591,0,0,1,.368,3.035,1.442,1.442,0,0,0,.439.04,1.592,1.592,0,1,0-.357-3.163h0Z" fill="#636468"/>
        <circle id="Elipse_458" data-name="Elipse 458" cx="1.591" cy="1.591" r="1.591" transform="translate(6565.522 502.969)" fill="#6d6e71"/>
        <path id="Trazado_4962" data-name="Trazado 4962" d="M6566.91,502.977a1.757,1.757,0,0,0-.427.109,1.6,1.6,0,0,1,.342,3.046,1.469,1.469,0,0,0,.439.039,1.592,1.592,0,0,0-.357-3.163h0Z" fill="#636468"/>
        <circle id="Elipse_459" data-name="Elipse 459" cx="1.591" cy="1.591" r="1.591" transform="translate(6600.799 506.582)" fill="#6d6e71"/>
        <path id="Trazado_4963" data-name="Trazado 4963" d="M6602.212,506.592a1.333,1.333,0,0,0-.434.108,1.592,1.592,0,0,1,.368,3.043,2.15,2.15,0,0,0,.446.04,1.592,1.592,0,1,0-.357-3.163Z" fill="#636468"/>
        <circle id="Elipse_460" data-name="Elipse 460" cx="1.591" cy="1.591" r="1.591" transform="translate(6591.133 507.053)" fill="#6d6e71"/>
        <path id="Trazado_4964" data-name="Trazado 4964" d="M6592.545,507.062a1.785,1.785,0,0,0-.426.109,1.592,1.592,0,0,1,.367,3.043,1.476,1.476,0,0,0,.439.039,1.591,1.591,0,1,0-.356-3.163Z" fill="#636468"/>
        <circle id="Elipse_461" data-name="Elipse 461" cx="1.591" cy="1.591" r="1.591" transform="translate(6582.135 506.865)" fill="#6d6e71"/>
        <path id="Trazado_4965" data-name="Trazado 4965" d="M6583.549,506.868a1.537,1.537,0,0,0-.428.116,1.591,1.591,0,0,1,.368,3.035,1.451,1.451,0,0,0,.44.04,1.592,1.592,0,1,0-.357-3.163Z" fill="#636468"/>
        <circle id="Elipse_462" data-name="Elipse 462" cx="1.591" cy="1.591" r="1.591" transform="translate(6573.645 505.824)" fill="#6d6e71"/>
        <path id="Trazado_4966" data-name="Trazado 4966" d="M6575.051,505.833a1.368,1.368,0,0,0-.427.109,1.592,1.592,0,0,1,.368,3.043,2.018,2.018,0,0,0,.439.039,1.592,1.592,0,0,0-.357-3.163Z" fill="#636468"/>
        <g id="Grupo_2486" data-name="Grupo 2486">
          <g id="Grupo_2485" data-name="Grupo 2485" clip-path="url(#clip-path)">
            <g id="Grupo_2484" data-name="Grupo 2484">
              <g id="Grupo_2483" data-name="Grupo 2483">
                <path id="Trazado_4967" data-name="Trazado 4967" d="M6609.279,489.527l-.274-2.655S6592.933,480.1,6589.377,469s2.279-21.031,16.707-21.656,18.627,11.878,17.766,20.013-5.449,14.2-11.757,18.7l.7,4.3Z" fill="#31e223"/>
                <path id="Trazado_4968" data-name="Trazado 4968" d="M6593.827,469.465c-3.556-11.1,2.279-21.031,16.706-21.656.255.022.452-.024.706,0a20.217,20.217,0,0,0-5.161-.4c-14.427.626-20.262,10.558-16.706,21.657S6609,486.872,6609,486.872l.21,2.649,3.588.772-.64-3.586C6608.349,484.888,6596.785,478.65,6593.827,469.465Z" fill="#32d621"/>
                <path id="Trazado_4969" data-name="Trazado 4969" d="M6615.195,472.993s.66-13.028,8.967-13.371C6624.162,459.622,6626.451,470.543,6615.195,472.993Z" fill="#1e2bc6"/>
                <path id="Trazado_4970" data-name="Trazado 4970" d="M6624.162,459.622a6.862,6.862,0,0,0-2.424.552c.245,2.267.344,9.013-6.521,11.859l-.092,1.018C6626.451,470.543,6624.162,459.622,6624.162,459.622Z" fill="#19309e"/>
                <path id="Trazado_4971" data-name="Trazado 4971" d="M6590.454,462.746s13-1.909,16.85,10.948C6607.3,473.694,6594.705,474.677,6590.454,462.746Z" fill="#1e2bc6"/>
                <path id="Trazado_4972" data-name="Trazado 4972" d="M6592.132,462.64a8.1,8.1,0,0,0-1.678.106c4.251,11.931,16.85,10.948,16.85,10.948l-.609-1.787C6603.311,471.731,6595.789,470.476,6592.132,462.64Z" fill="#19309e"/>
                <g id="Grupo_2482" data-name="Grupo 2482">
                  <ellipse id="Elipse_463" data-name="Elipse 463" cx="0.447" cy="0.831" rx="0.447" ry="0.831" transform="translate(6615.369 451.652) rotate(-57.223)" fill="#2ebc1e"/>
                  <ellipse id="Elipse_464" data-name="Elipse 464" cx="0.447" cy="0.831" rx="0.447" ry="0.831" transform="translate(6613.535 452.414) rotate(-57.223)" fill="#2ebc1e"/>
                  <ellipse id="Elipse_465" data-name="Elipse 465" cx="0.447" cy="0.831" rx="0.447" ry="0.831" transform="translate(6615.844 453.962) rotate(-57.223)" fill="#2ebc1e"/>
                </g>
              </g>
            </g>
          </g>
        </g>
        <path id="Trazado_4974" data-name="Trazado 4974" d="M6605.029,437.118c-33.659,3.795-16.128,49.644-16.128,49.644.323,2.826,10.191,4.035,22.052,2.7s21.218-4.711,20.9-7.543C6631.83,481.915,6638.681,433.335,6605.029,437.118Z" fill="#dcdfe2" opacity="0.18"/>
        <path id="Trazado_4975" data-name="Trazado 4975" d="M6608.826,436.915c25.148,3.733,19.364,44.73,19.364,44.73.323,2.832-9.034,6.211-20.9,7.549a79.554,79.554,0,0,1-11.517.5,69.654,69.654,0,0,0,15.151-.24c11.861-1.338,21.218-4.717,20.9-7.542C6631.83,481.915,6638.14,437.136,6608.826,436.915Z" fill="#d6e3ea" opacity="0.18"/>
        <path id="Trazado_4976" data-name="Trazado 4976" d="M6610.468,477.144s.944,1.477,2.268,1.178a2.226,2.226,0,0,0,1.734-1.933s.055-.707.548-.529c0,0,.425.139.226.729a3.245,3.245,0,0,1-2.36,2.5,2.814,2.814,0,0,1-3.178-1.517s-.225-.424,0-.621C6609.706,476.951,6610.126,476.589,6610.468,477.144Z" fill="#211f1f"/>
      </g>
    </g>
  </g>
</svg>
