<svg xmlns="http://www.w3.org/2000/svg" xmlns:xlink="http://www.w3.org/1999/xlink" width="654" height="832" viewBox="0 0 654 832">
  <defs>
    <clipPath id="clip-path">
      <rect id="Rect치ngulo_3771" data-name="Rect치ngulo 3771" width="654" height="832" transform="translate(3752 63)" fill="none" stroke="#707070" stroke-width="1"/>
    </clipPath>
  </defs>
  <g id="Enmascarar_grupo_3" data-name="Enmascarar grupo 3" transform="translate(-3752 -63)" clip-path="url(#clip-path)">
    <g id="Grupo_34764" data-name="Grupo 34764" transform="translate(149.688)">
      <path id="Uni칩n_2" data-name="Uni칩n 2" d="M436.081,107.224H-149.688c88.5-88.5,228-105,228-105l-.054.09c29.893-5.429,71.212-2.3,127.669,20.132,0,0,56.3,28.686,111.787,6.97S442.37,9.9,482.581,67.216a135.113,135.113,0,0,0,43.4,40.008Zm-333.5-.132.176-.187Zm.32-.34.072-.076ZM222.625,88.787h0Zm-.023,0a319.919,319.919,0,0,1-43.214-3.074A319.724,319.724,0,0,0,222.6,88.787Zm-43.214-3.074A136.807,136.807,0,0,0,160.9,84.4,136.9,136.9,0,0,1,179.388,85.713ZM160.873,84.4h0ZM402.963,70.433c-14.738-12.594-30.274-16.8-44.447-16.8C372.687,53.639,388.228,57.841,402.963,70.433Zm-44.5-16.8h0Z" transform="translate(3697.413 787.323)" fill="#6d31ff" stroke="rgba(0,0,0,0)" stroke-width="1"/>
      <path id="Trazado_39130" data-name="Trazado 39130" d="M1276.341,268.206s-23.746-29.9-97.621-11.433c-51.887,12.973-93.793-59.089-114.145-103.136H920a109.224,109.224,0,0,1,10.416,18.415c26.384,59.8,115.5,79.152,115.5,79.152s40.456,10.553,53.941,35.178,43.387,67.425,112.572,47.491,165.924,48.664,165.924,48.664,56.491,43.3,130.952,63.5V238.4C1361.172,339.026,1276.341,268.206,1276.341,268.206Z" transform="translate(2753.002 -90.817)" fill="#6d31ff"/>
      <path id="Trazado_39131" data-name="Trazado 39131" d="M1481.069,546.058c-73.587-71.175-176.126-89.672-176.126-89.672s-74.793-9.249-132.3,26.137c-45.945,28.274-172.91-2.75-222.236-16.158,0,0-48.549-8.821-108.7-5.952,1.275,25.06,1.995,51.739,1.995,80.123,0,101.838-7.847,186.53-18.073,253.7l14.776,6.13s76,33,108,20c30.784-12.506,86.545-64.8,90.739-68.754.01.091.02.183.029.273,105.2-102.364,165.419-120.087,260.938-77.552,102.941,45.841,156.02-7.238,156.02-7.238s24.6-14.572,53.172-19.285V567.547A146.31,146.31,0,0,1,1481.069,546.058Z" transform="translate(2753.002 -80.817)" fill="#6d31ff"/>
    </g>
  </g>
</svg>
