<svg xmlns="http://www.w3.org/2000/svg" width="496" height="550" viewBox="0 0 496 550">
  <g id="Grupo_34792" data-name="Grupo 34792" transform="translate(-496 -70)">
    <rect id="Rectángulo_3773" data-name="Rectángulo 3773" width="496" height="550" transform="translate(496 70)" fill="none"/>
    <g id="Grupo_34791" data-name="Grupo 34791" transform="translate(-2523.488 -830.306)">
      <g id="Grupo_34790" data-name="Grupo 34790" transform="translate(3058.66 902.424)">
        <g id="Grupo_34785" data-name="Grupo 34785" transform="translate(0 42.816)">
          <path id="Trazado_41738" data-name="Trazado 41738" d="M3059.722,1407.987h182.1s-10.563-18.665-28.9-12.133c0,0-9.312-15.991-23.939-6.911,0,0-19.908-22.655-45.035-6.787,0,0-6.879-19.041-30.68-18.644s-30.147,22.235-30.147,22.235S3059.722,1382.647,3059.722,1407.987Z" transform="translate(-3059.722 -975.395)" fill="#fccc05"/>
          <path id="Trazado_41739" data-name="Trazado 41739" d="M3189.275,1378.609H3459.34c25.15-.776,26.492-11.5,23.725-15.573-2.568-3.781-5.146-3.651-9.293-1.461a29.355,29.355,0,0,1-14.432,3.466H3189.275s-10.808-.4-15.817-3.466-10.544,6.951-3.427,11.959S3189.275,1378.609,3189.275,1378.609Z" transform="translate(-3066.714 -975.168)" fill="#424242"/>
          <path id="Trazado_41740" data-name="Trazado 41740" d="M3219.4,1381.424h0c-.1,2.763,2.611,5.072,5.958,5.065l192.248-.341c3.131-.006,5.669-2.044,5.765-4.629l.06-1.6c.1-2.783-2.648-5.1-6.017-5.066l-192.308,1.938C3222,1376.825,3219.5,1378.856,3219.4,1381.424Z" transform="translate(-3070.165 -976.137)" fill="#422c9b"/>
          <path id="Trazado_41741" data-name="Trazado 41741" d="M3225.772,1381.424h0c-.1,2.763,2.611,5.072,5.958,5.065l192.249-.341c3.131-.006,5.668-2.044,5.764-4.629l.06-1.6c.1-2.783-2.647-5.1-6.017-5.066l-192.308,1.938C3228.371,1376.825,3225.868,1378.856,3225.772,1381.424Z" transform="translate(-3070.581 -976.137)" fill="#6d31fd"/>
          <path id="Trazado_41742" data-name="Trazado 41742" d="M3404.935,1019.1s-15.816-13.049-3.294-40.464c0,0,30.347,1.126,39.047,8.375,0,0,0,10.77-1.747,17.328-3.067,11.518-8.171,14.762-8.171,14.762Z" transform="translate(-3081.769 -950.224)" fill="#e2a388"/>
          <path id="Trazado_41743" data-name="Trazado 41743" d="M3405.273,995.673l21.451-5.437,12.109,5.659s-2.414,18.658-11.515,22.118l-17.991.89S3397.167,1007.337,3405.273,995.673Z" transform="translate(-3082.139 -950.983)" fill="#d3927a" opacity="0.33"/>
          <path id="Trazado_41744" data-name="Trazado 41744" d="M3401.978,984.919v-8.271s5.647-26.624,19.382-28.4c0,0,6.419-.494,4.54,6.03s-8.414,13.683-8.655,23.6C3417.245,977.872,3413.445,987.686,3401.978,984.919Z" transform="translate(-3082.106 -948.236)" fill="#e2a388"/>
          <path id="Trazado_41745" data-name="Trazado 41745" d="M3437.76,983.573a5.846,5.846,0,0,1,7.71,0c3.954,3.361-2.145,14.235-5.57,15.026s-4.81-2.669-4.71-4.449S3437.76,983.573,3437.76,983.573Z" transform="translate(-3084.278 -950.449)" fill="#e2a388"/>
          <path id="Trazado_41746" data-name="Trazado 41746" d="M3445.706,983.573a5.635,5.635,0,0,0-6.913-.564,5.565,5.565,0,0,1,4.441,1.449c3.443,2.926-.734,11.544-4.133,14.248a4.152,4.152,0,0,0,1.034-.107C3443.561,997.808,3449.66,986.934,3445.706,983.573Z" transform="translate(-3084.514 -950.449)" fill="#d3927a" opacity="0.33"/>
          <path id="Trazado_41747" data-name="Trazado 41747" d="M3427.832,980.045s2.72-4.942,7.86-3.163,3.658,8.3,2.471,12.257-3.163,8.2-7.512,8.106S3424.815,990.227,3427.832,980.045Z" transform="translate(-3083.693 -950.084)" fill="#e2a388"/>
          <path id="Trazado_41748" data-name="Trazado 41748" d="M3435.955,976.882a5.948,5.948,0,0,0-5.684.788,6.046,6.046,0,0,1,3.953.1c5.14,1.779,3.658,8.3,2.471,12.257-.8,2.66-1.957,5.449-3.952,6.963,3.1-.951,4.678-4.5,5.683-7.853C3439.613,985.185,3441.1,978.661,3435.955,976.882Z" transform="translate(-3083.956 -950.084)" fill="#d3927a" opacity="0.33"/>
          <path id="Trazado_41749" data-name="Trazado 41749" d="M3414.96,979.1s4.869-7.7,10.8-6.017,4.943,14.531,3.263,18.288-4.643,5.207-7.957,4.679-5.1-8.789-2.973-16.569Z" transform="translate(-3082.955 -949.845)" fill="#e2a388"/>
          <path id="Trazado_41750" data-name="Trazado 41750" d="M3426.066,973.084a7.522,7.522,0,0,0-6.431,1.439,6.7,6.7,0,0,1,4.044-.148c6.1,1.729,5.085,14.949,3.356,18.814a10.154,10.154,0,0,1-1.4,2.293,7.993,7.993,0,0,0,3.69-4.109C3431.009,987.615,3432,974.765,3426.066,973.084Z" transform="translate(-3083.261 -949.845)" fill="#d3927a" opacity="0.33"/>
          <path id="Trazado_41751" data-name="Trazado 41751" d="M3404.85,1019.716s-9.424-7.282-9.325-18.749,9-9.787,14.037-10.775,6.723-3.263,9.293-1.483,3.177,7.019-.586,9.984-10.038,3.46-10.038,3.46l4.891,17.563Z" transform="translate(-3081.684 -950.84)" fill="#e2a388"/>
          <path id="Trazado_41752" data-name="Trazado 41752" d="M3405.257,1003.733l3.61-.593s11.724,1.779,12.707,15.125l-12.067,1.482Z" transform="translate(-3082.32 -951.827)" fill="#e2a388"/>
          <path id="Trazado_41753" data-name="Trazado 41753" d="M3397.8,1003.391c.1-11.467,9-9.786,14.038-10.775,4.574-.9,6.382-2.841,8.6-1.867a4.658,4.658,0,0,0-1.578-2.04c-2.571-1.779-4.252.494-9.293,1.483s-13.938-.693-14.037,10.775c-.077,8.956,5.655,15.36,8.169,17.735A23.834,23.834,0,0,1,3397.8,1003.391Z" transform="translate(-3081.684 -950.84)" fill="#d3927a" opacity="0.33"/>
          <path id="Trazado_41754" data-name="Trazado 41754" d="M3190.825,1315.308a4.183,4.183,0,0,0-4.35-1.235c-2.635.839-5.667,6.079-6.194,9.061s7.983,20.314,29.3,33.33c0,0,6.877,6.582,12.484,9.324,9.969,4.877,47.185,1.978,50.217-.132s1.845-6.332,1.845-6.332Z" transform="translate(-3067.605 -972.149)" fill="#e8edef"/>
          <path id="Trazado_41755" data-name="Trazado 41755" d="M3333.589,1034.9s23.391,45.767-3.594,84.307l-56.734-12.225,34.868-70.933Z" transform="translate(-3073.688 -953.904)" fill="#fccc05"/>
          <path id="Trazado_41756" data-name="Trazado 41756" d="M3333.589,1034.9s23.391,45.767-3.594,84.307l-56.734-12.225,34.868-70.933Z" transform="translate(-3073.688 -953.904)" fill="#dbb100" opacity="0.5"/>
          <g id="Grupo_34762" data-name="Grupo 34762" transform="translate(141.391 92.851)">
            <path id="Trazado_41757" data-name="Trazado 41757" d="M3242.833,1047.584s-29.542,9.328-31.638,18.568,13.669,11.757,32.307,5.117C3243.5,1071.269,3252.713,1059.441,3242.833,1047.584Z" transform="translate(-3211.007 -1047.584)" fill="#0e7992"/>
            <path id="Trazado_41758" data-name="Trazado 41758" d="M3242.838,1047.584a114.431,114.431,0,0,0-11.569,4.15c-.388,10.306-10.09,15.1-10.09,15.1a24.366,24.366,0,0,1-10.1,1.78c1.075,7.169,15.576,8.654,32.427,2.651C3243.507,1071.269,3252.718,1059.441,3242.838,1047.584Z" transform="translate(-3211.012 -1047.584)" fill="#006070" opacity="0.7"/>
          </g>
          <path id="Trazado_41759" data-name="Trazado 41759" d="M3321.547,1033.5s-4.481-20.61-36.641-19.924-44.136,17.144-46.985,35.725c-2.776,18.112-20.367,21.239-30.384,19.656s-18.584-3.819-34.664-20.427-28.733-3.144-26.888,9.5c1.608,11.013,9.226,15.736,20.034,21.308s-1.054,10.686-11.6,8.129-16.289-4.826-30.578-25.969c-12.654-18.721-39.3-6.032-34.005,17.216,6.985,30.686,37.169,33.289,36.246,39.937-.659,4.745-8.01,5.11-17,2.307-11.2-3.494-16.345,3.756-13.049,15.355,5.15,18.127,38.157,37.631,66.3,26.625l125.235-66.9Z" transform="translate(-3061.647 -952.508)" fill="#fccc05"/>
          <path id="Trazado_41760" data-name="Trazado 41760" d="M3294.627,1083.151l-125.235,66.9c-28.14,11.006-61.147-8.5-66.3-26.624-.186-.655-.341-1.293-.474-1.919-6.281.927-8.7,7.245-6.177,16.112,5.15,18.127,38.157,37.631,66.3,26.625l125.235-66.9,33.984-62.533a11.386,11.386,0,0,0-.382-1.252Z" transform="translate(-3062.059 -953.816)" fill="#dbb100" opacity="0.5"/>
          <path id="Trazado_41761" data-name="Trazado 41761" d="M3207.033,1110.047c-.4.606,31.057-17.574,41.808-42.462l55.073-5.331-69.424,68.39Z" transform="translate(-3069.356 -955.693)" fill="#dbb100" opacity="0.5"/>
          <path id="Trazado_41762" data-name="Trazado 41762" d="M3432.4,1025.873s4.912-5.195-2.4-7.552-21.874-.781-26.2,1.566-1.743,8.507-1.743,8.507a49.408,49.408,0,0,1,16.914-4.55S3428.55,1023.389,3432.4,1025.873Z" transform="translate(-3082.061 -952.743)" fill="#422c9b"/>
          <path id="Trazado_41763" data-name="Trazado 41763" d="M3243.782,1107.342s92.593-5.1,117.372-19.256,26.888-35.245,25.833-50.007c0,0-2.24-10.808,7.15-13.28s17.991-2.174,22.539-.791,7.117,5.14,9,10.874,12.653,46.264-13.049,79.725-55.354,40.975-55.354,40.975-.414,11.268-4.063,19.572l-154.227,4.218Z" transform="translate(-3068.829 -953.122)" fill="#6d31fd"/>
          <path id="Trazado_41764" data-name="Trazado 41764" d="M3243.782,1107.342s92.593-5.1,117.372-19.256,26.888-35.245,25.833-50.007c0,0-2.24-10.808,7.15-13.28s17.991-2.174,22.539-.791,7.117,5.14,9,10.874,12.653,46.264-13.049,79.725-55.354,40.975-55.354,40.975-.414,11.268-4.063,19.572l-154.227,4.218Z" transform="translate(-3068.829 -953.122)" fill="#422c9b" opacity="0.35"/>
          <path id="Trazado_41765" data-name="Trazado 41765" d="M3363.137,1155.857s29.653-7.513,55.354-40.975,14.927-73.991,13.049-79.725a20.558,20.558,0,0,0-4.318-8c-5.051,3.908-3.474,11.524-3.474,11.524,1.054,14.762-1.982,39.209-26.411,53.963-29.454,17.789-75.761,28.471-75.761,28.471l-32.878,56.24,70.376-1.924C3362.723,1167.125,3363.137,1155.857,3363.137,1155.857Z" transform="translate(-3074.697 -953.397)" fill="#422c9b" opacity="0.35"/>
          <path id="Trazado_41766" data-name="Trazado 41766" d="M3162.291,1190.318a125.1,125.1,0,0,0-12.321,34.792c-3.006,16.859,1.25,29.3,11.53,29.416,0,0-.527,7.427,7.644,4.824l14.433-47.944Z" transform="translate(-3065.563 -964.068)" fill="#422c9b"/>
          <path id="Trazado_41767" data-name="Trazado 41767" d="M3189.638,1259.793s38.009,47.35,76.515,28.371c0,0,15.572,23.139,53.136,5.44l13.088-87.686-38.491-8.834Z" transform="translate(-3068.219 -964.511)" fill="#0e7992"/>
          <path id="Trazado_41768" data-name="Trazado 41768" d="M3172.65,1217.134s-31.435,68.526,46.065,70.581l36.2,1.662,42.565-97.614-43.949-10.611S3178.35,1196.994,3172.65,1217.134Z" transform="translate(-3066.696 -963.469)" fill="#2bbee0"/>
          <path id="Trazado_41769" data-name="Trazado 41769" d="M3273.621,1221.582l-9.212-29.854-47.44,69.085,4.531,3.474-9.128,13.2s-13.262-1.581-16.645,7.075c6.684,2.2,14.883,3.579,24.911,3.846l19.694-39.507Z" transform="translate(-3068.617 -964.16)" fill="#4295a8" opacity="0.29" style="mix-blend-mode: multiply;isolation: isolate"/>
          <path id="Trazado_41770" data-name="Trazado 41770" d="M3217.072,1292.871s-12.332-5.451-20.367,4.747c-8.42,10.689-7.073,18.858-7.073,18.858s1.274,4.613,15.641,21.615,14.367,18.744,29.656,19.059,39.8.706,39.8.706l-3.822-4.608s-16.608-17.529-16.74-22.671-5.435-16.3-5.435-16.3l-1.716.816S3222.759,1304.774,3217.072,1292.871Z" transform="translate(-3068.213 -970.68)" fill="#f2f4f4"/>
          <path id="Trazado_41771" data-name="Trazado 41771" d="M3206.831,1293.095l5.835,16.841,23.289,9.265,2.812-8.769s-13.641-6.174-20.565-17.562C3218.2,1292.869,3211.005,1289.37,3206.831,1293.095Z" transform="translate(-3069.343 -970.678)" fill="#dbdbdb"/>
          <path id="Trazado_41772" data-name="Trazado 41772" d="M3208.089,1299.315c-2.465.952-6.116,2.736-8.083,5.474,0,0-.789,1.731-3,.477s-5.358-4.457-3.167-7.644,6.669-8.106,13.277-8.376c0,0,2.94-.3,3.012,1.766.035,1.056.165,2.978.283,4.606A3.672,3.672,0,0,1,3208.089,1299.315Z" transform="translate(-3068.445 -970.537)" fill="#6d31fd"/>
          <path id="Trazado_41773" data-name="Trazado 41773" d="M3207.115,1289.246s2.779-.279,2.992,1.613c-5.465,1.079-9.234,5.281-11.184,8.119-1.5,2.188-.494,4.383,1,5.951-.248.384-1.1,1.367-2.921.337-2.213-1.254-5.358-4.457-3.167-7.644S3200.507,1289.516,3207.115,1289.246Z" transform="translate(-3068.445 -970.537)" fill="#422c9b" opacity="0.4"/>
          <path id="Trazado_41774" data-name="Trazado 41774" d="M3218.758,1354.076s.793-18.2,17.636-21.1l-1.393-5.994s-18.263,3.144-21.465,21.406Z" transform="translate(-3069.781 -973.006)" fill="#dbdbdb"/>
          <path id="Trazado_41775" data-name="Trazado 41775" d="M3232.675,1264.181l-16.113,31.336s7.513,20.068,32.226,17.794l18.387-31.633Z" transform="translate(-3069.979 -968.899)" fill="#e2a388"/>
          <path id="Trazado_41776" data-name="Trazado 41776" d="M3242,1259.019l-10.754,8.2-9.939,19.327s19.062,14.012,40.378,4.764l8.174-12.674Z" transform="translate(-3070.29 -968.561)" fill="#d3927a"/>
          <path id="Trazado_41777" data-name="Trazado 41777" d="M3236.2,1311.62s1.148-3.641-.243-3.748-3.417.225-3.714,4.292-1.8,18.831,6.164,25.463l3.179-2.282S3232.9,1330.995,3236.2,1311.62Z" transform="translate(-3070.985 -971.755)" fill="#6d31fd"/>
          <path id="Trazado_41778" data-name="Trazado 41778" d="M3243.068,1340.262s-8.965-7.414-8.119-28.371c0,0,.457-10.874,10.491-8.657,9.4,2.077,8.9,6.834,8.8,10.59-.078,2.848.862,13.368,6.921,20.326Z" transform="translate(-3071.178 -971.434)" fill="#e8edef"/>
          <path id="Trazado_41779" data-name="Trazado 41779" d="M3234.367,1196.1s27.109-25.281,48.977-26.085,34.521,11.323,30.567,26.085-39.412,82.509-39.412,82.509-37.562,2.109-44.152-21.088c0,0,35.887-59.6,36.325-67.22S3234.367,1196.1,3234.367,1196.1Z" transform="translate(-3070.881 -962.738)" fill="#2bbee0"/>
          <path id="Trazado_41780" data-name="Trazado 41780" d="M3243.523,1187.768l-9.075,12.06c-27.066,34.005-60.517,25.7-72.775,15.618s-15.391-46.066,12.851-80.077,62.992-27.969,62.992-27.969c-3.438,26.2,8.028,38.5,8.028,38.5l-29.7,15.074-1.482,1.285s11.954,1.918,19.572,7.024c7.81,5.234,11.6,9.348,11.609,13.011C3245.551,1184.736,3243.523,1187.768,3243.523,1187.768Z" transform="translate(-3065.802 -958.618)" fill="#6d31fd"/>
          <path id="Trazado_41781" data-name="Trazado 41781" d="M3245.755,1100.237s28.291,1.727,43.851,16.087l-9.054,13.865-5.9,9.885S3246.447,1111.9,3245.755,1100.237Z" transform="translate(-3071.888 -958.177)" fill="#acaebc"/>
          <path id="Trazado_41782" data-name="Trazado 41782" d="M3247.843,1107.43c-.3.2-7.577,11.565-2.733,27.283s12.356,12.752,12.356,12.752l22.934,1.384,7.538-24.713Z" transform="translate(-3071.738 -958.647)" fill="#e4e5ef"/>
          <path id="Trazado_41783" data-name="Trazado 41783" d="M3246.477,1120.787s-2.273,17.182,8.2,23.379c10.73,6.345,22.093,4.577,27.036,1.45l-1.433,7.38s-16.311,5.665-30.447-3.924-8.6-31.622-8.6-31.622Z" transform="translate(-3071.523 -959.303)" fill="#422c9b"/>
          <path id="Trazado_41784" data-name="Trazado 41784" d="M3264.712,1081.191a111.293,111.293,0,0,1-17.794,29.959s7.908,17.991,17.794,23.922l7.342,3.756,7.12-9.442s12.625-19.02,13.706-26.254Z" transform="translate(-3071.965 -956.931)" fill="#e2a388"/>
          <path id="Trazado_41785" data-name="Trazado 41785" d="M3274.581,1127.526l-8.763,4.844-1.977,3.163,5.37,7.216-.348,6.637,5.718.345v-6.982l4.781-5.108Z" transform="translate(-3073.072 -959.962)" fill="#dcdee5"/>
          <path id="Trazado_41786" data-name="Trazado 41786" d="M3287.245,1117.752c2.484-4.557,6.136-11.813,6.555-14.62l-28.168-21.942s-.688,1.728-4.522,9.918C3259.726,1100.932,3270.617,1117.174,3287.245,1117.752Z" transform="translate(-3072.885 -956.931)" fill="#d3927a"/>
          <circle id="Elipse_736" data-name="Elipse 736" cx="40.893" cy="40.893" r="40.893" transform="translate(185.024 70.244)" fill="#e2a388"/>
          <circle id="Elipse_737" data-name="Elipse 737" cx="7.402" cy="7.402" r="7.402" transform="translate(179.439 105.321)" fill="#e2a388"/>
          <path id="Trazado_41787" data-name="Trazado 41787" d="M3267,1034.637s26.88-14.75,64.46-9.723c0,0,4.974,3.537,11.259-3.65s11.936-4.117,15.224-.865c4.548,4.5,1.9,14.581-3.164,19.721-6.768,6.871-23.319,13.839-39.475.594,0,0-10.468,10.544-23.194-1.055,0,0-8.044,12.127-21.355,11.2,0,0-1.3,8.833-12.647,7.184C3258.111,1058.046,3254.944,1047.674,3267,1034.637Z" transform="translate(-3072.672 -952.725)" fill="#fccc05"/>
          <g id="Grupo_34763" data-name="Grupo 34763" transform="translate(231.577 92.433)">
            <circle id="Elipse_738" data-name="Elipse 738" cx="16.11" cy="16.11" r="16.11" transform="translate(7.103 0.451)" fill="#bbe2ef"/>
            <rect id="Rectángulo_3774" data-name="Rectángulo 3774" width="9.822" height="2.265" transform="translate(0 16.829) rotate(-1.921)" fill="#4d4d4d"/>
            <circle id="Elipse_739" data-name="Elipse 739" cx="16.11" cy="16.11" r="16.11" transform="translate(9.781)" fill="#d0ecf4"/>
            <path id="Trazado_41788" data-name="Trazado 41788" d="M3335.648,1047.187c-.259-.021-.516-.033-.773-.041l-12.154,27.207a16.049,16.049,0,0,0,8.133,4.611l12.882-28.839A16.027,16.027,0,0,0,3335.648,1047.187Z" transform="translate(-3308.499 -1047.138)" fill="#fafeff" opacity="0.69"/>
          </g>
          <g id="Grupo_34764" data-name="Grupo 34764" transform="translate(189.444 94.161)">
            <circle id="Elipse_740" data-name="Elipse 740" cx="16.11" cy="16.11" r="16.11" transform="translate(10.646 0.451)" fill="#bbe2ef"/>
            <rect id="Rectángulo_3775" data-name="Rectángulo 3775" width="2.265" height="13.335" transform="translate(0 14.325) rotate(-82.886)" fill="#4d4d4d"/>
            <circle id="Elipse_741" data-name="Elipse 741" cx="16.11" cy="16.11" r="16.11" transform="translate(13.324)" fill="#d0ecf4"/>
            <path id="Trazado_41789" data-name="Trazado 41789" d="M3294.357,1049.036c-.259-.02-.516-.033-.773-.041l-12.154,27.208a16.046,16.046,0,0,0,8.133,4.61l12.883-28.839A16.036,16.036,0,0,0,3294.357,1049.036Z" transform="translate(-3263.666 -1048.987)" fill="#fafeff" opacity="0.69"/>
          </g>
          <path id="Trazado_41790" data-name="Trazado 41790" d="M3256.4,1066.993a2.819,2.819,0,0,1,4.005,1.378c1.267,2.819-.776,3.942-1.813,4.056a1.271,1.271,0,0,1-.916-2.119c.769-.672,1.7.127,1.7.127S3259.566,1067.054,3256.4,1066.993Z" transform="translate(-3072.585 -955.979)" fill="#d3927a"/>
          <g id="Grupo_34765" data-name="Grupo 34765" transform="translate(220.914 130.033)">
            <path id="Trazado_41791" data-name="Trazado 41791" d="M3296.463,1087.368s10.545,2.636,19.375,0c0,0,.705,14.469-11.424,13.444C3293.5,1099.89,3296.463,1087.368,3296.463,1087.368Z" transform="translate(-3296.096 -1087.368)" fill="#062625"/>
            <path id="Trazado_41792" data-name="Trazado 41792" d="M3307.247,1092.7c-4.962-.42-8.058,1.411-9.994,3.945,1.1,2.269,3.232,4.171,7.237,4.509,5.437.46,8.29-2.2,9.789-5.264A9.973,9.973,0,0,0,3307.247,1092.7Z" transform="translate(-3296.171 -1087.713)" fill="#ed1c24"/>
            <path id="Trazado_41793" data-name="Trazado 41793" d="M3307.163,1095.082a10.626,10.626,0,0,1,5.04,3.887,10.045,10.045,0,0,0,2.26-3.076,9.973,9.973,0,0,0-7.032-3.191,11.614,11.614,0,0,0-7.364,1.521A11.8,11.8,0,0,1,3307.163,1095.082Z" transform="translate(-3296.355 -1087.713)" fill="#fc3a49"/>
          </g>
          <path id="Trazado_41794" data-name="Trazado 41794" d="M3267.558,1041.887l4.5-16.033s27.939-12.8,36.245-8.139,18.058,13.892,18.058,13.892Z" transform="translate(-3073.315 -952.713)" fill="#fccc05"/>
          <path id="Trazado_41795" data-name="Trazado 41795" d="M3245.028,1100.237s10.674,16.9,27.644,25.5l-8.862,13.345s-22.242-11.269-29.162-26.493C3234.649,1112.593,3240.482,1103.5,3245.028,1100.237Z" transform="translate(-3071.162 -958.177)" fill="#cacbd8"/>
          <path id="Trazado_41796" data-name="Trazado 41796" d="M3276.59,1141.2l-1.257-14.333s10.644-1.93,16.207-9.417l1.161,10.9S3287.463,1139.52,3276.59,1141.2Z" transform="translate(-3073.823 -959.303)" fill="#cacbd8"/>
          <path id="Trazado_41797" data-name="Trazado 41797" d="M3241.979,1151.734s-23.263-2.767-41.254,12.851-15.619,22.143-12.752,21.451,24.318-19.078,41.42-18.683,15.52-11.665,15.52-11.665Z" transform="translate(-3067.98 -961.533)" fill="#422c9b" opacity="0.35"/>
          <path id="Trazado_41798" data-name="Trazado 41798" d="M3287.362,1157.645a26.269,26.269,0,0,1-22.243,4.943c-2.547,7.447-11.853,12.685-11.853,12.685l-18.618-10.643s6.725-15.816,25.933-26.492c0,0,14.694,1.713,20.774,5.8S3287.362,1157.645,3287.362,1157.645Z" transform="translate(-3071.162 -960.656)" fill="#e2a388"/>
          <path id="Trazado_41799" data-name="Trazado 41799" d="M3263.658,1149.119c-5.235,7.757-1.47,14.464,1.182,17.726a16.085,16.085,0,0,0,2-3.883,26.28,26.28,0,0,0,21.87-4.665C3285.66,1144.87,3270.709,1138.669,3263.658,1149.119Z" transform="translate(-3072.887 -961.03)" fill="#d3927a"/>
          <path id="Trazado_41800" data-name="Trazado 41800" d="M3284.625,1136.4a30.633,30.633,0,0,0,9.837-7.513,3.628,3.628,0,0,1,4.745-.592c2.966,1.647,1.45,8.629,0,10.344S3288.271,1139.495,3284.625,1136.4Z" transform="translate(-3074.431 -959.972)" fill="#d3927a"/>
          <path id="Trazado_41801" data-name="Trazado 41801" d="M3287.6,1139.834s1.78-3.229,3.954-3.69,8.171-.923,11.071,3.426,8.963,13.511,10.413,15.817-.022,6.54-5.075,5.667c-6.656-1.151-8.5-4.877-8.5-4.877Z" transform="translate(-3074.625 -960.507)" fill="#e2a388"/>
          <path id="Trazado_41802" data-name="Trazado 41802" d="M3312.967,1159.4a4.282,4.282,0,0,0-1.063-.14c-4.436-.1-9.4-2.678-12.9-13.6-1.26-3.939-5.556-8.269-7.78-9.394-1.906.654-3.435,3.266-3.6,3.563l.135.242,11.71,16.133s1.845,3.726,8.5,4.877C3310.521,1161.522,3312.157,1160.659,3312.967,1159.4Z" transform="translate(-3074.627 -960.533)" fill="#d69680" opacity="0.62"/>
          <path id="Trazado_41803" data-name="Trazado 41803" d="M3249.738,1184.189s7.084-.963,2.867-7.388-16.542-14.333-21.386-15.223-6.7,5.53-6.7,5.53a49.411,49.411,0,0,1,16.025,7.07S3248.3,1179.839,3249.738,1184.189Z" transform="translate(-3070.5 -962.183)" fill="#422c9b"/>
          <path id="Trazado_41804" data-name="Trazado 41804" d="M3273.261,1139.816s4.312-4.077,7.475-3.974,7.5.759,9.152,3.33,10.355,14.929,10.816,17.383-5.4,6.014-9.885,2.587-10.017-11.269-10.017-11.269Z" transform="translate(-3073.688 -960.505)" fill="#e2a388"/>
          <path id="Trazado_41805" data-name="Trazado 41805" d="M3287.005,1148.267c-1.988-5.074-6.538-9.746-9.571-11.39a20.462,20.462,0,0,0-3.891,2.76c-.046.133-.088.266-.125.4l7.394,7.9s5.536,7.842,10.017,11.269a7,7,0,0,0,8.077.255h0C3291.5,1160.38,3288.6,1152.334,3287.005,1148.267Z" transform="translate(-3073.698 -960.573)" fill="#d69680" opacity="0.62"/>
          <path id="Trazado_41806" data-name="Trazado 41806" d="M3257.284,1144.446l1.8-4.7s5.016-3.658,8.2-3.828c1.4-.075,6.009-.5,8.117,2.075s6.345,6.8,6.6,10.421-1.986,4.473-4.671,9.979c-2.115,4.338-10.73-1.2-4.959-9.526l-2.175-2.175a17.649,17.649,0,0,1-8.139,2.859C3257.086,1150.048,3257.284,1144.446,3257.284,1144.446Z" transform="translate(-3072.643 -960.506)" fill="#e2a388"/>
          <path id="Trazado_41807" data-name="Trazado 41807" d="M3322.406,1152.3l29.523-55.078h85.935s11.468-.777,7.909,7.658-31.5,60.366-31.5,60.366-2.9,4.665-7.645,4.665-88.737-1.277-88.737-1.277Z" transform="translate(-3076.606 -957.979)" fill="#b2aaaf"/>
          <path id="Trazado_41808" data-name="Trazado 41808" d="M3254.335,1158.645h54.731l31.435-58.21s1.384-3.209,3.558-3.209h6.03l-36.576,71.412-61.541-1.576s-1.724-.593-.636-2.767S3254.335,1158.645,3254.335,1158.645Z" transform="translate(-3072.23 -957.98)" fill="#ccc2c8"/>
          <path id="Trazado_41809" data-name="Trazado 41809" d="M3310.545,1277.985l-3.331,3.379s-7.432,20.244-9.738,39.975c0,0,17.937,7.033,35.362,2.164a341.018,341.018,0,0,1,10.762-37.99Z" transform="translate(-3075.271 -969.802)" fill="#e2a388"/>
          <path id="Trazado_41810" data-name="Trazado 41810" d="M3339.09,1300.011c1.388-4.716,2.969-9.7,4.7-14.493l-32.694-7.445-3.694,3.3a216.781,216.781,0,0,0-7.015,24.386C3307.429,1306.131,3326.568,1306.452,3339.09,1300.011Z" transform="translate(-3075.462 -969.808)" fill="#d3927a"/>
          <path id="Trazado_41811" data-name="Trazado 41811" d="M3307.522,1186.4s23.331-19.022,38.358-16.4,24.779,8.687,23.46,31.621-20.561,81.033-20.561,81.033-27.151,5.971-44.778-8.278c0,0,23.163-51.847,18.155-62.739s-18.155,2.372-18.155,2.372Z" transform="translate(-3075.698 -962.724)" fill="#2bbee0"/>
          <g id="Grupo_34767" data-name="Grupo 34767" transform="translate(211.153 338.44)">
            <path id="Trazado_41812" data-name="Trazado 41812" d="M3380.6,1353.268l-18.642,3.6s-54.574-2.689-73.6-8.453c0,0-2.119-21.3,10.7-35.7,0,0,5.945,8.974,19.744,8.594,9.746-.268,12-2.92,12-2.92l37.53,12.1Z" transform="translate(-3285.819 -1310.513)" fill="#f2f4f4"/>
            <path id="Trazado_41813" data-name="Trazado 41813" d="M3314.326,1330.253l-21.1-8.212a38.414,38.414,0,0,1,6.157-9.515s5.945,8.973,19.745,8.594c9.746-.269,12-2.921,12-2.921l3.843,1.239-.089,2.11Z" transform="translate(-3286.146 -1310.501)" fill="#dbdbdb"/>
            <path id="Trazado_41814" data-name="Trazado 41814" d="M3359.837,1338.768s-4.512,7.811-2.181,19.209l-8.341-.566s-1.992-13.366,3.076-20.411Z" transform="translate(-3289.789 -1312.101)" fill="#dbdbdb"/>
            <path id="Trazado_41815" data-name="Trazado 41815" d="M3302.821,1319.929c-1.6,2.486-3.727,6.5-3.7,10.277,0,0,.428,2.084-2.4,2.408s-7.782-.5-7.9-4.824.688-11.725,6.484-16.323c0,0,2.46-2.21,3.886-.388.728.931,2.112,2.583,3.292,3.978A4.108,4.108,0,0,1,3302.821,1319.929Z" transform="translate(-3285.857 -1310.359)" fill="#6d31fd"/>
            <path id="Trazado_41816" data-name="Trazado 41816" d="M3295.3,1311.468s2.328-2.084,3.767-.514c-4.23,4.579-4.867,10.862-4.761,14.713.082,2.97,2.443,4.289,4.83,4.719.029.51-.1,1.964-2.419,2.23-2.827.324-7.782-.5-7.9-4.824S3289.508,1316.066,3295.3,1311.468Z" transform="translate(-3285.857 -1310.36)" fill="#422c9b" opacity="0.4"/>
            <path id="Trazado_41817" data-name="Trazado 41817" d="M3368.33,1340.067s-17.68-1.732-27.453-7.381-10.289-10.937-10.2-12.3,1.733-4.24,4.261-1.967,21.764,15.677,33.27,17.086l1.854.2Z" transform="translate(-3288.594 -1310.831)" fill="#6d31fd"/>
            <path id="Trazado_41818" data-name="Trazado 41818" d="M3374.107,1328.127s-16.02-4.121-26.293-10-12.056-3.491-14.045.387,4.729,15.036,33.918,18.3l10.634,1.064Z" transform="translate(-3288.777 -1310.635)" fill="#e8edef"/>
            <path id="Trazado_41819" data-name="Trazado 41819" d="M3395.677,1357.114s10.387-12.369,1.5-21.742-20.888-6.329-20.888-6.329-11.645,6.979-9.193,28.86C3367.093,1357.9,3384.037,1358.312,3395.677,1357.114Z" transform="translate(-3290.955 -1311.55)" fill="#dbdbdb"/>
            <path id="Trazado_41820" data-name="Trazado 41820" d="M3373.554,1328.254s-6.03.453-7.719,10.387a2.267,2.267,0,0,1-2.844-.707s1.8-9.015,7.16-10.889C3370.151,1327.045,3372.644,1326.552,3373.554,1328.254Z" transform="translate(-3290.708 -1311.446)" fill="#dbdbdb"/>
            <path id="Trazado_41821" data-name="Trazado 41821" d="M3365.425,1325.669s-5.064,1.57-6.752,11.5a2.166,2.166,0,0,1-2.71-.792s1.689-9.438,6.329-11.827C3362.291,1324.556,3364.514,1323.968,3365.425,1325.669Z" transform="translate(-3290.249 -1311.281)" fill="#dbdbdb"/>
            <path id="Trazado_41822" data-name="Trazado 41822" d="M3358.326,1323.072s-5.1,1.753-6.789,11.687a2.352,2.352,0,0,1-2.857-.784s2.118-9.71,6.758-12.1A3.22,3.22,0,0,1,3358.326,1323.072Z" transform="translate(-3289.773 -1311.111)" fill="#dbdbdb"/>
            <path id="Trazado_41823" data-name="Trazado 41823" d="M3352.468,1320.532s-5.592,2.039-7.853,11.859a2.364,2.364,0,0,1-2.661-1.123s3.147-9.936,7.919-12.051C3349.873,1319.217,3351.812,1319.03,3352.468,1320.532Z" transform="translate(-3289.333 -1310.938)" fill="#dbdbdb"/>
            <path id="Trazado_41824" data-name="Trazado 41824" d="M3346.872,1317.553s-5.592,2.159-7.77,11.511a2.745,2.745,0,0,1-2.506-1.474s2.909-9.238,7.68-11.353C3344.276,1316.238,3346.216,1316.051,3346.872,1317.553Z" transform="translate(-3288.983 -1310.743)" fill="#dbdbdb"/>
            <path id="Trazado_41825" data-name="Trazado 41825" d="M3390.373,1358.574s-26.444,1.662-51.06-.685-46.379-4.892-51.122-6.98c0,0-2.262.433-2.2,2.526s-3.12,10.567,8.954,12.207,30.294.893,43.3.535,23.6,2.185,51.841-.442C3390.077,1365.734,3392.966,1363.189,3390.373,1358.574Z" transform="translate(-3285.65 -1313.011)" fill="#e8edef"/>
            <path id="Trazado_41826" data-name="Trazado 41826" d="M3389.882,1363.145s-38.574,1.828-52.831-.985-47.425-3.9-47.425-3.9,34.032,3.028,42.23,4.31C3338.649,1363.633,3370.743,1366.632,3389.882,1363.145Z" transform="translate(-3285.911 -1313.492)" fill="#dbdbdb"/>
            <path id="Trazado_41827" data-name="Trazado 41827" d="M3326.018,1363.38l-36.307-2.047S3301.01,1364.192,3326.018,1363.38Z" transform="translate(-3285.916 -1313.693)" fill="#dbdbdb"/>
            <g id="Grupo_34766" data-name="Grupo 34766" transform="translate(19.202 29.968)">
              <path id="Trazado_41828" data-name="Trazado 41828" d="M3319.239,1343.6l-12.331-1.177-.712,6.246,13.069.724Z" transform="translate(-3306.196 -1342.425)" fill="#6d31fd"/>
              <path id="Trazado_41829" data-name="Trazado 41829" d="M3306.907,1342.425l3.4.325-.328,2.884,9.27.514.015,3.247-13.069-.724Z" transform="translate(-3306.196 -1342.425)" fill="#422c9b" opacity="0.4"/>
            </g>
          </g>
          <g id="Grupo_34773" data-name="Grupo 34773" transform="translate(172.104 42.554)">
            <path id="Trazado_41830" data-name="Trazado 41830" d="M3246.692,1053.254s-16.546-49.31,30.474-57.548c36.674-6.425,47.647,3.163,54.22,28.173,0,0-18.919-1.367-45.735,5.153S3246.692,1053.254,3246.692,1053.254Z" transform="translate(-3243.869 -993.768)" fill="#2bbee0"/>
            <path id="Trazado_41831" data-name="Trazado 41831" d="M3273.984,1021.3l33.2-7.439.077,8.661-30.4,6.273Z" transform="translate(-3245.839 -995.082)" fill="#4295a8"/>
            <path id="Trazado_41832" data-name="Trazado 41832" d="M3275.813,1022.842l1.5,4.429,28.593-5.418-.2-6.02Z" transform="translate(-3245.958 -995.211)" fill="#f8cf48"/>
            <g id="Grupo_34772" data-name="Grupo 34772" transform="translate(39.259 11.092)">
              <g id="Grupo_34771" data-name="Grupo 34771">
                <g id="Grupo_34770" data-name="Grupo 34770">
                  <g id="Grupo_34768" data-name="Grupo 34768" transform="translate(2.485)">
                    <path id="Trazado_41833" data-name="Trazado 41833" d="M3292.666,1007.9a1.562,1.562,0,0,1-.009,2.208l-.114.113s1.253.978.626,1.915l.756-.75a3.361,3.361,0,1,0-4.735-4.771l-.114.113a1.534,1.534,0,0,0-.1,2.23l.2.2,1.212-1.2.066-.065a1.562,1.562,0,0,1,2.208.008" transform="translate(-3288.534 -1005.636)" fill="#4295a8"/>
                  </g>
                  <g id="Grupo_34769" data-name="Grupo 34769" transform="translate(0 2.357)">
                    <path id="Trazado_41834" data-name="Trazado 41834" d="M3288.126,1012.394a1.563,1.563,0,0,1,.008-2.207l.115-.114s-1.253-.978-.626-1.915l-.757.75a3.361,3.361,0,0,0,4.735,4.771l.115-.113a1.534,1.534,0,0,0,.1-2.23l-.2-.2-1.211,1.2-.066.064a1.561,1.561,0,0,1-2.207-.008" transform="translate(-3285.875 -1008.158)" fill="#4295a8"/>
                  </g>
                </g>
                <path id="Trazado_41835" data-name="Trazado 41835" d="M3291.093,1008.977l-1.874,1.86a.514.514,0,0,0,.723.729l1.874-1.86a.514.514,0,0,0-.723-.729Z" transform="translate(-3286.084 -1005.845)" fill="#4295a8"/>
              </g>
            </g>
          </g>
          <g id="Grupo_34779" data-name="Grupo 34779" transform="translate(291.974 161.519)">
            <circle id="Elipse_742" data-name="Elipse 742" cx="15.977" cy="15.977" r="15.977" fill="#ccc2c8"/>
            <g id="Grupo_34778" data-name="Grupo 34778" transform="translate(6.131 6.375)">
              <g id="Grupo_34777" data-name="Grupo 34777">
                <g id="Grupo_34776" data-name="Grupo 34776">
                  <g id="Grupo_34774" data-name="Grupo 34774" transform="translate(5.415)">
                    <path id="Trazado_41836" data-name="Trazado 41836" d="M3393.528,1132.817a3.421,3.421,0,0,1,0,4.832l-.249.25s2.75,2.13,1.387,4.188l1.65-1.651a7.358,7.358,0,0,0-10.407-10.406l-.249.25a3.357,3.357,0,0,0-.19,4.882l.441.441,2.643-2.644.143-.143a3.421,3.421,0,0,1,4.832,0" transform="translate(-3384.481 -1127.878)" fill="#8c8589"/>
                  </g>
                  <g id="Grupo_34775" data-name="Grupo 34775" transform="translate(0 5.192)">
                    <path id="Trazado_41837" data-name="Trazado 41837" d="M3383.626,1142.7a3.419,3.419,0,0,1,0-4.832l.25-.25s-2.75-2.13-1.387-4.188l-1.65,1.65a7.358,7.358,0,0,0,10.406,10.407l.25-.25a3.357,3.357,0,0,0,.19-4.882l-.441-.441-2.643,2.643-.143.143a3.421,3.421,0,0,1-4.833,0" transform="translate(-3378.687 -1133.434)" fill="#8c8589"/>
                  </g>
                </g>
                <path id="Trazado_41838" data-name="Trazado 41838" d="M3390.094,1135.2l-4.087,4.088a1.123,1.123,0,1,0,1.589,1.589l4.087-4.087a1.124,1.124,0,0,0-1.589-1.59Z" transform="translate(-3379.144 -1128.336)" fill="#8c8589"/>
              </g>
            </g>
          </g>
          <g id="Grupo_34781" data-name="Grupo 34781" transform="translate(344.564 312.028)">
            <path id="Trazado_41839" data-name="Trazado 41839" d="M3468.542,1314.178l-5.479,48.976s-18,5.261-28.7-.639l-3.823-50.539s9.61-4.987,19.785-3.44A66.775,66.775,0,0,1,3468.542,1314.178Z" transform="translate(-3428.538 -1283.808)" fill="#e4e5ef"/>
            <path id="Trazado_41840" data-name="Trazado 41840" d="M3453.588,1306.671l-.9,38.068-4.894-.034,1.631-39.252Z" transform="translate(-3429.666 -1283.626)" fill="#f2f0dd"/>
            <path id="Trazado_41841" data-name="Trazado 41841" d="M3433.938,1339.865l1.828,21.494a3.876,3.876,0,0,0,2.978,3.447c7.794,1.814,16.331.676,20.627-.137a3.863,3.863,0,0,0,3.117-3.363l2.617-22.906s-4.987,4.209-17.21,3.9S3433.938,1339.865,3433.938,1339.865Z" transform="translate(-3428.76 -1285.781)" fill="#603813"/>
            <path id="Trazado_41842" data-name="Trazado 41842" d="M3449.183,1342.976s15.589-.486,15.921-4.787c.333-4.33-20.43-2.724-20.974-2.641s-10.49.6-10.193,4.107S3449.183,1342.976,3449.183,1342.976Z" transform="translate(-3428.76 -1285.571)" fill="#72421a"/>
            <path id="Trazado_41843" data-name="Trazado 41843" d="M3456.249,1336.448s-13.676-.221-16.7,1.293,4.477,4.93,10.35,4.015c0,0-8.317-.873-8.433-2.675s14.858-2.407,16.027-1.26-3.773,2.338-7.631,2.123c0,0,1.5,1.383,7.111.074S3460.435,1336.679,3456.249,1336.448Z" transform="translate(-3429.082 -1285.653)" fill="#603813"/>
            <path id="Trazado_41844" data-name="Trazado 41844" d="M3450.428,1331.8l2.626.154-.148,6.217a7.483,7.483,0,0,1-4.759.3l.284-6.845Z" transform="translate(-3429.689 -1285.338)" fill="#f2f0dd"/>
            <path id="Trazado_41845" data-name="Trazado 41845" d="M3438.707,1352.351s0,11.308,2.092,12.139c0,0-2.968.677-3.739-1.527s-1.234-11.029-1.234-11.029Z" transform="translate(-3428.884 -1286.666)" fill="#e0d8d3"/>
            <path id="Trazado_41846" data-name="Trazado 41846" d="M3438.652,1349.55l-2.881-.416.033,1.708,2.877.235Z" transform="translate(-3428.88 -1286.483)" fill="#e0d8d3"/>
            <path id="Trazado_41847" data-name="Trazado 41847" d="M3443.154,1306.784l25.118,1.4,1.564,7.082s-20.458,6.126-41.439-.552l1.831-7.022Z" transform="translate(-3428.398 -1283.713)" fill="#cbcdd8"/>
            <path id="Trazado_41848" data-name="Trazado 41848" d="M3430.357,1307.488c-.009,2.475,7.957,4.509,19.494,4.551s18.54-1.626,18.55-4.1-6.98-4.821-18.518-4.861S3430.365,1305.013,3430.357,1307.488Z" transform="translate(-3428.526 -1283.471)" fill="#b9bcc9"/>
            <path id="Trazado_41849" data-name="Trazado 41849" d="M3452.452,1310.8c11.715-.229,14.634-2.281,14.728-2.777,0-.707-4.483-3.5-17.21-3.543q-1.113,0-2.182.017c-11.3.221-15.633,2.3-16.016,3.089.492,1.1,6.379,3.191,18.176,3.233Q3451.239,1310.824,3452.452,1310.8Z" transform="translate(-3428.618 -1283.563)" fill="#c0c2cc"/>
            <ellipse id="Elipse_743" data-name="Elipse 743" cx="4.256" cy="1.2" rx="4.256" ry="1.2" transform="translate(17.514 18.265) rotate(-1.119)" fill="#b9bcc9"/>
            <path id="Trazado_41850" data-name="Trazado 41850" d="M3453.838,1306.135l.154-13.224,19.932-3.369a11.893,11.893,0,0,1-.286-7.439l-23.58,4.86-.6,18.112S3450.089,1306.871,3453.838,1306.135Z" transform="translate(-3429.775 -1282.099)" fill="#f2f0dd"/>
            <path id="Trazado_41851" data-name="Trazado 41851" d="M3473.438,1286.187c.228,1.855.955,3.376,2.052,3.354s1.956-1.558,1.919-3.432-.968-4.032-2.064-4.01S3473.209,1284.327,3473.438,1286.187Z" transform="translate(-3431.341 -1282.099)" fill="#e5e2cc"/>
            <g id="Grupo_34780" data-name="Grupo 34780" transform="translate(16.648 19.299)">
              <path id="Trazado_41852" data-name="Trazado 41852" d="M3447.1,1302.913c.013.663,1.928,1.163,4.278,1.117s4.245-.62,4.232-1.282l.632,4.686c-4.2,2.926-10.032.2-10.032.2Z" transform="translate(-3446.211 -1302.748)" fill="#cbcdd8"/>
            </g>
            <path id="Trazado_41853" data-name="Trazado 41853" d="M3466.3,1322.695l-.848,8.721a97.808,97.808,0,0,1-31.985.624l-.679-8.691S3450.157,1326.644,3466.3,1322.695Z" transform="translate(-3428.685 -1284.754)" fill="#e00b71"/>
            <path id="Trazado_41854" data-name="Trazado 41854" d="M3464.472,1344.6a67.482,67.482,0,0,1-30.086.588l.21,2.473s17.667,3.369,29.591-.578Z" transform="translate(-3428.79 -1286.187)" fill="#e00b71"/>
          </g>
          <path id="Trazado_41855" data-name="Trazado 41855" d="M3228.942,1359.249s-.642-28.636,27.806-25.943c25.194,2.386,20.562,27.278,20.562,27.278S3237.117,1359.885,3228.942,1359.249Z" transform="translate(-3070.789 -973.408)" fill="#dbdbdb"/>
          <path id="Trazado_41856" data-name="Trazado 41856" d="M3244.26,1354.826l-15.318,5.842a187.441,187.441,0,0,0,26.29,2.431,169,169,0,0,0,22.077-1.1l-9.324-7.178Z" transform="translate(-3070.789 -974.827)" fill="#dbdbdb"/>
          <path id="Trazado_41857" data-name="Trazado 41857" d="M3235.9,1331.787a30.751,30.751,0,0,1,20.755-3.887,3.38,3.38,0,0,1,1.007,2.365s-11.778-1.609-19.823,3.2l-1.164.556A1.539,1.539,0,0,1,3235.9,1331.787Z" transform="translate(-3071.228 -973.041)" fill="#dbdbdb"/>
          <path id="Trazado_41858" data-name="Trazado 41858" d="M3235.335,1328.26s7.914-4.732,20.449-3.058a2.262,2.262,0,0,0-.555-2.073s-11.524-2.574-19.572,2.337l-1.068.651S3234.391,1328.092,3235.335,1328.26Z" transform="translate(-3071.157 -972.71)" fill="#dbdbdb"/>
          <path id="Trazado_41859" data-name="Trazado 41859" d="M3234.536,1322.11s7.694-4.149,20.144-1.841a2.845,2.845,0,0,0-.27-1.84s-8.139-3.431-19.45,1.084a2.913,2.913,0,0,0-.781.625C3233.981,1320.434,3233.848,1321.811,3234.536,1322.11Z" transform="translate(-3071.121 -972.365)" fill="#dbdbdb"/>
          <path id="Trazado_41860" data-name="Trazado 41860" d="M3233.986,1316.568s8.277-5.124,20.175-1.07a5.053,5.053,0,0,0,.015-2.175s-8.039-4.893-19.356.3l-1.136.544A2.552,2.552,0,0,0,3233.986,1316.568Z" transform="translate(-3071.087 -971.976)" fill="#dbdbdb"/>
          <g id="Grupo_34782" data-name="Grupo 34782" transform="translate(134.814 344.994)">
            <path id="Trazado_41861" data-name="Trazado 41861" d="M3214.194,1324.174l-5.63-6.8-4.594,4.259,6.321,6.824Z" transform="translate(-3203.97 -1317.372)" fill="#6d31fd"/>
            <path id="Trazado_41862" data-name="Trazado 41862" d="M3208.564,1317.372l1.553,1.876-2.122,1.967,4.484,4.84-2.188,2.4-6.321-6.824Z" transform="translate(-3203.97 -1317.372)" fill="#422c9b" opacity="0.4"/>
          </g>
          <path id="Trazado_41863" data-name="Trazado 41863" d="M3186.911,1323.1s19.056,21.942,23.1,27.214,12.352,14.235,38.054,13.181l20.956-1.009s-24.936,3.909-35.2,1.668-16.617-4.086-24.119-12.522S3186.911,1323.1,3186.911,1323.1Z" transform="translate(-3068.04 -972.752)" fill="#dbdbdb"/>
          <path id="Trazado_41864" data-name="Trazado 41864" d="M3185.642,1327.513l18.848,22.957S3191.837,1338.562,3185.642,1327.513Z" transform="translate(-3067.957 -973.041)" fill="#dbdbdb"/>
          <path id="Trazado_41865" data-name="Trazado 41865" d="M3434.913,1003.846s-8.775-1.507-9.985,8.8C3424.929,1012.645,3428.042,1006.071,3434.913,1003.846Z" transform="translate(-3083.607 -951.868)" fill="#d3927a"/>
          <path id="Trazado_41866" data-name="Trazado 41866" d="M3189.276,1380.6h270.066c25.149-.776,26.492-11.5,23.725-15.573-2.568-3.781-5.147-3.651-9.293-1.46a29.361,29.361,0,0,1-14.432,3.466H3189.276s-10.808-.4-15.817-3.466-10.544,6.951-3.427,11.959S3189.276,1380.6,3189.276,1380.6Z" transform="translate(-3066.715 -975.298)" fill="#2d2d2d"/>
          <g id="Grupo_34783" data-name="Grupo 34783" transform="translate(167.645 397.798)">
            <circle id="Elipse_744" data-name="Elipse 744" cx="17.173" cy="17.173" r="17.173" fill="#ea8018"/>
            <circle id="Elipse_745" data-name="Elipse 745" cx="17.173" cy="17.173" r="17.173" transform="translate(3.237 0.048)" fill="#f7931e"/>
            <circle id="Elipse_746" data-name="Elipse 746" cx="7.648" cy="7.648" r="7.648" transform="translate(12.762 9.573)" fill="#f9d53d"/>
            <path id="Trazado_41867" data-name="Trazado 41867" d="M3260.871,1384.115a7.631,7.631,0,0,0-2.434.365,7.641,7.641,0,0,1-.215,14.494,7.646,7.646,0,1,0,2.649-14.858Z" transform="translate(-3240.349 -1374.541)" fill="#f9e073"/>
          </g>
          <g id="Grupo_34784" data-name="Grupo 34784" transform="translate(290.896 397.798)">
            <circle id="Elipse_747" data-name="Elipse 747" cx="17.173" cy="17.173" r="17.173" fill="#ea8018"/>
            <circle id="Elipse_748" data-name="Elipse 748" cx="17.173" cy="17.173" r="17.173" transform="translate(3.237 0.048)" fill="#f7931e"/>
            <circle id="Elipse_749" data-name="Elipse 749" cx="7.648" cy="7.648" r="7.648" transform="translate(12.762 9.573)" fill="#f9d53d"/>
            <path id="Trazado_41868" data-name="Trazado 41868" d="M3392.748,1384.115a7.632,7.632,0,0,0-2.434.365,7.641,7.641,0,0,1-.214,14.494,7.646,7.646,0,1,0,2.648-14.858Z" transform="translate(-3372.225 -1374.541)" fill="#f9e073"/>
          </g>
        </g>
      </g>
      <path id="Trazado_41877" data-name="Trazado 41877" d="M3045.355,1415.274a1.869,1.869,0,0,1-1.867-1.871v-.934a1.868,1.868,0,0,1,1.869-1.867l450.263.534a1.869,1.869,0,0,1,1.867,1.871v.935a1.87,1.87,0,0,1-1.869,1.867Z" transform="translate(0 -34.256)" fill="#dbb100"/>
    </g>
  </g>
</svg>
