<svg xmlns="http://www.w3.org/2000/svg" width="142.529" height="147" viewBox="0 0 142.529 147">
  <g id="Grupo_34765" data-name="Grupo 34765" transform="translate(-871.867 -267.286)">
    <path id="Trazado_39074" data-name="Trazado 39074" d="M1011.72,353.152c.206-2.141.32-4.31.32-6.506q0-1.774-.093-3.526c-.01-.179-.029-.355-.04-.534-.06-1-.133-1.989-.235-2.972-.012-.116-.031-.23-.044-.345-.114-1.046-.249-2.086-.41-3.118-.01-.064-.023-.126-.034-.19q-.257-1.61-.589-3.2c0-.011,0-.022-.005-.032v0a66.645,66.645,0,0,0-6.53-17.849,8.164,8.164,0,0,0-.612-8.756l-2.858-3.834a8.167,8.167,0,0,0-8.2-3.094,66.883,66.883,0,0,0-41.33-19.37,5.893,5.893,0,0,0-5.267-3.739l-9.319-.321a5.89,5.89,0,0,0-6.048,5.36,66.951,66.951,0,0,0-32.611,17.75,9.887,9.887,0,0,0-8.427,3.719l-2.952,3.733a9.909,9.909,0,0,0-1.345,9.964,66.532,66.532,0,0,0-5.807,16.435h0v0a66.545,66.545,0,0,0-1.058,6.674c-.007.063-.017.126-.024.188-.106,1.013-.182,2.034-.242,3.059-.009.153-.028.3-.035.458q-.092,1.754-.093,3.53a66.969,66.969,0,0,0,3.993,22.84c-.56.9.142,3.964,1.74,7.308,1.328,2.785,2.9,4.97,3.993,5.7a1.69,1.69,0,0,0,.486.232h.005l.045.008a1.353,1.353,0,0,0,.323.06,67.269,67.269,0,0,0,34.513,27.241,7.792,7.792,0,0,0,6.21,4.7l5.474.672a7.755,7.755,0,0,0,5.988-1.82c1.435.091,2.877.154,4.335.154a67.113,67.113,0,0,0,61.679-40.653,5.762,5.762,0,0,0,4.813-3.657l3.422-8.94A5.765,5.765,0,0,0,1011.72,353.152Z" transform="translate(-0.834 -1.185)" fill="#162c41" opacity="0.15"/>
    <g id="Grupo_34747" data-name="Grupo 34747" transform="translate(871.867 267.286)">
      <path id="Trazado_39075" data-name="Trazado 39075" d="M932.8,406.243l5.477.671a7.8,7.8,0,0,1,6.772,8.67l-.512,4.178a7.8,7.8,0,0,1-8.67,6.773l-5.473-.671a7.8,7.8,0,0,1-6.775-8.669l.514-4.178A7.8,7.8,0,0,1,932.8,406.243Z" transform="translate(-879.09 -286.692)" fill="#c2c2c2"/>
      <path id="Rect치ngulo_3767" data-name="Rect치ngulo 3767" d="M6.683,0H14.39a6.684,6.684,0,0,1,6.684,6.684v6.4a6.685,6.685,0,0,1-6.685,6.685h-7.7A6.684,6.684,0,0,1,0,13.086v-6.4A6.683,6.683,0,0,1,6.683,0Z" transform="translate(139.073 79.556) rotate(110.947)" fill="#c2c2c2"/>
      <path id="Trazado_39076" data-name="Trazado 39076" d="M1011.72,297.821l2.858,3.833a8.169,8.169,0,0,1-1.663,11.4l-2.786,2.078a8.169,8.169,0,0,1-11.4-1.663l-2.86-3.835a8.17,8.17,0,0,1,1.663-11.4l2.788-2.077A8.169,8.169,0,0,1,1011.72,297.821Z" transform="translate(-888.967 -271.095)" fill="#d6d6d6"/>
      <path id="Rect치ngulo_3768" data-name="Rect치ngulo 3768" d="M6.83,0h7.416a6.829,6.829,0,0,1,6.829,6.829v6.11a6.829,6.829,0,0,1-6.829,6.829H6.829A6.829,6.829,0,0,1,0,12.939V6.83A6.83,6.83,0,0,1,6.83,0Z" transform="translate(73.151 20.482) rotate(-178.028)" fill="#d6d6d6"/>
      <path id="Trazado_39077" data-name="Trazado 39077" d="M899.984,310.355l-2.949,3.735a9.915,9.915,0,0,1-13.885,1.626h0a9.915,9.915,0,0,1-1.625-13.884l2.952-3.733a9.913,9.913,0,0,1,13.882-1.627h0A9.911,9.911,0,0,1,899.984,310.355Z" transform="translate(-872.92 -271.068)" fill="#d6d6d6"/>
      <path id="Trazado_39078" data-name="Trazado 39078" d="M1006.073,339.006a67.1,67.1,0,1,1-67.1-67.1A67.1,67.1,0,0,1,1006.073,339.006Z" transform="translate(-871.867 -267.931)" fill="#f6f6f6"/>
      <path id="Trazado_39079" data-name="Trazado 39079" d="M938.969,386.921a67.121,67.121,0,0,1-65.649-53.19,67.1,67.1,0,1,0,131.3,0A67.121,67.121,0,0,1,938.969,386.921Z" transform="translate(-871.867 -276.569)" fill="#230753" opacity="0.15"/>
      <path id="Trazado_39080" data-name="Trazado 39080" d="M928.662,304.549c1.136,2.728-1.215,6.3-5.254,7.985s-8.233.831-9.369-1.9,1.216-6.306,5.253-7.988S927.524,301.818,928.662,304.549Z" transform="translate(-877.719 -272.106)" fill="#e3e3e3"/>
      <path id="Trazado_39081" data-name="Trazado 39081" d="M910.754,312.593c-1.714-4.111,1.831-9.5,7.918-12.037,4.5-1.873,9.124-1.656,11.923.246-2.565-2.69-7.848-3.269-12.971-1.136-6.087,2.533-9.631,7.922-7.918,12.036a5.911,5.911,0,0,0,2.2,2.615A5.622,5.622,0,0,1,910.754,312.593Z" transform="translate(-877.093 -271.628)" fill="#e3e3e3"/>
      <path id="Trazado_39082" data-name="Trazado 39082" d="M928.687,304.73a3.876,3.876,0,0,0-1.331-1.649c.774,2.672-1.536,5.993-5.383,7.595-3.054,1.273-6.2,1.094-8.039-.248a4.05,4.05,0,0,0,.13.39c1.136,2.729,5.33,3.579,9.369,1.9S929.823,307.458,928.687,304.73Z" transform="translate(-877.744 -272.287)" fill="#230753" opacity="0.15"/>
      <path id="Trazado_39083" data-name="Trazado 39083" d="M956.231,286.637c.181,1.629-2.032,3.209-4.942,3.531s-5.416-.736-5.6-2.366,2.033-3.209,4.943-3.531S956.052,285.008,956.231,286.637Z" transform="translate(-882.18 -269.651)" fill="#e3e3e3"/>
      <path id="Trazado_39084" data-name="Trazado 39084" d="M973.763,314.243c-1.291-.745-1.542-2.754-.678-4.672a6.326,6.326,0,0,0-.354.527c-1.2,2.076-1.021,4.424.4,5.242s3.541-.2,4.739-2.276c.109-.188.192-.379.28-.57C976.918,314.2,975.055,314.988,973.763,314.243Z" transform="translate(-885.848 -273.194)" fill="#e3e3e3"/>
      <path id="Trazado_39085" data-name="Trazado 39085" d="M943.185,288.326c-.29-2.606,3.254-5.138,7.913-5.653a13.169,13.169,0,0,1,5.33.44,12.131,12.131,0,0,0-6.5-.905c-4.659.516-8.2,3.045-7.913,5.653.165,1.5,1.574,2.7,3.627,3.347A3.9,3.9,0,0,1,943.185,288.326Z" transform="translate(-881.665 -269.358)" fill="#230753" opacity="0.15"/>
      <path id="Trazado_39086" data-name="Trazado 39086" d="M956.612,286.638c-.153-1.408-2.052-2.389-4.443-2.421,1.319.4,2.228,1.157,2.334,2.113.179,1.627-2.035,3.208-4.944,3.531a9.194,9.194,0,0,1-1.149.055,8.26,8.26,0,0,0,3.26.253C954.58,289.847,956.792,288.266,956.612,286.638Z" transform="translate(-882.561 -269.651)" fill="#230753" opacity="0.15"/>
      <path id="Trazado_39087" data-name="Trazado 39087" d="M891.539,333.1c2.508,1.567,2.694,5.791.416,9.436s-6.156,5.329-8.663,3.762-2.7-5.792-.417-9.436S889.031,331.538,891.539,333.1Z" transform="translate(-873.182 -276.4)" fill="#e3e3e3"/>
      <path id="Trazado_39088" data-name="Trazado 39088" d="M894.223,330.839c2.674,1.673,3.237,5.751,1.6,9.747,2.291-4.015,2-8.517-.729-10.225a5.31,5.31,0,0,0-4.991-.084A5.383,5.383,0,0,1,894.223,330.839Z" transform="translate(-874.414 -276.006)" fill="#230753" opacity="0.15"/>
      <path id="Trazado_39089" data-name="Trazado 39089" d="M880.927,348.1c-3.435-2.145-3.922-7.657-1.312-12.745-.277.372-.549.758-.8,1.164-3.374,5.4-3.1,11.658.616,13.98s9.461-.175,12.836-5.573c.254-.407.481-.821.693-1.234C889.53,348.267,884.361,350.244,880.927,348.1Z" transform="translate(-872.508 -276.796)" fill="#230753" opacity="0.15"/>
      <path id="Trazado_39090" data-name="Trazado 39090" d="M891.655,333.1c-2.508-1.567-6.387.117-8.664,3.762a11.123,11.123,0,0,0-.882,1.742c2.281-2.527,5.368-3.525,7.483-2.2s2.572,4.534,1.3,7.692a11.08,11.08,0,0,0,1.18-1.556C894.349,338.9,894.162,334.671,891.655,333.1Z" transform="translate(-873.298 -276.4)" fill="#230753" opacity="0.15"/>
      <path id="Trazado_39091" data-name="Trazado 39091" d="M913.374,363.9c5.431,3.395,7.585,9.744,4.812,14.184s-9.425,5.286-14.857,1.893-7.585-9.744-4.812-14.184S907.943,360.5,913.374,363.9Z" transform="translate(-875.421 -280.493)" fill="#e3e3e3"/>
      <path id="Trazado_39092" data-name="Trazado 39092" d="M898.517,372.018c2.774-4.44,9.427-5.288,14.857-1.893a13,13,0,0,1,5.459,6.636c1.672-4.306-.544-9.793-5.459-12.864-5.43-3.393-12.084-2.546-14.857,1.893a8.7,8.7,0,0,0-.647,7.548A7.95,7.95,0,0,1,898.517,372.018Z" transform="translate(-875.421 -280.493)" fill="#230753" opacity="0.15"/>
      <path id="Trazado_39093" data-name="Trazado 39093" d="M924,374.936a11.557,11.557,0,0,1-1.5,6.364c-3.74,6.479-13.2,8.02-21.121,3.445a18.241,18.241,0,0,1-8.506-10.347c.231,5.129,3.545,10.457,9.075,13.649,7.925,4.575,17.38,3.033,21.122-3.444A12.165,12.165,0,0,0,924,374.936Z" transform="translate(-874.803 -282.251)" fill="#230753" opacity="0.15"/>
      <path id="Trazado_39094" data-name="Trazado 39094" d="M921.722,407.981c2.127-3.4,7.786-3.707,12.638-.672,3.346,2.09,5.434,5.218,5.713,8.075.265-3.138-1.9-6.86-5.713-9.239-4.853-3.033-10.511-2.732-12.638.671a5.627,5.627,0,0,0-.776,3.577A5.367,5.367,0,0,1,921.722,407.981Z" transform="translate(-878.72 -286.394)" fill="#230753" opacity="0.15"/>
      <path id="Trazado_39095" data-name="Trazado 39095" d="M937.065,413.744a3.858,3.858,0,0,1-.49,1.348c-1.566,2.505-5.732,2.726-9.3.495a9.5,9.5,0,0,1-3.71-4.127c-.455,2.393,1.141,5.371,4.124,7.233,3.572,2.233,7.737,2.012,9.3-.494A4.735,4.735,0,0,0,937.065,413.744Z" transform="translate(-879.079 -287.429)" fill="#230753" opacity="0.15"/>
      <path id="Trazado_39096" data-name="Trazado 39096" d="M986.611,364.706c8.132,5.081,11.044,15.091,6.506,22.355s-14.812,9.033-22.944,3.952-11.044-15.091-6.507-22.355S978.48,359.625,986.611,364.706Z" transform="translate(-884.394 -280.491)" fill="#e3e3e3"/>
      <path id="Trazado_39097" data-name="Trazado 39097" d="M968.2,377.746c4.54-7.264,14.811-9.034,22.943-3.952a19.25,19.25,0,0,1,3.9,3.217,18.119,18.119,0,0,0-8.43-12.3c-8.131-5.081-18.4-3.313-22.945,3.951-3.714,5.944-2.433,13.724,2.61,19.141A14.421,14.421,0,0,1,968.2,377.746Z" transform="translate(-884.394 -280.491)" fill="#230753" opacity="0.15"/>
      <path id="Trazado_39098" data-name="Trazado 39098" d="M998.873,377.144a23.052,23.052,0,0,1-3.539,12.418c-6.578,10.527-20.084,13.952-30.167,7.651a21,21,0,0,1-9.373-13.438,21.3,21.3,0,0,0,9.886,18.051c10.083,6.3,23.589,2.876,30.169-7.652A22.886,22.886,0,0,0,998.873,377.144Z" transform="translate(-883.593 -282.634)" fill="#230753" opacity="0.15"/>
      <path id="Trazado_39099" data-name="Trazado 39099" d="M932.025,340.661c-.471,1.356-2.449,1.9-4.418,1.215s-3.184-2.337-2.713-3.691,2.448-1.9,4.418-1.215S932.5,339.307,932.025,340.661Z" transform="translate(-879.261 -276.98)" fill="#e3e3e3"/>
      <path id="Trazado_39100" data-name="Trazado 39100" d="M932.817,338.735a2.854,2.854,0,0,1,.25,2.275c-.638,1.837-3.317,2.574-5.988,1.647a6.552,6.552,0,0,1-2.913-1.955,6.065,6.065,0,0,0,3.429,2.727c2.668.927,5.349.19,5.987-1.647A3.184,3.184,0,0,0,932.817,338.735Z" transform="translate(-879.174 -277.268)" fill="#230753" opacity="0.15"/>
      <path id="Trazado_39101" data-name="Trazado 39101" d="M925.82,339.146c.471-1.355,2.448-1.9,4.418-1.215a5.179,5.179,0,0,1,1.419.756,4.647,4.647,0,0,0-2.346-1.717c-1.97-.684-3.947-.141-4.418,1.215a2.742,2.742,0,0,0,1.295,2.935A2.222,2.222,0,0,1,925.82,339.146Z" transform="translate(-879.262 -276.98)" fill="#230753" opacity="0.15"/>
      <path id="Trazado_39102" data-name="Trazado 39102" d="M967.289,335.812a3.335,3.335,0,0,0-3.609.766,3.813,3.813,0,0,1,1.893.166,3.108,3.108,0,0,1,2.245,3.739,2.382,2.382,0,0,1-.44.767,2.7,2.7,0,0,0,2.157-1.7A3.11,3.11,0,0,0,967.289,335.812Z" transform="translate(-884.694 -276.829)" fill="#230753" opacity="0.15"/>
      <path id="Trazado_39103" data-name="Trazado 39103" d="M965.673,341.952c-3.57-.979-5.8-4.191-4.981-7.172a4.746,4.746,0,0,1,.684-1.434,4.958,4.958,0,0,0-2.022,2.772c-.821,2.982,1.408,6.194,4.979,7.175a6.627,6.627,0,0,0,7.235-2.177A7.149,7.149,0,0,1,965.673,341.952Z" transform="translate(-884.066 -276.515)" fill="#230753" opacity="0.15"/>
      <path id="Trazado_39104" data-name="Trazado 39104" d="M1007.824,341.8a2.352,2.352,0,0,1-.513,1.588,2,2,0,0,1-2.75.584,1.522,1.522,0,0,1-.366-.417,1.621,1.621,0,0,0,.585,1.16,2.006,2.006,0,0,0,2.75-.584A2.145,2.145,0,0,0,1007.824,341.8Z" transform="translate(-890.355 -277.696)" fill="#230753" opacity="0.15"/>
      <path id="Trazado_39105" data-name="Trazado 39105" d="M974.586,309.587a2.122,2.122,0,0,1,2.951.384,1.76,1.76,0,0,1,.161,1.485,1.936,1.936,0,0,0,.232-2.226,2.121,2.121,0,0,0-2.95-.385,2.477,2.477,0,0,0-1.043,1.346A2.6,2.6,0,0,1,974.586,309.587Z" transform="translate(-886.128 -273.034)" fill="#230753" opacity="0.15"/>
      <path id="Trazado_39106" data-name="Trazado 39106" d="M1007.163,319.625a2.119,2.119,0,0,0-2.748-1.138,2.545,2.545,0,0,0-1.234.841,2.635,2.635,0,0,1,.739-.376,2.122,2.122,0,0,1,2.75,1.138,1.8,1.8,0,0,1-.38,1.669A1.947,1.947,0,0,0,1007.163,319.625Z" transform="translate(-890.213 -274.422)" fill="#230753" opacity="0.15"/>
      <path id="Trazado_39107" data-name="Trazado 39107" d="M976.977,294.529c.277-1.352,2.488-2.041,4.94-1.54a7.656,7.656,0,0,1,1.8.6,6.179,6.179,0,0,0-3.414-1.784c-2.453-.5-4.664.189-4.94,1.541-.2.989.7,2.053,2.153,2.752A1.874,1.874,0,0,1,976.977,294.529Z" transform="translate(-886.323 -270.689)" fill="#230753" opacity="0.15"/>
      <g id="Grupo_34746" data-name="Grupo 34746" transform="translate(3.799 93.043)">
        <g id="Grupo_34745" data-name="Grupo 34745" transform="translate(0.39)">
          <path id="Trazado_39108" data-name="Trazado 39108" d="M883.592,381.093c-1.829-3.833-4.673-6.314-6.331-5.5a1.624,1.624,0,0,0-.525.508c1.1.38,3.349,2.562,4.969,5.955a12,12,0,0,1,1.054,7.5,1.443,1.443,0,0,0,1.126-.077C885.553,388.679,885.421,384.927,883.592,381.093Z" transform="translate(-876.736 -375.439)" fill="#230753" opacity="0.15"/>
        </g>
        <path id="Trazado_39109" data-name="Trazado 39109" d="M881.613,382.094c1.772,3.713,2.448,7.087,1.51,7.535s-3.136-2.2-4.907-5.913-2.448-7.086-1.511-7.534S879.841,378.382,881.613,382.094Z" transform="translate(-876.283 -375.536)" fill="#c2c2c2"/>
        <path id="Trazado_39110" data-name="Trazado 39110" d="M881.85,382.893c-.173-.361-.353-.7-.531-1.044,1.4,3.269,1.879,6.06,1.031,6.465s-2.715-1.721-4.375-4.868c.151.354.3.707.478,1.069,1.77,3.713,3.968,6.36,4.906,5.913S883.622,386.605,881.85,382.893Z" transform="translate(-876.519 -376.334)" fill="#230753" opacity="0.15"/>
      </g>
      <path id="Trazado_39111" data-name="Trazado 39111" d="M1005.793,322.7a3.247,3.247,0,0,1-4.212-1.756,2.808,2.808,0,0,1,.493-2.545,3,3,0,0,0-1.154,3.243,3.245,3.245,0,0,0,4.211,1.756,3.79,3.79,0,0,0,1.886-1.349A3.972,3.972,0,0,1,1005.793,322.7Z" transform="translate(-889.88 -274.427)" fill="#230753" opacity="0.15"/>
    </g>
  </g>
</svg>
