<svg xmlns="http://www.w3.org/2000/svg" xmlns:xlink="http://www.w3.org/1999/xlink" width="650" height="566" viewBox="0 0 650 566">
  <defs>
    <clipPath id="clip-path">
      <rect id="Rect치ngulo_3771" data-name="Rect치ngulo 3771" width="650" height="566" transform="translate(374 56)" fill="#fff" stroke="#707070" stroke-width="1"/>
    </clipPath>
    <linearGradient id="linear-gradient" x1="0.718" y1="0.078" x2="0.037" y2="1" gradientUnits="objectBoundingBox">
      <stop offset="0" stop-color="#fff" stop-opacity="0"/>
      <stop offset="1" stop-color="#fff"/>
    </linearGradient>
    <linearGradient id="linear-gradient-2" x1="0.481" y1="0.416" x2="-0.302" y2="0.882" xlink:href="#linear-gradient"/>
  </defs>
  <g id="Enmascarar_grupo_3" data-name="Enmascarar grupo 3" transform="translate(-374 -56)" clip-path="url(#clip-path)">
    <g id="Grupo_34759" data-name="Grupo 34759">
      <path id="Uni칩n_1" data-name="Uni칩n 1" d="M259.34,469.613l-8.466-197.494L199.262,253.1s-33.029,49.228-69.772,56.088S109.116,347.4,87.653,352c0,0-50.777,12.37-63.409,9.362s-36.948-10.3-16.116-16.074,58.884-4.466,69.957-21.03,104.121-105.3,122.986-104.595,142.3,58.671,170.257,56.882a40.381,40.381,0,0,0,9.606-1.883c-.054-1.033-.1-2.078-.146-3.129a311.366,311.366,0,0,1,1.994-49.252,7.1,7.1,0,0,1,14.07,1.907,303.053,303.053,0,0,0-1.976,43.949c21.543-13.133,42.172-39.214,48.664-61.533,8.887-30.551,13.039-72.673,13.039-72.673l-29.471-6.755L456.579,38.6,437.339,0S495.017,3.668,508.4,51.238s-27.216,84.075-27.216,84.075,17.406,76.03-43.849,141.233c-12.155,12.938-25.364,20.977-38.749,25.556,3.392,16.061,8.982,28.049,16.575,35.323,7.956,7.622,18.2,10.187,31.3,7.84,34-6.09,55.3-43.16,74.092-75.867,15.282-26.6,28.483-49.568,47.138-52.226,9.181-1.307,18.552,2.574,27.856,11.535,16.059,15.465,29.846,38.3,44.444,62.477,33.308,55.166,64.769,107.273,121.345,76.16a7.1,7.1,0,1,1,6.842,12.442c-30.834,16.957-58.435,14.8-84.378-6.6-21.682-17.88-39.11-46.746-55.964-74.663-14.1-23.355-27.423-45.416-42.138-59.588-6.078-5.852-11.313-8.372-16.007-7.7-11.8,1.679-23.956,22.84-36.829,45.243-19.33,33.643-43.387,75.514-83.9,82.769-17.647,3.161-32.33-.734-43.637-11.573-9.635-9.234-16.5-23.309-20.523-42.021-49.51,8.778-97.056-23.056-97.056-23.056s11.028,21.3,5.978,49.663,2.877,41.51,2.877,52.851,13.451,45.744-4.631,70.029c-10,13.435-18.926,16.436-24.9,16.435A14.772,14.772,0,0,1,259.34,469.613Z" transform="translate(420.136 133.66)" fill="#401cb7" stroke="rgba(0,0,0,0)" stroke-width="1" opacity="0.531"/>
      <g id="Grupo_34753" data-name="Grupo 34753" transform="translate(800.688 338.47)">
        <path id="Trazado_39118" data-name="Trazado 39118" d="M1660.341,728.618a7.093,7.093,0,0,1-1.483,1.084c-30.835,16.957-58.436,14.8-84.378-6.6-21.681-17.88-39.11-46.746-55.964-74.663-14.1-23.355-27.422-45.416-42.138-59.589-6.078-5.852-11.313-8.372-16.006-7.705-11.8,1.679-23.956,22.84-36.829,45.244-19.331,33.644-43.387,75.514-83.9,82.769-17.646,3.161-32.329-.734-43.637-11.573-14.807-14.191-23.065-39.808-24.546-76.134a311.354,311.354,0,0,1,1.995-49.252,7.1,7.1,0,0,1,14.07,1.906,302.6,302.6,0,0,0-1.868,46.98c1.33,31.972,8.308,54.882,20.182,66.256,7.956,7.623,18.2,10.188,31.3,7.84,34-6.09,55.3-43.159,74.091-75.866,15.283-26.6,28.483-49.568,47.139-52.226,9.181-1.307,18.552,2.574,27.856,11.535,16.059,15.466,29.847,38.3,44.444,62.477,33.308,55.166,64.768,107.273,121.345,76.16a7.1,7.1,0,0,1,8.325,11.357Z" transform="translate(-1271.225 -566.055)" fill="#f7f7f0"/>
        <path id="Trazado_39119" data-name="Trazado 39119" d="M1281.49,679.043s-9.413-21.893-7.578-32.3l15.2-8.716s.618,19.946,5.338,35.133C1294.454,673.164,1284.762,662.835,1281.49,679.043Z" transform="translate(-1271.362 -570.085)" fill="#9e9e9f"/>
        <path id="Trazado_39120" data-name="Trazado 39120" d="M1386.315,672.831a55.945,55.945,0,0,0,8.755,11.443q2.744-3.11,5.348-6.387a47.95,47.95,0,0,1-8.464-12.155C1390.118,668.171,1388.244,670.548,1386.315,672.831Z" transform="translate(-1277.669 -571.636)" fill="#d90066"/>
        <path id="Trazado_39121" data-name="Trazado 39121" d="M1509.863,591.962c-1.78-2.19-3.58-4.3-5.408-6.319a55.691,55.691,0,0,0-9.913,10.209q2.773,3.105,5.5,6.547A47.942,47.942,0,0,1,1509.863,591.962Z" transform="translate(-1283.729 -567.152)" fill="#d90066"/>
        <path id="Trazado_39122" data-name="Trazado 39122" d="M1579.772,697.992q-2.515-3.224-4.984-6.639a55.766,55.766,0,0,0-10.119,10.1c1.729,2.334,3.489,4.6,5.267,6.822A47.953,47.953,0,0,1,1579.772,697.992Z" transform="translate(-1287.655 -573.07)" fill="#d90066"/>
      </g>
      <g id="Grupo_34752" data-name="Grupo 34752" transform="translate(392.479 128)">
        <g id="Grupo_34023" data-name="Grupo 34023" transform="translate(236.377 38.649)">
          <path id="Trazado_36708" data-name="Trazado 36708" d="M-218.363-847.474-78.512-959.48l42.5,44.649-93.012,55.147Z" transform="translate(218.363 959.48)" opacity="0.246" fill="url(#linear-gradient)"/>
          <path id="Trazado_36709" data-name="Trazado 36709" d="M-168.693-795.075,4.883-867.648l-52.347-79.586-118.847,71.022-8.873,8.563Z" transform="translate(256.59 975.831)" opacity="0.605" fill="url(#linear-gradient-2)"/>
        </g>
        <g id="Grupo_34013" data-name="Grupo 34013" transform="matrix(0.998, -0.07, 0.07, 0.998, 0, 36.276)">
          <g id="Grupo_34006" data-name="Grupo 34006" transform="translate(0 0)">
            <path id="Trazado_36551" data-name="Trazado 36551" d="M24.925,13.226S18.32,0,11.329,0,3.3,12.829,3.3,12.829L0,105.089s-.157,16.4,12.463,9.937S37.008,90.678,35.517,72.294s-.741-24.346.126-37.762S24.925,13.226,24.925,13.226Z" transform="translate(251.366 341.98)" fill="#f7f7f0"/>
            <path id="Trazado_36552" data-name="Trazado 36552" d="M12.463,30.862c8.131-4.162,15.969-13.072,20.12-23.8C19.325.518,8.588-.589.74.239L0,20.925S-.157,37.322,12.463,30.862Z" transform="translate(251.366 426.144)" fill="#909090"/>
            <path id="Trazado_36553" data-name="Trazado 36553" d="M34.226,19.132a39.855,39.855,0,0,0,.12-7.516c-.164-2.02-.3-3.881-.411-5.628C23.119-.137,10.921-.867.391.723L0,11.665a56.993,56.993,0,0,1,7.11-.936C18.061,10.013,27.141,12.839,34.226,19.132Z" transform="translate(252.537 402.659)" fill="#174e9a"/>
            <path id="Trazado_36554" data-name="Trazado 36554" d="M95.115,2.493,2.833,43.348s-6.056,3.73-.459,9.147S32.8,60.256,47.652,56.6s25.524-2.582,35.568-5.379,8.423-14.284,20.535-29.082S113.391-5.6,95.115,2.493Z" transform="translate(0 268.625)" fill="#adadac"/>
            <g id="Grupo_33993" data-name="Grupo 33993" transform="translate(267.612 122.939)">
              <path id="Trazado_36555" data-name="Trazado 36555" d="M129.874.314s-13.564-4.241-26.563,18.437S92.2,54.407,66.548,55.2,1.51,59.282,1.51,59.282A32.423,32.423,0,0,0,1.474,78.9s46.953,15.579,96.738,3.24S156.639,1.4,129.874.314Z" transform="translate(0 0)" fill="#bababa"/>
              <path id="Trazado_36556" data-name="Trazado 36556" d="M16.6.882C3.091,3.926.451,14.837,0,20.419c4.53-.7,9.119-1.6,13.733-2.745A58.406,58.406,0,0,0,37.765,5.349C34.8,2.2,28.5-1.8,16.6.882Z" transform="translate(84.48 64.467)" fill="#9e9e9f"/>
              <path id="Trazado_36557" data-name="Trazado 36557" d="M18,0C8.263.717,1.51,1.282,1.51,1.282A32.423,32.423,0,0,0,1.474,20.9a155.751,155.751,0,0,0,18.638,4.5A96.618,96.618,0,0,1,18,0Z" transform="translate(0 58)" fill="#174e9a"/>
              <path id="Trazado_36558" data-name="Trazado 36558" d="M8.694,0c-2.63.172-5.2.347-7.669.519a66.668,66.668,0,0,0,.793,27.107c2.507.382,5.159.74,7.945,1.056A60.01,60.01,0,0,1,8.694,0Z" transform="translate(25.006 56.904)" fill="#b71562"/>
              <path id="Trazado_36561" data-name="Trazado 36561" d="M20.039,25.4A96.618,96.618,0,0,1,17.921,0C13.716.309,10.07.591,7.282.811,9.06,4.73,12.122,12.764,8.718,15.4,5.792,17.666,2.2,15.26,0,13.242A33.808,33.808,0,0,0,1.4,20.9,155.752,155.752,0,0,0,20.039,25.4Z" transform="translate(0.074 58)" fill="#114682"/>
              <path id="Trazado_36562" data-name="Trazado 36562" d="M0,65.828s36.358-.691,70.831-3.605c31-2.621,33.3-30.933,35.354-49.158,0,0,15.846-25.074,30.249-5.748C149.39,24.7,142.227,80.475,84.151,84.237S1.146,78.252,1.146,78.252Z" transform="translate(0.329 0.649)" fill="#c7c5c0"/>
              <path id="Trazado_36663" data-name="Trazado 36663" d="M3.217,0C2.031,2.4.983,4.662,0,6.781c7.7,2.333,26.148,9.35,36.576,25.226a66.856,66.856,0,0,0,4.287-6.82C29.445,9.809,11.928,2.718,3.217,0Z" transform="translate(95.929 26.605)" fill="#174e9a"/>
              <path id="Trazado_36664" data-name="Trazado 36664" d="M37.687,31.056a65.846,65.846,0,0,0,2.829-8.587C29.395,9.019,13.573,2.722,4.07,0,3,1.516,1.934,3.178.868,5.037.569,5.561.284,6.073,0,6.585,8.869,8.906,27.18,15.4,37.687,31.056Z" transform="translate(102.443 13.714)" fill="#174e9a"/>
            </g>
            <g id="Grupo_33994" data-name="Grupo 33994" transform="translate(341.391 144.102)">
              <path id="Trazado_36563" data-name="Trazado 36563" d="M129.875.314s-13.564-4.241-26.563,18.436S92.2,54.407,66.549,55.2,1.51,59.282,1.51,59.282A32.414,32.414,0,0,0,1.475,78.9s46.953,15.578,96.738,3.24S156.639,1.4,129.875.314Z" transform="translate(0 0)" fill="#c7c5c0"/>
              <path id="Trazado_36564" data-name="Trazado 36564" d="M16.6.882C3.09,3.925.451,14.838,0,20.42c4.53-.7,9.119-1.6,13.733-2.745A58.392,58.392,0,0,0,37.765,5.348C34.8,2.2,28.5-1.8,16.6.882Z" transform="translate(84.48 64.466)" fill="#9e9e9f"/>
              <path id="Trazado_36565" data-name="Trazado 36565" d="M18,0C8.264.717,1.51,1.282,1.51,1.282A32.413,32.413,0,0,0,1.475,20.9a155.692,155.692,0,0,0,18.638,4.5A96.569,96.569,0,0,1,18,0Z" transform="translate(0 58)" fill="#174e9a"/>
              <path id="Trazado_36566" data-name="Trazado 36566" d="M8.694,0C6.065.172,3.5.348,1.026.52a66.646,66.646,0,0,0,.792,27.106c2.508.382,5.16.74,7.945,1.056A60.012,60.012,0,0,1,8.694,0Z" transform="translate(25.006 56.903)" fill="#b71562"/>
              <path id="Trazado_36567" data-name="Trazado 36567" d="M3.218,0C2.032,2.4.983,4.662,0,6.781,7.706,9.113,26.149,16.13,36.576,32.007a66.648,66.648,0,0,0,4.288-6.821C29.445,9.809,11.929,2.718,3.218,0Z" transform="translate(95.929 26.606)" fill="#174e9a"/>
              <path id="Trazado_36568" data-name="Trazado 36568" d="M37.686,31.056a65.794,65.794,0,0,0,2.83-8.587C29.394,9.019,13.572,2.722,4.07,0,3,1.515,1.934,3.178.868,5.037.568,5.561.284,6.072,0,6.585,8.869,8.906,27.18,15.4,37.686,31.056Z" transform="translate(102.444 13.714)" fill="#174e9a"/>
              <path id="Trazado_36569" data-name="Trazado 36569" d="M20.039,25.4A96.569,96.569,0,0,1,17.921,0C13.716.31,10.07.591,7.282.811,9.06,4.73,12.122,12.764,8.718,15.4,5.791,17.666,2.2,15.26,0,13.242A33.818,33.818,0,0,0,1.4,20.9,155.692,155.692,0,0,0,20.039,25.4Z" transform="translate(0.074 58)" fill="#114682"/>
            </g>
            <g id="Grupo_33995" data-name="Grupo 33995" transform="translate(188.751 184.876)">
              <path id="Trazado_36570" data-name="Trazado 36570" d="M8.487,0,0,4.67S3.509,14.946,43.79,35.838L70.811,46.589S118.082,63.265,146,61.2s-11.06-34.195-11.06-34.195L67.551,8.023Z" transform="translate(2.205 13.586)" fill="#adadac"/>
              <path id="Trazado_36571" data-name="Trazado 36571" d="M138.572,72.5h0c20.655,6.975,32.647-1.2,39.055-9.222a17.9,17.9,0,0,0,3.781-5.017,32.321,32.321,0,0,0,2.405-6c.081-.235.12-.361.12-.361l-.022-.006c4.545-16.842-9.813-28.079-24.55-32.2C142.837,15.08,16.2-12.134,2.054,6.379-16.9,31.177,100.512,63.78,138.572,72.5Z" transform="translate(0 0)" fill="#adadac"/>
              <path id="Trazado_36572" data-name="Trazado 36572" d="M12.877,1.512C8.826.962,4.793.453.821,0A70.1,70.1,0,0,1,3.163,8.984C6.3,25.359,3.746,41.336,0,53.936q5.039,1.978,10.4,3.987C17.891,33.516,16.237,14.349,12.877,1.512Z" transform="translate(62.615 2.252)" fill="#14457f"/>
              <path id="Trazado_36573" data-name="Trazado 36573" d="M11.957,1.01C7.864.6,3.862.258,0,0A69.612,69.612,0,0,1,2.521,9.516C5.213,23.55,3.718,37.289.877,48.863c3.23,1.359,6.708,2.8,10.389,4.283C17.162,30.615,15.244,12.921,11.957,1.01Z" transform="translate(45.118 0.561)" fill="#14457f"/>
            </g>
            <path id="Trazado_36574" data-name="Trazado 36574" d="M0,111.939s20.013,39.029,53.188,53.6c0,0,36.362-19.65,55.759-72.417S122.742,20,122.742,20,92,18.327,69.719,11.618,39.246,0,39.246,0,17.573,24.623,13.977,46.348,0,111.939,0,111.939" transform="translate(359.832 116.591)" fill="#f7f7f0"/>
            <path id="Trazado_36575" data-name="Trazado 36575" d="M63.945,54.22s-8.217,21.005-44.482,9.067S3.752-2.122,31.31.065,82.951,27.142,63.945,54.22Z" transform="translate(355.859 220.142)" fill="#e2e2e2"/>
            <path id="Trazado_36576" data-name="Trazado 36576" d="M138.572,72.5h0c20.655,6.976,32.647-1.2,39.055-9.221a17.9,17.9,0,0,0,3.781-5.017,32.318,32.318,0,0,0,2.405-6c.081-.235.12-.361.12-.361l-.022-.006c4.545-16.842-9.813-28.079-24.55-32.2C142.837,15.08,16.2-12.135,2.054,6.379-16.9,31.177,100.512,63.78,138.572,72.5Z" transform="translate(239.237 209.138)" fill="#f7f7f0"/>
            <path id="Trazado_36577" data-name="Trazado 36577" d="M0,12.8S90.772,55.651,130.887,52.549c0,0,11.464-2.26,14.241-23.325S9.391,0,9.391,0Z" transform="translate(262.317 235.652)" fill="#f7f7f0"/>
            <path id="Trazado_36578" data-name="Trazado 36578" d="M12.877,1.513C8.826.962,4.793.453.821,0A70.127,70.127,0,0,1,3.163,8.985C6.3,25.359,3.746,41.336,0,53.934q5.039,1.981,10.4,3.989C17.891,33.517,16.237,14.35,12.877,1.513Z" transform="translate(301.853 211.389)" fill="#174e9a"/>
            <path id="Trazado_36579" data-name="Trazado 36579" d="M144.07,0s-21.9,24.267-51.22,14.032S0,1.481,0,1.481L12.626,19.558S15,20.629,19.115,22.386c-.466-1.6-.958-3.187-1.5-4.77C43.8,29.1,105.144,54.207,136.178,51.807c0,0,3.49-.7,7.085-4.85a28.93,28.93,0,0,0,6.025-2.234C164.281,27.91,144.07,0,144.07,0Z" transform="translate(257.026 236.394)" fill="#a0a09f" opacity="0.52"/>
            <path id="Trazado_36580" data-name="Trazado 36580" d="M11.957,1.01C7.864.6,3.862.258,0,0A69.612,69.612,0,0,1,2.521,9.516C5.213,23.549,3.718,37.289.877,48.863c3.23,1.359,6.708,2.8,10.389,4.283C17.162,30.615,15.244,12.921,11.957,1.01Z" transform="translate(284.355 209.698)" fill="#174e9a"/>
            <g id="Grupo_34003" data-name="Grupo 34003" transform="translate(379.183 0)">
              <path id="Trazado_36581" data-name="Trazado 36581" d="M37.276,3.352S14.1-2.048,0,.86C0,.86,21.889,17.7,67.668,15.189,67.668,15.189,53.319,4.041,37.276,3.352Z" transform="translate(30.68 120.006)" fill="#f2b590"/>
              <path id="Trazado_36582" data-name="Trazado 36582" d="M57.347,61.344s11.646-2.88,19.235-22.792L39.321,0S-12.1,29.089,2.666,53.506c0,0,4.2-7.687,19.986-4.053S58.24,60.26,57.347,61.344" transform="translate(25.53 59.093)" fill="#0a0e16"/>
              <path id="Trazado_36583" data-name="Trazado 36583" d="M17.793,3.319,12.7,21.2,0,19.605.441,0Z" transform="translate(60.037 105.541)" fill="#f2b590"/>
              <path id="Trazado_36584" data-name="Trazado 36584" d="M14.82,13.649,0,18.109.408,0,18.7,1.128Z" transform="translate(60.071 105.541)" fill="#dca484"/>
              <path id="Trazado_36585" data-name="Trazado 36585" d="M4.045.912s5.693,12.574,1.4,16.3-5.3,6.145-3.416,8.659c0,0-3.221-2.9-.837-8.58S4.427,8.24,1.1,4.311,2.934-1.137,4.045.912Z" transform="translate(81.722 99.505)" fill="#0d193e"/>
              <path id="Trazado_36586" data-name="Trazado 36586" d="M3.389.429S-.545,4.328.064,6.921,4.8,14.887,2.224,17.585a5.581,5.581,0,0,0,3.3-5.329c-.095-4,.119-5.552,1.982-7.538S6.054-1.324,3.389.429Z" transform="translate(29.69 96.919)" fill="#1f2f52"/>
              <path id="Trazado_36587" data-name="Trazado 36587" d="M1.575,0S24.051,9.6,23.52,26.276,35.2,36.795,32.378,47.13s-16,23.075-16,23.075L0,59.26Z" transform="translate(85.734 27.441)" fill="#0a0e16"/>
              <path id="Trazado_36588" data-name="Trazado 36588" d="M77.869,10.729S68.754-1.053,57.01.076C46.175,1.118,38.7,19.889,28.209,19.584S5.353,23.113,7.844,37.159,0,49.4,0,49.4s11.883,4.272,14.012-6.137,6.191-10.853,10.78-9.4S55.373,21.367,55.373,21.367Z" transform="translate(2.388 12.823)" fill="#091531"/>
              <path id="Trazado_36589" data-name="Trazado 36589" d="M11.566.914S.649,14.316,2.574,23.94s2.633,8.622-.6,12.226S-.582,47.039,4.527,49.7c0,0-4.339-4.563-.541-8.709S13.286,39.253,14,26,25.372,0,25.372,0Z" transform="translate(14.702 45.663)" fill="#091531"/>
              <path id="Trazado_36590" data-name="Trazado 36590" d="M7.45,13.964s6.1,14.665-3.694,24.9S6.423,58.226,6.423,58.226-1.333,50.573,4.4,46.643s10.825-5.422,12.055-12.158S4.569,18.015,10.421,6.655,4.47-1.036,7.45,13.964Z" transform="translate(13.543 59.719)" fill="#1f2f52"/>
              <path id="Trazado_36591" data-name="Trazado 36591" d="M61.323,13.132S63.6,1.5,52.037.386,28.718-.2,20.669,12.816,1.764,28.806.127,41.913,13.352,67.24,6.911,78.038A14.528,14.528,0,0,0,9.022,96.482S3.756,81.765,14.866,80.138,44.122,85.36,45.612,60.124,61.323,13.132,61.323,13.132Z" transform="translate(19.174 16.117)" fill="#0d193e"/>
              <g id="Grupo_33996" data-name="Grupo 33996" transform="translate(27.67 64.966)">
                <ellipse id="Elipse_641" data-name="Elipse 641" cx="5.752" cy="5.752" rx="5.752" ry="5.752" fill="#f2b590"/>
                <ellipse id="Elipse_642" data-name="Elipse 642" cx="3.374" cy="3.374" rx="3.374" ry="3.374" transform="translate(2.378 2.378)" fill="#d58350"/>
              </g>
              <path id="Trazado_36592" data-name="Trazado 36592" d="M40.2.239C25.67-1.466,11.717,6.029,8.443,20.42a27.042,27.042,0,0,0-.62,4.345C6.95,29.541,5.366,37.7,4.084,41.559,2.21,47.195-6.765,72.23,9.953,84.6a25.853,25.853,0,0,1,3.383,4.685,7.516,7.516,0,0,0,3.971,2.851,11.105,11.105,0,0,0,7.06.5c3.525-1.1,16.386-7.187,22.94-8.975s9.973-10.436,11.765-17S87.047,5.734,40.2.239Z" transform="translate(31.133 27.073)" fill="#f2b590"/>
              <g id="Grupo_33998" data-name="Grupo 33998" transform="translate(37.791 62.773)">
                <g id="Grupo_33997" data-name="Grupo 33997" transform="translate(0 0)">
                  <path id="Trazado_36593" data-name="Trazado 36593" d="M8.913,5.377A4.587,4.587,0,0,1,3.758,9.31,4.586,4.586,0,0,1,.06,3.984,4.585,4.585,0,0,1,5.215.053,4.587,4.587,0,0,1,8.913,5.377Z" transform="translate(2.072 2.041)" fill="#32190f"/>
                  <path id="Trazado_36594" data-name="Trazado 36594" d="M11.042,6.5S11.181,2.562,7.625,2,3.03,1.021,2.736,0c0,0-.226,1.853,1.145,2.229,0,0-2.469.357-3.881-.97A4.139,4.139,0,0,0,3.726,4.033C6.85,4.416,9.62,4.6,11.042,6.5Z" fill="#32190f"/>
                </g>
                <path id="Trazado_36595" data-name="Trazado 36595" d="M1.879,1.156a1.256,1.256,0,0,0-.246,1.675c.5.765-.648,1.607-1.151.838A2.655,2.655,0,0,1,.777.256a.735.735,0,0,1,1-.1.714.714,0,0,1,.1,1Z" transform="translate(3.356 4.5)" fill="#fff"/>
              </g>
              <g id="Grupo_34000" data-name="Grupo 34000" transform="translate(65.453 69.577)">
                <g id="Grupo_33999" data-name="Grupo 33999" transform="translate(0 0)">
                  <path id="Trazado_36596" data-name="Trazado 36596" d="M.06,3.984a4.586,4.586,0,0,0,3.7,5.326A4.587,4.587,0,0,0,8.912,5.376,4.586,4.586,0,0,0,5.213.053,4.585,4.585,0,0,0,.06,3.984Z" transform="translate(0 0.543)" fill="#32190f"/>
                  <path id="Trazado_36597" data-name="Trazado 36597" d="M0,3.632S1.075-.154,4.631.406,9.305.881,9.9,0c0,0-.353,1.832-1.773,1.77,0,0,2.24,1.1,3.99.269a4.141,4.141,0,0,1-4.4,1.5C4.627,2.94,1.935,2.262,0,3.632Z" transform="translate(0.288 0)" fill="#32190f"/>
                </g>
                <path id="Trazado_36598" data-name="Trazado 36598" d="M1.88,1.157a1.252,1.252,0,0,0-.246,1.674c.5.766-.649,1.607-1.152.838A2.655,2.655,0,0,1,.777.255a.737.737,0,0,1,1-.1.717.717,0,0,1,.1,1Z" transform="translate(1.96 3.109)" fill="#fff"/>
              </g>
              <path id="Trazado_36599" data-name="Trazado 36599" d="M22.4,0s-3.1,11.467-5.085,18.207S14.458,27.9,8.6,26.675,0,17.963,0,17.963Z" transform="translate(25.196 37.826)" fill="#0d193e"/>
              <path id="Trazado_36600" data-name="Trazado 36600" d="M20.482,13.322S13.058,8.29,4.913,18.252-.791-1.306,8.848.045,22.084,8.923,20.482,13.322Z" transform="translate(45.739 27.819)" fill="#0a0e16"/>
              <path id="Trazado_36601" data-name="Trazado 36601" d="M32.024,2.114s-8.654-4.4-12.84-.506S14.525,24.537,7.934,25.652-2.886,35.07,2.359,40.52c0,0-3.447-7.867,3.035-9.352s10.824-3.3,12.5-13.639S21.98,3.2,32.024,2.114Z" transform="translate(3.93 39.823)" fill="#1f2f52"/>
              <path id="Trazado_36602" data-name="Trazado 36602" d="M0,0" transform="translate(66.221 41.141)" fill="#1f2f52"/>
              <path id="Trazado_36603" data-name="Trazado 36603" d="M0,8.425S22.344,7.014,19.348,26.841s-6.063,27.176-2.561,32.83c3.956,6.389,5.69,25.1-.131,28.052,0,0,15.62-3.551,12-23.689s-1.379-30,1.39-36.521S28.467-1.1,6.774.043C6.774.043,1.391-1.042,0,8.425Z" transform="translate(66.221 32.715)" fill="#0d193e"/>
              <path id="Trazado_36604" data-name="Trazado 36604" d="M.982,15.476s-3.218-3.623,1.994-8.24S-1.644,2.546,6.391.979C11.14.055,19.957-3.174,34.552,10.913c7.832,7.558,8.833,18.65,5.886,24.269S34.423,51.406,44.41,62.115s-6.986,16.373-6.986,16.373,8.976-9.844-.278-15.027-10.132-9.413-7.51-23.093S10.745,12.992.982,15.476Z" transform="translate(66.635 19.861)" fill="#0d193e"/>
              <path id="Trazado_36605" data-name="Trazado 36605" d="M45.087,16.918S41.422,8.686,35.715,9.86,32.358,25.523,22.854,28.773,7.616,41.414,10.966,52.35,2.461,64.514,3,69.706c0,0-5.466-6.221-1.651-11.425S6.675,48.007,3.321,45.311,1.228,28.547,15.093,19.386,21.536-.939,39.077.063,45.087,16.918,45.087,16.918Z" transform="translate(21.135 24.223)" fill="#1f2f52"/>
              <path id="Trazado_36606" data-name="Trazado 36606" d="M.623,9.745S-2.562,1.062,5.47.076s31.5,7.716,31.43,18.713-7.587,24.89,2.157,27.581,18.487,6.61,10.392,16.941c0,0,2.372-6.721-5.212-10.505s-19.1-1.36-19.573-8.112S28.416,9.08.623,9.745Z" transform="translate(66.994 25.591)" fill="#1f2f52"/>
              <path id="Trazado_36607" data-name="Trazado 36607" d="M0,0S10.159,10.031,7.559,16.606,4.2,33.638,18.635,33.715c0,0-11.855,6.184-16.35-1.9S6.861,15.106,0,0Z" transform="translate(89.819 69.723)" fill="#1f2f52"/>
              <path id="Trazado_36608" data-name="Trazado 36608" d="M.041,20.711S-.67,6.717,3.864,4.6s8.6-8.049,5.27-1.858C7.914,5.006.041,20.711.041,20.711Z" transform="translate(66.181 20.429)" fill="#0a0e16"/>
              <path id="Trazado_36609" data-name="Trazado 36609" d="M3.613,0S-3.462,13.116,2.189,19.722,16.5,47.4,10.2,55.26c0,0,12.178-7.748,7.049-21.472S1.246,14.813,3.613,0Z" transform="translate(87.678 57.084)" fill="#0d193e"/>
              <path id="Trazado_36610" data-name="Trazado 36610" d="M3.863,0S-.544,19.141,6.16,27.529,4.549,41.368,4.549,41.368,8.274,39.895,2.3,28.174,3.863,0,3.863,0Z" transform="translate(86.653 81.013)" fill="#1f2f52"/>
              <path id="Trazado_36611" data-name="Trazado 36611" d="M.377,0a20.693,20.693,0,0,1,2.54,9.64c-.122,5.065,7.689,6.134,11.545,3.115,0,0-6.22,10-11.873,4.227S2.648,4.158.377,0Z" transform="translate(107.74 43.933)" fill="#1f2f52"/>
              <path id="Trazado_36612" data-name="Trazado 36612" d="M19.759,3.36a20.7,20.7,0,0,0-9.184,3.876C6.639,10.429,1.021,4.9,1.058,0c0,0-4.121,11.035,3.906,11.981S15.08,4.1,19.759,3.36Z" transform="translate(24.916 21.922)" fill="#1f2f52"/>
              <path id="Trazado_36613" data-name="Trazado 36613" d="M.236,2.651S7.05,3.109,8.268,4.8A7.283,7.283,0,0,1,9.637,7.984s1.143-4.133-.73-5.577S1.053-.637.876.259-.5.461.236,2.651Z" transform="translate(70.294 62.577)" fill="#0d193e"/>
              <path id="Trazado_36614" data-name="Trazado 36614" d="M10.809,4.541s-6.15-2.968-8.044-2.1A7.288,7.288,0,0,0,0,4.532S1.049.375,3.389.045s8.333,1.233,8.044,2.1S12.528,3,10.809,4.541Z" transform="translate(39.09 56.735)" fill="#0d193e"/>
              <g id="Grupo_34002" data-name="Grupo 34002" transform="translate(46.356 95.156)">
                <g id="Grupo_34001" data-name="Grupo 34001" transform="translate(13.743 1.986)">
                  <path id="Trazado_36615" data-name="Trazado 36615" d="M.547,1.747S1.776-.247,0,.026C0,.026,1.2.143.547,1.747Z" transform="translate(0 0)" fill="#39393a"/>
                </g>
                <path id="Trazado_36616" data-name="Trazado 36616" d="M5.516,2.582A10.906,10.906,0,0,1,0,0S-.245,4.982,5.3,5.277s6.12-3.5,6.12-3.5" transform="translate(0.547 1.956)" fill="#f28194" opacity="0.53"/>
                <path id="Trazado_36617" data-name="Trazado 36617" d="M.277,2.226,0,1.791A4.312,4.312,0,0,1,3.684,0s.555-.1,1.264.874l.226.314s.838-.835,1.612-.7a7.523,7.523,0,0,1,4.863,3.391,19.315,19.315,0,0,1-8.684-.144A5.449,5.449,0,0,1,.277,2.226Z" transform="translate(0.24 0)" fill="#f28194" opacity="0.53"/>
                <path id="Trazado_36618" data-name="Trazado 36618" d="M0,0A9.327,9.327,0,0,0,5.68,2.739a14.342,14.342,0,0,0,8.947-1.645S12.055,3.69,5.8,3.274C5.8,3.274.758,2.819,0,0Z" transform="translate(0 1.348)" fill="#494747"/>
              </g>
              <path id="Trazado_36619" data-name="Trazado 36619" d="M14.03,0S8.751,10.26,9.063,18.7,7.7,45.138,0,47.758c0,0,16.575.243,15.179-16.653S10.018,23.659,14.03,0Z" transform="translate(72.235 66.759)" fill="#0d193e"/>
              <ellipse id="Elipse_643" data-name="Elipse 643" cx="3.839" cy="3.839" rx="3.839" ry="3.839" transform="translate(35.587 82.429)" fill="#f28194" opacity="0.53"/>
              <ellipse id="Elipse_644" data-name="Elipse 644" cx="3.839" cy="3.839" rx="3.839" ry="3.839" transform="translate(68.037 87.148)" fill="#f28194" opacity="0.53"/>
              <path id="Trazado_36620" data-name="Trazado 36620" d="M56.255,11.495,49.21,10.236c-.147-.22-.441-.171-.891-.159l-.813-.145c-.955-4.324-7.129-5.671-8.357-5.9-3.577-.659-6.457-.145-8.531,1.517a7.562,7.562,0,0,0-1.6,1.78l.134-1.388-.065-.092c-.029-.06-.686-1.819-3.947-2.287-3.089-.445-4.3,1.045-4.345,1.1l-.023.079-.251,1.335A7.514,7.514,0,0,0,19.5,3.951C17.982,1.771,15.364.462,11.746.086,10.5-.044,4.2-.5,2.068,3.379c-.018.032-.035.067-.053.1C.777,3.338.394,2.623.063,3.758c-.3,1.028.521,1.223,1.285,1.325C.251,8.524.622,13.2,3.154,15.8a9.776,9.776,0,0,0,5.7,2.79h0a11.206,11.206,0,0,0,5.963-.742c3.536-1.525,5.7-5.5,6.011-8.663a7.91,7.91,0,0,0,.023-1.265l.027,0,.493-2.853A5.075,5.075,0,0,1,25,4.585c2.4.346,3.239,1.248,3.425,1.5l-.245,2.886.028,0a7.78,7.78,0,0,0-.335,1.216c-.591,3.124.36,7.573,3.322,10.034A11.229,11.229,0,0,0,36.7,22.637a9.794,9.794,0,0,0,6.258-1.088c3.17-1.785,4.843-6.18,4.754-9.8L55.8,13.406ZM14.541,17.236a10.528,10.528,0,0,1-5.593.71,9.111,9.111,0,0,1-5.3-2.606A8.759,8.759,0,0,1,1.47,9.584a11.589,11.589,0,0,1,1.2-5.852A5.89,5.89,0,0,1,6.714,1.058a15.566,15.566,0,0,1,4.96-.273c.231.025.46.052.683.085,8.073,1.161,7.9,7.071,7.785,8.244C19.848,12.076,17.83,15.817,14.541,17.236Zm31.793-1.2a8.75,8.75,0,0,1-3.712,4.909,9.1,9.1,0,0,1-5.82,1.007,10.512,10.512,0,0,1-5.166-2.257C28.88,17.405,28,13.248,28.551,10.323c.219-1.158,1.721-6.878,9.794-5.716.222.031.45.069.678.111A15.579,15.579,0,0,1,43.7,6.378a5.892,5.892,0,0,1,3.124,3.7A11.6,11.6,0,0,1,46.334,16.035Z" transform="translate(32.318 62.056)" fill="#323232"/>
              <ellipse id="Elipse_645" data-name="Elipse 645" cx="70.427" cy="70.427" rx="70.427" ry="70.427" transform="translate(0 0)" fill="#caccca" opacity="0.209"/>
              <path id="Trazado_36621" data-name="Trazado 36621" d="M3.711,28.162A3.315,3.315,0,0,1,.2,23.752,46.781,46.781,0,0,1,18.472.544a3.315,3.315,0,0,1,3.636,5.544,40.118,40.118,0,0,0-15.671,19.9A3.312,3.312,0,0,1,3.711,28.162Z" transform="translate(13.006 16.293)" fill="#fbfcfb"/>
              <path id="Trazado_36622" data-name="Trazado 36622" d="M3.711,9.117A3.315,3.315,0,0,1,2.193,2.706,46.609,46.609,0,0,1,16.16,0a3.315,3.315,0,1,1,.252,6.624A40.086,40.086,0,0,0,4.439,8.943,3.339,3.339,0,0,1,3.711,9.117Z" transform="translate(38.929 9.314)" fill="#fbfcfb"/>
            </g>
            <path id="Trazado_36623" data-name="Trazado 36623" d="M36.991,0S10.293,30.621,4.579,83.907c0,0-1.8,4.821-4.579,10.658" transform="translate(375.823 130.657)" fill="none" stroke="#465a69" stroke-linecap="round" stroke-linejoin="round" stroke-width="7"/>
            <path id="Trazado_36624" data-name="Trazado 36624" d="M30.646,0S4.6,31.174,0,84.569" transform="translate(407.095 142.544)" fill="none" stroke="#465a69" stroke-linecap="round" stroke-linejoin="round" stroke-width="7"/>
            <path id="Trazado_36625" data-name="Trazado 36625" d="M0,29.988s15.223,4.4,19.158,41.277c0,0,7.844-26.441,40.173-30.437,0,0,9.073-12.776,15.073-34.843S0,29.988,0,29.988Z" transform="translate(397.724 194.222)" fill="#a0a09f" opacity="0.52"/>
            <path id="Trazado_36626" data-name="Trazado 36626" d="M0,0" transform="translate(360.837 229.367)" fill="#d3e5d3"/>
            <path id="Trazado_36627" data-name="Trazado 36627" d="M11.428.114S4.172-1.767,0,9.738c0,0,46.846,27.587,99.43,25.157,0,0,2.762-4.459-.008-13.438C99.422,21.457,42.918,20.535,11.428.114Z" transform="translate(385.358 115.865)" fill="#d90066"/>
            <path id="Trazado_36628" data-name="Trazado 36628" d="M99.422,14.2s-2.137-.036-5.8-.241c.231,4.645-1.191,6.97-1.191,6.97C52.911,22.758,16.635,7.63,1.048,0A25.7,25.7,0,0,0,0,2.484S46.846,30.071,99.43,27.641C99.43,27.641,102.192,23.181,99.422,14.2Z" transform="translate(385.358 123.119)" fill="#b71562"/>
            <path id="Trazado_36629" data-name="Trazado 36629" d="M1.454,5.83C29.482,23.808,65.748,33.287,98.82,30.74c3.855-.3,3.535-6.3-.335-6.007C66.375,27.207,31.4,17.922,4.2.475.933-1.618-1.778,3.758,1.454,5.83Z" transform="translate(388.454 108.76)" fill="#546a80"/>
            <path id="Trazado_36630" data-name="Trazado 36630" d="M6.122.33S23.387,35.513,0,59.315c0,0,1.8,3.6,11.272,2.317s23.41-35.887,7.992-57.1C14.7-1.749,6.122.33,6.122.33Z" transform="translate(393.205 228.886)" fill="#b71562"/>
            <path id="Trazado_36631" data-name="Trazado 36631" d="M19.265,3.869A10.505,10.505,0,0,0,13.824,0c.168.2.343.385.5.6,15.418,21.215,1.481,55.824-7.992,57.1a24.487,24.487,0,0,1-5.613.188c-.238.253-.474.508-.721.76,0,0,1.8,3.6,11.273,2.317S34.683,25.084,19.265,3.869Z" transform="translate(393.204 229.547)" fill="#d90066"/>
            <path id="Trazado_36632" data-name="Trazado 36632" d="M26.6,0S11.627.964,5.722,4.2s-8.8-3.623-.884,58.193,13.184,90.949,13.184,90.949l26.258-1.94s.639-41.421,3.5-58.573,2.653-33.475-8.551-57.863S26.6,0,26.6,0Z" transform="translate(236.855 209.258)" fill="#f7f7f0"/>
            <g id="Grupo_34004" data-name="Grupo 34004" transform="translate(223.933 124.402)">
              <path id="Trazado_36633" data-name="Trazado 36633" d="M0,9.868,90.154,0l49.634,11.937-53.167,9.23Z" transform="translate(0 68.583)" fill="#333133"/>
              <path id="Trazado_36634" data-name="Trazado 36634" d="M0,78.451,2.621,5.216,89.752,0,86.621,89.749Z" transform="translate(0 0)" fill="#333133"/>
              <path id="Trazado_36635" data-name="Trazado 36635" d="M3.131,0,7.377.487,3.561,89.426,0,89.749Z" transform="translate(86.621 0)" fill="#212021"/>
              <path id="Trazado_36636" data-name="Trazado 36636" d="M32.628,4.683S10.863-2.975,3.95,1.3.153,12.776,5.989,17.035s18.356,8.942,27.4,8.347S38.67,3.66,32.628,4.683Z" transform="translate(81.363 78.788)" fill="#c7c5c0"/>
              <path id="Trazado_36637" data-name="Trazado 36637" d="M134.272.232s-14.481-3.925-27.281,20.525S96.707,58.823,69.678,60.694,1.226,67.629,1.226,67.629a34.233,34.233,0,0,0,.756,20.7s50.165,14.539,102.191-.489S162.553.3,134.272.232Z" transform="translate(112.766 15.841)" fill="#c7c5c0"/>
              <path id="Trazado_36638" data-name="Trazado 36638" d="M16.723,1.249C2.594,5.005.25,16.624,0,22.532c4.751-.921,9.556-2.059,14.378-3.451A61.673,61.673,0,0,0,39.234,5.106C35.979,1.9,29.173-2.061,16.723,1.249Z" transform="translate(202.561 84.601)" fill="#9e9e9f"/>
              <path id="Trazado_36639" data-name="Trazado 36639" d="M18.567,0C8.328,1.149,1.226,2.018,1.226,2.018a34.232,34.232,0,0,0,.756,20.7,164.311,164.311,0,0,0,19.844,3.991A102,102,0,0,1,18.567,0Z" transform="translate(112.766 81.453)" fill="#174e9a"/>
              <path id="Trazado_36640" data-name="Trazado 36640" d="M8.733,0C5.966.287,3.262.576.663.857A70.385,70.385,0,0,0,2.595,29.424c2.66.3,5.473.573,8.424.793A63.357,63.357,0,0,1,8.733,0Z" transform="translate(139.124 79.662)" fill="#b71562"/>
              <path id="Trazado_36641" data-name="Trazado 36641" d="M3.121,0C1.967,2.584.952,5.009,0,7.283c8.224,2.15,27.966,8.808,39.607,25.137a70.424,70.424,0,0,0,4.249-7.369C31.188,9.29,12.421,2.515,3.121,0Z" transform="translate(212.56 45.054)" fill="#174e9a"/>
              <path id="Trazado_36642" data-name="Trazado 36642" d="M40.749,31.407a69.431,69.431,0,0,0,2.637-9.174C31.11,8.491,14.163,2.487,4.028,0,2.965,1.641,1.9,3.438.853,5.444.559,6.008.279,6.559,0,7.111,9.451,9.2,29.031,15.314,40.749,31.407Z" transform="translate(218.904 31.155)" fill="#174e9a"/>
              <path id="Trazado_36643" data-name="Trazado 36643" d="M21.632,26.708A102,102,0,0,1,18.373,0C13.949.5,10.114.941,7.181,1.285c2.034,4.063,5.588,12.415,2.1,15.334-3,2.51-6.883.117-9.286-1.924a35.7,35.7,0,0,0,1.788,8.023A164.311,164.311,0,0,0,21.632,26.708Z" transform="translate(112.96 81.453)" fill="#114682"/>
              <ellipse id="Elipse_646" data-name="Elipse 646" cx="11.403" cy="8.442" rx="11.403" ry="8.442" transform="matrix(0.015, -1, 1, 0.015, 32.472, 52.462)" fill="#b0aea6"/>
              <path id="Trazado_36644" data-name="Trazado 36644" d="M2.924,0A6.516,6.516,0,0,0,0,.671C3.84,1.781,6.677,6.424,6.6,11.944,6.525,16.855,4.161,21,.914,22.554a6.417,6.417,0,0,0,1.679.252c4.662.067,8.515-4.983,8.607-11.28S7.587.069,2.924,0Z" transform="translate(38.321 29.78)" fill="#9c9b95"/>
            </g>
            <g id="Grupo_34005" data-name="Grupo 34005" transform="translate(380.003 153.035)">
              <path id="Trazado_36645" data-name="Trazado 36645" d="M7.659,0l39.03,13.005-9.552,23.8L0,24.762Z" transform="translate(0 2.238)" fill="#f29e31"/>
              <path id="Trazado_36646" data-name="Trazado 36646" d="M13.841,0,5.419,23.2,0,26.264l9.552-23.8Z" transform="translate(37.137 12.781)" fill="#915614"/>
              <path id="Trazado_36647" data-name="Trazado 36647" d="M0,0,10.6,18.779l28.43-5.774L12.313,2.454Z" transform="translate(7.659 2.238)" fill="#e0861e"/>
              <ellipse id="Elipse_647" data-name="Elipse 647" cx="2.249" cy="2.249" rx="2.249" ry="2.249" transform="translate(19.25 13.023)" fill="#f29e31"/>
              <path id="Trazado_36648" data-name="Trazado 36648" d="M4.7,0,0,2.238l39.03,13,4.289-2.461Z" transform="translate(7.659 0)" fill="#bf751a"/>
            </g>
            <path id="Trazado_36649" data-name="Trazado 36649" d="M0,1.379C5.551,44.3,10.232,69.839,10.232,69.839l26.348-4.67s1.2-40.5,4.434-63.269C26.369.138,6.363-1.063,0,1.379Z" transform="translate(244.644 292.756)" fill="#f29e31"/>
            <path id="Trazado_36650" data-name="Trazado 36650" d="M0,4.621q.728,5.806,1.413,11.351C9.5,12.887,30.508,10.7,43.836,13.7a44.223,44.223,0,0,0-.857-12.6C28.846-1.712,9.248,1.382,0,4.621Z" transform="translate(242.341 272.389)" fill="#d90066"/>
            <path id="Trazado_36651" data-name="Trazado 36651" d="M31.554,33.985s.488-16.522,1.6-33.913C22.653-.234,6.263.4,0,2.525,3.051,22.076,4.959,35.938,4.959,35.938Z" transform="translate(249.58 326.67)" fill="#e68218"/>
            <path id="Trazado_36652" data-name="Trazado 36652" d="M0,45.816s19.105-26.253,27.987-29.6S39.758,1.662,29.645.041,0,45.816,0,45.816Z" transform="translate(184.582 200.89)" fill="#adadac"/>
            <path id="Trazado_36653" data-name="Trazado 36653" d="M0,0" transform="translate(240.055 215.299)" fill="#e6e5df"/>
            <path id="Trazado_36654" data-name="Trazado 36654" d="M25.251,0,2.833,9.925s-6.056,3.73-.459,9.147c4.932,4.773,24.795,7.158,39.609,5.156C40.254,12.708,32.566,4.92,25.251,0Z" transform="translate(0 302.047)" fill="#909090"/>
            <path id="Trazado_36655" data-name="Trazado 36655" d="M12.082,0,0,5.349A40.056,40.056,0,0,1,5.143,9.738a36.377,36.377,0,0,1,10.486,23.07c4.2-.78,8.064-1.228,11.678-1.584A49.34,49.34,0,0,0,12.082,0Z" transform="translate(37.659 291.205)" fill="#174e9a"/>
            <path id="Trazado_36656" data-name="Trazado 36656" d="M135.148,17.863s-1.451-11.951-7.721-14.4C115-1.392,119.127-7.129,70.6,31.972S0,90.807,0,90.807l15.4,21.359S51.024,91.033,67.139,84.495s29.913-15.258,44.83-37.569S135.148,17.863,135.148,17.863Z" transform="translate(82.894 186.269)" fill="#adadac"/>
            <path id="Trazado_36657" data-name="Trazado 36657" d="M52.979,0C19.314,27.192,0,44.549,0,44.549L17.768,64.555S52.908,44.386,74,35.22C67.838,21.82,58.391,4.144,52.979,0Z" transform="translate(82.894 232.527)" fill="#f29e31"/>
            <path id="Trazado_36658" data-name="Trazado 36658" d="M8.933,0Q4.366,3.66,0,7.146c6.862,5.274,19.723,22.03,24.135,34.96a44.2,44.2,0,0,0,10.292-7.327C29.426,21.267,16.533,6.185,8.933,0Z" transform="translate(140.328 221.601)" fill="#d90066"/>
            <path id="Trazado_36659" data-name="Trazado 36659" d="M15.584,43.352s14.332-8.231,29.732-16.388C40.083,17.858,30.965,4.224,25.877,0,10.814,12.832,0,21.712,0,21.712Z" transform="translate(82.707 255.083)" fill="#e68218"/>
            <path id="Trazado_36660" data-name="Trazado 36660" d="M238.653,8.823S231.1,5.757,224.9,3.2A41.662,41.662,0,0,0,202.312.527C182.766-.74,151.4,38.691,117.521,61.59S75.779,90.236,65.345,104.646,0,115.792,0,115.792a6.646,6.646,0,0,0,.55.472c.063.05.136.1.2.147.141.1.285.207.441.309.089.057.185.114.278.17.148.091.3.18.46.268.106.058.216.116.326.173.164.084.33.169.5.25.118.057.238.113.361.169.18.081.366.16.557.24.127.053.253.106.385.159.2.08.416.158.628.237.129.047.254.095.386.141.252.088.514.174.779.258.1.033.2.068.307.1.367.114.744.223,1.131.332.138.039.282.074.423.112.26.068.52.138.788.2.181.045.367.088.551.132.236.055.473.111.714.164q.308.068.622.133c.228.048.457.1.69.141s.451.088.679.131.449.082.676.122c.242.043.484.085.73.125.217.036.437.071.657.105.261.04.52.082.786.12.2.029.4.057.607.085.289.039.577.08.87.117l.218.026q1.181.147,2.4.265l.256.025c.359.034.722.065,1.085.095l.444.036q.537.043,1.077.076l.463.032q.546.033,1.1.061c.147.007.3.015.443.021q.564.027,1.13.047l.4.013q.593.019,1.189.032l.259,0c2.4.042,4.8,0,7.155-.138l.213-.012q.623-.038,1.238-.085l.294-.022q.6-.047,1.2-.1l.3-.029q.6-.057,1.2-.125l.224-.027a56.8,56.8,0,0,0,6.915-1.206c1.95-.48,3.823-.874,5.636-1.212.988-.183,1.955-.346,2.907-.5l.576-.088q1.139-.172,2.246-.321c.232-.031.464-.062.694-.092q1.065-.136,2.1-.253c.206-.023.414-.049.619-.071.848-.094,1.686-.181,2.508-.262,6.722-.661,12.6-1,18.282-2.587,8.248-2.3,8.634-10.456,15.215-21.493,1.51-.865,15.072-8.616,29.588-16.3l-.014-.024c8.033-4.263,16.665-8.678,24.168-12.151A98.83,98.83,0,0,0,162.09,58.38h0a44.205,44.205,0,0,0,10.292-7.328l0,0a100.652,100.652,0,0,0,16.333-17.817l0,.023c.085-.126.174-.253.26-.38.5-.687,1-1.382,1.508-2.1,6.347-8.416,16.036-16.82,16.036-16.82,12.362,8.808,28.627,16.12,28.627,16.12s-.176-2.1-.665-11.6S238.653,8.823,238.653,8.823Z" transform="translate(2.374 205.328)" fill="#a0a09f" opacity="0.264"/>
          </g>
        </g>
      </g>
    </g>
  </g>
</svg>
