<svg xmlns="http://www.w3.org/2000/svg" xmlns:xlink="http://www.w3.org/1999/xlink" width="536.697" height="292.665" viewBox="0 0 536.697 292.665">
  <defs>
    <filter id="Cordon" x="214.451" y="133.235" width="322.246" height="159.43" filterUnits="userSpaceOnUse">
      <feOffset dy="3" input="SourceAlpha"/>
      <feGaussianBlur stdDeviation="3" result="blur"/>
      <feFlood flood-opacity="0.161"/>
      <feComposite operator="in" in2="blur"/>
      <feComposite in="SourceGraphic"/>
    </filter>
    <linearGradient id="linear-gradient" x1="0.718" y1="0.078" x2="0.037" y2="1" gradientUnits="objectBoundingBox">
      <stop offset="0" stop-color="#fff" stop-opacity="0"/>
      <stop offset="1" stop-color="#fff"/>
    </linearGradient>
    <linearGradient id="linear-gradient-2" x1="0.481" y1="0.416" x2="-0.302" y2="0.882" xlink:href="#linear-gradient"/>
    <filter id="Uni贸n_7" x="0" y="0" width="285.521" height="269.062" filterUnits="userSpaceOnUse">
      <feOffset dy="3" input="SourceAlpha"/>
      <feGaussianBlur stdDeviation="3" result="blur-2"/>
      <feFlood flood-opacity="0.584"/>
      <feComposite operator="in" in2="blur-2"/>
      <feComposite in="SourceGraphic"/>
    </filter>
  </defs>
  <g id="Astronauta_con_cordon" data-name="Astronauta con cordon" transform="translate(15573.653 -9461.92)">
    <!-- <g transform="matrix(1, 0, 0, 1, -15573.65, 9461.92)" filter="url(#Cordon)">
      <path id="Cordon-2" data-name="Cordon" d="M-15347.381,9347.729s11.472,82.254,42.7,26c15.724-37.544,18.935-50.129,45-21.141,19.145,19.326,146.763,136.508,210.642,118.586" transform="translate(15573.65 -9194.92)" fill="none" stroke="#f7f7f0" stroke-linecap="round" stroke-width="5"/>
    </g> -->
    <g id="Astronauta_solita">
      <g id="Grupo_34507" data-name="Grupo 34507" transform="translate(-16064 9025.11)">
        <path id="Trazado_36708" data-name="Trazado 36708" d="M-218.363-899.766-143.8-959.48l22.657,23.8-49.588,29.4Z" transform="translate(830.962 1420.369)" opacity="0.246" fill="url(#linear-gradient)"/>
        <path id="Trazado_36709" data-name="Trazado 36709" d="M-171.724-866.113l92.54-38.691-27.908-42.43-63.361,37.864-4.73,4.565Z" transform="translate(831.184 1423.369)" opacity="0.605" fill="url(#linear-gradient-2)"/>
      </g>
      <g transform="matrix(1, 0, 0, 1, -15573.65, 9461.92)" filter="url(#Uni贸n_7)">
        <path id="Uni贸n_7-2" data-name="Uni贸n 7" d="M14238.923-4288.228v-.014l-.623-18.3-.174-4.987h0l-.757-22.2c-.191-.9-.66-3.1-1.346-6.231-1.435-6.094-3.714-16.159-6.368-29.361q-.309-1.5-.631-3.065c-.019.007-.036.018-.058.025q-.568-2.921-1.172-5.982a.087.087,0,0,1,.021-.011q-.281-1.385-.566-2.82c-1.731-8.647-2.87-14.753-3.562-19.087-.516-.177-1.024-.346-1.522-.516-1.2-.519-2.34-1.028-3.429-1.521a90.284,90.284,0,0,1-10.876-5.5,78.453,78.453,0,0,0-5.475,6.184c-.714.938-1.41,1.886-2.062,2.8-.094.141-.191.281-.281.422a55.5,55.5,0,0,1-8.965,11.6,23.633,23.633,0,0,1-5.189,4.27,53.085,53.085,0,0,1-6.336,3.754c-3.854,2.124-8.272,4.786-12.376,7.346l.007.011c-3.963,2.47-7.781,4.937-10.6,6.78-.094.065-.191.126-.281.188h0c-1.309.858-2.383,1.568-3.134,2.07-.576.378-.959.635-1.11.736-2.441,4.835-2.892,8.568-5.1,10.677a.43.43,0,0,0-.04.036c-.04.04-.079.076-.119.108l-.011.011a.166.166,0,0,0-.028.025l-.011.011c-.012.007-.019.014-.029.021a.041.041,0,0,1-.015.011.1.1,0,0,1-.028.025l-.008.007-.039.032c-.008,0-.011.011-.019.015s-.015.011-.021.018a.069.069,0,0,0-.018.014c-.008.007-.015.011-.022.018a.081.081,0,0,1-.021.015.034.034,0,0,1-.018.014c-.008.007-.015.011-.021.018s-.008,0-.011.007c-.019.014-.04.032-.059.043l-.007.007a.179.179,0,0,1-.028.022.021.021,0,0,0-.012.007.115.115,0,0,1-.028.018.041.041,0,0,1-.015.011c-.007.007-.018.015-.025.022s-.007,0-.011,0c-.032.025-.064.047-.1.069-.008,0-.008.007-.012.011a.134.134,0,0,0-.032.018s-.007,0-.011.007l-.032.022s0,0-.007,0a1.438,1.438,0,0,1-.152.094s0,0-.007,0l-.032.022s-.008,0-.011.007l-.032.018a.014.014,0,0,1-.012,0,1.024,1.024,0,0,1-.115.068h0l-.036.021s-.008,0-.011,0l-.036.021s0,0-.008,0a.318.318,0,0,0-.039.018l-.083.043,0,0a.262.262,0,0,0-.032.014l-.019.007a.189.189,0,0,1-.028.014.077.077,0,0,0-.019.011c-.011,0-.021.011-.032.014s-.011,0-.018.007a.121.121,0,0,1-.033.014s0,0,0,0a.345.345,0,0,0-.076.036c-.007,0-.011,0-.015,0s-.021.011-.032.015l-.021.011-.029.011a.15.15,0,0,1-.024.011l-.025.011-.025.011-.029.011-.05.022a.044.044,0,0,0-.021.007.11.11,0,0,0-.033.014.067.067,0,0,0-.025.007l-.032.011-.021.011-.036.011a.086.086,0,0,0-.018.011.286.286,0,0,0-.058.018.465.465,0,0,0-.065.025.1.1,0,0,0-.032.011.221.221,0,0,1-.029.011l-.039.011-.029.011a.158.158,0,0,0-.036.014.057.057,0,0,0-.025.007c-.014,0-.028.011-.043.015l-.018.007-.047.015a.015.015,0,0,1-.011,0,61.65,61.65,0,0,1-9.25,1.926c-.437.076-.876.151-1.327.234-.108.018-.217.04-.324.058-.364.069-.736.141-1.107.213l-.368.076c-.389.08-.782.166-1.183.252-.1.025-.2.047-.3.068-.422.1-.852.2-1.284.31l-.249.065c-.948.246-1.933.523-2.949.851l-.112.036-.072.022-.032.011a46.954,46.954,0,0,1-20.007.984h0a.021.021,0,0,0-.015,0c-.584-.119-1.129-.256-1.627-.407,0,0-.007,0-.011,0l-.036-.011a.173.173,0,0,1-.039-.014h-.008a6.8,6.8,0,0,1-2.235-1.082s0,0,0,0,0,0-.007,0,0,0,0,0a.1.1,0,0,0-.021-.018,3.44,3.44,0,0,1-1.432-2.344,3.25,3.25,0,0,1,1.334-2.539l20.544-10.869,3.632-1.922,17.24-9.12c.6-.562,2.262-2.146,4.67-4.468,4.436-4.407,11.836-11.63,21.717-20.822q1.113-1.049,2.282-2.138a.431.431,0,0,0-.054-.036q2.19-2.018,4.485-4.133l.019.011c.692-.642,1.392-1.295,2.105-1.955,16.473-15.287,20.9-18.77,24.136-18.766a56.827,56.827,0,0,1,12.431-1.572l-1.006-29.513,46.146-6.015,2.275.1.779,28.849c3.43-.429,6.809-.826,9.83-1.132,10.343-1.046,11.973-5.24,14.817-12.693.444-1.165.916-2.405,1.457-3.725.56-1.36,1.187-2.8,1.926-4.335.051-.1.1-.2.147-.3.012-.021.025-.047.036-.072a.01.01,0,0,1,0-.007c.454-.916.92-1.753,1.385-2.521a19.6,19.6,0,0,1,5.507-6.188c.916-3.217,2.4-4.59,3.624-5.167q-.817-.422-1.615-.858a1.734,1.734,0,0,1,.141-3.083,37.373,37.373,0,0,1-7.486-20.007,37.548,37.548,0,0,1,34.835-40.075,37.552,37.552,0,0,1,40.078,34.839,37.557,37.557,0,0,1-18.781,35.2c1.184-.116,2.358-.256,3.523-.429,2.045-.3,2.438,2.881.4,3.184-.332.047-.66.094-.991.137a12.57,12.57,0,0,1,.516,2.711,6.913,6.913,0,0,1-.375,3.112c3.952,7.544,2.412,22.3-6.395,32.9a57.644,57.644,0,0,1-5.271,13.083l-.044.007c-8.431,17.334-19.775,25.427-21.424,26.538-.071.061-.151.126-.227.188-1.237,2.643-2.77,4.424-4.209,4.724-4.99,1.032-6.079-.815-6.079-.815-.772.116-1.576.2-2.42.256h-.011c-.062,0-.126.011-.191.014h-.007l-.2.011h0c-.032,0-.065,0-.1.007s-.065,0-.1,0h-.008a.851.851,0,0,1-.094,0l-.014,0a.745.745,0,0,0-.094,0c-.036,0-.065,0-.1,0h-.007c-.065,0-.126.007-.194.007h-.019a.824.824,0,0,1-.09,0h0a.808.808,0,0,1-.1,0h-.014c-.065,0-.127.007-.191.007h-.021c-.065,0-.127,0-.187,0a.049.049,0,0,1-.021,0h-.1c-.032,0-.062,0-.094,0h-.015c-.064,0-.133,0-.2,0h-.328a.034.034,0,0,1-.011,0h-.533c-.036,0-.069,0-.1,0h-.237c-.069,0-.134,0-.2,0h-.015a.866.866,0,0,1-.1,0h-.123c-.032,0-.064,0-.1,0h-.021a.633.633,0,0,1-.086,0h-.134a.824.824,0,0,0-.09,0h-.015c-.036,0-.068,0-.1,0h0c-.072,0-.145,0-.22-.007h-.011c-.036,0-.072,0-.1,0h0c-.032,0-.068,0-.1,0h-.022l-.2-.011h-.029c-.032,0-.064,0-.1,0h-.007c-.032,0-.065,0-.1-.007h-.021l-.209-.011h-.019l-.212-.011h-.019c-.036,0-.072,0-.108-.007h0c-.033,0-.065,0-.1,0a.068.068,0,0,1-.025,0c-.036,0-.068,0-.1,0h0a1.009,1.009,0,0,0-.107-.007h-.012c-.032,0-.071,0-.1-.007h-.018c-.032,0-.065,0-.1-.007h-.011c-.036,0-.072-.007-.108-.007h-.014l-.108-.011c-.04,0-.076,0-.115-.007h-.008c-.036,0-.075,0-.111-.007h0c-.036,0-.072,0-.1-.007a.047.047,0,0,1-.021,0c-.076,0-.148-.011-.22-.015h-.015c-.076-.007-.151-.014-.23-.018s-.155-.014-.235-.018l0,0c-12.308-1.01-28.168-5.355-40.616-9.318-.039-.011-.079-.025-.118-.036a.015.015,0,0,0-.011,0l-.083-.029c-3.6-1.147-6.91-2.261-9.759-3.249a49.717,49.717,0,0,1,2.824,8.7,23.641,23.641,0,0,1,.923,6.664,52.358,52.358,0,0,1-.123,7.411c-.2,4.385-.245,9.524-.212,14.345h.014c.044,7,.256,13.732.361,16.617v.021c.014.422.024.761.035,1.006a12.546,12.546,0,0,1,3.732,8.666,106.641,106.641,0,0,0,.905,17.107s0,0,0,0c.122.923.264,1.908.429,2.975l.033.231c0,.029.007.061.011.094a.085.085,0,0,1,0,.025c0,.025.008.051.011.076s0,.036.008.051,0,.036.007.054.008.058.011.086v.018c1.114,9.268-4.136,18.625-10.259,22.635a.07.07,0,0,1-.019.015c-.015.007-.025.018-.039.025s-.033.021-.051.032l-.032.021-.033.022a.071.071,0,0,0-.028.018.309.309,0,0,0-.058.036.067.067,0,0,0-.021.015l-.051.029-.018.011c-.022.015-.044.025-.062.04a.077.077,0,0,0-.019.011c-.021.014-.047.025-.068.04a6.276,6.276,0,0,1-2.733,1q-.127.009-.249.009C14239.376-4282.413,14238.944-4287.921,14238.923-4288.228Z" transform="translate(-14091.38 4539.47)" fill="#fff" opacity="0.411"/>
      </g>
      <g id="Grupo_34492" data-name="Grupo 34492" transform="translate(-16093.63 9084.07) rotate(-4)">
        <g id="Grupo_34006" data-name="Grupo 34006" transform="translate(488 435.767)">
          <path id="Trazado_36551" data-name="Trazado 36551" d="M-80.638-631.44s-3.522-7.051-7.249-7.051-4.281,6.84-4.281,6.84l-1.759,49.186s-.084,8.741,6.644,5.3,13.086-12.98,12.291-22.782-.4-12.98.067-20.132S-80.638-631.44-80.638-631.44Z" transform="translate(227.938 820.812)" fill="#f7f7f0"/>
          <path id="Trazado_36552" data-name="Trazado 36552" d="M-87.282-538.58c4.335-2.219,8.514-6.969,10.727-12.688-7.068-3.49-12.792-4.08-16.976-3.639l-.395,11.029S-94.01-535.136-87.282-538.58Z" transform="translate(227.938 782.225)" fill="#909090"/>
          <path id="Trazado_36553" data-name="Trazado 36553" d="M-74.518-568.121a21.248,21.248,0,0,0,.064-4.007c-.088-1.077-.16-2.069-.219-3-5.766-3.265-12.27-3.654-17.883-2.807l-.209,5.833a30.372,30.372,0,0,1,3.79-.5C-83.136-572.983-78.3-571.476-74.518-568.121Z" transform="translate(227.401 792.992)" fill="#174e9a"/>
          <path id="Trazado_36554" data-name="Trazado 36554" d="M-292.475-709.9l-49.2,21.781s-3.228,1.989-.245,4.876,16.219,4.138,24.139,2.189,13.608-1.376,18.963-2.868,4.49-7.615,10.948-15.5S-282.731-714.216-292.475-709.9Z" transform="translate(343.184 854.444)" fill="#adadac"/>
          <g id="Grupo_33993" data-name="Grupo 33993" transform="translate(142.673 65.543)">
            <path id="Trazado_36555" data-name="Trazado 36555" d="M-8.577-855.527s-7.231-2.261-14.162,9.829-5.925,19.01-19.6,19.432-34.674,2.177-34.674,2.177a17.286,17.286,0,0,0-.019,10.459S-52-805.325-25.457-811.9,5.692-854.948-8.577-855.527Z" transform="translate(77.817 855.695)" fill="#bababa"/>
            <path id="Trazado_36556" data-name="Trazado 36556" d="M14.8-791.3c-7.2,1.623-8.609,7.44-8.85,10.416,2.415-.373,4.862-.854,7.322-1.464a31.138,31.138,0,0,0,12.812-6.571C24.507-790.6,21.149-792.728,14.8-791.3Z" transform="translate(39.085 826.138)" fill="#9e9e9f"/>
            <path id="Trazado_36557" data-name="Trazado 36557" d="M-68.223-798.181c-5.188.382-8.789.683-8.789.683a17.286,17.286,0,0,0-.019,10.459,83.033,83.033,0,0,0,9.937,2.4A51.51,51.51,0,0,1-68.223-798.181Z" transform="translate(77.817 829.103)" fill="#174e9a"/>
            <path id="Trazado_36558" data-name="Trazado 36558" d="M-48.385-799.268c-1.4.092-2.772.185-4.089.277a35.543,35.543,0,0,0,.423,14.451c1.337.2,2.751.394,4.236.563A31.993,31.993,0,0,1-48.385-799.268Z" transform="translate(66.352 829.605)" fill="#b71562"/>
            <path id="Trazado_36561" data-name="Trazado 36561" d="M-67.06-784.641a51.51,51.51,0,0,1-1.129-13.54c-2.242.165-4.186.315-5.672.432.948,2.089,2.58,6.373.766,7.778-1.56,1.209-3.475-.074-4.648-1.15A18.024,18.024,0,0,0-77-787.038,83.033,83.033,0,0,0-67.06-784.641Z" transform="translate(77.783 829.103)" fill="#114682"/>
            <path id="Trazado_36562" data-name="Trazado 36562" d="M-77.491-819.956s19.384-.368,37.762-1.922c16.528-1.4,17.752-16.491,18.848-26.208,0,0,8.448-13.368,16.127-3.065,6.908,9.269,3.089,39-27.874,41.009s-44.253-3.191-44.253-3.191Z" transform="translate(77.666 855.397)" fill="#c7c5c0"/>
            <path id="Trazado_36663" data-name="Trazado 36663" d="M19.023-829.312c-.632,1.281-1.191,2.486-1.715,3.615,4.108,1.244,13.941,4.985,19.5,13.449a35.644,35.644,0,0,0,2.286-3.636C33.006-824.082,23.667-827.863,19.023-829.312Z" transform="translate(33.835 843.496)" fill="#174e9a"/>
            <path id="Trazado_36664" data-name="Trazado 36664" d="M43.859-825.539a35.107,35.107,0,0,0,1.508-4.578C39.438-837.288,31-840.645,25.937-842.1c-.568.808-1.139,1.694-1.707,2.686-.16.279-.311.552-.463.825C28.5-837.348,38.258-833.886,43.859-825.539Z" transform="translate(30.849 849.407)" fill="#174e9a"/>
          </g>
          <g id="Grupo_33994" data-name="Grupo 33994" transform="translate(182.007 76.825)">
            <path id="Trazado_36563" data-name="Trazado 36563" d="M64.584-834.542s-7.231-2.261-14.162,9.829-5.925,19.01-19.6,19.432S-3.851-803.1-3.851-803.1a17.281,17.281,0,0,0-.019,10.459s25.032,8.305,51.574,1.727S78.853-833.963,64.584-834.542Z" transform="translate(4.657 834.71)" fill="#c7c5c0"/>
            <path id="Trazado_36564" data-name="Trazado 36564" d="M87.965-770.314c-7.2,1.622-8.609,7.44-8.85,10.416,2.415-.373,4.862-.854,7.322-1.464a31.131,31.131,0,0,0,12.812-6.572C97.668-769.614,94.31-771.744,87.965-770.314Z" transform="translate(-34.076 805.153)" fill="#9e9e9f"/>
            <path id="Trazado_36565" data-name="Trazado 36565" d="M4.937-777.2c-5.188.382-8.789.683-8.789.683a17.281,17.281,0,0,0-.019,10.459,83.006,83.006,0,0,0,9.937,2.4A51.484,51.484,0,0,1,4.937-777.2Z" transform="translate(4.657 808.118)" fill="#174e9a"/>
            <path id="Trazado_36566" data-name="Trazado 36566" d="M24.775-778.284c-1.4.092-2.772.185-4.088.277a35.531,35.531,0,0,0,.422,14.451c1.337.2,2.751.395,4.236.563A31.994,31.994,0,0,1,24.775-778.284Z" transform="translate(-6.808 808.621)" fill="#b71562"/>
            <path id="Trazado_36567" data-name="Trazado 36567" d="M92.184-808.327c-.632,1.281-1.191,2.486-1.716,3.615,4.108,1.244,13.941,4.984,19.5,13.449a35.533,35.533,0,0,0,2.286-3.636C106.166-803.1,96.828-806.878,92.184-808.327Z" transform="translate(-39.325 822.511)" fill="#174e9a"/>
            <path id="Trazado_36568" data-name="Trazado 36568" d="M117.02-804.554a35.078,35.078,0,0,0,1.509-4.578C112.6-816.3,104.164-819.66,99.1-821.111c-.568.807-1.139,1.694-1.707,2.685-.16.279-.311.552-.463.825C101.657-816.363,111.419-812.9,117.02-804.554Z" transform="translate(-42.312 828.422)" fill="#174e9a"/>
            <path id="Trazado_36569" data-name="Trazado 36569" d="M6.1-763.657A51.484,51.484,0,0,1,4.971-777.2c-2.242.165-4.186.315-5.672.432.948,2.089,2.58,6.373.766,7.778-1.561,1.209-3.475-.074-4.648-1.15a18.029,18.029,0,0,0,.747,4.083A83.006,83.006,0,0,0,6.1-763.657Z" transform="translate(4.623 808.118)" fill="#114682"/>
          </g>
          <g id="Grupo_33995" data-name="Grupo 33995" transform="translate(100.63 98.563)">
            <path id="Trazado_36570" data-name="Trazado 36570" d="M-149.305-780.8l-4.525,2.49s1.871,5.478,23.346,16.616l14.406,5.732s25.2,8.89,40.084,7.791-5.9-18.23-5.9-18.23l-35.926-10.122Z" transform="translate(155.005 788.048)" fill="#adadac"/>
            <path id="Trazado_36571" data-name="Trazado 36571" d="M-82.139-755.626h0c11.012,3.718,17.405-.64,20.821-4.917a9.545,9.545,0,0,0,2.016-2.675,17.231,17.231,0,0,0,1.282-3.2c.043-.125.064-.192.064-.192l-.012,0c2.423-8.979-5.232-14.97-13.088-17.165-8.809-2.462-76.322-16.971-83.865-7.1C-165.024-777.656-102.43-760.274-82.139-755.626Z" transform="translate(156.016 794.277)" fill="#adadac"/>
            <path id="Trazado_36572" data-name="Trazado 36572" d="M-87.061-791.238c-2.16-.293-4.31-.565-6.428-.806a37.37,37.37,0,0,1,1.248,4.79c1.674,8.73.311,17.248-1.686,23.965q2.686,1.055,5.545,2.126C-84.388-774.175-85.269-784.394-87.061-791.238Z" transform="translate(127.308 793.244)" fill="#14457f"/>
            <path id="Trazado_36573" data-name="Trazado 36573" d="M-104.9-793.183c-2.182-.218-4.316-.4-6.375-.538a37.114,37.114,0,0,1,1.344,5.073,49.43,49.43,0,0,1-.876,20.977c1.722.725,3.576,1.491,5.539,2.283C-102.127-777.4-103.15-786.833-104.9-793.183Z" transform="translate(135.331 794.02)" fill="#14457f"/>
          </g>
          <path id="Trazado_36574" data-name="Trazado 36574" d="M13.63-802.311S24.3-781.5,41.986-773.732c0,0,19.386-10.476,29.727-38.608s7.354-38.985,7.354-38.985S62.676-852.219,50.8-855.8s-16.246-6.194-16.246-6.194S23-848.862,21.082-837.28s-7.452,34.969-7.452,34.969" transform="translate(178.209 924.148)" fill="#f7f7f0"/>
          <path id="Trazado_36575" data-name="Trazado 36575" d="M43.781-730.4s-4.381,11.2-23.715,4.834-8.376-34.871,6.316-33.705S53.914-744.837,43.781-730.4Z" transform="translate(180.03 876.672)" fill="#e2e2e2"/>
          <path id="Trazado_36576" data-name="Trazado 36576" d="M-32.076-731.568h0c11.012,3.719,17.405-.64,20.821-4.916a9.544,9.544,0,0,0,2.016-2.675,17.23,17.23,0,0,0,1.282-3.2c.043-.125.064-.193.064-.193l-.012,0c2.423-8.979-5.232-14.97-13.088-17.165-8.809-2.463-76.322-16.971-83.865-7.1C-114.961-753.6-52.367-736.216-32.076-731.568Z" transform="translate(233.499 881.717)" fill="#f7f7f0"/>
          <path id="Trazado_36577" data-name="Trazado 36577" d="M-83.067-737.1s48.394,22.847,69.78,21.193c0,0,6.112-1.2,7.593-12.435s-72.366-15.58-72.366-15.58Z" transform="translate(222.917 869.561)" fill="#f7f7f0"/>
          <path id="Trazado_36578" data-name="Trazado 36578" d="M-37-767.18c-2.16-.293-4.31-.565-6.428-.807a37.386,37.386,0,0,1,1.248,4.79c1.674,8.73.311,17.247-1.686,23.964q2.686,1.056,5.545,2.127C-34.325-750.117-35.206-760.336-37-767.18Z" transform="translate(204.791 880.685)" fill="#174e9a"/>
          <path id="Trazado_36579" data-name="Trazado 36579" d="M-11.505-743.191s-11.674,12.937-27.307,7.481-49.5-6.691-49.5-6.691l6.731,9.637s1.268.571,3.46,1.508c-.248-.851-.511-1.7-.8-2.543,13.961,6.125,46.665,19.508,63.211,18.228a7.572,7.572,0,0,0,3.777-2.586,15.423,15.423,0,0,0,3.212-1.191C-.73-728.311-11.505-743.191-11.505-743.191Z" transform="translate(225.343 869.221)" fill="#a0a09f" opacity="0.52"/>
          <path id="Trazado_36580" data-name="Trazado 36580" d="M-54.839-769.125c-2.182-.218-4.316-.4-6.375-.538a37.114,37.114,0,0,1,1.344,5.073,49.429,49.429,0,0,1-.876,20.977c1.722.725,3.576,1.491,5.539,2.283C-52.064-753.341-53.087-762.775-54.839-769.125Z" transform="translate(212.813 881.46)" fill="#174e9a"/>
          <g id="Grupo_34003" data-name="Grupo 34003" transform="translate(202.155 0)">
            <path id="Trazado_36581" data-name="Trazado 36581" d="M83.114-856.816s-12.355-2.879-19.873-1.329c0,0,11.67,8.981,36.076,7.639C99.317-850.506,91.667-856.449,83.114-856.816Z" transform="translate(-46.884 922.582)" fill="#f2b590"/>
            <path id="Trazado_36582" data-name="Trazado 36582" d="M88.708-886.3s6.209-1.536,10.255-12.151L79.1-919S51.681-903.5,59.555-890.479c0,0,2.238-4.1,10.655-2.161s18.973,5.761,18.5,6.34" transform="translate(-44.523 950.509)" fill="#0a0e16"/>
            <path id="Trazado_36583" data-name="Trazado 36583" d="M101.838-871.177l-2.713,9.532-6.773-.85.235-10.452Z" transform="translate(-60.344 929.214)" fill="#f2b590"/>
            <path id="Trazado_36584" data-name="Trazado 36584" d="M100.286-865.67l-7.9,2.378.217-9.654,9.75.6Z" transform="translate(-60.359 929.214)" fill="#dca484"/>
            <path id="Trazado_36585" data-name="Trazado 36585" d="M116.011-878.446s3.035,6.7.747,8.688-2.826,3.276-1.821,4.616c0,0-1.717-1.545-.446-4.574s1.724-4.823-.049-6.918S115.419-879.538,116.011-878.446Z" transform="translate(-70.286 931.981)" fill="#0d193e"/>
            <path id="Trazado_36586" data-name="Trazado 36586" d="M64.066-881.268s-2.1,2.079-1.773,3.461,2.525,4.247,1.152,5.686a2.975,2.975,0,0,0,1.761-2.841c-.051-2.132.063-2.96,1.056-4.019S65.487-882.2,64.066-881.268Z" transform="translate(-46.43 933.167)" fill="#1f2f52"/>
            <path id="Trazado_36587" data-name="Trazado 36587" d="M118.673-950.392s11.982,5.119,11.7,14.008,6.227,5.608,4.722,11.118-8.53,12.3-8.53,12.3l-8.732-5.835Z" transform="translate(-72.125 965.022)" fill="#0a0e16"/>
            <path id="Trazado_36588" data-name="Trazado 36588" d="M76.7-959.166s-4.86-6.282-11.121-5.68c-5.776.555-9.763,10.563-15.355,10.4s-12.185,1.882-10.857,9.37-4.182,6.524-4.182,6.524,6.335,2.278,7.47-3.272,3.3-5.786,5.747-5.012,16.3-6.66,16.3-6.66Z" transform="translate(-33.913 971.723)" fill="#091531"/>
            <path id="Trazado_36589" data-name="Trazado 36589" d="M53.563-931.836s-5.821,7.145-4.794,12.276,1.4,4.6-.322,6.518a4.858,4.858,0,0,0,1.363,7.214s-2.313-2.433-.288-4.643,4.958-.925,5.339-7.991,6.062-13.861,6.062-13.861Z" transform="translate(-39.559 956.667)" fill="#091531"/>
            <path id="Trazado_36590" data-name="Trazado 36590" d="M50.219-910.94s3.254,7.818-1.969,13.274,1.422,10.324,1.422,10.324-4.135-4.08-1.076-6.175,5.771-2.891,6.427-6.482-6.339-8.781-3.219-14.837S48.631-918.937,50.219-910.94Z" transform="translate(-39.027 950.223)" fill="#1f2f52"/>
            <path id="Trazado_36591" data-name="Trazado 36591" d="M84.525-954.62s1.214-6.2-4.951-6.8-12.432-.311-16.723,6.627S52.771-946.263,51.9-939.276s7.051,13.5,3.617,19.26a7.745,7.745,0,0,0,1.125,9.833s-2.807-7.846,3.116-8.714,15.6,2.784,16.392-10.67S84.525-954.62,84.525-954.62Z" transform="translate(-41.609 970.213)" fill="#0d193e"/>
            <g id="Grupo_33996" data-name="Grupo 33996" transform="translate(14.752 34.636)">
              <circle id="Elipse_641" data-name="Elipse 641" cx="3.066" cy="3.066" r="3.066" fill="#f2b590"/>
              <circle id="Elipse_642" data-name="Elipse 642" cx="1.799" cy="1.799" r="1.799" transform="translate(1.268 1.268)" fill="#d58350"/>
            </g>
            <path id="Trazado_36592" data-name="Trazado 36592" d="M85.123-950.629c-7.747-.909-15.186,3.087-16.931,10.759a14.417,14.417,0,0,0-.331,2.316,87.811,87.811,0,0,1-1.994,8.953c-1,3-5.784,16.352,3.129,22.947a13.783,13.783,0,0,1,1.8,2.5,4.007,4.007,0,0,0,2.117,1.52,5.921,5.921,0,0,0,3.764.267c1.879-.585,8.736-3.832,12.23-4.785s5.317-5.564,6.272-9.061S110.1-947.7,85.123-950.629Z" transform="translate(-47.092 965.19)" fill="#f2b590"/>
            <g id="Grupo_33998" data-name="Grupo 33998" transform="translate(20.148 33.466)">
              <g id="Grupo_33997" data-name="Grupo 33997">
                <path id="Trazado_36593" data-name="Trazado 36593" d="M77.1-910.466a2.445,2.445,0,0,1-2.748,2.1,2.445,2.445,0,0,1-1.972-2.839,2.444,2.444,0,0,1,2.748-2.1A2.446,2.446,0,0,1,77.1-910.466Z" transform="translate(-71.242 914.421)" fill="#32190f"/>
                <path id="Trazado_36594" data-name="Trazado 36594" d="M76.179-911.893a2.309,2.309,0,0,0-1.822-2.395c-1.9-.3-2.449-.524-2.606-1.068,0,0-.12.988.61,1.188a2.821,2.821,0,0,1-2.069-.517,2.207,2.207,0,0,0,1.987,1.479C73.944-913,75.421-912.905,76.179-911.893Z" transform="translate(-70.292 915.356)" fill="#32190f"/>
              </g>
              <path id="Trazado_36595" data-name="Trazado 36595" d="M74.621-910.277a.669.669,0,0,0-.131.893c.267.408-.346.857-.613.447a1.416,1.416,0,0,1,.157-1.82.392.392,0,0,1,.534-.054.381.381,0,0,1,.054.534Z" transform="translate(-71.83 913.293)" fill="#fff"/>
            </g>
            <g id="Grupo_34000" data-name="Grupo 34000" transform="translate(34.895 37.094)">
              <g id="Grupo_33999" data-name="Grupo 33999">
                <path id="Trazado_36596" data-name="Trazado 36596" d="M97.754-905.946a2.445,2.445,0,0,0,1.971,2.839,2.445,2.445,0,0,0,2.748-2.1,2.445,2.445,0,0,0-1.972-2.838A2.445,2.445,0,0,0,97.754-905.946Z" transform="translate(-97.722 908.36)" fill="#32190f"/>
                <path id="Trazado_36597" data-name="Trazado 36597" d="M98.008-906.672a2.309,2.309,0,0,1,2.469-1.72c1.9.3,2.492.253,2.808-.217,0,0-.188.977-.945.944a2.821,2.821,0,0,0,2.127.143,2.208,2.208,0,0,1-2.345.8C100.475-907.042,99.04-907.4,98.008-906.672Z" transform="translate(-97.854 908.609)" fill="#32190f"/>
              </g>
              <path id="Trazado_36598" data-name="Trazado 36598" d="M100.668-904.909a.668.668,0,0,0-.131.892c.266.408-.346.857-.614.447a1.416,1.416,0,0,1,.157-1.82.393.393,0,0,1,.534-.054.382.382,0,0,1,.054.534Z" transform="translate(-98.621 907.184)" fill="#fff"/>
            </g>
            <path id="Trazado_36599" data-name="Trazado 36599" d="M69.744-940.094s-1.655,6.113-2.711,9.707-1.522,5.166-4.645,4.515-4.584-4.645-4.584-4.645Z" transform="translate(-44.37 960.26)" fill="#0d193e"/>
            <path id="Trazado_36600" data-name="Trazado 36600" d="M89.093-942.915s-3.958-2.683-8.3,2.628-3.041-10.427,2.1-9.707S89.948-945.26,89.093-942.915Z" transform="translate(-53.789 964.848)" fill="#0a0e16"/>
            <path id="Trazado_36601" data-name="Trazado 36601" d="M53.788-936.987s-4.614-2.345-6.845-.27-2.484,12.224-6,12.819-5.768,5.021-2.972,7.926c0,0-1.838-4.194,1.618-4.986s5.771-1.759,6.662-7.272S48.433-936.405,53.788-936.987Z" transform="translate(-34.62 959.344)" fill="#1f2f52"/>
            <path id="Trazado_36602" data-name="Trazado 36602" d="M98.484-936.807" transform="translate(-63.179 958.74)" fill="#1f2f52"/>
            <path id="Trazado_36603" data-name="Trazado 36603" d="M98.484-940.67s11.913-.752,10.315,9.818-3.232,14.488-1.366,17.5c2.109,3.406,3.033,13.383-.07,14.955,0,0,8.328-1.893,6.4-12.629s-.735-15.995.741-19.47-.844-15.254-12.409-14.645C102.1-945.139,99.225-945.717,98.484-940.67Z" transform="translate(-63.179 962.603)" fill="#0d193e"/>
            <path id="Trazado_36604" data-name="Trazado 36604" d="M99.418-949.658s-1.716-1.932,1.063-4.393-2.463-2.5,1.82-3.336c2.532-.493,7.232-2.215,15.014,5.3,4.175,4.03,4.709,9.943,3.138,12.939s-3.207,8.65,2.117,14.359-3.724,8.729-3.724,8.729,4.786-5.248-.148-8.011-5.4-5.018-4-12.312S104.622-950.982,99.418-949.658Z" transform="translate(-63.369 968.497)" fill="#0d193e"/>
            <path id="Trazado_36605" data-name="Trazado 36605" d="M77.813-944.563s-1.954-4.388-5-3.762-1.79,8.35-6.857,10.083a9.782,9.782,0,0,0-6.338,12.57c1.786,5.83-4.534,6.485-4.245,9.253,0,0-2.914-3.317-.88-6.091s2.838-5.478,1.049-6.915-1.116-8.937,6.276-13.821,3.435-10.836,12.787-10.3S77.813-944.563,77.813-944.563Z" transform="translate(-42.508 966.497)" fill="#1f2f52"/>
            <path id="Trazado_36606" data-name="Trazado 36606" d="M99.582-947.03s-1.7-4.629,2.584-5.155,16.793,4.114,16.756,9.977-4.045,13.27,1.15,14.7,9.856,3.524,5.54,9.032c0,0,1.265-3.583-2.779-5.6S112.653-924.8,112.4-928.4,114.4-947.385,99.582-947.03Z" transform="translate(-63.533 965.869)" fill="#1f2f52"/>
            <path id="Trazado_36607" data-name="Trazado 36607" d="M121.884-908.464s5.416,5.348,4.03,8.853-1.791,9.08,5.9,9.121c0,0-6.321,3.3-8.717-1.015S125.542-900.411,121.884-908.464Z" transform="translate(-73.998 945.636)" fill="#1f2f52"/>
            <path id="Trazado_36608" data-name="Trazado 36608" d="M98.465-946.3s-.379-7.461,2.038-8.589,4.587-4.291,2.81-.991C102.663-954.675,98.465-946.3,98.465-946.3Z" transform="translate(-63.161 968.236)" fill="#0a0e16"/>
            <path id="Trazado_36609" data-name="Trazado 36609" d="M121.687-921s-3.772,6.993-.759,10.514,7.632,14.754,4.272,18.947c0,0,6.493-4.131,3.758-11.448S120.425-913.1,121.687-921Z" transform="translate(-73.017 951.431)" fill="#0d193e"/>
            <path id="Trazado_36610" data-name="Trazado 36610" d="M120.8-897.269s-2.349,10.2,1.225,14.676-.859,7.378-.859,7.378,1.986-.785-1.2-7.034S120.8-897.269,120.8-897.269Z" transform="translate(-72.547 940.459)" fill="#1f2f52"/>
            <path id="Trazado_36611" data-name="Trazado 36611" d="M139.855-934.038a11.032,11.032,0,0,1,1.354,5.139c-.065,2.7,4.1,3.27,6.155,1.661,0,0-3.316,5.332-6.33,2.253S141.066-931.821,139.855-934.038Z" transform="translate(-82.215 957.46)" fill="#1f2f52"/>
            <path id="Trazado_36612" data-name="Trazado 36612" d="M68.06-954.073a11.037,11.037,0,0,0-4.9,2.067c-2.1,1.7-5.094-1.247-5.074-3.858,0,0-2.2,5.883,2.082,6.388S65.565-953.677,68.06-954.073Z" transform="translate(-44.242 967.551)" fill="#1f2f52"/>
            <path id="Trazado_36613" data-name="Trazado 36613" d="M102.648-914.137s3.633.244,4.282,1.146a3.883,3.883,0,0,1,.73,1.7s.609-2.2-.389-2.973-4.187-1.623-4.282-1.145S102.257-915.305,102.648-914.137Z" transform="translate(-65.046 948.913)" fill="#0d193e"/>
            <path id="Trazado_36614" data-name="Trazado 36614" d="M77.342-918.923s-3.279-1.582-4.289-1.119a3.885,3.885,0,0,0-1.474,1.115s.559-2.216,1.807-2.392,4.443.657,4.289,1.119S78.259-919.744,77.342-918.923Z" transform="translate(-50.74 951.591)" fill="#0d193e"/>
            <g id="Grupo_34002" data-name="Grupo 34002" transform="translate(24.714 50.731)">
              <g id="Grupo_34001" data-name="Grupo 34001" transform="translate(7.327 1.059)">
                <path id="Trazado_36615" data-name="Trazado 36615" d="M92.7-880.344s.655-1.063-.291-.918C92.413-881.262,93.052-881.2,92.7-880.344Z" transform="translate(-92.413 881.275)" fill="#39393a"/>
              </g>
              <path id="Trazado_36616" data-name="Trazado 36616" d="M82.268-879.929a5.814,5.814,0,0,1-2.94-1.377,2.721,2.721,0,0,0,2.826,2.813c2.958.157,3.263-1.865,3.263-1.865" transform="translate(-79.036 882.349)" fill="#f28194" opacity="0.53"/>
              <path id="Trazado_36617" data-name="Trazado 36617" d="M79.171-882.058l-.148-.232a2.3,2.3,0,0,1,1.964-.953s.3-.054.674.466l.12.167s.447-.445.859-.375a4.01,4.01,0,0,1,2.593,1.808,10.3,10.3,0,0,1-4.63-.077A2.9,2.9,0,0,1,79.171-882.058Z" transform="translate(-78.895 883.245)" fill="#f28194" opacity="0.53"/>
              <path id="Trazado_36618" data-name="Trazado 36618" d="M78.785-881.908a4.973,4.973,0,0,0,3.028,1.46,7.646,7.646,0,0,0,4.77-.877s-1.371,1.384-4.7,1.162C81.879-880.162,79.189-880.405,78.785-881.908Z" transform="translate(-78.785 882.627)" fill="#494747"/>
            </g>
            <path id="Trazado_36619" data-name="Trazado 36619" d="M111.927-911.4s-2.814,5.47-2.648,9.971-.727,14.093-4.832,15.49c0,0,8.837.13,8.093-8.878S109.788-898.79,111.927-911.4Z" transform="translate(-65.936 946.995)" fill="#0d193e"/>
            <circle id="Elipse_643" data-name="Elipse 643" cx="2.047" cy="2.047" r="2.047" transform="translate(18.973 43.946)" fill="#f28194" opacity="0.53"/>
            <circle id="Elipse_644" data-name="Elipse 644" cx="2.047" cy="2.047" r="2.047" transform="translate(36.273 46.461)" fill="#f28194" opacity="0.53"/>
            <path id="Trazado_36620" data-name="Trazado 36620" d="M94.856-909.938l-3.756-.671c-.078-.117-.235-.091-.475-.085l-.433-.077c-.509-2.305-3.8-3.023-4.455-3.143a5.45,5.45,0,0,0-4.548.809,4.032,4.032,0,0,0-.852.949l.072-.74-.034-.049c-.016-.032-.366-.97-2.1-1.219a2.45,2.45,0,0,0-2.317.584l-.012.042-.134.712a4.006,4.006,0,0,0-.544-1.132,5.449,5.449,0,0,0-4.136-2.06c-.662-.069-4.022-.313-5.16,1.755-.01.017-.019.036-.028.054-.66-.075-.864-.456-1.04.148-.159.548.278.652.685.706-.584,1.834-.387,4.33.963,5.716a5.212,5.212,0,0,0,3.04,1.487h0a5.974,5.974,0,0,0,3.179-.4,5.868,5.868,0,0,0,3.2-4.618,4.217,4.217,0,0,0,.012-.674l.015,0,.263-1.521a2.705,2.705,0,0,1,1.932-.261,2.659,2.659,0,0,1,1.826.8l-.131,1.539.015,0a4.147,4.147,0,0,0-.178.648,5.9,5.9,0,0,0,1.771,5.35A5.987,5.987,0,0,0,84.432-904a5.221,5.221,0,0,0,3.337-.58c1.69-.952,2.582-3.295,2.534-5.224l4.309.882Zm-22.239,3.061a5.613,5.613,0,0,1-2.982.379,4.857,4.857,0,0,1-2.826-1.389,4.669,4.669,0,0,1-1.161-3.069,6.179,6.179,0,0,1,.641-3.12,3.14,3.14,0,0,1,2.154-1.425,8.3,8.3,0,0,1,2.644-.146c.123.013.245.028.364.045,4.3.619,4.212,3.77,4.151,4.4A5.5,5.5,0,0,1,72.617-906.877Zm16.95-.64a4.665,4.665,0,0,1-1.979,2.617,4.851,4.851,0,0,1-3.1.537,5.6,5.6,0,0,1-2.754-1.2,5.505,5.505,0,0,1-1.645-5c.117-.617.918-3.667,5.222-3.047.118.016.24.037.361.059a8.307,8.307,0,0,1,2.5.885,3.142,3.142,0,0,1,1.666,1.974A6.182,6.182,0,0,1,89.567-907.518Z" transform="translate(-47.635 949.151)" fill="#323232"/>
            <circle id="Elipse_645" data-name="Elipse 645" cx="37.547" cy="37.547" r="37.547" transform="translate(0)" fill="#caccca" opacity="0.209"/>
            <path id="Trazado_36621" data-name="Trazado 36621" d="M47.694-946.432a1.765,1.765,0,0,1-.806-.091,1.767,1.767,0,0,1-1.068-2.26,24.941,24.941,0,0,1,9.744-12.373,1.766,1.766,0,0,1,2.447.509A1.767,1.767,0,0,1,57.5-958.2a21.388,21.388,0,0,0-8.355,10.609A1.766,1.766,0,0,1,47.694-946.432Z" transform="translate(-38.781 970.132)" fill="#fbfcfb"/>
            <path id="Trazado_36622" data-name="Trazado 36622" d="M73.4-963.506a1.769,1.769,0,0,1-1.874-1.157,1.768,1.768,0,0,1,1.065-2.261,24.851,24.851,0,0,1,7.446-1.441,1.767,1.767,0,0,1,1.833,1.7,1.771,1.771,0,0,1-1.7,1.833,21.37,21.37,0,0,0-6.383,1.235A1.779,1.779,0,0,1,73.4-963.506Z" transform="translate(-50.666 973.332)" fill="#fbfcfb"/>
          </g>
          <path id="Trazado_36623" data-name="Trazado 36623" d="M49.208-848.041s-14.234,16.325-17.28,44.733c0,0-.958,2.57-2.441,5.682" transform="translate(170.877 917.699)" fill="none" stroke="#465a69" stroke-linecap="round" stroke-linejoin="round" stroke-width="7"/>
          <path id="Trazado_36624" data-name="Trazado 36624" d="M76.834-836.254S62.946-819.634,60.5-791.168" transform="translate(156.54 912.249)" fill="none" stroke="#465a69" stroke-linecap="round" stroke-linejoin="round" stroke-width="7"/>
          <path id="Trazado_36625" data-name="Trazado 36625" d="M51.2-769.023s8.116,2.348,10.214,22.006c0,0,4.182-14.1,21.418-16.227,0,0,4.837-6.811,8.036-18.576S51.2-769.023,51.2-769.023Z" transform="translate(160.836 888.556)" fill="#a0a09f" opacity="0.52"/>
          <path id="Trazado_36626" data-name="Trazado 36626" d="M14.626-750.159" transform="translate(177.748 872.442)" fill="#d3e5d3"/>
          <path id="Trazado_36627" data-name="Trazado 36627" d="M45.035-862.648s-3.868-1-6.093,5.131c0,0,24.975,14.708,53.009,13.412,0,0,1.473-2.377,0-7.164C91.947-851.27,61.823-851.762,45.035-862.648Z" transform="translate(166.505 924.481)" fill="#d90066"/>
          <path id="Trazado_36628" data-name="Trazado 36628" d="M91.947-847.944s-1.139-.019-3.093-.129a6.917,6.917,0,0,1-.635,3.716c-21.069.974-40.409-7.092-48.719-11.159a13.693,13.693,0,0,0-.559,1.324s24.975,14.708,53.009,13.412C91.951-840.78,93.424-843.157,91.947-847.944Z" transform="translate(166.505 921.155)" fill="#b71562"/>
          <path id="Trazado_36629" data-name="Trazado 36629" d="M42.787-866.646c14.943,9.585,34.277,14.638,51.909,13.28,2.055-.159,1.884-3.361-.179-3.2C77.4-855.25,58.75-860.2,44.249-869.5c-1.74-1.116-3.186,1.75-1.462,2.855Z" transform="translate(165.086 927.738)" fill="#546a80"/>
          <path id="Trazado_36630" data-name="Trazado 36630" d="M49.987-750.46s9.2,18.757-3.264,31.447c0,0,.959,1.917,6.009,1.235s12.481-19.133,4.261-30.443C54.56-751.569,49.987-750.46,49.987-750.46Z" transform="translate(162.908 872.663)" fill="#b71562"/>
          <path id="Trazado_36631" data-name="Trazado 36631" d="M56.993-747.919a5.6,5.6,0,0,0-2.9-2.062c.09.107.183.205.268.322,8.22,11.311.79,29.762-4.261,30.444a13.056,13.056,0,0,1-2.993.1c-.127.135-.253.271-.384.4,0,0,.959,1.917,6.01,1.235S65.213-736.608,56.993-747.919Z" transform="translate(162.908 872.36)" fill="#d90066"/>
          <path id="Trazado_36632" data-name="Trazado 36632" d="M-94.136-770.1s-7.981.514-11.13,2.237-4.694-1.932-.472,31.025,7.029,48.488,7.029,48.488l14-1.034s.341-22.083,1.867-31.227,1.415-17.846-4.559-30.848S-94.136-770.1-94.136-770.1Z" transform="translate(234.591 881.662)" fill="#f7f7f0"/>
          <g id="Grupo_34004" data-name="Grupo 34004" transform="translate(119.386 66.323)">
            <path id="Trazado_36633" data-name="Trazado 36633" d="M-121.129-780.976l48.064-5.261,26.462,6.364-28.345,4.921Z" transform="translate(121.129 822.801)" fill="#333133"/>
            <path id="Trazado_36634" data-name="Trazado 36634" d="M-121.129-812.419l1.4-39.044,46.453-2.781L-74.949-806.4Z" transform="translate(121.129 854.245)" fill="#333133"/>
            <path id="Trazado_36635" data-name="Trazado 36635" d="M-33.565-854.245l2.264.26-2.035,47.416-1.9.172Z" transform="translate(81.415 854.245)" fill="#212021"/>
            <path id="Trazado_36636" data-name="Trazado 36636" d="M-23.053-773.621s-11.6-4.083-15.29-1.806-2.024,6.121,1.087,8.391,9.786,4.767,14.606,4.45S-19.832-774.166-23.053-773.621Z" transform="translate(83.826 818.122)" fill="#c7c5c0"/>
            <path id="Trazado_36637" data-name="Trazado 36637" d="M62.276-838.412s-7.721-2.093-14.544,10.943-5.483,20.294-19.893,21.292-36.494,3.7-36.494,3.7a18.251,18.251,0,0,0,.4,11.036s26.745,7.751,54.482-.261S77.353-838.377,62.276-838.412Z" transform="translate(69.429 846.981)" fill="#c7c5c0"/>
            <path id="Trazado_36638" data-name="Trazado 36638" d="M88.649-769.688c-7.533,2-8.782,8.2-8.916,11.347,2.533-.491,5.095-1.1,7.665-1.84a32.88,32.88,0,0,0,13.252-7.45C98.915-769.341,95.286-771.452,88.649-769.688Z" transform="translate(28.259 815.457)" fill="#9e9e9f"/>
            <path id="Trazado_36639" data-name="Trazado 36639" d="M.589-773.475c-5.459.613-9.245,1.076-9.245,1.076a18.25,18.25,0,0,0,.4,11.036,87.6,87.6,0,0,0,10.58,2.128A54.38,54.38,0,0,1,.589-773.475Z" transform="translate(69.429 816.9)" fill="#174e9a"/>
            <path id="Trazado_36640" data-name="Trazado 36640" d="M21.484-775.251c-1.475.153-2.917.307-4.3.457a37.525,37.525,0,0,0,1.03,15.23c1.418.161,2.918.305,4.491.423A33.778,33.778,0,0,1,21.484-775.251Z" transform="translate(57.344 817.721)" fill="#b71562"/>
            <path id="Trazado_36641" data-name="Trazado 36641" d="M91.312-809.569c-.615,1.377-1.156,2.671-1.664,3.883,4.384,1.146,14.909,4.7,21.116,13.4a37.542,37.542,0,0,0,2.265-3.928C106.275-804.616,96.27-808.228,91.312-809.569Z" transform="translate(23.675 833.589)" fill="#174e9a"/>
            <path id="Trazado_36642" data-name="Trazado 36642" d="M117.664-806.607a37.015,37.015,0,0,0,1.406-4.891c-6.545-7.326-15.58-10.527-20.983-11.853-.567.875-1.133,1.833-1.692,2.9-.157.3-.306.595-.455.889C100.978-818.446,111.417-815.187,117.664-806.607Z" transform="translate(20.766 839.961)" fill="#174e9a"/>
            <path id="Trazado_36643" data-name="Trazado 36643" d="M2.416-759.236A54.38,54.38,0,0,1,.678-773.475c-2.359.265-4.4.5-5.967.685,1.084,2.166,2.979,6.619,1.122,8.175-1.6,1.338-3.669.062-4.951-1.026a19.035,19.035,0,0,0,.953,4.277A87.6,87.6,0,0,0,2.416-759.236Z" transform="translate(69.34 816.9)" fill="#114682"/>
            <ellipse id="Elipse_646" data-name="Elipse 646" cx="6.08" cy="4.501" rx="6.08" ry="4.501" transform="matrix(0.015, -1, 1, 0.015, 17.312, 27.969)" fill="#b0aea6"/>
            <path id="Trazado_36644" data-name="Trazado 36644" d="M-81.571-824.714a3.473,3.473,0,0,0-1.559.358c2.047.591,3.56,3.067,3.517,6.01-.038,2.618-1.3,4.826-3.03,5.657a3.42,3.42,0,0,0,.9.134c2.486.036,4.54-2.657,4.589-6.014S-79.085-824.678-81.571-824.714Z" transform="translate(103.56 840.591)" fill="#9c9b95"/>
          </g>
          <g id="Grupo_34005" data-name="Grupo 34005" transform="translate(202.592 81.588)">
            <path id="Trazado_36645" data-name="Trazado 36645" d="M37.715-823.632,58.523-816.7l-5.092,12.69-19.8-6.422Z" transform="translate(-33.632 824.825)" fill="#f29e31"/>
            <path id="Trazado_36646" data-name="Trazado 36646" d="M77.836-813.177l-4.49,12.369-2.889,1.633,5.092-12.69Z" transform="translate(-50.658 819.991)" fill="#915614"/>
            <path id="Trazado_36647" data-name="Trazado 36647" d="M41.227-823.632l5.651,10.012L62.035-816.7l-14.243-5.625Z" transform="translate(-37.143 824.825)" fill="#e0861e"/>
            <circle id="Elipse_647" data-name="Elipse 647" cx="1.199" cy="1.199" r="1.199" transform="translate(10.263 6.943)" fill="#f29e31"/>
            <path id="Trazado_36648" data-name="Trazado 36648" d="M43.732-825.851l-2.5,1.193,20.808,6.933,2.287-1.312Z" transform="translate(-37.143 825.851)" fill="#bf751a"/>
          </g>
          <path id="Trazado_36649" data-name="Trazado 36649" d="M-100.592-686.567c2.959,22.881,5.455,36.5,5.455,36.5l14.047-2.49s.642-21.591,2.364-33.731C-86.534-687.228-97.2-687.869-100.592-686.567Z" transform="translate(231.02 843.38)" fill="#f29e31"/>
          <path id="Trazado_36650" data-name="Trazado 36650" d="M-102.876-705.035q.388,3.1.753,6.052c4.311-1.645,15.512-2.814,22.617-1.21a23.577,23.577,0,0,0-.457-6.72C-87.5-708.411-97.946-706.762-102.876-705.035Z" transform="translate(232.076 852.718)" fill="#d90066"/>
          <path id="Trazado_36651" data-name="Trazado 36651" d="M-78.875-635.554s.26-8.808.852-18.08c-5.6-.163-14.335.174-17.674,1.307,1.626,10.424,2.644,17.814,2.644,17.814Z" transform="translate(228.757 827.831)" fill="#e68218"/>
          <path id="Trazado_36652" data-name="Trazado 36652" d="M-160.15-753.971s10.186-14,14.921-15.781,6.276-7.759.884-8.624S-160.15-753.971-160.15-753.971Z" transform="translate(258.557 885.498)" fill="#adadac"/>
          <path id="Trazado_36653" data-name="Trazado 36653" d="M-105.143-764.109" transform="translate(233.124 878.892)" fill="#e6e5df"/>
          <path id="Trazado_36654" data-name="Trazado 36654" d="M-329.722-678.089l-11.952,5.291s-3.228,1.989-.245,4.877c2.63,2.545,13.219,3.816,21.117,2.749C-321.723-671.314-325.822-675.466-329.722-678.089Z" transform="translate(343.184 839.12)" fill="#909090"/>
          <path id="Trazado_36655" data-name="Trazado 36655" d="M-299.4-688.84l-6.441,2.852a21.351,21.351,0,0,1,2.742,2.34,19.394,19.394,0,0,1,5.59,12.3c2.24-.416,4.3-.655,6.226-.845A26.3,26.3,0,0,0-299.4-688.84Z" transform="translate(325.918 844.091)" fill="#174e9a"/>
          <path id="Trazado_36656" data-name="Trazado 36656" d="M-188.933-783.373s-.774-6.372-4.116-7.678c-6.623-2.588-4.425-5.646-30.3,15.2s-37.638,31.367-37.638,31.367l8.208,11.387s18.994-11.267,27.586-14.752,15.948-8.134,23.9-20.029S-188.933-783.373-188.933-783.373Z" transform="translate(305.179 892.202)" fill="#adadac"/>
          <path id="Trazado_36657" data-name="Trazado 36657" d="M-232.74-747.026c-17.948,14.5-28.245,23.75-28.245,23.75l9.473,10.666s18.734-10.753,29.98-15.64C-224.818-735.393-229.855-744.817-232.74-747.026Z" transform="translate(305.179 870.994)" fill="#f29e31"/>
          <path id="Trazado_36658" data-name="Trazado 36658" d="M-199.271-757.86q-2.435,1.951-4.762,3.81c3.658,2.812,10.515,11.745,12.867,18.638a23.562,23.562,0,0,0,5.487-3.906C-188.345-746.522-195.219-754.563-199.271-757.86Z" transform="translate(278.847 876.003)" fill="#d90066"/>
          <path id="Trazado_36659" data-name="Trazado 36659" d="M-252.863-701.547s7.641-4.388,15.851-8.737c-2.79-4.855-7.651-12.124-10.364-14.375-8.031,6.841-13.8,11.576-13.8,11.576Z" transform="translate(305.265 860.652)" fill="#e68218"/>
          <path id="Trazado_36660" data-name="Trazado 36660" d="M-213.6-769.293s-4.026-1.635-7.331-3a22.212,22.212,0,0,0-12.044-1.424c-10.421-.675-27.141,20.346-45.2,32.555s-22.254,15.272-27.817,22.955-34.838,5.942-34.838,5.942a3.55,3.55,0,0,0,.293.252c.034.027.073.052.109.078.075.055.152.11.235.165.047.03.1.061.148.091.079.048.16.1.245.143.056.031.115.062.174.092.087.045.176.09.268.133.063.03.127.06.193.09.1.043.2.085.3.128l.205.085c.109.043.222.084.335.126.069.025.135.051.206.075.134.047.274.093.416.138l.163.054c.2.061.4.119.6.177.074.021.151.039.225.06.139.036.277.074.42.109l.294.07c.126.029.252.059.381.087l.332.071c.122.026.244.051.368.075l.362.07.36.065c.129.023.258.045.389.067l.35.056c.139.021.277.043.419.064l.324.045c.154.021.308.042.464.062l.116.014q.63.078,1.28.142l.137.013c.191.018.385.034.579.051l.237.019q.286.023.574.041l.247.017.585.033.236.011q.3.015.6.025l.215.007q.316.01.634.017l.138,0c1.278.022,2.56,0,3.815-.074l.113-.007q.332-.02.66-.045l.157-.012q.321-.025.638-.054l.157-.015q.321-.031.637-.067l.119-.014a30.285,30.285,0,0,0,3.687-.643c1.039-.256,2.038-.466,3-.646.527-.1,1.042-.184,1.55-.264l.307-.047q.607-.092,1.2-.171l.37-.049q.568-.073,1.12-.135l.33-.038c.452-.05.9-.1,1.337-.14a57.244,57.244,0,0,0,9.746-1.379c4.4-1.225,4.6-5.574,8.111-11.459.8-.461,8.036-4.594,15.775-8.693l-.008-.013c4.283-2.273,8.885-4.626,12.885-6.478a52.7,52.7,0,0,0,6.551-3.287h0a23.569,23.569,0,0,0,5.487-3.907v0a53.661,53.661,0,0,0,8.708-9.5l0,.012c.045-.067.093-.135.139-.2.267-.366.535-.737.8-1.119a70.232,70.232,0,0,1,8.549-8.967,105.238,105.238,0,0,0,15.262,8.594s-.094-1.122-.354-6.187S-213.6-769.293-213.6-769.293Z" transform="translate(342.096 883.464)" fill="#a0a09f" opacity="0.52"/>
        </g>
      </g>
    </g>
  </g>
</svg>
