<svg xmlns="http://www.w3.org/2000/svg" width="176" viewBox="0 0 266.428 308.908">
  <g id="Grupo_34479" data-name="Grupo 34479" transform="translate(-128.872 -365.916)">
    <path id="Trazado_38211" data-name="Trazado 38211" d="M137.04,162.357s-38.832-7.021-64.652.862-.218,16.759-9.8,22.38-36.96,4.686-32.049,15.517c6.66,14.7,144.514,16.812,217.246,10.029s46.333-18.392,31.369-22.441c-15.65-4.238,13.5-10.618-17.076-17.714C236.411,165.036,184.692,169.91,137.04,162.357Z" transform="translate(98.92 459.984)" fill="#6d31ff"/>
    <g id="Grupo_34456" data-name="Grupo 34456" transform="translate(148.413 365.916)">
      <path id="Trazado_38169" data-name="Trazado 38169" d="M572.477,80.485s-2.253-6.8,4.095-12.785S569.5,49.53,569.5,49.53l-10.846,3.161L550,65Z" transform="translate(-392.18 -45.736)" fill="#4c4247"/>
      <path id="Trazado_38170" data-name="Trazado 38170" d="M558.581,55.252c-5.612-2.768-8.809,3.331-8.809,3.331l-8.081-2.4s11.534-17.37,20.859-17.172,9.79,14.367,15.582,20.935" transform="translate(-386.866 -39.005)" fill="#1c1c1c"/>
      <path id="Trazado_38171" data-name="Trazado 38171" d="M385.811,345.057l8.269,143.234s15.741-3.4,17.662,4.754-13.109,10.071-36.441,12.316c0,0-10.55,1.759-13.427-4.632s-9.909-12.947-23.811-10.709-27.65,12.785-27.65,12.785l-44.27-9.281L258,450.213s3.561-56.561,8.95-88.057S290.141,310,290.141,310Z" transform="translate(-205.431 -212.321)" fill="#262626"/>
      <path id="Trazado_38172" data-name="Trazado 38172" d="M461.48,591.206l2.429,19.179,4.754-7.706,1.514,7.706,3.352-7.706,4.2,6.409,1.492-6.452,3.846,6.452,1.907-6.409,3.356,6.409,3.111-8.294,2.884,6.236,2.4-10.071,5.421,9.112,1.319-25.891Z" transform="translate(-335.567 -385.116)" fill="#383838"/>
      <path id="Trazado_38173" data-name="Trazado 38173" d="M461.48,591.206l2.429,19.179,4.754-7.706,1.514,7.706,3.352-7.706,4.2,6.409,1.492-6.452,3.846,6.452,1.907-6.409,3.356,6.409,3.111-8.294,2.884,6.236,2.4-10.071,5.421,9.112,1.319-25.891Z" transform="translate(-335.567 -385.116)" fill="#383838"/>
      <path id="Trazado_38174" data-name="Trazado 38174" d="M467.81,578.535l2.134,16.84,4.174-6.769,1.33,6.769,2.945-6.769,3.687,5.63,1.308-5.666,3.377,5.666,1.676-5.63,2.948,5.63,2.729-7.281,2.534,5.472,2.1-8.842,4.758,8,1.161-22.737Z" transform="translate(-339.616 -377.87)" fill="#494949"/>
      <path id="Trazado_38175" data-name="Trazado 38175" d="M258.4,337.9s-32.909,102.669-30.75,142.7S240.2,529.03,266.167,529.03s40.37-.959,40.593-8.871-18.458-12.947-29.726-10.067c0,0,4.552-31.164-19.417-35.241S258.4,337.9,258.4,337.9Z" transform="translate(-185.955 -230.165)" fill="#191919"/>
      <path id="Trazado_38176" data-name="Trazado 38176" d="M369,547.357s0,95.269,19.305,93.831c18.1-1.348,17.208-54.215,10.7-98.286C395.313,517.732,369,547.357,369,547.357Z" transform="translate(-276.421 -354.791)" fill="#191919"/>
      <path id="Trazado_38177" data-name="Trazado 38177" d="M408.413,791.541s.5,9.956,3.046,9.53.451-12.183-1.128-12.976C408.013,786.909,408.413,791.541,408.413,791.541Z" transform="translate(-301.611 -517.965)" fill="#494949"/>
      <path id="Trazado_38178" data-name="Trazado 38178" d="M426.07,790.051s-1.986,9.768.58,9.988,3.464-11.686,2.134-12.85C426.83,785.477,426.07,790.051,426.07,790.051Z" transform="translate(-312.451 -517.264)" fill="#494949"/>
      <path id="Trazado_38179" data-name="Trazado 38179" d="M574.362,524.177s-2.163,95.248,17.161,94.249c18.127-.937,18.44-53.807,12.94-98.02C601.319,495.157,574.362,524.177,574.362,524.177Z" transform="translate(-407.715 -340.286)" fill="#191919"/>
      <path id="Trazado_38180" data-name="Trazado 38180" d="M608.779,768.338s.278,9.966,2.826,9.6.721-12.169-.829-13C608.491,763.713,608.779,768.338,608.779,768.338Z" transform="translate(-429.765 -503.145)" fill="#494949"/>
      <path id="Trazado_38181" data-name="Trazado 38181" d="M626.186,767.321s-2.206,9.732.36,10,3.731-11.606,2.426-12.8C627.054,762.772,626.186,767.321,626.186,767.321Z" transform="translate(-440.341 -502.756)" fill="#494949"/>
      <path id="Trazado_38182" data-name="Trazado 38182" d="M322.867,64.961c35.836-10.875,75.467-1.864,81.6,25.264,4.325,19.125-.67,26.886,3.965,38.319s8.921,25.909-12.616,35.684-68.2,16.472-95.81,7.267-11.642-31.175-15.571-44.854S278.276,78.5,322.867,64.961Z" transform="translate(-221.107 -52.729)" fill="#383838"/>
      <path id="Trazado_38183" data-name="Trazado 38183" d="M396.664,171.767c4.365-.526,4.707-6.128,6.4-9.945,2.75-6.2,12.511-10.792,22.708-7.331,8.568,2.912,10.417,10.684,8.142,20.852s-10.309,8.067-9.206,13.628,6.066,16.768-1.781,23.955c-10.767,9.833-35.032,11.4-52.611,4.733-9.336-3.543-2.451-20.073-5.122-22.488s-17.355-.652-18-14.8,7.869-19.464,18.271-19.551c10.99-.1,14.475,3.839,16.152,9.588.98,3.359,3.522,2.815,5.284,2.523C391.488,172.178,388.366,172.773,396.664,171.767Z" transform="translate(-262.457 -112.104)" fill="#303030"/>
      <path id="Trazado_38184" data-name="Trazado 38184" d="M487.231,290.629c8.29,9.4-27.3,17.474-31.626,9.732s8.222-31.867,10.655-31.683S481.551,282.011,487.231,290.629Z" transform="translate(-331.236 -185.893)"/>
      <path id="Trazado_38185" data-name="Trazado 38185" d="M264.751,92.081c-3.4-5.818-11.019-13.131-19.5.825-6.488,10.655-18.282,10.388-17.68,19.154s12.125,8.824,15.694,18.588,11.956-3.882,11.174-16.775,6.488-18.267,6.488-18.267Z" transform="translate(-185.955 -68.351)" fill="#1c1c1c"/>
      <path id="Trazado_38186" data-name="Trazado 38186" d="M367.364,198.078c.569,7.288,6.661,12.76,13.607,12.219s12.118-6.892,11.534-14.184-6.665-12.76-13.61-12.219S366.794,190.786,367.364,198.078Z" transform="translate(-275.347 -131.646)" fill="#fff"/>
      <path id="Trazado_38187" data-name="Trazado 38187" d="M376.4,205.6a9.375,9.375,0,1,0,0-.032Z" transform="translate(-281.132 -139.081)"/>
      <path id="Trazado_38188" data-name="Trazado 38188" d="M161.343,680.181c-7.843,4.142-14.3-7.479-12.352-16.191,5.717,7.663,12.774,4.78,14.612,1.842" transform="translate(-135.49 -438.717)" fill="#191919"/>
      <path id="Trazado_38189" data-name="Trazado 38189" d="M198.46,665.784c-11.069-7.5-8.315-9.577-8.315-9.577,5.381-6.268,2.5-22.668-3.406-17.892s-13.517,26.284-.584,38.748,17.838,1.8,17.838,1.8" transform="translate(-154.952 -421.747)" fill="#1c1c1c"/>
      <path id="Trazado_38190" data-name="Trazado 38190" d="M404.57,211.263a1.629,1.629,0,0,0,1.4-1.719,6.806,6.806,0,0,0-5.014-6.416,1.632,1.632,0,1,0-.721,3.183h0a3.52,3.52,0,0,1,2.469,3.449,1.636,1.636,0,0,0,1.737,1.521Z" transform="translate(-295.584 -143.945)" fill="#fff"/>
      <path id="Trazado_38191" data-name="Trazado 38191" d="M504.495,178.9c.566,7.292,6.661,12.763,13.607,12.219s12.115-6.892,11.534-14.184-6.661-12.76-13.607-12.219S503.929,171.606,504.495,178.9Z" transform="translate(-363.05 -119.38)" fill="#fff"/>
      <path id="Trazado_38192" data-name="Trazado 38192" d="M513.526,186.423a9.393,9.393,0,1,0,0-.032Z" transform="translate(-368.834 -126.814)"/>
      <path id="Trazado_38193" data-name="Trazado 38193" d="M541.7,192.074a1.636,1.636,0,0,0,1.4-1.723,6.845,6.845,0,0,0-5.014-6.423,1.632,1.632,0,0,0-.721,3.183,3.513,3.513,0,0,1,2.473,3.449,1.633,1.633,0,0,0,1.734,1.517Z" transform="translate(-383.286 -131.665)" fill="#fff"/>
      <path id="Trazado_38194" data-name="Trazado 38194" d="M136,629.971s11.6.205,14.753,9.289C150.778,639.26,150.9,623.836,136,629.971Z" transform="translate(-127.405 -416.038)" fill="#f7941d"/>
      <path id="Trazado_38195" data-name="Trazado 38195" d="M145.81,615.9s9.256-.9,12.616,6.041C158.418,621.939,157.106,609.637,145.81,615.9Z" transform="translate(-133.679 -406.824)" fill="#f7941d"/>
      <path id="Trazado_38196" data-name="Trazado 38196" d="M129.74,691.836s-9.3-2.909-9.7-10.976C120.044,680.86,116.289,693.259,129.74,691.836Z" transform="translate(-116.892 -449.506)" fill="#f7941d"/>
      <path id="Trazado_38197" data-name="Trazado 38197" d="M121.016,705.934s-7.681-1.442-8.737-7.854C112.279,698.08,110.426,708.309,121.016,705.934Z" transform="translate(-112.155 -460.519)" fill="#f7941d"/>
      <path id="Trazado_38198" data-name="Trazado 38198" d="M485.332,305.279c-3.154.768-12.14,2.822-18.859,3.042a2.307,2.307,0,0,0-1.986,1.276h0a2.307,2.307,0,0,0,2.008,3.338c3.442.076,9.732-.393,20.073-3.067a2.31,2.31,0,0,0,.944-3.965l-.126-.108A2.292,2.292,0,0,0,485.332,305.279Z" transform="translate(-337.334 -209.261)" fill="#262626"/>
      <path id="Trazado_38199" data-name="Trazado 38199" d="M308.363,313.332s45.027-7.458,104.749-18.776c0,0,17.42-3.54,19.338,10.684,1.8,13.452,11.379,80.379,11.379,80.379s3.8,14.872-14.894,18.062c-17.413,2.974-102.428,15.979-102.428,15.979s-14.861,1.6-18.127-14.382c-3.536-17.3-12.079-69.04-12.079-69.04S292.449,317.758,308.363,313.332Z" transform="translate(-229.665 -202.194)" fill="#f7c23e"/>
      <path id="Trazado_38200" data-name="Trazado 38200" d="M397.129,464.12,335.77,519.557s5.046,9.613,15.106,8.853,105.29-16.371,105.29-16.371,15.449-1.748,13.167-17.727Z" transform="translate(-255.169 -310.889)" fill="#e5a81f" opacity="0.31"/>
      <path id="Trazado_38201" data-name="Trazado 38201" d="M295.991,334.156l71.588,33.821s7.753,3.835,13.026-2.238,51.273-63.309,51.273-63.309-2.675-10.453-16.9-8.651-106.667,19.165-106.667,19.165-8.95.934-11.574,11.343A25.913,25.913,0,0,0,295.991,334.156Z" transform="translate(-229.617 -201.814)" fill="#e5a81f"/>
      <path id="Trazado_38202" data-name="Trazado 38202" d="M492.506,235.12c7.956.8,25.458,8.666,27.082,18.126s-7.287,15.883-15.833,13.321-17.348-20.36-19.685-23.038C485.6,239.462,492.506,235.12,492.506,235.12Z" transform="translate(-350.015 -164.431)" fill="#191919"/>
      <path id="Trazado_38203" data-name="Trazado 38203" d="M430.242,250.519c.047,3.391-4.754,13.768-6.128,20.906s-8.416,11.586-17.961,9-14.551-10.762-7.7-20.066,17.024-15.692,20.048-15.383C421.685,245.387,430.242,250.519,430.242,250.519Z" transform="translate(-293.228 -170.729)" fill="#191919"/>
      <path id="Trazado_38204" data-name="Trazado 38204" d="M474.573,228.521s-.573-4.354-9.829-2.5-11.419,5.046-11.794,6.848,2.26,10.413,13.063,8.16S474.573,228.521,474.573,228.521Z" transform="translate(-330.09 -158.319)"/>
      <path id="Trazado_38205" data-name="Trazado 38205" d="M489.586,240.574s-.2-3.965,3.244-3.8c2.368.119,1.528,7.094-.458,8.085S489.777,242.618,489.586,240.574Z" transform="translate(-353.541 -165.484)" fill="#262626"/>
      <path id="Trazado_38206" data-name="Trazado 38206" d="M470.268,244.064s-1.1-3.828-4.3-2.548c-2.2.883.854,7.209,3.057,7.5S470.744,246.046,470.268,244.064Z" transform="translate(-337.953 -168.354)" fill="#262626"/>
      <path id="Trazado_38207" data-name="Trazado 38207" d="M469.413,230.15s-4.963.721-6.643,2.57c0,0,.047,1.081,3.021-.094S470.033,231.112,469.413,230.15Z" transform="translate(-336.392 -161.253)" fill="#161616"/>
      <path id="Trazado_38208" data-name="Trazado 38208" d="M341.216,157.558s3.067-6.524,13.964-6.8c0,0,1.8-.591.952-2.916s-6.877-2.116-11.213,0-8.352,7.814-7.3,10.626S341.216,157.558,341.216,157.558Z" transform="translate(-256.243 -107.548)" fill="#1c1c1c"/>
      <path id="Trazado_38209" data-name="Trazado 38209" d="M552.6,135.793s-4.185-5.872-14.951-4.2c0,0-1.878-.26-1.46-2.7s6.38-3.305,11.033-1.986,9.62,6.2,9.08,9.152S552.6,135.793,552.6,135.793Z" transform="translate(-383.311 -94.83)" fill="#1c1c1c"/>
      <path id="Trazado_38210" data-name="Trazado 38210" d="M608.1,88.769c5.792,6.564-9.754,19.1-12.529,17.871s-1.406-19.8-7.021-22.56" transform="translate(-417.835 -68.833)" fill="#1c1c1c"/>
    </g>
  </g>
</svg>
