<svg xmlns="http://www.w3.org/2000/svg" xmlns:xlink="http://www.w3.org/1999/xlink" width="312" height="312" viewBox="0 0 176 176">
  <defs>
    <linearGradient id="linear-gradient" x1="0.023" y1="-6.895" x2="1.023" y2="-6.895" gradientUnits="objectBoundingBox">
      <stop offset="0" stop-color="#6d31ff"/>
      <stop offset="0.917" stop-color="#5d2af5"/>
      <stop offset="1" stop-color="#602cf8"/>
    </linearGradient>
  </defs>
  <g id="Grupo_34476" data-name="Grupo 34476" transform="translate(-92 -432)">
    <g id="Grupo_34475" data-name="Grupo 34475" transform="translate(-764.874 -1042.68)">
      <path id="Trazado_38215" data-name="Trazado 38215" d="M952.222,1984.205s-48.307.8-61.861-5.716c-14.429-6.941,8.795-9.077,41.533-13.9,36.217-5.338,113.154,3.448,100.675,13.1C1024.5,1983.92,1005.854,1982.725,952.222,1984.205Z" transform="translate(-12.331 -336.166)" fill="url(#linear-gradient)"/>
      <g id="Grupo_34474" data-name="Grupo 34474" transform="translate(899.185 1476.679)">
        <g id="Grupo_34464" data-name="Grupo 34464" transform="translate(44.913 118.637)">
          <path id="Trazado_38216" data-name="Trazado 38216" d="M1122.85,1865.493l-.118-.018,1.043-4.1,1.664.022-2.574,4.06" transform="translate(-1120.084 -1861.25)" fill="#3f3f3f"/>
          <path id="Trazado_38217" data-name="Trazado 38217" d="M1123.137,1867.993a18.564,18.564,0,0,1,.965-4.133s-3.068-3.584-5.192-2.764c0,0-5.371,9.041-4.695,14s3.3,1.786,3.169.766C1117.384,1875.862,1118.518,1870.12,1123.137,1867.993Z" transform="translate(-1114.156 -1860.974)" fill="#020202"/>
          <path id="Trazado_38218" data-name="Trazado 38218" d="M1127.008,1868.129c.768-.393,1.375.614,1.375.614a18.561,18.561,0,0,0-.965,4.134c-4.619,2.127-5.753,7.869-5.753,7.869s-2.734,2.013-.321-4.477C1121.344,1876.269,1123.246,1870.052,1127.008,1868.129Z" transform="translate(-1118.437 -1865.857)" fill="#303030"/>
          <path id="Trazado_38219" data-name="Trazado 38219" d="M1122.61,1884.826a21.36,21.36,0,0,0-1.281,3.08c-2.413,6.491.321,4.477.321,4.477a13.707,13.707,0,0,1,1.328-3.487s1.249-3.916-.123-4.051" transform="translate(-1118.426 -1877.462)" fill="#3f3f3f"/>
          <path id="Trazado_38220" data-name="Trazado 38220" d="M1133.3,1882.649a3.2,3.2,0,0,1-.341,2.732A1.758,1.758,0,0,0,1133.3,1882.649Z" transform="translate(-1127.154 -1875.957)" fill="#020202"/>
          <path id="Trazado_38221" data-name="Trazado 38221" d="M1131.148,1885.881a3.2,3.2,0,0,1-.341,2.732A1.758,1.758,0,0,0,1131.148,1885.881Z" transform="translate(-1125.667 -1878.192)" fill="#020202"/>
          <path id="Trazado_38222" data-name="Trazado 38222" d="M1129.032,1888.883a3.2,3.2,0,0,1-.341,2.731A1.758,1.758,0,0,0,1129.032,1888.883Z" transform="translate(-1124.204 -1880.267)" fill="#020202"/>
        </g>
        <path id="Trazado_38223" data-name="Trazado 38223" d="M1131.036,1492.812l-.251.314a.466.466,0,0,1-.653.072l-2.57-1.761a.466.466,0,0,1-.072-.653l.542-.676a.465.465,0,0,1,.653-.072l2.28,2.124A.466.466,0,0,1,1131.036,1492.812Z" transform="translate(-1078.39 -1485.842)" fill="#e8955d"/>
        <g id="Grupo_34465" data-name="Grupo 34465" transform="translate(50.481)">
          <path id="Trazado_38224" data-name="Trazado 38224" d="M1138.909,1478.746c0-.059.055-.889.046-.948-.091-.561-.589-.68-1.131-.634l-4.5-.478a1,1,0,0,0-.526.07,1.037,1.037,0,0,0-.6,1.032l1.025,6.462a1.127,1.127,0,0,0,.285.576,1.393,1.393,0,0,0,1.377.436l2.225-.187c1.265,0,1.5-.593,1.451-1.165Z" transform="translate(-1132.192 -1476.679)" fill="#f4be9a"/>
        </g>
        <path id="Trazado_38225" data-name="Trazado 38225" d="M1139.859,1494.7l-1.469,1.509.353,7.633h4.345l-.89-9.448Z" transform="translate(-1085.996 -1488.925)" fill="#f4be9a"/>
        <path id="Trazado_38226" data-name="Trazado 38226" d="M1131.489,1507.7l5.99,1.1.293,2.759-6.283-.841-1.435-3.373Z" transform="translate(-1080.233 -1497.876)" fill="#efeeed"/>
        <path id="Trazado_38227" data-name="Trazado 38227" d="M1122.282,1552.275l2.078,1.615s3.622-17.935,0-43.139l9.06,1.381s5.429,33.672,1.04,52.2l-7.611-5.5Z" transform="translate(-1074.86 -1500.232)" fill="#132030"/>
        <path id="Trazado_38228" data-name="Trazado 38228" d="M1055.542,1718.891s29.657-17.473,50.788-20.543L1085.4,1678.7l-22.666,7.418Z" transform="translate(-1028.724 -1616.337)" fill="#0a141e"/>
        <path id="Trazado_38229" data-name="Trazado 38229" d="M1162.886,1876.623l-25.7-9.213-2.977,6.174,20.673,10.829s5.047,2.892,7.836.521c1.669-1.418.173-8.312.173-8.312" transform="translate(-1083.102 -1746.786)" fill="#132030"/>
        <path id="Trazado_38230" data-name="Trazado 38230" d="M1165.988,1818.058l-13.456-22.684c-1.236-2.438-10.4-12.928-5.845-15.517.838-.477,2.313.461,3.075.075,3.633-1.843,8.489,1.119,16.691,17.276l5.682,18.38Z" transform="translate(-1090.86 -1685.98)" fill="#132030"/>
        <path id="Trazado_38231" data-name="Trazado 38231" d="M1191.01,1801.237s12.995,21.918,9.537,35.195c0,0-.9,2.962-2.742,3.221-2.923.412-7.222-10.994-8.463-14.973C1188.356,1821.512,1182.483,1804.94,1191.01,1801.237Z" transform="translate(-1119.222 -1701.042)" fill="#132030"/>
        <path id="Trazado_38232" data-name="Trazado 38232" d="M1103.262,1754.244s-9.564,5.738-9.7,15.236,4.023,11.873,16.753,11.213,20.579-6,19.37-14.379C1128.491,1758.016,1123.841,1749.627,1103.262,1754.244Z" transform="translate(-1055.007 -1667.648)" fill="#132030"/>
        <path id="Trazado_38233" data-name="Trazado 38233" d="M1073.436,1645.358s-6.24,2.207-7.759,3.709,6.311,3.6,6.311,3.6,8.9.064,10.917-2.523,1.28-6.814-1.764-6.451A62.751,62.751,0,0,0,1073.436,1645.358Z" transform="translate(-1035.595 -1592.115)" fill="#0a141e"/>
        <path id="Trazado_38234" data-name="Trazado 38234" d="M1077.363,1555.947s2.406-1.278,4.181,0,6.5,10.437,5.315,11.941S1077.592,1560.651,1077.363,1555.947Z" transform="translate(-1043.808 -1531.084)" fill="#35312f"/>
        <path id="Trazado_38235" data-name="Trazado 38235" d="M1029.73,1577.6a4.588,4.588,0,0,0-2.629,5.229c.613,4.02,4.507,10.414,7.288,10.539s1.709-2.609,1.709-2.609S1037.062,1577.446,1029.73,1577.6Z" transform="translate(-1009.01 -1546.441)" fill="#35312f"/>
        <path id="Trazado_38236" data-name="Trazado 38236" d="M1067.478,1635.316a34.929,34.929,0,0,1,6.258,9.4s7.16,1.88,9.047-2.127l-4-8.508S1071.707,1631.953,1067.478,1635.316Z" transform="translate(-1036.975 -1585.03)" fill="#f4be9a"/>
        <path id="Trazado_38237" data-name="Trazado 38237" d="M1073.361,1636.373l-5.883.429a34.561,34.561,0,0,1,4.322,5.762s6.358,1.705,9.366-1.93l-2.384-5.069Z" transform="translate(-1036.975 -1586.515)" fill="#eaa271"/>
        <g id="Grupo_34466" data-name="Grupo 34466" transform="translate(10.49 109.616)">
          <path id="Trazado_38238" data-name="Trazado 38238" d="M1037.6,1833.566l-.059-.1,3.872-1.71,1.01,1.323-4.783.479" transform="translate(-1026.767 -1831.752)" fill="#3f3f3f"/>
          <path id="Trazado_38239" data-name="Trazado 38239" d="M1015.129,1842.043a18.565,18.565,0,0,1,3.848-1.791s.929-4.625-1.027-5.792c0,0-10.429,1.35-13.915,4.941s.63,3.7,1.351,2.967C1005.387,1842.37,1010.606,1839.72,1015.129,1842.043Z" transform="translate(-1002.652 -1833.625)" fill="#020202"/>
          <path id="Trazado_38240" data-name="Trazado 38240" d="M1022.92,1847c.784.362.365,1.461.365,1.461a18.57,18.57,0,0,0-3.848,1.791c-4.523-2.323-9.743.327-9.743.327s-3.271-.91,3.326-3.015C1013.02,1847.562,1019.086,1845.224,1022.92,1847Z" transform="translate(-1006.96 -1841.832)" fill="#303030"/>
          <path id="Trazado_38241" data-name="Trazado 38241" d="M1016.143,1847.478a21.351,21.351,0,0,0-3.214.891c-6.6,2.1-3.326,3.015-3.326,3.015a13.715,13.715,0,0,1,3.564-1.106s3.852-1.432,3.112-2.6" transform="translate(-1006.897 -1842.623)" fill="#3f3f3f"/>
          <path id="Trazado_38242" data-name="Trazado 38242" d="M1032.953,1851.138a3.2,3.2,0,0,1-2.361,1.417S1032.313,1853.246,1032.953,1851.138Z" transform="translate(-1021.967 -1845.153)" fill="#020202"/>
          <path id="Trazado_38243" data-name="Trazado 38243" d="M1029.081,1851.437a3.2,3.2,0,0,1-2.36,1.417S1028.442,1853.545,1029.081,1851.437Z" transform="translate(-1019.291 -1845.36)" fill="#020202"/>
          <path id="Trazado_38244" data-name="Trazado 38244" d="M1025.415,1851.625a3.2,3.2,0,0,1-2.361,1.416S1024.775,1853.732,1025.415,1851.625Z" transform="translate(-1016.756 -1845.49)" fill="#020202"/>
        </g>
        <path id="Trazado_38245" data-name="Trazado 38245" d="M1055.556,1870.319l-13.7-23.621-6.258,2.8,8.81,21.611s1.991,5.465,5.651,5.454c2.19-.008,5.494-6.24,5.494-6.24" transform="translate(-1014.939 -1732.468)" fill="#132030"/>
        <path id="Trazado_38246" data-name="Trazado 38246" d="M1084.036,1825.682l4.351-26.013c.628-2.66.395-16.586,5.544-15.627.947.177,1.469,1.844,2.3,2.041,3.964.936,5.764,6.331,1.609,23.968l-7.515,17.709Z" transform="translate(-1048.421 -1689.122)" fill="#132030"/>
        <path id="Trazado_38247" data-name="Trazado 38247" d="M1103.444,1801.475s-.555,10.964-5.773,10.016a54.109,54.109,0,0,1,1.632-12.006Z" transform="translate(-1057.847 -1699.831)" fill="#1e3144"/>
        <path id="Trazado_38248" data-name="Trazado 38248" d="M1096.513,1804.521l-2.322.77a12.4,12.4,0,0,1-.8-10.927l6.445,2.671Z" transform="translate(-1054.24 -1696.29)" fill="#1e3144"/>
        <g id="Grupo_34467" data-name="Grupo 34467" transform="translate(22.753 43.457)">
          <circle id="Elipse_728" data-name="Elipse 728" cx="1.826" cy="1.826" r="1.826" fill="#f4be9a"/>
          <circle id="Elipse_729" data-name="Elipse 729" cx="1.071" cy="1.071" r="1.071" transform="translate(0.755 0.755)" fill="#eaa271"/>
        </g>
        <g id="Grupo_34468" data-name="Grupo 34468" transform="translate(40.985 34.558)">
          <circle id="Elipse_730" data-name="Elipse 730" cx="1.826" cy="1.826" r="1.826" fill="#f4be9a"/>
          <circle id="Elipse_731" data-name="Elipse 731" cx="1.071" cy="1.071" r="1.071" transform="translate(0.755 0.755)" fill="#eaa271"/>
        </g>
        <path id="Trazado_38249" data-name="Trazado 38249" d="M1067.355,1668.7c-.873-.413-7.967-.72-7.967-.72s.791-4.549,10.487-7.371,12.92-.941,12.92-.941l-5.882,7.038Z" transform="translate(-1031.382 -1602.75)" fill="#f4be9a"/>
        <path id="Trazado_38250" data-name="Trazado 38250" d="M1059.529,1570.535l-7.331-12.79s-4.428-7.294-11.905-2.983c-8.385,4.835-5.2,11.956-5.2,11.956l.841,1.7,5.523,12.1s1.253,3.189,6.238,3.254c.685.009,1.265.041,1.769.084l.113.028a10.2,10.2,0,0,0,2.674.3,4.967,4.967,0,0,0,2.425-.5l0,0a5.916,5.916,0,0,0,3.16-3.06l1.5-2.414A7.458,7.458,0,0,0,1059.529,1570.535Z" transform="translate(-1014.176 -1529.715)" fill="#f4be9a"/>
        <path id="Trazado_38251" data-name="Trazado 38251" d="M1056.309,1586.676l0,0a4.962,4.962,0,0,1-2.425.5,10.207,10.207,0,0,1-2.674-.3l-.113-.029c-.5-.043-1.084-.075-1.769-.084-4.985-.065-6.238-3.254-6.238-3.254l-5.523-12.1-.841-1.7a9,9,0,0,1,2.721-10.187c-7.308,4.808-4.35,11.43-4.35,11.43l.841,1.7,5.523,12.1s1.253,3.19,6.238,3.254c.685.009,1.265.041,1.769.084l.113.028a10.19,10.19,0,0,0,2.674.3,4.965,4.965,0,0,0,2.425-.5l0,0a5.94,5.94,0,0,0,2.1-1.464C1056.632,1586.533,1056.475,1586.607,1056.309,1586.676Z" transform="translate(-1014.178 -1533.945)" fill="#f4b387"/>
        <g id="Grupo_34469" data-name="Grupo 34469" transform="translate(34.523 44.487)">
          <path id="Trazado_38252" data-name="Trazado 38252" d="M1080.652,1623.459s3.59-.979,4.834-2.632c0,0,.275-.182.225.2,0,0,.3,6.251-5.067,2.664C1080.644,1623.695,1080.312,1623.569,1080.652,1623.459Z" transform="translate(-1080.499 -1620.784)" fill="#9c322e"/>
          <path id="Trazado_38253" data-name="Trazado 38253" d="M1085.59,1621.547a.871.871,0,0,0,.121-.516c.05-.386-.225-.2-.225-.2-1.244,1.653-4.834,2.632-4.834,2.632-.34.11-.008.236-.008.236q.231.154.448.285S1084.175,1623.657,1085.59,1621.547Z" transform="translate(-1080.499 -1620.784)" fill="#fff"/>
          <path id="Trazado_38254" data-name="Trazado 38254" d="M1087.817,1630.044a2.057,2.057,0,0,0,2.665-1.55s-.337,1.145-2.665,1.55" transform="translate(-1085.558 -1626.114)" fill="#fff"/>
        </g>
        <g id="Grupo_34470" data-name="Grupo 34470" transform="translate(36.386 34.711)">
          <path id="Trazado_38255" data-name="Trazado 38255" d="M1086.533,1591.59s1.183-1.611,2.446-1.341a1.241,1.241,0,0,0-.306-1.131A2.845,2.845,0,0,0,1086.533,1591.59Z" transform="translate(-1086.533 -1589.118)" fill="#020202"/>
          <path id="Trazado_38256" data-name="Trazado 38256" d="M1090.907,1594.768s.578-.528.913-.347" transform="translate(-1089.557 -1592.758)" fill="#020202"/>
        </g>
        <g id="Grupo_34471" data-name="Grupo 34471" transform="translate(27.482 39.467)">
          <path id="Trazado_38257" data-name="Trazado 38257" d="M1060.959,1604.992s-2-.058-2.562,1.1a1.241,1.241,0,0,1-.7-.937A2.844,2.844,0,0,1,1060.959,1604.992Z" transform="translate(-1057.693 -1604.524)" fill="#020202"/>
          <path id="Trazado_38258" data-name="Trazado 38258" d="M1062.531,1608.567s-.772.131-.835.507" transform="translate(-1060.46 -1607.319)" fill="#020202"/>
        </g>
        <path id="Trazado_38259" data-name="Trazado 38259" d="M1075.245,1610.4a2.756,2.756,0,0,0-1.915,1.255c-.033.035-.064.072-.093.109-.047,0-.1,0-.143.006a2.756,2.756,0,0,0-2.168.738c-.984.926-3.08,4.349-2.282,4.766s3.488-1.079,4.348-1.853a3.808,3.808,0,0,0,3.277-1.6c1.14-.2,3.973-1.4,4.135-2.288S1076.581,1610.2,1075.245,1610.4Z" transform="translate(-1037.659 -1569.086)" fill="#35312f"/>
        <path id="Trazado_38260" data-name="Trazado 38260" d="M1076.293,1616.016a11.5,11.5,0,0,0-.343,4.475c.287-.138.573-.29.844-.447a16.361,16.361,0,0,1,0-4.323A2.728,2.728,0,0,0,1076.293,1616.016Z" transform="translate(-1042.779 -1572.796)" fill="#4c4a48"/>
        <path id="Trazado_38261" data-name="Trazado 38261" d="M1070.428,1622.441a14.7,14.7,0,0,0-.083,2.3,3.2,3.2,0,0,0,.872-.191,14.564,14.564,0,0,1,.067-3.5A14.754,14.754,0,0,0,1070.428,1622.441Z" transform="translate(-1038.948 -1576.482)" fill="#4c4a48"/>
        <path id="Trazado_38262" data-name="Trazado 38262" d="M1080.437,1614.99a10.854,10.854,0,0,0,.537,3.815c.106-.08.2-.157.277-.227a2.125,2.125,0,0,0,.566.016,15.725,15.725,0,0,1-.9-3.678A2.884,2.884,0,0,0,1080.437,1614.99Z" transform="translate(-1045.917 -1572.242)" fill="#4c4a48"/>
        <path id="Trazado_38263" data-name="Trazado 38263" d="M1086.822,1611.374a2.734,2.734,0,0,0-.411.256,16.45,16.45,0,0,1,3.535,2.519c.3-.112.6-.241.9-.382A11.285,11.285,0,0,0,1086.822,1611.374Z" transform="translate(-1050.063 -1569.792)" fill="#4c4a48"/>
        <path id="Trazado_38264" data-name="Trazado 38264" d="M1092.706,1610.355a15.389,15.389,0,0,1,3.352,2.256,4.489,4.489,0,0,0,.747-.54,14.036,14.036,0,0,0-2.549-1.634A13.288,13.288,0,0,0,1092.706,1610.355Z" transform="translate(-1054.415 -1569.087)" fill="#4c4a48"/>
        <path id="Trazado_38265" data-name="Trazado 38265" d="M1084.2,1613.677l-.008.01a14.8,14.8,0,0,1,2.221,2.966,2.8,2.8,0,0,0,.629-.647,11.158,11.158,0,0,0-2.532-2.731A2.331,2.331,0,0,0,1084.2,1613.677Z" transform="translate(-1048.529 -1571.105)" fill="#4c4a48"/>
        <path id="Trazado_38266" data-name="Trazado 38266" d="M1063.673,1581.16c-.249-.368-.3-.067-.731.126l-.025-.025c-1.208-1.141-3.408-.256-3.837-.067a3.833,3.833,0,0,0-2.327,2.27,2.823,2.823,0,0,0-.121.889l-.251-.459-.039-.015c-.022-.013-.6-.42-1.707.122-1.052.514-1.114,1.232-1.117,1.256l.009.029.2.468a2.818,2.818,0,0,0-.765-.444,3.835,3.835,0,0,0-3.222.437c-.413.222-2.465,1.409-2.309,3.063,0,.014,0,.028.005.042-.414.218-.684.076-.547.5.124.382.419.27.678.141a4.237,4.237,0,0,0,2.822,2.946,3.668,3.668,0,0,0,2.357-.337h0a4.2,4.2,0,0,0,1.694-1.488,4.131,4.131,0,0,0,.038-3.956,2.969,2.969,0,0,0-.26-.4l.009,0-.449-.989a1.9,1.9,0,0,1,1.021-.916,1.874,1.874,0,0,1,1.38-.256l.533.948.01-.005a2.973,2.973,0,0,0,.152.448,4.15,4.15,0,0,0,3.148,2.413,4.213,4.213,0,0,0,2.218-.414,3.674,3.674,0,0,0,1.713-1.658,4.238,4.238,0,0,0-.591-4.043C1063.627,1581.657,1063.9,1581.493,1063.673,1581.16Zm-9.446,9.32a3.951,3.951,0,0,1-1.586,1.4,3.417,3.417,0,0,1-2.194.309,3.283,3.283,0,0,1-1.89-1.327,4.351,4.351,0,0,1-.861-2.07,2.212,2.212,0,0,1,.691-1.682,5.841,5.841,0,0,1,1.481-1.13c.077-.041.154-.081.23-.118,2.75-1.342,3.944.528,4.155.917A3.874,3.874,0,0,1,1054.227,1590.48Zm9.613-7.078a3.286,3.286,0,0,1-.117,2.307,3.417,3.417,0,0,1-1.594,1.54,3.951,3.951,0,0,1-2.079.389,3.874,3.874,0,0,1-2.934-2.258c-.176-.406-.917-2.5,1.834-3.84.076-.037.154-.073.234-.109a5.845,5.845,0,0,1,1.8-.472,2.21,2.21,0,0,1,1.751.49A4.353,4.353,0,0,1,1063.84,1583.4Z" transform="translate(-1022.719 -1548.58)" fill="#323232"/>
        <g id="Grupo_34472" data-name="Grupo 34472" transform="translate(32.326 37.228)">
          <path id="Trazado_38267" data-name="Trazado 38267" d="M1079.085,1597.975h0l-.017.009c-.035.016-.068.031-.1.048l-.036.025a3.048,3.048,0,0,1-4.187-.344c-1.251-1.108-1.371.21-1.357.335a3.979,3.979,0,0,0,3.833,3.542c3.436.165,4.27-1.427,4.281-2.076S1081.227,1597,1079.085,1597.975Z" transform="translate(-1073.382 -1597.271)" fill="#f98f69"/>
          <path id="Trazado_38268" data-name="Trazado 38268" d="M1081.83,1601.976c-.01.648-.844,2.24-4.28,2.076a3.788,3.788,0,0,1-3.558-2.5,3.82,3.82,0,0,0,3.646,2.749c3.436.164,4.271-1.427,4.281-2.076a2.624,2.624,0,0,0-.2-1.032A2.736,2.736,0,0,1,1081.83,1601.976Z" transform="translate(-1073.804 -1599.979)" fill="#d36f50"/>
        </g>
        <path id="Trazado_38269" data-name="Trazado 38269" d="M1069.814,1659.137h0l-8.028,1.182a8.138,8.138,0,0,0-6.244,4.724s11.481,21.81,11.246,23.672c-1.022,8.064,1.322,10.5,4.209,11.759,6.6,2.881,24.57,2.354,29.166-1.528,2.782-2.35-1.585-16.925-1.585-16.925l-13.651-21.616s-4.794-5.167-7.862-4.922C1074.654,1655.675,1069.814,1659.137,1069.814,1659.137Z" transform="translate(-1028.724 -1600.278)" fill="#f9f9f9"/>
        <path id="Trazado_38270" data-name="Trazado 38270" d="M1157.531,1729.078l4.9-1.311,3.751,2.172s18.585,12.121,3.343,19.582l-12.394.091Z" transform="translate(-1098.954 -1650.253)" fill="#f9f9f9"/>
        <path id="Trazado_38271" data-name="Trazado 38271" d="M1077.4,1577.768a9.137,9.137,0,0,1,3.678-2.118s.46-.149.1-.549-1.208-.788-3.263.476S1076.523,1578.4,1077.4,1577.768Z" transform="translate(-1043.252 -1544.449)" fill="#35312f"/>
        <path id="Trazado_38272" data-name="Trazado 38272" d="M1077.4,1577.768a9.137,9.137,0,0,1,3.678-2.118s.46-.149.1-.549-1.208-.788-3.263.476S1076.523,1578.4,1077.4,1577.768Z" transform="translate(-1043.252 -1544.449)" fill="#35312f"/>
        <path id="Trazado_38273" data-name="Trazado 38273" d="M1051.6,1590.591a9.134,9.134,0,0,0-3.828,1.834s-.383.3-.512-.224.034-1.441,2.239-2.421S1052.614,1590.229,1051.6,1590.591Z" transform="translate(-1022.974 -1554.631)" fill="#35312f"/>
        <path id="Trazado_38274" data-name="Trazado 38274" d="M1034.807,1590.417l3.731,6.941.932-.353-1.43-3.781s-2-7-4.247-8.491C1033.793,1584.734,1032.578,1586.958,1034.807,1590.417Z" transform="translate(-1013.46 -1551.376)" fill="#35312f"/>
        <path id="Trazado_38275" data-name="Trazado 38275" d="M1083.54,1556.367s-1.328.69,1.4,4.243a72.914,72.914,0,0,1,5.664,9.358l.739-.638-1.526-3.225S1086.156,1555.984,1083.54,1556.367Z" transform="translate(-1047.855 -1531.759)" fill="#35312f"/>
        <path id="Trazado_38276" data-name="Trazado 38276" d="M1046.463,1549.52a.35.35,0,0,1-.329-.229c-.051-.139-1.236-3.418.612-4.524a1.532,1.532,0,0,0,.77-1.585,1.484,1.484,0,0,0-.953-1.244.35.35,0,0,1,.174-.678,2.145,2.145,0,0,1,1.472,1.821,2.227,2.227,0,0,1-1.1,2.287c-1.333.8-.325,3.651-.314,3.68a.351.351,0,0,1-.207.45A.342.342,0,0,1,1046.463,1549.52Z" transform="translate(-1021.93 -1521.316)" fill="#35312f"/>
        <path id="Trazado_38277" data-name="Trazado 38277" d="M1053.545,1548.41a.35.35,0,0,1-.34-.27c-.034-.144-.814-3.541,1.154-4.416a1.531,1.531,0,0,0,.956-1.481,1.484,1.484,0,0,0-.8-1.349.35.35,0,1,1,.255-.652,2.145,2.145,0,0,1,1.241,1.985,2.226,2.226,0,0,1-1.372,2.137c-1.42.631-.764,3.585-.757,3.615a.351.351,0,0,1-.341.431Z" transform="translate(-1026.983 -1520.603)" fill="#35312f"/>
        <path id="Trazado_38278" data-name="Trazado 38278" d="M1105.6,1669.8s14.8,22.5,18.946,40.78c0,0,4.116-.45,4.878-.918,0,0-8.8-25.29-22.063-40.981l-1.761-1.232Z" transform="translate(-1063.33 -1608.559)" fill="#e2e2e2"/>
        <path id="Trazado_38279" data-name="Trazado 38279" d="M1002.882,1676.413l-6.277-1.342s-19.985,3.254-25.064,7.278,6.277,5.079,15.671,4.089,18.923-.9,18.923-.9S1005.957,1678.4,1002.882,1676.413Z" transform="translate(-969.787 -1613.825)" fill="#132030"/>
        <path id="Trazado_38280" data-name="Trazado 38280" d="M1096.754,1832.488s-4.21,25.13-15.417,33.045c0,0-2.6,1.682-4.173.692-2.5-1.571,1.574-13.06,3.193-16.9C1081.646,1846.267,1087.85,1829.817,1096.754,1832.488Z" transform="translate(-1043.124 -1722.443)" fill="#132030"/>
        <path id="Trazado_38281" data-name="Trazado 38281" d="M1089.571,1842.714l-2.312-.734s-1.942,13.448-4.316,18.147l3.958.3Z" transform="translate(-1047.666 -1729.207)" fill="#132030"/>
        <path id="Trazado_38282" data-name="Trazado 38282" d="M1171.4,1833.142v2s8.245,12.8,9.638,17.35l2.35-8.767Z" transform="translate(-1108.812 -1723.097)" fill="#132030"/>
        <path id="Trazado_38283" data-name="Trazado 38283" d="M1140.746,1662.414s11.523,12.966,19.059,16.924a37.684,37.684,0,0,0,15.715,3.936s.857,7.475-1.781,9.652c0,0-13.39-3.892-27.933-22.756Z" transform="translate(-1087.624 -1605.075)" fill="#132030"/>
        <path id="Trazado_38284" data-name="Trazado 38284" d="M1133.234,1658.359l-13.371-11.024.747-2.077s2.079,1.548,3.512,2.82a94.509,94.509,0,0,1,8.665,9.233Z" transform="translate(-1073.188 -1593.216)" fill="#132030"/>
        <path id="Trazado_38285" data-name="Trazado 38285" d="M1123.158,1653.4l-3.295-1.411s10.173,8.761,14.846,15.079l.61-1.6-9.59-11.3Z" transform="translate(-1073.188 -1597.866)" fill="#231f20"/>
        <path id="Trazado_38286" data-name="Trazado 38286" d="M1119.863,1651.56s3.822,1.044,5.735-.19l.951,5.114h4.128l2.558,8.06Z" transform="translate(-1073.188 -1597.44)" fill="#264059"/>
        <path id="Trazado_38287" data-name="Trazado 38287" d="M1101.771,1659.6l1.855.676s2.226,6.678,12.614,6.48,20.876-5.343,24.19-8.657l.818-4.749h-6.21s-7.717,7.915-16.176,9.646c0,0-8.855,1.978-12.635-2.04l-1.162-1.18.737-1.925-2.849-1.007Z" transform="translate(-1060.681 -1598.811)" fill="#d81d5b"/>
        <path id="Trazado_38288" data-name="Trazado 38288" d="M1077.6,1661.948a12.931,12.931,0,0,0,7.383.841v6.35s-6.374-1.436-9.21-4.34Z" transform="translate(-1042.708 -1604.753)" fill="#f9f8f7"/>
        <path id="Trazado_38289" data-name="Trazado 38289" d="M1108.538,1651.369a6.219,6.219,0,0,1-2.935,4.106l5.273,3.211a8.774,8.774,0,0,0,1.073-6.662Z" transform="translate(-1063.33 -1597.44)" fill="#f9f8f7"/>
        <path id="Trazado_38290" data-name="Trazado 38290" d="M1038.942,1664.527a21.618,21.618,0,0,1,3.546,17.413c-2.24,10.913-5.009,23.552-8.517,35.024,0,0-12.919-.923-14.964-12,0,0,1.607-2.717,10.111-10.742,8.872-8.373,4-16.234,2.949-18.081l-1.781-9.257,5.518-1.12a12.968,12.968,0,0,1-2.449-2.539Z" transform="translate(-1003.468 -1605.632)" fill="#132030"/>
        <path id="Trazado_38291" data-name="Trazado 38291" d="M1077.239,1689.236s0-7.009-3.181-9.251l2.737-2.609a14.54,14.54,0,0,0-6.2-5.834l4.011-4.089S1082.046,1676.205,1077.239,1689.236Z" transform="translate(-1039.126 -1608.559)" fill="#264059"/>
        <path id="Trazado_38292" data-name="Trazado 38292" d="M1041.217,1726.956l5.145.561-.831,3.276-4.981-.383Z" transform="translate(-1018.36 -1649.692)" fill="#f4be9a"/>
        <path id="Trazado_38293" data-name="Trazado 38293" d="M975.438,1701.673l.725,1.451s9.626,2.357,16.552,4.138l-1.088,7.024s-14.475-1.856-18.1-3.541-6.459-6.537-3.823-9.915Z" transform="translate(-968.671 -1631.632)" fill="#132030"/>
        <path id="Trazado_38294" data-name="Trazado 38294" d="M1052.022,1722.111l-.264-.3a.465.465,0,0,1,.046-.655l2.193-2.214a.466.466,0,0,1,.655.046l.568.654a.466.466,0,0,1-.046.655l-2.5,1.863A.465.465,0,0,1,1052.022,1722.111Z" transform="translate(-1026.03 -1644.072)" fill="#e8955d"/>
        <g id="Grupo_34473" data-name="Grupo 34473" transform="translate(24.044 76.813)">
          <path id="Trazado_38295" data-name="Trazado 38295" d="M1052.513,1732.078c.058.011.865.213.924.215.568.01.775-.458.827-1l1.275-4.343a1,1,0,0,0,.025-.53,1.037,1.037,0,0,0-.907-.777l-6.541-.148a1.129,1.129,0,0,0-.617.177,1.393,1.393,0,0,0-.675,1.277l-.214,2.222c-.225,1.245.316,1.582.886,1.636Z" transform="translate(-1046.556 -1725.496)" fill="#f4be9a"/>
        </g>
        <path id="Trazado_38296" data-name="Trazado 38296" d="M998.96,1707.326l-7.33.1,22.8-2.495-.816.875Z" transform="translate(-984.542 -1634.47)" fill="#0d1a26"/>
      </g>
      <path id="Trazado_38297" data-name="Trazado 38297" d="M911.516,1577.466s-46.907-14.905-43.148-18.737S911.516,1577.466,911.516,1577.466Z" transform="translate(0 -56.417)" fill="#f09521"/>
      <path id="Trazado_38298" data-name="Trazado 38298" d="M913.818,1635.706s-41.175,26.963-41.773,21.628S913.818,1635.706,913.818,1635.706Z" transform="translate(-2.685 -109.933)" fill="#f09521"/>
      <path id="Trazado_38299" data-name="Trazado 38299" d="M933.035,1626.871s-26.665,1.579-28.016,3.945S919.745,1631.244,933.035,1626.871Z" transform="translate(-25.429 -103.825)" fill="#f09521"/>
      <path id="Trazado_38300" data-name="Trazado 38300" d="M1189.955,1588.626s41.683,2.647,39.374,6.574S1189.955,1588.626,1189.955,1588.626Z" transform="translate(-222.456 -77.387)" fill="#f09521"/>
      <path id="Trazado_38301" data-name="Trazado 38301" d="M1187.838,1515.782s28.371-30.652,29.958-26.382S1187.838,1515.782,1187.838,1515.782Z" transform="translate(-220.993 -8.512)" fill="#f09521"/>
      <path id="Trazado_38302" data-name="Trazado 38302" d="M1199.058,1559.332s21.632-6.772,22.259-9S1209.1,1553,1199.058,1559.332Z" transform="translate(-228.749 -50.539)" fill="#f09521"/>
      <ellipse id="Elipse_732" data-name="Elipse 732" cx="34.084" cy="2.376" rx="34.084" ry="2.376" transform="translate(917.069 1634.538)" fill="#132030" opacity="0.43"/>
    </g>
    <rect id="Rectángulo_3955" data-name="Rectángulo 3955" width="176" height="176" transform="translate(92 432)" fill="none"/>
  </g>
</svg>
