<svg xmlns="http://www.w3.org/2000/svg" xmlns:xlink="http://www.w3.org/1999/xlink" width="264" height="256" viewBox="0 0 264 256">
  <defs>
    <clipPath id="clip-path">
      <path id="Trazado_37532" data-name="Trazado 37532" d="M6596.955,964.71c-6.833-5.02,10.322-7.605,5.272-9.841l2.108-107.808H6430.771l-29.94,66.161c0,28.89,20.139,31.331,15.083,45.317-11.687,32.337,0,31.792,0,45.926,0,22.007,43.47,11.6,51.071,47.736,0,0,.533,25.735,42.669,25.735,28.268,0,31.335-7.067,48.136-35.869s27.323-8.267,43.191-22.268S6607.746,972.639,6596.955,964.71Z" transform="translate(-6400.831 -847.062)" fill="none"/>
    </clipPath>
  </defs>
  <g id="Grupo_3998" data-name="Grupo 3998" transform="translate(-48 -120)">
    <g id="Grupo_3997" data-name="Grupo 3997">
      <g id="Grupo_3995" data-name="Grupo 3995">
        <rect id="Rectángulo_2130" data-name="Rectángulo 2130" width="264" height="256" transform="translate(48 120)" fill="none"/>
        <g id="Grupo_34809" data-name="Grupo 34809" transform="translate(-6329.995 -711.864)">
          <path id="Trazado_37449" data-name="Trazado 37449" d="M6470.928,1071.744s.533,25.735,42.67,25.735c28.267,0,31.334-7.067,48.136-35.869s27.323-8.267,43.19-22.268,11.067-46.827-9.983-53.36c-38.592-11.976-35.208-19.178-60.143-37.046s-78.985-2.868-90.672,29.468-24.269,31.469-24.269,45.6C6419.858,1046.015,6463.328,1035.608,6470.928,1071.744Z" transform="translate(-3.946 -19.541)" fill="#6d31ff"/>
          <g id="Grupo_34837" data-name="Grupo 34837" transform="translate(6400.83 847.062)">
            <g id="Grupo_34836" data-name="Grupo 34836" clip-path="url(#clip-path)">
              <g id="Grupo_34835" data-name="Grupo 34835" transform="translate(15.083 0)">
                <path id="Trazado_37450" data-name="Trazado 37450" d="M6579.037,998.368s29.334,47.815,35.66,77.643l-8.172-.911a320.305,320.305,0,0,0-33.616-70.036Z" transform="translate(-6451.593 -878.435)" fill="#f2bc98"/>
                <path id="Trazado_37451" data-name="Trazado 37451" d="M6539.111,850.673s-15.642-9.04-32.06,1.489-12.775,21.594-16.235,22.555-7.951-1.1-7.951-1.1.729,4.491,6.312,4.855c0,0-4.491,6.764.122,11.757a7.894,7.894,0,0,1,.97-5.324s6.191,14.08.547,20.028l4.219-.85s-1.717,7.283,2.646,11.653V910.95s4.484,10.245,1.571,15.585l4.816-2.306a11.7,11.7,0,0,0,5.5,8.133l.987-3.783,2.66,8.256,1.226-5.044s3.971,6.87,9.783,8.339,9.376-12.647,9.376-12.647,1.506,4.67-.936,7.295c0,0,3-2.295,3.853-4.479,0,0,2.913,4.342,6.433,3.385a9.384,9.384,0,0,1-2.031-5.57,13.613,13.613,0,0,0,5.93,1.263s-2.282-2.383-1.816-4.675,3.379,2.782,3.379,2.782,2.185-3.672-.485-8.5a8.279,8.279,0,0,0,5.462.521s-3.154-12.64-1.092-15.913,5.481-16.746-.719-26.942C6551.577,876.648,6557.85,854.921,6539.111,850.673Z" transform="translate(-6432.922 -847.062)" fill="#1b2b3f"/>
                <path id="Trazado_37452" data-name="Trazado 37452" d="M6548.437,977.681l-2.747-7.908s18.667,2.987,26.133,14.142,12.836,19.439,12.836,19.439l-14.019,5.826Z" transform="translate(-6445.949 -872.506)" fill="#f9ae3b"/>
                <path id="Trazado_37453" data-name="Trazado 37453" d="M6450.435,1026.819c-.326,0-.651-.009-.977-.028a15.357,15.357,0,0,1-11.253-5.929c-5.3-6.54-9.483-18.61-9.193-35.875a192.212,192.212,0,0,1,1.858-23.289l8.659,1.322c-1.7,11.143-2.673,42.267,5.484,52.328a6.561,6.561,0,0,0,4.944,2.7c7.053.4,14.623-8.269,24.228-24.424,7.877-13.251,5.619-10.209,5.673-10.346l10.849-6.207c-.227.58-.708,7.074-8.938,20.938C6470.416,1017.132,6460.969,1026.819,6450.435,1026.819Z" transform="translate(-6421.753 -870.832)" fill="#f2bc98"/>
                <path id="Trazado_37454" data-name="Trazado 37454" d="M6511.547,977.681l2.746-7.908s-18.667,2.987-26.132,14.142-12.835,19.439-12.835,19.439l14.019,5.826Z" transform="translate(-6431.359 -872.506)" fill="#f9ae3b"/>
                <path id="Trazado_37455" data-name="Trazado 37455" d="M6523.519,1133.517h0c.466-12.9-5.743-18.343-11-20.638a9.5,9.5,0,0,0-3.25-1.306,16.759,16.759,0,0,0-3.555-.36c-.138-.007-.211-.008-.211-.008v.014c-9.638.242-11.3,10.281-11.181,19.343.138,10.16,3.481,86.654,15.505,91.586C6525.939,1228.755,6524.853,1156.6,6523.519,1133.517Z" transform="translate(-6435.298 -901.832)" fill="#f2bc98"/>
                <path id="Trazado_37456" data-name="Trazado 37456" d="M6499.768,1090.162s-8.858,8.639-8.216,38.013,11.511,83.511,11.511,83.511h17.809l.5-77.685Z" transform="translate(-6434.716 -897.468)" fill="#f2bc98"/>
                <path id="Trazado_37457" data-name="Trazado 37457" d="M6557.562,1091.791c-2.9-5.437-12.262-23.284-29.753-24.9-12.908-1.193-26.024,19.226-26.032,19.237-7.682,13.383-18.534,40.5,20.987,44.143l3.5.324C6581.244,1134.695,6557.849,1092.189,6557.562,1091.791Z" transform="translate(-6435.305 -892.633)" fill="#2975fa"/>
                <path id="Trazado_37458" data-name="Trazado 37458" d="M6495.188,1096.322s-4.552,8.109-4.916,16.982-1.916,19.437,5.751,68.045c0,0,6.9,57.534,7.312,79.746v10.493h14.987s7.992-27.606,3.991-56.01v-16.932l1.544-65.181Z" transform="translate(-6434.382 -898.746)" fill="#2975fa"/>
                <path id="Trazado_37459" data-name="Trazado 37459" d="M6570.306,1133.517h0c.466-12.9-5.743-18.343-11-20.638a9.5,9.5,0,0,0-3.25-1.306,16.768,16.768,0,0,0-3.556-.36c-.137-.007-.21-.008-.21-.008v.014c-9.638.242-11.3,10.281-11.18,19.343.137,10.16,3.481,86.654,15.506,91.586C6572.726,1228.755,6571.64,1156.6,6570.306,1133.517Z" transform="translate(-6445 -901.832)" fill="#f2bc98"/>
                <path id="Trazado_37460" data-name="Trazado 37460" d="M6542.266,1096.322s-4.552,8.109-4.916,16.982-1.917,19.437,5.751,68.045c0,0,6.9,57.534,7.312,79.746v10.493H6565.4s7.991-27.606,3.989-56.01v-16.932l1.545-65.181Z" transform="translate(-6444.142 -898.746)" fill="#2975fa"/>
                <path id="Trazado_37461" data-name="Trazado 37461" d="M6525.294,1099.205l3.882,37.776,6.561.507.845-37.625Z" transform="translate(-6441.72 -899.343)" fill="#1b2b3f" opacity="0.24"/>
                <path id="Trazado_37462" data-name="Trazado 37462" d="M6571.92,1092.315s13.508,23.022,1.916,44.878l-22.352-29.905Z" transform="translate(-6447.15 -897.915)" fill="#2975fa"/>
                <path id="Trazado_37463" data-name="Trazado 37463" d="M6539.742,967.725H6525.9a27.473,27.473,0,0,0-.5-16.817l15.277.5S6537.255,961.585,6539.742,967.725Z" transform="translate(-6441.744 -868.594)" fill="#f2bc98"/>
                <path id="Trazado_37464" data-name="Trazado 37464" d="M6539.346,956.89a41.382,41.382,0,0,1,1.338-5.478l-15.277-.5a25.882,25.882,0,0,1,1.566,8.871C6531.468,961.378,6536.359,958.915,6539.346,956.89Z" transform="translate(-6441.744 -868.594)" fill="#dbac8c"/>
                <path id="Trazado_37465" data-name="Trazado 37465" d="M6541.677,974.969c10.347,11.409,29.42,37.336,6.341,47.556-4.737,14.838,6.076,31.605,6.076,31.605s-14.345,6.164-23.076,5.847c-.768-.028-3.134-.028-3.9,0-8.73.317-19.684-6.738-19.684-6.738s7.6-16.03,2.248-30.721c-24.306-10.775-5.867-35.7,3.433-47.981,0,0,3.445-5.463,8.435-5.437s12.414-.9,15.432,1.065A16.408,16.408,0,0,1,6541.677,974.969Z" transform="translate(-6435.983 -872.326)" fill="#f2bc98"/>
                <path id="Trazado_37466" data-name="Trazado 37466" d="M6535.656,969.729a5.627,5.627,0,0,1,1.324.608,16.408,16.408,0,0,1,4.7,4.8c10.347,11.409,29.42,37.336,6.341,47.556-4.737,14.838,6.076,31.605,6.076,31.605s-14.345,6.164-23.076,5.847c-.768-.028-3.134-.028-3.9,0-8.73.317-19.684-6.737-19.684-6.737s7.6-16.03,2.248-30.721c-24.306-10.775-5.867-35.7,3.433-47.981a13.705,13.705,0,0,1,5.8-4.945l8.556,16.192Z" transform="translate(-6435.983 -872.497)" fill="#f9ae3b"/>
                <path id="Trazado_37467" data-name="Trazado 37467" d="M6523.961,968.227l8.555,15.719v4.37l-10.563-18.9Z" transform="translate(-6441.028 -872.185)" fill="#ef5a24"/>
                <path id="Trazado_37468" data-name="Trazado 37468" d="M6543.135,968.227l-7.856,15.719v4.37l10.41-19.549Z" transform="translate(-6443.79 -872.185)" fill="#ef5a24"/>
                <g id="Grupo_34809-2" data-name="Grupo 34809" transform="translate(62.113 47.073)">
                  <circle id="Elipse_790" data-name="Elipse 790" cx="4.728" cy="4.728" r="4.728" fill="#f2bc98"/>
                  <circle id="Elipse_791" data-name="Elipse 791" cx="2.773" cy="2.773" r="2.773" transform="translate(1.954 1.954)" fill="#e6b08c"/>
                </g>
                <g id="Grupo_34810" data-name="Grupo 34810" transform="translate(109.199 46.525)">
                  <circle id="Elipse_792" data-name="Elipse 792" cx="4.728" cy="4.728" r="4.728" fill="#f2bc98"/>
                  <circle id="Elipse_793" data-name="Elipse 793" cx="2.773" cy="2.773" r="2.773" transform="translate(1.955 1.954)" fill="#e6b08c"/>
                </g>
                <path id="Trazado_37469" data-name="Trazado 37469" d="M6550.2,895.186c-.546-3.909-.294-12.464-.147-16.229.047-.609.08-1.223.08-1.844a22.922,22.922,0,1,0-45.843,0,23.35,23.35,0,0,0,.313,3.785,142.983,142.983,0,0,1,.067,14.887c-.5,5.115-3.266,27.96,13.213,35.188a22.376,22.376,0,0,1,3.754,3.3,6.5,6.5,0,0,0,3.9,1.643c3.414.8,7.5.459,9.32-1.567a22.331,22.331,0,0,1,3.613-3.458C6554.627,922.985,6550.909,900.275,6550.2,895.186Z" transform="translate(-6437.343 -848.498)" fill="#f2bc98"/>
                <g id="Grupo_34812" data-name="Grupo 34812" transform="translate(85.36 67.842)">
                  <g id="Grupo_34811" data-name="Grupo 34811" transform="translate(11.478 0.079)">
                    <path id="Trazado_37470" data-name="Trazado 37470" d="M6542.763,934.177s.692-1.85-.734-1.336C6542.029,932.841,6543.041,932.742,6542.763,934.177Z" transform="translate(-6542.029 -932.751)" fill="#3a3a3a"/>
                  </g>
                  <path id="Trazado_37471" data-name="Trazado 37471" d="M6533.227,936.653a9.2,9.2,0,0,1-4.982-1.24,4.3,4.3,0,0,0,5.244,3.5c4.639-.659,4.5-3.89,4.5-3.89" transform="translate(-6527.692 -933.143)" fill="#ef5a24" opacity="0.58"/>
                  <path id="Trazado_37472" data-name="Trazado 37472" d="M6528.188,935.15l-.3-.315a3.637,3.637,0,0,1,2.758-2.079s.442-.173,1.187.518l.239.224s.557-.828,1.219-.845a6.345,6.345,0,0,1,4.576,2.015,16.3,16.3,0,0,1-7.209,1.294A4.594,4.594,0,0,1,6528.188,935.15Z" transform="translate(-6527.618 -932.651)" fill="#ef5a24" opacity="0.58"/>
                  <path id="Trazado_37473" data-name="Trazado 37473" d="M6527.548,934.607a7.865,7.865,0,0,0,5.145,1.343,12.1,12.1,0,0,0,7.135-2.817s-1.707,2.567-6.945,3.24C6532.883,936.373,6528.633,936.816,6527.548,934.607Z" transform="translate(-6527.548 -932.751)" fill="#494747"/>
                </g>
                <g id="Grupo_34817" data-name="Grupo 34817" transform="translate(71.694 37.872)">
                  <g id="Grupo_34814" data-name="Grupo 34814" transform="translate(0.758 6.06)">
                    <g id="Grupo_34813" data-name="Grupo 34813">
                      <path id="Trazado_37474" data-name="Trazado 37474" d="M6521.078,907.492a3.507,3.507,0,1,1-3.5-3.663A3.586,3.586,0,0,1,6521.078,907.492Z" transform="translate(-6511.844 -902.765)" fill="#1b2b3f"/>
                      <path id="Trazado_37475" data-name="Trazado 37475" d="M6520.427,906.5s-.371-3.055-3.185-3.055-3.668-.2-4.02-.954c0,0,.05,1.459,1.154,1.583a4.138,4.138,0,0,1-3.115-.277,3.236,3.236,0,0,0,3.215,1.69C6516.937,905.4,6519.1,905.2,6520.427,906.5Z" transform="translate(-6511.262 -902.486)" fill="#1b2b3f"/>
                    </g>
                    <path id="Trazado_37476" data-name="Trazado 37476" d="M6516.68,907.4a.982.982,0,0,0,.013,1.323c.479.531-.306,1.32-.787.788a2.079,2.079,0,0,1-.188-2.673.576.576,0,0,1,.762-.2.559.559,0,0,1,.2.762Z" transform="translate(-6512.102 -903.331)" fill="#fff"/>
                  </g>
                  <g id="Grupo_34816" data-name="Grupo 34816" transform="translate(24.881 5.513)">
                    <g id="Grupo_34815" data-name="Grupo 34815">
                      <path id="Trazado_37477" data-name="Trazado 37477" d="M6541.7,906.8a3.507,3.507,0,1,0,3.5-3.663A3.586,3.586,0,0,0,6541.7,906.8Z" transform="translate(-6541.696 -902.074)" fill="#1b2b3f"/>
                      <path id="Trazado_37478" data-name="Trazado 37478" d="M6541.781,905.8s.37-3.055,3.185-3.055,3.669-.2,4.02-.954c0,0-.049,1.458-1.153,1.582a4.134,4.134,0,0,0,3.115-.277,3.237,3.237,0,0,1-3.216,1.69C6545.271,904.707,6543.109,904.51,6541.781,905.8Z" transform="translate(-6541.713 -901.796)" fill="#1b2b3f"/>
                    </g>
                    <path id="Trazado_37479" data-name="Trazado 37479" d="M6544.981,906.706a.981.981,0,0,0,.013,1.324c.479.53-.307,1.321-.788.787a2.077,2.077,0,0,1-.187-2.673.576.576,0,0,1,.761-.2.561.561,0,0,1,.2.762Z" transform="translate(-6542.093 -902.641)" fill="#fff"/>
                  </g>
                  <path id="Trazado_37480" data-name="Trazado 37480" d="M6519.188,898.149c-.106.208-4.752-1.01-8.869,1.466a5.9,5.9,0,0,1,4.836-3.959C6519.051,895.084,6520,896.58,6519.188,898.149Z" transform="translate(-6510.309 -894.984)" fill="#1b2b3f"/>
                  <path id="Trazado_37481" data-name="Trazado 37481" d="M6543.259,897.459c.107.208,4.753-1.01,8.868,1.466a5.894,5.894,0,0,0-4.836-3.959C6543.4,894.393,6542.452,895.889,6543.259,897.459Z" transform="translate(-6517.084 -894.841)" fill="#1b2b3f"/>
                  <path id="Trazado_37482" data-name="Trazado 37482" d="M6546.382,922.4a4.521,4.521,0,1,0,4.521-4.521A4.521,4.521,0,0,0,6546.382,922.4Z" transform="translate(-6517.787 -899.617)" fill="#ef5a24" opacity="0.35"/>
                  <path id="Trazado_37483" data-name="Trazado 37483" d="M6519.348,923.088a4.521,4.521,0,1,1-4.521-4.52A4.521,4.521,0,0,1,6519.348,923.088Z" transform="translate(-6510.306 -899.76)" fill="#ef5a24" opacity="0.35"/>
                </g>
                <g id="Grupo_34819" data-name="Grupo 34819" transform="translate(0 77.639)">
                  <path id="Trazado_37484" data-name="Trazado 37484" d="M6439.869,958.46l.849.053a.986.986,0,0,0,1.043-.919l.9-6.532a.986.986,0,0,0-.919-1.043l-1.83-.116a.985.985,0,0,0-1.043.919l.076,6.594A.986.986,0,0,0,6439.869,958.46Z" transform="translate(-6423.801 -946.024)" fill="#e08d56"/>
                  <g id="Grupo_34818" data-name="Grupo 34818">
                    <path id="Trazado_37485" data-name="Trazado 37485" d="M6421.766,957.585c-.094-.082-1.47-1.181-1.548-1.278-.748-.942-.226-1.891.619-2.675l5.666-7.724a2.128,2.128,0,0,1,.86-.723,2.2,2.2,0,0,1,2.472.529l8.654,10.81a2.386,2.386,0,0,1,.5,1.266,2.95,2.95,0,0,1-1.282,2.777l-3.462,3.216c-1.8,1.979-3.066,1.5-3.89.612Z" transform="translate(-6419.859 -945.01)" fill="#f2bc98"/>
                  </g>
                </g>
                <path id="Trazado_37486" data-name="Trazado 37486" d="M6550.484,1117.235l1.6,13.241,8.231,3.37,5.7-6.352-1.331-13.094Z" transform="translate(-6446.943 -902.494)" fill="#1b2b3f" opacity="0.24"/>
                <path id="Trazado_37487" data-name="Trazado 37487" d="M6512.583,1117.235l-1.595,13.241-8.231,3.37-5.7-6.352,1.331-13.094Z" transform="translate(-6435.864 -902.494)" fill="#1b2b3f" opacity="0.24"/>
                <g id="Grupo_34820" data-name="Grupo 34820" transform="translate(56.802 189.201)">
                  <path id="Trazado_37488" data-name="Trazado 37488" d="M6507.549,1085.756l-6.679,3.492s-2.044,3.332-4.037,7.169c0,0,41.509,7.728,64.985-.739l1.443-.255-4.483-8.817Z" transform="translate(-6492.621 -1085.756)" fill="#f2bc98"/>
                  <path id="Trazado_37489" data-name="Trazado 37489" d="M6493.225,1095.173s42.351,7.748,68.934,0l2.569,6.723s-29.335,9.663-73.21,1.635Z" transform="translate(-6491.519 -1087.709)" fill="#205ea8"/>
                  <path id="Trazado_37490" data-name="Trazado 37490" d="M6495.23,1097.966l-.912,4.819s40.2,6.258,68.421-1.389l-1.443-3.186S6539.632,1106.226,6495.23,1097.966Z" transform="translate(-6492.099 -1088.288)" fill="#174f87"/>
                  <path id="Trazado_37491" data-name="Trazado 37491" d="M6502.987,1096.322l-1.821,10.3h2.731l1.774-10.3Z" transform="translate(-6493.52 -1087.947)" fill="#1e5387"/>
                  <path id="Trazado_37492" data-name="Trazado 37492" d="M6564.376,1097.295l1.819,9.79-2.73.506-1.775-10.3Z" transform="translate(-6506.068 -1088.149)" fill="#1e5387"/>
                </g>
                <g id="Grupo_34825" data-name="Grupo 34825" transform="translate(39.962 371.261)">
                  <path id="Trazado_37493" data-name="Trazado 37493" d="M6521.781,1315.44l.21,7.373-12.537.914.651-7.96Z" transform="translate(-6478.399 -1315.44)" fill="#f0c3a4"/>
                  <g id="Grupo_34824" data-name="Grupo 34824" transform="translate(0 7.373)">
                    <g id="Grupo_34821" data-name="Grupo 34821">
                      <path id="Trazado_37494" data-name="Trazado 37494" d="M6485.848,1341.4c-21.25-2.361-14.583,10.878-14.583,10.878l43.3-.712-.7-26.825-14.187.747-1.227,13.675Z" transform="translate(-6470.274 -1324.742)" fill="#e2e2e1"/>
                    </g>
                    <g id="Grupo_34822" data-name="Grupo 34822" transform="translate(33.332 11.613)">
                      <path id="Trazado_37495" data-name="Trazado 37495" d="M6512.349,1342.778a3.805,3.805,0,1,0,4.2-3.362A3.8,3.8,0,0,0,6512.349,1342.778Z" transform="translate(-6512.325 -1339.393)" fill="#5a595c"/>
                    </g>
                    <g id="Grupo_34823" data-name="Grupo 34823" transform="translate(0.991 26.825)">
                      <path id="Trazado_37496" data-name="Trazado 37496" d="M6514.827,1358.584l-43.3.711.237,1.765,42.887-.869Z" transform="translate(-6471.525 -1358.584)" fill="#5a595c"/>
                    </g>
                  </g>
                  <path id="Trazado_37497" data-name="Trazado 37497" d="M6521.907,1320.578l.268,1.554-12.164.733.017-2.616Z" transform="translate(-6478.514 -1316.437)" fill="#e49c72"/>
                  <path id="Trazado_37498" data-name="Trazado 37498" d="M6502.528,1342.936l-12.606,2.237S6493,1354.784,6502.528,1342.936Z" transform="translate(-6474.349 -1321.141)" fill="#b6b6b7"/>
                </g>
                <g id="Grupo_34830" data-name="Grupo 34830" transform="translate(78.69 371.261)">
                  <path id="Trazado_37499" data-name="Trazado 37499" d="M6570.64,1315.44l.21,7.373-12.538.914.652-7.96Z" transform="translate(-6527.256 -1315.44)" fill="#f0c3a4"/>
                  <g id="Grupo_34829" data-name="Grupo 34829" transform="translate(0 7.373)">
                    <g id="Grupo_34826" data-name="Grupo 34826">
                      <path id="Trazado_37500" data-name="Trazado 37500" d="M6534.707,1341.4c-21.251-2.361-14.583,10.878-14.583,10.878l43.3-.712-.7-26.825-14.187.747-1.228,13.675Z" transform="translate(-6519.132 -1324.742)" fill="#dbdbdb"/>
                    </g>
                    <g id="Grupo_34827" data-name="Grupo 34827" transform="translate(33.332 11.613)">
                      <path id="Trazado_37501" data-name="Trazado 37501" d="M6561.208,1342.778a3.805,3.805,0,1,0,4.2-3.362A3.805,3.805,0,0,0,6561.208,1342.778Z" transform="translate(-6561.184 -1339.393)" fill="#5a595c"/>
                    </g>
                    <g id="Grupo_34828" data-name="Grupo 34828" transform="translate(0.992 26.825)">
                      <path id="Trazado_37502" data-name="Trazado 37502" d="M6563.686,1358.584l-43.3.711.237,1.765,42.888-.869Z" transform="translate(-6520.384 -1358.584)" fill="#5a595c"/>
                    </g>
                  </g>
                  <path id="Trazado_37503" data-name="Trazado 37503" d="M6570.766,1320.578l.268,1.554-12.164.733.017-2.616Z" transform="translate(-6527.372 -1316.437)" fill="#e49c72"/>
                  <path id="Trazado_37504" data-name="Trazado 37504" d="M6551.385,1342.936l-12.6,2.237S6541.856,1354.784,6551.385,1342.936Z" transform="translate(-6523.207 -1321.141)" fill="#b6b6b7"/>
                </g>
                <path id="Trazado_37505" data-name="Trazado 37505" d="M6523.036,1025.195l-18.2,4.516s3.342,27.587-9.924,48.617c0,0,31.72,10.164,69.348.07,0,0-14.96-15.517-11.912-49.867Z" transform="translate(-6435.421 -883.997)" fill="#f9ae3b"/>
                <path id="Trazado_37506" data-name="Trazado 37506" d="M6504.14,1311.306h18.4l-.946,6.554h-16.942Z" transform="translate(-6437.334 -943.322)" fill="#174f87"/>
                <path id="Trazado_37507" data-name="Trazado 37507" d="M6552.927,1311.306h18.4l-.946,6.554h-16.942Z" transform="translate(-6447.449 -943.322)" fill="#174f87"/>
                <g id="Grupo_34832" data-name="Grupo 34832" transform="translate(57.894 95.435)">
                  <path id="Trazado_37508" data-name="Trazado 37508" d="M6501.7,972.708s4.716,28.221-5.687,43.879c0,0,3.435,27.675-3.119,44.972,0,0,13.4,5.42,27.183,3.8,0,0,4.466-61.176-7.445-96.3Z" transform="translate(-6492.897 -967.792)" fill="#4b687f"/>
                  <path id="Trazado_37509" data-name="Trazado 37509" d="M6503.709,971.366s5.948,31.559-7.136,48.795l-1-4.005s11.127-17.6,5.341-42.969Z" transform="translate(-6493.453 -968.271)" fill="#415b6d"/>
                  <path id="Trazado_37510" data-name="Trazado 37510" d="M6504.382,1038.5v5.234l7.148,3,6.779-3.277V1038.5Z" transform="translate(-6495.279 -982.19)" fill="#324854"/>
                  <path id="Trazado_37511" data-name="Trazado 37511" d="M6502.678,1036.83h17.211v2.64h-17.575Z" transform="translate(-6494.849 -981.844)" fill="#27373f"/>
                  <g id="Grupo_34831" data-name="Grupo 34831" transform="translate(14.893 59.066)">
                    <circle id="Elipse_794" data-name="Elipse 794" cx="1.359" cy="1.359" r="1.359" fill="#cacaca"/>
                    <ellipse id="Elipse_795" data-name="Elipse 795" cx="0.15" cy="1.348" rx="0.15" ry="1.348" transform="translate(1.208)" fill="#979797"/>
                  </g>
                  <path id="Trazado_37512" data-name="Trazado 37512" d="M6496.178,1062.177a102.845,102.845,0,0,0,26.071.361v2.306s-13.156,2.916-26.513-.786Z" transform="translate(-6493.486 -987.1)" fill="#324854"/>
                  <path id="Trazado_37513" data-name="Trazado 37513" d="M6494.4,1074.03a91.466,91.466,0,0,0,26.8,1.569l-.116,2.752s-13.68,2.9-27.229-2.1Z" transform="translate(-6493.094 -989.558)" fill="#27373f"/>
                  <path id="Trazado_37514" data-name="Trazado 37514" d="M6515.75,968.607s4.226,15.089,7.653,41.914c3.4,26.587,0,55.906,0,55.906l3-.465s1.208-36.232-.76-56.26a393.419,393.419,0,0,0-7.066-42.24Z" transform="translate(-6497.635 -967.461)" fill="#415b6d"/>
                </g>
                <g id="Grupo_34834" data-name="Grupo 34834" transform="translate(96.981 96.042)">
                  <path id="Trazado_37515" data-name="Trazado 37515" d="M6562.827,973.474s-4.716,28.221,5.688,43.879c0,0-3.435,27.675,3.12,44.971,0,0-13.4,5.421-27.184,3.8,0,0-4.466-61.177,7.445-96.306Z" transform="translate(-6542.503 -968.557)" fill="#4b687f"/>
                  <path id="Trazado_37516" data-name="Trazado 37516" d="M6565.667,972.132s-5.948,31.559,7.136,48.795l1-4.006s-11.127-17.6-5.341-42.968Z" transform="translate(-6546.792 -969.037)" fill="#415b6d"/>
                  <path id="Trazado_37517" data-name="Trazado 37517" d="M6563.832,1039.261v5.234l-7.149,3-6.78-3.277v-4.961Z" transform="translate(-6543.804 -982.956)" fill="#324854"/>
                  <path id="Trazado_37518" data-name="Trazado 37518" d="M6564.581,1037.6h-17.211v2.64h17.575Z" transform="translate(-6543.278 -982.611)" fill="#27373f"/>
                  <g id="Grupo_34833" data-name="Grupo 34833" transform="translate(11.52 59.066)">
                    <circle id="Elipse_796" data-name="Elipse 796" cx="1.359" cy="1.359" r="1.359" fill="#cacaca"/>
                    <ellipse id="Elipse_797" data-name="Elipse 797" cx="0.15" cy="1.348" rx="0.15" ry="1.348" transform="translate(1.208)" fill="#979797"/>
                  </g>
                  <path id="Trazado_37519" data-name="Trazado 37519" d="M6568.742,1062.942a102.84,102.84,0,0,1-26.071.361v2.307s13.157,2.916,26.513-.786Z" transform="translate(-6542.304 -987.866)" fill="#324854"/>
                  <path id="Trazado_37520" data-name="Trazado 37520" d="M6553.224,969.373s-4.226,15.089-7.652,41.913c-3.4,26.588,0,55.906,0,55.906l-3-.464s-1.207-36.232.76-56.26a393.358,393.358,0,0,1,7.066-42.24Z" transform="translate(-6542.209 -968.227)" fill="#415b6d"/>
                  <path id="Trazado_37521" data-name="Trazado 37521" d="M6555.144,1072.76s3.4,6.756,12.745,8.536l1.336-1.86s-8.528-1.876-11.306-7.768Z" transform="translate(-6544.889 -989.675)" fill="#27373f"/>
                </g>
                <path id="Trazado_37522" data-name="Trazado 37522" d="M6474.856,1009.955l16.052,6.433-2.124,2.549-15.719-6.919Z" transform="translate(-6430.891 -880.838)" fill="#ef5a24"/>
                <path id="Trazado_37523" data-name="Trazado 37523" d="M6577.166,1017.352l14.019-8.163,1.3,2.67-14.008,6.919Z" transform="translate(-6452.476 -880.679)" fill="#ef5a24"/>
                <path id="Trazado_37524" data-name="Trazado 37524" d="M6539.8,871.818a42.477,42.477,0,0,1-29.145,9.953s5.971-1.773,8.545-4.953c0,0-13.327,3.253-15.391,14.587,0,0-3.772-3.01-2.147-8.708,0,0-3.884,6.509,2.83,13.451,0,0-10.028-2.118-8.937-12.92s9.761-37.385,37.532-32.53,16.377,26.34,16.377,26.34,6.42,6.821,5.32,13.3-9.1,10.244-9.1,10.244S6548.722,882.378,6539.8,871.818Z" transform="translate(-6435.537 -847.694)" fill="#1b2b3f"/>
                <path id="Trazado_37525" data-name="Trazado 37525" d="M6566.6,881.241a10.469,10.469,0,0,0,4.306-9.1s1.632,6.8-1.523,9.1c0,0,4.375.485,4.675,4.248,0,0-3.606-2.69-6.886-2.306S6566.6,881.241,6566.6,881.241Z" transform="translate(-6450.066 -852.261)" fill="#1b2b3f"/>
                <path id="Trazado_37526" data-name="Trazado 37526" d="M6541.485,877.037s-3.723,7.283-16.079,8.5C6525.406,885.533,6535.57,882.984,6541.485,877.037Z" transform="translate(-6441.744 -853.277)" fill="#7497b3"/>
                <path id="Trazado_37527" data-name="Trazado 37527" d="M6536.741,877.037a13.317,13.317,0,0,1-8.3,5.462Z" transform="translate(-6442.372 -853.277)" fill="#7497b3"/>
                <path id="Trazado_37528" data-name="Trazado 37528" d="M6501.81,915.221l-1.124,5.3h2.262l.512-4.75Z" transform="translate(-6436.618 -861.195)" fill="#f74175"/>
                <path id="Trazado_37529" data-name="Trazado 37529" d="M6565.447,913.073l1.124,5.3h-2.263l-.511-4.75Z" transform="translate(-6449.703 -860.749)" fill="#f74175"/>
                <path id="Trazado_37530" data-name="Trazado 37530" d="M6425.737,971.366l14.229.6-.273,4.963-15.169-2.41Z" transform="translate(-6420.826 -872.836)" fill="#f74175"/>
                <path id="Trazado_37531" data-name="Trazado 37531" d="M6424.523,977.117l15.169-8.89.273,1.191L6425.646,979Z" transform="translate(-6420.826 -872.185)" fill="#04adc5"/>
              </g>
            </g>
          </g>
        </g>
      </g>
    </g>
  </g>
</svg>
