<svg xmlns="http://www.w3.org/2000/svg" xmlns:xlink="http://www.w3.org/1999/xlink" width="264" height="256" viewBox="0 0 264 256">
  <defs>
    <clipPath id="clip-path">
      <path id="Trazado_36958" data-name="Trazado 36958" d="M6235.213,969.36c-7.1-5.218,10.731-7.906,5.48-10.23l2.192-112.068H6062.462l-15.445,59.163c0,30.031,5.255,42.182,0,56.721-12.148,33.615,0,33.048,0,47.741,0,22.877,45.188,12.059,53.088,49.622,0,0,.554,26.752,44.356,26.752,29.386,0,32.573-7.347,50.039-37.287s28.4-8.594,44.9-23.148S6246.432,977.6,6235.213,969.36Z" transform="translate(-6041.618 -847.062)" fill="none"/>
    </clipPath>
  </defs>
  <g id="Grupo_3998" data-name="Grupo 3998" transform="translate(-48 -120)">
    <g id="Grupo_3997" data-name="Grupo 3997">
      <g id="Grupo_3995" data-name="Grupo 3995">
        <rect id="Rectángulo_2130" data-name="Rectángulo 2130" width="264" height="256" transform="translate(48 120)" fill="none"/>
        <g id="Grupo_34584" data-name="Grupo 34584" transform="translate(-5965.806 -717.062)">
          <path id="Trazado_36881" data-name="Trazado 36881" d="M6101.26,1076.9s.554,26.752,44.355,26.752c29.386,0,32.573-7.347,50.039-37.287s28.4-8.594,44.9-23.148,11.5-48.677-10.377-55.469c-40.118-12.45-36.6-19.936-62.521-38.51s-82.106-2.981-94.256,30.633-25.228,32.713-25.228,47.406C6048.171,1050.153,6093.359,1039.335,6101.26,1076.9Z" transform="translate(-1.154 -16.589)" fill="#6d31ff"/>
          <g id="Grupo_34609" data-name="Grupo 34609" transform="translate(6041.617 847.062)">
            <g id="Grupo_34608" data-name="Grupo 34608" clip-path="url(#clip-path)">
              <g id="Grupo_34607" data-name="Grupo 34607" transform="translate(42.03 -0.257)">
                <path id="Trazado_36882" data-name="Trazado 36882" d="M6234.133,1048.269a30.2,30.2,0,0,1-7.82-.632c-3.64-.771-9.362-4.028-16.986-23.338-3.886-9.837-6.466-19.246-6.573-19.641a4.131,4.131,0,0,1,7.971-2.175c.025.093,2.585,9.42,6.308,18.84,6.784,17.16,10.822,18.2,10.99,18.23,8.034,1.7,12.9-1.471,13.1-1.607l2.341,3.4,2.385,3.373a19.743,19.743,0,0,1-5.579,2.512A26.629,26.629,0,0,1,6234.133,1048.269Z" transform="translate(-6111.986 -873.627)" fill="#d4996b"/>
                <path id="Trazado_36883" data-name="Trazado 36883" d="M6123.394,865.866s-1.111-9.2,2.579-11.448,5.9-7.667,5.9-7.667,1.342,3.666,0,6.012c0,0,5.939-4.75,10.175-4.4,0,0-2.862,2.577-2.862,4.4s15.407-3.986,16.445-6.012c0,0,1.287,2.246-1.616,4.2,0,0,9.93-.865,13.907,2.423s7.845,9.092,10.846,7.487c0,0-1.958,2.972-7.7,2.156a11.272,11.272,0,0,1,11.048,7.554c3.289,8.248-4.248,7.729-2.038,13.441s2.882,8.258,2.882,8.258l-6.809-3.366s8.383,2.734,5.792,8.833-8.055,16.567-1.865,17.26c0,0-5.094,3.617-14.77-4.51S6123.394,865.866,6123.394,865.866Z" transform="translate(-6098.016 -846.75)" fill="#231f20"/>
                <path id="Trazado_36884" data-name="Trazado 36884" d="M6117.3,873.41s-6.383,3.906-7.434,8.072-8.52,6.075-8.52,6.075,12.954,1.389,12.837-1.042-11.9,7.465-6.536,11.978,1.984,13.532-3.035,13.058c0,0,12.138.157,15.29-5.93,0,0-16.223,10.665-14.356,17.783,0,0,8.156-6.839,10.737-2.951s-2.277,8.246-5.049,8.246,9.22,2.951,12.445-2.431,2.758-26.3,2.758-26.3S6122.167,873.671,6117.3,873.41Z" transform="translate(-6094.162 -851.443)" fill="#231f20"/>
                <g id="Grupo_34584-2" data-name="Grupo 34584" transform="translate(72.427 49.568)">
                  <circle id="Elipse_715" data-name="Elipse 715" cx="4.282" cy="4.282" r="4.282" fill="#d4996b"/>
                  <circle id="Elipse_716" data-name="Elipse 716" cx="2.512" cy="2.512" r="2.512" transform="translate(1.77 1.77)" fill="#ca8a5c"/>
                </g>
                <g id="Grupo_34585" data-name="Grupo 34585" transform="translate(22.492 49.568)">
                  <circle id="Elipse_717" data-name="Elipse 717" cx="4.282" cy="4.282" r="4.282" fill="#d4996b"/>
                  <circle id="Elipse_718" data-name="Elipse 718" cx="2.512" cy="2.512" r="2.512" transform="translate(1.77 1.77)" fill="#ca8a5c"/>
                </g>
                <path id="Trazado_36885" data-name="Trazado 36885" d="M6141.05,964.327l27.441-1.719-12.6,32.362Z" transform="translate(-6101.15 -867.144)" fill="#de8d0e"/>
                <path id="Trazado_36886" data-name="Trazado 36886" d="M6165.286,951.309l-2.779,18.942H6147.7l-1.594-19.408Z" transform="translate(-6102.041 -865.073)" fill="#d4996b"/>
                <path id="Trazado_36887" data-name="Trazado 36887" d="M6164.36,957.613s-10.749,5.131-17.681.224l-.573-6.995,19.179.466Z" transform="translate(-6102.041 -865.073)" fill="#b87c52"/>
                <path id="Trazado_36888" data-name="Trazado 36888" d="M6163.607,1117.465s-2.151-26.258,8.6-26.979c8.891-.6,10.569,4.247,11.955,18.172,1.346,13.511,2.648,80.428-9.016,81.149C6167.64,1190.273,6165.683,1183.081,6163.607,1117.465Z" transform="translate(-6105.089 -889.645)" fill="#bf8e63"/>
                <path id="Trazado_36889" data-name="Trazado 36889" d="M6130.484,1116.151s-1.625-26.295,8.6-26.781c8.458-.4,9.976,4.477,11.068,18.427,1.062,13.536,1.228,80.457-9.867,80.923C6133.149,1189.021,6131.406,1181.79,6130.484,1116.151Z" transform="translate(-6099.274 -889.453)" fill="#bf8e63"/>
                <path id="Trazado_36890" data-name="Trazado 36890" d="M6147.238,1194.429s-.707-9.991-6.2-9.919-7.969,8.354-6.846,13.829-3.268,33.073-1.557,42.918,4.2,29.966,4.2,29.966h8.122Z" transform="translate(-6099.598 -906.204)" fill="#bf8e63"/>
                <path id="Trazado_36891" data-name="Trazado 36891" d="M6168.647,1194.429s.706-9.991,6.2-9.919,7.969,8.354,6.846,13.829,3.268,33.073,1.557,42.918-4.195,28.4-4.195,28.4l-8.123,1.024Z" transform="translate(-6106.009 -906.204)" fill="#bf8e63"/>
                <path id="Trazado_36892" data-name="Trazado 36892" d="M6175.624,918.08,6174.7,880.7s-2.56-15.934-27.206-14.737-22.847,22.719-22.847,22.719l.125.025,2.28,31.55a10.517,10.517,0,0,0,4.531,9.225l8.8,6.8c12.528,9.469,21.324,1.215,21.324,1.215l5.724-3.579A16.824,16.824,0,0,0,6175.624,918.08Z" transform="translate(-6098.257 -850.12)" fill="#d4996b"/>
                <path id="Trazado_36893" data-name="Trazado 36893" d="M6175.959,925.38l-.444-18.015c-5.932-.079-6.922,11.328-7,18.478-1.084-.47-6.679-2.368-11.367.629a25.979,25.979,0,0,0-7.908-2.006c-3.8-.194-8.927,1.9-10.42,4.83-4-6.3-7.121-13.012-7.646-13.744-.991-1.381-4.653,0-4.653,0l.868,12a10.514,10.514,0,0,0,4.531,9.225l8.795,6.8c5.237,3.958,9.818,4.814,13.381,4.477l2.891-.566a13.787,13.787,0,0,0,5.052-2.7l5.723-3.579A16.821,16.821,0,0,0,6175.959,925.38ZM6159.9,940.063a1.728,1.728,0,0,1-2.134-1.684l-3.141.225c0,2.642-4.311,2.021-4.311,2.021-2.555-.327-5.354-2.921-8.008-6.327,1.358-1.893,3.349-5.232,8.185-4.845a73.239,73.239,0,0,0,14.206-.506c.715-.1,2.279,1.588,3.743,2.962C6167.467,935.836,6161.826,939.86,6159.9,940.063Z" transform="translate(-6098.594 -857.419)" fill="#ca8a5c" opacity="0.78"/>
                <path id="Trazado_36894" data-name="Trazado 36894" d="M6179.967,977.645c-6.549-2.673-15.156-5.914-26.368-6.735s-32.041,7.909-32.041,7.909-9.689,5.436.678,16.579l8.355,62.266a73.675,73.675,0,0,0,44.281-2.992l5.095-58.09S6192.5,988.139,6179.967,977.645Z" transform="translate(-6096.996 -868.596)" fill="#d4996b"/>
                <ellipse id="Elipse_719" data-name="Elipse 719" cx="17.465" cy="22.516" rx="17.465" ry="22.516" transform="translate(32.2 201.775) rotate(-87.768)" fill="#eda678"/>
                <path id="Trazado_36895" data-name="Trazado 36895" d="M6156.932,1051.494c-.686,0-24.792,5.293-24.792,5.293s-1.73,28.682-1.829,38.55c-.093,9.158,48.918,9.5,48.429,1.257-.645-10.875-1.6-38.053-1.6-38.053Z" transform="translate(-6099.261 -882.79)" fill="#bf8e63"/>
                <path id="Trazado_36896" data-name="Trazado 36896" d="M6192.359,983.6s2.946-4.9,6.454-4.8,15.638,14.284,19.187,23a24.246,24.246,0,0,1-16.369,10.3S6190.3,995.963,6192.359,983.6Z" transform="translate(-6110.138 -869.994)" fill="#ffc039"/>
                <path id="Trazado_36897" data-name="Trazado 36897" d="M6183.377,1067.561c.615,11.9-5.636,21.913-12.026,27.8a26.594,26.594,0,0,1-16.989,7.115c-16.234.913-31.173-10.882-31.155-30,0,0-1.594-33.22,24.9-34.34C6174.09,1037.044,6183.24,1053.7,6183.377,1067.561Z" transform="translate(-6098.007 -880.431)" fill="#30302f"/>
                <path id="Trazado_36898" data-name="Trazado 36898" d="M6162.5,1105.783l5.248,136.38,13.3-.33,9.29-155.8Z" transform="translate(-6104.926 -888.87)" fill="#30302f"/>
                <path id="Trazado_36899" data-name="Trazado 36899" d="M6150.4,1105.783l-5.281,137.252h-13.2l-9.362-157Z" transform="translate(-6097.895 -888.87)" fill="#30302f"/>
                <g id="Grupo_34589" data-name="Grupo 34589" transform="translate(20.344 95.464)">
                  <path id="Trazado_36900" data-name="Trazado 36900" d="M6117.316,977.4l20.933-8.5,13.466,27,11.211-28,23.2,9.056-6.181,21.687,5.57,75.451c-31.8,8.894-65.663.477-65.663.477l2.849-75.036Z" transform="translate(-6117.316 -963.54)" fill="#ffac0d"/>
                  <g id="Grupo_34588" data-name="Grupo 34588" transform="translate(28.298 25.379)">
                    <path id="Trazado_36901" data-name="Trazado 36901" d="M6154.654,995.551h-2.994l5.011,8.48v8.4h3.054l-.19-8.973,5.444-10.05-3.8.719-3.417,6.264-2.2-3.036" transform="translate(-6151.661 -993.409)" fill="#ffd380"/>
                    <g id="Grupo_34586" data-name="Grupo 34586" transform="translate(5.266 8.217)">
                      <path id="Trazado_36902" data-name="Trazado 36902" d="M6160.175,1004.442a1.062,1.062,0,1,1-1.061-1.061A1.061,1.061,0,0,1,6160.175,1004.442Z" transform="translate(-6158.051 -1003.381)" fill="#ffac0d"/>
                      <circle id="Elipse_720" data-name="Elipse 720" cx="0.253" cy="0.253" r="0.253" transform="translate(0.453 0.484)" fill="#de8d0e"/>
                      <circle id="Elipse_721" data-name="Elipse 721" cx="0.253" cy="0.253" r="0.253" transform="translate(0.453 1.115)" fill="#de8d0e"/>
                      <circle id="Elipse_722" data-name="Elipse 722" cx="0.253" cy="0.253" r="0.253" transform="translate(1.137 0.485)" fill="#de8d0e"/>
                      <circle id="Elipse_723" data-name="Elipse 723" cx="0.253" cy="0.253" r="0.253" transform="translate(1.137 1.115)" fill="#de8d0e"/>
                    </g>
                    <g id="Grupo_34587" data-name="Grupo 34587" transform="translate(5.266 10.798)">
                      <path id="Trazado_36903" data-name="Trazado 36903" d="M6160.175,1007.575a1.062,1.062,0,1,1-1.061-1.061A1.061,1.061,0,0,1,6160.175,1007.575Z" transform="translate(-6158.051 -1006.514)" fill="#ffac0d"/>
                      <circle id="Elipse_724" data-name="Elipse 724" cx="0.253" cy="0.253" r="0.253" transform="translate(0.453 0.484)" fill="#de8d0e"/>
                      <circle id="Elipse_725" data-name="Elipse 725" cx="0.253" cy="0.253" r="0.253" transform="translate(0.453 1.115)" fill="#de8d0e"/>
                      <circle id="Elipse_726" data-name="Elipse 726" cx="0.253" cy="0.253" r="0.253" transform="translate(1.137 0.485)" fill="#de8d0e"/>
                      <circle id="Elipse_727" data-name="Elipse 727" cx="0.253" cy="0.253" r="0.253" transform="translate(1.137 1.115)" fill="#de8d0e"/>
                    </g>
                  </g>
                  <path id="Trazado_36904" data-name="Trazado 36904" d="M6159.154,995.021l13.022-12.822-1.426-3.744s6.584.349,7.39-2.231c0,0-2.435-10.115-6.463-13.615l-6,14.193S6158.937,993.544,6159.154,995.021Z" transform="translate(-6124.681 -962.608)" fill="#ffc039"/>
                  <path id="Trazado_36905" data-name="Trazado 36905" d="M6154.8,995.388l-14.034-11.117,1.158-3.835s-6.542.813-7.53-1.7c0,0,1.716-10.263,5.486-14.038l6.986,13.734S6154.907,993.9,6154.8,995.388Z" transform="translate(-6120.322 -962.975)" fill="#ffc039"/>
                  <path id="Trazado_36906" data-name="Trazado 36906" d="M6185.879,1015.966l-.795-10.754-38.564,2.064,1.139,16.179,8.363,3.5.1,24.566,12.749,15.315,20.686-1.05Z" transform="translate(-6122.458 -970.108)" fill="#ca9140" opacity="0.34"/>
                </g>
                <path id="Trazado_36907" data-name="Trazado 36907" d="M6136.254,1103.612s-1.717,6.295-6.753,9.386l1.145,1.065s6.409-4.5,7.326-9.307Z" transform="translate(-6099.119 -891.964)" fill="#141412"/>
                <path id="Trazado_36908" data-name="Trazado 36908" d="M6184.424,1103.612s1.717,6.295,6.752,9.386l-1.144,1.065s-6.411-4.5-7.327-9.307Z" transform="translate(-6108.482 -891.964)" fill="#141412"/>
                <g id="Grupo_34590" data-name="Grupo 34590" transform="translate(41.357 45.665)">
                  <path id="Trazado_36909" data-name="Trazado 36909" d="M6149.97,905.553a3.581,3.581,0,1,1-3.577-3.383A3.485,3.485,0,0,1,6149.97,905.553Z" transform="translate(-6142.819 -902.17)" fill="#231f20"/>
                  <path id="Trazado_36910" data-name="Trazado 36910" d="M6148.421,905.194a.932.932,0,0,1-.012,1.26c-.456.505.292,1.257.75.75a1.979,1.979,0,0,0,.178-2.545.548.548,0,0,0-.725-.19.534.534,0,0,0-.191.725Z" transform="translate(-6143.777 -902.562)" fill="#fff"/>
                </g>
                <g id="Grupo_34591" data-name="Grupo 34591" transform="translate(64.048 45.665)">
                  <path id="Trazado_36911" data-name="Trazado 36911" d="M6177.508,905.553a3.581,3.581,0,1,1-3.576-3.383A3.484,3.484,0,0,1,6177.508,905.553Z" transform="translate(-6170.357 -902.17)" fill="#231f20"/>
                  <path id="Trazado_36912" data-name="Trazado 36912" d="M6175.96,905.194a.933.933,0,0,1-.013,1.26c-.455.505.292,1.257.75.75a1.977,1.977,0,0,0,.179-2.545.548.548,0,0,0-.725-.19.533.533,0,0,0-.19.725Z" transform="translate(-6171.316 -902.562)" fill="#fff"/>
                </g>
                <path id="Trazado_36913" data-name="Trazado 36913" d="M6147.569,898.295s-4.5.353-6.305,1.528a15.228,15.228,0,0,0-3.289,3.172s.039-3.525,1.644-4.7,6.619-3.055,7.95-2.154S6148.428,898.278,6147.569,898.295Z" transform="translate(-6100.609 -855.402)" fill="#231f20"/>
                <path id="Trazado_36914" data-name="Trazado 36914" d="M6169.2,896.561s4.5.352,6.3,1.527a15.221,15.221,0,0,1,3.291,3.172s-.04-3.525-1.645-4.7-6.619-3.055-7.951-2.155S6168.342,896.545,6169.2,896.561Z" transform="translate(-6105.959 -855.097)" fill="#231f20"/>
                <g id="Grupo_34592" data-name="Grupo 34592" transform="translate(53.06 54.608)">
                  <path id="Trazado_36915" data-name="Trazado 36915" d="M6167.816,917.858v0l-.038.005c-.074.007-.146.011-.224.019l-.084.023c-3.249.438-4.74-.358-4.935-.473a7.936,7.936,0,0,1-2.587-2.98c-1.572-2.893-2.679-.531-2.736-.292s-1.534,6.52,4.716,9.135,8.866.227,9.321-.967C6171.7,921.157,6172.437,917.5,6167.816,917.858Z" transform="translate(-6157.021 -913.024)" fill="#b87c52"/>
                  <path id="Trazado_36916" data-name="Trazado 36916" d="M6171.25,922.4c-.456,1.194-3.069,3.58-9.321.967a7.463,7.463,0,0,1-4.9-7.027,7.526,7.526,0,0,0,4.9,7.539c6.252,2.614,8.865.227,9.321-.966a5.2,5.2,0,0,0,.327-2.044A5.455,5.455,0,0,1,6171.25,922.4Z" transform="translate(-6157.021 -913.608)" fill="#9e6b47"/>
                </g>
                <path id="Trazado_36917" data-name="Trazado 36917" d="M6130.381,869.081s-2.423-9.126,15.925-10.223,31.168,8.517,30.714,22.245-2.213,17.7-2.213,17.7-4.121-5.171-3.964-15.2c0,0-2.585-5.091-6.658-5.248,0,0-2.428,4.543-.705,7.284,0,0-4.725-.235-5.338-3.368,0,0-.875,3.76,0,5.248,0,0-4.3-.784-5.784-4.151,0,0-.706,3.838,1.8,5.561,0,0-7.885-.705-10.208-7.363,0,0-.026,3.838,1.148,5.248,0,0-7.153-3.211-7.781-9.4,0,0-1.722,9.635-4.62,12.689s1.285,14.961-7.152,15.2c0,0-6.209-25.1-2.169-31.958A8.388,8.388,0,0,1,6130.381,869.081Z" transform="translate(-6097.799 -848.866)" fill="#231f20"/>
                <g id="Grupo_34593" data-name="Grupo 34593" transform="translate(48.703 73.222)">
                  <path id="Trazado_36918" data-name="Trazado 36918" d="M6152.346,935.923s10.332,1.814,16.191-.306c0,0,1.046-.086.374.669,0,0-6.215,13.4-16.91.122C6152,936.409,6151.21,935.787,6152.346,935.923Z" transform="translate(-6151.733 -935.615)" fill="#352626"/>
                  <path id="Trazado_36919" data-name="Trazado 36919" d="M6167.856,937.236a2.149,2.149,0,0,0,1.055-.949c.672-.755-.374-.669-.374-.669-5.86,2.12-16.191.306-16.191.306-1.135-.136-.345.485-.345.485.308.381.61.74.912,1.078C6152.913,937.486,6160.882,940.129,6167.856,937.236Z" transform="translate(-6151.733 -935.615)" fill="#fff"/>
                </g>
                <path id="Trazado_36920" data-name="Trazado 36920" d="M6126.961,865.351s-12.418-3.466-16.678,1.718-7.708,6.393-7.708,6.393l9.737-1.67s-4.42,3.038-.666,8.073l14.6-8.827Z" transform="translate(-6094.377 -849.825)" fill="#231f20"/>
                <path id="Trazado_36921" data-name="Trazado 36921" d="M6111.372,1058.056a23.758,23.758,0,0,1-7.684-1.131,14.263,14.263,0,0,1-8.71-7.87c-3.624-8.293-3.056-19.805,1.685-34.214a124.748,124.748,0,0,1,7.914-18.686,4.13,4.13,0,0,1,7.259,3.943c-4.5,8.306-14.947,32.7-9.288,45.65a5.973,5.973,0,0,0,3.83,3.365,15.7,15.7,0,0,0,5.064.724c11.5,0,29.162-7.912,36.891-12.1a4.129,4.129,0,0,1,5.924,4.811,4.091,4.091,0,0,1-1.992,2.454c-2.467,1.336-24.575,13.05-40.89,13.051Z" transform="translate(-6092.627 -872.669)" fill="#d4996b"/>
                <path id="Trazado_36922" data-name="Trazado 36922" d="M6107.34,1014.358l-6.979-4.268c-.187.283-.366.564-.545.845-.824,2.076-1.661,4.342-2.449,6.738-.264.8-.509,1.589-.748,2.372,2.708,1.313,5.829,2.723,7.6,3.513C6105.138,1020.348,6106.224,1017.225,6107.34,1014.358Z" transform="translate(-6093.329 -875.502)" fill="#b87c52"/>
                <path id="Trazado_36923" data-name="Trazado 36923" d="M6119.671,984.227s-2.948-4.9-6.453-4.8-15.639,14.284-19.187,23a24.247,24.247,0,0,0,16.369,10.3S6121.732,996.589,6119.671,984.227Z" transform="translate(-6092.874 -870.105)" fill="#ffc039"/>
                <g id="Grupo_34594" data-name="Grupo 34594" transform="translate(125.241 156.957)">
                  <path id="Trazado_36924" data-name="Trazado 36924" d="M6248.447,1045.963l-.818-.294a1,1,0,0,1-.6-1.283l1.8-6.486a1,1,0,0,1,1.282-.6l1.761.634a1.006,1.006,0,0,1,.6,1.283l-2.744,6.146A1.006,1.006,0,0,1,6248.447,1045.963Z" transform="translate(-6245.035 -1037.237)" fill="#b87c52"/>
                  <path id="Trazado_36925" data-name="Trazado 36925" d="M6261.239,1051.839c.121-.04,1.856-.51,1.968-.57,1.083-.578.978-1.679.505-2.755l-2.174-9.532a2.182,2.182,0,0,0-.512-1.025,2.241,2.241,0,0,0-2.529-.508l-12.49,6.616a2.432,2.432,0,0,0-.976.984,3.009,3.009,0,0,0,.073,3.12l1.939,4.416c.889,2.585,2.263,2.65,3.4,2.15Z" transform="translate(-6244.623 -1037.241)" fill="#d4996b"/>
                </g>
                <g id="Grupo_34595" data-name="Grupo 34595" transform="translate(63.155 358.207)">
                  <path id="Trazado_36926" data-name="Trazado 36926" d="M6170.174,1281.479s.106,15.16-.9,17v3.621l24.9,1.2s6.424.373,6.6-4.449c0,0-.425-2.966-6.047-3.309a27.227,27.227,0,0,1-13.708-13.654l-3.378.679S6172.912,1283.593,6170.174,1281.479Z" transform="translate(-6169.273 -1281.479)" fill="#ffc039"/>
                  <path id="Trazado_36927" data-name="Trazado 36927" d="M6169.273,1302.019v3.62l24.9,1.2s6.424.373,6.6-4.449a2.36,2.36,0,0,0-.33-.8S6188.65,1303.947,6169.273,1302.019Z" transform="translate(-6169.273 -1285.018)" fill="#fff"/>
                  <path id="Trazado_36928" data-name="Trazado 36928" d="M6202.567,1298.933s-.425-2.966-6.047-3.309a27.229,27.229,0,0,1-13.708-13.654l-3.378.679S6187.813,1302.542,6202.567,1298.933Z" transform="translate(-6171.062 -1281.565)" fill="#ffac0d"/>
                  <path id="Trazado_36929" data-name="Trazado 36929" d="M6182.688,1284.779s1.259-1.429,2.147-.054a1.417,1.417,0,0,0-2.53-.5Z" transform="translate(-6171.567 -1281.851)" fill="#fff"/>
                  <path id="Trazado_36930" data-name="Trazado 36930" d="M6184.088,1287.145s1.2-1.476,2.146-.139a1.417,1.417,0,0,0-2.547-.395Z" transform="translate(-6171.81 -1282.262)" fill="#fff"/>
                  <path id="Trazado_36931" data-name="Trazado 36931" d="M6185.136,1288.94s1.261-1.429,2.148-.054a1.418,1.418,0,0,0-2.531-.5Z" transform="translate(-6171.998 -1282.583)" fill="#fff"/>
                  <path id="Trazado_36932" data-name="Trazado 36932" d="M6186.882,1290.83s1.2-1.477,2.144-.139a1.418,1.418,0,0,0-2.548-.4Z" transform="translate(-6172.301 -1282.91)" fill="#fff"/>
                  <path id="Trazado_36933" data-name="Trazado 36933" d="M6171.58,1304.158s18.71,1.769,25.457.679c0,0,1.479-.079-.02.536,0,0-8.379,1.7-25.735-.42C6171.282,1304.952,6169.432,1304.212,6171.58,1304.158Z" transform="translate(-6169.496 -1285.471)" fill="#b2b2b3"/>
                  <path id="Trazado_36934" data-name="Trazado 36934" d="M6200.17,1298.54l1.642,2.743,4.075-.234S6204.988,1298.853,6200.17,1298.54Z" transform="translate(-6174.712 -1284.482)" fill="#ffd380"/>
                  <path id="Trazado_36935" data-name="Trazado 36935" d="M6170.119,1289.952s8.019,2.932,8.189,10.656l-9.035-.637S6169.9,1295.326,6170.119,1289.952Z" transform="translate(-6169.273 -1282.971)" fill="#ffac0d"/>
                </g>
                <g id="Grupo_34596" data-name="Grupo 34596" transform="translate(35.079 358.207)">
                  <path id="Trazado_36936" data-name="Trazado 36936" d="M6136.1,1281.479s.107,15.16-.9,17v3.621l24.9,1.2s6.424.373,6.6-4.449c0,0-.426-2.966-6.046-3.309a27.232,27.232,0,0,1-13.709-13.654l-3.378.679S6138.838,1283.593,6136.1,1281.479Z" transform="translate(-6135.198 -1281.479)" fill="#ffc039"/>
                  <path id="Trazado_36937" data-name="Trazado 36937" d="M6135.2,1302.019v3.62l24.9,1.2s6.424.373,6.6-4.449a2.351,2.351,0,0,0-.33-.8S6154.575,1303.947,6135.2,1302.019Z" transform="translate(-6135.198 -1285.018)" fill="#fff"/>
                  <path id="Trazado_36938" data-name="Trazado 36938" d="M6168.493,1298.933s-.425-2.966-6.046-3.309a27.233,27.233,0,0,1-13.709-13.654l-3.378.679S6153.738,1302.542,6168.493,1298.933Z" transform="translate(-6136.987 -1281.565)" fill="#ffac0d"/>
                  <path id="Trazado_36939" data-name="Trazado 36939" d="M6148.612,1284.779s1.261-1.429,2.148-.054a1.417,1.417,0,0,0-2.529-.5Z" transform="translate(-6137.493 -1281.851)" fill="#fff"/>
                  <path id="Trazado_36940" data-name="Trazado 36940" d="M6150.015,1287.145s1.2-1.476,2.145-.139a1.418,1.418,0,0,0-2.548-.395Z" transform="translate(-6137.736 -1282.262)" fill="#fff"/>
                  <path id="Trazado_36941" data-name="Trazado 36941" d="M6151.062,1288.94s1.26-1.429,2.149-.054a1.418,1.418,0,0,0-2.53-.5Z" transform="translate(-6137.924 -1282.583)" fill="#fff"/>
                  <path id="Trazado_36942" data-name="Trazado 36942" d="M6152.809,1290.83s1.2-1.477,2.143-.139a1.418,1.418,0,0,0-2.548-.4Z" transform="translate(-6138.228 -1282.91)" fill="#fff"/>
                  <path id="Trazado_36943" data-name="Trazado 36943" d="M6137.505,1304.158s18.711,1.769,25.459.679c0,0,1.477-.079-.021.536,0,0-8.377,1.7-25.735-.42C6137.208,1304.952,6135.358,1304.212,6137.505,1304.158Z" transform="translate(-6135.423 -1285.471)" fill="#b2b2b3"/>
                  <path id="Trazado_36944" data-name="Trazado 36944" d="M6166.1,1298.54l1.641,2.743,4.075-.234S6170.913,1298.853,6166.1,1298.54Z" transform="translate(-6140.639 -1284.482)" fill="#ffd380"/>
                  <path id="Trazado_36945" data-name="Trazado 36945" d="M6136.046,1289.952s8.017,2.932,8.188,10.656l-9.035-.637S6135.823,1295.326,6136.046,1289.952Z" transform="translate(-6135.198 -1282.971)" fill="#ffac0d"/>
                </g>
                <path id="Trazado_36946" data-name="Trazado 36946" d="M6132.859,1272.933l15.712-.43-.146,6.353-15.565-.343Z" transform="translate(-6099.708 -921.693)" fill="#232322"/>
                <path id="Trazado_36947" data-name="Trazado 36947" d="M6167.848,1272.933l15.712-.43-.147,6.353-15.565-.343Z" transform="translate(-6105.867 -921.693)" fill="#232322"/>
                <g id="Grupo_34605" data-name="Grupo 34605" transform="translate(52.656 134.884)">
                  <g id="Grupo_34597" data-name="Grupo 34597" transform="translate(17.198 17.809)">
                    <rect id="Rectángulo_3759" data-name="Rectángulo 3759" width="66.76" height="34.719" transform="translate(0 1.109) rotate(-0.952)" fill="#e6af58"/>
                  </g>
                  <g id="Grupo_34598" data-name="Grupo 34598" transform="translate(4.932 7.607)">
                    <path id="Trazado_36948" data-name="Trazado 36948" d="M6174.793,1030.992l-12.276-11.311.468,28.145,12.385,17.885Z" transform="translate(-6162.517 -1019.682)" fill="#ca9140"/>
                  </g>
                  <g id="Grupo_34599" data-name="Grupo 34599" transform="translate(17.26 21.002)" opacity="0.38">
                    <path id="Trazado_36949" data-name="Trazado 36949" d="M6244.23,1035.938l-66.75,1.109.033,6.6,66.751-5.672Z" transform="translate(-6177.48 -1035.938)" fill="#ca9140"/>
                  </g>
                  <g id="Grupo_34600" data-name="Grupo 34600" transform="translate(5.033 13.683)" opacity="0.57">
                    <path id="Trazado_36950" data-name="Trazado 36950" d="M6173.475,1033.991l-10.834-6.936.021,1.286,12.24,13.748-.035-6.608Z" transform="translate(-6162.641 -1027.055)" fill="#ca9140"/>
                  </g>
                  <g id="Grupo_34601" data-name="Grupo 34601">
                    <path id="Trazado_36951" data-name="Trazado 36951" d="M6170.31,1024.376l-13.778-12.7,73.6-1.223,15.1,12.682Z" transform="translate(-6156.532 -1010.449)" fill="#e6af58"/>
                  </g>
                  <g id="Grupo_34602" data-name="Grupo 34602" transform="translate(13.959 12.682)">
                    <rect id="Rectángulo_3760" data-name="Rectángulo 3760" width="74.751" height="8.241" transform="translate(0 1.242) rotate(-0.952)" fill="#f0c689"/>
                  </g>
                  <g id="Grupo_34603" data-name="Grupo 34603" transform="translate(0 1.223)">
                    <path id="Trazado_36952" data-name="Trazado 36952" d="M6170.5,1024.634l-13.964-12.7.13,7.878,13.97,13.063Z" transform="translate(-6156.532 -1011.933)" fill="#ca9140"/>
                  </g>
                  <g id="Grupo_34604" data-name="Grupo 34604" transform="translate(66.431 26.638)">
                    <path id="Trazado_36953" data-name="Trazado 36953" d="M6237.328,1053.461l14.7.563-.187-11.247-14.684.244Z" transform="translate(-6237.154 -1042.778)" fill="#fff"/>
                  </g>
                </g>
                <g id="Grupo_34606" data-name="Grupo 34606" transform="translate(47.602 158.786)">
                  <path id="Trazado_36954" data-name="Trazado 36954" d="M6154.154,1049.126l-.836-.234a1,1,0,0,1-.7-1.236l1.324-6.6a1.008,1.008,0,0,1,1.237-.7l1.8.5a1,1,0,0,1,.7,1.236l-2.291,6.329A1,1,0,0,1,6154.154,1049.126Z" transform="translate(-6150.782 -1039.61)" fill="#b87c52"/>
                  <path id="Trazado_36955" data-name="Trazado 36955" d="M6167.364,1053.872c.119-.048,1.815-.642,1.923-.711,1.037-.656.852-1.746.3-2.785l-2.86-9.349a2.193,2.193,0,0,0-.585-.986,2.242,2.242,0,0,0-2.56-.322l-11.976,7.505a2.435,2.435,0,0,0-.9,1.052,3.008,3.008,0,0,0,.3,3.106l2.254,4.264c1.073,2.514,2.448,2.479,3.542,1.9Z" transform="translate(-6150.397 -1039.457)" fill="#d4996b"/>
                </g>
                <path id="Trazado_36956" data-name="Trazado 36956" d="M6131.754,906.907a52.194,52.194,0,0,0,0,9.8l-5.36.821-1.407-8.845Z" transform="translate(-6098.324 -857.339)" fill="#231f20"/>
                <path id="Trazado_36957" data-name="Trazado 36957" d="M6183.406,899.371s-.3,9.741-.733,13l2.623,0,1.286-11.059Z" transform="translate(-6108.476 -856.013)" fill="#231f20"/>
              </g>
            </g>
          </g>
        </g>
      </g>
    </g>
  </g>
</svg>
