<svg xmlns="http://www.w3.org/2000/svg" xmlns:xlink="http://www.w3.org/1999/xlink" width="264" height="256" viewBox="0 0 264 256">
  <defs>
    <clipPath id="clip-path">
      <path id="Trazado_37160" data-name="Trazado 37160" d="M5865.095,969.36c-7.1-5.218,10.73-7.906,5.48-10.23l2.192-112.068H5692.343L5676.9,906.225c0,30.031,5.255,42.182,0,56.721-12.149,33.615,0,33.048,0,47.741,0,22.877,45.188,12.059,53.088,49.622,0,0,.554,26.752,44.355,26.752,29.387,0,32.574-7.347,50.04-37.287s28.4-8.594,44.9-23.148S5876.313,977.6,5865.095,969.36Z" transform="translate(-5671.499 -847.062)" fill="none"/>
    </clipPath>
  </defs>
  <g id="Grupo_3998" data-name="Grupo 3998" transform="translate(-48 -120)">
    <g id="Grupo_3997" data-name="Grupo 3997">
      <g id="Grupo_3995" data-name="Grupo 3995">
        <rect id="Rectángulo_2130" data-name="Rectángulo 2130" width="264" height="256" transform="translate(48 120)" fill="none"/>
        <g id="Grupo_34658" data-name="Grupo 34658" transform="translate(-5594.709 -717.062)">
          <path id="Trazado_37071" data-name="Trazado 37071" d="M5731.14,1076.9s.555,26.752,44.356,26.752c29.386,0,32.574-7.347,50.039-37.287s28.4-8.594,44.9-23.148,11.506-48.677-10.377-55.469c-40.118-12.449-36.6-19.936-62.52-38.51s-82.107-2.981-94.256,30.633-25.228,32.713-25.228,47.406C5678.052,1050.153,5723.24,1039.335,5731.14,1076.9Z" transform="translate(-1.154 -16.589)" fill="#6d31ff"/>
          <g id="Grupo_34687" data-name="Grupo 34687" transform="translate(5671.499 847.062)">
            <g id="Grupo_34686" data-name="Grupo 34686" clip-path="url(#clip-path)">
              <g id="Grupo_34685" data-name="Grupo 34685" transform="translate(45.633 0.27)">
                <g id="Grupo_34658-2" data-name="Grupo 34658" transform="translate(134.092 80.936)">
                  <path id="Trazado_37072" data-name="Trazado 37072" d="M5906.61,958.839c.1-.068,1.6-.955,1.692-1.04.862-.821.479-1.822-.24-2.705l-4.494-8.343a2.1,2.1,0,0,0-.743-.826,2.172,2.172,0,0,0-2.494.179l-9.958,9.407a2.372,2.372,0,0,0-.659,1.172,2.918,2.918,0,0,0,.875,2.9l2.952,3.624c1.5,2.186,2.8,1.892,3.728,1.132Z" transform="translate(-5889.618 -945.615)" fill="#f7af80"/>
                </g>
                <path id="Trazado_37073" data-name="Trazado 37073" d="M5893.07,958.424l-.793.283a.975.975,0,0,1-1.242-.59l-2.641-5.965a.974.974,0,0,1,.589-1.242l1.708-.609a.975.975,0,0,1,1.242.589l1.725,6.292A.974.974,0,0,1,5893.07,958.424Z" transform="translate(-5755.3 -865.494)" fill="#e08d56"/>
                <path id="Trazado_37074" data-name="Trazado 37074" d="M5889.114,974.9c0-.167,1.791-15.045,1.791-15.045l6.7,6.447L5896.452,977Z" transform="translate(-5755.437 -867.185)" fill="#f7af80"/>
                <path id="Trazado_37075" data-name="Trazado 37075" d="M5729.917,1102.917l1.83,14.89,7.406-.578-3.295-20.477Z" transform="translate(-5727.415 -891.283)" fill="#f7af80"/>
                <path id="Trazado_37076" data-name="Trazado 37076" d="M5761.927,874.935l-3.761-3.2s-6.963,3.993-5.066,11.427,6.6,20.806,6.6,20.806l3.1.962,11.8-34.623Z" transform="translate(-5731.438 -851.423)" fill="#231f20"/>
                <g id="Grupo_34659" data-name="Grupo 34659" transform="translate(23.942 45.687)">
                  <circle id="Elipse_750" data-name="Elipse 750" cx="4.321" cy="4.321" r="4.321" fill="#e8a071"/>
                  <circle id="Elipse_751" data-name="Elipse 751" cx="2.535" cy="2.535" r="2.535" transform="translate(1.786 1.786)" fill="#d18a5b"/>
                </g>
                <path id="Trazado_37077" data-name="Trazado 37077" d="M5821.081,871.4l1.131,3.1s-3.115,16.6,1,22.108h2.989l2.723-19.945S5823.61,869.607,5821.081,871.4Z" transform="translate(-5743.461 -851.564)" fill="#231f20"/>
                <g id="Grupo_34660" data-name="Grupo 34660" transform="translate(76.815 41.365)">
                  <circle id="Elipse_752" data-name="Elipse 752" cx="4.321" cy="4.321" r="4.321" fill="#e8a071"/>
                  <circle id="Elipse_753" data-name="Elipse 753" cx="2.535" cy="2.535" r="2.535" transform="translate(1.786 1.786)" fill="#d18a5b"/>
                </g>
                <path id="Trazado_37078" data-name="Trazado 37078" d="M5814.8,913.676l-.994-40.327s-2.76-17.188-29.347-15.9-24.644,24.507-24.644,24.507l.133.027,2.461,34.033a11.344,11.344,0,0,0,4.888,9.952l9.487,7.334c13.514,10.214,23,1.31,23,1.31l6.174-3.861A18.146,18.146,0,0,0,5814.8,913.676Z" transform="translate(-5732.672 -849.149)" fill="#f7af80"/>
                <path id="Trazado_37079" data-name="Trazado 37079" d="M5803.637,951.39l-2.791,19.023h-14.871l-1.6-19.491Z" transform="translate(-5737 -865.613)" fill="#f7af80"/>
                <path id="Trazado_37080" data-name="Trazado 37080" d="M5802.712,957.693s-10.8,5.18-17.761.253l-.577-7.024,19.262.468Z" transform="translate(-5737 -865.613)" fill="#e08d56"/>
                <path id="Trazado_37081" data-name="Trazado 37081" d="M5801.51,1124.752s-2.229-27.2,8.906-27.95c9.212-.618,10.951,4.4,12.387,18.827,1.394,14,2.743,83.323-9.34,84.07C5805.689,1200.18,5803.661,1192.73,5801.51,1124.752Z" transform="translate(-5739.984 -891.283)" fill="#f7af80"/>
                <path id="Trazado_37082" data-name="Trazado 37082" d="M5767.263,1123.382s-1.7-27.241,9.449-27.771c9.221-.439,10.862,4.612,12.018,19.063,1.121,14.023,1.123,83.361-10.972,83.873C5769.976,1198.876,5768.093,1191.389,5767.263,1123.382Z" transform="translate(-5733.972 -891.077)" fill="#f7af80"/>
                <path id="Trazado_37083" data-name="Trazado 37083" d="M5784.926,1204.152s-.733-10.015-6.425-9.942-8.255,8.373-7.093,13.861.539,27.853,1.287,37.841c1.2,16.075,1.45,40.386,1.45,40.386h8.413Z" transform="translate(-5734.669 -908.437)" fill="#f7af80"/>
                <path id="Trazado_37084" data-name="Trazado 37084" d="M5806.527,1204.152s.733-10.015,6.426-9.942,8.255,8.373,7.091,13.861-.538,27.853-1.286,37.841c-1.2,16.075-1.448,40.386-1.448,40.386H5808.9Z" transform="translate(-5740.899 -908.437)" fill="#f7af80"/>
                <g id="Grupo_34661" data-name="Grupo 34661" transform="translate(65.231 376.696)">
                  <path id="Trazado_37085" data-name="Trazado 37085" d="M5811.285,1304.557l-.144,4.631,7.877.6-.4-5Z" transform="translate(-5806.943 -1304.557)" fill="#c755ff"/>
                  <path id="Trazado_37086" data-name="Trazado 37086" d="M5811.219,1308.112l-.03,1.352,7.809.63-.149-1.953Z" transform="translate(-5806.952 -1305.183)" fill="#b42eed"/>
                  <path id="Trazado_37087" data-name="Trazado 37087" d="M5814.721,1324.117v.222l-7.84-.774-.425-3.069,8.19,3.6" transform="translate(-5806.118 -1307.363)" fill="#404040"/>
                  <path id="Trazado_37088" data-name="Trazado 37088" d="M5818.021,1309.934a34.483,34.483,0,0,1-7.875-.621s-5.741,6.646-3.638,10.326c0,0,18.138,7.361,27.075,4.732s2.365-6.572.525-6.046C5834.109,1318.325,5823.226,1317.841,5818.021,1309.934Z" transform="translate(-5806.046 -1305.394)" fill="#020202"/>
                  <path id="Trazado_37089" data-name="Trazado 37089" d="M5810.057,1312.016c-.938-1.305.746-2.7.746-2.7a34.488,34.488,0,0,0,7.875.621c5.2,7.907,16.088,8.391,16.088,8.391s4.468,4.47-8.149,1.841C5826.616,1320.166,5814.645,1318.4,5810.057,1312.016Z" transform="translate(-5806.702 -1305.394)" fill="#30302f"/>
                  <path id="Trazado_37090" data-name="Trazado 37090" d="M5822.967,1320.217a39.757,39.757,0,0,0,6.025,1.5c12.618,2.629,8.149-1.841,8.149-1.841a25.507,25.507,0,0,1-6.787-1.47s-7.554-1.206-7.42,1.356" transform="translate(-5809.018 -1306.945)" fill="#404040"/>
                  <path id="Trazado_37091" data-name="Trazado 37091" d="M5820.808,1316.234s2.967-1.483,5.123-.135C5825.931,1316.1,5823.775,1313.4,5820.808,1316.234Z" transform="translate(-5808.645 -1306.385)" fill="#020202"/>
                  <path id="Trazado_37092" data-name="Trazado 37092" d="M5823.263,1317.38s2.965-1.483,5.123-.135C5828.386,1317.245,5826.229,1314.549,5823.263,1317.38Z" transform="translate(-5809.077 -1306.586)" fill="#020202"/>
                  <path id="Trazado_37093" data-name="Trazado 37093" d="M5825.553,1318.525s2.965-1.482,5.123-.134C5830.676,1318.39,5828.519,1315.694,5825.553,1318.525Z" transform="translate(-5809.479 -1306.788)" fill="#020202"/>
                </g>
                <g id="Grupo_34662" data-name="Grupo 34662" transform="translate(19.904 376.696)">
                  <path id="Trazado_37094" data-name="Trazado 37094" d="M5783.095,1304.557l.144,4.631-7.876.6.4-5Z" transform="translate(-5755.318 -1304.557)" fill="#c755ff"/>
                  <path id="Trazado_37095" data-name="Trazado 37095" d="M5783.177,1308.112l.03,1.352-7.81.63.15-1.953Z" transform="translate(-5755.324 -1305.183)" fill="#b42eed"/>
                  <path id="Trazado_37096" data-name="Trazado 37096" d="M5779.578,1324.117v.222l7.839-.774.425-3.069-8.19,3.6" transform="translate(-5756.06 -1307.363)" fill="#404040"/>
                  <path id="Trazado_37097" data-name="Trazado 37097" d="M5771.18,1309.934a34.488,34.488,0,0,0,7.875-.621s5.741,6.646,3.638,10.326c0,0-18.137,7.361-27.075,4.732s-2.366-6.572-.526-6.046C5755.092,1318.325,5765.977,1317.841,5771.18,1309.934Z" transform="translate(-5751.036 -1305.394)" fill="#020202"/>
                  <path id="Trazado_37098" data-name="Trazado 37098" d="M5780.5,1312.016c.938-1.305-.747-2.7-.747-2.7a34.488,34.488,0,0,1-7.875.621c-5.2,7.907-16.088,8.391-16.088,8.391s-4.467,4.47,8.15,1.841C5763.944,1320.166,5775.915,1318.4,5780.5,1312.016Z" transform="translate(-5751.738 -1305.394)" fill="#30302f"/>
                  <path id="Trazado_37099" data-name="Trazado 37099" d="M5769.9,1320.217a39.712,39.712,0,0,1-6.025,1.5c-12.617,2.629-8.149-1.841-8.149-1.841a25.494,25.494,0,0,0,6.787-1.47s7.555-1.206,7.42,1.356" transform="translate(-5751.726 -1306.945)" fill="#404040"/>
                  <path id="Trazado_37100" data-name="Trazado 37100" d="M5774.161,1316.234s-2.966-1.483-5.123-.135C5769.038,1316.1,5771.194,1313.4,5774.161,1316.234Z" transform="translate(-5754.205 -1306.385)" fill="#020202"/>
                  <path id="Trazado_37101" data-name="Trazado 37101" d="M5771.706,1317.38s-2.966-1.483-5.123-.135C5766.583,1317.245,5768.74,1314.549,5771.706,1317.38Z" transform="translate(-5753.772 -1306.586)" fill="#020202"/>
                  <path id="Trazado_37102" data-name="Trazado 37102" d="M5769.417,1318.525s-2.966-1.482-5.124-.134C5764.293,1318.39,5766.451,1315.694,5769.417,1318.525Z" transform="translate(-5753.37 -1306.788)" fill="#020202"/>
                </g>
                <path id="Trazado_37103" data-name="Trazado 37103" d="M5787.388,977.11l-29.441,4.754s-10.038,5.631.7,17.176l8.655,64.507a76.325,76.325,0,0,0,45.875-3.1l5.277-60.181s12.985-8.748,0-19.62Z" transform="translate(-5731.598 -870.223)" fill="#f7af80"/>
                <path id="Trazado_37104" data-name="Trazado 37104" d="M5819.368,979.9l-16.239,12.014L5765.293,985l-6.436-3.884s21.579-9.045,33.194-8.195,20.532,4.208,27.316,6.977" transform="translate(-5732.509 -869.476)" fill="#f7af80"/>
                <ellipse id="Elipse_754" data-name="Elipse 754" cx="18.093" cy="23.326" rx="18.093" ry="23.326" transform="translate(34.261 206.486) rotate(-87.768)" fill="#f7af80"/>
                <path id="Trazado_37105" data-name="Trazado 37105" d="M5794.594,1069.39c-.711,0-25.684,5.484-25.684,5.484s-1.794,29.714-1.9,39.938c-.1,9.486,50.68,9.84,50.173,1.3-.669-11.267-1.66-39.423-1.66-39.423Z" transform="translate(-5733.944 -886.466)" fill="#f7af80"/>
                <path id="Trazado_37106" data-name="Trazado 37106" d="M5819.471,1088.853c.6,11.763-4.069,21.652-10.383,27.474a26.274,26.274,0,0,1-16.786,7.03c-16.041.9-28.8-10.752-28.782-29.64,0,0-3.576-32.824,22.6-33.931C5811.795,1058.7,5819.334,1075.16,5819.471,1088.853Z" transform="translate(-5733.3 -884.767)" fill="#4c2b0c"/>
                <path id="Trazado_37107" data-name="Trazado 37107" d="M5799.943,1124.616l5.185,146.766,13.146-.326,7.9-169.649Z" transform="translate(-5739.741 -892.102)" fill="#4c2b0c"/>
                <path id="Trazado_37108" data-name="Trazado 37108" d="M5789.028,1124.191l-5.218,148.128h-13.042l-7.248-167.642Z" transform="translate(-5733.33 -892.678)" fill="#4c2b0c"/>
                <g id="Grupo_34663" data-name="Grupo 34663" transform="translate(42.574 40.173)">
                  <path id="Trazado_37109" data-name="Trazado 37109" d="M5785.766,899.559a3.614,3.614,0,1,1-3.609-3.415A3.516,3.516,0,0,1,5785.766,899.559Z" transform="translate(-5778.549 -896.144)" fill="#231f20"/>
                  <path id="Trazado_37110" data-name="Trazado 37110" d="M5784.2,899.2a.943.943,0,0,1-.012,1.271c-.46.51.294,1.269.756.756a2,2,0,0,0,.179-2.568.553.553,0,0,0-.731-.192.539.539,0,0,0-.192.732Z" transform="translate(-5779.517 -896.54)" fill="#fff"/>
                </g>
                <g id="Grupo_34664" data-name="Grupo 34664" transform="translate(65.395 40.173)">
                  <path id="Trazado_37111" data-name="Trazado 37111" d="M5813.46,899.559a3.613,3.613,0,1,1-3.608-3.415A3.515,3.515,0,0,1,5813.46,899.559Z" transform="translate(-5806.245 -896.144)" fill="#231f20"/>
                  <path id="Trazado_37112" data-name="Trazado 37112" d="M5811.9,899.2a.942.942,0,0,1-.013,1.271c-.46.51.294,1.269.756.756a2,2,0,0,0,.181-2.568.554.554,0,0,0-.732-.192.538.538,0,0,0-.192.732Z" transform="translate(-5807.213 -896.54)" fill="#fff"/>
                </g>
                <g id="Grupo_34665" data-name="Grupo 34665" transform="translate(55.277 49.502)">
                  <path id="Trazado_37113" data-name="Trazado 37113" d="M5799.342,912.144a16.526,16.526,0,0,1-1.723-3.014c-.618-1.514-1.361-2-2.779-1.431s-2.075,12.282,5.842,13.167,6.9-4.656,5.861-5.977S5802.105,915.84,5799.342,912.144Z" transform="translate(-5793.965 -907.467)" fill="#e08d56"/>
                  <path id="Trazado_37114" data-name="Trazado 37114" d="M5800.963,920.351c-6.816-.761-7.276-9.542-6.367-12.336-1.221,1.717-1.356,12.115,6.087,12.947,4.168.466,5.858-.85,6.374-2.393C5806.314,919.824,5804.565,920.754,5800.963,920.351Z" transform="translate(-5793.965 -907.563)" fill="#c77236"/>
                </g>
                <g id="Grupo_34667" data-name="Grupo 34667" transform="translate(53.173 70.236)">
                  <g id="Grupo_34666" data-name="Grupo 34666" transform="translate(4.678 1.455)">
                    <path id="Trazado_37115" data-name="Trazado 37115" d="M5797.089,938.059a3.426,3.426,0,0,0,3.325-.2A2.334,2.334,0,0,1,5797.089,938.059Z" transform="translate(-5797.089 -935.006)" fill="#f09d9e"/>
                    <path id="Trazado_37116" data-name="Trazado 37116" d="M5803.971,934.4s.508.092.327.5C5804.3,934.9,5804.831,934.381,5803.971,934.4Z" transform="translate(-5798.3 -934.396)" fill="#e49d73"/>
                  </g>
                  <path id="Trazado_37117" data-name="Trazado 37117" d="M5791.662,934.416s-.948-2.264.847-1.693C5792.509,932.722,5791.248,932.647,5791.662,934.416Z" transform="translate(-5791.412 -932.63)" fill="#3a3a3a"/>
                  <path id="Trazado_37118" data-name="Trazado 37118" d="M5791.516,933.234s5.253,5.523,10.278,1.3c0,0-3.363,3.153-9.838-1.538Z" transform="translate(-5791.43 -932.694)" fill="#3a3a3a"/>
                </g>
                <path id="Trazado_37119" data-name="Trazado 37119" d="M5816.418,892.8a6.359,6.359,0,0,0-5.054-5.532,11.1,11.1,0,0,0-2.136-.255,3.285,3.285,0,0,0-1.41.11l.335-.884c-.658.193-1.862,1.758-1.862,1.758l-.154-1.262a9.056,9.056,0,0,0-.7,3.04l1.522-.042C5808.56,889.893,5814.584,890.621,5816.418,892.8Z" transform="translate(-5740.707 -854.228)" fill="#231f20"/>
                <path id="Trazado_37120" data-name="Trazado 37120" d="M5773.977,895.25a6.358,6.358,0,0,1,5.053-5.532,11.113,11.113,0,0,1,2.137-.255,3.285,3.285,0,0,1,1.41.11l-.335-.884c.658.193,1.862,1.758,1.862,1.758l.154-1.262a9.063,9.063,0,0,1,.7,3.04l-1.522-.042C5781.835,892.34,5775.812,893.068,5773.977,895.25Z" transform="translate(-5735.17 -854.659)" fill="#231f20"/>
                <path id="Trazado_37121" data-name="Trazado 37121" d="M5763.371,882.911s-.706-12.266,4.987-13.531,15.925,2.788,22.612,3.713,29.932-1.078,31.668-15.834c0,0-3.583,1.791-7.858-1.635-6.452-5.171-27.153-11.91-39.633-5.823S5753.536,865.453,5763.371,882.911Z" transform="translate(-5732.572 -847.389)" fill="#231f20"/>
                <path id="Trazado_37122" data-name="Trazado 37122" d="M5761.057,870.191s-3.928-5.276-3.22-8.649c0,0-1.844,3.585-.916,6.64,0,0-5.226,1.9-5.543,4.321,0,0,.51-1.054,4.839-1.054a9.8,9.8,0,0,0-2.2,4.532A24.71,24.71,0,0,1,5761.057,870.191Z" transform="translate(-5731.192 -849.88)" fill="#231f20"/>
                <path id="Trazado_37123" data-name="Trazado 37123" d="M5763.076,874.293l1,3.163s2.66,19.138-1.45,24.643l-2.223.76-5.438-19.08S5760.546,872.5,5763.076,874.293Z" transform="translate(-5731.822 -852.091)" fill="#231f20"/>
                <path id="Trazado_37124" data-name="Trazado 37124" d="M5815.831,876.027s5.073-.625,6.021,3.325.431,17.257.431,17.257l1.934.643-.141-4.322,1.729-11.127-1.5-7-.909-3.7Z" transform="translate(-5742.537 -851.564)" fill="#231f20"/>
                <path id="Trazado_37125" data-name="Trazado 37125" d="M5796.6,874.233s14.684,2.666,20.173-5.719,4.588-11.6,4.588-11.6l-3.438-2.2S5817.523,874.634,5796.6,874.233Z" transform="translate(-5739.152 -848.679)" fill="#514b4d"/>
                <path id="Trazado_37126" data-name="Trazado 37126" d="M5794.938,873.329s19.575-6.985,18.093-21.3l-3.693-1.332s2.333,11.664-16.12,22.264Z" transform="translate(-5738.557 -847.971)" fill="#514b4d"/>
                <path id="Trazado_37127" data-name="Trazado 37127" d="M5817.9,873.978s14.328-4.17,15.065-14.61a5.983,5.983,0,0,1-3.474.391S5826.012,870.764,5817.9,873.978Z" transform="translate(-5742.902 -849.498)" fill="#514b4d"/>
                <path id="Trazado_37128" data-name="Trazado 37128" d="M5765.32,893.575h-8.068l8.023,2.117Z" transform="translate(-5732.226 -855.519)" fill="#514b4d"/>
                <path id="Trazado_37129" data-name="Trazado 37129" d="M5765.171,899.894l-.336,2.16-6.73-3.661Z" transform="translate(-5732.376 -856.367)" fill="#514b4d"/>
                <path id="Trazado_37130" data-name="Trazado 37130" d="M5764.456,905.488l-.948,1.786-3.515-3.771Z" transform="translate(-5732.708 -857.267)" fill="#514b4d"/>
                <path id="Trazado_37131" data-name="Trazado 37131" d="M5823.816,889.793l4.469-2.016-4.469,4.778Z" transform="translate(-5743.943 -854.498)" fill="#514b4d"/>
                <path id="Trazado_37132" data-name="Trazado 37132" d="M5823.8,895.447l3.979-3.261-4.013,5.115Z" transform="translate(-5743.934 -855.275)" fill="#514b4d"/>
                <path id="Trazado_37133" data-name="Trazado 37133" d="M5823.688,900.716l1.767-1.951-.686,3.079-1.107-.368Z" transform="translate(-5743.916 -856.433)" fill="#514b4d"/>
                <path id="Trazado_37134" data-name="Trazado 37134" d="M5761.556,907.779l2.223-.76s8.992,31.534,20.691,32.377c5.945.429,5.516-5.446,5.516-5.446h4.17s.465,4.773,2.345,4.45,12.217-6.958,13.294-13.128,2.931-23.216,2.931-23.216l1.934.643s1.217,21.519,1.218,22.785c.009,6.495-7.75,15.52-13.418,18.472a20.66,20.66,0,0,1-8.3,2.916c-5.994.7-11.385,1.744-21.843-6.346,0,0-7.729-6.575-9.469-12.384C5761.263,922.859,5761.556,907.779,5761.556,907.779Z" transform="translate(-5732.98 -857.012)" fill="#2d2a2b"/>
                <path id="Trazado_37135" data-name="Trazado 37135" d="M5796.345,926.867a7.107,7.107,0,0,0-4.17-1.368,35.886,35.886,0,0,0-5.411.674c-2,.483-3.448,1.115-5.413,1.115s-7.2,1.907-7.375,5.539,3.359,6.321,4.356,6.477-.949-4.894.527-5.978,9.269-3.814,13.316-3.291a22.626,22.626,0,0,0,5.834,0,9.89,9.89,0,0,1,4.425.766c1.834.943,5.373.448,7.288,4s2.953-3.141,3.066-3.43-3.945-4.4-7.765-4.5S5799.5,924.969,5796.345,926.867Z" transform="translate(-5735.168 -861.135)" fill="#2d2a2b"/>
                <g id="Grupo_34683" data-name="Grupo 34683" transform="translate(20.834 94.985)">
                  <g id="Grupo_34668" data-name="Grupo 34668">
                    <path id="Trazado_37136" data-name="Trazado 37136" d="M5817.649,977.679a83.249,83.249,0,0,0-18.509-7.922c-1.787-.544-1.022-7.091-1.022-7.091l-10.541.469-10.541-.469s.719,6.418-1.022,7.091a109.332,109.332,0,0,0-18.51,9.924s-6.274,3.028-5.22,11.349,5.4,10.651,5.4,10.651l6.849,73.416h49.231l5.48-76.411S5833.366,986.462,5817.649,977.679Z" transform="translate(-5752.165 -962.665)" fill="#b42eed"/>
                  </g>
                  <g id="Grupo_34669" data-name="Grupo 34669" transform="translate(25.486 0.759)" opacity="0.41">
                    <path id="Trazado_37137" data-name="Trazado 37137" d="M5783.094,963.721l3.093.215c.928.062,2.012.113,3.17.167s2.4.094,3.636.1c1.237.027,2.474.015,3.634-.019l1.669-.072,1.494-.114,1.258-.141c.377-.033.7-.1.967-.142l.843-.135-.828.207c-.266.063-.585.15-.959.208s-.793.149-1.256.213l-1.5.176c-.533.042-1.094.093-1.677.124-1.165.049-2.409.081-3.654.068-1.242-.028-2.485-.077-3.648-.155s-2.244-.19-3.17-.282C5784.318,963.938,5783.094,963.721,5783.094,963.721Z" transform="translate(-5783.094 -963.586)" fill="#fff"/>
                  </g>
                  <g id="Grupo_34681" data-name="Grupo 34681" transform="translate(26.313 2.211)">
                    <g id="Grupo_34680" data-name="Grupo 34680">
                      <g id="Grupo_34670" data-name="Grupo 34670">
                        <path id="Trazado_37138" data-name="Trazado 37138" d="M5785.071,965.348a8.125,8.125,0,0,1,.023.819,12.283,12.283,0,0,1-.186,1.738,10.164,10.164,0,0,1-.446,1.668,6.1,6.1,0,0,1-.328.724,6.6,6.6,0,0,1-.036-.824,10.609,10.609,0,0,1,.2-1.735,11.569,11.569,0,0,1,.46-1.662A7.724,7.724,0,0,1,5785.071,965.348Z" transform="translate(-5784.098 -965.348)" fill="#c755ff"/>
                      </g>
                      <g id="Grupo_34671" data-name="Grupo 34671" transform="translate(1.968 0.438)">
                        <path id="Trazado_37139" data-name="Trazado 37139" d="M5787.288,965.879s.044.331.056.817a12.265,12.265,0,0,1-.112,1.747,10.758,10.758,0,0,1-.377,1.693,5.806,5.806,0,0,1-.3.742,7.125,7.125,0,0,1-.069-.821,10.819,10.819,0,0,1,.127-1.745,11.854,11.854,0,0,1,.389-1.688A7.924,7.924,0,0,1,5787.288,965.879Z" transform="translate(-5786.486 -965.879)" fill="#c755ff"/>
                      </g>
                      <g id="Grupo_34672" data-name="Grupo 34672" transform="translate(3.938 0.765)">
                        <path id="Trazado_37140" data-name="Trazado 37140" d="M5789.517,966.277a8.161,8.161,0,0,1,.089.813,12.188,12.188,0,0,1-.04,1.75,10.511,10.511,0,0,1-.306,1.714.418.418,0,1,1-.369-.055,10.961,10.961,0,0,1,.054-1.752,11.861,11.861,0,0,1,.32-1.709C5789.395,966.579,5789.517,966.277,5789.517,966.277Z" transform="translate(-5788.876 -966.277)" fill="#c755ff"/>
                      </g>
                      <g id="Grupo_34673" data-name="Grupo 34673" transform="translate(5.901 0.985)">
                        <path id="Trazado_37141" data-name="Trazado 37141" d="M5791.754,966.543s.071.324.122.8a12.315,12.315,0,0,1,.032,1.752,10.807,10.807,0,0,1-.234,1.729.418.418,0,1,1-.371-.033,10.772,10.772,0,0,1-.019-1.753,12.184,12.184,0,0,1,.249-1.726C5791.644,966.851,5791.755,966.543,5791.754,966.543Z" transform="translate(-5791.259 -966.543)" fill="#c755ff"/>
                      </g>
                      <g id="Grupo_34674" data-name="Grupo 34674" transform="translate(7.85 1.093)">
                        <path id="Trazado_37142" data-name="Trazado 37142" d="M5793.992,966.675a8.016,8.016,0,0,1,.155.8,12.348,12.348,0,0,1,.1,1.748,10.8,10.8,0,0,1-.163,1.741,6.635,6.635,0,0,1-.2.788,6.756,6.756,0,0,1-.17-.8,10.919,10.919,0,0,1-.09-1.748,12.217,12.217,0,0,1,.176-1.74C5793.9,966.99,5793.993,966.675,5793.992,966.675Z" transform="translate(-5793.625 -966.675)" fill="#c755ff"/>
                      </g>
                      <g id="Grupo_34675" data-name="Grupo 34675" transform="translate(9.782 1.093)">
                        <path id="Trazado_37143" data-name="Trazado 37143" d="M5796.229,966.675a7.993,7.993,0,0,1,.189.787,12.075,12.075,0,0,1,.175,1.74,10.815,10.815,0,0,1-.089,1.748,6.482,6.482,0,0,1-.17.8,6.208,6.208,0,0,1-.2-.787,10.693,10.693,0,0,1-.163-1.741,12.36,12.36,0,0,1,.1-1.748C5796.145,966.995,5796.229,966.675,5796.229,966.675Z" transform="translate(-5795.969 -966.675)" fill="#c755ff"/>
                      </g>
                      <g id="Grupo_34676" data-name="Grupo 34676" transform="translate(11.693 0.985)">
                        <path id="Trazado_37144" data-name="Trazado 37144" d="M5798.46,966.543s.109.308.219.774a11.975,11.975,0,0,1,.249,1.726,10.828,10.828,0,0,1-.019,1.753,6.3,6.3,0,0,1-.138.807,6.422,6.422,0,0,1-.233-.775,10.7,10.7,0,0,1-.233-1.729,12.315,12.315,0,0,1,.032-1.752C5798.389,966.867,5798.46,966.543,5798.46,966.543Z" transform="translate(-5798.289 -966.543)" fill="#c755ff"/>
                      </g>
                      <g id="Grupo_34677" data-name="Grupo 34677" transform="translate(13.576 0.765)">
                        <path id="Trazado_37145" data-name="Trazado 37145" d="M5800.68,966.277s.122.3.251.761a11.664,11.664,0,0,1,.32,1.709,10.746,10.746,0,0,1,.055,1.752,6.5,6.5,0,0,1-.1.815,6.218,6.218,0,0,1-.266-.76,10.515,10.515,0,0,1-.306-1.714,12.06,12.06,0,0,1-.041-1.75C5800.622,966.606,5800.68,966.277,5800.68,966.277Z" transform="translate(-5800.574 -966.277)" fill="#c755ff"/>
                      </g>
                      <g id="Grupo_34678" data-name="Grupo 34678" transform="translate(15.433 0.438)">
                        <path id="Trazado_37146" data-name="Trazado 37146" d="M5802.884,965.879a7.692,7.692,0,0,1,.284.744,11.648,11.648,0,0,1,.39,1.688,10.875,10.875,0,0,1,.127,1.745,6.792,6.792,0,0,1-.069.821,6.124,6.124,0,0,1-.3-.742,10.6,10.6,0,0,1-.376-1.693,12.06,12.06,0,0,1-.112-1.747A7.974,7.974,0,0,1,5802.884,965.879Z" transform="translate(-5802.827 -965.879)" fill="#c755ff"/>
                      </g>
                      <g id="Grupo_34679" data-name="Grupo 34679" transform="translate(17.262)">
                        <path id="Trazado_37147" data-name="Trazado 37147" d="M5805.071,965.348a7.7,7.7,0,0,1,.315.727,11.609,11.609,0,0,1,.459,1.662,10.839,10.839,0,0,1,.2,1.735,6.468,6.468,0,0,1-.037.824,6.058,6.058,0,0,1-.328-.724,10.266,10.266,0,0,1-.446-1.668,12.078,12.078,0,0,1-.186-1.738C5805.042,965.682,5805.072,965.348,5805.071,965.348Z" transform="translate(-5805.047 -965.348)" fill="#c755ff"/>
                      </g>
                    </g>
                  </g>
                  <g id="Grupo_34682" data-name="Grupo 34682" transform="translate(23.85 7.091)">
                    <path id="Trazado_37148" data-name="Trazado 37148" d="M5781.109,971.271s11.18,4.842,23.125,0C5804.234,971.271,5794.184,977.062,5781.109,971.271Z" transform="translate(-5781.109 -971.271)" fill="#9f22d4"/>
                  </g>
                </g>
                <path id="Trazado_37149" data-name="Trazado 37149" d="M5770.664,977.11l-18.846,6.027s-5.71,14.251,4.3,23.1v79.812l26.6,1.825.507-48.906s-11.1-10.52-12.429-32.731S5770.664,977.11,5770.664,977.11Z" transform="translate(-5730.984 -870.223)" fill="#252430"/>
                <path id="Trazado_37150" data-name="Trazado 37150" d="M5777.7,971.223s-12.771,20.152,7.559,66.673l-.056,5.413s-30.091-55.01-22.109-66.586C5763.094,976.723,5766.083,969.661,5777.7,971.223Z" transform="translate(-5733.018 -869.147)" fill="#1d1d1e"/>
                <path id="Trazado_37151" data-name="Trazado 37151" d="M5753.075,990.662l-5.36-6.238s-28.616,50.376-18.774,105.514l9.941-.773s-6.8-45.715,14.348-83.656Z" transform="translate(-5726.88 -871.51)" fill="#252430"/>
                <path id="Trazado_37152" data-name="Trazado 37152" d="M5817.732,977.11l18.846,6.027s5.71,14.251-4.305,23.1l-1.21,79.6-25.386,2.038-.507-48.906s11.1-10.52,12.428-32.731S5817.732,977.11,5817.732,977.11Z" transform="translate(-5740.661 -870.223)" fill="#252430"/>
                <path id="Trazado_37153" data-name="Trazado 37153" d="M5808.47,971.223s17.029,20.152-3.3,66.673l.056,5.413s30.091-55.01,22.109-66.586A23.793,23.793,0,0,0,5808.47,971.223Z" transform="translate(-5740.661 -869.147)" fill="#1d1d1e"/>
                <path id="Trazado_37154" data-name="Trazado 37154" d="M5740.824,1119.071l.4-.738a.975.975,0,0,1,1.32-.385l5.94,2.7a.975.975,0,0,1,.385,1.319l-.872,1.591a.975.975,0,0,1-1.32.385l-5.471-3.552A.975.975,0,0,1,5740.824,1119.071Z" transform="translate(-5729.313 -894.993)" fill="#e08d56"/>
                <g id="Grupo_34684" data-name="Grupo 34684" transform="translate(2.651 220.707)">
                  <path id="Trazado_37155" data-name="Trazado 37155" d="M5731.349,1130.378c.019.122.209,1.854.249,1.97.392,1.123,1.461,1.188,2.563.9l9.454-.649a2.114,2.114,0,0,0,1.059-.336,2.174,2.174,0,0,0,.866-2.346l-4.458-12.953a2.362,2.362,0,0,0-.8-1.083,2.916,2.916,0,0,0-3-.4l-4.52,1.193c-2.608.461-2.877,1.767-2.569,2.927Z" transform="translate(-5730.097 -1115.245)" fill="#f7af80"/>
                </g>
                <path id="Trazado_37156" data-name="Trazado 37156" d="M5838.063,1005.494s15.436,35.437,28.416,35.679,23.3-67.047,23.3-67.047l-11.317-1.261s-7.988,53.291-13.481,52.79c-7.955-.724-22.612-43.265-22.612-43.265Z" transform="translate(-5746.451 -869.476)" fill="#252430"/>
                <path id="Trazado_37157" data-name="Trazado 37157" d="M5908.446,948.622s-2.662-3.894-5.159-3.744c-2.446.147-6.884,3.185-3.04,8.056,1.382,1.751,6.277,6.815,7.968,5.774S5914.022,956.871,5908.446,948.622Z" transform="translate(-5757.131 -864.549)" fill="#e8a478"/>
                <path id="Trazado_37158" data-name="Trazado 37158" d="M5767.013,1124.515l7.275,148.574S5769.864,1143.911,5767.013,1124.515Z" transform="translate(-5733.944 -896.17)" fill="#5e3513"/>
                <path id="Trazado_37159" data-name="Trazado 37159" d="M5826.725,1124.525l-7.608,148.557S5823.831,1143.914,5826.725,1124.525Z" transform="translate(-5743.116 -896.171)" fill="#5e3513"/>
              </g>
            </g>
          </g>
        </g>
      </g>
    </g>
  </g>
</svg>
