<svg xmlns="http://www.w3.org/2000/svg" xmlns:xlink="http://www.w3.org/1999/xlink" width="264" height="256" viewBox="0 0 264 256">
  <defs>
    <clipPath id="clip-path">
      <path id="Trazado_37070" data-name="Trazado 37070" d="M5539.74,967.368c-8.241-2.557,1.375-5.7-3.766-7.975l-5.064-118.542H5377.968l-16.431,62.939c0,29.4,5.146,41.3,0,55.537-11.9,32.913,0,32.358,0,46.744,0,22.4,44.244,11.807,51.979,48.586,0,0,.543,26.193,43.43,26.193,28.773,0,31.895-7.193,48.995-36.508s27.811-8.415,43.96-22.665S5561.166,974.017,5539.74,967.368Z" transform="translate(-5356.25 -840.851)" fill="none"/>
    </clipPath>
  </defs>
  <g id="Grupo_3997" data-name="Grupo 3997" transform="translate(-48 -120)">
    <g id="Grupo_3995" data-name="Grupo 3995">
      <rect id="Rectángulo_2130" data-name="Rectángulo 2130" width="264" height="256" transform="translate(48 120)" fill="none"/>
      <g id="Grupo_34610" data-name="Grupo 34610" transform="translate(-5278.263 -710.851)">
        <path id="Trazado_36959" data-name="Trazado 36959" d="M5414.783,1074.068s.543,26.193,43.43,26.193c28.772,0,31.894-7.193,48.994-36.508s27.811-8.415,43.96-22.665,11.266-47.661-10.16-54.311c-39.28-12.19-35.835-19.52-61.215-37.706s-80.392-2.919-92.288,29.993-24.7,32.03-24.7,46.416C5362.8,1047.881,5407.048,1037.288,5414.783,1074.068Z" transform="translate(-1.267 -19.41)" fill="#6d31ff"/>
        <g id="Grupo_34657" data-name="Grupo 34657" transform="translate(5356.25 840.851)">
          <g id="Grupo_34656" data-name="Grupo 34656" clip-path="url(#clip-path)">
            <g id="Grupo_34655" data-name="Grupo 34655" transform="translate(12.771 4.826)">
              <path id="Trazado_36960" data-name="Trazado 36960" d="M5457.006,1224.091s1-10.635,8.779-10.557,11.28,8.891,9.691,14.719,2.972,29.706.55,40.184-5.66,51.082-5.66,51.082l-9.891-5.074Z" transform="translate(-5388.49 -917.689)" fill="#f2bc98"/>
              <g id="Grupo_34610-2" data-name="Grupo 34610" transform="translate(52.023 393.448)">
                <path id="Trazado_36961" data-name="Trazado 36961" d="M5448.153,1360.038s8.747,14.219,20.661-25.525C5468.813,1334.513,5455.292,1364.9,5448.153,1360.038Z" transform="translate(-5438.802 -1334.513)" fill="#f7b3a6"/>
                <path id="Trazado_36962" data-name="Trazado 36962" d="M5469.378,1366.191l1.155.018-.933-14.232a10.894,10.894,0,0,1,.7-4.927s1.771-9.037-3.726-12.537c0,0-10.773,37.166-20.661,25.525,0,0-2.591.3-8.411,4.67,0,0-2.5,1.463.66,2.6l11.538,1.025s6.761,1.919,9.574-6.56c0,0,8.5-18.556,9.183-8.649Z" transform="translate(-5436.563 -1334.513)" fill="#04adc5"/>
                <path id="Trazado_36963" data-name="Trazado 36963" d="M5478.348,1372.357l-1.284.31.141.837,1.156.017Z" transform="translate(-5444.388 -1341.825)" fill="#155f69"/>
                <path id="Trazado_36964" data-name="Trazado 36964" d="M5456.3,1374.184c-2.59,2.809-6.6,1.685-6.6,1.685l-11.538-1.025c-1.186-.426-1.577-.9-1.6-1.322a3.608,3.608,0,0,0,2.4.731l11.139.844s4.064.854,6.2-.912" transform="translate(-5436.563 -1342.05)" fill="#155f69"/>
              </g>
              <path id="Trazado_36965" data-name="Trazado 36965" d="M5468.813,1332.587s-10.92,37.8-20.661,25.525a82.789,82.789,0,0,0,10.33-26.023l.057-7.541S5468.849,1328.267,5468.813,1332.587Z" transform="translate(-5386.779 -939.139)" fill="#f2bc98"/>
              <path id="Trazado_36966" data-name="Trazado 36966" d="M5502.8,1224.772s1-10.635,8.779-10.557,11.28,8.891,9.69,14.719,4.071,29.706,1.65,40.185-6.759,51.082-6.759,51.082l-9.891-5.074Z" transform="translate(-5397.338 -917.82)" fill="#f2bc98"/>
              <path id="Trazado_36967" data-name="Trazado 36967" d="M5474.821,1131.419h0c.468-12.95-5.765-18.411-11.038-20.715a9.535,9.535,0,0,0-3.263-1.311,16.769,16.769,0,0,0-3.568-.361c-.138-.007-.211-.008-.211-.008v.014c-9.673.243-11.345,10.319-11.222,19.415.137,10.2,3.494,86.979,15.563,91.929C5477.25,1227.014,5476.158,1154.587,5474.821,1131.419Z" transform="translate(-5386.27 -897.495)" fill="#f2bc98"/>
              <path id="Trazado_36968" data-name="Trazado 36968" d="M5451.03,1088.272s-8.891,8.67-8.247,38.154,11.553,83.824,11.553,83.824h17.876l.506-77.976Z" transform="translate(-5385.736 -893.485)" fill="#f2bc98"/>
              <path id="Trazado_36969" data-name="Trazado 36969" d="M5508.99,1090.317c-2.907-5.458-12.308-23.371-29.865-24.994-12.956-1.2-26.121,19.3-26.128,19.309-7.71,13.434-18.6,40.655,21.064,44.308l3.511.325C5532.76,1133.382,5509.278,1090.717,5508.99,1090.317Z" transform="translate(-5386.276 -889.041)" fill="#364f6b"/>
              <path id="Trazado_36970" data-name="Trazado 36970" d="M5470.568,1268.067c1.21-9.576,2.528-18.976,3.523-23.284,1.963-8.492-1.382-25.784-1.875-35.136l.022-3.387c4.178-23.789,2.746-50.358,4.151-78.85.5-12.95-6.178-18.411-11.83-20.715a10.628,10.628,0,0,0-3.5-1.311c-.593-.115-1.165-.195-1.724-.254l-7.3-14.812-1.009-2.046s-6.737,6.578-8.056,27.736c-.011.181-.022.36-.033.542q-.122,2.129-.167,4.452c-.017.886-.026,1.79-.023,2.72q0,1.322.033,2.7c.645,29.484,11.553,83.824,11.553,83.824h0l2.152,57.986" transform="translate(-5385.736 -893.485)" fill="#364f6b"/>
              <path id="Trazado_36971" data-name="Trazado 36971" d="M5520.959,1131.419h0c.468-12.95-5.764-18.411-11.038-20.715a9.528,9.528,0,0,0-3.263-1.311,16.767,16.767,0,0,0-3.568-.361c-.138-.007-.212-.008-.212-.008v.014c-9.673.243-11.345,10.319-11.222,19.415.137,10.2,3.493,86.979,15.564,91.929C5523.389,1227.014,5522.3,1154.587,5520.959,1131.419Z" transform="translate(-5395.184 -897.495)" fill="#f2bc98"/>
              <path id="Trazado_36972" data-name="Trazado 36972" d="M5516.707,1268.067c1.209-9.576,2.528-18.976,3.523-23.284,1.962-8.492-1.382-25.784-1.875-35.136l.021-3.387c4.178-23.789,2.746-50.358,4.151-78.85.5-12.95-6.179-18.411-11.83-20.715a10.638,10.638,0,0,0-3.5-1.311c-.592-.115-1.164-.195-1.723-.254l-7.3-14.812-1.008-2.046s-6.738,6.578-8.056,27.736c-.011.181-.022.36-.033.542q-.122,2.129-.167,4.452c-.017.886-.025,1.79-.023,2.72q0,1.322.033,2.7c.645,29.484,11.553,83.824,11.553,83.824h0l2.152,57.986" transform="translate(-5394.651 -893.485)" fill="#364f6b"/>
              <path id="Trazado_36973" data-name="Trazado 36973" d="M5476.058,1097.191l5.925,38.1,5.877.322-.471-37.766Z" transform="translate(-5392.171 -895.208)" fill="#1b2b3f" opacity="0.24"/>
              <path id="Trazado_36974" data-name="Trazado 36974" d="M5524.254,1090.4a49.155,49.155,0,0,1,2.191,43.91l-14.956-26.609Z" transform="translate(-5399.017 -893.895)" fill="#364f6b"/>
              <path id="Trazado_36975" data-name="Trazado 36975" d="M5513.083,959.655s17.3,11.827,11.94,19.2-15.991,14.956-22.372,11.284-3.969-32.406,4.815-33.39S5513.083,959.655,5513.083,959.655Z" transform="translate(-5396.614 -868.039)" fill="#4c1a0a"/>
              <path id="Trazado_36976" data-name="Trazado 36976" d="M5479.3,865.595l4.738-14.985s-6.076-7.11-21.729-1.819-29.36,16.622-27.714,25.76,3.655,15.357-4.569,18.461-4.386,11.693-1.1,16.993,4.589,11.373-3.828,17.108,2.206,14.691,1.1,17.433-4.215,6.028-6.409,4.019-.731-5.664,2.56-4.02c0,0-5.483-2.982-6.032,1.616s3.472,7.7,9.5,4.963,6.762-6.271,10.05-4.963-7.664,11.66-.365,17.573,23.538-14.189,38.633-6.089,20.627,0,20.627,0l2.328-79.621" transform="translate(-5380.619 -846.833)" fill="#4c1a0a"/>
              <path id="Trazado_36977" data-name="Trazado 36977" d="M5463.947,928.431s7.718,14.986.954,20.468-5.852,9.321-2.927,13.158c0,0-1.1-5.723,3.1-9.532S5475.605,944.513,5463.947,928.431Z" transform="translate(-5389.023 -862.6)" fill="#6b2411"/>
              <path id="Trazado_36978" data-name="Trazado 36978" d="M5475.905,860.326s14.76-11.739,22.823-9.058,19.154,15.594,18.482,22.417,1.37,12.541,5.587,16.627,1.337,12.212,1.437,17.164,7.9,9.3,7.654,12.729-4.386,5.856-2.437,8.908,3.55,2.495,2.787,10.115c0,0-.5-5.418-4-6.223,0,0,4.385,6.047-.488,13.934,0,0,1.706-3.961-.244-9.611a7.993,7.993,0,0,1-2.713,7.021c-3.378,2.681.276,9.5,3.932,9.747,0,0-16.331,6.309-23.761-7.932S5475.905,860.326,5475.905,860.326Z" transform="translate(-5392.142 -847.613)" fill="#4c1a0a"/>
              <path id="Trazado_36979" data-name="Trazado 36979" d="M5402.612,1026.949c-.328,0-.654-.009-.982-.028a15.412,15.412,0,0,1-11.293-5.951c-5.321-6.565-9.519-18.68-9.229-36.009a193.444,193.444,0,0,1,1.864-23.376l8.692,1.327c-1.7,11.185-2.682,42.425,5.5,52.523a6.591,6.591,0,0,0,4.964,2.707c7.079.4,14.676-8.3,24.317-24.515,7.906-13.3,5.64-10.248,5.693-10.385l10.89-6.231c-.228.583-.71,7.1-8.971,21.017C5422.667,1017.226,5413.185,1026.949,5402.612,1026.949Z" transform="translate(-5373.822 -869.006)" fill="#f2bc98"/>
              <path id="Trazado_36980" data-name="Trazado 36980" d="M5545.422,1038.383c-1.11-18.073-16.918-47.5-18.964-51.241l-7.345,4.018c.054.1,5.478,10.046,10.357,21.667,5.264,12.54,7.121,20.28,7.565,25,0,0,1.212,3.5,3.9,3.6S5545.422,1038.383,5545.422,1038.383Z" transform="translate(-5400.491 -873.944)" fill="#f2bc98"/>
              <path id="Trazado_36981" data-name="Trazado 36981" d="M5490.558,967.824h-13.89a27.567,27.567,0,0,0-.5-16.88l15.335.506S5488.062,961.661,5490.558,967.824Z" transform="translate(-5392.192 -866.95)" fill="#f2bc98"/>
              <path id="Trazado_36982" data-name="Trazado 36982" d="M5490.159,956.949a41.663,41.663,0,0,1,1.344-5.5l-15.335-.506a25.934,25.934,0,0,1,1.573,8.9C5482.252,961.454,5487.162,958.98,5490.159,956.949Z" transform="translate(-5392.192 -866.95)" fill="#dbac8c"/>
              <path id="Trazado_36983" data-name="Trazado 36983" d="M5493.625,974.779c10.18,11.452,28.944,37.476,6.238,47.734-4.66,14.893,5.979,31.723,5.979,31.723s-14.112,6.186-22.7,5.868c-.756-.027-3.083-.027-3.838,0-8.589.318-19.366-6.762-19.366-6.762s7.474-16.09,2.211-30.836c-23.911-10.816-5.771-35.837,3.378-48.16,0,0,3.389-5.484,8.3-5.457s12.212-.9,15.18,1.069A16.341,16.341,0,0,1,5493.625,974.779Z" transform="translate(-5387.192 -870.38)" fill="#f2bc98"/>
              <path id="Trazado_36984" data-name="Trazado 36984" d="M5492.988,974.313a16.62,16.62,0,0,0-4.715-4.891,7.159,7.159,0,0,0-2.581-.857c-.134,4.031.945,15.828-7.579,15.828-8.45,0-7.5-11.595-7.485-15.723-3.817,1.195-6.311,5.2-6.311,5.2-9.335,12.5-27.842,37.891-3.446,48.865,5.37,14.962-2.256,31.287-2.256,31.287s11,7.184,19.758,6.861c.771-.028,3.146-.028,3.917,0,8.763.323,23.162-5.954,23.162-5.954s-10.854-17.077-6.1-32.188C5522.518,1012.337,5503.374,985.932,5492.988,974.313Z" transform="translate(-5386.899 -870.354)" fill="#2975fa"/>
              <path id="Trazado_36985" data-name="Trazado 36985" d="M5459.715,1035.127l.984,19.26-1.725,4.061s-9,19.153-16.183,23.171c0,0,.94,6.837,11.646,4.789s9.221-1.832,14.423,2.08,12.61-4.161,17.793-2.08,13.626,3.7,18.56-.235c5.733-4.575,9.6-2.545,14.859-6.752,0,0-19.611-10.779-21.015-31.612Z" transform="translate(-5385.743 -883.216)" fill="#2975fa"/>
              <g id="Grupo_34611" data-name="Grupo 34611" transform="translate(62.345 48.622)">
                <circle id="Elipse_728" data-name="Elipse 728" cx="4.745" cy="4.745" r="4.745" fill="#f2bc98"/>
                <circle id="Elipse_729" data-name="Elipse 729" cx="2.784" cy="2.784" r="2.784" transform="translate(1.962 1.962)" fill="#e6b08c"/>
              </g>
              <g id="Grupo_34612" data-name="Grupo 34612" transform="translate(109.607 48.072)">
                <circle id="Elipse_730" data-name="Elipse 730" cx="4.745" cy="4.745" r="4.745" fill="#f2bc98"/>
                <circle id="Elipse_731" data-name="Elipse 731" cx="2.784" cy="2.784" r="2.784" transform="translate(1.962 1.962)" fill="#e6b08c"/>
              </g>
              <path id="Trazado_36986" data-name="Trazado 36986" d="M5501.424,896.228c-.549-3.923-.295-12.51-.148-16.289.047-.612.079-1.227.079-1.852a23.007,23.007,0,1,0-46.013,0,23.468,23.468,0,0,0,.312,3.8,143.4,143.4,0,0,1,.069,14.942c-.5,5.134-3.279,28.064,13.262,35.32a22.4,22.4,0,0,1,3.769,3.317,6.531,6.531,0,0,0,3.912,1.649c3.425.8,7.525.46,9.354-1.573a22.427,22.427,0,0,1,3.626-3.471C5505.87,924.131,5502.138,901.336,5501.424,896.228Z" transform="translate(-5388.149 -848.387)" fill="#f2bc98"/>
              <g id="Grupo_34619" data-name="Grupo 34619" transform="translate(71.412 38.097)">
                <g id="Grupo_34614" data-name="Grupo 34614" transform="translate(13.984 33.946)">
                  <g id="Grupo_34613" data-name="Grupo 34613" transform="translate(0 1.519)">
                    <path id="Trazado_36987" data-name="Trazado 36987" d="M5485.073,941.918a3.581,3.581,0,0,1-3.474-.2A2.439,2.439,0,0,0,5485.073,941.918Z" transform="translate(-5478.638 -938.728)" fill="#f09d9e"/>
                    <path id="Trazado_36988" data-name="Trazado 36988" d="M5478.44,938.014s-.53.1-.34.522C5478.1,938.536,5477.543,938,5478.44,938.014Z" transform="translate(-5477.929 -938.014)" fill="#e49d73"/>
                  </g>
                  <path id="Trazado_36989" data-name="Trazado 36989" d="M5491.427,938s.991-2.365-.884-1.768C5490.543,936.227,5491.859,936.149,5491.427,938Z" transform="translate(-5480.366 -936.13)" fill="#3a3a3a"/>
                  <path id="Trazado_36990" data-name="Trazado 36990" d="M5489.279,936.769s-5.488,5.77-10.737,1.359c0,0,3.514,3.294,10.276-1.608Z" transform="translate(-5478.047 -936.206)" fill="#3a3a3a"/>
                </g>
                <g id="Grupo_34616" data-name="Grupo 34616" transform="translate(0.761 6.083)">
                  <g id="Grupo_34615" data-name="Grupo 34615">
                    <path id="Trazado_36991" data-name="Trazado 36991" d="M5471.34,906.594a3.52,3.52,0,1,1-3.516-3.676A3.6,3.6,0,0,1,5471.34,906.594Z" transform="translate(-5462.073 -901.85)" fill="#2f1b11"/>
                    <path id="Trazado_36992" data-name="Trazado 36992" d="M5470.738,905.617s-.372-3.067-3.2-3.067-3.683-.2-4.035-.957c0,0,.05,1.464,1.158,1.589a4.153,4.153,0,0,1-3.127-.279,3.249,3.249,0,0,0,3.228,1.7C5467.234,904.516,5469.4,904.319,5470.738,905.617Z" transform="translate(-5461.538 -901.594)" fill="#2f1b11"/>
                  </g>
                  <path id="Trazado_36993" data-name="Trazado 36993" d="M5466.907,906.451a.983.983,0,0,0,.013,1.329c.48.532-.308,1.326-.79.79a2.085,2.085,0,0,1-.188-2.683.578.578,0,0,1,.765-.2.562.562,0,0,1,.2.764Z" transform="translate(-5462.311 -902.371)" fill="#fff"/>
                </g>
                <g id="Grupo_34618" data-name="Grupo 34618" transform="translate(24.974 5.534)">
                  <g id="Grupo_34617" data-name="Grupo 34617">
                    <path id="Trazado_36994" data-name="Trazado 36994" d="M5491.551,905.913a3.52,3.52,0,1,0,3.517-3.676A3.6,3.6,0,0,0,5491.551,905.913Z" transform="translate(-5491.551 -901.169)" fill="#2f1b11"/>
                    <path id="Trazado_36995" data-name="Trazado 36995" d="M5491.635,904.936s.372-3.067,3.2-3.067,3.682-.2,4.035-.957c0,0-.05,1.464-1.158,1.588a4.15,4.15,0,0,0,3.126-.278,3.249,3.249,0,0,1-3.228,1.7C5495.138,903.835,5492.969,903.638,5491.635,904.936Z" transform="translate(-5491.567 -900.913)" fill="#2f1b11"/>
                  </g>
                  <path id="Trazado_36996" data-name="Trazado 36996" d="M5494.816,905.77a.984.984,0,0,0,.013,1.329c.481.532-.308,1.326-.79.79a2.085,2.085,0,0,1-.189-2.682.58.58,0,0,1,.765-.2.562.562,0,0,1,.2.765Z" transform="translate(-5491.917 -901.69)" fill="#fff"/>
                </g>
                <path id="Trazado_36997" data-name="Trazado 36997" d="M5469.512,897.363c-.108.209-4.771-1.013-8.9,1.471a5.916,5.916,0,0,1,4.854-3.974C5469.375,894.286,5470.322,895.787,5469.512,897.363Z" transform="translate(-5460.598 -894.185)" fill="#421d0d"/>
                <path id="Trazado_36998" data-name="Trazado 36998" d="M5493.1,896.682c.107.209,4.771-1.013,8.9,1.472a5.915,5.915,0,0,0-4.854-3.974C5493.235,893.6,5492.288,895.106,5493.1,896.682Z" transform="translate(-5466.824 -894.054)" fill="#421d0d"/>
                <path id="Trazado_36999" data-name="Trazado 36999" d="M5496.172,921.309a4.538,4.538,0,1,0,4.537-4.536A4.538,4.538,0,0,0,5496.172,921.309Z" transform="translate(-5467.47 -898.444)" fill="#f07c80" opacity="0.37"/>
                <path id="Trazado_37000" data-name="Trazado 37000" d="M5469.671,921.99a4.538,4.538,0,1,1-4.538-4.537A4.537,4.537,0,0,1,5469.671,921.99Z" transform="translate(-5460.595 -898.575)" fill="#f07c80" opacity="0.37"/>
              </g>
              <path id="Trazado_37001" data-name="Trazado 37001" d="M5468.589,968.7s-26.312,6.5-30.178,21.185c-1.816,6.9,10.234,9.263,10.234,9.263s17.719-14.346,18.212-19.914A77.378,77.378,0,0,1,5468.589,968.7Z" transform="translate(-5384.861 -870.38)" fill="#2975fa"/>
              <path id="Trazado_37002" data-name="Trazado 37002" d="M5494.534,968.565s24.775,4.8,31.593,17.852c3.49,6.684-9.941,11.739-9.941,11.739s-19.245-12.906-19.765-18.788A67.447,67.447,0,0,0,5494.534,968.565Z" transform="translate(-5395.741 -870.354)" fill="#2975fa"/>
              <g id="Grupo_34621" data-name="Grupo 34621" transform="translate(0 79.302)">
                <path id="Trazado_37003" data-name="Trazado 37003" d="M5391.831,958.542l.853.054a.988.988,0,0,0,1.046-.922l.909-6.557a.989.989,0,0,0-.922-1.047l-1.837-.116a.99.99,0,0,0-1.046.923l.076,6.619A.989.989,0,0,0,5391.831,958.542Z" transform="translate(-5375.704 -946.06)" fill="#e08d56"/>
                <g id="Grupo_34620" data-name="Grupo 34620">
                  <path id="Trazado_37004" data-name="Trazado 37004" d="M5374,957.75c-.094-.083-1.476-1.185-1.555-1.283-.75-.945-.226-1.9.621-2.685l5.688-7.753a2.138,2.138,0,0,1,.862-.725,2.2,2.2,0,0,1,2.481.53l8.686,10.851a2.39,2.39,0,0,1,.5,1.271,2.958,2.958,0,0,1-1.286,2.787l-3.476,3.228c-1.811,1.986-3.076,1.508-3.9.614Z" transform="translate(-5372.08 -945.127)" fill="#f2bc98"/>
                </g>
              </g>
              <path id="Trazado_37005" data-name="Trazado 37005" d="M5478.025,862.737s.731,8.955-6.944,11.7-9.869,4.02-11.7,6.762-3.473,6.579-12.244,8.224c0,0,1.3-29.423,15.451-33.078S5478.025,862.737,5478.025,862.737Z" transform="translate(-5386.584 -848.515)" fill="#4c1a0a"/>
              <path id="Trazado_37006" data-name="Trazado 37006" d="M5487.2,868.154s7.188,5.352,7.066,7.793-5.727,11.456,2.559,14.015c0,0-3.289-3.167-.853-6.457s2.8-5.239,2.8-5.239S5498.282,890.45,5509,894.1c0,0,4.63-16.691-5.6-28.144S5484.028,861.331,5487.2,868.154Z" transform="translate(-5394.2 -849.341)" fill="#4c1a0a"/>
              <path id="Trazado_37007" data-name="Trazado 37007" d="M5487.11,866.949s2.225,5.474-2.051,6.3-11.742,2.837-10.385,6.491-.916,5.665-.916,5.665,2.415-2.626-1.63-5.117-1.374-7.323,1.63-7.774,8.719-4.179,6.136-6.883-14.074-8.24-8.419-10.59,25.207-4.668,30.325,3.985-1.623,10.119-1.623,10.119Z" transform="translate(-5390.987 -848.002)" fill="#4c1a0a"/>
              <path id="Trazado_37008" data-name="Trazado 37008" d="M5497.415,853.521l-4.584,11.685S5496.281,862.268,5497.415,853.521Z" transform="translate(-5395.412 -848.125)" fill="#6b2411"/>
              <path id="Trazado_37009" data-name="Trazado 37009" d="M5476.751,855.383s-22.719.966-29.51,14.119,1.686,17.281-4.745,24.081-7.527,9.611-4.969,13.779,9.5,18.282,1.646,21.276S5430.4,940,5436.249,942.4c0,0-5.117-7.313,1.462-10.044s11.148-6.021,9.138-15.707-8.022-7.676-3.737-15.9,6.541-6.31,5.382-23.94S5476.751,855.383,5476.751,855.383Z" transform="translate(-5383.749 -848.485)" fill="#6b2411"/>
              <path id="Trazado_37010" data-name="Trazado 37010" d="M5484.909,859.862s-13.551.952-13.546,4.389,3.892,4.753,1.979,6.218-4.49.2-5.175,4.215c0,0,2.622-1.484,9.222-4.919s-3.3-3.931-.259-6.642S5484.909,859.862,5484.909,859.862Z" transform="translate(-5390.647 -849.35)" fill="#6b2411"/>
              <path id="Trazado_37011" data-name="Trazado 37011" d="M5452.852,936.811s4.4,13.619-1.812,16.536-8.205,5.783-4.651,10.2,2.16,12.453-.615,13.551c0,0,8.764-1.095,3.726-14.618,0,0-2.481-3.426,2.271-5.825S5460.293,949.14,5452.852,936.811Z" transform="translate(-5386.1 -864.219)" fill="#6b2411"/>
              <path id="Trazado_37012" data-name="Trazado 37012" d="M5502.915,860.763s12.566,2.552,14.577,10.886.172,16.3,5.386,23.1-.334,12.73,4.542,19.176S5530.1,932.8,5530.1,932.8s-2.746-12.061-7.219-20.468-.086-5.374-3.559-17.581-2.009-15.5-4.019-20.527S5507.162,861.828,5502.915,860.763Z" transform="translate(-5397.361 -849.524)" fill="#6b2411"/>
              <path id="Trazado_37013" data-name="Trazado 37013" d="M5502.915,869.047s.677,18.643,9.455,22.625C5512.37,891.672,5502.915,875.731,5502.915,869.047Z" transform="translate(-5397.361 -851.125)" fill="#6b2411"/>
              <path id="Trazado_37014" data-name="Trazado 37014" d="M5511.056,880.386s8.86,21.845,4.771,30.617a29.325,29.325,0,0,0-1.474,21.225c1.453,4.865-13.848,12.157-5.7,31.349,0,0-2.859-12.464,3.015-19.195,9.353-10.718,6.275-13.237,4.631-19.023s2.829-9.97,2.768-19.29C5519.033,901.006,5516.015,886.861,5511.056,880.386Z" transform="translate(-5398.005 -853.316)" fill="#6b2411"/>
              <path id="Trazado_37015" data-name="Trazado 37015" d="M5521.521,932.83s7.717,14.985.953,20.468-5.85,9.321-2.926,13.159c0,0-1.1-5.723,3.1-9.532S5533.179,948.912,5521.521,932.83Z" transform="translate(-5400.148 -863.45)" fill="#6b2411"/>
              <g id="Grupo_34622" data-name="Grupo 34622" transform="translate(63.097 55.601)">
                <circle id="Elipse_732" data-name="Elipse 732" cx="2.14" cy="2.14" r="2.14" fill="#04adc5"/>
                <path id="Trazado_37016" data-name="Trazado 37016" d="M5452.809,915.751a2.135,2.135,0,0,0-.549.08,2.129,2.129,0,0,1,0,4.119,2.136,2.136,0,1,0,.549-4.2Z" transform="translate(-5450.669 -915.751)" fill="#29c5d1"/>
              </g>
              <g id="Grupo_34623" data-name="Grupo 34623" transform="translate(112.557 55.051)">
                <circle id="Elipse_733" data-name="Elipse 733" cx="2.14" cy="2.14" r="2.14" transform="translate(0 0)" fill="#04adc5"/>
                <path id="Trazado_37017" data-name="Trazado 37017" d="M5514.116,915.069a2.137,2.137,0,0,0-.55.081,2.129,2.129,0,0,1,0,4.119,2.137,2.137,0,1,0,.55-4.2Z" transform="translate(-5511.976 -915.069)" fill="#29c5d1"/>
              </g>
              <g id="Grupo_34624" data-name="Grupo 34624" transform="translate(88.967 393.997)">
                <path id="Trazado_37018" data-name="Trazado 37018" d="M5493.946,1360.719s8.747,14.219,20.661-25.525C5514.607,1335.194,5501.084,1365.577,5493.946,1360.719Z" transform="translate(-5484.595 -1335.194)" fill="#f7b3a6"/>
                <path id="Trazado_37019" data-name="Trazado 37019" d="M5515.172,1366.873l1.154.017-.933-14.232a10.891,10.891,0,0,1,.7-4.927s1.771-9.037-3.727-12.536c0,0-10.772,37.167-20.661,25.525,0,0-2.591.3-8.411,4.67,0,0-2.5,1.462.661,2.6l11.537,1.026s6.761,1.919,9.574-6.56c0,0,8.5-18.556,9.183-8.649Z" transform="translate(-5482.355 -1335.194)" fill="#04adc5"/>
                <path id="Trazado_37020" data-name="Trazado 37020" d="M5524.141,1373.038l-1.284.31.141.837,1.155.017Z" transform="translate(-5490.181 -1342.506)" fill="#155f69"/>
                <path id="Trazado_37021" data-name="Trazado 37021" d="M5502.094,1374.865c-2.589,2.809-6.6,1.685-6.6,1.685l-11.538-1.026c-1.186-.426-1.577-.9-1.6-1.322a3.61,3.61,0,0,0,2.4.731l11.14.844s4.064.854,6.2-.912" transform="translate(-5482.356 -1342.731)" fill="#155f69"/>
              </g>
              <path id="Trazado_37022" data-name="Trazado 37022" d="M5514.607,1333.269s-10.921,37.8-20.661,25.525a82.775,82.775,0,0,0,10.33-26.023l.058-7.541S5514.642,1328.948,5514.607,1333.269Z" transform="translate(-5395.627 -939.271)" fill="#f2bc98"/>
              <path id="Trazado_37023" data-name="Trazado 37023" d="M5457.006,1308.324h18.467l-.95,6.579h-17Z" transform="translate(-5388.49 -936.005)" fill="#1b2b3f"/>
              <path id="Trazado_37024" data-name="Trazado 37024" d="M5503.48,1307.26h18.467l-.95,6.579h-17Z" transform="translate(-5397.47 -935.799)" fill="#1b2b3f"/>
              <path id="Trazado_37025" data-name="Trazado 37025" d="M5459.95,1029.65s6.07,17-3.256,37.087c0,0,40.264-2.582,50.789-3.042,0,0-5.826-7.542-4.953-34.045Z" transform="translate(-5388.43 -882.158)" fill="#2975fa"/>
              <path id="Trazado_37026" data-name="Trazado 37026" d="M5505.935,1057.605c.235.2.371.316.371.316-2.319-9.469-2.213-23.234-2.213-23.234-11.045,1.013-16-3.663-21.559-1.535s-16.4,2.291-16.4,2.291-5.091,5.723,8.4,6.156a29.576,29.576,0,0,1,10.07,2.492c.026.029,24.165,28.169,17.938,44.873a13.057,13.057,0,0,0,9.049-3.9c4.239-4.144,4.344.713,12.809-5.332A39.231,39.231,0,0,1,5505.935,1057.605Z" transform="translate(-5390.072 -882.726)" fill="#2379e0" opacity="0.14"/>
              <path id="Trazado_37027" data-name="Trazado 37027" d="M5541.475,1049.726a22.154,22.154,0,0,1-.549,7.1c-4.423,16.189-35.1,31.484-38.586,33.175l-3.655-7.532a151.726,151.726,0,0,0,16.239-9.458c10.2-6.868,16.562-13.4,17.926-18.391a15.516,15.516,0,0,0,.238-5.446s.607-4.014,3.885-3.223A6.911,6.911,0,0,1,5541.475,1049.726Z" transform="translate(-5396.543 -885.287)" fill="#f2bc98"/>
              <g id="Grupo_34635" data-name="Grupo 34635" transform="translate(87.962 181.997)">
                <path id="Trazado_37028" data-name="Trazado 37028" d="M5501.723,1086.825l.488-.806a1.093,1.093,0,0,0-.368-1.495l-5.95-4.235a1.091,1.091,0,0,0-1.494.367l-1.051,1.738a1.091,1.091,0,0,0,.368,1.494l6.513,3.3A1.091,1.091,0,0,0,5501.723,1086.825Z" transform="translate(-5483.443 -1073.909)" fill="#e08d56"/>
                <g id="Grupo_34633" data-name="Grupo 34633">
                  <g id="Grupo_34625" data-name="Grupo 34625" transform="translate(0.398 4.259)">
                    <path id="Trazado_37029" data-name="Trazado 37029" d="M5481.6,1078.894l3.469,19.265c.076.992,2.777,1.592,6.042,1.345s5.841-1.246,5.767-2.238l.525-19.568Z" transform="translate(-5481.602 -1077.698)" fill="#ed146d"/>
                  </g>
                  <g id="Grupo_34626" data-name="Grupo 34626" transform="translate(0.03 4.226)">
                    <path id="Trazado_37030" data-name="Trazado 37030" d="M5497.75,1077.657l-16.6,1.256.078,1.438,16.6-1.256Z" transform="translate(-5481.146 -1077.657)" fill="#cbd0d1"/>
                  </g>
                  <g id="Grupo_34627" data-name="Grupo 34627" transform="translate(0.109 3.711)">
                    <path id="Trazado_37031" data-name="Trazado 37031" d="M5497.846,1078.971c.106,1.391-3.524,2.8-8.108,3.15s-8.389-.5-8.494-1.894c.918-1.073,3.524-2.805,8.112-3.152s7.408.963,8.49,1.9" transform="translate(-5481.244 -1077.018)" fill="#cbd0d1"/>
                  </g>
                  <g id="Grupo_34628" data-name="Grupo 34628" transform="translate(0 2.276)">
                    <path id="Trazado_37032" data-name="Trazado 37032" d="M5497.711,1077.192c.106,1.4-3.525,2.8-8.108,3.151s-8.388-.5-8.494-1.9c.918-1.07,3.524-2.805,8.112-3.152s7.409.963,8.49,1.9" transform="translate(-5481.109 -1075.239)" fill="#f5f5f5"/>
                  </g>
                  <g id="Grupo_34629" data-name="Grupo 34629" transform="translate(0.334 2.27)">
                    <path id="Trazado_37033" data-name="Trazado 37033" d="M5481.523,1078.422l1.028-2.159,13.623-1.031,1.343,1.979Z" transform="translate(-5481.523 -1075.232)" fill="#f5f5f5"/>
                  </g>
                  <g id="Grupo_34630" data-name="Grupo 34630" transform="translate(1.287 1.616)">
                    <path id="Trazado_37034" data-name="Trazado 37034" d="M5489.67,1077c-3.766.285-6.88-.406-6.966-1.551l.049.655c.086,1.142,3.2,1.84,6.967,1.555s6.737-1.443,6.651-2.585l-.05-.656c.087,1.144-2.89,2.3-6.651,2.582" transform="translate(-5482.704 -1074.422)" fill="#cbd0d1"/>
                  </g>
                  <g id="Grupo_34631" data-name="Grupo 34631" transform="translate(1.285)">
                    <path id="Trazado_37035" data-name="Trazado 37035" d="M5496.321,1074.035c.087,1.144-2.89,2.3-6.651,2.582s-6.88-.406-6.966-1.551,2.888-2.3,6.654-2.584,6.878.414,6.964,1.553" transform="translate(-5482.702 -1072.418)" fill="#f5f5f5"/>
                  </g>
                  <g id="Grupo_34632" data-name="Grupo 34632" transform="translate(1.604 11.069)">
                    <path id="Trazado_37036" data-name="Trazado 37036" d="M5490.422,1088.194c-2.41.182-5.922.24-7.324-.964l1.227,7.519c1.27,1.1,4.465,1.042,6.66.875s5.351-.592,6.442-1.867l.087-7.618c-1.2,1.4-4.685,1.873-7.091,2.055" transform="translate(-5483.098 -1086.139)" fill="#825d1e"/>
                  </g>
                </g>
                <g id="Grupo_34634" data-name="Grupo 34634" transform="translate(1.85 9.886)">
                  <path id="Trazado_37037" data-name="Trazado 37037" d="M5492.713,1101.676c-.129.05-1.913.839-2.048.865-1.308.252-1.972-.748-2.309-1.978l-4.681-9.519a2.372,2.372,0,0,1-.269-1.214,2.431,2.431,0,0,1,1.785-2.156l15.048-2.958a2.642,2.642,0,0,1,1.5.161,3.266,3.266,0,0,1,2.07,2.68l1.382,5.047c1.019,2.786-.1,3.78-1.392,4.133Z" transform="translate(-5483.401 -1084.673)" fill="#f2bc98"/>
                </g>
              </g>
              <path id="Trazado_37038" data-name="Trazado 37038" d="M5438.675,988.367l-3.447,1.914s-14.1,25.858-20.331,29.422c0,0,2.8,6.092,9.259,7.8,0,0,18.07-17.329,22.229-31.376C5449.414,985.9,5438.675,988.367,5438.675,988.367Z" transform="translate(-5380.354 -874.13)" fill="#2975fa"/>
              <path id="Trazado_37039" data-name="Trazado 37039" d="M5530.448,990.693s12.227,27.911,13.322,37.308c0,0-6.151,3.533-10.477,2.437,0,0-9.31-25.981-16.393-33.813C5516.9,996.625,5522.6,995.725,5530.448,990.693Z" transform="translate(-5400.063 -874.63)" fill="#2975fa"/>
              <path id="Trazado_37040" data-name="Trazado 37040" d="M5416.586,1027.422s-4.264,2.8-6.823.853c0,0,0,3.168,2.437,3.534,0,0,.019,3.977,2.812,4.507,0,0,.355,2.558,3.888,2.558a3.342,3.342,0,0,0,4.63,0s-1.462-.365-.366-3.776S5416.586,1027.422,5416.586,1027.422Z" transform="translate(-5379.361 -881.727)" fill="#2975fa"/>
              <path id="Trazado_37041" data-name="Trazado 37041" d="M5415.844,1026.128s4.375,6.651,10.1,7.26l-1.828,2.678a16.037,16.037,0,0,1-10.05-8.285Z" transform="translate(-5380.194 -881.477)" fill="#1f58bb"/>
              <path id="Trazado_37042" data-name="Trazado 37042" d="M5536.912,1037.214s-.271,5.095-3.358,6c0,0,2.55,1.878,4.29.133,0,0,3.213,2.343,5.3.409,0,0,2.271,1.23,4.367-1.615a3.341,3.341,0,0,0,2.745-3.727s-1.162.96-3.258-1.946S5536.912,1037.214,5536.912,1037.214Z" transform="translate(-5403.281 -883.258)" fill="#2975fa"/>
              <path id="Trazado_37043" data-name="Trazado 37043" d="M5535.517,1037.549s7.95.419,11.836-3.831l1.073,3.059a16.039,16.039,0,0,1-12.631,3.18Z" transform="translate(-5403.66 -882.944)" fill="#1f58bb"/>
              <g id="Grupo_34636" data-name="Grupo 34636" transform="translate(80.487 96.175)">
                <circle id="Elipse_734" data-name="Elipse 734" cx="2.14" cy="2.14" r="2.14" transform="translate(0 0)" fill="#04adc5"/>
                <path id="Trazado_37044" data-name="Trazado 37044" d="M5474.365,966.042a2.1,2.1,0,0,0-.55.081,2.129,2.129,0,0,1,0,4.119,2.137,2.137,0,1,0,.55-4.2Z" transform="translate(-5472.225 -966.042)" fill="#29c5d1"/>
              </g>
              <g id="Grupo_34637" data-name="Grupo 34637" transform="translate(79.938 99.692)">
                <circle id="Elipse_735" data-name="Elipse 735" cx="2.14" cy="2.14" r="2.14" transform="translate(0 0)" fill="#04adc5"/>
                <path id="Trazado_37045" data-name="Trazado 37045" d="M5473.684,970.4a2.136,2.136,0,0,0-.55.081,2.129,2.129,0,0,1,0,4.119,2.136,2.136,0,1,0,.55-4.2Z" transform="translate(-5471.544 -970.401)" fill="#29c5d1"/>
              </g>
              <g id="Grupo_34638" data-name="Grupo 34638" transform="translate(79.232 103.658)">
                <circle id="Elipse_736" data-name="Elipse 736" cx="2.14" cy="2.14" r="2.14" fill="#04adc5"/>
                <path id="Trazado_37046" data-name="Trazado 37046" d="M5472.809,975.317a2.133,2.133,0,0,0-.55.08,2.129,2.129,0,0,1,0,4.119,2.136,2.136,0,1,0,.55-4.2Z" transform="translate(-5470.669 -975.317)" fill="#29c5d1"/>
              </g>
              <g id="Grupo_34639" data-name="Grupo 34639" transform="translate(79.768 107.628)">
                <circle id="Elipse_737" data-name="Elipse 737" cx="2.14" cy="2.14" r="2.14" fill="#04adc5"/>
                <path id="Trazado_37047" data-name="Trazado 37047" d="M5473.474,980.238a2.143,2.143,0,0,0-.55.08,2.129,2.129,0,0,1,0,4.119,2.136,2.136,0,1,0,.55-4.2Z" transform="translate(-5471.334 -980.238)" fill="#29c5d1"/>
              </g>
              <g id="Grupo_34640" data-name="Grupo 34640" transform="translate(80.733 111.51)">
                <circle id="Elipse_738" data-name="Elipse 738" cx="2.14" cy="2.14" r="2.14" fill="#04adc5"/>
                <path id="Trazado_37048" data-name="Trazado 37048" d="M5474.669,985.05a2.128,2.128,0,0,0-.549.08,2.129,2.129,0,0,1,0,4.119,2.093,2.093,0,0,0,.549.081,2.14,2.14,0,1,0,0-4.28Z" transform="translate(-5472.529 -985.05)" fill="#29c5d1"/>
              </g>
              <g id="Grupo_34641" data-name="Grupo 34641" transform="translate(82.323 115.074)">
                <circle id="Elipse_739" data-name="Elipse 739" cx="2.14" cy="2.14" r="2.14" transform="translate(0 0)" fill="#04adc5"/>
                <path id="Trazado_37049" data-name="Trazado 37049" d="M5476.641,989.467a2.136,2.136,0,0,0-.55.08,2.129,2.129,0,0,1,0,4.12,2.136,2.136,0,1,0,.55-4.2Z" transform="translate(-5474.501 -989.467)" fill="#29c5d1"/>
              </g>
              <g id="Grupo_34642" data-name="Grupo 34642" transform="translate(85.258 117.213)">
                <circle id="Elipse_740" data-name="Elipse 740" cx="2.14" cy="2.14" r="2.14" transform="translate(0 0)" fill="#04adc5"/>
                <path id="Trazado_37050" data-name="Trazado 37050" d="M5480.279,992.119a2.13,2.13,0,0,0-.55.081,2.129,2.129,0,0,1,0,4.119,2.136,2.136,0,1,0,.55-4.2Z" transform="translate(-5478.139 -992.119)" fill="#29c5d1"/>
              </g>
              <g id="Grupo_34643" data-name="Grupo 34643" transform="translate(88.723 118.259)">
                <circle id="Elipse_741" data-name="Elipse 741" cx="2.14" cy="2.14" r="2.14" transform="translate(0 0)" fill="#04adc5"/>
                <path id="Trazado_37051" data-name="Trazado 37051" d="M5484.573,993.415a2.134,2.134,0,0,0-.55.081,2.129,2.129,0,0,1,0,4.119,2.137,2.137,0,1,0,.55-4.2Z" transform="translate(-5482.433 -993.415)" fill="#29c5d1"/>
              </g>
              <g id="Grupo_34644" data-name="Grupo 34644" transform="translate(92.463 117.213)">
                <circle id="Elipse_742" data-name="Elipse 742" cx="2.14" cy="2.14" r="2.14" transform="translate(0 0)" fill="#04adc5"/>
                <path id="Trazado_37052" data-name="Trazado 37052" d="M5489.209,992.119a2.126,2.126,0,0,0-.549.081,2.129,2.129,0,0,1,0,4.119,2.136,2.136,0,1,0,.549-4.2Z" transform="translate(-5487.069 -992.119)" fill="#29c5d1"/>
              </g>
              <g id="Grupo_34645" data-name="Grupo 34645" transform="translate(95.58 115.569)">
                <circle id="Elipse_743" data-name="Elipse 743" cx="2.14" cy="2.14" r="2.14" fill="#04adc5"/>
                <path id="Trazado_37053" data-name="Trazado 37053" d="M5493.073,990.081a2.124,2.124,0,0,0-.549.08,2.129,2.129,0,0,1,0,4.119,2.093,2.093,0,0,0,.549.081,2.14,2.14,0,0,0,0-4.28Z" transform="translate(-5490.933 -990.081)" fill="#29c5d1"/>
              </g>
              <g id="Grupo_34646" data-name="Grupo 34646" transform="translate(97.72 112.795)">
                <circle id="Elipse_744" data-name="Elipse 744" cx="2.14" cy="2.14" r="2.14" transform="translate(0 0)" fill="#04adc5"/>
                <path id="Trazado_37054" data-name="Trazado 37054" d="M5495.726,986.642a2.136,2.136,0,0,0-.55.08,2.129,2.129,0,0,1,0,4.12,2.137,2.137,0,1,0,.55-4.2Z" transform="translate(-5493.585 -986.642)" fill="#29c5d1"/>
              </g>
              <g id="Grupo_34647" data-name="Grupo 34647" transform="translate(98.792 109.37)">
                <circle id="Elipse_745" data-name="Elipse 745" cx="2.14" cy="2.14" r="2.14" transform="translate(0 0)" fill="#04adc5"/>
                <path id="Trazado_37055" data-name="Trazado 37055" d="M5497.055,982.4a2.13,2.13,0,0,0-.55.081,2.129,2.129,0,0,1,0,4.119,2.137,2.137,0,1,0,.55-4.2Z" transform="translate(-5494.915 -982.397)" fill="#29c5d1"/>
              </g>
              <g id="Grupo_34648" data-name="Grupo 34648" transform="translate(99.86 105.981)">
                <circle id="Elipse_746" data-name="Elipse 746" cx="2.14" cy="2.14" r="2.14" fill="#04adc5"/>
                <path id="Trazado_37056" data-name="Trazado 37056" d="M5498.378,978.2a2.118,2.118,0,0,0-.549.08,2.129,2.129,0,0,1,0,4.119,2.1,2.1,0,0,0,.549.08,2.14,2.14,0,1,0,0-4.279Z" transform="translate(-5496.238 -978.196)" fill="#29c5d1"/>
              </g>
              <g id="Grupo_34649" data-name="Grupo 34649" transform="translate(99.749 102.067)">
                <circle id="Elipse_747" data-name="Elipse 747" cx="2.14" cy="2.14" r="2.14" fill="#04adc5"/>
                <path id="Trazado_37057" data-name="Trazado 37057" d="M5498.24,973.345a2.127,2.127,0,0,0-.55.08,2.129,2.129,0,0,1,0,4.119,2.136,2.136,0,1,0,.55-4.2Z" transform="translate(-5496.1 -973.345)" fill="#29c5d1"/>
              </g>
              <g id="Grupo_34650" data-name="Grupo 34650" transform="translate(99.199 98.315)">
                <circle id="Elipse_748" data-name="Elipse 748" cx="2.14" cy="2.14" r="2.14" transform="translate(0 0)" fill="#04adc5"/>
                <path id="Trazado_37058" data-name="Trazado 37058" d="M5497.558,968.694a2.13,2.13,0,0,0-.549.081,2.129,2.129,0,0,1,0,4.119,2.136,2.136,0,1,0,.549-4.2Z" transform="translate(-5495.418 -968.694)" fill="#29c5d1"/>
              </g>
              <g id="Grupo_34651" data-name="Grupo 34651" transform="translate(98.649 95.178)">
                <circle id="Elipse_749" data-name="Elipse 749" cx="2.14" cy="2.14" r="2.14" fill="#04adc5"/>
                <path id="Trazado_37059" data-name="Trazado 37059" d="M5496.877,964.806a2.123,2.123,0,0,0-.549.08,2.129,2.129,0,0,1,0,4.119,2.09,2.09,0,0,0,.549.081,2.14,2.14,0,0,0,0-4.28Z" transform="translate(-5494.737 -964.806)" fill="#29c5d1"/>
              </g>
              <path id="Trazado_37060" data-name="Trazado 37060" d="M5453.194,1101.467s-3.411,10.073-7.188,15.8l2.231.975s6.187-9.522,7.338-15.848Z" transform="translate(-5386.365 -896.034)" fill="#1b2b3f"/>
              <path id="Trazado_37061" data-name="Trazado 37061" d="M5511.085,1104.928s3.411,10.073,7.188,15.8l-2.23.975s-6.187-9.522-7.339-15.848Z" transform="translate(-5398.479 -896.703)" fill="#1b2b3f"/>
              <g id="Grupo_34654" data-name="Grupo 34654" transform="translate(111.474 188.223)">
                <rect id="Rectángulo_3761" data-name="Rectángulo 3761" width="4.876" height="10.555" rx="0.566" transform="translate(0.402 2.71) rotate(-33.764)" fill="#04adc5"/>
                <rect id="Rectángulo_3762" data-name="Rectángulo 3762" width="3.963" height="9.319" rx="1.982" transform="translate(1.213 3.101) rotate(-33.764)" fill="#55c8d9"/>
                <rect id="Rectángulo_3763" data-name="Rectángulo 3763" width="7.894" height="7.894" rx="3.029" transform="translate(6.563 0.436) rotate(56.236)" fill="#b7d2d9"/>
                <g id="Grupo_34652" data-name="Grupo 34652" transform="translate(0.678 1.114)">
                  <rect id="Rectángulo_3764" data-name="Rectángulo 3764" width="6.917" height="6.917" rx="2.423" transform="translate(5.75) rotate(56.236)" fill="#1a1a1a"/>
                  <path id="Trazado_37062" data-name="Trazado 37062" d="M5515.4,1082.784l-2.5,1.672a1.957,1.957,0,0,0-.862,1.767,1.947,1.947,0,0,1,.66-.75l2.5-1.671a1.957,1.957,0,0,1,2.712.539l1.67,2.5a1.942,1.942,0,0,1,.324.945,1.955,1.955,0,0,0-.121-1.962l-1.671-2.5A1.958,1.958,0,0,0,5515.4,1082.784Z" transform="translate(-5511.275 -1081.698)" fill="#333"/>
                </g>
                <g id="Grupo_34653" data-name="Grupo 34653" transform="translate(2.699 3.399)">
                  <path id="Trazado_37063" data-name="Trazado 37063" d="M5513.9,1088.576l-.3-.444.055-.278.437.652-.021.1Zm.321.119.435.649-.277-.055-.3-.444.035-.174Z" transform="translate(-5513.599 -1085.026)" fill="#d2f0f4"/>
                  <path id="Trazado_37064" data-name="Trazado 37064" d="M5514.559,1088.051l-.436-.651.277.055.3.443-.035.174Zm.443-1.28-.053.276-.539.36-.274-.056Zm1.035,1.549-.867.579.054-.275.538-.361Zm-.718-.761.14.026-.028.14-.579.386-.138-.028.027-.138Zm.294.06.434.65-.277-.055-.3-.444.037-.174Z" transform="translate(-5513.7 -1084.817)" fill="#d2f0f4"/>
                  <path id="Trazado_37065" data-name="Trazado 37065" d="M5515.97,1086.944l-.112-.166.167-.111.111.166Zm.751,1.124-.111-.166.167-.111.111.166Z" transform="translate(-5514.035 -1084.797)" fill="#d2f0f4"/>
                  <path id="Trazado_37066" data-name="Trazado 37066" d="M5516.84,1086.466l-.035.174-.1-.02-.436-.652.277.055Zm.477.713-.055.277-.434-.649.019-.106.174.035Zm-.172-1.841-.052.276-.539.36-.275-.057Zm1.036,1.55-.867.579.054-.276.538-.36Zm-.549-.89-.019.1-.176-.033-.3-.444.055-.278Zm.56.838-.277-.056-.3-.443.036-.175.1.024Z" transform="translate(-5514.114 -1084.54)" fill="#d2f0f4"/>
                  <path id="Trazado_37067" data-name="Trazado 37067" d="M5518.32,1085.476l-.035.173-.1-.02-.436-.652.277.055Zm.477.713-.055.278-.434-.65.019-.106.174.035Zm-.172-1.84-.052.275-.539.361-.275-.056Zm1.036,1.549-.867.579.053-.276.539-.36Zm-.55-.89-.019.1-.175-.033-.3-.444.055-.277Zm.56.838-.277-.056-.3-.443.036-.175.1.024Z" transform="translate(-5514.399 -1084.349)" fill="#d2f0f4"/>
                </g>
                <path id="Trazado_37068" data-name="Trazado 37068" d="M5515.207,1089.826l4.322-2.889-.117.4-3.593,2.4Z" transform="translate(-5511.21 -1081.45)" fill="#a8e3eb"/>
                <path id="Trazado_37069" data-name="Trazado 37069" d="M5515.88,1090.833l4.322-2.889-.118.4-3.593,2.4Z" transform="translate(-5511.34 -1081.644)" fill="#a8e3eb"/>
              </g>
            </g>
          </g>
        </g>
      </g>
    </g>
  </g>
</svg>
