<svg xmlns="http://www.w3.org/2000/svg" width="264" height="232" viewBox="0 0 264 232">
  <g id="Grupo_3995" data-name="Grupo 3995" transform="translate(-48 -120)">
    <rect id="Rect치ngulo_2130" data-name="Rect치ngulo 2130" width="264" height="232" transform="translate(48 120)" fill="none"/>
    <g id="Grupo_4008" data-name="Grupo 4008" transform="translate(-74.833 -1196.612)">
      <path id="Trazado_8834" data-name="Trazado 8834" d="M138.553,1413.2s-3.85-80.318,80.442-80.318,77.148,79.789,114.633,90.809,64.832,75.472-5.434,101.566S131.5,1523.446,138.553,1413.2Z" fill="#6d31ff"/>
      <rect id="Rect치ngulo_2122" data-name="Rect치ngulo 2122" width="240" height="206" transform="translate(134.833 1330.612)" fill="none"/>
      <g id="Grupo_3930" data-name="Grupo 3930">
        <g id="Grupo_3929" data-name="Grupo 3929">
          <g id="Grupo_3928" data-name="Grupo 3928">
            <path id="Trazado_8835" data-name="Trazado 8835" d="M198.84,1399.4l1.365,7.686,109.184-5.961v-8.049Z" fill="#f42561"/>
            <path id="Trazado_8836" data-name="Trazado 8836" d="M205.3,1412.333l-.553,89,102.078,1.111-2.227-93.966Z" fill="#f2d86d"/>
            <path id="Trazado_8837" data-name="Trazado 8837" d="M202.114,1487.233l106.593,1.909-.261,12.963-106.362-1.2Z" fill="#f42561"/>
            <path id="Trazado_8838" data-name="Trazado 8838" d="M210.381,1502.246l-.224-12.283,85.059,1.711.621,8.48Z" fill="#dd195a"/>
            <path id="Trazado_8839" data-name="Trazado 8839" d="M312.063,1501.278H198.158l3.7-1.921,106.539-1.078Z" fill="#823b4d"/>
            <g id="Grupo_3908" data-name="Grupo 3908">
              <path id="Trazado_8840" data-name="Trazado 8840" d="M213.37,1452.078l-.789,47.324,23.8.221.613-47.5Z" fill="#512508"/>
              <path id="Trazado_8841" data-name="Trazado 8841" d="M216.676,1462.822l18.516.1-.471,25.564-18.429.209Z" fill="#331506"/>
              <path id="Trazado_8842" data-name="Trazado 8842" d="M217.468,1464.077l-.453,23.646,16.917-.068.29-23.309Z" fill="#d4eef4"/>
              <path id="Trazado_8843" data-name="Trazado 8843" d="M229.2,1475.7l2.774.056-.206,2.118-2.444-.212Z" fill="#f7f8f9"/>
              <path id="Trazado_8844" data-name="Trazado 8844" d="M215.734,1490.228l-.01,7.032,18.114-.406.474-7.336Z" fill="#d4eef4"/>
              <path id="Trazado_8845" data-name="Trazado 8845" d="M215.734,1490.228l2.615-.165.477,7.151-3.1.047Z" fill="#f7f8f9"/>
              <path id="Trazado_8846" data-name="Trazado 8846" d="M235.408,1461.536l-.013-7.4-19.892-.35.011,7.507Z" fill="#d4eef4"/>
              <path id="Trazado_8847" data-name="Trazado 8847" d="M230.673,1453.989l-3.283-.066,2.238,7.5,3.133.1Z" fill="#f7f8f9" opacity="0.39"/>
              <path id="Trazado_8848" data-name="Trazado 8848" d="M219.376,1453.9l-1.512.026,2.138,7.4,1.461.1Z" fill="#f7f8f9" opacity="0.39"/>
              <path id="Trazado_8849" data-name="Trazado 8849" d="M213.872,1451.259l-.272-1.64,23.582.334-.189,1.64Z" fill="#471a27"/>
              <path id="Trazado_8850" data-name="Trazado 8850" d="M212.415,1450.711l25.541.2-.321,2.032-24.873-.016Z" fill="#331506"/>
              <path id="Trazado_8851" data-name="Trazado 8851" d="M213.489,1473.546l0,4.905,2.367,0,.21-4.937a.908.908,0,0,1-.681-.449h-1.223A.76.76,0,0,1,213.489,1473.546Z" fill="#f7890f"/>
              <path id="Trazado_8852" data-name="Trazado 8852" d="M215.289,1473.355h-1.014s.069.364-.546.432l.11,4.442h1.674l.29-4.408A.445.445,0,0,1,215.289,1473.355Z" fill="none" stroke="#ba8149" stroke-miterlimit="10" stroke-width="0.068"/>
              <path id="Trazado_8853" data-name="Trazado 8853" d="M214.431,1477.864h.467l-.125-.695a.387.387,0,0,0,.126-.405c-.068-.262-.347-.256-.512,0a.243.243,0,0,0,.1.376Z" fill="#936134"/>
              <g id="Grupo_3907" data-name="Grupo 3907">
                <circle id="Elipse_574" data-name="Elipse 574" cx="1.015" cy="1.015" r="1.015" transform="translate(213.746 1474.129)" fill="#cc6a11"/>
                <path id="Trazado_8854" data-name="Trazado 8854" d="M214.762,1474.129a1,1,0,0,0-.24.03,1.013,1.013,0,0,1,0,1.97.994.994,0,0,0,.239.03,1.015,1.015,0,0,0,0-2.03Z" fill="#bc5f13"/>
              </g>
            </g>
            <g id="Grupo_3910" data-name="Grupo 3910">
              <path id="Trazado_8855" data-name="Trazado 8855" d="M219.288,1423.647l.222,19.585,20.347.033.457-19.922Z" fill="#f7f8f9"/>
              <path id="Trazado_8856" data-name="Trazado 8856" d="M220.177,1438.186l-.188,4.56,19.65-.022.016-3.692Z" fill="#86dce0"/>
              <g id="Grupo_3909" data-name="Grupo 3909">
                <path id="Trazado_8857" data-name="Trazado 8857" d="M219.288,1423.647l.679-.507,19.161-.308,1.186.511Z" fill="#894812"/>
                <path id="Trazado_8858" data-name="Trazado 8858" d="M219.51,1443.232l1.513-2.505,16.514.847v-16.514l-17.82.016-.43-1.428,21.026-.3-.457,19.922Z" fill="#d8821a"/>
                <path id="Trazado_8859" data-name="Trazado 8859" d="M221.87,1442.844l.423-18.631-3-.209.216,19.229Z" fill="#d8821a"/>
              </g>
              <path id="Trazado_8860" data-name="Trazado 8860" d="M220.395,1432.263l19.055-.423-.218,2.535H220.177Z" fill="#d8821a"/>
              <path id="Trazado_8861" data-name="Trazado 8861" d="M231.609,1424.212l-1.059,18.843h-1.694V1424Z" fill="#d8821a"/>
            </g>
            <g id="Grupo_3912" data-name="Grupo 3912">
              <path id="Trazado_8862" data-name="Trazado 8862" d="M269.677,1423.647l.222,19.585,20.347.033.457-19.922Z" fill="#f7f8f9"/>
              <path id="Trazado_8863" data-name="Trazado 8863" d="M270.566,1438.186l-.188,4.56,19.65-.022.016-3.692Z" fill="#86dce0"/>
              <g id="Grupo_3911" data-name="Grupo 3911">
                <path id="Trazado_8864" data-name="Trazado 8864" d="M269.677,1423.647l.679-.507,19.161-.308,1.186.511Z" fill="#894812"/>
                <path id="Trazado_8865" data-name="Trazado 8865" d="M269.9,1443.232l1.513-2.505,16.514.847v-16.514l-17.82.016-.43-1.428,21.026-.3-.457,19.922Z" fill="#d8821a"/>
                <path id="Trazado_8866" data-name="Trazado 8866" d="M272.26,1442.844l.423-18.631-3-.209.216,19.229Z" fill="#d8821a"/>
              </g>
              <path id="Trazado_8867" data-name="Trazado 8867" d="M270.784,1432.263l19.055-.423-.218,2.535H270.566Z" fill="#d8821a"/>
              <path id="Trazado_8868" data-name="Trazado 8868" d="M282,1424.212l-1.059,18.843h-1.694V1424Z" fill="#d8821a"/>
            </g>
            <g id="Grupo_3913" data-name="Grupo 3913">
              <path id="Trazado_8869" data-name="Trazado 8869" d="M209.742,1421.281l.161,1.231,4.684,0V1421.2Z" fill="#f2c536"/>
              <path id="Trazado_8870" data-name="Trazado 8870" d="M206.517,1422.923l.161,1.231,4.684,0v-1.319Z" fill="#e0c75a"/>
              <path id="Trazado_8871" data-name="Trazado 8871" d="M209.839,1424.65l.161,1.231,4.684,0v-1.319Z" fill="#fff6e1"/>
            </g>
            <g id="Grupo_3915" data-name="Grupo 3915">
              <path id="Trazado_8872" data-name="Trazado 8872" d="M242.577,1455.829l.222,19.585,54.223.033.457-19.923Z" fill="#f7f8f9"/>
              <path id="Trazado_8873" data-name="Trazado 8873" d="M243.285,1472.488l-.007,2.439,53.525-.022.016-2.708Z" fill="#86dce0"/>
              <g id="Grupo_3914" data-name="Grupo 3914">
                <path id="Trazado_8874" data-name="Trazado 8874" d="M242.577,1455.829l.679-.508,53.036-.308,1.186.511Z" fill="#894812"/>
                <path id="Trazado_8875" data-name="Trazado 8875" d="M242.8,1475.413l1.513-2.082,50.813.423v-16.091l-51.66.847-.889-2.682,54.9-.3-.457,19.923Z" fill="#d8821a"/>
                <path id="Trazado_8876" data-name="Trazado 8876" d="M245.16,1474.6v-18.208l-2.576-.209.216,19.229Z" fill="#d8821a"/>
              </g>
              <path id="Trazado_8877" data-name="Trazado 8877" d="M243.466,1465.286l52.93-.423v1.694h-52.93Z" fill="#d8821a"/>
              <path id="Trazado_8878" data-name="Trazado 8878" d="M253.417,1456.182l.423,19.055h-1.694v-19.055Z" fill="#d8821a"/>
              <path id="Trazado_8879" data-name="Trazado 8879" d="M264.638,1456.394l.423,19.055h-1.694v-19.055Z" fill="#d8821a"/>
              <path id="Trazado_8880" data-name="Trazado 8880" d="M277.341,1455.97l.423,19.055h-1.694V1455.97Z" fill="#d8821a"/>
              <path id="Trazado_8881" data-name="Trazado 8881" d="M287.927,1455.97l.423,19.055h-1.694V1455.97Z" fill="#d8821a"/>
            </g>
            <g id="Grupo_3916" data-name="Grupo 3916">
              <path id="Trazado_8882" data-name="Trazado 8882" d="M297.818,1478.445l.161,1.231,4.684,0v-1.319Z" fill="#f2c536"/>
              <path id="Trazado_8883" data-name="Trazado 8883" d="M294.592,1480.087l.161,1.231,4.684,0V1480Z" fill="#e0c75a"/>
              <path id="Trazado_8884" data-name="Trazado 8884" d="M297.914,1481.814l.161,1.231,4.684,0v-1.319Z" fill="#fff6e1"/>
            </g>
            <g id="Grupo_3917" data-name="Grupo 3917">
              <path id="Trazado_8885" data-name="Trazado 8885" d="M256.744,1431.02l.161,1.231,4.684,0v-1.319Z" fill="#f2c536"/>
              <path id="Trazado_8886" data-name="Trazado 8886" d="M253.519,1432.662l.161,1.231,4.684,0v-1.319Z" fill="#e0c75a"/>
              <path id="Trazado_8887" data-name="Trazado 8887" d="M256.841,1434.389l.161,1.231,4.684,0V1434.3Z" fill="#fff6e1"/>
            </g>
            <g id="Grupo_3920" data-name="Grupo 3920">
              <path id="Trazado_8888" data-name="Trazado 8888" d="M285.849,1500.008h41.415s1.048-8.261-7.232-6.871c0,0-.2-8.931-6.444-9.649s-10.186,3.751-10.88,6.844a5.94,5.94,0,0,0-5.459-2.354,6.693,6.693,0,0,0-5.719,6.039S284.564,1493.364,285.849,1500.008Z" fill="#28773e"/>
              <g id="Grupo_3919" data-name="Grupo 3919">
                <path id="Trazado_8889" data-name="Trazado 8889" d="M285.849,1500.008h41.415s1.048-8.261-7.232-6.871c0,0-.2-8.931-6.444-9.649s-10.186,3.751-10.88,6.844a5.94,5.94,0,0,0-5.459-2.354,6.693,6.693,0,0,0-5.719,6.039S284.564,1493.364,285.849,1500.008Z" fill="#28773e"/>
                <g id="Grupo_3918" data-name="Grupo 3918">
                  <path id="Trazado_8890" data-name="Trazado 8890" d="M295.786,1490.027a5.942,5.942,0,0,1,5.459,2.354c.757-1.1.9-1.207,1.463-2.049a5.484,5.484,0,0,0-5.459-2.354,6.888,6.888,0,0,0-5.2,3.906A6.677,6.677,0,0,1,295.786,1490.027Z" fill="#338947"/>
                  <path id="Trazado_8891" data-name="Trazado 8891" d="M320.032,1493.137s-.2-8.931-6.444-9.649a10.116,10.116,0,0,0-10.252,5.189,10.181,10.181,0,0,1,8.789-3.14c6.246.718,6.443,9.649,6.443,9.649,5.554-.932,6.91,2.476,7.2,4.822h1.495S328.312,1491.747,320.032,1493.137Z" fill="#338947"/>
                  <path id="Trazado_8892" data-name="Trazado 8892" d="M290.066,1496.066a5.035,5.035,0,0,1,.482-2.052c-1.42.081-3.953.578-4.665,3.026A7.139,7.139,0,0,1,290.066,1496.066Z" fill="#338947"/>
                </g>
              </g>
            </g>
            <path id="Trazado_8893" data-name="Trazado 8893" d="M178.527,1500.825l152.089-.809.162,6.453-152.968,1.05Z" fill="#35131e"/>
            <g id="Grupo_3927" data-name="Grupo 3927">
              <g id="Grupo_3926" data-name="Grupo 3926">
                <g id="Grupo_3921" data-name="Grupo 3921">
                  <path id="Trazado_8894" data-name="Trazado 8894" d="M191.62,1500.711s-.477-8.371,11.619-10.174C203.239,1490.537,199.554,1500.406,191.62,1500.711Z" fill="#8cc63f"/>
                  <path id="Trazado_8895" data-name="Trazado 8895" d="M203.239,1490.537s-4.979,7.7-8.139,7.235c-1.715-.256-1.058-2.149.619-4.481a9.262,9.262,0,0,0-4.1,7.157q.018.135.036.261C199.565,1500.376,203.239,1490.537,203.239,1490.537Z" fill="#8aba3e"/>
                </g>
                <g id="Grupo_3922" data-name="Grupo 3922">
                  <path id="Trazado_8896" data-name="Trazado 8896" d="M191.555,1500.711s-3.934-7.4,6.3-14.1C197.855,1486.611,198.634,1497.117,191.555,1500.711Z" fill="#8cc63f"/>
                  <path id="Trazado_8897" data-name="Trazado 8897" d="M197.855,1486.611s-1.3,9.081-4.368,9.975c-1.665.485-1.86-1.509-1.312-4.329a9.262,9.262,0,0,0-.731,8.215l.142.223C198.631,1497.085,197.855,1486.611,197.855,1486.611Z" fill="#8aba3e"/>
                </g>
                <g id="Grupo_3923" data-name="Grupo 3923">
                  <path id="Trazado_8898" data-name="Trazado 8898" d="M191.109,1500.736s-7.906-2.793-4.9-14.646C186.212,1486.09,193.892,1493.3,191.109,1500.736Z" fill="#8cc63f"/>
                  <path id="Trazado_8899" data-name="Trazado 8899" d="M186.212,1486.09s5.184,7.569,3.53,10.3c-.9,1.484-2.391.146-3.9-2.3a9.263,9.263,0,0,0,5.019,6.545l.254.068C193.868,1493.279,186.212,1486.09,186.212,1486.09Z" fill="#8aba3e"/>
                </g>
                <g id="Grupo_3924" data-name="Grupo 3924">
                  <path id="Trazado_8900" data-name="Trazado 8900" d="M191.73,1499.425s-6.424-5.388.551-15.433C192.281,1483.992,196.945,1493.438,191.73,1499.425Z" fill="#8cc63f"/>
                  <path id="Trazado_8901" data-name="Trazado 8901" d="M192.281,1483.992s2.2,8.906-.307,10.885c-1.361,1.074-2.29-.7-2.84-3.521a9.26,9.26,0,0,0,2.4,7.889l.215.153C196.93,1493.41,192.281,1483.992,192.281,1483.992Z" fill="#8aba3e"/>
                </g>
                <g id="Grupo_3925" data-name="Grupo 3925">
                  <path id="Trazado_8902" data-name="Trazado 8902" d="M191.617,1500.711s.478-8.371-11.618-10.174C180,1490.537,183.684,1500.406,191.617,1500.711Z" fill="#8cc63f"/>
                  <path id="Trazado_8903" data-name="Trazado 8903" d="M182.565,1491.061s6.988,2.806,6.4,5.58a2.345,2.345,0,0,1-3.16,1.893,9.766,9.766,0,0,0,5.808,2.177S192.144,1493.657,182.565,1491.061Z" fill="#8aba3e"/>
                </g>
              </g>
            </g>
            <path id="Trazado_8904" data-name="Trazado 8904" d="M197.429,1402.851l114.634-5.605,3.258,15.954-117.441,3.449Z" fill="#dd195a"/>
          </g>
        </g>
      </g>
      <g id="Grupo_3931" data-name="Grupo 3931">
        <path id="Trazado_8905" data-name="Trazado 8905" d="M334.09,1458.35s1.184-5.816,6.846-5.471,5.919,6.288,5.919,6.288,6.526-3.278,10.444,1.835c3.223,4.208,2.482,7.777,2.482,7.777s4.738-.707,6.157,3.732l-46.16.508s0-7.593,7.994-6.538C327.772,1466.481,326.869,1458.962,334.09,1458.35Z" fill="#fff"/>
      </g>
      <g id="Grupo_3932" data-name="Grupo 3932">
        <path id="Trazado_8906" data-name="Trazado 8906" d="M257.872,1356.114s-1.438-7.06-8.311-6.642-7.186,7.633-7.186,7.633-7.923-3.979-12.679,2.228c-3.913,5.109-3.014,9.441-3.014,9.441s-5.751-.857-7.473,4.531l56.038.617s0-9.219-9.705-7.937C265.542,1365.985,266.637,1356.857,257.872,1356.114Z" fill="#fff"/>
      </g>
      <g id="Grupo_3933" data-name="Grupo 3933">
        <path id="Trazado_8907" data-name="Trazado 8907" d="M176.6,1436.161s-1.129-5.54-6.521-5.211-5.638,5.989-5.638,5.989-6.217-3.123-9.948,1.748c-3.071,4.008-2.365,7.407-2.365,7.407s-4.513-.673-5.864,3.555l43.968.484s0-7.233-7.614-6.227C182.613,1443.906,183.472,1436.744,176.6,1436.161Z" fill="#fff"/>
      </g>
    </g>
  </g>
</svg>
