<svg xmlns="http://www.w3.org/2000/svg" xmlns:xlink="http://www.w3.org/1999/xlink" width="264" height="232" viewBox="0 0 264 232">
  <defs>
    <linearGradient id="linear-gradient" x1="-1.193" y1="1" x2="-1.193" gradientUnits="objectBoundingBox">
      <stop offset="0" stop-color="#fff" stop-opacity="0"/>
      <stop offset="0.265" stop-color="#fff" stop-opacity="0.278"/>
      <stop offset="0.776" stop-color="#fff" stop-opacity="0.792"/>
      <stop offset="1" stop-color="#fff"/>
    </linearGradient>
    <linearGradient id="linear-gradient-2" x1="-1.261" y1="1" x2="-1.261" y2="0" xlink:href="#linear-gradient"/>
    <linearGradient id="linear-gradient-3" x1="-1.256" y1="1" x2="-1.256" y2="0" xlink:href="#linear-gradient"/>
    <linearGradient id="linear-gradient-4" x1="-1.272" y1="1" x2="-1.272" y2="0" xlink:href="#linear-gradient"/>
    <linearGradient id="linear-gradient-5" x1="0.5" y1="1" x2="0.5" y2="0" xlink:href="#linear-gradient"/>
    <linearGradient id="linear-gradient-9" x1="0.327" y1="2.461" x2="0.327" y2="1.44" xlink:href="#linear-gradient"/>
    <linearGradient id="linear-gradient-10" x1="0.248" y1="2.471" x2="0.248" y2="1.459" xlink:href="#linear-gradient"/>
    <linearGradient id="linear-gradient-11" x1="-0.082" y1="1" x2="-0.082" y2="0" xlink:href="#linear-gradient"/>
    <linearGradient id="linear-gradient-12" x1="-0.346" y1="1" x2="-0.346" y2="0" xlink:href="#linear-gradient"/>
  </defs>
  <g id="Grupo_3995" data-name="Grupo 3995" transform="translate(-48 -120)">
    <rect id="Rect치ngulo_2130" data-name="Rect치ngulo 2130" width="264" height="232" transform="translate(48 120)" fill="none"/>
    <g id="Grupo_3934" data-name="Grupo 3934" transform="translate(-382.673 -1197.612)">
      <path id="Trazado_8908" data-name="Trazado 8908" d="M446.393,1413.2s-3.85-80.318,80.442-80.318,77.148,79.789,114.633,90.809,64.831,75.472-5.435,101.566S439.339,1523.446,446.393,1413.2Z" fill="#6d31ff"/>
      <rect id="Rect치ngulo_2123" data-name="Rect치ngulo 2123" width="240" height="206" transform="translate(442.673 1330.612)" fill="none"/>
      <g id="Grupo_3934-2" data-name="Grupo 3934">
        <path id="Trazado_8909" data-name="Trazado 8909" d="M643.724,1462.66s.836-4.106,4.834-3.862,4.18,4.439,4.18,4.439,4.609-2.315,7.375,1.3a7.279,7.279,0,0,1,1.753,5.492s3.346-.5,4.347,2.635l-32.6.359a4.6,4.6,0,0,1,5.645-4.617S638.625,1463.093,643.724,1462.66Z" fill="#fff"/>
      </g>
      <g id="Grupo_3935" data-name="Grupo 3935">
        <path id="Trazado_8910" data-name="Trazado 8910" d="M565.711,1356.114s-1.438-7.06-8.31-6.642-7.186,7.633-7.186,7.633-7.923-3.979-12.679,2.228c-3.913,5.109-3.014,9.441-3.014,9.441s-5.752-.857-7.473,4.531l56.037.617s0-9.219-9.705-7.937C573.381,1365.985,574.477,1356.857,565.711,1356.114Z" fill="#fff"/>
      </g>
      <g id="Grupo_3936" data-name="Grupo 3936">
        <path id="Trazado_8911" data-name="Trazado 8911" d="M484.434,1436.161s-1.128-5.54-6.52-5.211-5.638,5.989-5.638,5.989-6.217-3.123-9.949,1.748c-3.07,4.008-2.364,7.407-2.364,7.407s-4.513-.673-5.864,3.555l43.968.484s0-7.233-7.615-6.227C490.452,1443.906,491.312,1436.744,484.434,1436.161Z" fill="#fff"/>
      </g>
      <g id="Grupo_3958" data-name="Grupo 3958">
        <g id="Grupo_3951" data-name="Grupo 3951">
          <path id="Trazado_8912" data-name="Trazado 8912" d="M506.173,1459.289l-2.6-60.622H617.99l-.563,60.032Z" fill="#efb73a"/>
          <path id="Trazado_8913" data-name="Trazado 8913" d="M506.356,1510.01l-3.176-49.731,117.506-1.62-1.677,51.351Z" fill="#efb73a"/>
          <path id="Trazado_8914" data-name="Trazado 8914" d="M505.074,1500.22l116.856-.516v11.517H505.074Z" fill="#bf2652"/>
          <g id="Grupo_3937" data-name="Grupo 3937">
            <path id="Trazado_8915" data-name="Trazado 8915" d="M533.805,1507.06l3.346.042.018,1.287h-3.364Z" fill="#aa214f"/>
            <path id="Trazado_8916" data-name="Trazado 8916" d="M535.99,1508.661l3.592.046.019,1.382H535.99Z" fill="#96224e"/>
            <path id="Trazado_8917" data-name="Trazado 8917" d="M532.153,1508.661l3.592.046.019,1.382h-3.611Z" fill="#821a42"/>
          </g>
          <g id="Grupo_3938" data-name="Grupo 3938">
            <path id="Trazado_8918" data-name="Trazado 8918" d="M586.054,1462.8l2.148,33.544,12.482-.59V1462.8Z" fill="#d1992a"/>
            <path id="Trazado_8919" data-name="Trazado 8919" d="M587.233,1464.214l1.821,29.488,10.582-.518v-28.97Z" fill="#d4f2f6"/>
            <path id="Trazado_8920" data-name="Trazado 8920" d="M587.826,1473.812l11.81-4.062v5.7l-11.492,3.508Z" fill="url(#linear-gradient)"/>
            <path id="Trazado_8921" data-name="Trazado 8921" d="M588.279,1481.141l11.358-4.357v3.253l-11.153,4.413Z" fill="url(#linear-gradient-2)"/>
            <path id="Trazado_8922" data-name="Trazado 8922" d="M603.83,1462.8v32.922H617.9l.156-32.507Z" fill="#d1992a"/>
            <path id="Trazado_8923" data-name="Trazado 8923" d="M605.088,1464.2v28.935h11.084l.379-28.571Z" fill="#d4f2f6"/>
            <path id="Trazado_8924" data-name="Trazado 8924" d="M605.088,1473.943l11.39-3.874-.074,5.583-11.316,3.606Z" fill="url(#linear-gradient-3)"/>
            <path id="Trazado_8925" data-name="Trazado 8925" d="M605.088,1482.58l11.289-4.89-.073,4.017-11.216,4.05Z" fill="url(#linear-gradient-4)"/>
          </g>
          <g id="Grupo_3939" data-name="Grupo 3939">
            <path id="Trazado_8926" data-name="Trazado 8926" d="M506.936,1463.872l2.149,33.544,12.482-.59v-32.955Z" fill="#d1992a"/>
            <path id="Trazado_8927" data-name="Trazado 8927" d="M508.116,1465.289l1.821,29.488,10.582-.518v-28.97Z" fill="#d4f2f6"/>
            <path id="Trazado_8928" data-name="Trazado 8928" d="M508.708,1474.887l11.81-4.062v5.7l-11.492,3.508Z" fill="url(#linear-gradient-5)"/>
            <path id="Trazado_8929" data-name="Trazado 8929" d="M509.161,1482.216l11.358-4.357v3.253l-11.153,4.413Z" fill="url(#linear-gradient-5)"/>
            <path id="Trazado_8930" data-name="Trazado 8930" d="M524.712,1463.872v32.922h14.068l-1.026-32.507Z" fill="#d1992a"/>
            <path id="Trazado_8931" data-name="Trazado 8931" d="M525.97,1465.278v28.935h12.365l-.9-28.57Z" fill="#d4f2f6"/>
            <path id="Trazado_8932" data-name="Trazado 8932" d="M525.97,1475.018l11.634-3.957.174,5.51-11.808,3.763Z" fill="url(#linear-gradient-5)"/>
            <path id="Trazado_8933" data-name="Trazado 8933" d="M525.97,1483.655l11.88-4.8.124,3.931-12,4.05Z" fill="url(#linear-gradient-5)"/>
          </g>
          <path id="Trazado_8934" data-name="Trazado 8934" d="M497.863,1461.992l126.1-1.513-.836-3.443-125.264,1.785Z" fill="#b71a4e"/>
          <path id="Trazado_8935" data-name="Trazado 8935" d="M539.025,1511.44l-2.821-56.861,54.933.081-3.019,56.812Z" fill="#9b9b9b"/>
          <g id="Grupo_3940" data-name="Grupo 3940">
            <path id="Trazado_8936" data-name="Trazado 8936" d="M582.082,1490.238l2.961.288-.067-1.01h-2.721Z" fill="#808285"/>
            <path id="Trazado_8937" data-name="Trazado 8937" d="M584.264,1492.552l2.4-.073-.049-.671H584.41Z" fill="#d1d3d4"/>
            <path id="Trazado_8938" data-name="Trazado 8938" d="M584.276,1488.1l2.975.137-.131-1-2.717.137Z" fill="#6d6e71"/>
          </g>
          <path id="Trazado_8939" data-name="Trazado 8939" d="M536.215,1453.29l54.123-.066,4.063,4.522-62.248,1.048Z" fill="#331506"/>
          <path id="Trazado_8940" data-name="Trazado 8940" d="M533.138,1460.266l-.985-1.472,62.248-1.048-.688,1.753Z" fill="#96224e"/>
          <g id="Grupo_3941" data-name="Grupo 3941">
            <path id="Trazado_8941" data-name="Trazado 8941" d="M584.667,1465l2.961.288-.067-1.01h-2.722Z" fill="#808285"/>
            <path id="Trazado_8942" data-name="Trazado 8942" d="M586.849,1467.315l2.4-.073-.049-.671h-2.206Z" fill="#d1d3d4"/>
            <path id="Trazado_8943" data-name="Trazado 8943" d="M586.861,1462.859l2.975.137-.131-1-2.716.137Z" fill="#6d6e71"/>
          </g>
          <g id="Grupo_3942" data-name="Grupo 3942">
            <path id="Trazado_8944" data-name="Trazado 8944" d="M538.781,1478.8l2.961.288-.067-1.01h-2.722Z" fill="#808285"/>
            <path id="Trazado_8945" data-name="Trazado 8945" d="M540.963,1481.115l2.4-.073-.049-.671h-2.206Z" fill="#d1d3d4"/>
            <path id="Trazado_8946" data-name="Trazado 8946" d="M540.975,1476.66l2.974.137-.131-1-2.716.137Z" fill="#6d6e71"/>
          </g>
          <g id="Grupo_3945" data-name="Grupo 3945">
            <path id="Trazado_8947" data-name="Trazado 8947" d="M544.188,1508.993l-.614-45.919,39.9.153-1.094,47.374Z" fill="#2abdd2"/>
            <path id="Trazado_8948" data-name="Trazado 8948" d="M544.8,1507.379l-.6-43.507,38.516.228-.863,43.554Z" fill="#22d0dd"/>
            <path id="Trazado_8949" data-name="Trazado 8949" d="M545.563,1506.9l-.388-42.209,17.8-.085.006,42.211Z" fill="#d4f2f6"/>
            <path id="Trazado_8950" data-name="Trazado 8950" d="M562.216,1474.252l-16.968,5.52.037,3.914,17.681-6.529.02-3.421Z" fill="#fff" opacity="0.6"/>
            <path id="Trazado_8951" data-name="Trazado 8951" d="M562.168,1479.792l-16.893,5.905.04,4.23,17.669-6.176v-4.579Z" fill="#fff" opacity="0.6"/>
            <path id="Trazado_8952" data-name="Trazado 8952" d="M564.009,1506.815l-.388-42.21,18.307.345-.752,42.121Z" fill="#d4f2f6"/>
            <path id="Trazado_8953" data-name="Trazado 8953" d="M581.349,1474.435l-17.6,5.249.037,3.914,17.955-5.494.078-4Z" fill="#fff" opacity="0.6"/>
            <path id="Trazado_8954" data-name="Trazado 8954" d="M581.13,1479.931l-17.352,5.679.04,4.23,17.8-5.163.1-5.079Z" fill="#fff" opacity="0.6"/>
            <path id="Trazado_8955" data-name="Trazado 8955" d="M561.739,1482.145l3.729.268-.454,8.909-2.674-.235Z" fill="#22d0dd"/>
            <path id="Trazado_8956" data-name="Trazado 8956" d="M562.257,1482.782l2.553.223-.117,7.877-2.137-.313Z" fill="#2abdd2"/>
            <path id="Trazado_8957" data-name="Trazado 8957" d="M564.484,1486.069a.865.865,0,1,0-1.725.009.947.947,0,0,0,.48.834l-.259,1.94,1.31.062-.3-1.992A.944.944,0,0,0,564.484,1486.069Z" fill="#208e9e"/>
            <path id="Trazado_8958" data-name="Trazado 8958" d="M564.484,1486.069a.9.9,0,0,0-.867-.932.779.779,0,0,0-.206.029.924.924,0,0,1,.661.905.946.946,0,0,1-.5.853l.3,1.971.416.019-.3-1.992A.944.944,0,0,0,564.484,1486.069Z" fill="#208e9e" opacity="0.2"/>
            <path id="Trazado_8959" data-name="Trazado 8959" d="M543.95,1511.41l-.375-48.336,39.9.153-1.114,48.246Z" fill="#b71a4e"/>
            <path id="Trazado_8960" data-name="Trazado 8960" d="M544.843,1510.772l-.651-46.9,38.516.228-.924,46.671Z" fill="#821a42"/>
            <g id="Grupo_3943" data-name="Grupo 3943">
              <path id="Trazado_8961" data-name="Trazado 8961" d="M545.591,1510.01l-.416-45.316,7.946-.085.007,45.4Z" fill="#d4f2f6"/>
              <path id="Trazado_8962" data-name="Trazado 8962" d="M552.369,1470.115l-7.036,5.716.037,3.914,7.745-6.529.02-3.421Z" fill="#fff" opacity="0.6"/>
              <path id="Trazado_8963" data-name="Trazado 8963" d="M552.321,1475.655l-6.961,6.1.04,4.23,7.733-6.175v-4.579Z" fill="#fff" opacity="0.6"/>
              <path id="Trazado_8964" data-name="Trazado 8964" d="M551.771,1485.225l.086,4.939.48.027-.048-4.937Z" fill="#235667"/>
            </g>
            <g id="Grupo_3944" data-name="Grupo 3944">
              <path id="Trazado_8965" data-name="Trazado 8965" d="M573.89,1510.01l-.417-45.4,8.455.345-1,44.818Z" fill="#d4f2f6"/>
              <path id="Trazado_8966" data-name="Trazado 8966" d="M581.312,1470.494l-7.709,5.249.037,3.914,8-5.472.078-3.806Z" fill="#fff" opacity="0.6"/>
              <path id="Trazado_8967" data-name="Trazado 8967" d="M581.094,1475.99l-7.464,5.679.04,4.23,7.82-5.137.11-4.941Z" fill="#fff" opacity="0.6"/>
              <path id="Trazado_8968" data-name="Trazado 8968" d="M574.53,1485.225l.086,4.939.48.027-.048-4.937Z" fill="#235667"/>
            </g>
          </g>
          <path id="Trazado_8969" data-name="Trazado 8969" d="M507.259,1503.577l5.522.07.03,2.124h-5.552Z" fill="#aa214f"/>
          <path id="Trazado_8970" data-name="Trazado 8970" d="M510.865,1506.219l5.928.075.032,2.28h-5.96Z" fill="#96224e"/>
          <path id="Trazado_8971" data-name="Trazado 8971" d="M504.531,1506.219l5.928.075.032,2.28h-5.96Z" fill="#821a42"/>
          <g id="Grupo_3946" data-name="Grupo 3946">
            <path id="Trazado_8972" data-name="Trazado 8972" d="M590.952,1500.7l3.346.043.018,1.287h-3.364Z" fill="#aa214f"/>
            <path id="Trazado_8973" data-name="Trazado 8973" d="M593.137,1502.3l3.592.046.019,1.382h-3.611Z" fill="#96224e"/>
            <path id="Trazado_8974" data-name="Trazado 8974" d="M589.3,1502.3l3.592.046.019,1.382H589.3Z" fill="#821a42"/>
          </g>
          <g id="Grupo_3947" data-name="Grupo 3947">
            <path id="Trazado_8975" data-name="Trazado 8975" d="M600.423,1507.572l3.346.043.018,1.287h-3.364Z" fill="#aa214f"/>
            <path id="Trazado_8976" data-name="Trazado 8976" d="M602.607,1509.172l3.592.046.019,1.382h-3.611Z" fill="#96224e"/>
            <path id="Trazado_8977" data-name="Trazado 8977" d="M598.77,1509.172l3.592.046.019,1.382H598.77Z" fill="#821a42"/>
          </g>
          <g id="Grupo_3948" data-name="Grupo 3948">
            <path id="Trazado_8978" data-name="Trazado 8978" d="M612.923,1501.5l3.346.043.018,1.287h-3.364Z" fill="#aa214f"/>
            <path id="Trazado_8979" data-name="Trazado 8979" d="M615.108,1503.1l3.592.046.019,1.382h-3.611Z" fill="#96224e"/>
            <path id="Trazado_8980" data-name="Trazado 8980" d="M611.27,1503.1l3.592.046.019,1.382H611.27Z" fill="#821a42"/>
          </g>
          <g id="Grupo_3949" data-name="Grupo 3949">
            <path id="Trazado_8981" data-name="Trazado 8981" d="M509.727,1407.977l.351,21.979,100.2-.916.821-20.725Z" fill="#d1992a"/>
            <path id="Trazado_8982" data-name="Trazado 8982" d="M512.116,1408.009l.344,20.238,95.686-.836.776-19.124Z" fill="#d4f2f6"/>
            <path id="Trazado_8983" data-name="Trazado 8983" d="M519.3,1428.337l22.832-20.242,11.487.033-15.961,19.9Z" fill="url(#linear-gradient-9)"/>
            <path id="Trazado_8984" data-name="Trazado 8984" d="M542.948,1427.98l14.6-19.885,9,.07L551.792,1427.9Z" fill="url(#linear-gradient-10)"/>
          </g>
          <g id="Grupo_3950" data-name="Grupo 3950">
            <path id="Trazado_8985" data-name="Trazado 8985" d="M509.736,1433.9l.6,18.972,100.176-2.238.534-16.734Z" fill="#d1992a"/>
            <path id="Trazado_8986" data-name="Trazado 8986" d="M512.062,1433.9l.638,17.231,95.667-2.1.51-15.133Z" fill="#d4f2f6"/>
            <path id="Trazado_8987" data-name="Trazado 8987" d="M519.535,1451.135l22.315-17.231h12.037l-16,16.679Z" fill="url(#linear-gradient-11)"/>
            <path id="Trazado_8988" data-name="Trazado 8988" d="M543.181,1450.466l14.675-16.563h8.969l-14.8,16.369Z" fill="url(#linear-gradient-12)"/>
          </g>
        </g>
        <path id="Trazado_8989" data-name="Trazado 8989" d="M502.032,1404.838H619.537l2.393-7.105H500.542Z" fill="#f42561"/>
        <path id="Trazado_8990" data-name="Trazado 8990" d="M497.113,1402.349H623.362l2.571-11.449H495.512Z" fill="#b71a4e"/>
        <g id="Grupo_3954" data-name="Grupo 3954">
          <path id="Trazado_8991" data-name="Trazado 8991" d="M484.051,1511.27h36.04s.913-7.189-6.293-5.979c0,0-.172-7.772-5.608-8.4a8.617,8.617,0,0,0-9.468,5.956,5.17,5.17,0,0,0-4.75-2.049,5.825,5.825,0,0,0-4.977,5.255S482.933,1505.488,484.051,1511.27Z" fill="#28773e"/>
          <g id="Grupo_3953" data-name="Grupo 3953">
            <path id="Trazado_8992" data-name="Trazado 8992" d="M484.051,1511.27h36.04s.913-7.189-6.293-5.979c0,0-.172-7.772-5.608-8.4a8.617,8.617,0,0,0-9.468,5.956,5.17,5.17,0,0,0-4.75-2.049,5.825,5.825,0,0,0-4.977,5.255S482.933,1505.488,484.051,1511.27Z" fill="#28773e"/>
            <g id="Grupo_3952" data-name="Grupo 3952">
              <path id="Trazado_8993" data-name="Trazado 8993" d="M492.7,1502.584a5.173,5.173,0,0,1,4.751,2.049c.658-.961.783-1.05,1.273-1.783a4.772,4.772,0,0,0-4.75-2.049,6,6,0,0,0-4.526,3.4A5.815,5.815,0,0,1,492.7,1502.584Z" fill="#338947"/>
              <path id="Trazado_8994" data-name="Trazado 8994" d="M513.8,1505.291s-.172-7.772-5.608-8.4a8.8,8.8,0,0,0-8.921,4.516,8.857,8.857,0,0,1,7.648-2.733c5.435.625,5.607,8.4,5.607,8.4,4.833-.811,6.013,2.154,6.267,4.2h1.3S521,1504.081,513.8,1505.291Z" fill="#338947"/>
              <path id="Trazado_8995" data-name="Trazado 8995" d="M487.721,1507.84a4.392,4.392,0,0,1,.419-1.786c-1.236.07-3.44.5-4.059,2.633A6.207,6.207,0,0,1,487.721,1507.84Z" fill="#338947"/>
            </g>
          </g>
        </g>
        <g id="Grupo_3957" data-name="Grupo 3957">
          <path id="Trazado_8996" data-name="Trazado 8996" d="M640.749,1511.27h-36.04s-.912-7.189,6.294-5.979c0,0,.172-7.772,5.607-8.4a8.616,8.616,0,0,1,9.468,5.956,5.171,5.171,0,0,1,4.751-2.049,5.826,5.826,0,0,1,4.977,5.255S641.868,1505.488,640.749,1511.27Z" fill="#28773e"/>
          <g id="Grupo_3956" data-name="Grupo 3956">
            <path id="Trazado_8997" data-name="Trazado 8997" d="M640.749,1511.27h-36.04s-.912-7.189,6.294-5.979c0,0,.172-7.772,5.607-8.4a8.616,8.616,0,0,1,9.468,5.956,5.171,5.171,0,0,1,4.751-2.049,5.826,5.826,0,0,1,4.977,5.255S641.868,1505.488,640.749,1511.27Z" fill="#28773e"/>
            <g id="Grupo_3955" data-name="Grupo 3955">
              <path id="Trazado_8998" data-name="Trazado 8998" d="M632.1,1502.584a5.17,5.17,0,0,0-4.75,2.049c-.659-.961-.783-1.05-1.274-1.783a4.774,4.774,0,0,1,4.751-2.049,5.993,5.993,0,0,1,4.525,3.4A5.812,5.812,0,0,0,632.1,1502.584Z" fill="#338947"/>
              <path id="Trazado_8999" data-name="Trazado 8999" d="M611,1505.291s.172-7.772,5.607-8.4a8.8,8.8,0,0,1,8.922,4.516,8.857,8.857,0,0,0-7.648-2.733c-5.436.625-5.608,8.4-5.608,8.4-4.833-.811-6.012,2.154-6.266,4.2h-1.3S603.8,1504.081,611,1505.291Z" fill="#338947"/>
              <path id="Trazado_9000" data-name="Trazado 9000" d="M637.079,1507.84a4.359,4.359,0,0,0-.419-1.786c1.236.07,3.441.5,4.06,2.633A6.21,6.21,0,0,0,637.079,1507.84Z" fill="#338947"/>
            </g>
          </g>
        </g>
      </g>
    </g>
  </g>
</svg>
