<svg xmlns="http://www.w3.org/2000/svg" width="264" height="232" viewBox="0 0 264 232">
  <g id="Grupo_3995" data-name="Grupo 3995" transform="translate(-48 -120)">
    <rect id="Rectángulo_2130" data-name="Rectángulo 2130" width="264" height="232" transform="translate(48 120)" fill="none"/>
    <g id="Grupo_3906" data-name="Grupo 3906" transform="translate(-70.806 -930.857)">
      <path id="Trazado_8739" data-name="Trazado 8739" d="M134.526,1147.442s-3.851-80.318,80.442-80.318,77.147,79.789,114.633,90.809,64.831,75.472-5.435,101.566S127.471,1257.691,134.526,1147.442Z" fill="#6d31ff"/>
      <rect id="Rectángulo_2119" data-name="Rectángulo 2119" width="240" height="206" transform="translate(130.806 1064.857)" fill="none"/>
      <g id="Grupo_3903" data-name="Grupo 3903">
        <g id="Grupo_3898" data-name="Grupo 3898">
          <g id="Grupo_3897" data-name="Grupo 3897">
            <path id="Trazado_8740" data-name="Trazado 8740" d="M219.6,1134.556l39.794-1.543,1.967,82.978-90.141-.981.3-48.276,17.744-.445v-3.652l7.98-.631.079-5.855h6.037l-2.085-21.111Z" fill="#f2d86d"/>
            <path id="Trazado_8741" data-name="Trazado 8741" d="M168.89,1202.554l94.128,1.686-.23,11.448-93.924-1.057Z" fill="#f42561"/>
            <path id="Trazado_8742" data-name="Trazado 8742" d="M176.19,1215.812l-.2-10.846,75.112,1.511.549,7.488Z" fill="#dd195a"/>
            <path id="Trazado_8743" data-name="Trazado 8743" d="M265.982,1214.958H165.4l3.265-1.7,94.081-.952Z" fill="#823b4d"/>
            <g id="Grupo_3890" data-name="Grupo 3890">
              <path id="Trazado_8744" data-name="Trazado 8744" d="M178.829,1171.511l-.7,41.79,21.017.2.541-41.946Z" fill="#512508"/>
              <path id="Trazado_8745" data-name="Trazado 8745" d="M181.749,1181l16.351.093-.416,22.575-16.274.184Z" fill="#331506"/>
              <path id="Trazado_8746" data-name="Trazado 8746" d="M182.449,1182.107l-.4,20.881,14.939-.06.256-20.583Z" fill="#d4eef4"/>
              <path id="Trazado_8747" data-name="Trazado 8747" d="M192.811,1192.373l2.45.049-.182,1.87-2.159-.187Z" fill="#f7f8f9"/>
              <path id="Trazado_8748" data-name="Trazado 8748" d="M180.917,1205.2l-.009,6.21,16-.359.419-6.478Z" fill="#d4eef4"/>
              <path id="Trazado_8749" data-name="Trazado 8749" d="M180.917,1205.2l2.309-.146.421,6.315-2.74.041Z" fill="#f7f8f9"/>
              <path id="Trazado_8750" data-name="Trazado 8750" d="M198.29,1179.863l-.011-6.534-17.566-.309.009,6.63Z" fill="#d4eef4"/>
              <path id="Trazado_8751" data-name="Trazado 8751" d="M194.109,1173.2l-2.9-.058,1.976,6.621,2.767.087Z" fill="#f7f8f9" opacity="0.39"/>
              <path id="Trazado_8752" data-name="Trazado 8752" d="M184.134,1173.121l-1.335.023,1.888,6.538,1.29.088Z" fill="#f7f8f9" opacity="0.39"/>
              <path id="Trazado_8753" data-name="Trazado 8753" d="M179.273,1170.787l-.24-1.448,20.824.295-.167,1.448Z" fill="#471a27"/>
              <path id="Trazado_8754" data-name="Trazado 8754" d="M177.986,1170.3l22.554.176-.283,1.794-21.964-.014Z" fill="#331506"/>
              <path id="Trazado_8755" data-name="Trazado 8755" d="M178.935,1190.468l0,4.332,2.09,0,.185-4.36a.806.806,0,0,1-.6-.4h-1.079A.672.672,0,0,1,178.935,1190.468Z" fill="#f7890f"/>
              <path id="Trazado_8756" data-name="Trazado 8756" d="M180.524,1190.3h-.9s.061.322-.483.381l.1,3.923h1.478l.256-3.893A.393.393,0,0,1,180.524,1190.3Z" fill="none" stroke="#ba8149" stroke-miterlimit="10" stroke-width="0.06"/>
              <path id="Trazado_8757" data-name="Trazado 8757" d="M179.767,1194.282h.412l-.111-.614a.339.339,0,0,0,.112-.357c-.06-.231-.307-.226-.453,0a.215.215,0,0,0,.086.332Z" fill="#936134"/>
              <g id="Grupo_3889" data-name="Grupo 3889">
                <circle id="Elipse_573" data-name="Elipse 573" cx="0.896" cy="0.896" r="0.896" transform="translate(179.162 1190.983)" fill="#cc6a11"/>
                <path id="Trazado_8758" data-name="Trazado 8758" d="M180.059,1190.983a.926.926,0,0,0-.212.026.9.9,0,0,1,0,1.74.867.867,0,0,0,.211.027.9.9,0,0,0,0-1.793Z" fill="#bc5f13"/>
              </g>
            </g>
            <g id="Grupo_3892" data-name="Grupo 3892">
              <path id="Trazado_8759" data-name="Trazado 8759" d="M229.875,1147.154l.2,17.294,17.968.03.4-17.593Z" fill="#f7f8f9"/>
              <path id="Trazado_8760" data-name="Trazado 8760" d="M230.66,1159.992l-.166,4.027,17.352-.019.014-3.26Z" fill="#86dce0"/>
              <g id="Grupo_3891" data-name="Grupo 3891">
                <path id="Trazado_8761" data-name="Trazado 8761" d="M229.875,1147.154l.6-.448,16.92-.272,1.048.451Z" fill="#894812"/>
                <path id="Trazado_8762" data-name="Trazado 8762" d="M230.072,1164.448l1.336-2.213,14.583.748V1148.4l-15.736.014-.38-1.261,18.567-.269-.4,17.593Z" fill="#d8821a"/>
                <path id="Trazado_8763" data-name="Trazado 8763" d="M232.156,1164.1l.374-16.453-2.649-.185.191,16.98Z" fill="#d8821a"/>
              </g>
              <path id="Trazado_8764" data-name="Trazado 8764" d="M230.853,1154.762l16.827-.374-.193,2.238H230.66Z" fill="#d8821a"/>
              <path id="Trazado_8765" data-name="Trazado 8765" d="M240.756,1147.652l-.935,16.64h-1.5v-16.827Z" fill="#d8821a"/>
            </g>
            <g id="Grupo_3894" data-name="Grupo 3894">
              <path id="Trazado_8766" data-name="Trazado 8766" d="M204.621,1174.823l.2,17.294,47.882.029.4-17.593Z" fill="#f7f8f9"/>
              <path id="Trazado_8767" data-name="Trazado 8767" d="M205.246,1189.534l-.006,2.154,47.266-.019.014-2.391Z" fill="#86dce0"/>
              <g id="Grupo_3893" data-name="Grupo 3893">
                <path id="Trazado_8768" data-name="Trazado 8768" d="M204.621,1174.823l.6-.448,46.834-.272,1.048.451Z" fill="#894812"/>
                <path id="Trazado_8769" data-name="Trazado 8769" d="M204.818,1192.117l1.336-1.839,44.871.374v-14.209l-45.619.748-.785-2.369,48.481-.269-.4,17.593Z" fill="#d8821a"/>
                <path id="Trazado_8770" data-name="Trazado 8770" d="M206.9,1191.4v-16.079l-2.275-.185.191,16.98Z" fill="#d8821a"/>
              </g>
              <path id="Trazado_8771" data-name="Trazado 8771" d="M205.406,1183.174l46.74-.374v1.5h-46.74Z" fill="#d8821a"/>
              <path id="Trazado_8772" data-name="Trazado 8772" d="M214.193,1175.135l.374,16.827h-1.5v-16.827Z" fill="#d8821a"/>
              <path id="Trazado_8773" data-name="Trazado 8773" d="M224.1,1175.322l.374,16.827h-1.5v-16.827Z" fill="#d8821a"/>
              <path id="Trazado_8774" data-name="Trazado 8774" d="M235.32,1174.948l.374,16.827h-1.5v-16.827Z" fill="#d8821a"/>
              <path id="Trazado_8775" data-name="Trazado 8775" d="M244.668,1174.948l.374,16.827h-1.5v-16.827Z" fill="#d8821a"/>
            </g>
            <g id="Grupo_3895" data-name="Grupo 3895">
              <path id="Trazado_8776" data-name="Trazado 8776" d="M253.4,1194.795l.142,1.087,4.136,0v-1.165Z" fill="#f2c536"/>
              <path id="Trazado_8777" data-name="Trazado 8777" d="M250.554,1196.245l.142,1.087,4.136,0v-1.165Z" fill="#e0c75a"/>
              <path id="Trazado_8778" data-name="Trazado 8778" d="M253.487,1197.77l.142,1.087,4.136,0V1197.7Z" fill="#fff6e1"/>
            </g>
            <g id="Grupo_3896" data-name="Grupo 3896">
              <path id="Trazado_8779" data-name="Trazado 8779" d="M217.132,1152.915l.142,1.087,4.136,0v-1.165Z" fill="#f2c536"/>
              <path id="Trazado_8780" data-name="Trazado 8780" d="M214.283,1154.365l.142,1.087,4.136,0v-1.165Z" fill="#e0c75a"/>
              <path id="Trazado_8781" data-name="Trazado 8781" d="M217.217,1155.89l.142,1.087,4.136,0v-1.165Z" fill="#fff6e1"/>
            </g>
            <path id="Trazado_8782" data-name="Trazado 8782" d="M148.061,1214.557l134.3-.715.143,5.7-135.08.927Z" fill="#35131e"/>
          </g>
        </g>
        <g id="Grupo_3902" data-name="Grupo 3902">
          <g id="Grupo_3899" data-name="Grupo 3899">
            <path id="Trazado_8783" data-name="Trazado 8783" d="M267.406,1102.426c-.08.813-.1,1.584-.147,2.436l-.027.343-.037.315a4.7,4.7,0,0,1-.161.742,3.008,3.008,0,0,1-.906,1.35,3.684,3.684,0,0,0-.391.357,3.164,3.164,0,0,0-.272.353,2.977,2.977,0,0,0-.369.8,2.545,2.545,0,0,0,.066,1.612,1.953,1.953,0,0,0,.949.948,2.459,2.459,0,0,0,.371.136,4.432,4.432,0,0,0,.447.085,2.048,2.048,0,0,0,.813-.06,1.8,1.8,0,0,0,1.16-1.179,2,2,0,0,0-.184-1.822l-.018-.023a.348.348,0,0,1,.5-.478,2.849,2.849,0,0,1,.872,2.581,3.252,3.252,0,0,1-1.627,2.422,3.678,3.678,0,0,1-1.474.446,5.508,5.508,0,0,1-.728.019,4.149,4.149,0,0,1-.781-.118,3.157,3.157,0,0,1-1.457-.8,3.6,3.6,0,0,1-.875-1.411,4.691,4.691,0,0,1,1.862-5.226c.8-.419.6-2.278.391-3.765l0-.031a1.021,1.021,0,0,1,2.023-.278A1.269,1.269,0,0,1,267.406,1102.426Z" fill="#eca902"/>
            <rect id="Rectángulo_2120" data-name="Rectángulo 2120" width="0.437" height="14.309" transform="translate(266.173 1089.069)" fill="#d9d9d9"/>
            <path id="Trazado_8784" data-name="Trazado 8784" d="M268.626,1087.757a2.185,2.185,0,1,1-2.184-2.183A2.186,2.186,0,0,1,268.626,1087.757Z" fill="#607379"/>
            <path id="Trazado_8785" data-name="Trazado 8785" d="M266.165,1087.526c-.337.477-.851.693-1.151.483s-.267-.769.07-1.248.853-.694,1.152-.483S266.5,1087.047,266.165,1087.526Z" fill="#a8babb"/>
            <path id="Trazado_8786" data-name="Trazado 8786" d="M268.726,1101.195a2.332,2.332,0,1,1-2.332-2.332A2.333,2.333,0,0,1,268.726,1101.195Z" fill="#607379"/>
            <path id="Trazado_8787" data-name="Trazado 8787" d="M266.165,1100.986c-.337.479-.851.7-1.151.485s-.267-.771.07-1.248.853-.694,1.152-.484S266.5,1100.508,266.165,1100.986Z" fill="#a8babb"/>
          </g>
          <g id="Grupo_3900" data-name="Grupo 3900">
            <path id="Trazado_8788" data-name="Trazado 8788" d="M301.619,1220.814a3.949,3.949,0,1,1-3.947-3.949A3.947,3.947,0,0,1,301.619,1220.814Z" fill="#3f5459"/>
            <path id="Trazado_8789" data-name="Trazado 8789" d="M299.8,1220.814a2.13,2.13,0,1,1-2.128-2.129A2.129,2.129,0,0,1,299.8,1220.814Z" fill="#a8babb"/>
            <path id="Trazado_8790" data-name="Trazado 8790" d="M296.09,1221.181a1.815,1.815,0,0,1,3.249-1.116,1.816,1.816,0,1,0-3.112,1.805A1.825,1.825,0,0,1,296.09,1221.181Z" fill="#607379"/>
          </g>
          <g id="Grupo_3901" data-name="Grupo 3901">
            <path id="Trazado_8791" data-name="Trazado 8791" d="M345.861,1220.814a3.948,3.948,0,1,1-3.95-3.949A3.949,3.949,0,0,1,345.861,1220.814Z" fill="#3f5459"/>
            <path id="Trazado_8792" data-name="Trazado 8792" d="M344.042,1220.814a2.13,2.13,0,1,1-2.131-2.129A2.129,2.129,0,0,1,344.042,1220.814Z" fill="#a8babb"/>
            <path id="Trazado_8793" data-name="Trazado 8793" d="M340.333,1221.181a1.815,1.815,0,0,1,3.249-1.116,1.817,1.817,0,1,0-3.114,1.805A1.8,1.8,0,0,1,340.333,1221.181Z" fill="#607379"/>
          </g>
          <path id="Trazado_8794" data-name="Trazado 8794" d="M346.615,1206.859l5.335-1.3,3.581,6.612-6.4,8.386-2.974-8.15Z" fill="#e84e1b"/>
          <path id="Trazado_8795" data-name="Trazado 8795" d="M342.02,1216.835a3.727,3.727,0,0,1,3.726,3.726h3.381l-2.973-8.15-45.636-2.067-8.033,2.682v8l1.241-.171c0-.024,0-.048,0-.073a3.947,3.947,0,0,1,7.887-.222h36.684A3.727,3.727,0,0,1,342.02,1216.835Z" fill="#e5332a"/>
          <path id="Trazado_8796" data-name="Trazado 8796" d="M292.485,1213.026l7.217-6.668,52.248-.8-5.8,6.848Z" fill="#bd1622"/>
          <path id="Trazado_8797" data-name="Trazado 8797" d="M293.025,1220.952s-.017-4.951,4.646-5.044a4.3,4.3,0,0,1,4.8,4.653h-.848s-.957-3.543-4.029-3.353c-3.118.192-3.864,3.648-3.864,3.648Z" fill="#bd1622"/>
          <path id="Trazado_8798" data-name="Trazado 8798" d="M337.437,1220.561s-.265-4.56,4.4-4.653a4.3,4.3,0,0,1,4.8,4.653h-.847a3.8,3.8,0,0,0-4.029-3.353c-3.123.08-3.462,3.353-3.462,3.353Z" fill="#bd1622"/>
          <path id="Trazado_8799" data-name="Trazado 8799" d="M318.882,1210.344l-.209-8.539h24.909v8Z" fill="#e5332a"/>
          <path id="Trazado_8800" data-name="Trazado 8800" d="M347.722,1206.075l-4.14,3.728v-8l4.14-3.033Z" fill="#e84e1b"/>
          <path id="Trazado_8801" data-name="Trazado 8801" d="M347.722,1198.772l-26.254-.2-2.794,3.231h24.909Z" fill="#bd1622"/>
          <rect id="Rectángulo_2121" data-name="Rectángulo 2121" width="8.191" height="3.06" transform="translate(329.286 1198.145)" fill="#701420"/>
          <path id="Trazado_8802" data-name="Trazado 8802" d="M330.634,1196.812l-1.348,1.333h8.191l1.245-1.333Z" fill="#611121"/>
          <path id="Trazado_8803" data-name="Trazado 8803" d="M337.477,1201.2l1.245-1.389v-3l-1.245,1.333Z" fill="#611121"/>
          <path id="Trazado_8804" data-name="Trazado 8804" d="M321.66,1087.063l-15.87-5.335-12.085,5.335,12.084,5.626Zm-7.542-1.314-1.746,2.9-3.005-4.5Zm1,.581,1.449,1.308-2.842,1.008Zm-3.616,3.1-4.878,1.729,1.575-6.672Zm6.609-2.342-.3.108-.371-.334Zm-10.855-3.649-1.588,6.734-2.481-6.033,2.659-1.174Zm-2.538,7.47-4.458-2.075,2.093-3.678Zm-3.652-5.834-1.859,3.269-2.7-1.256Z" fill="#bab9b9"/>
          <path id="Trazado_8805" data-name="Trazado 8805" d="M295.63,1087.063l-15.87-5.335-12.085,5.335,12.084,5.626Zm-7.542-1.314-1.746,2.9-3.005-4.5Zm1,.581,1.449,1.308-2.842,1.008Zm-3.616,3.1-4.878,1.729,1.575-6.672Zm6.609-2.342-.3.108-.371-.334Zm-10.855-3.649-1.588,6.734-2.481-6.033,2.659-1.174Zm-2.538,7.47-4.458-2.075,2.094-3.678Zm-3.652-5.834-1.859,3.269-2.7-1.256Z" fill="#bab9b9"/>
          <path id="Trazado_8806" data-name="Trazado 8806" d="M333.172,1143.725l-5.262,15.656,5.263,11.921,5.549-11.92Zm-1.3,7.44,2.863,1.722-4.439,2.965Zm.573-.987,1.291-1.429.994,2.8Zm3.062,3.566,1.705,4.813L330.634,1157Zm-2.311-6.519.106.3-.329.366Zm-3.6,10.708,6.642,1.567-5.952,2.447-1.158-2.622Zm7.369,2.5-2.047,4.4-3.629-2.065Zm-5.756,3.6,3.225,1.834-1.239,2.662Z" fill="#bab9b9"/>
          <path id="Trazado_8807" data-name="Trazado 8807" d="M333.172,1169.713l-5.262,15.656,5.263,11.921,5.549-11.92Zm-1.3,7.44,2.863,1.722-4.439,2.965Zm.573-.988,1.291-1.429.994,2.8Zm3.062,3.567,1.705,4.812-6.582-1.553Zm-2.311-6.519.106.3-.329.366Zm-3.6,10.708,6.642,1.567-5.952,2.447-1.158-2.623Zm7.369,2.5-2.047,4.4-3.629-2.066Zm-5.756,3.6,3.225,1.835-1.239,2.662Z" fill="#bab9b9"/>
          <path id="Trazado_8808" data-name="Trazado 8808" d="M333.172,1092.836l-5.262,15.656,5.263,11.921,5.549-11.92Zm-1.3,7.44,2.863,1.722-4.439,2.966Zm.573-.987,1.291-1.429.994,2.8Zm3.062,3.567,1.705,4.812-6.582-1.554Zm-2.311-6.52.106.3-.329.366Zm-3.6,10.708,6.642,1.567-5.952,2.447-1.158-2.622Zm7.369,2.5-2.047,4.4-3.629-2.065Zm-5.756,3.6,3.225,1.834-1.239,2.662Z" fill="#bab9b9"/>
          <path id="Trazado_8809" data-name="Trazado 8809" d="M333.172,1118.824l-5.262,15.656,5.263,11.921,5.549-11.92Zm-1.3,7.44,2.863,1.722-4.439,2.965Zm.573-.987,1.291-1.429.994,2.8Zm3.062,3.566,1.705,4.813-6.582-1.554Zm-2.311-6.519.106.3-.329.366Zm-3.6,10.708,6.642,1.567-5.952,2.447-1.158-2.622Zm7.369,2.5-2.047,4.4-3.629-2.065Zm-5.756,3.6,3.225,1.834-1.239,2.662Z" fill="#bab9b9"/>
          <path id="Trazado_8810" data-name="Trazado 8810" d="M318.261,1096.163l-.209-18.649h24.909v18.108Z" fill="#e5332a"/>
          <path id="Trazado_8811" data-name="Trazado 8811" d="M347.1,1091.893l-4.14,3.729v-18.108l4.14-3.033Z" fill="#e84e1b"/>
          <path id="Trazado_8812" data-name="Trazado 8812" d="M347.1,1074.481l-26.254-.2-2.794,3.231h24.909Z" fill="#bd1622"/>
          <path id="Trazado_8813" data-name="Trazado 8813" d="M321.125,1074.1l-5.237,5.033,28.09-.336,5.287-4.81Z" fill="#611121"/>
          <path id="Trazado_8814" data-name="Trazado 8814" d="M343.978,1081.037h-28.09v-1.9l28.09-.336Z" fill="#701420"/>
          <path id="Trazado_8815" data-name="Trazado 8815" d="M349.265,1073.99v2.181l-5.287,4.866V1078.8Z" fill="#45101c"/>
          <path id="Trazado_8816" data-name="Trazado 8816" d="M319.852,1082.505l.379,7.014H326.8l.442-7.014Z" fill="#611121"/>
          <path id="Trazado_8817" data-name="Trazado 8817" d="M320.71,1089.014l-.324-6h6.321l-.379,6Z" fill="#d9d9d9"/>
          <path id="Trazado_8818" data-name="Trazado 8818" d="M332.36,1082.505l.379,7.014h6.572l.442-7.014Z" fill="#611121"/>
          <path id="Trazado_8819" data-name="Trazado 8819" d="M333.218,1089.014l-.324-6h6.321l-.379,6Z" fill="#d9d9d9"/>
          <path id="Trazado_8820" data-name="Trazado 8820" d="M320.913,1089.014h1.653l4.014-6h-1.4Z" fill="#f2f2f2"/>
          <path id="Trazado_8821" data-name="Trazado 8821" d="M322.787,1083.011l-2.211,3.524.085,1.573,3.5-5.1Z" fill="#f2f2f2"/>
          <path id="Trazado_8822" data-name="Trazado 8822" d="M337.711,1083.011l-4.269,6H335.1l4.014-6Z" fill="#f2f2f2"/>
          <path id="Trazado_8823" data-name="Trazado 8823" d="M335.317,1083.011l-2.231,3.556.085,1.57,3.525-5.126Z" fill="#f2f2f2"/>
          <path id="Trazado_8824" data-name="Trazado 8824" d="M320.386,1091.583v1.6l19.961-.463v-1.7Z" fill="#701420" opacity="0.36"/>
          <path id="Trazado_8825" data-name="Trazado 8825" d="M320.386,1094.125v.8l19.961-.232v-.85Z" fill="#e84e1b"/>
        </g>
        <path id="Trazado_8826" data-name="Trazado 8826" d="M237.291,1125.616l.67,4.8,67.854-1.189.185-4.992Z" fill="#f42561"/>
        <path id="Trazado_8827" data-name="Trazado 8827" d="M236.337,1127.723l71.226-.844,1.654,9.97-72.918-.558Z" fill="#dd195a"/>
      </g>
      <g id="Grupo_3904" data-name="Grupo 3904">
        <path id="Trazado_8828" data-name="Trazado 8828" d="M198.9,1103.984s-1.13-5.55-6.532-5.221-5.649,6-5.649,6-6.228-3.128-9.966,1.752c-3.076,4.015-2.369,7.421-2.369,7.421s-4.522-.675-5.875,3.561l44.049.485s0-7.246-7.628-6.239C204.93,1111.743,205.791,1104.568,198.9,1103.984Z" fill="#fff"/>
      </g>
      <g id="Grupo_3905" data-name="Grupo 3905">
        <path id="Trazado_8829" data-name="Trazado 8829" d="M303.773,1162.331s-.949-4.663-5.489-4.386-4.746,5.041-4.746,5.041-5.234-2.628-8.375,1.472c-2.584,3.374-1.99,6.236-1.99,6.236s-3.8-.567-4.937,2.992l37.014.408s0-6.089-6.41-5.243C308.84,1168.851,309.563,1162.822,303.773,1162.331Z" fill="#fff"/>
      </g>
      <path id="Trazado_8830" data-name="Trazado 8830" d="M267.024,1111.513s-.973,2.383-.764,2.572c.4.359,1.084-1,1.253-2.192C267.651,1110.923,267.024,1111.513,267.024,1111.513Z" fill="#5b3417"/>
      <path id="Trazado_8831" data-name="Trazado 8831" d="M267.388,1111.592s.292,2.548.568,2.62c.522.135.473-1.38.047-2.508C267.657,1110.784,267.388,1111.592,267.388,1111.592Z" fill="#5b3417"/>
      <path id="Trazado_8832" data-name="Trazado 8832" d="M267.237,1113.511,244.8,1136.677a.788.788,0,0,0,.255.935c.5.391,1.608-.587,1.608-.587l21.644-22.951S268.568,1112.8,267.237,1113.511Z" fill="#5b3417"/>
      <path id="Trazado_8833" data-name="Trazado 8833" d="M267.328,1113.511l22.437,23.166a.788.788,0,0,1-.255.935c-.5.391-1.608-.587-1.608-.587l-21.644-22.951S266,1112.8,267.328,1113.511Z" fill="#5b3417"/>
    </g>
  </g>
</svg>
