<svg xmlns="http://www.w3.org/2000/svg" xmlns:xlink="http://www.w3.org/1999/xlink" width="176" height="176" viewBox="0 0 176 176">
  <defs>
    <linearGradient id="linear-gradient" x1="-0.002" y1="0.507" x2="1" y2="0.507" gradientUnits="objectBoundingBox">
      <stop offset="0" stop-color="#4a1ed9"/>
      <stop offset="0.917" stop-color="#5d2af5"/>
      <stop offset="1" stop-color="#602cf8"/>
    </linearGradient>
    <linearGradient id="linear-gradient-2" x1="0" y1="0.5" x2="1" y2="0.5" xlink:href="#linear-gradient"/>
    <clipPath id="clip-path">
      <rect id="Rectángulo_4216" data-name="Rectángulo 4216" width="25.83" height="27.751" rx="0.69" transform="translate(5665.359 5040.962)" fill="none"/>
    </clipPath>
  </defs>
  <g id="Grupo_36316" data-name="Grupo 36316" transform="translate(-5626.928 -5028.281)">
    <g id="Grupo_36252" data-name="Grupo 36252">
      <path id="Trazado_39358" data-name="Trazado 39358" d="M5731.107,5173.276s63.087,1.454,66.955-36.147c4.14-40.241-16.625-47.949-57.7-70.965-45.441-25.461-119.7,28-106.241,79.185C5641.7,5174.171,5668.434,5170.062,5731.107,5173.276Z" fill="url(#linear-gradient)"/>
      <path id="Trazado_39359" data-name="Trazado 39359" d="M5772.534,5067.547s12.416,9.263,21.392,1.387c9.556-8.385,5.011-15.554.083-28.48-5.452-14.3-33.423-13.419-37.9,3.632C5753.211,5055.113,5759.229,5056.349,5772.534,5067.547Z" fill="url(#linear-gradient-2)"/>
    </g>
    <g id="Grupo_36271" data-name="Grupo 36271">
      <g id="Grupo_36270" data-name="Grupo 36270">
        <rect id="Rectángulo_4206" data-name="Rectángulo 4206" width="88.693" height="61.662" rx="2.396" transform="translate(5654.551 5029.705)" fill="#212021" opacity="0.16"/>
        <rect id="Rectángulo_4207" data-name="Rectángulo 4207" width="88.693" height="61.662" rx="2.396" transform="translate(5653.536 5028.281)" fill="#fff"/>
        <path id="Trazado_39360" data-name="Trazado 39360" d="M5655.275,5028.281c-.956,0-1.739,1.079-1.739,2.4v56.87c0,1.318.783,2.4,1.739,2.4h7.226v-61.662Z" fill="#e5e5e5"/>
        <rect id="Rectángulo_4208" data-name="Rectángulo 4208" width="88.739" height="3.604" transform="translate(5653.536 5034.129)" fill="#903dfc"/>
        <path id="Trazado_39361" data-name="Trazado 39361" d="M5739.833,5028.281h-83.9a2.4,2.4,0,0,0-2.4,2.4v3.452h88.693v-3.452A2.4,2.4,0,0,0,5739.833,5028.281Z" fill="#ededed"/>
        <g id="Grupo_36253" data-name="Grupo 36253">
          <circle id="Elipse_718" data-name="Elipse 718" cx="1.167" cy="1.167" r="1.167" transform="translate(5655.429 5030.22)" fill="#e5035f"/>
          <circle id="Elipse_719" data-name="Elipse 719" cx="1.167" cy="1.167" r="1.167" transform="translate(5658.99 5030.22)" fill="#04ae4d"/>
          <circle id="Elipse_720" data-name="Elipse 720" cx="1.167" cy="1.167" r="1.167" transform="translate(5662.501 5030.22)" fill="#ffae0d"/>
        </g>
        <g id="Grupo_36254" data-name="Grupo 36254">
          <rect id="Rectángulo_4209" data-name="Rectángulo 4209" width="25.81" height="3.421" rx="0.69" transform="translate(5712.692 5044.741)" fill="#e5e5e5"/>
          <rect id="Rectángulo_4210" data-name="Rectángulo 4210" width="25.81" height="3.421" rx="0.69" transform="translate(5712.692 5049.917)" fill="#e5e5e5"/>
          <rect id="Rectángulo_4211" data-name="Rectángulo 4211" width="25.81" height="3.421" rx="0.69" transform="translate(5712.692 5055.092)" fill="#e5e5e5"/>
        </g>
        <g id="Grupo_36255" data-name="Grupo 36255">
          <rect id="Rectángulo_4212" data-name="Rectángulo 4212" width="25.81" height="3.421" rx="0.69" transform="translate(5665.438 5072.916)" fill="#e5e5e5"/>
          <rect id="Rectángulo_4213" data-name="Rectángulo 4213" width="25.81" height="3.421" rx="0.69" transform="translate(5665.438 5078.091)" fill="#e5e5e5"/>
          <rect id="Rectángulo_4214" data-name="Rectángulo 4214" width="25.81" height="3.421" rx="0.69" transform="translate(5665.438 5083.267)" fill="#e5e5e5"/>
        </g>
        <rect id="Rectángulo_4215" data-name="Rectángulo 4215" width="25.83" height="27.751" rx="0.69" transform="translate(5665.429 5040.962)" fill="#f0f2a5"/>
        <g id="Grupo_36269" data-name="Grupo 36269">
          <g id="Grupo_36268" data-name="Grupo 36268" clip-path="url(#clip-path)">
            <g id="Grupo_36267" data-name="Grupo 36267">
              <path id="Trazado_39362" data-name="Trazado 39362" d="M5690.63,5086.081a28.489,28.489,0,0,0-.812-12.8,55.5,55.5,0,0,0-2.346-6.706l-1.79.79.9-.4-.9.4a54.681,54.681,0,0,1,2.26,6.473c1.348,4.791,1.78,8.938,1.251,11.991Z" fill="#d8976a"/>
              <path id="Trazado_39363" data-name="Trazado 39363" d="M5689.147,5085.664l-.064-.16a.2.2,0,0,0-.258-.11l-1.271.4a.2.2,0,0,0-.111.259l.138.344a.2.2,0,0,0,.258.11l1.2-.587A.2.2,0,0,0,5689.147,5085.664Z" fill="#d69164"/>
              <g id="Grupo_36256" data-name="Grupo 36256">
                <path id="Trazado_39364" data-name="Trazado 39364" d="M5690.4,5088.237c-.007.024-.087.371-.1.394-.107.218-.326.205-.542.119l-1.9-.363a.432.432,0,0,1-.207-.094.445.445,0,0,1-.118-.5l1.221-2.519a.484.484,0,0,1,.188-.2.593.593,0,0,1,.618-.007l.888.352c.519.158.541.429.45.657Z" fill="#d8976a"/>
              </g>
              <path id="Trazado_39365" data-name="Trazado 39365" d="M5666.567,5086.3a28.491,28.491,0,0,1,.813-12.8,55.769,55.769,0,0,1,2.345-6.705l1.79.789-.9-.4.9.4a54.753,54.753,0,0,0-2.26,6.474c-1.348,4.791-1.78,8.937-1.251,11.99Z" fill="#d8976a"/>
              <g id="Grupo_36257" data-name="Grupo 36257">
                <path id="Trazado_39366" data-name="Trazado 39366" d="M5680.242,5123.125a22.416,22.416,0,0,1-.056,3.6l.028.765,5.269.057s1.36.028,1.36-.992c0,0-.114-.623-1.3-.651a5.754,5.754,0,0,1-3-2.777l-.708.17A2.233,2.233,0,0,1,5680.242,5123.125Z" fill="#2c2c35"/>
                <path id="Trazado_39367" data-name="Trazado 39367" d="M5686.767,5126.387l-1.393.225c-2.218-.466-3.545-3.317-3.545-3.317l.708-.17a5.754,5.754,0,0,0,3,2.777c.787.018,1.1.3,1.227.485" fill="#0c0c17"/>
                <path id="Trazado_39368" data-name="Trazado 39368" d="M5680.186,5126.723l.028.765,5.269.057s1.36.028,1.36-.992a.49.49,0,0,0-.076-.166A24.579,24.579,0,0,1,5680.186,5126.723Z" fill="#fff"/>
                <path id="Trazado_39369" data-name="Trazado 39369" d="M5680.287,5124.691s-.049,1.494-.1,2.032c0,0,.759.05,2.3.063C5682.482,5126.786,5682.185,5124.719,5680.287,5124.691Z" fill="#0c0c17"/>
                <path id="Trazado_39370" data-name="Trazado 39370" d="M5682.424,5123.664s.254-.312.453-.029a.3.3,0,0,0-.539-.085Z" fill="#fff"/>
                <path id="Trazado_39371" data-name="Trazado 39371" d="M5682.684,5124.068s.242-.322.451-.047a.3.3,0,0,0-.541-.063Z" fill="#fff"/>
                <path id="Trazado_39372" data-name="Trazado 39372" d="M5682.877,5124.372s.255-.312.453-.028a.3.3,0,0,0-.538-.085Z" fill="#fff"/>
                <path id="Trazado_39373" data-name="Trazado 39373" d="M5683.194,5124.691s.242-.322.451-.047a.3.3,0,0,0-.541-.063Z" fill="#fff"/>
                <path id="Trazado_39374" data-name="Trazado 39374" d="M5680.639,5127.063a34.529,34.529,0,0,0,5.382-.057s.312-.028,0,.114a19,19,0,0,1-5.439.113S5680.186,5127.091,5680.639,5127.063Z" fill="#c4c3c2"/>
                <path id="Trazado_39375" data-name="Trazado 39375" d="M5685.54,5125.9l.241.485.917-.1A1.557,1.557,0,0,0,5685.54,5125.9Z" fill="#fff"/>
              </g>
              <g id="Grupo_36258" data-name="Grupo 36258">
                <path id="Trazado_39376" data-name="Trazado 39376" d="M5676.559,5123.127a22.347,22.347,0,0,0,.056,3.6l-.028.765-5.269.057s-1.36.028-1.36-.992c0,0,.113-.623,1.3-.651a5.754,5.754,0,0,0,3-2.776l.708.17A2.233,2.233,0,0,0,5676.559,5123.127Z" fill="#2c2c35"/>
                <path id="Trazado_39377" data-name="Trazado 39377" d="M5670.034,5126.388l1.393.225c2.218-.466,3.545-3.316,3.545-3.316l-.708-.17a5.754,5.754,0,0,1-3,2.776c-.787.019-1.1.3-1.227.485" fill="#0c0c17"/>
                <path id="Trazado_39378" data-name="Trazado 39378" d="M5676.615,5126.724l-.028.765-5.269.057s-1.36.028-1.36-.992a.5.5,0,0,1,.076-.166A24.576,24.576,0,0,0,5676.615,5126.724Z" fill="#fff"/>
                <path id="Trazado_39379" data-name="Trazado 39379" d="M5676.514,5124.692s.049,1.494.1,2.032c0,0-.759.05-2.3.063C5674.318,5126.787,5674.616,5124.72,5676.514,5124.692Z" fill="#0c0c17"/>
                <path id="Trazado_39380" data-name="Trazado 39380" d="M5674.377,5123.665s-.254-.312-.453-.028a.3.3,0,0,1,.538-.085Z" fill="#fff"/>
                <path id="Trazado_39381" data-name="Trazado 39381" d="M5674.117,5124.069s-.242-.322-.452-.047a.3.3,0,0,1,.542-.063Z" fill="#fff"/>
                <path id="Trazado_39382" data-name="Trazado 39382" d="M5673.924,5124.373s-.255-.312-.453-.028a.3.3,0,0,1,.538-.085Z" fill="#fff"/>
                <path id="Trazado_39383" data-name="Trazado 39383" d="M5673.607,5124.692s-.242-.322-.452-.046a.3.3,0,0,1,.542-.064Z" fill="#fff"/>
                <path id="Trazado_39384" data-name="Trazado 39384" d="M5676.162,5127.064a34.536,34.536,0,0,1-5.382-.057s-.312-.028,0,.114a19.008,19.008,0,0,0,5.439.113S5676.615,5127.092,5676.162,5127.064Z" fill="#c4c3c2"/>
                <path id="Trazado_39385" data-name="Trazado 39385" d="M5671.261,5125.9l-.241.485-.917-.1A1.556,1.556,0,0,1,5671.261,5125.9Z" fill="#fff"/>
              </g>
              <path id="Trazado_39386" data-name="Trazado 39386" d="M5679.173,5090.317s-.481-5.87,1.922-6.031c1.987-.134,2.362.949,2.672,4.062.3,3.021.592,20.026-2.015,20.187C5680.074,5108.639,5679.637,5104.985,5679.173,5090.317Z" fill="#d19f79"/>
              <path id="Trazado_39387" data-name="Trazado 39387" d="M5673.08,5090.065s-.367-5.878,2.039-5.992c1.99-.1,2.344.995,2.593,4.114.242,3.025.243,20.033-2.367,20.143C5673.665,5108.4,5673.259,5104.74,5673.08,5090.065Z" fill="#d19f79"/>
              <path id="Trazado_39388" data-name="Trazado 39388" d="M5676.741,5105.794s-.158-2.161-1.386-2.145-1.782,1.806-1.531,2.991.116,6.01.278,8.165c.259,3.469.312,8.714.312,8.714h1.816Z" fill="#d19f79"/>
              <path id="Trazado_39389" data-name="Trazado 39389" d="M5680.058,5105.794s.158-2.161,1.386-2.145,1.782,1.806,1.531,2.991-.117,6.01-.278,8.165c-.26,3.469-.313,8.714-.313,8.714h-1.815Z" fill="#d19f79"/>
              <path id="Trazado_39390" data-name="Trazado 39390" d="M5677.935,5063l-6.353,1.025s-2.166,1.215.152,3.707l1.867,13.919a16.467,16.467,0,0,0,9.9-.669l1.139-12.986s2.8-1.887,0-4.233Z" fill="#f7af80"/>
              <path id="Trazado_39391" data-name="Trazado 39391" d="M5684.639,5063.766l-3.5,2.592-8.164-1.492-1.389-.838s4.657-1.951,7.163-1.768a18.611,18.611,0,0,1,5.894,1.506" fill="#d8976a"/>
              <ellipse id="Elipse_721" data-name="Elipse 721" cx="3.904" cy="5.033" rx="3.904" ry="5.033" transform="translate(5673.29 5084.494) rotate(-87.768)" fill="#f7af80"/>
              <path id="Trazado_39392" data-name="Trazado 39392" d="M5678.984,5079.41c-.154,0-5.543,1.183-5.543,1.183s-.387,6.412-.409,8.618c-.02,2.047,10.936,2.123,10.827.281-.145-2.431-.359-8.507-.359-8.507Z" fill="#d19f79"/>
              <path id="Trazado_39393" data-name="Trazado 39393" d="M5684.49,5083.976a7.545,7.545,0,0,1-2.24,5.929,5.672,5.672,0,0,1-3.622,1.517c-3.461.194-6.215-2.32-6.211-6.4,0,0-.772-7.083,4.878-7.322C5682.834,5077.47,5684.461,5081.022,5684.49,5083.976Z" fill="#1a6999"/>
              <path id="Trazado_39394" data-name="Trazado 39394" d="M5678.887,5090.11l1.119,33.715,2.837-.07,1.7-38.653Z" fill="#1a6999"/>
              <path id="Trazado_39395" data-name="Trazado 39395" d="M5677.916,5089.895l-1.126,34.009h-2.814l-1.564-38.22Z" fill="#1a6999"/>
              <g id="Grupo_36260" data-name="Grupo 36260">
                <g id="Grupo_36259" data-name="Grupo 36259">
                  <path id="Trazado_39396" data-name="Trazado 39396" d="M5681.546,5062.35c1.963.69,3.693,1.324,3.693,1.324,3.391,1.9.343,4.533.343,4.533l-.557,17.715h-13.061l-.382-17.069a2.925,2.925,0,0,1-1.164-2.3,2.535,2.535,0,0,1,1.126-2.551s.985-.429,3.118-1.227a6.065,6.065,0,0,1,.908-.361s.388,2.675,2.541,2.811S5681.546,5062.35,5681.546,5062.35Z" fill="#293033"/>
                  <path id="Trazado_39397" data-name="Trazado 39397" d="M5675.751,5062.248s.627,2.559,2.747,2.644c1.788.071,2.867-2.84,2.867-2.84l.476.091s-.606,3.481-3.235,3.481c-3.151,0-3.523-3.274-3.523-3.274Z" fill="#ea1b6f"/>
                </g>
              </g>
              <path id="Trazado_39398" data-name="Trazado 39398" d="M5672.914,5066.508l-1.37-2.5s-3.492,2.538-4.172,5.94l3.291,1.36Z" fill="#293033"/>
              <path id="Trazado_39399" data-name="Trazado 39399" d="M5684.172,5066.342l1.369-2.5s3.492,2.538,4.173,5.94l-3.291,1.36Z" fill="#293033"/>
              <path id="Trazado_39400" data-name="Trazado 39400" d="M5667.168,5069.535l3.881,1.6-.386.676-3.665-1.633Z" fill="#ea1b6f"/>
              <path id="Trazado_39401" data-name="Trazado 39401" d="M5689.848,5069.4l-3.881,1.6.386.676,3.665-1.633Z" fill="#ea1b6f"/>
              <path id="Trazado_39402" data-name="Trazado 39402" d="M5673.426,5123.126l3.708.28v.966l-4.074-.256Z" fill="#0f4154"/>
              <path id="Trazado_39403" data-name="Trazado 39403" d="M5683.319,5122.914l-3.708.279v.966l4.074-.256Z" fill="#0f4154"/>
              <path id="Trazado_39404" data-name="Trazado 39404" d="M5680.922,5087.116a9.465,9.465,0,0,0,2.705,0S5682.565,5091.138,5680.922,5087.116Z" fill="#125577"/>
              <path id="Trazado_39405" data-name="Trazado 39405" d="M5680.623,5086.794v.322l3.335.322v-.644Z" fill="#0f4154"/>
              <path id="Trazado_39406" data-name="Trazado 39406" d="M5672.947,5087.116a9.465,9.465,0,0,0,2.705,0S5674.59,5091.138,5672.947,5087.116Z" fill="#125577"/>
              <path id="Trazado_39407" data-name="Trazado 39407" d="M5672.648,5086.794v.322l3.335.322v-.644Z" fill="#0f4154"/>
              <path id="Trazado_39408" data-name="Trazado 39408" d="M5668.05,5085.883l.064-.159a.2.2,0,0,1,.258-.111l1.272.4a.2.2,0,0,1,.11.258l-.138.344a.2.2,0,0,1-.258.111l-1.2-.587A.2.2,0,0,1,5668.05,5085.883Z" fill="#d69164"/>
              <g id="Grupo_36261" data-name="Grupo 36261">
                <path id="Trazado_39409" data-name="Trazado 39409" d="M5666.794,5088.456c.007.024.088.371.1.394.107.218.325.205.542.119l1.9-.362a.44.44,0,0,0,.207-.095.445.445,0,0,0,.118-.5l-1.221-2.519a.485.485,0,0,0-.188-.2.6.6,0,0,0-.618-.007l-.888.353c-.518.157-.541.429-.45.657Z" fill="#d8976a"/>
              </g>
              <g id="Grupo_36262" data-name="Grupo 36262">
                <circle id="Elipse_722" data-name="Elipse 722" cx="0.903" cy="0.903" r="0.903" transform="translate(5672.204 5052.711)" fill="#d8976a"/>
                <circle id="Elipse_723" data-name="Elipse 723" cx="0.53" cy="0.53" r="0.53" transform="translate(5672.577 5053.084)" fill="#c17e4d"/>
              </g>
              <g id="Grupo_36263" data-name="Grupo 36263">
                <circle id="Elipse_724" data-name="Elipse 724" cx="0.903" cy="0.903" r="0.903" transform="translate(5682.94 5052.711)" fill="#d8976a"/>
                <circle id="Elipse_725" data-name="Elipse 725" cx="0.53" cy="0.53" r="0.53" transform="translate(5683.313 5053.084)" fill="#c17e4d"/>
              </g>
              <path id="Trazado_39410" data-name="Trazado 39410" d="M5680.951,5059.458l-.652,4.445h-3.475l-.374-4.554Z" fill="#d8976a"/>
              <path id="Trazado_39411" data-name="Trazado 39411" d="M5680.569,5062.064s-2.29.9-3.916-.254l-.2-2.462,4.5.109Z" fill="#b27246" opacity="0.52"/>
              <path id="Trazado_39412" data-name="Trazado 39412" d="M5683.95,5056.08l-.51-7.667s-.406-4.428-4.894-4.119c-5.033.348-5.17,4.411-5.17,4.411l0,.989h0l.255,7.056a2.362,2.362,0,0,0,1.134,2.035,19.489,19.489,0,0,0,3.692,2.088,2.277,2.277,0,0,0,1.6,0c.7-.183,2.873-2.572,2.873-2.572A4.179,4.179,0,0,0,5683.95,5056.08Z" fill="#d8976a"/>
              <path id="Trazado_39413" data-name="Trazado 39413" d="M5679.484,5060.27a19.546,19.546,0,0,1-3.693-2.088,2.367,2.367,0,0,1-1.134-2.035l-.254-7.057,0-.988a4.651,4.651,0,0,1,1.772-3.258,4.644,4.644,0,0,0-2.794,3.861l0,.989.255,7.056a2.362,2.362,0,0,0,1.134,2.035,19.489,19.489,0,0,0,3.692,2.088,2.277,2.277,0,0,0,1.6,0,2.816,2.816,0,0,0,.839-.557A2.144,2.144,0,0,1,5679.484,5060.27Z" fill="#cc8c60"/>
              <g id="Grupo_36264" data-name="Grupo 36264">
                <path id="Trazado_39414" data-name="Trazado 39414" d="M5676.964,5052.075a.857.857,0,1,1-.856-.809A.833.833,0,0,1,5676.964,5052.075Z" fill="#231f20"/>
                <path id="Trazado_39415" data-name="Trazado 39415" d="M5676.364,5051.9a.224.224,0,0,1,0,.3c-.109.121.07.3.18.179a.473.473,0,0,0,.042-.609.131.131,0,0,0-.173-.045.128.128,0,0,0-.046.173Z" fill="#fff"/>
              </g>
              <g id="Grupo_36265" data-name="Grupo 36265">
                <path id="Trazado_39416" data-name="Trazado 39416" d="M5682.367,5052.06a.856.856,0,1,1-.855-.809A.833.833,0,0,1,5682.367,5052.06Z" fill="#231f20"/>
                <path id="Trazado_39417" data-name="Trazado 39417" d="M5681.768,5051.88a.226.226,0,0,1,0,.3c-.109.121.069.3.179.179a.474.474,0,0,0,.043-.609.131.131,0,0,0-.174-.045.126.126,0,0,0-.045.173Z" fill="#fff"/>
              </g>
              <g id="Grupo_36266" data-name="Grupo 36266">
                <path id="Trazado_39418" data-name="Trazado 39418" d="M5679.4,5053.613a3.993,3.993,0,0,1-.42-.736c-.151-.369-.333-.489-.679-.349s-.506,3,1.426,3.214,1.684-1.137,1.431-1.459S5680.074,5054.515,5679.4,5053.613Z" fill="#cc7a4c"/>
                <path id="Trazado_39419" data-name="Trazado 39419" d="M5679.795,5055.593c-1.664-.186-1.776-2.33-1.555-3.012-.3.42-.331,2.958,1.486,3.161,1.018.113,1.43-.208,1.556-.584C5681.1,5055.464,5680.674,5055.691,5679.795,5055.593Z" fill="#af632f"/>
              </g>
              <path id="Trazado_39420" data-name="Trazado 39420" d="M5679.963,5057.3s-.2.468-.592.446a.644.644,0,0,1-.589-.468s-.05-.2-.182-.125c0,0-.115.061-.029.22a.94.94,0,0,0,.8.6.815.815,0,0,0,.834-.588s.044-.132-.029-.177C5680.172,5057.208,5680.034,5057.125,5679.963,5057.3Z" fill="#3a3a3a"/>
              <path id="Trazado_39421" data-name="Trazado 39421" d="M5680.382,5049.946s1.671-.341,2.025.139a4.553,4.553,0,0,1,.551,1.031s-.622-.318-1-.455-1.509.166-1.541-.274Z" fill="#231f20"/>
              <path id="Trazado_39422" data-name="Trazado 39422" d="M5677.128,5049.946s-1.671-.341-2.025.139a4.593,4.593,0,0,0-.552,1.031s.623-.318,1-.455,1.508.166,1.541-.274Z" fill="#231f20"/>
              <path id="Trazado_39423" data-name="Trazado 39423" d="M5673.636,5053.614l-.53-1.568-.145.355-.129-1.15s-.252-2.544-.255-2.77,0-1.525,1.059-1.583.915,2.035.915,2.035a1.17,1.17,0,0,0-.542,1.066C5674,5050.807,5673.636,5053.614,5673.636,5053.614Z" fill="#231f20"/>
              <path id="Trazado_39424" data-name="Trazado 39424" d="M5683.672,5052.869l.529-1.568.146.355.129-1.151s.252-2.543.255-2.769,0-1.525-1.059-1.583-1.053,1.391-1.053,1.391a3.655,3.655,0,0,1,.68,1.71C5683.313,5050.062,5683.672,5052.869,5683.672,5052.869Z" fill="#231f20"/>
              <path id="Trazado_39425" data-name="Trazado 39425" d="M5683.136,5046.511s.818-1.874,0-2.95-3.833-1.438-3.833-1.438a1.7,1.7,0,0,1,.8.792l-.918-.478a5.4,5.4,0,0,0-2.507-.05l.647.162s-2.952.416-3.755,1.873a3.159,3.159,0,0,0,.069,2.929l.921.947a1.871,1.871,0,0,1,1.944-1.486c1.79-.129,1.831.539,3.183.377.065-.008.128-.017.19-.028,0,0,1.4-.392,1.857,0a1.507,1.507,0,0,0,.888.387Z" fill="#231f20"/>
            </g>
          </g>
        </g>
        <rect id="Rectángulo_4217" data-name="Rectángulo 4217" width="44.205" height="1.762" transform="translate(5694.315 5062.451)" fill="#b3b1b5"/>
        <rect id="Rectángulo_4218" data-name="Rectángulo 4218" width="44.205" height="1.762" transform="translate(5694.315 5065.556)" fill="#b3b1b5"/>
        <path id="Trazado_39426" data-name="Trazado 39426" d="M5693.921,5051.966c0,.068,0,.136,0,.205a7.43,7.43,0,0,0,7.34,7.428v-7.633Z" fill="#903dfc"/>
        <path id="Trazado_39427" data-name="Trazado 39427" d="M5701.428,5059.6a7.407,7.407,0,0,0,5.253-2.259l-5.253-5.252Z" fill="#c5a2fc"/>
        <path id="Trazado_39428" data-name="Trazado 39428" d="M5701.256,5044.743a7.4,7.4,0,0,0-4.954,1.974l4.954,4.954Z" fill="#5e2baf"/>
        <path id="Trazado_39429" data-name="Trazado 39429" d="M5708.767,5051.793a7.43,7.43,0,0,0-7.339-7.05v7.05Z" fill="#903dfc"/>
        <path id="Trazado_39430" data-name="Trazado 39430" d="M5706.8,5057.215a7.4,7.4,0,0,0,1.976-5.044c0-.069,0-.137,0-.205h-7.221Z" fill="#c5a2fc"/>
        <path id="Trazado_39431" data-name="Trazado 39431" d="M5695.142,5046.548a7.4,7.4,0,0,0-2.251,4.957h7.208Z" fill="#d5c2f9"/>
        <path id="Trazado_39432" data-name="Trazado 39432" d="M5695.758,5044.315v-3.442h10.021" fill="none" stroke="#903dfc" stroke-miterlimit="10" stroke-width="0.173"/>
        <circle id="Elipse_726" data-name="Elipse 726" cx="0.759" cy="0.759" r="0.759" transform="translate(5705.164 5040.204)" fill="#903dfc"/>
        <path id="Trazado_39433" data-name="Trazado 39433" d="M5695.15,5072.005v14.683h44.13" fill="none" stroke="#b3b1b5" stroke-miterlimit="10" stroke-width="0.173"/>
        <rect id="Rectángulo_4219" data-name="Rectángulo 4219" width="3.183" height="13.773" transform="translate(5697.586 5072.916)" fill="#d5c2f9"/>
        <rect id="Rectángulo_4220" data-name="Rectángulo 4220" width="3.183" height="3.578" transform="translate(5704.487 5083.11)" fill="#5e2baf"/>
        <rect id="Rectángulo_4221" data-name="Rectángulo 4221" width="3.183" height="10.351" transform="translate(5711.388 5076.337)" fill="#d5c2f9"/>
        <rect id="Rectángulo_4222" data-name="Rectángulo 4222" width="3.183" height="9.615" transform="translate(5718.289 5077.074)" fill="#d5c2f9"/>
        <rect id="Rectángulo_4223" data-name="Rectángulo 4223" width="3.183" height="12.344" transform="translate(5725.189 5074.344)" fill="#d5c2f9"/>
        <rect id="Rectángulo_4224" data-name="Rectángulo 4224" width="3.183" height="13.14" transform="translate(5732.09 5073.549)" fill="#d5c2f9"/>
      </g>
    </g>
    <path id="Trazado_39434" data-name="Trazado 39434" d="M5724.013,5184.01s-32.032-3.384-31.056,2.445-12.891,2.968-21.094,3.053-28.319.939-29.3,9.7,68.033,3.371,103.982,4.055c35.6.677,42.891.559,43.48-4.633S5761.71,5183.618,5724.013,5184.01Z" fill="#382a42" opacity="0.06"/>
    <g id="Grupo_36281" data-name="Grupo 36281">
      <g id="Grupo_36273" data-name="Grupo 36273">
        <g id="Grupo_36272" data-name="Grupo 36272">
          <path id="Trazado_39435" data-name="Trazado 39435" d="M5760.144,5141.1l14.275,43.662h-2.639l-13.838-43.048Z" fill="#dd890e"/>
        </g>
      </g>
      <g id="Grupo_36275" data-name="Grupo 36275">
        <g id="Grupo_36274" data-name="Grupo 36274">
          <path id="Trazado_39436" data-name="Trazado 39436" d="M5752.244,5141.1l-14.275,43.662h2.639l13.838-43.048Z" fill="#dd890e"/>
        </g>
      </g>
      <path id="Trazado_39437" data-name="Trazado 39437" d="M5740.125,5165.52l31.233-4.651v-1.725l-31.233,4.651Z" fill="#dd890e"/>
      <g id="Grupo_36277" data-name="Grupo 36277">
        <g id="Grupo_36276" data-name="Grupo 36276">
          <path id="Trazado_39438" data-name="Trazado 39438" d="M5765.949,5141.1l15.619,48.583h-2.888l-15.14-47.911Z" fill="#f29d14"/>
        </g>
      </g>
      <g id="Grupo_36279" data-name="Grupo 36279">
        <g id="Grupo_36278" data-name="Grupo 36278">
          <path id="Trazado_39439" data-name="Trazado 39439" d="M5746.8,5141.1l-15.619,48.583h2.888l15.14-47.911Z" fill="#f29d14"/>
        </g>
      </g>
      <path id="Trazado_39440" data-name="Trazado 39440" d="M5744.907,5139.161s-1.878,3.647,4.475,3.851,16.542.662,17.721-.332a3.081,3.081,0,0,0,.413-3.9C5766.828,5137.555,5744.907,5139.161,5744.907,5139.161Z" fill="#dd890e"/>
      <g id="Grupo_36280" data-name="Grupo 36280">
        <path id="Trazado_39441" data-name="Trazado 39441" d="M5771.109,5080.91c6.225,1.991,7.474,5.172,9.088,10.3,1.263,4.012,4.11,41.478-4.876,47.793-3.538,2.486-22.4,1.981-31.937,1.512-3.334-.164-8.938.409-9.885-4.911l-.752-17.176s19.639-11.456,20.933-14.252-.166-19.071-.166-19.071S5758.535,5076.889,5771.109,5080.91Z" fill="#751935"/>
      </g>
      <path id="Trazado_39442" data-name="Trazado 39442" d="M5772.486,5165.52l-31.233-4.651v-1.725l31.233,4.651Z" fill="#f29d14"/>
      <path id="Trazado_39443" data-name="Trazado 39443" d="M5780.667,5093.762s-.478-6.149-4.423-10.116-4.1,24.808-4.886,37.442-13.587,19.054-22.612,19.515a88.651,88.651,0,0,0,18.565,0c7.7-.915,10.833-.436,13.074-12.838S5780.667,5093.762,5780.667,5093.762Z" fill="#681732"/>
    </g>
    <g id="Grupo_36297" data-name="Grupo 36297">
      <g id="Grupo_36296" data-name="Grupo 36296">
        <g id="Grupo_36282" data-name="Grupo 36282">
          <path id="Trazado_39444" data-name="Trazado 39444" d="M5739.561,5178.822l.447,1.794-3.022.9-.268-1.985Z" fill="#c955ff"/>
          <path id="Trazado_39445" data-name="Trazado 39445" d="M5739.837,5179.958l.126.525-2.993.9-.106-.774Z" fill="#b62eef"/>
          <path id="Trazado_39446" data-name="Trazado 39446" d="M5739.313,5185.717l.019.086,2.993-.963-.093-1.233-2.891,2.1" fill="#404040"/>
          <path id="Trazado_39447" data-name="Trazado 39447" d="M5736.966,5181.237a13.727,13.727,0,0,0,3.019-.907s2.8,2.108,2.291,3.721c0,0-6.454,4.4-10.162,4.131s-1.477-2.364-.715-2.315C5731.4,5185.867,5735.6,5184.76,5736.966,5181.237Z" fill="#020202"/>
          <path id="Trazado_39448" data-name="Trazado 39448" d="M5740.5,5181.322c.255-.588-.52-.992-.52-.992a13.727,13.727,0,0,1-3.019.907c-1.362,3.523-5.567,4.63-5.567,4.63s-1.365,2.121,3.334.031C5734.733,5185.9,5739.254,5184.2,5740.5,5181.322Z" fill="#30302f"/>
          <path id="Trazado_39449" data-name="Trazado 39449" d="M5736.934,5184.81a15.93,15.93,0,0,1-2.224,1.093c-4.7,2.09-3.334-.03-3.334-.03a10.184,10.184,0,0,0,2.523-1.147s2.845-1.108,3.009-.1" fill="#404040"/>
          <path id="Trazado_39450" data-name="Trazado 39450" d="M5737.341,5183.324a2.375,2.375,0,0,0-2.01.38A1.306,1.306,0,0,1,5737.341,5183.324Z" fill="#020202"/>
          <path id="Trazado_39451" data-name="Trazado 39451" d="M5736.632,5183.863a2.375,2.375,0,0,0-2.01.38A1.306,1.306,0,0,1,5736.632,5183.863Z" fill="#020202"/>
          <path id="Trazado_39452" data-name="Trazado 39452" d="M5735.975,5184.39a2.373,2.373,0,0,0-2.009.38A1.306,1.306,0,0,1,5735.975,5184.39Z" fill="#020202"/>
        </g>
        <g id="Grupo_36283" data-name="Grupo 36283">
          <path id="Trazado_39453" data-name="Trazado 39453" d="M5756.119,5173.608l1.577.966-1.526,2.758-1.583-1.228Z" fill="#c955ff"/>
          <path id="Trazado_39454" data-name="Trazado 39454" d="M5757.113,5174.225l.458.286-1.5,2.743-.619-.478Z" fill="#b62eef"/>
          <path id="Trazado_39455" data-name="Trazado 39455" d="M5760.775,5178.7l.074.048,1.459-2.785-.931-.814-.591,3.521" fill="#404040"/>
          <path id="Trazado_39456" data-name="Trazado 39456" d="M5755.962,5177.149a13.807,13.807,0,0,0,1.517-2.763s3.474-.46,4.242,1.048c0,0-1.517,7.663-4.352,10.069s-2.71-.651-2.132-1.149C5755.237,5184.354,5757.46,5180.617,5755.962,5177.149Z" fill="#020202"/>
          <path id="Trazado_39457" data-name="Trazado 39457" d="M5758.544,5174.729c-.229-.6-1.065-.343-1.065-.343a13.807,13.807,0,0,1-1.517,2.763c1.5,3.468-.725,7.205-.725,7.205s.513,2.469,2.4-2.316C5757.636,5182.038,5759.67,5177.658,5758.544,5174.729Z" fill="#30302f"/>
          <path id="Trazado_39458" data-name="Trazado 39458" d="M5758.443,5179.72a15.884,15.884,0,0,1-.82,2.338c-1.886,4.785-2.4,2.316-2.4,2.316a10.184,10.184,0,0,0,1-2.587s1.252-2.784,2.078-2.178" fill="#404040"/>
          <path id="Trazado_39459" data-name="Trazado 39459" d="M5757.692,5178.375a2.371,2.371,0,0,0-1.167,1.679S5756.1,5178.744,5757.692,5178.375Z" fill="#020202"/>
          <path id="Trazado_39460" data-name="Trazado 39460" d="M5757.564,5179.256a2.373,2.373,0,0,0-1.167,1.679S5755.97,5179.626,5757.564,5179.256Z" fill="#020202"/>
          <path id="Trazado_39461" data-name="Trazado 39461" d="M5757.465,5180.092a2.376,2.376,0,0,0-1.167,1.68S5755.871,5180.462,5757.465,5180.092Z" fill="#020202"/>
        </g>
        <path id="Trazado_39462" data-name="Trazado 39462" d="M5745.88,5120.342l-19.526,27.228s-2.49,4.64,4.111,9.547,23.376,20.762,23.376,20.762,3.427-2.393,3.017-6.2l-19.679-21.137,20.783-25.646S5753.713,5117.782,5745.88,5120.342Z" fill="#3a1f09"/>
        <path id="Trazado_39463" data-name="Trazado 39463" d="M5757.2,5134.684s10.307-3.522,8.8-7.715c-1.243-3.468-3.355-3.305-8.863-1.53-5.343,1.722-30.92,12.28-29.267,16.82C5728.939,5145.18,5731.988,5144.734,5757.2,5134.684Z" fill="#f9b180"/>
        <path id="Trazado_39464" data-name="Trazado 39464" d="M5744.44,5118.957a13.948,13.948,0,0,0,3.717,11.116,10.488,10.488,0,0,0,6.585,3.062c6.383.607,11.651-3.844,11.935-11.376,0,0,1.932-13.035-8.492-13.88C5747.965,5107.051,5744.705,5113.5,5744.44,5118.957Z" fill="#4c2b0c"/>
        <path id="Trazado_39465" data-name="Trazado 39465" d="M5754.378,5124.76l11.134-3.659s5.82,8.451-2.222,12.47-31.68,10.309-31.68,10.309,6.506,18.425,8.965,34.809l-4.765,2.1-11.345-35.909s-1.358-5.694,2.288-7.635C5732.606,5134.127,5754.378,5124.76,5754.378,5124.76Z" fill="#4c2b0c"/>
        <path id="Trazado_39466" data-name="Trazado 39466" d="M5734.245,5121.7l-4.709.629v2.1l4.27-.421Z" fill="#8c8c8c"/>
        <path id="Trazado_39467" data-name="Trazado 39467" d="M5733.093,5122.33l.251,4.009-2.547-.155-.459-3.854Z" fill="#f7af80"/>
        <path id="Trazado_39468" data-name="Trazado 39468" d="M5733.344,5126.339l.183-.253a.361.361,0,0,1,.5-.081l2.058,1.263a.362.362,0,0,1,.082.5l-.393.544a.361.361,0,0,1-.5.082l-1.848-1.555A.362.362,0,0,1,5733.344,5126.339Z" fill="#e08d56"/>
        <g id="Grupo_36284" data-name="Grupo 36284">
          <path id="Trazado_39469" data-name="Trazado 39469" d="M5730.011,5130.312c0,.046-.008.691,0,.735.092.431.482.5.9.447l3.5.194a.779.779,0,0,0,.4-.075.8.8,0,0,0,.426-.822l-1.045-4.962a.879.879,0,0,0-.243-.435,1.08,1.08,0,0,0-1.083-.283l-1.715.231c-.98.051-1.138.518-1.078.958Z" fill="#f7af80"/>
        </g>
        <g id="Grupo_36285" data-name="Grupo 36285">
          <circle id="Elipse_727" data-name="Elipse 727" cx="1.568" cy="1.568" r="1.568" transform="translate(5744.292 5065.737)" fill="#f2bc98"/>
          <circle id="Elipse_728" data-name="Elipse 728" cx="0.92" cy="0.92" r="0.92" transform="translate(5744.941 5066.385)" fill="#d18a5b"/>
        </g>
        <g id="Grupo_36286" data-name="Grupo 36286">
          <circle id="Elipse_729" data-name="Elipse 729" cx="1.568" cy="1.568" r="1.568" transform="translate(5762.757 5066.214)" fill="#f2bc98"/>
          <circle id="Elipse_730" data-name="Elipse 730" cx="0.92" cy="0.92" r="0.92" transform="translate(5763.405 5066.862)" fill="#d18a5b"/>
        </g>
        <path id="Trazado_39470" data-name="Trazado 39470" d="M5758.678,5081.589h-8.4l3.829,6.733Z" fill="gray"/>
        <path id="Trazado_39471" data-name="Trazado 39471" d="M5745.759,5111.245,5741.8,5098.2a7.928,7.928,0,0,1-1.894-3.588s-2.362-5.147,2.092-6.845l7-2.727,11.588-.1,8.832,2.9c4.48,1.63,3.573,4.565,3.573,4.565a29.377,29.377,0,0,1-3.326,5.577l-3.94,13.025s-.978,5.376-10.311,5.682S5746.649,5112.839,5745.759,5111.245Z" fill="#f7af80"/>
        <path id="Trazado_39472" data-name="Trazado 39472" d="M5761.747,5092.134l11.547,2.862s-1.254-11.554-15.559-11.87c-18.594-.412-17.671,7.562-17.539,9.454S5761.747,5092.134,5761.747,5092.134Z" fill="#f2bc98"/>
        <path id="Trazado_39473" data-name="Trazado 39473" d="M5750.884,5078.753v5.012l7.149.153.1-5.324Z" fill="#f2bc98"/>
        <path id="Trazado_39474" data-name="Trazado 39474" d="M5750.884,5082.323s4.789.208,7.193-.744l.056-2.985-7.249.159Z" fill="#e3ae8a"/>
        <path id="Trazado_39475" data-name="Trazado 39475" d="M5745.878,5071.542l.056-12.315s.817-5.853,9.85-5.6,8.536,8.147,8.536,8.147l-.045.01-.6,11.051a3.852,3.852,0,0,1-1.59,3.412l-3.169,2.555c-4.516,3.562-7.8.605-7.8.605l-2.469-2A6.847,6.847,0,0,1,5745.878,5071.542Z" fill="#f2bc98"/>
        <path id="Trazado_39476" data-name="Trazado 39476" d="M5761.212,5058.1s-.131-3.186,1.924-2.994,1.476,2.385,2.033,3.889a2.557,2.557,0,0,1,0,2.3l-.857,4.944a1.024,1.024,0,0,1-.987-.915l-.383-4.029S5762.494,5057.989,5761.212,5058.1Z" fill="#331b0a"/>
        <g id="Grupo_36290" data-name="Grupo 36290">
          <path id="Trazado_39477" data-name="Trazado 39477" d="M5738.552,5091.869c.4-6.2,12.318-9.237,12.318-9.237l1.053,1.976,2.177,4.243,3.232-3.888,1.579-2.621s12.865,2.945,13.247,9.148-2.188,7.311-2.188,7.311-2.084,10.706-2.084,13.243v16.034l-12.622-5-12.337,1.785s1.274-10.357,1.274-12.894-2.56-13.166-2.56-13.166S5738.155,5098.072,5738.552,5091.869Z" fill="#f0f0f0"/>
          <path id="Trazado_39478" data-name="Trazado 39478" d="M5743.375,5087.916l-1.276-1.329s-16.62,12.333-12.224,36.786l3.478.221s2.125-18.931,8.1-24.276C5741.453,5099.318,5747.854,5091.029,5743.375,5087.916Z" fill="#f0f0f0"/>
          <path id="Trazado_39479" data-name="Trazado 39479" d="M5755.6,5086.554l-1.507,36.945-1.068-.423-.907.2.587-37.151,1.128,2.2Z" fill="#cacaca" opacity="0.46"/>
          <g id="Grupo_36287" data-name="Grupo 36287">
            <path id="Trazado_39480" data-name="Trazado 39480" d="M5753.373,5092.035a.545.545,0,1,0,.545-.545A.545.545,0,0,0,5753.373,5092.035Z" fill="#cacaca"/>
            <circle id="Elipse_731" data-name="Elipse 731" cx="0.13" cy="0.13" r="0.13" transform="translate(5753.97 5091.739)" fill="#f0f0f0"/>
            <circle id="Elipse_732" data-name="Elipse 732" cx="0.13" cy="0.13" r="0.13" transform="translate(5753.97 5092.063)" fill="#f0f0f0"/>
            <circle id="Elipse_733" data-name="Elipse 733" cx="0.13" cy="0.13" r="0.13" transform="translate(5753.619 5091.739)" fill="#f0f0f0"/>
            <circle id="Elipse_734" data-name="Elipse 734" cx="0.13" cy="0.13" r="0.13" transform="translate(5753.619 5092.063)" fill="#f0f0f0"/>
          </g>
          <g id="Grupo_36288" data-name="Grupo 36288">
            <path id="Trazado_39481" data-name="Trazado 39481" d="M5753.2,5094.451a.545.545,0,1,0,.545-.545A.545.545,0,0,0,5753.2,5094.451Z" fill="#cacaca"/>
            <circle id="Elipse_735" data-name="Elipse 735" cx="0.13" cy="0.13" r="0.13" transform="translate(5753.798 5094.154)" fill="#f0f0f0"/>
            <circle id="Elipse_736" data-name="Elipse 736" cx="0.13" cy="0.13" r="0.13" transform="translate(5753.798 5094.478)" fill="#f0f0f0"/>
            <circle id="Elipse_737" data-name="Elipse 737" cx="0.13" cy="0.13" r="0.13" transform="translate(5753.447 5094.154)" fill="#f0f0f0"/>
            <circle id="Elipse_738" data-name="Elipse 738" cx="0.13" cy="0.13" r="0.13" transform="translate(5753.447 5094.478)" fill="#f0f0f0"/>
          </g>
          <g id="Grupo_36289" data-name="Grupo 36289">
            <path id="Trazado_39482" data-name="Trazado 39482" d="M5753.425,5089.921a.545.545,0,1,0,.545-.546A.545.545,0,0,0,5753.425,5089.921Z" fill="#cacaca"/>
            <circle id="Elipse_739" data-name="Elipse 739" cx="0.13" cy="0.13" r="0.13" transform="translate(5754.023 5089.624)" fill="#f0f0f0"/>
            <circle id="Elipse_740" data-name="Elipse 740" cx="0.13" cy="0.13" r="0.13" transform="translate(5754.023 5089.948)" fill="#f0f0f0"/>
            <circle id="Elipse_741" data-name="Elipse 741" cx="0.13" cy="0.13" r="0.13" transform="translate(5753.671 5089.625)" fill="#f0f0f0"/>
            <circle id="Elipse_742" data-name="Elipse 742" cx="0.13" cy="0.13" r="0.13" transform="translate(5753.671 5089.948)" fill="#f0f0f0"/>
          </g>
        </g>
        <g id="Grupo_36291" data-name="Grupo 36291">
          <path id="Trazado_39483" data-name="Trazado 39483" d="M5757.054,5065.07a1.311,1.311,0,1,0,1.309-1.239A1.275,1.275,0,0,0,5757.054,5065.07Z" fill="#3f2006"/>
          <path id="Trazado_39484" data-name="Trazado 39484" d="M5757.972,5064.794a.342.342,0,0,0,0,.462c.167.185-.106.46-.274.274a.722.722,0,0,1-.065-.931.2.2,0,0,1,.265-.07.2.2,0,0,1,.07.265Z" fill="#fff"/>
        </g>
        <g id="Grupo_36292" data-name="Grupo 36292">
          <path id="Trazado_39485" data-name="Trazado 39485" d="M5749.118,5065.07a1.311,1.311,0,1,0,1.31-1.239A1.276,1.276,0,0,0,5749.118,5065.07Z" fill="#3f2006"/>
          <path id="Trazado_39486" data-name="Trazado 39486" d="M5750.036,5064.794a.343.343,0,0,0,0,.462c.167.185-.106.46-.274.274a.722.722,0,0,1-.065-.931.2.2,0,0,1,.265-.07.2.2,0,0,1,.07.265Z" fill="#fff"/>
        </g>
        <path id="Trazado_39487" data-name="Trazado 39487" d="M5740.972,5088.322s4.674,4.93,1.147,9.338C5742.119,5097.66,5744.632,5093.62,5740.972,5088.322Z" fill="#cacaca" opacity="0.46"/>
        <g id="Grupo_36293" data-name="Grupo 36293">
          <path id="Trazado_39488" data-name="Trazado 39488" d="M5750.7,5068.507h.014c.027,0,.053,0,.082.007l.03.009a2.2,2.2,0,0,0,2.755-1.265c.575-1.059.981-.194,1-.106a2.87,2.87,0,0,1-1.727,3.345c-2.29.957-3.247.083-3.414-.354S5749.006,5068.374,5750.7,5068.507Z" fill="#f38f81"/>
          <path id="Trazado_39489" data-name="Trazado 39489" d="M5749.44,5069.956c.167.437,1.124,1.311,3.414.354a2.73,2.73,0,0,0,1.795-2.573,2.755,2.755,0,0,1-1.795,2.761c-2.29.957-3.247.083-3.414-.354a1.9,1.9,0,0,1-.119-.749A2,2,0,0,0,5749.44,5069.956Z" fill="#db7f76"/>
        </g>
        <path id="Trazado_39490" data-name="Trazado 39490" d="M5734.526,5122.122l-4.991.208v2.1h4.552Z" fill="#cacaca"/>
        <path id="Trazado_39491" data-name="Trazado 39491" d="M5752.031,5060.717s-2.961-.578-3.612.049a7.981,7.981,0,0,0-1.246,1.856,9.146,9.146,0,0,1,2.039-.759,10.524,10.524,0,0,0,2.642-.111C5752.11,5061.519,5752.436,5061.264,5752.031,5060.717Z" fill="#3f2006"/>
        <path id="Trazado_39492" data-name="Trazado 39492" d="M5756.31,5060.907s2.961-.578,3.612.049a8.037,8.037,0,0,1,1.246,1.856,9.086,9.086,0,0,0-2.039-.758,10.539,10.539,0,0,1-2.642-.112C5756.231,5061.71,5755.9,5061.455,5756.31,5060.907Z" fill="#3f2006"/>
        <path id="Trazado_39493" data-name="Trazado 39493" d="M5755.173,5073.858s-.375.887-1.12.846a1.223,1.223,0,0,1-1.116-.887s-.1-.378-.346-.236c0,0-.217.114-.055.415a1.782,1.782,0,0,0,1.508,1.138,1.545,1.545,0,0,0,1.581-1.114s.083-.25-.056-.336C5755.569,5073.684,5755.307,5073.526,5755.173,5073.858Z" fill="#211f1f"/>
        <path id="Trazado_39494" data-name="Trazado 39494" d="M5753.006,5071.27c-.784-.058-2.943-.114-2.943,1.052,0,.7-.478.918-1.169.926s-2.42-1.867-2.323-4.233a10.949,10.949,0,0,0-.159-3.176l-.551-.1s-.089,4.991,0,7.1a6.633,6.633,0,0,0,2.474,4.669c1.171,1.033,3.485,3.366,6,3.251s3.609-.918,5.337-2.161,3.921-2.813,4.113-4.72.2-6.785.2-6.785l-1.157.216s-.138,4.716-1.434,5.53a2.893,2.893,0,0,1-2.559.53c-.42-.145-.358-1.633-1.585-1.942a8.932,8.932,0,0,0-2.684-.153.793.793,0,0,1-.76.822C5753.025,5072.149,5753.006,5071.27,5753.006,5071.27Zm-2.352,3.642c-.058-1.263,1.082-2.077,3.193-2.077,0,0,2.983,0,3.264,1.8.286,1.835-.165,2.349-1.179,2.417-1.186.079-.965-.049-1.413-.716l-1.112-.076s-.1.939-.931.768A2.232,2.232,0,0,1,5750.654,5074.912Z" fill="#492408"/>
        <path id="Trazado_39495" data-name="Trazado 39495" d="M5748.877,5057.282s.131-3.185-1.924-2.994-1.475,2.386-2.033,3.889a2.56,2.56,0,0,0,0,2.3l.858,4.944a1.025,1.025,0,0,0,.987-.915c.083-.883.382-4.029.382-4.029S5747.6,5057.173,5748.877,5057.282Z" fill="#331b0a"/>
        <path id="Trazado_39496" data-name="Trazado 39496" d="M5748.734,5054.88s-1.217-1.849-3.266.167l-.72.72s3.064-.833,3.7-.523Z" fill="#331b0a"/>
        <g id="Grupo_36294" data-name="Grupo 36294">
          <path id="Trazado_39497" data-name="Trazado 39497" d="M5756.545,5067c.293.037,2.8.226,3.4.239s1.135-.039,1.3-.435a21.461,21.461,0,0,0,.469-2.336c-.035-.913-.385-.952-.78-1.063a9.727,9.727,0,0,0-2.111-.192,7.246,7.246,0,0,0-1.421.112,3.6,3.6,0,0,0-1.505.563.607.607,0,0,0-.357.53C5755.712,5066.6,5756.252,5066.966,5756.545,5067Z" fill="#fff" opacity="0.25"/>
          <path id="Trazado_39498" data-name="Trazado 39498" d="M5759.927,5062.97l1.664,3.825-.5.45-1.778-4.274Z" fill="#fff" opacity="0.25"/>
        </g>
        <g id="Grupo_36295" data-name="Grupo 36295">
          <path id="Trazado_39499" data-name="Trazado 39499" d="M5747.461,5066.808c.167.4.695.447,1.3.435s3.111-.2,3.4-.239.833-.4,1-2.582a.609.609,0,0,0-.357-.53,3.6,3.6,0,0,0-1.506-.563,7.251,7.251,0,0,0-1.421-.112,9.736,9.736,0,0,0-2.111.192c-.394.111-.745.15-.779,1.063A21.438,21.438,0,0,0,5747.461,5066.808Z" fill="#fff" opacity="0.25"/>
          <path id="Trazado_39500" data-name="Trazado 39500" d="M5751.066,5062.97l1.664,3.825-.5.45-1.778-4.274Z" fill="#fff" opacity="0.25"/>
        </g>
        <path id="Trazado_39501" data-name="Trazado 39501" d="M5754,5064.11s.441-.008.735,0,.285.517.285.517.356,2.391,1.205,2.617a35.336,35.336,0,0,0,4.1.331s1.091.068,1.4-.57l.525-2.18a4.879,4.879,0,0,1,.37-.789,2.68,2.68,0,0,0,0-.942,11.563,11.563,0,0,0-2.139-.254,17.55,17.55,0,0,0-2.927.141,28.323,28.323,0,0,1-2.994.389l-.043,0-.157,0-.157,0-.042,0a28.266,28.266,0,0,1-2.994-.389,17.56,17.56,0,0,0-2.927-.141,11.526,11.526,0,0,0-2.139.254,2.612,2.612,0,0,0,0,.942,5,5,0,0,1,.369.789l.526,2.18c.31.638,1.4.57,1.4.57a35.321,35.321,0,0,0,4.1-.331c.849-.226,1.2-2.617,1.2-2.617C5753.709,5064.082,5754,5064.11,5754,5064.11Zm1.55.312a.607.607,0,0,1,.357-.53,3.6,3.6,0,0,1,1.505-.563,7.246,7.246,0,0,1,1.421-.112,9.727,9.727,0,0,1,2.111.192c.4.111.745.15.78,1.063a21.461,21.461,0,0,1-.469,2.336c-.168.4-.7.447-1.3.435s-3.111-.2-3.4-.239S5755.712,5066.6,5755.547,5064.422Zm-8.555.05c.034-.913.385-.952.779-1.063a9.736,9.736,0,0,1,2.111-.192,7.251,7.251,0,0,1,1.421.112,3.6,3.6,0,0,1,1.506.563.609.609,0,0,1,.357.53c-.166,2.182-.706,2.544-1,2.582s-2.8.226-3.4.239-1.135-.039-1.3-.435A21.438,21.438,0,0,1,5746.992,5064.472Z" fill="#181822"/>
        <path id="Trazado_39502" data-name="Trazado 39502" d="M5762.415,5063.217l.2-.124,1.709,2.727-.337.565-1.739-2.4Z" fill="#181822"/>
        <path id="Trazado_39503" data-name="Trazado 39503" d="M5751.822,5089.92l2.352-1.6-3.9-6.733-2.289,3.2Z" fill="#cacaca"/>
        <path id="Trazado_39504" data-name="Trazado 39504" d="M5756.395,5089.971l-2.221-1.649,4.57-6.733,1.747,2.971Z" fill="#cacaca"/>
        <path id="Trazado_39505" data-name="Trazado 39505" d="M5755.272,5057.56s-1.152-.585,0-1.877,3.444-.609,4.714-.351,2.521.6,2.639.589-.206-.3-.574-.458l2.02-1.706s-6.018-6.447-13.57-2.272c0,0-2.331,1.243-2.13,2.533a10.981,10.981,0,0,0,1.727,3.363Z" fill="#3f210d"/>
        <path id="Trazado_39506" data-name="Trazado 39506" d="M5751.593,5054.281s2.265-4.79,6.069-4.3a3.734,3.734,0,0,1,1.782.612s-3.826-.623-7.17,4.013Z" fill="#30190c"/>
        <path id="Trazado_39507" data-name="Trazado 39507" d="M5751.491,5056.654l-1.494.7-1.1-.018s-3.377-6.32,3.707-7.107a13.417,13.417,0,0,1,3.28.053s-4.17,1.659-4.187,3.736A10.86,10.86,0,0,1,5751.491,5056.654Z" fill="#3f210d"/>
        <path id="Trazado_39508" data-name="Trazado 39508" d="M5748.877,5057.148s.364-5.466,2.715-6.807c0,0-1.951,3.958-1.6,6.6A1.3,1.3,0,0,1,5748.877,5057.148Z" fill="#30190c"/>
        <path id="Trazado_39509" data-name="Trazado 39509" d="M5749.944,5056.339s.965-6.115,4.626-6.181c0,0-2.088.541-3.582,5.766l0,.991S5749.827,5056.923,5749.944,5056.339Z" fill="#30190c"/>
        <path id="Trazado_39510" data-name="Trazado 39510" d="M5752.438,5054.826s4.165-7.734,9.7-2.914c0,0,.032-.024.761.822,0,0-3.473-1.371-4.882.037s-3.175,3.629-3.175,3.629Z" fill="#3f210d"/>
        <path id="Trazado_39511" data-name="Trazado 39511" d="M5754.063,5053.3s4.636-3.748,7.683-1.717c0,0-2.025-.745-6.23,2.7l-.568.812S5753.634,5053.715,5754.063,5053.3Z" fill="#30190c"/>
        <path id="Trazado_39512" data-name="Trazado 39512" d="M5765.245,5056.588s-1.142-1.652-2.488-.753a3.12,3.12,0,0,0-1.48,1.988,40.106,40.106,0,0,1-4.565,0,7.321,7.321,0,0,1-3.671-.892s2.03-4.675,5.322-4.838,4.369.51,5.042,1.069C5763.4,5053.162,5765.447,5054.611,5765.245,5056.588Z" fill="#3f210d"/>
        <path id="Trazado_39513" data-name="Trazado 39513" d="M5758.911,5055.694a4.823,4.823,0,0,1,6.252-.6,5.656,5.656,0,0,0-5.212,1.336A1.268,1.268,0,0,1,5758.911,5055.694Z" fill="#30190c"/>
        <path id="Trazado_39514" data-name="Trazado 39514" d="M5756.2,5054.38s4.529-4.349,7.869-.623a9.164,9.164,0,0,0-6.575,1.338Z" fill="#30190c"/>
        <path id="Trazado_39515" data-name="Trazado 39515" d="M5760.453,5055.929s-2.09-3.07-4.95-3.07c-2.773,0-7.292,2.405-6.185,4.785h4.749S5755.231,5053.663,5760.453,5055.929Z" fill="#2b1609"/>
        <path id="Trazado_39516" data-name="Trazado 39516" d="M5753.587,5056.916s1.386-2.919,4.037-2.636a4.3,4.3,0,0,1,3.781,3.531s-1.561-1.027-1.631-.167S5753.587,5056.916,5753.587,5056.916Z" fill="#331b0a"/>
        <path id="Trazado_39517" data-name="Trazado 39517" d="M5753.041,5056.759a.218.218,0,0,0-.214.018l-.1.072a.217.217,0,0,1-.217.017l-.226-.113a.218.218,0,0,0-.194,0l-.259.136a.218.218,0,0,1-.2,0l-.221-.125a.218.218,0,0,0-.208,0l-.094.054a.217.217,0,0,1-.218-.007l-.2-.129a.217.217,0,0,0-.215-.007l-.438.239a.2.2,0,0,1-.05.019l-1.117.215c-.043.01-.5.282-.5.282l-.341.607c-.065.088.408-.038.538-.031l13.23.968c.147.008.486-.078.4-.172-.263-.294-.811-1.47-1.754-1.81l-.425-.178a.219.219,0,0,0-.179,0l-.131.065a.221.221,0,0,1-.185,0l-.379-.175a.224.224,0,0,0-.163-.006l-.319.113a.217.217,0,0,1-.162-.006l-.425-.193a.228.228,0,0,0-.177,0l-.208.095a.219.219,0,0,1-.189-.006l-.56-.3a.221.221,0,0,0-.191,0l-.407.19a.2.2,0,0,1-.251-.06h0a.2.2,0,0,0-.221-.072l-.33.094a.223.223,0,0,1-.148-.009l-.347-.154s-.257-.227-.822.347A.859.859,0,0,1,5753.041,5056.759Z" fill="#f2bc98"/>
      </g>
      <path id="Trazado_39518" data-name="Trazado 39518" d="M5787.267,5048.162" fill="#252430"/>
      <path id="Trazado_39519" data-name="Trazado 39519" d="M5764.325,5093.768a26.408,26.408,0,0,1,.6,8.312c-.826,6.625-3.473,9.264-11.873,12.8,0,0,12.2,1.559,14.5-6.111S5769.668,5097.981,5764.325,5093.768Z" fill="#cacaca" opacity="0.22"/>
    </g>
    <g id="Grupo_36302" data-name="Grupo 36302">
      <g id="Grupo_36298" data-name="Grupo 36298">
        <path id="Trazado_39520" data-name="Trazado 39520" d="M5669.887,5123.671l-7.214,74.039,3.607.631,11.065-74.028Z" fill="#9e531b"/>
        <path id="Trazado_39521" data-name="Trazado 39521" d="M5680.443,5123.671l-11.531,72.088-2.632,2.582,11.065-74.028Z" fill="#8e4819"/>
      </g>
      <g id="Grupo_36299" data-name="Grupo 36299">
        <path id="Trazado_39522" data-name="Trazado 39522" d="M5692.566,5123.671l-6.62,68.223,3.31.58,10.154-68.213Z" fill="#8e4819"/>
        <path id="Trazado_39523" data-name="Trazado 39523" d="M5702.253,5123.671l-10.582,66.434-2.415,2.369,10.154-68.213Z" fill="#773c15"/>
      </g>
      <g id="Grupo_36300" data-name="Grupo 36300">
        <path id="Trazado_39524" data-name="Trazado 39524" d="M5768.857,5123.671l7.214,74.039-3.607.631-11.065-74.028Z" fill="#9e531b"/>
        <path id="Trazado_39525" data-name="Trazado 39525" d="M5758.3,5123.671l11.532,72.088,2.632,2.582-11.065-74.028Z" fill="#8e4819"/>
      </g>
      <g id="Grupo_36301" data-name="Grupo 36301">
        <path id="Trazado_39526" data-name="Trazado 39526" d="M5748.817,5123.671l6.62,68.223-3.31.58-10.154-68.213Z" fill="#8e4819"/>
        <path id="Trazado_39527" data-name="Trazado 39527" d="M5739.131,5123.671l10.582,66.434,2.415,2.369-10.154-68.213Z" fill="#773c15"/>
      </g>
      <path id="Trazado_39528" data-name="Trazado 39528" d="M5774.673,5125.17c0,2.327-24.708,4.213-55.188,4.213s-55.188-1.886-55.188-4.213v-5.927h110.376Z" fill="#9e531b"/>
      <ellipse id="Elipse_743" data-name="Elipse 743" cx="55.188" cy="4.213" rx="55.188" ry="4.213" transform="translate(5664.297 5115.03)" fill="#aa5d1d"/>
    </g>
    <g id="Grupo_36308" data-name="Grupo 36308">
      <g id="Grupo_36303" data-name="Grupo 36303">
        <path id="Trazado_39529" data-name="Trazado 39529" d="M5740.717,5119.3l5.125-2.958h-8.474Z" fill="#1e1e1d"/>
      </g>
      <g id="Grupo_36304" data-name="Grupo 36304">
        <rect id="Rectángulo_4225" data-name="Rectángulo 4225" width="37.937" height="1.588" transform="translate(5702.78 5119.3)" fill="#1e1e1d"/>
      </g>
      <g id="Grupo_36305" data-name="Grupo 36305">
        <path id="Trazado_39530" data-name="Trazado 39530" d="M5740.717,5120.888l5.125-3.447v-1.1l-5.125,2.958Z" fill="#4d4d4d"/>
      </g>
      <path id="Trazado_39531" data-name="Trazado 39531" d="M5701.346,5093.885l1.434-.946,41.059-.765-.916,1.416Z" fill="#1e1e1d"/>
      <path id="Trazado_39532" data-name="Trazado 39532" d="M5740.717,5119.3l1.4-.811,1.717-26.316-.916,1.416Z" fill="#42413f"/>
      <g id="Grupo_36306" data-name="Grupo 36306">
        <path id="Trazado_39533" data-name="Trazado 39533" d="M5701.346,5093.885l1.434,25.415h37.937l2.206-25.71Z" fill="#302f2e"/>
      </g>
      <g id="Grupo_36307" data-name="Grupo 36307">
        <path id="Trazado_39534" data-name="Trazado 39534" d="M5724.689,5107.257a3.6,3.6,0,1,1-3.6-3.6A3.594,3.594,0,0,1,5724.689,5107.257Z" fill="#7a7875"/>
      </g>
      <path id="Trazado_39535" data-name="Trazado 39535" d="M5721.09,5103.659a3.573,3.573,0,0,1,.864.109,3.592,3.592,0,0,0,0,6.976,3.6,3.6,0,1,1-.864-7.085Z" fill="#a3a19f"/>
    </g>
    <path id="Trazado_39536" data-name="Trazado 39536" d="M5692.523,5118.2s-3.979-.352-3.858.254-1.6.309-2.619.318-3.518.1-3.639,1.009,8.449.351,12.914.422c4.422.071,5.327.058,5.4-.482S5697.2,5118.16,5692.523,5118.2Z" fill="#9e531b"/>
    <g id="Grupo_36314" data-name="Grupo 36314">
      <g id="Grupo_36313" data-name="Grupo 36313">
        <g id="Grupo_36310" data-name="Grupo 36310">
          <path id="Trazado_39537" data-name="Trazado 39537" d="M5696.941,5106.9a8.128,8.128,0,0,1-1.734,3.729c-1.13,1.344-2.889,1.36-4.556,1.246a5.878,5.878,0,0,1-5.213-6.928,5.8,5.8,0,0,1,1.771-3.465,7.263,7.263,0,0,1,4.85-1.275,5.061,5.061,0,0,1,4.218,2.124c.934,1.36.827,3.015.664,4.569C5696.874,5107.421,5696.965,5106.682,5696.941,5106.9Z" fill="#94c020" fill-rule="evenodd"/>
          <g id="Grupo_36309" data-name="Grupo 36309">
            <path id="Trazado_39538" data-name="Trazado 39538" d="M5693.533,5102.55a4.065,4.065,0,0,0-.264,2.355,3.032,3.032,0,0,0,1.243,2.1,3.476,3.476,0,0,0,2.327.427c.037-.152.067-.3.089-.447.011-.088.024-.186.013-.085.163-1.554.27-3.209-.664-4.569a4.7,4.7,0,0,0-.893-.971A2.136,2.136,0,0,0,5693.533,5102.55Z" fill="#fff" opacity="0.1"/>
            <path id="Trazado_39539" data-name="Trazado 39539" d="M5690.3,5110.73c-.447-.657-.966-1.287-1.344-1.983a6.439,6.439,0,0,1-.519-4.559,3.9,3.9,0,0,1,2.595-2.833,9.206,9.206,0,0,1,2.146-.454,8.251,8.251,0,0,0,1.16-.193,5.657,5.657,0,0,0-2.276-.5,7.263,7.263,0,0,0-4.85,1.275,5.8,5.8,0,0,0-1.771,3.465,5.878,5.878,0,0,0,5.213,6.928c.118.008.237.016.356.022A9.059,9.059,0,0,0,5690.3,5110.73Z" opacity="0.1"/>
          </g>
        </g>
        <g id="Grupo_36311" data-name="Grupo 36311">
          <path id="Trazado_39540" data-name="Trazado 39540" d="M5691.4,5100.932a4.289,4.289,0,0,1-2.78-.575c-.2-.159-.558-.587-.287-.833.269-.223.612.135.848.184-.156-.315-.463-1.173,0-1.4.565-.283.83.731.988,1.022.072-.2-.011-.711.241-.8.377-.119.385.408.432.619.107-.286.129-1.268.677-1.209.525.057.342.976.306,1.27.288-.381.638-.481.546.082.3-.127.719-.953,1.033-.552.232.277-.069.771-.242,1,.411-.342,1.066.042.345.345.3.079.915.02.795.419-.091.357-1.145.413-1.46.425-.411,0-1.027-.03-1.441-.006" fill="#e61e73" stroke="#e61e73" stroke-miterlimit="10" stroke-width="0.025"/>
          <path id="Trazado_39541" data-name="Trazado 39541" d="M5691.336,5100.757a2.708,2.708,0,0,1-1.751-.363c-.125-.1-.351-.37-.181-.525s.386.085.534.116c-.1-.2-.291-.739,0-.88.356-.178.522.46.622.644.046-.125-.007-.448.152-.5.237-.075.243.257.272.39.068-.18.081-.8.427-.761.33.036.215.615.193.8.181-.24.4-.3.343.051.193-.08.453-.6.651-.348.146.175-.043.486-.152.633.259-.216.671.027.217.217.192.05.577.013.5.265-.058.224-.721.26-.92.267-.259,0-.647-.019-.908,0" fill="#eb4a8e"/>
        </g>
        <g id="Grupo_36312" data-name="Grupo 36312">
          <path id="Trazado_39542" data-name="Trazado 39542" d="M5686.844,5101.25a2.543,2.543,0,0,0,.587.713,3.946,3.946,0,0,0,0-1.062" fill="none" stroke="#719017" stroke-linecap="round" stroke-linejoin="round" stroke-width="0.197" fill-rule="evenodd"/>
          <path id="Trazado_39543" data-name="Trazado 39543" d="M5691.041,5103.272c.089.245.146.49.236.705a2.617,2.617,0,0,0,.344-.811" fill="none" stroke="#719017" stroke-linecap="round" stroke-linejoin="round" stroke-width="0.197" fill-rule="evenodd"/>
          <path id="Trazado_39544" data-name="Trazado 39544" d="M5695.837,5101.305l-.023.758a1.153,1.153,0,0,0,.427-.353" fill="none" stroke="#719017" stroke-linecap="round" stroke-linejoin="round" stroke-width="0.197" fill-rule="evenodd"/>
          <path id="Trazado_39545" data-name="Trazado 39545" d="M5697.272,5105.834a1.914,1.914,0,0,1-.549.168c.189.1.378.192.536.287" fill="none" stroke="#719017" stroke-linecap="round" stroke-linejoin="round" stroke-width="0.197" fill-rule="evenodd"/>
          <path id="Trazado_39546" data-name="Trazado 39546" d="M5684.872,5106.265c.284.129.571.167.855.3a2.54,2.54,0,0,1-.842.342" fill="none" stroke="#719017" stroke-linecap="round" stroke-linejoin="round" stroke-width="0.197" fill-rule="evenodd"/>
          <path id="Trazado_39547" data-name="Trazado 39547" d="M5689.52,5106.024c.12.276.242.492.363.738a2.712,2.712,0,0,0,.278-.751" fill="none" stroke="#719017" stroke-linecap="round" stroke-linejoin="round" stroke-width="0.197" fill-rule="evenodd"/>
          <path id="Trazado_39548" data-name="Trazado 39548" d="M5693,5107.481c.12.277.208.552.329.8.038-.211.11-.482.181-.723" fill="none" stroke="#719017" stroke-linecap="round" stroke-linejoin="round" stroke-width="0.197" fill-rule="evenodd"/>
          <path id="Trazado_39549" data-name="Trazado 39549" d="M5694.543,5103.941a1.192,1.192,0,0,0,.306.464l.12-.816" fill="none" stroke="#719017" stroke-linecap="round" stroke-linejoin="round" stroke-width="0.197" fill-rule="evenodd"/>
          <path id="Trazado_39550" data-name="Trazado 39550" d="M5687.923,5103.736a4.646,4.646,0,0,1,.3.706c.168-.269.273-.569.442-.868" fill="none" stroke="#719017" stroke-linecap="round" stroke-linejoin="round" stroke-width="0.197" fill-rule="evenodd"/>
          <path id="Trazado_39551" data-name="Trazado 39551" d="M5687.894,5108.541c.154.186.212.4.367.586.038-.211.109-.452.146-.633" fill="none" stroke="#719017" stroke-linecap="round" stroke-linejoin="round" stroke-width="0.197" fill-rule="evenodd"/>
          <path id="Trazado_39552" data-name="Trazado 39552" d="M5690.842,5108.411a2.5,2.5,0,0,0,.429.679,6.82,6.82,0,0,0,.246-.752" fill="none" stroke="#719017" stroke-linecap="round" stroke-linejoin="round" stroke-width="0.197" fill-rule="evenodd"/>
          <path id="Trazado_39553" data-name="Trazado 39553" d="M5697.1,5107.873a8.8,8.8,0,0,0-.877.433c.273.029.561.016.812.019" fill="none" stroke="#719017" stroke-linecap="round" stroke-linejoin="round" stroke-width="0.197" fill-rule="evenodd"/>
          <path id="Trazado_39554" data-name="Trazado 39554" d="M5696.194,5109.842c-.29.053-.576-.015-.834.038a.8.8,0,0,0,.437.406" fill="none" stroke="#719017" stroke-linecap="round" stroke-linejoin="round" stroke-width="0.197" fill-rule="evenodd"/>
          <path id="Trazado_39555" data-name="Trazado 39555" d="M5686.173,5109.911a2.624,2.624,0,0,1,.839-.221,5.968,5.968,0,0,1-.4.566" fill="none" stroke="#719017" stroke-linecap="round" stroke-linejoin="round" stroke-width="0.197" fill-rule="evenodd"/>
          <path id="Trazado_39556" data-name="Trazado 39556" d="M5685.44,5103.276c.217.218.5.347.687.564a4.742,4.742,0,0,1-.643.1" fill="none" stroke="#719017" stroke-linecap="round" stroke-linejoin="round" stroke-width="0.197" fill-rule="evenodd"/>
          <path id="Trazado_39557" data-name="Trazado 39557" d="M5697.122,5103.312a6.034,6.034,0,0,0-.658.589,4.825,4.825,0,0,0,.639.047" fill="none" stroke="#719017" stroke-linecap="round" stroke-linejoin="round" stroke-width="0.197" fill-rule="evenodd"/>
          <path id="Trazado_39558" data-name="Trazado 39558" d="M5692.8,5105.413a3.558,3.558,0,0,0,.4.557,1.62,1.62,0,0,0,.18-.694" fill="none" stroke="#719017" stroke-linecap="round" stroke-linejoin="round" stroke-width="0.197" fill-rule="evenodd"/>
          <path id="Trazado_39559" data-name="Trazado 39559" d="M5692.938,5101.9a1.475,1.475,0,0,1,.209.522c.1-.271.239-.51.343-.78" fill="none" stroke="#719017" stroke-linecap="round" stroke-linejoin="round" stroke-width="0.197" fill-rule="evenodd"/>
          <path id="Trazado_39560" data-name="Trazado 39560" d="M5689.679,5101.719a7.189,7.189,0,0,1,.3.736,1.894,1.894,0,0,0,.464-.534" fill="none" stroke="#719017" stroke-linecap="round" stroke-linejoin="round" stroke-width="0.197" fill-rule="evenodd"/>
          <path id="Trazado_39561" data-name="Trazado 39561" d="M5687.091,5105.9a4.8,4.8,0,0,1,.3.554c.1-.209.14-.421.243-.63" fill="none" stroke="#719017" stroke-linecap="round" stroke-linejoin="round" stroke-width="0.197" fill-rule="evenodd"/>
          <path id="Trazado_39562" data-name="Trazado 39562" d="M5694.862,5106.135a2.491,2.491,0,0,0,.207.582c.134-.179.236-.389.369-.567" fill="none" stroke="#719017" stroke-linecap="round" stroke-linejoin="round" stroke-width="0.197" fill-rule="evenodd"/>
          <path id="Trazado_39563" data-name="Trazado 39563" d="M5693.347,5109.767a3.744,3.744,0,0,0,.11.64c.226-.085.361-.324.526-.5" fill="none" stroke="#719017" stroke-linecap="round" stroke-linejoin="round" stroke-width="0.197" fill-rule="evenodd"/>
          <path id="Trazado_39564" data-name="Trazado 39564" d="M5689.2,5110.294a6.592,6.592,0,0,0,.652.685,2.683,2.683,0,0,0,.117-.725" fill="none" stroke="#719017" stroke-linecap="round" stroke-linejoin="round" stroke-width="0.197" fill-rule="evenodd"/>
        </g>
      </g>
      <path id="Trazado_39565" data-name="Trazado 39565" d="M5686.42,5111.168l.691,8.116,8.615-.1.981-8.4Z" fill="#e59e10"/>
      <path id="Trazado_39566" data-name="Trazado 39566" d="M5696.664,5111.163l-9.106-.037-1.138.042.161,1.809c2.065-.234,6.965-.086,7.354,6.228l1.792-.021Z" fill="#d38c0f"/>
      <path id="Trazado_39567" data-name="Trazado 39567" d="M5685.252,5109.644l12.381-.094-.366,2.355-11.529.258Z" fill="#f2be3d"/>
    </g>
    <path id="Trazado_39568" data-name="Trazado 39568" d="M5762.9,5085.78l1.426-1.656s10.091,2.677,11.216,12.616c.9,7.95-2.265,21.881-21.251,21.827l-.116-3.907s13.759-4.231,13.374-11.713C5767.032,5092.919,5759.283,5093.053,5762.9,5085.78Z" fill="#f0f0f0"/>
    <path id="Trazado_39569" data-name="Trazado 39569" d="M5752.113,5115.533l.206-.215a.345.345,0,0,0-.01-.486l-1.542-1.717a.345.345,0,0,0-.486.01l-.444.463a.344.344,0,0,0,.01.486l1.78,1.469A.345.345,0,0,0,5752.113,5115.533Z" fill="#e08d56"/>
    <g id="Grupo_36315" data-name="Grupo 36315">
      <path id="Trazado_39570" data-name="Trazado 39570" d="M5749.384,5119.417c-.043.006-.647.126-.691.125-.421-.013-.556-.367-.575-.769l-.786-3.258a.746.746,0,0,1,0-.393.77.77,0,0,1,.7-.542l4.844.128a.84.84,0,0,1,.45.153,1.031,1.031,0,0,1,.453.969l.077,1.652c.122.929-.29,1.158-.714,1.178Z" fill="#f7af80"/>
    </g>
    <path id="Trazado_39571" data-name="Trazado 39571" d="M5754.7,5114.115l.263,4.934h-1.39l-.374-4.742Z" fill="#cacaca"/>
    <path id="Trazado_39572" data-name="Trazado 39572" d="M5661.82,5099.586h0a1.139,1.139,0,0,1,.286.744,1.645,1.645,0,0,1-.057.4,1.141,1.141,0,0,1-1.834.373c-.028-.057-.085-.115-.114-.172a1.013,1.013,0,0,1-.2-.6,1.094,1.094,0,0,1,1.117-1.088,1.146,1.146,0,0,1,.8.344Zm1.661.859h0a2.479,2.479,0,0,1-2.463,2.349,2.453,2.453,0,0,1-1.977-1,.6.6,0,0,1-.114-.172,2.43,2.43,0,0,1-.372-1.289,2.461,2.461,0,0,1,4.354-1.575,2.528,2.528,0,0,1,.572,1.575v.115Zm3.151.373h0v-.975a.727.727,0,0,0-.572-.687l-1.06-.2c-.058-.172-.144-.315-.2-.459l.6-.917a.662.662,0,0,0-.085-.888l-.659-.658a.692.692,0,0,0-.516-.2.792.792,0,0,0-.372.086l-.917.63a2.175,2.175,0,0,0-.458-.2l-.229-1.06a.674.674,0,0,0-.659-.573h-.974a.681.681,0,0,0-.688.573l-.2,1.06a2.206,2.206,0,0,0-.459.2l-.916-.63a.921.921,0,0,0-.4-.086.63.63,0,0,0-.487.2l-.687.658a.732.732,0,0,0-.086.888l.6.917c-.057.144-.114.287-.172.459l-1.089.2a.727.727,0,0,0-.572.687v.975a.726.726,0,0,0,.572.687l1.089.2c.058.172.115.314.172.458l-.6.916a.739.739,0,0,0,.086.888l.687.659a.657.657,0,0,0,.487.229.687.687,0,0,0,.4-.143l.916-.6a2.287,2.287,0,0,0,.459.2l.2,1.06a.682.682,0,0,0,.688.574h.974a.675.675,0,0,0,.659-.574l.229-1.06a2.254,2.254,0,0,0,.458-.2l.917.6a.6.6,0,0,0,.372.143.718.718,0,0,0,.516-.229l.659-.659a.666.666,0,0,0,.085-.888l-.6-.916c.057-.144.143-.286.2-.458l1.06-.2a.726.726,0,0,0,.572-.687Z" fill="#fff"/>
    <path id="Trazado_39573" data-name="Trazado 39573" d="M5663.223,5109.439h0a.6.6,0,0,1-.286.6.47.47,0,0,1-.43.057.217.217,0,0,1-.114-.028.652.652,0,0,1-.258-.23.625.625,0,0,1,.2-.8.587.587,0,0,1,.487-.058.669.669,0,0,1,.316.259c.057.057.057.142.085.2Zm.086,1.2h0a1.228,1.228,0,0,1-1.174.086c-.029,0-.057-.029-.086-.029a1.2,1.2,0,0,1-.516-.487,1.275,1.275,0,0,1,1.519-1.891,1.358,1.358,0,0,1,.716.544c0,.029.028.029.028.058a1.3,1.3,0,0,1-.487,1.719Zm2.091-1.06h0l-.544-.258a.65.65,0,0,0-.028-.229l.429-.4a.357.357,0,0,0,.086-.458l-.286-.43a.339.339,0,0,0-.43-.172l-.544.2a1.288,1.288,0,0,1-.2-.171l.029-.574a.37.37,0,0,0-.315-.372l-.487-.143a.43.43,0,0,0-.258.057c-.086.029-.115.086-.172.172l-.229.515a.862.862,0,0,0-.258.058l-.4-.43a.359.359,0,0,0-.459-.086l-.43.259a.371.371,0,0,0-.171.458l.2.544c-.057.058-.115.143-.172.2l-.573-.027a.5.5,0,0,0-.2.057.291.291,0,0,0-.172.228l-.115.487a.351.351,0,0,0,.2.429l.515.23c0,.086.029.172.029.286l-.43.374a.387.387,0,0,0-.057.457l.257.458a.4.4,0,0,0,.459.144l.544-.2c.057.057.143.115.2.172l-.029.573a.371.371,0,0,0,.287.372l.487.144a.467.467,0,0,0,.286-.058.293.293,0,0,0,.143-.172l.258-.515c.086,0,.172-.029.258-.029l.372.43a.442.442,0,0,0,.488.057l.429-.258a.366.366,0,0,0,.143-.429l-.172-.545a.989.989,0,0,1,.143-.228l.574.028a.54.54,0,0,0,.229-.057c.057-.058.142-.115.142-.229l.144-.488a.424.424,0,0,0-.2-.429Z" fill="#fff"/>
    <path id="Trazado_39574" data-name="Trazado 39574" d="M5671.073,5105.744h0a.907.907,0,0,1-.373.8.821.821,0,0,1-.63.085c-.029-.028-.087-.028-.114-.057a.668.668,0,0,1-.345-.286.793.793,0,0,1,.258-1.09.821.821,0,0,1,.631-.084.789.789,0,0,1,.458.343.868.868,0,0,1,.115.286Zm.115,1.633h0a1.635,1.635,0,0,1-1.577.115.151.151,0,0,1-.114-.057,1.83,1.83,0,0,1-.745-.66,1.81,1.81,0,0,1,.63-2.434,1.759,1.759,0,0,1,1.461-.144,1.727,1.727,0,0,1,.974.773.105.105,0,0,0,.029.087,1.765,1.765,0,0,1-.658,2.32Zm2.835-1.431-.716-.345c-.03-.114-.03-.229-.057-.344l.572-.544a.487.487,0,0,0,.115-.63l-.372-.6a.493.493,0,0,0-.6-.2l-.745.258a2.45,2.45,0,0,0-.286-.2l.028-.8a.494.494,0,0,0-.372-.516l-.659-.142a.933.933,0,0,0-.4.027.455.455,0,0,0-.172.23l-.343.716a1.518,1.518,0,0,0-.345.057l-.543-.572a.488.488,0,0,0-.631-.115l-.6.372a.493.493,0,0,0-.2.6l.259.745a1.452,1.452,0,0,0-.2.257l-.8-.028a.4.4,0,0,0-.259.086.41.41,0,0,0-.257.315l-.143.659a.483.483,0,0,0,.257.572l.717.344a1.452,1.452,0,0,0,.057.345l-.573.516a.524.524,0,0,0-.115.658l.373.573a.505.505,0,0,0,.6.229l.745-.259a1.6,1.6,0,0,1,.258.2l-.029.8a.464.464,0,0,0,.4.488l.659.171a.549.549,0,0,0,.373-.057c.085-.057.172-.114.2-.2l.345-.746a1.4,1.4,0,0,0,.343-.028l.516.573a.518.518,0,0,0,.659.085l.573-.343a.5.5,0,0,0,.229-.6l-.258-.745c.058-.086.114-.172.2-.287l.8.029a.289.289,0,0,0,.257-.057.509.509,0,0,0,.229-.315l.172-.659a.5.5,0,0,0-.257-.572Z" fill="#fff"/>
    <rect id="Rectángulo_4226" data-name="Rectángulo 4226" width="176" height="176" transform="translate(5626.928 5028.281)" fill="none"/>
  </g>
</svg>
