<svg id="Grupo_40297" data-name="Grupo 40297" xmlns="http://www.w3.org/2000/svg" width="32" height="32" viewBox="0 0 32 32">
  <circle id="Elipse_1441" data-name="Elipse 1441" cx="16" cy="16" r="16" fill="#20002e"/>
  <g id="Grupo_40260" data-name="Grupo 40260" transform="translate(-45 -46)">
    <path id="Trazado_33894" data-name="Trazado 33894" d="M1388.809,99.722c0,.009,0,.025.005.044a.362.362,0,0,0,.206.308.481.481,0,0,0,.433-.095h0l.031-.021.007,0c.076-.051.162-.1.177-.111a22.317,22.317,0,0,1,3.574-1.459c3.11-1.054,4.16-2.666,4.16-6.388a.524.524,0,0,0-.007-.067.359.359,0,0,0-.2-.288c-.01,0-.02-.006-.029-.009s-.012-.006-.019-.008h-.008a.343.343,0,0,0-.3.065,16.467,16.467,0,0,1-3.862,1.635c-3.11,1.054-4.16,2.666-4.16,6.388v.008h0Z" transform="translate(-1335.274 -41.311)" fill="#b42eed"/>
    <path id="Trazado_33895" data-name="Trazado 33895" d="M1386.857,123.279a.844.844,0,0,0,.01.094.772.772,0,0,0,.439.657,1.027,1.027,0,0,0,.925-.2h0l.066-.045.014-.01c.162-.109.345-.219.377-.238a47.593,47.593,0,0,1,7.626-3.113c6.637-2.248,8.877-5.688,8.877-13.63a1.123,1.123,0,0,0-.015-.143.765.765,0,0,0-.434-.614c-.022-.009-.041-.013-.062-.02s-.026-.013-.041-.018a.129.129,0,0,0-.017,0,.731.731,0,0,0-.645.139c-.241.177-2.015,1.379-8.241,3.488-6.637,2.249-8.877,5.688-8.877,13.63v.018h0S1386.856,123.277,1386.857,123.279Z" transform="translate(-1333.855 -51.782)" fill="#b42eed"/>
  </g>
</svg>
