<svg id="Grupo_40298" data-name="Grupo 40298" xmlns="http://www.w3.org/2000/svg" width="16" height="16" viewBox="0 0 16 16">
  <circle id="Elipse_1440" data-name="Elipse 1440" cx="8" cy="8" r="8" fill="#20002e"/>
  <g id="Grupo_40263" data-name="Grupo 40263" transform="translate(-49 -48)">
    <path id="Trazado_33894" data-name="Trazado 33894" d="M1388.809,95.667s0,.012,0,.022a.181.181,0,0,0,.1.154.24.24,0,0,0,.217-.047h0l.015-.011,0,0c.038-.025.081-.051.088-.056a11.137,11.137,0,0,1,1.787-.73c1.555-.527,2.08-1.333,2.08-3.194a.286.286,0,0,0,0-.034.179.179,0,0,0-.1-.144l-.015,0-.01,0h0a.171.171,0,0,0-.151.033,8.238,8.238,0,0,1-1.931.817c-1.555.527-2.08,1.333-2.08,3.194v0h0Z" transform="translate(-1335.541 -41.311)" fill="#b42eed"/>
    <path id="Trazado_33895" data-name="Trazado 33895" d="M1386.856,114.626a.434.434,0,0,0,.005.047.386.386,0,0,0,.219.329.514.514,0,0,0,.462-.1h0l.033-.022.007,0c.081-.054.173-.109.189-.119a23.788,23.788,0,0,1,3.813-1.557c3.318-1.124,4.438-2.844,4.438-6.815a.613.613,0,0,0-.008-.072.383.383,0,0,0-.217-.307c-.011,0-.021-.006-.031-.01s-.013-.007-.02-.009h-.009a.366.366,0,0,0-.323.069,17.568,17.568,0,0,1-4.12,1.744c-3.318,1.124-4.438,2.844-4.438,6.815v.009h0S1386.856,114.625,1386.856,114.626Z" transform="translate(-1333.855 -53.727)" fill="#b42eed"/>
  </g>
</svg>
