<svg xmlns="http://www.w3.org/2000/svg" width="64" height="64" viewBox="0 0 64 64"><rect width="64" height="64" fill="#fff"/><g transform="translate(-41 -42)"><path d="M1388.81,109.307c0,.021,0,.054.011.1a.79.79,0,0,0,.448.672,1.05,1.05,0,0,0,.946-.206h0l.067-.046.014-.01c.165-.111.353-.223.385-.243a48.7,48.7,0,0,1,7.8-3.183c6.786-2.3,9.077-5.816,9.077-13.938a1.141,1.141,0,0,0-.016-.147.782.782,0,0,0-.443-.628c-.023-.009-.043-.013-.064-.02s-.026-.014-.042-.018a.1.1,0,0,0-.018,0,.747.747,0,0,0-.66.142c-.246.18-2.06,1.409-8.427,3.566-6.786,2.3-9.077,5.816-9.077,13.938v.018h0Z" transform="translate(-1334.641 -41.311)" fill="#e6b8f9"/><path d="M1386.858,143.731a1.89,1.89,0,0,0,.022.2,1.685,1.685,0,0,0,.957,1.434,2.241,2.241,0,0,0,2.018-.44v0l.143-.1.03-.021c.353-.237.754-.477.823-.519,2.071-1.16,6.808-3.462,16.638-6.792,14.48-4.906,19.367-12.41,19.367-29.738a2.447,2.447,0,0,0-.033-.313,1.669,1.669,0,0,0-.948-1.341c-.047-.021-.09-.028-.136-.044s-.056-.029-.089-.038a.279.279,0,0,0-.038,0,1.6,1.6,0,0,0-1.407.3c-.526.385-4.4,3.008-17.981,7.61-14.48,4.906-19.368,12.41-19.368,29.738l0,.039h0C1386.856,143.722,1386.857,143.726,1386.858,143.731Z" transform="translate(-1333.855 -47.184)" fill="#e6b8f9"/></g><g transform="translate(-40 -41)"><path d="M1388.81,109.307c0,.021,0,.054.011.1a.79.79,0,0,0,.448.672,1.05,1.05,0,0,0,.946-.206h0l.067-.046.014-.01c.165-.111.353-.223.385-.243a48.7,48.7,0,0,1,7.8-3.183c6.786-2.3,9.077-5.816,9.077-13.938a1.141,1.141,0,0,0-.016-.147.782.782,0,0,0-.443-.628c-.023-.009-.043-.013-.064-.02s-.026-.014-.042-.018a.1.1,0,0,0-.018,0,.747.747,0,0,0-.66.142c-.246.18-2.06,1.409-8.427,3.566-6.786,2.3-9.077,5.816-9.077,13.938v.018h0Z" transform="translate(-1334.641 -41.311)" fill="#20002e"/><path d="M1386.858,143.731a1.89,1.89,0,0,0,.022.2,1.685,1.685,0,0,0,.957,1.434,2.241,2.241,0,0,0,2.018-.44v0l.143-.1.03-.021c.353-.237.754-.477.823-.519,2.071-1.16,6.808-3.462,16.638-6.792,14.48-4.906,19.367-12.41,19.367-29.738a2.447,2.447,0,0,0-.033-.313,1.669,1.669,0,0,0-.948-1.341c-.047-.021-.09-.028-.136-.044s-.056-.029-.089-.038a.279.279,0,0,0-.038,0,1.6,1.6,0,0,0-1.407.3c-.526.385-4.4,3.008-17.981,7.61-14.48,4.906-19.368,12.41-19.368,29.738l0,.039h0C1386.856,143.722,1386.857,143.726,1386.858,143.731Z" transform="translate(-1333.855 -47.184)" fill="#20002e"/></g><g transform="translate(-41 -42)"><path d="M1388.81,109.307c0,.021,0,.054.011.1a.79.79,0,0,0,.448.672,1.05,1.05,0,0,0,.946-.206h0l.067-.046.014-.01c.165-.111.353-.223.385-.243a48.7,48.7,0,0,1,7.8-3.183c6.786-2.3,9.077-5.816,9.077-13.938a1.141,1.141,0,0,0-.016-.147.782.782,0,0,0-.443-.628c-.023-.009-.043-.013-.064-.02s-.026-.014-.042-.018a.1.1,0,0,0-.018,0,.747.747,0,0,0-.66.142c-.246.18-2.06,1.409-8.427,3.566-6.786,2.3-9.077,5.816-9.077,13.938v.018h0Z" transform="translate(-1334.641 -41.311)" fill="#b42eed"/><path d="M1386.858,143.731a1.89,1.89,0,0,0,.022.2,1.685,1.685,0,0,0,.957,1.434,2.241,2.241,0,0,0,2.018-.44v0l.143-.1.03-.021c.353-.237.754-.477.823-.519,2.071-1.16,6.808-3.462,16.638-6.792,14.48-4.906,19.367-12.41,19.367-29.738a2.447,2.447,0,0,0-.033-.313,1.669,1.669,0,0,0-.948-1.341c-.047-.021-.09-.028-.136-.044s-.056-.029-.089-.038a.279.279,0,0,0-.038,0,1.6,1.6,0,0,0-1.407.3c-.526.385-4.4,3.008-17.981,7.61-14.48,4.906-19.368,12.41-19.368,29.738l0,.039h0C1386.856,143.722,1386.857,143.726,1386.858,143.731Z" transform="translate(-1333.855 -47.184)" fill="#b42eed"/></g></svg>