<svg xmlns="http://www.w3.org/2000/svg" width="128" height="128" viewBox="0 0 128 128"><rect width="128" height="128" fill="#fff"/><g transform="translate(-29 -34)"><path d="M1388.811,127c0,.041.008.108.022.193a1.579,1.579,0,0,0,.9,1.344,2.1,2.1,0,0,0,1.891-.413v0l.133-.092.029-.02c.331-.221.706-.447.771-.486,1.943-1.088,6.382-3.244,15.6-6.366,13.572-4.6,18.154-11.632,18.154-27.875a2.282,2.282,0,0,0-.032-.293,1.565,1.565,0,0,0-.887-1.257c-.045-.019-.085-.026-.128-.04s-.052-.027-.084-.037a.19.19,0,0,0-.036,0,1.494,1.494,0,0,0-1.32.284c-.492.361-4.12,2.819-16.854,7.133-13.572,4.6-18.153,11.632-18.153,27.875v.037h0Z" transform="translate(-1333.474 -41.311)" fill="#e6b8f9"/><path d="M1386.86,181.489a3.78,3.78,0,0,0,.044.409,3.37,3.37,0,0,0,1.914,2.868c1.3.641,2.988-.2,4.036-.88l0,0c.09-.064.187-.13.286-.2l.061-.043c.707-.474,1.507-.954,1.646-1.038,4.142-2.32,13.616-6.923,33.277-13.584,28.961-9.812,38.734-24.819,38.734-59.477a4.895,4.895,0,0,0-.067-.625,3.339,3.339,0,0,0-1.9-2.681c-.094-.041-.181-.056-.272-.088-.064-.022-.111-.058-.178-.077a.558.558,0,0,0-.076,0,3.19,3.19,0,0,0-2.815.605c-1.052.771-8.792,6.015-35.962,15.22-28.96,9.813-38.735,24.82-38.735,59.477l0,.078h0C1386.856,181.47,1386.859,181.478,1386.86,181.489Z" transform="translate(-1333.855 -38.694)" fill="#e6b8f9"/></g><g transform="translate(-28 -33)"><path d="M1388.811,126.99c0,.041.008.108.022.193a1.582,1.582,0,0,0,.909,1.344,2.15,2.15,0,0,0,1.917-.412v0l.135-.092.029-.02c.335-.221.715-.447.781-.486,1.969-1.087,6.468-3.243,15.808-6.364,13.755-4.6,18.4-11.628,18.4-27.865a2.248,2.248,0,0,0-.033-.293,1.569,1.569,0,0,0-.9-1.256c-.046-.019-.086-.026-.13-.04s-.053-.027-.085-.037a.194.194,0,0,0-.037,0,1.529,1.529,0,0,0-1.337.284c-.5.36-4.175,2.817-17.081,7.13-13.755,4.6-18.4,11.628-18.4,27.865l0,.037h0Z" transform="translate(-1333.474 -41.311)" fill="#20002e"/><path d="M1386.86,181.489a3.78,3.78,0,0,0,.044.409,3.37,3.37,0,0,0,1.914,2.868c1.3.641,2.988-.2,4.036-.88l0,0c.09-.064.187-.13.286-.2l.061-.043c.707-.474,1.507-.954,1.646-1.038,4.142-2.32,13.616-6.923,33.277-13.584,28.961-9.812,38.734-24.819,38.734-59.477a4.895,4.895,0,0,0-.067-.625,3.339,3.339,0,0,0-1.9-2.681c-.094-.041-.181-.056-.272-.088-.064-.022-.111-.058-.178-.077a.558.558,0,0,0-.076,0,3.19,3.19,0,0,0-2.815.605c-1.052.771-8.792,6.015-35.962,15.22-28.96,9.813-38.735,24.82-38.735,59.477l0,.078h0C1386.856,181.47,1386.859,181.478,1386.86,181.489Z" transform="translate(-1333.855 -38.694)" fill="#20002e"/></g><g transform="translate(-29 -34)"><path d="M1388.811,126.99c0,.041.008.108.022.193a1.582,1.582,0,0,0,.909,1.344,2.15,2.15,0,0,0,1.917-.412v0l.135-.092.029-.02c.335-.221.715-.447.781-.486,1.969-1.087,6.468-3.243,15.808-6.364,13.755-4.6,18.4-11.628,18.4-27.865a2.248,2.248,0,0,0-.033-.293,1.569,1.569,0,0,0-.9-1.256c-.046-.019-.086-.026-.13-.04s-.053-.027-.085-.037a.194.194,0,0,0-.037,0,1.529,1.529,0,0,0-1.337.284c-.5.36-4.175,2.817-17.081,7.13-13.755,4.6-18.4,11.628-18.4,27.865l0,.037h0Z" transform="translate(-1333.474 -41.311)" fill="#b42eed"/><path d="M1386.86,181.489a3.78,3.78,0,0,0,.044.409,3.37,3.37,0,0,0,1.914,2.868c1.3.641,2.988-.2,4.036-.88l0,0c.09-.064.187-.13.286-.2l.061-.043c.707-.474,1.507-.954,1.646-1.038,4.142-2.32,13.616-6.923,33.277-13.584,28.961-9.812,38.734-24.819,38.734-59.477a4.895,4.895,0,0,0-.067-.625,3.339,3.339,0,0,0-1.9-2.681c-.094-.041-.181-.056-.272-.088-.064-.022-.111-.058-.178-.077a.558.558,0,0,0-.076,0,3.19,3.19,0,0,0-2.815.605c-1.052.771-8.792,6.015-35.962,15.22-28.96,9.813-38.735,24.82-38.735,59.477l0,.078h0C1386.856,181.47,1386.859,181.478,1386.86,181.489Z" transform="translate(-1333.855 -38.694)" fill="#b42eed"/></g></svg>