<svg xmlns="http://www.w3.org/2000/svg" xmlns:xlink="http://www.w3.org/1999/xlink" width="360" height="288" viewBox="0 0 360 288">
  <defs>
    <clipPath id="clip-path">
      <rect id="Rectángulo_2137" data-name="Rectángulo 2137" width="360" height="288" transform="translate(0 24)" fill="#fff" stroke="#707070" stroke-width="1"/>
    </clipPath>
    <linearGradient id="linear-gradient" x1="0.5" y1="1" x2="0.5" gradientUnits="objectBoundingBox">
      <stop offset="0" stop-color="#fff" stop-opacity="0"/>
      <stop offset="0.265" stop-color="#fff" stop-opacity="0.278"/>
      <stop offset="0.776" stop-color="#fff" stop-opacity="0.792"/>
      <stop offset="1" stop-color="#fff"/>
    </linearGradient>
    <linearGradient id="linear-gradient-2" x1="0.5" y1="1" x2="0.5" gradientUnits="objectBoundingBox">
      <stop offset="0" stop-color="#fff" stop-opacity="0"/>
      <stop offset="1" stop-color="#fff"/>
    </linearGradient>
    <linearGradient id="linear-gradient-4" x1="0.519" x2="0.519" y2="0" xlink:href="#linear-gradient-2"/>
    <clipPath id="clip-path-2">
      <rect id="Rectángulo_2104" data-name="Rectángulo 2104" width="456.975" height="302.809" fill="none"/>
    </clipPath>
    <linearGradient id="linear-gradient-5" x1="0.063" y1="1.202" x2="1.068" y2="1.202" gradientUnits="objectBoundingBox">
      <stop offset="0" stop-color="#fff" stop-opacity="0"/>
      <stop offset="0.091" stop-color="#fff" stop-opacity="0.024"/>
      <stop offset="0.217" stop-color="#fff" stop-opacity="0.094"/>
      <stop offset="0.363" stop-color="#fff" stop-opacity="0.208"/>
      <stop offset="0.524" stop-color="#fff" stop-opacity="0.369"/>
      <stop offset="0.697" stop-color="#fff" stop-opacity="0.573"/>
      <stop offset="0.878" stop-color="#fff" stop-opacity="0.82"/>
      <stop offset="1" stop-color="#fff"/>
    </linearGradient>
    <linearGradient id="linear-gradient-6" x1="0.075" y1="1.226" x2="1.082" y2="1.226" xlink:href="#linear-gradient-5"/>
    <linearGradient id="linear-gradient-7" x1="0.063" y1="1.212" x2="1.068" y2="1.212" xlink:href="#linear-gradient-5"/>
    <linearGradient id="linear-gradient-8" x1="0.075" y1="1.236" x2="1.082" y2="1.236" xlink:href="#linear-gradient-5"/>
  </defs>
  <g id="Enmascarar_grupo_3" data-name="Enmascarar grupo 3" transform="translate(0 -24)" clip-path="url(#clip-path)">
    <g id="Grupo_3794" data-name="Grupo 3794" transform="translate(-68.905 45.259)">
      <g id="Capa_1" data-name="Capa 1" transform="translate(-26.488 -30.63)">
        <g id="FONDO" transform="translate(0 0)">
          <path id="Trazado_7994" data-name="Trazado 7994" d="M527.567,265.708H-15.847L-12.264-9.069H527.567Z" transform="translate(18.831 15.114)" fill="#533e60"/>
          <rect id="Rectángulo_2089" data-name="Rectángulo 2089" width="548.41" height="258.896" transform="translate(551.394 258.896) rotate(180)" fill="#faf3ff"/>
          <path id="Trazado_7995" data-name="Trazado 7995" d="M806.265-12.4h89.1L799.711,296.876H722.329Z" transform="translate(-512.377 17.512)" opacity="0.79" fill="url(#linear-gradient)"/>
          <path id="Trazado_7996" data-name="Trazado 7996" d="M583.663-12.4H621l-84.84,309.277H502.946Z" transform="translate(-354.504 17.512)" opacity="0.48" fill="url(#linear-gradient-2)"/>
          <path id="Trazado_7997" data-name="Trazado 7997" d="M1577.16-12.4H1614.5l-84.84,309.277h-33.212Z" transform="translate(-1069.446 17.512)" opacity="0.48" fill="url(#linear-gradient-2)"/>
          <g id="Grupo_3701" data-name="Grupo 3701" transform="translate(0 204.906)">
            <path id="Trazado_7998" data-name="Trazado 7998" d="M519.909,765.649H-25L-26.488,859.8l546.368,1.784Z" transform="translate(26.488 -747.296)" fill="#d58dff"/>
            <path id="Trazado_7999" data-name="Trazado 7999" d="M151.37,704.427l-30.58,36.926,433.187,5.628L527.23,700.19" transform="translate(-79.496 -700.19)" fill="#d58dff"/>
          </g>
        </g>
        <g id="Grupo_3703" data-name="Grupo 3703" transform="translate(2.984 12.801)" opacity="0.5">
          <path id="Trazado_8000" data-name="Trazado 8000" d="M1411.362,364.978l9.336.907v2.96h-10.317Z" transform="translate(-1010.498 -266.859)" fill="#fff"/>
          <path id="Trazado_8001" data-name="Trazado 8001" d="M1424.193,381.969h7.964l.634,3.588-9.127-.538Z" transform="translate(-1020.055 -279.086)" fill="#dfa9ff"/>
          <rect id="Rectángulo_2090" data-name="Rectángulo 2090" width="8.633" height="3.05" transform="translate(411.196 98.936)" fill="#cab1d9"/>
          <path id="Trazado_8002" data-name="Trazado 8002" d="M1409.458,394.2l9.253.78.521,2.808H1409.1Z" transform="translate(-1009.574 -287.891)" fill="#cab1d9"/>
          <path id="Trazado_8003" data-name="Trazado 8003" d="M1447.74,396.562l.361,2.741h10.431v-2.937Z" transform="translate(-1037.382 -289.446)" fill="#bf52ff"/>
          <path id="Trazado_8004" data-name="Trazado 8004" d="M434.9,225.957l9.336.907v2.96H433.915Z" transform="translate(-307.812 -166.816)" fill="#fff"/>
          <path id="Trazado_8005" data-name="Trazado 8005" d="M447.726,242.948h7.964l.633,3.588L447.2,246Z" transform="translate(-317.369 -179.044)" fill="#dfa9ff"/>
          <rect id="Rectángulo_2091" data-name="Rectángulo 2091" width="8.633" height="3.05" transform="translate(137.416 59.958)" fill="#cab1d9"/>
          <path id="Trazado_8006" data-name="Trazado 8006" d="M432.991,255.183l9.253.78.521,2.808H432.631Z" transform="translate(-306.887 -187.848)" fill="#cab1d9"/>
          <path id="Trazado_8007" data-name="Trazado 8007" d="M471.273,257.54l.361,2.741h10.431v-2.937Z" transform="translate(-334.695 -189.403)" fill="#bf52ff"/>
          <path id="Trazado_8008" data-name="Trazado 8008" d="M1578.833,633.294l9.336.907v2.96h-10.316Z" transform="translate(-1131.014 -459.945)" fill="#fff"/>
          <path id="Trazado_8009" data-name="Trazado 8009" d="M1591.663,650.285h7.963l.634,3.588-9.127-.538Z" transform="translate(-1140.571 -472.172)" fill="#dfa9ff"/>
          <rect id="Rectángulo_2092" data-name="Rectángulo 2092" width="8.633" height="3.05" transform="translate(458.151 174.166)" fill="#cab1d9"/>
          <path id="Trazado_8010" data-name="Trazado 8010" d="M1576.928,662.52l9.253.78.521,2.808h-10.134Z" transform="translate(-1130.089 -480.977)" fill="#cab1d9"/>
          <path id="Trazado_8011" data-name="Trazado 8011" d="M1615.21,664.878l.361,2.74H1626v-2.937Z" transform="translate(-1157.897 -482.532)" fill="#bf52ff"/>
          <path id="Trazado_8012" data-name="Trazado 8012" d="M1261.84,125.287l.413,3.134h11.926v-3.358Z" transform="translate(-903.604 -94.211)" fill="#c955ff"/>
          <path id="Trazado_8013" data-name="Trazado 8013" d="M1232.557,140.223l.413,3.134H1244.9V140Z" transform="translate(-882.532 -104.959)" fill="#cab1d9"/>
          <path id="Trazado_8014" data-name="Trazado 8014" d="M238.662,422.134l11.929,1.159v3.782H237.41Z" transform="translate(-166.402 -307.99)" fill="#fff"/>
          <path id="Trazado_8015" data-name="Trazado 8015" d="M255.055,443.843h10.175l.809,4.584-11.661-.688Z" transform="translate(-178.613 -323.612)" fill="#dfa9ff"/>
          <rect id="Rectángulo_2093" data-name="Rectángulo 2093" width="11.03" height="3.896" transform="translate(85.46 115.188)" fill="#cab1d9"/>
          <path id="Trazado_8016" data-name="Trazado 8016" d="M-14.6,367.864l11.929,1.159v3.782H-15.847Z" transform="translate(15.847 -268.936)" fill="#fff"/>
          <path id="Trazado_8017" data-name="Trazado 8017" d="M1.8,389.573H11.972l.809,4.584L1.12,393.469Z" transform="translate(3.637 -284.558)" fill="#dfa9ff"/>
          <rect id="Rectángulo_2094" data-name="Rectángulo 2094" width="11.03" height="3.896" transform="translate(14.452 99.972)" fill="#cab1d9"/>
          <path id="Trazado_8018" data-name="Trazado 8018" d="M1570.571,43.7l10.57,1.027v3.351h-11.679Z" transform="translate(-1124.975 -35.659)" fill="#fff"/>
          <path id="Trazado_8019" data-name="Trazado 8019" d="M1585.1,62.933h9.015l.717,4.062-10.332-.609Z" transform="translate(-1135.794 -49.501)" fill="#dfa9ff"/>
          <rect id="Rectángulo_2095" data-name="Rectángulo 2095" width="9.774" height="3.452" transform="translate(457.292 8.964)" fill="#cab1d9"/>
          <path id="Trazado_8020" data-name="Trazado 8020" d="M1261.84,154.983l.413,3.134h11.926v-3.358Z" transform="translate(-903.604 -115.581)" fill="#fff"/>
          <path id="Trazado_8021" data-name="Trazado 8021" d="M984.316,16.123l.413,3.134h11.926V15.9Z" transform="translate(-703.892 -15.654)" fill="#c955ff"/>
          <path id="Trazado_8022" data-name="Trazado 8022" d="M955.033,31.059l.413,3.134h11.926V30.834Z" transform="translate(-682.819 -26.402)" fill="#cab1d9"/>
          <path id="Trazado_8023" data-name="Trazado 8023" d="M984.316,45.819l.413,3.134h11.926V45.595Z" transform="translate(-703.892 -37.024)" fill="#fff"/>
          <path id="Trazado_8024" data-name="Trazado 8024" d="M1889.794,689.487l.413,3.134h11.927v-3.358Z" transform="translate(-1355.493 -500.221)" fill="#c955ff"/>
          <path id="Trazado_8025" data-name="Trazado 8025" d="M1860.511,704.423l.413,3.134h11.926V704.2Z" transform="translate(-1334.421 -510.969)" fill="#cab1d9"/>
          <path id="Trazado_8026" data-name="Trazado 8026" d="M1889.794,719.183l.413,3.133h11.927v-3.358Z" transform="translate(-1355.493 -521.591)" fill="#fff"/>
          <g id="Grupo_3702" data-name="Grupo 3702" transform="translate(34.64 16.062)">
            <path id="Trazado_8027" data-name="Trazado 8027" d="M110.139,72.315l10.058.977v3.189H109.083Z" transform="translate(-108.695 -72.315)" fill="#fff"/>
            <path id="Trazado_8028" data-name="Trazado 8028" d="M123.961,90.619h8.579l.682,3.865-9.832-.58Z" transform="translate(-118.991 -85.487)" fill="#dfa9ff"/>
            <rect id="Rectángulo_2096" data-name="Rectángulo 2096" width="9.301" height="3.285" transform="translate(12.574 0.881)" fill="#cab1d9"/>
            <path id="Trazado_8029" data-name="Trazado 8029" d="M108.088,103.8l9.968.84.561,3.025H107.7Z" transform="translate(-107.7 -94.972)" fill="#cab1d9"/>
            <path id="Trazado_8030" data-name="Trazado 8030" d="M149.329,106.34l.389,2.952h11.237v-3.164Z" transform="translate(-137.657 -96.648)" fill="#a77dbf"/>
          </g>
          <path id="Trazado_8031" data-name="Trazado 8031" d="M732.238,168.977l11.929,1.159v3.782H730.986Z" transform="translate(-521.59 -125.813)" fill="#fff"/>
          <path id="Trazado_8032" data-name="Trazado 8032" d="M748.631,190.686h10.175l.809,4.584-11.661-.688Z" transform="translate(-533.801 -141.435)" fill="#dfa9ff"/>
          <rect id="Rectángulo_2097" data-name="Rectángulo 2097" width="11.03" height="3.896" transform="translate(223.848 44.209)" fill="#cab1d9"/>
          <path id="Trazado_8033" data-name="Trazado 8033" d="M513.825,15.027l11.928,1.159v3.782H512.573Z" transform="translate(-364.415 -15.027)" fill="#fff"/>
          <path id="Trazado_8034" data-name="Trazado 8034" d="M530.217,36.735h10.175l.809,4.584-11.661-.688Z" transform="translate(-376.625 -30.649)" fill="#dfa9ff"/>
          <rect id="Rectángulo_2098" data-name="Rectángulo 2098" width="11.03" height="3.896" transform="translate(162.61 1.044)" fill="#cab1d9"/>
          <path id="Trazado_8035" data-name="Trazado 8035" d="M102.445,684.82l11.928,1.159v3.782H101.192Z" transform="translate(-68.377 -497.025)" fill="#fff"/>
          <path id="Trazado_8036" data-name="Trazado 8036" d="M118.837,706.529h10.175l.809,4.584-11.661-.688Z" transform="translate(-80.587 -512.647)" fill="#dfa9ff"/>
          <rect id="Rectángulo_2099" data-name="Rectángulo 2099" width="11.03" height="3.896" transform="translate(47.268 188.84)" fill="#cab1d9"/>
          <path id="Trazado_8037" data-name="Trazado 8037" d="M1125.6,266.132l8.664.842v2.747h-9.573Z" transform="translate(-804.911 -195.727)" fill="#fff"/>
          <path id="Trazado_8038" data-name="Trazado 8038" d="M1120.334,299.074h7.39l.588,3.329-8.469-.5Z" transform="translate(-801.42 -219.433)" fill="#dfa9ff"/>
          <rect id="Rectángulo_2100" data-name="Rectángulo 2100" width="8.012" height="2.83" transform="translate(325.465 75.657)" fill="#cab1d9"/>
          <path id="Trazado_8039" data-name="Trazado 8039" d="M1849.138,263.689l.413,3.133h11.926v-3.358Z" transform="translate(-1326.236 -193.808)" fill="#c955ff"/>
          <path id="Trazado_8040" data-name="Trazado 8040" d="M1819.855,278.625l.413,3.134h11.926V278.4Z" transform="translate(-1305.164 -204.556)" fill="#cab1d9"/>
          <path id="Trazado_8041" data-name="Trazado 8041" d="M1849.138,293.385l.413,3.134h11.926v-3.358Z" transform="translate(-1326.236 -215.178)" fill="#fff"/>
          <path id="Trazado_8042" data-name="Trazado 8042" d="M1672.9,374.533l8.664.842v2.747h-9.573Z" transform="translate(-1198.758 -273.736)" fill="#fff"/>
          <path id="Trazado_8043" data-name="Trazado 8043" d="M1667.632,407.476h7.39l.588,3.329-8.469-.5Z" transform="translate(-1195.267 -297.442)" fill="#dfa9ff"/>
          <rect id="Rectángulo_2101" data-name="Rectángulo 2101" width="8.012" height="2.83" transform="translate(478.915 106.051)" fill="#cab1d9"/>
          <path id="Trazado_8044" data-name="Trazado 8044" d="M1816.5,42.321l.413,3.134h11.926V42.1Z" transform="translate(-1302.75 -34.507)" fill="#c955ff"/>
          <path id="Trazado_8045" data-name="Trazado 8045" d="M1787.219,57.257l.413,3.134h11.926V57.033Z" transform="translate(-1281.678 -45.255)" fill="#cab1d9"/>
          <path id="Trazado_8046" data-name="Trazado 8046" d="M1816.5,72.018l.413,3.134h11.926V71.793Z" transform="translate(-1302.75 -55.877)" fill="#fff"/>
        </g>
      </g>
      <g id="ESCENA5" transform="translate(-8.668 -22.042)">
        <g id="Grupo_3731" data-name="Grupo 3731" transform="translate(185.925 53.451)">
          <path id="Trazado_8047" data-name="Trazado 8047" d="M883.7,359.952l2.8-4.643a28.2,28.2,0,0,0-9.168-2.747c-5.1-.567-32.344-.427-37.363,4.995s3.51,61.3,3.51,61.3l.377,3.417Z" transform="translate(-799.639 -307.001)" fill="#1b2b3f"/>
          <path id="Trazado_8048" data-name="Trazado 8048" d="M840.208,373.044l-2.929-3.8s-3.224,1.623-3.342,7.908,2.378,55.043,2.378,55.043l4.336,2.239,12.738-50.165Z" transform="translate(-796.434 -319.168)" fill="#364f6b"/>
          <path id="Trazado_8049" data-name="Trazado 8049" d="M842.852,262.975l-3.1-2.559,43.01-2.575,2.553,2.678Z" transform="translate(-800.62 -238.998)" fill="#1b2b3f"/>
          <path id="Trazado_8050" data-name="Trazado 8050" d="M846.082,285.008l-3.722,1.428-1.9-1.3s1.792-3.607-.712-18.114l6.245,2.377Z" transform="translate(-800.62 -245.608)" fill="#364f6b"/>
          <path id="Trazado_8051" data-name="Trazado 8051" d="M876.988,322.1l-.284,14.3,4.1.193-.658-15.926Z" transform="translate(-827.213 -284.205)" fill="#1b2b3f"/>
          <path id="Trazado_8052" data-name="Trazado 8052" d="M976.3,315.443l-1.414,15.929,4.349-.238.05-16.937Z" transform="translate(-897.87 -279.553)" fill="#1b2b3f"/>
          <path id="Trazado_8053" data-name="Trazado 8053" d="M849.249,268.353s3.953,13.39-.187,18.346l44.955-.279s1.916-10.1-2-19.03Z" transform="translate(-807.322 -245.871)" fill="#163d5b"/>
          <path id="Trazado_8054" data-name="Trazado 8054" d="M899.27,370.777s0-12.063-12.331-12.426c-10.926-.322-40.674-.542-40.742,9.032-.049,6.849,3.278,59.135,3.278,59.135l47.52-.459Z" transform="translate(-805.259 -311.25)" fill="#163d5b"/>
          <g id="Grupo_3726" data-name="Grupo 3726" transform="translate(42.588)">
            <g id="Grupo_3725" data-name="Grupo 3725">
              <path id="Trazado_8055" data-name="Trazado 8055" d="M862.516,236.58l-2.4-2.044s-4.445,2.548-3.234,7.294,4.214,13.281,4.214,13.281l1.976.614,7.535-22.1Z" transform="translate(-855.385 -221.572)" fill="#231f20"/>
              <g id="Grupo_3704" data-name="Grupo 3704" transform="translate(2.951 29.163)">
                <circle id="Elipse_527" data-name="Elipse 527" cx="2.758" cy="2.758" r="2.758" fill="#eaa271"/>
                <circle id="Elipse_528" data-name="Elipse 528" cx="1.618" cy="1.618" r="1.618" transform="translate(1.14 1.14)" fill="#d38c5b"/>
              </g>
              <path id="Trazado_8056" data-name="Trazado 8056" d="M984.816,235.318l.722,1.98s-1.989,10.6.635,14.112h1.908l1.738-12.732S986.43,234.174,984.816,235.318Z" transform="translate(-947.601 -222.656)" fill="#231f20"/>
              <g id="Grupo_3705" data-name="Grupo 3705" transform="translate(36.701 26.405)">
                <circle id="Elipse_529" data-name="Elipse 529" cx="2.758" cy="2.758" r="2.758" fill="#eaa271"/>
                <circle id="Elipse_530" data-name="Elipse 530" cx="1.618" cy="1.618" r="1.618" transform="translate(1.14 1.14)" fill="#d38c5b"/>
              </g>
              <path id="Trazado_8057" data-name="Trazado 8057" d="M904.948,245.32l-.634-25.742s-1.762-10.972-18.733-10.147-15.731,15.643-15.731,15.643l.085.017,1.571,21.724a7.243,7.243,0,0,0,3.12,6.353l6.056,4.681c8.626,6.521,14.683.836,14.683.836l3.941-2.465A11.582,11.582,0,0,0,904.948,245.32Z" transform="translate(-864.854 -204.13)" fill="#f9b180"/>
              <path id="Trazado_8058" data-name="Trazado 8058" d="M928.253,385.156,926.471,397.3h-9.492l-1.022-12.441Z" transform="translate(-898.049 -330.403)" fill="#f9b180"/>
              <path id="Trazado_8059" data-name="Trazado 8059" d="M927.663,389.18s-6.893,3.307-11.337.162l-.368-4.484,12.3.3Z" transform="translate(-898.049 -330.403)" fill="#e28f56"/>
              <path id="Trazado_8060" data-name="Trazado 8060" d="M947.875,676.3s-1.423-17.364,5.685-17.841c5.88-.395,6.99,2.808,7.907,12.018.889,8.935,1.75,53.188-5.963,53.664C950.543,724.446,949.248,719.69,947.875,676.3Z" transform="translate(-920.934 -527.267)" fill="#f9b180"/>
              <path id="Trazado_8061" data-name="Trazado 8061" d="M883.742,673.977s-1.085-17.388,6.031-17.727c5.886-.28,6.934,2.944,7.671,12.169.715,8.951.717,53.211-7,53.539C885.473,722.168,884.271,717.388,883.742,673.977Z" transform="translate(-874.823 -525.69)" fill="#f9b180"/>
              <path id="Trazado_8062" data-name="Trazado 8062" d="M879.9,433.984l-18.793,3.034s-6.407,3.595.449,10.964l5.525,41.177a48.719,48.719,0,0,0,29.283-1.978l3.369-38.415s8.289-5.584,0-12.524Z" transform="translate(-856.622 -365.755)" fill="#f9b180"/>
              <path id="Trazado_8063" data-name="Trazado 8063" d="M906.715,430.511l-10.366,7.669L872.2,433.768l-4.108-2.479s13.775-5.774,21.189-5.231a55.061,55.061,0,0,1,17.437,4.454" transform="translate(-863.602 -360.025)" fill="#f9b180"/>
              <ellipse id="Elipse_531" data-name="Elipse 531" cx="11.549" cy="14.89" rx="11.549" ry="14.89" transform="translate(9.537 131.806) rotate(-87.768)" fill="#f9b180"/>
              <path id="Trazado_8064" data-name="Trazado 8064" d="M900.993,607.095c-.454,0-16.4,3.5-16.4,3.5s-1.145,18.968-1.211,25.494c-.061,6.056,32.351,6.281,32.027.831-.427-7.192-1.06-25.165-1.06-25.165Z" transform="translate(-874.611 -490.329)" fill="#f9b180"/>
              <path id="Trazado_8065" data-name="Trazado 8065" d="M912.344,607.568a22.309,22.309,0,0,1-6.628,17.537A16.769,16.769,0,0,1,895,629.593c-10.239.576-18.384-6.864-18.373-18.92,0,0-2.283-20.953,14.429-21.659C907.444,588.321,912.257,598.828,912.344,607.568Z" transform="translate(-869.671 -477.294)" fill="#4c2b0c"/>
              <g id="Grupo_3706" data-name="Grupo 3706" transform="translate(15.044 25.644)">
                <path id="Trazado_8066" data-name="Trazado 8066" d="M910.345,284.278a2.307,2.307,0,1,1-2.3-2.18A2.245,2.245,0,0,1,910.345,284.278Z" transform="translate(-905.739 -282.098)" fill="#231f20"/>
                <path id="Trazado_8067" data-name="Trazado 8067" d="M916.153,286.83a.6.6,0,0,1-.008.812c-.294.326.188.81.483.483a1.274,1.274,0,0,0,.115-1.639.353.353,0,0,0-.467-.123.343.343,0,0,0-.122.467Z" transform="translate(-913.161 -285.134)" fill="#fff"/>
              </g>
              <g id="Grupo_3707" data-name="Grupo 3707" transform="translate(29.411 25.644)">
                <path id="Trazado_8068" data-name="Trazado 8068" d="M961.589,284.278a2.307,2.307,0,1,1-2.3-2.18A2.245,2.245,0,0,1,961.589,284.278Z" transform="translate(-956.983 -282.098)" fill="#231f20"/>
                <path id="Trazado_8069" data-name="Trazado 8069" d="M967.4,286.83a.6.6,0,0,1-.008.812c-.294.326.188.81.483.483a1.273,1.273,0,0,0,.115-1.639.353.353,0,0,0-.467-.123.344.344,0,0,0-.123.467Z" transform="translate(-964.406 -285.134)" fill="#fff"/>
              </g>
              <g id="Grupo_3708" data-name="Grupo 3708" transform="translate(22.111 29.917)">
                <path id="Trazado_8070" data-name="Trazado 8070" d="M934.379,300.324a10.534,10.534,0,0,1-1.1-1.924c-.394-.966-.869-1.279-1.774-.914s-1.324,7.84,3.729,8.4,4.4-2.972,3.742-3.815S936.143,302.684,934.379,300.324Z" transform="translate(-930.946 -297.338)" fill="#e28f56"/>
                <path id="Trazado_8071" data-name="Trazado 8071" d="M935.413,306.241c-4.351-.486-4.644-6.091-4.064-7.874-.779,1.1-.865,7.734,3.885,8.264,2.661.3,3.74-.543,4.069-1.528C938.829,305.905,937.713,306.5,935.413,306.241Z" transform="translate(-930.947 -298.079)" fill="#c97236"/>
              </g>
              <path id="Trazado_8072" data-name="Trazado 8072" d="M896.451,262.3a4.058,4.058,0,0,1,3.226-3.531,7.074,7.074,0,0,1,1.364-.163,2.09,2.09,0,0,1,.9.071l-.214-.565c.42.123,1.188,1.122,1.188,1.122l.1-.806a5.785,5.785,0,0,1,.449,1.94l-.972-.027C901.467,260.444,897.621,260.909,896.451,262.3Z" transform="translate(-884.012 -239.195)" fill="#231f20"/>
              <path id="Trazado_8073" data-name="Trazado 8073" d="M963.462,262.3a4.058,4.058,0,0,0-3.226-3.531,7.069,7.069,0,0,0-1.363-.163,2.091,2.091,0,0,0-.9.071l.214-.565c-.42.123-1.188,1.122-1.188,1.122l-.1-.806a5.786,5.786,0,0,0-.449,1.94l.972-.027C958.446,260.444,962.291,260.909,963.462,262.3Z" transform="translate(-927.189 -239.195)" fill="#231f20"/>
              <path id="Trazado_8074" data-name="Trazado 8074" d="M871.414,213.312s-.45-7.83,3.183-8.637,10.165,1.78,14.435,2.37,19.106-.688,20.214-10.107c0,0-2.287,1.144-5.016-1.043-4.119-3.3-17.332-7.6-25.3-3.717S865.135,202.169,871.414,213.312Z" transform="translate(-864.086 -190.638)" fill="#231f20"/>
              <path id="Trazado_8075" data-name="Trazado 8075" d="M860.236,222.708s-2.507-3.368-2.055-5.521a6.593,6.593,0,0,0-.585,4.239s-3.336,1.211-3.538,2.758c0,0,.325-.673,3.089-.673a6.256,6.256,0,0,0-1.407,2.893A15.773,15.773,0,0,1,860.236,222.708Z" transform="translate(-853.505 -209.743)" fill="#231f20"/>
              <path id="Trazado_8076" data-name="Trazado 8076" d="M865.957,240.867l.635,2.02s1.7,12.216-.925,15.73l-1.419.485-3.471-12.179S864.343,239.723,865.957,240.867Z" transform="translate(-858.34 -226.695)" fill="#231f20"/>
              <path id="Trazado_8077" data-name="Trazado 8077" d="M974.965,238.272s3.239-.4,3.844,2.122.275,11.016.275,11.016l1.234.41-.09-2.758,1.1-7.1-.959-4.466-.58-2.361Z" transform="translate(-940.512 -222.657)" fill="#231f20"/>
              <path id="Trazado_8078" data-name="Trazado 8078" d="M938.888,216.84s9.373,1.7,12.877-3.651,2.928-7.4,2.928-7.4l-2.195-1.4S952.244,217.1,938.888,216.84Z" transform="translate(-914.55 -200.528)" fill="#514b4d"/>
              <path id="Trazado_8079" data-name="Trazado 8079" d="M933.642,211.288s12.5-4.459,11.549-13.6l-2.358-.85s1.49,7.446-10.29,14.211Z" transform="translate(-909.985 -195.102)" fill="#514b4d"/>
              <path id="Trazado_8080" data-name="Trazado 8080" d="M978.853,222.434s9.145-2.661,9.616-9.326a3.818,3.818,0,0,1-2.218.25S984.029,220.383,978.853,222.434Z" transform="translate(-943.31 -206.808)" fill="#514b4d"/>
              <path id="Trazado_8081" data-name="Trazado 8081" d="M870.225,277.279h-5.15l5.121,1.351Z" transform="translate(-861.433 -252.986)" fill="#514b4d"/>
              <path id="Trazado_8082" data-name="Trazado 8082" d="M871.187,287.275l-.215,1.379-4.3-2.337Z" transform="translate(-862.585 -259.491)" fill="#514b4d"/>
              <path id="Trazado_8083" data-name="Trazado 8083" d="M873.066,297.171l-.606,1.14-2.243-2.407Z" transform="translate(-865.134 -266.39)" fill="#514b4d"/>
              <path id="Trazado_8084" data-name="Trazado 8084" d="M989.945,267.688,992.8,266.4l-2.853,3.05Z" transform="translate(-951.292 -245.159)" fill="#514b4d"/>
              <path id="Trazado_8085" data-name="Trazado 8085" d="M989.876,276.755l2.54-2.082-2.561,3.265Z" transform="translate(-951.227 -251.112)" fill="#514b4d"/>
              <path id="Trazado_8086" data-name="Trazado 8086" d="M989.673,288.261l1.128-1.245-.437,1.966-.707-.235Z" transform="translate(-951.084 -259.993)" fill="#514b4d"/>
              <path id="Trazado_8087" data-name="Trazado 8087" d="M873.122,296.842l1.419-.485s5.74,20.128,13.208,20.667c3.8.274,3.521-3.476,3.521-3.476h2.662s.3,3.046,1.5,2.841,7.8-4.442,8.486-8.38,1.871-14.82,1.871-14.82l1.234.41s.777,13.736.778,14.544c.006,4.146-4.947,9.907-8.566,11.791a13.192,13.192,0,0,1-5.3,1.862c-3.826.445-7.268,1.113-13.943-4.051,0,0-4.934-4.2-6.044-7.905C872.936,306.468,873.122,296.842,873.122,296.842Z" transform="translate(-867.214 -264.436)" fill="#2d2a2b"/>
              <path id="Trazado_8088" data-name="Trazado 8088" d="M906.668,329.66a5.024,5.024,0,0,0-2.947-.966,25.372,25.372,0,0,0-3.823.477,15.526,15.526,0,0,1-3.825.788c-1.389,0-5.088,1.347-5.212,3.913a5.121,5.121,0,0,0,3.078,4.577c.7.11-.67-3.458.372-4.224s6.55-2.7,9.409-2.326a15.968,15.968,0,0,0,4.122,0,6.984,6.984,0,0,1,3.127.541c1.3.666,3.8.317,5.15,2.827s2.086-2.22,2.167-2.424-2.788-3.109-5.487-3.183S908.9,328.32,906.668,329.66Z" transform="translate(-879.986 -289.976)" fill="#2d2a2b"/>
              <g id="Grupo_3724" data-name="Grupo 3724" transform="translate(0.967 60.632)">
                <g id="Grupo_3709" data-name="Grupo 3709">
                  <path id="Trazado_8089" data-name="Trazado 8089" d="M897.333,416.471a53.119,53.119,0,0,0-11.815-5.057c-1.14-.347-.653-4.526-.653-4.526l-6.728.3-6.729-.3s.459,4.1-.652,4.526a69.762,69.762,0,0,0-11.815,6.335,6.865,6.865,0,0,0-3.332,7.244c.673,5.312,3.444,6.8,3.444,6.8l4.372,46.863H894.85l3.5-48.775S907.366,422.077,897.333,416.471Z" transform="translate(-855.532 -406.887)" fill="#b62eef"/>
                </g>
                <g id="Grupo_3710" data-name="Grupo 3710" transform="translate(16.268 0.484)" opacity="0.41">
                  <path id="Trazado_8090" data-name="Trazado 8090" d="M913.555,408.7l1.975.138c.592.039,1.284.072,2.024.107s1.53.06,2.32.067,1.579.01,2.319-.012l1.066-.046.953-.073.8-.09c.24-.021.446-.063.617-.091l.538-.087-.529.133c-.169.04-.373.1-.612.133s-.507.1-.8.136l-.955.113c-.34.027-.7.059-1.07.079-.744.031-1.538.051-2.332.043s-1.586-.049-2.328-.1-1.433-.121-2.024-.18C914.336,408.838,913.555,408.7,913.555,408.7Z" transform="translate(-913.555 -408.613)" fill="#fff"/>
                </g>
                <g id="Grupo_3722" data-name="Grupo 3722" transform="translate(16.796 1.411)">
                  <g id="Grupo_3721" data-name="Grupo 3721">
                    <g id="Grupo_3711" data-name="Grupo 3711">
                      <path id="Trazado_8091" data-name="Trazado 8091" d="M916.058,411.92a5.2,5.2,0,0,1,.014.523,7.777,7.777,0,0,1-.118,1.109,6.5,6.5,0,0,1-.285,1.065,3.87,3.87,0,0,1-.209.462,4.284,4.284,0,0,1-.023-.526,6.856,6.856,0,0,1,.127-1.108,7.405,7.405,0,0,1,.294-1.061A4.845,4.845,0,0,1,916.058,411.92Z" transform="translate(-915.436 -411.92)" fill="#c955ff"/>
                    </g>
                    <g id="Grupo_3712" data-name="Grupo 3712" transform="translate(1.257 0.279)">
                      <path id="Trazado_8092" data-name="Trazado 8092" d="M920.43,412.916s.028.211.035.521a7.868,7.868,0,0,1-.072,1.115,6.831,6.831,0,0,1-.24,1.081,3.874,3.874,0,0,1-.19.474,4.433,4.433,0,0,1-.044-.524,6.836,6.836,0,0,1,.081-1.114,7.494,7.494,0,0,1,.248-1.077A5.04,5.04,0,0,1,920.43,412.916Z" transform="translate(-919.917 -412.916)" fill="#c955ff"/>
                    </g>
                    <g id="Grupo_3713" data-name="Grupo 3713" transform="translate(2.514 0.488)">
                      <path id="Trazado_8093" data-name="Trazado 8093" d="M924.812,413.662s.037.21.057.519a7.759,7.759,0,0,1-.026,1.117,6.776,6.776,0,0,1-.195,1.094,4.069,4.069,0,0,1-.17.485,4.191,4.191,0,0,1-.066-.52,6.933,6.933,0,0,1,.034-1.118,7.531,7.531,0,0,1,.2-1.091C924.734,413.855,924.812,413.662,924.812,413.662Z" transform="translate(-924.403 -413.662)" fill="#c955ff"/>
                    </g>
                    <g id="Grupo_3714" data-name="Grupo 3714" transform="translate(3.767 0.629)">
                      <path id="Trazado_8094" data-name="Trazado 8094" d="M929.187,414.162a5.158,5.158,0,0,1,.078.514,7.835,7.835,0,0,1,.02,1.118,6.938,6.938,0,0,1-.149,1.1,4.11,4.11,0,0,1-.15.494,4.21,4.21,0,0,1-.087-.516,6.876,6.876,0,0,1-.011-1.119,7.647,7.647,0,0,1,.158-1.1C929.116,414.358,929.187,414.162,929.187,414.162Z" transform="translate(-928.871 -414.162)" fill="#c955ff"/>
                    </g>
                    <g id="Grupo_3715" data-name="Grupo 3715" transform="translate(5.011 0.698)">
                      <path id="Trazado_8095" data-name="Trazado 8095" d="M933.544,414.41a4.972,4.972,0,0,1,.1.509,7.814,7.814,0,0,1,.067,1.116,6.9,6.9,0,0,1-.1,1.111,4.2,4.2,0,0,1-.129.5,4.25,4.25,0,0,1-.108-.51,6.974,6.974,0,0,1-.057-1.116,7.8,7.8,0,0,1,.112-1.11C933.482,414.61,933.544,414.41,933.544,414.41Z" transform="translate(-933.309 -414.41)" fill="#c955ff"/>
                    </g>
                    <g id="Grupo_3716" data-name="Grupo 3716" transform="translate(6.244 0.698)">
                      <path id="Trazado_8096" data-name="Trazado 8096" d="M937.872,414.41s.062.2.12.5a7.745,7.745,0,0,1,.112,1.11,6.888,6.888,0,0,1-.057,1.116,4.171,4.171,0,0,1-.108.51,3.949,3.949,0,0,1-.129-.5,6.85,6.85,0,0,1-.1-1.111,7.951,7.951,0,0,1,.066-1.116C937.819,414.614,937.872,414.41,937.872,414.41Z" transform="translate(-937.707 -414.41)" fill="#c955ff"/>
                    </g>
                    <g id="Grupo_3717" data-name="Grupo 3717" transform="translate(7.464 0.629)">
                      <path id="Trazado_8097" data-name="Trazado 8097" d="M942.167,414.162s.07.2.141.494a7.648,7.648,0,0,1,.158,1.1,6.958,6.958,0,0,1-.011,1.119,4.019,4.019,0,0,1-.088.516,4.07,4.07,0,0,1-.149-.494,6.867,6.867,0,0,1-.149-1.1,7.793,7.793,0,0,1,.021-1.118A5.184,5.184,0,0,1,942.167,414.162Z" transform="translate(-942.058 -414.162)" fill="#c955ff"/>
                    </g>
                    <g id="Grupo_3718" data-name="Grupo 3718" transform="translate(8.667 0.488)">
                      <path id="Trazado_8098" data-name="Trazado 8098" d="M946.413,413.662s.078.193.161.486a7.549,7.549,0,0,1,.2,1.091,6.951,6.951,0,0,1,.035,1.118,4.146,4.146,0,0,1-.066.52,3.954,3.954,0,0,1-.17-.485,6.787,6.787,0,0,1-.195-1.094,7.745,7.745,0,0,1-.026-1.117C946.376,413.872,946.413,413.662,946.413,413.662Z" transform="translate(-946.346 -413.662)" fill="#c955ff"/>
                    </g>
                    <g id="Grupo_3719" data-name="Grupo 3719" transform="translate(9.851 0.279)">
                      <path id="Trazado_8099" data-name="Trazado 8099" d="M950.608,412.916a4.959,4.959,0,0,1,.181.475,7.408,7.408,0,0,1,.249,1.077,6.889,6.889,0,0,1,.081,1.114,4.231,4.231,0,0,1-.044.524,3.98,3.98,0,0,1-.191-.474,6.708,6.708,0,0,1-.24-1.081,7.67,7.67,0,0,1-.072-1.115A4.856,4.856,0,0,1,950.608,412.916Z" transform="translate(-950.572 -412.916)" fill="#c955ff"/>
                    </g>
                    <g id="Grupo_3720" data-name="Grupo 3720" transform="translate(11.02)">
                      <path id="Trazado_8100" data-name="Trazado 8100" d="M954.753,411.92a4.815,4.815,0,0,1,.2.464,7.376,7.376,0,0,1,.293,1.061,6.889,6.889,0,0,1,.127,1.108,4.177,4.177,0,0,1-.024.526,3.838,3.838,0,0,1-.21-.462,6.626,6.626,0,0,1-.285-1.065,7.672,7.672,0,0,1-.118-1.109C954.734,412.133,954.753,411.92,954.753,411.92Z" transform="translate(-954.738 -411.92)" fill="#c955ff"/>
                    </g>
                  </g>
                </g>
                <g id="Grupo_3723" data-name="Grupo 3723" transform="translate(15.224 4.526)">
                  <path id="Trazado_8101" data-name="Trazado 8101" d="M909.83,423.031a20.752,20.752,0,0,0,14.762,0A17.1,17.1,0,0,1,909.83,423.031Z" transform="translate(-909.83 -423.031)" fill="#a122d6"/>
                </g>
              </g>
              <path id="Trazado_8102" data-name="Trazado 8102" d="M852.4,440.113c-.494,3.1-1,8.58,3.4,12.466v50.946l16.977,1.165.324-31.218s-7.083-6.715-7.933-20.893-.086-18.6-.086-18.6l-10.24,3.275S852.687,438.321,852.4,440.113Z" transform="translate(-852.085 -365.755)" fill="#252430"/>
              <path id="Trazado_8103" data-name="Trazado 8103" d="M883.692,422.661s-8.152,12.864,4.825,42.559l-.036,3.455s-19.208-35.114-14.113-42.5C874.368,426.172,876.276,421.663,883.692,422.661Z" transform="translate(-867.501 -357.503)" fill="#1d1d1e"/>
              <path id="Trazado_8104" data-name="Trazado 8104" d="M975.708,439.562c1.16,2.313,1.338,7.159-3.121,11.1l-1.092,52.727-16.2,1.3-.323-31.218s7.083-6.715,7.933-20.893.086-18.6.086-18.6l9.932,3.176A5.988,5.988,0,0,1,975.708,439.562Z" transform="translate(-926.121 -365.755)" fill="#252430"/>
              <path id="Trazado_8105" data-name="Trazado 8105" d="M957.073,422.661s10.87,12.864-2.106,42.559l.036,3.455s19.208-35.114,14.113-42.5A15.186,15.186,0,0,0,957.073,422.661Z" transform="translate(-926.121 -357.503)" fill="#1d1d1e"/>
              <path id="Trazado_8106" data-name="Trazado 8106" d="M933.448,344.823s3.012-.3,3.436.25,1.475,3.819-.659,4.8a2.8,2.8,0,0,1-3.867-2.819C932.539,345.272,933.448,344.823,933.448,344.823Z" transform="translate(-909.842 -301.535)" fill="#3a3a3a"/>
              <path id="Trazado_8107" data-name="Trazado 8107" d="M935.292,344.823s3.012-.3,3.436.25a2.487,2.487,0,0,1,.293.6c-.173.229-.36.412-.52.421a15.978,15.978,0,0,1-3.187-.283,1.483,1.483,0,0,1-.405-.658A1.393,1.393,0,0,1,935.292,344.823Z" transform="translate(-911.687 -301.535)" fill="#fff"/>
              <path id="Trazado_8108" data-name="Trazado 8108" d="M936.319,354.849a1.9,1.9,0,0,1,.735,1.385,2.128,2.128,0,0,1-.576.386,2.751,2.751,0,0,1-3.781-1.888C933.566,353.725,935.316,354.106,936.319,354.849Z" transform="translate(-910.095 -308.284)" fill="#e53333"/>
              <path id="Trazado_8109" data-name="Trazado 8109" d="M936.319,354.849a1.718,1.718,0,0,1,.476.541c-1.022-.647-2.6-.919-3.417.022a3.03,3.03,0,0,0,.473.966,3.068,3.068,0,0,1-1.154-1.646C933.566,353.725,935.316,354.106,936.319,354.849Z" transform="translate(-910.095 -308.284)" fill="#d31a1a"/>
            </g>
          </g>
          <g id="Grupo_3728" data-name="Grupo 3728" transform="translate(0 43.058)">
            <path id="Trazado_8110" data-name="Trazado 8110" d="M725.154,392.1l-.542-10.611,5.237-.5.2,14.687Z" transform="translate(-717.765 -370.677)" fill="#f9b180"/>
            <g id="Grupo_3727" data-name="Grupo 3727">
              <path id="Trazado_8111" data-name="Trazado 8111" d="M701.336,352.417c-.058-.065-.922-.946-.968-1.02-.44-.718,0-1.334.657-1.807l4.595-4.892a1.494,1.494,0,0,1,.659-.43,1.538,1.538,0,0,1,1.674.577l5.1,8.252a1.672,1.672,0,0,1,.237.922,2.066,2.066,0,0,1-1.126,1.823l-2.681,1.943c-1.423,1.223-2.259.784-2.757.1Z" transform="translate(-700.191 -344.208)" fill="#f9b180"/>
            </g>
          </g>
          <path id="Trazado_8112" data-name="Trazado 8112" d="M760.78,416.162l.732,1.288,1.8,6.875s-9.559,15.858-26.023,16.642C715.687,442,719.96,400.173,719.96,400.173h8.378s-1.98,26.9,7.574,29.986c6.658,2.151,14.951-7.538,19.367-13.609C755.279,416.55,757.778,412.89,760.78,416.162Z" transform="translate(-714.17 -341.424)" fill="#252430"/>
          <path id="Trazado_8113" data-name="Trazado 8113" d="M740.278,361.521l.6.02a.69.69,0,0,0,.712-.664l.5-4.593a.69.69,0,0,0-.664-.712l-1.284-.044a.691.691,0,0,0-.712.664l.185,4.616A.691.691,0,0,0,740.278,361.521Z" transform="translate(-728.427 -309.297)" fill="#e28f56"/>
          <g id="Grupo_3730" data-name="Grupo 3730" transform="translate(120.718 41.936)">
            <path id="Trazado_8114" data-name="Trazado 8114" d="M1138.547,388.1l.542-10.611-5.237-.5-.2,14.687Z" transform="translate(-1132.835 -366.677)" fill="#f9b180"/>
            <g id="Grupo_3729" data-name="Grupo 3729">
              <path id="Trazado_8115" data-name="Trazado 8115" d="M1142.7,348.417c.058-.065.923-.946.969-1.02.44-.718,0-1.334-.657-1.807l-4.594-4.891a1.5,1.5,0,0,0-.659-.43,1.538,1.538,0,0,0-1.674.577l-5.1,8.251a1.668,1.668,0,0,0-.237.922,2.065,2.065,0,0,0,1.126,1.822l2.681,1.943c1.423,1.223,2.259.784,2.757.1Z" transform="translate(-1130.746 -340.208)" fill="#f9b180"/>
            </g>
          </g>
          <path id="Trazado_8116" data-name="Trazado 8116" d="M1004.726,412.162l-.732,1.287-1.8,6.875s9.559,15.859,26.022,16.642c21.607,1.029,17.334-40.793,17.334-40.793h-8.378s1.979,26.9-7.574,29.986c-6.658,2.151-14.951-7.538-19.367-13.609C1010.227,412.55,1007.728,408.89,1004.726,412.162Z" transform="translate(-917.517 -338.545)" fill="#252430"/>
          <path id="Trazado_8117" data-name="Trazado 8117" d="M1132.716,361.521l-.6.02a.691.691,0,0,1-.712-.664l-.5-4.593a.69.69,0,0,1,.664-.712l1.284-.044a.69.69,0,0,1,.712.664l-.186,4.616A.69.69,0,0,1,1132.716,361.521Z" transform="translate(-1010.142 -309.297)" fill="#e28f56"/>
        </g>
        <path id="Trazado_8118" data-name="Trazado 8118" d="M1049.043,294.259s4.9.576,5.188-4.9c0,0,0,4.9,4.323,3.747a4.094,4.094,0,0,0-1.153,6.052s-3.987-1.729-5.188,1.921c0,0,.336-2.738-1.585-2.258C1050.628,298.823,1055.191,295.076,1049.043,294.259Z" transform="translate(-765.308 -208.23)" fill="#f7941d"/>
        <path id="Trazado_8119" data-name="Trazado 8119" d="M764.026,242.113s4.9.576,5.188-4.9c0,0,0,4.9,4.323,3.747a4.094,4.094,0,0,0-1.153,6.052s-3.987-1.729-5.188,1.921c0,0,.336-2.738-1.585-2.258C765.611,246.676,770.174,242.929,764.026,242.113Z" transform="translate(-560.203 -170.704)" fill="#f7941d"/>
        <path id="Trazado_8120" data-name="Trazado 8120" d="M1014.48,156.7s4.9.576,5.188-4.9c0,0,0,4.9,4.323,3.746a4.094,4.094,0,0,0-1.153,6.053s-3.987-1.729-5.188,1.921c0,0,.336-2.738-1.585-2.258C1016.065,161.264,1020.628,157.517,1014.48,156.7Z" transform="translate(-740.435 -109.239)" fill="#f7941d"/>
        <g id="Grupo_3732" data-name="Grupo 3732" transform="translate(34.221 44.869)">
          <path id="Trazado_8121" data-name="Trazado 8121" d="M242.494,174.723l.428,46.168-62.005.531.99-47.364Z" transform="translate(-174.806 -170.125)" fill="#8b5e3c"/>
          <path id="Trazado_8122" data-name="Trazado 8122" d="M249.743,189.927l-50.144-.474-.551,39.881,50.074-.294Z" transform="translate(-187.854 -181.203)" fill="#2b3990"/>
          <path id="Trazado_8123" data-name="Trazado 8123" d="M245.013,190.113,234.925,232.57l13.664.117,9.565-42.449Z" transform="translate(-213.672 -181.678)" opacity="0.53" fill="url(#linear-gradient-4)"/>
          <path id="Trazado_8124" data-name="Trazado 8124" d="M253.225,262.088c0-.26,0-.525-.007-.793-.018-1.76-.053-3.631-.08-4.944-.022-1.047-.039-1.74-.039-1.74-2.676-3.734-20.04-4.045-20.04-4.045v1.323h-3.921l-1.113-1.1h-1.341l-2.117.028-.836-3.547V244.5l-.882-1s-.4-.026-.845-.052l-1-2.391-.63-1.284-1.626-.755c-9.771,2.614-10.518,6.815-10.518,6.815V265h1.494V263.08a.81.81,0,1,1,1.567,0V265h2.525v-2.071a.919.919,0,1,1,1.806,0V265H217.9v-2.219a1.031,1.031,0,1,1,2.044,0V265H222v-2.366a1.146,1.146,0,1,1,2.282,0V265h1.81v-2.513a1.262,1.262,0,1,1,2.52,0V265h2.119v-2.66a1.51,1.51,0,0,1,3.012,0V265h2.1v-2.537a1.148,1.148,0,1,1,2.269,0V265h1.754v-2.389a1.047,1.047,0,1,1,2.055,0V265h1.968v-2.242a.947.947,0,1,1,1.84,0V265h2.027v-2.095c0-.6.366-1.093.813-1.093s.813.492.813,1.093V265h2.055v-1.947c0-.559.317-1.016.705-1.016s.705.457.705,1.016V265h.365c0-.058,0-.117,0-.179s0-.124,0-.188c0-.128,0-.263,0-.4s0-.285,0-.435C253.231,263.275,253.229,262.7,253.225,262.088ZM209.2,246.353l1.157-.887v1.26l-1.157.887Zm1.8,13.429-1.567.252v-1.948a.81.81,0,1,1,1.567,0Zm0-6.324-1.567.273v-1.948a.81.81,0,1,1,1.567,0Zm2.134-9.384,1.093-.6v1.26l-1.093.6Zm-.006,6.508a.919.919,0,1,1,1.806,0v2.095l-1.806.247Zm1.93,8.68-1.806.276v-2.1a.919.919,0,1,1,1.806,0Zm2.5-17.216,1.093-.468.144,1.207-1.237.521Zm1.834,16.936-2.044.162V256.9a1.031,1.031,0,1,1,2.044,0Zm0-6.951-2.044.218v-2.6a1.031,1.031,0,1,1,2.044,0Zm4.6,6.857h-2.282V256.5a1.146,1.146,0,1,1,2.282,0Zm4.33,0H225.8v-2.537a1.262,1.262,0,1,1,2.52,0Zm5.692,0H231V256.2a1.51,1.51,0,0,1,3.012,0Zm4.67.327-2.521-.176V256.5a1.262,1.262,0,1,1,2.521,0Zm.8-5.725-1.089-.09v-1.26l1.089.089Zm3.028,5.959-2.282-.192v-2.389a1.145,1.145,0,1,1,2.282,0Zm.861-5.565-1.089-.138v-1.218l1.089.177Zm2.829,5.8-2.044-.265v-2.242a1.031,1.031,0,1,1,2.044,0Zm.317-5.107v-1.26l1.147.262v1.26Zm2.953,5.458-1.806-.252V257.94a.919.919,0,1,1,1.806,0Zm.915-5.8,1.051.354v1.26l-1.051-.354Zm2.247,6.131-1.567-.236v-1.711a.81.81,0,1,1,1.567,0Z" transform="translate(-194.459 -216.873)" fill="#e6e7e8"/>
          <path id="Trazado_8125" data-name="Trazado 8125" d="M232.585,164.627l-9.612-4.248-55.826-.351L172,163.962Z" transform="translate(-164.897 -160.029)" fill="#754c29"/>
          <path id="Trazado_8126" data-name="Trazado 8126" d="M165.233,211.326l-6.111-3.9,2.25-47.4,4.851,3.934Z" transform="translate(-159.122 -160.029)" fill="#603913"/>
          <circle id="Elipse_532" data-name="Elipse 532" cx="3.515" cy="3.515" r="3.515" transform="translate(49.69 13.801)" fill="#27aae1"/>
        </g>
        <g id="Grupo_3733" data-name="Grupo 3733" transform="translate(70.765 212.003)">
          <path id="Trazado_8127" data-name="Trazado 8127" d="M351.15,774.363l2.128.851,2.838.568.284,1.845-.426,1.845,1.845,2.7-5.818.851-2.412-1.135-2.412.426-.426-2.412,1.561-1.7-.851-1.561Z" transform="translate(-330.688 -769.251)" fill="#f8ebec"/>
          <path id="Trazado_8128" data-name="Trazado 8128" d="M291.077,756.132l-1.373,3.775,1.716,9.609,4.462,1.373Z" transform="translate(-289.636 -756.132)" fill="#d5cbd6"/>
          <path id="Trazado_8129" data-name="Trazado 8129" d="M306.612,771.575l-.686-8.58-3.089-1.544-3.6-1.373-1.2-3.775-3.432-.172,2.917,15.958Z" transform="translate(-293.159 -756.132)" fill="#f8ebec"/>
          <path id="Trazado_8130" data-name="Trazado 8130" d="M293.578,820.616h21.449l4.118-37.065H289.46Z" transform="translate(-289.46 -775.864)" fill="#4a3a4f"/>
          <path id="Trazado_8131" data-name="Trazado 8131" d="M299.927,820.616h-6.349l-4.118-37.065h10.467Z" transform="translate(-289.46 -775.864)" fill="#403345"/>
        </g>
        <g id="Grupo_3734" data-name="Grupo 3734" transform="translate(89.113 157.143)">
          <path id="Trazado_8132" data-name="Trazado 8132" d="M607.079,722.265l95.116-.256,11.637-75.8-316.4,6.709L411.7,722.827l100.556-.235,74.008-.415,15.711.651Z" transform="translate(-385.511 -622.167)" fill="#754c29"/>
          <path id="Trazado_8133" data-name="Trazado 8133" d="M448.579,692.934l9.51,52.893,269.933-1.043,5.855-56.239L459.539,692.1l8.741,41.611H714.952l2.935-29.813-242.529.925,3.591,17.991" transform="translate(-422.314 -652.635)" fill="none" stroke="#ce7b42" stroke-miterlimit="10" stroke-width="3"/>
          <path id="Trazado_8134" data-name="Trazado 8134" d="M390.031,627.255l6.67,30.508,308.772-9.106,4.607-27.01Z" transform="translate(-380.182 -604.494)" fill="#603913" opacity="0.3"/>
          <path id="Trazado_8135" data-name="Trazado 8135" d="M354.9,602.145l6.589,17.519,323.785-1.56,8.364-18.469Z" transform="translate(-354.902 -588.653)" fill="#8b5e3c"/>
          <path id="Trazado_8136" data-name="Trazado 8136" d="M389.828,561.286,354.9,573.96l338.738-2.511-37.07-10.981Z" transform="translate(-354.902 -560.468)" fill="#a97c50"/>
        </g>
        <g id="Grupo_3745" data-name="Grupo 3745" transform="translate(160.851 141.343)">
          <g id="Grupo_3743" data-name="Grupo 3743" transform="translate(13.576)">
            <g id="Grupo_3735" data-name="Grupo 3735" transform="translate(0.382 4.232)">
              <path id="Trazado_8137" data-name="Trazado 8137" d="M674.5,519.209l-1.767,17.15c0,.875-2.333,1.581-5.215,1.581s-5.213-.706-5.213-1.581l-1.761-17.15Z" transform="translate(-660.548 -519.209)" fill="#f7f8f9"/>
            </g>
            <g id="Grupo_3736" data-name="Grupo 3736" transform="translate(0 4.232)">
              <rect id="Rectángulo_2102" data-name="Rectángulo 2102" width="14.664" height="1.269" fill="#281207"/>
            </g>
            <g id="Grupo_3737" data-name="Grupo 3737" transform="translate(0.027 3.27)">
              <path id="Trazado_8138" data-name="Trazado 8138" d="M659.281,518.01c0,1.229,3.282,2.226,7.33,2.226s7.333-1,7.333-2.226c-.878-.883-3.281-2.231-7.333-2.231s-6.442,1.339-7.33,2.231" transform="translate(-659.281 -515.779)" fill="#281207"/>
            </g>
            <g id="Grupo_3738" data-name="Grupo 3738" transform="translate(0.027 2.004)">
              <path id="Trazado_8139" data-name="Trazado 8139" d="M659.281,513.49c0,1.233,3.282,2.229,7.33,2.229s7.333-1,7.333-2.229c-.878-.879-3.281-2.228-7.333-2.228s-6.442,1.338-7.33,2.228" transform="translate(-659.281 -511.262)" fill="#512a0c"/>
            </g>
            <g id="Grupo_3739" data-name="Grupo 3739" transform="translate(0.27 2.404)">
              <path id="Trazado_8140" data-name="Trazado 8140" d="M674.272,514.518l-1.046-1.828H661.194l-1.049,1.828Z" transform="translate(-660.146 -512.69)" fill="#512a0c"/>
            </g>
            <g id="Grupo_3740" data-name="Grupo 3740" transform="translate(1.344 1.826)">
              <path id="Trazado_8141" data-name="Trazado 8141" d="M669.991,512.451c3.326,0,6.014-.814,6.014-1.825v.579c0,1.009-2.688,1.828-6.014,1.828s-6.013-.818-6.013-1.828v-.579c0,1.011,2.691,1.825,6.013,1.825" transform="translate(-663.978 -510.626)" fill="#281207"/>
            </g>
            <g id="Grupo_3741" data-name="Grupo 3741" transform="translate(1.344)">
              <path id="Trazado_8142" data-name="Trazado 8142" d="M663.978,505.941c0,1.011,2.691,1.825,6.013,1.825s6.014-.814,6.014-1.825-2.688-1.826-6.014-1.826-6.013.82-6.013,1.826" transform="translate(-663.978 -504.115)" fill="#512a0c"/>
            </g>
            <g id="Grupo_3742" data-name="Grupo 3742" transform="translate(0.993 10.201)">
              <path id="Trazado_8143" data-name="Trazado 8143" d="M669.09,541.832c2.128,0,5.216-.182,6.367-1.333l-.576,6.684c-1.044,1.047-3.854,1.213-5.79,1.213s-4.739-.165-5.783-1.213l-.582-6.684c1.148,1.151,4.239,1.333,6.364,1.333" transform="translate(-662.726 -540.499)" fill="#2852a5"/>
            </g>
          </g>
          <g id="Grupo_3744" data-name="Grupo 3744" transform="translate(0 5.866)">
            <path id="Trazado_8144" data-name="Trazado 8144" d="M634.271,530.6s-.051-.633,2.224-1.422c2.48-.859,1.315-4.139,1.315-4.139a7.186,7.186,0,0,1-2.275,1.389A2.894,2.894,0,0,0,634.271,530.6Z" transform="translate(-627.385 -525.035)" fill="#74b84b"/>
            <path id="Trazado_8145" data-name="Trazado 8145" d="M622.313,537.77a4.981,4.981,0,0,1,4.65,4.091,5.713,5.713,0,0,0-4.727-3.466A1.123,1.123,0,0,1,622.313,537.77Z" transform="translate(-619.009 -534.199)" fill="#5e4023"/>
            <path id="Trazado_8146" data-name="Trazado 8146" d="M618.359,544.536a5.567,5.567,0,0,0-6.416,1.016c-2.98,2.9-.355,12.559,8.4,10.658,6.959-1.511,8.218-7.229,6.153-10.917S620.342,542.226,618.359,544.536Z" transform="translate(-610.764 -537.722)" fill="red"/>
            <path id="Trazado_8147" data-name="Trazado 8147" d="M650.354,545.294a4.652,4.652,0,0,0-6.026-2.258,5.207,5.207,0,0,1,3.381,2.91,7.785,7.785,0,0,1-3.792,10.322c.094-.018.188-.036.284-.056C651.16,554.7,652.419,548.983,650.354,545.294Z" transform="translate(-634.622 -537.723)" fill="#db0000"/>
            <path id="Trazado_8148" data-name="Trazado 8148" d="M616.935,550.553s-5.016,2.134-.489,9.028C616.446,559.581,613.557,554.013,616.935,550.553Z" transform="translate(-613.491 -543.398)" fill="#fff" opacity="0.8"/>
          </g>
        </g>
        <g id="Grupo_3749" data-name="Grupo 3749" transform="translate(111.185 90.848)">
          <g id="Grupo_3746" data-name="Grupo 3746" transform="translate(0 17.779)">
            <path id="Trazado_8149" data-name="Trazado 8149" d="M442.007,412.839l18.02-20.762V387.43h-4.3l-22.1,25.653,19.025,22.678h8.38Zm-3.306,3.81,2.244-2.585,16.573,19.975h-4.226Zm-.722-6.162,1.928,2.327L437.66,415.4l-1.932-2.3Zm18.381-21.331h2.16v2.214L440.97,411.59l-1.935-2.332Z" transform="translate(-433.625 -387.43)" fill="#6d6e71"/>
          </g>
          <g id="Grupo_3747" data-name="Grupo 3747" transform="translate(25.169 13.406)">
            <path id="Trazado_8150" data-name="Trazado 8150" d="M524.35,377.732l-.957-1.329,4.842-4.571.961,1.328Z" transform="translate(-523.393 -371.831)" fill="#6d6e71"/>
          </g>
          <g id="Grupo_3748" data-name="Grupo 3748" transform="translate(23.65)">
            <path id="Trazado_8151" data-name="Trazado 8151" d="M517.976,330.7l5.842-6.684,7.225,7.562,12.605,3.517-15.68,17.059-3.228-11.782Z" transform="translate(-517.976 -324.018)" fill="#ef4136"/>
          </g>
          <path id="Trazado_8152" data-name="Trazado 8152" d="M494.685,559.124l-29.016-.38.763,6.489h26.342Z" transform="translate(-456.685 -492.932)" fill="#414042"/>
        </g>
        <path id="Trazado_8153" data-name="Trazado 8153" d="M49.64,814.36s-14.277,2.552-12.4,5.143,13.79,1.261,15.318,4.057,28.34,3.271,33.151,1.906,13.764-4.128,7.319-7.421S75.915,812.243,49.64,814.36Z" transform="translate(-37.07 -585.469)" fill="#d58dff" opacity="0.37"/>
        <path id="Trazado_8154" data-name="Trazado 8154" d="M1693.566,844.6s14.037,3.646,11.966,6.085-13.846.192-15.585,2.862-28.508,1.072-33.2-.661-13.4-5.179-6.724-7.964S1667.534,840.46,1693.566,844.6Z" transform="translate(-1196.038 -606.002)" fill="#d58dff" opacity="0.37"/>
        <g id="Grupo_3753" data-name="Grupo 3753" transform="translate(8.077 133.43)">
          <g id="Grupo_3752" data-name="Grupo 3752">
            <g id="Grupo_3750" data-name="Grupo 3750" transform="translate(6.851 10.636)">
              <path id="Trazado_8155" data-name="Trazado 8155" d="M105.026,579.665s-19.344-31.947-13.672-65.84C91.355,513.825,110.519,543.491,105.026,579.665Z" transform="translate(-90.313 -513.825)" fill="#00842b"/>
              <path id="Trazado_8156" data-name="Trazado 8156" d="M149.6,579.665s19.344-31.947,13.672-65.84C163.27,513.825,144.106,543.491,149.6,579.665Z" transform="translate(-132.264 -513.825)" fill="#00842b"/>
            </g>
            <g id="Grupo_3751" data-name="Grupo 3751" transform="translate(0 27.516)">
              <path id="Trazado_8157" data-name="Trazado 8157" d="M84.872,621.494S66.344,611.105,65.879,574.03C65.879,574.03,91.89,600.9,84.872,621.494Z" transform="translate(-65.879 -574.03)" fill="#42a800"/>
              <path id="Trazado_8158" data-name="Trazado 8158" d="M158.222,621.494s18.528-10.389,18.994-47.464C177.216,574.03,151.2,600.9,158.222,621.494Z" transform="translate(-131.466 -574.03)" fill="#42a800"/>
            </g>
            <path id="Trazado_8159" data-name="Trazado 8159" d="M130.233,554.2s-14.015-41.175.912-78.308C131.144,475.892,145.525,514.427,130.233,554.2Z" transform="translate(-107.895 -475.892)" fill="#63bc00"/>
          </g>
          <path id="Trazado_8160" data-name="Trazado 8160" d="M104.059,747.175H92.233a9.25,9.25,0,0,1-9.154-7.917L78.931,710.8h38.43l-4.148,28.461A9.251,9.251,0,0,1,104.059,747.175Z" transform="translate(-75.271 -644.935)" fill="#fff"/>
          <path id="Trazado_8161" data-name="Trazado 8161" d="M79.486,714.607,83.478,742a9.25,9.25,0,0,0,9.154,7.917h11.827A9.251,9.251,0,0,0,113.613,742l.216-1.482a41.661,41.661,0,0,1-11.183-2.913C91.405,733.234,85.173,724.41,79.486,714.607Z" transform="translate(-75.671 -647.676)" fill="#f2f2f2"/>
        </g>
        <g id="Grupo_3757" data-name="Grupo 3757" transform="translate(454.772 143.275)">
          <g id="Grupo_3756" data-name="Grupo 3756">
            <g id="Grupo_3754" data-name="Grupo 3754" transform="translate(6.851 10.636)">
              <path id="Trazado_8162" data-name="Trazado 8162" d="M1698.212,614.778s-19.344-31.947-13.672-65.84C1684.54,548.938,1703.7,578.6,1698.212,614.778Z" transform="translate(-1683.498 -548.938)" fill="#00842b"/>
              <path id="Trazado_8163" data-name="Trazado 8163" d="M1742.783,614.778s19.344-31.947,13.672-65.84C1756.454,548.938,1737.291,578.6,1742.783,614.778Z" transform="translate(-1725.449 -548.938)" fill="#00842b"/>
            </g>
            <g id="Grupo_3755" data-name="Grupo 3755" transform="translate(0 27.516)">
              <path id="Trazado_8164" data-name="Trazado 8164" d="M1678.057,656.608s-18.528-10.389-18.993-47.464C1659.064,609.144,1685.075,636.015,1678.057,656.608Z" transform="translate(-1659.064 -609.144)" fill="#42a800"/>
              <path id="Trazado_8165" data-name="Trazado 8165" d="M1751.408,656.608s18.528-10.389,18.993-47.464C1770.4,609.144,1744.39,636.015,1751.408,656.608Z" transform="translate(-1724.652 -609.144)" fill="#42a800"/>
            </g>
            <path id="Trazado_8166" data-name="Trazado 8166" d="M1723.418,589.313s-14.015-41.175.912-78.308C1724.329,511,1738.71,549.54,1723.418,589.313Z" transform="translate(-1701.08 -511.005)" fill="#63bc00"/>
          </g>
          <path id="Trazado_8167" data-name="Trazado 8167" d="M1697.244,782.288h-11.827a9.251,9.251,0,0,1-9.154-7.917l-4.148-28.462h38.43l-4.148,28.462A9.25,9.25,0,0,1,1697.244,782.288Z" transform="translate(-1668.456 -680.048)" fill="#fff"/>
          <path id="Trazado_8168" data-name="Trazado 8168" d="M1672.671,749.72l3.993,27.393a9.251,9.251,0,0,0,9.154,7.917h11.826a9.251,9.251,0,0,0,9.154-7.917l.216-1.482a41.641,41.641,0,0,1-11.183-2.912C1684.59,768.347,1678.358,759.523,1672.671,749.72Z" transform="translate(-1668.856 -682.789)" fill="#f2f2f2"/>
        </g>
        <g id="Grupo_3763" data-name="Grupo 3763" transform="translate(268.79 120.396)">
          <g id="Grupo_3758" data-name="Grupo 3758" transform="translate(0 39.278)">
            <path id="Trazado_8169" data-name="Trazado 8169" d="M1004.066,574.3l-8.328-4.807h13.771Z" transform="translate(-995.738 -569.496)" fill="#1e1e1d"/>
          </g>
          <g id="Grupo_3759" data-name="Grupo 3759" transform="translate(8.328 44.086)">
            <rect id="Rectángulo_2103" data-name="Rectángulo 2103" width="61.655" height="2.581" fill="#1e1e1d"/>
          </g>
          <g id="Grupo_3760" data-name="Grupo 3760" transform="translate(0 39.278)">
            <path id="Trazado_8170" data-name="Trazado 8170" d="M1004.066,576.883l-8.328-5.6V569.5l8.328,4.807Z" transform="translate(-995.738 -569.496)" fill="#4d4d4d"/>
          </g>
          <path id="Trazado_8171" data-name="Trazado 8171" d="M1076.405,432.187l-2.33-1.538-66.728-1.243,1.489,2.3Z" transform="translate(-1004.092 -429.405)" fill="#1e1e1d"/>
          <path id="Trazado_8172" data-name="Trazado 8172" d="M1012.42,473.491l-2.282-1.317-2.791-42.768,1.489,2.3Z" transform="translate(-1004.092 -429.405)" fill="#42413f"/>
          <g id="Grupo_3761" data-name="Grupo 3761" transform="translate(4.744 2.301)">
            <path id="Trazado_8173" data-name="Trazado 8173" d="M1080.227,438.093l-2.33,41.3h-61.655l-3.584-41.784Z" transform="translate(-1012.658 -437.613)" fill="#302f2e"/>
          </g>
          <g id="Grupo_3762" data-name="Grupo 3762" transform="translate(34.376 18.667)">
            <path id="Trazado_8174" data-name="Trazado 8174" d="M1118.343,501.829a5.847,5.847,0,1,0,5.849-5.847A5.842,5.842,0,0,0,1118.343,501.829Z" transform="translate(-1118.343 -495.982)" fill="#7a7875"/>
          </g>
          <path id="Trazado_8175" data-name="Trazado 8175" d="M1135.6,495.982a5.856,5.856,0,0,0-1.4.176,5.838,5.838,0,0,1,0,11.338,5.843,5.843,0,1,0,1.4-11.515Z" transform="translate(-1095.378 -477.315)" fill="#a3a19f"/>
        </g>
        <g id="Grupo_3793" data-name="Grupo 3793" transform="translate(71.603 0)">
          <g id="Grupo_3792" data-name="Grupo 3792" clip-path="url(#clip-path-2)">
            <g id="Grupo_3791" data-name="Grupo 3791" transform="translate(220.246 37.53)">
              <path id="Trazado_8176" data-name="Trazado 8176" d="M1248.824,316.9c12.667-18.914-7.2-38.011-19.371-47.255-10.778-10.792-34.886-14.111-43.032-14.944l-2.776-4.659-3.743.006.09-6.868a17.411,17.411,0,0,0,.917-1.912v0c.673-.469,1.353-.974,2.041-1.523l11.664-9.518a14.243,14.243,0,0,0,5.8-12.651l.634-13.14a5.8,5.8,0,1,0,1.62-11.356,5.854,5.854,0,0,0-.8.067l.016-.261.37.181.784-3.833-.611-.289a241.683,241.683,0,0,0,4.6-25.131c.9-8.2-8.733-10.279-8.733-10.279h0c.431-2.363.54-5.081-.554-7-2.358-4.14-17.911-10.414-40.265-8.374s-26.826-4.3-26.826-4.3,1.292,6.993,5.965,7.815c0,0-6.78,1.524-9.336-.158,0,0,.968,5.722,6.869,6.325,0,0-8.1.684-8.922,5.356,0,0,5.165-2.152,8.957.584a18.323,18.323,0,0,0,2.442,1.42c-2.107.992-4.581,2.491-5.417,4.339-1.433,3.166.193,16.236,1.423,24.525a15.854,15.854,0,0,0-4.3,2.18l.023,3.94s1.334-.161,2.169,3.046a5.792,5.792,0,0,0,3.937,10.078c.037,0,.072-.005.109-.006l.013,9.874a25.322,25.322,0,0,0,10.378,21.625l3.745,3a24.2,24.2,0,0,0,2.006,4.42,9.858,9.858,0,0,0,2.57,3.288l.02,3.516h0l.006,1.064-4.043.006-1.884,4.267c-6.557.765-24.4,3.367-37.107,10.092h0a37.609,37.609,0,0,0-7.3,4.918c-12.157,8.951-34,28.792-21,48.316a12.6,12.6,0,0,0,2.967,3.778l.008.01a12.106,12.106,0,0,0,6.735,3.971,41.209,41.209,0,0,0,3.977,1.365c5.06,1.466,12.7,1.91,21.511,1.717.607,2.646,1.246,5.486,1.876,8.372,2.045,11.062,4.064,22.35,4.455,25.83.055,9.38-3.629,60.309-3.629,60.309.977.326,2.035.621,3.148.89l.33,7.149c2.276,53.315,8.49,197.325,10.439,226.961l.851.017-.767,9.132-14.28,2.62c-24.116-2.538-16.467,12.433-16.467,12.433l.281,2,48.634-1.269.191-1.823-.726-22.747.439.009s10.653-155.383,11.776-214.819a32.431,32.431,0,0,0,4.827.1c.315,59.714,8.784,214.608,8.784,214.608l.83,0-.46,22.7.212,1.821,48.645.7.257-2s7.475-15.059-16.611-12.241l-14.309-2.453-.826-8.629.421,0c.991-12.3,2.987-44.336,5.2-81.4.167-1.708.274-3.588.333-5.6,2.968-49.913,6.247-107.423,7.977-137.965l.71-11.112c.573-.107,1.144-.212,1.72-.323,0,0-.291-49.913-.345-59.292-.033-5.672,2.688-22.407,4.844-34.752,7.841.072,14.6-.415,19.218-1.753a41.034,41.034,0,0,0,3.977-1.365,12.107,12.107,0,0,0,6.735-3.97l.008-.01A12.612,12.612,0,0,0,1248.824,316.9Z" transform="translate(-1077.98 -133.855)" fill="#755e4e" opacity="0.5"/>
              <g id="Grupo_3790" data-name="Grupo 3790" transform="translate(4.765)">
                <g id="Grupo_3768" data-name="Grupo 3768" transform="translate(99.726 508.35)">
                  <path id="Trazado_8177" data-name="Trazado 8177" d="M1453.05,1946.941l-.19,8.363,14.225.954-.792-9.023Z" transform="translate(-1452.243 -1946.941)" fill="#f2c5a6"/>
                  <g id="Grupo_3767" data-name="Grupo 3767" transform="translate(0 8.363)">
                    <g id="Grupo_3764" data-name="Grupo 3764" transform="translate(0)">
                      <path id="Trazado_8178" data-name="Trazado 8178" d="M1483.164,1995.476c24.085-2.818,16.61,12.24,16.61,12.24l-49.114-.521.617-30.428,16.094.754,1.483,15.5Z" transform="translate(-1450.66 -1976.768)" fill="#d07328"/>
                    </g>
                    <g id="Grupo_3765" data-name="Grupo 3765" transform="translate(3.724 13.128)">
                      <path id="Trazado_8179" data-name="Trazado 8179" d="M1472.545,2027.406a4.316,4.316,0,1,1-4.789-3.785A4.316,4.316,0,0,1,1472.545,2027.406Z" transform="translate(-1463.942 -2023.591)" fill="#f09521"/>
                    </g>
                    <g id="Grupo_3766" data-name="Grupo 3766" transform="translate(0 30.428)">
                      <path id="Trazado_8180" data-name="Trazado 8180" d="M1450.66,2085.292l49.114.521-.257,2-48.645-.7Z" transform="translate(-1450.66 -2085.292)" fill="#111011"/>
                    </g>
                  </g>
                  <path id="Trazado_8181" data-name="Trazado 8181" d="M1452.836,1962.531l-.294,1.764,13.8.751-.036-2.967Z" transform="translate(-1452.014 -1957.834)" fill="#e69e72"/>
                  <path id="Trazado_8182" data-name="Trazado 8182" d="M1515.552,2034.741l14.309,2.453S1526.437,2048.114,1515.552,2034.741Z" transform="translate(-1497.358 -2010.123)" fill="#f09521"/>
                </g>
                <g id="Grupo_3773" data-name="Grupo 3773" transform="translate(23.999 508.51)">
                  <path id="Trazado_8183" data-name="Trazado 8183" d="M1319.59,1947.512l.287,8.36-14.213,1.12.687-9.032Z" transform="translate(-1270.591 -1947.512)" fill="#f2c5a6"/>
                  <g id="Grupo_3772" data-name="Grupo 3772" transform="translate(0 8.36)">
                    <g id="Grupo_3769" data-name="Grupo 3769">
                      <path id="Trazado_8184" data-name="Trazado 8184" d="M1198.191,1996.408c-24.116-2.538-16.467,12.433-16.467,12.433l49.1-1.092-.971-30.419-16.084.941-1.3,15.517Z" transform="translate(-1180.571 -1977.33)" fill="#d07328"/>
                    </g>
                    <g id="Grupo_3770" data-name="Grupo 3770" transform="translate(37.75 13.213)">
                      <path id="Trazado_8185" data-name="Trazado 8185" d="M1315.236,2028.322a4.316,4.316,0,1,0,4.744-3.841A4.316,4.316,0,0,0,1315.236,2028.322Z" transform="translate(-1315.212 -2024.457)" fill="#f09521"/>
                    </g>
                    <g id="Grupo_3771" data-name="Grupo 3771" transform="translate(1.153 30.419)">
                      <path id="Trazado_8186" data-name="Trazado 8186" d="M1233.787,2085.821l-49.1,1.092.281,2,48.634-1.269Z" transform="translate(-1184.682 -2085.821)" fill="#111011"/>
                    </g>
                  </g>
                  <path id="Trazado_8187" data-name="Trazado 8187" d="M1320.883,1963.5l.314,1.76-13.791.912,0-2.968Z" transform="translate(-1271.844 -1958.808)" fill="#e69e72"/>
                  <path id="Trazado_8188" data-name="Trazado 8188" d="M1257.693,2036.029l-14.28,2.62S1246.964,2049.528,1257.693,2036.029Z" transform="translate(-1225.794 -2011.211)" fill="#f09521"/>
                </g>
                <g id="Grupo_3774" data-name="Grupo 3774" transform="translate(50.646 57.852)">
                  <circle id="Elipse_533" data-name="Elipse 533" cx="5.799" cy="5.799" r="5.799" fill="#eaa271"/>
                  <circle id="Elipse_534" data-name="Elipse 534" cx="3.401" cy="3.401" r="3.401" transform="translate(2.397 2.397)" fill="#d38c5b"/>
                </g>
                <g id="Grupo_3775" data-name="Grupo 3775" transform="translate(118.932 59.219)">
                  <circle id="Elipse_535" data-name="Elipse 535" cx="5.799" cy="5.799" r="5.799" fill="#eaa271"/>
                  <circle id="Elipse_536" data-name="Elipse 536" cx="3.401" cy="3.401" r="3.401" transform="translate(2.397 2.397)" fill="#d38c5b"/>
                </g>
                <path id="Trazado_8189" data-name="Trazado 8189" d="M1350.135,960.133l36.875-24.3s9.428,64.631-37.916,64.907c-44.206.257-20.677-33.041-20.677-33.041Z" transform="translate(-1258.464 -710.975)" fill="#f9b180"/>
                <path id="Trazado_8190" data-name="Trazado 8190" d="M1292.321,974.909l-27.383-23.053s-10.943,62.095,39.071,61.8c44.2-.257,24.118-33.3,24.118-33.3Z" transform="translate(-1216.554 -722.506)" fill="#f9b180"/>
                <path id="Trazado_8191" data-name="Trazado 8191" d="M1310.473,1452.133s-2.587-7.217-11.615-7.053-14.956,9.447-13.063,17.821-2.54,46.191.359,61.25,8.274,73.451,8.274,73.451l11.4-.067Z" transform="translate(-1231.822 -1077.439)" fill="#f4be9a"/>
                <path id="Trazado_8192" data-name="Trazado 8192" d="M1441.313,1451.41s2.5-7.247,11.532-7.188,15.065,9.273,13.269,17.668,3.078,46.159.355,61.25-7.418,73.543-7.418,73.543l-11.4.066Z" transform="translate(-1344.207 -1076.823)" fill="#f4be9a"/>
                <path id="Trazado_8193" data-name="Trazado 8193" d="M1419.068,1090.755c-.446-6.172-.835-29.918,19.334-31.589l.109-.011c.4-.032.813-.056,1.233-.07,15.1-.495,17.871,13.629,17.744,24.662l.01,0s-1.438,68.472-5.071,91.551c0,0-2.656,28.592-14.13,28.652C1418.625,1204.055,1418.61,1121.677,1419.068,1090.755Z" transform="translate(-1328.107 -799.662)" fill="#f9b180"/>
                <path id="Trazado_8194" data-name="Trazado 8194" d="M1297,1091.534c.374-6.176.487-29.926-19.7-31.362l-.11-.009c-.4-.027-.814-.047-1.234-.056-15.109-.319-17.71,13.836-17.455,24.868l-.01,0s2.236,68.451,6.137,91.486c0,0,2.988,28.56,14.462,28.485C1298.761,1204.821,1297.817,1122.449,1297,1091.534Z" transform="translate(-1212.639 -800.402)" fill="#f9b180"/>
                <path id="Trazado_8195" data-name="Trazado 8195" d="M1452.974,1090.008s-11.8,210.179-14.735,246.673l-18.159.106s-10.994-201.06-8.4-233.348l-3.005-26.74Z" transform="translate(-1320.722 -812.347)" fill="#562d04"/>
                <path id="Trazado_8196" data-name="Trazado 8196" d="M1253.793,1090.443s8.882,210.331,11.285,246.864l18.156.372s13.772-200.878,11.649-233.2l3.4-26.693Z" transform="translate(-1209.264 -813.127)" fill="#562d04"/>
                <path id="Trazado_8197" data-name="Trazado 8197" d="M1410.736,1116.479l-4.564,33.172a25.131,25.131,0,0,1-6.355.037l-.2-34.606Z" transform="translate(-1314.201 -839.966)" fill="#442204"/>
                <path id="Trazado_8198" data-name="Trazado 8198" d="M1411.364,1114.07l-4.253,33.092a16.216,16.216,0,0,1-5.1-.068l.458-34.6Z" transform="translate(-1315.928 -838.102)" fill="#66300c" opacity="0.19"/>
                <path id="Trazado_8199" data-name="Trazado 8199" d="M1492.9,1137.877l.125,21.366,8.268,9.286,10.555-4.844,1.448-22.663Z" transform="translate(-1381.333 -856.371)" fill="#442204"/>
                <path id="Trazado_8200" data-name="Trazado 8200" d="M1275.181,1138.841l.125,21.366-8.16,9.382-11.312-5.505-1.01-21.861Z" transform="translate(-1210.005 -857.064)" fill="#442204"/>
                <path id="Trazado_8201" data-name="Trazado 8201" d="M1383.6,548.238l-34.385.051,17.631,24.944Z" transform="translate(-1277.929 -432.054)" fill="#bc6226"/>
                <path id="Trazado_8202" data-name="Trazado 8202" d="M1210.028,689.965,1195.107,641.8c-5.686-5.961-9.238-20.173-9.238-20.173s-8.633-15.432,7.8-21.807l27.779-6.834,42.849-.63,37.638,5.767c16.6,5.93,8.391,21.59,8.391,21.59s-6.653,14.581-12.175,20.694l-14.29,48.247s-3.5,19.9-38,21.233S1213.354,695.841,1210.028,689.965Z" transform="translate(-1158.754 -463.801)" fill="#f9b180"/>
                <path id="Trazado_8203" data-name="Trazado 8203" d="M1266.955,601.747l42.985-6.162s10.306-25.555-58.014-27.062-71.28,18.454-70.75,25.45S1266.955,601.747,1266.955,601.747Z" transform="translate(-1156.975 -446.594)" fill="#eda97c"/>
                <path id="Trazado_8204" data-name="Trazado 8204" d="M1363.414,509.557l.108,18.534,26.438.414.258-19.69Z" transform="translate(-1288.15 -403.683)" fill="#eda97c"/>
                <path id="Trazado_8205" data-name="Trazado 8205" d="M1363.468,518.848s17.738,4.576,26.606,1l.145-11.039-26.8.743Z" transform="translate(-1288.15 -403.683)" fill="#d18f62" opacity="0.8"/>
                <path id="Trazado_8206" data-name="Trazado 8206" d="M1296.694,246.129l-.02-15.667-.038-29.871s2.9-21.662,36.3-20.92,31.739,29.939,31.739,29.939l-.168.038-1.973,40.878a14.243,14.243,0,0,1-5.8,12.651l-11.664,9.518c-16.621,13.266-28.823,2.405-28.823,2.405l-9.173-7.346A25.323,25.323,0,0,1,1296.694,246.129Z" transform="translate(-1240.095 -166.812)" fill="#eda97c"/>
                <path id="Trazado_8207" data-name="Trazado 8207" d="M1275.853,730.39l-.346-59.292c-.054-9.38,7.422-49.015,7.422-49.015a35.511,35.511,0,0,0,16.214-32.932c-1.548-22.928-51.054-26.1-51.054-26.1l-5.174,8.07-11.607,12.508-16.76-19.205-.21-1.737s-52.063,4.319-53.4,27.264,17.231,32.737,17.231,32.737,9.7,39.252,9.75,48.632-3.63,60.309-3.63,60.309S1223.085,740.552,1275.853,730.39Z" transform="translate(-1142.397 -442.455)" fill="#f09521"/>
                <path id="Trazado_8208" data-name="Trazado 8208" d="M1212.116,623.078s14.729,18.291,32.428,20.984c33.635,5.118,54.284,4.952,54.284,4.952s-26.562,22.258-34.141,38.109-11.309,91.586-11.309,91.586-21.157.06-32.21-3.62c0,0,4.467-52.844,3.629-60.309s-9.172-50.873-9.172-50.873S1229.621,641.434,1212.116,623.078Z" transform="translate(-1179.272 -485.91)" fill="#e28520" opacity="0.52"/>
                <path id="Trazado_8209" data-name="Trazado 8209" d="M1406.054,619.825l-1.795,38.656-3.958-1.542-3.349.759-.015-37.82,4.25,4.87Z" transform="translate(-1312.274 -483.57)" fill="#f9aa53"/>
                <g id="Grupo_3776" data-name="Grupo 3776" transform="translate(97.786 50.533)">
                  <path id="Trazado_8210" data-name="Trazado 8210" d="M1443.739,318.7a4.849,4.849,0,1,0,4.816-4.61A4.718,4.718,0,0,0,1443.739,318.7Z" transform="translate(-1443.739 -314.088)" fill="#282322"/>
                  <path id="Trazado_8211" data-name="Trazado 8211" d="M1451.319,324.074a1.265,1.265,0,0,0,.027,1.706c.621.681-.385,1.705-1.009,1.021a2.677,2.677,0,0,1-.262-3.444.743.743,0,0,1,.981-.263.721.721,0,0,1,.263.98Z" transform="translate(-1447.931 -320.501)" fill="#fff"/>
                </g>
                <g id="Grupo_3777" data-name="Grupo 3777" transform="translate(68.441 50.704)">
                  <path id="Trazado_8212" data-name="Trazado 8212" d="M1339.077,319.306a4.849,4.849,0,1,0,4.816-4.61A4.717,4.717,0,0,0,1339.077,319.306Z" transform="translate(-1339.077 -314.697)" fill="#282322"/>
                  <path id="Trazado_8213" data-name="Trazado 8213" d="M1346.657,324.683a1.264,1.264,0,0,0,.027,1.706c.621.681-.385,1.7-1.009,1.021a2.677,2.677,0,0,1-.262-3.444.743.743,0,0,1,.981-.263.722.722,0,0,1,.263.981Z" transform="translate(-1343.269 -321.11)" fill="#fff"/>
                </g>
                <path id="Trazado_8214" data-name="Trazado 8214" d="M1593.76,620.722s-17.179,18.332-4.041,34.557C1589.719,655.279,1580.341,640.394,1593.76,620.722Z" transform="translate(-1447.443 -484.215)" fill="#d07328"/>
                <g id="Grupo_3778" data-name="Grupo 3778" transform="translate(86.635 147.257)">
                  <path id="Trazado_8215" data-name="Trazado 8215" d="M1403.97,661.09a2.016,2.016,0,1,0,2-2.027A2.016,2.016,0,0,0,1403.97,661.09Z" transform="translate(-1403.97 -659.063)" fill="#d07328"/>
                  <circle id="Elipse_537" data-name="Elipse 537" cx="0.481" cy="0.481" r="0.481" transform="matrix(1, -0.006, 0.006, 1, 2.203, 0.919)" fill="#f09521"/>
                  <circle id="Elipse_538" data-name="Elipse 538" cx="0.481" cy="0.481" r="0.481" transform="translate(2.21 2.116) rotate(-0.334)" fill="#f09521"/>
                  <circle id="Elipse_539" data-name="Elipse 539" cx="0.48" cy="0.48" r="0.48" transform="translate(0.905 0.927) rotate(-0.334)" fill="#f09521"/>
                  <circle id="Elipse_540" data-name="Elipse 540" cx="0.48" cy="0.48" r="0.48" transform="matrix(1, -0.006, 0.006, 1, 0.912, 2.124)" fill="#f09521"/>
                </g>
                <g id="Grupo_3779" data-name="Grupo 3779" transform="translate(86.684 155.55)">
                  <path id="Trazado_8216" data-name="Trazado 8216" d="M1404.143,690.669a2.016,2.016,0,1,0,2-2.027A2.016,2.016,0,0,0,1404.143,690.669Z" transform="translate(-1404.143 -688.642)" fill="#d07328"/>
                  <circle id="Elipse_541" data-name="Elipse 541" cx="0.481" cy="0.481" r="0.481" transform="matrix(1, -0.006, 0.006, 1, 2.203, 0.918)" fill="#f09521"/>
                  <circle id="Elipse_542" data-name="Elipse 542" cx="0.481" cy="0.481" r="0.481" transform="translate(2.21 2.115) rotate(-0.334)" fill="#f09521"/>
                  <circle id="Elipse_543" data-name="Elipse 543" cx="0.48" cy="0.48" r="0.48" transform="translate(0.905 0.927) rotate(-0.334)" fill="#f09521"/>
                  <circle id="Elipse_544" data-name="Elipse 544" cx="0.48" cy="0.48" r="0.48" transform="translate(0.912 2.124) rotate(-0.334)" fill="#f09521"/>
                </g>
                <g id="Grupo_3780" data-name="Grupo 3780" transform="translate(86.732 163.843)">
                  <path id="Trazado_8217" data-name="Trazado 8217" d="M1404.315,720.247a2.016,2.016,0,1,0,2-2.027A2.016,2.016,0,0,0,1404.315,720.247Z" transform="translate(-1404.315 -718.22)" fill="#d07328"/>
                  <circle id="Elipse_545" data-name="Elipse 545" cx="0.481" cy="0.481" r="0.481" transform="translate(2.203 0.919) rotate(-0.334)" fill="#f09521"/>
                  <circle id="Elipse_546" data-name="Elipse 546" cx="0.481" cy="0.481" r="0.481" transform="matrix(1, -0.006, 0.006, 1, 2.21, 2.116)" fill="#f09521"/>
                  <circle id="Elipse_547" data-name="Elipse 547" cx="0.48" cy="0.48" r="0.48" transform="translate(0.905 0.927) rotate(-0.334)" fill="#f09521"/>
                  <circle id="Elipse_548" data-name="Elipse 548" cx="0.48" cy="0.48" r="0.48" transform="translate(0.912 2.124) rotate(-0.334)" fill="#f09521"/>
                </g>
                <g id="Grupo_3782" data-name="Grupo 3782" transform="translate(79.655 85.439)">
                  <g id="Grupo_3781" data-name="Grupo 3781" transform="translate(0 2.028)">
                    <path id="Trazado_8218" data-name="Trazado 8218" d="M1397.178,459.66a4.6,4.6,0,0,1-4.463-.238S1394.881,461.751,1397.178,459.66Z" transform="translate(-1388.89 -455.608)" fill="#f29fa0"/>
                    <path id="Trazado_8219" data-name="Trazado 8219" d="M1379.729,445.819s-.681.128-.435.673C1379.295,446.491,1378.576,445.806,1379.729,445.819Z" transform="translate(-1379.073 -445.818)" fill="#e69f73"/>
                  </g>
                  <path id="Trazado_8220" data-name="Trazado 8220" d="M1426.8,440.976s1.253-3.045-1.15-2.265C1425.653,438.712,1427.343,438.6,1426.8,440.976Z" transform="translate(-1412.593 -438.584)" fill="#3a3a3a"/>
                  <path id="Trazado_8221" data-name="Trazado 8221" d="M1395.128,440.34s-7.005,7.452-13.781,1.825c0,0,4.538,4.2,13.188-2.141Z" transform="translate(-1380.71 -439.62)" fill="#3a3a3a"/>
                </g>
                <path id="Trazado_8222" data-name="Trazado 8222" d="M1344.549,579.325l8.663-5.962-17.631-24.944-5.31,12.03Z" transform="translate(-1264.299 -432.184)" fill="#d07328"/>
                <path id="Trazado_8223" data-name="Trazado 8223" d="M1420.341,579.282l-8.247-6.05,16.754-24.994,6.522,10.947Z" transform="translate(-1323.181 -432.054)" fill="#d07328"/>
                <path id="Trazado_8224" data-name="Trazado 8224" d="M1370.241,420.5a6.011,6.011,0,0,1,.656,3.34c.427,13.363-.346,13.406-4.52,13.179-2.42-.131-3.193-1.891-3.043-3.73s.186-4.96.186-4.96l-8.682.475s1.243,6.861.575,7.855-3.875,2.427-5.653.811c-1.8-1.635-3.992-11.724-2.556-15.036a10.621,10.621,0,0,1,1.065-1.959,5.842,5.842,0,0,1,4.54-1.48c2.715.338,4.178,1.853,6.633,1.82s3.154-1.332,4.919-1.933S1369.526,419.093,1370.241,420.5ZM1345.269,443.3s2.587,6.349,12.159,6.713a65.927,65.927,0,0,0,11.815-.779c3.751-.636,6.2-6.783,6.23-6.885,3.405-10.671,1.4-22.782-1.393-26.654s-9.474-2-11.008-1.675a33.071,33.071,0,0,1-10.419.1c-9.07-1.149-10.291,8.345-10.291,8.345S1339.693,433.754,1345.269,443.3Z" transform="translate(-1272.541 -334.936)" fill="#161311"/>
                <path id="Trazado_8225" data-name="Trazado 8225" d="M1295.951,261.646a62.839,62.839,0,0,1-.083-14.242c.917-6.476-2.112-16.617-.142-24.384,0,0-5.6,4.475-5.874,11.372s1.1,20.846,1.1,20.846l.7,9.834S1294.062,265.186,1295.951,261.646Z" transform="translate(-1235.186 -198.02)" fill="#161311"/>
                <path id="Trazado_8226" data-name="Trazado 8226" d="M1519.059,260.434a62.819,62.819,0,0,0-.083-14.242c-.992-6.465,1.918-16.64-.142-24.384,0,0,5.648,4.41,6.006,11.3s-.86,20.858-.86,20.858l-.581,9.842S1520.989,263.951,1519.059,260.434Z" transform="translate(-1399.942 -197.148)" fill="#161311"/>
                <path id="Trazado_8227" data-name="Trazado 8227" d="M1360.155,200.742l-6.092,2.99s1.725-15.375-7.227-16.808-16.008,2.851-28.5.166-22.616-.327-22.306,9.238c.667,20.532-5.737,11.463-5.737,11.463s-1.514-17.56,1.168-23.3S1308.492,165.812,1331,169.5,1362.306,185.348,1360.155,200.742Z" transform="translate(-1235.224 -159.037)" fill="#161311"/>
                <g id="Grupo_3783" data-name="Grupo 3783" transform="translate(109.032 172.435)">
                  <path id="Trazado_8228" data-name="Trazado 8228" d="M1498.26,748.865l-14.411,1.789,2.519,1.419Z" transform="translate(-1483.85 -748.865)" fill="#fff"/>
                  <path id="Trazado_8229" data-name="Trazado 8229" d="M1496.869,753.019l3.092,4.613,7.669-8.767Z" transform="translate(-1493.218 -748.865)" fill="#fff"/>
                </g>
                <path id="Trazado_8230" data-name="Trazado 8230" d="M1335.133,158.515s3.229-7.847.871-11.987-17.911-10.414-40.266-8.374-26.825-4.3-26.825-4.3,1.292,6.993,5.964,7.815c0,0-6.78,1.524-9.335-.158,0,0,.968,5.723,6.869,6.325,0,0-8.1.684-8.922,5.355,0,0,5.165-2.151,8.957.584s17.581,7.918,32.24,8.914S1335.133,158.515,1335.133,158.515Z" transform="translate(-1216.242 -133.855)" fill="#161311"/>
                <path id="Trazado_8231" data-name="Trazado 8231" d="M1498.891,207.758l7.068-3.734s9.63,2.083,8.732,10.279a254.28,254.28,0,0,1-5.012,26.868S1510.561,208.115,1498.891,207.758Z" transform="translate(-1385.642 -184.351)" fill="#161311"/>
                <path id="Trazado_8232" data-name="Trazado 8232" d="M1292.145,205.236s-7.207,2.235-8.76,5.667c-2.139,4.727,2.54,31.538,2.54,31.538S1288.664,209.625,1292.145,205.236Z" transform="translate(-1230.156 -185.222)" fill="#161311"/>
                <path id="Trazado_8233" data-name="Trazado 8233" d="M1444.527,279.7s14.348-.614,16.386,3.193c0,0,.717-4.483-2.689-6.414s-11.556-2.1-11.556-2.1S1443.417,276.632,1444.527,279.7Z" transform="translate(-1346.354 -234.984)" fill="#161311"/>
                <path id="Trazado_8234" data-name="Trazado 8234" d="M1339.906,280.151s-13.186-.453-15.015,3.376c0,0-.708-4.475,2.4-6.443s10.591-2.224,10.591-2.224S1340.892,277.069,1339.906,280.151Z" transform="translate(-1260.378 -235.325)" fill="#161311"/>
                <g id="Grupo_3784" data-name="Grupo 3784" transform="translate(50.349 48.071)">
                  <path id="Trazado_8235" data-name="Trazado 8235" d="M1301.4,312.182c-3.54.077-11.132.693-12.145,3.155s-.058,9.708,1.557,12.383,2.766,4.381,9.052,5.029,9.815-1.256,11.794-4.694,4-9.96,1.7-12.687S1304.992,312.1,1301.4,312.182Z" transform="translate(-1284.829 -310.249)" fill="#231f20"/>
                  <path id="Trazado_8236" data-name="Trazado 8236" d="M1296.507,307.108l-11.486,18.281a11.19,11.19,0,0,0,6.947,3.691l12.185-20.527S1303.437,307,1296.507,307.108Z" transform="translate(-1282.086 -306.599)" opacity="0.41" fill="url(#linear-gradient-5)"/>
                  <path id="Trazado_8237" data-name="Trazado 8237" d="M1327.186,312.617l-12,20.611s-.564.24,3.752.685l11.975-19.635S1329.994,313.181,1327.186,312.617Z" transform="translate(-1303.778 -310.567)" opacity="0.41" fill="url(#linear-gradient-6)"/>
                  <path id="Trazado_8238" data-name="Trazado 8238" d="M1423.134,311.482c-3.6-.036-9.647.57-11.916,3.324s-.174,9.252,1.844,12.667,5.57,5.278,11.847,4.557,7.409-2.442,8.992-5.135,2.455-9.951,1.413-12.4S1426.675,311.518,1423.134,311.482Z" transform="translate(-1372.192 -309.749)" fill="#231f20"/>
                  <path id="Trazado_8239" data-name="Trazado 8239" d="M1427.855,306.343l-11.486,18.282a11.19,11.19,0,0,0,6.947,3.691L1435.5,307.79S1434.785,306.232,1427.855,306.343Z" transform="translate(-1376.607 -306.048)" opacity="0.41" fill="url(#linear-gradient-7)"/>
                  <path id="Trazado_8240" data-name="Trazado 8240" d="M1458.534,311.852l-12,20.611s-.564.241,3.752.686l11.975-19.635S1461.342,312.416,1458.534,311.852Z" transform="translate(-1398.299 -310.017)" opacity="0.41" fill="url(#linear-gradient-8)"/>
                  <path id="Trazado_8241" data-name="Trazado 8241" d="M1318.892,305.878a47.305,47.305,0,0,1-21.167.123c-4.574-1.058-17.452-.7-23.173,3.619l.023,3.94s1.465-.18,2.286,3.527,2.671,9.236,7.136,10.98,12.313,1.984,16.064-1.122,4.737-7.451,5.35-9.91.646-4.23,2.93-4.243,2.336,1.757,2.979,4.208,1.681,6.786,5.468,9.847,11.637,2.731,16.08.935,6.239-7.346,7.017-11.062,2.263-3.554,2.263-3.554l-.023-3.94C1336.389,304.977,1323.453,304.767,1318.892,305.878Zm-17.517,17.234c-1.979,3.438-5.508,5.343-11.794,4.694s-7.437-2.355-9.052-5.029-2.57-9.921-1.557-12.383,8.605-3.077,12.145-3.154c3.6-.078,9.653.458,11.953,3.185S1303.354,319.674,1301.375,323.112Zm34.887-.66c-1.583,2.693-2.715,4.413-8.993,5.135s-9.828-1.142-11.847-4.557-4.112-9.912-1.844-12.667,8.318-3.36,11.916-3.324c3.54.036,11.139.564,12.181,3.013S1337.845,319.758,1336.262,322.452Z" transform="translate(-1274.552 -305.306)" fill="#1b1f30"/>
                  <path id="Trazado_8242" data-name="Trazado 8242" d="M1510.089,319.821l1.533-.533,7.139,3.382-.784,3.833-7.3-3.583Z" transform="translate(-1444.049 -315.368)" fill="#1b1f30"/>
                </g>
                <g id="Grupo_3785" data-name="Grupo 3785" transform="translate(67.214 61.533)">
                  <path id="Trazado_8243" data-name="Trazado 8243" d="M1339.786,359.939v0l.05.006c.1.008.2.013.3.024l.114.031c4.4.568,6.418-.522,6.678-.679a10.749,10.749,0,0,0,3.48-4.055c2.106-3.93,3.625-.741,3.7-.417s2.129,8.818-6.316,12.407-12,.378-12.629-1.235C1334.558,364.435,1333.526,359.484,1339.786,359.939Z" transform="translate(-1334.704 -353.318)" fill="#f59183"/>
                  <path id="Trazado_8244" data-name="Trazado 8244" d="M1335.169,374.786c.625,1.613,4.184,4.824,12.629,1.235a10.105,10.105,0,0,0,6.586-9.554,10.189,10.189,0,0,1-6.582,10.248c-8.445,3.589-12,.378-12.629-1.235a7,7,0,0,1-.458-2.766A7.317,7.317,0,0,0,1335.169,374.786Z" transform="translate(-1334.705 -362.78)" fill="#dd7f76"/>
                </g>
                <path id="Trazado_8245" data-name="Trazado 8245" d="M1212.116,623.078s17.392,18.131,4.443,34.508C1216.559,657.586,1225.764,642.593,1212.116,623.078Z" transform="translate(-1179.272 -485.91)" fill="#d07328"/>
                <path id="Trazado_8246" data-name="Trazado 8246" d="M1122.752,605.547l4.516-5.913s-50.333,29.553-25.319,57.021c11.5,12.633,28.8-7.378,28.8-7.378Z" transform="translate(-1094.976 -469.04)" fill="#f09521"/>
                <g id="Grupo_3787" data-name="Grupo 3787" transform="translate(95.084 161.245)">
                  <path id="Trazado_8247" data-name="Trazado 8247" d="M1436.953,749.007l14.493-3.258-3.188-8.881-14.157,2.36Z" transform="translate(-1434.102 -729.042)" fill="#eda97c"/>
                  <path id="Trazado_8248" data-name="Trazado 8248" d="M1493.428,767.23l-.708.909a1.335,1.335,0,0,0,.232,1.868l6.615,6a1.335,1.335,0,0,0,1.868-.232l1.526-1.958a1.335,1.335,0,0,0-.232-1.868L1495.3,767A1.335,1.335,0,0,0,1493.428,767.23Z" transform="translate(-1476.083 -750.523)" fill="#e28f56"/>
                  <g id="Grupo_3786" data-name="Grupo 3786" transform="translate(11.305)">
                    <path id="Trazado_8249" data-name="Trazado 8249" d="M1491.116,709.716c.164-.042,2.443-.743,2.612-.756,1.624-.118,2.287,1.192,2.519,2.734l4.315,12.233a2.891,2.891,0,0,1,.152,1.513,2.974,2.974,0,0,1-2.478,2.361l-18.7,1.427a3.232,3.232,0,0,1-1.794-.412c-1.755-.994-1.917-2.153-2.128-3.552l-.954-6.328c-.836-3.529.66-4.576,2.286-4.818Z" transform="translate(-1474.424 -708.954)" fill="#eda97c"/>
                  </g>
                </g>
                <path id="Trazado_8250" data-name="Trazado 8250" d="M1107.475,730.8s78.37-4.681,106.46-5.886c0,0,3.754,12.119,3.051,19.889,0,0-74.294,13.9-96.937,7.34S1107.475,730.8,1107.475,730.8Z" transform="translate(-1102.365 -559.197)" fill="#f09521"/>
                <path id="Trazado_8251" data-name="Trazado 8251" d="M1189.022,737.188s9-15.081,21-14.081,61.875,1.678,61.875,1.678l2.946,13.015Z" transform="translate(-1162.653 -557.86)" fill="#f09521"/>
                <path id="Trazado_8252" data-name="Trazado 8252" d="M1599.021,603.364l-3.955-5.633s49.772,29.273,24.759,56.741c-11.5,12.633-28.8-7.378-28.8-7.378Z" transform="translate(-1451.941 -467.671)" fill="#f09521"/>
                <g id="Grupo_3789" data-name="Grupo 3789" transform="translate(36.635 158.214)">
                  <path id="Trazado_8253" data-name="Trazado 8253" d="M1308.586,744.569l-14.493-3.258,3.188-8.881,14.157,2.36Z" transform="translate(-1274.9 -722.816)" fill="#eda97c"/>
                  <path id="Trazado_8254" data-name="Trazado 8254" d="M1284.352,709.523l-.659.945a1.335,1.335,0,0,1-1.853.33l-7.685-4.549a1.335,1.335,0,0,1-.33-1.853l1.421-2.037a1.335,1.335,0,0,1,1.853-.33l6.924,5.641A1.335,1.335,0,0,1,1284.352,709.523Z" transform="translate(-1260.143 -700.768)" fill="#d68a56"/>
                  <g id="Grupo_3788" data-name="Grupo 3788">
                    <path id="Trazado_8255" data-name="Trazado 8255" d="M1229.691,717.664c-.166-.031-2.528-.363-2.686-.423-1.521-.583-1.565-2.05-1.121-3.544l1.282-12.908a2.885,2.885,0,0,1,.5-1.434,2.973,2.973,0,0,1,3.245-1.087l17.538,6.64a3.232,3.232,0,0,1,1.45,1.134c1.168,1.645.823,2.763.42,4.12l-1.821,6.135c-.741,3.55-2.539,3.863-4.114,3.393Z" transform="translate(-1225.639 -698.141)" fill="#eda97c"/>
                  </g>
                </g>
                <path id="Trazado_8256" data-name="Trazado 8256" d="M1419.1,726.566s-12.625-.754-29.556-1.735c-3.476-2.8-7.843-5.029-12.7-4.624-7.444.62-29.446,1.116-45.09,1.4-7.484-.39-14.1-.716-19.111-.931,0,0-3.754,12.119-3.051,19.889,0,0,74.294,13.9,96.937,7.341S1419.1,726.566,1419.1,726.566Z" transform="translate(-1249.351 -555.772)" fill="#f09521"/>
                <path id="Trazado_8257" data-name="Trazado 8257" d="M1343.425,730.455c17.477.732,53.353-.684,61.26,4.417a53.117,53.117,0,0,0-13.122-10.153c-.389-.107-1.442-.963-3.783-1.975-3.116-1.563-.656-.221-2-.951-2.776-1.028-4.705-2.391-8.945-1.816-7.444.621-29.446,1.117-45.09,1.4-7.484-.39-14.1-.716-19.111-.931,0,0-3.754,12.119-3.051,19.889,0,0,5.8,1.085,14.652,2.507C1327.26,737.047,1333.074,730.022,1343.425,730.455Z" transform="translate(-1249.351 -555.544)" fill="#e58720"/>
                <path id="Trazado_8258" data-name="Trazado 8258" d="M1309.988,718.22s-3.951,14.257-4.889,22.078h-3.013s2.611-17.429,4.6-22.078Z" transform="translate(-1244.017 -554.377)" fill="#d07328"/>
              </g>
            </g>
          </g>
        </g>
      </g>
    </g>
  </g>
</svg>
