<svg xmlns="http://www.w3.org/2000/svg" xmlns:xlink="http://www.w3.org/1999/xlink" width="500" height="300" viewBox="0 0 500 300">
  <defs>
    <clipPath id="clip-path">
      <path id="Trazado_43021" data-name="Trazado 43021" d="M1242.8,1536.562H1040.059v201.151h.133c2.709,5.522,46.493,9.913,100.11,9.913s97.4-4.391,100.109-9.913h2.386Z" transform="translate(-1040.059 -1536.562)" fill="none"/>
    </clipPath>
  </defs>
  <g id="Grupo_40212" data-name="Grupo 40212" transform="translate(70 -27)">
    <g id="Grupo_34911" data-name="Grupo 34911">
      <rect id="Rectángulo_5507" data-name="Rectángulo 5507" width="500" height="300" transform="translate(-70 27)" fill="#fde375"/>
    </g>
    <g id="Grupo_40180" data-name="Grupo 40180" transform="translate(-954.245 -1452.524)">
      <path id="Trazado_42812" data-name="Trazado 42812" d="M1350.025,1849.353s-.668-12.184-45.47-14.4C1304.555,1834.952,1350.087,1834.3,1350.025,1849.353Z" transform="translate(-106.69 -112.368)" fill="#ebbe02"/>
      <g id="Grupo_40179" data-name="Grupo 40179" transform="translate(1032.974 1536.562)">
        <g id="Grupo_40178" data-name="Grupo 40178" transform="translate(0)" clip-path="url(#clip-path)">
          <g id="Grupo_40177" data-name="Grupo 40177" transform="translate(0 4.11)">
            <ellipse id="Elipse_1085" data-name="Elipse 1085" cx="100.243" cy="10.456" rx="100.243" ry="10.456" transform="translate(0 186.042)" fill="#241c6b"/>
            <ellipse id="Elipse_1086" data-name="Elipse 1086" cx="100.243" cy="10.456" rx="100.243" ry="10.456" transform="translate(0 186.042)" fill="#241c6b" opacity="0.33" style="mix-blend-mode: multiply;isolation: isolate"/>
            <path id="Trazado_42813" data-name="Trazado 42813" d="M1227.131,1857.263c8.53-1.538,13.414-3.323,13.414-5.228,0-5.775-44.88-10.455-100.243-10.455s-100.243,4.681-100.243,10.455c0,1.9,4.885,3.69,13.414,5.228,17.333-3.125,49.725-5.228,86.829-5.228S1209.8,1854.138,1227.131,1857.263Z" transform="translate(-1040.059 -1655.537)" fill="#241c6b"/>
            <g id="Grupo_40152" data-name="Grupo 40152" transform="translate(67.208)">
              <path id="Trazado_42814" data-name="Trazado 42814" d="M1183.468,1722.558s13.981.284,25.744-.63l.547,11.2a113.643,113.643,0,0,1-24.965.388Z" transform="translate(-1161.273 -1610.478)" fill="#a57758"/>
              <path id="Trazado_42815" data-name="Trazado 42815" d="M1188.536,1726.822s9.522-3.272,17.086,1.541l.225-6.771-17.428.427Z" transform="translate(-1163.137 -1610.352)" fill="#876148" opacity="0.58"/>
              <path id="Trazado_42816" data-name="Trazado 42816" d="M1185.081,1639.9s.229-1.632,5.679-2.04a45.794,45.794,0,0,1,9.83.014c1.318.223,2.936.673,2.978,1.574s-1.9,1.829-1.9,1.829l-1.443,2.7-12.076.609S1184.944,1642.271,1185.081,1639.9Z" transform="translate(-1161.878 -1578.73)" fill="#006070"/>
              <path id="Trazado_42817" data-name="Trazado 42817" d="M1179.982,1646s13.375-3.228,26.186,1.005c0,0-6.653,6.433-14.564,6.627S1179.982,1646,1179.982,1646Z" transform="translate(-1159.96 -1581.44)" fill="#a57758"/>
              <path id="Trazado_42818" data-name="Trazado 42818" d="M1176.972,1695.3s9.62,2.15,30.664-.751c0,0,3.667-27.955-5.7-44.075,0,0-8.079,3.986-19.659.56C1182.276,1651.032,1171.345,1666.625,1176.972,1695.3Z" transform="translate(-1158.22 -1583.569)" fill="#fccc05"/>
              <path id="Trazado_42819" data-name="Trazado 42819" d="M1203.839,1650.472a13.493,13.493,0,0,1-1.469.578l-2.493,1.439-1.491-.459c-.276.046-.562.088-.855.127.783,3,4.519,21.1-17.112,28.8l3.244,14.911c.652.046,1.372.087,2.161.119l23.716-1.444S1213.207,1666.592,1203.839,1650.472Z" transform="translate(-1160.124 -1583.569)" fill="#dbb100" opacity="0.5"/>
              <path id="Trazado_42820" data-name="Trazado 42820" d="M1184.856,1719.54s15.287,1.219,27.359-1.689l.185,3.888s-16.132,1.283-27.473.673Z" transform="translate(-1161.795 -1608.943)" fill="#6d31fd"/>
              <path id="Trazado_42821" data-name="Trazado 42821" d="M1188.671,1649.651s8.194,2.929,18.677-.812l.973,1.623s-5.57,4.07-19.409,1.757Z" transform="translate(-1163.232 -1582.954)" fill="#6d31fd"/>
              <path id="Trazado_42822" data-name="Trazado 42822" d="M1202.454,1642.986l-2.907-.678-5.224.877-.246-10.057,8.131-.2Z" transform="translate(-1165.268 -1576.963)" fill="#a57758"/>
              <path id="Trazado_42823" data-name="Trazado 42823" d="M1194.14,1635.684l8.131-.2.051,2.063-8.043,3.764Z" transform="translate(-1165.291 -1577.925)" fill="#876148"/>
              <g id="Grupo_40144" data-name="Grupo 40144" transform="translate(13.616)">
                <path id="Trazado_42824" data-name="Trazado 42824" d="M1171.716,1618.307s-1.122,2.729-.347,4.626c0,0,.006.571,1.753.216,0,0-1.293.314-.489-4.259Z" transform="translate(-1170.23 -1571.456)" fill="#dbb100"/>
                <circle id="Elipse_1087" data-name="Elipse 1087" cx="3.17" cy="3.17" r="3.17" transform="translate(31.012 41.177)" fill="#a57758"/>
                <circle id="Elipse_1088" data-name="Elipse 1088" cx="3.17" cy="3.17" r="3.17" transform="translate(0.256 41.631)" fill="#a57758"/>
                <path id="Trazado_42825" data-name="Trazado 42825" d="M1218,1577.92l.019,2.6s3.691,2.262,10.074.957,13.214-4.173,11.735-8.576S1218,1577.92,1218,1577.92Z" transform="translate(-1187.894 -1553.914)" fill="#e00b71"/>
                <path id="Trazado_42826" data-name="Trazado 42826" d="M1209.049,1568.1l-.764.06s-5.141-4.046-4.063-10.473,4.62-12.9,9.074-11.58S1209.049,1568.1,1209.049,1568.1Z" transform="translate(-1182.649 -1544.2)" fill="#e00b71"/>
                <path id="Trazado_42827" data-name="Trazado 42827" d="M1208.611,1565.988s-5.757-6.58.413-16.216,12.818-6.259,13.969-5.05c0,0,4.94-.95,5.731,3.079,0,0,.648,5.238-.328,7.114s-16.8,13.715-16.8,13.715Z" transform="translate(-1183.438 -1543.155)" fill="#f80a73"/>
                <path id="Trazado_42828" data-name="Trazado 42828" d="M1212.327,1568.836s15.277-20.436,21.148-19.032,2.415,7.551,2.415,7.551,3.676,3.137,1.8,7.261-9.758,8.3-21.81,7.619Z" transform="translate(-1185.757 -1545.633)" fill="#fc4c96"/>
                <path id="Trazado_42829" data-name="Trazado 42829" d="M1213.3,1565.413a4.587,4.587,0,0,0,.279-.772c.614-1.219,2.313-7.676,11.23-17.76l1.733-1.615a.35.35,0,0,0,0-.458c-.266-.307-.885-.724-2.145-.3-1.844.624-12.5,14.3-12.1,20.286C1212.3,1564.8,1212.17,1565.9,1213.3,1565.413Z" transform="translate(-1185.741 -1543.597)" fill="#e00b71"/>
                <path id="Trazado_42830" data-name="Trazado 42830" d="M1217.416,1572.849s19.2-11.367,20.861-12.652c.925-.715,1.893,1.293.7,2.406s-15.133,10.142-21.2,10.918Z" transform="translate(-1187.673 -1549.516)" fill="#e00b71"/>
                <path id="Trazado_42831" data-name="Trazado 42831" d="M1189.7,1570.165s8.8-5.721,14.881,3.509l1.282.11s-2.243-8.339-12.233-7.453a12.841,12.841,0,0,0-4.5,1.656Z" transform="translate(-1177.02 -1551.858)" fill="#bc0f65"/>
                <path id="Trazado_42832" data-name="Trazado 42832" d="M1219.219,1581.6s8.326.446,10.035,6.776.281,10.01.281,10.01a7.416,7.416,0,0,0,2.774-.02s3.57-18.245-12.77-18.361Z" transform="translate(-1188.352 -1557.032)" fill="#bc0f65"/>
                <path id="Trazado_42833" data-name="Trazado 42833" d="M1208.991,1579.035s-.022-3.045,3.586-2.361,5.384,4.02,3.839,6.214S1208.991,1579.035,1208.991,1579.035Z" transform="translate(-1184.5 -1555.74)" fill="#6d31fd"/>
                <path id="Trazado_42834" data-name="Trazado 42834" d="M1212.65,1576.675c-2.428-.46-3.211.767-3.464,1.62a3.558,3.558,0,0,1,2.333-.193c3.1.587,4.846,3.133,4.3,5.23a1.074,1.074,0,0,0,.675-.443C1218.035,1580.694,1216.258,1577.358,1212.65,1576.675Z" transform="translate(-1184.574 -1555.74)" fill="#a176ff" opacity="0.5"/>
                <circle id="Elipse_1089" data-name="Elipse 1089" cx="15.343" cy="15.343" r="15.343" transform="translate(3.599 28.452)" fill="#a57758"/>
                <path id="Trazado_42835" data-name="Trazado 42835" d="M1175.566,1605.331l1.892-1.542s3.518-.331,5.489-1.751c0,0,9.535,1.043,14.193-.412,0,0,5.365,3.162,8.293,3.486l-.66-7.4-23.425-1.96-6.552,5.256Z" transform="translate(-1171.624 -1562.963)" fill="#876148" opacity="0.58"/>
                <path id="Trazado_42836" data-name="Trazado 42836" d="M1173.306,1600.132a13.621,13.621,0,0,0,.569-4.267s4.048-.546,5.959-2.843c0,0,7.5,1.8,13.592-1.013a12.6,12.6,0,0,0,7.88,1.921s.219,3.345,2.646,5c0,0,2.961-.578,3.047-6.668s-5.423-10.008-7.61-10.652a11.872,11.872,0,0,0-14.023-2.435s-9.361-.845-12.167,6.382C1173.2,1585.559,1165.271,1594.764,1173.306,1600.132Z" transform="translate(-1169.707 -1556.224)" fill="#f80a73"/>
                <path id="Trazado_42837" data-name="Trazado 42837" d="M1174.213,1591.086s.366,5.249,2.221,7.881a4.286,4.286,0,0,1,.577.966c0,.562-1.828.927-2.179.532-.593-.669-2.959-4.605-2.531-8.414,0,0,.137-1.712,1.09-1.949C1174.269,1589.883,1174.213,1591.086,1174.213,1591.086Z" transform="translate(-1170.665 -1560.824)" fill="#e00b71"/>
                <path id="Trazado_42838" data-name="Trazado 42838" d="M1189.91,1579.368a14.575,14.575,0,0,0-4.257,8.52c-.642,5.136-.137,5.834.765,5.76,1.014-.084,1.014-.7,1.471-3.6,1.042-6.63,2.789-7.593,5.451-11.426,0,0-.115-.257-1.438-.18A3.49,3.49,0,0,0,1189.91,1579.368Z" transform="translate(-1175.603 -1556.438)" fill="#e00b71"/>
                <path id="Trazado_42839" data-name="Trazado 42839" d="M1206.831,1578.477s-2.788,2.119-3.451,8.64c-.627,6.172.341,6.184.908,6.21,1.066.047,1.694-.238,1.742-1.231s-.594-8.394,2.851-12.581a.778.778,0,0,0-.16-1.052A1.4,1.4,0,0,0,1206.831,1578.477Z" transform="translate(-1182.311 -1556.312)" fill="#e00b71"/>
                <path id="Trazado_42840" data-name="Trazado 42840" d="M1218.02,1583.862a17.7,17.7,0,0,1,.238,12.194,2.187,2.187,0,0,0,1.677,1.91s3.3-4.716.73-12.683C1219.678,1582.22,1218.02,1583.862,1218.02,1583.862Z" transform="translate(-1187.901 -1558.319)" fill="#e00b71"/>
                <path id="Trazado_42841" data-name="Trazado 42841" d="M1196.532,1616.477l-.469-.6a3.981,3.981,0,0,1,4.755-.032l-.468.6A3.162,3.162,0,0,0,1196.532,1616.477Z" transform="translate(-1179.632 -1570.226)" fill="#fccc05"/>
                <path id="Trazado_42842" data-name="Trazado 42842" d="M1173.249,1614.291a.976.976,0,0,1,1.247.774c.211,1.05-.566,1.272-.925,1.231a.44.44,0,0,1-.146-.787c.312-.168.565.174.565.174A1.082,1.082,0,0,0,1173.249,1614.291Z" transform="translate(-1171.036 -1569.932)" fill="#876148"/>
                <path id="Trazado_42843" data-name="Trazado 42843" d="M1225.985,1613.9a.977.977,0,0,0-1.236.793c-.2,1.053.585,1.263.943,1.216a.441.441,0,0,0,.135-.789c-.314-.163-.563.183-.563.183A1.082,1.082,0,0,1,1225.985,1613.9Z" transform="translate(-1190.423 -1569.786)" fill="#876148"/>
                <rect id="Rectángulo_5579" data-name="Rectángulo 5579" width="0.763" height="3.165" transform="translate(3.333 43.061) rotate(-68.109)" fill="#fccc05"/>
                <rect id="Rectángulo_5580" data-name="Rectángulo 5580" width="3.165" height="0.763" transform="matrix(0.922, -0.386, 0.386, 0.922, 31.227, 43.352)" fill="#fccc05"/>
                <rect id="Rectángulo_5581" data-name="Rectángulo 5581" width="11.308" height="5.518" transform="translate(5.664 43.135) rotate(-0.421)" fill="#1e1e21"/>
                <path id="Trazado_42844" data-name="Trazado 42844" d="M1184.179,1612.281l4.832-.035-1.96,2.538,2.131-.016-1.8,3.007-4.415.032,1.954-3.379-1.979.015Z" transform="translate(-1174.689 -1569.173)" fill="#83838e"/>
                <rect id="Rectángulo_5582" data-name="Rectángulo 5582" width="11.308" height="5.518" transform="translate(20.473 43.027) rotate(-0.421)" fill="#1e1e21"/>
                <path id="Trazado_42845" data-name="Trazado 42845" d="M1208.353,1612.1l4.832-.036-1.96,2.538,2.131-.016-1.8,3.007-4.415.032,1.954-3.379-1.979.015Z" transform="translate(-1183.793 -1569.107)" fill="#83838e"/>
                <path id="Trazado_42846" data-name="Trazado 42846" d="M1173.975,1619.093c.193.915.719,3.968-.951,4.77a1.208,1.208,0,0,1-1.49-.75s1.812-.547,1.492-3.921c0,0-.068-.314.331-.393A.5.5,0,0,1,1173.975,1619.093Z" transform="translate(-1170.395 -1571.636)" fill="#fccc05"/>
                <path id="Trazado_42847" data-name="Trazado 42847" d="M1227.774,1612.778a.562.562,0,0,1,.3-.242c.413-.142,1.5-.494,1.7-.3a1.2,1.2,0,0,1,.167,1.257c-.169.266-1.249.207-1.757.164a.552.552,0,0,1-.507-.637A.736.736,0,0,1,1227.774,1612.778Z" transform="translate(-1191.535 -1569.148)" fill="#fccc05"/>
                <g id="Grupo_40143" data-name="Grupo 40143" transform="translate(15.603 51.973)">
                  <path id="Trazado_42848" data-name="Trazado 42848" d="M1194.734,1626.523l7.1.115s-.214,3.507-3.649,3.452S1194.734,1626.523,1194.734,1626.523Z" transform="translate(-1194.734 -1626.523)" fill="#1e1e21"/>
                  <path id="Trazado_42849" data-name="Trazado 42849" d="M1194.734,1626.523l7.1.115s-.214,3.507-3.649,3.452S1194.734,1626.523,1194.734,1626.523Z" transform="translate(-1194.734 -1626.523)" fill="#1e1e21"/>
                  <path id="Trazado_42850" data-name="Trazado 42850" d="M1198.835,1628.668a3.293,3.293,0,0,0-2.694,1.1,3.232,3.232,0,0,0,2.578,1.124,3.3,3.3,0,0,0,2.694-1.1A3.233,3.233,0,0,0,1198.835,1628.668Z" transform="translate(-1195.264 -1627.331)" fill="#ed1c24"/>
                  <path id="Trazado_42851" data-name="Trazado 42851" d="M1198.835,1628.668a3.293,3.293,0,0,0-2.694,1.1c.01.013.024.026.036.039a3.548,3.548,0,0,1,2.009-.514,3.239,3.239,0,0,1,2.542,1.085,3.086,3.086,0,0,0,.686-.59A3.233,3.233,0,0,0,1198.835,1628.668Z" transform="translate(-1195.264 -1627.331)" fill="#fc3a49"/>
                </g>
              </g>
              <g id="Grupo_40145" data-name="Grupo 40145" transform="translate(0 62.644)">
                <path id="Trazado_42852" data-name="Trazado 42852" d="M1174,1651.37s3.269,1.174,3.308,2.793-2.173,15.834-1.732,29.566a139.4,139.4,0,0,0,1.807,20.439c.134,1.2.706,3.222-1.207,4.053s-9.5,2.741-16.346.4c0,0-2.458-.1-4.364-5.379s-5.2-30.86,4.779-50.229Z" transform="translate(-1149.941 -1646.552)" fill="#2bbee0"/>
                <path id="Trazado_42853" data-name="Trazado 42853" d="M1188.216,1684.318c-.441-13.732,1.772-27.947,1.732-29.566a2.6,2.6,0,0,0-1.375-1.817,1.5,1.5,0,0,1,.067.4c.043,1.737-2.085,16.982-1.622,31.715a163.9,163.9,0,0,0,1.813,21.932c.051.49.164,1.108.181,1.736,1.676-.881,1.14-2.8,1.011-3.959A139.387,139.387,0,0,1,1188.216,1684.318Z" transform="translate(-1162.584 -1647.141)" fill="#c9ebf5"/>
                <path id="Trazado_42854" data-name="Trazado 42854" d="M1151.9,1670.187a14.916,14.916,0,0,1,4.887-1.814l11.877-13.276,4.517-5.467,2.259-4.823-2.824-1.166a62.812,62.812,0,0,0-16.643,3.678l-8.1,13.173Z" transform="translate(-1147.865 -1643.641)" fill="#2bbee0"/>
              </g>
              <path id="Trazado_42855" data-name="Trazado 42855" d="M1189.472,1638.137s-3.946,0-4.772,1.469,2.2,1.677,2.2,1.677a1.231,1.231,0,0,1,1.258,1.2c0,1.189-.248,4.291-.6,4.809a1.442,1.442,0,0,1-1.291.646,6.393,6.393,0,0,1-4.055-1.821,2.848,2.848,0,0,1-.57-1.946c-.062-1.488.808-4.392,1.638-5.174,1.263-1.19,3.555-1.5,6.181-1.521Z" transform="translate(-1160.582 -1578.676)" fill="#0e7992"/>
              <g id="Grupo_40146" data-name="Grupo 40146" transform="translate(38.632 62.237)">
                <path id="Trazado_42856" data-name="Trazado 42856" d="M1213.84,1650.652s-3.207,1.333-3.168,2.952,2.945,15.709,3.177,29.446a139.354,139.354,0,0,1-.8,20.5c-.075,1.2-.547,3.254,1.4,3.989s9.618,2.273,16.346-.4c0,0,2.451-.216,4.1-5.586s3.681-31.077-7.232-49.935Z" transform="translate(-1210.15 -1645.874)" fill="#2bbee0"/>
                <path id="Trazado_42857" data-name="Trazado 42857" d="M1213.85,1683.7c-.232-13.737-3.137-27.827-3.177-29.446a2.6,2.6,0,0,1,1.285-1.882,1.525,1.525,0,0,0-.047.4c.043,1.737,2.914,16.859,3.173,31.6a163.91,163.91,0,0,1-.738,21.995c-.027.492-.109,1.115-.1,1.742-1.717-.8-1.276-2.744-1.2-3.9A139.354,139.354,0,0,0,1213.85,1683.7Z" transform="translate(-1210.15 -1646.52)" fill="#c9ebf5"/>
                <path id="Trazado_42858" data-name="Trazado 42858" d="M1234.587,1668.488a14.909,14.909,0,0,0-4.97-1.573l-12.512-12.679-4.778-5.239-2.493-4.707,2.764-1.3a62.8,62.8,0,0,1,16.8,2.858l8.74,12.761Z" transform="translate(-1209.834 -1642.987)" fill="#2bbee0"/>
              </g>
              <path id="Trazado_42859" data-name="Trazado 42859" d="M1207.241,1637.863s2.988-.193,3.885,1.235-2.112,1.782-2.112,1.782a1.231,1.231,0,0,0-1.2,1.264c.055,1.188.458,4.274.835,4.774a1.441,1.441,0,0,0,1.32.582,6.392,6.392,0,0,0,3.961-2.017,2.846,2.846,0,0,0,.474-1.971c-.01-1.489-1.022-4.347-1.89-5.088-1.32-1.127-2.669-1.277-5.293-1.173Z" transform="translate(-1170.219 -1578.58)" fill="#0e7992"/>
              <g id="Grupo_40151" data-name="Grupo 40151" transform="translate(47.273 81.366)">
                <g id="Grupo_40150" data-name="Grupo 40150">
                  <g id="Grupo_40149" data-name="Grupo 40149">
                    <g id="Grupo_40147" data-name="Grupo 40147" transform="translate(2.392)">
                      <path id="Trazado_42860" data-name="Trazado 42860" d="M1231.655,1675.9a1.561,1.561,0,0,1,.054,2.2l-.111.117s1.277.941.679,1.895l.734-.771a3.356,3.356,0,1,0-4.861-4.629l-.111.117a1.531,1.531,0,0,0-.032,2.228l.206.2,1.176-1.235.064-.067a1.56,1.56,0,0,1,2.2-.054" transform="translate(-1227.531 -1673.672)" fill="#0e7992"/>
                    </g>
                    <g id="Grupo_40148" data-name="Grupo 40148" transform="translate(0 2.461)">
                      <path id="Trazado_42861" data-name="Trazado 42861" d="M1225.974,1681.833a1.561,1.561,0,0,1-.054-2.2l.111-.116s-1.278-.94-.679-1.894l-.734.771a3.356,3.356,0,0,0,4.861,4.629l.111-.117a1.532,1.532,0,0,0,.032-2.229l-.206-.2-1.176,1.235-.064.067a1.56,1.56,0,0,1-2.2.054" transform="translate(-1223.694 -1677.619)" fill="#0e7992"/>
                    </g>
                  </g>
                  <path id="Trazado_42862" data-name="Trazado 42862" d="M1230.428,1678.616l-1.818,1.909a.513.513,0,1,0,.743.707l1.818-1.909a.513.513,0,1,0-.743-.708Z" transform="translate(-1225.492 -1675.474)" fill="#0e7992"/>
                </g>
              </g>
              <path id="Trazado_42863" data-name="Trazado 42863" d="M1210.193,1720.665c.851-.472,2.29-1.769,3.378-5.319a25.821,25.821,0,0,0,.744-3.881c-.4-4.1-1.213-8.513-3.2-11.393-3.6-5.2-6.851-6.1-6.851-6.1a5.979,5.979,0,0,0-4.577-4.514c-3.886-.819-4.793.668-4.793.668s-14.629-7-24.927.937c-11.4,8.788-5.539,11.163-12.227,13.75a9.519,9.519,0,0,0-3.679,2.759,44.164,44.164,0,0,0,1.661,9.19c1.26,3.492,2.76,4.717,3.634,5.147a5.518,5.518,0,0,0-.319,2.191,10.751,10.751,0,0,0,.158,1.432l18.943-.988c0-.055,0-.11-.009-.165,0-.039-.01-.078-.014-.117-.01-.076-.019-.152-.033-.229-.006-.036-.015-.072-.022-.107-.016-.081-.033-.162-.053-.244-.007-.03-.016-.06-.024-.09-.023-.09-.046-.18-.073-.271l-.014-.047c-.128-.435-.289-.891-.444-1.385-.006-.019-.012-.037-.018-.057-.031-.1-.062-.2-.092-.307-.012-.041-.024-.081-.036-.123-.021-.073-.039-.149-.059-.224.024-.026.045-.054.067-.081s.054-.069.08-.1.061-.087.088-.131c.014-.024.029-.048.042-.072a113.832,113.832,0,0,0,14.67-.084c.008.009.018.017.026.026.023.026.046.052.071.077-.015.075-.031.153-.047.226-.01.043-.021.085-.031.127-.024.1-.049.208-.075.309-.006.02-.01.039-.016.059-.13.5-.267.961-.375,1.4,0,.017-.009.035-.012.052-.022.092-.041.182-.06.272-.006.031-.013.062-.019.092-.016.082-.028.164-.041.246-.006.036-.012.073-.017.109s-.009.094-.013.141l19.037-.992s0-.009,0-.013A5.524,5.524,0,0,0,1210.193,1720.665Z" transform="translate(-1150.197 -1597.428)" fill="#4f4f4f" opacity="0.28" style="mix-blend-mode: multiply;isolation: isolate"/>
            </g>
            <path id="Trazado_42864" data-name="Trazado 42864" d="M1241.213,1773.122l8.5-2.447s27.5,16.851,29.565,31.116l-17.069,2.39s-15.285-9.05-15.633-9.432S1241.213,1773.122,1241.213,1773.122Z" transform="translate(-1115.81 -1628.836)" fill="#6d31fd"/>
            <path id="Trazado_42865" data-name="Trazado 42865" d="M1152.007,1742.651s15.322-14.332,55.281-8.825c0,0,5.376,10.726,2.783,18.379-3.867,11.414-18.615,9.375-18.8,9.715-3.673,6.649-33.755-2.089-33.755-2.089Z" transform="translate(-1082.217 -1614.484)" fill="#f80a73"/>
            <g id="Grupo_40169" data-name="Grupo 40169" transform="translate(44.34 140.271)">
              <g id="Grupo_40153" data-name="Grupo 40153" transform="translate(67.755 144.55)">
                <path id="Trazado_42866" data-name="Trazado 42866" d="M1221.294,2009.061l1.292,9.464s-2.65,3.828-1.515,7.993l25.474,1.225.555-1.926-14.846-7.5.282-9.079-4.189-4.773-6.585.2Z" transform="translate(-1220.214 -2001.699)" fill="#f9cdaf"/>
                <path id="Trazado_42867" data-name="Trazado 42867" d="M1221.885,2013.622l10.251-1.556.116-8.48-12.155-3.56Z" transform="translate(-1219.953 -2000.026)" fill="#efbb97"/>
                <path id="Trazado_42868" data-name="Trazado 42868" d="M1220.613,2041.951l-.513.444a.886.886,0,0,0-.206.486l-.026.33c-.02.258.174.488.538.516l26.886.988a1.128,1.128,0,0,0,1.172-1.3c0-.014-.005-.029-.008-.043a.453.453,0,0,0-.426-.355l-27.122-1.158A.459.459,0,0,0,1220.613,2041.951Z" transform="translate(-1219.867 -2015.78)" fill="#bc0f65"/>
                <path id="Trazado_42869" data-name="Trazado 42869" d="M1237.516,2037.022l-16.87-.784a5.386,5.386,0,0,0-.236,3.07l26.831,1.088s1.179.148,1.45-.873.406-1.764.406-1.764a1.343,1.343,0,0,0-.85-1.242c-.912-.437-5.395-2.886-5.395-2.886a11.465,11.465,0,0,0-1.568,3.582Z" transform="translate(-1220.023 -2012.681)" fill="#e00b71"/>
                <path id="Trazado_42870" data-name="Trazado 42870" d="M1250.918,2031.091s-3.25-1.981-3.851-2.2-.805.691-.411,1.088a1.018,1.018,0,0,0-.352,1.381s-.638.356-.272,1.417a1.057,1.057,0,0,0-.021,1.32s-.449.815.082,1.184,4.015.5,4.015.5S1250.416,2031.914,1250.918,2031.091Z" transform="translate(-1229.626 -2010.883)" fill="#910c55"/>
                <path id="Trazado_42871" data-name="Trazado 42871" d="M1252.789,2032.039a17.887,17.887,0,0,0-.81,4.692l2.34.18a21.19,21.19,0,0,1,.766-3.933s.263-.659-.024-.951a4.37,4.37,0,0,0-1.272-.523A.8.8,0,0,0,1252.789,2032.039Z" transform="translate(-1231.96 -2011.868)" fill="#f80a73"/>
                <path id="Trazado_42872" data-name="Trazado 42872" d="M1254.081,2032.709a16.287,16.287,0,0,0-.8,3.934l.767.059a15.889,15.889,0,0,1,.783-3.78Z" transform="translate(-1232.452 -2012.334)" fill="#e00b71"/>
                <path id="Trazado_42873" data-name="Trazado 42873" d="M1247.931,2030.959l2.672,1.258A5.787,5.787,0,0,0,1247.931,2030.959Z" transform="translate(-1230.435 -2011.675)" fill="#bc0f65"/>
                <path id="Trazado_42874" data-name="Trazado 42874" d="M1247.459,2033.039l2.609.785A3.981,3.981,0,0,0,1247.459,2033.039Z" transform="translate(-1230.258 -2012.458)" fill="#bc0f65"/>
                <path id="Trazado_42875" data-name="Trazado 42875" d="M1247.012,2035.234l2.662.582A3.981,3.981,0,0,0,1247.012,2035.234Z" transform="translate(-1230.089 -2013.278)" fill="#bc0f65"/>
                <path id="Trazado_42876" data-name="Trazado 42876" d="M1246.907,2037.366l2.7.392A3.979,3.979,0,0,0,1246.907,2037.366Z" transform="translate(-1230.05 -2014.064)" fill="#bc0f65"/>
                <path id="Trazado_42877" data-name="Trazado 42877" d="M1230.319,2023.268l.224,3.105A4.179,4.179,0,0,0,1230.319,2023.268Z" transform="translate(-1223.803 -2008.779)" fill="#efbb97"/>
              </g>
              <g id="Grupo_40154" data-name="Grupo 40154" transform="translate(17.164 144.104)">
                <path id="Trazado_42878" data-name="Trazado 42878" d="M1168.788,2008.09l-1.7,9.4s2.483,3.939,1.17,8.05l-25.5.13-.472-1.948,15.154-6.851.108-9.083,4.39-4.59,6.571.479Z" transform="translate(-1140.061 -2000.776)" fill="#f9cdaf"/>
                <path id="Trazado_42879" data-name="Trazado 42879" d="M1176.857,2012.818l-10.175-1.995.248-8.477,12.3-3.035Z" transform="translate(-1149.248 -1999.312)" fill="#efbb97"/>
                <path id="Trazado_42880" data-name="Trazado 42880" d="M1167.175,2041.145l.494.465a.894.894,0,0,1,.185.494l.011.332c.009.258-.195.48-.56.492l-26.9-.167a1.129,1.129,0,0,1-1.115-1.349c0-.014.007-.029.01-.043a.453.453,0,0,1,.441-.336l27.147.007A.457.457,0,0,1,1167.175,2041.145Z" transform="translate(-1138.921 -2015.024)" fill="#bc0f65"/>
                <path id="Trazado_42881" data-name="Trazado 42881" d="M1150.318,2034.94l16.888-.059a5.384,5.384,0,0,1,.1,3.078l-26.853-.066s-1.184.1-1.411-.934-.33-1.78-.33-1.78a1.345,1.345,0,0,1,.9-1.205c.93-.4,5.514-2.651,5.514-2.651a11.46,11.46,0,0,1,1.413,3.646Z" transform="translate(-1138.716 -2011.367)" fill="#e00b71"/>
                <path id="Trazado_42882" data-name="Trazado 42882" d="M1151.521,2029s3.332-1.84,3.941-2.034.776.724.365,1.1a1.019,1.019,0,0,1,.293,1.4s.622.383.211,1.427a1.056,1.056,0,0,1-.036,1.32s.413.833-.133,1.179-4.032.329-4.032.329S1151.987,2029.84,1151.521,2029Z" transform="translate(-1143.538 -2009.714)" fill="#910c55"/>
                <path id="Trazado_42883" data-name="Trazado 42883" d="M1150.8,2029.851a17.9,17.9,0,0,1,.608,4.722l-2.346.08a21.167,21.167,0,0,0-.6-3.962s-.234-.67.064-.949a4.385,4.385,0,0,1,1.294-.468A.8.8,0,0,1,1150.8,2029.851Z" transform="translate(-1142.355 -2010.585)" fill="#f80a73"/>
                <path id="Trazado_42884" data-name="Trazado 42884" d="M1150.509,2030.485a16.291,16.291,0,0,1,.625,3.964l-.769.026a15.918,15.918,0,0,0-.62-3.81Z" transform="translate(-1142.869 -2011.051)" fill="#e00b71"/>
                <path id="Trazado_42885" data-name="Trazado 42885" d="M1156.023,2029.021l-2.724,1.142A5.79,5.79,0,0,1,1156.023,2029.021Z" transform="translate(-1144.208 -2010.5)" fill="#bc0f65"/>
                <path id="Trazado_42886" data-name="Trazado 42886" d="M1156.456,2031.116l-2.641.672A3.982,3.982,0,0,1,1156.456,2031.116Z" transform="translate(-1144.402 -2011.286)" fill="#bc0f65"/>
                <path id="Trazado_42887" data-name="Trazado 42887" d="M1156.781,2033.317l-2.684.467A3.98,3.98,0,0,1,1156.781,2033.317Z" transform="translate(-1144.508 -2012.102)" fill="#bc0f65"/>
                <path id="Trazado_42888" data-name="Trazado 42888" d="M1156.778,2035.443l-2.711.275A3.982,3.982,0,0,1,1156.778,2035.443Z" transform="translate(-1144.497 -2012.88)" fill="#bc0f65"/>
                <path id="Trazado_42889" data-name="Trazado 42889" d="M1175.288,2022.093l-.357,3.093A4.181,4.181,0,0,1,1175.288,2022.093Z" transform="translate(-1152.298 -2007.891)" fill="#efbb97"/>
              </g>
              <g id="Grupo_40155" data-name="Grupo 40155" transform="translate(59.01 69.56)">
                <path id="Trazado_42890" data-name="Trazado 42890" d="M1205.84,1884.129s7.073,72.214,6.994,80.63l5.746.123.862-3.882,1.4,3.931,9.662-.613-4.432-84.578Z" transform="translate(-1205.84 -1879.739)" fill="#006070"/>
                <path id="Trazado_42891" data-name="Trazado 42891" d="M1221.777,1898.138s2.866,37.335,4.183,64.464C1225.96,1962.6,1225.865,1926.547,1221.777,1898.138Z" transform="translate(-1211.842 -1886.668)" fill="#0e7992"/>
              </g>
              <g id="Grupo_40156" data-name="Grupo 40156" transform="translate(30.534 69.953)">
                <path id="Trazado_42892" data-name="Trazado 42892" d="M1184.628,1884.709s-6.9,72.231-6.8,80.646l-5.745.137-.872-3.88-1.386,3.934-9.664-.59,4.229-84.589Z" transform="translate(-1160.162 -1880.368)" fill="#006070"/>
                <path id="Trazado_42893" data-name="Trazado 42893" d="M1181.065,1898.727s-2.776,37.343-4.027,64.474C1177.038,1963.2,1177.045,1927.146,1181.065,1898.727Z" transform="translate(-1166.517 -1887.282)" fill="#0e7992"/>
              </g>
              <path id="Trazado_42894" data-name="Trazado 42894" d="M1194.038,1878.772s-7.084.053-11.407.577-18.38.221-18.38.221l1.438-19.183,42.745,1.227-.285,13.253-8.088,6.29Z" transform="translate(-1131.169 -1802.891)" fill="#006070"/>
              <path id="Trazado_42895" data-name="Trazado 42895" d="M1210.406,1877.311l-2.214.481.078-3.621-43.183-.879-.835,11.137s.5.011,1.342.025l-.725,14.5a76.174,76.174,0,0,1,19.939-2.438c.531-5.711.958-10.222,1.183-12.607,1.507-.1,3.054-.161,4.384-.2.246,2.531.707,7.285,1.277,13.257a43.815,43.815,0,0,1,20.169,7.331Z" transform="translate(-1131.169 -1807.751)" fill="#084f4d" opacity="0.25" style="mix-blend-mode: multiply;isolation: isolate"/>
              <path id="Trazado_42896" data-name="Trazado 42896" d="M1166.583,1777.067s8.458-5.749,22.4-5.91a58.965,58.965,0,0,1,25.214,5.714l-1.561,72.652-26.427-9.857-23.293,9.124Z" transform="translate(-1130.667 -1769.287)" fill="#fccc05"/>
              <path id="Trazado_42897" data-name="Trazado 42897" d="M1202.1,1811.485c1.2-23.563,1.751-31.1,1.751-31.1l-3.386-.022s-.468,7.61-1.518,31.18c-.7,15.663-.986,25.662-.931,32.141l1.408-.552,1.757.655C1201.106,1837.687,1201.313,1826.989,1202.1,1811.485Z" transform="translate(-1143.882 -1772.756)" fill="#dbb100" opacity="0.5"/>
              <path id="Trazado_42898" data-name="Trazado 42898" d="M1192.122,1768.491a78.113,78.113,0,0,1,14.048-.046s.867.077,1.03.562,1.035,3.051,1.035,3.051a1.438,1.438,0,0,1-.333,1.17c-.476.587-5.084,5.89-5.084,5.89a.939.939,0,0,1-.913.27,23.1,23.1,0,0,1-2.671-3.182l-2.418,3s-.386.435-.712.145c-.806-.718-5.717-5.3-5.717-5.3a1.328,1.328,0,0,1-.378-1.224,22.843,22.843,0,0,1,1.45-3.711S1191.616,1768.534,1192.122,1768.491Z" transform="translate(-1140.864 -1768.159)" fill="#dbb100"/>
              <path id="Trazado_42899" data-name="Trazado 42899" d="M1220.923,1769.53a224.07,224.07,0,0,1,.118,25.563c-.726,14.664,1.232,93.337,1.232,93.337a1.442,1.442,0,0,0,1.608,1.459c1.656,0,12.811-3.189,14.251-3.928s1.073-3.4.854-5.717-1.994-43.233-2.056-44.082c-.119-1.62-1.88-5.7-1.88-5.7l2.107-3.073s.388-.146.424-1.839.457-23.049.457-23.049,4.752-23.495,4.02-32.415A81.817,81.817,0,0,0,1220.923,1769.53Z" transform="translate(-1152.494 -1768.519)" fill="#6d31fd"/>
              <path id="Trazado_42900" data-name="Trazado 42900" d="M1247.116,1903.026l.1,9.756-5,4.879-5.949-4.064-.668-11.649Z" transform="translate(-1158.034 -1818.542)" fill="#5224e2"/>
              <path id="Trazado_42901" data-name="Trazado 42901" d="M1237.135,1902.812l-.018.348-1.525-1.212.668,11.649,5.949,4.064-2.719-2.973a5.657,5.657,0,0,1-1.476-3.561v0a2.476,2.476,0,0,1,1.494-2.389h0c.9-.343,1.974-.756,3.146-1.217,3.337-1.314,4.518,1.239,4.518,1.239l-.073-6.747Z" transform="translate(-1158.034 -1818.542)" fill="#422c9b" opacity="0.5"/>
              <path id="Trazado_42902" data-name="Trazado 42902" d="M1213.17,1888.2s-1.139-24.661,12.777-25c0,0,7.935-.24,8.354.539a6.5,6.5,0,0,1-.083,3.9c-.368.428-9.5-1.2-12.186,2.2s-3.822,7.078-4,17.6l-2.22,2.98Z" transform="translate(-1149.582 -1803.935)" fill="#5224e2"/>
              <path id="Trazado_42903" data-name="Trazado 42903" d="M1234.316,1863.858c-.109-.2-.262-.279-1.114-.366.083,1.087-.106,2.176-1.048,2.463-1.692.516-9.232-.919-11.923,2.487-2.6,3.3-3.748,6.844-3.976,16.609v.019a2.689,2.689,0,0,1-1.323,2.2l-1.747,1.058,2.646,2.212,2.22-2.98c.175-10.518,1.305-14.19,4-17.6s11.818-1.774,12.186-2.2A6.5,6.5,0,0,0,1234.316,1863.858Z" transform="translate(-1149.596 -1804.06)" fill="#422c9b" opacity="0.5"/>
              <path id="Trazado_42904" data-name="Trazado 42904" d="M1221.168,1793.088c.095-2.769.221-18.678-.219-23.306a49.175,49.175,0,0,1,7.416,1.423s.117,11.056-.044,18.6l-2.99.6,2.932,2.065s-2.044,21.1-2.379,22.327-4.881,6.263-4.881,6.263" transform="translate(-1152.52 -1768.771)" fill="#5224e2"/>
              <path id="Trazado_42905" data-name="Trazado 42905" d="M1174.716,1770.5a224.041,224.041,0,0,0-1.215,25.533c.1,14.681-5.237,93.2-5.237,93.2a1.442,1.442,0,0,1-1.669,1.388c-1.654-.074-12.662-3.736-14.069-4.537s-.927-3.446-.608-5.749,3.847-43.107,3.946-43.953c.188-1.613,2.122-5.613,2.122-5.613l-1.7-2.717a4.578,4.578,0,0,1-.82-2.769c.036-1.692.732-22.576.732-22.576s-.1-17.953,1.018-26.834C1157.22,1775.873,1163.284,1771.176,1174.716,1770.5Z" transform="translate(-1126.394 -1769.041)" fill="#6d31fd"/>
              <path id="Trazado_42906" data-name="Trazado 42906" d="M1235.124,1862.187a56.791,56.791,0,0,1,.358,6.045,3.925,3.925,0,0,0,2.084.031s.315-1.612-.374-6.3A3.826,3.826,0,0,0,1235.124,1862.187Z" transform="translate(-1157.858 -1803.464)" fill="#a176ff"/>
              <path id="Trazado_42907" data-name="Trazado 42907" d="M1236.873,1868.21a3.936,3.936,0,0,1-.612-.063c.026-1.589-.238-4.381-.338-5.373a3.292,3.292,0,0,1,.989-.121c.062,0,.12,0,.173.007a26.626,26.626,0,0,1,.359,5.508,2.869,2.869,0,0,1-.57.041Z" transform="translate(-1158.159 -1803.744)" fill="#6d31fd"/>
              <path id="Trazado_42908" data-name="Trazado 42908" d="M1235.592,1901.039l9.349-1.506s3.236,2.082,4.535,2.678l-8.972,2.3A33.966,33.966,0,0,1,1235.592,1901.039Z" transform="translate(-1158.034 -1817.633)" fill="#a176ff"/>
              <path id="Trazado_42909" data-name="Trazado 42909" d="M1167.125,1863.109l3.594.013s.669-.064.733.529-.08,3.719-.08,3.719.036.737-.915.8-11.679.06-12.089.081c-.861.043-1.079-1.155-1.152-2.517s-.034-2.606,1.1-2.656l8.813.032" transform="translate(-1128.51 -1803.904)" fill="#5224e2"/>
              <path id="Trazado_42910" data-name="Trazado 42910" d="M1171.427,1865.991c-2.358.045-11.212.047-11.583.065-.86.043-1.078-1.155-1.152-2.517-.008-.156-.015-.31-.019-.461l-.362,0c-1.13.05-1.169,1.293-1.1,2.656s.291,2.56,1.152,2.517c.41-.021,11.138-.021,12.089-.081s.915-.8.915-.8S1171.4,1866.74,1171.427,1865.991Z" transform="translate(-1128.51 -1803.904)" fill="#422c9b" opacity="0.5"/>
              <path id="Trazado_42911" data-name="Trazado 42911" d="M1169.571,1862.314a56.881,56.881,0,0,0-.172,6.053,3.923,3.923,0,0,1-2.082.095s-.365-1.6.179-6.309A3.828,3.828,0,0,1,1169.571,1862.314Z" transform="translate(-1132.278 -1803.527)" fill="#a176ff"/>
              <path id="Trazado_42912" data-name="Trazado 42912" d="M1168.583,1868.379a3.858,3.858,0,0,0,.61-.082c-.075-1.587.1-4.386.171-5.38a3.263,3.263,0,0,0-.992-.09c-.062,0-.12.008-.173.012a26.645,26.645,0,0,0-.188,5.517,2.887,2.887,0,0,0,.572.022Z" transform="translate(-1132.559 -1803.807)" fill="#6d31fd"/>
              <path id="Trazado_42913" data-name="Trazado 42913" d="M1199.354,1783.8s-.2,3.845,3.075,4.121,3.272-4.342,3.272-4.342" transform="translate(-1144.387 -1773.967)" fill="none" stroke="#1eaac1" stroke-miterlimit="10" stroke-width="0.827"/>
              <g id="Grupo_40162" data-name="Grupo 40162" transform="translate(54.068 8.334)">
                <circle id="Elipse_1090" data-name="Elipse 1090" cx="0.917" cy="0.917" r="0.917" fill="#0b6060"/>
                <g id="Grupo_40161" data-name="Grupo 40161" transform="translate(0.297 0.355)">
                  <g id="Grupo_40160" data-name="Grupo 40160">
                    <g id="Grupo_40159" data-name="Grupo 40159">
                      <g id="Grupo_40157" data-name="Grupo 40157" transform="translate(0.329)">
                        <path id="Trazado_42914" data-name="Trazado 42914" d="M1199.453,1782.393a.2.2,0,0,1-.006.286l-.016.014s.16.13.077.25l.1-.1a.435.435,0,1,0-.6-.629l-.015.014a.2.2,0,0,0-.018.289l.026.027.16-.153.009-.009a.2.2,0,0,1,.286.006" transform="translate(-1198.917 -1782.097)" fill="#128d93"/>
                      </g>
                      <g id="Grupo_40158" data-name="Grupo 40158" transform="translate(0 0.297)">
                        <path id="Trazado_42915" data-name="Trazado 42915" d="M1198.678,1783.124a.2.2,0,0,1,.006-.286l.015-.014s-.16-.13-.077-.249l-.1.1a.436.436,0,0,0,.6.629l.015-.014a.2.2,0,0,0,.017-.289l-.026-.027-.16.153-.009.009a.2.2,0,0,1-.286-.006" transform="translate(-1198.389 -1782.574)" fill="#128d93"/>
                      </g>
                    </g>
                    <path id="Trazado_42916" data-name="Trazado 42916" d="M1199.277,1782.736l-.247.236a.066.066,0,0,0,0,.094.065.065,0,0,0,.093,0l.248-.236a.067.067,0,1,0-.092-.1Z" transform="translate(-1198.623 -1782.331)" fill="#128d93"/>
                  </g>
                </g>
              </g>
              <g id="Grupo_40168" data-name="Grupo 40168" transform="translate(60.403 8.47)">
                <circle id="Elipse_1091" data-name="Elipse 1091" cx="0.917" cy="0.917" r="0.917" fill="#0b6060"/>
                <g id="Grupo_40167" data-name="Grupo 40167" transform="translate(0.297 0.355)">
                  <g id="Grupo_40166" data-name="Grupo 40166">
                    <g id="Grupo_40165" data-name="Grupo 40165">
                      <g id="Grupo_40163" data-name="Grupo 40163" transform="translate(0.329)">
                        <path id="Trazado_42917" data-name="Trazado 42917" d="M1209.615,1782.611a.2.2,0,0,1-.006.286l-.016.014s.16.13.077.25l.1-.1a.435.435,0,0,0-.6-.629l-.015.015a.2.2,0,0,0-.018.289l.026.026.16-.153.009-.008a.2.2,0,0,1,.286.006" transform="translate(-1209.079 -1782.315)" fill="#128d93"/>
                      </g>
                      <g id="Grupo_40164" data-name="Grupo 40164" transform="translate(0 0.297)">
                        <path id="Trazado_42918" data-name="Trazado 42918" d="M1208.84,1783.342a.2.2,0,0,1,.006-.286l.015-.014s-.16-.13-.077-.249l-.1.1a.436.436,0,1,0,.6.629l.015-.014a.2.2,0,0,0,.018-.289l-.026-.027-.16.153-.009.008a.2.2,0,0,1-.286-.006" transform="translate(-1208.551 -1782.792)" fill="#128d93"/>
                      </g>
                    </g>
                    <path id="Trazado_42919" data-name="Trazado 42919" d="M1209.439,1782.954l-.247.237a.066.066,0,0,0,0,.094.067.067,0,0,0,.094,0l.247-.237a.067.067,0,1,0-.092-.1Z" transform="translate(-1208.785 -1782.549)" fill="#128d93"/>
                  </g>
                </g>
              </g>
              <path id="Trazado_42920" data-name="Trazado 42920" d="M1111.184,1806.77c.528-10.184,5.747-20.066,20.856-29.959,15.456-10.121,27.466-6.656,27.466-6.656l-.405,2.406-14.585,25.384Z" transform="translate(-1111.184 -1768.695)" fill="#6d31fd"/>
              <path id="Trazado_42921" data-name="Trazado 42921" d="M1182.473,1793.854c.024-2.771.582-18.67,1.219-23.275a49.076,49.076,0,0,0-7.471,1.1s-.592,11.04-.753,18.582l2.961.73-3.019,1.937s1.136,21.171,1.418,22.409,4.608,6.467,4.608,6.467" transform="translate(-1135.371 -1769.07)" fill="#5224e2"/>
            </g>
            <path id="Trazado_42922" data-name="Trazado 42922" d="M1298.648,1615.244l.54-4.517s-1.583-8.9.357-10.7a35.975,35.975,0,0,1,6.24-4.249c2.155-1.3,6.572-5.52,7.81-5.714s2.285,3.067-.671,5.908l-4.106,5.1s2.9,4.475-1.464,7.469l-.334,8.889Z" transform="translate(-1137.414 -1560.817)" fill="#a57758"/>
            <path id="Trazado_42923" data-name="Trazado 42923" d="M1308.393,1599.234l2.086.713,3.708-.947,2.432-3.024c2.581-2.481,2.111-5.281,1.126-5.823l-.454-.085C1316.527,1593.053,1308.393,1599.234,1308.393,1599.234Z" transform="translate(-1141.109 -1560.822)" fill="#876148"/>
            <path id="Trazado_42924" data-name="Trazado 42924" d="M1308.532,1611.708a6.148,6.148,0,0,0,2.177-5.994s4.289-3.171,5.214-5.6-1.222-2.818-1.857-2.249-5.751,4.192-7.64,4.75C1306.426,1602.616,1306.829,1610.054,1308.532,1611.708Z" transform="translate(-1140.369 -1563.672)" fill="#a57758"/>
            <path id="Trazado_42925" data-name="Trazado 42925" d="M1315.639,1597.7c.686.205,1.276.926.708,2.416-.925,2.427-5.214,5.6-5.214,5.6.5,2.9-1.454,5.876-1.332,5.995a6.148,6.148,0,0,0,2.177-5.994s4.289-3.171,5.214-5.6C1318,1597.993,1316.464,1597.427,1315.639,1597.7Z" transform="translate(-1141.637 -1563.672)" fill="#876148"/>
            <path id="Trazado_42926" data-name="Trazado 42926" d="M1306.517,1627.019s1.931-3.325.357-4.307-7.374-1.352-7.853-.014a6.673,6.673,0,0,0-.4,3.159Z" transform="translate(-1137.413 -1572.782)" fill="#0e7992"/>
            <path id="Trazado_42927" data-name="Trazado 42927" d="M1247.6,1641.3a27.762,27.762,0,0,0-10.2-3.264s1.214,19.029,7.363,24.178c5.5,4.6,20.213,4,29.661-2.412,14.856-10.081,11.333-31.4,11.154-32.322-.352-1.819-1.521-2.116-1.521-2.116a52.27,52.27,0,0,0-8.134-1.26c-1.417.081-1.587,1.854-1.587,1.854-1.7,12.637-5.808,15.145-9.614,17.347-4.391,2.54-8.819,2.233-17.123-2" transform="translate(-1114.377 -1573.637)" fill="#4295a8"/>
            <path id="Trazado_42928" data-name="Trazado 42928" d="M1093.479,1619.08l-.689-4.5s1.287-8.952-.712-10.683a35.957,35.957,0,0,0-6.378-4.04c-2.2-1.229-6.751-5.3-8-5.451s-2.182,3.141.867,5.883l4.274,4.965s-2.746,4.57,1.711,7.416l.629,8.873Z" transform="translate(-1053.792 -1562.455)" fill="#a57758"/>
            <path id="Trazado_42929" data-name="Trazado 42929" d="M1086.9,1603.278l-2.061.782-3.738-.823-2.532-2.941c-2.662-2.394-2.285-5.208-1.318-5.781l.451-.1C1078.567,1597.37,1086.9,1603.278,1086.9,1603.278Z" transform="translate(-1053.793 -1562.458)" fill="#876148"/>
            <path id="Trazado_42930" data-name="Trazado 42930" d="M1087.416,1615.738a6.148,6.148,0,0,1-2.375-5.918s-4.392-3.027-5.4-5.423,1.128-2.857,1.781-2.31,5.887,4,7.793,4.494C1089.218,1606.581,1089.063,1614.028,1087.416,1615.738Z" transform="translate(-1054.866 -1565.27)" fill="#a57758"/>
            <path id="Trazado_42931" data-name="Trazado 42931" d="M1081.116,1601.93c-.68.228-1.244.969-.627,2.438,1.005,2.4,5.4,5.423,5.4,5.423-.407,2.91,1.648,5.825,1.53,5.947a6.148,6.148,0,0,1-2.375-5.918s-4.392-3.027-5.4-5.423C1078.765,1602.3,1080.282,1601.687,1081.116,1601.93Z" transform="translate(-1054.866 -1565.27)" fill="#876148"/>
            <path id="Trazado_42932" data-name="Trazado 42932" d="M1090.444,1630.873s-2.041-3.259-.5-4.293,7.326-1.6,7.848-.275a6.672,6.672,0,0,1,.5,3.145Z" transform="translate(-1058.628 -1574.177)" fill="#0e7992"/>
            <path id="Trazado_42933" data-name="Trazado 42933" d="M1125.938,1643.9a27.758,27.758,0,0,1,10.084-3.6s-.581,19.058-6.555,24.409c-5.342,4.783-20.069,4.668-29.724-1.425-15.183-9.582-12.369-31-12.221-31.934.291-1.829,1.45-2.165,1.45-2.165a52.322,52.322,0,0,1,8.088-1.529c1.419.033,1.647,1.8,1.647,1.8,2.12,12.573,6.308,14.943,10.184,17.018,4.473,2.393,8.888,1.939,17.047-2.572" transform="translate(-1057.82 -1574.975)" fill="#4295a8"/>
            <path id="Trazado_42934" data-name="Trazado 42934" d="M1180.162,1808.108c-.69-3.1-3.969-4.083-5.6-7.44s-3.823-3.677-3.823-3.677-2.2-5.025-3.088-7.726a4.433,4.433,0,0,0-3.032-3.121c-1.625-4.053-3.684-15.753-3.684-15.753a8.6,8.6,0,0,0-1.873.365,12.441,12.441,0,0,0-4,1.6c-5.047,6.087-8.535,18.138-10.822,29.261l9.2-2.436c-.012,2.137,0,3.485,0,3.485s-.7,20.884-.732,22.576a4.577,4.577,0,0,0,.82,2.769l.1.164h-.2a.969.969,0,0,0-.9.575l1.716.422C1162.818,1829.876,1180.852,1811.207,1180.162,1808.108Z" transform="translate(-1079.294 -1628.729)" fill="#4f4f4f" opacity="0.19" style="mix-blend-mode: multiply;isolation: isolate"/>
            <path id="Trazado_42935" data-name="Trazado 42935" d="M1164.709,1739.142s-21.666.193-28.429,11.746,15.213,41.4,15.213,41.4l10.059-8.477s-8.513-16.471-7.924-25.774S1164.709,1739.142,1164.709,1739.142Z" transform="translate(-1075.807 -1616.961)" fill="#f80a73"/>
            <g id="Grupo_40170" data-name="Grupo 40170" transform="translate(72.47 121.532)">
              <path id="Trazado_42936" data-name="Trazado 42936" d="M1157.646,1738.1a4.606,4.606,0,0,0-1.336,3.321c-.06,2.246.429,3.63,1.513,4.1a19.386,19.386,0,0,0,8.21,1.246c4.348-.15,7.531.009,8.775-1.865s-.1-3.509-.274-6.237C1174.535,1738.668,1164.682,1739.653,1157.646,1738.1Z" transform="translate(-1156.305 -1738.1)" fill="#006070"/>
              <path id="Trazado_42937" data-name="Trazado 42937" d="M1161.539,1738.73l-1.635-.244s-1.375,2.379-.641,7.348a14.027,14.027,0,0,0,1.547.483C1160.473,1744.436,1160.471,1740.7,1161.539,1738.73Z" transform="translate(-1157.338 -1738.245)" fill="#0e7992"/>
              <path id="Trazado_42938" data-name="Trazado 42938" d="M1166.474,1739.242l-1.781-.138s-1.233,2.481-.336,7.784c.464.073.964.136,1.5.183C1165.516,1745.235,1165.165,1741.258,1166.474,1739.242Z" transform="translate(-1159.215 -1738.478)" fill="#0e7992"/>
              <path id="Trazado_42939" data-name="Trazado 42939" d="M1171.766,1739.6l-.481-.143q-.576-.011-1.167-.031c-.294.813-.975,3.4.124,7.86q.4,0,.813-.016l.672-.021C1171.274,1745.519,1170.523,1741.781,1171.766,1739.6Z" transform="translate(-1161.326 -1738.598)" fill="#0e7992"/>
              <path id="Trazado_42940" data-name="Trazado 42940" d="M1177,1739.6l-.562-.14c-.35.008-.713.014-1.085.017-.251.789-.828,3.363.43,7.727.522-.017,1.019-.04,1.489-.071C1176.737,1745.379,1175.879,1741.787,1177,1739.6Z" transform="translate(-1163.345 -1738.611)" fill="#0e7992"/>
              <path id="Trazado_42941" data-name="Trazado 42941" d="M1181.8,1739.213c-.474.031-1.036.062-1.668.09-.216.992-.492,3.525.89,7.512a6.161,6.161,0,0,0,1.387-.421C1181.787,1744.624,1180.9,1741.36,1181.8,1739.213Z" transform="translate(-1165.21 -1738.519)" fill="#0e7992"/>
              <path id="Trazado_42942" data-name="Trazado 42942" d="M1185.113,1739.011s-.255.025-.71.06a16.583,16.583,0,0,0,1.065,6.046C1186.567,1743.3,1185.279,1741.676,1185.113,1739.011Z" transform="translate(-1166.883 -1738.443)" fill="#0e7992"/>
            </g>
            <path id="Trazado_42943" data-name="Trazado 42943" d="M1169.532,1768.368s-3.234-4.03-6.44-1.967-.9,10.143,4.719,19.083c0,0-3.209-8.73-3.717-15.954C1164.093,1769.531,1164.919,1768.949,1169.532,1768.368Z" transform="translate(-1085.842 -1627.005)" fill="#e00b71"/>
            <g id="Grupo_40171" data-name="Grupo 40171" transform="translate(54.355 158.234)">
              <path id="Trazado_42944" data-name="Trazado 42944" d="M1171.882,1797.594s3.092-.983,4.771-.474l-1.138,4.214-2.771-.232Z" transform="translate(-1144.056 -1796.974)" fill="#efbb97"/>
              <path id="Trazado_42945" data-name="Trazado 42945" d="M1140.911,1805.344s-14.8,7.122-13.592,10.535l12.92-5.583.89,1.429,1.361-.44,1.447,1.881,1.464-.388-2.608-4.628Z" transform="translate(-1127.248 -1800.126)" fill="#5224e2"/>
              <path id="Trazado_42946" data-name="Trazado 42946" d="M1173.633,1803.617a7.142,7.142,0,0,1,1.961-.909l-.183,1.387-.973.945Z" transform="translate(-1144.716 -1799.133)" fill="#422c9b"/>
              <path id="Trazado_42947" data-name="Trazado 42947" d="M1151.694,1806.574s7.742,9.169,7.416,11.734-5.513,11.552-6.361,13.192-.634,3.073.9,4.113l26.184-15.955s-4.588-7.618-9.77-9.556l-6.1-12.132-13.1,6.8Z" transform="translate(-1136.143 -1797.348)" fill="#dbdbdb"/>
              <path id="Trazado_42948" data-name="Trazado 42948" d="M1154.968,1834.339s1.32.995,3.13-1.209,5.313-7.88,5.434-10.336-2.277-6.734-4.245-9.4-4.657-3-5.607-.726c0,0,4.206,5.45,5.4,7.544a8.329,8.329,0,0,0,2.538,2.9l-6.4,10.806Z" transform="translate(-1137.202 -1802.314)" fill="#f80a73"/>
              <path id="Trazado_42949" data-name="Trazado 42949" d="M1155.419,1834.4s.98.72,2.691-1.492,5.246-8.755,4.809-10.87-4.081-8.712-6-9.421-2.9.7-2.7,1.61,2.567,2.465,3.876,4.6,2.588,3.661,2.153,5.528S1155.419,1834.4,1155.419,1834.4Z" transform="translate(-1137.398 -1802.791)" fill="#bc0f65"/>
              <path id="Trazado_42950" data-name="Trazado 42950" d="M1173.492,1805.4a13.594,13.594,0,0,0,1.684-2.6s.64-.531,1.52.861a47.079,47.079,0,0,1,2.4,5.333s.265.963-.33,1.214a10.671,10.671,0,0,1-2.634.33,1.123,1.123,0,0,1-.818-.55l-1.879-3.345A1.079,1.079,0,0,1,1173.492,1805.4Z" transform="translate(-1144.576 -1799.131)" fill="#6d31fd"/>
              <path id="Trazado_42951" data-name="Trazado 42951" d="M1157.691,1814.7a.813.813,0,0,0-.181,1.245c.321.491.787,1.157,1.042,1.561a.782.782,0,0,0,1.046.38c.294-.165,10.22-5.9,10.6-6.256.415-.388-.191-1.595-.469-2.083s-.991-1.172-1.758-.844S1157.691,1814.7,1157.691,1814.7Z" transform="translate(-1138.568 -1801.359)" fill="#422c9b"/>
              <path id="Trazado_42952" data-name="Trazado 42952" d="M1156.353,1844.385a6.768,6.768,0,0,1,4.161,2.1.37.37,0,0,0,.551-.062l.973-1.385a.52.52,0,0,0-.09-.7c-.87-.732-3.139-2.47-4.781-2.219a.759.759,0,0,0-.578.459l-.555,1.311A.357.357,0,0,0,1156.353,1844.385Z" transform="translate(-1138.078 -1813.965)" fill="#dbb100"/>
              <path id="Trazado_42953" data-name="Trazado 42953" d="M1159.758,1838.144c.787.016,2.516.331,4.774,2.4a.141.141,0,0,0,.205-.015l1.354-1.723a.2.2,0,0,0-.014-.259c-.524-.536-2.723-2.62-5.214-2.688a.759.759,0,0,0-.7.446l-.663,1.424A.29.29,0,0,0,1159.758,1838.144Z" transform="translate(-1139.383 -1811.618)" fill="#dbb100"/>
              <path id="Trazado_42954" data-name="Trazado 42954" d="M1162.208,1831.779l.663-1.663a.544.544,0,0,1,.567-.34,11.813,11.813,0,0,1,6.157,2.462.438.438,0,0,1,.094.548l-.981,1.7a.287.287,0,0,1-.438.074,12.067,12.067,0,0,0-5.892-2.479A.222.222,0,0,1,1162.208,1831.779Z" transform="translate(-1140.408 -1809.325)" fill="#dbb100"/>
              <path id="Trazado_42955" data-name="Trazado 42955" d="M1174.453,1832.065c1.537-1.735,3.977-4.79,4.358-4.952.545-.231,1.8,1.2,2.858,2.881.895,1.417-2.65,4.266-2.65,4.266-5.3,4.29-20.068,13.531-21.432,14.2s-1.675.517-2.388-.44c0,0-.959-1.166-.133-1.76S1169.135,1838.071,1174.453,1832.065Z" transform="translate(-1137.598 -1808.314)" fill="#6d31fd"/>
              <path id="Trazado_42956" data-name="Trazado 42956" d="M1149.683,1804.146l13.388-6.736a.556.556,0,0,1,.647.172c.308.339,1.117,1.618.877,1.959s-13.518,7.161-13.518,7.161-.386.135-.808-.384S1148.909,1804.539,1149.683,1804.146Z" transform="translate(-1135.585 -1797.123)" fill="#dbb100"/>
              <path id="Trazado_42957" data-name="Trazado 42957" d="M1179.716,1824.083s2.184-5.32,3.529-5.911c.646-.284,1.818,1.123,2.54,2.08s1.672,1.228,1.919,1.731.114.9-.5,1.5-3.533,3.529-4.585,3.5C1181.976,1826.97,1179.276,1825.12,1179.716,1824.083Z" transform="translate(-1146.989 -1804.943)" fill="#f80a73"/>
              <path id="Trazado_42958" data-name="Trazado 42958" d="M1181.268,1825.667s-.666-.458-.545-.861,2.463-5.086,3.089-5.363.985.785,1.353,1.07c0,0,.924.41.731,1.073-.244.84-3.733,4.08-3.733,4.08A.561.561,0,0,1,1181.268,1825.667Z" transform="translate(-1147.38 -1805.418)" fill="#e00b71"/>
              <path id="Trazado_42959" data-name="Trazado 42959" d="M1188.773,1824.253s.686-.839.97-.808,1,.658.948,1.051-.613.936-.865.915S1188.456,1824.607,1188.773,1824.253Z" transform="translate(-1150.396 -1806.942)" fill="#5ed4f0"/>
              <path id="Trazado_42960" data-name="Trazado 42960" d="M1187.136,1826.757s.536-.655.758-.632.778.514.74.822-.479.732-.676.714S1186.888,1827.033,1187.136,1826.757Z" transform="translate(-1149.784 -1807.951)" fill="#5ed4f0"/>
              <path id="Trazado_42961" data-name="Trazado 42961" d="M1185.733,1828.794s.377-.46.532-.444.547.362.521.578-.337.514-.475.5S1185.559,1828.988,1185.733,1828.794Z" transform="translate(-1149.261 -1808.789)" fill="#5ed4f0"/>
              <path id="Trazado_42962" data-name="Trazado 42962" d="M1158.1,1848.931s19.5-12.259,23.081-17.037C1181.181,1831.894,1178.025,1837.72,1158.1,1848.931Z" transform="translate(-1138.866 -1810.124)" fill="#422c9b"/>
            </g>
            <path id="Trazado_42963" data-name="Trazado 42963" d="M1158.018,1829.563v1.983l4.859-1.983,1.25,1.656s10.714-4.916,13.238-10.968a7.445,7.445,0,0,0-2.093-2.117l-17.964,9.9Z" transform="translate(-1084.213 -1646.708)" fill="#4f4f4f" opacity="0.07" style="mix-blend-mode: multiply;isolation: isolate"/>
            <path id="Trazado_42964" data-name="Trazado 42964" d="M1148.144,1811.861l5-3.3s.9-4.125,6.7-6.419c0,0,3.153-2.361,3.915-3.907,0,0,3.383-1.892,4.684-.706s.965,3.66.656,5.129c0,0,2.371,1.622,1.675,4.007a5.571,5.571,0,0,1,1.381,3.2c-.092,1.508-4.475,9.021-13.11,8.217l-6.058,3.577Z" transform="translate(-1080.762 -1638.801)" fill="#f9cdaf"/>
            <path id="Trazado_42965" data-name="Trazado 42965" d="M1156.61,1808.991l-.441-.7a4.012,4.012,0,0,1,.441-3.918c1.418-1.727.49-5.465,1.5-6.239s2.789.142,3.145,2.346a26.849,26.849,0,0,1,.335,4.087S1161.457,1808.811,1156.61,1808.991Z" transform="translate(-1083.661 -1639.076)" fill="#f9cdaf"/>
            <path id="Trazado_42966" data-name="Trazado 42966" d="M1153.658,1827.7l-4.413,2.293-6.773-13.26,5.75-1.858A23.508,23.508,0,0,1,1153.658,1827.7Z" transform="translate(-1078.626 -1645.48)" fill="#dbb100"/>
            <path id="Trazado_42967" data-name="Trazado 42967" d="M1111.175,1823.228c-.528,10.183,12.493,16.656,29.423,7.219,0,0-.668-5.792-2.57-8.72l-3.054-.066,1.9-4.188-1.475-2.226-1.221-1.96Z" transform="translate(-1066.834 -1644.882)" fill="#6d31fd"/>
            <path id="Trazado_42968" data-name="Trazado 42968" d="M1230.856,1797.664l7.611-18.145-2.815-9.823-3.439-.288-2.229,10.566c-2.237.984-2.842,5.027-2.842,5.027a9.707,9.707,0,0,0-4,8.987c-1.8-.66-4.01,2.117-4.667,3.754s-4.5,4.659-4.455,8.9,21.05,15.389,21.05,15.389h0c.047-2.384.111-5.605.173-8.739a4.549,4.549,0,0,0-.314-.39C1232.013,1809.7,1230.856,1797.664,1230.856,1797.664Z" transform="translate(-1105.57 -1628.359)" fill="#4f4f4f" opacity="0.19" style="mix-blend-mode: multiply;isolation: isolate"/>
            <path id="Trazado_42969" data-name="Trazado 42969" d="M1212.469,1737.671s28.442-5.548,34.832,4.277,3.8,22.388-7.707,39.071a15.23,15.23,0,0,1-11.275-4.175s6.79-13.733,6.567-18.884-17.5-2.307-17.5-2.307S1208.385,1755.169,1212.469,1737.671Z" transform="translate(-1104.586 -1615.819)" fill="#f80a73"/>
            <path id="Trazado_42970" data-name="Trazado 42970" d="M1244.293,1768.326c.5,2.864-3.5,13.415-3.5,13.415s4.831-8.281,5.315-11.571-.526-4.343-3.137-4.4a8.524,8.524,0,0,0-6,2.1s4.331.16,5.767.292C1243.909,1768.268,1244.293,1768.326,1244.293,1768.326Z" transform="translate(-1114.212 -1626.988)" fill="#e00b71"/>
            <path id="Trazado_42971" data-name="Trazado 42971" d="M1183.062,1763.463l-.006.049h0c-.012.086-.024.177-.036.271-.03.262-.075.683-.131,1.249q.809-.178,1.665-.338c.38-.9.776-1.737.776-1.737s.157-.58.663-.622a78.108,78.108,0,0,1,14.048-.045s.867.077,1.03.562c.079.235.325.959.557,1.643.559.085,1.107.179,1.647.277-.063-1.135-.111-1.757-.111-1.757,2.659-.267,5.184-.386,7.505-.411a61.3,61.3,0,0,0,.057-9.039l-36.32-1.752a33.579,33.579,0,0,0-.328,11.283A25.263,25.263,0,0,1,1183.062,1763.463Z" transform="translate(-1090.399 -1621.733)" fill="#4f4f4f" opacity="0.06" style="mix-blend-mode: multiply;isolation: isolate"/>
            <g id="Grupo_40172" data-name="Grupo 40172" transform="translate(112.585 117.767)">
              <path id="Trazado_42972" data-name="Trazado 42972" d="M1238.576,1732.347a4.608,4.608,0,0,1,1.167,3.385c-.054,2.246-.612,3.6-1.718,4.021a19.384,19.384,0,0,1-8.263.829c-4.336-.369-7.522-.371-8.67-2.3s.282-3.5.588-6.216C1221.68,1732.061,1231.471,1733.543,1238.576,1732.347Z" transform="translate(-1220.653 -1732.061)" fill="#006070"/>
              <path id="Trazado_42973" data-name="Trazado 42973" d="M1244.782,1732.968l1.645-.161s1.252,2.445.269,7.371a13.921,13.921,0,0,1-1.57.4C1245.559,1738.721,1245.75,1734.988,1244.782,1732.968Z" transform="translate(-1229.739 -1732.342)" fill="#0e7992"/>
              <path id="Trazado_42974" data-name="Trazado 42974" d="M1239.859,1733.235l1.786-.047s1.105,2.54-.058,7.791c-.467.05-.97.087-1.512.107C1240.513,1739.269,1241.065,1735.315,1239.859,1733.235Z" transform="translate(-1227.885 -1732.485)" fill="#0e7992"/>
              <path id="Trazado_42975" data-name="Trazado 42975" d="M1234.536,1733.311l.489-.118c.384.013.773.022,1.167.029.253.826.8,3.444-.521,7.843q-.4-.021-.811-.057l-.67-.055C1234.728,1739.251,1235.667,1735.555,1234.536,1733.311Z" transform="translate(-1225.75 -1732.487)" fill="#0e7992"/>
              <path id="Trazado_42976" data-name="Trazado 42976" d="M1229.2,1733.033l.568-.111q.526.038,1.083.073c.21.8.656,3.4-.819,7.7-.521-.044-1.016-.092-1.484-.146C1229.174,1738.822,1230.212,1735.278,1229.2,1733.033Z" transform="translate(-1223.628 -1732.385)" fill="#0e7992"/>
              <path id="Trazado_42977" data-name="Trazado 42977" d="M1224.336,1732.4c.472.054,1.032.115,1.661.175.165,1,.313,3.545-1.269,7.457a6.149,6.149,0,0,1-1.364-.49C1224.072,1737.8,1225.126,1734.586,1224.336,1732.4Z" transform="translate(-1221.674 -1732.187)" fill="#0e7992"/>
              <path id="Trazado_42978" data-name="Trazado 42978" d="M1221.681,1732.061s.253.037.706.1a16.584,16.584,0,0,1-1.369,5.985C1220.012,1736.27,1221.382,1734.714,1221.681,1732.061Z" transform="translate(-1220.653 -1732.061)" fill="#0e7992"/>
            </g>
            <g id="Grupo_40175" data-name="Grupo 40175" transform="translate(75.519 94.656)">
              <path id="Trazado_42979" data-name="Trazado 42979" d="M1195.594,1770.372l11.127.445s.552.037.21.4c-.292.312-4.609,2.588-5.867,3.247a.616.616,0,0,1-.651-.05l-5.1-3.756S1195.042,1770.351,1195.594,1770.372Z" transform="translate(-1174.02 -1723.377)" fill="#a48502"/>
              <path id="Trazado_42980" data-name="Trazado 42980" d="M1202.076,1703.386s8.944-2.072,11.71,5.652.155,9.578,1.2,13.712.584,13.539-10.909,14.527l-.111-2.009s-3.752,4.652-8.9,4.8-6.784-.3-9.416.107-5.552-.171-6.789-2.461-4.749-4.012-8.579-5.328,7.533-24.993,7.533-24.993l15.465-6.3Z" transform="translate(-1164.32 -1697.286)" fill="#2bbee0"/>
              <path id="Trazado_42981" data-name="Trazado 42981" d="M1170.118,1736.815c3.5,1.277,6.614,2.913,7.762,5.039,1.237,2.29,4.157,2.867,6.789,2.461s4.269.041,9.416-.107,8.9-4.8,8.9-4.8l.111,2.009c4.788-.411,7.426-2.222,8.873-4.513,1.817-2.874-.093-6.655-1.847-9.567a6.778,6.778,0,0,0-2.893-2.881c-4.5-2.876-4.105-8.272-10.718-12.263s-17.083,3.174-18.623,10.379-9.915,13.568-9.915,13.568,1.066.687,2.159,1.38A3.723,3.723,0,0,1,1170.118,1736.815Z" transform="translate(-1163.748 -1701.038)" fill="#4295a8"/>
              <circle id="Elipse_1092" data-name="Elipse 1092" cx="3.4" cy="3.4" r="3.4" transform="translate(41.363 22.171)" fill="#f9cdaf"/>
              <path id="Trazado_42982" data-name="Trazado 42982" d="M1206.412,1766.8l.206-9.621-9.677-.208-.408,9.184,4.392,3.235a.557.557,0,0,0,.592.046S1206.088,1767.038,1206.412,1766.8Z" transform="translate(-1174.504 -1718.332)" fill="#f9cdaf"/>
              <path id="Trazado_42983" data-name="Trazado 42983" d="M1196.96,1756.973l9.636,2.1-.053,2.456-9.96,3.2Z" transform="translate(-1174.523 -1718.332)" fill="#efbb97"/>
              <circle id="Elipse_1093" data-name="Elipse 1093" cx="17.579" cy="17.579" r="17.579" transform="translate(9.576 7.018)" fill="#f9cdaf"/>
              <path id="Trazado_42984" data-name="Trazado 42984" d="M1177.861,1728.084s4.8-2.5,11.563-12.639c3.323-4.979,10.7-3.363,10.7-3.363s1.752,9.255,10.444,8.7l-10.746-17.2-10.69-2.281-7,5.538-5.293,18.745Z" transform="translate(-1167.085 -1697.367)" fill="#efbb97" opacity="0.55"/>
              <path id="Trazado_42985" data-name="Trazado 42985" d="M1200.883,1699.922a23.731,23.731,0,0,0-16.962-4.813c-10.31,1.013-12.9,6.821-13.793,9.889s-2.454,4.063-5.165,5.753-4.739,5.23-3.277,8.889-4.358,11.318,7.5,14.66c0,0-4.37-4.415,1.222-7.587s6.982-10.344,7.875-13.617,7.838-9.342,17.277-4.465c0,0,1.055,10.736,11.908,8.366C1207.474,1717,1209.732,1704.366,1200.883,1699.922Z" transform="translate(-1161.197 -1694.99)" fill="#2bbee0"/>
              <path id="Trazado_42986" data-name="Trazado 42986" d="M1189.979,1709.733c-7.286,1.454-8.45,8.1-9.077,12.587-.617,4.416-4.915,9.865-4.915,9.865,5.593-3.172,6.982-10.344,7.875-13.617s7.838-9.342,17.277-4.465C1201.139,1714.1,1197.015,1708.329,1189.979,1709.733Z" transform="translate(-1166.766 -1700.459)" fill="#0e7992"/>
              <path id="Trazado_42987" data-name="Trazado 42987" d="M1225.871,1703.262l-2.19-2.208a12.636,12.636,0,0,0-.1-4.207l2.4-.141-.061,2.815,2.126-2,1.6,1.677A10.849,10.849,0,0,0,1225.871,1703.262Z" transform="translate(-1184.688 -1695.636)" fill="#2bbee0"/>
              <path id="Trazado_42988" data-name="Trazado 42988" d="M1233.991,1734.456a1.133,1.133,0,0,0-1.333,1.059c-.1,1.237.822,1.39,1.231,1.294a.51.51,0,0,0,.063-.925c-.382-.152-.629.276-.629.276A1.255,1.255,0,0,1,1233.991,1734.456Z" transform="translate(-1188.105 -1709.849)" fill="#efbb97"/>
              <path id="Trazado_42989" data-name="Trazado 42989" d="M1220.589,1710.714l2.911-5.5S1222.851,1708.941,1220.589,1710.714Z" transform="translate(-1183.563 -1698.839)" fill="#4295a8"/>
              <path id="Trazado_42990" data-name="Trazado 42990" d="M1203.193,1751.29a1.606,1.606,0,0,1-1.57-1.638l.018-.843a.292.292,0,1,1,.585.012l-.018.843a1.02,1.02,0,1,0,2.039.044l.018-.843a.292.292,0,1,1,.585.012l-.018.843A1.607,1.607,0,0,1,1203.193,1751.29Z" transform="translate(-1176.421 -1715.15)" fill="#4d4d4d"/>
              <path id="Trazado_42991" data-name="Trazado 42991" d="M1233.583,1739.77l-.868,1.572.954,3.99,1.064-4.152Z" transform="translate(-1188.129 -1711.853)" fill="#bc0f65"/>
              <path id="Trazado_42992" data-name="Trazado 42992" d="M1233.835,1741.212l-1.119.13.868-1.572,1.15,1.411Z" transform="translate(-1188.129 -1711.853)" fill="#f80a73"/>
              <path id="Trazado_42993" data-name="Trazado 42993" d="M1234.108,1739.77l.086,5.562,1.064-4.152Z" transform="translate(-1188.654 -1711.853)" fill="#e24295" opacity="0.34"/>
              <path id="Trazado_42994" data-name="Trazado 42994" d="M1205.528,1735.7a3.434,3.434,0,0,0-4.532-.125l-.526-.567a4.263,4.263,0,0,1,5.523.075Z" transform="translate(-1175.987 -1709.692)" fill="#ea810f"/>
              <g id="Grupo_40173" data-name="Grupo 40173" transform="translate(10.805 17.799)">
                <circle id="Elipse_1094" data-name="Elipse 1094" cx="7.426" cy="7.426" r="7.426" transform="translate(0 0)" fill="#c0d8dd"/>
                <path id="Trazado_42995" data-name="Trazado 42995" d="M1189.194,1731.548l2.384-7.2a7.422,7.422,0,0,0-4.927-.645l-2.148,6.484,2.384.051-2.288,7.217a7.422,7.422,0,0,0,4.859.827l2.119-6.686Z" transform="translate(-1180.778 -1723.541)" fill="#f0fafc"/>
              </g>
              <g id="Grupo_40174" data-name="Grupo 40174" transform="translate(28.64 18.182)">
                <circle id="Elipse_1095" data-name="Elipse 1095" cx="7.426" cy="7.426" r="7.426" fill="#c0d8dd"/>
                <path id="Trazado_42996" data-name="Trazado 42996" d="M1217.8,1732.163l2.384-7.2a7.434,7.434,0,0,0-4.927-.645l-2.148,6.484,2.383.051-2.288,7.218a7.4,7.4,0,0,0,3.446.932,7.5,7.5,0,0,0,1.414-.105l2.119-6.686Z" transform="translate(-1209.388 -1724.156)" fill="#f0fafc"/>
              </g>
            </g>
            <g id="Grupo_40176" data-name="Grupo 40176" transform="translate(110.877 154.426)">
              <path id="Trazado_42997" data-name="Trazado 42997" d="M1261.82,1796.088s14.483,7.75,13.128,11.109l-12.668-6.132-.951,1.39-1.341-.5-1.527,1.817-1.447-.45,2.8-4.512Z" transform="translate(-1232.638 -1792.832)" fill="#5224e2"/>
              <path id="Trazado_42998" data-name="Trazado 42998" d="M1238.755,1797.359a7.148,7.148,0,0,0-2.031-.741l.3,1.367,1.049.859Z" transform="translate(-1224.997 -1793.031)" fill="#422c9b"/>
              <path id="Trazado_42999" data-name="Trazado 42999" d="M1245.712,1799.024s-6.942,9.788-6.4,12.317,6.465,11.047,7.449,12.609.889,3.009-.554,4.174l-27.434-13.7s3.931-7.977,8.931-10.344l5.055-12.6,13.625,5.676Z" transform="translate(-1218.236 -1791.098)" fill="#dbdbdb"/>
              <path id="Trazado_43000" data-name="Trazado 43000" d="M1255.761,1826.4s-1.232,1.1-3.221-.941-5.957-7.406-6.285-9.842,1.7-6.9,3.439-9.725,4.388-3.385,5.526-1.194c0,0-3.731,5.785-4.748,7.972a8.325,8.325,0,0,1-2.284,3.107l7.283,10.229Z" transform="translate(-1228.573 -1795.57)" fill="#f80a73"/>
              <path id="Trazado_43001" data-name="Trazado 43001" d="M1255.908,1826.481s-.915.8-2.807-1.26-5.965-8.282-5.707-10.427,3.333-9.024,5.182-9.893,2.948.456,2.822,1.377-2.35,2.673-3.476,4.91-2.271,3.866-1.68,5.689S1255.908,1826.481,1255.908,1826.481Z" transform="translate(-1229.011 -1796.044)" fill="#bc0f65"/>
              <path id="Trazado_43002" data-name="Trazado 43002" d="M1237.022,1799.139a13.588,13.588,0,0,1-1.9-2.449s-.682-.474-1.441.986a46.921,46.921,0,0,0-1.938,5.515s-.183.982.431,1.182a10.682,10.682,0,0,0,2.652.107,1.123,1.123,0,0,0,.769-.617l1.59-3.491A1.078,1.078,0,0,0,1237.022,1799.139Z" transform="translate(-1223.113 -1793.031)" fill="#6d31fd"/>
              <path id="Trazado_43003" data-name="Trazado 43003" d="M1249.038,1807.525a.812.812,0,0,1,.285,1.225c-.279.516-.687,1.219-.907,1.643a.783.783,0,0,1-1.011.467c-.306-.14-10.68-5.017-11.092-5.342-.446-.352.056-1.605.292-2.115s.889-1.25,1.681-.989S1249.038,1807.525,1249.038,1807.525Z" transform="translate(-1224.775 -1795.194)" fill="#422c9b"/>
              <path id="Trazado_43004" data-name="Trazado 43004" d="M1257.031,1836.5a6.771,6.771,0,0,0-3.97,2.441.371.371,0,0,1-.555-.015l-1.086-1.3a.52.52,0,0,1,.031-.7c.806-.8,2.921-2.726,4.577-2.614a.758.758,0,0,1,.615.409l.664,1.26A.357.357,0,0,1,1257.031,1836.5Z" transform="translate(-1230.485 -1807.224)" fill="#dbb100"/>
              <path id="Trazado_43005" data-name="Trazado 43005" d="M1252.8,1830.564c-.782.081-2.479.541-4.554,2.795a.141.141,0,0,1-.206,0l-1.494-1.6a.2.2,0,0,1-.009-.258c.478-.578,2.492-2.84,4.969-3.118a.757.757,0,0,1,.735.385l.781,1.363A.29.29,0,0,1,1252.8,1830.564Z" transform="translate(-1228.676 -1804.992)" fill="#dbb100"/>
              <path id="Trazado_43006" data-name="Trazado 43006" d="M1249.284,1824.419l-.8-1.6a.545.545,0,0,0-.594-.292,11.817,11.817,0,0,0-5.928,2.972.438.438,0,0,0-.048.554l1.12,1.611a.288.288,0,0,0,.443.036,12.074,12.074,0,0,1,5.662-2.966A.222.222,0,0,0,1249.284,1824.419Z" transform="translate(-1226.922 -1802.784)" fill="#dbb100"/>
              <path id="Trazado_43007" data-name="Trazado 43007" d="M1225.382,1826.906c-1.677-1.6-4.366-4.438-4.76-4.568-.563-.185-1.688,1.344-2.605,3.112-.771,1.487,3,4.028,3,4.028,5.639,3.829,21.136,11.793,22.552,12.35s1.713.374,2.343-.639c0,0,.857-1.243-.016-1.765S1231.187,1832.442,1225.382,1826.906Z" transform="translate(-1217.913 -1802.712)" fill="#6d31fd"/>
              <path id="Trazado_43008" data-name="Trazado 43008" d="M1254.765,1796.476l-13.907-5.585a.555.555,0,0,0-.63.226c-.279.363-.977,1.706-.709,2.025s14.072,6,14.072,6,.4.1.773-.451S1255.569,1796.8,1254.765,1796.476Z" transform="translate(-1226.027 -1790.865)" fill="#dbb100"/>
              <path id="Trazado_43009" data-name="Trazado 43009" d="M1230.905,1818.354s-2.623-5.116-4.014-5.593c-.668-.229-1.717,1.272-2.357,2.286s-1.562,1.365-1.766,1.887-.037.908.622,1.452,3.818,3.219,4.863,3.1C1228.9,1821.422,1231.432,1819.351,1230.905,1818.354Z" transform="translate(-1219.711 -1799.102)" fill="#f80a73"/>
              <path id="Trazado_43010" data-name="Trazado 43010" d="M1231.146,1820.041s.625-.512.47-.9-2.882-4.861-3.529-5.085-.915.866-1.259,1.181c0,0-.886.486-.638,1.131.313.817,4.063,3.752,4.063,3.752A.561.561,0,0,0,1231.146,1820.041Z" transform="translate(-1221.014 -1799.586)" fill="#e00b71"/>
              <path id="Trazado_43011" data-name="Trazado 43011" d="M1225.447,1819.148s-.754-.778-1.034-.724-.936.739-.856,1.127.689.881.939.838S1225.792,1819.473,1225.447,1819.148Z" transform="translate(-1220.036 -1801.242)" fill="#5ed4f0"/>
              <path id="Trazado_43012" data-name="Trazado 43012" d="M1227.538,1821.494s-.589-.608-.809-.565-.732.577-.669.881.539.689.734.655S1227.808,1821.749,1227.538,1821.494Z" transform="translate(-1220.979 -1802.186)" fill="#5ed4f0"/>
              <path id="Trazado_43013" data-name="Trazado 43013" d="M1229.372,1823.393s-.414-.427-.569-.4-.514.406-.47.619.378.484.516.461S1229.562,1823.572,1229.372,1823.393Z" transform="translate(-1221.836 -1802.964)" fill="#5ed4f0"/>
              <path id="Trazado_43014" data-name="Trazado 43014" d="M1245.334,1842.278s-20.459-10.574-24.432-15.033C1220.9,1827.245,1224.537,1832.785,1245.334,1842.278Z" transform="translate(-1219.039 -1804.565)" fill="#422c9b"/>
            </g>
            <path id="Trazado_43015" data-name="Trazado 43015" d="M1251.979,1800.828l-5-3.3s-.9-4.125-6.7-6.419c0,0-3.225-1.04-2.071-3.6,0,0-4.45-1.337-5.881-.314-2.02,1.443-1.611,2.961-1.3,4.43,0,0-2.371,1.622-1.676,4.007a5.575,5.575,0,0,0-1.381,3.2c.093,1.508,4.475,9.021,13.11,8.217l6.058,3.577Z" transform="translate(-1110.82 -1634.911)" fill="#f9cdaf"/>
            <path id="Trazado_43016" data-name="Trazado 43016" d="M1254.552,1797.532l.441-.7a4.012,4.012,0,0,0-.441-3.918c-1.418-1.728-.49-5.465-1.495-6.239s-2.789.141-3.145,2.346a26.881,26.881,0,0,0-.335,4.087S1249.706,1797.352,1254.552,1797.532Z" transform="translate(-1118.96 -1634.761)" fill="#f9cdaf"/>
            <path id="Trazado_43017" data-name="Trazado 43017" d="M1234.8,1792.039s-3.808,5.235-5.058,9.521A66.239,66.239,0,0,0,1234.8,1792.039Z" transform="translate(-1111.491 -1636.881)" fill="#efbb97"/>
            <path id="Trazado_43018" data-name="Trazado 43018" d="M1252.82,1816.935l4.31,2.481,7.336-12.957-5.666-2.1A23.5,23.5,0,0,0,1252.82,1816.935Z" transform="translate(-1120.181 -1641.519)" fill="#dbb100"/>
            <path id="Trazado_43019" data-name="Trazado 43019" d="M1284.327,1813.844c.09,10.2-13.2,16.1-29.706,5.95,0,0,.916-5.758,2.943-8.6l3.053.066-1.72-4.266,1.569-2.161,1.3-1.906Z" transform="translate(-1120.86 -1640.98)" fill="#6d31fd"/>
            <path id="Trazado_43020" data-name="Trazado 43020" d="M1176.778,1803.5s3.808,5.235,5.057,9.521A66.2,66.2,0,0,1,1176.778,1803.5Z" transform="translate(-1091.545 -1641.196)" fill="#efbb97"/>
          </g>
        </g>
      </g>
      <path id="Trazado_43022" data-name="Trazado 43022" d="M1021.245,1860.284s1.443,12.167,70.733,13.4C1091.978,1873.688,1021.657,1875.338,1021.245,1860.284Z" transform="translate(0 -121.909)" fill="#ebbe02"/>
    </g>
  </g>
</svg>
