<svg xmlns="http://www.w3.org/2000/svg" width="176.184" height="176" viewBox="0 0 176.184 176">
  <g id="Grupo_2463" data-name="Grupo 2463" transform="translate(-6781.628 -160.394)">
    <path id="Trazado_4844" data-name="Trazado 4844" d="M6851.306,202.238s-25.263-16.953-42.062,2.082-.142,40.469-6.385,54.044-24.045,11.31-20.851,37.469c4.333,35.486,94.013,40.6,141.325,24.218s30.163-44.412,20.436-54.189c-10.181-10.233,8.78-25.64-11.115-42.774C6915.955,208.706,6882.306,220.477,6851.306,202.238Z" fill="#6d31ff"/>
    <rect id="Rectángulo_1873" data-name="Rectángulo 1873" width="176" height="176" transform="translate(6781.812 160.394)" fill="none"/>
    <g id="Grupo_2462" data-name="Grupo 2462">
      <g id="Grupo_2461" data-name="Grupo 2461">
        <g id="Grupo_2459" data-name="Grupo 2459">
          <g id="Grupo_2458" data-name="Grupo 2458">
            <path id="Trazado_4845" data-name="Trazado 4845" d="M6888.207,269.6c2.232,10.964,8.522,34.175,8.522,34.175-4.739,1.7-3.992,3.377-3.992,3.377s9.862,3.147,12.494-.365c1.043-9.383-.9-41.879-.9-41.879S6890.977,267.017,6888.207,269.6Z" fill="#1c1c1c"/>
            <path id="Trazado_4846" data-name="Trazado 4846" d="M6829.056,222.218c-4.385,25.853-4.756,62.74.546,87.722-4.435.933-7.079,4.558-6.444,5.077s13.923,2.52,14.847.1,4.5-39.859,4.5-39.859c5.349,4.742,17.034,5.454,17.034,5.454-2.417,20.407-2.129,37.757-1.472,38.052s11.658,3.832,13.785,3.128-2.813-6.221-2.813-6.221c3.857-11.276,8.838-35.417,8.838-35.417,9.568.189,21.46-6.464,28.493-12.854,10.087,13.569,14.031,32.776,14.33,36.692-6.153,2.134-5.45,4.261-5.45,4.261,3.828,2.893,15.892,3.4,18.242-1.854s-3.478-77.106-25.832-89.145c-10.187-1.007-19.331,8.261-36.936,2.52-22.933-3.867-42.418-1.635-42.312,3.073" fill="#262626"/>
            <path id="Trazado_4847" data-name="Trazado 4847" d="M6858.9,170.326c-18.062-3.52-36.8,3.532-38.2,18.01-.982,10.207,1.9,13.945.316,20.17s-2.817,14.01,8.229,17.816,34.126,4.5,47.013-1.934,3.833-16.911,4.94-24.26S6881.382,174.707,6858.9,170.326Z" fill="#383838"/>
            <path id="Trazado_4848" data-name="Trazado 4848" d="M6843.192,198.557c-2.583.283-2.366-2.363-3.2-5.536s-5.434-7.477-11.376-3.891-6.679,7.356-4.958,13.269,7.319,3.709,6.877,7.031-2.949,10.119,1.95,14.065c6.711,5.407,21.084,5.413,31.2.819,5.375-2.44.694-11.933,2.178-13.457s11.079-.388,10.927-8.761-6.367-12.793-12.377-11.495-6.7,4.115-6.84,7.652c-.085,2.155-1.877,2.12-2.835,1.677A24.854,24.854,0,0,0,6843.192,198.557Z" fill="#303030"/>
            <path id="Trazado_4849" data-name="Trazado 4849" d="M6839.814,217.308c-3.146,4.745,13.373,6.14,14.829,2.39s-5.7-13.812-6.78-13.575S6841.826,213.076,6839.814,217.308Z"/>
            <path id="Trazado_4850" data-name="Trazado 4850" d="M6842.233,217.275a1.879,1.879,0,0,0,1.192,2.218c1.593.577,6.734.891,7.691.2s.4-2.308.4-2.308Z" fill="#191919"/>
            <path id="Trazado_4851" data-name="Trazado 4851" d="M6838.9,197.475a6.5,6.5,0,1,1-6.892-6.4A6.656,6.656,0,0,1,6838.9,197.475Z" fill="#fff"/>
            <path id="Trazado_4852" data-name="Trazado 4852" d="M6832.11,173.686c-1.123-3.2-3.722-6.465-9.25-.378-4.22,4.648-10.03,3.385-10.572,7.777s5.149,5.521,5.978,10.69,6.282-.775,7.128-7.223,4.485-9.492,4.485-9.492Z" fill="#1c1c1c"/>
            <path id="Trazado_4853" data-name="Trazado 4853" d="M6868.92,173.846c1.289-3.139,4.055-6.261,9.256.107,3.971,4.862,9.839,3.906,10.15,8.32s-5.431,5.245-6.53,10.362-6.233-1.1-6.739-7.587-3.982-9.713-3.982-9.713Z" fill="#1c1c1c"/>
            <path id="Trazado_4854" data-name="Trazado 4854" d="M6873.931,199.852a6.5,6.5,0,1,1-6.892-6.4A6.657,6.657,0,0,1,6873.931,199.852Z" fill="#fff"/>
            <path id="Trazado_4855" data-name="Trazado 4855" d="M6872.283,200.129a4.827,4.827,0,1,1-5.112-4.523A4.827,4.827,0,0,1,6872.283,200.129Z"/>
            <path id="Trazado_4856" data-name="Trazado 4856" d="M6836.873,198.446a4.826,4.826,0,1,1-4.775-4.876A4.826,4.826,0,0,1,6836.873,198.446Z"/>
            <path id="Trazado_4857" data-name="Trazado 4857" d="M6842.573,201.161c-4.324,1.084-13.332,7.048-13.452,12.724a6.84,6.84,0,0,0,9.826,6.6c4.505-2.164,7.9-13.285,8.968-15.036C6846.737,203.172,6842.573,201.161,6842.573,201.161Z" fill="#191919"/>
            <path id="Trazado_4858" data-name="Trazado 4858" d="M6847.478,205.91c.239,1.878,3.486,7.272,4.739,11.119s5.182,5.808,9.844,3.7,6.582-6.985,2.374-11.64-9.886-7.463-11.4-7.077C6851.442,202.463,6847.478,205.91,6847.478,205.91Z" fill="#191919"/>
            <path id="Trazado_4859" data-name="Trazado 4859" d="M6836.644,184.281c-.061.165-.63.079-1.492.033a8.665,8.665,0,0,0-3.244.449,12.715,12.715,0,0,0-2.962,1.555c-.73.492-1.2.835-1.328.714-.113-.1.127-.646.772-1.354a7.7,7.7,0,0,1,3.128-2.049,6.555,6.555,0,0,1,2.077-.369,6.012,6.012,0,0,1,1.7.218C6836.227,183.759,6836.7,184.138,6836.644,184.281Z"/>
            <path id="Trazado_4860" data-name="Trazado 4860" d="M6871.956,188.409c-.145.1-.52-.21-1.1-.647a11.608,11.608,0,0,0-2.426-1.4,14.389,14.389,0,0,0-2.706-.815c-.722-.154-1.2-.241-1.217-.413s.456-.374,1.271-.433a6.913,6.913,0,0,1,3.118.556,6.357,6.357,0,0,1,2.558,1.9,3.275,3.275,0,0,1,.487.84C6872.015,188.22,6872.023,188.361,6871.956,188.409Z"/>
            <path id="Trazado_4861" data-name="Trazado 4861" d="M6830.94,311.444c.025.168-.314.363-.835.645s-1.24.651-1.962,1.122a9.436,9.436,0,0,0-.94.722,4.6,4.6,0,0,0-.621.688c-.31.421-.426.784-.606.789-.082,0-.154-.094-.209-.293a1.092,1.092,0,0,1-.035-.167c0-.059,0-.125,0-.2s.007-.149.015-.231a2.3,2.3,0,0,1,.061-.248,3.036,3.036,0,0,1,.583-1.092,5.2,5.2,0,0,1,1.087-.97,6.009,6.009,0,0,1,2.367-.931C6830.5,311.187,6830.919,311.285,6830.94,311.444Z" fill="#383838"/>
            <path id="Trazado_4862" data-name="Trazado 4862" d="M6833.42,312.947c.081.146-.045.382-.27.67a11.654,11.654,0,0,1-.94,1.017c-.764.762-1.553,1.323-1.808,1.1s.118-1.105.968-1.957a3.693,3.693,0,0,1,1.3-.857C6833.057,312.783,6833.342,312.8,6833.42,312.947Z" fill="#383838"/>
            <path id="Trazado_4863" data-name="Trazado 4863" d="M6866.7,320.809c-.132.1-.421-.04-.767-.348a9.41,9.41,0,0,1-1.141-1.3c-.4-.523-.729-.988-.969-1.339s-.384-.61-.3-.755.418-.12.855.118a4.544,4.544,0,0,1,1.365,1.25,6.628,6.628,0,0,1,.882,1.543C6866.794,320.4,6866.834,320.709,6866.7,320.809Z" fill="#383838"/>
            <path id="Trazado_4864" data-name="Trazado 4864" d="M6870.333,321.053c-.324.1-.822-.655-1.46-1.471-.319-.412-.613-.777-.825-1.073s-.335-.532-.252-.679.371-.158.766.005a3.242,3.242,0,0,1,1.261,1.015,3.381,3.381,0,0,1,.67,1.458C6870.56,320.723,6870.488,321,6870.333,321.053Z" fill="#383838"/>
            <path id="Trazado_4865" data-name="Trazado 4865" d="M6896.1,307.827c-.156-.038-.245-.342-.151-.8a3.373,3.373,0,0,1,.843-1.54,3.5,3.5,0,0,1,1.45-.968c.439-.138.748-.092.807.057s-.1.382-.366.668l-1.01,1.057c-.38.413-.705.8-.956,1.087S6896.265,307.868,6896.1,307.827Z" fill="#383838"/>
            <path id="Trazado_4866" data-name="Trazado 4866" d="M6899.4,307.926c-.148-.07-.187-.349-.084-.745a3.3,3.3,0,0,1,.787-1.369,2.566,2.566,0,0,1,1.452-.825c.459-.059.734.1.739.253s-.19.325-.428.537a11.116,11.116,0,0,0-.89.858C6900.3,307.362,6899.714,308.069,6899.4,307.926Z" fill="#383838"/>
            <path id="Trazado_4867" data-name="Trazado 4867" d="M6921.584,305.546c.063.159-.179.407-.548.751s-.867.8-1.389,1.344c-1.043,1.084-1.814,2.113-2.121,1.962-.145-.074-.133-.442.066-.968a5.652,5.652,0,0,1,1.189-1.824,4.972,4.972,0,0,1,1.822-1.243C6921.148,305.373,6921.526,305.4,6921.584,305.546Z" fill="#383838"/>
            <path id="Trazado_4868" data-name="Trazado 4868" d="M6922.522,305.3" fill="none" stroke="#705a40" stroke-miterlimit="10" stroke-width="0.91"/>
            <path id="Trazado_4869" data-name="Trazado 4869" d="M6926.812,305.835c.1.134-.138.476-.59.9s-1.111.935-1.806,1.487c-.344.28-.662.546-.939.8s-.513.482-.695.691c-.377.407-.593.72-.763.678-.151-.031-.221-.481.039-1.12a4.046,4.046,0,0,1,.611-1,6.992,6.992,0,0,1,1-.976,9.453,9.453,0,0,1,2.091-1.261C6926.326,305.785,6926.716,305.7,6926.812,305.835Z" fill="#383838"/>
            <g id="Grupo_2457" data-name="Grupo 2457">
              <path id="Trazado_4870" data-name="Trazado 4870" d="M6842.323,200.764s-.016-2.259,4.831-1.972,6.176,1.757,6.5,2.659-.41,5.465-6.073,5.086A5.329,5.329,0,0,1,6842.323,200.764Z"/>
              <path id="Trazado_4871" data-name="Trazado 4871" d="M6846.963,202.654s-.182-2.041-1.92-1.707c-1.2.23-.274,3.723.809,4.086S6847.009,203.7,6846.963,202.654Z" fill="#262626"/>
              <path id="Trazado_4872" data-name="Trazado 4872" d="M6848.907,202.705s.29-2.029,2.008-1.6c1.183.293.078,3.732-1.023,4.038S6848.807,203.748,6848.907,202.705Z" fill="#262626"/>
              <path id="Trazado_4873" data-name="Trazado 4873" d="M6848.063,199.285s2.579.011,3.566.837c0,0,.055.559-1.544.167S6847.815,199.819,6848.063,199.285Z" fill="#161616"/>
            </g>
            <path id="Trazado_4874" data-name="Trazado 4874" d="M6880.483,262.033a267.781,267.781,0,0,1-11.445,53.634s-1.979-16.587.709-27,1.4-15.7,1.4-15.7S6878.792,267.467,6880.483,262.033Z" fill="#1c1c1c"/>
            <path id="Trazado_4875" data-name="Trazado 4875" d="M6857.763,274.539a29.784,29.784,0,0,1-2.513-8.642s-1.8,5.193-.9,7.242c0,0-4.267-5.321-4.9-8.569,0,0-1.23,6,.03,7.938a18.073,18.073,0,0,1-3.654-6.024s-1.469,3.772-.318,5.92c0,0-3.675-3.524-4.888-7.248,0,0-1.117,6.729,1.885,10.1s13.256,5.4,17.034,5.454l1.792-5.957s-2.518-3.877-2.594-5.547C6858.736,269.2,6856.86,272.609,6857.763,274.539Z" fill="#383838"/>
            <path id="Trazado_4876" data-name="Trazado 4876" d="M6841.71,271.259a7.683,7.683,0,0,0,2.167,5.15s4.458,3.518,15.661,4.3l1.341-4.455a8.817,8.817,0,0,1-2.008-3.115,6.113,6.113,0,0,0,.27,3.342s-3.211-2.466-3.645-4.085a7.63,7.63,0,0,0,1.041,3.481s-4.448-1.308-5.656-4.912a8.686,8.686,0,0,0,2.085,4.813s-5.1-.962-6.711-5.233c0,0-.266,3.318,1.359,4.944C6847.614,275.488,6843,274.393,6841.71,271.259Z" fill="#494949"/>
            <path id="Trazado_4877" data-name="Trazado 4877" d="M6915.17,212.594c4.39-2.525.745-9.179-4.051-10.895,1.956,5.094-1.586,7.622-3.563,7.614" fill="#191919"/>
            <path id="Trazado_4878" data-name="Trazado 4878" d="M6911.034,221.9c-.25-7.63-2.09-6.931-2.09-6.931-4.664.687-11.7-5.7-7.6-7.1s16.8,1.483,18.881,11.521-4.559,9.163-4.559,9.163" fill="#1c1c1c"/>
            <path id="Trazado_4879" data-name="Trazado 4879" d="M6898.449,224.986l6.317-7.666s14.209-1.493,18.039,11.436,5.464,28.42,5.464,28.42Z" fill="#262626"/>
            <path id="Trazado_4880" data-name="Trazado 4880" d="M6906.369,267.4s4.85-4.17,6.551-9.574c0,0,10.148,17.979,7.779,46.266C6920.7,304.088,6915.638,278.349,6906.369,267.4Z" fill="#191919"/>
            <path id="Trazado_4881" data-name="Trazado 4881" d="M6829.677,199.606a.839.839,0,0,1-.835-.778,3.5,3.5,0,0,1,2.1-3.626.839.839,0,0,1,.589,1.571,1.81,1.81,0,0,0-1.014,1.933.837.837,0,0,1-.775.9C6829.718,199.6,6829.7,199.606,6829.677,199.606Z" fill="#fff"/>
            <path id="Trazado_4882" data-name="Trazado 4882" d="M6865.349,201.512a.838.838,0,0,1-.835-.777,3.5,3.5,0,0,1,2.1-3.626.839.839,0,0,1,.59,1.571,1.809,1.809,0,0,0-1.014,1.933.838.838,0,0,1-.775.9C6865.391,201.512,6865.37,201.512,6865.349,201.512Z" fill="#fff"/>
            <path id="Trazado_4883" data-name="Trazado 4883" d="M6914.18,198.2s6.337,1.915,6.66,7.393C6920.84,205.6,6923.31,197.148,6914.18,198.2Z" fill="#f7941d"/>
            <path id="Trazado_4884" data-name="Trazado 4884" d="M6916.87,196.082s5.225.942,5.986,5.277C6922.856,201.359,6924.047,194.4,6916.87,196.082Z" fill="#f7941d"/>
            <path id="Trazado_4885" data-name="Trazado 4885" d="M6898.967,214.668s-4.585-3.148-3.446-7.616C6895.521,207.052,6891.389,213.187,6898.967,214.668Z" fill="#f7941d"/>
            <path id="Trazado_4886" data-name="Trazado 4886" d="M6896.273,215.682s-3.943-2.087-3.447-5.751C6892.826,209.931,6890.1,215.2,6896.273,215.682Z" fill="#f7941d"/>
          </g>
          <path id="Trazado_4887" data-name="Trazado 4887" d="M6843.115,216.46s-.627-1.1.4-3.866a13,13,0,0,0,2.047,3.691A3.884,3.884,0,0,1,6843.115,216.46Z" fill="#fbfbf9"/>
          <path id="Trazado_4888" data-name="Trazado 4888" d="M6845.218,213.924l-.758,2.333a2.3,2.3,0,0,0,2.3.209Z" fill="#fbfbf9"/>
          <path id="Trazado_4889" data-name="Trazado 4889" d="M6842.813,215.576a49.007,49.007,0,0,0,8.67.184,1.044,1.044,0,0,1,.973.448h0a1.046,1.046,0,0,1-.694,1.626,34.714,34.714,0,0,1-9.216-.118,1.049,1.049,0,0,1-.675-1.728l.049-.057A1.047,1.047,0,0,1,6842.813,215.576Z" fill="#262626"/>
        </g>
        <g id="Grupo_2460" data-name="Grupo 2460">
          <circle id="Elipse_439" data-name="Elipse 439" cx="18.218" cy="18.218" r="18.218" transform="translate(6810.43 292.031)" fill="#39b54a"/>
          <path id="Trazado_4890" data-name="Trazado 4890" d="M6842.1,297.963a18.214,18.214,0,1,0,4.768,12.287A18.147,18.147,0,0,0,6842.1,297.963Z" fill="#8dc63f"/>
          <path id="Trazado_4891" data-name="Trazado 4891" d="M6815.361,297.792a18.2,18.2,0,1,0,4.931,12.458A18.154,18.154,0,0,0,6815.361,297.792Z" fill="#8dc63f"/>
        </g>
      </g>
    </g>
  </g>
</svg>
