<svg xmlns="http://www.w3.org/2000/svg" xmlns:xlink="http://www.w3.org/1999/xlink" width="176" height="176" viewBox="0 0 140 123">
  <defs>
    <linearGradient id="linear-gradient" x1="10.795" y1="7.101" x2="11.795" y2="7.101" gradientUnits="objectBoundingBox">
      <stop offset="0" stop-color="#4a1ed9"/>
      <stop offset="0.92" stop-color="#5e2bf5"/>
      <stop offset="1" stop-color="#602cf8"/>
    </linearGradient>
  </defs>
  <g id="Grupo_34333" data-name="Grupo 34333" transform="translate(-105 -42)">
    <g id="CER" transform="translate(96.04 37.959)">
      <path id="Trazado_9538" data-name="Trazado 9538" d="M86.174,121.892s45.7,7.389,58.606-25.888c13.736-35.426-8.207-48.146-39.139-75.589C71.433-9.943-1.479,31.043,10.217,82.421,17.78,115.644,35.437,110.6,86.174,121.892Z" fill="url(#linear-gradient)"/>
      <g id="Grupo_4183" data-name="Grupo 4183" transform="translate(-2310.043 -1340.095)">
        <path id="Trazado_9564" data-name="Trazado 9564" d="M2361.432,1429.037c-.461-.16-11.331-3.992-14.2-11.479-2.749-7.169-1.615-12.67-.181-16.022a16.476,16.476,0,0,1,3.891-5.682l1.305,1.515c-.325.283-7.907,7.058-3.148,19.473,2.54,6.626,12.884,10.269,12.989,10.3Z" fill="#3a3a3a"/>
        <path id="Trazado_9565" data-name="Trazado 9565" d="M2437.961,1397.721c-9.037,0-15.44-6.995-15.726-7.313l1.486-1.339c.069.076,6.955,7.6,16.013,6.55a2.171,2.171,0,0,0,1.965-1.231c2.019-4.315-5.519-17.431-8.593-22.121l1.672-1.1c1.194,1.821,11.585,17.969,8.732,24.065a4.168,4.168,0,0,1-3.547,2.37A17.571,17.571,0,0,1,2437.961,1397.721Z" fill="#3a3a3a"/>
        <path id="Trazado_9566" data-name="Trazado 9566" d="M2357.348,1426.092s2.711-3.649,5.027-2.386-2.513,3.617-2.513,3.617Z" fill="#3a3a3a"/>
        <path id="Trazado_9567" data-name="Trazado 9567" d="M2434.981,1451.108c7.263-43.894-29.052-98.526-29.052-98.526l-71.764,10.809s36.315,54.631,29.052,98.526Z" fill="#e2e2e2"/>
        <path id="Trazado_9568" data-name="Trazado 9568" d="M2342.323,1368.127l61.947-10.421s10.737,17.685,16.421,33.474l-62.842,9.474S2350.217,1378.548,2342.323,1368.127Z" fill="#d6d6d6"/>
        <path id="Trazado_9569" data-name="Trazado 9569" d="M2387.849,1403.219l31.218-5.316,1.353,5.316-30.927,4.929Z" fill="#d6d6d6"/>
        <path id="Trazado_9570" data-name="Trazado 9570" d="M2390.748,1412.271l31.217-5.316,1.353,5.316-30.927,4.929Z" fill="#d6d6d6"/>
        <path id="Trazado_9571" data-name="Trazado 9571" d="M2393.068,1421.162l31.218-5.316,1.353,5.316-30.927,4.929Z" fill="#d6d6d6"/>
        <path id="Trazado_9572" data-name="Trazado 9572" d="M2404.059,1431.706s3.684,9.579,1.053,15.228l23.9-4.316s2.315-9.228-1-14.526Z" fill="#d6d6d6"/>
        <g id="Grupo_4181" data-name="Grupo 4181">
          <path id="Trazado_9573" data-name="Trazado 9573" d="M2378.483,1381.141a4.854,4.854,0,1,1-5.636-3.575A4.723,4.723,0,0,1,2378.483,1381.141Z" fill="#231f20"/>
          <path id="Trazado_9574" data-name="Trazado 9574" d="M2374.953,1380.791a1.265,1.265,0,0,1,.31,1.68c-.476.791.714,1.6,1.192.8a2.682,2.682,0,0,0-.422-3.432.744.744,0,0,0-1.015-.065.723.723,0,0,0-.065,1.014Z" fill="#fff"/>
        </g>
        <g id="Grupo_4182" data-name="Grupo 4182">
          <path id="Trazado_9575" data-name="Trazado 9575" d="M2403.69,1377.041a4.854,4.854,0,1,1-5.636-3.575A4.722,4.722,0,0,1,2403.69,1377.041Z" fill="#231f20"/>
          <path id="Trazado_9576" data-name="Trazado 9576" d="M2400.16,1376.691a1.266,1.266,0,0,1,.31,1.68c-.476.79.714,1.6,1.192.8a2.682,2.682,0,0,0-.423-3.433.745.745,0,0,0-1.014-.065.724.724,0,0,0-.065,1.015Z" fill="#fff"/>
        </g>
        <path id="Trazado_9577" data-name="Trazado 9577" d="M2389.9,1370.009l.625-2.3s13.173-2.457,14.6-1.068a20.537,20.537,0,0,1,2.845,4.018,33.608,33.608,0,0,0-5.205-1.418c-2.638-.459-11.727,2.473-11.727,2.473Z" fill="#231f20"/>
        <path id="Trazado_9578" data-name="Trazado 9578" d="M2376.137,1371.862l-1.441-1.892s-13.132,2.668-13.93,4.489a20.57,20.57,0,0,0-1.128,4.793,33.489,33.489,0,0,1,4.292-3.268c2.273-1.417,11.8-2.111,11.8-2.111Z" fill="#231f20"/>
        <path id="Trazado_9579" data-name="Trazado 9579" d="M2393.441,1385.467s-.441,3.555-3.147,4.169a4.545,4.545,0,0,1-4.9-2.037s-.725-1.255-1.478-.493c0,0-.66.631.226,1.543,0,0,2.569,3.527,6.554,2.533,0,0,3.943-.505,4.523-5.6,0,0,.043-.981-.544-1.145C2394.678,1384.441,2393.582,1384.142,2393.441,1385.467Z" fill="#3a3a3a"/>
        <path id="Trazado_9580" data-name="Trazado 9580" d="M2368.414,1435.233l-.026-.556c-.53-11.557-9.117-30.363-9.2-30.551l-.273-.595,62.045-10.27.172.306c4.93,8.813,8.986,30.6,9.157,31.522l.093.506Zm-8.054-30.929c1.448,3.265,8.3,19.186,9,29.771l59.849-9.31c-.642-3.337-4.411-22.282-8.781-30.4Z" fill="#a8a8a8" opacity="0.36"/>
        <path id="Trazado_9581" data-name="Trazado 9581" d="M2358.3,1426.092s5.128-2.6,5.654,2.877c.437,4.55-3.139,7.37-5.043,6.264s0-5.223,0-5.223S2356.826,1427.249,2358.3,1426.092Z" fill="#3a3a3a"/>
        <path id="Trazado_9582" data-name="Trazado 9582" d="M2436.059,1369.97s-3.579,5.973-6.526,1.749-3.6-10.539-2.328-10.539,3.17,5.04,3.17,5.04,5-2.707,5.684.985A5.8,5.8,0,0,1,2436.059,1369.97Z" fill="#3a3a3a"/>
      </g>
    </g>
    <rect id="Rectángulo_3735" data-name="Rectángulo 3735" width="140" height="123" transform="translate(105 42)" fill="none"/>
  </g>
</svg>
