<svg xmlns="http://www.w3.org/2000/svg" xmlns:xlink="http://www.w3.org/1999/xlink" width="176" height="176" viewBox="0 0 176 176">
  <defs>
    <clipPath id="clip-path">
      <path id="Trazado_9472" data-name="Trazado 9472" d="M187.765,88.587a43.557,43.557,0,0,0-3.916-12.81V7.8H37.273v97.616c-3.463,5.448-5.346,12.438-3.607,21.286C39.4,155.89,81,188.272,125.282,174.994S192.416,120.965,187.765,88.587Z" transform="translate(-33.008 -7.8)" fill="none"/>
    </clipPath>
  </defs>
  <g id="Grupo_4000" data-name="Grupo 4000" transform="translate(-6204.469 -400.457)">
    <rect id="Rectángulo_1876" data-name="Rectángulo 1876" width="176" height="176" transform="translate(6204.469 400.457)" fill="none"/>
    <g id="Grupo_4121" data-name="Grupo 4121" transform="translate(6181.464 395.657)">
      <path id="Trazado_9390" data-name="Trazado 9390" d="M61.588,163.481s-33.664,9-27.924,38.188,47.331,61.574,91.616,48.3,67.134-54.029,62.484-86.407-42.582-47.376-63.558-36.881S106.6,149.975,61.588,163.481Z" transform="translate(0 -74.971)" fill="#6d31ff"/>
      <g id="Grupo_4123" data-name="Grupo 4123" transform="translate(33.006 7.8)">
        <g id="Grupo_4122" data-name="Grupo 4122" transform="translate(0)" clip-path="url(#clip-path)">
          <g id="Grupo_4121-2" data-name="Grupo 4121" transform="translate(31.698 0.976)">
            <path id="Trazado_9391" data-name="Trazado 9391" d="M251.379,121.98s5.286,7.569,2.842,12.009-2.936,6.02-1.528,7.331a3.879,3.879,0,0,1-2.125-3.414s-.2,4.278-3.274,5.111-21.844-4.8-21.844-4.8Z" transform="translate(-189.553 -82.851)" fill="#261b17"/>
            <path id="Trazado_9392" data-name="Trazado 9392" d="M190.678,126.53s-4.847,7.864-2.153,12.153,3.274,5.841,1.942,7.232a3.86,3.86,0,0,0,1.928-3.537s.439,4.261,3.558,4.917,21.535-6.066,21.535-6.066Z" transform="translate(-165.068 -85.803)" fill="#261b17"/>
            <path id="Trazado_9393" data-name="Trazado 9393" d="M298.22,29.818c.084-.281,1.64-6.892,9.694-7.931S319.4,38.044,314.258,41.43s-13.52-3.737-13.52-3.737Z" transform="translate(-236.762 -17.886)" fill="#3a3735"/>
            <path id="Trazado_9394" data-name="Trazado 9394" d="M292.219,37.555s6.976-11.071,14-10.443,11.286,7.85,7.664,9.814-14.893,4.566-17.06,4.169S292.166,38.672,292.219,37.555Z" transform="translate(-232.868 -21.288)" fill="#261b17"/>
            <ellipse id="Elipse_515" data-name="Elipse 515" cx="3.765" cy="3.808" rx="3.765" ry="3.808" transform="translate(57.482 36.302)" fill="#c19063"/>
            <ellipse id="Elipse_516" data-name="Elipse 516" cx="2.209" cy="2.234" rx="2.209" ry="2.234" transform="translate(59.038 37.875)" fill="#ad754e"/>
            <ellipse id="Elipse_517" data-name="Elipse 517" cx="3.765" cy="3.808" rx="3.765" ry="3.808" transform="translate(21.609 36.927)" fill="#c19063"/>
            <ellipse id="Elipse_518" data-name="Elipse 518" cx="2.209" cy="2.234" rx="2.209" ry="2.234" transform="translate(23.165 38.501)" fill="#ad754e"/>
            <ellipse id="Elipse_519" data-name="Elipse 519" cx="20.386" cy="15.992" rx="20.386" ry="15.992" transform="translate(22.971 142.091) rotate(-3.63)" fill="#c19063"/>
            <path id="Trazado_9395" data-name="Trazado 9395" d="M222.95,199.732l2.943,17.64,13.674-.3,1.089-18.163Z" transform="translate(-187.931 -132.759)" fill="#c19063"/>
            <path id="Trazado_9396" data-name="Trazado 9396" d="M224.337,205.38s9.621,4.8,15.926.077l.393-6.547-17.706.822Z" transform="translate(-187.931 -132.759)" fill="#b28056"/>
            <path id="Trazado_9397" data-name="Trazado 9397" d="M192.261,249.35l25.81,3.639s8.876,4.788-.292,15.2l-6.344,57.169a66,66,0,0,1-40.141-1.865L165.566,270.4s-11.51-7.485-.369-17.338Z" transform="translate(-147.312 -165.482)" fill="#c19063"/>
            <path id="Trazado_9398" data-name="Trazado 9398" d="M221.471,250.867l5.55-3.555S208,239.732,197.867,240.7a75.022,75.022,0,0,0-23.737,6.674l14.4,10.309Z" transform="translate(-156.259 -159.816)" fill="#c19063"/>
            <path id="Trazado_9399" data-name="Trazado 9399" d="M165.164,247.449a74.351,74.351,0,0,1,23.737-6.674c10.134-.959,29.154,6.611,29.154,6.611s8.876,4.788-.292,15.2l-6.347,57.155a66,66,0,0,1-40.141-1.865l-5.729-53.084S154.022,257.3,165.164,247.449Z" transform="translate(-147.293 -159.865)" fill="#c19063"/>
            <path id="Trazado_9400" data-name="Trazado 9400" d="M242.1,288.68c.46,1.156,1.616,1.949,1.9,3.186.2.857-.169,1.377-1.033,1.4s-1.377-.671-1.581-1.489a5.028,5.028,0,0,1,.467-3.1c.06-.144.27-.025.211.119a5.381,5.381,0,0,0-.527,2.392c.053.8.555,2.143,1.609,1.823l.646-.453a.943.943,0,0,0,0-.443,2.169,2.169,0,0,0-.221-.72,5.144,5.144,0,0,0-.569-.878,7.889,7.889,0,0,1-1.138-1.756c-.056-.144.172-.214.232-.07Z" transform="translate(-199.835 -190.955)" fill="#191817"/>
            <path id="Trazado_9401" data-name="Trazado 9401" d="M249.017,288.2a3.9,3.9,0,0,1-1.373,2.585c-.13.088-.256-.119-.13-.2a3.752,3.752,0,0,0,1.268-2.441C248.8,287.989,249.034,288.048,249.017,288.2Z" transform="translate(-203.832 -190.591)" fill="#191817"/>
            <path id="Trazado_9402" data-name="Trazado 9402" d="M248.356,288.071c.5,1.208.991,2.592.432,3.864a1.666,1.666,0,0,1-2.29.966c-.144-.063-.028-.277.112-.214,1.272.576,2.107-.657,2.181-1.805a6.3,6.3,0,0,0-.664-2.747c-.06-.144.172-.214.228-.07Z" transform="translate(-203.165 -190.547)" fill="#191817"/>
            <path id="Trazado_9403" data-name="Trazado 9403" d="M249.051,287.482c-.228-.393-.446-.787-.66-1.187l.218-.035-.26,1.64c-.021.155-.256.1-.232-.056l.26-1.644a.119.119,0,0,1,.218-.035c.214.4.432.8.66,1.187C249.332,287.489,249.128,287.619,249.051,287.482Z" transform="translate(-204.256 -189.329)" fill="#191817"/>
            <path id="Trazado_9404" data-name="Trazado 9404" d="M245.754,288.454a3.8,3.8,0,0,1-1.335-2.431l.221.021-.738,1.345a.12.12,0,0,1-.211-.116l.738-1.345a.123.123,0,0,1,.221.021,3.533,3.533,0,0,0,1.219,2.29c.126.088,0,.3-.116.214Z" transform="translate(-201.378 -189.174)" fill="#191817"/>
            <path id="Trazado_9405" data-name="Trazado 9405" d="M247.043,285.8c-.035-.2-.1-.471-.351-.478s-.239.263-.33.4-.3,0-.211-.116a2.448,2.448,0,0,1,.211-.393.426.426,0,0,1,.393-.13c.351.053.474.386.523.7.025.151-.214.158-.239,0Z" transform="translate(-202.969 -188.661)" fill="#191817"/>
            <path id="Trazado_9406" data-name="Trazado 9406" d="M252.453,290.453a1.57,1.57,0,0,1,1.117-.067c.471.158.7.657,1.11.9a.123.123,0,0,1,.044.168.118.118,0,0,1-.016.021c-.6.573.109,1.563-.583,2.171a1.514,1.514,0,0,1-1.725.172.121.121,0,0,1,.112-.214,1.272,1.272,0,0,0,1.222,0,1.04,1.04,0,0,0,.516-1.128c-.028-.488-.067-.843.285-1.177l.028.19c-.664-.376-1.054-1.275-1.981-.839-.141.067-.267-.141-.13-.2Z" transform="translate(-206.995 -192.058)" fill="#191817"/>
            <path id="Trazado_9407" data-name="Trazado 9407" d="M237.211,291.8a1.44,1.44,0,0,0-1.528.643,1.352,1.352,0,0,1-.7.485L235,292.7a1.9,1.9,0,0,1,.773,1.356,1.208,1.208,0,0,0,.569.92.949.949,0,0,0,1.261-.383c.07-.137.285-.021.211.116a1.187,1.187,0,0,1-1.588.481c-.917-.446-.506-1.735-1.338-2.276a.123.123,0,0,1,.021-.221c.548-.179.66-.678,1.11-.969a1.8,1.8,0,0,1,1.254-.162c.155.025.095.26-.056.235Z" transform="translate(-195.637 -192.836)" fill="#191817"/>
            <path id="Trazado_9408" data-name="Trazado 9408" d="M248.814,285.318a2.924,2.924,0,0,1,1.187-.4.13.13,0,0,1,.126.119c.042.787,1.366.959.987,1.886-.06.144-.27.025-.211-.119.186-.453-.323-.745-.6-1.008a1.117,1.117,0,0,1-.418-.752l.123.116a2.81,2.81,0,0,0-1.124.39c-.144.053-.214-.179-.07-.232Z" transform="translate(-204.659 -188.556)" fill="#191817"/>
            <path id="Trazado_9409" data-name="Trazado 9409" d="M240.291,286.448a4.106,4.106,0,0,0-.439-.246c-.351-.137-.551.018-.843.165a1.027,1.027,0,0,1-.724.119l.151-.119a.917.917,0,0,1-.144.446c-.084.13-.249.246-.3.386a.818.818,0,0,0,.165.769c.091.126-.112.256-.2.13a.982.982,0,0,1-.292-.7c.049-.407.5-.608.534-1.022a.123.123,0,0,1,.12-.126.117.117,0,0,1,.031,0c.474.095.8-.351,1.261-.351a1.968,1.968,0,0,1,.8.351c.141.07.025.285-.116.214Z" transform="translate(-197.474 -189.194)" fill="#191817"/>
            <path id="Trazado_9410" data-name="Trazado 9410" d="M245.05,300.257c.5.2.787.653.393,1.12a1.636,1.636,0,0,1-.854.439,3.628,3.628,0,0,0-1.524.9.12.12,0,0,1-.169,0,5.53,5.53,0,0,0-2.392-.829c-.471-.141-.846-.351-.906-.875-.018-.158.221-.165.239,0,.074.664,1.085.748,1.6.861a5.111,5.111,0,0,1,1.345.436c.277.144.3.056.53-.126a3.2,3.2,0,0,1,.681-.411c.256-.112.53-.169.794-.263.544-.2.857-.752.148-1.036-.144-.06-.025-.274.116-.214Z" transform="translate(-198.731 -198.504)" fill="#191817"/>
            <path id="Trazado_9411" data-name="Trazado 9411" d="M237.251,301.261a1.444,1.444,0,0,1-1.1,1.465,1.757,1.757,0,0,1-1-.169,2.36,2.36,0,0,0-2.006-.042.123.123,0,0,1-.179-.133c.253-.927-.962-1.352-.836-2.3.112-.818,1.012-1.128,1.718-1.135a.121.121,0,0,1,0,.242,1.561,1.561,0,0,0-1.366.594c-.285.46,0,.955.306,1.342a1.389,1.389,0,0,1,.4,1.314l-.179-.133a2.369,2.369,0,0,1,1.858-.116c.421.133.818.4,1.279.288a1.215,1.215,0,0,0,.854-1.212.119.119,0,0,1,.239,0Z" transform="translate(-193.882 -197.66)" fill="#191817"/>
            <path id="Trazado_9412" data-name="Trazado 9412" d="M232.368,288.433a2.108,2.108,0,0,0-1.145.151,3.83,3.83,0,0,0-.741.7,1.808,1.808,0,0,1-1.275.6l.053-.228a1.187,1.187,0,0,1,.558,1.015c0,.267-.035.534-.025.8s.313,1.026.7.857c.141-.06.211.172.07.232-.32.137-.727-.253-.882-.506-.432-.724.263-1.609-.566-2.178a.123.123,0,0,1,.056-.228c.839-.042,1.117-.671,1.7-1.131a2,2,0,0,1,1.461-.327c.155,0,.162.249,0,.242Z" transform="translate(-191.894 -190.663)" fill="#191817"/>
            <path id="Trazado_9413" data-name="Trazado 9413" d="M242.524,282.22c.155-.379.253-.587,0-.945a.826.826,0,0,0-.674-.407c-.383-.07-.78-.077-1.159-.172-.724-.176-1.012-.636-1.387-1.236l.218-.035c-.183.681-.7.941-1.335,1.156-1.022.351-1.784.738-1.788,1.946a.119.119,0,0,1-.239,0,1.89,1.89,0,0,1,.755-1.665c.755-.534,2.107-.453,2.381-1.5a.119.119,0,0,1,.218-.035,2.072,2.072,0,0,0,1.524,1.18,5.867,5.867,0,0,1,1.289.232c.734.3.671.959.411,1.595-.06.144-.27.028-.214-.116Z" transform="translate(-196.496 -184.892)" fill="#191817"/>
            <path id="Trazado_9414" data-name="Trazado 9414" d="M254.876,286.183a2.894,2.894,0,0,1,1.647.183,4.7,4.7,0,0,1,.541.446,2.969,2.969,0,0,0,1.226.411.123.123,0,0,1,.086.151.12.12,0,0,1-.027.049,2.844,2.844,0,0,0-.439,1.816,2.144,2.144,0,0,1-.193,1.187c-.474.748-1.317.667-2.058.52-.151-.032-.095-.267.056-.239a1.666,1.666,0,0,0,1.672-.246,1.928,1.928,0,0,0,.281-1.4,2.849,2.849,0,0,1,.506-1.812l.06.2a3.136,3.136,0,0,1-1.335-.471,2.332,2.332,0,0,0-.875-.558,4.141,4.141,0,0,0-1.142,0,.123.123,0,0,1,0-.246Z" transform="translate(-208.568 -189.357)" fill="#191817"/>
            <path id="Trazado_9415" data-name="Trazado 9415" d="M250.5,299.543a1.56,1.56,0,0,1,.172,1.38c-.369.811-1.317,1.089-1.124,2.16a.12.12,0,0,1-.079.15.121.121,0,0,1-.065,0,3.557,3.557,0,0,0-1.4-.025,6.019,6.019,0,0,1-1.029.183,1.857,1.857,0,0,1-.871-.169c-.3-.155-.5-.471-.818-.594-.141-.056-.088-.3.06-.239a1.939,1.939,0,0,1,.534.351,1.851,1.851,0,0,0,1.668.313,4.758,4.758,0,0,1,1.928-.067l-.14.155a1.669,1.669,0,0,1,.323-1.363c.151-.207.351-.372.509-.569a1.223,1.223,0,0,0,.144-1.549c-.074-.137.13-.267.2-.13Z" transform="translate(-202.363 -198)" fill="#191817"/>
            <path id="Trazado_9416" data-name="Trazado 9416" d="M231.475,279.081c-.169-.148-.33-.306-.492-.467s-.351-.562-.629-.123a.119.119,0,0,1-.163.045.114.114,0,0,1-.024-.017,5.39,5.39,0,0,0-1.272-.934l.162-.046c-.088.211-.112.432-.379.418s-.846-.808-1.054-.323a.123.123,0,0,1-.165.049,2.747,2.747,0,0,0-1.345-.334c-.285.074-.123.39-.07.618a7.567,7.567,0,0,1,.162.885c.021.155-.221.162-.239,0-.046-.351-.551-1.549-.056-1.739a2.753,2.753,0,0,1,1.665.351l-.162.049c.119-.26.256-.411.544-.306s.681.738.9.207a.123.123,0,0,1,.165-.046,5.551,5.551,0,0,1,1.321.969l-.19.032a1.456,1.456,0,0,1,.379-.422.116.116,0,0,1,.148,0c.33.306.632.639.969.938.119.1-.046.281-.165.176Z" transform="translate(-189.712 -183.464)" fill="#191817"/>
            <path id="Trazado_9417" data-name="Trazado 9417" d="M225.977,282.211l-.309-.081.144-.155a6.339,6.339,0,0,0,.464.783c.032.06.084.095.095.165.035.169-.207.351-.2.407.021.137.421.277.506.446a.523.523,0,0,1-.084.548l-.049-.165a4.835,4.835,0,0,0,.653.274.123.123,0,0,1,.088.148,1.618,1.618,0,0,1-.256.478l-.049-.165c.249.119.608.19.79.411.1.119-.067.3-.165.176-.162-.2-.52-.267-.741-.372a.123.123,0,0,1-.046-.165,2.319,2.319,0,0,0,.232-.422l.091.148a5.237,5.237,0,0,1-.7-.3.123.123,0,0,1-.046-.165c.27-.474-.418-.5-.5-.9a.123.123,0,0,1,.049-.137c.256-.2-.249-.861-.351-1.124a.123.123,0,0,1,.084-.152.125.125,0,0,1,.06,0l.309.077a.123.123,0,0,1-.056.239Z" transform="translate(-189.641 -186.594)" fill="#191817"/>
            <path id="Trazado_9418" data-name="Trazado 9418" d="M264,275.516c-.067.551.032,1.1-.063,1.654l-.151-.144a2.316,2.316,0,0,1,.66-.084.126.126,0,0,1,.125.128.131.131,0,0,1,0,.024c-.112.443-.45.7-.646,1.11l-.077-.176a3.424,3.424,0,0,1,.559.176.123.123,0,0,1,.088.148,1.056,1.056,0,0,1-.351.5c-.246.232-.428.513-.664.752l-.032-.19a5.371,5.371,0,0,0,.534.137.123.123,0,0,1,.083.153.125.125,0,0,1-.027.047c-.155.162-.316.313-.467.481-.1.116-.277-.053-.172-.169s.309-.32.467-.478l.056.2c-.2-.06-.4-.081-.59-.158a.123.123,0,0,1-.044-.168.134.134,0,0,1,.016-.021c.169-.176.292-.379.457-.559s.414-.313.5-.583l.091.148a4.637,4.637,0,0,0-.558-.176.123.123,0,0,1-.087-.15.131.131,0,0,1,.01-.025c.183-.372.52-.639.622-1.054l.119.151a1.652,1.652,0,0,0-.6.07.119.119,0,0,1-.15-.079.121.121,0,0,1,0-.065c.091-.551,0-1.1.06-1.658.018-.155.253-.095.235.06Z" transform="translate(-214.086 -182.358)" fill="#191817"/>
            <path id="Trazado_9419" data-name="Trazado 9419" d="M255.176,275.374a11.454,11.454,0,0,1-1.37.471.116.116,0,0,1-.137-.049,3.722,3.722,0,0,1-.214-.407l.165.039a3.738,3.738,0,0,0-.994.836.123.123,0,0,1-.167.048.125.125,0,0,1-.022-.016c-.436-.5-1.054.478-1.279.8a.116.116,0,0,1-.116.032c-.246-.084-.386-.239-.58,0a9.561,9.561,0,0,0-.537.875c-.084.133-.3.018-.211-.116a6.753,6.753,0,0,1,.643-1.054.326.326,0,0,1,.232-.137c.306-.032.3.19.625-.077s.548-.608.864-.864a.119.119,0,0,1,.123,0,1.628,1.628,0,0,1,.4.351l-.186.028a3.9,3.9,0,0,1,1.078-.924.116.116,0,0,1,.161.032l0,.007c.151.309.144.3.5.207a3.553,3.553,0,0,0,.9-.3.123.123,0,0,1,.126.207Z" transform="translate(-205.281 -182.216)" fill="#191817"/>
            <path id="Trazado_9420" data-name="Trazado 9420" d="M258.221,278a10.531,10.531,0,0,1-1.356,1.472,5.665,5.665,0,0,0-1.25,1.356c-.07.141-.281.021-.211-.116a4.7,4.7,0,0,1,1.082-1.215,10.838,10.838,0,0,0,1.521-1.616c.091-.123.3,0,.214.119Z" transform="translate(-208.976 -183.955)" fill="#191817"/>
            <path id="Trazado_9421" data-name="Trazado 9421" d="M231.448,282.58a4.007,4.007,0,0,0-1.036-.955c-.45-.351-.889-.7-1.359-1.022-.126-.084,0-.3.116-.211.488.327.941.7,1.4,1.054a4.178,4.178,0,0,1,1.075,1c.081.133-.123.263-.2.13Z" transform="translate(-191.856 -185.607)" fill="#191817"/>
            <path id="Trazado_9422" data-name="Trazado 9422" d="M257.936,285.2a3.028,3.028,0,0,0-1.942.179c-.14.067-.267-.141-.126-.207a3.262,3.262,0,0,1,2.129-.207.123.123,0,0,1-.06.235Z" transform="translate(-209.246 -188.526)" fill="#191817"/>
            <path id="Trazado_9423" data-name="Trazado 9423" d="M259.436,283.151a9.967,9.967,0,0,0-1.591.109c-.151.039-.221-.2-.07-.232a9.991,9.991,0,0,1,1.654-.119.121.121,0,0,1,0,.242Z" transform="translate(-210.469 -187.253)" fill="#191817"/>
            <path id="Trazado_9424" data-name="Trazado 9424" d="M261.12,281.172h-.759a.123.123,0,0,1,0-.242,6.832,6.832,0,0,0,.759,0,.123.123,0,0,1,0,.246Z" transform="translate(-212.135 -185.97)" fill="#191817"/>
            <path id="Trazado_9425" data-name="Trazado 9425" d="M259.756,278.8a2.435,2.435,0,0,0,.056.8c.049.148-.183.218-.232.07a2.728,2.728,0,0,1-.067-.861.123.123,0,0,1,.242,0Z" transform="translate(-211.645 -184.529)" fill="#191817"/>
            <path id="Trazado_9426" data-name="Trazado 9426" d="M257.629,280.431l.028.994a.119.119,0,0,1-.239,0l-.028-.994a.119.119,0,0,1,.239,0Z" transform="translate(-210.274 -185.569)" fill="#191817"/>
            <path id="Trazado_9427" data-name="Trazado 9427" d="M255.5,281.229a5.489,5.489,0,0,1,.123,1.556.123.123,0,0,1-.242,0,5.151,5.151,0,0,0-.112-1.489.123.123,0,0,1,.232-.074Z" transform="translate(-208.895 -186.115)" fill="#191817"/>
            <path id="Trazado_9428" data-name="Trazado 9428" d="M236.289,282.582a2.811,2.811,0,0,0-.263,1.268.119.119,0,1,1-.239,0,2.982,2.982,0,0,1,.267-1.335c.056-.144.292-.088.235.06Z" transform="translate(-196.258 -186.944)" fill="#191817"/>
            <path id="Trazado_9429" data-name="Trazado 9429" d="M234.16,281.828c-.123.26-.035.565-.116.836-.046.151-.281.095-.235-.056.091-.3,0-.608.141-.9C234.016,281.572,234.227,281.688,234.16,281.828Z" transform="translate(-194.972 -186.436)" fill="#191817"/>
            <path id="Trazado_9430" data-name="Trazado 9430" d="M232.107,280.732a1.552,1.552,0,0,0-.056.6.119.119,0,0,1-.239,0,1.7,1.7,0,0,1,.06-.664c.053-.144.288-.088.235.06Z" transform="translate(-193.673 -185.744)" fill="#191817"/>
            <path id="Trazado_9431" data-name="Trazado 9431" d="M233.585,286.472a2.237,2.237,0,0,0-1.212.383c-.13.088-.256-.116-.13-.2a2.431,2.431,0,0,1,1.335-.422.121.121,0,0,1,0,.242Z" transform="translate(-193.926 -189.408)" fill="#191817"/>
            <path id="Trazado_9432" data-name="Trazado 9432" d="M231.813,284.272a4.221,4.221,0,0,0-.941.288.121.121,0,0,1-.07-.232,4.415,4.415,0,0,1,1-.3.121.121,0,0,1,0,.242Z" transform="translate(-192.968 -187.981)" fill="#191817"/>
            <path id="Trazado_9433" data-name="Trazado 9433" d="M230.062,282.632a1.554,1.554,0,0,0-.731.172c-.133.077-.26-.13-.126-.207a1.832,1.832,0,0,1,.85-.207.123.123,0,0,1,0,.242Z" transform="translate(-191.952 -186.917)" fill="#191817"/>
            <path id="Trazado_9434" data-name="Trazado 9434" d="M189.608,36.178c-.906-8.925,6.923-13,17.324-14.092,10.232-1.054,20.724,3.562,21.251,12.259h0v.144a1.455,1.455,0,0,0,.018.277,16.433,16.433,0,0,1-.137,2.578L226.4,70.924a14.639,14.639,0,0,1-6.382,12.294l-2.81,2.863a9,9,0,0,1-6.723,2.4,12.662,12.662,0,0,1-7.7-2.083l-2.933-2.74a14.616,14.616,0,0,1-6.92-12l-3.161-34.229C189.717,37.014,189.65,36.593,189.608,36.178Z" transform="translate(-166.254 -17.948)" fill="#c19063"/>
            <path id="Trazado_9435" data-name="Trazado 9435" d="M167,328.45l-4.289-62.874c-1.349-1.019-4.939-4.138-5.269-8.665-.26-3.534,1.51-7,5.269-10.316l.144-.13.179-.077a85.808,85.808,0,0,1,16.129-5.518c-.98,7.137-3.569,24.236,10.566,23.214,13.576-.973,12.255-18.718,11.314-22.831a132.448,132.448,0,0,1,15.831,5.051l.067.025.063.035a9.239,9.239,0,0,1,4.391,6.119c.58,3.281-.79,6.884-4.074,10.713L214,328.5S180.841,333.807,167,328.45Z" transform="translate(-145.417 -159.981)" fill="#fff"/>
            <path id="Trazado_9436" data-name="Trazado 9436" d="M217.444,33.351l.27,7.752s.351,8.318,1.054,9.329c.418.622.811.27.811.27s3.881-3.13,4.215-7.025l-.081-2.877a10.186,10.186,0,0,0,2.55-10.386c-1.928-6.449-1.1-14.928-9.4-16.544,0,0-8.209-5.335-15.806-2.42,0,0-15.026-.07-18.771,7.12,0,0-6.491,10.71-3.428,18.332l1.574,3.579s2.575,9.733,3.741,9.694,2.283-7.727,1.574-13.379,1.289-8.746,3.01-9.631,3.779.478,10.854.615c7.727.148,10.425-1.7,12.645-1.2S217.4,30.474,217.444,33.351Z" transform="translate(-158.797 -10.58)" fill="#261b17"/>
            <path id="Trazado_9437" data-name="Trazado 9437" d="M260.619,102.278a3.161,3.161,0,1,0,3.219-3.1c-.053,0-.106,0-.159,0a3.077,3.077,0,0,0-3.059,3.095Z" transform="translate(-212.368 -68.056)" fill="#231f20"/>
            <path id="Trazado_9438" data-name="Trazado 9438" d="M264.765,104.648a.84.84,0,0,0,.042,1.12c.414.439-.225,1.124-.639.7a1.774,1.774,0,0,1-.221-2.255.467.467,0,1,1,.834.421c0,.009-.01.019-.015.028Z" transform="translate(-214.33 -71.16)" fill="#fff"/>
            <path id="Trazado_9439" data-name="Trazado 9439" d="M208.769,103.788a3.161,3.161,0,1,0,3.219-3.1c-.054,0-.109,0-.163,0a3.073,3.073,0,0,0-3.056,3.091Z" transform="translate(-178.73 -69.036)" fill="#231f20"/>
            <path id="Trazado_9440" data-name="Trazado 9440" d="M212.905,106.158a.843.843,0,0,0,.042,1.12c.414.439-.221,1.124-.639.7a1.774,1.774,0,0,1-.221-2.255.467.467,0,0,1,.834.422c0,.009-.01.019-.015.028Z" transform="translate(-180.686 -72.14)" fill="#fff"/>
            <path id="Trazado_9441" data-name="Trazado 9441" d="M213.307,70.14s-.618,3.08-1.637,3.512-5.3-.081-7.271,1.658c0,0-.636-2.75,1.029-3.653S210.687,69.336,213.307,70.14Z" transform="translate(-175.819 -49.065)" fill="#261b17"/>
            <path id="Trazado_9442" data-name="Trazado 9442" d="M258.4,85.095s.9,3.007,1.953,3.34,5.269-.58,7.394.966c0,0,.383-2.81-1.359-3.541S260.936,84.045,258.4,85.095Z" transform="translate(-210.929 -58.639)" fill="#261b17"/>
            <path id="Trazado_9443" data-name="Trazado 9443" d="M266.611,34s3.161-7.847,7.562-10.945c0,0-4.064-.92-8.367,9.055C265.81,32.114,264.953,34.281,266.611,34Z" transform="translate(-215.592 -18.661)" fill="#3a3735"/>
            <path id="Trazado_9444" data-name="Trazado 9444" d="M255.654,27.281s.45-9.947,4-14.781c0,0-4.665.1-5.553,12.828C254.1,25.328,253.992,28.06,255.654,27.281Z" transform="translate(-208.137 -11.825)" fill="#3a3735"/>
            <path id="Trazado_9445" data-name="Trazado 9445" d="M217.4,30.709s-1.321-9.628-4.816-14.05c0,0,4.008-.274,5.971,12.03C218.548,28.693,218.9,31.352,217.4,30.709Z" transform="translate(-181.203 -14.523)" fill="#3a3735"/>
            <path id="Trazado_9446" data-name="Trazado 9446" d="M206.911,33.809s-1.928-8.015-5.251-11.44c0,0,3.361-.576,6.052,9.638C207.712,32,208.228,34.22,206.911,33.809Z" transform="translate(-174.119 -18.224)" fill="#3a3735"/>
            <path id="Trazado_9447" data-name="Trazado 9447" d="M319.923,64.1a3.8,3.8,0,0,1-.917,2.965c-1.489,1.314-16.726-2.81-16.726-2.81S318.7,60.732,319.923,64.1Z" transform="translate(-239.396 -44.357)" fill="#261b17"/>
            <path id="Trazado_9448" data-name="Trazado 9448" d="M241.177,150.739s2.831-2.912,5.971-1.1,6.92,4.166,6.92,4.166-2.936,1.577-5.62.165-5.539-.211-6.519-.741S241.177,150.739,241.177,150.739Z" transform="translate(-199.741 -100.408)" fill="#261b17"/>
            <path id="Trazado_9449" data-name="Trazado 9449" d="M220.414,151.073s-2.993-2.743-6.02-.752-6.674,4.566-6.674,4.566,3.024,1.4,5.62-.162,5.522-.534,6.47-1.12S220.414,151.073,220.414,151.073Z" transform="translate(-178.05 -100.767)" fill="#261b17"/>
            <path id="Trazado_9450" data-name="Trazado 9450" d="M237.736,184.624s3.26-1.1,4.594,1.293.653,7.773-1.373,9.456l-1-1.184-.393,2.627a10.8,10.8,0,0,1-1.7-2.417l-.839,1.4S232,187.072,237.736,184.624Z" transform="translate(-195.741 -123.328)" fill="#261b17"/>
            <path id="Trazado_9451" data-name="Trazado 9451" d="M228.785,121.766a14.769,14.769,0,0,0,1.078-2.859c.327-1.4.9-1.928,2.2-1.623s3.449,10.408-3.246,12.259-6.568-3.109-5.852-4.4S226.909,125.363,228.785,121.766Z" transform="translate(-187.724 -79.75)" fill="#e28f56"/>
            <path id="Trazado_9452" data-name="Trazado 9452" d="M229.477,129.336c5.729-1.714,4.78-9.4,3.572-11.686,1.31,1.3,3.017,10.3-3.239,12.174-3.512,1.054-5.153.169-5.831-1.092C224.805,129.708,226.449,130.242,229.477,129.336Z" transform="translate(-188.599 -80.042)" fill="#c97236"/>
            <path id="Trazado_9453" data-name="Trazado 9453" d="M232.8,170.955s4.292-2.062,9.919.7c0,0-5.911-1.4-8.651,0Z" transform="translate(-194.321 -114.144)" fill="#261b17"/>
            <path id="Trazado_9454" data-name="Trazado 9454" d="M246.14,177.907s1.033-.924,2.533.7A6.168,6.168,0,0,0,246.14,177.907Z" transform="translate(-202.975 -118.964)" fill="#ad754e"/>
            <path id="Trazado_9455" data-name="Trazado 9455" d="M270.81,246.508s-1.848,13.7-12.076,15.968-15.567-27.868-15.072-41.865l-6.582,1.345s2.227,49.526,20.555,47.387c16.2-1.89,18.444-19.617,18.444-19.617Z" transform="translate(-197.098 -146.837)" fill="#a87752"/>
            <path id="Trazado_9456" data-name="Trazado 9456" d="M317.017,262.531l-1.872-5.971s14.942,6.551,9.519,22.529a29.892,29.892,0,0,1-2.94,5.153s-9.132-2.223-13.014-7.116C308.71,277.119,315.328,270.164,317.017,262.531Z" transform="translate(-243.568 -170.16)" fill="#fff"/>
            <path id="Trazado_9457" data-name="Trazado 9457" d="M252.7,214.743l.611.309a.783.783,0,0,0,1.052-.347l0,0,2.7-4.591a.8.8,0,0,0-.351-1.054l-1.3-.681a.783.783,0,0,0-1.052.347l0,0-2,4.946A.8.8,0,0,0,252.7,214.743Z" transform="translate(-206.954 -138.845)" fill="#a06b47"/>
            <path id="Trazado_9458" data-name="Trazado 9458" d="M226.447,194.739c-.018-.1-.327-1.493-.327-1.595,0-.973.808-1.307,1.728-1.373l7.411-2.006a1.664,1.664,0,0,1,.9-.021,1.756,1.756,0,0,1,1.279,1.588l-.018,11.219a1.928,1.928,0,0,1-.323,1.054,2.33,2.33,0,0,1-2.192,1.1l-3.776.277c-2.107.351-2.669-.608-2.736-1.588Z" transform="translate(-189.987 -126.779)" fill="#a87752"/>
            <path id="Trazado_9459" data-name="Trazado 9459" d="M247.658,182.8l1.275,1.106c.527-.242,1.342-.253,1.352-.92v-9.431c-.088-.868,0-1.837-1.967-1.521l-1.644.249a1.377,1.377,0,0,0-.941,1.4l.021,7.956a1.356,1.356,0,0,0,1.9,1.156Z" transform="translate(-202.709 -115.286)" fill="#a87752"/>
            <path id="Trazado_9460" data-name="Trazado 9460" d="M159.313,370.317S133.447,356.376,130.03,333.3a52.919,52.919,0,0,1,10.249-39.256l-6.231.162A52.894,52.894,0,0,0,123.8,333.454c3.414,23.095,30.351,42.22,30.351,42.22Z" transform="translate(-123.251 -194.475)" fill="#c19063"/>
            <path id="Trazado_9461" data-name="Trazado 9461" d="M150.694,322.984q-.383-.723-.776-1.444c-.035-.07.077-.116.116-.046q.386.723.776,1.444C150.845,323.009,150.733,323.055,150.694,322.984Z" transform="translate(-140.547 -212.264)" fill="#191817"/>
            <path id="Trazado_9462" data-name="Trazado 9462" d="M145.784,319.725c-.755-.351-1.514-.664-2.266-1a.063.063,0,0,1,.049-.116c.752.351,1.51.664,2.262,1C145.9,319.641,145.854,319.757,145.784,319.725Z" transform="translate(-136.378 -210.409)" fill="#191817"/>
            <path id="Trazado_9463" data-name="Trazado 9463" d="M140.669,318.7c-.513.162-1.022.334-1.535.5-.074.021-.123-.091-.046-.116.513-.162,1.022-.334,1.535-.5C140.7,318.559,140.742,318.675,140.669,318.7Z" transform="translate(-133.5 -210.395)" fill="#191817"/>
            <path id="Trazado_9464" data-name="Trazado 9464" d="M145.577,325.662,142,327.77c-.07.042-.144-.06-.074-.1l3.576-2.108c.07-.039.144.06.074.1Z" transform="translate(-135.349 -214.92)" fill="#191817"/>
            <path id="Trazado_9465" data-name="Trazado 9465" d="M140.043,324.148c-.351-1.359-.657-2.719-1-4.074-.021-.081.1-.095.123-.018.351,1.356.657,2.719,1,4.074A.062.062,0,0,1,140.043,324.148Z" transform="translate(-133.496 -211.319)" fill="#191817"/>
            <path id="Trazado_9466" data-name="Trazado 9466" d="M143.624,322.021l-4.538-1.925c-.07-.032-.025-.148.049-.116l4.542,1.932c.074.028.025.144-.049.112Z" transform="translate(-133.501 -211.3)" fill="#191817"/>
            <path id="Trazado_9467" data-name="Trazado 9467" d="M148.526,320.8a8.211,8.211,0,0,1,.193,1.2.06.06,0,1,1-.119,0h0a8.68,8.68,0,0,0-.193-1.2C148.389,320.726,148.509,320.712,148.526,320.8Z" transform="translate(-139.57 -211.796)" fill="#191817"/>
            <path id="Trazado_9468" data-name="Trazado 9468" d="M144.505,324.431q-1.191,1.286-2.459,2.5c-.056.056-.13-.042-.074-.1q1.25-1.2,2.434-2.48c.053-.056.151.021.095.077Z" transform="translate(-135.384 -214.128)" fill="#191817"/>
            <path id="Trazado_9469" data-name="Trazado 9469" d="M143.513,319.437c-.327.228-.611.513-.938.745a.063.063,0,0,1-.074-.1c.327-.228.611-.513.938-.741C143.5,319.293,143.576,319.391,143.513,319.437Z" transform="translate(-135.726 -210.879)" fill="#191817"/>
            <path id="Trazado_9470" data-name="Trazado 9470" d="M142.224,321.557c0,1.152-.06,2.3-.162,3.453,0,.081-.13.063-.123,0q.158-1.728.162-3.456c0-.081.123-.063.123.018Z" transform="translate(-135.375 -212.29)" fill="#191817"/>
            <path id="Trazado_9471" data-name="Trazado 9471" d="M152.091,262.661l-2.852-6.031s-9.87,7.619-12.719,14.11c0,0,2.287,8,13,10.537l7.766-13.734Z" transform="translate(-131.859 -170.205)" fill="#fff"/>
          </g>
        </g>
      </g>
    </g>
  </g>
</svg>
