<svg xmlns="http://www.w3.org/2000/svg" width="264" height="98" viewBox="0 0 264 98">
  <g id="Grupo_34402" data-name="Grupo 34402" transform="translate(-41 -209)">
    <rect id="Rectángulo_3733" data-name="Rectángulo 3733" width="264" height="98" transform="translate(41 209)" fill="none"/>
    <g id="Grupo_34403" data-name="Grupo 34403" transform="translate(17.659 -27.162)">
      <path id="Trazado_42070" data-name="Trazado 42070" d="M26.174,172.888s.273,13.19,21.869,13.19c14.488,0,16.06-3.622,24.671-18.384s14-4.237,22.136-11.413,5.672-24-5.116-27.348c-19.78-6.138-18.045-9.831-30.825-18.987s-41.5-2.776-35.79,20.011S0,141.176,0,148.42C0,159.7,22.279,154.367,26.174,172.888Z" transform="translate(105.341 139.892)" fill="#d4f2f6"/>
      <g id="Grupo_4118" data-name="Grupo 4118" transform="translate(122.072 245.162)">
        <g id="Grupo_4087" data-name="Grupo 4087" transform="translate(12.281 11.375)">
          <path id="Trazado_9248" data-name="Trazado 9248" d="M631.041,350.665l.758-1.583a6.728,6.728,0,0,0-2.52-.91c-1.4-.18-8.872-.066-10.238,1.786s1.084,20.8,1.084,20.8l.11,1.159Z" transform="translate(-617.063 -339.469)" fill="#208c9c"/>
          <path id="Trazado_9249" data-name="Trazado 9249" d="M617.384,363.744l-.811-1.282s-.881.559-.9,2.692.761,18.677.761,18.677l1.194.749,3.4-17.058Z" transform="translate(-614.455 -352.135)" fill="#208c9c"/>
          <path id="Trazado_9250" data-name="Trazado 9250" d="M606.4,276.856l-1.093-.818,14.542-1.558.908.867Z" transform="translate(-605.307 -274.48)" fill="#55c8d9"/>
          <path id="Trazado_9251" data-name="Trazado 9251" d="M607.741,293.752l-1.239.544-.664-.409s.55-1.252-.53-6.13l2.155.707Z" transform="translate(-605.307 -286.198)" fill="#04adc5"/>
          <path id="Trazado_9252" data-name="Trazado 9252" d="M638.3,329.861l.131,4.851h1.394l-.477-5.389Z" transform="translate(-634.424 -322.886)" fill="#208c9c"/>
          <path id="Trazado_9253" data-name="Trazado 9253" d="M719.114,320.692l-.226,5.423,1.471-.15-.253-5.743Z" transform="translate(-705.557 -314.853)" fill="#208c9c"/>
          <path id="Trazado_9254" data-name="Trazado 9254" d="M613.536,282.877s1.553,4.477.229,6.223L629,288.289a12.373,12.373,0,0,0-.982-6.42Z" transform="translate(-612.57 -281.002)" fill="#208c9c"/>
          <path id="Trazado_9255" data-name="Trazado 9255" d="M638.478,355.483a3.978,3.978,0,0,0-3.65-2.889c-2.995-.181-11.157-.084-11.157,3.165,0,2.325,1.016,20.064,1.016,20.064l13.033-.272Z" transform="translate(-621.515 -343.378)" fill="#04adc5"/>
        </g>
        <path id="Trazado_9257" data-name="Trazado 9257" d="M615.581,772.188c0,.241.268,6.2.268,6.2l-1.319,1.46-1.752-7.661Z" transform="translate(-599.62 -702.396)" fill="#04adc5"/>
        <path id="Trazado_9258" data-name="Trazado 9258" d="M916.33,754.878c0,.242-.268,6.2-.268,6.2l1.319,1.46,1.752-7.661Z" transform="translate(-867.307 -687.118)" fill="#04adc5"/>
        <path id="Trazado_9259" data-name="Trazado 9259" d="M957.168,779.384c0,.242-.93,8.64-.93,8.64l1.806,1.531,2.121-9.519Z" transform="translate(-902.768 -708.747)" fill="#04adc5"/>
        <path id="Trazado_9260" data-name="Trazado 9260" d="M559.8,779.384c0,.242.93,8.64.93,8.64l-1.806,1.531-2.121-9.519Z" transform="translate(-550.215 -708.747)" fill="#04adc5"/>
        <g id="Grupo_4114" data-name="Grupo 4114" transform="translate(14.436)">
          <g id="Grupo_4088" data-name="Grupo 4088" transform="translate(15.626 72.828)">
            <path id="Trazado_9261" data-name="Trazado 9261" d="M767.4,798.051l-.238.926,1.558.475.146-1.025Z" transform="translate(-765.943 -798.051)" fill="#c755ff"/>
            <path id="Trazado_9262" data-name="Trazado 9262" d="M767.425,803.046l-.067.271,1.544.479.058-.4Z" transform="translate(-766.119 -802.459)" fill="#b42eed"/>
            <path id="Trazado_9263" data-name="Trazado 9263" d="M758.377,820.135l-.01.045-1.543-.509.053-.637,1.486,1.094" transform="translate(-756.822 -816.571)" fill="#404040"/>
            <path id="Trazado_9264" data-name="Trazado 9264" d="M759.587,805.158a7.114,7.114,0,0,1-1.557-.48s-1.455,1.079-1.2,1.915c0,0,3.319,2.3,5.236,2.172s.772-1.216.378-1.193A4.565,4.565,0,0,1,759.587,805.158Z" transform="translate(-756.802 -803.9)" fill="#020202"/>
            <path id="Trazado_9265" data-name="Trazado 9265" d="M764.751,805.188c-.13-.3.272-.511.272-.511a7.115,7.115,0,0,0,1.557.48,4.565,4.565,0,0,0,2.86,2.413s.7,1.1-1.723,0C767.717,807.575,765.387,806.68,764.751,805.188Z" transform="translate(-763.795 -803.9)" fill="#30302f"/>
            <path id="Trazado_9266" data-name="Trazado 9266" d="M780.559,822.165a8.2,8.2,0,0,0,1.145.573c2.421,1.1,1.723,0,1.723,0a5.267,5.267,0,0,1-1.3-.6s-1.466-.583-1.554-.061" transform="translate(-777.771 -819.061)" fill="#404040"/>
            <path id="Trazado_9267" data-name="Trazado 9267" d="M778.813,816.8a1.228,1.228,0,0,1,1.037.2A.675.675,0,0,0,778.813,816.8Z" transform="translate(-776.23 -814.464)" fill="#020202"/>
            <path id="Trazado_9268" data-name="Trazado 9268" d="M781.919,819.195a1.227,1.227,0,0,1,1.037.2A.675.675,0,0,0,781.919,819.195Z" transform="translate(-778.971 -816.579)" fill="#020202"/>
            <path id="Trazado_9269" data-name="Trazado 9269" d="M784.792,821.536a1.227,1.227,0,0,1,1.037.2A.675.675,0,0,0,784.792,821.536Z" transform="translate(-781.507 -818.646)" fill="#020202"/>
          </g>
          <g id="Grupo_4089" data-name="Grupo 4089" transform="translate(5.334 70.072)">
            <path id="Trazado_9270" data-name="Trazado 9270" d="M690.285,774.57l-.818.494.779,1.431.822-.629Z" transform="translate(-687.078 -774.57)" fill="#c755ff"/>
            <path id="Trazado_9271" data-name="Trazado 9271" d="M690.257,777.253l-.238.146.765,1.424.321-.245Z" transform="translate(-687.566 -776.938)" fill="#b42eed"/>
            <path id="Trazado_9272" data-name="Trazado 9272" d="M669.894,783.022l-.038.025-.744-1.445.484-.417.293,1.822" transform="translate(-669.112 -780.409)" fill="#404040"/>
            <path id="Trazado_9273" data-name="Trazado 9273" d="M674.685,779.095a7.117,7.117,0,0,1-.774-1.434s-1.794-.25-2.2.526c0,0,.756,3.966,2.211,5.22s1.4-.326,1.106-.586A4.565,4.565,0,0,1,674.685,779.095Z" transform="translate(-671.41 -777.264)" fill="#020202"/>
            <path id="Trazado_9274" data-name="Trazado 9274" d="M684.346,777.9c.121-.308.552-.173.552-.173a7.112,7.112,0,0,0,.774,1.434,4.565,4.565,0,0,0,.348,3.726s-.274,1.274-1.231-1.206C684.789,781.683,683.754,779.412,684.346,777.9Z" transform="translate(-682.397 -777.332)" fill="#30302f"/>
            <path id="Trazado_9275" data-name="Trazado 9275" d="M686.012,800.652a8.189,8.189,0,0,0,.415,1.212c.957,2.48,1.231,1.206,1.231,1.206a5.261,5.261,0,0,1-.505-1.34s-.637-1.444-1.065-1.133" transform="translate(-684.029 -797.502)" fill="#404040"/>
            <path id="Trazado_9276" data-name="Trazado 9276" d="M689.362,795.507a1.227,1.227,0,0,1,.6.872S690.185,795.7,689.362,795.507Z" transform="translate(-686.985 -793.05)" fill="#020202"/>
            <path id="Trazado_9277" data-name="Trazado 9277" d="M689.9,799.393a1.227,1.227,0,0,1,.6.872S690.72,799.59,689.9,799.393Z" transform="translate(-687.458 -796.479)" fill="#020202"/>
            <path id="Trazado_9278" data-name="Trazado 9278" d="M690.305,803.077a1.228,1.228,0,0,1,.6.872S691.127,803.274,690.305,803.077Z" transform="translate(-687.818 -799.731)" fill="#020202"/>
          </g>
          <path id="Trazado_9279" data-name="Trazado 9279" d="M696.12,538.1l9.991,14.144s1.269,2.407-2.16,4.919-12.158,10.643-12.158,10.643a3.773,3.773,0,0,1-1.536-3.214l10.249-10.851-10.646-13.331S692.082,536.749,696.12,538.1Z" transform="translate(-682.09 -495.52)" fill="#3a1f09"/>
          <g id="Grupo_4090" data-name="Grupo 4090" transform="translate(23.936 16.094)">
            <path id="Trazado_9280" data-name="Trazado 9280" d="M831.118,317.382c.021-.015.324-.207.342-.225.172-.175.087-.379-.067-.556l-.98-1.691a.435.435,0,0,0-.159-.165.448.448,0,0,0-.513.053l-1.992,2a.488.488,0,0,0-.128.246.6.6,0,0,0,.2.591l.632.728c.323.441.589.372.776.209Z" transform="translate(-827.606 -314.687)" fill="#f7af80"/>
          </g>
          <path id="Trazado_9281" data-name="Trazado 9281" d="M827.7,339c0-.034.272-3.113.272-3.113l1.422,1.285-.167,2.214Z" transform="translate(-803.755 -317.301)" fill="#f7af80"/>
          <path id="Trazado_9282" data-name="Trazado 9282" d="M627.894,212.43l-.8-.636a2.2,2.2,0,0,0-.97,2.388c.439,1.52,1.5,4.246,1.5,4.246l.644.178,2.209-7.214Z" transform="translate(-625.765 -207.422)" fill="#231f20"/>
          <g id="Grupo_4091" data-name="Grupo 4091" transform="translate(0.952 9.593)">
            <circle id="Elipse_509" data-name="Elipse 509" cx="0.891" cy="0.891" r="0.891" fill="#e8a071"/>
            <circle id="Elipse_510" data-name="Elipse 510" cx="0.523" cy="0.523" r="0.523" transform="translate(0.368 0.368)" fill="#d18a5b"/>
          </g>
          <path id="Trazado_9283" data-name="Trazado 9283" d="M724.39,210.664l.253.632s-.534,3.443.349,4.551l.616-.019.432-4.129S724.9,210.279,724.39,210.664Z" transform="translate(-712.568 -206.721)" fill="#231f20"/>
          <g id="Grupo_4092" data-name="Grupo 4092" transform="translate(11.823 8.359)">
            <circle id="Elipse_511" data-name="Elipse 511" cx="0.891" cy="0.891" r="0.891" fill="#e8a071"/>
            <circle id="Elipse_512" data-name="Elipse 512" cx="0.523" cy="0.523" r="0.523" transform="translate(0.368 0.368)" fill="#d18a5b"/>
          </g>
          <path id="Trazado_9284" data-name="Trazado 9284" d="M647.88,203.449l-.466-8.307s-.68-3.525-6.153-3.087-4.921,5.212-4.921,5.212l.028,0,.728,7a2.34,2.34,0,0,0,1.072,2.02l2,1.45c2.852,2.018,4.75.121,4.75.121l1.248-.836A3.742,3.742,0,0,0,647.88,203.449Z" transform="translate(-634.839 -190.321)" fill="#f7af80"/>
          <path id="Trazado_9285" data-name="Trazado 9285" d="M678.861,327.588l-.452,3.94-3.066.1-.456-4.008Z" transform="translate(-668.876 -309.979)" fill="#f7af80"/>
          <path id="Trazado_9286" data-name="Trazado 9286" d="M678.712,328.893s-2.192,1.138-3.659.167l-.164-1.444,3.974-.029Z" transform="translate(-668.876 -309.979)" fill="#e08d56"/>
          <path id="Trazado_9287" data-name="Trazado 9287" d="M658.3,562.267s-5.314-1.858-4.522-4.019c.655-1.788,1.746-1.7,4.586-.758,2.755.91,15.935,6.461,15.063,8.8C672.862,567.8,671.288,567.555,658.3,562.267Z" transform="translate(-650.169 -512.316)" fill="#f7af80"/>
          <path id="Trazado_9288" data-name="Trazado 9288" d="M639.2,365.265l-6.038,1.171s-2.033,1.226.256,3.536l2.2,13.242a15.742,15.742,0,0,0,9.437-.936l.7-12.44s2.62-1.888-.127-4.045Z" transform="translate(-631.309 -343.234)" fill="#f7af80"/>
          <path id="Trazado_9289" data-name="Trazado 9289" d="M651.88,360.247l-3.27,2.582-7.845-1.18-1.352-.759s4.39-2,6.79-1.9a17.792,17.792,0,0,1,5.676,1.261" transform="translate(-637.566 -337.689)" fill="#f7af80"/>
          <ellipse id="Elipse_513" data-name="Elipse 513" cx="3.732" cy="4.811" rx="3.732" ry="4.811" transform="translate(4.094 42.702) rotate(-89.57)" fill="#f7af80"/>
          <path id="Trazado_9290" data-name="Trazado 9290" d="M662.551,498.544c-.147,0-5.267,1.05-5.267,1.05s-.219,4.8-.189,6.448c.028,1.529,10.5,1.257,10.35-.116-.2-1.811-.542-6.342-.542-6.342Z" transform="translate(-653.17 -460.87)" fill="#f7af80"/>
          <path id="Trazado_9291" data-name="Trazado 9291" d="M662.605,490.632a7.208,7.208,0,0,1-1.962,5.731,5.418,5.418,0,0,1-3.415,1.558c-3.3.29-6.007-2.03-6.126-5.924,0,0-.95-6.743,4.44-7.141C660.827,484.466,662.488,487.81,662.605,490.632Z" transform="translate(-647.826 -448.761)" fill="#4c2b0c"/>
          <path id="Trazado_9292" data-name="Trazado 9292" d="M654.392,545.008l-5.741-1.933s-3.039,4.346,1.1,6.453,16.334,5.445,16.334,5.445a115.308,115.308,0,0,0-4.762,17.956l2.455,1.1,6-18.516s.723-2.938-1.154-3.954C665.61,549.929,654.392,545.008,654.392,545.008Z" transform="translate(-644.771 -500.174)" fill="#4c2b0c"/>
          <g id="Grupo_4093" data-name="Grupo 4093" transform="translate(4.751 8.34)">
            <path id="Trazado_9293" data-name="Trazado 9293" d="M665.636,249.3a.745.745,0,1,1-.766-.68A.725.725,0,0,1,665.636,249.3Z" transform="translate(-664.148 -248.619)" fill="#231f20"/>
            <path id="Trazado_9294" data-name="Trazado 9294" d="M672.177,251.96a.194.194,0,0,1,.006.262c-.092.108.069.26.161.151a.412.412,0,0,0,.021-.531.114.114,0,0,0-.152-.035.111.111,0,0,0-.035.152Z" transform="translate(-671.215 -251.42)" fill="#fff"/>
          </g>
          <g id="Grupo_4094" data-name="Grupo 4094" transform="translate(9.455 8.192)">
            <path id="Trazado_9295" data-name="Trazado 9295" d="M705.716,248.038a.745.745,0,1,1-.766-.68A.725.725,0,0,1,705.716,248.038Z" transform="translate(-704.228 -247.358)" fill="#231f20"/>
            <path id="Trazado_9296" data-name="Trazado 9296" d="M712.258,250.7a.2.2,0,0,1,.006.262c-.092.108.069.26.161.151a.411.411,0,0,0,.02-.531.114.114,0,0,0-.152-.035.111.111,0,0,0-.035.152Z" transform="translate(-711.296 -250.159)" fill="#fff"/>
          </g>
          <g id="Grupo_4095" data-name="Grupo 4095" transform="translate(7.431 10.192)">
            <path id="Trazado_9297" data-name="Trazado 9297" d="M688.1,265.341a3.4,3.4,0,0,1-.375-.61c-.137-.308-.294-.4-.582-.277s-.348,2.545,1.29,2.676,1.392-1,1.17-1.27S688.694,266.085,688.1,265.341Z" transform="translate(-686.985 -264.399)" fill="#e08d56"/>
            <path id="Trazado_9298" data-name="Trazado 9298" d="M688.487,267.766c-1.41-.113-1.562-1.92-1.393-2.5-.241.362-.2,2.506,1.339,2.629.862.069,1.2-.213,1.3-.535C689.587,267.623,689.233,267.825,688.487,267.766Z" transform="translate(-686.985 -265.163)" fill="#c77236"/>
          </g>
          <g id="Grupo_4097" data-name="Grupo 4097" transform="translate(7.113 14.488)">
            <g id="Grupo_4096" data-name="Grupo 4096" transform="translate(0.989 0.236)">
              <path id="Trazado_9299" data-name="Trazado 9299" d="M692.7,308.229a.706.706,0,0,0,.684-.062A.481.481,0,0,1,692.7,308.229Z" transform="translate(-692.704 -307.563)" fill="#f09d9e"/>
              <path id="Trazado_9300" data-name="Trazado 9300" d="M702.494,303.018s.105.016.07.1C702.565,303.119,702.671,303.01,702.494,303.018Z" transform="translate(-701.345 -303.018)" fill="#e49d73"/>
            </g>
            <path id="Trazado_9301" data-name="Trazado 9301" d="M684.333,301.375s-.21-.461.164-.354C684.5,301.02,684.236,301.013,684.333,301.375Z" transform="translate(-684.274 -301.004)" fill="#3a3a3a"/>
            <path id="Trazado_9302" data-name="Trazado 9302" d="M684.419,301.59s1.119,1.1,2.127.2c0,0-.673.672-2.038-.253Z" transform="translate(-684.402 -301.475)" fill="#3a3a3a"/>
          </g>
          <path id="Trazado_9303" data-name="Trazado 9303" d="M704.9,234.417a1.311,1.311,0,0,0-1.078-1.107,2.269,2.269,0,0,0-.442-.039.676.676,0,0,0-.29.032l.063-.184c-.134.044-.372.374-.372.374l-.04-.259a1.873,1.873,0,0,0-.125.631l.313-.019A3.724,3.724,0,0,1,704.9,234.417Z" transform="translate(-693.348 -226.598)" fill="#231f20"/>
          <path id="Trazado_9304" data-name="Trazado 9304" d="M657.368,239.191a1.311,1.311,0,0,1,1.006-1.173,2.276,2.276,0,0,1,.439-.066.676.676,0,0,1,.291.014l-.075-.18c.137.036.4.35.4.35l.023-.261a1.868,1.868,0,0,1,.165.622H659.3C658.969,238.54,657.732,238.729,657.368,239.191Z" transform="translate(-653.413 -230.717)" fill="#231f20"/>
          <path id="Trazado_9305" data-name="Trazado 9305" d="M635.91,185.045s-.225-2.524.94-2.822,3.3.471,4.686.619,6.163-.416,6.425-3.469a1.555,1.555,0,0,1-1.631-.286c-1.364-1.024-5.675-2.279-8.208-.943S633.77,181.51,635.91,185.045Z" transform="translate(-633.639 -177.564)" fill="#231f20"/>
          <path id="Trazado_9306" data-name="Trazado 9306" d="M625.65,201.388s-.844-1.062-.72-1.762a2.13,2.13,0,0,0-.146,1.375s-1.065.425-1.115.927c0,0,.1-.221.991-.249a2.022,2.022,0,0,0-.425.949A5.1,5.1,0,0,1,625.65,201.388Z" transform="translate(-623.67 -197.037)" fill="#231f20"/>
          <path id="Trazado_9307" data-name="Trazado 9307" d="M630.966,217.613l.226.646s.672,3.928-.139,5.089l-.453.171-1.245-3.9S630.433,217.26,630.966,217.613Z" transform="translate(-628.688 -212.88)" fill="#231f20"/>
          <path id="Trazado_9308" data-name="Trazado 9308" d="M717.047,211.536s1.042-.162,1.263.646a23.438,23.438,0,0,1,.2,3.555l.4.12-.057-.89.284-2.3-.355-1.433-.211-.757Z" transform="translate(-706.087 -206.61)" fill="#231f20"/>
          <path id="Trazado_9309" data-name="Trazado 9309" d="M689.275,191.028s3.044.454,4.122-1.31.87-2.421.87-2.421l-.723-.431A4.1,4.1,0,0,1,689.275,191.028Z" transform="translate(-681.575 -185.774)" fill="#514b4d"/>
          <path id="Trazado_9310" data-name="Trazado 9310" d="M684.707,186.249s3.99-1.567,3.592-4.509l-.77-.25s.557,2.389-3.179,4.694Z" transform="translate(-677.228 -181.029)" fill="#514b4d"/>
          <path id="Trazado_9311" data-name="Trazado 9311" d="M720.047,196.084s2.926-.952,3.011-3.11a1.234,1.234,0,0,1-.714.1S721.7,195.368,720.047,196.084Z" transform="translate(-708.735 -191.165)" fill="#514b4d"/>
          <path id="Trazado_9312" data-name="Trazado 9312" d="M634.686,245.627l-1.663.052,1.668.384Z" transform="translate(-631.925 -237.639)" fill="#514b4d"/>
          <path id="Trazado_9313" data-name="Trazado 9313" d="M635.943,253.271l-.055.447-1.411-.711Z" transform="translate(-633.209 -244.152)" fill="#514b4d"/>
          <path id="Trazado_9314" data-name="Trazado 9314" d="M638.375,260.7l-.184.374-.749-.755Z" transform="translate(-635.825 -250.604)" fill="#514b4d"/>
          <path id="Trazado_9315" data-name="Trazado 9315" d="M729.2,234.848l.908-.445-.89,1.014Z" transform="translate(-716.815 -227.732)" fill="#514b4d"/>
          <path id="Trazado_9316" data-name="Trazado 9316" d="M729.46,241.511l.8-.7-.794,1.08Z" transform="translate(-717.043 -233.389)" fill="#514b4d"/>
          <path id="Trazado_9317" data-name="Trazado 9317" d="M729.518,250.875l.352-.414-.121.639-.231-.069Z" transform="translate(-717.094 -241.905)" fill="#514b4d"/>
          <path id="Trazado_9318" data-name="Trazado 9318" d="M639.96,256.835l.453-.171s2.058,6.442,4.475,6.54a1.009,1.009,0,0,0,1.1-1.158l.86-.027s.127.981.512.9,2.473-1.514,2.655-2.793.454-4.805.454-4.805l.4.12s.39,4.428.4,4.689c.044,1.339-1.5,3.25-2.647,3.895a4.262,4.262,0,0,1-1.693.655c-1.231.182-2.336.433-4.544-1.167a7.3,7.3,0,0,1-2.032-2.491A22.168,22.168,0,0,1,639.96,256.835Z" transform="translate(-638.048 -246.196)" fill="#2d2a2b"/>
          <path id="Trazado_9319" data-name="Trazado 9319" d="M663.658,290.715a1.467,1.467,0,0,0-.868-.255,7.4,7.4,0,0,0-1.111.174,4.529,4.529,0,0,1-1.109.265c-.405.013-1.472.44-1.484,1.19a1.494,1.494,0,0,0,.94,1.307c.207.026-.227-1,.07-1.236a5.949,5.949,0,0,1,2.724-.765,4.66,4.66,0,0,0,1.2-.038,2.039,2.039,0,0,1,.917.129c.384.182,1.11.058,1.528.778s.588-.667.61-.727a2.5,2.5,0,0,0-1.63-.878C664.659,290.662,664.3,290.3,663.658,290.715Z" transform="translate(-654.929 -277.203)" fill="#2d2a2b"/>
          <g id="Grupo_4113" data-name="Grupo 4113" transform="translate(0.774 19.506)">
            <g id="Grupo_4098" data-name="Grupo 4098">
              <path id="Trazado_9320" data-name="Trazado 9320" d="M643.687,346.72a17.169,17.169,0,0,0-3.867-1.513c-.372-.1-.257-1.455-.257-1.455l-2.17.165-2.176-.028s.19,1.318-.165,1.468a22.55,22.55,0,0,0-3.751,2.166,2.218,2.218,0,0,0-1,2.373,2.8,2.8,0,0,0,1.182,2.161l1.888,15.09,10.149-.319.634-15.787S646.984,348.429,643.687,346.72Z" transform="translate(-630.261 -343.752)" fill="#b42eed"/>
            </g>
            <g id="Grupo_4099" data-name="Grupo 4099" transform="translate(5.089 0.161)" opacity="0.41">
              <path id="Trazado_9321" data-name="Trazado 9321" d="M673.618,345.279l.639.024c.192.007.416.01.655.014s.495,0,.75,0,.51-.013.749-.027l.344-.026.307-.033.258-.037c.077-.009.143-.025.2-.035l.173-.033-.169.048c-.054.015-.12.035-.2.049s-.163.036-.258.052l-.307.046c-.11.012-.225.026-.345.036-.24.018-.5.032-.753.038s-.513,0-.753-.008-.464-.025-.656-.038C673.872,345.316,673.618,345.279,673.618,345.279Z" transform="translate(-673.618 -345.123)" fill="#fff"/>
            </g>
            <g id="Grupo_4111" data-name="Grupo 4111" transform="translate(5.295 0.471)">
              <g id="Grupo_4110" data-name="Grupo 4110">
                <g id="Grupo_4100" data-name="Grupo 4100" transform="translate(0 0.106)">
                  <path id="Trazado_9322" data-name="Trazado 9322" d="M675.544,348.667s.009.069.01.169a2.518,2.518,0,0,1-.027.359,2.1,2.1,0,0,1-.081.347,1.254,1.254,0,0,1-.063.151,1.387,1.387,0,0,1-.013-.17,2.208,2.208,0,0,1,.03-.359,2.369,2.369,0,0,1,.084-.346A1.556,1.556,0,0,1,675.544,348.667Z" transform="translate(-675.37 -348.667)" fill="#c755ff"/>
                </g>
                <g id="Grupo_4101" data-name="Grupo 4101" transform="translate(0.407 0.184)">
                  <path id="Trazado_9323" data-name="Trazado 9323" d="M678.979,349.336s.011.068.017.168a2.528,2.528,0,0,1-.012.361,2.2,2.2,0,0,1-.067.351,1.245,1.245,0,0,1-.057.155,1.407,1.407,0,0,1-.02-.169,2.213,2.213,0,0,1,.015-.361,2.42,2.42,0,0,1,.069-.35C678.953,349.4,678.979,349.336,678.979,349.336Z" transform="translate(-678.839 -349.336)" fill="#c755ff"/>
                </g>
                <g id="Grupo_4102" data-name="Grupo 4102" transform="translate(0.813 0.24)">
                  <path id="Trazado_9324" data-name="Trazado 9324" d="M682.407,349.812a1.663,1.663,0,0,1,.024.167,2.515,2.515,0,0,1,0,.361,2.187,2.187,0,0,1-.052.355,1.321,1.321,0,0,1-.05.158,1.347,1.347,0,0,1-.026-.167,2.236,2.236,0,0,1,0-.361,2.436,2.436,0,0,1,.055-.355C682.384,349.875,682.407,349.812,682.407,349.812Z" transform="translate(-682.298 -349.812)" fill="#c755ff"/>
                </g>
                <g id="Grupo_4103" data-name="Grupo 4103" transform="translate(1.216 0.273)">
                  <path id="Trazado_9325" data-name="Trazado 9325" d="M685.815,350.1a1.66,1.66,0,0,1,.03.165,2.54,2.54,0,0,1,.018.361,2.239,2.239,0,0,1-.037.358,1.312,1.312,0,0,1-.043.161,1.364,1.364,0,0,1-.033-.166,2.232,2.232,0,0,1-.015-.361,2.484,2.484,0,0,1,.04-.357C685.794,350.16,685.815,350.1,685.815,350.1Z" transform="translate(-685.733 -350.096)" fill="#c755ff"/>
                </g>
                <g id="Grupo_4104" data-name="Grupo 4104" transform="translate(1.616 0.284)">
                  <path id="Trazado_9326" data-name="Trazado 9326" d="M689.2,350.187a1.643,1.643,0,0,1,.037.163,2.51,2.51,0,0,1,.033.36,2.235,2.235,0,0,1-.022.36,1.372,1.372,0,0,1-.037.164,1.4,1.4,0,0,1-.04-.164,2.247,2.247,0,0,1-.03-.36,2.506,2.506,0,0,1,.025-.36C689.178,350.252,689.2,350.187,689.2,350.187Z" transform="translate(-689.137 -350.187)" fill="#c755ff"/>
                </g>
                <g id="Grupo_4105" data-name="Grupo 4105" transform="translate(2.011 0.272)">
                  <path id="Trazado_9327" data-name="Trazado 9327" d="M692.545,350.086s.022.064.044.161a2.518,2.518,0,0,1,.048.357,2.239,2.239,0,0,1-.007.361,1.33,1.33,0,0,1-.03.166,1.267,1.267,0,0,1-.047-.161,2.226,2.226,0,0,1-.045-.358,2.567,2.567,0,0,1,.01-.361C692.53,350.152,692.545,350.086,692.545,350.086Z" transform="translate(-692.506 -350.086)" fill="#c755ff"/>
                </g>
                <g id="Grupo_4106" data-name="Grupo 4106" transform="translate(2.401 0.238)">
                  <path id="Trazado_9328" data-name="Trazado 9328" d="M695.852,349.794s.025.063.05.158a2.471,2.471,0,0,1,.063.354,2.243,2.243,0,0,1,.008.361.086.086,0,1,1-.076.009,2.21,2.21,0,0,1-.059-.355,2.517,2.517,0,0,1,0-.361C695.839,349.861,695.852,349.794,695.852,349.794Z" transform="translate(-695.827 -349.794)" fill="#c755ff"/>
                </g>
                <g id="Grupo_4107" data-name="Grupo 4107" transform="translate(2.785 0.181)">
                  <path id="Trazado_9329" data-name="Trazado 9329" d="M699.11,349.308a1.651,1.651,0,0,1,.057.155,2.45,2.45,0,0,1,.077.35,2.234,2.234,0,0,1,.023.361,1.334,1.334,0,0,1-.016.169,1.283,1.283,0,0,1-.06-.155,2.208,2.208,0,0,1-.074-.351,2.51,2.51,0,0,1-.02-.361C699.1,349.376,699.11,349.308,699.11,349.308Z" transform="translate(-699.096 -349.308)" fill="#c755ff"/>
                </g>
                <g id="Grupo_4108" data-name="Grupo 4108" transform="translate(3.163 0.102)">
                  <path id="Trazado_9330" data-name="Trazado 9330" d="M702.325,348.633a1.57,1.57,0,0,1,.063.152,2.378,2.378,0,0,1,.091.345,2.246,2.246,0,0,1,.037.359,1.387,1.387,0,0,1-.009.17,1.281,1.281,0,0,1-.067-.151,2.179,2.179,0,0,1-.088-.346,2.452,2.452,0,0,1-.034-.359A1.627,1.627,0,0,1,702.325,348.633Z" transform="translate(-702.319 -348.633)" fill="#c755ff"/>
                </g>
                <g id="Grupo_4109" data-name="Grupo 4109" transform="translate(3.535)">
                  <path id="Trazado_9331" data-name="Trazado 9331" d="M705.491,347.766a1.557,1.557,0,0,1,.07.148,2.421,2.421,0,0,1,.105.34,2.239,2.239,0,0,1,.052.357,1.354,1.354,0,0,1,0,.17,1.248,1.248,0,0,1-.072-.147,2.137,2.137,0,0,1-.1-.341,2.483,2.483,0,0,1-.049-.357C705.487,347.835,705.491,347.766,705.491,347.766Z" transform="translate(-705.49 -347.766)" fill="#c755ff"/>
                </g>
              </g>
            </g>
            <g id="Grupo_4112" data-name="Grupo 4112" transform="translate(4.792 1.455)">
              <path id="Trazado_9332" data-name="Trazado 9332" d="M671.087,356.3a6.705,6.705,0,0,0,4.767-.15A5.524,5.524,0,0,1,671.087,356.3Z" transform="translate(-671.087 -356.15)" fill="#9f22d4"/>
            </g>
          </g>
          <path id="Trazado_9333" data-name="Trazado 9333" d="M631.559,366.155l-3.846,1.365s-1.085,2.975,1.037,4.735l.518,16.453,7.347.145-.313-9.935a9.2,9.2,0,0,1-4.527-6.759A32.034,32.034,0,0,1,631.559,366.155Z" transform="translate(-626.994 -344.02)" fill="#252430"/>
          <path id="Trazado_9334" data-name="Trazado 9334" d="M647.1,357.219s-1.735,4.692,3.744,13.787l.03.969s-8.4-8.6-6.749-13.528C644.123,358.447,644.694,356.972,647.1,357.219Z" transform="translate(-641.533 -336.108)" fill="#1d1d1e"/>
          <path id="Trazado_9335" data-name="Trazado 9335" d="M723.332,363.853,726.446,365s1.024,2.908-.553,4.785l.319,16.415-4.129.55-.4-10.079s1.742-2.225,1.816-6.811A40.446,40.446,0,0,0,723.332,363.853Z" transform="translate(-710.179 -341.988)" fill="#252430"/>
          <path id="Trazado_9336" data-name="Trazado 9336" d="M715.967,356.458s3.04,3.991.671,13.622l.044,1.116s4.554-11.495,3.176-13.84A6.14,6.14,0,0,0,715.967,356.458Z" transform="translate(-705.134 -335.398)" fill="#1d1d1e"/>
          <path id="Trazado_9337" data-name="Trazado 9337" d="M755.387,361.9s3.412,7.2,6.089,7.171,4.368-13.973,4.368-13.973l-2.341-.186s-1.3,11.037-2.437,10.97c-1.645-.1-4.942-8.772-4.942-8.772Z" transform="translate(-739.927 -334.094)" fill="#252430"/>
          <path id="Trazado_9338" data-name="Trazado 9338" d="M827.065,323.753l-.151-.086a.2.2,0,0,1-.074-.274l.581-1.214a.2.2,0,0,1,.274-.074l.324.186a.2.2,0,0,1,.074.274l-.755,1.114A.2.2,0,0,1,827.065,323.753Z" transform="translate(-802.971 -305.117)" fill="#e08d56"/>
          <path id="Trazado_9339" data-name="Trazado 9339" d="M641.028,494.008l-.049-1.4s4.713,1.716,7.369.836l.038,1.194Z" transform="translate(-638.947 -455.633)" fill="#1e1d26"/>
        </g>
        <g id="Grupo_4115" data-name="Grupo 4115" transform="translate(0 40.644)">
          <path id="Trazado_9340" data-name="Trazado 9340" d="M500.673,527.535l10.38-3.474,45.729-.209,7.594,3.706Z" transform="translate(-500.673 -523.852)" fill="#7cd9e6"/>
          <path id="Trazado_9341" data-name="Trazado 9341" d="M579.5,588.341H524.425l-1.873-26.993h58.613Z" transform="translate(-519.984 -556.947)" fill="#81cbdb"/>
          <path id="Trazado_9342" data-name="Trazado 9342" d="M580.952,564.681l.213-3.333H522.552l.24,3.333Z" transform="translate(-519.984 -556.947)" fill="#5abbd0"/>
          <rect id="Rectángulo_2078" data-name="Rectángulo 2078" width="63.742" height="2.961" transform="translate(0.004 3.662)" fill="#04adc5"/>
        </g>
        <path id="Trazado_9343" data-name="Trazado 9343" d="M540.193,757.832l-1.685,3.445.843,8.769H542.8l-1.088-12.765Z" transform="translate(-534.067 -689.239)" fill="#81cbdb"/>
        <path id="Trazado_9344" data-name="Trazado 9344" d="M974.233,757.832l1.632,3.445-.789,8.769h-3.452l1.088-12.765Z" transform="translate(-916.348 -689.239)" fill="#81cbdb"/>
        <path id="Trazado_9345" data-name="Trazado 9345" d="M592.8,729.25l-1.685,3.445.843,8.769h3.452L594.321,728.7Z" transform="translate(-580.499 -664.011)" fill="#81cbdb"/>
        <path id="Trazado_9346" data-name="Trazado 9346" d="M929.793,712.387l1.632,3.445-.789,8.769h-3.452l1.088-12.765Z" transform="translate(-877.124 -649.128)" fill="#81cbdb"/>
        <g id="Grupo_4116" data-name="Grupo 4116" transform="translate(9.231 21.967)">
          <path id="Trazado_9347" data-name="Trazado 9347" d="M788.166,369.772l-.789-.56s-.471.234-.471,1.176v16.091s-.042,1.007,1.429,1.007S788.166,369.772,788.166,369.772Z" transform="translate(-762.541 -368.685)" fill="#333"/>
          <path id="Trazado_9348" data-name="Trazado 9348" d="M790.916,365.249l.327.814,25.784-.087a1.2,1.2,0,0,0-.633-1.182l-1.051-.073Z" transform="translate(-766.081 -364.722)" fill="#666"/>
          <path id="Trazado_9349" data-name="Trazado 9349" d="M789.54,370.148a11.166,11.166,0,0,1-1-.679s.162-.356.4-.31a3.177,3.177,0,0,1,.806.608Z" transform="translate(-763.979 -368.635)" fill="#666"/>
          <path id="Trazado_9350" data-name="Trazado 9350" d="M861.253,536.986v.475l1.711,1.159.048-.387Z" transform="translate(-828.163 -516.767)" fill="#4d4d4d"/>
          <path id="Trazado_9351" data-name="Trazado 9351" d="M881.412,546.276l.435.156v.315l-6.016.073v-.544Z" transform="translate(-841.029 -524.967)" fill="#333"/>
          <path id="Trazado_9352" data-name="Trazado 9352" d="M863.012,538.233h5.968l-1.74-1.247h-5.987Z" transform="translate(-828.163 -516.767)" fill="#666"/>
          <rect id="Rectángulo_2079" data-name="Rectángulo 2079" width="4.82" height="3.16" transform="translate(35.251 18.306)" fill="#4d4d4d"/>
          <path id="Trazado_9353" data-name="Trazado 9353" d="M884.477,518.565v1.042l-4.82,1.178v-1.971Z" transform="translate(-844.406 -500.508)" fill="#333"/>
          <path id="Trazado_9354" data-name="Trazado 9354" d="M602.82,520.635H581.449l-2.127,2.394h25.625Z" transform="translate(-579.322 -502.336)" fill="#666"/>
          <rect id="Rectángulo_2080" data-name="Rectángulo 2080" width="25.625" height="0.41" transform="translate(0 20.694)" fill="#333"/>
          <path id="Trazado_9355" data-name="Trazado 9355" d="M762.323,535.666h.992l-.2.315h-.787Z" transform="translate(-740.844 -515.602)" fill="#b1b1b1"/>
          <path id="Trazado_9356" data-name="Trazado 9356" d="M763.732,529.493h.992l-.2.315h-.787Z" transform="translate(-742.088 -510.153)" fill="#b1b1b1"/>
          <path id="Trazado_9357" data-name="Trazado 9357" d="M751.944,529.493h.993l-.205.315h-.787Z" transform="translate(-731.683 -510.153)" fill="#b1b1b1"/>
          <path id="Trazado_9358" data-name="Trazado 9358" d="M741.568,535.666h.992l-.2.315h-.787Z" transform="translate(-722.525 -515.602)" fill="#b1b1b1"/>
          <path id="Trazado_9359" data-name="Trazado 9359" d="M731.188,535.666h.992l-.2.315h-.788Z" transform="translate(-713.363 -515.602)" fill="#b1b1b1"/>
          <path id="Trazado_9360" data-name="Trazado 9360" d="M720.81,535.666h.992l-.2.315h-.788Z" transform="translate(-704.204 -515.602)" fill="#b1b1b1"/>
          <path id="Trazado_9361" data-name="Trazado 9361" d="M710.435,535.666h.992l-.2.315h-.787Z" transform="translate(-695.046 -515.602)" fill="#b1b1b1"/>
          <path id="Trazado_9362" data-name="Trazado 9362" d="M700.056,535.666h.992l-.2.315h-.788Z" transform="translate(-685.885 -515.602)" fill="#b1b1b1"/>
          <path id="Trazado_9363" data-name="Trazado 9363" d="M689.677,535.666h.856l-.069.315h-.787Z" transform="translate(-676.724 -515.602)" fill="#b1b1b1"/>
          <path id="Trazado_9364" data-name="Trazado 9364" d="M679.3,535.666h.8l-.01.315H679.3Z" transform="translate(-667.564 -515.602)" fill="#b1b1b1"/>
          <path id="Trazado_9365" data-name="Trazado 9365" d="M668.921,535.666h.756l.032.315h-.788Z" transform="translate(-658.404 -515.602)" fill="#b1b1b1"/>
          <path id="Trazado_9366" data-name="Trazado 9366" d="M657.246,535.666h.929l.011.315H657.4Z" transform="translate(-648.1 -515.602)" fill="#b1b1b1"/>
          <path id="Trazado_9367" data-name="Trazado 9367" d="M647.291,535.666h.93l.01.315h-.788Z" transform="translate(-639.313 -515.602)" fill="#b1b1b1"/>
          <path id="Trazado_9368" data-name="Trazado 9368" d="M637.337,535.666h.929l.01.315h-.787Z" transform="translate(-630.528 -515.602)" fill="#b1b1b1"/>
          <path id="Trazado_9369" data-name="Trazado 9369" d="M627.383,535.666h.929l.011.315h-.788Z" transform="translate(-621.742 -515.602)" fill="#b1b1b1"/>
          <path id="Trazado_9370" data-name="Trazado 9370" d="M607.476,535.666h.929l.011.315h-.788Z" transform="translate(-604.171 -515.602)" fill="#b1b1b1"/>
          <path id="Trazado_9371" data-name="Trazado 9371" d="M741.568,529.493h.992l-.2.315h-.787Z" transform="translate(-722.525 -510.153)" fill="#b1b1b1"/>
          <path id="Trazado_9372" data-name="Trazado 9372" d="M731.188,529.493h.992l-.2.315h-.788Z" transform="translate(-713.363 -510.153)" fill="#b1b1b1"/>
          <path id="Trazado_9373" data-name="Trazado 9373" d="M720.81,529.493h.992l-.2.315h-.788Z" transform="translate(-704.204 -510.153)" fill="#b1b1b1"/>
          <path id="Trazado_9374" data-name="Trazado 9374" d="M710.435,529.493h.992l-.2.315h-.787Z" transform="translate(-695.046 -510.153)" fill="#b1b1b1"/>
          <path id="Trazado_9375" data-name="Trazado 9375" d="M700.056,529.493h.992l-.2.315h-.788Z" transform="translate(-685.885 -510.153)" fill="#b1b1b1"/>
          <path id="Trazado_9376" data-name="Trazado 9376" d="M689.677,529.493h.856l-.069.315h-.787Z" transform="translate(-676.724 -510.153)" fill="#b1b1b1"/>
          <path id="Trazado_9377" data-name="Trazado 9377" d="M664.089,523.32h6.946l-.034.315h-6.775Z" transform="translate(-654.14 -504.705)" fill="#b1b1b1"/>
          <path id="Trazado_9378" data-name="Trazado 9378" d="M679.3,529.493h.8l-.01.315H679.3Z" transform="translate(-667.564 -510.153)" fill="#b1b1b1"/>
          <path id="Trazado_9379" data-name="Trazado 9379" d="M668.921,529.493h.756l.032.315h-.788Z" transform="translate(-658.404 -510.153)" fill="#b1b1b1"/>
          <path id="Trazado_9380" data-name="Trazado 9380" d="M657.246,529.493h.929l.011.315H657.4Z" transform="translate(-648.1 -510.153)" fill="#b1b1b1"/>
          <path id="Trazado_9381" data-name="Trazado 9381" d="M647.291,529.493h.93l.01.315h-.788Z" transform="translate(-639.313 -510.153)" fill="#b1b1b1"/>
          <path id="Trazado_9382" data-name="Trazado 9382" d="M637.337,529.493h.929l.01.315h-.787Z" transform="translate(-630.528 -510.153)" fill="#b1b1b1"/>
          <path id="Trazado_9383" data-name="Trazado 9383" d="M627.383,529.493h.929l.011.315h-.788Z" transform="translate(-621.742 -510.153)" fill="#b1b1b1"/>
          <path id="Trazado_9384" data-name="Trazado 9384" d="M607.476,529.493h.929l.011.315h-.788Z" transform="translate(-604.171 -510.153)" fill="#b1b1b1"/>
          <path id="Trazado_9385" data-name="Trazado 9385" d="M929.63,408.761l.04.58,2.359-.02-.04-.56Z" transform="translate(-888.514 -403.592)" fill="#4e9cb3"/>
          <path id="Trazado_9386" data-name="Trazado 9386" d="M816.18,367.355l-24.207.473a.948.948,0,0,0-.945.945V384.9a.948.948,0,0,0,.945.945h23.735a.948.948,0,0,0,.945-.945v-2.394l.472-14.207A.948.948,0,0,0,816.18,367.355Z" transform="translate(-766.18 -367.046)" fill="#4d4d4d"/>
          <circle id="Elipse_514" data-name="Elipse 514" cx="2.537" cy="2.537" r="2.537" transform="translate(35.744 6.717)" fill="#b1b1b1"/>
        </g>
        <path id="Trazado_9387" data-name="Trazado 9387" d="M703.818,495.231l-.125-.121a.2.2,0,0,1,0-.283l.863-1.032a.2.2,0,0,1,.284,0l.268.261a.2.2,0,0,1,0,.284l-1.007.893A.2.2,0,0,1,703.818,495.231Z" transform="translate(-679.811 -456.625)" fill="#e08d56"/>
        <path id="Trazado_9388" data-name="Trazado 9388" d="M598.027,377.782s1.536,1.25,1.2,4.676a6.969,6.969,0,0,0-3.468,6.286c.069,4.508,10.531,4.208,10.531,4.208a2.175,2.175,0,0,1-.209,1.627s-10.331.429-11.837-4.282S595.328,381.054,598.027,377.782Z" transform="translate(-582.872 -354.282)" fill="#252430"/>
        <g id="Grupo_4117" data-name="Grupo 4117" transform="translate(23.649 37.428)">
          <path id="Trazado_9389" data-name="Trazado 9389" d="M705.168,499.381c.025,0,.384-.015.409-.021.237-.063.267-.282.224-.513l.01-1.954a.437.437,0,0,0-.053-.223.448.448,0,0,0-.469-.214l-2.732.72a.488.488,0,0,0-.235.147.6.6,0,0,0-.127.611l.177.948c.055.544.32.619.563.573Z" transform="translate(-702.164 -496.448)" fill="#f7af80"/>
        </g>
      </g>
    </g>
  </g>
</svg>
