<svg xmlns="http://www.w3.org/2000/svg" width="176" height="157.789" viewBox="0 0 176 157.789">
  <g id="Grupo_4186" data-name="Grupo 4186" transform="translate(-69 -118)">
    <g id="Grupo_2606" data-name="Grupo 2606" transform="translate(69 118)">
      <path id="Trazado_5361" data-name="Trazado 5361" d="M6863.536,989.758s-21.58-27.017-45.83-10.178-37.126,67.531-7.408,102.494,75.821,39.518,103.392,22.406,26.119-57.569,8.23-72.461S6893.731,1025.294,6863.536,989.758Z" transform="translate(-6760.713 -968.569)" fill="#6d31ff"/>
      <path id="Trazado_5362" data-name="Trazado 5362" d="M6801.479,1132.3s3.86,10.273-4.743,16.3-28.211-3.491-35.626-16.425-4.9-28.537,3.565-31.653S6790.876,1105.5,6801.479,1132.3Z" transform="translate(-6751.939 -998.948)" fill="#6d31ff"/>
      <rect id="Rectángulo_1898" data-name="Rectángulo 1898" width="176" height="157.789" fill="none"/>
      <g id="Grupo_2605" data-name="Grupo 2605" transform="translate(51.421 2.356)">
        <g id="Grupo_2595" data-name="Grupo 2595" transform="translate(47.639 125.833)">
          <path id="Trazado_5363" data-name="Trazado 5363" d="M6884.823,1140.347l-.125-.019,1.106-4.351,1.766.023-2.73,4.306" transform="translate(-6881.89 -1135.846)" fill="#3f3f3f"/>
          <path id="Trazado_5364" data-name="Trazado 5364" d="M6890.521,1143.25a19.758,19.758,0,0,1,1.023-4.384s-3.253-3.8-5.506-2.932c0,0-5.7,9.589-4.98,14.85s3.5,1.895,3.361.813C6884.419,1151.6,6885.623,1145.506,6890.521,1143.25Z" transform="translate(-6880.996 -1135.804)" fill="#020202"/>
          <path id="Trazado_5365" data-name="Trazado 5365" d="M6890.731,1138.95c.815-.416,1.459.652,1.459.652a19.731,19.731,0,0,0-1.023,4.384c-4.9,2.256-6.1,8.347-6.1,8.347s-2.9,2.135-.339-4.749C6884.725,1147.584,6886.742,1140.99,6890.731,1138.95Z" transform="translate(-6881.641 -1136.541)" fill="#303030"/>
          <path id="Trazado_5366" data-name="Trazado 5366" d="M6886.076,1146.1a22.615,22.615,0,0,0-1.358,3.266c-2.56,6.884.34,4.749.34,4.749a14.561,14.561,0,0,1,1.409-3.7s1.325-4.153-.131-4.3" transform="translate(-6881.639 -1138.29)" fill="#3f3f3f"/>
          <path id="Trazado_5367" data-name="Trazado 5367" d="M6889.474,1145.161a3.389,3.389,0,0,1-.362,2.9S6890.815,1147.073,6889.474,1145.161Z" transform="translate(-6882.955 -1138.063)" fill="#020202"/>
          <path id="Trazado_5368" data-name="Trazado 5368" d="M6888.545,1146.556a3.393,3.393,0,0,1-.362,2.9S6889.887,1148.469,6888.545,1146.556Z" transform="translate(-6882.73 -1138.4)" fill="#020202"/>
          <path id="Trazado_5369" data-name="Trazado 5369" d="M6887.632,1147.851a3.4,3.4,0,0,1-.362,2.9S6888.973,1149.764,6887.632,1147.851Z" transform="translate(-6882.51 -1138.712)" fill="#020202"/>
        </g>
        <path id="Trazado_5370" data-name="Trazado 5370" d="M6890.577,978.7l-.266.333a.494.494,0,0,1-.693.077l-2.726-1.868a.494.494,0,0,1-.077-.693l.574-.717a.494.494,0,0,1,.692-.077l2.418,2.253A.494.494,0,0,1,6890.577,978.7Z" transform="translate(-6834.736 -971.31)" fill="#e8955d"/>
        <g id="Grupo_2596" data-name="Grupo 2596" transform="translate(53.545)">
          <path id="Trazado_5371" data-name="Trazado 5371" d="M6895.906,972.121c0-.062.059-.943.048-1.005-.1-.595-.625-.721-1.2-.673l-4.773-.506a1.07,1.07,0,0,0-.558.074,1.1,1.1,0,0,0-.638,1.095l1.088,6.854a1.183,1.183,0,0,0,.3.611,1.478,1.478,0,0,0,1.461.462l2.36-.2c1.342,0,1.591-.63,1.539-1.236Z" transform="translate(-6888.781 -969.929)" fill="#f4be9a"/>
        </g>
        <path id="Trazado_5372" data-name="Trazado 5372" d="M6893.014,977.9l-1.558,1.6.375,8.1h4.608l-.944-10.022Z" transform="translate(-6835.882 -971.775)" fill="#f4be9a"/>
        <path id="Trazado_5373" data-name="Trazado 5373" d="M6889.38,983.542l6.353,1.167.311,2.926-6.663-.892-1.522-3.578Z" transform="translate(-6835.013 -973.124)" fill="#efeeed"/>
        <path id="Trazado_5374" data-name="Trazado 5374" d="M6884.5,1028.679l2.2,1.712s3.843-19.023,0-45.756l9.61,1.465s5.759,35.714,1.1,55.361l-8.073-5.835Z" transform="translate(-6834.204 -973.479)" fill="#132030"/>
        <path id="Trazado_5375" data-name="Trazado 5375" d="M6855.7,1099.755s31.457-18.532,53.87-21.789l-22.2-20.835L6863.328,1065Z" transform="translate(-6827.25 -990.98)" fill="#0a141e"/>
        <path id="Trazado_5376" data-name="Trazado 5376" d="M6920.072,1148.354l-27.265-9.771-3.158,6.549,21.928,11.486s5.354,3.067,8.311.553c1.77-1.505.184-8.817.184-8.817" transform="translate(-6835.445 -1010.642)" fill="#132030"/>
        <path id="Trazado_5377" data-name="Trazado 5377" d="M6916.3,1141.566l-14.273-24.06c-1.311-2.585-11.029-13.712-6.2-16.458.889-.505,2.453.489,3.263.079,3.853-1.954,9,1.186,17.7,18.324l6.027,19.495Z" transform="translate(-6836.614 -1001.477)" fill="#132030"/>
        <path id="Trazado_5378" data-name="Trazado 5378" d="M6917.035,1110.02s13.783,23.247,10.117,37.33c0,0-.957,3.141-2.909,3.417-3.1.437-7.66-11.661-8.976-15.881C6914.219,1131.526,6907.99,1113.948,6917.035,1110.02Z" transform="translate(-6840.89 -1003.747)" fill="#132030"/>
        <path id="Trazado_5379" data-name="Trazado 5379" d="M6882.394,1090.563s-10.144,6.086-10.284,16.161,4.268,12.593,17.771,11.893,21.828-6.367,20.545-15.252C6909.154,1094.563,6904.222,1085.666,6882.394,1090.563Z" transform="translate(-6831.211 -998.714)" fill="#132030"/>
        <path id="Trazado_5380" data-name="Trazado 5380" d="M6868.423,1043.8s-6.619,2.341-8.23,3.934,6.7,3.813,6.7,3.813,9.443.068,11.579-2.677,1.358-7.227-1.872-6.842A66.488,66.488,0,0,0,6868.423,1043.8Z" transform="translate(-6828.286 -987.329)" fill="#0a141e"/>
        <path id="Trazado_5381" data-name="Trazado 5381" d="M6865.115,1004.5s2.552-1.356,4.435,0,6.9,11.07,5.638,12.666S6865.358,1009.49,6865.115,1004.5Z" transform="translate(-6829.523 -978.13)" fill="#35312f"/>
        <path id="Trazado_5382" data-name="Trazado 5382" d="M6846.257,1013.49a4.866,4.866,0,0,0-2.788,5.546c.65,4.264,4.779,11.045,7.73,11.179s1.813-2.767,1.813-2.767S6854.034,1013.33,6846.257,1013.49Z" transform="translate(-6824.279 -980.444)" fill="#35312f"/>
        <path id="Trazado_5383" data-name="Trazado 5383" d="M6860.848,1039.6a37.035,37.035,0,0,1,6.639,9.97s7.594,1.994,9.595-2.256l-4.244-9.025S6865.334,1036.03,6860.848,1039.6Z" transform="translate(-6828.494 -986.261)" fill="#f4be9a"/>
        <path id="Trazado_5384" data-name="Trazado 5384" d="M6867.088,1039.367l-6.24.454a36.64,36.64,0,0,1,4.584,6.112s6.744,1.809,9.935-2.047l-2.529-5.377Z" transform="translate(-6828.494 -986.485)" fill="#eaa271"/>
        <g id="Grupo_2597" data-name="Grupo 2597" transform="translate(11.127 116.265)">
          <path id="Trazado_5385" data-name="Trazado 5385" d="M6847.986,1125.115l-.062-.11,4.106-1.813,1.071,1.4-5.073.508" transform="translate(-6836.501 -1123.192)" fill="#3f3f3f"/>
          <path id="Trazado_5386" data-name="Trazado 5386" d="M6846.1,1132.4a19.675,19.675,0,0,1,4.082-1.9s.986-4.907-1.09-6.143c0,0-11.062,1.432-14.759,5.241s.669,3.924,1.434,3.147C6835.767,1132.75,6841.3,1129.938,6846.1,1132.4Z" transform="translate(-6832.867 -1123.474)" fill="#020202"/>
          <path id="Trazado_5387" data-name="Trazado 5387" d="M6850.444,1130.191c.832.385.388,1.55.388,1.55a19.677,19.677,0,0,0-4.082,1.9c-4.8-2.465-10.334.347-10.334.347s-3.469-.966,3.527-3.2C6839.943,1130.789,6846.377,1128.308,6850.444,1130.191Z" transform="translate(-6833.516 -1124.711)" fill="#303030"/>
          <path id="Trazado_5388" data-name="Trazado 5388" d="M6843.314,1129.979a22.672,22.672,0,0,0-3.41.946c-7,2.232-3.527,3.2-3.527,3.2a14.527,14.527,0,0,1,3.78-1.173s4.086-1.52,3.3-2.753" transform="translate(-6833.506 -1124.83)" fill="#3f3f3f"/>
          <path id="Trazado_5389" data-name="Trazado 5389" d="M6847.431,1131.559a3.391,3.391,0,0,1-2.5,1.5S6846.753,1133.795,6847.431,1131.559Z" transform="translate(-6835.778 -1125.212)" fill="#020202"/>
          <path id="Trazado_5390" data-name="Trazado 5390" d="M6845.759,1131.689a3.392,3.392,0,0,1-2.5,1.5S6845.081,1133.925,6845.759,1131.689Z" transform="translate(-6835.374 -1125.243)" fill="#020202"/>
          <path id="Trazado_5391" data-name="Trazado 5391" d="M6844.177,1131.769a3.4,3.4,0,0,1-2.5,1.5S6843.5,1134,6844.177,1131.769Z" transform="translate(-6834.992 -1125.262)" fill="#020202"/>
        </g>
        <path id="Trazado_5392" data-name="Trazado 5392" d="M6868.255,1154.7l-14.529-25.054-6.637,2.967,9.345,22.921s2.112,5.8,5.995,5.784c2.323-.008,5.827-6.618,5.827-6.618" transform="translate(-6825.173 -1008.484)" fill="#132030"/>
        <path id="Trazado_5393" data-name="Trazado 5393" d="M6868,1146.794l4.615-27.591c.666-2.821.418-17.592,5.88-16.575,1.005.187,1.558,1.956,2.442,2.164,4.2.993,6.114,6.715,1.707,25.422L6874.667,1149Z" transform="translate(-6830.219 -1001.951)" fill="#132030"/>
        <path id="Trazado_5394" data-name="Trazado 5394" d="M6880,1111.375s-.589,11.63-6.123,10.624a57.4,57.4,0,0,1,1.731-12.735Z" transform="translate(-6831.639 -1003.565)" fill="#1e3144"/>
        <path id="Trazado_5395" data-name="Trazado 5395" d="M6875.934,1117.827l-2.463.817a13.154,13.154,0,0,1-.847-11.591l6.836,2.833Z" transform="translate(-6831.096 -1003.031)" fill="#1e3144"/>
        <g id="Grupo_2598" data-name="Grupo 2598" transform="translate(24.134 46.093)">
          <ellipse id="Elipse_483" data-name="Elipse 483" cx="1.937" cy="1.936" rx="1.937" ry="1.936" fill="#f4be9a"/>
          <ellipse id="Elipse_484" data-name="Elipse 484" cx="1.136" cy="1.136" rx="1.136" ry="1.136" transform="translate(0.8 0.801)" fill="#eaa271"/>
        </g>
        <g id="Grupo_2599" data-name="Grupo 2599" transform="translate(43.472 36.655)">
          <ellipse id="Elipse_485" data-name="Elipse 485" cx="1.937" cy="1.936" rx="1.937" ry="1.936" fill="#f4be9a"/>
          <ellipse id="Elipse_486" data-name="Elipse 486" cx="1.136" cy="1.136" rx="1.136" ry="1.136" transform="translate(0.8 0.801)" fill="#eaa271"/>
        </g>
        <path id="Trazado_5396" data-name="Trazado 5396" d="M6865.807,1058.879c-.926-.438-8.451-.765-8.451-.765s.839-4.825,11.124-7.817,13.7-1,13.7-1l-6.238,7.465Z" transform="translate(-6827.651 -988.932)" fill="#f4be9a"/>
        <path id="Trazado_5397" data-name="Trazado 5397" d="M6873.163,1021.22l-7.776-13.566s-4.7-7.737-12.627-3.164c-8.894,5.128-5.518,12.681-5.518,12.681l.893,1.8,5.857,12.836s1.329,3.384,6.617,3.452c.727.009,1.341.043,1.877.089l.12.03a10.814,10.814,0,0,0,2.836.318,5.271,5.271,0,0,0,2.572-.526l0,0a6.28,6.28,0,0,0,3.352-3.246l1.593-2.561A7.907,7.907,0,0,0,6873.163,1021.22Z" transform="translate(-6825.058 -977.923)" fill="#f4be9a"/>
        <path id="Trazado_5398" data-name="Trazado 5398" d="M6869.746,1034.492l0,0a5.264,5.264,0,0,1-2.573.526,10.8,10.8,0,0,1-2.836-.318l-.119-.03c-.536-.046-1.15-.08-1.877-.09-5.288-.068-6.616-3.452-6.616-3.452l-5.858-12.835-.892-1.8a9.547,9.547,0,0,1,2.886-10.806c-7.752,5.1-4.614,12.122-4.614,12.122l.893,1.8,5.857,12.836s1.329,3.383,6.617,3.452c.727.009,1.341.043,1.877.089l.12.03a10.789,10.789,0,0,0,2.836.318,5.272,5.272,0,0,0,2.572-.526l0,0a6.3,6.3,0,0,0,2.23-1.553C6870.088,1034.339,6869.922,1034.419,6869.746,1034.492Z" transform="translate(-6825.058 -978.561)" fill="#f4b387"/>
        <g id="Grupo_2600" data-name="Grupo 2600" transform="translate(36.618 47.185)">
          <path id="Trazado_5399" data-name="Trazado 5399" d="M6866.631,1034.967s3.808-1.038,5.127-2.792c0,0,.292-.193.239.217,0,0,.323,6.63-5.375,2.825C6866.622,1035.217,6866.271,1035.084,6866.631,1034.967Z" transform="translate(-6866.468 -1032.13)" fill="#9c322e"/>
          <path id="Trazado_5400" data-name="Trazado 5400" d="M6871.868,1032.94a.921.921,0,0,0,.129-.548c.053-.41-.239-.217-.239-.217-1.319,1.754-5.127,2.792-5.127,2.792-.36.117-.009.25-.009.25q.246.164.476.3S6870.368,1035.178,6871.868,1032.94Z" transform="translate(-6866.468 -1032.13)" fill="#fff"/>
          <path id="Trazado_5401" data-name="Trazado 5401" d="M6869.627,1037.1a2.183,2.183,0,0,0,2.828-1.645s-.358,1.214-2.828,1.645" transform="translate(-6867.231 -1032.933)" fill="#fff"/>
        </g>
        <g id="Grupo_2601" data-name="Grupo 2601" transform="translate(38.594 36.817)">
          <path id="Trazado_5402" data-name="Trazado 5402" d="M6869.073,1021.084s1.254-1.708,2.594-1.423a1.315,1.315,0,0,0-.324-1.2A3.016,3.016,0,0,0,6869.073,1021.084Z" transform="translate(-6869.073 -1018.462)" fill="#020202"/>
          <path id="Trazado_5403" data-name="Trazado 5403" d="M6870.961,1021.143s.614-.561.968-.368" transform="translate(-6869.529 -1019.011)" fill="#020202"/>
        </g>
        <g id="Grupo_2602" data-name="Grupo 2602" transform="translate(29.151 41.861)">
          <path id="Trazado_5404" data-name="Trazado 5404" d="M6860.088,1025.608s-2.119-.062-2.718,1.17a1.314,1.314,0,0,1-.746-.994A3.016,3.016,0,0,1,6860.088,1025.608Z" transform="translate(-6856.625 -1025.112)" fill="#020202"/>
          <path id="Trazado_5405" data-name="Trazado 5405" d="M6859.238,1026.857s-.82.139-.887.537" transform="translate(-6857.042 -1025.533)" fill="#020202"/>
        </g>
        <path id="Trazado_5406" data-name="Trazado 5406" d="M6868.464,1027.68a2.924,2.924,0,0,0-2.031,1.331c-.035.038-.068.077-.1.115-.049,0-.1,0-.151.007a2.924,2.924,0,0,0-2.3.781c-1.045.983-3.267,4.614-2.42,5.056s3.7-1.144,4.612-1.965a4.039,4.039,0,0,0,3.477-1.7c1.208-.214,4.215-1.487,4.387-2.427S6869.881,1027.461,6868.464,1027.68Z" transform="translate(-6828.597 -983.858)" fill="#35312f"/>
        <path id="Trazado_5407" data-name="Trazado 5407" d="M6864.917,1030.259a12.215,12.215,0,0,0-.365,4.746c.3-.146.608-.308.9-.475a17.4,17.4,0,0,1,0-4.586A2.906,2.906,0,0,0,6864.917,1030.259Z" transform="translate(-6829.369 -984.417)" fill="#4c4a48"/>
        <path id="Trazado_5408" data-name="Trazado 5408" d="M6862.182,1033.719a15.592,15.592,0,0,0-.088,2.441,3.373,3.373,0,0,0,.925-.2,15.454,15.454,0,0,1,.071-3.712A15.685,15.685,0,0,0,6862.182,1033.719Z" transform="translate(-6828.791 -984.973)" fill="#4c4a48"/>
        <path id="Trazado_5409" data-name="Trazado 5409" d="M6866.457,1029.675a11.5,11.5,0,0,0,.57,4.047c.111-.085.211-.166.294-.24a2.251,2.251,0,0,0,.6.017,16.646,16.646,0,0,1-.958-3.9A3.094,3.094,0,0,0,6866.457,1029.675Z" transform="translate(-6829.841 -984.333)" fill="#4c4a48"/>
        <path id="Trazado_5410" data-name="Trazado 5410" d="M6869.456,1028.068a3,3,0,0,0-.436.272,17.456,17.456,0,0,1,3.75,2.672c.313-.118.641-.256.959-.406A11.988,11.988,0,0,0,6869.456,1028.068Z" transform="translate(-6830.466 -983.964)" fill="#4c4a48"/>
        <path id="Trazado_5411" data-name="Trazado 5411" d="M6871.737,1027.629a16.334,16.334,0,0,1,3.555,2.393,4.787,4.787,0,0,0,.792-.573,14.82,14.82,0,0,0-2.7-1.733A14.028,14.028,0,0,0,6871.737,1027.629Z" transform="translate(-6831.122 -983.858)" fill="#4c4a48"/>
        <path id="Trazado_5412" data-name="Trazado 5412" d="M6868.072,1029.315l-.009.011a15.686,15.686,0,0,1,2.356,3.146,2.965,2.965,0,0,0,.666-.687,11.833,11.833,0,0,0-2.686-2.9A2.431,2.431,0,0,0,6868.072,1029.315Z" transform="translate(-6830.235 -984.162)" fill="#4c4a48"/>
        <path id="Trazado_5413" data-name="Trazado 5413" d="M6869.785,1015.324c-.264-.391-.321-.071-.776.133l-.026-.026c-1.282-1.21-3.615-.271-4.07-.071a4.069,4.069,0,0,0-2.469,2.408,2.993,2.993,0,0,0-.127.943l-.268-.487-.042-.016c-.022-.013-.632-.445-1.811.13-1.116.545-1.181,1.306-1.185,1.332l.01.031.216.5a3,3,0,0,0-.812-.471,4.067,4.067,0,0,0-3.417.464c-.438.235-2.614,1.495-2.449,3.249a.3.3,0,0,0,.006.045c-.44.23-.727.08-.581.529.13.4.444.286.719.149a4.494,4.494,0,0,0,2.993,3.125,3.89,3.89,0,0,0,2.5-.357h0a4.463,4.463,0,0,0,1.8-1.578,4.382,4.382,0,0,0,.04-4.2,3.109,3.109,0,0,0-.275-.421l.01-.005-.476-1.049a2.019,2.019,0,0,1,1.083-.972,1.986,1.986,0,0,1,1.464-.272l.564,1.005.011-.006a3.05,3.05,0,0,0,.162.476,4.4,4.4,0,0,0,3.338,2.559,4.466,4.466,0,0,0,2.353-.439,3.893,3.893,0,0,0,1.817-1.759,4.493,4.493,0,0,0-.627-4.288C6869.736,1015.851,6870.023,1015.677,6869.785,1015.324Zm-10.02,9.885a4.189,4.189,0,0,1-1.681,1.484,3.627,3.627,0,0,1-2.328.329,3.486,3.486,0,0,1-2-1.408,4.616,4.616,0,0,1-.914-2.2,2.346,2.346,0,0,1,.732-1.784,6.191,6.191,0,0,1,1.572-1.2c.081-.044.163-.086.244-.125,2.917-1.424,4.183.56,4.407.972A4.109,4.109,0,0,1,6859.765,1025.209Zm10.2-7.507a3.478,3.478,0,0,1-.124,2.446,3.623,3.623,0,0,1-1.689,1.634,4.2,4.2,0,0,1-2.206.413,4.11,4.11,0,0,1-3.111-2.395c-.187-.43-.973-2.648,1.944-4.072.081-.039.164-.078.249-.115a6.185,6.185,0,0,1,1.912-.5,2.343,2.343,0,0,1,1.857.52A4.616,4.616,0,0,1,6869.962,1017.7Z" transform="translate(-6826.345 -980.767)" fill="#323232"/>
        <g id="Grupo_2603" data-name="Grupo 2603" transform="translate(34.288 39.487)">
          <path id="Trazado_5414" data-name="Trazado 5414" d="M6869.445,1022.728h0l-.018.009-.11.051-.039.027a3.235,3.235,0,0,1-4.441-.366c-1.327-1.176-1.455.223-1.439.355a4.222,4.222,0,0,0,4.066,3.757c3.645.175,4.53-1.513,4.541-2.2S6871.718,1021.7,6869.445,1022.728Z" transform="translate(-6863.396 -1021.981)" fill="#f98f69"/>
          <path id="Trazado_5415" data-name="Trazado 5415" d="M6871.974,1024.507c-.012.688-.9,2.377-4.541,2.2a4.017,4.017,0,0,1-3.773-2.655,4.051,4.051,0,0,0,3.867,2.915c3.645.175,4.53-1.514,4.541-2.2a2.8,2.8,0,0,0-.21-1.095A2.928,2.928,0,0,1,6871.974,1024.507Z" transform="translate(-6863.46 -1022.389)" fill="#d36f50"/>
        </g>
        <path id="Trazado_5416" data-name="Trazado 5416" d="M6870.834,1050.989h0l-8.516,1.253a8.634,8.634,0,0,0-6.623,5.011s12.178,23.134,11.928,25.108c-1.083,8.552,1.4,11.135,4.465,12.471,7,3.056,26.062,2.5,30.937-1.621,2.95-2.492-1.682-17.951-1.682-17.951l-14.48-22.927s-5.085-5.48-8.339-5.22C6875.967,1047.317,6870.834,1050.989,6870.834,1050.989Z" transform="translate(-6827.25 -988.559)" fill="#f9f9f9"/>
        <path id="Trazado_5417" data-name="Trazado 5417" d="M6899.967,1079.7l5.2-1.39,3.979,2.3s19.712,12.856,3.544,20.77l-13.146.1Z" transform="translate(-6837.834 -996.092)" fill="#f9f9f9"/>
        <path id="Trazado_5418" data-name="Trazado 5418" d="M6865.658,1015.483a9.7,9.7,0,0,1,3.9-2.246s.488-.158.111-.583-1.281-.835-3.462.505S6864.731,1016.156,6865.658,1015.483Z" transform="translate(-6829.44 -980.144)" fill="#35312f"/>
        <path id="Trazado_5419" data-name="Trazado 5419" d="M6865.658,1015.483a9.7,9.7,0,0,1,3.9-2.246s.488-.158.111-.583-1.281-.835-3.462.505S6864.731,1016.156,6865.658,1015.483Z" transform="translate(-6829.44 -980.144)" fill="#35312f"/>
        <path id="Trazado_5420" data-name="Trazado 5420" d="M6856.744,1019.821a9.682,9.682,0,0,0-4.06,1.945s-.407.313-.544-.238.037-1.529,2.375-2.568S6857.822,1019.437,6856.744,1019.821Z" transform="translate(-6826.383 -981.679)" fill="#35312f"/>
        <path id="Trazado_5421" data-name="Trazado 5421" d="M6847.591,1022.6l3.958,7.362.988-.374-1.517-4.01s-2.125-7.427-4.5-9.006C6846.517,1016.57,6845.228,1018.929,6847.591,1022.6Z" transform="translate(-6824.95 -981.188)" fill="#35312f"/>
        <path id="Trazado_5422" data-name="Trazado 5422" d="M6867.983,1004.333s-1.408.732,1.49,4.5a77.307,77.307,0,0,1,6.006,9.926l.784-.677-1.619-3.421S6870.759,1003.926,6867.983,1004.333Z" transform="translate(-6830.133 -978.231)" fill="#35312f"/>
        <path id="Trazado_5423" data-name="Trazado 5423" d="M6852.249,1006.573a.371.371,0,0,1-.348-.243c-.055-.147-1.312-3.625.648-4.8a1.625,1.625,0,0,0,.816-1.682,1.573,1.573,0,0,0-1.011-1.318.372.372,0,0,1,.185-.72,2.276,2.276,0,0,1,1.561,1.931,2.363,2.363,0,0,1-1.169,2.426c-1.415.847-.345,3.873-.334,3.9a.371.371,0,0,1-.219.477A.366.366,0,0,1,6852.249,1006.573Z" transform="translate(-6826.226 -976.657)" fill="#35312f"/>
        <path id="Trazado_5424" data-name="Trazado 5424" d="M6855.162,1006.044a.371.371,0,0,1-.361-.285c-.036-.153-.863-3.756,1.224-4.684a1.625,1.625,0,0,0,1.014-1.571,1.573,1.573,0,0,0-.844-1.431.371.371,0,1,1,.271-.692,2.274,2.274,0,0,1,1.316,2.105,2.36,2.36,0,0,1-1.454,2.267c-1.507.67-.81,3.8-.8,3.835a.372.372,0,0,1-.276.447A.381.381,0,0,1,6855.162,1006.044Z" transform="translate(-6826.988 -976.55)" fill="#35312f"/>
        <path id="Trazado_5425" data-name="Trazado 5425" d="M6877.3,1054.769s15.7,23.86,20.1,43.253c0,0,4.366-.478,5.173-.974,0,0-9.335-26.824-23.4-43.467l-1.868-1.307Z" transform="translate(-6832.466 -989.807)" fill="#e2e2e2"/>
        <path id="Trazado_5426" data-name="Trazado 5426" d="M6853.471,1056.986l-6.658-1.423s-21.2,3.452-26.585,7.719,6.658,5.387,16.622,4.338,20.072-.955,20.072-.955S6856.732,1059.1,6853.471,1056.986Z" transform="translate(-6818.367 -990.601)" fill="#132030"/>
        <path id="Trazado_5427" data-name="Trazado 5427" d="M6886.306,1123.693s-4.465,26.654-16.352,35.049c0,0-2.757,1.784-4.427.735-2.65-1.666,1.67-13.852,3.387-17.926C6870.281,1138.309,6876.861,1120.86,6886.306,1123.693Z" transform="translate(-6829.42 -1006.973)" fill="#132030"/>
        <path id="Trazado_5428" data-name="Trazado 5428" d="M6874.553,1128.385l-2.452-.779s-2.06,14.264-4.579,19.249l4.2.315Z" transform="translate(-6830.105 -1007.992)" fill="#132030"/>
        <path id="Trazado_5429" data-name="Trazado 5429" d="M6905.7,1123.792v2.117s8.745,13.578,10.223,18.4l2.492-9.3Z" transform="translate(-6839.321 -1007.072)" fill="#132030"/>
        <path id="Trazado_5430" data-name="Trazado 5430" d="M6892.473,1050.1s12.222,13.753,20.216,17.951a39.97,39.97,0,0,0,16.668,4.175s.91,7.928-1.889,10.237c0,0-14.2-4.128-29.628-24.136Z" transform="translate(-6836.127 -989.282)" fill="#132030"/>
        <path id="Trazado_5431" data-name="Trazado 5431" d="M6897.642,1056.589l-14.182-11.692.792-2.2s2.2,1.642,3.725,2.99a100.175,100.175,0,0,1,9.191,9.792Z" transform="translate(-6833.952 -987.495)" fill="#132030"/>
        <path id="Trazado_5432" data-name="Trazado 5432" d="M6886.954,1047.095l-3.495-1.5s10.79,9.293,15.747,15.994l.647-1.695-10.171-11.986Z" transform="translate(-6833.952 -988.196)" fill="#231f20"/>
        <path id="Trazado_5433" data-name="Trazado 5433" d="M6883.459,1045.534s4.054,1.107,6.083-.2l1.008,5.424h4.379l2.712,8.549Z" transform="translate(-6833.952 -988.132)" fill="#264059"/>
        <path id="Trazado_5434" data-name="Trazado 5434" d="M6875.65,1052.816l1.968.718s2.362,7.083,13.38,6.873,22.143-5.666,25.659-9.182l.868-5.036h-6.588s-8.185,8.395-17.158,10.231c0,0-9.392,2.1-13.4-2.164l-1.232-1.251.782-2.042-3.021-1.068Z" transform="translate(-6832.066 -988.338)" fill="#d81d5b"/>
        <path id="Trazado_5435" data-name="Trazado 5435" d="M6866.365,1049.9a13.716,13.716,0,0,0,7.831.892v6.735s-6.76-1.523-9.768-4.6Z" transform="translate(-6829.358 -989.234)" fill="#f9f8f7"/>
        <path id="Trazado_5436" data-name="Trazado 5436" d="M6880.417,1045.332a6.6,6.6,0,0,1-3.113,4.356l5.593,3.405a9.3,9.3,0,0,0,1.138-7.067Z" transform="translate(-6832.466 -988.132)" fill="#f9f8f7"/>
        <path id="Trazado_5437" data-name="Trazado 5437" d="M6861.071,1051.833a22.928,22.928,0,0,1,3.761,18.469c-2.376,11.575-5.312,24.981-9.035,37.149,0,0-13.7-.979-15.872-12.732,0,0,1.7-2.882,10.725-11.394,9.41-8.88,4.248-17.219,3.128-19.178l-1.889-9.818,5.853-1.188a13.74,13.74,0,0,1-2.6-2.693Z" transform="translate(-6823.443 -989.366)" fill="#132030"/>
        <path id="Trazado_5438" data-name="Trazado 5438" d="M6869.243,1075.379s0-7.433-3.374-9.812l2.9-2.767a15.417,15.417,0,0,0-6.582-6.188l4.254-4.338S6874.342,1061.558,6869.243,1075.379Z" transform="translate(-6828.817 -989.807)" fill="#264059"/>
        <path id="Trazado_5439" data-name="Trazado 5439" d="M6849.933,1077.958l5.457.595-.881,3.475-5.283-.407Z" transform="translate(-6825.688 -996.007)" fill="#f4be9a"/>
        <path id="Trazado_5440" data-name="Trazado 5440" d="M6825.377,1067.575l.77,1.539s10.211,2.5,17.557,4.389l-1.154,7.45s-15.353-1.968-19.2-3.756-6.851-6.934-4.056-10.516Z" transform="translate(-6818.199 -993.285)" fill="#132030"/>
        <path id="Trazado_5441" data-name="Trazado 5441" d="M6854.414,1077.933l-.281-.322a.494.494,0,0,1,.049-.695l2.326-2.348a.5.5,0,0,1,.7.048l.6.693a.493.493,0,0,1-.048.695l-2.649,1.976A.494.494,0,0,1,6854.414,1077.933Z" transform="translate(-6826.844 -995.16)" fill="#e8955d"/>
        <g id="Grupo_2604" data-name="Grupo 2604" transform="translate(25.504 81.473)">
          <path id="Trazado_5442" data-name="Trazado 5442" d="M6858.135,1084.309c.062.013.918.227.98.227.6.011.822-.485.877-1.06l1.353-4.606a1.064,1.064,0,0,0,.027-.562,1.1,1.1,0,0,0-.962-.823l-6.938-.158a1.2,1.2,0,0,0-.656.187,1.479,1.479,0,0,0-.716,1.355l-.227,2.357c-.239,1.321.334,1.678.94,1.736Z" transform="translate(-6851.818 -1077.328)" fill="#f4be9a"/>
        </g>
        <path id="Trazado_5443" data-name="Trazado 5443" d="M6835.884,1070.989l-7.775.11,24.183-2.646-.865.928Z" transform="translate(-6820.591 -993.713)" fill="#0d1a26"/>
      </g>
      <path id="Trazado_5444" data-name="Trazado 5444" d="M6816.058,1025.494s-49.752-15.809-45.765-19.874S6816.058,1025.494,6816.058,1025.494Z" transform="translate(-6755.159 -976.077)" fill="#f09521"/>
      <path id="Trazado_5445" data-name="Trazado 5445" d="M6816.056,1038.571s-43.674,28.6-44.308,22.94S6816.056,1038.571,6816.056,1038.571Z" transform="translate(-6755.564 -984.144)" fill="#f09521"/>
      <path id="Trazado_5446" data-name="Trazado 5446" d="M6815.743,1034.757s-28.283,1.675-29.716,4.185S6801.646,1039.4,6815.743,1034.757Z" transform="translate(-6758.992 -983.223)" fill="#f09521"/>
      <path id="Trazado_5447" data-name="Trazado 5447" d="M6914.145,1018.25s44.212,2.808,41.763,6.972S6914.145,1018.25,6914.145,1018.25Z" transform="translate(-6789.937 -979.238)" fill="#f09521"/>
      <path id="Trazado_5448" data-name="Trazado 5448" d="M6913.231,1003.659s30.093-32.51,31.777-27.982S6913.231,1003.659,6913.231,1003.659Z" transform="translate(-6789.717 -968.857)" fill="#f09521"/>
      <path id="Trazado_5449" data-name="Trazado 5449" d="M6918.074,1011.609s22.946-7.183,23.61-9.544S6928.73,1004.9,6918.074,1011.609Z" transform="translate(-6790.886 -975.192)" fill="#f09521"/>
    </g>
  </g>
</svg>
