<svg xmlns="http://www.w3.org/2000/svg" width="264" height="98" viewBox="0 0 264 98">
  <g id="Grupo_34400" data-name="Grupo 34400" transform="translate(-41 -209)">
    <g id="Grupo_4085" data-name="Grupo 4085" transform="translate(22.659 -27.889)">
      <path id="Trazado_42070" data-name="Trazado 42070" d="M23.873,166.948s.249,12.02,19.946,12.02c13.214,0,14.648-3.3,22.5-16.753s12.772-3.861,20.19-10.4,5.173-21.871-4.666-24.923c-18.04-5.594-16.458-8.959-28.114-17.3s-37.854-2.53-32.642,18.237S0,138.049,0,144.651C0,154.931,20.32,150.071,23.873,166.948Z" transform="translate(105.341 139.968)" fill="#d4f2f6"/>
      <g id="Grupo_4084" data-name="Grupo 4084" transform="translate(121.832 245.995)">
        <g id="Grupo_4003" data-name="Grupo 4003" transform="translate(18.045 38.561)">
          <g id="Grupo_4002" data-name="Grupo 4002">
            <path id="Trazado_9104" data-name="Trazado 9104" d="M1389.16,554.743s-11.814,3.356-12.508,8.449,2.939,19.093,2.939,19.093-.373,2.244-2.181,1.266c0,0-5.629-19.687-3.245-23.778s10.38-9.1,14.019-10.65" transform="translate(-1373.186 -549.123)" fill="#f2bc98"/>
            <path id="Trazado_9105" data-name="Trazado 9105" d="M1384.3,554.542s-13.978,7.011-13.3,12.775a3.634,3.634,0,0,0,4.3.944l12.863-8.988S1387.241,555.1,1384.3,554.542Z" transform="translate(-1370.899 -553.889)" fill="#304960"/>
            <path id="Trazado_9106" data-name="Trazado 9106" d="M1447.534,555.414c-3.626,1.583-11.084,6.631-12.319,11.2C1434.169,570.487,1438,587.9,1438,587.9c1.816.963,2.533-.037,2.533-.037s-2.82-13.673-2.169-18.772,10.615-8.517,10.615-8.517,2.388-.433,2.046-4.439C1450.762,553.036,1447.534,555.414,1447.534,555.414Z" transform="translate(-1427.238 -553.889)" fill="#f2bc98"/>
            <path id="Trazado_9107" data-name="Trazado 9107" d="M1443.59,582.495l.628,2.663-10.615,8.517s-4.041.717-3.976-.744-.87-3.132,6.5-10.293Z" transform="translate(-1422.475 -578.474)" fill="#364f6b"/>
            <g id="Grupo_4000" data-name="Grupo 4000" transform="translate(1.256 33.253)">
              <path id="Trazado_9108" data-name="Trazado 9108" d="M1394.977,830.811s2.145,2.609,3.438-5.687C1398.415,825.124,1396.542,831.588,1394.977,830.811Z" transform="translate(-1393.264 -825.124)" fill="#f7b3a6"/>
              <path id="Trazado_9109" data-name="Trazado 9109" d="M1387.345,831.4l.232-.028-.579-2.828a2.2,2.2,0,0,1,0-1.007s.106-1.861-1.093-2.411c0,0-1.135,7.748-3.438,5.687a4.374,4.374,0,0,0-1.557,1.168s-.462.362.2.5l2.341-.112s1.408.2,1.738-1.579c0,0,1.193-3.954,1.6-1.987Z" transform="translate(-1380.758 -825.124)" fill="#04adc5"/>
              <path id="Trazado_9110" data-name="Trazado 9110" d="M1435.252,875.022l-.249.1.051.164.232-.028Z" transform="translate(-1428.468 -869.01)" fill="#155f69"/>
              <path id="Trazado_9111" data-name="Trazado 9111" d="M1384.758,880.942a1.416,1.416,0,0,1-1.276.52l-2.341.113c-.249-.053-.341-.137-.357-.221a.73.73,0,0,0,.5.08l2.256-.138a1.757,1.757,0,0,0,1.217-.354" transform="translate(-1380.78 -874.217)" fill="#155f69"/>
            </g>
            <path id="Trazado_9112" data-name="Trazado 9112" d="M1398.415,815.427s-1.147,7.879-3.438,5.687a16.755,16.755,0,0,0,1.353-5.5l-.2-1.513S1398.3,814.56,1398.415,815.427Z" transform="translate(-1392.008 -782.174)" fill="#f2bc98"/>
            <g id="Grupo_4001" data-name="Grupo 4001" transform="translate(8.075 33.636)">
              <path id="Trazado_9113" data-name="Trazado 9113" d="M1451.574,833.989s2.146,2.609,3.438-5.687C1455.012,828.3,1453.139,834.766,1451.574,833.989Z" transform="translate(-1449.861 -828.302)" fill="#f7b3a6"/>
              <path id="Trazado_9114" data-name="Trazado 9114" d="M1443.942,834.575l.232-.028-.579-2.827a2.2,2.2,0,0,1,0-1.007s.106-1.86-1.093-2.41c0,0-1.135,7.748-3.438,5.687a4.38,4.38,0,0,0-1.557,1.168s-.461.362.2.5l2.341-.113s1.408.2,1.738-1.579c0,0,1.193-3.954,1.6-1.987Z" transform="translate(-1437.355 -828.302)" fill="#04adc5"/>
              <path id="Trazado_9115" data-name="Trazado 9115" d="M1491.849,878.2l-.249.1.051.164.232-.028Z" transform="translate(-1485.065 -872.187)" fill="#155f69"/>
              <path id="Trazado_9116" data-name="Trazado 9116" d="M1441.355,884.119a1.417,1.417,0,0,1-1.277.52l-2.341.113c-.25-.053-.341-.136-.357-.221a.73.73,0,0,0,.5.08l2.256-.138a1.757,1.757,0,0,0,1.217-.354" transform="translate(-1437.377 -877.394)" fill="#155f69"/>
            </g>
            <path id="Trazado_9117" data-name="Trazado 9117" d="M1455.012,818.6s-1.147,7.879-3.438,5.687a22.349,22.349,0,0,0,.975-5.314l-.349-1.7S1454.9,817.737,1455.012,818.6Z" transform="translate(-1441.785 -784.968)" fill="#f2bc98"/>
            <path id="Trazado_9118" data-name="Trazado 9118" d="M1433.349,660.587s.229,1.642.566,3.876c.137.9.016,1.99.066,3.246a43.739,43.739,0,0,0,.736,7.24l-2.574.236s-3.27-14.988-2.759-16.612" transform="translate(-1422.222 -645.386)" fill="#364f6b"/>
            <path id="Trazado_9119" data-name="Trazado 9119" d="M1370.46,652c-.861,2.238,2.84,17.169,2.84,17.169l2.366-1.1a34.415,34.415,0,0,1-.815-7.1c-.05-1.256.07-2.343-.066-3.246-.337-2.233-.544-3.417-.544-3.417l-.484-2.232Z" transform="translate(-1370.33 -639.602)" fill="#304960"/>
            <path id="Trazado_9120" data-name="Trazado 9120" d="M1390.282,785.1l3.519-.663.055,1.288-3.241.611Z" transform="translate(-1387.878 -756.087)" fill="#1b2b3f"/>
            <path id="Trazado_9121" data-name="Trazado 9121" d="M1450.819,790.5l3.574-.219-.105,1.285-3.292.2Z" transform="translate(-1441.122 -761.227)" fill="#1b2b3f"/>
          </g>
        </g>
        <path id="Trazado_9122" data-name="Trazado 9122" d="M1519.66,570.176a16.728,16.728,0,0,0,1.394,3.064l-.433.189a11.417,11.417,0,0,1-1.423-3.073Z" transform="translate(-1483.217 -528.759)" fill="#1b2b3f"/>
        <path id="Trazado_9123" data-name="Trazado 9123" d="M1562.94,545.538,1568,577.032l1.764,2.7-4.539-31.978Z" transform="translate(-1521.689 -507.409)" fill="#208c9c"/>
        <path id="Trazado_9124" data-name="Trazado 9124" d="M1486.734,465.492c-.48-1.184-2.847-4.98-4.416-4.917s-3.169,4.917-3.169,4.917c1.329-2.891-3.989,12.206,3.462,12.316h.661C1492.394,477.8,1486.734,465.492,1486.734,465.492Z" transform="translate(-1447.456 -432.3)" fill="#364f6b"/>
        <path id="Trazado_9125" data-name="Trazado 9125" d="M1493.657,504s6.033,9.7.1,12.12l-7.813-1.86,1.72-9.216Z" transform="translate(-1453.967 -470.525)" fill="#364f6b"/>
        <g id="Grupo_4034" data-name="Grupo 4034" transform="translate(17.148 0)">
          <g id="Grupo_4033" data-name="Grupo 4033">
            <path id="Trazado_9126" data-name="Trazado 9126" d="M1530.5,366.417s3.355,2.294,2.316,3.723-3.1,2.9-4.339,2.188-.769-6.285.934-6.476S1530.5,366.417,1530.5,366.417Z" transform="translate(-1507.911 -348.649)" fill="#4c1a0a"/>
            <path id="Trazado_9127" data-name="Trazado 9127" d="M1432.5,226.932l.919-2.906s-1.178-1.379-4.214-.353-5.694,3.224-5.375,5,.709,2.978-.886,3.58-.851,2.268-.213,3.3a2.148,2.148,0,0,1-.742,3.318c-1.632,1.112.428,2.849.213,3.381s-.818,1.169-1.243.779-.142-1.1.5-.78c0,0-1.063-.578-1.17.313s.673,1.494,1.843.963,1.311-1.216,1.949-.963-1.486,2.261-.071,3.408,4.565-2.752,7.493-1.181,4,0,4,0l.451-15.442" transform="translate(-1413.357 -223.293)" fill="#4c1a0a"/>
            <path id="Trazado_9128" data-name="Trazado 9128" d="M1477.568,329.26s1.5,2.906.185,3.969-1.135,1.808-.567,2.552a2.124,2.124,0,0,1,.6-1.849C1478.6,333.194,1479.828,332.379,1477.568,329.26Z" transform="translate(-1463.037 -316.493)" fill="#6b2411"/>
            <path id="Trazado_9129" data-name="Trazado 9129" d="M1497.718,230.369s2.862-2.277,4.426-1.757,3.715,3.024,3.584,4.348a3.8,3.8,0,0,0,1.083,3.224c.818.792.259,2.368.279,3.329s1.532,1.8,1.484,2.469-.851,1.136-.473,1.728.688.484.541,1.962c0,0-.1-1.051-.777-1.207a2.459,2.459,0,0,1-.094,2.7,2.752,2.752,0,0,0-.047-1.864,1.55,1.55,0,0,1-.526,1.362c-.655.52.054,1.843.763,1.89,0,0-3.167,1.224-4.608-1.538S1497.718,230.369,1497.718,230.369Z" transform="translate(-1481.473 -227.904)" fill="#4c1a0a"/>
            <path id="Trazado_9130" data-name="Trazado 9130" d="M1378.765,384.993q-.095,0-.19-.005a2.989,2.989,0,0,1-2.19-1.154c-1.032-1.273-1.846-3.623-1.79-6.983a37.5,37.5,0,0,1,.361-4.534l1.686.257c-.331,2.169-.521,8.228,1.067,10.186a1.277,1.277,0,0,0,.963.525c1.373.078,2.846-1.61,4.716-4.754,1.533-2.579,1.094-1.987,1.1-2.014l2.112-1.208a11.785,11.785,0,0,1-1.739,4.076C1382.654,383.108,1380.816,384.993,1378.765,384.993Z" transform="translate(-1373.182 -354.362)" fill="#f2bc98"/>
            <path id="Trazado_9131" data-name="Trazado 9131" d="M1558.931,415.442c-.215-3.5-3.281-9.212-3.678-9.937l-1.425.779c.01.019,1.062,1.948,2.008,4.2a17.663,17.663,0,0,1,1.468,4.849s.235.679.756.7S1558.931,415.442,1558.931,415.442Z" transform="translate(-1530.823 -383.552)" fill="#f2bc98"/>
            <path id="Trazado_9132" data-name="Trazado 9132" d="M1500.849,361.77h-2.694a5.349,5.349,0,0,0-.1-3.274l2.974.1A5.766,5.766,0,0,0,1500.849,361.77Z" transform="translate(-1481.772 -342.206)" fill="#f2bc98"/>
            <path id="Trazado_9133" data-name="Trazado 9133" d="M1500.771,359.661a8.074,8.074,0,0,1,.261-1.066l-2.974-.1a5.041,5.041,0,0,1,.3,1.727A2.844,2.844,0,0,0,1500.771,359.661Z" transform="translate(-1481.772 -342.206)" fill="#dbac8c"/>
            <path id="Trazado_9134" data-name="Trazado 9134" d="M1471.056,382.728c2.014,2.221,5.727,7.268,1.234,9.258-.922,2.888,1.183,6.152,1.183,6.152a14.06,14.06,0,0,1-4.492,1.138c-.149-.005-.61-.005-.759,0a8.342,8.342,0,0,1-3.832-1.312,8.747,8.747,0,0,0,.437-5.98c-4.731-2.1-1.142-6.95.668-9.34a2.284,2.284,0,0,1,1.642-1.058c.971.005,2.416-.175,3,.207A3.2,3.2,0,0,1,1471.056,382.728Z" transform="translate(-1450.482 -362.481)" fill="#f2bc98"/>
            <path id="Trazado_9135" data-name="Trazado 9135" d="M1471.056,382.485a3.206,3.206,0,0,0-.914-.94,1.393,1.393,0,0,0-.5-.165c-.026.775.183,3.043-1.47,3.043s-1.455-2.229-1.451-3.023a2.6,2.6,0,0,0-1.224,1c-1.81,2.4-5.4,7.284-.668,9.394a8.842,8.842,0,0,1-.437,6.014,8.311,8.311,0,0,0,3.832,1.319c.149-.005.61-.005.759,0a13.993,13.993,0,0,0,4.492-1.145s-2.105-3.283-1.183-6.188C1476.783,389.795,1473.071,384.719,1471.056,382.485Z" transform="translate(-1450.482 -362.333)" fill="#2975fa"/>
            <path id="Trazado_9136" data-name="Trazado 9136" d="M1458,467.82l.191,3.735-.335.788s-1.745,3.714-3.138,4.494c0,0,.182,1.326,2.259.929s1.788-.355,2.8.4,2.446-.807,3.451-.4,2.643.718,3.6-.046c1.112-.887,1.862-.493,2.882-1.309,0,0-3.8-2.09-4.075-6.131Z" transform="translate(-1443.65 -438.359)" fill="#2975fa"/>
            <g id="Grupo_4004" data-name="Grupo 4004" transform="translate(12.091 9.43)">
              <ellipse id="Elipse_487" data-name="Elipse 487" cx="0.92" cy="0.92" rx="0.92" ry="0.92" fill="#f2bc98"/>
              <ellipse id="Elipse_488" data-name="Elipse 488" cx="0.54" cy="0.54" rx="0.54" ry="0.54" transform="translate(0.38 0.38)" fill="#e6b08c"/>
            </g>
            <g id="Grupo_4005" data-name="Grupo 4005" transform="translate(21.257 9.323)">
              <ellipse id="Elipse_489" data-name="Elipse 489" cx="0.92" cy="0.92" rx="0.92" ry="0.92" fill="#f2bc98"/>
              <ellipse id="Elipse_490" data-name="Elipse 490" cx="0.54" cy="0.54" rx="0.54" ry="0.54" transform="translate(0.38 0.38)" fill="#e6b08c"/>
            </g>
            <path id="Trazado_9137" data-name="Trazado 9137" d="M1479.837,241.76a24.758,24.758,0,0,1-.029-3.159c.01-.119.015-.238.015-.359a4.462,4.462,0,1,0-8.923,0,4.566,4.566,0,0,0,.06.737,27.716,27.716,0,0,1,.013,2.9c-.1,1-.636,5.443,2.572,6.85a4.343,4.343,0,0,1,.731.643,1.266,1.266,0,0,0,.759.32,2,2,0,0,0,1.814-.305,4.343,4.343,0,0,1,.7-.673C1480.7,247.172,1479.976,242.751,1479.837,241.76Z" transform="translate(-1457.868 -232.482)" fill="#f2bc98"/>
            <g id="Grupo_4012" data-name="Grupo 4012" transform="translate(13.849 7.388)">
              <g id="Grupo_4007" data-name="Grupo 4007" transform="translate(2.712 6.583)">
                <g id="Grupo_4006" data-name="Grupo 4006" transform="translate(0 0.295)">
                  <path id="Trazado_9138" data-name="Trazado 9138" d="M1505.786,346.548a.694.694,0,0,1-.674-.04A.473.473,0,0,0,1505.786,346.548Z" transform="translate(-1504.537 -345.929)" fill="#f09d9e"/>
                  <path id="Trazado_9139" data-name="Trazado 9139" d="M1500.444,341.7s-.1.019-.066.1C1500.378,341.806,1500.27,341.7,1500.444,341.7Z" transform="translate(-1500.344 -341.704)" fill="#e49d73"/>
                </g>
                <path id="Trazado_9140" data-name="Trazado 9140" d="M1516.9,339.62s.192-.459-.172-.343C1516.726,339.277,1516.981,339.262,1516.9,339.62Z" transform="translate(-1514.752 -339.259)" fill="#3a3a3a"/>
                <path id="Trazado_9141" data-name="Trazado 9141" d="M1503.224,339.813s-1.064,1.119-2.082.263c0,0,.681.639,1.993-.312Z" transform="translate(-1501.046 -339.704)" fill="#3a3a3a"/>
              </g>
              <g id="Grupo_4009" data-name="Grupo 4009" transform="translate(0.148 1.18)">
                <g id="Grupo_4008" data-name="Grupo 4008">
                  <path id="Trazado_9142" data-name="Trazado 9142" d="M1484.021,296.84a.683.683,0,1,1-.682-.713A.7.7,0,0,1,1484.021,296.84Z" transform="translate(-1482.223 -295.92)" fill="#2f1b11"/>
                  <path id="Trazado_9143" data-name="Trazado 9143" d="M1480.844,295.188s-.072-.595-.62-.595-.714-.039-.783-.186c0,0,.01.284.224.308a.805.805,0,0,1-.606-.054.63.63,0,0,0,.626.329C1480.165,294.975,1480.586,294.936,1480.844,295.188Z" transform="translate(-1479.06 -294.408)" fill="#2f1b11"/>
                </g>
                <path id="Trazado_9144" data-name="Trazado 9144" d="M1484.518,299.79a.191.191,0,0,0,0,.258c.093.1-.059.257-.153.153a.4.4,0,0,1-.036-.52.112.112,0,0,1,.148-.039.109.109,0,0,1,.039.148Z" transform="translate(-1483.627 -298.999)" fill="#fff"/>
              </g>
              <g id="Grupo_4011" data-name="Grupo 4011" transform="translate(4.844 1.073)">
                <g id="Grupo_4010" data-name="Grupo 4010">
                  <path id="Trazado_9145" data-name="Trazado 9145" d="M1518.036,295.956a.683.683,0,1,0,.682-.713A.7.7,0,0,0,1518.036,295.956Z" transform="translate(-1518.036 -295.036)" fill="#2f1b11"/>
                  <path id="Trazado_9146" data-name="Trazado 9146" d="M1518.145,294.3s.072-.595.62-.595.714-.039.782-.186c0,0-.01.284-.225.308a.8.8,0,0,0,.606-.054.63.63,0,0,1-.626.329C1518.825,294.09,1518.4,294.051,1518.145,294.3Z" transform="translate(-1518.132 -293.523)" fill="#2f1b11"/>
                </g>
                <path id="Trazado_9147" data-name="Trazado 9147" d="M1520.762,298.905a.191.191,0,0,0,0,.258c.093.1-.06.257-.153.153a.4.4,0,0,1-.037-.52.112.112,0,0,1,.148-.039.109.109,0,0,1,.039.148Z" transform="translate(-1520.2 -298.114)" fill="#fff"/>
              </g>
              <path id="Trazado_9148" data-name="Trazado 9148" d="M1479.581,286.011a2.953,2.953,0,0,0-1.726.285,1.147,1.147,0,0,1,.941-.771C1479.555,285.414,1479.739,285.7,1479.581,286.011Z" transform="translate(-1477.853 -285.394)" fill="#421d0d"/>
              <path id="Trazado_9149" data-name="Trazado 9149" d="M1519.749,285.126a2.956,2.956,0,0,1,1.726.285,1.147,1.147,0,0,0-.942-.771C1519.775,284.529,1519.592,284.82,1519.749,285.126Z" transform="translate(-1514.653 -284.616)" fill="#421d0d"/>
              <path id="Trazado_9150" data-name="Trazado 9150" d="M1524.038,315a.88.88,0,1,0,.88-.88A.88.88,0,0,0,1524.038,315Z" transform="translate(-1518.471 -310.564)" fill="#f07c80" opacity="0.37"/>
              <path id="Trazado_9151" data-name="Trazado 9151" d="M1479.6,315.883a.88.88,0,1,1-.88-.88A.88.88,0,0,1,1479.6,315.883Z" transform="translate(-1477.835 -311.342)" fill="#f07c80" opacity="0.37"/>
            </g>
            <path id="Trazado_9152" data-name="Trazado 9152" d="M1454.673,381.548s-5.1,1.261-5.853,4.109c-.352,1.338,1.985,1.8,1.985,1.8s3.436-2.782,3.532-3.862A14.983,14.983,0,0,1,1454.673,381.548Z" transform="translate(-1438.435 -362.481)" fill="#2975fa"/>
            <path id="Trazado_9153" data-name="Trazado 9153" d="M1521.909,381.38s4.8.93,6.127,3.462c.677,1.3-1.928,2.277-1.928,2.277s-3.732-2.5-3.833-3.644A13.069,13.069,0,0,0,1521.909,381.38Z" transform="translate(-1502.749 -362.333)" fill="#2975fa"/>
            <g id="Grupo_4014" data-name="Grupo 4014" transform="translate(0 15.38)">
              <path id="Trazado_9154" data-name="Trazado 9154" d="M1387.433,358.874l.166.01a.192.192,0,0,0,.2-.179l.176-1.272a.192.192,0,0,0-.179-.2l-.356-.022a.192.192,0,0,0-.2.179l.015,1.284A.192.192,0,0,0,1387.433,358.874Z" transform="translate(-1384.305 -356.453)" fill="#e08d56"/>
              <g id="Grupo_4013" data-name="Grupo 4013">
                <path id="Trazado_9155" data-name="Trazado 9155" d="M1363.257,353.391c-.018-.016-.286-.23-.3-.249-.146-.183-.044-.368.121-.521l1.1-1.5a.414.414,0,0,1,.167-.141.427.427,0,0,1,.481.1l1.685,2.1a.464.464,0,0,1,.1.246.574.574,0,0,1-.249.54l-.674.626c-.351.385-.6.292-.757.119Z" transform="translate(-1362.886 -350.943)" fill="#f2bc98"/>
              </g>
            </g>
            <path id="Trazado_9156" data-name="Trazado 9156" d="M1466.351,236a2.26,2.26,0,0,1-1.347,2.268c-1.489.532-1.914.78-2.268,1.311a2.937,2.937,0,0,1-2.375,1.595s.252-5.706,3-6.415S1466.351,236,1466.351,236Z" transform="translate(-1448.617 -233.238)" fill="#4c1a0a"/>
            <path id="Trazado_9157" data-name="Trazado 9157" d="M1511.675,241.771s1.394,1.038,1.37,1.511-1.111,2.222.5,2.718a.98.98,0,0,1-.166-1.252,2.861,2.861,0,0,0,.543-1.016,3.186,3.186,0,0,0,1.985,3.072s.9-3.237-1.087-5.458S1511.061,240.448,1511.675,241.771Z" transform="translate(-1493.64 -238.123)" fill="#4c1a0a"/>
            <path id="Trazado_9158" data-name="Trazado 9158" d="M1493.289,233.88s.431,1.062-.4,1.222-2.277.55-2.014,1.259a.991.991,0,0,1-.177,1.1s.468-.509-.316-.992a.823.823,0,0,1,.316-1.507c.583-.087,1.691-.81,1.19-1.335s-2.73-1.6-1.633-2.054,4.889-.905,5.881.773-.315,1.962-.315,1.962Z" transform="translate(-1474.647 -230.206)" fill="#4c1a0a"/>
            <path id="Trazado_9159" data-name="Trazado 9159" d="M1520.586,231.979l-.889,2.266A3.647,3.647,0,0,0,1520.586,231.979Z" transform="translate(-1500.804 -230.933)" fill="#6b2411"/>
            <path id="Trazado_9160" data-name="Trazado 9160" d="M1449.9,234.4s-4.406.187-5.723,2.738.327,3.351-.92,4.67-1.46,1.864-.964,2.672,1.843,3.546.319,4.126-1.7,2.2-.567,2.668c0,0-.993-1.418.284-1.948s2.162-1.168,1.772-3.046-1.556-1.489-.725-3.083,1.268-1.224,1.044-4.643S1449.9,234.4,1449.9,234.4Z" transform="translate(-1431.863 -233.058)" fill="#6b2411"/>
            <path id="Trazado_9161" data-name="Trazado 9161" d="M1490.914,240.213s-2.628.185-2.627.851.755.922.384,1.206-.871.038-1,.817c0,0,.509-.288,1.789-.954s-.641-.763-.05-1.288A3.128,3.128,0,0,1,1490.914,240.213Z" transform="translate(-1472.633 -238.174)" fill="#6b2411"/>
            <path id="Trazado_9162" data-name="Trazado 9162" d="M1458.7,340.143s.854,2.641-.351,3.207-1.591,1.122-.9,1.978.419,2.415-.119,2.628c0,0,1.7-.212.723-2.835,0,0-.481-.664.44-1.13S1460.144,342.534,1458.7,340.143Z" transform="translate(-1445.755 -326.065)" fill="#6b2411"/>
            <path id="Trazado_9163" data-name="Trazado 9163" d="M1532.793,241.383s2.437.495,2.827,2.111.033,3.161,1.044,4.48-.065,2.469.881,3.719.519,3.66.519,3.66a19.212,19.212,0,0,0-1.4-3.97c-.868-1.63-.017-1.042-.69-3.41s-.39-3.007-.78-3.981A5.143,5.143,0,0,0,1532.793,241.383Z" transform="translate(-1512.322 -239.203)" fill="#6b2411"/>
            <path id="Trazado_9164" data-name="Trazado 9164" d="M1532.793,252.142s.131,3.615,1.834,4.388C1534.627,256.53,1532.793,253.438,1532.793,252.142Z" transform="translate(-1512.322 -248.666)" fill="#6b2411"/>
            <path id="Trazado_9165" data-name="Trazado 9165" d="M1538.055,266.866s1.719,4.237.926,5.938a5.686,5.686,0,0,0-.286,4.116c.282.943-2.686,2.358-1.106,6.08,0,0-.554-2.417.585-3.723,1.814-2.079,1.217-2.567.9-3.689s.549-1.934.537-3.741A11.015,11.015,0,0,0,1538.055,266.866Z" transform="translate(-1516.13 -261.616)" fill="#6b2411"/>
            <path id="Trazado_9166" data-name="Trazado 9166" d="M1552.335,334.973s1.5,2.906.185,3.97-1.135,1.807-.568,2.552a2.124,2.124,0,0,1,.6-1.849C1553.37,338.907,1554.6,338.092,1552.335,334.973Z" transform="translate(-1528.796 -321.518)" fill="#6b2411"/>
            <g id="Grupo_4015" data-name="Grupo 4015" transform="translate(12.237 10.783)">
              <ellipse id="Elipse_491" data-name="Elipse 491" cx="0.415" cy="0.415" rx="0.415" ry="0.415" fill="#04adc5"/>
              <path id="Trazado_9167" data-name="Trazado 9167" d="M1467.118,312.793a.408.408,0,0,0-.106.016.413.413,0,0,1,0,.8.408.408,0,0,0,.106.016.415.415,0,1,0,0-.83Z" transform="translate(-1466.703 -312.793)" fill="#29c5d1"/>
            </g>
            <g id="Grupo_4016" data-name="Grupo 4016" transform="translate(21.829 10.677)">
              <ellipse id="Elipse_492" data-name="Elipse 492" cx="0.415" cy="0.415" rx="0.415" ry="0.415" transform="translate(0 0)" fill="#04adc5"/>
              <path id="Trazado_9168" data-name="Trazado 9168" d="M1546.733,311.908a.411.411,0,0,0-.107.016.413.413,0,0,1,0,.8.408.408,0,0,0,.107.016.415.415,0,0,0,0-.83Z" transform="translate(-1546.318 -311.908)" fill="#29c5d1"/>
            </g>
            <path id="Trazado_9169" data-name="Trazado 9169" d="M1473.4,460.707a10.188,10.188,0,0,1-.632,7.193s7.808-.5,9.85-.59c0,0-1.13-1.463-.96-6.6Z" transform="translate(-1459.531 -432.103)" fill="#2975fa"/>
            <path id="Trazado_9170" data-name="Trazado 9170" d="M1491.708,468.079l.072.061a22.649,22.649,0,0,1-.429-4.506c-2.142.2-3.1-.71-4.181-.3a12.379,12.379,0,0,1-3.18.444s-.987,1.11,1.629,1.194a5.737,5.737,0,0,1,1.953.483c0,.006,4.687,5.463,3.479,8.7a2.533,2.533,0,0,0,1.755-.755c.822-.8.843.138,2.484-1.034A7.61,7.61,0,0,1,1491.708,468.079Z" transform="translate(-1469.238 -434.32)" fill="#2379e0" opacity="0.14"/>
            <path id="Trazado_9171" data-name="Trazado 9171" d="M1423.1,406.807l-.669.371s-2.734,5.015-3.943,5.706a2.99,2.99,0,0,0,1.8,1.512s3.5-3.361,4.311-6.085C1425.184,406.328,1423.1,406.807,1423.1,406.807Z" transform="translate(-1411.791 -384.652)" fill="#2975fa"/>
            <path id="Trazado_9172" data-name="Trazado 9172" d="M1553.583,410.117s2.371,5.413,2.584,7.235a3.46,3.46,0,0,1-2.032.473s-1.805-5.039-3.179-6.558A7.643,7.643,0,0,0,1553.583,410.117Z" transform="translate(-1528.296 -387.608)" fill="#2975fa"/>
            <path id="Trazado_9173" data-name="Trazado 9173" d="M1413.145,457.814s-.827.544-1.323.165c0,0,0,.614.473.685,0,0,0,.771.545.874,0,0,.069.5.754.5a.648.648,0,0,0,.9,0s-.284-.071-.071-.733S1413.145,457.814,1413.145,457.814Z" transform="translate(-1405.926 -429.558)" fill="#2975fa"/>
            <path id="Trazado_9174" data-name="Trazado 9174" d="M1417.758,456.134a3.318,3.318,0,0,0,1.959,1.408l-.355.519a3.11,3.11,0,0,1-1.949-1.607Z" transform="translate(-1410.844 -428.081)" fill="#1f58bb"/>
            <path id="Trazado_9175" data-name="Trazado 9175" d="M1573.233,468.465s-.053.988-.651,1.164c0,0,.495.364.832.026,0,0,.623.454,1.027.079,0,0,.44.239.847-.313a.648.648,0,0,0,.532-.723s-.225.186-.632-.377S1573.233,468.465,1573.233,468.465Z" transform="translate(-1547.316 -438.608)" fill="#2975fa"/>
            <path id="Trazado_9176" data-name="Trazado 9176" d="M1575.132,466.733a3.318,3.318,0,0,0,2.3-.743l.208.593a3.11,3.11,0,0,1-2.45.617Z" transform="translate(-1549.56 -436.749)" fill="#1f58bb"/>
            <g id="Grupo_4017" data-name="Grupo 4017" transform="translate(15.61 18.652)">
              <ellipse id="Elipse_493" data-name="Elipse 493" cx="0.415" cy="0.415" rx="0.415" ry="0.415" fill="#04adc5"/>
              <path id="Trazado_9177" data-name="Trazado 9177" d="M1495.111,378.1a.41.41,0,0,0-.107.016.413.413,0,0,1,0,.8.414.414,0,1,0,.107-.814Z" transform="translate(-1494.696 -378.104)" fill="#29c5d1"/>
            </g>
            <g id="Grupo_4018" data-name="Grupo 4018" transform="translate(15.503 19.334)">
              <ellipse id="Elipse_494" data-name="Elipse 494" cx="0.415" cy="0.415" rx="0.415" ry="0.415" fill="#04adc5"/>
              <path id="Trazado_9178" data-name="Trazado 9178" d="M1494.226,383.765a.411.411,0,0,0-.107.016.413.413,0,0,1,0,.8.414.414,0,1,0,.107-.814Z" transform="translate(-1493.81 -383.765)" fill="#29c5d1"/>
            </g>
            <g id="Grupo_4019" data-name="Grupo 4019" transform="translate(15.366 20.103)">
              <ellipse id="Elipse_495" data-name="Elipse 495" cx="0.415" cy="0.415" rx="0.415" ry="0.415" fill="#04adc5"/>
              <path id="Trazado_9179" data-name="Trazado 9179" d="M1493.089,390.148a.407.407,0,0,0-.106.016.413.413,0,0,1,0,.8.407.407,0,0,0,.106.016.415.415,0,1,0,0-.83Z" transform="translate(-1492.674 -390.148)" fill="#29c5d1"/>
            </g>
            <g id="Grupo_4020" data-name="Grupo 4020" transform="translate(15.47 20.873)">
              <ellipse id="Elipse_496" data-name="Elipse 496" cx="0.415" cy="0.415" rx="0.415" ry="0.415" transform="translate(0 0)" fill="#04adc5"/>
              <path id="Trazado_9180" data-name="Trazado 9180" d="M1493.953,396.538a.415.415,0,0,0-.107.016.413.413,0,0,1,0,.8.414.414,0,1,0,.107-.815Z" transform="translate(-1493.537 -396.538)" fill="#29c5d1"/>
            </g>
            <g id="Grupo_4021" data-name="Grupo 4021" transform="translate(15.657 21.626)">
              <ellipse id="Elipse_497" data-name="Elipse 497" cx="0.415" cy="0.415" rx="0.415" ry="0.415" fill="#04adc5"/>
              <path id="Trazado_9181" data-name="Trazado 9181" d="M1495.505,402.788a.411.411,0,0,0-.107.016.413.413,0,0,1,0,.8.414.414,0,1,0,.107-.814Z" transform="translate(-1495.09 -402.788)" fill="#29c5d1"/>
            </g>
            <g id="Grupo_4022" data-name="Grupo 4022" transform="translate(15.966 22.317)">
              <ellipse id="Elipse_498" data-name="Elipse 498" cx="0.415" cy="0.415" rx="0.415" ry="0.415" transform="translate(0 0)" fill="#04adc5"/>
              <path id="Trazado_9182" data-name="Trazado 9182" d="M1498.066,408.524a.416.416,0,0,0-.107.016.413.413,0,0,1,0,.8.41.41,0,0,0,.107.016.415.415,0,0,0,0-.83Z" transform="translate(-1497.65 -408.524)" fill="#29c5d1"/>
            </g>
            <g id="Grupo_4023" data-name="Grupo 4023" transform="translate(16.535 22.732)">
              <ellipse id="Elipse_499" data-name="Elipse 499" cx="0.415" cy="0.415" rx="0.415" ry="0.415" fill="#04adc5"/>
              <path id="Trazado_9183" data-name="Trazado 9183" d="M1502.791,411.969a.4.4,0,0,0-.107.016.413.413,0,0,1,0,.8.409.409,0,0,0,.107.015.415.415,0,0,0,0-.83Z" transform="translate(-1502.375 -411.969)" fill="#29c5d1"/>
            </g>
            <g id="Grupo_4024" data-name="Grupo 4024" transform="translate(17.207 22.935)">
              <ellipse id="Elipse_500" data-name="Elipse 500" cx="0.415" cy="0.415" rx="0.415" ry="0.415" fill="#04adc5"/>
              <path id="Trazado_9184" data-name="Trazado 9184" d="M1508.368,413.652a.41.41,0,0,0-.107.016.413.413,0,0,1,0,.8.41.41,0,0,0,.107.016.415.415,0,0,0,0-.83Z" transform="translate(-1507.953 -413.652)" fill="#29c5d1"/>
            </g>
            <g id="Grupo_4025" data-name="Grupo 4025" transform="translate(17.932 22.732)">
              <ellipse id="Elipse_501" data-name="Elipse 501" cx="0.415" cy="0.415" rx="0.415" ry="0.415" fill="#04adc5"/>
              <path id="Trazado_9185" data-name="Trazado 9185" d="M1514.388,411.969a.407.407,0,0,0-.107.016.413.413,0,0,1,0,.8.414.414,0,1,0,.107-.814Z" transform="translate(-1513.973 -411.969)" fill="#29c5d1"/>
            </g>
            <g id="Grupo_4026" data-name="Grupo 4026" transform="translate(18.537 22.413)">
              <ellipse id="Elipse_502" data-name="Elipse 502" cx="0.415" cy="0.415" rx="0.415" ry="0.415" transform="translate(0 0)" fill="#04adc5"/>
              <path id="Trazado_9186" data-name="Trazado 9186" d="M1519.406,409.321a.413.413,0,0,0-.107.016.413.413,0,0,1,0,.8.414.414,0,1,0,.107-.815Z" transform="translate(-1518.991 -409.321)" fill="#29c5d1"/>
            </g>
            <g id="Grupo_4027" data-name="Grupo 4027" transform="translate(18.952 21.875)">
              <ellipse id="Elipse_503" data-name="Elipse 503" cx="0.415" cy="0.415" rx="0.415" ry="0.415" fill="#04adc5"/>
              <path id="Trazado_9187" data-name="Trazado 9187" d="M1522.851,404.856a.409.409,0,0,0-.107.016.413.413,0,0,1,0,.8.414.414,0,1,0,.107-.814Z" transform="translate(-1522.436 -404.856)" fill="#29c5d1"/>
            </g>
            <g id="Grupo_4028" data-name="Grupo 4028" transform="translate(19.16 21.211)">
              <ellipse id="Elipse_504" data-name="Elipse 504" cx="0.415" cy="0.415" rx="0.415" ry="0.415" transform="translate(0 0)" fill="#04adc5"/>
              <path id="Trazado_9188" data-name="Trazado 9188" d="M1524.576,399.343a.413.413,0,0,0-.106.016.413.413,0,0,1,0,.8.409.409,0,0,0,.106.016.415.415,0,1,0,0-.83Z" transform="translate(-1524.161 -399.343)" fill="#29c5d1"/>
            </g>
            <g id="Grupo_4029" data-name="Grupo 4029" transform="translate(19.367 20.554)">
              <ellipse id="Elipse_505" data-name="Elipse 505" cx="0.415" cy="0.415" rx="0.415" ry="0.415" fill="#04adc5"/>
              <path id="Trazado_9189" data-name="Trazado 9189" d="M1526.295,393.887a.407.407,0,0,0-.107.016.413.413,0,0,1,0,.8.409.409,0,0,0,.107.016.415.415,0,1,0,0-.83Z" transform="translate(-1525.88 -393.887)" fill="#29c5d1"/>
            </g>
            <g id="Grupo_4030" data-name="Grupo 4030" transform="translate(19.345 19.795)">
              <ellipse id="Elipse_506" data-name="Elipse 506" cx="0.415" cy="0.415" rx="0.415" ry="0.415" transform="translate(0 0)" fill="#04adc5"/>
              <path id="Trazado_9190" data-name="Trazado 9190" d="M1526.115,387.587a.411.411,0,0,0-.107.016.413.413,0,0,1,0,.8.411.411,0,0,0,.107.016.415.415,0,0,0,0-.83Z" transform="translate(-1525.7 -387.587)" fill="#29c5d1"/>
            </g>
            <g id="Grupo_4031" data-name="Grupo 4031" transform="translate(19.239 19.067)">
              <ellipse id="Elipse_507" data-name="Elipse 507" cx="0.415" cy="0.415" rx="0.415" ry="0.415" transform="translate(0 0)" fill="#04adc5"/>
              <path id="Trazado_9191" data-name="Trazado 9191" d="M1525.231,381.548a.412.412,0,0,0-.107.016.413.413,0,0,1,0,.8.407.407,0,0,0,.107.016.415.415,0,1,0,0-.83Z" transform="translate(-1524.816 -381.548)" fill="#29c5d1"/>
            </g>
            <g id="Grupo_4032" data-name="Grupo 4032" transform="translate(19.132 18.459)">
              <ellipse id="Elipse_508" data-name="Elipse 508" cx="0.415" cy="0.415" rx="0.415" ry="0.415" transform="translate(0 0)" fill="#04adc5"/>
              <path id="Trazado_9192" data-name="Trazado 9192" d="M1524.346,376.5a.41.41,0,0,0-.107.016.413.413,0,0,1,0,.8.41.41,0,0,0,.107.015.415.415,0,0,0,0-.83Z" transform="translate(-1523.93 -376.498)" fill="#29c5d1"/>
            </g>
          </g>
        </g>
        <g id="Grupo_4068" data-name="Grupo 4068" transform="translate(0 28.252)">
          <path id="Trazado_9193" data-name="Trazado 9193" d="M1613.29,593.8l5.063,33.11,1.764,2.841-4.539-33.618Z" transform="translate(-1565.972 -578.113)" fill="#208c9c"/>
          <path id="Trazado_9194" data-name="Trazado 9194" d="M1295.838,554.381l-5.063,31.495-1.764,2.7,4.539-31.978Z" transform="translate(-1280.763 -543.439)" fill="#208c9c"/>
          <path id="Trazado_9195" data-name="Trazado 9195" d="M1276.468,554.729l-5.664,34.155H1273l6.26-34.155Z" transform="translate(-1264.751 -543.745)" fill="#04adc5"/>
          <path id="Trazado_9196" data-name="Trazado 9196" d="M1570.546,545.886l5.664,34.155h-2.194l-6.26-34.155Z" transform="translate(-1525.925 -535.967)" fill="#04adc5"/>
          <path id="Trazado_9197" data-name="Trazado 9197" d="M1245.593,590.2,1240.53,621.7l-1.764,2.7,4.539-31.978Z" transform="translate(-1236.572 -574.946)" fill="#208c9c"/>
          <path id="Trazado_9198" data-name="Trazado 9198" d="M1244.005,544.733l38.738-.216,5.116,4.426-51.22,1.045Z" transform="translate(-1234.701 -534.764)" fill="#81cbdb"/>
          <path id="Trazado_9199" data-name="Trazado 9199" d="M1236.639,582.3l1.614,2.792,48.117-1.4,1.489-2.441Z" transform="translate(-1234.701 -567.076)" fill="#04adc5"/>
          <path id="Trazado_9200" data-name="Trazado 9200" d="M1226.224,590.553l-5.664,34.155h2.193l6.26-34.155Z" transform="translate(-1220.559 -575.253)" fill="#04adc5"/>
          <path id="Trazado_9201" data-name="Trazado 9201" d="M1620.791,594.171l5.664,35.906h-2.194L1618,594.171Z" transform="translate(-1570.116 -578.435)" fill="#04adc5"/>
          <g id="Grupo_4067" data-name="Grupo 4067" transform="translate(6.21 0)">
            <g id="Grupo_4035" data-name="Grupo 4035" transform="translate(22.744 10.019)">
              <path id="Trazado_9202" data-name="Trazado 9202" d="M1462.266,547.943l2.125-1.226h-3.512Z" transform="translate(-1460.878 -546.717)" fill="#cbcac9"/>
            </g>
            <g id="Grupo_4036" data-name="Grupo 4036" transform="translate(8.406 11.245)">
              <rect id="Rectángulo_2070" data-name="Rectángulo 2070" width="15.726" height="0.658" fill="#727373"/>
            </g>
            <g id="Grupo_4037" data-name="Grupo 4037" transform="translate(24.133 10.019)">
              <path id="Trazado_9203" data-name="Trazado 9203" d="M1472.4,548.6l2.125-1.429v-.456l-2.125,1.226Z" transform="translate(-1472.4 -546.717)" fill="#909295"/>
            </g>
            <g id="Grupo_4046" data-name="Grupo 4046" transform="translate(0 8.664)">
              <g id="Grupo_4038" data-name="Grupo 4038" transform="translate(0.085 1.026)">
                <path id="Trazado_9204" data-name="Trazado 9204" d="M1272.81,544l.429,4.158c0,.212.567.384,1.264.384s1.264-.171,1.264-.384L1276.2,544Z" transform="translate(-1272.81 -543.996)" fill="#cbe8f2"/>
              </g>
              <g id="Grupo_4039" data-name="Grupo 4039" transform="translate(0.006 1.026)">
                <rect id="Rectángulo_2071" data-name="Rectángulo 2071" width="3.557" height="0.307" fill="#7cd9e6"/>
              </g>
              <g id="Grupo_4040" data-name="Grupo 4040" transform="translate(0 0.793)">
                <path id="Trazado_9205" data-name="Trazado 9205" d="M1275.658,542.6c0,.3-.8.54-1.778.54s-1.778-.242-1.778-.54a3.2,3.2,0,0,1,3.557,0" transform="translate(-1272.101 -542.061)" fill="#7cd9e6"/>
              </g>
              <g id="Grupo_4041" data-name="Grupo 4041" transform="translate(0 0.486)">
                <path id="Trazado_9206" data-name="Trazado 9206" d="M1275.658,540.05c0,.3-.8.54-1.778.54s-1.778-.242-1.778-.54a3.195,3.195,0,0,1,3.557,0" transform="translate(-1272.101 -539.509)" fill="#22cedb"/>
              </g>
              <g id="Grupo_4042" data-name="Grupo 4042" transform="translate(0.072 0.583)">
                <path id="Trazado_9207" data-name="Trazado 9207" d="M1272.7,540.759l.253-.443h2.919l.253.443Z" transform="translate(-1272.7 -540.316)" fill="#22cedb"/>
              </g>
              <g id="Grupo_4043" data-name="Grupo 4043" transform="translate(0.32 0.443)">
                <path id="Trazado_9208" data-name="Trazado 9208" d="M1276.215,539.6c-.806,0-1.458-.2-1.458-.443v.14c0,.245.653.443,1.458.443s1.457-.2,1.457-.443v-.14c0,.245-.652.443-1.457.443" transform="translate(-1274.757 -539.153)" fill="#7cd9e6"/>
              </g>
              <g id="Grupo_4044" data-name="Grupo 4044" transform="translate(0.32)">
                <path id="Trazado_9209" data-name="Trazado 9209" d="M1277.673,535.92c0,.245-.652.443-1.457.443s-1.458-.2-1.458-.443.653-.443,1.458-.443,1.457.2,1.457.443" transform="translate(-1274.757 -535.477)" fill="#22cedb"/>
              </g>
              <g id="Grupo_4045" data-name="Grupo 4045" transform="translate(0.235 2.474)">
                <path id="Trazado_9210" data-name="Trazado 9210" d="M1275.592,556.332a2.623,2.623,0,0,1-1.544-.323l.141,1.621a3.5,3.5,0,0,0,2.806,0l.141-1.621a2.624,2.624,0,0,1-1.544.323" transform="translate(-1274.048 -556.009)" fill="#e3f6f8"/>
              </g>
            </g>
            <g id="Grupo_4055" data-name="Grupo 4055" transform="translate(41.107 7.841)">
              <g id="Grupo_4047" data-name="Grupo 4047" transform="translate(0.085 1.026)">
                <path id="Trazado_9211" data-name="Trazado 9211" d="M1614,537.161l.428,4.158c0,.213.566.384,1.264.384s1.264-.171,1.264-.384l.427-4.158Z" transform="translate(-1613.996 -537.161)" fill="#cbe8f2"/>
              </g>
              <g id="Grupo_4048" data-name="Grupo 4048" transform="translate(0.006 1.026)">
                <rect id="Rectángulo_2072" data-name="Rectángulo 2072" width="3.556" height="0.307" fill="#7cd9e6"/>
              </g>
              <g id="Grupo_4049" data-name="Grupo 4049" transform="translate(0 0.793)">
                <path id="Trazado_9212" data-name="Trazado 9212" d="M1616.844,535.766c0,.3-.8.54-1.777.54s-1.778-.242-1.778-.54a3.193,3.193,0,0,1,3.555,0" transform="translate(-1613.289 -535.225)" fill="#7cd9e6"/>
              </g>
              <g id="Grupo_4050" data-name="Grupo 4050" transform="translate(0 0.486)">
                <path id="Trazado_9213" data-name="Trazado 9213" d="M1616.844,533.215c0,.3-.8.54-1.777.54s-1.778-.242-1.778-.54a3.193,3.193,0,0,1,3.555,0" transform="translate(-1613.289 -532.674)" fill="#22cedb"/>
              </g>
              <g id="Grupo_4051" data-name="Grupo 4051" transform="translate(0.071 0.583)">
                <path id="Trazado_9214" data-name="Trazado 9214" d="M1613.882,533.926l.254-.443h2.917l.254.443Z" transform="translate(-1613.882 -533.483)" fill="#22cedb"/>
              </g>
              <g id="Grupo_4052" data-name="Grupo 4052" transform="translate(0.32 0.443)">
                <path id="Trazado_9215" data-name="Trazado 9215" d="M1617.4,532.76c-.806,0-1.458-.2-1.458-.442v.14c0,.245.652.443,1.458.443s1.458-.2,1.458-.443v-.14c0,.245-.653.442-1.458.442" transform="translate(-1615.943 -532.318)" fill="#7cd9e6"/>
              </g>
              <g id="Grupo_4053" data-name="Grupo 4053" transform="translate(0.32)">
                <path id="Trazado_9216" data-name="Trazado 9216" d="M1618.859,529.085c0,.245-.653.442-1.458.442s-1.458-.2-1.458-.442.652-.443,1.458-.443,1.458.2,1.458.443" transform="translate(-1615.943 -528.642)" fill="#22cedb"/>
              </g>
              <g id="Grupo_4054" data-name="Grupo 4054" transform="translate(0.234 2.474)">
                <path id="Trazado_9217" data-name="Trazado 9217" d="M1616.776,549.5a2.622,2.622,0,0,1-1.544-.323l.14,1.621a3.5,3.5,0,0,0,2.806,0l.141-1.621a2.618,2.618,0,0,1-1.543.323" transform="translate(-1615.232 -549.172)" fill="#e3f6f8"/>
              </g>
            </g>
            <g id="Grupo_4064" data-name="Grupo 4064" transform="translate(36.679 6.907)">
              <g id="Grupo_4056" data-name="Grupo 4056" transform="translate(0.086 1.026)">
                <path id="Trazado_9218" data-name="Trazado 9218" d="M1577.243,529.4l.428,4.159c0,.212.567.383,1.265.383s1.264-.171,1.264-.383l.428-4.159Z" transform="translate(-1577.243 -529.404)" fill="#cbe8f2"/>
              </g>
              <g id="Grupo_4057" data-name="Grupo 4057" transform="translate(0.007 1.026)">
                <rect id="Rectángulo_2073" data-name="Rectángulo 2073" width="3.556" height="0.308" fill="#7cd9e6"/>
              </g>
              <g id="Grupo_4058" data-name="Grupo 4058" transform="translate(0 0.793)">
                <path id="Trazado_9219" data-name="Trazado 9219" d="M1580.089,528.01c0,.3-.8.539-1.778.539s-1.778-.241-1.778-.539a3.194,3.194,0,0,1,3.557,0" transform="translate(-1576.532 -527.469)" fill="#7cd9e6"/>
              </g>
              <g id="Grupo_4059" data-name="Grupo 4059" transform="translate(0 0.486)">
                <path id="Trazado_9220" data-name="Trazado 9220" d="M1580.089,525.46c0,.3-.8.54-1.778.54s-1.778-.241-1.778-.54a3.2,3.2,0,0,1,3.557,0" transform="translate(-1576.532 -524.92)" fill="#22cedb"/>
              </g>
              <g id="Grupo_4060" data-name="Grupo 4060" transform="translate(0.072 0.583)">
                <path id="Trazado_9221" data-name="Trazado 9221" d="M1577.129,526.171l.254-.443h2.917l.254.443Z" transform="translate(-1577.129 -525.728)" fill="#22cedb"/>
              </g>
              <g id="Grupo_4061" data-name="Grupo 4061" transform="translate(0.319 0.443)">
                <path id="Trazado_9222" data-name="Trazado 9222" d="M1580.642,525.007c-.806,0-1.459-.2-1.459-.442v.14c0,.245.653.443,1.459.443s1.458-.2,1.458-.443v-.14c0,.245-.652.442-1.458.442" transform="translate(-1579.183 -524.565)" fill="#7cd9e6"/>
              </g>
              <g id="Grupo_4062" data-name="Grupo 4062" transform="translate(0.319)">
                <path id="Trazado_9223" data-name="Trazado 9223" d="M1582.1,521.332c0,.245-.652.442-1.458.442s-1.459-.2-1.459-.442.653-.443,1.459-.443,1.458.2,1.458.443" transform="translate(-1579.183 -520.889)" fill="#22cedb"/>
              </g>
              <g id="Grupo_4063" data-name="Grupo 4063" transform="translate(0.234 2.473)">
                <path id="Trazado_9224" data-name="Trazado 9224" d="M1580.022,541.74a2.62,2.62,0,0,1-1.544-.323l.14,1.621a3.492,3.492,0,0,0,2.806,0l.14-1.621a2.615,2.615,0,0,1-1.542.323" transform="translate(-1578.478 -541.417)" fill="#e3f6f8"/>
              </g>
            </g>
            <path id="Trazado_9225" data-name="Trazado 9225" d="M1336.94,464.272l.594-.392,17.021-.317-.38.587Z" transform="translate(-1329.128 -463.563)" fill="#cbcac9"/>
            <path id="Trazado_9226" data-name="Trazado 9226" d="M1472.4,474.808l.582-.336.712-10.909-.38.587Z" transform="translate(-1448.267 -463.563)" fill="#727373"/>
            <g id="Grupo_4065" data-name="Grupo 4065" transform="translate(7.812 0.587)">
              <path id="Trazado_9227" data-name="Trazado 9227" d="M1336.94,468.557l.594,10.535h15.726l.914-10.658Z" transform="translate(-1336.94 -468.435)" fill="#8e8e8e"/>
            </g>
            <g id="Grupo_4066" data-name="Grupo 4066" transform="translate(14.663 4.203)">
              <path id="Trazado_9228" data-name="Trazado 9228" d="M1397.341,500.218a1.771,1.771,0,1,1-1.771-1.771A1.769,1.769,0,0,1,1397.341,500.218Z" transform="translate(-1393.8 -498.447)" fill="#f1f2f3"/>
            </g>
          </g>
        </g>
        <g id="Grupo_4083" data-name="Grupo 4083" transform="translate(34.359 31.014)">
          <path id="Trazado_9229" data-name="Trazado 9229" d="M1536.911,483.459a4.973,4.973,0,0,1,.023,1.916c-.931,3.119-6.7,6.223-7.371,6.563l-.734-1.448a29.386,29.386,0,0,0,3.117-1.889c1.954-1.366,3.167-2.654,3.414-3.627a5.092,5.092,0,0,0-.043-1.255.665.665,0,0,1,.813-.44C1536.769,483.422,1536.911,483.459,1536.911,483.459Z" transform="translate(-1526.047 -483.257)" fill="#f2bc98"/>
          <g id="Grupo_4079" data-name="Grupo 4079" transform="translate(0 4.303)">
            <path id="Trazado_9230" data-name="Trazado 9230" d="M1523.193,530.206l.092-.158a.211.211,0,0,0-.076-.289l-1.168-.8a.212.212,0,0,0-.289.076l-.2.34a.212.212,0,0,0,.076.289l1.274.619A.212.212,0,0,0,1523.193,530.206Z" transform="translate(-1519.623 -527.731)" fill="#e08d56"/>
            <g id="Grupo_4077" data-name="Grupo 4077">
              <g id="Grupo_4069" data-name="Grupo 4069" transform="translate(0.077 0.804)">
                <path id="Trazado_9231" data-name="Trazado 9231" d="M1506.377,525.933l.738,3.724c.018.192.544.3,1.176.24s1.129-.261,1.111-.453l.036-3.8Z" transform="translate(-1506.377 -525.648)" fill="#ed146d"/>
              </g>
              <g id="Grupo_4070" data-name="Grupo 4070" transform="translate(0.006 0.796)">
                <path id="Trazado_9232" data-name="Trazado 9232" d="M1509,525.583l-3.215.3.02.279,3.215-.3Z" transform="translate(-1505.786 -525.583)" fill="#cbd0d1"/>
              </g>
              <g id="Grupo_4071" data-name="Grupo 4071" transform="translate(0.026 0.719)">
                <path id="Trazado_9233" data-name="Trazado 9233" d="M1509.168,525.3c.025.269-.674.555-1.562.638s-1.628-.069-1.653-.339a2.9,2.9,0,0,1,3.215-.3" transform="translate(-1505.953 -524.943)" fill="#cbd0d1"/>
              </g>
              <g id="Grupo_4072" data-name="Grupo 4072" transform="translate(0 0.441)">
                <path id="Trazado_9234" data-name="Trazado 9234" d="M1508.953,522.991c.025.27-.674.556-1.562.638s-1.628-.069-1.653-.339a2.9,2.9,0,0,1,3.215-.3" transform="translate(-1505.738 -522.636)" fill="#f5f5f5"/>
              </g>
              <g id="Grupo_4073" data-name="Grupo 4073" transform="translate(0.064 0.423)">
                <path id="Trazado_9235" data-name="Trazado 9235" d="M1506.274,523.148l.192-.422,2.638-.246.267.379Z" transform="translate(-1506.274 -522.48)" fill="#f5f5f5"/>
              </g>
              <g id="Grupo_4074" data-name="Grupo 4074" transform="translate(0.24 0.296)">
                <path id="Trazado_9236" data-name="Trazado 9236" d="M1509.085,521.954c-.73.068-1.336-.056-1.356-.277l.012.127c.021.221.627.346,1.356.278s1.3-.3,1.281-.523l-.012-.127c.021.222-.553.455-1.281.523" transform="translate(-1507.729 -521.431)" fill="#cbd0d1"/>
              </g>
              <g id="Grupo_4075" data-name="Grupo 4075" transform="translate(0.239)">
                <path id="Trazado_9237" data-name="Trazado 9237" d="M1510.362,519.269c.021.221-.553.455-1.281.523s-1.335-.055-1.356-.277.552-.455,1.282-.523,1.335.057,1.356.278" transform="translate(-1507.725 -518.973)" fill="#f5f5f5"/>
              </g>
              <g id="Grupo_4076" data-name="Grupo 4076" transform="translate(0.333 2.125)">
                <path id="Trazado_9238" data-name="Trazado 9238" d="M1509.929,537.035a2.381,2.381,0,0,1-1.423-.162l.263,1.454a3.176,3.176,0,0,0,2.538-.236l-.009-1.478a2.378,2.378,0,0,1-1.368.422" transform="translate(-1508.506 -536.613)" fill="#825d1e"/>
              </g>
            </g>
            <g id="Grupo_4078" data-name="Grupo 4078" transform="translate(0.391 1.885)">
              <path id="Trazado_9239" data-name="Trazado 9239" d="M1510.83,537.944c-.025.01-.368.169-.394.175-.253.053-.385-.138-.454-.376l-.94-1.83a.461.461,0,0,1-.056-.234.471.471,0,0,1,.339-.424l2.908-.624a.512.512,0,0,1,.291.026.633.633,0,0,1,.411.513l.285.974c.207.537-.006.733-.256.806Z" transform="translate(-1508.984 -534.62)" fill="#f2bc98"/>
            </g>
          </g>
          <g id="Grupo_4082" data-name="Grupo 4082" transform="translate(4.578 5.449)">
            <rect id="Rectángulo_2074" data-name="Rectángulo 2074" width="0.946" height="2.047" rx="0.473" transform="translate(0.071 0.539) rotate(-34.759)" fill="#04adc5"/>
            <rect id="Rectángulo_2075" data-name="Rectángulo 2075" width="0.769" height="1.807" rx="0.384" transform="matrix(0.822, -0.57, 0.57, 0.822, 0.229, 0.612)" fill="#55c8d9"/>
            <rect id="Rectángulo_2076" data-name="Rectángulo 2076" width="1.531" height="1.531" rx="0.766" transform="translate(1.258 0.077) rotate(55.241)" fill="#b7d2d9"/>
            <g id="Grupo_4080" data-name="Grupo 4080" transform="translate(0.132 0.209)">
              <rect id="Rectángulo_2077" data-name="Rectángulo 2077" width="1.341" height="1.341" rx="0.671" transform="translate(1.102 0) rotate(55.241)" fill="#1a1a1a"/>
              <path id="Trazado_9240" data-name="Trazado 9240" d="M1546.708,531.524l-.479.332a.379.379,0,0,0-.161.346.375.375,0,0,1,.125-.148l.479-.332a.38.38,0,0,1,.528.1l.333.479a.377.377,0,0,1,.066.182.379.379,0,0,0-.031-.38l-.332-.479A.38.38,0,0,0,1546.708,531.524Z" transform="translate(-1545.917 -531.307)" fill="#333"/>
            </g>
            <g id="Grupo_4081" data-name="Grupo 4081" transform="translate(0.529 0.651)">
              <path id="Trazado_9241" data-name="Trazado 9241" d="M1548.184,538.694l-.059-.085.01-.054.087.125,0,.02Zm.063.022.087.125-.054-.01-.059-.085.006-.034Z" transform="translate(-1548.125 -537.992)" fill="#d2f0f4"/>
              <path id="Trazado_9242" data-name="Trazado 9242" d="M1548.879,537.363l-.087-.125.054.01.059.085-.006.034Zm.082-.25-.009.054-.1.072-.054-.01Zm.206.3-.166.115.009-.054.1-.072Zm-.142-.145.027,0-.005.027-.111.077-.027-.005,0-.027Zm.057.011.087.125-.054-.01-.059-.085.007-.034Z" transform="translate(-1548.712 -536.724)" fill="#d2f0f4"/>
              <path id="Trazado_9243" data-name="Trazado 9243" d="M1551.05,537.012l-.022-.032.032-.022.022.032Zm.149.215-.022-.032.031-.022.022.032Z" transform="translate(-1550.678 -536.588)" fill="#d2f0f4"/>
              <path id="Trazado_9244" data-name="Trazado 9244" d="M1551.655,535.424l-.006.034-.02,0-.087-.125.054.01Zm.095.137-.01.054-.087-.125,0-.021.034.006Zm-.04-.356-.009.054-.1.072-.054-.01Zm.206.3-.166.115.009-.054.1-.072Zm-.11-.171,0,.02-.034-.006-.059-.085.01-.054Zm.111.161-.054-.01-.059-.085.006-.034.02,0Z" transform="translate(-1551.13 -535.045)" fill="#d2f0f4"/>
              <path id="Trazado_9245" data-name="Trazado 9245" d="M1553.556,534.105l-.006.034-.02,0-.087-.125.054.01Zm.1.137-.01.054-.086-.124,0-.021.034.006Zm-.04-.357-.01.054-.1.072-.054-.01Zm.206.3-.166.115.009-.054.1-.072Zm-.11-.171,0,.02-.034-.006-.059-.085.01-.054Zm.111.16-.054-.01-.059-.085.006-.034.02,0Z" transform="translate(-1552.802 -533.886)" fill="#d2f0f4"/>
            </g>
            <path id="Trazado_9246" data-name="Trazado 9246" d="M1550.266,537.782l.828-.575-.021.079-.689.478Z" transform="translate(-1549.479 -536.156)" fill="#a8e3eb"/>
            <path id="Trazado_9247" data-name="Trazado 9247" d="M1551.163,539.075l.828-.575-.021.079-.689.478Z" transform="translate(-1550.269 -537.293)" fill="#a8e3eb"/>
          </g>
        </g>
      </g>
    </g>
    <rect id="Rectángulo_3733" data-name="Rectángulo 3733" width="264" height="98" transform="translate(41 209)" fill="none"/>
  </g>
</svg>
