<svg xmlns="http://www.w3.org/2000/svg" width="176" height="176" viewBox="0 0 176 176">
  <g id="Grupo_4120" data-name="Grupo 4120" transform="translate(-1846.206 -1103.905)">
    <g id="Grupo_3315" data-name="Grupo 3315" transform="translate(1847.323 1116.143)">
      <g id="Grupo_3308" data-name="Grupo 3308" transform="translate(0 0)">
        <path id="Trazado_6654" data-name="Trazado 6654" d="M1921.212,1152.521s2.1-42.457-26.805-34.892-58.665,50.823-42.434,93.808,58.558,62.974,90.72,56.285,34.238-35.13,18.3-50.939C1944.358,1200.289,1924.949,1191.877,1921.212,1152.521Z" transform="translate(-1847.376 -1116.726)" fill="#6d31ff"/>
      </g>
      <path id="Trazado_6655" data-name="Trazado 6655" d="M1848.512,1243.831c19-9.5,36.464-19.775,36.637-19.878l5.754,9.756c-.176.1-13.783,8.3-33.02,17.927Z" transform="translate(-1847.428 -1113.6)" fill="#bf8e63"/>
      <g id="Grupo_3309" data-name="Grupo 3309" transform="translate(33.364 96.845)">
        <path id="Trazado_6656" data-name="Trazado 6656" d="M1904.08,1231.193c.156-.077,2.416-1.062,2.556-1.166,1.353-1,.99-2.474.135-3.839l-4.851-12.495a2.99,2.99,0,0,0-.9-1.289,3.071,3.071,0,0,0-3.532-.183l-15.62,11.466a3.327,3.327,0,0,0-1.129,1.53c-.707,1.961-.054,2.978.722,4.217l3.512,5.6c1.72,3.329,3.6,3.142,5.034,2.238Z" transform="translate(-1880.437 -1211.749)" fill="#bf8e63"/>
      </g>
      <g id="Grupo_3314" data-name="Grupo 3314" transform="translate(17.409 15.246)">
        <path id="Trazado_6657" data-name="Trazado 6657" d="M1965.378,1195.513c-.841-3.655-1.736-7.283-2.814-10.875q-1.5-4.985-3.251-9.909l-.22-.624q-2.682-7.461-5.911-14.725l-.259-.582q-3.327-7.438-7.176-14.591c-1.861-3.463-3.749-7.279-6.4-10.226-1.959-2.179-4.66-1.236-6.728.286-.179.131-.352.266-.524.4l.375.476c2.415,3.07,4.168,6.756,5.949,10.211,2.414,4.673,4.7,9.419,6.914,14.19,1.473,3.17,2.979,6.346,4.273,9.594,2.081,5.229,3.891,10.58,5.643,15.927a156.152,156.152,0,0,1,5.231,18.428l.133.689a10,10,0,0,0,1.776.055,3.672,3.672,0,0,0,2.573-1.147C1966.715,1201.1,1965.9,1197.8,1965.378,1195.513Z" transform="translate(-1868.636 -1132.698)" fill="#e01252"/>
        <path id="Trazado_6658" data-name="Trazado 6658" d="M1958.573,1203.592a156.153,156.153,0,0,0-5.231-18.428c-1.752-5.347-3.562-10.7-5.643-15.927-1.294-3.249-2.8-6.424-4.273-9.594-2.218-4.771-4.5-9.517-6.914-14.19-1.78-3.455-3.534-7.141-5.949-10.211l-.375-.476a38.2,38.2,0,0,0-5.748,6.354c-8.782,11.085-17.952,22.275-29.708,30.354q-2.215,1.519-4.551,2.848l.221.59c3.086,8.778,6.5,17.433,9.994,26.057l.242.577a89.581,89.581,0,0,1,22.789-2.6,130.16,130.16,0,0,1,20.175,2.66c3.833.718,7.665,1.435,11.513,2.062,1.16.191,2.382.481,3.592.616Z" transform="translate(-1866.731 -1132.792)" fill="#f9e373"/>
        <path id="Trazado_6659" data-name="Trazado 6659" d="M1899.279,1202.852c-3.492-8.624-6.908-17.279-9.994-26.057l-.221-.59c-.094.053-.187.11-.281.162q-8.1,2.775-16.1,5.8c-1.948.736-4.433,1.321-5.932,2.874s-1.181,3.792-.88,5.746a32.114,32.114,0,0,0,4.846,12.609,31.392,31.392,0,0,0,4.424,5.376,3.809,3.809,0,0,0,2.1,1.348,9.948,9.948,0,0,0,3.328-.708c.023,0,.043-.011.066-.018l.606-.167q6.825-1.879,13.515-4.211l.59-.205c1.076-.379,2.148-.762,3.22-1.157.318-.076.637-.15.956-.223Z" transform="translate(-1865.614 -1134.676)" fill="#e01252"/>
        <path id="Trazado_6660" data-name="Trazado 6660" d="M1964.8,1163.438c.979,1.993,2.209,4.483,1.2,6.69-1.046,2.3-3.918,3.561-5.78,5.1-.026.022-.1.071-.127.1q-2.682-7.461-5.912-14.725c1.862-.353,3.714-.79,5.6-1a3.175,3.175,0,0,1,2.51.366A9.349,9.349,0,0,1,1964.8,1163.438Z" transform="translate(-1869.64 -1133.917)" fill="#9b1243"/>
        <path id="Trazado_6661" data-name="Trazado 6661" d="M1959.6,1173.516q.378,1.018.746,2.039c.028-.029.1-.077.127-.1,1.862-1.536,4.734-2.8,5.78-5.1.854-1.87.1-3.94-.744-5.741C1965.4,1168.977,1962.235,1171.862,1959.6,1173.516Z" transform="translate(-1869.886 -1134.149)" fill="#7c0d3a"/>
        <g id="Grupo_3312" data-name="Grupo 3312" transform="translate(7.103 50.802)">
          <g id="Grupo_3311" data-name="Grupo 3311">
            <g id="Grupo_3310" data-name="Grupo 3310">
              <path id="Trazado_6662" data-name="Trazado 6662" d="M1882.161,1186.344c-1.22-1.242-4.254.59-5.4,1.093-1.094.428-2.751.931-3.472,1.959a1.055,1.055,0,0,0,.746,1.749,4.952,4.952,0,0,0,1.6-.424c1.055-.345,2.1-.723,3.129-1.141C1879.505,1189.276,1883.547,1187.757,1882.161,1186.344Z" transform="translate(-1873.055 -1185.92)" fill="#191311"/>
              <path id="Trazado_6663" data-name="Trazado 6663" d="M1879.246,1191.881c-1.123.495-2.3.9-3.387,1.473-.6.322-1.066.641-1.056,1.383.032,2.206,3.422.438,4.357.055,1.16-.475,2.349-.968,3.465-1.537.624-.319,1.373-.766,1.454-1.542C1884.323,1189.358,1879.959,1191.556,1879.246,1191.881Z" transform="translate(-1873.135 -1186.134)" fill="#191311"/>
            </g>
          </g>
        </g>
        <path id="Trazado_6664" data-name="Trazado 6664" d="M1906.706,1221.775c-4.594-4.365-7.84-9.986-10.645-15.6l-.59.205q-6.686,2.328-13.515,4.211l-.606.167a85,85,0,0,0,5.834,11.854,75.277,75.277,0,0,0,6.993,10.44c1.105,1.281,2.168,2.487,4.04,2.012,2.356-.6,4.238-2.683,6.174-4.056,1.515-1.078,3.706-2.338,4.526-4.095C1909.938,1224.715,1908.136,1223.135,1906.706,1221.775Z" transform="translate(-1866.329 -1136.038)" fill="#563a30"/>
        <g id="Grupo_3313" data-name="Grupo 3313" transform="translate(15.02 70.134)" opacity="0.32">
          <path id="Trazado_6665" data-name="Trazado 6665" d="M1887.867,1215.6c-.462-3.268,4.965-5.872,8.614-7.24h0l.577-.228q-.508-.975-1-1.955l-.59.205q-6.686,2.328-13.515,4.211l-.606.167a85,85,0,0,0,5.834,11.854,75.277,75.277,0,0,0,6.993,10.44c1.105,1.281,2.168,2.487,4.04,2.012a7.179,7.179,0,0,0,1.809-.766l-.42-.533C1895.83,1229.006,1888.38,1219.235,1887.867,1215.6Z" transform="translate(-1881.349 -1206.172)" fill="#33251e"/>
        </g>
        <path id="Trazado_6666" data-name="Trazado 6666" d="M1871.775,1205.171a31.344,31.344,0,0,0,3.644,4.238,3.81,3.81,0,0,0,2.1,1.348,9.948,9.948,0,0,0,3.328-.708c.023,0,.043-.011.066-.018l.606-.167q6.825-1.879,13.515-4.211l.59-.205c1.076-.379,2.148-.762,3.22-1.157.318-.076.637-.15.956-.223a89.579,89.579,0,0,1,22.789-2.6,130.16,130.16,0,0,1,20.175,2.66c3.833.718,7.665,1.435,11.513,2.062,1.16.191,2.382.481,3.592.615a9.994,9.994,0,0,0,1.777.056,3.672,3.672,0,0,0,2.573-1.147c1.755-2,.942-5.3.418-7.582q-.583-2.534-1.215-5.051C1932.751,1183.932,1887.16,1199.361,1871.775,1205.171Z" transform="translate(-1865.894 -1135.314)" fill="#3e3e3e" opacity="0.27"/>
      </g>
      <path id="Trazado_6667" data-name="Trazado 6667" d="M1884.1,1227.593l-1.167-.236a1.379,1.379,0,0,1-1.075-1.62l1.148-9.157a1.38,1.38,0,0,1,1.621-1.075l2.514.508a1.379,1.379,0,0,1,1.076,1.621l-2.5,8.883A1.379,1.379,0,0,1,1884.1,1227.593Z" transform="translate(-1847.303 -1115.507)" fill="#ab754e"/>
      <path id="Trazado_6668" data-name="Trazado 6668" d="M1984.073,1118.007l-10.357,14.207,6.1,2.983-19.247,13.092,10.038-12.714-6.5-3.665Z" transform="translate(-1846.493 -1116.784)" fill="#f4a21e"/>
      <path id="Trazado_6669" data-name="Trazado 6669" d="M2020.524,1147.109l-15.987,7.317,3.862,5.589-23.192,1.992,14.977-6.171-3.875-6.379Z" transform="translate(-1845.641 -1116.313)" fill="#f4a21e"/>
      <path id="Trazado_6670" data-name="Trazado 6670" d="M2016.692,1193.74l-17.273-3.281-.084,6.793-20.069-11.793,15.786,3.631.53-7.445Z" transform="translate(-1845.371 -1115.823)" fill="#f4a21e"/>
    </g>
    <rect id="Rectángulo_2066" data-name="Rectángulo 2066" width="176" height="176" transform="translate(1846.206 1103.905)" fill="none"/>
    <path id="Trazado_6671" data-name="Trazado 6671" d="M1985.454,1210.992s13.163.1,12.848,18.993c-.281,16.9-10.4,27.3-19.67,23.437-7.851-3.269,1.06-13.811-1.321-25.612C1975.257,1217.636,1977.607,1211.187,1985.454,1210.992Z" transform="translate(2.131 3.132)" fill="#6d31ff"/>
  </g>
</svg>
