<?xml version="1.0" encoding="utf-8"?>
<!-- Generator: Adobe Illustrator 23.0.1, SVG Export Plug-In . SVG Version: 6.00 Build 0)  -->
<svg version="1.1" id="Capa_1" xmlns="http://www.w3.org/2000/svg" xmlns:xlink="http://www.w3.org/1999/xlink" x="0px" y="0px"
	 viewBox="0 0 176 176" style="enable-background:new 0 0 176 176;" xml:space="preserve">
<style type="text/css">
	.st0{fill:#6D31FF;}
	.st1{fill:none;}
	.st2{fill:url(#Trazado_4946_1_);}
	.st3{opacity:0.34;fill:#FFFFFF;enable-background:new    ;}
	.st4{fill:#CC2555;}
	.st5{fill:#B72052;}
	.st6{fill:#F15A29;}
	.st7{fill:#939598;}
	.st8{fill:#6D6E71;}
	.st9{fill:#30A2EF;}
	.st10{fill:#3FB0EF;}
	.st11{fill:#D6E3EA;}
	.st12{fill:#636468;}
	.st13{clip-path:url(#SVGID_2_);}
	.st14{fill:#31E223;}
	.st15{fill:#32D621;}
	.st16{fill:#1E2BC6;}
	.st17{fill:#19309E;}
	.st18{fill:#2EBC1E;}
	.st19{opacity:0.18;fill:#DCDFE2;enable-background:new    ;}
	.st20{opacity:0.18;fill:#D6E3EA;enable-background:new    ;}
	.st21{fill:#211F1F;}
</style>
<g id="Grupo_2489" transform="translate(-6526.469 -427.457)">
	<path id="Trazado_4945" class="st0" d="M6620.1,431.7c0,0-34.4-12.3-56.8,10.4s3.5,55.9-4.2,72.1c-7.7,16.2-8.3,41.9,20.7,46.4
		s92.3-19.4,102.8-62.5S6620.1,431.7,6620.1,431.7z"/>
	<rect id="Rectángulo_1877" x="6526.5" y="427.5" class="st1" width="176" height="176"/>
	<g id="Grupo_2488">
		
			<linearGradient id="Trazado_4946_1_" gradientUnits="userSpaceOnUse" x1="6168.7031" y1="967.7183" x2="6168.584" y2="968.6773" gradientTransform="matrix(103.1133 0 0 -91.034 -629525.625 88130.9766)">
			<stop  offset="0" style="stop-color:#F1E8FF"/>
			<stop  offset="0.256" style="stop-color:#E0D1FF"/>
			<stop  offset="1" style="stop-color:#B393FF"/>
		</linearGradient>
		<path id="Trazado_4946" class="st2" d="M6577.1,602.6l103.1-8l-46.7-83l-39,4.5L6577.1,602.6"/>
		<path id="Trazado_4947" class="st3" d="M6600.8,600.7l55.2-4.3l-32.7-83.6l-16.8,1.6l-3.6,55.5L6600.8,600.7z"/>
		<g id="Grupo_2487">
			<path id="Trazado_4948" class="st4" d="M6641.9,506.1c0.7,5.8-11.5,13.9-27.5,15.7s-29.6-3.4-30.3-9.1s11.9-10.1,27.9-11.9
				S6641.3,500.3,6641.9,506.1z"/>
			<path id="Trazado_4949" class="st5" d="M6612.1,500.7c-3.1,0.4-6,0.8-8.7,1.3c11.8-0.4,20.5,1.3,21,6c0.5,4.7-7.3,10.9-18.8,14
				c3,0.1,5.9,0,8.8-0.3c15.9-1.8,28.1-9.9,27.5-15.7S6628,498.9,6612.1,500.7z"/>
			<path id="Trazado_4950" class="st6" d="M6580.5,510.4l-0.1,2.1l-0.2,0.5c0.5,1.5,1.6,2.8,3.2,3.2c3.3,1.1,17.4,1.6,30.5,0.1
				s24.9-4.6,28.4-6.6c1.9-1,3.2-2.8,3.4-4.9L6580.5,510.4z"/>
			<path id="Trazado_4951" class="st7" d="M6656.2,499.2c1.6-2.7,1.4-6.1-0.5-8.6c-0.3-0.5-0.7-0.9-1.2-1.1
				c-4.5-3-20.8-3.8-43.7-1.2c-23.5,2.6-39.4,7.2-42.5,11.2l0,0c0,0-3.3,3.8,0.3,9.1c0.2,0.3,0.5,0.6,0.8,0.9
				c4,3.6,20.7,6.2,44.2,3.6c22.6-2.6,38-8.4,41.9-12.8l0,0c0,0,0.1-0.1,0.1-0.1C6655.8,499.7,6656,499.5,6656.2,499.2z"/>
			<path id="Trazado_4952" class="st7" d="M6656.2,499.2c1.6-2.7,1.4-6.1-0.5-8.6c-0.3-0.5-0.7-0.9-1.2-1.1
				c-4.5-3-20.8-3.8-43.7-1.2c-23.5,2.6-39.4,7.2-42.5,11.2l0,0c0,0-3.3,3.8,0.3,9.1c0.2,0.3,0.5,0.6,0.8,0.9
				c4,3.6,20.7,6.2,44.2,3.6c22.6-2.6,38-8.4,41.9-12.8l0,0c0,0,0.1-0.1,0.1-0.1C6655.8,499.7,6656,499.5,6656.2,499.2z"/>
			<path id="Trazado_4953" class="st8" d="M6654.1,489.2c-4.9-2.8-20.9-3.5-43.3-1s-37.8,6.8-42,10.6c2,4,21.2,5.4,43.5,2.8
				S6651.3,493.4,6654.1,489.2z"/>
			<path id="Trazado_4954" class="st9" d="M6634.9,482.1L6634.9,482.1c-1.3-3.7-12.3-5.6-25.3-4.1s-23.4,5.7-23.7,9.6h0
				c-1.3,3.1-1.9,6.5-1.8,10c3,3,14.5,4.2,28.1,2.7l0,0c13.5-1.5,24.5-5.3,26.8-8.9C6638.3,488,6636.9,484.8,6634.9,482.1z"/>
			<path id="Trazado_4955" class="st10" d="M6616.1,483.9c5.2,0.7,8.7,2.1,9.3,4.2h0.1c1.8,2.6,3.1,5.6,3.9,8.7
				c2.3-0.7,4.5-1.6,6.6-2.8c-0.7-3.1-2-6-3.8-8.5h-0.1c-0.7-2.3-5.3-3.9-11.8-4.4L6616.1,483.9z"/>
			
				<ellipse id="Elipse_450" transform="matrix(0.9937 -0.1121 0.1121 0.9937 -12.6396 743.7972)" class="st11" cx="6610.3" cy="484.3" rx="21.6" ry="5.2"/>
			<circle id="Elipse_451" class="st8" cx="6612.9" cy="507.3" r="1.6"/>
			<circle id="Elipse_452" class="st8" cx="6612.9" cy="507.3" r="1.6"/>
			<path id="Trazado_4956" class="st12" d="M6612.7,505.7c-0.1,0-0.3,0.1-0.4,0.1c0.9,0.1,1.5,0.9,1.3,1.8c-0.1,0.5-0.4,1-1,1.2
				c0.1,0,0.3,0,0.4,0c0.9-0.1,1.5-0.9,1.4-1.8C6614.4,506.3,6613.6,505.7,6612.7,505.7L6612.7,505.7z"/>
			<circle id="Elipse_453" class="st8" cx="6623.3" cy="505.8" r="1.6"/>
			<path id="Trazado_4957" class="st12" d="M6623.1,504.2c-0.1,0-0.3,0.1-0.4,0.1c0.9,0.1,1.5,0.9,1.3,1.8c-0.1,0.6-0.5,1-1,1.2
				c0.1,0,0.3,0,0.4,0c0.9-0.1,1.5-0.9,1.4-1.8C6624.8,504.8,6624,504.2,6623.1,504.2L6623.1,504.2L6623.1,504.2z"/>
			<circle id="Elipse_454" class="st8" cx="6632.8" cy="504.1" r="1.6"/>
			<path id="Trazado_4958" class="st12" d="M6632.6,502.5c-0.1,0-0.3,0.1-0.4,0.1c0.9,0.1,1.5,0.9,1.3,1.8c-0.1,0.5-0.4,1-1,1.2
				c0.1,0,0.3,0,0.4,0c0.9-0.1,1.5-0.9,1.4-1.7C6634.4,503.1,6633.6,502.5,6632.6,502.5C6632.7,502.6,6632.7,502.6,6632.6,502.5
				L6632.6,502.5L6632.6,502.5z"/>
			<circle id="Elipse_455" class="st8" cx="6641.5" cy="501.9" r="1.6"/>
			<path id="Trazado_4959" class="st12" d="M6641.3,500.4c-0.1,0-0.3,0.1-0.4,0.1c0.9,0.1,1.5,0.9,1.3,1.8c-0.1,0.6-0.5,1-1,1.2
				c0.1,0,0.3,0,0.4,0c0.9-0.1,1.5-0.9,1.4-1.8C6642.9,500.9,6642.1,500.3,6641.3,500.4L6641.3,500.4z"/>
			<circle id="Elipse_456" class="st8" cx="6649.6" cy="499" r="1.6"/>
			<path id="Trazado_4960" class="st12" d="M6649.4,497.5c-0.1,0-0.3,0.1-0.4,0.1c0.9,0.1,1.5,0.9,1.3,1.8c-0.1,0.5-0.4,1-1,1.2
				c0.1,0,0.3,0,0.4,0c0.9-0.1,1.5-0.9,1.4-1.8C6651.1,498,6650.3,497.4,6649.4,497.5L6649.4,497.5z"/>
			<circle id="Elipse_457" class="st8" cx="6656.6" cy="494.5" r="1.6"/>
			<path id="Trazado_4961" class="st12" d="M6656.4,492.9c-0.1,0-0.3,0.1-0.4,0.1c0.9,0.1,1.5,1,1.3,1.8c-0.1,0.5-0.4,1-0.9,1.2
				c0.1,0,0.3,0,0.4,0c0.9-0.1,1.5-0.9,1.4-1.7c-0.1-0.9-0.9-1.5-1.7-1.4C6656.5,492.9,6656.5,492.9,6656.4,492.9L6656.4,492.9
				L6656.4,492.9z"/>
			<circle id="Elipse_458" class="st8" cx="6567.1" cy="504.6" r="1.6"/>
			<path id="Trazado_4962" class="st12" d="M6566.9,503c-0.1,0-0.3,0.1-0.4,0.1c0.9,0.2,1.4,1,1.3,1.9c-0.1,0.5-0.5,1-0.9,1.2
				c0.1,0,0.3,0,0.4,0c0.9-0.1,1.5-0.9,1.4-1.8C6568.5,503.5,6567.8,502.9,6566.9,503L6566.9,503L6566.9,503z"/>
			<circle id="Elipse_459" class="st8" cx="6602.4" cy="508.2" r="1.6"/>
			<path id="Trazado_4963" class="st12" d="M6602.2,506.6c-0.1,0-0.3,0-0.4,0.1c0.9,0.1,1.5,0.9,1.3,1.8c-0.1,0.5-0.4,1-1,1.2
				c0.1,0,0.3,0,0.4,0c0.9-0.1,1.5-0.9,1.4-1.7C6604,507.2,6603.2,506.5,6602.2,506.6C6602.3,506.6,6602.3,506.6,6602.2,506.6
				L6602.2,506.6z"/>
			<circle id="Elipse_460" class="st8" cx="6592.7" cy="508.6" r="1.6"/>
			<path id="Trazado_4964" class="st12" d="M6592.5,507.1c-0.1,0-0.3,0.1-0.4,0.1c0.9,0.1,1.5,0.9,1.3,1.8c-0.1,0.5-0.4,1-1,1.2
				c0.1,0,0.3,0,0.4,0c0.9-0.1,1.5-0.9,1.4-1.8C6594.2,507.6,6593.4,507,6592.5,507.1L6592.5,507.1z"/>
			<circle id="Elipse_461" class="st8" cx="6583.7" cy="508.5" r="1.6"/>
			<path id="Trazado_4965" class="st12" d="M6583.5,506.9c-0.1,0-0.3,0.1-0.4,0.1c0.9,0.1,1.5,1,1.3,1.8c-0.1,0.5-0.4,1-0.9,1.2
				c0.1,0,0.3,0,0.4,0c0.9-0.1,1.5-0.9,1.4-1.7C6585.3,507.5,6584.5,506.8,6583.5,506.9C6583.6,506.9,6583.6,506.9,6583.5,506.9
				L6583.5,506.9z"/>
			<circle id="Elipse_462" class="st8" cx="6575.2" cy="507.4" r="1.6"/>
			<path id="Trazado_4966" class="st12" d="M6575.1,505.8c-0.1,0-0.3,0-0.4,0.1c0.9,0.1,1.5,0.9,1.3,1.8c-0.1,0.5-0.4,1-1,1.2
				c0.1,0,0.3,0,0.4,0c0.9-0.1,1.5-0.9,1.4-1.8C6576.7,506.4,6575.9,505.8,6575.1,505.8L6575.1,505.8z"/>
			<g id="Grupo_2486">
				<g>
					<defs>
						<path id="SVGID_1_" d="M6605,437.1c-33.7,3.8-16.1,49.6-16.1,49.6c0.3,2.8,10.2,4,22.1,2.7s21.2-4.7,20.9-7.5
							C6631.8,481.9,6638.7,433.3,6605,437.1z"/>
					</defs>
					<clipPath id="SVGID_2_">
						<use xlink:href="#SVGID_1_"  style="overflow:visible;"/>
					</clipPath>
					<g id="Grupo_2485" class="st13">
						<g id="Grupo_2484">
							<g id="Grupo_2483">
								<path id="Trazado_4967" class="st14" d="M6609.3,489.5l-0.3-2.7c0,0-16.1-6.8-19.6-17.9s2.3-21,16.7-21.7s18.6,11.9,17.8,20
									s-5.4,14.2-11.8,18.7l0.7,4.3L6609.3,489.5z"/>
								<path id="Trazado_4968" class="st15" d="M6593.8,469.5c-3.6-11.1,2.3-21,16.7-21.7c0.3,0,0.5,0,0.7,0
									c-1.7-0.4-3.4-0.5-5.2-0.4c-14.4,0.6-20.3,10.6-16.7,21.7s19.6,17.8,19.6,17.8l0.2,2.6l3.6,0.8l-0.6-3.6
									C6608.3,484.9,6596.8,478.6,6593.8,469.5z"/>
								<path id="Trazado_4969" class="st16" d="M6615.2,473c0,0,0.7-13,9-13.4C6624.2,459.6,6626.5,470.5,6615.2,473z"/>
								<path id="Trazado_4970" class="st17" d="M6624.2,459.6c-0.8,0-1.7,0.2-2.4,0.6c0.2,2.3,0.3,9-6.5,11.9l-0.1,1
									C6626.5,470.5,6624.2,459.6,6624.2,459.6z"/>
								<path id="Trazado_4971" class="st16" d="M6590.5,462.7c0,0,13-1.9,16.9,10.9C6607.3,473.7,6594.7,474.7,6590.5,462.7z"/>
								<path id="Trazado_4972" class="st17" d="M6592.1,462.6c-0.6,0-1.1,0-1.7,0.1c4.3,11.9,16.9,10.9,16.9,10.9l-0.6-1.8
									C6603.3,471.7,6595.8,470.5,6592.1,462.6z"/>
								<g id="Grupo_2482">
									
										<ellipse id="Elipse_463" transform="matrix(0.5414 -0.8408 0.8408 0.5414 2654.6292 5770.062)" class="st18" cx="6616.3" cy="451.7" rx="0.4" ry="0.8"/>
									
										<ellipse id="Elipse_464" transform="matrix(0.5414 -0.8408 0.8408 0.5414 2653.1475 5768.8696)" class="st18" cx="6614.5" cy="452.5" rx="0.4" ry="0.8"/>
									
										<ellipse id="Elipse_465" transform="matrix(0.5414 -0.8408 0.8408 0.5414 2652.905 5771.521)" class="st18" cx="6616.8" cy="454" rx="0.4" ry="0.8"/>
								</g>
							</g>
						</g>
					</g>
				</g>
			</g>
			<path id="Trazado_4974" class="st19" d="M6605,437.1c-33.7,3.8-16.1,49.6-16.1,49.6c0.3,2.8,10.2,4,22.1,2.7s21.2-4.7,20.9-7.5
				C6631.8,481.9,6638.7,433.3,6605,437.1z"/>
			<path id="Trazado_4975" class="st20" d="M6608.8,436.9c25.1,3.7,19.4,44.7,19.4,44.7c0.3,2.8-9,6.2-20.9,7.5
				c-3.8,0.4-7.7,0.6-11.5,0.5c5,0.5,10.1,0.4,15.2-0.2c11.9-1.3,21.2-4.7,20.9-7.5C6631.8,481.9,6638.1,437.1,6608.8,436.9z"/>
			<path id="Trazado_4976" class="st21" d="M6610.5,477.1c0,0,0.9,1.5,2.3,1.2c0.9-0.2,1.6-1,1.7-1.9c0,0,0.1-0.7,0.5-0.5
				c0,0,0.4,0.1,0.2,0.7c-0.2,1.2-1.2,2.2-2.4,2.5c-1.3,0.3-2.6-0.3-3.2-1.5c0,0-0.2-0.4,0-0.6
				C6609.7,477,6610.1,476.6,6610.5,477.1z"/>
		</g>
	</g>
</g>
</svg>
