<svg xmlns="http://www.w3.org/2000/svg" width="176" height="176" viewBox="0 0 176 176">
  <g id="Grupo_34326" data-name="Grupo 34326" transform="translate(-85 -152)">
    <g id="Grupo_34326-2" data-name="Grupo 34326" transform="translate(-1738.206 -941.253)">
      <g id="Grupo_3315" data-name="Grupo 3315" transform="translate(1844.725 1114.637)">
        <g id="Grupo_3308" data-name="Grupo 3308" transform="translate(0 0)">
          <path id="Trazado_6654" data-name="Trazado 6654" d="M1912.129,1148.117s1.841-37.234-23.508-30.6-51.448,44.571-37.214,82.268,51.354,55.226,79.559,49.361,30.026-30.808,16.046-44.672C1932.428,1190.009,1915.406,1182.632,1912.129,1148.117Z" transform="translate(-1847.376 -1116.726)" fill="#6d31ff"/>
        </g>
        <path id="Trazado_6668" data-name="Trazado 6668" d="M1981.182,1118.007l-9.083,12.459,5.353,2.616-16.879,11.481,8.8-11.15-5.7-3.214Z" transform="translate(-1860.527 -1116.934)" fill="#f4a21e"/>
        <path id="Trazado_6669" data-name="Trazado 6669" d="M2016.18,1147.109l-14.02,6.417,3.387,4.9-20.339,1.747,13.135-5.412-3.4-5.594Z" transform="translate(-1862.811 -1120.102)" fill="#f4a21e"/>
        <path id="Trazado_6670" data-name="Trazado 6670" d="M2012.088,1192.252l-15.148-2.878-.073,5.957-17.6-10.342,13.844,3.185.465-6.529Z" transform="translate(-1861.843 -1123.921)" fill="#f4a21e"/>
      </g>
      <rect id="Rectángulo_2066" data-name="Rectángulo 2066" width="154.348" height="154.348" transform="translate(1843.746 1103.905)" fill="none"/>
      <path id="Trazado_6671" data-name="Trazado 6671" d="M1984.208,1210.992s11.544.087,11.268,16.656c-.247,14.822-9.119,23.939-17.25,20.553-6.885-2.867.929-12.112-1.159-22.461C1975.266,1216.818,1977.327,1211.163,1984.208,1210.992Z" transform="translate(-16.476 -10.427)" fill="#6d31ff"/>
      <g id="Grupo_4170" data-name="Grupo 4170" transform="translate(1826.206 1148.631)">
        <g id="Grupo_4177" data-name="Grupo 4177" transform="translate(0 0)">
          <g id="Grupo_4170-2" data-name="Grupo 4170" transform="translate(2.153 0.863)" opacity="0.39">
            <rect id="Rectángulo_2115" data-name="Rectángulo 2115" width="129.373" height="81.267" rx="4" fill="#4f4f4f"/>
          </g>
          <g id="Grupo_4171" data-name="Grupo 4171" transform="translate(0 0)">
            <rect id="Rectángulo_2116" data-name="Rectángulo 2116" width="129.373" height="79.893" rx="6" fill="#9e0d4f"/>
          </g>
          <g id="Grupo_4172" data-name="Grupo 4172" transform="translate(0)">
            <path id="Trazado_9556" data-name="Trazado 9556" d="M253.425,524.947H130.8a3.382,3.382,0,0,0-3.372,3.372v2.843H256.8v-2.843A3.382,3.382,0,0,0,253.425,524.947Z" transform="translate(-127.424 -524.947)" fill="#bd1158"/>
          </g>
          <g id="Grupo_4176" data-name="Grupo 4176" transform="translate(2.663 2.153)">
            <g id="Grupo_4173" data-name="Grupo 4173">
              <circle id="Elipse_571" data-name="Elipse 571" cx="1.55" cy="1.55" r="1.55" fill="#e5035f"/>
            </g>
            <g id="Grupo_4174" data-name="Grupo 4174" transform="translate(4.73)">
              <circle id="Elipse_572" data-name="Elipse 572" cx="1.55" cy="1.55" r="1.55" fill="#04ae4d"/>
            </g>
            <g id="Grupo_4175" data-name="Grupo 4175" transform="translate(9.393)">
              <circle id="Elipse_573" data-name="Elipse 573" cx="1.55" cy="1.55" r="1.55" fill="#ffae0d"/>
            </g>
          </g>
        </g>
        <g id="Grupo_4178" data-name="Grupo 4178" transform="translate(7.393 12.588)">
          <rect id="Rectángulo_2117" data-name="Rectángulo 2117" width="114.573" height="60.941" rx="20.96" transform="translate(0 0)" fill="#7f0a45"/>
        </g>
        <g id="Grupo_4179" data-name="Grupo 4179" transform="translate(13.678 35.478)">
          <path id="Trazado_9557" data-name="Trazado 9557" d="M215.181,753.84a1,1,0,0,1-.97,1.236h-2.376a1,1,0,0,1-.97-1.236l1.042-9.115a1.116,1.116,0,0,1,2.23,0Zm-2.157-11.781a2.04,2.04,0,0,1-2.109-2.06v-.049a2.11,2.11,0,0,1,4.218,0V740A2.04,2.04,0,0,1,213.024,742.059Z" transform="translate(-210.858 -737.744)" fill="#fff"/>
          <path id="Trazado_9558" data-name="Trazado 9558" d="M260.447,753.879V740.644a1.852,1.852,0,0,1,1.867-1.867h9.406a1.676,1.676,0,0,1,1.673,1.673,1.655,1.655,0,0,1-1.673,1.648h-7.563v3.442h6.473a1.676,1.676,0,0,1,1.673,1.673,1.655,1.655,0,0,1-1.673,1.648h-6.473v3.563h7.684a1.676,1.676,0,0,1,1.673,1.673,1.656,1.656,0,0,1-1.673,1.649h-9.527A1.852,1.852,0,0,1,260.447,753.879Z" transform="translate(-252.318 -738.486)" fill="#fff"/>
          <path id="Trazado_9559" data-name="Trazado 9559" d="M359.523,740.644a1.852,1.852,0,0,1,1.867-1.867h5.891a6.762,6.762,0,0,1,4.945,1.721,5.327,5.327,0,0,1,1.454,3.878v.049a5.18,5.18,0,0,1-3.394,5.163l2.594,3.151a2.177,2.177,0,0,1,.606,1.43,1.737,1.737,0,0,1-1.77,1.721,2.234,2.234,0,0,1-1.842-.97l-3.636-4.606h-2.982v3.709a1.867,1.867,0,0,1-3.733,0Zm7.515,6.375c1.818,0,2.861-.97,2.861-2.4v-.049c0-1.6-1.115-2.424-2.933-2.424h-3.709v4.872Z" transform="translate(-335.152 -738.486)" fill="#fff"/>
          <path id="Trazado_9560" data-name="Trazado 9560" d="M466.436,740.644a1.852,1.852,0,0,1,1.867-1.867h5.891a6.761,6.761,0,0,1,4.945,1.721,5.326,5.326,0,0,1,1.454,3.878v.049a5.18,5.18,0,0,1-3.394,5.163l2.594,3.151a2.177,2.177,0,0,1,.606,1.43,1.737,1.737,0,0,1-1.77,1.721,2.234,2.234,0,0,1-1.842-.97l-3.636-4.606h-2.982v3.709a1.867,1.867,0,1,1-3.733,0Zm7.515,6.375c1.818,0,2.861-.97,2.861-2.4v-.049c0-1.6-1.115-2.424-2.933-2.424h-3.709v4.872Z" transform="translate(-424.538 -738.486)" fill="#fff"/>
          <path id="Trazado_9561" data-name="Trazado 9561" d="M568.764,745.826v-.049a9.022,9.022,0,0,1,18.036-.048v.048a9.022,9.022,0,0,1-18.036.049Zm14.133,0v-.049a5.155,5.155,0,0,0-5.139-5.333,5.075,5.075,0,0,0-5.091,5.285v.048a5.155,5.155,0,0,0,5.139,5.333A5.075,5.075,0,0,0,582.9,745.826Z" transform="translate(-510.091 -737.002)" fill="#fff"/>
          <path id="Trazado_9562" data-name="Trazado 9562" d="M699.04,740.644a1.852,1.852,0,0,1,1.867-1.867H706.8a6.761,6.761,0,0,1,4.945,1.721,5.325,5.325,0,0,1,1.455,3.878v.049a5.18,5.18,0,0,1-3.394,5.163l2.594,3.151a2.177,2.177,0,0,1,.606,1.43,1.737,1.737,0,0,1-1.77,1.721,2.234,2.234,0,0,1-1.842-.97l-3.636-4.606h-2.982v3.709a1.867,1.867,0,0,1-3.733,0Zm7.515,6.375c1.818,0,2.86-.97,2.86-2.4v-.049c0-1.6-1.115-2.424-2.933-2.424h-3.709v4.872Z" transform="translate(-619.01 -738.486)" fill="#fff"/>
          <path id="Trazado_9563" data-name="Trazado 9563" d="M804.282,739.569a1,1,0,0,1,.969-1.236h2.376a1,1,0,0,1,.97,1.236l-1.042,9.115a1.116,1.116,0,0,1-2.23,0Zm2.157,11.781a2.04,2.04,0,0,1,2.109,2.06v.049a2.11,2.11,0,0,1-4.218,0v-.049A2.04,2.04,0,0,1,806.439,751.351Z" transform="translate(-706.992 -738.115)" fill="#fff"/>
        </g>
      </g>
    </g>
    <rect id="Rectángulo_3728" data-name="Rectángulo 3728" width="176" height="176" transform="translate(85 152)" fill="none"/>
  </g>
</svg>
