<svg xmlns="http://www.w3.org/2000/svg" xmlns:xlink="http://www.w3.org/1999/xlink" width="176" height="176" viewBox="0 0 176 176">
  <defs>
    <clipPath id="clip-path">
      <path id="Trazado_37083" data-name="Trazado 37083" d="M1667,1268.57H1631a21.022,21.022,0,0,0-2.51-.919c-10.972-3.225-13.882-18.875-23.9-30.381v-56.848h-53.035l.948,49.4c-17.565,10.431-16.492,32.857-16.492,32.857a61.766,61.766,0,0,0,.029,8.422H1495l2.37,16.469H1540c13.752,31.363,58.707,38.337,85.912,28.234,18.956-7.039,22.923-19.966,19.551-30.764H1667Z" transform="translate(-1495.001 -1180.422)" fill="none"/>
    </clipPath>
  </defs>
  <g id="Grupo_34330" data-name="Grupo 34330" transform="translate(-92 -155)">
    <rect id="Rectángulo_3732" data-name="Rectángulo 3732" width="176" height="176" transform="translate(92 155)" fill="none"/>
    <g id="Grupo_34393" data-name="Grupo 34393" transform="translate(-1403.001 -1009.442)">
      <path id="Trazado_36954" data-name="Trazado 36954" d="M1581.108,1312.378s-1.825-38.079,38.137-38.079,36.575,37.827,54.346,43.052,30.736,35.781-2.577,48.151S1577.764,1364.645,1581.108,1312.378Z" transform="translate(-45.214 -49.371)" fill="#4b23ef"/>
      <path id="Trazado_36955" data-name="Trazado 36955" d="M1757.7,1296.191l1.5,3.032,3.346.486-2.421,2.36.572,3.333-2.993-1.574-2.993,1.574.572-3.333-2.422-2.36,3.346-.486Z" transform="translate(-135.608 -60.884)" fill="#f9bd19"/>
      <path id="Trazado_36956" data-name="Trazado 36956" d="M1788.523,1307.236l1.5,3.032,3.346.486-2.421,2.36.572,3.333-2.993-1.574-2.993,1.574.572-3.333-2.422-2.36,3.346-.486Z" transform="translate(-151.819 -66.692)" fill="#f9bd19"/>
      <path id="Trazado_36957" data-name="Trazado 36957" d="M1784.192,1271.006l1.408,2.854,3.15.458-2.279,2.222.538,3.137-2.817-1.481-2.817,1.481.538-3.137-2.279-2.222,3.15-.458Z" transform="translate(-149.691 -47.639)" fill="#f9bd19"/>
      <g id="Grupo_34392" data-name="Grupo 34392" transform="translate(1495.001 1180.422)">
        <g id="Grupo_34391" data-name="Grupo 34391" clip-path="url(#clip-path)">
          <g id="Grupo_34390" data-name="Grupo 34390" transform="translate(1.769 0.551)">
            <g id="Grupo_34387" data-name="Grupo 34387">
              <g id="Grupo_34371" data-name="Grupo 34371" transform="translate(68.405 93.681)">
                <path id="Trazado_36958" data-name="Trazado 36958" d="M1664.9,1408.734c-.5,0-18.017,4.042-18.017,4.042s-1.107,21.2-1.126,28.494c-.018,6.767,35.658,6.76,35.258.672-.529-8.032-1.371-28.109-1.371-28.109Z" transform="translate(-1644.459 -1394.726)" fill="#c19063"/>
                <path id="Trazado_36959" data-name="Trazado 36959" d="M1657.076,1379.792l-14,20.594s-2.064,31.435,18.482,32.184,18.436-32.656,18.436-32.656l-16.048-20.726Z" transform="translate(-1643.018 -1379.187)" fill="#1b2b3f"/>
                <path id="Trazado_36960" data-name="Trazado 36960" d="M1643.4,1423.463s.422,33.016,1.233,69.545a136.712,136.712,0,0,0,15.312-.843l.372-38.25S1663.208,1419,1643.4,1423.463Z" transform="translate(-1643.218 -1402.265)" fill="#1b2b3f"/>
                <path id="Trazado_36961" data-name="Trazado 36961" d="M1686.272,1453.531l1.448,37.476a104.813,104.813,0,0,0,15.553-3.656c-.142-34.6-.529-64.793-.529-64.793C1682.828,1418.6,1686.272,1453.531,1686.272,1453.531Z" transform="translate(-1665.646 -1401.832)" fill="#1b2b3f"/>
                <path id="Trazado_36962" data-name="Trazado 36962" d="M1652.059,1445.559s-.15,2.733-4.046,10.976l1.491.83a48.2,48.2,0,0,0,4.731-11.031Z" transform="translate(-1645.645 -1414.092)" fill="#31434f"/>
                <path id="Trazado_36963" data-name="Trazado 36963" d="M1706.186,1445.559s.15,2.733,4.046,10.976l-1.491.83a48.228,48.228,0,0,1-4.731-11.031Z" transform="translate(-1675.094 -1414.092)" fill="#31434f"/>
              </g>
              <path id="Trazado_36964" data-name="Trazado 36964" d="M1729.261,1334.7s13.714,17.877,50.248,20.6v4.476s-35.423-.789-52.871-21.338Z" transform="translate(-1618.59 -1262.109)" fill="#c19063"/>
              <g id="Grupo_34372" data-name="Grupo 34372" transform="translate(158.879 91.987)">
                <path id="Trazado_36965" data-name="Trazado 36965" d="M1841.372,1383.7c.072.01,1.082.208,1.155.206.7-.024.927-.616.957-1.289l1.3-5.447a1.249,1.249,0,0,0,0-.656,1.283,1.283,0,0,0-1.171-.9l-8.091.238a1.393,1.393,0,0,0-.751.258,1.723,1.723,0,0,0-.752,1.622l-.121,2.76c-.2,1.553.492,1.934,1.2,1.964Z" transform="translate(-1833.855 -1375.613)" fill="#c19063"/>
              </g>
              <path id="Trazado_36966" data-name="Trazado 36966" d="M1837.036,1373.913l-.332-.37a.576.576,0,0,1,.044-.811l2.671-2.78a.576.576,0,0,1,.811.044l.715.8a.576.576,0,0,1-.044.811l-3.054,2.352A.576.576,0,0,1,1837.036,1373.913Z" transform="translate(-1676.398 -1280.572)" fill="#ad754e"/>
              <path id="Trazado_36967" data-name="Trazado 36967" d="M1567.809,1342.269s-13.715,17.878-50.248,20.6v4.476s35.423-.789,52.871-21.339Z" transform="translate(-1508.635 -1266.09)" fill="#c19063"/>
              <g id="Grupo_34373" data-name="Grupo 34373" transform="translate(0 95.576)">
                <path id="Trazado_36968" data-name="Trazado 36968" d="M1502.183,1391.27c-.073.01-1.083.208-1.156.205-.7-.023-.927-.615-.957-1.288l-1.3-5.447a1.24,1.24,0,0,1,0-.656,1.283,1.283,0,0,1,1.171-.9l8.091.238a1.4,1.4,0,0,1,.751.258,1.724,1.724,0,0,1,.752,1.622l.121,2.76c.2,1.553-.492,1.934-1.2,1.964Z" transform="translate(-1498.732 -1383.183)" fill="#c19063"/>
              </g>
              <g id="Grupo_34374" data-name="Grupo 34374" transform="translate(54.545 80.528)">
                <path id="Trazado_36969" data-name="Trazado 36969" d="M1615.342,1351.538l1.246.241c.061.012.067-.084.008-.1l-1.246-.241c-.06-.012-.067.084-.007.1Z" transform="translate(-1614.582 -1351.442)" fill="#191817"/>
                <path id="Trazado_36970" data-name="Trazado 36970" d="M1617.933,1352.031c.428.481.845.971,1.273,1.451.041.046.114-.016.072-.062-.428-.481-.845-.971-1.273-1.452-.041-.046-.114.017-.073.063Z" transform="translate(-1615.96 -1351.71)" fill="#191817"/>
                <path id="Trazado_36971" data-name="Trazado 36971" d="M1620.6,1355.093c0,.419,0,.838,0,1.257,0,.061.1.069.1.007,0-.419,0-.838,0-1.256,0-.062-.1-.069-.1-.008Z" transform="translate(-1617.369 -1353.339)" fill="#191817"/>
                <path id="Trazado_36972" data-name="Trazado 36972" d="M1614.51,1351.5l-.71,3.155c-.013.059.077.092.091.031l.71-3.154c.014-.059-.077-.092-.091-.031Z" transform="translate(-1613.792 -1351.455)" fill="#191817"/>
                <path id="Trazado_36973" data-name="Trazado 36973" d="M1613.84,1358c1.078-.064,2.155-.143,3.233-.207.062,0,.044-.1-.017-.094-1.079.064-2.155.144-3.233.207-.062,0-.044.1.017.094Z" transform="translate(-1613.784 -1354.732)" fill="#191817"/>
                <path id="Trazado_36974" data-name="Trazado 36974" d="M1615.367,1351.6l2.487,2.927a.048.048,0,0,0,.073-.063l-2.487-2.927c-.04-.047-.112.015-.072.062Z" transform="translate(-1614.611 -1351.485)" fill="#191817"/>
                <path id="Trazado_36975" data-name="Trazado 36975" d="M1617.556,1352.676a6.552,6.552,0,0,0-.927.135c-.06.014-.043.109.017.094a6.482,6.482,0,0,1,.927-.135c.062-.006.043-.1-.017-.094Z" transform="translate(-1615.261 -1352.091)" fill="#191817"/>
                <path id="Trazado_36976" data-name="Trazado 36976" d="M1615.129,1353.04q-.662,1.188-1.261,2.41c-.027.055.064.086.09.031q.594-1.211,1.25-2.388c.029-.053-.05-.108-.08-.054Z" transform="translate(-1613.826 -1352.271)" fill="#191817"/>
                <path id="Trazado_36977" data-name="Trazado 36977" d="M1619.542,1354.257c-.092.3-.233.575-.326.871-.018.059.072.091.091.031.092-.3.233-.575.326-.871.018-.058-.072-.09-.091-.031Z" transform="translate(-1616.64 -1352.906)" fill="#191817"/>
                <path id="Trazado_36978" data-name="Trazado 36978" d="M1616.465,1356.111q-1.272.407-2.5.924c-.057.024-.016.11.041.087q1.232-.517,2.5-.925c.059-.018.017-.1-.041-.086Z" transform="translate(-1613.863 -1353.896)" fill="#191817"/>
              </g>
              <path id="Trazado_36979" data-name="Trazado 36979" d="M1647.21,1245.983s-3.957,5.958-1.95,9.326,2.424,4.579,1.355,5.622a3,3,0,0,0,1.583-2.683s.246,3.3,2.667,3.87,16.936-4.2,16.936-4.2Z" transform="translate(-1575.494 -1215.453)" fill="#261b17"/>
              <path id="Trazado_36980" data-name="Trazado 36980" d="M1686.84,1246.865s3.957,5.958,1.95,9.326-2.424,4.579-1.355,5.622a3,3,0,0,1-1.583-2.684s-.246,3.3-2.667,3.87-16.935-4.195-16.935-4.195Z" transform="translate(-1586.831 -1215.916)" fill="#261b17"/>
              <path id="Trazado_36981" data-name="Trazado 36981" d="M1633.5,1195.141a8.539,8.539,0,0,0-7.74-5.9c-6.307-.621-8.6,12.709-4.515,15.217s10.464-3.187,10.464-3.187Z" transform="translate(-1562.086 -1185.6)" fill="#3a3735"/>
              <path id="Trazado_36982" data-name="Trazado 36982" d="M1633.034,1200.039s-5.689-8.385-11.158-7.74-8.623,6.307-5.756,7.74,11.721,3.19,13.4,2.833S1633.106,1200.9,1633.034,1200.039Z" transform="translate(-1559.9 -1187.201)" fill="#261b17"/>
              <g id="Grupo_34375" data-name="Grupo 34375" transform="translate(69.251 28.334)">
                <circle id="Elipse_709" data-name="Elipse 709" cx="2.938" cy="2.938" r="2.938" fill="#c19063"/>
                <circle id="Elipse_710" data-name="Elipse 710" cx="1.724" cy="1.724" r="1.724" transform="translate(1.215 1.215)" fill="#ad754e"/>
              </g>
              <g id="Grupo_34376" data-name="Grupo 34376" transform="translate(97.255 28.01)">
                <circle id="Elipse_711" data-name="Elipse 711" cx="2.938" cy="2.938" r="2.938" fill="#c19063"/>
                <circle id="Elipse_712" data-name="Elipse 712" cx="1.724" cy="1.724" r="1.724" transform="translate(1.215 1.215)" fill="#ad754e"/>
              </g>
              <ellipse id="Elipse_713" data-name="Elipse 713" cx="12.342" cy="15.912" rx="12.342" ry="15.912" transform="translate(71.684 132.708) rotate(-88.184)" fill="#c19063"/>
              <path id="Trazado_36983" data-name="Trazado 36983" d="M1680.082,1289.754l-1.9,13.673-10.678.078-1.251-13.987Z" transform="translate(-1586.831 -1238.348)" fill="#c19063"/>
              <path id="Trazado_36984" data-name="Trazado 36984" d="M1679.124,1294.141s-7.4,3.919-12.424.418l-.451-5.041,13.833.236Z" transform="translate(-1586.831 -1238.348)" fill="#b28056"/>
              <path id="Trazado_36985" data-name="Trazado 36985" d="M1654.437,1317.976l-20.059,3.388s-6.819,3.89.564,11.713l6.223,43.959a52.064,52.064,0,0,0,31.278-2.341l3.3-41.077s8.814-6.031-.1-13.383Z" transform="translate(-1568.56 -1253.314)" fill="#c19063"/>
              <path id="Trazado_36986" data-name="Trazado 36986" d="M1641.971,1321.323l-4.409-2.617s14.675-6.277,22.6-5.755a58.826,58.826,0,0,1,18.668,4.624l-11.018,8.276Z" transform="translate(-1571.744 -1250.655)" fill="#c19063"/>
              <path id="Trazado_36987" data-name="Trazado 36987" d="M1675.648,1317.575a58.824,58.824,0,0,0-18.668-4.624c-7.927-.522-22.6,5.755-22.6,5.755s-6.819,3.89.564,11.712l6.223,43.959a52.064,52.064,0,0,0,31.278-2.341l3.3-41.077S1684.559,1324.927,1675.648,1317.575Z" transform="translate(-1568.56 -1250.655)" fill="#c19063"/>
              <g id="Grupo_34377" data-name="Grupo 34377" transform="translate(81.8 71.772)">
                <path id="Trazado_36988" data-name="Trazado 36988" d="M1683.332,1340.347c-.335.9-1.219,1.54-1.415,2.5-.136.666.162,1.056.837,1.061.694,0,1.058-.549,1.2-1.184a3.812,3.812,0,0,0-.433-2.382c-.05-.11-.211-.015-.162.095a4.111,4.111,0,0,1,.465,1.834c-.025.616-.386,1.666-1.216,1.443l-.513-.336a.753.753,0,0,1-.01-.339,1.7,1.7,0,0,1,.158-.562,4.191,4.191,0,0,1,.423-.691,6.035,6.035,0,0,0,.849-1.39c.042-.113-.139-.162-.181-.05Z" transform="translate(-1676.854 -1336.818)" fill="#191817"/>
                <path id="Trazado_36989" data-name="Trazado 36989" d="M1680.134,1340.22a2.988,2.988,0,0,0,1.128,1.965c.1.063.2-.1.095-.162a2.87,2.87,0,0,1-1.042-1.853c-.018-.119-.2-.068-.181.05Z" transform="translate(-1675.933 -1336.723)" fill="#191817"/>
                <path id="Trazado_36990" data-name="Trazado 36990" d="M1679.59,1340.139a3.812,3.812,0,0,0-.251,3,1.312,1.312,0,0,0,1.811.694c.109-.052.013-.215-.095-.162-.978.473-1.658-.46-1.741-1.344a4.821,4.821,0,0,1,.456-2.134c.044-.113-.138-.162-.181-.05Z" transform="translate(-1675.4 -1336.709)" fill="#191817"/>
                <path id="Trazado_36991" data-name="Trazado 36991" d="M1680.607,1340.026q.252-.462.489-.932l-.172-.022.239,1.26c.022.119.2.069.181-.05l-.238-1.26a.1.1,0,0,0-.172-.023q-.237.47-.489.932c-.058.105.1.2.162.095Z" transform="translate(-1676.09 -1336.119)" fill="#191817"/>
                <path id="Trazado_36992" data-name="Trazado 36992" d="M1681.387,1340.783a2.911,2.911,0,0,0,.988-1.906l-.172.023.606,1.022a.094.094,0,0,0,.162-.095l-.606-1.022a.1.1,0,0,0-.172.022,2.744,2.744,0,0,1-.9,1.794c-.1.071,0,.234.095.162Z" transform="translate(-1676.521 -1336.017)" fill="#191817"/>
                <path id="Trazado_36993" data-name="Trazado 36993" d="M1681.729,1338.9c.021-.155.067-.364.26-.374.162-.009.191.2.267.3s.232,0,.162-.095a2.252,2.252,0,0,0-.175-.3.34.34,0,0,0-.31-.092c-.279.051-.359.311-.392.557-.016.12.172.118.188,0Z" transform="translate(-1676.673 -1335.794)" fill="#191817"/>
                <path id="Trazado_36994" data-name="Trazado 36994" d="M1677.758,1341.534a1.244,1.244,0,0,0-.871-.025c-.364.132-.523.522-.847.716a.1.1,0,0,0-.02.147c.482.428-.05,1.206.5,1.661a1.2,1.2,0,0,0,1.351.094.094.094,0,0,0-.095-.162,1,1,0,0,1-.952.035.8.8,0,0,1-.427-.859,1,1,0,0,0-.248-.9l-.019.148c.509-.306.8-1.008,1.528-.691.11.047.206-.114.095-.162Z" transform="translate(-1673.756 -1337.428)" fill="#191817"/>
                <path id="Trazado_36995" data-name="Trazado 36995" d="M1685.679,1342.129a1.128,1.128,0,0,1,1.207.461,1.05,1.05,0,0,0,.563.358l-.022-.172a1.443,1.443,0,0,0-.571,1.061.931.931,0,0,1-.424.724.743.743,0,0,1-.991-.267.094.094,0,0,0-.162.095.933.933,0,0,0,1.248.334c.706-.365.357-1.349,1-1.786a.1.1,0,0,0-.022-.172c-.433-.124-.53-.508-.889-.723a1.423,1.423,0,0,0-.981-.1c-.119.021-.069.2.05.181Z" transform="translate(-1678.632 -1337.671)" fill="#191817"/>
                <path id="Trazado_36996" data-name="Trazado 36996" d="M1679.766,1338.6a2.279,2.279,0,0,0-.935-.281.1.1,0,0,0-.094.094c-.018.609-1.046.77-.729,1.476.049.11.211.015.162-.095-.155-.345.234-.583.445-.792a.861.861,0,0,0,.31-.589l-.094.094a2.213,2.213,0,0,1,.885.274c.115.038.164-.143.05-.181Z" transform="translate(-1674.783 -1335.785)" fill="#191817"/>
                <path id="Trazado_36997" data-name="Trazado 36997" d="M1683.852,1339.167a3.885,3.885,0,0,1,.337-.2c.28-.113.431,0,.662.107a.8.8,0,0,0,.567.078l-.119-.09a.686.686,0,0,0,.123.342c.068.1.2.183.243.292a.624.624,0,0,1-.113.6c-.068.1.095.194.162.095a.749.749,0,0,0,.212-.547c-.046-.315-.406-.46-.44-.778a.1.1,0,0,0-.119-.091c-.367.084-.634-.263-.992-.246a1.511,1.511,0,0,0-.618.279c-.107.057-.012.219.095.162Z" transform="translate(-1677.814 -1335.999)" fill="#191817"/>
                <path id="Trazado_36998" data-name="Trazado 36998" d="M1677.975,1347.131c-.38.165-.6.522-.282.873a1.286,1.286,0,0,0,.677.321,2.821,2.821,0,0,1,1.208.662.1.1,0,0,0,.133,0,4.312,4.312,0,0,1,1.847-.693c.366-.12.655-.287.689-.7.01-.12-.178-.12-.188,0-.043.516-.829.6-1.226.7a4.055,4.055,0,0,0-1.042.368c-.212.115-.228.048-.414-.088a2.508,2.508,0,0,0-.542-.3c-.2-.082-.417-.118-.625-.185-.431-.14-.687-.562-.14-.8.111-.047.015-.209-.095-.162Z" transform="translate(-1674.569 -1340.415)" fill="#191817"/>
                <path id="Trazado_36999" data-name="Trazado 36999" d="M1683.4,1347.948a1.117,1.117,0,0,0,.889,1.105,1.39,1.39,0,0,0,.777-.153,1.858,1.858,0,0,1,1.564-.079.1.1,0,0,0,.138-.106c-.22-.711.719-1.064.6-1.79-.1-.63-.814-.849-1.365-.837a.094.094,0,0,0,0,.188,1.23,1.23,0,0,1,1.079.427c.251.38.025.736-.208,1.04a1.03,1.03,0,0,0-.286,1.023l.138-.106a1.875,1.875,0,0,0-1.452-.047c-.325.112-.629.33-.992.251a.934.934,0,0,1-.692-.915.094.094,0,0,0-.188,0Z" transform="translate(-1677.65 -1339.871)" fill="#191817"/>
                <path id="Trazado_37000" data-name="Trazado 37000" d="M1687.791,1340.16a1.633,1.633,0,0,1,.9.091,2.968,2.968,0,0,1,.593.531,1.424,1.424,0,0,0,1.009.432l-.047-.175a.917.917,0,0,0-.425.791c0,.206.04.41.038.615,0,.181-.221.8-.536.678-.113-.044-.162.138-.05.181.253.1.562-.212.675-.411.322-.567-.241-1.234.393-1.693a.1.1,0,0,0-.047-.175c-.657-.012-.887-.491-1.354-.834a1.585,1.585,0,0,0-1.146-.219c-.12.009-.121.2,0,.188Z" transform="translate(-1679.913 -1336.647)" fill="#191817"/>
                <path id="Trazado_37001" data-name="Trazado 37001" d="M1678.373,1337.329c-.129-.287-.208-.446-.025-.727a.646.646,0,0,1,.518-.33c.3-.063.607-.079.9-.159.559-.153.774-.515,1.056-.986l-.172-.023c.157.523.578.712,1.068.863.805.248,1.407.528,1.436,1.46,0,.12.191.121.188,0a1.452,1.452,0,0,0-.622-1.27c-.6-.394-1.649-.3-1.889-1.1a.1.1,0,0,0-.171-.022,1.609,1.609,0,0,1-1.165.945,4.6,4.6,0,0,0-1,.207c-.566.245-.5.754-.283,1.239.05.11.211.015.162-.095Z" transform="translate(-1674.839 -1334.033)" fill="#191817"/>
                <path id="Trazado_37002" data-name="Trazado 37002" d="M1675.242,1339.114a2.271,2.271,0,0,0-1.281.176,3.8,3.8,0,0,0-.413.357,2.328,2.328,0,0,1-.948.345.1.1,0,0,0-.042.157,2.157,2.157,0,0,1,.382,1.389,1.637,1.637,0,0,0,.177.913c.386.567,1.042.484,1.618.354.118-.027.068-.208-.05-.181a1.313,1.313,0,0,1-1.308-.155c-.29-.274-.242-.7-.253-1.065a2.183,2.183,0,0,0-.434-1.388l-.041.157a2.468,2.468,0,0,0,1.031-.393,1.8,1.8,0,0,1,.671-.45,3.263,3.263,0,0,1,.89-.028.094.094,0,0,0,0-.188Z" transform="translate(-1671.937 -1336.198)" fill="#191817"/>
                <path id="Trazado_37003" data-name="Trazado 37003" d="M1675.248,1346.836a1.177,1.177,0,0,0-.1,1.067c.3.618,1.05.811.923,1.64a.1.1,0,0,0,.116.116,2.782,2.782,0,0,1,1.1-.052,4.573,4.573,0,0,0,.808.117,1.436,1.436,0,0,0,.675-.149c.233-.127.376-.375.625-.478.11-.045.062-.227-.05-.181a1.523,1.523,0,0,0-.408.289,1.461,1.461,0,0,1-1.3.281,3.782,3.782,0,0,0-1.508-.009l.115.115a1.28,1.28,0,0,0-.282-1.042c-.123-.158-.277-.281-.411-.428a.931.931,0,0,1-.146-1.192c.052-.109-.109-.2-.162-.095Z" transform="translate(-1673.263 -1340.239)" fill="#191817"/>
                <path id="Trazado_37004" data-name="Trazado 37004" d="M1685.486,1335.078c.129-.12.252-.244.373-.372.151-.159.272-.443.488-.11a.1.1,0,0,0,.147.019,4.166,4.166,0,0,1,.971-.75l-.129-.034c.074.163.1.333.3.316s.643-.642.827-.274a.1.1,0,0,0,.128.034,2.165,2.165,0,0,1,1.042-.286c.224.05.1.3.069.474a6.692,6.692,0,0,0-.106.686c-.012.12.176.119.188,0,.026-.266.394-1.2,0-1.341a2.184,2.184,0,0,0-1.292.3l.128.034c-.1-.2-.21-.309-.432-.222-.261.1-.516.585-.7.18a.1.1,0,0,0-.129-.034,4.322,4.322,0,0,0-1.009.779l.147.019a1.127,1.127,0,0,0-.3-.316.094.094,0,0,0-.114.015c-.251.244-.481.507-.738.745-.089.083.044.215.133.133Z" transform="translate(-1678.663 -1333.204)" fill="#191817"/>
                <path id="Trazado_37005" data-name="Trazado 37005" d="M1693.1,1336.375l.239-.068-.116-.116a5.122,5.122,0,0,1-.346.615c-.024.047-.062.075-.071.128-.022.132.171.266.165.312-.013.105-.322.222-.384.354-.076.164-.011.277.078.422l.034-.128a3.947,3.947,0,0,1-.5.224.1.1,0,0,0-.065.116,1.234,1.234,0,0,0,.211.364l.034-.129c-.192.1-.47.159-.607.333-.074.094.058.228.133.133.122-.155.4-.218.569-.3a.094.094,0,0,0,.034-.128,1.878,1.878,0,0,1-.192-.319l-.066.115a4.382,4.382,0,0,0,.548-.243.1.1,0,0,0,.034-.128c-.222-.36.315-.394.369-.7a.1.1,0,0,0-.043-.106c-.2-.145.176-.67.249-.875a.094.094,0,0,0-.116-.115l-.239.068a.094.094,0,0,0,.05.181Z" transform="translate(-1682.042 -1334.63)" fill="#191817"/>
                <path id="Trazado_37006" data-name="Trazado 37006" d="M1671.686,1333.2c.065.425,0,.853.085,1.277l.115-.116a1.776,1.776,0,0,0-.519-.049.1.1,0,0,0-.091.119c.1.338.366.54.529.841l.056-.138a3.1,3.1,0,0,0-.431.149.1.1,0,0,0-.065.115.815.815,0,0,0,.283.374c.2.175.345.385.534.566l.019-.147c-.129.057-.278.073-.412.117a.1.1,0,0,0-.041.157c.125.12.255.234.375.36.084.087.217-.046.133-.133-.12-.125-.25-.239-.375-.359l-.042.157a4.481,4.481,0,0,0,.457-.136.1.1,0,0,0,.019-.147c-.136-.13-.237-.286-.368-.42s-.332-.233-.4-.437l-.065.116a3.1,3.1,0,0,1,.431-.149.1.1,0,0,0,.057-.138c-.152-.281-.421-.48-.51-.8l-.09.119a1.329,1.329,0,0,1,.469.043.1.1,0,0,0,.116-.115c-.085-.423-.02-.852-.085-1.277-.018-.119-.2-.068-.181.05Z" transform="translate(-1671.274 -1333.032)" fill="#191817"/>
                <path id="Trazado_37007" data-name="Trazado 37007" d="M1672.121,1333.149a8.787,8.787,0,0,0,1.079.335.1.1,0,0,0,.106-.043,2.71,2.71,0,0,0,.157-.318l-.128.034a2.876,2.876,0,0,1,.8.622.1.1,0,0,0,.147.019c.328-.4.822.345,1.015.588a.09.09,0,0,0,.091.024c.191-.073.3-.193.453-.014a7.232,7.232,0,0,1,.439.663c.068.1.23.005.162-.095a5.323,5.323,0,0,0-.525-.795.26.26,0,0,0-.184-.1c-.24-.016-.226.154-.49-.043-.247-.185-.441-.457-.694-.647a.091.091,0,0,0-.095,0,1.267,1.267,0,0,0-.306.286l.148.019a3.119,3.119,0,0,0-.863-.69.1.1,0,0,0-.128.034c-.109.241-.106.238-.38.172a2.764,2.764,0,0,1-.705-.214c-.106-.057-.2.1-.095.162Z" transform="translate(-1671.695 -1332.975)" fill="#191817"/>
                <path id="Trazado_37008" data-name="Trazado 37008" d="M1673.455,1334.628" transform="translate(-1672.421 -1333.844)" fill="#191817"/>
                <path id="Trazado_37009" data-name="Trazado 37009" d="M1673.264,1334.579a8.052,8.052,0,0,0,1.089,1.107,4.335,4.335,0,0,1,1.005,1.017c.059.106.221.011.162-.095a3.654,3.654,0,0,0-.871-.913,8.5,8.5,0,0,1-1.223-1.21c-.073-.095-.236,0-.162.094Z" transform="translate(-1672.311 -1333.748)" fill="#191817"/>
                <path id="Trazado_37010" data-name="Trazado 37010" d="M1689.111,1337.1a3.118,3.118,0,0,1,.787-.76c.344-.277.677-.563,1.038-.818.1-.069,0-.232-.095-.162-.374.264-.72.56-1.076.848a3.207,3.207,0,0,0-.816.8.094.094,0,0,0,.162.095Z" transform="translate(-1680.562 -1334.218)" fill="#191817"/>
                <path id="Trazado_37011" data-name="Trazado 37011" d="M1674.187,1338.678a2.4,2.4,0,0,1,1.521.093c.11.049.205-.113.095-.162a2.59,2.59,0,0,0-1.665-.111.094.094,0,0,0,.05.181Z" transform="translate(-1672.745 -1335.834)" fill="#191817"/>
                <path id="Trazado_37012" data-name="Trazado 37012" d="M1673.729,1337.532a7.892,7.892,0,0,1,1.243.048c.118.026.168-.155.05-.181a8.2,8.2,0,0,0-1.293-.055c-.121-.007-.12.181,0,.188Z" transform="translate(-1672.517 -1335.273)" fill="#191817"/>
                <path id="Trazado_37013" data-name="Trazado 37013" d="M1673.666,1336.371c.2.008.393-.022.59-.026a.094.094,0,0,0,0-.188c-.2,0-.393.033-.59.026-.121,0-.12.183,0,.188Z" transform="translate(-1672.484 -1334.649)" fill="#191817"/>
                <path id="Trazado_37014" data-name="Trazado 37014" d="M1675.152,1334.96a1.944,1.944,0,0,1-.026.615c-.037.116.145.165.181.05a2.092,2.092,0,0,0,.033-.665.094.094,0,0,0-.188,0Z" transform="translate(-1673.297 -1333.971)" fill="#191817"/>
                <path id="Trazado_37015" data-name="Trazado 37015" d="M1676.43,1335.878v.768a.094.094,0,0,0,.188,0v-.768a.094.094,0,0,0-.188,0Z" transform="translate(-1673.986 -1334.454)" fill="#191817"/>
                <path id="Trazado_37016" data-name="Trazado 37016" d="M1677.6,1336.284a4.164,4.164,0,0,0-.063,1.2.094.094,0,0,0,.188,0,3.992,3.992,0,0,1,.056-1.152.094.094,0,0,0-.181-.05Z" transform="translate(-1674.561 -1334.68)" fill="#191817"/>
                <path id="Trazado_37017" data-name="Trazado 37017" d="M1688.5,1336.77a2.173,2.173,0,0,1,.232.973c-.006.121.181.12.188,0a2.3,2.3,0,0,0-.239-1.023c-.046-.11-.228-.062-.181.05Z" transform="translate(-1680.329 -1334.912)" fill="#191817"/>
                <path id="Trazado_37018" data-name="Trazado 37018" d="M1689.885,1336.3c.1.2.037.435.108.643.039.114.22.065.181-.05-.077-.227-.014-.469-.127-.688-.056-.107-.218-.013-.162.095Z" transform="translate(-1681.056 -1334.648)" fill="#191817"/>
                <path id="Trazado_37019" data-name="Trazado 37019" d="M1691.114,1335.636a1.164,1.164,0,0,1,.056.461.094.094,0,0,0,.188,0,1.323,1.323,0,0,0-.062-.511c-.046-.11-.228-.061-.181.05Z" transform="translate(-1681.704 -1334.315)" fill="#191817"/>
                <path id="Trazado_37020" data-name="Trazado 37020" d="M1689.1,1338.988a1.749,1.749,0,0,1,.956.269c.1.065.2-.1.095-.162a1.916,1.916,0,0,0-1.051-.294c-.12.006-.121.194,0,.188Z" transform="translate(-1680.6 -1336.038)" fill="#191817"/>
                <path id="Trazado_37021" data-name="Trazado 37021" d="M1690.4,1337.695a3.153,3.153,0,0,1,.742.2.094.094,0,0,0,.05-.181,3.342,3.342,0,0,0-.792-.208c-.121,0-.12.183,0,.188Z" transform="translate(-1681.287 -1335.358)" fill="#191817"/>
                <path id="Trazado_37022" data-name="Trazado 37022" d="M1691.586,1336.723a1.216,1.216,0,0,1,.572.115c.107.056.2-.105.095-.162a1.419,1.419,0,0,0-.667-.141.094.094,0,0,0,0,.188Z" transform="translate(-1681.908 -1334.847)" fill="#191817"/>
              </g>
              <path id="Trazado_37023" data-name="Trazado 37023" d="M1678.9,1198.459c.508-6.906-5.69-9.883-13.829-10.482-8.008-.588-16.1,3.213-16.308,9.933h-.012l.008.113c0,.071-.007.142-.006.214a12.265,12.265,0,0,0,.18,1.992l2.037,25.866a11.268,11.268,0,0,0,5.253,9.351l2.258,2.146a7.053,7.053,0,0,0,5.3,1.7,9.87,9.87,0,0,0,5.962-1.779l2.226-2.179a11.268,11.268,0,0,0,5.117-9.426l1.7-26.475C1678.832,1199.106,1678.874,1198.781,1678.9,1198.459Z" transform="translate(-1577.627 -1184.916)" fill="#c19063"/>
              <path id="Trazado_37024" data-name="Trazado 37024" d="M1673.272,1379.9l1.95-48.583c1.031-.817,3.763-3.3,3.92-6.8.122-2.731-1.335-5.369-4.332-7.841l-.117-.1-.141-.057a67.423,67.423,0,0,0-12.707-3.892c.921,5.482,3.321,18.606-7.73,18.143-10.612-.445-9.976-14.163-9.333-17.364a104.758,104.758,0,0,0-12.241,4.253l-.051.022-.048.027a7.14,7.14,0,0,0-3.29,4.819c-.379,2.544.77,5.293,3.417,8.174l4.038,50.3S1662.593,1384.345,1673.272,1379.9Z" transform="translate(-1567.284 -1250.502)" fill="#fff"/>
              <path id="Trazado_37025" data-name="Trazado 37025" d="M1629.695,1326.818l-3.134-3.577s-6.828,4.511-9.193,9.456c0,0,1.6,6.221,9.9,8.414l6.364-10.421Z" transform="translate(-1561.124 -1256.083)" fill="#fff"/>
              <path id="Trazado_37026" data-name="Trazado 37026" d="M1716.585,1325.555l2.092-4.716s7.87,5.65,10.235,10.6c0,0-1.605,6.221-9.9,8.414l-6.365-10.421Z" transform="translate(-1611.23 -1254.82)" fill="#fff"/>
              <path id="Trazado_37027" data-name="Trazado 37027" d="M1646.417,1199.425l-.039,5.985s-.093,6.426-.606,7.222c-.314.487-.628.225-.628.225s-3.1-2.325-3.457-5.335V1205.3a7.82,7.82,0,0,1-2.222-7.955c1.361-5.017.531-11.539,6.966-12.972,0,0,6.285-4.3,12.273-2.222,0,0,11.721-.392,14.8,5.072,0,0,5.3,8.115,3.082,14.064l-1.147,2.8s-1.8,7.567-2.7,7.564-1.955-5.916-1.525-10.287-1.2-6.716-2.563-7.36-2.939.454-8.457.717c-6.02.286-8.17-1.076-9.89-.645S1646.389,1197.205,1646.417,1199.425Z" transform="translate(-1572.582 -1181.585)" fill="#261b17"/>
              <path id="Trazado_37028" data-name="Trazado 37028" d="M1689.946,1223.47s.247,2.412,1,2.82,4.122.349,5.521,1.836c0,0,.705-2.062-.52-2.885S1692.043,1223.053,1689.946,1223.47Z" transform="translate(-1599.293 -1203.572)" fill="#261b17"/>
              <path id="Trazado_37029" data-name="Trazado 37029" d="M1664.769,1222.911s0,2.425-.716,2.907-4.067.76-5.31,2.38c0,0-.908-1.981.228-2.923S1662.641,1222.706,1664.769,1222.911Z" transform="translate(-1582.702 -1203.309)" fill="#261b17"/>
              <path id="Trazado_37030" data-name="Trazado 37030" d="M1659.863,1197.561s-2.632-5.982-6.142-8.273c0,0,3.15-.8,6.728,6.8C1660.449,1196.084,1661.162,1197.739,1659.863,1197.561Z" transform="translate(-1580.242 -1185.623)" fill="#3a3735"/>
              <path id="Trazado_37031" data-name="Trazado 37031" d="M1668.624,1194.235s-.573-7.663-3.447-11.31c0,0,3.641-.031,4.617,9.77C1669.794,1192.695,1669.936,1194.81,1668.624,1194.235Z" transform="translate(-1586.267 -1182.29)" fill="#3a3735"/>
              <path id="Trazado_37032" data-name="Trazado 37032" d="M1690.054,1195.3s.816-7.459,3.447-10.943c0,0-3.135-.122-4.39,9.412C1689.111,1193.766,1688.9,1195.825,1690.054,1195.3Z" transform="translate(-1598.846 -1183.041)" fill="#3a3735"/>
              <path id="Trazado_37033" data-name="Trazado 37033" d="M1695.884,1196.374s1.324-6.225,3.841-8.943c0,0-2.635-.37-4.506,7.57C1695.219,1195,1694.864,1196.721,1695.884,1196.374Z" transform="translate(-1602.035 -1184.658)" fill="#3a3735"/>
              <path id="Trazado_37034" data-name="Trazado 37034" d="M1618.313,1213.952a2.909,2.909,0,0,0,.779,2.266c1.194.98,12.991-2.549,12.991-2.549S1619.191,1211.321,1618.313,1213.952Z" transform="translate(-1561.617 -1197.951)" fill="#261b17"/>
              <path id="Trazado_37035" data-name="Trazado 37035" d="M1673.035,1261.882s-2.275-2.182-4.681-.715-5.308,3.369-5.308,3.369a5.159,5.159,0,0,0,4.389,0c2.061-1.151,4.319-.286,5.071-.719S1673.035,1261.882,1673.035,1261.882Z" transform="translate(-1585.146 -1223.171)" fill="#261b17"/>
              <path id="Trazado_37036" data-name="Trazado 37036" d="M1682.523,1261.882s2.275-2.182,4.681-.715,5.308,3.369,5.308,3.369a5.159,5.159,0,0,1-4.389,0c-2.061-1.151-4.319-.286-5.071-.719S1682.523,1261.882,1682.523,1261.882Z" transform="translate(-1595.373 -1223.171)" fill="#261b17"/>
              <path id="Trazado_37037" data-name="Trazado 37037" d="M1679.22,1280.933s-2.57-.774-3.556,1.1-.338,6.011,1.281,7.263l.751-.936.365,2.012a8.356,8.356,0,0,0,1.273-1.9l.687,1.067S1683.749,1282.693,1679.22,1280.933Z" transform="translate(-1591.537 -1233.75)" fill="#261b17"/>
              <g id="Grupo_34379" data-name="Grupo 34379" transform="translate(62.334 62.127)">
                <path id="Trazado_37038" data-name="Trazado 37038" d="M1641.8,1314.115s-3.363,18.572,9.747,20.158l2.462,51.538-18.375-1.329-1.189-41.373a58.838,58.838,0,0,0-2.456-24.667Z" transform="translate(-1631.148 -1313.411)" fill="#a89469"/>
                <path id="Trazado_37039" data-name="Trazado 37039" d="M1631.855,1321.611s2.058,3.234,2.69,11.307a49.719,49.719,0,0,1-1.02,14.56l-1.267-1.552s1.035-2.309.719-10.911c-.386-10.522-2.763-12.264-2.763-12.264Z" transform="translate(-1630.213 -1317.353)" fill="#917a46"/>
                <g id="Grupo_34378" data-name="Grupo 34378" transform="translate(6.598 36.142)">
                  <path id="Trazado_37040" data-name="Trazado 37040" d="M1644.692,1389.7h9.8l.425,9.417-4.588,2.657-5.144-1.675Z" transform="translate(-1644.426 -1389.303)" fill="#917a46"/>
                  <path id="Trazado_37041" data-name="Trazado 37041" d="M1665.229,1398.677l.913-2.577-.457-7.236h-1.377Z" transform="translate(-1654.742 -1388.864)" fill="#846e41"/>
                  <path id="Trazado_37042" data-name="Trazado 37042" d="M1644.131,1391.639l5.255,1.388,5.232-1.591-.227-2.573h-10.26Z" transform="translate(-1644.131 -1388.864)" fill="#725e36"/>
                  <path id="Trazado_37043" data-name="Trazado 37043" d="M1651.243,1399.214l.133,5.3h-3.691l3.691.586,4.19-1.28-3.668.595Z" transform="translate(-1646 -1394.307)" fill="#846e41"/>
                  <circle id="Elipse_714" data-name="Elipse 714" cx="0.397" cy="0.397" r="0.397" transform="translate(4.881 2.078)" fill="#917a46"/>
                </g>
                <path id="Trazado_37044" data-name="Trazado 37044" d="M1656.468,1418.794l.516,18.965A73.761,73.761,0,0,0,1656.468,1418.794Z" transform="translate(-1644.021 -1368.462)" fill="#d6bf92"/>
                <path id="Trazado_37045" data-name="Trazado 37045" d="M1654.427,1358.028v6.476S1655,1362.521,1654.427,1358.028Z" transform="translate(-1642.947 -1336.505)" fill="#d6bf92"/>
                <path id="Trazado_37046" data-name="Trazado 37046" d="M1654.79,1377.335a63.653,63.653,0,0,1-17.529.495l.1,3.022a74.794,74.794,0,0,0,17.559-.4Z" transform="translate(-1633.92 -1346.658)" fill="#917a46"/>
                <path id="Trazado_37047" data-name="Trazado 37047" d="M1672.616,1356.634l2.2,51.454.676-.6-1.928-50.2Z" transform="translate(-1652.513 -1335.771)" fill="#846e41"/>
                <path id="Trazado_37048" data-name="Trazado 37048" d="M1654.958,1381.957l.045.934a74.816,74.816,0,0,1-17.581.392l-.04-1.247A77.8,77.8,0,0,0,1654.958,1381.957Z" transform="translate(-1633.983 -1349.089)" fill="#725e36"/>
                <path id="Trazado_37049" data-name="Trazado 37049" d="M1652.247,1312.629s-4.226,17.293,9.46,20.763l-.053,1.672s-9.037-1.384-11.08-9.954-.323-12.481-.323-12.481Z" transform="translate(-1640.395 -1312.629)" fill="#917a46"/>
                <path id="Trazado_37050" data-name="Trazado 37050" d="M1639.29,1461.251l18.9,1.288.032,1.322-18.931-1.4Z" transform="translate(-1634.987 -1390.79)" fill="#917a46"/>
              </g>
              <g id="Grupo_34381" data-name="Grupo 34381" transform="translate(88.925 61.808)">
                <path id="Trazado_37051" data-name="Trazado 37051" d="M1696.944,1313.5s3.963,18.453-9.09,20.463l-.793,51.59,18.322-1.923-.15-41.389a58.839,58.839,0,0,1,1.656-24.734Z" transform="translate(-1686.701 -1312.767)" fill="#a89469"/>
                <path id="Trazado_37052" data-name="Trazado 37052" d="M1695.588,1312.022s4.783,17.147-8.784,21.058l.108,1.67s8.987-1.676,10.752-10.308-.081-12.485-.081-12.485Z" transform="translate(-1686.565 -1311.957)" fill="#917a46"/>
                <path id="Trazado_37053" data-name="Trazado 37053" d="M1724.518,1320.374s-1.952,3.3-2.322,11.388a49.726,49.726,0,0,0,1.491,14.52l1.216-1.592s-1.109-2.274-1.072-10.882c.046-10.529,2.365-12.347,2.365-12.347Z" transform="translate(-1705.153 -1316.384)" fill="#917a46"/>
                <g id="Grupo_34380" data-name="Grupo 34380" transform="translate(4.091 36.021)">
                  <path id="Trazado_37054" data-name="Trazado 37054" d="M1706.941,1388.79l-9.79.317-.12,9.426,4.672,2.508,5.087-1.841Z" transform="translate(-1696.035 -1388.385)" fill="#917a46"/>
                  <path id="Trazado_37055" data-name="Trazado 37055" d="M1695.926,1398.427l-1-2.546.222-7.247,1.376-.044Z" transform="translate(-1694.929 -1388.28)" fill="#846e41"/>
                  <path id="Trazado_37056" data-name="Trazado 37056" d="M1707.024,1390.71l-5.207,1.557-5.28-1.421.143-2.578,10.255-.332Z" transform="translate(-1695.775 -1387.936)" fill="#725e36"/>
                  <path id="Trazado_37057" data-name="Trazado 37057" d="M1703.123,1398.639l.038,5.305,3.689-.12-3.67.705-4.229-1.144,3.685.476Z" transform="translate(-1697.044 -1393.565)" fill="#846e41"/>
                  <circle id="Elipse_715" data-name="Elipse 715" cx="0.397" cy="0.397" r="0.397" transform="translate(5.568 2.247)" fill="#917a46"/>
                </g>
                <path id="Trazado_37058" data-name="Trazado 37058" d="M1707.019,1416.385l-.044,19.556A85.235,85.235,0,0,1,1707.019,1416.385Z" transform="translate(-1696.88 -1366.877)" fill="#d6bf92"/>
                <path id="Trazado_37059" data-name="Trazado 37059" d="M1707.425,1357.443l.21,6.473S1707,1361.953,1707.425,1357.443Z" transform="translate(-1697.333 -1335.878)" fill="#d6bf92"/>
                <path id="Trazado_37060" data-name="Trazado 37060" d="M1705.149,1460.122l-18.848,1.9.01,1.322,18.876-2.014Z" transform="translate(-1686.301 -1389.878)" fill="#917a46"/>
              </g>
              <path id="Trazado_37061" data-name="Trazado 37061" d="M1688.4,1377.327a62.232,62.232,0,0,0,17.543.55l.016,2.971a74.79,74.79,0,0,1-17.559-.4Z" transform="translate(-1598.479 -1284.527)" fill="#917a46"/>
              <path id="Trazado_37062" data-name="Trazado 37062" d="M1688.4,1381.59v1.1a74.786,74.786,0,0,0,17.559.4l-.007-1.166A82.812,82.812,0,0,1,1688.4,1381.59Z" transform="translate(-1598.479 -1286.769)" fill="#725e36"/>
              <g id="Grupo_34382" data-name="Grupo 34382" transform="translate(85.465 28.826)">
                <path id="Trazado_37063" data-name="Trazado 37063" d="M1682.633,1245.854a11.211,11.211,0,0,1-.9-2.182c-.286-1.074-.746-1.468-1.752-1.2s-2.457,8.106,2.806,9.385,5.055-2.546,4.469-3.527S1684.178,1248.585,1682.633,1245.854Z" transform="translate(-1679.002 -1242.388)" fill="#e28f56"/>
                <path id="Trazado_37064" data-name="Trazado 37064" d="M1682.963,1251.618c-4.508-1.194-3.938-7.146-3.047-8.934-.993,1.033-2.125,8.013,2.8,9.317,2.757.73,4.026.015,4.527-.972C1686.615,1251.8,1685.346,1252.249,1682.963,1251.618Z" transform="translate(-1679.027 -1242.544)" fill="#c97236"/>
              </g>
              <g id="Grupo_34383" data-name="Grupo 34383" transform="translate(77.729 25.404)">
                <path id="Trazado_37065" data-name="Trazado 37065" d="M1667.361,1237.382a2.341,2.341,0,1,1-2.338-2.212A2.278,2.278,0,0,1,1667.361,1237.382Z" transform="translate(-1662.686 -1235.17)" fill="#231f20"/>
                <path id="Trazado_37066" data-name="Trazado 37066" d="M1668.978,1238.222a.61.61,0,0,1-.008.824c-.3.33.19.822.49.49a1.292,1.292,0,0,0,.117-1.664.359.359,0,0,0-.474-.125.348.348,0,0,0-.125.474Z" transform="translate(-1665.942 -1236.502)" fill="#fff"/>
              </g>
              <g id="Grupo_34384" data-name="Grupo 34384" transform="translate(91.281 25.404)">
                <path id="Trazado_37067" data-name="Trazado 37067" d="M1695.947,1237.382a2.341,2.341,0,1,1-2.338-2.212A2.278,2.278,0,0,1,1695.947,1237.382Z" transform="translate(-1691.272 -1235.17)" fill="#231f20"/>
                <path id="Trazado_37068" data-name="Trazado 37068" d="M1697.564,1238.222a.611.611,0,0,1-.009.824c-.3.33.191.822.49.49a1.293,1.293,0,0,0,.116-1.664.359.359,0,0,0-.474-.125.349.349,0,0,0-.124.474Z" transform="translate(-1694.528 -1236.502)" fill="#fff"/>
              </g>
              <path id="Trazado_37069" data-name="Trazado 37069" d="M1513.655,1381.484l.332-.37a.576.576,0,0,0-.044-.811l-2.67-2.78a.576.576,0,0,0-.811.044l-.716.8a.577.577,0,0,0,.045.811l3.054,2.352A.576.576,0,0,0,1513.655,1381.484Z" transform="translate(-1504.448 -1284.553)" fill="#ad754e"/>
              <g id="Grupo_34386" data-name="Grupo 34386" transform="translate(83.616 41.365)">
                <g id="Grupo_34385" data-name="Grupo 34385" transform="translate(3.625 1.127)">
                  <path id="Trazado_37070" data-name="Trazado 37070" d="M1682.748,1276.034a2.654,2.654,0,0,0,2.576-.153A1.808,1.808,0,0,1,1682.748,1276.034Z" transform="translate(-1682.748 -1273.668)" fill="#f29fa0"/>
                  <path id="Trazado_37071" data-name="Trazado 37071" d="M1692.015,1271.214s.394.072.253.387C1692.268,1271.6,1692.681,1271.2,1692.015,1271.214Z" transform="translate(-1687.621 -1271.214)" fill="#e69f73"/>
                </g>
                <path id="Trazado_37072" data-name="Trazado 37072" d="M1675.3,1270.219s-.734-1.754.656-1.311C1675.952,1268.907,1674.976,1268.849,1675.3,1270.219Z" transform="translate(-1675.103 -1268.836)" fill="#3a3a3a"/>
                <path id="Trazado_37073" data-name="Trazado 37073" d="M1675.244,1269.513s4.07,4.279,7.963,1.008c0,0-2.606,2.443-7.622-1.192Z" transform="translate(-1675.177 -1269.095)" fill="#3a3a3a"/>
              </g>
            </g>
            <g id="Grupo_34389" data-name="Grupo 34389" transform="translate(69.606 24.145)">
              <path id="Trazado_37074" data-name="Trazado 37074" d="M1663.109,1233.747c-.995.051-2.957.071-3.9.87s-.81,2.76-.521,3.87a4.529,4.529,0,0,0,2.785,3.534,4.924,4.924,0,0,0,5.405-1.411c1.3-1.491,1.941-4.016,1.138-5.326S1664.148,1233.694,1663.109,1233.747Z" transform="translate(-1652.347 -1233.159)" fill="#fff" opacity="0.05"/>
              <path id="Trazado_37075" data-name="Trazado 37075" d="M1696.171,1234.282c-.959-.782-2.922-.767-3.917-.8-1.04-.035-4.1.3-4.876,1.626s-.089,3.837,1.234,5.3a4.924,4.924,0,0,0,5.43,1.312,4.528,4.528,0,0,0,2.72-3.583C1697.031,1237.027,1697.13,1235.063,1696.171,1234.282Z" transform="translate(-1667.377 -1233.022)" fill="#fff" opacity="0.05"/>
              <g id="Grupo_34388" data-name="Grupo 34388">
                <path id="Trazado_37076" data-name="Trazado 37076" d="M1675.394,1233.165a28.989,28.989,0,0,0-4.291-.651,12.358,12.358,0,0,0-4.112.533,15.531,15.531,0,0,1-1.946.7,7.537,7.537,0,0,0-3.337.03,15.562,15.562,0,0,1-1.96-.669,12.389,12.389,0,0,0-4.126-.459,29.484,29.484,0,0,0-4.311.729c-.5.071-.982.118-.982.118l.011,1.164a.676.676,0,0,1,.576.522,18.931,18.931,0,0,0,.759,3.837,4.688,4.688,0,0,0,3.223,2.936,5.587,5.587,0,0,0,4.5-.678,6.763,6.763,0,0,0,2.2-2.634,13.172,13.172,0,0,0,.789-3.668c.128-.367.56-.43,1-.434s.872.051,1.007.415a13.136,13.136,0,0,0,.854,3.653,6.766,6.766,0,0,0,2.243,2.594,5.581,5.581,0,0,0,4.511.6,4.677,4.677,0,0,0,3.163-2.994,18.349,18.349,0,0,0,.657-3.85.646.646,0,0,1,.522-.532l-.01-1.164S1675.9,1233.226,1675.394,1233.165Zm-15.312,6.8a4.924,4.924,0,0,1-5.406,1.411,4.529,4.529,0,0,1-2.785-3.533c-.289-1.11-.423-3.071.521-3.871s2.908-.819,3.9-.87c1.039-.053,4.1.228,4.9,1.538S1661.379,1238.474,1660.082,1239.965Zm14.857-2.331a4.528,4.528,0,0,1-2.72,3.583,4.923,4.923,0,0,1-5.43-1.312c-1.323-1.467-2.013-3.98-1.234-5.3s3.836-1.66,4.876-1.626c1,.033,2.958.017,3.917.8S1675.207,1236.519,1674.939,1237.634Zm-23.755-3.1-5.63,2.385.268.974,5.557-2.24Z" transform="translate(-1645.553 -1232.514)" fill="#0d1642"/>
                <path id="Trazado_37077" data-name="Trazado 37077" d="M1666.876,1240.611a4.924,4.924,0,0,1-5.405,1.411,4.529,4.529,0,0,1-2.785-3.534c-.289-1.11-.423-3.071.521-3.87s2.908-.819,3.9-.87c1.039-.053,4.1.228,4.905,1.537S1668.173,1239.12,1666.876,1240.611Z" transform="translate(-1652.347 -1233.159)" fill="#212121"/>
                <path id="Trazado_37078" data-name="Trazado 37078" d="M1696.171,1234.282c-.959-.782-2.922-.767-3.917-.8-1.04-.035-4.1.3-4.876,1.626s-.089,3.837,1.234,5.3a4.924,4.924,0,0,0,5.43,1.312,4.528,4.528,0,0,0,2.72-3.583C1697.031,1237.027,1697.13,1235.063,1696.171,1234.282Z" transform="translate(-1667.377 -1233.022)" fill="#212121"/>
                <path id="Trazado_37079" data-name="Trazado 37079" d="M1666.225,1233.894l-4.507,7.3a3.865,3.865,0,0,0,1.46.906,5.1,5.1,0,0,0,1.024.248l4.527-7.8A8.049,8.049,0,0,0,1666.225,1233.894Z" transform="translate(-1654.054 -1233.24)" fill="#515151" opacity="0.58"/>
                <path id="Trazado_37080" data-name="Trazado 37080" d="M1672.479,1235.958l-4.639,7.516a4.882,4.882,0,0,0,.782-.023l4.3-7.021A1.859,1.859,0,0,0,1672.479,1235.958Z" transform="translate(-1657.274 -1234.325)" fill="#515151" opacity="0.58"/>
                <path id="Trazado_37081" data-name="Trazado 37081" d="M1694.688,1233.368l-2.936,7.706a4.96,4.96,0,0,0,2.641.96l3.348-8.318A11.7,11.7,0,0,0,1694.688,1233.368Z" transform="translate(-1669.849 -1232.963)" fill="#515151" opacity="0.58"/>
                <path id="Trazado_37082" data-name="Trazado 37082" d="M1701.706,1234.439l-3.188,8.161a4.948,4.948,0,0,0,.691-.085l2.962-7.8A2.384,2.384,0,0,0,1701.706,1234.439Z" transform="translate(-1673.408 -1233.526)" fill="#515151" opacity="0.58"/>
              </g>
            </g>
          </g>
        </g>
      </g>
      <path id="Trazado_37084" data-name="Trazado 37084" d="M1757.7,1296.191l1.5,3.032,3.346.486-2.421,2.36.572,3.333-2.993-1.574-2.993,1.574.572-3.333-2.422-2.36,3.346-.486Z" transform="matrix(0.259, 0.966, -0.966, 0.259, 2323.526, -831.377)" fill="#f9bd19"/>
      <path id="Trazado_37085" data-name="Trazado 37085" d="M1788.523,1307.236l1.5,3.032,3.346.486-2.421,2.36.572,3.333-2.993-1.574-2.993,1.574.572-3.333-2.422-2.36,3.346-.486Z" transform="matrix(0.259, 0.966, -0.966, 0.259, 2324.941, -848.538)" fill="#f9bd19"/>
      <path id="Trazado_37086" data-name="Trazado 37086" d="M1784.192,1271.006l1.408,2.854,3.15.458-2.279,2.222.538,3.137-2.817-1.481-2.817,1.481.538-3.137-2.279-2.222,3.15-.458Z" transform="matrix(0.259, 0.966, -0.966, 0.259, 2307.088, -841.551)" fill="#f9bd19"/>
    </g>
  </g>
</svg>
