<svg xmlns="http://www.w3.org/2000/svg" xmlns:xlink="http://www.w3.org/1999/xlink" width="176" height="176" viewBox="0 0 176 176">
  <defs>
    <clipPath id="clip-path">
      <path id="Trazado_40670" data-name="Trazado 40670" d="M5555.657,4858.462V4756.226H5396.721v108.11h.595c-1.214,3.445-1.684,7.893-.94,13.986,4.072,33.351,88.358,38.154,132.824,22.76C5563.795,4889.107,5563.025,4870.439,5555.657,4858.462Z" fill="none"/>
    </clipPath>
    <linearGradient id="linear-gradient" y1="0.5" x2="1" y2="0.5" gradientUnits="objectBoundingBox">
      <stop offset="0" stop-color="#4a1ed9"/>
      <stop offset="0.917" stop-color="#5d2af5"/>
      <stop offset="1" stop-color="#602cf8"/>
    </linearGradient>
    <clipPath id="clip-path-2">
      <path id="Trazado_40665" data-name="Trazado 40665" d="M5473.376,4821.07c-2.6-1.2-4.981.4-2.4,2.737,3.762,3.4,7.92,2.715,10.44.616,3.473-2.894,1.189-5-.752-3.938S5476.59,4822.558,5473.376,4821.07Z" fill="none"/>
    </clipPath>
  </defs>
  <g id="Grupo_37001" data-name="Grupo 37001" transform="translate(-5394.552 -4740.406)">
    <g id="Grupo_36998" data-name="Grupo 36998">
      <g id="Grupo_36997" data-name="Grupo 36997" clip-path="url(#clip-path)">
        <g id="Grupo_36996" data-name="Grupo 36996">
          <path id="Trazado_40615" data-name="Trazado 40615" d="M5461.506,4790.356s-23.744-15.933-39.532,1.958-.134,38.034-6,50.792-22.6,10.63-19.6,35.216c4.072,33.351,88.358,38.154,132.824,22.761s30.508-41.844,19.207-50.93-9.6-25.6-14.614-37.276S5490.641,4807.5,5461.506,4790.356Z" fill="url(#linear-gradient)"/>
          <g id="Grupo_36995" data-name="Grupo 36995">
            <g id="Grupo_36994" data-name="Grupo 36994">
              <path id="Trazado_40616" data-name="Trazado 40616" d="M5445.68,4857.114a28.018,28.018,0,0,1-11.7,1.554c-5.986-.665-7.872-31.942-7.872-31.942l-5.692.01s-.673,36.924,8.195,40.665,21.948-2.911,21.948-2.911Z" fill="#af7e5a"/>
              <path id="Trazado_40617" data-name="Trazado 40617" d="M5424.964,4823.024l.591-.255a.744.744,0,0,0,.388-.976l-1.627-4.714a.745.745,0,0,0-.976-.388l-1.274.549a.744.744,0,0,0-.388.976l2.31,4.42A.744.744,0,0,0,5424.964,4823.024Z" fill="#976e4f"/>
              <g id="Grupo_36980" data-name="Grupo 36980">
                <path id="Trazado_40618" data-name="Trazado 40618" d="M5415.467,4827.967c-.092-.023-1.4-.292-1.482-.331-.826-.379-.8-1.2-.5-2.015l1.173-7.147a1.62,1.62,0,0,1,.332-.781,1.66,1.66,0,0,1,1.847-.491l9.536,4.324a1.808,1.808,0,0,1,.768.683,2.23,2.23,0,0,1,.087,2.31l-1.233,3.354c-.538,1.952-1.552,2.063-2.413,1.745Z" fill="#af7e5a"/>
              </g>
              <path id="Trazado_40619" data-name="Trazado 40619" d="M5507.181,4857.114a28.021,28.021,0,0,0,11.7,1.554c5.985-.665,7.872-31.942,7.872-31.942l5.691.01s.673,36.924-8.194,40.665-21.948-2.911-21.948-2.911Z" fill="#af7e5a"/>
              <ellipse id="Elipse_813" data-name="Elipse 813" cx="11.592" cy="11.221" rx="11.592" ry="11.221" transform="translate(5472.389 4771.294) rotate(-41.027)" fill="#442305"/>
              <ellipse id="Elipse_814" data-name="Elipse 814" cx="11.592" cy="11.221" rx="11.592" ry="11.221" transform="translate(5483.885 4778.137) rotate(-41.027)" fill="#442305"/>
              <ellipse id="Elipse_815" data-name="Elipse 815" cx="11.592" cy="11.221" rx="11.592" ry="11.221" transform="translate(5486.307 4789.666) rotate(-41.027)" fill="#442305"/>
              <ellipse id="Elipse_816" data-name="Elipse 816" cx="11.592" cy="8.483" rx="11.592" ry="8.483" transform="translate(5463.172 4758.205)" fill="#442305"/>
              <ellipse id="Elipse_817" data-name="Elipse 817" cx="11.592" cy="8.483" rx="11.592" ry="8.483" transform="translate(5449.815 4760.527)" fill="#442305"/>
              <ellipse id="Elipse_818" data-name="Elipse 818" cx="11.592" cy="11.221" rx="11.592" ry="11.221" transform="translate(5435.472 4779.637) rotate(-41.027)" fill="#442305"/>
              <ellipse id="Elipse_819" data-name="Elipse 819" cx="11.592" cy="11.221" rx="11.592" ry="11.221" transform="translate(5433.704 4786.964) rotate(-41.027)" fill="#442305"/>
              <path id="Trazado_40620" data-name="Trazado 40620" d="M5453.092,4807.89s-13.785-38.1,21.746-38.189,30.982,30.748,23.7,38.026Z" fill="#04adc5"/>
              <g id="Grupo_36981" data-name="Grupo 36981">
                <circle id="Elipse_820" data-name="Elipse 820" cx="3.651" cy="3.651" r="3.651" transform="translate(5451.583 4804.239)" fill="#bf8e63"/>
                <circle id="Elipse_821" data-name="Elipse 821" cx="2.142" cy="2.142" r="2.142" transform="translate(5453.092 4805.749)" fill="#976e4f"/>
              </g>
              <g id="Grupo_36982" data-name="Grupo 36982">
                <circle id="Elipse_822" data-name="Elipse 822" cx="3.651" cy="3.651" r="3.651" transform="translate(5493.992 4804.239)" fill="#bf8e63"/>
                <circle id="Elipse_823" data-name="Elipse 823" cx="2.142" cy="2.142" r="2.142" transform="translate(5495.501 4805.749)" fill="#976e4f"/>
              </g>
              <path id="Trazado_40621" data-name="Trazado 40621" d="M5472.583,5051.322l1.181.344s.653.452.111,1.5c0,0-3.285,2.921-16.867,3.99s-12.968-3.535-12.318-4.3S5472.583,5051.322,5472.583,5051.322Z" fill="#211d1b"/>
              <path id="Trazado_40622" data-name="Trazado 40622" d="M5464.955,5036.977s.151,5.9-3.631,7.966-6.1,2.944-10.827,6.166,18.416-.108,21.477-1.517.235-13.15.235-13.15Z" fill="#bf8e63"/>
              <path id="Trazado_40623" data-name="Trazado 40623" d="M5461.482,5048.467l-1.828-1.038-3.278-.416s-11.69,5.134-11.622,6.7,5.28,3.221,11.567,2.2,14.353-1.984,16.645-3.348,1.088-7.222.535-9.565c0,0-1.9,1.172-4.38,5.234A10.339,10.339,0,0,1,5461.482,5048.467Z" fill="#2d1607"/>
              <path id="Trazado_40624" data-name="Trazado 40624" d="M5447.781,5053.149s12.5-2.163,14.1-4.281,1.035-4.563-1.421-4.853-3.765,2.377-5.507,2.943a86.608,86.608,0,0,0-8.247,4.3C5446.032,5051.641,5444.057,5053.5,5447.781,5053.149Z" fill="#4f2812"/>
              <path id="Trazado_40625" data-name="Trazado 40625" d="M5460.546,5044.752c-2.456-.29-3.765,2.377-5.507,2.943a86.713,86.713,0,0,0-8.247,4.3,3.109,3.109,0,0,0-1.007.973c-.661-.449.448-1.443.919-1.711a86.851,86.851,0,0,1,8.247-4.3c1.742-.566,3.051-3.233,5.507-2.943a2.392,2.392,0,0,1,2.319,2.483A2.424,2.424,0,0,0,5460.546,5044.752Z" fill="#63341c"/>
              <path id="Trazado_40626" data-name="Trazado 40626" d="M5457.312,5055.824s.907-7.667-5.178-7.553c0,0-7.8,2.6-7.38,5.438C5444.754,5053.709,5444.988,5057.58,5457.312,5055.824Z" fill="#66341b"/>
              <path id="Trazado_40627" data-name="Trazado 40627" d="M5482.732,5051.023l-1.189.318s-.663.438-.143,1.494c0,0,3.219,2.993,16.775,4.361s13.042-3.248,12.409-4.032S5482.732,5051.023,5482.732,5051.023Z" fill="#211d1b"/>
              <path id="Trazado_40628" data-name="Trazado 40628" d="M5490.674,5036.85s-.281,5.9,3.454,8.044,6.033,3.078,10.689,6.4-18.41-.514-21.439-1.989-.47-12.332-.47-12.332Z" fill="#bf8e63"/>
              <path id="Trazado_40629" data-name="Trazado 40629" d="M5493.893,5048.413l1.85-1,3.286-.344s11.575,5.391,11.472,6.951-5.349,3.1-11.612,1.943-14.306-2.3-16.567-3.713-.929-7.245-.324-9.574c0,0,1.877,1.213,4.263,5.328A10.333,10.333,0,0,0,5493.893,5048.413Z" fill="#2d1607"/>
              <path id="Trazado_40630" data-name="Trazado 40630" d="M5507.487,5053.4s-12.451-2.437-14-4.59-.934-4.585,1.527-4.821,3.713,2.46,5.442,3.064a86.7,86.7,0,0,1,8.15,4.482C5509.269,5051.928,5511.2,5053.833,5507.487,5053.4Z" fill="#4f2812"/>
              <path id="Trazado_40631" data-name="Trazado 40631" d="M5494.91,5044.72c2.462-.236,3.712,2.46,5.442,3.064a86.671,86.671,0,0,1,8.149,4.482,3.117,3.117,0,0,1,.986,1c.67-.434-.417-1.453-.881-1.731a86.7,86.7,0,0,0-8.15-4.482c-1.729-.6-2.98-3.3-5.442-3.064a2.392,2.392,0,0,0-2.372,2.432A2.422,2.422,0,0,1,5494.91,5044.72Z" fill="#63341c"/>
              <path id="Trazado_40632" data-name="Trazado 40632" d="M5482.207,4835.258v11.669l-12.821.4,1.613-12.44Z" fill="#bf8e63"/>
              <path id="Trazado_40633" data-name="Trazado 40633" d="M5482.207,4841.109s-6.442,3.355-11.945-.539l.737-5.681,11.208.369Z" fill="#976e4f"/>
              <path id="Trazado_40634" data-name="Trazado 40634" d="M5510.042,4924.651h0c-6.754-25.43-14.647-41.6-14.647-41.6,7.05-9.059,17.282-27.234-5.7-36.744l-.02.021a32.19,32.19,0,0,0-25.305.146c-22.469,9.554-12.471,27.57-5.462,36.577,0,0-8.343,16.63-15.1,42.06h0c-6.361,19.795,8.215,34.908,30.208,34.175h5.962C5502.148,4960.029,5516.784,4944.674,5510.042,4924.651Z" fill="#bf8e63"/>
              <path id="Trazado_40635" data-name="Trazado 40635" d="M5463.334,4854.375s1.641-5.642-.719-6.828-21.326,5.492-20.258,10.835,4.125,10.056,10.745,10.772S5463.334,4854.375,5463.334,4854.375Z" fill="#eda678"/>
              <path id="Trazado_40636" data-name="Trazado 40636" d="M5489.763,4854.375s-1.64-5.642.719-6.828,21.327,5.492,20.259,10.835-4.125,10.056-10.745,10.772S5489.763,4854.375,5489.763,4854.375Z" fill="#eda678"/>
              <path id="Trazado_40637" data-name="Trazado 40637" d="M5498.03,4792.25s-.232-15.4-19.834-17.08h-3.128c-19.6,1.679-19.835,17.08-19.835,17.08l.727,29.044a9.059,9.059,0,0,0,3.829,7.923l7.434,5.838a17.487,17.487,0,0,0,8.665,3.82l0,.085c.243,0,.494-.008.747-.022.253.014.5.023.747.022l0-.085a17.482,17.482,0,0,0,8.664-3.82l7.434-5.838a9.06,9.06,0,0,0,3.829-7.923Z" fill="#bf8e63"/>
              <path id="Trazado_40638" data-name="Trazado 40638" d="M5484.472,4836.163a14.724,14.724,0,0,1-3.908,1.026l0,.085c-.244,0-.5-.009-.748-.023-.253.014-.5.023-.747.023l0-.085a17.487,17.487,0,0,1-8.664-3.821l-7.434-5.838a9.056,9.056,0,0,1-3.829-7.922l-.727-29.045a17.425,17.425,0,0,1,7.91-13.353,17.573,17.573,0,0,0-11.1,15.04l.727,29.044a9.059,9.059,0,0,0,3.829,7.923l7.435,5.838a17.481,17.481,0,0,0,8.664,3.82l0,.085c.243,0,.493-.008.747-.022.253.014.5.023.747.022l0-.085A16.423,16.423,0,0,0,5484.472,4836.163Z" fill="#b5855f" opacity="0.26"/>
              <path id="Trazado_40639" data-name="Trazado 40639" d="M5463.588,5040.1l-20.965-97.291,0-.1c-.231-5.284,1.154-9.651,4.007-12.63a12.793,12.793,0,0,1,9.506-3.866,18.9,18.9,0,0,1,6.814,1.353c6.351,2.458,10.483,8.8,11.947,18.346a55.763,55.763,0,0,1,.332,13.471l-2.1,82.431Z" fill="#2d1607"/>
              <path id="Trazado_40640" data-name="Trazado 40640" d="M5482.11,5042.09l-2.751-82.71a55.651,55.651,0,0,1,.332-13.471c1.464-9.544,5.6-15.888,11.946-18.346a18.9,18.9,0,0,1,6.815-1.353,12.793,12.793,0,0,1,9.506,3.866c2.852,2.979,4.237,7.346,4.006,12.63l0,.1-20.843,96.727Z" fill="#2d1607"/>
              <path id="Trazado_40641" data-name="Trazado 40641" d="M5497.309,4967.653a105.079,105.079,0,0,0,10.649-2.42s5.409-23.205,5.308-34.068-17.152-48.579-17.152-48.579c5.58-4.977,6.416-12.588,6.416-12.588,11.919-6.343,8.594-14.864,8.594-14.864-7.945-7.038-18.636-9.469-24.118-10.284-.653,5.912-2.878,11.782-11.027,11.01-7.3-.691-8.344-8.72-8.494-11.07-4.62.618-16.894,2.959-25.627,10.992,0,0-3.165,8.582,8.87,14.7,0,0,.979,7.594,6.651,12.466,0,0-16.342,38.027-16.24,48.89s5.944,33.963,5.944,33.963a124.586,124.586,0,0,0,26.4,3.781v.073q2.064.041,4.079,0,2.013,0,4.079-.078l12.575-1.407,1.333-13.427Z" fill="#04adc5"/>
              <path id="Trazado_40642" data-name="Trazado 40642" d="M5481.638,4969.579l0-.073c4.6-.251,8.869-.756,12.578-1.334" fill="#04adc5"/>
              <path id="Trazado_40643" data-name="Trazado 40643" d="M5457.379,4882.949s15.265,2.5,38.735-.363c0,0,3.943,2.757,2.62,5.957,0,0-31.849,7.21-43.5-.472C5455.233,4888.071,5453.678,4883.906,5457.379,4882.949Z" fill="#2f3333"/>
              <path id="Trazado_40644" data-name="Trazado 40644" d="M5481.828,4881.044h-9.742a2.013,2.013,0,0,0-2.008,2.008v9.741a2.014,2.014,0,0,0,2.008,2.009h9.742a2.014,2.014,0,0,0,2.008-2.009v-9.741A2.013,2.013,0,0,0,5481.828,4881.044Zm-2.009,9.741H5474.1v-2.248h2.143a.719.719,0,1,0,0-1.438H5474.1v-2.039h5.724Z" fill="#e6870c"/>
              <g id="Grupo_36983" data-name="Grupo 36983">
                <path id="Trazado_40645" data-name="Trazado 40645" d="M5473.427,4889.961h.668v-1.424h2.143a.718.718,0,0,0,.04-1.434.719.719,0,0,1-.708.611h-2.143Z" fill="#f79c32"/>
                <path id="Trazado_40646" data-name="Trazado 40646" d="M5473.427,4886.276h.668v-1.215h5.057v-.823h-5.725Z" fill="#f79c32"/>
                <path id="Trazado_40647" data-name="Trazado 40647" d="M5483,4881.43a1.974,1.974,0,0,1,.169.8v9.741a2.014,2.014,0,0,1-2.008,2.008h-9.742a1.988,1.988,0,0,1-1.171-.386,2.012,2.012,0,0,0,1.839,1.21h9.742a2.014,2.014,0,0,0,2.008-2.009v-9.741A2,2,0,0,0,5483,4881.43Z" fill="#f79c32"/>
              </g>
              <path id="Trazado_40648" data-name="Trazado 40648" d="M5497.9,5055.861s-.738-7.685,5.343-7.437c0,0,7.744,2.766,7.258,5.6C5510.5,5054.023,5510.182,5057.888,5497.9,5055.861Z" fill="#66341b"/>
              <g id="Grupo_36984" data-name="Grupo 36984">
                <path id="Trazado_40649" data-name="Trazado 40649" d="M5482.775,4807.188a2.865,2.865,0,1,0,2.862-2.992A2.93,2.93,0,0,0,5482.775,4807.188Z" fill="#2f1b11"/>
                <path id="Trazado_40650" data-name="Trazado 40650" d="M5482.937,4806.168s2.762-2.212,5.266.2c0,0,2.376-.443,2.78-2.053,0,0-1.976,1.044-3.359.36S5483.805,4803.841,5482.937,4806.168Z" fill="#2f1b11"/>
                <path id="Trazado_40651" data-name="Trazado 40651" d="M5486.764,4806.589a.8.8,0,0,1-.011,1.074c-.388.431.249,1.072.639.639a1.685,1.685,0,0,0,.152-2.17.468.468,0,0,0-.618-.162.456.456,0,0,0-.162.619Z" fill="#fff"/>
                <path id="Trazado_40652" data-name="Trazado 40652" d="M5470.5,4807.188a2.865,2.865,0,1,1-2.862-2.992A2.931,2.931,0,0,1,5470.5,4807.188Z" fill="#2f1b11"/>
                <path id="Trazado_40653" data-name="Trazado 40653" d="M5470.335,4806.168s-2.762-2.212-5.266.2c0,0-2.376-.443-2.78-2.053,0,0,1.977,1.044,3.36.36S5469.467,4803.841,5470.335,4806.168Z" fill="#2f1b11"/>
                <path id="Trazado_40654" data-name="Trazado 40654" d="M5468.344,4806.589a.8.8,0,0,1-.011,1.074c-.388.431.249,1.072.64.639a1.686,1.686,0,0,0,.152-2.17.469.469,0,0,0-.619-.162.455.455,0,0,0-.162.619Z" fill="#fff"/>
              </g>
              <path id="Trazado_40655" data-name="Trazado 40655" d="M5467.825,4817.39a2.852,2.852,0,1,1-2.852-2.853A2.853,2.853,0,0,1,5467.825,4817.39Z" fill="#f28d88" opacity="0.41"/>
              <path id="Trazado_40656" data-name="Trazado 40656" d="M5486.356,4816.988a2.852,2.852,0,1,0,2.852-2.852A2.852,2.852,0,0,0,5486.356,4816.988Z" fill="#f28d88" opacity="0.41"/>
              <g id="Grupo_36985" data-name="Grupo 36985">
                <path id="Trazado_40657" data-name="Trazado 40657" d="M5496.382,4801.428l.639-1.023c-6.127-2.49-13.708-.344-15.831.623a9.4,9.4,0,0,1-9.8,0c-2.124-.967-9.705-3.113-15.831-.623l.638,1.023s-.906.234-.406,2.368,1.2,6.537,4.8,9.306a7.876,7.876,0,0,0,8.037.867c2.569-1.134,5.816-4.469,5.582-10.273,0,0,1.41.167,2.077.167s2.077-.167,2.077-.167c-.233,5.8,3.013,9.139,5.582,10.273a7.876,7.876,0,0,0,8.037-.867c3.6-2.769,4.3-7.171,4.8-9.306S5496.382,4801.428,5496.382,4801.428Zm-23.381,5.2a7.8,7.8,0,0,1-5.47,6.838,7.03,7.03,0,0,1-7.93-2.794c-1.591-2.3-2.41-6.312-1.509-7.613.7-1.011,3.739-1.694,6.7-1.5a18.638,18.638,0,0,1,5.169.836C5472.976,4803.3,5473.134,4804.43,5473,4806.631Zm19.976,4.044a7.031,7.031,0,0,1-7.93,2.794,7.8,7.8,0,0,1-5.469-6.838c-.134-2.2.024-3.332,3.035-4.236a18.641,18.641,0,0,1,5.17-.836c2.965-.191,6,.492,6.7,1.5C5495.387,4804.363,5494.568,4808.375,5492.977,4810.675Z" fill="#772c18"/>
              </g>
              <path id="Trazado_40658" data-name="Trazado 40658" d="M5455.233,4793.833s24.54-3.52,27.542-10.3c0,0-1.615,8.429-4.91,10.3,0,0,4.9,1.069,7.391-7.034,0,0,4.657,8.638,9.261,9.516,4.557.868,2.117,13.021,2.223,12.479,0,0,5.792-.713,4.1-15.584s-8.97-20.659-18.065-21.015-28.241,1.068-30.378,16.919,3.869,19.332,3.869,19.332-1.821-13.052,3.344-16.415S5455.233,4793.833,5455.233,4793.833Z" fill="#442305"/>
              <path id="Trazado_40659" data-name="Trazado 40659" d="M5483.714,4797.627s5.02-1.325,7.581,1.058c0,0-.62-2.391-5.4-2.85S5482.706,4797.827,5483.714,4797.627Z" fill="#2f1b11"/>
              <path id="Trazado_40660" data-name="Trazado 40660" d="M5469.5,4797.409s-5.339-1.108-7.892,1.535c0,0,.516-2.542,5.507-3.292S5470.566,4797.562,5469.5,4797.409Z" fill="#2f1b11"/>
              <path id="Trazado_40661" data-name="Trazado 40661" d="M5527.836,4821.744l-.57-.3a.745.745,0,0,1-.315-1l1.97-4.581a.746.746,0,0,1,1-.315l1.229.641a.745.745,0,0,1,.315,1l-2.629,4.237A.746.746,0,0,1,5527.836,4821.744Z" fill="#976e4f"/>
              <g id="Grupo_36986" data-name="Grupo 36986">
                <path id="Trazado_40662" data-name="Trazado 40662" d="M5536.943,4827.375c.093-.017,1.413-.189,1.5-.222.852-.316.885-1.135.646-1.972l-.643-7.215a1.62,1.62,0,0,0-.274-.8,1.657,1.657,0,0,0-1.8-.626l-9.83,3.608a1.8,1.8,0,0,0-.815.625,2.228,2.228,0,0,0-.258,2.3l.982,3.435c.393,1.987,1.4,2.172,2.278,1.918Z" fill="#af7e5a"/>
              </g>
              <g id="Grupo_36993" data-name="Grupo 36993">
                <g id="Grupo_36990" data-name="Grupo 36990">
                  <g id="Grupo_36989" data-name="Grupo 36989">
                    <path id="Trazado_40663" data-name="Trazado 40663" d="M5473.376,4821.07c-2.6-1.2-4.981.4-2.4,2.737,3.762,3.4,7.92,2.715,10.44.616,3.473-2.894,1.189-5-.752-3.938S5476.59,4822.558,5473.376,4821.07Z" fill="#3a1d0d"/>
                    <g id="Grupo_36988" data-name="Grupo 36988">
                      <g id="Grupo_36987" data-name="Grupo 36987" clip-path="url(#clip-path-2)">
                        <path id="Trazado_40664" data-name="Trazado 40664" d="M5470.884,4819.891l.9,2.108s-1.288,1.155-2.182,1.791a13.888,13.888,0,0,0,14.315,1.827l-2.2-3.833.43-2.8Z" fill="#fff"/>
                      </g>
                    </g>
                  </g>
                  <path id="Trazado_40666" data-name="Trazado 40666" d="M5472.319,4822.2a7.735,7.735,0,0,0,1.3.61c.2.074.421.144.654.213s.485.124.745.173c.129.027.263.043.4.064s.271.033.409.045.277.023.417.025.28,0,.421,0a7.67,7.67,0,0,0,.837-.054l.408-.058.4-.074c.129-.029.255-.064.38-.09s.244-.068.362-.1.23-.073.34-.108.218-.066.317-.106c.2-.077.388-.141.548-.212s.306-.122.42-.178c.231-.1.366-.16.366-.16s-.115.087-.324.236c-.1.076-.234.158-.387.251s-.328.191-.524.292a6.761,6.761,0,0,1-.65.291c-.119.044-.24.094-.367.136s-.258.08-.391.119l-.412.1c-.14.027-.283.055-.428.076a8.034,8.034,0,0,1-.885.072c-.149,0-.3,0-.446-.009s-.295-.02-.441-.034a6.872,6.872,0,0,1-1.611-.392,6.4,6.4,0,0,1-.653-.293,5.572,5.572,0,0,1-.9-.571A2.958,2.958,0,0,1,5472.319,4822.2Z" fill="#f1f1f1"/>
                </g>
                <g id="Grupo_36992" data-name="Grupo 36992">
                  <g id="Grupo_36991" data-name="Grupo 36991">
                    <path id="Trazado_40667" data-name="Trazado 40667" d="M5474.775,4827.426l.23.113c.146.068.353.163.6.258a5.1,5.1,0,0,0,.852.251c.078.017.157.026.237.039s.16.019.241.021a2.758,2.758,0,0,0,.484-.018,2.542,2.542,0,0,0,.467-.111,2.829,2.829,0,0,0,.433-.189,3.8,3.8,0,0,0,.384-.246c.063-.04.115-.09.171-.133a1.6,1.6,0,0,0,.158-.132c.1-.088.194-.168.271-.248s.151-.143.205-.2c.112-.116.183-.181.183-.181s-.027.09-.086.244a2.106,2.106,0,0,1-.124.272c-.027.051-.053.107-.086.163l-.11.174a1.733,1.733,0,0,1-.133.183,2.132,2.132,0,0,1-.157.185,2.879,2.879,0,0,1-.4.355,2.43,2.43,0,0,1-.512.282,2.4,2.4,0,0,1-.589.159,2.621,2.621,0,0,1-.606,0,2.576,2.576,0,0,1-.562-.124,3.222,3.222,0,0,1-.882-.453,3.257,3.257,0,0,1-.511-.46A1.751,1.751,0,0,1,5474.775,4827.426Z" fill="#965e38"/>
                  </g>
                </g>
              </g>
              <path id="Trazado_40668" data-name="Trazado 40668" d="M5494.362,4788.339s-4.028,8.285-.087,9.249S5497.021,4792.319,5494.362,4788.339Z" fill="#56c0ef"/>
              <path id="Trazado_40669" data-name="Trazado 40669" d="M5494.362,4788.339s-.179.373-.421.953c1.923,3.4,2.742,7.77.591,8.333C5498.146,4798.24,5496.958,4792.225,5494.362,4788.339Z" fill="#78d8f9"/>
            </g>
          </g>
        </g>
      </g>
    </g>
    <path id="Trazado_40671" data-name="Trazado 40671" d="M5544.717,4745.08c-14.268,0-25.834,8.591-25.834,19.189,0,7.151,5.27,13.384,13.079,16.685-1.389,5.295-4.212,11.528-9.953,15.155,0,0,11.886,0,17.333-13.07a34.583,34.583,0,0,0,5.375.419c14.268,0,25.835-8.591,25.835-19.189S5558.985,4745.08,5544.717,4745.08Z" fill="#fcee9f"/>
    <g id="Grupo_36999" data-name="Grupo 36999">
      <path id="Trazado_40672" data-name="Trazado 40672" d="M5549.52,4767.284a1.316,1.316,0,0,1-.254-.909,5.381,5.381,0,0,1,.634-2.517,12.92,12.92,0,0,1,1.661-2.207,12.759,12.759,0,0,0,1.256-1.593,2.877,2.877,0,0,0,.434-1.459,1.739,1.739,0,0,0-.618-1.454,2.825,2.825,0,0,0-1.794-.6,4.389,4.389,0,0,0-1.9.356,17.275,17.275,0,0,0-2.142,1.14,2.464,2.464,0,0,1-1.131.342,1.01,1.01,0,0,1-.79-.451,1.6,1.6,0,0,1,.394-2.264,8.521,8.521,0,0,1,2.752-1.446,9.265,9.265,0,0,1,3.156-.45,7.257,7.257,0,0,1,2.938.677,4.792,4.792,0,0,1,1.962,1.652,3.88,3.88,0,0,1,.641,2.342,4.446,4.446,0,0,1-.768,2.445,15.2,15.2,0,0,1-2.073,2.287,17.615,17.615,0,0,0-1.744,1.864,3.855,3.855,0,0,0-.757,1.734,1.086,1.086,0,0,1-.392.655,1.125,1.125,0,0,1-.73.206A.948.948,0,0,1,5549.52,4767.284Zm-.832,5.445a2.143,2.143,0,0,1,.1-2.917,2.072,2.072,0,0,1,2.89.1,2.01,2.01,0,0,1,.52,1.479,1.975,1.975,0,0,1-.637,1.437,2.056,2.056,0,0,1-2.876-.1Z" fill="#e50e38"/>
    </g>
    <g id="Grupo_37000" data-name="Grupo 37000">
      <path id="Trazado_40673" data-name="Trazado 40673" d="M5539.652,4759.7a1.326,1.326,0,0,1,.254.909,5.392,5.392,0,0,1-.635,2.518,12.887,12.887,0,0,1-1.66,2.206,12.946,12.946,0,0,0-1.257,1.594,2.872,2.872,0,0,0-.433,1.459,1.736,1.736,0,0,0,.617,1.454,2.836,2.836,0,0,0,1.795.595,4.377,4.377,0,0,0,1.9-.356,17.373,17.373,0,0,0,2.142-1.14,2.459,2.459,0,0,1,1.131-.342,1,1,0,0,1,.789.451,1.6,1.6,0,0,1-.394,2.265,8.57,8.57,0,0,1-2.752,1.447,9.237,9.237,0,0,1-3.156.447,7.28,7.28,0,0,1-2.937-.675,4.819,4.819,0,0,1-1.963-1.653,3.883,3.883,0,0,1-.64-2.343,4.427,4.427,0,0,1,.767-2.442,15.132,15.132,0,0,1,2.074-2.288,17.972,17.972,0,0,0,1.744-1.865,3.855,3.855,0,0,0,.757-1.733,1.081,1.081,0,0,1,.391-.655,1.114,1.114,0,0,1,.731-.206A.943.943,0,0,1,5539.652,4759.7Zm.831-5.444a2.145,2.145,0,0,1-.1,2.918,2.076,2.076,0,0,1-2.89-.1,2.007,2.007,0,0,1-.522-1.48,1.98,1.98,0,0,1,.637-1.437,1.954,1.954,0,0,1,1.452-.536A1.932,1.932,0,0,1,5540.483,4754.26Z" fill="#e50e38"/>
    </g>
    <rect id="Rectángulo_4510" data-name="Rectángulo 4510" width="176" height="176" transform="translate(5394.552 4740.406)" fill="none"/>
  </g>
</svg>
