<svg xmlns="http://www.w3.org/2000/svg" xmlns:xlink="http://www.w3.org/1999/xlink" width="248" height="240" viewBox="0 0 248 240">
  <defs>
    <clipPath id="clip-path">
      <circle id="Elipse_761" data-name="Elipse 761" cx="100" cy="100" r="100" fill="none"/>
    </clipPath>
  </defs>
  <g id="Grupo_3997" data-name="Grupo 3997" transform="translate(-48 -119.9)">
    <g id="Grupo_3995" data-name="Grupo 3995" transform="translate(48 119.9)">
      <g id="Grupo_34744" data-name="Grupo 34744">
        <rect id="Rectángulo_2130" data-name="Rectángulo 2130" width="248" height="240" fill="none"/>
      </g>
      <g id="Grupo_34756" data-name="Grupo 34756" transform="translate(269.265 499.886)">
        <g id="Grupo_34755" data-name="Grupo 34755" transform="translate(-245.265 -479.886)" clip-path="url(#clip-path)">
          <circle id="Elipse_752" data-name="Elipse 752" cx="100" cy="100" r="100" fill="#fde375"/>
          <g id="Grupo_34754" data-name="Grupo 34754" transform="translate(-24.631 26.485)">
            <path id="Trazado_41838" data-name="Trazado 41838" d="M22.715-279.665l2.866-11.809,15.1,4.586-6.617,12.267Z" transform="translate(225.233 421.999)" fill="#e2a388"/>
            <path id="Trazado_41839" data-name="Trazado 41839" d="M20.215-285.4l1.611,7.568L37.7-276.8l3.077-7.678S27.884-287.882,20.215-285.4Z" transform="translate(225.649 421.137)" fill="#e4e5ef"/>
            <path id="Trazado_41840" data-name="Trazado 41840" d="M20.734-276.167s-2.292-4.6.516-5.652,8.149-.711,11.383-.31,6.846,1.318,6.961,3.153-1.662,3.439-1.662,3.439S31.912-273.357,20.734-276.167Z" transform="translate(225.71 420.506)" fill="#422c9b"/>
            <path id="Trazado_41841" data-name="Trazado 41841" d="M34.623-291.579s-11.037-1.813-10.9-8.253,6.6-17.691,8.753-18.507l22.748,18.091S53.561-288.031,34.623-291.579Z" transform="translate(225.065 426.476)" fill="#e2a388"/>
            <path id="Trazado_41842" data-name="Trazado 41842" d="M32.705-315.739l-3-2.134s12.823-22.388,20.038-25.052,9.556,4.054,6.495,8.781S40.536-315.26,40.536-315.26Z" transform="translate(224.067 430.675)" fill="#e2a388"/>
            <path id="Trazado_41843" data-name="Trazado 41843" d="M51.68-328.711s12.743,9.038,13.844,13.107-1.218,18.849-17.067,23.053Z" transform="translate(220.942 428.205)" fill="#e2a388"/>
            <path id="Trazado_41844" data-name="Trazado 41844" d="M-174.805-393.8s-24.478,18.564-23.219,30.437,17.278,11.1,32.814-1.627C-165.21-364.988-161.128-381.642-174.805-393.8Z" transform="translate(262.03 439.053)" fill="#0e7992"/>
            <path id="Trazado_41845" data-name="Trazado 41845" d="M-174.644-393.8s-4.218,3.2-9.062,7.791a23.566,23.566,0,0,1-4.338,21.044,19.03,19.03,0,0,1-9.062,4.665c3.568,8.551,18.009,6.822,32.057-4.69C-165.049-364.988-160.967-381.642-174.644-393.8Z" transform="translate(261.869 439.053)" fill="#006070" opacity="0.7"/>
            <path id="Trazado_41846" data-name="Trazado 41846" d="M-190.975-395.044s7.035,34.372-16.237,50.921-41.889,7.758-49.646,7.24-15,6.206-17.583,18.1,8.275,24.306,23.789,23.789c0,0-6.206,15,10.342,19.651,0,0,86.88-16.548,99.809-66.194s2.068-75.5,2.068-75.5-38.893,3.655-52.543,22" transform="translate(274.822 442.927)" fill="#fccc05"/>
            <path id="Trazado_41847" data-name="Trazado 41847" d="M-266.422-312.473c7.758.517,26.374,9.309,49.646-7.24a36.923,36.923,0,0,0,8.548-8.474c-22.5,15.006-40.43,6.617-48,6.113-5.817-.388-11.342,3.295-14.832,10.176A12.489,12.489,0,0,1-266.422-312.473Z" transform="translate(274.196 428.118)" fill="#dbb100" opacity="0.5"/>
            <path id="Trazado_41848" data-name="Trazado 41848" d="M-98.72-407.77s13.475,14.383,17.612,39.207S-83.177-334.431-93-324.606s-89.208,4-89.208,4l63.481-94.135Z" transform="translate(259.387 442.544)" fill="#fccc05"/>
            <path id="Trazado_41849" data-name="Trazado 41849" d="M-73.262-338.231s1.355,8.468-6.652,18.242l-3.993-1.4S-79.021-324.677-73.262-338.231Z" transform="translate(243.003 429.792)" fill="#dbb100" opacity="0.5"/>
            <path id="Trazado_41850" data-name="Trazado 41850" d="M-90.344-387.545c5.827-4.443,8.834-8.827,10.333-12.7a53.371,53.371,0,0,0-4.875-6.454l-6.177-1.647-8.14,7.894C-98.649-390.911-96.522-382.834-90.344-387.545Z" transform="translate(245.552 441.478)" fill="#dbb100" opacity="0.5"/>
            <path id="Trazado_41851" data-name="Trazado 41851" d="M-106.373-360.262h7.568s-9.288,11.723-12.086,22.728,4.518,16.023,4.518,16.023-57.407,9.009-66.923,4.434c0,0,16.619-13.654,12.58-39.045Z" transform="translate(257.901 433.463)" fill="#dbb100" opacity="0.5"/>
            <path id="Trazado_41852" data-name="Trazado 41852" d="M-168.429-200.253l-9.308,1.551c-39.82,7.757-70.848-28.96-50.163-74.468s90.5-47.06,90.5-47.06-24.347,61.325-47.618,67.531c0,0-14.957,1.767-15.991,16.763s19.134,16.549,29.995,13.446C-171.014-222.491-166.878-206.977-168.429-200.253Z" transform="translate(268.102 426.792)" fill="#6d31fd"/>
            <path id="Trazado_41853" data-name="Trazado 41853" d="M-168.593-201.684a38.306,38.306,0,0,1-10.548-.32l-5.6,23.82a53.754,53.754,0,0,0,15.3-.814l7.292-1.215-6.44-21.471Z" transform="translate(259.809 407.087)" fill="#422c9b" opacity="0.35"/>
            <path id="Trazado_41854" data-name="Trazado 41854" d="M17.031-281.2c1.126,30.98-10.172,57.906-35.823,58.912C-45.167-221.253-64.3-252.282-64.3-252.282s-48.612-42.406-54.3-65.16c0,0,30.512-4.654,52.749,2.068S-30.7-268.83-15.172-268.83c8.041,0,10.284-8.932,10.907-13.569,0,0,.18-1.77,1.344-2.308,3.618-1.668,11.7-1.152,17.985,1.223C16.629-282.891,16.987-282.388,17.031-281.2Z" transform="translate(248.785 426.588)" fill="#6d31fd"/>
            <path id="Trazado_41855" data-name="Trazado 41855" d="M-146.185-315.357l-.527-1.945s16.458-5.677,50.835-1.9c0,0,.155,29.657-24.953,30.689S-146.185-315.357-146.185-315.357Z" transform="translate(253.47 426.836)" fill="#e4e5ef"/>
            <path id="Trazado_41856" data-name="Trazado 41856" d="M-120.468-312.539l3.663,8.041-1.053,17.1,4.355-.129-.573-17.427s2.8-7.58,2.344-7.58a44.556,44.556,0,0,0-4.335,1.606Z" transform="translate(249.096 425.51)" fill="#dcdee5"/>
            <path id="Trazado_41857" data-name="Trazado 41857" d="M-133.877-320.063l4.892,7.641,10.86-.517h5.689l4.913-10.084-26.841.882Z" transform="translate(251.413 427.257)" fill="#acaebc"/>
            <path id="Trazado_41858" data-name="Trazado 41858" d="M-110.74-313.3l-6.981-1.81-12.67,1.81v-24.306h19.651Z" transform="translate(250.75 429.688)" fill="#e2a388"/>
            <path id="Trazado_41859" data-name="Trazado 41859" d="M-130.392-332.988h19.651V-328l-19.651,8.617Z" transform="translate(250.75 428.918)" fill="#d3927a"/>
            <circle id="Elipse_753" data-name="Elipse 753" cx="6.464" cy="6.464" r="6.464" transform="translate(154.749 56.656)" fill="#d3927a"/>
            <circle id="Elipse_754" data-name="Elipse 754" cx="34.132" cy="34.132" r="34.132" transform="translate(93.726 31.316)" fill="#e2a388"/>
            <path id="Trazado_41860" data-name="Trazado 41860" d="M-161.317-374.108l-1.034,3.625s9.938,1.408,11.012-11.4c0,0,10.276-.645,16.166-5.633,0,0,12.339,3.482,21.668-3.869,0,0,14.2.854,18.642,8.724a34.267,34.267,0,0,0-7.3-14.777c-5.969-7.017-7.087-7.1-7.087-7.1l-23.688,2.923-24.348,10.591Z" transform="translate(256.077 440.844)" fill="#d69680" opacity="0.62"/>
            <circle id="Elipse_755" data-name="Elipse 755" cx="6.464" cy="6.464" r="6.464" transform="translate(88.296 69.843)" fill="#e2a388"/>
            <circle id="Elipse_756" data-name="Elipse 756" cx="12.651" cy="12.651" r="12.651" transform="translate(102.296 56.694)" fill="#bbe2ef"/>
            <circle id="Elipse_757" data-name="Elipse 757" cx="12.651" cy="12.651" r="12.651" transform="translate(132.291 52.04)" fill="#bbe2ef"/>
            <line id="Línea_9" data-name="Línea 9" y1="0.776" x2="4.999" transform="translate(129.55 66.348)" fill="none" stroke="#4d4d4d" stroke-miterlimit="10" stroke-width="2.758"/>
            <path id="Trazado_41861" data-name="Trazado 41861" d="M-178.3-397.354s-11.072-38.584,24.439-48.046c31.39-8.364,49.715,3.2,52.757,27.454a154,154,0,0,0-41.812,4.408C-165.567-407.938-178.3-397.354-178.3-397.354Z" transform="translate(259.007 448.104)" fill="#2bbee0"/>
            <path id="Trazado_41862" data-name="Trazado 41862" d="M-141.563-445.4a81.61,81.61,0,0,1,12.3-2.337c-6.993-.872-15.206-.166-24.6,2.337-35.511,9.462-24.439,48.046-24.439,48.046a69.815,69.815,0,0,1,11.024-6.979C-168.593-415.9-167.581-438.465-141.563-445.4Z" transform="translate(259.007 448.102)" fill="#4295a8" opacity="0.47"/>
            <path id="Trazado_41863" data-name="Trazado 41863" d="M-149.383-417.029l28.053-6.4.093,7.323-25.684,5.4Z" transform="translate(253.916 443.991)" fill="#4295a8"/>
            <path id="Trazado_41864" data-name="Trazado 41864" d="M-116.78-413.7s4.524,1.5,8.661-5.739,9.116-6.472,12.412-4.137c3.852,2.729,4.24,8.61,2.527,12.412-3.62,8.031-11.221,13.612-25.7,11.543,0,0-8.372,12.023-20.619,1.647,0,0-.921,8.082-17.229,8.53,0,0,2.068,15-6.982,15.514s-6.458-16.879-6.458-16.879l1.419-8.033S-149.819-411.5-116.78-413.7Z" transform="translate(257.437 444.288)" fill="#fccc05"/>
            <circle id="Elipse_758" data-name="Elipse 758" cx="12.651" cy="12.651" r="12.651" transform="translate(104.365 56.177)" fill="#d0ecf4"/>
            <line id="Línea_10" data-name="Línea 10" y1="4.057" x2="5.267" transform="translate(155.946 55.316)" fill="none" stroke="#4d4d4d" stroke-miterlimit="10" stroke-width="2.758"/>
            <circle id="Elipse_759" data-name="Elipse 759" cx="12.651" cy="12.651" r="12.651" transform="translate(134.359 51.522)" fill="#d0ecf4"/>
            <path id="Trazado_41865" data-name="Trazado 41865" d="M-135.124-380.662l-8.148,22.891a12.588,12.588,0,0,0,6.912,2.375l8.094-22.742A12.589,12.589,0,0,0-135.124-380.662Z" transform="translate(252.897 436.863)" fill="#fafeff" opacity="0.69"/>
            <path id="Trazado_41866" data-name="Trazado 41866" d="M-100.1-386.277c-.2,0-.406.006-.607.016l-7.847,22.045a12.6,12.6,0,0,0,6.65,3.112l8.317-23.368A12.6,12.6,0,0,0-100.1-386.277Z" transform="translate(247.111 437.799)" fill="#fafeff" opacity="0.69"/>
            <path id="Trazado_41867" data-name="Trazado 41867" d="M-104.717-318.382c21.412.591,30,4.449,30,4.449,5,48.4-9.133,108.816-9.133,108.816,4.137,7.758,1.034,13.962,1.034,13.962,3.62,4.655-1.034,5.172-1.034,5.172-46.026,9.826-85.846,5.688-88.432,4.654s-.517-4.654-.517-4.654c-3.62-5.688,2.068-12.928,2.068-12.928l-21.72-85.846,19.91-27.15q9.949-1.847,18.731-3.1s-.784,25.208,25.355,26.842S-104.717-318.382-104.717-318.382Z" transform="translate(261.093 426.483)" fill="#6d31fd"/>
            <path id="Trazado_41868" data-name="Trazado 41868" d="M-104.328-323.024l-10.86,10.343,7.24,9.826,9.309-12.411Z" transform="translate(248.216 427.257)" fill="#cacbd8"/>
            <path id="Trazado_41869" data-name="Trazado 41869" d="M-98.9-320.152s1.978,27.172-20.292,28.977c-25.491,2.068-25.613-27.281-25.613-27.281a3.56,3.56,0,0,0-3.357.644s-2.068,30.852,26.732,30.641c0,0,22.706,1.328,25.626-22.662a51.214,51.214,0,0,0,.731-9.936A4.223,4.223,0,0,0-98.9-320.152Z" transform="translate(253.717 426.829)" fill="#422c9b"/>
            <path id="Trazado_41870" data-name="Trazado 41870" d="M-135.472-321.966l15.981,9.461-5.171,11.42L-141-311.747Z" transform="translate(252.519 427.081)" fill="#cacbd8"/>
            <path id="Trazado_41871" data-name="Trazado 41871" d="M-117.352-343.773a4.895,4.895,0,0,1-3.249-1.236,4.87,4.87,0,0,1-1.642-3.377.775.775,0,0,1,.195-.566.777.777,0,0,1,.539-.262l.047,0a.782.782,0,0,1,.78.736,3.35,3.35,0,0,0,3.344,3.141c.063,0,.128,0,.193-.006a3.321,3.321,0,0,0,2.3-1.118,3.317,3.317,0,0,0,.835-2.417.778.778,0,0,1,.2-.566.778.778,0,0,1,.538-.262h.048a.782.782,0,0,1,.779.736,4.868,4.868,0,0,1-1.227,3.548,4.873,4.873,0,0,1-3.377,1.642C-117.153-343.775-117.253-343.773-117.352-343.773Z" transform="translate(249.393 431.704)" fill="#4d4d4d"/>
            <path id="Trazado_41872" data-name="Trazado 41872" d="M-164.459-358.056a2.461,2.461,0,0,1,3.611.8c1.376,2.322-.287,3.5-1.175,3.7a1.11,1.11,0,0,1-1-1.748c.6-.659,1.491-.057,1.491-.057S-161.707-358.314-164.459-358.056Z" transform="translate(256.428 433.177)" fill="#d3927a"/>
            <path id="Trazado_41873" data-name="Trazado 41873" d="M-77.1-375.494a1.9,1.9,0,0,0-2.2,1.823c-.127,2.079,1.429,2.3,2.11,2.126a.857.857,0,0,0,.073-1.555c-.646-.24-1.044.486-1.044.486S-79.081-374.7-77.1-375.494Z" transform="translate(242.236 436.004)" fill="#c18370"/>
            <path id="Trazado_41874" data-name="Trazado 41874" d="M-184.717-294.294l1.892,40.413A99.962,99.962,0,0,1-184.717-294.294Z" transform="translate(260.003 422.469)" fill="#422c9b"/>
            <path id="Trazado_41875" data-name="Trazado 41875" d="M-52.473-298.819l-.264,40.457A99.954,99.954,0,0,0-52.473-298.819Z" transform="translate(237.808 423.223)" fill="#422c9b"/>
            <line id="Línea_11" data-name="Línea 11" x2="8.571" y2="0.511" transform="translate(93.726 68.834)" fill="none" stroke="#4d4d4d" stroke-miterlimit="10" stroke-width="2.758"/>
            <path id="Trazado_41876" data-name="Trazado 41876" d="M-147.643-415.527l1.279,3.74,24.16-4.673-.187-5.09Z" transform="translate(253.626 443.678)" fill="#f8cf48"/>
            <g id="Grupo_34746" data-name="Grupo 34746" transform="translate(248.245 79.305)">
              <path id="Trazado_41877" data-name="Trazado 41877" d="M32.19-325.53,40.9-289.486s13.937,2.228,21.365-3.185L60.353-330.76s-7.645-2.817-15.1-.7A50.264,50.264,0,0,0,32.19-325.53Z" transform="translate(-24.592 349.49)" fill="#e4e5ef"/>
              <path id="Trazado_41878" data-name="Trazado 41878" d="M45.767-332.83,50.031-304.5l3.65-.488-4.92-29.148Z" transform="translate(-26.855 349.804)" fill="#f2f0dd"/>
              <path id="Trazado_41879" data-name="Trazado 41879" d="M61.391-306.886l.663,16.217a2.917,2.917,0,0,1-1.9,2.855c-5.647,2.089-12.127,2.045-15.411,1.843a2.908,2.908,0,0,1-2.644-2.217L37.987-305.04s4.12,2.673,13.216,1.291S61.391-306.886,61.391-306.886Z" transform="translate(-25.558 345.263)" fill="#603813"/>
              <path id="Trazado_41880" data-name="Trazado 41880" d="M50.319-303.4s-11.683,1.107-12.336-2.072c-.657-3.2,14.994-3.961,15.408-3.95s7.888-.539,8,2.1S50.319-303.4,50.319-303.4Z" transform="translate(-25.554 345.692)" fill="#72421a"/>
              <path id="Trazado_41881" data-name="Trazado 41881" d="M45.418-307.517s10.189-1.454,12.59-.61-2.878,4.1-7.348,3.974c0,0,6.126-1.437,6.043-2.793s-11.319-.395-12.083.571,3.037,1.39,5.9.865c0,0-.99,1.175-5.3.727S42.316-306.949,45.418-307.517Z" transform="translate(-26.311 345.513)" fill="#603813"/>
              <path id="Trazado_41882" data-name="Trazado 41882" d="M50.88-312.014l-1.944.362.7,4.628a5.631,5.631,0,0,0,3.581-.228l-.858-5.082Z" transform="translate(-27.383 346.171)" fill="#f2f0dd"/>
              <path id="Trazado_41883" data-name="Trazado 41883" d="M63.141-296.084s1.065,8.442-.416,9.26c0,0,2.279.225,2.647-1.492s-.12-8.35-.12-8.35Z" transform="translate(-29.681 343.559)" fill="#e0d8d3"/>
              <path id="Trazado_41884" data-name="Trazado 41884" d="M62.974-298.434l2.111-.583.136,1.278-2.126.447Z" transform="translate(-29.722 343.951)" fill="#e0d8d3"/>
              <path id="Trazado_41885" data-name="Trazado 41885" d="M50.157-333.693l-18.619,3.413-.5,5.435s15.85,2.643,30.883-4.321l-2.029-5.07Z" transform="translate(-24.4 349.821)" fill="#cbcdd8"/>
              <path id="Trazado_41886" data-name="Trazado 41886" d="M59.994-334.6c.24,1.848-5.514,4.118-14.123,5.237s-13.994.535-14.234-1.312,4.755-4.257,13.365-5.376S59.754-336.442,59.994-334.6Z" transform="translate(-24.498 350.211)" fill="#b9bcc9"/>
              <path id="Trazado_41887" data-name="Trazado 41887" d="M44.068-329.919c-8.767.934-11.139-.322-11.257-.683-.068-.528,3.017-3.034,12.513-4.269q.831-.107,1.631-.193c8.457-.9,11.888.243,12.248.794-.263.864-4.462,2.984-13.264,4.128Q44.976-330.016,44.068-329.919Z" transform="translate(-24.695 350.015)" fill="#c0c2cc"/>
              <ellipse id="Elipse_760" data-name="Elipse 760" cx="3.202" cy="0.903" rx="3.202" ry="0.903" transform="translate(16.876 13.48) rotate(-6.083)" fill="#b9bcc9"/>
              <path id="Trazado_41888" data-name="Trazado 41888" d="M42.232-335.211l-2.2-12.916-14.916,1.59a8.951,8.951,0,0,0-.488-5.581l17.78-.821,3,16.522S45.1-335.015,42.232-335.211Z" transform="translate(-23.331 352.938)" fill="#f2f0dd"/>
              <path id="Trazado_41889" data-name="Trazado 41889" d="M26.071-349.068c.005,1.406-.395,2.61-1.216,2.7s-1.608-.978-1.757-2.381.343-3.1,1.163-3.189S26.066-350.479,26.071-349.068Z" transform="translate(-23.072 352.772)" fill="#e5e2cc"/>
              <g id="Grupo_34745" data-name="Grupo 34745" transform="translate(16.942 13.699)">
                <path id="Trazado_41890" data-name="Trazado 41890" d="M49.8-336.5c.052.5-1.33,1.049-3.089,1.237s-3.227-.062-3.28-.558l-.029,3.558c3.409,1.789,7.507-.8,7.507-.8Z" transform="translate(-43.403 336.499)" fill="#cbcdd8"/>
              </g>
              <path id="Trazado_41891" data-name="Trazado 41891" d="M35.189-318.209l1.456,6.43a73.6,73.6,0,0,0,23.937-2.551l-.313-6.552S47.611-316.784,35.189-318.209Z" transform="translate(-25.092 347.595)" fill="#e00b71"/>
              <path id="Trazado_41892" data-name="Trazado 41892" d="M39.236-300.032a50.762,50.762,0,0,0,22.515-2.4l.077,1.867s-12.872,4.182-22.145,2.36Z" transform="translate(-25.766 344.52)" fill="#e00b71"/>
            </g>
            <path id="Trazado_41893" data-name="Trazado 41893" d="M26.431-304.071a5.153,5.153,0,0,1,5.027-3.431c3.914.087,10.907,4.683,11.008,7.868s-2.118,4.922-6.234,4a34.175,34.175,0,0,1-7.567-2.752Z" transform="translate(224.613 424.67)" fill="#e2a388"/>
            <path id="Trazado_41894" data-name="Trazado 41894" d="M26.431-304.2s1.546-5.207,6.648-3.832,10.834,5.5,10.261,9.458-4.815,4.185-7.108,3.612-7.567-3.554-7.567-3.554,9.233,3.67,11.927,1.721.4-6.364-6.137-9.461C29.9-308.41,26.431-304.2,26.431-304.2Z" transform="translate(224.613 424.796)" fill="#d3927a"/>
            <path id="Trazado_41895" data-name="Trazado 41895" d="M-72.26-343.688s-.882,11.147-6.041,19.171c-2.948,4.585-4.152,9.967-2.8,12.434s8.457,3.311,15.093-13.848c0,0,2.92-7.54,2.958-14.661S-72.26-343.688-72.26-343.688Z" transform="translate(242.627 430.89)" fill="#fccc05"/>
            <g id="Grupo_34751" data-name="Grupo 34751" transform="translate(113.899 14.118)">
              <g id="Grupo_34750" data-name="Grupo 34750">
                <g id="Grupo_34749" data-name="Grupo 34749">
                  <g id="Grupo_34747" data-name="Grupo 34747" transform="translate(2.091)">
                    <path id="Trazado_41896" data-name="Trazado 41896" d="M-132.14-429.255a1.321,1.321,0,0,1,0,1.866l-.1.1s1.063.823.536,1.617l.637-.637a2.845,2.845,0,0,0,0-4.019,2.844,2.844,0,0,0-4.018,0l-.1.1a1.3,1.3,0,0,0-.073,1.885l.17.171,1.021-1.021.056-.056a1.321,1.321,0,0,1,1.866,0" transform="translate(135.634 431.162)" fill="#4295a8"/>
                  </g>
                  <g id="Grupo_34748" data-name="Grupo 34748" transform="translate(0 2.005)">
                    <path id="Trazado_41897" data-name="Trazado 41897" d="M-136.236-425.176a1.321,1.321,0,0,1,0-1.867l.1-.1s-1.062-.823-.535-1.617l-.637.638a2.844,2.844,0,0,0,0,4.018,2.845,2.845,0,0,0,4.019,0l.1-.1a1.3,1.3,0,0,0,.074-1.886l-.171-.17-1.021,1.021-.055.055a1.322,1.322,0,0,1-1.867,0" transform="translate(138.143 428.756)" fill="#4295a8"/>
                  </g>
                </g>
                <path id="Trazado_41898" data-name="Trazado 41898" d="M-133.41-428.007l-1.578,1.578a.435.435,0,0,0,0,.614.436.436,0,0,0,.613,0l1.579-1.579a.436.436,0,0,0,0-.613A.435.435,0,0,0-133.41-428.007Z" transform="translate(137.639 430.658)" fill="#4295a8"/>
              </g>
            </g>
            <g id="Grupo_34753" data-name="Grupo 34753" transform="translate(109.749 158.57)">
              <rect id="Rectángulo_5507" data-name="Rectángulo 5507" width="3.154" height="1.614" transform="translate(26.646 15.927)" fill="#fccc05"/>
              <rect id="Rectángulo_5508" data-name="Rectángulo 5508" width="3.154" height="1.614" transform="translate(17.176 29.983)" fill="#fccc05"/>
              <rect id="Rectángulo_5509" data-name="Rectángulo 5509" width="6.221" height="1.614" transform="translate(25.06 17.54)" fill="#fccc05"/>
              <rect id="Rectángulo_5510" data-name="Rectángulo 5510" width="6.221" height="1.614" transform="translate(25.06 19.154)" fill="#fccc05"/>
              <rect id="Rectángulo_5511" data-name="Rectángulo 5511" width="6.221" height="1.614" transform="translate(23.535 18.944)" fill="#fccc05"/>
              <rect id="Rectángulo_5512" data-name="Rectángulo 5512" width="6.221" height="1.614" transform="translate(23.535 20.557)" fill="#fccc05"/>
              <rect id="Rectángulo_5513" data-name="Rectángulo 5513" width="6.221" height="1.614" transform="translate(21.95 20.557)" fill="#fccc05"/>
              <rect id="Rectángulo_5514" data-name="Rectángulo 5514" width="6.221" height="1.614" transform="translate(21.95 22.171)" fill="#fccc05"/>
              <rect id="Rectángulo_5515" data-name="Rectángulo 5515" width="6.221" height="1.614" transform="translate(20.425 22.118)" fill="#fccc05"/>
              <rect id="Rectángulo_5516" data-name="Rectángulo 5516" width="6.221" height="1.614" transform="translate(20.425 23.731)" fill="#fccc05"/>
              <rect id="Rectángulo_5517" data-name="Rectángulo 5517" width="6.221" height="1.614" transform="translate(18.839 23.575)" fill="#fccc05"/>
              <rect id="Rectángulo_5518" data-name="Rectángulo 5518" width="6.221" height="1.614" transform="translate(18.839 25.188)" fill="#fccc05"/>
              <rect id="Rectángulo_5519" data-name="Rectángulo 5519" width="6.221" height="1.614" transform="translate(17.229 25.245)" fill="#fccc05"/>
              <rect id="Rectángulo_5520" data-name="Rectángulo 5520" width="6.221" height="1.614" transform="translate(17.229 26.858)" fill="#fccc05"/>
              <rect id="Rectángulo_5521" data-name="Rectángulo 5521" width="6.221" height="1.614" transform="translate(15.618 26.915)" fill="#fccc05"/>
              <rect id="Rectángulo_5522" data-name="Rectángulo 5522" width="6.221" height="1.614" transform="translate(15.618 28.529)" fill="#fccc05"/>
              <g id="Grupo_34752" data-name="Grupo 34752" transform="translate(12.445)">
                <rect id="Rectángulo_5523" data-name="Rectángulo 5523" width="13.923" height="1.614" transform="translate(9.474)" fill="#fccc05"/>
                <rect id="Rectángulo_5524" data-name="Rectángulo 5524" width="20.347" height="1.614" transform="translate(6.254 1.614)" fill="#fccc05"/>
                <rect id="Rectángulo_5525" data-name="Rectángulo 5525" width="23.525" height="1.614" transform="translate(4.693 3.227)" fill="#fccc05"/>
                <rect id="Rectángulo_5526" data-name="Rectángulo 5526" width="26.747" height="1.614" transform="translate(3.253 4.841)" fill="#fccc05"/>
                <rect id="Rectángulo_5527" data-name="Rectángulo 5527" width="29.808" height="1.614" transform="translate(1.65 6.455)" fill="#fccc05"/>
                <rect id="Rectángulo_5528" data-name="Rectángulo 5528" width="31.055" height="1.614" transform="translate(1.65 7.858)" fill="#fccc05"/>
                <rect id="Rectángulo_5529" data-name="Rectángulo 5529" width="12.615" height="1.614" transform="translate(0 9.472)" fill="#fccc05"/>
                <rect id="Rectángulo_5530" data-name="Rectángulo 5530" width="12.412" height="1.614" transform="translate(20.293 9.472)" fill="#fccc05"/>
                <rect id="Rectángulo_5531" data-name="Rectángulo 5531" width="10.995" height="1.614" transform="translate(0 11.086)" fill="#fccc05"/>
                <rect id="Rectángulo_5532" data-name="Rectángulo 5532" width="10.99" height="1.614" transform="translate(23.397 11.086)" fill="#fccc05"/>
                <rect id="Rectángulo_5533" data-name="Rectángulo 5533" width="9.474" height="1.614" transform="translate(0 12.699)" fill="#fccc05"/>
                <rect id="Rectángulo_5534" data-name="Rectángulo 5534" width="7.919" height="1.614" transform="translate(0 14.169)" fill="#fccc05"/>
                <rect id="Rectángulo_5535" data-name="Rectángulo 5535" width="4.924" height="1.614" transform="translate(1.65 15.783)" fill="#fccc05"/>
                <rect id="Rectángulo_5536" data-name="Rectángulo 5536" width="1.81" height="1.614" transform="translate(2.953 17.253)" fill="#fccc05"/>
                <rect id="Rectángulo_5537" data-name="Rectángulo 5537" width="10.99" height="1.614" transform="translate(23.397 12.699)" fill="#fccc05"/>
                <rect id="Rectángulo_5538" data-name="Rectángulo 5538" width="9.3" height="1.614" transform="translate(25.087 14.313)" fill="#fccc05"/>
                <rect id="Rectángulo_5539" data-name="Rectángulo 5539" width="9.3" height="1.614" transform="translate(25.087 15.927)" fill="#fccc05"/>
                <rect id="Rectángulo_5540" data-name="Rectángulo 5540" width="9.3" height="1.614" transform="translate(25.087 17.54)" fill="#fccc05"/>
                <rect id="Rectángulo_5541" data-name="Rectángulo 5541" width="9.3" height="1.614" transform="translate(25.087 17.54)" fill="#fccc05"/>
                <rect id="Rectángulo_5542" data-name="Rectángulo 5542" width="9.3" height="1.614" transform="translate(25.087 19.154)" fill="#fccc05"/>
                <rect id="Rectángulo_5543" data-name="Rectángulo 5543" width="9.3" height="1.614" transform="translate(25.087 20.768)" fill="#fccc05"/>
                <rect id="Rectángulo_5544" data-name="Rectángulo 5544" width="10.886" height="1.614" transform="translate(23.501 22.381)" fill="#fccc05"/>
                <rect id="Rectángulo_5545" data-name="Rectángulo 5545" width="12.317" height="1.614" transform="translate(22.07 23.731)" fill="#fccc05"/>
                <rect id="Rectángulo_5546" data-name="Rectángulo 5546" width="9.204" height="1.614" transform="translate(23.501 25.345)" fill="#fccc05"/>
                <rect id="Rectángulo_5547" data-name="Rectángulo 5547" width="7.618" height="1.614" transform="translate(25.087 26.959)" fill="#fccc05"/>
                <rect id="Rectángulo_5548" data-name="Rectángulo 5548" width="6.116" height="1.614" transform="translate(25.087 28.572)" fill="#fccc05"/>
                <rect id="Rectángulo_5549" data-name="Rectángulo 5549" width="3.501" height="1.614" transform="translate(26.499 29.983)" fill="#fccc05"/>
                <rect id="Rectángulo_5550" data-name="Rectángulo 5550" width="1.75" height="1.614" transform="translate(26.499 31.596)" fill="#fccc05"/>
              </g>
              <rect id="Rectángulo_5551" data-name="Rectángulo 5551" width="13.923" height="1.614" transform="translate(24.913 47.395) rotate(180)" fill="#fccc05"/>
              <rect id="Rectángulo_5552" data-name="Rectángulo 5552" width="20.347" height="1.614" transform="translate(28.134 45.781) rotate(180)" fill="#fccc05"/>
              <rect id="Rectángulo_5553" data-name="Rectángulo 5553" width="23.525" height="1.614" transform="translate(29.694 44.167) rotate(180)" fill="#fccc05"/>
              <rect id="Rectángulo_5554" data-name="Rectángulo 5554" width="26.747" height="1.614" transform="translate(31.134 42.554) rotate(180)" fill="#fccc05"/>
              <rect id="Rectángulo_5555" data-name="Rectángulo 5555" width="29.808" height="1.614" transform="translate(32.737 40.94) rotate(180)" fill="#fccc05"/>
              <rect id="Rectángulo_5556" data-name="Rectángulo 5556" width="31.055" height="1.614" transform="translate(32.737 39.536) rotate(180)" fill="#fccc05"/>
              <rect id="Rectángulo_5557" data-name="Rectángulo 5557" width="12.615" height="1.614" transform="translate(34.388 37.923) rotate(180)" fill="#fccc05"/>
              <rect id="Rectángulo_5558" data-name="Rectángulo 5558" width="12.412" height="1.614" transform="translate(14.094 37.923) rotate(180)" fill="#fccc05"/>
              <rect id="Rectángulo_5559" data-name="Rectángulo 5559" width="10.995" height="1.614" transform="translate(34.388 36.309) rotate(180)" fill="#fccc05"/>
              <rect id="Rectángulo_5560" data-name="Rectángulo 5560" width="10.99" height="1.614" transform="translate(10.99 36.309) rotate(180)" fill="#fccc05"/>
              <rect id="Rectángulo_5561" data-name="Rectángulo 5561" width="9.474" height="1.614" transform="translate(34.388 34.695) rotate(180)" fill="#fccc05"/>
              <rect id="Rectángulo_5562" data-name="Rectángulo 5562" width="7.919" height="1.614" transform="translate(34.388 33.225) rotate(180)" fill="#fccc05"/>
              <rect id="Rectángulo_5563" data-name="Rectángulo 5563" width="4.924" height="1.614" transform="translate(32.737 31.612) rotate(180)" fill="#fccc05"/>
              <rect id="Rectángulo_5564" data-name="Rectángulo 5564" width="1.81" height="1.614" transform="translate(31.434 30.141) rotate(180)" fill="#fccc05"/>
              <rect id="Rectángulo_5565" data-name="Rectángulo 5565" width="10.99" height="1.614" transform="translate(10.99 34.695) rotate(180)" fill="#fccc05"/>
              <rect id="Rectángulo_5566" data-name="Rectángulo 5566" width="9.3" height="1.614" transform="translate(9.3 33.082) rotate(180)" fill="#fccc05"/>
              <rect id="Rectángulo_5567" data-name="Rectángulo 5567" width="9.3" height="1.614" transform="translate(9.3 31.468) rotate(180)" fill="#fccc05"/>
              <rect id="Rectángulo_5568" data-name="Rectángulo 5568" width="9.3" height="1.614" transform="translate(9.3 29.854) rotate(180)" fill="#fccc05"/>
              <rect id="Rectángulo_5569" data-name="Rectángulo 5569" width="9.3" height="1.614" transform="translate(9.3 29.854) rotate(180)" fill="#fccc05"/>
              <rect id="Rectángulo_5570" data-name="Rectángulo 5570" width="9.3" height="1.614" transform="translate(9.3 28.241) rotate(180)" fill="#fccc05"/>
              <rect id="Rectángulo_5571" data-name="Rectángulo 5571" width="9.3" height="1.614" transform="translate(9.3 26.627) rotate(180)" fill="#fccc05"/>
              <rect id="Rectángulo_5572" data-name="Rectángulo 5572" width="10.886" height="1.614" transform="translate(10.886 25.013) rotate(180)" fill="#fccc05"/>
              <rect id="Rectángulo_5573" data-name="Rectángulo 5573" width="12.317" height="1.614" transform="translate(12.317 23.663) rotate(180)" fill="#fccc05"/>
              <rect id="Rectángulo_5574" data-name="Rectángulo 5574" width="9.204" height="1.614" transform="translate(10.886 22.049) rotate(180)" fill="#fccc05"/>
              <rect id="Rectángulo_5575" data-name="Rectángulo 5575" width="7.618" height="1.614" transform="translate(9.3 20.436) rotate(180)" fill="#fccc05"/>
              <rect id="Rectángulo_5576" data-name="Rectángulo 5576" width="6.116" height="1.614" transform="translate(9.3 18.822) rotate(180)" fill="#fccc05"/>
              <rect id="Rectángulo_5577" data-name="Rectángulo 5577" width="3.501" height="1.614" transform="translate(7.888 17.412) rotate(180)" fill="#fccc05"/>
              <rect id="Rectángulo_5578" data-name="Rectángulo 5578" width="1.75" height="1.614" transform="translate(7.888 15.798) rotate(180)" fill="#fccc05"/>
            </g>
          </g>
        </g>
      </g>
    </g>
  </g>
</svg>
