<svg id="Grupo_3995" data-name="Grupo 3995" xmlns="http://www.w3.org/2000/svg" xmlns:xlink="http://www.w3.org/1999/xlink" width="248" height="240" viewBox="0 0 248 240">
  <defs>
    <clipPath id="clip-path">
      <circle id="Elipse_772" data-name="Elipse 772" cx="100" cy="100" r="100" fill="none"/>
    </clipPath>
  </defs>
  <g id="Grupo_34744" data-name="Grupo 34744">
    <rect id="Rectángulo_2130" data-name="Rectángulo 2130" width="248" height="240" fill="none"/>
    <g id="Grupo_34765" data-name="Grupo 34765" transform="translate(-747.152 499.886)">
      <g id="Grupo_34764" data-name="Grupo 34764" transform="translate(771.152 -479.886)" clip-path="url(#clip-path)">
        <circle id="Elipse_762" data-name="Elipse 762" cx="100" cy="100" r="100" fill="#fde375"/>
        <g id="Grupo_34763" data-name="Grupo 34763" transform="translate(-89.904 28.259)">
          <path id="Trazado_41899" data-name="Trazado 41899" d="M679.146-315.531l-1.682-24.719a42.185,42.185,0,0,1,18.081-4.055l4.65,28.774Z" transform="translate(-665.633 429.03)" fill="#edb477"/>
          <path id="Trazado_41900" data-name="Trazado 41900" d="M960.4-60.062,966.46-64.9v-6.547l-9.362,1.1Z" transform="translate(-712.239 383.553)" fill="#a48502"/>
          <path id="Trazado_41901" data-name="Trazado 41901" d="M947.737-89.845,799.544-124.958s-2.464,7.937,6.586,14.321c-.5.385-.824.628-.824.628a50.367,50.367,0,0,0,13.909,4.812l0,0c.983.237,2.008.461,3.088.668,21.7,4.167,14.6,33.1,46.335,34.326s24.764-7.526,68.39-5.262a4.892,4.892,0,0,1,3.121,1.652s2.569,1.1,5.139-2.815A17.325,17.325,0,0,0,947.737-89.845Z" transform="translate(-685.929 392.472)" fill="#dbb100"/>
          <path id="Trazado_41902" data-name="Trazado 41902" d="M700.819-321.481s1.361-10.945-3.736-11.912-19.049.353-21.258,5.83,1.63,8.309,1.63,8.309Z" transform="translate(-665.246 427.26)" fill="#dbb100"/>
          <path id="Trazado_41903" data-name="Trazado 41903" d="M826.944-419.156s-1.484-19.324,22.415-25.387,31.32,9.079,31.32,9.079a16.979,16.979,0,0,1,13.165-5.188c8.451.383,12.882,9.2,12.882,9.2s22.827-7.112,33.872,12.328-.4,31.917-.4,31.917,8.64,1.766,6.665,14.183-12.283,13.858-12.283,13.858-.074,24.188-21.934,21.688c0,0,2.47,15.921-11.68,18.9s-27.462-9.142-27.462-9.142L856.6-331l-16.109,4.657s-25.81-3.879-17.609-27.863c0,0-24.353-2.048-21.536-31.119S826.944-419.156,826.944-419.156Z" transform="translate(-686.241 445.975)" fill="#f80a73"/>
          <path id="Trazado_41904" data-name="Trazado 41904" d="M872.439-361.573c-25.7,5.457-28.42,35.113-16.573,43.434h0l13.144-4.037,13.8,2.842s6.615,6.4,15.008,7.983a56.211,56.211,0,0,0,11.338-1.643c7.1-4.453,6.932-7.68,6.932-7.68,3.032.368-2.093.752,0,0C930.476-347.835,900.541-367.541,872.439-361.573Z" transform="translate(-694.243 432.086)" fill="#bc0f65" opacity="0.5"/>
          <path id="Trazado_41905" data-name="Trazado 41905" d="M859.078-304.357s7.709,21.02,27.778,24.571,29.8-26.116,29.8-26.116S885.464-320.908,859.078-304.357Z" transform="translate(-695.902 423.668)" fill="#725d03"/>
          <path id="Trazado_41906" data-name="Trazado 41906" d="M856.435-297.5s26.446-11.932,64.619-1.652c0,0-15.058,23.863-28.458,32.123l-36.161-19.641Z" transform="translate(-695.462 422.2)" fill="#edb477"/>
          <path id="Trazado_41907" data-name="Trazado 41907" d="M896.287-301.977c35.58,2.347,60.692,11.405,60.692,11.405l-26.832,173L816.435-145.707l-25.027-137.8a194.6,194.6,0,0,1,65.819-17.939s-.005,19.653,18.351,19.9S896.287-301.977,896.287-301.977Z" transform="translate(-684.624 421.975)" fill="#c9ebf5"/>
          <path id="Trazado_41908" data-name="Trazado 41908" d="M872.019-304.892s-1.117,19.228,16.6,20.237,18.18-17.978,17.905-21.425l4.589.591s2.209,25.056-20.556,25.515-23.223-23.312-23.223-23.312Z" transform="translate(-697.279 422.659)" fill="#2bbee0"/>
          <g id="Grupo_34757" data-name="Grupo 34757" transform="translate(171.678 117.033)">
            <path id="Trazado_41909" data-name="Trazado 41909" d="M911.441-305.4l-1.06-.137c-.167,6.442-2.408,22.518-20.6,22.886-11.852.238-17.656-6.089-20.5-12.212,2.317,6.8,7.943,15.253,21.6,14.978C913.65-280.342,911.441-305.4,911.441-305.4Z" transform="translate(-869.281 305.535)" fill="#1eaac1"/>
          </g>
          <path id="Trazado_41910" data-name="Trazado 41910" d="M917.562-306.285a255.962,255.962,0,0,1,38.9,11.168s-8.588,56.315-2.715,79.718c0,0-5.873,26.341-1.835,48a104.149,104.149,0,0,1-.734,40.383s3.182,5.629-5.14,7.464c0,0-56.047,11.5-80.522,6.608-19.543-3.908-27.825-18.819-36.9-22.517-10.814-4.4-29.792-1.591-32.484-11.5s3.637-13.461,3.637-13.461-3.637-7.22,1.38-11.993c0,0,.857-28.635-1.223-43.32s-17.7-32.262-9.033-75.115c0,0,18.219-11.658,50.247-17.107,0,0-4.3,12.733,3.942,18.309s37.446,20.742,37.446,20.742Z" transform="translate(-684.104 422.972)" fill="#fccc05"/>
          <path id="Trazado_41911" data-name="Trazado 41911" d="M810.164-308.005l26.212,22.431s-27.057,81.738-96.189,67.363c-81.563-16.96-65.419-93.858-64.858-96.16a3.757,3.757,0,0,1-1.657-3.834c.265-2.845,3.753-5.048,9.535-5.966s17.713-1.193,19.09,1.285.138,5.461.138,5.461,14.257,26.111,39.955,27.557S782.609-303.113,810.164-308.005Z" transform="translate(-664.997 425.784)" fill="#fccc05"/>
          <path id="Trazado_41912" data-name="Trazado 41912" d="M943.844-141.174l-2.622-.553s-2.254-8.9,5.18-10.185c0,0-.263-8.26,10.751-11.2s19.8-17.393,19.992-18.9c0,0-1.709,13.849-1.168,22.018Z" transform="translate(-709.539 401.98)" fill="#dbb100" opacity="0.2" style="mix-blend-mode: multiply;isolation: isolate"/>
          <path id="Trazado_41913" data-name="Trazado 41913" d="M946.031-84.214c13.551-2.145,24.064-4.068,24.064-4.068,8.322-1.835,5.139-7.464,5.139-7.464a99.94,99.94,0,0,0,2.353-23.047l-44.938-1.551a21.171,21.171,0,0,0,4.405,10.438l4.5-2.541s3.947,5.687,10.738,4.952c2.46-.266,6.549.626,10.764,1.869C963.061-105.59,966.178-90.389,946.031-84.214Z" transform="translate(-708.164 391.703)" fill="#dbb100" opacity="0.2" style="mix-blend-mode: multiply;isolation: isolate"/>
          <path id="Trazado_41914" data-name="Trazado 41914" d="M882.559-267.5c-16.2-9.367-32.844-16.954-41.257-22-8.107-4.864-3.09-13.92-3.09-13.92,12.207-17.805,37.232-15.082,37.232-15.082l1.1,5.323-20.656,7.252s4.656,15.932,19.035,23.868,15.709,8.047,15.709,8.047Z" transform="translate(-692.169 424.755)" fill="#dbb100"/>
          <path id="Trazado_41915" data-name="Trazado 41915" d="M882.559-267.5c-16.2-9.367-32.844-16.954-41.257-22-8.107-4.864-3.09-13.92-3.09-13.92,12.207-17.805,37.232-15.082,37.232-15.082l1.1,5.323-20.656,7.252s4.656,15.932,19.035,23.868,15.709,8.047,15.709,8.047Z" transform="translate(-692.169 424.755)" fill="#dbb100" opacity="0.4" style="mix-blend-mode: multiply;isolation: isolate"/>
          <path id="Trazado_41916" data-name="Trazado 41916" d="M892.285-318.636s45.992-4.2,48.158,9.855c2.63,17.062-33.56,36.642-43.769,41.8a4.648,4.648,0,0,1-4.934-.466l-1.163-.9s28.091-26.4,31.33-38.742a80.782,80.782,0,0,0-22.458-6.348Z" transform="translate(-701.152 424.849)" fill="#dbb100"/>
          <path id="Trazado_41917" data-name="Trazado 41917" d="M843-293.611s32.307-41.484,82.235-6.425C925.233-300.036,880.628-329.588,843-293.611Z" transform="translate(-693.222 423.997)" fill="#a48502"/>
          <g id="Grupo_34758" data-name="Grupo 34758" transform="translate(213.41 72.101)">
            <circle id="Elipse_763" data-name="Elipse 763" cx="6.289" cy="6.289" r="6.289" transform="translate(0 0)" fill="#dd9f66"/>
            <path id="Trazado_41918" data-name="Trazado 41918" d="M928.695-354.585a2.188,2.188,0,0,0-2.781,1.755c-.454,2.356,1.289,2.84,2.093,2.741a.986.986,0,0,0,.315-1.763c-.7-.371-1.264.4-1.264.4S926.315-353.975,928.695-354.585Z" transform="translate(-920.439 358.654)" fill="#cc8652"/>
            <path id="Trazado_41919" data-name="Trazado 41919" d="M926.15-359.454a6.285,6.285,0,0,1,5.893,4.112,10.474,10.474,0,0,0-8.062,5.634l-1.613-8.474A6.252,6.252,0,0,1,926.15-359.454Z" transform="translate(-919.861 359.454)" fill="#db9b63" opacity="0.29" style="mix-blend-mode: multiply;isolation: isolate"/>
          </g>
          <g id="Grupo_34759" data-name="Grupo 34759" transform="translate(152.761 72.101)">
            <circle id="Elipse_764" data-name="Elipse 764" cx="6.289" cy="6.289" r="6.289" transform="translate(0 0)" fill="#dd9f66"/>
            <path id="Trazado_41920" data-name="Trazado 41920" d="M851.756-354.585a2.188,2.188,0,0,1,2.781,1.755c.454,2.356-1.289,2.84-2.093,2.741a.986.986,0,0,1-.315-1.763c.7-.371,1.264.4,1.264.4S854.135-353.975,851.756-354.585Z" transform="translate(-847.434 358.654)" fill="#cc8652"/>
            <path id="Trazado_41921" data-name="Trazado 41921" d="M852.947-359.454a6.285,6.285,0,0,0-5.893,4.112,10.474,10.474,0,0,1,8.062,5.634l1.612-8.474A6.252,6.252,0,0,0,852.947-359.454Z" transform="translate(-846.659 359.454)" fill="#db9b63" opacity="0.29" style="mix-blend-mode: multiply;isolation: isolate"/>
          </g>
          <path id="Trazado_41922" data-name="Trazado 41922" d="M902.313-300.922V-323.87H879.231l-.5,21.916,10.638,7.487a1.33,1.33,0,0,0,1.413.081S901.555-300.342,902.313-300.922Z" transform="translate(-699.177 425.624)" fill="#edb477"/>
          <path id="Trazado_41923" data-name="Trazado 41923" d="M879.239-325.842l23.083-6.543v16.923l-23.544,6.689Z" transform="translate(-699.185 427.043)" fill="#db9b63"/>
          <circle id="Elipse_765" data-name="Elipse 765" cx="30.436" cy="30.436" r="30.436" transform="translate(159.038 47.907)" fill="#edb477"/>
          <path id="Trazado_41924" data-name="Trazado 41924" d="M887.619-362.812s6.5,3.585,10.686,1.566c0,0,5.358,7.7,15.2,3.284,0-.014,1.483,1.406,1.483,1.393A30.341,30.341,0,0,0,913-367.392c-.188-.346-.386-.686-.6-1.013-2.937-4.588-32.307-11.2-32.307-11.2l-20.333,5.383a30.286,30.286,0,0,0-5.648,17.65,39.844,39.844,0,0,0,.462,5.312C857.271-350.727,875.388-351.859,887.619-362.812Z" transform="translate(-695.074 434.913)" fill="#db9b63" opacity="0.19" style="mix-blend-mode: multiply;isolation: isolate"/>
          <g id="Grupo_34760" data-name="Grupo 34760" transform="translate(171.38 84.311)">
            <path id="Trazado_41925" data-name="Trazado 41925" d="M902.428-344.8a2.847,2.847,0,0,1,2.83,3.313A18.456,18.456,0,0,1,887.1-326.352a18.456,18.456,0,0,1-18.13-15.01,2.878,2.878,0,0,1,2.809-3.44Z" transform="translate(-868.922 344.802)" fill="#062625"/>
            <path id="Trazado_41926" data-name="Trazado 41926" d="M901.039-330a17.578,17.578,0,0,0-12.854-5.309,17.573,17.573,0,0,0-12.868,5.325,18.385,18.385,0,0,0,12.853,5.218A18.386,18.386,0,0,0,901.039-330Z" transform="translate(-869.988 343.221)" fill="#ed1c24"/>
            <path id="Trazado_41927" data-name="Trazado 41927" d="M887.717-332.686a18.041,18.041,0,0,1,9.519,5.944A18.515,18.515,0,0,0,901.817-330a17.578,17.578,0,0,0-12.854-5.309,18.342,18.342,0,0,0-8.981,2.3A18.556,18.556,0,0,1,887.717-332.686Z" transform="translate(-870.766 343.221)" fill="#fc3a49"/>
          </g>
          <path id="Trazado_41928" data-name="Trazado 41928" d="M845.862-364.782s22.761,11.119,40.842-7.19a12.837,12.837,0,0,0,11.412,3.763s6.853,11.668,20.436,1.922l11.381-4.737s-6.241-24.719-28.635-28.635-48.092,7.32-49.806,19.568S845.862-364.782,845.862-364.782Z" transform="translate(-693.699 438.387)" fill="#f80a73"/>
          <path id="Trazado_41929" data-name="Trazado 41929" d="M868.99-344.3" transform="translate(-697.554 429.03)" fill="none" stroke="#f80a73" stroke-miterlimit="10" stroke-width="0.738"/>
          <g id="Grupo_34761" data-name="Grupo 34761" transform="translate(209.254 80.086)">
            <circle id="Elipse_766" data-name="Elipse 766" cx="0.803" cy="0.803" r="0.803" fill="#f80a73"/>
            <circle id="Elipse_767" data-name="Elipse 767" cx="0.803" cy="0.803" r="0.803" transform="translate(3.319)" fill="#f80a73"/>
            <circle id="Elipse_768" data-name="Elipse 768" cx="0.803" cy="0.803" r="0.803" transform="translate(1.606 1.847)" fill="#f80a73"/>
          </g>
          <g id="Grupo_34762" data-name="Grupo 34762" transform="translate(164.996 80.086)">
            <circle id="Elipse_769" data-name="Elipse 769" cx="0.803" cy="0.803" r="0.803" fill="#f80a73"/>
            <circle id="Elipse_770" data-name="Elipse 770" cx="0.803" cy="0.803" r="0.803" transform="translate(3.319)" fill="#f80a73"/>
            <circle id="Elipse_771" data-name="Elipse 771" cx="0.803" cy="0.803" r="0.803" transform="translate(1.606 1.847)" fill="#f80a73"/>
          </g>
          <path id="Trazado_41930" data-name="Trazado 41930" d="M839.237-160.859c-1.1,5.08-5.313,20.175-18.818,35.511a1.815,1.815,0,0,0,.775,2.923l2.484.838a1.812,1.812,0,0,0,1.88-.453c3.359-3.457,16.089-17.687,19.154-37.7a1.825,1.825,0,0,0-1.39-2.062l-1.909-.435A1.813,1.813,0,0,0,839.237-160.859Z" transform="translate(-689.383 398.693)" fill="#dbb100"/>
          <path id="Trazado_41931" data-name="Trazado 41931" d="M854.172-158.587s27.849,6.629,55.405,2.707C909.577-155.88,882.9-149.037,854.172-158.587Z" transform="translate(-695.084 398.077)" fill="#dbb100"/>
          <path id="Trazado_41932" data-name="Trazado 41932" d="M834.925-110.867s51.149,8.624,79.325,4.586C914.25-106.281,885.156-98.939,834.925-110.867Z" transform="translate(-691.877 390.123)" fill="#dbb100"/>
          <path id="Trazado_41933" data-name="Trazado 41933" d="M940.8-135.934l-7.175,1.472s.552,11.038,3.587,15.822l7.974-1.1Z" transform="translate(-708.327 394.301)" fill="#edb477"/>
          <path id="Trazado_41934" data-name="Trazado 41934" d="M935.966-133.76s-3.735-3.768-7.062-4.048c0,0-.022,7.489,5.866,21.406,0,0,4.426.426,3.852-4.02C938.621-120.422,934.4-127.321,935.966-133.76Z" transform="translate(-707.54 394.614)" fill="#edb477"/>
          <path id="Trazado_41935" data-name="Trazado 41935" d="M953.118-141.2s-11-.8-11.7,4.344,1.333,19.006,6.917,20.929,8.214-2.055,8.214-2.055Z" transform="translate(-709.602 395.187)" fill="#dbb100"/>
          <path id="Trazado_41936" data-name="Trazado 41936" d="M941.529-271.665l17.529-29.715s85.231,14.808,82.694,89.739c-2.753,81.317-78.952,70.087-81.317,69.936,0,0-4.406,2.845-7.159,1.01s-3.762-4.747-5.415-16.613,1.377-14.684,4.13-14.226c0,0,.368-3.4,5.323-4.038s21.935-5.232,29.277-14.409-.158-20.278-7.513-23.952S935.1-246.946,941.529-271.665Z" transform="translate(-709.519 421.876)" fill="#fccc05"/>
          <path id="Trazado_41937" data-name="Trazado 41937" d="M991.043-282.876s-16.1,31.843-5.384,60.553C985.659-222.323,980.519-245.04,991.043-282.876Z" transform="translate(-716.385 418.792)" fill="#dbb100"/>
          <path id="Trazado_41938" data-name="Trazado 41938" d="M809.887-280.133s-11.342,27.245-6.719,58.567C803.167-221.566,802.427-253.508,809.887-280.133Z" transform="translate(-686.399 418.334)" fill="#dbb100"/>
          <path id="Trazado_41939" data-name="Trazado 41939" d="M929.363-153.759c-.056,5.2.7,20.852,10.46,38.8a1.815,1.815,0,0,1-1.4,2.678l-2.608.264a1.811,1.811,0,0,1-1.732-.859c-2.507-4.117-11.758-20.819-10.3-41.013a1.824,1.824,0,0,1,1.814-1.7h1.958A1.812,1.812,0,0,1,929.363-153.759Z" transform="translate(-706.659 397.577)" fill="#dbb100"/>
          <path id="Trazado_41940" data-name="Trazado 41940" d="M955.48-141.2s-.789,16.211,5.967,23.218C961.448-117.977,958.726-121.677,955.48-141.2Z" transform="translate(-711.964 395.178)" fill="#dbb100"/>
          <path id="Trazado_41941" data-name="Trazado 41941" d="M677.464-313.74s7.8-6.239,23.908-2.832C701.371-316.572,687.743-317.319,677.464-313.74Z" transform="translate(-665.633 424.577)" fill="#dbb100"/>
          <path id="Trazado_41942" data-name="Trazado 41942" d="M804.744-131.5l9.912,1.723A9.427,9.427,0,0,1,804.744-131.5Z" transform="translate(-686.846 393.563)" fill="#dbb100"/>
          <path id="Trazado_41943" data-name="Trazado 41943" d="M668.186-362.017s-4.344,25.8,14.073,20.35c0,0,14.93-1.04,17.01-9.545s-1.285-23.618-1.285-23.618-25.331,3.732-28.635,6.608A4.761,4.761,0,0,0,668.186-362.017Z" transform="translate(-663.973 434.117)" fill="#edb477"/>
          <path id="Trazado_41944" data-name="Trazado 41944" d="M693.16-366.6s3.2-30.473,10.371-30.8c11.518-.527.249,41.313.249,41.313Z" transform="translate(-668.249 437.88)" fill="#edb477"/>
          <path id="Trazado_41945" data-name="Trazado 41945" d="M682.274-366.468s-6.458-29.953.254-32.5c10.78-4.09,12.332,30.509,12.332,30.509Z" transform="translate(-665.969 438.196)" fill="#edb477"/>
          <path id="Trazado_41946" data-name="Trazado 41946" d="M679.091-378.217A5.2,5.2,0,0,0,672.8-374c-1.348,5.393-.932,15.168,5.236,15.786S685.1-377.149,679.091-378.217Z" transform="translate(-664.75 434.7)" fill="#efa15b"/>
          <path id="Trazado_41947" data-name="Trazado 41947" d="M670.1-374.346a5.2,5.2,0,0,0-6.292,4.213c-1.348,5.393-.411,12.492,5.757,13.109S676.106-373.279,670.1-374.346Z" transform="translate(-663.267 434.055)" fill="#efa15b"/>
          <path id="Trazado_41948" data-name="Trazado 41948" d="M705.894-360.5c.7-4.22-3.661-7-9.109-6.617-7.678.539-13.982,3.611-13.268,7.409s8.795,4.458,14.75,3.563C698.267-356.145,705.355-357.244,705.894-360.5Z" transform="translate(-666.633 432.838)" fill="#efa15b"/>
          <path id="Trazado_41949" data-name="Trazado 41949" d="M684.706-354.179s-3.4,4.65-.827,9.882A22.16,22.16,0,0,1,684.706-354.179Z" transform="translate(-666.542 430.675)" fill="#efa15b"/>
          <path id="Trazado_41950" data-name="Trazado 41950" d="M671.186-350.408l8.995-2.707S675.5-349.765,671.186-350.408Z" transform="translate(-664.587 430.498)" fill="#efa15b"/>
        </g>
      </g>
    </g>
  </g>
</svg>
