<svg xmlns="http://www.w3.org/2000/svg" xmlns:xlink="http://www.w3.org/1999/xlink" width="248" height="240" viewBox="0 0 248 240">
  <defs>
    <clipPath id="clip-path">
      <circle id="Elipse_780" data-name="Elipse 780" cx="100" cy="100" r="100" fill="none"/>
    </clipPath>
  </defs>
  <g id="Grupo_3997" data-name="Grupo 3997" transform="translate(-48 -119.9)">
    <g id="Grupo_3995" data-name="Grupo 3995" transform="translate(48 119.9)">
      <g id="Grupo_34744" data-name="Grupo 34744">
        <rect id="Rectángulo_2130" data-name="Rectángulo 2130" width="248" height="240" fill="none"/>
        <g id="Grupo_34782" data-name="Grupo 34782" transform="translate(-237.061 499.886)">
          <g id="Grupo_34781" data-name="Grupo 34781" transform="translate(261.061 -479.886)" clip-path="url(#clip-path)">
            <circle id="Elipse_773" data-name="Elipse 773" cx="100" cy="100" r="100" fill="#fde375"/>
            <g id="Grupo_34780" data-name="Grupo 34780" transform="translate(18.519 32.527)">
              <path id="Trazado_41951" data-name="Trazado 41951" d="M387.179-124.2s-15.786.457-25.394,1.831S320.832-121,320.832-121l2.288-42.823,95.323.69v29.549l-17.724,14.405Z" transform="translate(-289.541 394.681)" fill="#006070"/>
              <path id="Trazado_41952" data-name="Trazado 41952" d="M423.355-135.5l-4.912,1.177V-142.4l-96.283.107-1.328,24.863s1.117,0,2.992-.009L322.9-85.081a169.861,169.861,0,0,1,44.321-6.387c.911-12.753,1.645-22.828,2.035-28.153,3.353-.288,6.8-.5,9.76-.662.67,5.629,1.923,16.2,3.479,29.486,15.228,1.526,31.244,5.872,45.3,15.373Z" transform="translate(-289.541 391.111)" fill="#084f4d" opacity="0.25" style="mix-blend-mode: multiply;isolation: isolate"/>
              <path id="Trazado_41953" data-name="Trazado 41953" d="M323.505-299.727s18.576-13.217,49.647-14.243,56.466,11.528,56.466,11.528v161.995l-59.369-20.7L318.773-139.7Z" transform="translate(-289.198 419.716)" fill="#fccc05"/>
              <path id="Trazado_41954" data-name="Trazado 41954" d="M384.323-229.253c1.548-52.573,2.415-69.388,2.415-69.388l-7.548.112s-.68,16.982-1.892,69.565c-.805,34.941-.969,57.24-.536,71.676l3.113-1.3,3.947,1.376C383.356-170.809,383.3-194.659,384.323-229.253Z" transform="translate(-298.824 417.151)" fill="#dbb100" opacity="0.5"/>
              <path id="Trazado_41955" data-name="Trazado 41955" d="M364.154-317.89a174.11,174.11,0,0,1,31.307-.773s1.935.128,2.322,1.2,2.454,6.75,2.454,6.75a3.206,3.206,0,0,1-.687,2.622c-1.033,1.333-11.049,13.371-11.049,13.371a2.094,2.094,0,0,1-2.021.645c-1.075-.387-6.1-6.965-6.1-6.965l-5.245,6.792s-.838.989-1.579.358c-1.831-1.561-13-11.535-13-11.535a2.96,2.96,0,0,1-.9-2.709c.172-1.934,3.055-8.34,3.055-8.34S363.029-317.772,364.154-317.89Z" transform="translate(-296.008 420.547)" fill="#dbb100"/>
              <path id="Trazado_41956" data-name="Trazado 41956" d="M368.961-314.948l24.822.459s1.233.057.487.888c-.636.709-10.148,5.987-12.919,7.517a1.371,1.371,0,0,1-1.453-.079l-11.538-8.127S367.73-314.971,368.961-314.948Z" transform="translate(-297.435 419.869)" fill="#a48502"/>
              <path id="Trazado_41957" data-name="Trazado 41957" d="M395.777-426.19s19.834-5.045,26.369,12.038.8,21.337,3.325,30.5,1.949,30.146-23.617,32.9l-.344-4.472s-8.14,10.547-19.6,11.121-15.133-.344-20.98.688-12.382-.115-15.248-5.159S334.9-357.287,326.3-360.038,341.893-416.1,341.893-416.1l34.165-14.79Z" transform="translate(-290.145 439.193)" fill="#2bbee0"/>
              <path id="Trazado_41958" data-name="Trazado 41958" d="M326.842-355.772c7.871,2.678,14.881,6.176,17.542,10.859,2.866,5.044,9.4,6.191,15.248,5.159s9.515-.115,20.98-.688,19.6-11.121,19.6-11.121l.344,4.472c10.651-1.147,16.443-5.307,19.56-10.482,3.91-6.492-.526-14.827-4.575-21.234-2.053-3.249-2.846-4.005-6.586-6.283-10.175-6.2-9.545-18.239-24.473-26.819s-37.921,7.893-41.009,24.022-21.448,30.714-21.448,30.714,2.409,1.479,4.878,2.971A8.307,8.307,0,0,1,326.842-355.772Z" transform="translate(-289.741 436.421)" fill="#4295a8"/>
              <circle id="Elipse_774" data-name="Elipse 774" cx="7.579" cy="7.579" r="7.579" transform="translate(114.602 48.484)" fill="#f9cdaf"/>
              <path id="Trazado_41959" data-name="Trazado 41959" d="M392.426-315.887v-21.452H370.848l-.467,20.487,9.943,7a1.245,1.245,0,0,0,1.321.076S391.717-315.346,392.426-315.887Z" transform="translate(-297.799 423.601)" fill="#f9cdaf"/>
              <path id="Trazado_41960" data-name="Trazado 41960" d="M370.849-337.339l21.577,4.227v5.476l-22.045,7.614Z" transform="translate(-297.799 423.601)" fill="#efbb97"/>
              <circle id="Elipse_775" data-name="Elipse 775" cx="39.188" cy="39.188" r="39.188" transform="translate(43.705 15.548)" fill="#f9cdaf"/>
              <path id="Trazado_41961" data-name="Trazado 41961" d="M338.817-369.908s10.574-5.807,25.167-28.721c7.168-11.257,23.678-8.007,23.678-8.007s4.348,20.544,23.693,18.9l-24.772-37.827-23.934-4.572-15.344,12.678-10.9,42.029Z" transform="translate(-292.137 439.067)" fill="#efbb97" opacity="0.55"/>
              <path id="Trazado_41962" data-name="Trazado 41962" d="M397.613-430.545a52.909,52.909,0,0,0-38.035-9.918c-22.929,2.752-28.432,15.822-30.267,22.7s-5.273,9.172-11.235,13.069-10.313,11.882-6.879,19.967-9.172,25.434,17.427,32.313c0,0-9.952-9.631,2.362-16.968s15.064-23.388,16.9-30.726,17.021-21.195,38.292-10.777c0,0,2.867,23.877,26.942,18.075C413.119-392.808,417.548-421.064,397.613-430.545Z" transform="translate(-287.733 440.853)" fill="#2bbee0"/>
              <path id="Trazado_41963" data-name="Trazado 41963" d="M365.307-416.045c-16.167,3.589-18.446,18.457-19.628,28.488-1.162,9.872-10.482,22.222-10.482,22.222,12.313-7.337,15.064-23.388,16.9-30.726s17.021-21.195,38.292-10.777C390.389-406.838,380.921-419.511,365.307-416.045Z" transform="translate(-291.935 436.819)" fill="#0e7992"/>
              <path id="Trazado_41964" data-name="Trazado 41964" d="M418.211-424.287l-4.987-4.815a28.179,28.179,0,0,0-.43-9.372l5.331-.43v6.277l4.643-4.557,3.649,3.661A24.186,24.186,0,0,0,418.211-424.287Z" transform="translate(-304.868 440.529)" fill="#2bbee0"/>
              <path id="Trazado_41965" data-name="Trazado 41965" d="M432.263-376.224a2.526,2.526,0,0,0-2.921,2.424c-.168,2.762,1.9,3.057,2.8,2.824a1.139,1.139,0,0,0,.1-2.066c-.858-.32-1.388.646-1.388.646S429.63-375.17,432.263-376.224Z" transform="translate(-307.625 430.084)" fill="#efbb97"/>
              <path id="Trazado_41966" data-name="Trazado 41966" d="M411.018-316.832a499.224,499.224,0,0,1,1.488,56.964C411.59-227.152,419.718-51.9,419.718-51.9a3.215,3.215,0,0,0,3.654,3.174c3.689-.086,28.4-7.722,31.572-9.437s2.231-7.635,1.631-12.783-6.512-96.258-6.693-98.147c-.343-3.6-4.461-12.612-4.461-12.612l4.547-6.949s.858-.343.858-4.118-.086-51.39-.086-51.39,1.075-40.008-.984-59.855C449.756-304.022,436.465-314.779,411.018-316.832Z" transform="translate(-304.572 420.183)" fill="#6d31fd"/>
              <path id="Trazado_41967" data-name="Trazado 41967" d="M465.9-95.147l.682,21.739L455.664-62.294l-13.453-8.774L440.164-97Z" transform="translate(-309.43 383.544)" fill="#5224e2"/>
              <path id="Trazado_41968" data-name="Trazado 41968" d="M443.645-95.228l-.024.777-3.457-2.629,2.047,25.931,13.453,8.773-6.2-6.5A12.609,12.609,0,0,1,446-76.737v-.006c0-.059-.29-3.966,3.216-5.4h0c1.992-.807,4.363-1.777,6.952-2.863,7.372-3.088,10.129,2.545,10.129,2.545l-.487-15.033Z" transform="translate(-309.43 383.626)" fill="#422c9b" opacity="0.5"/>
              <path id="Trazado_41969" data-name="Trazado 41969" d="M402.824-105.22S399.1-160.128,430.1-161.558c0,0,17.673-.915,18.646.8s.8,7.722,0,8.693-21.219-2.23-27.053,5.491-8.179,15.958-8.065,39.408l-4.8,6.748Z" transform="translate(-303.183 394.345)" fill="#5224e2"/>
              <path id="Trazado_41970" data-name="Trazado 41970" d="M448.779-160.7c-.253-.446-.6-.61-2.5-.762.237,2.418-.133,4.853-2.217,5.538-3.747,1.23-20.619-1.607-26.453,6.115-5.647,7.474-8.025,15.432-8.068,37.207v.043a5.99,5.99,0,0,1-2.842,4.955l-3.844,2.442,6,4.8,4.8-6.749c-.115-23.45,2.23-31.686,8.064-39.407s26.253-4.518,27.053-5.491S449.751-158.985,448.779-160.7Z" transform="translate(-303.211 394.288)" fill="#422c9b" opacity="0.5"/>
              <path id="Trazado_41971" data-name="Trazado 41971" d="M412.621-264.9c.078-6.177-.4-41.638-1.6-51.931,0,0,11.611,1.142,16.6,2.817,0,0,.79,24.635.79,41.45l-6.635,1.488,6.635,4.461s-3.546,47.129-4.233,49.875-10.58,14.193-10.58,14.193" transform="translate(-304.572 420.183)" fill="#5224e2"/>
              <path id="Trazado_41972" data-name="Trazado 41972" d="M348.036-314.481a499.219,499.219,0,0,0-1.487,56.964c.915,32.716-7.212,207.962-7.212,207.962a3.216,3.216,0,0,1-3.655,3.175c-3.688-.086-28.4-7.722-31.572-9.437s-2.231-7.636-1.63-12.783,6.512-96.257,6.692-98.147c.343-3.6,4.462-12.612,4.462-12.612l-3.91-5.976a10.207,10.207,0,0,1-1.961-6.131c0-3.774.552-50.351.552-50.351s-1.075-40.008.984-59.854C309.3-301.671,322.588-312.428,348.036-314.481Z" transform="translate(-286.38 419.791)" fill="#6d31fd"/>
              <path id="Trazado_41973" data-name="Trazado 41973" d="M352.188-262.419c-.077-6.177.4-41.638,1.6-51.932,0,0-11.611,1.142-16.6,2.817,0,0-.79,24.635-.79,41.45l6.634,1.487-6.634,4.461s3.546,47.129,4.233,49.875,10.58,14.193,10.58,14.193" transform="translate(-292.137 419.77)" fill="#5224e2"/>
              <path id="Trazado_41974" data-name="Trazado 41974" d="M408.423-412.241l6.225-12.407S413.38-416.3,408.423-412.241Z" transform="translate(-304.14 438.152)" fill="#4295a8"/>
              <path id="Trazado_41975" data-name="Trazado 41975" d="M437.966-163.132s1.236,9.6,1.088,13.454a8.748,8.748,0,0,0,4.646-.032s.626-3.608-1.135-14.024A8.527,8.527,0,0,0,437.966-163.132Z" transform="translate(-309.063 394.681)" fill="#a176ff"/>
              <path id="Trazado_41976" data-name="Trazado 41976" d="M441.693-150.2a8.768,8.768,0,0,1-1.368-.113c-.018-3.542-.739-9.752-1.01-11.957a7.332,7.332,0,0,1,2.2-.316c.138,0,.267,0,.386.008,1.169,7.178,1.143,10.887,1.063,12.26a6.481,6.481,0,0,1-1.269.117Z" transform="translate(-309.288 394.475)" fill="#6d31fd"/>
              <path id="Trazado_41977" data-name="Trazado 41977" d="M440.164-97.759l20.764-3.8s7.311,4.484,10.236,5.752l-19.887,5.557S442.7-95.127,440.164-97.759Z" transform="translate(-309.43 384.305)" fill="#a176ff"/>
              <path id="Trazado_41978" data-name="Trazado 41978" d="M330.213-159.515l8.012-.143s1.487-.176,1.658,1.144,0,8.293,0,8.293.114,1.64-2,1.821-26.027.693-26.939.758c-1.916.137-2.459-2.523-2.688-5.553s-.2-5.806,2.316-5.97l19.643-.351" transform="translate(-287.43 393.989)" fill="#5224e2"/>
              <path id="Trazado_41979" data-name="Trazado 41979" d="M339.94-153.2c-5.254.214-24.984.641-25.812.7-1.916.138-2.459-2.522-2.687-5.553q-.04-.521-.065-1.028l-.8.015c-2.516.164-2.545,2.938-2.316,5.97s.772,5.691,2.688,5.553c.913-.065,24.823-.578,26.939-.758s2-1.821,2-1.821S339.917-151.53,339.94-153.2Z" transform="translate(-287.43 393.891)" fill="#422c9b" opacity="0.5"/>
              <path id="Trazado_41980" data-name="Trazado 41980" d="M330.045-160.623s-.523,9.663-.092,13.5a8.742,8.742,0,0,1-4.635.312s-.891-3.553.1-14.07A8.517,8.517,0,0,1,330.045-160.623Z" transform="translate(-290.227 394.227)" fill="#a176ff"/>
              <path id="Trazado_41981" data-name="Trazado 41981" d="M327.7-147.463a8.82,8.82,0,0,0,1.357-.212c-.243-3.535.017-9.78.123-12a7.321,7.321,0,0,0-2.216-.153c-.138.01-.267.022-.384.037-.636,7.245-.336,10.941-.154,12.3a6.49,6.49,0,0,0,1.274.023Z" transform="translate(-290.435 394.02)" fill="#6d31fd"/>
              <path id="Trazado_41982" data-name="Trazado 41982" d="M375.523-292.623s-.263,8.579,7.051,9.037,7.086-9.833,7.086-9.833" transform="translate(-298.656 416.281)" fill="none" stroke="#1eaac1" stroke-miterlimit="10" stroke-width="1.379"/>
              <g id="Grupo_34771" data-name="Grupo 34771" transform="translate(74.833 120.312)">
                <circle id="Elipse_776" data-name="Elipse 776" cx="2.045" cy="2.045" r="2.045" fill="#0b6060"/>
                <g id="Grupo_34770" data-name="Grupo 34770" transform="translate(0.669 0.787)">
                  <g id="Grupo_34769" data-name="Grupo 34769">
                    <g id="Grupo_34768" data-name="Grupo 34768">
                      <g id="Grupo_34766" data-name="Grupo 34766" transform="translate(0.714)">
                        <path id="Trazado_41983" data-name="Trazado 41983" d="M375.936-294.882a.451.451,0,0,1,0,.638l-.032.033s.362.281.182.553l.217-.218a.97.97,0,0,0,0-1.372.97.97,0,0,0-1.372,0l-.033.033a.443.443,0,0,0-.025.644l.058.058.348-.348.019-.019a.451.451,0,0,1,.637,0" transform="translate(-374.742 295.534)" fill="#128d93"/>
                      </g>
                      <g id="Grupo_34767" data-name="Grupo 34767" transform="translate(0 0.685)">
                        <path id="Trazado_41984" data-name="Trazado 41984" d="M374.537-293.489a.451.451,0,0,1,0-.638l.033-.033s-.363-.281-.183-.553l-.217.217a.973.973,0,0,0,0,1.373.973.973,0,0,0,1.373,0l.033-.033a.444.444,0,0,0,.025-.645l-.057-.057-.349.348-.019.019a.451.451,0,0,1-.638,0" transform="translate(-373.885 294.712)" fill="#128d93"/>
                      </g>
                    </g>
                    <path id="Trazado_41985" data-name="Trazado 41985" d="M375.5-294.457l-.539.54a.148.148,0,0,0,0,.209.149.149,0,0,0,.21,0l.539-.539a.149.149,0,0,0,0-.21A.149.149,0,0,0,375.5-294.457Z" transform="translate(-374.058 295.362)" fill="#128d93"/>
                  </g>
                </g>
              </g>
              <g id="Grupo_34777" data-name="Grupo 34777" transform="translate(88.959 120.312)">
                <circle id="Elipse_777" data-name="Elipse 777" cx="2.045" cy="2.045" r="2.045" fill="#0b6060"/>
                <g id="Grupo_34776" data-name="Grupo 34776" transform="translate(0.669 0.787)">
                  <g id="Grupo_34775" data-name="Grupo 34775">
                    <g id="Grupo_34774" data-name="Grupo 34774">
                      <g id="Grupo_34772" data-name="Grupo 34772" transform="translate(0.714)">
                        <path id="Trazado_41986" data-name="Trazado 41986" d="M392.887-294.882a.451.451,0,0,1,0,.638l-.033.033s.362.281.182.553l.217-.218a.97.97,0,0,0,0-1.372.97.97,0,0,0-1.372,0l-.033.033a.443.443,0,0,0-.025.644l.058.058.348-.348.019-.019a.451.451,0,0,1,.638,0" transform="translate(-391.693 295.534)" fill="#128d93"/>
                      </g>
                      <g id="Grupo_34773" data-name="Grupo 34773" transform="translate(0 0.685)">
                        <path id="Trazado_41987" data-name="Trazado 41987" d="M391.488-293.489a.451.451,0,0,1,0-.638l.033-.033s-.363-.281-.183-.553l-.217.217a.973.973,0,0,0,0,1.373.973.973,0,0,0,1.373,0l.033-.033a.444.444,0,0,0,.025-.645l-.058-.057-.348.348-.019.019a.451.451,0,0,1-.637,0" transform="translate(-390.836 294.712)" fill="#128d93"/>
                      </g>
                    </g>
                    <path id="Trazado_41988" data-name="Trazado 41988" d="M392.453-294.457l-.539.54a.147.147,0,0,0,0,.209.148.148,0,0,0,.209,0l.54-.539a.149.149,0,0,0,0-.21A.149.149,0,0,0,392.453-294.457Z" transform="translate(-391.009 295.362)" fill="#128d93"/>
                  </g>
                </g>
              </g>
              <path id="Trazado_41989" data-name="Trazado 41989" d="M381.679-345.5a3.582,3.582,0,0,1-3.577-3.578v-1.879a.653.653,0,0,1,.652-.652.653.653,0,0,1,.652.652v1.879a2.277,2.277,0,0,0,2.274,2.274,2.276,2.276,0,0,0,2.273-2.274v-1.879a.653.653,0,0,1,.652-.652.653.653,0,0,1,.652.652v1.879A3.582,3.582,0,0,1,381.679-345.5Z" transform="translate(-299.086 425.979)" fill="#4d4d4d"/>
              <path id="Trazado_41990" data-name="Trazado 41990" d="M431.511-367.344l-1.859,3.546,2.316,8.846,2.173-9.3Z" transform="translate(-307.678 428.602)" fill="#bc0f65"/>
              <path id="Trazado_41991" data-name="Trazado 41991" d="M432.14-364.141l-2.488.343,1.859-3.546,2.631,3.089Z" transform="translate(-307.678 428.602)" fill="#f80a73"/>
              <path id="Trazado_41992" data-name="Trazado 41992" d="M431.883-367.344l.458,12.392,2.173-9.3Z" transform="translate(-308.05 428.602)" fill="#e24295" opacity="0.34"/>
              <path id="Trazado_41993" data-name="Trazado 41993" d="M386.955-372.261c-5.753-4.16-9.93-.232-10.106-.062l-1.2-1.239c.053-.051,5.4-5.094,12.314-.1Z" transform="translate(-298.678 430.022)" fill="#ea810f"/>
              <g id="Grupo_34778" data-name="Grupo 34778" transform="translate(46.478 40.009)">
                <circle id="Elipse_778" data-name="Elipse 778" cx="16.553" cy="16.553" r="16.553" fill="#c0d8dd"/>
                <path id="Trazado_41994" data-name="Trazado 41994" d="M359.5-375.04l4.969-16.155a16.478,16.478,0,0,0-7.2-1.647,16.574,16.574,0,0,0-3.807.445l-4.477,14.554h5.315l-4.753,16.195a16.471,16.471,0,0,0,7.723,1.913,16.655,16.655,0,0,0,3.147-.3l4.4-15Z" transform="translate(-340.71 392.842)" fill="#f0fafc"/>
              </g>
              <g id="Grupo_34779" data-name="Grupo 34779" transform="translate(86.246 40.009)">
                <circle id="Elipse_779" data-name="Elipse 779" cx="16.553" cy="16.553" r="16.553" fill="#c0d8dd"/>
                <path id="Trazado_41995" data-name="Trazado 41995" d="M407.221-375.04,412.19-391.2a16.483,16.483,0,0,0-7.2-1.647,16.576,16.576,0,0,0-3.808.445L396.7-377.843h5.315l-4.753,16.195a16.475,16.475,0,0,0,7.723,1.913,16.653,16.653,0,0,0,3.146-.3l4.4-15Z" transform="translate(-388.432 392.842)" fill="#f0fafc"/>
              </g>
              <path id="Trazado_41996" data-name="Trazado 41996" d="M315.572-292.828l-9.372-6.281s-13.263,9.613-22.918,32.342l28.561,12.1Z" transform="translate(-283.283 417.229)" fill="#6d31fd"/>
              <path id="Trazado_41997" data-name="Trazado 41997" d="M445.659-295.54l9.871-5.92s12.764,9.253,22.418,31.981l-28.561,12.1Z" transform="translate(-310.346 417.621)" fill="#6d31fd"/>
            </g>
          </g>
        </g>
      </g>
    </g>
  </g>
</svg>
