<?xml version="1.0" encoding="utf-8"?>
<!-- Generator: Adobe Illustrator 23.0.1, SVG Export Plug-In . SVG Version: 6.00 Build 0)  -->
<svg version="1.1" id="Capa_1" xmlns="http://www.w3.org/2000/svg" xmlns:xlink="http://www.w3.org/1999/xlink" x="0px" y="0px"
	 viewBox="0 0 176 176" style="enable-background:new 0 0 176 176;" xml:space="preserve">
<style type="text/css">
	.st0{fill:none;}
	.st1{fill:#6D31FF;}
	.st2{fill:#1C1C1C;}
	.st3{fill:#191919;}
	.st4{fill:#262626;}
	.st5{fill:#494949;}
	.st6{fill:#383838;}
	.st7{fill:#303030;}
	.st8{fill:#FFFFFF;}
	.st9{fill:#00AEEF;}
	.st10{fill:#48CFF9;}
	.st11{fill:#161616;}
	.st12{fill:#FBFBF9;}
</style>
<g id="Grupo_4000" transform="translate(-6204.469 -400.457)">
	<rect id="Rectángulo_1876" x="6204.5" y="400.5" class="st0" width="176" height="176"/>
	<g id="Grupo_34325" transform="translate(5978.301 285.431)">
		<path id="Trazado_36756" class="st1" d="M303,177.2c0,0-22.5-15.1-37.4,1.8c-14.9,16.9-0.1,36-5.7,48.1
			c-5.6,12.1-21.4,10.1-18.5,33.3c3.9,31.6,83.6,36.1,125.7,21.5c42.1-14.6,26.8-39.5,18.2-48.2c-9.1-9.1,7.8-22.8-9.9-38.1
			C360.5,183,330.6,193.4,303,177.2z"/>
		<path id="Trazado_36757" class="st2" d="M372.8,251.7c6,0.1,5.4,1.6,5.4,1.6c-0.5,3.6,4.5,9.1,5.6,5.9s-1.3-13.1-9.1-14.7
			s-7.1,3.6-7.1,3.6"/>
		<path id="Trazado_36758" class="st3" d="M289.6,222.4c0,0-5.4,25.5,2.9,36.1c0,0-5.8,5.2-5.5,10.6c0.3,5.7,15.4-6.8,54.1,2.1
			c0,0,15.5-50.7-6.2-72.2s-40.4-0.7-40.4-0.7L289.6,222.4z"/>
		<path id="Trazado_36759" class="st4" d="M277.8,171.5c-7.5,25.9-5.7,75.1,0.8,98.7c-6.5,3-6.3,6-5.6,6.4
			c1.8,1.1,13.5,1.6,14.2-0.7s2.1-38.5,2.1-38.5l3.1-55.1L277.8,171.5z"/>
		<path id="Trazado_36760" class="st3" d="M280.2,172.8c0,0-6.8,25.2,0.6,42.7l0.4-2.4l2,9.4l1.2-6l3.5,8.4l0.6-4.9l4,6.8l1.2-2
			l1.3,3.2l1.1-2.4l1.4,2.9l0.7-2.2c0,0,2.3,3.8,3.9,6.1l1.9-3.2l1.3,3.7l2-3l9.5-33.3l3.1-20.8L280.2,172.8z"/>
		<g id="Grupo_34316" transform="translate(278.826 209.172)">
			<path id="Trazado_36761" class="st5" d="M1.5,3.3L0,0c0.5,2.2,1.2,4.3,2,6.3l0.4-2.4l2,9.4l1.2-6l3.5,8.4l0.5-4l-1.4,1.4L6.8,3.6
				l-3,2.1v-4L1.5,3.3z"/>
			<path id="Trazado_36762" class="st5" d="M24.7,1.4c0.3,2.8,0.1,5.5-0.5,8.2l-0.8-3.9l-1.7,5.1l-0.6-4.1l-2.9,8.9l-0.2-3.9
				l-2.4,3.9l-1.3-4.8L13,15.6l-2.5-4.8l-0.4,0.4l3.7,6.3l1.2-2l1.3,3.2l1.1-2.4l0.4,0.7l0.5-0.6l0.7,2.2l0.5-1.6
				c0,0,0.2,0.3,0.5,0.8l1-4.5l0.3,3.9c0,0,4.4-5.2,5.7-9.6c-0.5-2.2-1.2-4.3-2.2-6.3C24.7,1.3,24.7,1.3,24.7,1.4z"/>
		</g>
		<path id="Trazado_36763" class="st4" d="M330.1,169.3l1.1-1.8c1.5,4.1,9.6,29.2,18.9,43.3c10.7,16.3,26.7,33.9,24.1,48.8
			s-19.2,16.1-26.5,16.1c-10.6-0.1-18.4,4-20.3-0.3s14.1-9.5,14.1-9.5s-8.5-5.9-3.3-34.7C342.3,207.9,330.1,169.3,330.1,169.3z"/>
		<path id="Trazado_36764" class="st4" d="M319.5,203.2c0,0,18.4,8.8,18.6,28.1s14,10.2,14,10.2l1.7-19.7c0,0-19.2-36.5-22.5-52.5
			l-17.3,3.2L319.5,203.2z"/>
		<g id="Grupo_34317" transform="translate(328.854 272.75)">
			<path id="Trazado_36765" class="st5" d="M2.1,0.2c0,0-2.4,1.1-2.1,1.7s3-1.1,3.1-1.5C3.2-0.3,2.1,0.2,2.1,0.2z"/>
			<path id="Trazado_36766" class="st5" d="M2.9,1.8c0,0-2.6,0.5-2.4,1.1s3.2-0.3,3.4-0.7C4.1,1.6,2.9,1.8,2.9,1.8z"/>
		</g>
		<path id="Trazado_36767" class="st4" d="M308.7,175c-7.5,25.9-2.7,71.6,3.8,95.3c-6.5,3-6.3,6-5.6,6.4c1.8,1.1,13.5,1.6,14.2-0.7
			s2.1-38.5,2.1-38.5l4.7-46.3l-6.1-14.2L308.7,175z"/>
		<g id="Grupo_34318" transform="translate(308.675 273.181)">
			<path id="Trazado_36768" class="st5" d="M2.1,0.2c0,0-2.4,1.1-2.1,1.7s3-1.1,3.1-1.5C3.2-0.3,2.1,0.2,2.1,0.2z"/>
			<path id="Trazado_36769" class="st5" d="M2.9,1.8c0,0-2.6,0.5-2.4,1.1s3.2-0.3,3.4-0.7C4.1,1.6,2.9,1.8,2.9,1.8z"/>
		</g>
		<g id="Grupo_34319" transform="translate(274.509 272.936)">
			<path id="Trazado_36770" class="st5" d="M2.1,0.2c0,0-2.4,1.1-2.1,1.7s3-1.1,3.1-1.5C3.2-0.3,2.1,0.2,2.1,0.2z"/>
			<path id="Trazado_36771" class="st5" d="M2.9,1.8c0,0-2.6,0.5-2.4,1.1s3.2-0.3,3.4-0.7C4.1,1.6,2.9,1.8,2.9,1.8z"/>
		</g>
		<g id="Grupo_34324" transform="translate(254.293 115.026)">
			<g id="Grupo_34321" transform="translate(0 0)">
				<path id="Trazado_36772" class="st6" d="M53.4,1C33.7-2.9,13.2,4.8,11.7,20.6c-1.1,11.1,2.1,15.2,0.3,22S9,57.9,21,62.1
					S58.3,67,72.3,60c14.1-7,2.6-19,3.8-27S77.9,5.8,53.4,1z"/>
				<path id="Trazado_36773" class="st7" d="M36.2,31.8c-2.8,0.3-2.6-2.6-3.5-6s-5.9-8.2-12.4-4.2s-7.3,8-5.4,14.5s8,4,7.5,7.7
					s-3.2,11,2.1,15.4c7.3,5.9,23,5.9,34.1,0.9c5.9-2.7,0.8-13,2.4-14.7s12.1-0.4,11.9-9.6s-7-14-13.5-12.5s-7.3,4.5-7.5,8.4
					c-0.1,2.4-2,2.3-3.1,1.8C44.8,31.8,40.5,31.3,36.2,31.8z"/>
				<path id="Trazado_36774" d="M32.6,52.3c-3.4,5.2,14.6,6.7,16.2,2.6S42.5,39.8,41.3,40S34.8,47.6,32.6,52.3z"/>
				<path id="Trazado_36775" class="st3" d="M35.2,52.2c-0.3,1,0.3,2.1,1.3,2.4c1.7,0.6,7.4,1,8.4,0.2s0.4-2.5,0.4-2.5L35.2,52.2z"
					/>
				<path id="Trazado_36776" class="st8" d="M31.6,30.6c0,3.9-3.1,7.1-7,7.2c-3.9,0-7.1-3.1-7.2-7c0-3.8,2.9-6.9,6.7-7.2
					C28,23.5,31.4,26.6,31.6,30.6z"/>
				<path id="Trazado_36777" class="st2" d="M18.6,8.4c-2.2-3-5.9-5.6-9.8,2.4c-3,6.2-9.5,6.6-8.7,11.4s7.1,4.2,9.5,9.4
					s6.3-2.7,5.2-9.8s1.8-11.3,1.8-11.3L18.6,8.4z"/>
				<path id="Trazado_36778" class="st2" d="M68.4,7.6c2.2-3,6-5.5,9.8,2.6c2.9,6.2,9.3,6.8,8.5,11.5s-7.2,4.1-9.7,9.2
					s-6.3-2.9-5.1-9.8S70.3,9.7,70.3,9.7L68.4,7.6z"/>
				<path id="Trazado_36779" class="st8" d="M69.8,33.2c0,3.9-3.1,7.1-7,7.2s-7.1-3.1-7.2-7c0-3.8,2.9-6.9,6.7-7.2
					C66.3,26.1,69.6,29.2,69.8,33.2z"/>
				<path id="Trazado_36780" d="M68,33.5c0.2,2.9-2,5.4-4.9,5.6c-2.9,0.2-5.4-2-5.6-4.9c-0.2-2.9,2-5.4,4.9-5.6
					C65.3,28.4,67.8,30.6,68,33.5C68,33.5,68,33.5,68,33.5z"/>
				<path id="Trazado_36781" class="st3" d="M35.6,34.6c-4.7,1.2-14.6,7.7-14.7,13.9c-0.3,4.1,2.8,7.7,7,7.9
					c1.3,0.1,2.6-0.2,3.8-0.7c4.9-2.4,8.6-14.5,9.8-16.4C40.1,36.8,35.6,34.6,35.6,34.6z"/>
				<path id="Trazado_36782" class="st3" d="M40.9,39.8c0.3,2,3.8,7.9,5.2,12.1s5.7,6.3,10.7,4s7.2-7.6,2.6-12.7S48.6,35.1,47,35.6
					C45.2,36.1,40.9,39.8,40.9,39.8z"/>
				<path id="Trazado_36783" d="M15.6,22.3c0.1-0.2,0.7-0.1,1.6-0.1c1.2,0,2.4-0.3,3.5-0.7c1.1-0.5,2.2-1.1,3.1-1.9
					c0.8-0.6,1.2-1,1.4-0.9c0.1,0.1-0.1,0.7-0.7,1.5c-0.9,1.1-2,1.9-3.2,2.5c-0.7,0.3-1.5,0.5-2.2,0.6c-0.6,0.1-1.3,0-1.9-0.1
					C16.1,22.9,15.6,22.5,15.6,22.3z"/>
				<path id="Trazado_36784" d="M62.9,21.6c0.2-0.1,0.6,0.2,1.2,0.7c0.8,0.6,1.7,1.1,2.7,1.5c1,0.4,1.9,0.7,3,0.9
					c0.8,0.2,1.3,0.3,1.3,0.4c0,0.2-0.5,0.4-1.4,0.5c-1.2,0.1-2.3-0.1-3.4-0.6c-1.1-0.4-2.1-1.1-2.8-2.1c-0.2-0.3-0.4-0.6-0.5-0.9
					C62.8,21.8,62.8,21.7,62.9,21.6z"/>
				<path id="Trazado_36785" d="M35.3,34.2c0,0,0-2.5,5.3-2.2s6.7,1.9,7.1,2.9s-0.4,6-6.6,5.6S35.3,34.2,35.3,34.2z"/>
				<path id="Trazado_36786" class="st4" d="M40.4,36.3c0,0-0.2-2.2-2.1-1.9c-1.3,0.3-0.3,4.1,0.9,4.5S40.4,37.4,40.4,36.3z"/>
				<path id="Trazado_36787" class="st4" d="M42.5,36.3c0,0,0.3-2.2,2.2-1.8c1.3,0.3,0.1,4.1-1.1,4.4S42.4,37.5,42.5,36.3z"/>
				<g id="Grupo_34320" transform="translate(42.457 38.272)">
					<path id="Trazado_36788" class="st9" d="M0.5,1.2c0,0-1.3,5.4,0.3,5.8s1.3-6.6,0.9-6.9S0.7,0.3,0.5,1.2z"/>
					<path id="Trazado_36789" class="st10" d="M1.7,0.1C1.4-0.1,1.1,0,0.9,0.3C1.1,2,1.1,5.8,0.2,6.4C0.3,6.7,0.5,6.9,0.8,7
						C2.4,7.4,2.1,0.4,1.7,0.1z"/>
				</g>
				<path id="Trazado_36790" class="st11" d="M41.6,32.6c0,0,2.8,0,3.9,0.9c0,0,0.1,0.6-1.7,0.2S41.3,33.2,41.6,32.6z"/>
				<path id="Trazado_36791" class="st12" d="M36.2,51.3c0,0-0.7-1.2,0.4-4.2c0.5,1.5,1.3,2.8,2.2,4C38,51.5,37,51.6,36.2,51.3z"/>
				<path id="Trazado_36792" class="st12" d="M38.5,48.6l-0.8,2.5c0.7,0.5,1.7,0.6,2.5,0.2L38.5,48.6z"/>
				<path id="Trazado_36793" class="st4" d="M35.8,50.4c3.1,0.3,6.3,0.4,9.5,0.2c0.4,0,0.8,0.1,1.1,0.5l0,0c0.4,0.5,0.2,1.2-0.3,1.6
					c-0.1,0.1-0.3,0.2-0.5,0.2c-3.3,0.4-6.7,0.4-10.1-0.1c-0.6-0.1-1.1-0.6-1-1.3c0-0.2,0.1-0.4,0.3-0.6l0.1-0.1
					C35.1,50.5,35.5,50.3,35.8,50.4z"/>
				<circle id="Elipse_702" class="st8" cx="62.7" cy="31.1" r="1.7"/>
				<circle id="Elipse_703" class="st8" cx="65.8" cy="33" r="1.1"/>
				<circle id="Elipse_704" class="st8" cx="64" cy="36.1" r="1.8"/>
				<path id="Trazado_36794" d="M29.7,30.8c0.2,2.9-2,5.4-4.9,5.6c-2.9,0.2-5.4-2-5.6-4.9c-0.2-2.9,2-5.4,4.9-5.6
					C27.1,25.6,29.6,27.9,29.7,30.8C29.7,30.8,29.7,30.8,29.7,30.8z"/>
				<circle id="Elipse_705" class="st8" cx="24.5" cy="28.3" r="1.7"/>
				<circle id="Elipse_706" class="st8" cx="27.6" cy="30.2" r="1.1"/>
				<circle id="Elipse_707" class="st8" cx="25.7" cy="33.3" r="1.8"/>
			</g>
			<g id="Grupo_34323" transform="translate(61.64 38.916)">
				<path id="Trazado_36795" class="st9" d="M0.2,3c0,0-0.5-1.2,0.1-1.5s3.4,0.2,4.9-1.2s3.1,3,2.2,3.6s-1.5-0.8-2-0.2
					s2.3,3.4,0.7,4.2S4,4.9,3.1,5.2s0.5,1.7-0.4,2.3S0.2,3,0.2,3z"/>
				<g id="Grupo_34322" transform="translate(1.602 0.004)">
					<path id="Trazado_36796" class="st10" d="M3.6,0.2c1,0.7,1.6,3,1.1,3.6c0.3,0.3,0.7,0.3,1.1,0.1C6.7,3.3,5.1-1,3.6,0.2z"/>
					<path id="Trazado_36797" class="st10" d="M0.3,5.2c-0.7,0.2,0,1.1-0.1,1.8C0.5,7.4,0.8,7.7,1,7.5c0.5-0.3,0.3-0.9,0.2-1.4
						C0.9,5.5,0.6,5.1,0.3,5.2z"/>
					<path id="Trazado_36798" class="st10" d="M3.8,3.9C3.4,3.7,3,3.3,2.7,3.7C2.3,4.3,4.9,6.9,3.6,7.8c0.3,0.2,0.7,0.3,1,0.1
						C6.1,7.2,3.9,4.8,3.8,3.9z"/>
				</g>
			</g>
		</g>
		<path id="Trazado_36799" class="st3" d="M380,248.5c1.9-3.4,7.2-0.6,8.5,3.1c-4-1.5-5.9,1.3-5.9,2.8"/>
	</g>
</g>
</svg>
