<?xml version="1.0" encoding="utf-8"?>
<!-- Generator: Adobe Illustrator 23.0.1, SVG Export Plug-In . SVG Version: 6.00 Build 0)  -->
<svg version="1.1" id="Capa_1" xmlns="http://www.w3.org/2000/svg" xmlns:xlink="http://www.w3.org/1999/xlink" x="0px" y="0px"
	 viewBox="0 0 176.2 176" style="enable-background:new 0 0 176.2 176;" xml:space="preserve">
<style type="text/css">
	.st0{fill:#6D31FF;}
	.st1{fill:none;}
	.st2{fill:#1C1C1C;}
	.st3{fill:#262626;}
	.st4{fill:#383838;}
	.st5{fill:#303030;}
	.st6{fill:#191919;}
	.st7{fill:#FFFFFF;}
	.st8{fill:none;stroke:#705A40;stroke-width:0.91;stroke-miterlimit:10;}
	.st9{fill:#161616;}
	.st10{fill:#494949;}
	.st11{fill:#F7941D;}
	.st12{fill:#FBFBF9;}
	.st13{fill:#39B54A;}
	.st14{fill:#8DC63F;}
	.st15{fill:#709B2D;}
</style>
<g id="Grupo_2463" transform="translate(-6781.628 -160.394)">
	<path id="Trazado_4844" class="st0" d="M6851.3,202.2c0,0-25.3-17-42.1,2.1s-0.1,40.5-6.4,54s-24,11.3-20.9,37.5
		c4.3,35.5,94,40.6,141.3,24.2s30.2-44.4,20.4-54.2c-10.2-10.2,8.8-25.6-11.1-42.8C6916,208.7,6882.3,220.5,6851.3,202.2z"/>
	<rect id="Rectángulo_1873" x="6781.8" y="160.4" class="st1" width="176" height="176"/>
	<g id="Grupo_2462">
		<g id="Grupo_2461">
			<g id="Grupo_2459">
				<g id="Grupo_2458">
					<path id="Trazado_4845" class="st2" d="M6888.2,269.6c2.2,11,8.5,34.2,8.5,34.2c-4.7,1.7-4,3.4-4,3.4s9.9,3.1,12.5-0.4
						c1-9.4-0.9-41.9-0.9-41.9S6891,267,6888.2,269.6z"/>
					<path id="Trazado_4846" class="st3" d="M6829.1,222.2c-4.4,25.9-4.8,62.7,0.5,87.7c-4.4,0.9-7.1,4.6-6.4,5.1s13.9,2.5,14.8,0.1
						s4.5-39.9,4.5-39.9c5.3,4.7,17,5.5,17,5.5c-2.4,20.4-2.1,37.8-1.5,38.1s11.7,3.8,13.8,3.1s-2.8-6.2-2.8-6.2
						c3.9-11.3,8.8-35.4,8.8-35.4c9.6,0.2,21.5-6.5,28.5-12.9c10.1,13.6,14,32.8,14.3,36.7c-6.2,2.1-5.5,4.3-5.5,4.3
						c3.8,2.9,15.9,3.4,18.2-1.9s-3.5-77.1-25.8-89.1c-10.2-1-19.3,8.3-36.9,2.5c-22.9-3.9-42.4-1.6-42.3,3.1"/>
					<path id="Trazado_4847" class="st4" d="M6858.9,170.3c-18.1-3.5-36.8,3.5-38.2,18c-1,10.2,1.9,13.9,0.3,20.2s-2.8,14,8.2,17.8
						s34.1,4.5,47-1.9s3.8-16.9,4.9-24.3S6881.4,174.7,6858.9,170.3z"/>
					<path id="Trazado_4848" class="st5" d="M6843.2,198.6c-2.6,0.3-2.4-2.4-3.2-5.5s-5.4-7.5-11.4-3.9s-6.7,7.4-5,13.3
						s7.3,3.7,6.9,7s-2.9,10.1,2,14.1c6.7,5.4,21.1,5.4,31.2,0.8c5.4-2.4,0.7-11.9,2.2-13.5s11.1-0.4,10.9-8.8s-6.4-12.8-12.4-11.5
						s-6.7,4.1-6.8,7.7c-0.1,2.2-1.9,2.1-2.8,1.7C6851.1,198.6,6847.1,198.1,6843.2,198.6z"/>
					<path id="Trazado_4849" d="M6839.8,217.3c-3.1,4.7,13.4,6.1,14.8,2.4s-5.7-13.8-6.8-13.6S6841.8,213.1,6839.8,217.3z"/>
					<path id="Trazado_4850" class="st6" d="M6842.2,217.3c-0.2,0.9,0.3,1.9,1.2,2.2c1.6,0.6,6.7,0.9,7.7,0.2s0.4-2.3,0.4-2.3
						L6842.2,217.3z"/>
					<path id="Trazado_4851" class="st7" d="M6838.9,197.5c0,3.6-2.8,6.5-6.4,6.6c-3.6,0-6.5-2.8-6.6-6.4c0-3.5,2.6-6.4,6.1-6.6
						C6835.7,190.9,6838.8,193.8,6838.9,197.5z"/>
					<path id="Trazado_4852" class="st2" d="M6832.1,173.7c-1.1-3.2-3.7-6.5-9.2-0.4c-4.2,4.6-10,3.4-10.6,7.8s5.1,5.5,6,10.7
						s6.3-0.8,7.1-7.2s4.5-9.5,4.5-9.5L6832.1,173.7z"/>
					<path id="Trazado_4853" class="st2" d="M6868.9,173.8c1.3-3.1,4.1-6.3,9.3,0.1c4,4.9,9.8,3.9,10.1,8.3s-5.4,5.2-6.5,10.4
						s-6.2-1.1-6.7-7.6s-4-9.7-4-9.7L6868.9,173.8z"/>
					<path id="Trazado_4854" class="st7" d="M6873.9,199.9c0,3.6-2.8,6.5-6.4,6.6c-3.6,0-6.5-2.8-6.6-6.4c0-3.5,2.6-6.4,6.1-6.6
						C6870.7,193.3,6873.8,196.2,6873.9,199.9z"/>
					<path id="Trazado_4855" d="M6872.3,200.1c0.2,2.7-1.9,5-4.5,5.1c-2.7,0.2-5-1.9-5.1-4.5c-0.2-2.7,1.9-5,4.5-5.1c0,0,0,0,0,0
						C6869.8,195.4,6872.1,197.5,6872.3,200.1z"/>
					<path id="Trazado_4856" d="M6836.9,198.4c0,2.7-2.2,4.8-4.9,4.8c-2.7,0-4.8-2.2-4.8-4.9c0-2.7,2.2-4.8,4.9-4.8h0
						C6834.8,193.6,6836.9,195.8,6836.9,198.4z"/>
					<path id="Trazado_4857" class="st6" d="M6842.6,201.2c-4.3,1.1-13.3,7-13.5,12.7c-0.3,3.8,2.6,7,6.4,7.3
						c1.2,0.1,2.4-0.2,3.5-0.7c4.5-2.2,7.9-13.3,9-15C6846.7,203.2,6842.6,201.2,6842.6,201.2z"/>
					<path id="Trazado_4858" class="st6" d="M6847.5,205.9c0.2,1.9,3.5,7.3,4.7,11.1s5.2,5.8,9.8,3.7s6.6-7,2.4-11.6
						s-9.9-7.5-11.4-7.1C6851.4,202.5,6847.5,205.9,6847.5,205.9z"/>
					<path id="Trazado_4859" d="M6836.6,184.3c-0.1,0.2-0.6,0.1-1.5,0c-1.1-0.1-2.2,0.1-3.2,0.4c-1.1,0.4-2,0.9-3,1.6
						c-0.7,0.5-1.2,0.8-1.3,0.7c-0.1-0.1,0.1-0.6,0.8-1.4c0.9-0.9,1.9-1.6,3.1-2c0.7-0.2,1.4-0.4,2.1-0.4c0.6,0,1.1,0.1,1.7,0.2
						C6836.2,183.8,6836.7,184.1,6836.6,184.3z"/>
					<path id="Trazado_4860" d="M6872,188.4c-0.1,0.1-0.5-0.2-1.1-0.6c-0.7-0.6-1.6-1-2.4-1.4c-0.9-0.4-1.8-0.6-2.7-0.8
						c-0.7-0.2-1.2-0.2-1.2-0.4s0.5-0.4,1.3-0.4c1.1-0.1,2.1,0.1,3.1,0.6c1,0.4,1.9,1.1,2.6,1.9c0.2,0.3,0.4,0.5,0.5,0.8
						C6872,188.2,6872,188.4,6872,188.4z"/>
					<path id="Trazado_4861" class="st4" d="M6830.9,311.4c0,0.2-0.3,0.4-0.8,0.6s-1.2,0.7-2,1.1c-0.3,0.2-0.6,0.5-0.9,0.7
						c-0.2,0.2-0.4,0.4-0.6,0.7c-0.3,0.4-0.4,0.8-0.6,0.8c-0.1,0-0.2-0.1-0.2-0.3c0-0.1,0-0.1,0-0.2c0-0.1,0-0.1,0-0.2s0-0.1,0-0.2
						c0-0.1,0-0.2,0.1-0.2c0.1-0.4,0.3-0.8,0.6-1.1c0.3-0.4,0.7-0.7,1.1-1c0.7-0.5,1.5-0.8,2.4-0.9
						C6830.5,311.2,6830.9,311.3,6830.9,311.4z"/>
					<path id="Trazado_4862" class="st4" d="M6833.4,312.9c0.1,0.1,0,0.4-0.3,0.7c-0.3,0.4-0.6,0.7-0.9,1c-0.8,0.8-1.6,1.3-1.8,1.1
						s0.1-1.1,1-2c0.4-0.4,0.8-0.7,1.3-0.9C6833.1,312.8,6833.3,312.8,6833.4,312.9z"/>
					<path id="Trazado_4863" class="st4" d="M6866.7,320.8c-0.1,0.1-0.4,0-0.8-0.3c-0.4-0.4-0.8-0.8-1.1-1.3c-0.4-0.5-0.7-1-1-1.3
						s-0.4-0.6-0.3-0.8s0.4-0.1,0.9,0.1c0.5,0.3,1,0.7,1.4,1.2c0.4,0.5,0.7,1,0.9,1.5C6866.8,320.4,6866.8,320.7,6866.7,320.8z"/>
					<path id="Trazado_4864" class="st4" d="M6870.3,321.1c-0.3,0.1-0.8-0.7-1.5-1.5c-0.3-0.4-0.6-0.8-0.8-1.1s-0.3-0.5-0.3-0.7
						s0.4-0.2,0.8,0c0.5,0.2,0.9,0.6,1.3,1c0.3,0.4,0.6,0.9,0.7,1.5C6870.6,320.7,6870.5,321,6870.3,321.1z"/>
					<path id="Trazado_4865" class="st4" d="M6896.1,307.8c-0.2,0-0.2-0.3-0.2-0.8c0.1-0.6,0.4-1.1,0.8-1.5c0.4-0.4,0.9-0.8,1.5-1
						c0.4-0.1,0.7-0.1,0.8,0.1s-0.1,0.4-0.4,0.7l-1,1.1c-0.4,0.4-0.7,0.8-1,1.1S6896.3,307.9,6896.1,307.8z"/>
					<path id="Trazado_4866" class="st4" d="M6899.4,307.9c-0.1-0.1-0.2-0.3-0.1-0.7c0.1-0.5,0.4-1,0.8-1.4c0.4-0.4,0.9-0.7,1.5-0.8
						c0.5-0.1,0.7,0.1,0.7,0.3s-0.2,0.3-0.4,0.5c-0.3,0.3-0.6,0.6-0.9,0.9C6900.3,307.4,6899.7,308.1,6899.4,307.9z"/>
					<path id="Trazado_4867" class="st4" d="M6921.6,305.5c0.1,0.2-0.2,0.4-0.5,0.8s-0.9,0.8-1.4,1.3c-1,1.1-1.8,2.1-2.1,2
						c-0.1-0.1-0.1-0.4,0.1-1c0.3-0.7,0.7-1.3,1.2-1.8c0.5-0.5,1.1-1,1.8-1.2C6921.1,305.4,6921.5,305.4,6921.6,305.5z"/>
					<path id="Trazado_4868" class="st8" d="M6922.5,305.3"/>
					<path id="Trazado_4869" class="st4" d="M6926.8,305.8c0.1,0.1-0.1,0.5-0.6,0.9s-1.1,0.9-1.8,1.5c-0.3,0.3-0.7,0.5-0.9,0.8
						s-0.5,0.5-0.7,0.7c-0.4,0.4-0.6,0.7-0.8,0.7c-0.2,0-0.2-0.5,0-1.1c0.2-0.4,0.4-0.7,0.6-1c0.3-0.4,0.6-0.7,1-1
						c0.6-0.5,1.3-0.9,2.1-1.3C6926.3,305.8,6926.7,305.7,6926.8,305.8z"/>
					<g id="Grupo_2457">
						<path id="Trazado_4870" d="M6842.3,200.8c0,0,0-2.3,4.8-2s6.2,1.8,6.5,2.7s-0.4,5.5-6.1,5.1c-2.9,0-5.3-2.4-5.3-5.4
							C6842.3,201,6842.3,200.9,6842.3,200.8z"/>
						<path id="Trazado_4871" class="st3" d="M6847,202.7c0,0-0.2-2-1.9-1.7c-1.2,0.2-0.3,3.7,0.8,4.1S6847,203.7,6847,202.7z"/>
						<path id="Trazado_4872" class="st3" d="M6848.9,202.7c0,0,0.3-2,2-1.6c1.2,0.3,0.1,3.7-1,4S6848.8,203.7,6848.9,202.7z"/>
						<path id="Trazado_4873" class="st9" d="M6848.1,199.3c0,0,2.6,0,3.6,0.8c0,0,0.1,0.6-1.5,0.2S6847.8,199.8,6848.1,199.3z"/>
					</g>
					<path id="Trazado_4874" class="st2" d="M6880.5,262c-2,18.2-5.8,36.2-11.4,53.6c0,0-2-16.6,0.7-27s1.4-15.7,1.4-15.7
						S6878.8,267.5,6880.5,262z"/>
					<path id="Trazado_4875" class="st4" d="M6857.8,274.5c-1.3-2.7-2.1-5.7-2.5-8.6c0,0-1.8,5.2-0.9,7.2c0,0-4.3-5.3-4.9-8.6
						c0,0-1.2,6,0,7.9c-1.6-1.7-2.8-3.8-3.7-6c0,0-1.5,3.8-0.3,5.9c0,0-3.7-3.5-4.9-7.2c0,0-1.1,6.7,1.9,10.1s13.3,5.4,17,5.5l1.8-6
						c0,0-2.5-3.9-2.6-5.5C6858.7,269.2,6856.9,272.6,6857.8,274.5z"/>
					<path id="Trazado_4876" class="st10" d="M6841.7,271.3c0.1,1.9,0.8,3.8,2.2,5.1c0,0,4.5,3.5,15.7,4.3l1.3-4.5
						c-0.9-0.9-1.6-1.9-2-3.1c-0.2,1.1-0.1,2.3,0.3,3.3c0,0-3.2-2.5-3.6-4.1c0.1,1.2,0.4,2.4,1,3.5c0,0-4.4-1.3-5.7-4.9
						c0.2,1.8,0.9,3.5,2.1,4.8c0,0-5.1-1-6.7-5.2c0,0-0.3,3.3,1.4,4.9C6847.6,275.5,6843,274.4,6841.7,271.3z"/>
					<path id="Trazado_4877" class="st6" d="M6915.2,212.6c4.4-2.5,0.7-9.2-4.1-10.9c2,5.1-1.6,7.6-3.6,7.6"/>
					<path id="Trazado_4878" class="st2" d="M6911,221.9c-0.2-7.6-2.1-6.9-2.1-6.9c-4.7,0.7-11.7-5.7-7.6-7.1s16.8,1.5,18.9,11.5
						s-4.6,9.2-4.6,9.2"/>
					<path id="Trazado_4879" class="st3" d="M6898.4,225l6.3-7.7c0,0,14.2-1.5,18,11.4s5.5,28.4,5.5,28.4L6898.4,225z"/>
					<path id="Trazado_4880" class="st6" d="M6906.4,267.4c0,0,4.9-4.2,6.6-9.6c0,0,10.1,18,7.8,46.3
						C6920.7,304.1,6915.6,278.3,6906.4,267.4z"/>
					<path id="Trazado_4881" class="st7" d="M6829.7,199.6c-0.4,0-0.8-0.3-0.8-0.8c-0.2-1.5,0.7-3,2.1-3.6c0.4-0.2,0.9,0.1,1.1,0.5
						c0.2,0.4-0.1,0.9-0.5,1.1c-0.7,0.3-1.1,1.1-1,1.9C6830.6,199.2,6830.2,199.6,6829.7,199.6
						C6829.7,199.6,6829.7,199.6,6829.7,199.6C6829.7,199.6,6829.7,199.6,6829.7,199.6z"/>
					<path id="Trazado_4882" class="st7" d="M6865.3,201.5c-0.4,0-0.8-0.3-0.8-0.8c-0.2-1.5,0.7-3,2.1-3.6c0.4-0.2,0.9,0.1,1.1,0.5
						c0.2,0.4-0.1,0.9-0.5,1.1c-0.7,0.3-1.1,1.1-1,1.9C6866.2,201.1,6865.9,201.5,6865.3,201.5
						C6865.4,201.5,6865.4,201.5,6865.3,201.5C6865.4,201.5,6865.4,201.5,6865.3,201.5z"/>
					<path id="Trazado_4883" class="st11" d="M6914.2,198.2c0,0,6.3,1.9,6.7,7.4C6920.8,205.6,6923.3,197.1,6914.2,198.2z"/>
					<path id="Trazado_4884" class="st11" d="M6916.9,196.1c0,0,5.2,0.9,6,5.3C6922.9,201.4,6924,194.4,6916.9,196.1z"/>
					<path id="Trazado_4885" class="st11" d="M6899,214.7c0,0-4.6-3.1-3.4-7.6C6895.5,207.1,6891.4,213.2,6899,214.7z"/>
					<path id="Trazado_4886" class="st11" d="M6896.3,215.7c0,0-3.9-2.1-3.4-5.8C6892.8,209.9,6890.1,215.2,6896.3,215.7z"/>
				</g>
				<path id="Trazado_4887" class="st12" d="M6843.1,216.5c0,0-0.6-1.1,0.4-3.9c0.5,1.3,1.2,2.6,2,3.7
					C6844.8,216.6,6843.9,216.7,6843.1,216.5z"/>
				<path id="Trazado_4888" class="st12" d="M6845.2,213.9l-0.8,2.3c0.7,0.5,1.6,0.6,2.3,0.2L6845.2,213.9z"/>
				<path id="Trazado_4889" class="st3" d="M6842.8,215.6c2.9,0.3,5.8,0.4,8.7,0.2c0.4,0,0.8,0.1,1,0.4l0,0c0.3,0.5,0.2,1.1-0.3,1.5
					c-0.1,0.1-0.3,0.1-0.4,0.2c-3.1,0.4-6.2,0.3-9.2-0.1c-0.6-0.1-1-0.6-0.9-1.2c0-0.2,0.1-0.4,0.2-0.6l0-0.1
					C6842.1,215.7,6842.5,215.5,6842.8,215.6z"/>
			</g>
			<g id="Grupo_2460">
				<circle id="Elipse_439" class="st13" cx="6828.6" cy="310.2" r="18.2"/>
				<path id="Trazado_4890" class="st14" d="M6842.3,298c-6.8-7.4-18.3-7.9-25.7-1.2c-7.4,6.8-7.9,18.3-1.2,25.7
					c6.8,7.4,18.3,7.9,25.7,1.2c3.8-3.5,5.9-8.3,5.9-13.4C6847.1,305.7,6845.4,301.3,6842.3,298z"/>
				<path class="st15" d="M6841.9,297.8c-6.8-7.2-18.2-7.7-25.5-1c-0.2,0.2-0.3,0.3-0.5,0.5c0.2,0.2,0.3,0.3,0.5,0.5
					c3.2,3.4,4.9,7.8,4.9,12.5c0,4.9-2,9.5-5.4,12.9c6.9,6.8,17.9,7.1,25.1,0.5c0.3-0.3,0.6-0.6,0.9-1c0,0,0,0,0,0
					C6835.2,315.6,6835.3,304.7,6841.9,297.8z"/>
			</g>
		</g>
	</g>
</g>
</svg>
