<svg xmlns="http://www.w3.org/2000/svg" width="176" height="177" viewBox="0 0 176 177">
  <g id="Grupo_4000" data-name="Grupo 4000" transform="translate(-6204.469 -399.457)">
    <rect id="Rectángulo_1876" data-name="Rectángulo 1876" width="176" height="176" transform="translate(6204.469 400.457)" fill="none"/>
    <g id="Grupo_34328" data-name="Grupo 34328" transform="translate(12290.105 388.453)">
      <path id="Trazado_36800" data-name="Trazado 36800" d="M-6021.406,240.072s-22.742-11.245-34.542,6.332,4.319,33.469.646,45.374-18.638,11.985-13.131,33.259c7.472,28.86,82.166,23.254,119.48,4.53s20.067-40.019,10.954-47.035c-9.538-7.343,4.449-22.157-13.875-34.141C-5967.256,238.332-5993.78,251.751-6021.406,240.072Z" transform="translate(0 -176.518)" fill="#6d31ff"/>
      <path id="Trazado_36801" data-name="Trazado 36801" d="M-5576.19,614.1c1.8,2.638,5.81.021,6.655-3.079-3.108,1.479-4.871-.626-4.962-1.87" transform="translate(-386.22 -468.169)" fill="#191919"/>
      <path id="Trazado_36802" data-name="Trazado 36802" d="M-5631.374,594.917c5.444,3.887,8.743-.41,8.743-.41-.66-2.9,3.4-8.455,4.477-5.942s-.113,10.642-6.326,12.438-8.256-1.44-8.256-1.44" transform="translate(-341.962 -451.559)" fill="#1c1c1c"/>
      <path id="Trazado_36803" data-name="Trazado 36803" d="M-5552.168,598.21s-3.729-1.884-6.26.478C-5558.428,598.688-5555.878,593.753-5552.168,598.21Z" transform="translate(-400.122 -458.147)" fill="#f7941d"/>
      <path id="Trazado_36804" data-name="Trazado 36804" d="M-5549.146,588.657s-2.8-1.844-5.031-.2C-5554.177,588.462-5551.692,584.766-5549.146,588.657Z" transform="translate(-403.45 -450.734)" fill="#f7941d"/>
      <path id="Trazado_36805" data-name="Trazado 36805" d="M-5557.8,636.535s3.451.637,4.933-1.866C-5552.87,634.669-5553.759,639.25-5557.8,636.535Z" transform="translate(-400.611 -488.142)" fill="#f7941d"/>
      <path id="Trazado_36806" data-name="Trazado 36806" d="M-5554.342,647.143s2.691.825,4.1-1.032C-5550.241,646.111-5551.37,649.679-5554.342,647.143Z" transform="translate(-403.32 -497.098)" fill="#f7941d"/>
      <path id="Trazado_36807" data-name="Trazado 36807" d="M-5968.358,422.565l-.545,1.068s-1.73,7.686-31.051,21.189c0,0-4.289,1.871-4.052,4.635s13.01,7.14,31.153-2.639c0,0,13-9.562,10.349-17.831S-5968.358,422.565-5968.358,422.565Z" transform="translate(-51.361 -321.991)" fill="#262626"/>
      <path id="Trazado_36808" data-name="Trazado 36808" d="M-5950.735,428.988c-2.654-8.269-5.854-6.423-5.854-6.423l-.544,1.068s-.259,1.145-2.258,3.325c1.632,7.826-9.312,17.286-9.312,17.286-7.91,5.1-14.935,7.176-20.277,7.661,4.928,1.665,15.068,1.827,27.9-5.087C-5961.085,446.819-5948.081,437.257-5950.735,428.988Z" transform="translate(-63.129 -321.991)" fill="#191919"/>
      <path id="Trazado_36809" data-name="Trazado 36809" d="M-5880.763,413.9s-3.467,5.257-11.338,10.654c0,0,2.43,9.03,9.436,13.2,0,0,10.795-14.989,10.25-22.41S-5880.218,412.833-5880.763,413.9Z" transform="translate(-138.957 -313.327)" fill="#e5c129"/>
      <path id="Trazado_36810" data-name="Trazado 36810" d="M-5849.771,399.462a145.859,145.859,0,0,0-3.33,61.955s2.356,4.374,9.127,3.8,6.251-4.172,6.251-4.172,5.483-3.392,14.994-.612a10.693,10.693,0,0,0,8.345,3.36c5.572-.107,7.729-2.38,8.472-6.184,0,0,8.07-3.583,3.32-18.338,0,0-2.549-18.948-1.446-33.007,0,0,.805-4.121-5.03-6.323S-5831.929,389.994-5849.771,399.462Z" transform="translate(-168.01 -300.449)" fill="#f9d641"/>
      <path id="Trazado_36811" data-name="Trazado 36811" d="M-5827.586,409.07s-3.745,15.31,10.352,17.29c16.149,2.268,23.233-9.343,24.615-19.218Z" transform="translate(-189.1 -310.057)" fill="#262626"/>
      <path id="Trazado_36812" data-name="Trazado 36812" d="M-5827.586,409.07s-3.745,15.31,10.352,17.29c16.149,2.268,23.233-9.343,24.615-19.218Z" transform="translate(-189.1 -310.057)" fill="#262626"/>
      <path id="Trazado_36813" data-name="Trazado 36813" d="M-5791.646,452.4c.289-1.734-1.59-4.408-1.59-4.408a7.078,7.078,0,0,1-1.373,3.551,6.234,6.234,0,0,1-1.294-2.033,3.883,3.883,0,0,0-.44,2.033,5.836,5.836,0,0,1-1.445-3.117,18.391,18.391,0,0,0-1.156,3.117,6.509,6.509,0,0,1-1.524-2.9,8.616,8.616,0,0,0-1.164,2.9,12,12,0,0,1-1.213-4.372,10.335,10.335,0,0,0-1.649,4,22.769,22.769,0,0,1-1.313-5.347,15.381,15.381,0,0,0-2.818,5.2,13.342,13.342,0,0,1-1.3-3.252,11.014,11.014,0,0,0-1.588,5.674,12.671,12.671,0,0,0,7.214,3.187c6.152.864,10.989-.288,14.7-2.59a5.555,5.555,0,0,0-.819-4.174A8.866,8.866,0,0,1-5791.646,452.4Z" transform="translate(-202.03 -340.336)" fill="#383838"/>
      <path id="Trazado_36814" data-name="Trazado 36814" d="M-5794.905,467.191a14.7,14.7,0,0,0-.923,2.488,5.189,5.189,0,0,1-1.216-2.315,6.862,6.862,0,0,0-.929,2.315,9.571,9.571,0,0,1-.969-3.49,8.246,8.246,0,0,0-1.316,3.194,18.168,18.168,0,0,1-1.048-4.268,12.269,12.269,0,0,0-2.25,4.153,10.664,10.664,0,0,1-1.039-2.6,7.473,7.473,0,0,0-1.1,2.9,13.644,13.644,0,0,0,5.949,2.162,23.131,23.131,0,0,0,11.45-1,4.317,4.317,0,0,0-.732-2.394,7.074,7.074,0,0,1-.974,2.018c.23-1.384-1.269-3.518-1.269-3.518a5.655,5.655,0,0,1-1.1,2.834,4.993,4.993,0,0,1-1.033-1.623,3.1,3.1,0,0,0-.351,1.623A4.655,4.655,0,0,1-5794.905,467.191Z" transform="translate(-206.587 -355.432)" fill="#494949"/>
      <path id="Trazado_36815" data-name="Trazado 36815" d="M-5832.485,670.542c.548,3.168,1.4,22.584.134,24.618s-5.373,2.864-11.928,2.711c-5.23-.122-5.379-1.634-4.811-2.321s3.7-3.895,4.5-4.871a2.055,2.055,0,0,0,.461-1.906,138.708,138.708,0,0,1-4.36-17.164s-1.96-7.106,5.426-7.82S-5832.811,668.663-5832.485,670.542Z" transform="translate(-172.446 -510.885)" fill="#231f20"/>
      <path id="Trazado_36816" data-name="Trazado 36816" d="M-5823.651,670.542c-.325-1.879-3.194-7.468-10.581-6.753a6.889,6.889,0,0,0-3.8,1.379,8.739,8.739,0,0,1,3.757,3.955c1.146,3,5.7,21.9,4.848,24.137-.723,1.9-3.628,3.343-8.446,4.411a17.9,17.9,0,0,0,2.424.2c6.556.153,10.665-.676,11.928-2.711S-5823.1,673.71-5823.651,670.542Z" transform="translate(-181.28 -510.885)" fill="#191919"/>
      <path id="Trazado_36817" data-name="Trazado 36817" d="M-5847.239,671.67a27.413,27.413,0,0,0,15.771.01l-1.277-17.078s-4.01-2.991-11.346-2.324a8.529,8.529,0,0,0-5.542,4.5A118.808,118.808,0,0,0-5847.239,671.67Z" transform="translate(-172.197 -501.849)" fill="#f9d641"/>
      <path id="Trazado_36818" data-name="Trazado 36818" d="M-5696.222,669.862c.37,3.194.127,22.626-1.248,24.587s-5.525,2.557-12.062,2.036c-5.216-.416-5.279-1.934-4.673-2.588s3.914-3.681,4.763-4.611a2.055,2.055,0,0,0,.568-1.877,138.628,138.628,0,0,1-3.39-17.381s-1.558-7.2,5.857-7.5S-5696.441,667.968-5696.222,669.862Z" transform="translate(-277.994 -509.936)" fill="#231f20"/>
      <path id="Trazado_36819" data-name="Trazado 36819" d="M-5686.182,669.862c-.22-1.894-2.77-7.635-10.184-7.337a6.679,6.679,0,0,0-4.079,1.328,8.9,8.9,0,0,1,3.768,4.8c.739,3.129,2.755,22.458,1.617,24.565-.8,1.481-3.041,2.451-6.576,2.982a19.016,19.016,0,0,0,2.145.28c6.537.521,10.686-.076,12.061-2.036S-5685.812,673.056-5686.182,669.862Z" transform="translate(-288.034 -509.936)" fill="#191919"/>
      <path id="Trazado_36820" data-name="Trazado 36820" d="M-5707.007,670.129a27.411,27.411,0,0,0,15.746.9l-.317-17.123s-3.835-3.211-11.2-2.958c0,0-4.413.773-6.237,4.319C-5709.012,655.264-5708.373,662.136-5707.007,670.129Z" transform="translate(-282.26 -500.87)" fill="#f4768e"/>
      <path id="Trazado_36821" data-name="Trazado 36821" d="M-5764.016,448.877s-1.025-7.63-1.494-16.8a5.134,5.134,0,0,1,.83.879s.075-.068.211-.194l-.437-3.75-1.32-17.954-5.039-3.918a10.154,10.154,0,0,0-1.645,1.469c-.7-.269-1.476-.56-2.316-.858a27.168,27.168,0,0,1-2.256,7.289c1.5,8.671,3.192,22.8-.765,26.786-5.833,5.877-27.448,13.585-27.448,13.585s2.29,17.226,2.091,25.615a24.714,24.714,0,0,0,6.526-1.139l-.736-9.852c2.162-.826,6.889-1.977,13.663,0,0,0,.04.049.116.133.324,2.551.774,5.745,1.354,9.143a27.414,27.414,0,0,0,15.746.9l-.242-13.078C-5766.072,466.536-5759.662,462.4-5764.016,448.877Z" transform="translate(-206.587 -310.057)" fill="#efca2e"/>
      <path id="Trazado_36822" data-name="Trazado 36822" d="M-5697.695,804.186c.1.078.333-.031.607-.276a7.418,7.418,0,0,0,.9-1.031c.314-.415.578-.783.768-1.061s.3-.484.235-.6-.332-.095-.678.094a3.615,3.615,0,0,0-1.082.99,5.23,5.23,0,0,0-.7,1.223C-5697.769,803.864-5697.8,804.107-5697.695,804.186Z" transform="translate(-291.069 -618.447)" fill="#383838"/>
      <path id="Trazado_36823" data-name="Trazado 36823" d="M-5707.634,802.169c.257.076.651-.519,1.157-1.165.252-.327.486-.616.654-.851s.266-.422.2-.538-.293-.125-.606,0a2.565,2.565,0,0,0-1,.8,2.68,2.68,0,0,0-.531,1.156C-5707.814,801.908-5707.757,802.129-5707.634,802.169Z" transform="translate(-283.224 -617.176)" fill="#383838"/>
      <path id="Trazado_36824" data-name="Trazado 36824" d="M-5829.53,805c.105.078.334-.031.608-.276a7.494,7.494,0,0,0,.9-1.031c.314-.415.577-.783.769-1.061s.3-.484.234-.6-.332-.095-.678.093a3.592,3.592,0,0,0-1.081.99,5.241,5.241,0,0,0-.7,1.223C-5829.6,804.675-5829.636,804.918-5829.53,805Z" transform="translate(-187.882 -619.082)" fill="#383838"/>
      <path id="Trazado_36825" data-name="Trazado 36825" d="M-5839.469,802.981c.256.076.651-.519,1.157-1.165.252-.327.486-.616.653-.851s.266-.422.2-.538-.294-.125-.607,0a2.566,2.566,0,0,0-1,.8,2.691,2.691,0,0,0-.531,1.156C-5839.649,802.719-5839.592,802.941-5839.469,802.981Z" transform="translate(-180.037 -617.812)" fill="#383838"/>
      <path id="Trazado_36826" data-name="Trazado 36826" d="M-5996.232,533.828s-3.106.8-2.81,1.572,3.87-.64,4.02-1.188C-5994.8,533.406-5996.232,533.828-5996.232,533.828Z" transform="translate(-55.239 -409.127)" fill="#494949"/>
      <path id="Trazado_36827" data-name="Trazado 36827" d="M-5994.116,543.883s-3.207,0-3.11.824,3.906.342,4.188-.152C-5992.625,543.83-5994.116,543.883-5994.116,543.883Z" transform="translate(-56.674 -417.083)" fill="#494949"/>
      <path id="Trazado_36828" data-name="Trazado 36828" d="M-5663.628,432.585s7.414,4.035,12.088,9.827c0,0-7.279,10.128-6.77,13.1s9.548,3.138,16.588-8.082c6.656-10.608,2.172-17.29-17.414-31.414C-5659.136,416.015-5668.544,418.228-5663.628,432.585Z" transform="translate(-316.669 -317.002)" fill="#262626"/>
      <path id="Trazado_36829" data-name="Trazado 36829" d="M-5658.841,416.015s-5.121,1.206-5.831,7.606c16.636,7.814,20.851,13.362,17.122,23.871a23.653,23.653,0,0,1-5.944,9.617c3.364-.574,8.042-3.265,12.067-9.68C-5634.771,436.821-5639.255,430.139-5658.841,416.015Z" transform="translate(-316.965 -317.002)" fill="#191919"/>
      <path id="Trazado_36830" data-name="Trazado 36830" d="M-5669.051,411.983s-2.835,4.543.555,13.368c0,0,8.963,6.117,9.9,7.606,0,0,9.052-8.171,9.723-13.137l-16.307-12.679A12.012,12.012,0,0,0-5669.051,411.983Z" transform="translate(-312.669 -310.057)" fill="#efca2e"/>
      <path id="Trazado_36831" data-name="Trazado 36831" d="M-5626.791,580.455s-2.367,2.163-1.742,2.706,3.116-2.381,2.991-2.936C-5625.725,579.411-5626.791,580.455-5626.791,580.455Z" transform="translate(-345.169 -445.286)" fill="#494949"/>
      <path id="Trazado_36832" data-name="Trazado 36832" d="M-5621.521,588.35s-2.831,1.506-2.361,2.188,3.611-1.532,3.627-2.1C-5620.229,587.6-5621.521,588.35-5621.521,588.35Z" transform="translate(-348.851 -451.648)" fill="#494949"/>
      <path id="Trazado_36833" data-name="Trazado 36833" d="M-5887.455,200.712s2.911.243,6.549,6.063c0,0,7.453-9.135,6.637-11.722s-8.523-6.71-8.523-6.71S-5888.586,195.619-5887.455,200.712Z" transform="translate(-142.479 -138.804)" fill="#4c4247"/>
      <path id="Trazado_36834" data-name="Trazado 36834" d="M-5898.164,184.768c2.83-.162,5.335,3.8,5.335,3.8s2.587-.647,2.749-2.991c0,0-3.391-8.246-7.4-8.327s-5.459,2.1-7.317,4.163-5.255,2.951-3.881,7.639" transform="translate(-125.736 -130.119)" fill="#1c1c1c"/>
      <g id="Grupo_34326" data-name="Grupo 34326" transform="translate(-6023.104 11.004)">
        <path id="Trazado_36835" data-name="Trazado 36835" d="M-5848.883,53.911s-8.54-17.375-6.205-37.16c0,0,.373-4.964,2.437-5.723s12.215,17.126,13.8,38.215Z" transform="translate(5855.493 -11.004)" fill="#f9ecb9"/>
        <path id="Trazado_36836" data-name="Trazado 36836" d="M-5839.8,55.251c-.1,3.7.072,15.5,5.418,30.906a.436.436,0,0,0,.52.279l4.426-1.146a.433.433,0,0,0,.319-.5c-.534-2.927-4.065-21.352-9.893-29.778A.434.434,0,0,0-5839.8,55.251Z" transform="translate(5843.223 -45.305)" fill="#603913"/>
        <path id="Trazado_36837" data-name="Trazado 36837" d="M-5829.434,85.29a.434.434,0,0,0,.319-.5c-.534-2.927-4.066-21.352-9.894-29.778a.434.434,0,0,0-.79.235,64.806,64.806,0,0,0,.248,7.209c2.5,2.688,7.2,9.513,7.99,23.381Z" transform="translate(5843.223 -45.305)" fill="#3c2415"/>
      </g>
      <g id="Grupo_34327" data-name="Grupo 34327" transform="translate(-5992.224 12.738)">
        <path id="Trazado_36838" data-name="Trazado 36838" d="M-5703.356,61.892s8.54-17.375,6.205-37.16c0,0-.372-4.964-2.437-5.723s-12.215,17.126-13.8,38.215Z" transform="translate(5713.389 -18.985)" fill="#f9ecb9"/>
        <path id="Trazado_36839" data-name="Trazado 36839" d="M-5691.066,63.232c.1,3.7-.073,15.5-5.418,30.906a.436.436,0,0,1-.52.279l-4.427-1.146a.433.433,0,0,1-.318-.5c.534-2.927,4.066-21.352,9.893-29.778A.434.434,0,0,1-5691.066,63.232Z" transform="translate(5704.285 -53.286)" fill="#603913"/>
        <path id="Trazado_36840" data-name="Trazado 36840" d="M-5701.432,93.271a.433.433,0,0,1-.318-.5c.534-2.927,4.066-21.352,9.893-29.778a.434.434,0,0,1,.79.235,64.805,64.805,0,0,1-.248,7.209c-2.5,2.688-7.2,9.513-7.99,23.381Z" transform="translate(5704.285 -53.286)" fill="#3c2415"/>
      </g>
      <path id="Trazado_36841" data-name="Trazado 36841" d="M-5656.846,214.062s-2.91.243-6.548,6.063c0,0-7.453-9.135-6.636-11.722s8.523-6.71,8.523-6.71S-5655.714,208.969-5656.846,214.062Z" transform="translate(-312.722 -149.253)" fill="#4c4247"/>
      <path id="Trazado_36842" data-name="Trazado 36842" d="M-5666.013,198.118c-2.83-.162-5.336,3.8-5.336,3.8s-2.587-.647-2.748-2.991c0,0,3.391-8.246,7.395-8.327s5.459,2.1,7.318,4.163,5.254,2.951,3.88,7.639" transform="translate(-309.589 -140.568)" fill="#1c1c1c"/>
      <path id="Trazado_36843" data-name="Trazado 36843" d="M-5838.117,186.914c-15.975-3.114-32.551,3.123-33.781,15.928-.87,9.027,1.681,12.333.279,17.838s-2.492,12.39,7.278,15.757,30.181,3.982,41.578-1.711,3.39-14.956,4.369-21.456S-5818.238,190.789-5838.117,186.914Z" transform="translate(-154.278 -137.066)" fill="#383838"/>
      <path id="Trazado_36844" data-name="Trazado 36844" d="M-5842.952,270.31c-2.285.251-2.093-2.09-2.833-4.9s-4.807-6.613-10.062-3.441-5.907,6.506-4.385,11.735,6.473,3.28,6.082,6.218-2.608,8.949,1.725,12.439c5.935,4.781,18.646,4.787,27.6.724,4.754-2.158.614-10.553,1.927-11.9s9.8-.343,9.664-7.748-5.632-11.314-10.947-10.166-5.928,3.64-6.05,6.768c-.074,1.905-1.659,1.875-2.506,1.483A21.977,21.977,0,0,0-5842.952,270.31Z" transform="translate(-163.339 -195.494)" fill="#303030"/>
      <path id="Trazado_36845" data-name="Trazado 36845" d="M-5793.145,345.331c-2.782,4.2,11.828,5.431,13.116,2.114s-5.039-12.215-6-12.006S-5791.365,341.589-5793.145,345.331Z" transform="translate(-216.135 -253.932)"/>
      <path id="Trazado_36846" data-name="Trazado 36846" d="M-5836.908,279.824a5.886,5.886,0,0,1-5.362,6.361,5.885,5.885,0,0,1-6.1-5.662,5.886,5.886,0,0,1,5.362-6.362A5.886,5.886,0,0,1-5836.908,279.824Z" transform="translate(-173.18 -205.965)" fill="#fff"/>
      <path id="Trazado_36847" data-name="Trazado 36847" d="M-5694.333,289.5a5.887,5.887,0,0,1-5.362,6.362,5.885,5.885,0,0,1-6.094-5.663,5.887,5.887,0,0,1,5.362-6.362A5.886,5.886,0,0,1-5694.333,289.5Z" transform="translate(-284.774 -213.535)" fill="#fff"/>
      <path id="Trazado_36848" data-name="Trazado 36848" d="M-5690.455,296.62a4.269,4.269,0,0,1-4,4.52,4.268,4.268,0,0,1-4.521-4,4.269,4.269,0,0,1,4-4.521A4.27,4.27,0,0,1-5690.455,296.62Z" transform="translate(-290.108 -220.414)"/>
      <path id="Trazado_36849" data-name="Trazado 36849" d="M-5834.593,288.673a4.268,4.268,0,0,1-4.312,4.225,4.268,4.268,0,0,1-4.223-4.313,4.268,4.268,0,0,1,4.313-4.224A4.268,4.268,0,0,1-5834.593,288.673Z" transform="translate(-177.287 -213.956)"/>
      <path id="Trazado_36850" data-name="Trazado 36850" d="M-5833.619,243.3c-.053.145-.556.07-1.319.029a7.652,7.652,0,0,0-2.869.4,11.252,11.252,0,0,0-2.62,1.375c-.645.435-1.057.738-1.174.631-.1-.089.112-.572.683-1.2a6.828,6.828,0,0,1,2.767-1.812,5.812,5.812,0,0,1,1.836-.326,5.359,5.359,0,0,1,1.5.193C-5833.987,242.842-5833.568,243.177-5833.619,243.3Z" transform="translate(-178.465 -181.113)"/>
      <path id="Trazado_36851" data-name="Trazado 36851" d="M-5684.807,251.511c-.128.089-.459-.186-.977-.572a10.291,10.291,0,0,0-2.146-1.234,12.75,12.75,0,0,0-2.393-.721c-.639-.136-1.061-.213-1.076-.365s.4-.331,1.124-.384a6.117,6.117,0,0,1,2.757.492,5.615,5.615,0,0,1,2.262,1.679,2.832,2.832,0,0,1,.431.743C-5684.754,251.345-5684.748,251.469-5684.807,251.511Z" transform="translate(-296.046 -185.671)"/>
      <path id="Trazado_36852" data-name="Trazado 36852" d="M-5835.833,294.736a.741.741,0,0,1-.739-.688,3.1,3.1,0,0,1,1.854-3.207.741.741,0,0,1,.953.44.741.741,0,0,1-.432.949,1.6,1.6,0,0,0-.9,1.71.742.742,0,0,1-.686.794Z" transform="translate(-182.411 -218.993)" fill="#fff"/>
      <path id="Trazado_36853" data-name="Trazado 36853" d="M-5690.649,302.5a.742.742,0,0,1-.739-.688,3.1,3.1,0,0,1,1.856-3.207.74.74,0,0,1,.951.44.741.741,0,0,1-.431.949,1.6,1.6,0,0,0-.9,1.71.741.741,0,0,1-.685.794Z" transform="translate(-296.046 -225.067)" fill="#fff"/>
      <path id="Trazado_36854" data-name="Trazado 36854" d="M-5868.936,201.71a35.252,35.252,0,0,1,26.247-10.942,39.707,39.707,0,0,1,26.122,10.942s-2.312-15.587-26.488-15.587S-5868.936,201.71-5868.936,201.71Z" transform="translate(-157.089 -137.066)" fill="#f7941d"/>
      <path id="Trazado_36855" data-name="Trazado 36855" d="M-5626.386,229.491c-1.374,4.689-7.551,8.949-8.818,8.111-3.122-2.064,1.139-12.234-1.691-12.4Z" transform="translate(-338.706 -167.656)" fill="#1c1c1c"/>
      <path id="Trazado_36856" data-name="Trazado 36856" d="M-5907.524,216.141c1.374,4.689,7.551,8.949,8.819,8.111,3.121-2.064-1.139-12.234,1.69-12.4Z" transform="translate(-126.885 -157.207)" fill="#1c1c1c"/>
      <path id="Trazado_36857" data-name="Trazado 36857" d="M-5823.506,315.258c-3.824.959-11.791,6.233-11.9,11.254a6.05,6.05,0,0,0,8.69,5.836c3.984-1.913,6.986-11.749,7.931-13.3C-5819.824,317.036-5823.506,315.258-5823.506,315.258Z" transform="translate(-183.333 -238.139)" fill="#191919"/>
      <path id="Trazado_36858" data-name="Trazado 36858" d="M-5760.685,322.054c.211,1.661,3.083,6.432,4.191,9.834s4.583,5.136,8.707,3.271,5.821-6.178,2.1-10.295-8.744-6.6-10.085-6.259C-5757.179,319.006-5760.685,322.054-5760.685,322.054Z" transform="translate(-241.816 -240.736)" fill="#191919"/>
      <path id="Trazado_36859" data-name="Trazado 36859" d="M-5781.686,307.281s-.015-2,4.272-1.744,5.461,1.554,5.745,2.352-.362,4.833-5.371,4.5A4.712,4.712,0,0,1-5781.686,307.281Z" transform="translate(-225.374 -230.513)"/>
      <path id="Trazado_36860" data-name="Trazado 36860" d="M-5770.69,315.78s-.161-1.8-1.7-1.51c-1.06.2-.243,3.293.715,3.614S-5770.649,316.706-5770.69,315.78Z" transform="translate(-232.266 -237.341)" fill="#262626"/>
      <path id="Trazado_36861" data-name="Trazado 36861" d="M-5755.007,316.247s.255-1.794,1.775-1.419c1.046.259.07,3.3-.9,3.571S-5755.1,317.17-5755.007,316.247Z" transform="translate(-246.23 -237.763)" fill="#262626"/>
      <path id="Trazado_36862" data-name="Trazado 36862" d="M-5758.465,307.623s2.281.01,3.154.74c0,0,.048.495-1.366.148S-5758.685,308.1-5758.465,307.623Z" transform="translate(-243.519 -232.164)" fill="#161616"/>
      <path id="Trazado_36863" data-name="Trazado 36863" d="M-5782.177,380.842a1.661,1.661,0,0,0,1.055,1.961c1.408.511,5.956.788,6.8.178s.354-2.042.354-2.042Z" transform="translate(-224.964 -289.472)" fill="#191919"/>
      <path id="Trazado_36864" data-name="Trazado 36864" d="M-5779.046,365.208s-.554-.972.353-3.419a11.491,11.491,0,0,0,1.81,3.265A3.44,3.44,0,0,1-5779.046,365.208Z" transform="translate(-227.314 -274.559)" fill="#fbfbf9"/>
      <path id="Trazado_36865" data-name="Trazado 36865" d="M-5772.3,367.2l-.672,2.063a2.034,2.034,0,0,0,2.038.185Z" transform="translate(-232.201 -278.797)" fill="#fbfbf9"/>
      <path id="Trazado_36866" data-name="Trazado 36866" d="M-5783.491,373.91a43.319,43.319,0,0,0,7.667.163.924.924,0,0,1,.861.4h0a.926.926,0,0,1-.614,1.438,30.712,30.712,0,0,1-8.151-.1.927.927,0,0,1-.6-1.529l.042-.05A.927.927,0,0,1-5783.491,373.91Z" transform="translate(-223.135 -284.043)" fill="#262626"/>
    </g>
  </g>
</svg>
