<svg xmlns="http://www.w3.org/2000/svg" xmlns:xlink="http://www.w3.org/1999/xlink" width="176" height="176" viewBox="0 0 176 176">
  <defs>
    <clipPath id="clip-path">
      <path id="Trazado_37035" data-name="Trazado 37035" d="M246.035,237.368c-.779-11.758-2.648-17.886-8.194-25.712l1.3-2.54-4.168-6.408-12.939-7.332-3.88,4.226s-8.932-6.469-28.258-1.358l-3.957-1.99-7.377,4.231-8.839,5,2.9,8.606,4.769,5.6,1.6,5.344s-3.792,10.658-1.8,13.321a53.817,53.817,0,0,1,3.884,6.328l-14.7,11.714s-5.509.388-6.327,2.438.028,6.277,5.317,8.088,25.31-1.606,25.31-1.606l4.642,3.614-4.861,4.891s-7.1.953-6.217,2.4,3.372,4.947,7.121,5.673,11.093.415,11.093.415,22.672-7.955,32.874-17.9C242.269,260.66,246.853,249.707,246.035,237.368Z" transform="translate(-159.779 -195.376)" fill="none"/>
    </clipPath>
  </defs>
  <g id="Grupo_34407" data-name="Grupo 34407" transform="translate(-96 -160)">
    <rect id="Rectángulo_3733" data-name="Rectángulo 3733" width="176" height="176" transform="translate(96 160)" fill="none"/>
    <g id="Grupo_34406" data-name="Grupo 34406" transform="translate(-63.779 150.641)">
      <path id="Trazado_36961" data-name="Trazado 36961" d="M314.965,96.277s-23.87-15.016-38.914,3.08.975,37.5-4.437,50.246-21.969,11.137-18.295,35.285c4.985,32.76,88.214,35.041,131.6,18.573s26.732-41.973,17.452-50.765c-9.713-9.2,7.434-24-11.468-39.327C375.04,100.5,344.186,112.327,314.965,96.277Z" transform="translate(-78.619 -51.865)" fill="#6d31ff"/>
      <path id="Trazado_36962" data-name="Trazado 36962" d="M549.352,41.109s8.881-4.152,26.8,1.214,37.09,23.686,39.483,57.639-7.988,76.37-45.418,78.675-51.439-16.5-51.439-16.5Z" transform="translate(-297.49 -10.019)" fill="#d8712b"/>
      <path id="Trazado_36963" data-name="Trazado 36963" d="M670.161,105.892c-2.392-33.953-21.568-52.273-39.482-57.639-2.019-.6-3.922-1.088-5.712-1.47,14.585,8.294,27.834,25.623,29.8,53.467,2.393,33.953-7.988,76.37-45.418,78.675a85.9,85.9,0,0,1-24.3-1.714c8.183,4.4,21.027,8.507,39.7,7.356C662.173,182.262,672.553,139.845,670.161,105.892Z" transform="translate(-352.021 -15.948)" fill="#cc6a29"/>
      <ellipse id="Elipse_719" data-name="Elipse 719" cx="16.547" cy="28.625" rx="16.547" ry="28.625" transform="translate(215.651 72.464) rotate(-2.389)" fill="#c65c7f"/>
      <path id="Trazado_36964" data-name="Trazado 36964" d="M444.445,51.64c-3.752-2.079-4.064-7.681,1.316-12.939,3.724-3.64-7.489-14.289-29.139-10.493-3.72.652-8.427,2.5-14.522,5.172-33.367,14.654-44.539,49.95-34.3,87.8,8.921,32.965,25.355,48.617,54.059,51.624,0,0,18.57.829,25.6-6.153s-4.777-8.459-5.957-14.75,19.9-7.839,23.076-20.394-7.366-12.52-12.072-18.64,4.224-11.526,5.979-12.8,5.329-4.311,4.289-9.015c-1.455-6.581-8.6-6.8-9.058-12.609s7.4-9.547,6.391-16.859S449.189,54.268,444.445,51.64Zm-28.5,42.878c1.883,16.52-3.962,31.25-13.055,32.9s-17.99-10.4-19.873-26.923,3.962-31.25,13.055-32.9S414.059,78,415.942,94.518Z" transform="translate(-170.245 0)" fill="#f4768e"/>
      <g id="Grupo_34372" data-name="Grupo 34372" transform="translate(193.895 27.401)">
        <path id="Trazado_36965" data-name="Trazado 36965" d="M403.489,38.3c6.1-2.677,10.8-4.52,14.522-5.173C432.4,30.6,442.174,34.457,446.023,38.4c2.861-3.889-8.321-13.885-29.4-10.189-3.72.652-8.427,2.5-14.522,5.172-33.367,14.654-44.539,49.95-34.3,87.8q.559,2.067,1.16,4.04C359.128,87.7,370.38,52.837,403.489,38.3Z" transform="translate(-364.141 -27.401)" fill="#f991aa"/>
      </g>
      <g id="Grupo_34373" data-name="Grupo 34373" transform="translate(214.62 53.087)">
        <path id="Trazado_36966" data-name="Trazado 36966" d="M544.428,172.423a7.154,7.154,0,0,1,1.193,4.1c-.068,7.383-8.383,9.6-8.771,15.4s6.639,7.349,7.12,14.1c.344,4.823-3.631,7.143-5.552,8.072s-11.536,4.585-7.773,11.484,14.19,8.83,9.223,20.593-26.033,9.358-25.781,15.769S525.8,272,517.831,277.558s-26.207,1.283-26.207,1.283a79.441,79.441,0,0,1-10.471-3.9c9.153,10.067,21.222,15.541,37,17.194,0,0,18.57.829,25.6-6.153s-4.776-8.459-5.957-14.75,19.9-7.839,23.076-20.394-7.366-12.52-12.072-18.64,4.224-11.526,5.979-12.8,5.329-4.311,4.289-9.015c-1.455-6.581-8.595-6.8-9.058-12.609s7.4-9.547,6.391-16.859C555.615,175.2,549.378,173.952,544.428,172.423Z" transform="translate(-481.153 -172.423)" fill="#e8708d"/>
      </g>
      <g id="Grupo_34392" data-name="Grupo 34392" transform="translate(224.079 43.975)">
        <g id="Grupo_34374" data-name="Grupo 34374" transform="translate(22.543 27.852)">
          <path id="Trazado_36967" data-name="Trazado 36967" d="M662.1,282.7a8.35,8.35,0,0,1,5.685-4.436s1.408-.216,1.586.417c.307,1.1-4.02,4.42-5.786,5.611C662.284,285.173,661.357,284.378,662.1,282.7Z" transform="translate(-661.836 -278.231)" fill="#7f3f98"/>
          <path id="Trazado_36968" data-name="Trazado 36968" d="M668.265,278.232c-1.671,2.7-5.088,4.632-6.413,5.309-.136,1.075.675,1.47,1.735.755,1.766-1.191,6.092-4.514,5.786-5.611C669.264,278.3,668.691,278.227,668.265,278.232Z" transform="translate(-661.837 -278.232)" fill="#723a8c"/>
        </g>
        <g id="Grupo_34375" data-name="Grupo 34375" transform="translate(0 93.199)">
          <path id="Trazado_36969" data-name="Trazado 36969" d="M534.762,652.028a8.35,8.35,0,0,1,5.4-4.776s1.392-.3,1.608.319c.373,1.076-3.741,4.659-5.43,5.955C535.1,654.484,534.122,653.746,534.762,652.028Z" transform="translate(-534.56 -647.179)" fill="#7f3f98"/>
          <path id="Trazado_36970" data-name="Trazado 36970" d="M540.64,647.189c-1.5,2.8-4.794,4.936-6.075,5.692-.07,1.082.764,1.426,1.778.647,1.69-1.3,5.8-4.88,5.43-5.955C541.641,647.19,541.065,647.157,540.64,647.189Z" transform="translate(-534.561 -647.179)" fill="#723a8c"/>
        </g>
        <g id="Grupo_34376" data-name="Grupo 34376" transform="translate(30.085 71.332)">
          <path id="Trazado_36971" data-name="Trazado 36971" d="M705.488,524.647a8.349,8.349,0,0,1,7.208-.192s1.261.662,1.028,1.278c-.4,1.065-5.859,1.169-7.987,1.078C704.168,526.744,703.895,525.554,705.488,524.647Z" transform="translate(-704.419 -523.717)" fill="#00aeef"/>
          <path id="Trazado_36972" data-name="Trazado 36972" d="M713.1,529.328c-2.947,1.179-6.845.7-8.312.462-.749.784-.33,1.583.948,1.638,2.128.091,7.582-.013,7.987-1.078C713.869,529.972,713.449,529.577,713.1,529.328Z" transform="translate(-704.42 -528.334)" fill="#029ece"/>
        </g>
        <g id="Grupo_34377" data-name="Grupo 34377" transform="translate(47.951 42.709)">
          <path id="Trazado_36973" data-name="Trazado 36973" d="M807.274,362.438a8.349,8.349,0,0,1,4.13,5.911s.142,1.418-.5,1.561c-1.112.249-4.2-4.247-5.3-6.073C804.8,362.491,805.64,361.607,807.274,362.438Z" transform="translate(-805.294 -362.116)" fill="#00aeef"/>
          <path id="Trazado_36974" data-name="Trazado 36974" d="M811.414,368.83c-2.607-1.811-4.358-5.325-4.964-6.684-1.067-.193-1.5.6-.845,1.693,1.1,1.826,4.187,6.322,5.3,6.073C811.3,369.824,811.4,369.255,811.414,368.83Z" transform="translate(-805.294 -362.117)" fill="#029ece"/>
        </g>
        <g id="Grupo_34378" data-name="Grupo 34378" transform="translate(45.518 83.601)">
          <path id="Trazado_36975" data-name="Trazado 36975" d="M793.534,593.313a8.349,8.349,0,0,1,4.13,5.911s.142,1.418-.5,1.561c-1.111.249-4.2-4.247-5.3-6.073C791.056,593.366,791.9,592.482,793.534,593.313Z" transform="translate(-791.554 -592.991)" fill="#fff200"/>
          <path id="Trazado_36976" data-name="Trazado 36976" d="M797.674,599.7c-2.607-1.811-4.358-5.325-4.964-6.684-1.067-.193-1.5.6-.845,1.693,1.1,1.826,4.187,6.321,5.3,6.073C797.558,600.7,797.657,600.13,797.674,599.7Z" transform="translate(-791.554 -592.992)" fill="#e5d330"/>
        </g>
        <g id="Grupo_34379" data-name="Grupo 34379" transform="translate(25.407 1.66)">
          <path id="Trazado_36977" data-name="Trazado 36977" d="M679.349,130.614A8.35,8.35,0,0,1,686.426,132s1.086.922.724,1.471c-.627.951-5.973-.138-8.03-.691C677.6,132.372,677.6,131.151,679.349,130.614Z" transform="translate(-678.007 -130.349)" fill="#00aeef"/>
          <path id="Trazado_36978" data-name="Trazado 36978" d="M686.767,135.246c-3.134.507-6.834-.806-8.213-1.363-.9.6-.668,1.473.568,1.805,2.057.553,7.4,1.641,8.03.691C687.373,136.042,687.049,135.564,686.767,135.246Z" transform="translate(-678.008 -133.257)" fill="#029ece"/>
        </g>
        <g id="Grupo_34380" data-name="Grupo 34380" transform="translate(36.886 16.622)">
          <path id="Trazado_36979" data-name="Trazado 36979" d="M744.378,214.844a8.349,8.349,0,0,1,6.669,2.743s.885,1.116.422,1.584c-.8.81-5.831-1.3-7.74-2.248C742.321,216.226,742.553,215.027,744.378,214.844Z" transform="translate(-742.819 -214.827)" fill="#fff200"/>
          <path id="Trazado_36980" data-name="Trazado 36980" d="M751.314,218.984c-3.172-.115-6.544-2.127-7.788-2.943-1,.414-.943,1.314.2,1.881,1.909.945,6.939,3.058,7.74,2.248C751.754,219.883,751.53,219.352,751.314,218.984Z" transform="translate(-742.82 -215.826)" fill="#e5d330"/>
        </g>
        <g id="Grupo_34381" data-name="Grupo 34381" transform="translate(6.774)">
          <path id="Trazado_36981" data-name="Trazado 36981" d="M579.8,122.895a8.349,8.349,0,0,1-5.363,4.821s-1.39.314-1.611-.306c-.383-1.073,3.7-4.689,5.38-6C579.449,120.442,580.429,121.171,579.8,122.895Z" transform="translate(-572.805 -120.978)" fill="#fff200"/>
          <path id="Trazado_36982" data-name="Trazado 36982" d="M573.967,127.784c1.479-2.809,4.753-4.976,6.028-5.743.061-1.082-.776-1.419-1.784-.632-1.678,1.311-5.763,4.928-5.38,6C572.966,127.79,573.542,127.819,573.967,127.784Z" transform="translate(-572.805 -120.978)" fill="#e5d330"/>
        </g>
        <g id="Grupo_34382" data-name="Grupo 34382" transform="translate(13.53 99.708)">
          <path id="Trazado_36983" data-name="Trazado 36983" d="M613.059,684.757a8.35,8.35,0,0,1,1.512,7.051s-.419,1.361-1.067,1.245c-1.121-.2-2.224-5.545-2.526-7.653C610.756,683.844,611.876,683.357,613.059,684.757Z" transform="translate(-610.95 -683.93)" fill="#00aeef"/>
          <path id="Trazado_36984" data-name="Trazado 36984" d="M614.394,692.254c-1.7-2.681-1.949-6.6-1.98-8.086-.908-.592-1.617-.034-1.436,1.232.3,2.108,1.4,7.451,2.526,7.653C613.9,693.125,614.213,692.64,614.394,692.254Z" transform="translate(-610.95 -683.931)" fill="#029ece"/>
        </g>
        <g id="Grupo_34383" data-name="Grupo 34383" transform="translate(31.216 92.081)">
          <path id="Trazado_36985" data-name="Trazado 36985" d="M711.351,643.841a8.35,8.35,0,0,1,6.572-2.967s1.419.122,1.442.78c.039,1.138-4.95,3.346-6.947,4.086C710.945,646.285,710.233,645.293,711.351,643.841Z" transform="translate(-710.803 -640.867)" fill="#7f3f98"/>
          <path id="Trazado_36986" data-name="Trazado 36986" d="M718.4,641.345c-2.261,2.228-6.038,3.3-7.485,3.644-.386,1.013.309,1.588,1.508,1.143,2-.74,6.986-2.948,6.947-4.086C719.352,641.643,718.812,641.441,718.4,641.345Z" transform="translate(-710.804 -641.26)" fill="#723a8c"/>
        </g>
        <g id="Grupo_34384" data-name="Grupo 34384" transform="translate(28.629 53.34)">
          <path id="Trazado_36987" data-name="Trazado 36987" d="M698.18,422.456a8.349,8.349,0,0,1,4.13,5.911s.142,1.418-.5,1.561c-1.111.249-4.2-4.247-5.3-6.073C695.7,422.509,696.546,421.625,698.18,422.456Z" transform="translate(-696.2 -422.134)" fill="#fff200"/>
          <path id="Trazado_36988" data-name="Trazado 36988" d="M702.32,428.848c-2.607-1.811-4.358-5.325-4.964-6.684-1.067-.193-1.5.6-.845,1.693,1.1,1.826,4.187,6.321,5.3,6.073C702.2,429.842,702.3,429.273,702.32,428.848Z" transform="translate(-696.2 -422.135)" fill="#e5d330"/>
        </g>
        <g id="Grupo_34385" data-name="Grupo 34385" transform="translate(26.281 105.908)">
          <path id="Trazado_36989" data-name="Trazado 36989" d="M684.6,718.937a8.349,8.349,0,0,1,6.36,3.4s.769,1.2.262,1.619c-.878.725-5.671-1.881-7.475-3.012C682.416,720.107,682.767,718.937,684.6,718.937Z" transform="translate(-682.944 -718.937)" fill="#7f3f98"/>
          <path id="Trazado_36990" data-name="Trazado 36990" d="M691.187,723.276c-3.144-.433-6.3-2.772-7.454-3.708-1.038.312-1.07,1.213.014,1.892,1.8,1.131,6.6,3.737,7.475,3.012C691.534,724.214,691.364,723.663,691.187,723.276Z" transform="translate(-682.945 -719.456)" fill="#723a8c"/>
        </g>
        <g id="Grupo_34386" data-name="Grupo 34386" transform="translate(35.497 36.612)">
          <path id="Trazado_36991" data-name="Trazado 36991" d="M735.239,332.162a8.349,8.349,0,0,1,5.685-4.436s1.408-.216,1.585.417c.307,1.1-4.019,4.42-5.785,5.611C735.422,334.633,734.5,333.837,735.239,332.162Z" transform="translate(-734.974 -327.691)" fill="#8dc63f"/>
          <path id="Trazado_36992" data-name="Trazado 36992" d="M741.4,327.692c-1.671,2.7-5.088,4.632-6.413,5.309-.137,1.075.675,1.47,1.735.755,1.766-1.191,6.092-4.514,5.785-5.611C742.4,327.755,741.829,327.687,741.4,327.692Z" transform="translate(-734.975 -327.691)" fill="#39b54a"/>
        </g>
        <g id="Grupo_34387" data-name="Grupo 34387" transform="translate(22.506 82.497)">
          <path id="Trazado_36993" data-name="Trazado 36993" d="M661.891,591.23a8.35,8.35,0,0,1,5.685-4.435s1.408-.216,1.586.417c.307,1.1-4.02,4.42-5.785,5.611C662.074,593.7,661.147,592.906,661.891,591.23Z" transform="translate(-661.626 -586.759)" fill="#8dc63f"/>
          <path id="Trazado_36994" data-name="Trazado 36994" d="M668.055,586.76c-1.671,2.7-5.088,4.632-6.413,5.309-.136,1.075.675,1.47,1.735.755,1.766-1.191,6.092-4.514,5.785-5.611C669.054,586.824,668.481,586.755,668.055,586.76Z" transform="translate(-661.627 -586.76)" fill="#39b54a"/>
        </g>
        <g id="Grupo_34388" data-name="Grupo 34388" transform="translate(12.753 14.249)">
          <path id="Trazado_36995" data-name="Trazado 36995" d="M608.219,201.428a8.35,8.35,0,0,1,6.365,3.39s.77,1.2.263,1.618c-.877.727-5.673-1.874-7.479-3C606.036,202.6,606.386,201.43,608.219,201.428Z" transform="translate(-606.564 -201.428)" fill="#8dc63f"/>
          <path id="Trazado_36996" data-name="Trazado 36996" d="M614.811,205.763c-3.145-.429-6.3-2.764-7.458-3.7-1.038.313-1.068,1.214.016,1.892,1.806,1.129,6.6,3.729,7.479,3C615.159,206.7,614.989,206.15,614.811,205.763Z" transform="translate(-606.565 -201.951)" fill="#39b54a"/>
        </g>
        <g id="Grupo_34389" data-name="Grupo 34389" transform="translate(44.874 61.899)">
          <path id="Trazado_36997" data-name="Trazado 36997" d="M789.765,470.558a8.349,8.349,0,0,1,5.389,4.791s.467,1.346-.124,1.635c-1.023.5-5.073-3.156-6.563-4.677C787.368,471.185,787.983,470.129,789.765,470.558Z" transform="translate(-787.919 -470.461)" fill="#8dc63f"/>
          <path id="Trazado_36998" data-name="Trazado 36998" d="M795.275,475.829c-2.956-1.156-5.475-4.168-6.379-5.349-1.082.06-1.324.929-.429,1.843,1.49,1.522,5.54,5.177,6.563,4.677C795.393,476.823,795.357,476.248,795.275,475.829Z" transform="translate(-787.919 -470.477)" fill="#39b54a"/>
        </g>
        <g id="Grupo_34390" data-name="Grupo 34390" transform="translate(22.206 118.812)">
          <path id="Trazado_36999" data-name="Trazado 36999" d="M661.1,792.44a8.349,8.349,0,0,1,7.2.372s1.206.759.925,1.354c-.487,1.03-5.932.707-8.047.451C659.622,794.427,659.443,793.219,661.1,792.44Z" transform="translate(-659.933 -791.791)" fill="#fff200"/>
          <path id="Trazado_37000" data-name="Trazado 37000" d="M668.689,798.3c-3.03.945-6.879.168-8.323-.189-.807.723-.453,1.553.817,1.707,2.114.257,7.56.579,8.047-.45C669.4,799,669.014,798.574,668.689,798.3Z" transform="translate(-659.934 -796.991)" fill="#e5d330"/>
        </g>
        <g id="Grupo_34391" data-name="Grupo 34391" transform="translate(46.73 27.852)">
          <path id="Trazado_37001" data-name="Trazado 37001" d="M798.947,281.2a8.35,8.35,0,0,1,6.572-2.967s1.419.122,1.442.78c.039,1.138-4.95,3.346-6.947,4.086C798.541,283.649,797.828,282.657,798.947,281.2Z" transform="translate(-798.399 -278.232)" fill="#7f3f98"/>
          <path id="Trazado_37002" data-name="Trazado 37002" d="M805.992,278.709c-2.261,2.228-6.038,3.3-7.485,3.644-.387,1.013.309,1.588,1.508,1.143,2-.74,6.986-2.948,6.947-4.086C806.948,279.007,806.407,278.8,805.992,278.709Z" transform="translate(-798.4 -278.624)" fill="#723a8c"/>
        </g>
      </g>
      <g id="Grupo_34400" data-name="Grupo 34400" transform="translate(159.779 57.152)">
        <g id="Grupo_34399" data-name="Grupo 34399" transform="translate(0)" clip-path="url(#clip-path)">
          <g id="Grupo_34395" data-name="Grupo 34395" transform="translate(1.649 23.459)">
            <path id="Trazado_37003" data-name="Trazado 37003" d="M211.04,436.583s-13.6,16.246-24.46,20.142a23.572,23.572,0,0,0-5.361.956s-.929.512.088,2.16,4.244,3.395,8.048,3.936c0,0,26.442.9,39.983-10.777C229.338,453,225.7,435.017,211.04,436.583Z" transform="translate(-180.831 -417.241)" fill="#262626"/>
            <path id="Trazado_37004" data-name="Trazado 37004" d="M344.195,460.466s-2.23,10.978,3.045,19.51L347.2,477.9l2.68,5.289.484-2.731,1.448,1.843.826-1.665,1.542,2.478.92-1.465,3.245,4.719,15.161-11.106,1.027-13.957-.393-2.963Z" transform="translate(-314.876 -435.224)" fill="#191919"/>
            <path id="Trazado_37005" data-name="Trazado 37005" d="M373.445,477.523l-15.161,11.106-3.245-4.72-.92,1.465-1.542-2.478-.826,1.665-1.448-1.843-.484,2.731-2.68-5.29.036,2.078a25.208,25.208,0,0,1-3.423-11.407c-.145,3.98.3,10.024,3.489,15.176l-.036-2.078,2.68,5.289.484-2.731,1.448,1.843.826-1.665,1.542,2.478.92-1.465,3.245,4.719,15.161-11.106,1.027-13.957-.221-1.664Z" transform="translate(-314.877 -441.256)" fill="#fff" opacity="0.28"/>
            <path id="Trazado_37006" data-name="Trazado 37006" d="M361.958,504.162s-10.862,18.191-20.97,23.753a23.568,23.568,0,0,0-5.142,1.791s-.836.652.428,2.119,4.727,2.682,8.568,2.615c0,0,26.252-3.293,37.778-16.959C382.62,517.48,376.188,500.3,361.958,504.162Z" transform="translate(-308.167 -472.464)" fill="#262626"/>
            <path id="Trazado_37007" data-name="Trazado 37007" d="M486.963,367.523l-2.426-8a47.836,47.836,0,0,0,5.776-15.338,63.429,63.429,0,0,1,5.769-16.36,32.424,32.424,0,0,0,2.555,4.308c2.52,4,10.031,3.721,16.184,3.009a52.109,52.109,0,0,1,1.053,19.825c-1.505,11.224-7.691,18.247-17.034,23.571Z" transform="translate(-430.746 -327.824)" fill="#262626"/>
            <g id="Grupo_34393" data-name="Grupo 34393" transform="translate(29.185 56.767)">
              <path id="Trazado_37008" data-name="Trazado 37008" d="M347.923,648.417s-2.537.63-2.3,1.263,3.158-.5,3.284-.942C349.092,648.083,347.923,648.417,347.923,648.417Z" transform="translate(-345.608 -648.332)" fill="#494949"/>
              <path id="Trazado_37009" data-name="Trazado 37009" d="M349.929,658.5s-2.614-.02-2.541.651,3.182.3,3.415-.1C351.145,658.464,349.929,658.5,349.929,658.5Z" transform="translate(-347.072 -656.697)" fill="#494949"/>
            </g>
            <g id="Grupo_34394" data-name="Grupo 34394" transform="translate(2.188 40.7)">
              <path id="Trazado_37010" data-name="Trazado 37010" d="M195.824,557.618s-2.612-.087-2.557.586,3.173.386,3.416-.008C197.04,557.615,195.824,557.618,195.824,557.618Z" transform="translate(-193.251 -557.614)" fill="#494949"/>
              <path id="Trazado_37011" data-name="Trazado 37011" d="M195.808,566.174s-2.509-.734-2.623-.068,2.977,1.163,3.311.841C196.986,566.474,195.808,566.174,195.808,566.174Z" transform="translate(-193.183 -564.372)" fill="#494949"/>
            </g>
          </g>
          <g id="Grupo_34398" data-name="Grupo 34398" transform="translate(14.52 2.799)">
            <path id="Trazado_37012" data-name="Trazado 37012" d="M269.213,220.885c-.939-2.536-3.056-5.1-7.377-.173-3.3,3.762-7.946,2.837-8.317,6.344s4.18,4.329,4.912,8.436,5-.705,5.58-5.856a12.265,12.265,0,0,1,3.442-7.626Z" transform="translate(-253.498 -216.719)" fill="#1c1c1c"/>
            <path id="Trazado_37013" data-name="Trazado 37013" d="M326.936,211.771c-14.443-2.555-29.282,3.326-30.191,14.884-.641,8.148,1.71,11.087.532,16.07s-2.051,11.2,6.805,14.084,27.259,3.114,37.44-2.195,2.82-13.531,3.6-19.4S344.909,214.95,326.936,211.771Z" transform="translate(-288.924 -211.181)" fill="#383838"/>
            <path id="Trazado_37014" data-name="Trazado 37014" d="M318.672,305.853c-1.853.407-1.922-1.7-2.8-4.159s-4.59-5.539-8.6-2.278-4.224,6.3-2.467,10.863,5.637,2.42,5.6,5.084-.424,9.806,2.622,11a26.977,26.977,0,0,0,19.945-.064c4.091-1.512,2.285-11,3.233-12.309s8.018-1.091,7.191-7.713-5.7-9.6-9.98-8.232c-3.057.978-4.385,3.468-4.343,4.753.056,1.716-1.326,2.756-2.06,2.473S322.91,304.923,318.672,305.853Z" transform="translate(-294.851 -282.395)" fill="#303030"/>
            <path id="Trazado_37015" data-name="Trazado 37015" d="M381.345,383.078c-1.987,4.08,11.212,3.447,11.968.331s-5.952-10.315-6.783-10.014S382.491,379.523,381.345,383.078Z" transform="translate(-358.534 -344.656)"/>
            <path id="Trazado_37016" data-name="Trazado 37016" d="M395.969,421.262a1.5,1.5,0,0,0,1.209,1.6c1.325.261,5.413-.118,6.083-.778s.034-1.867.034-1.867Z" transform="translate(-370.733 -383.195)" fill="#191919"/>
            <path id="Trazado_37017" data-name="Trazado 37017" d="M395.121,410.816a1.5,1.5,0,0,0,1.2,1.61c1.323.27,5.414-.082,6.088-.737s.047-1.867.047-1.867Z" transform="translate(-370.034 -374.639)" fill="#383838"/>
            <path id="Trazado_37018" data-name="Trazado 37018" d="M323.552,316.284a5.178,5.178,0,1,1-5.533-5.06A5.305,5.305,0,0,1,323.552,316.284Z" transform="translate(-302.641 -293.495)" fill="#fff"/>
            <path id="Trazado_37019" data-name="Trazado 37019" d="M465.076,313.8a5.178,5.178,0,1,1-5.846-4.7A5.306,5.306,0,0,1,465.076,313.8Z" transform="translate(-419.122 -291.72)" fill="#fff"/>
            <path id="Trazado_37020" data-name="Trazado 37020" d="M470.047,322.086a3.847,3.847,0,1,1-4.323-3.3A3.847,3.847,0,0,1,470.047,322.086Z" transform="translate(-425.389 -299.696)"/>
            <path id="Trazado_37021" data-name="Trazado 37021" d="M326.735,326.37a3.847,3.847,0,1,1-3.837-3.856A3.847,3.847,0,0,1,326.735,326.37Z" transform="translate(-307.433 -302.795)"/>
            <path id="Trazado_37022" data-name="Trazado 37022" d="M342.463,355.715c-3.257,1.166-9.765,6.537-9.433,11.05s4.764,6.576,8.08,4.54,5.1-11.1,5.8-12.567C345.828,357.016,342.463,355.715,342.463,355.715Z" transform="translate(-318.934 -330.116)" fill="#191919"/>
            <path id="Trazado_37023" data-name="Trazado 37023" d="M319.618,270.511c-.043.133-.5.085-1.187.08a6.9,6.9,0,0,0-2.567.475,10.137,10.137,0,0,0-2.3,1.346c-.563.418-.922.708-1.032.617-.093-.076.078-.519.566-1.106a6.156,6.156,0,0,1,2.416-1.745,5.235,5.235,0,0,1,1.64-.369,4.818,4.818,0,0,1,1.36.112C319.267,270.11,319.659,270.4,319.618,270.511Z" transform="translate(-302.056 -259.417)"/>
            <path id="Trazado_37024" data-name="Trazado 37024" d="M495.5,275.556c-.111.085-.421-.149-.9-.476a9.273,9.273,0,0,0-1.981-1.027,11.481,11.481,0,0,0-2.183-.555c-.58-.1-.964-.15-.983-.286s.35-.314,1-.39a5.511,5.511,0,0,1,2.5.334,5.069,5.069,0,0,1,2.1,1.423,2.61,2.61,0,0,1,.417.652C495.543,275.4,495.555,275.516,495.5,275.556Z" transform="translate(-447.661 -261.88)"/>
            <path id="Trazado_37025" data-name="Trazado 37025" d="M326.965,333.22a.668.668,0,0,1-.671-.615,2.791,2.791,0,0,1,1.649-2.9.668.668,0,0,1,.479,1.248,1.443,1.443,0,0,0-.8,1.547.668.668,0,0,1-.612.72Z" transform="translate(-313.392 -308.675)" fill="#fff"/>
            <path id="Trazado_37026" data-name="Trazado 37026" d="M471.5,329.168a.668.668,0,0,1-.709-.57,2.791,2.791,0,0,1,1.46-3,.668.668,0,0,1,.558,1.215,1.442,1.442,0,0,0-.7,1.6.668.668,0,0,1-.565.758Z" transform="translate(-432.276 -305.281)" fill="#fff"/>
            <path id="Trazado_37027" data-name="Trazado 37027" d="M513.458,216.346c1.162-2.442,4.909-6.222,8.773-.928,2.949,4.042,7.661,3.535,7.718,7.061s-4.549,3.939-5.646,7.964-5.035-1.146-5.035-6.33c0-3.392-3.1-5.38-3.1-5.38Z" transform="translate(-467.415 -212.465)" fill="#1c1c1c"/>
            <g id="Grupo_34396" data-name="Grupo 34396" transform="translate(22.264 34.691)">
              <path id="Trazado_37028" data-name="Trazado 37028" d="M383.127,407.67s-4.011,1.939-3.925,5.335a1.975,1.975,0,0,0,2.247,1.8c3.589-.134,3.577-4.819,5.863-6.487S384.892,406.836,383.127,407.67Z" transform="translate(-379.2 -407.049)" fill="#ef3a6a"/>
              <path id="Trazado_37029" data-name="Trazado 37029" d="M394.057,412.664a8.821,8.821,0,0,0-3.592,5.343A5.628,5.628,0,0,1,394.057,412.664Z" transform="translate(-388.464 -411.669)" fill="#e81f5d"/>
            </g>
            <path id="Trazado_37030" data-name="Trazado 37030" d="M406.505,356.617c.325,1.474,3.235,5.524,4.491,8.488s4.436,4.241,7.877,2.238,4.559-6.009.961-9.4-8.191-5.222-9.333-4.808C409.307,353.6,406.505,356.617,406.505,356.617Z" transform="translate(-379.405 -327.941)" fill="#191919"/>
            <g id="Grupo_34397" data-name="Grupo 34397" transform="translate(23.037 22.988)">
              <path id="Trazado_37031" data-name="Trazado 37031" d="M383.566,343.065s-.243-1.784,3.618-2.05,5.061.761,5.406,1.442.232,4.362-4.284,4.638A4.247,4.247,0,0,1,383.566,343.065Z" transform="translate(-383.563 -340.972)"/>
              <path id="Trazado_37032" data-name="Trazado 37032" d="M395.882,352.842s-.352-1.595-1.692-1.154c-.923.3.162,2.971,1.056,3.148S396.025,353.665,395.882,352.842Z" transform="translate(-392.018 -349.727)" fill="#262626"/>
              <path id="Trazado_37033" data-name="Trazado 37033" d="M414.083,350.782s.022-1.633,1.424-1.472c.965.111.442,2.942-.4,3.3S414.109,351.617,414.083,350.782Z" transform="translate(-408.677 -347.824)" fill="#262626"/>
              <path id="Trazado_37034" data-name="Trazado 37034" d="M408.247,342.623a5.921,5.921,0,0,1,2.9.3s.1.437-1.2.289S408.1,343.07,408.247,342.623Z" transform="translate(-403.856 -342.283)" fill="#161616"/>
            </g>
          </g>
        </g>
      </g>
      <g id="Grupo_34401" data-name="Grupo 34401" transform="translate(289.948 140.229)">
        <path id="Trazado_37036" data-name="Trazado 37036" d="M912.938,681.654s8.931-4.79,14.536-17.229C927.474,664.425,923.749,677.315,912.938,681.654Z" transform="translate(-911.789 -664.425)" fill="#b2531f"/>
        <path id="Trazado_37037" data-name="Trazado 37037" d="M908.4,679.116a31.729,31.729,0,0,0,12.153-13.787S917.937,675.036,908.4,679.116Z" transform="translate(-908.053 -665.169)" fill="#b2531f"/>
        <path id="Trazado_37038" data-name="Trazado 37038" d="M906.453,676.815a24.559,24.559,0,0,0,9.407-10.672S913.838,673.657,906.453,676.815Z" transform="translate(-906.453 -665.839)" fill="#b2531f"/>
      </g>
      <g id="Grupo_34405" data-name="Grupo 34405" transform="translate(222.408 75.542)">
        <g id="Grupo_34402" data-name="Grupo 34402" transform="translate(0 3.99)">
          <path id="Trazado_37039" data-name="Trazado 37039" d="M525.914,321.728s-1.54,3.314-.316,4.333S528.568,325.13,525.914,321.728Z" transform="translate(-525.126 -321.728)" fill="#4bc5ef"/>
          <path id="Trazado_37040" data-name="Trazado 37040" d="M526.969,321.728s-.052.113-.13.3c1.529,2.481.578,3.976-.431,3.736a1.115,1.115,0,0,0,.246.294C527.878,327.079,529.624,325.13,526.969,321.728Z" transform="translate(-526.181 -321.728)" fill="#76d3f4"/>
        </g>
        <g id="Grupo_34403" data-name="Grupo 34403" transform="translate(3.649 5.937)">
          <path id="Trazado_37041" data-name="Trazado 37041" d="M546.448,332.722s-1.462,3.35-.214,4.339S549.182,336.06,546.448,332.722Z" transform="translate(-545.73 -332.722)" fill="#4bc5ef"/>
          <path id="Trazado_37042" data-name="Trazado 37042" d="M547.617,332.722s-.05.114-.123.306c1.586,2.444.671,3.961-.344,3.745a1.114,1.114,0,0,0,.253.289C548.652,338.05,550.351,336.06,547.617,332.722Z" transform="translate(-546.899 -332.722)" fill="#76d3f4"/>
        </g>
        <g id="Grupo_34404" data-name="Grupo 34404" transform="translate(2.482 0)">
          <path id="Trazado_37043" data-name="Trazado 37043" d="M539.823,299.2s-1.422,3.367-.163,4.341S542.6,302.507,539.823,299.2Z" transform="translate(-539.14 -299.201)" fill="#4bc5ef"/>
          <path id="Trazado_37044" data-name="Trazado 37044" d="M541.053,299.2s-.048.115-.119.307c1.615,2.426.718,3.953-.3,3.749a1.11,1.11,0,0,0,.256.286C542.149,304.516,543.825,302.507,541.053,299.2Z" transform="translate(-540.369 -299.201)" fill="#76d3f4"/>
        </g>
      </g>
    </g>
  </g>
</svg>
