<svg xmlns="http://www.w3.org/2000/svg" xmlns:xlink="http://www.w3.org/1999/xlink" width="232" height="208" viewBox="0 0 232 208">
  <defs>
    <linearGradient id="linear-gradient" y1="0.5" x2="1" y2="0.5" gradientUnits="objectBoundingBox">
      <stop offset="0" stop-color="#4a1ed9"/>
      <stop offset="0.917" stop-color="#5d2af5"/>
      <stop offset="1" stop-color="#602cf8"/>
    </linearGradient>
  </defs>
  <g id="Grupo_2468" data-name="Grupo 2468" transform="translate(-64 -56)">
    <g id="Grupo_1363" data-name="Grupo 1363" transform="translate(-769.096 13.582)">
      <path id="Trazado_2211" data-name="Trazado 2211" d="M943.474,119.152s-33.932-33.409-78.226-7.963-26.356,63.095-12.951,71.666c4.724,3.021,15.542,7.79,13.988,37.391s5.18,48.816,71.492,39.987,81.056,12.464,103.471-15.06,25.826-81.922,10.328-108.017S966.786,143.733,943.474,119.152Z" transform="translate(0 -13.915)" fill="url(#linear-gradient)"/>
      <path id="Trazado_2212" data-name="Trazado 2212" d="M1017.518,142.976s28.854,17.056,37.292,4.1,1.438-37.332,1.438-37.332l6.574-2.268s17.847,42.723-9.664,57c-17.031,8.839-40.406,7.112-47.929,1.665S1008.4,139.758,1017.518,142.976Z" transform="translate(-38.274 -14.711)" fill="#f0a478"/>
      <path id="Trazado_2213" data-name="Trazado 2213" d="M1080.05,107.216l-6.883-26.154s-2.037.53-1.747,3.445a60.839,60.839,0,0,0,1.5,7.468s-2.579-3.2-5.609-.985-2.485,4.942-2.485,4.942l1.738-.449s1.034-3.173,3.067-2.553,4.654,4.706,1.389,6.794-4.445-2.967-4.445-2.967l-1.858.684s1.4,6.822,6.584,5.687l1.274,5.592Z" transform="translate(-53.694 -8.912)" fill="#f0a478"/>
      <path id="Trazado_2214" data-name="Trazado 2214" d="M1011.82,260.319c-3.6.514-17.521,1.713-19.325-10.053,0-.021-.008-.042-.011-.064-.036-.235-.067-.475-.092-.721-.908-8.842,7.266-11.043,13.746-11.42v-.006s40.237-1.955,53.927-.767c0,0,10.942.389,11.446,7.119C1072.376,255.947,1029.984,259.324,1011.82,260.319Z" transform="translate(-35.754 -45.329)" fill="#d68b63"/>
      <path id="Trazado_2215" data-name="Trazado 2215" d="M980.289,62.7l-3.907-3.519.141,1.444-3.359-1.444,1.709,2.495h-7.6l1.6.8-6.994.9,1.064,1.051-5.72,3.283h2.095l-1.4,1.707-1.693.657,1.344.919-2.8,2.232h1.893l-2.82,5.384.2,2.732-.855,4.4.656.989v5.8l1.695,3.894L980.866,68.5Z" transform="translate(-27.331 -3.591)" fill="#d6d5d4"/>
      <path id="Trazado_2216" data-name="Trazado 2216" d="M982.051,63.907l3.8-3.519-.137,1.444,3.266-1.444-1.661,2.495h7.395l-1.556.8L999.44,64.7l-2.8,1.072,5.347,2.8h-2.037l1.358,1.707,1.646.657-1.307.919,2.721,2.232h-1.841l2.742,7.766-1.261.707.831,4.4-.638.989v5.8l-1.648,3.894L977.929,69.711Z" transform="translate(-33.157 -3.884)" fill="#d6d5d4"/>
      <path id="Trazado_2217" data-name="Trazado 2217" d="M959.42,104.918l-1.141-2.1s-3.061-17.539-1.262-23.535,6.376-10.943,14.806-12.592,24.154.262,25.249,11.955a133.906,133.906,0,0,1,0,22.72l-.727,3.551Z" transform="translate(-28.03 -5.293)" fill="#d6d5d4"/>
      <g id="Grupo_1330" data-name="Grupo 1330" transform="translate(965.298 89.029)">
        <circle id="Elipse_282" data-name="Elipse 282" cx="3.236" cy="3.236" r="3.236" fill="#ec9866"/>
        <circle id="Elipse_283" data-name="Elipse 283" cx="1.898" cy="1.898" r="1.898" transform="translate(1.338 1.338)" fill="#d58350"/>
      </g>
      <g id="Grupo_1331" data-name="Grupo 1331" transform="translate(926.839 90.023)">
        <circle id="Elipse_284" data-name="Elipse 284" cx="3.236" cy="3.236" r="3.236" fill="#ec9866"/>
        <circle id="Elipse_285" data-name="Elipse 285" cx="1.898" cy="1.898" r="1.898" transform="translate(1.338 1.338)" fill="#d58350"/>
      </g>
      <path id="Trazado_2218" data-name="Trazado 2218" d="M969.508,236.132l-15.375-2.594S949.481,257.8,975.9,257.8c24.671,0,14.992-18.507,14.992-18.507Z" transform="translate(-27.423 -44.531)" fill="#f0a478"/>
      <path id="Trazado_2219" data-name="Trazado 2219" d="M990.606,234.886l15.311-6.473s6.2,28.137-21.708,28.137c-24.671,0-14.992-18.507-14.992-18.507Z" transform="translate(-30.6 -43.293)" fill="#f0a478"/>
      <path id="Trazado_2220" data-name="Trazado 2220" d="M942.958,261.89c3.6.514,17.521,1.713,19.326-10.053,0-.021.008-.042.011-.064.035-.235.066-.475.092-.721.908-8.842-7.267-11.043-13.746-11.42v-.006s-40.236-1.955-53.927-.767c0,0-10.942.389-11.446,7.119C882.4,257.518,924.8,260.9,942.958,261.89Z" transform="translate(-10.737 -45.699)" fill="#f0a478"/>
      <path id="Trazado_2221" data-name="Trazado 2221" d="M892.33,232.119" transform="translate(-13.434 -44.372)" fill="#d78d66" opacity="0.48"/>
      <path id="Trazado_2222" data-name="Trazado 2222" d="M887.318,234.784" transform="translate(-12.215 -45.002)" fill="#d78d66" opacity="0.48"/>
      <path id="Trazado_2223" data-name="Trazado 2223" d="M886.653,241.616c10.97,2.711,47,19.969,47,19.969l-1.381-22.642-21.848-.46c3.753,3.931-19.478,1.128-19.478,1.128A12.446,12.446,0,0,0,886.653,241.616Z" transform="translate(-11.624 -45.705)" fill="#d78d66" opacity="0.48"/>
      <path id="Trazado_2224" data-name="Trazado 2224" d="M997.709,209.47l8.17-26.93c3.154-3.345,5.091-11.288,5.091-11.288s4.768-8.64-4.426-12.145l-19.086-3.723-27.475-.213L939,158.512c-9.246,3.363-4.613,12.076-4.613,12.076s3.76,8.116,6.862,11.509l8.132,26.88s2.019,11.095,21.279,11.726S995.872,212.76,997.709,209.47Z" transform="translate(-22.362 -25.819)" fill="#f0a478"/>
      <path id="Trazado_2225" data-name="Trazado 2225" d="M957.232,167.868l-24.009-3.3s-2.275-14.228,35.849-15.292,43.4,10.068,43.128,13.973S957.232,167.868,957.232,167.868Z" transform="translate(-22.356 -24.699)" fill="#f0a478"/>
      <path id="Trazado_2226" data-name="Trazado 2226" d="M991.585,160.891l2.146-2.594,16.53-2.223S995.589,158.73,991.585,160.891Z" transform="translate(-36.424 -26.376)" fill="#d78d66"/>
      <path id="Trazado_2227" data-name="Trazado 2227" d="M962.185,162.108,937.05,159.6s-11.9,8.02,4.092,23.578Z" transform="translate(-22.523 -27.124)" fill="#f0a478"/>
      <path id="Trazado_2228" data-name="Trazado 2228" d="M999.96,162.108,1025.1,159.6s13.008,8.462-2.985,24.02Z" transform="translate(-38.326 -27.122)" fill="#f0a478"/>
      <path id="Trazado_2229" data-name="Trazado 2229" d="M978.911,233.914l-24.677-9.3s.394-26.808,24.033-27.755,24.963,27.755,24.963,27.755Z" transform="translate(-27.465 -35.797)" fill="#f0a478"/>
      <path id="Trazado_2230" data-name="Trazado 2230" d="M990.712,138.211v10.344l-14.754.317-.208-10.988Z" transform="translate(-32.709 -22.058)" fill="#f0a478"/>
      <path id="Trazado_2231" data-name="Trazado 2231" d="M990.713,143.4s-9.885,2.612-14.845.647l-.117-6.16,14.962.328Z" transform="translate(-32.709 -22.072)" fill="#d38658" opacity="0.8"/>
      <path id="Trazado_2232" data-name="Trazado 2232" d="M997.722,106.765l-.116-25.414s-1.686-12.08-20.329-11.558-17.616,16.812-17.616,16.812l.094.021,1.234,22.807a7.948,7.948,0,0,0,3.28,7.042l6.541,5.273C980.13,129.1,986.9,123,986.9,123l5.1-4.13A14.134,14.134,0,0,0,997.722,106.765Z" transform="translate(-28.799 -6.168)" fill="#f0a478"/>
      <g id="Grupo_1332" data-name="Grupo 1332" transform="translate(955.536 79.845)">
        <path id="Trazado_2233" data-name="Trazado 2233" d="M992.974,91.412s4.814-.71,6,.68a8.67,8.67,0,0,1,1.538,3.711,20.038,20.038,0,0,0-4.355-1.726c-1.779-.344-3.639-.31-3.953-1.039S992.974,91.412,992.974,91.412Z" transform="translate(-992.148 -91.231)" fill="#919191"/>
        <path id="Trazado_2234" data-name="Trazado 2234" d="M994.544,91.279l-1.331,2.269a7.152,7.152,0,0,0,1.012.207l1.492-2.523C995.3,91.235,994.9,91.254,994.544,91.279Z" transform="translate(-992.407 -91.231)" fill="#828181"/>
        <path id="Trazado_2235" data-name="Trazado 2235" d="M997.1,91.257l-1.531,2.609c.339.044.692.092,1.046.151l1.563-2.643A8.858,8.858,0,0,0,997.1,91.257Z" transform="translate(-992.98 -91.237)" fill="#828181"/>
        <path id="Trazado_2236" data-name="Trazado 2236" d="M999.519,91.664l-1.533,2.612c.31.08.634.182.959.3l1.421-2.4A2.032,2.032,0,0,0,999.519,91.664Z" transform="translate(-993.568 -91.336)" fill="#828181"/>
        <path id="Trazado_2237" data-name="Trazado 2237" d="M1001.336,93.136l-1.2,2.051c.319.129.624.261.906.389l.823-1.391A7.037,7.037,0,0,0,1001.336,93.136Z" transform="translate(-994.09 -91.694)" fill="#828181"/>
      </g>
      <path id="Trazado_2238" data-name="Trazado 2238" d="M958.984,98.171l1.2-1.187-.6-7.647,2.73-7.308s2.162-4.159,4.973-5.058,3.791-2.025,7.839-2.25l4.047-.225v1.686l.787-1.349v.956l.956-.844.281,1.012.562-1.461,3.991.394S991.487,78.262,993,80,995.078,89,995.078,89l.624,8.689h.611l.569-9.268s5.266-21.664-15.167-23.388c-17.6-1.485-23.69,10.206-24.952,13.654S958.984,98.171,958.984,98.171Z" transform="translate(-28.04 -4.982)" fill="#d6d5d4"/>
      <path id="Trazado_2239" data-name="Trazado 2239" d="M959.786,106.083l1.2-1.187s3.412,12.052,7.624,11.927,15.587-1.5,19.159-.5,6.975.626,7.526-1,.924-13.66.924-13.66l.974-.149s1.769,12.775.586,18.422-6.3,8.582-7.308,11.557.064,6.1-5.6,7.542-11.923-.415-14.676-5.494-4.255-4.328-7.007-7.081S959.786,106.083,959.786,106.083Z" transform="translate(-28.829 -13.407)" fill="#d6d5d4"/>
      <path id="Trazado_2240" data-name="Trazado 2240" d="M962.357,110.8l-2.04,3.875c.117,1.392.264,2.9.447,4.395l2.5-6.088C962.929,112.235,962.625,111.493,962.357,110.8Z" transform="translate(-29.118 -15.673)" fill="#cccbca"/>
      <path id="Trazado_2241" data-name="Trazado 2241" d="M964.772,116.847l-3.281,6.79a31.88,31.88,0,0,0,.947,4.219l3.4-9.4A15.3,15.3,0,0,1,964.772,116.847Z" transform="translate(-29.39 -17.093)" fill="#cccbca"/>
      <path id="Trazado_2242" data-name="Trazado 2242" d="M969.789,121.486a3.015,3.015,0,0,1-1.978-.8l-3.188,10.69a24.187,24.187,0,0,0,3.147,2.346l2.351-12.245Z" transform="translate(-30.125 -17.993)" fill="#cccbca"/>
      <path id="Trazado_2243" data-name="Trazado 2243" d="M973.818,121.516l-2.442,14.275a18.546,18.546,0,0,1,1.638,2.575,10.677,10.677,0,0,0,1.2,1.771l1.791-18.783C975.233,121.413,974.495,121.469,973.818,121.516Z" transform="translate(-31.724 -18.133)" fill="#cccbca"/>
      <path id="Trazado_2244" data-name="Trazado 2244" d="M979.339,121.123l-1.274,20.914a12.532,12.532,0,0,0,4.316,1.838l-.516-22.933C981.011,121,980.162,121.061,979.339,121.123Z" transform="translate(-33.305 -18.023)" fill="#cccbca"/>
      <path id="Trazado_2245" data-name="Trazado 2245" d="M984.986,120.785l2.542,23.371a15.305,15.305,0,0,0,3.473-.462l.166-.045-3.852-22.978C986.556,120.7,985.775,120.739,984.986,120.785Z" transform="translate(-34.932 -17.957)" fill="#cccbca"/>
      <path id="Trazado_2246" data-name="Trazado 2246" d="M990.851,120.6l3.691,22.32a4.676,4.676,0,0,0,2.635-3l-4.128-19.272C992.382,120.615,991.642,120.6,990.851,120.6Z" transform="translate(-36.316 -17.946)" fill="#cccbca"/>
      <path id="Trazado_2247" data-name="Trazado 2247" d="M996.531,121.032a6.887,6.887,0,0,0-.73-.155l4.123,14.008a30.625,30.625,0,0,1,2.363-2.848l-4.14-10.646A15.5,15.5,0,0,1,996.531,121.032Z" transform="translate(-37.485 -18.036)" fill="#cccbca"/>
      <path id="Trazado_2248" data-name="Trazado 2248" d="M1002.12,121.7l3.273,8.574a15.97,15.97,0,0,0,1.825-2.966l-3.124-5.92A6.905,6.905,0,0,1,1002.12,121.7Z" transform="translate(-38.985 -18.171)" fill="#cccbca"/>
      <path id="Trazado_2249" data-name="Trazado 2249" d="M1007.138,115.589a27.109,27.109,0,0,1-.326,2.847l2.557,4.048a30.5,30.5,0,0,0,.254-4.017Z" transform="translate(-40.105 -16.807)" fill="#cccbca"/>
      <path id="Trazado_2250" data-name="Trazado 2250" d="M1009.416,108.427l-1.741-1.181c-.04.913-.087,1.9-.14,2.883l2.119,1.467C1009.587,110.5,1009.5,109.423,1009.416,108.427Z" transform="translate(-40.28 -14.843)" fill="#cccbca"/>
      <path id="Trazado_2251" data-name="Trazado 2251" d="M987.963,122.35s-9.891-1.148-10.171,2.117-.26,5.083,4.286,5.514,10.935.2,11.487-1.7S994.228,122.413,987.963,122.35Z" transform="translate(-33.162 -18.355)" fill="#f0a478"/>
      <path id="Trazado_2252" data-name="Trazado 2252" d="M989.505,126.677s-.643,1.52-1.921,1.452a2.1,2.1,0,0,1-1.915-1.52s-.163-.648-.593-.4c0,0-.372.2-.095.713a3.058,3.058,0,0,0,2.587,1.949,2.652,2.652,0,0,0,2.711-1.912s.142-.43-.1-.576C990.183,126.379,989.735,126.108,989.505,126.677Z" transform="translate(-34.91 -19.313)" fill="#39393a"/>
      <path id="Trazado_2253" data-name="Trazado 2253" d="M984.525,119.262s-3.6-3.169-7.031-.792-4.177,5.256-3.3,8.384-1.753,3.425-1.94,6.092a13.493,13.493,0,0,0,1.059,5.494s-.727-5.079,1.7-6.581,3.546-2.878,3.364-6.507,4.715-1.752,6.145-3S985.361,119.86,984.525,119.262Z" transform="translate(-31.888 -17.239)" fill="#f2f2f0"/>
      <path id="Trazado_2254" data-name="Trazado 2254" d="M984.851,120.02a2.479,2.479,0,0,1-.8,1.138c-1.431,1.252-6.328-.625-6.146,3s-.932,5.005-3.364,6.507-1.7,6.581-1.7,6.581-.017-.037-.04-.095a14.545,14.545,0,0,0,.634,1.878s-.727-5.079,1.7-6.581,3.546-2.878,3.364-6.507,4.715-1.752,6.145-3C985.958,121.8,985.568,120.662,984.851,120.02Z" transform="translate(-32.009 -17.819)" fill="#e7e6e6"/>
      <path id="Trazado_2255" data-name="Trazado 2255" d="M988.938,119.262s3.6-3.169,7.031-.792,4.177,5.256,3.3,8.384,1.752,3.425,1.94,6.092a13.493,13.493,0,0,1-1.059,5.494s.727-5.079-1.7-6.581-3.546-2.878-3.364-6.507-4.715-1.752-6.145-3S988.1,119.86,988.938,119.262Z" transform="translate(-35.626 -17.239)" fill="#f2f2f0"/>
      <path id="Trazado_2256" data-name="Trazado 2256" d="M999.636,131.091c-2.431-1.5-3.546-2.878-3.364-6.507s-4.715-1.752-6.146-3a1.838,1.838,0,0,1-.7-2.267c-.306.212-.487.368-.487.368-.835.6-1.431,1.836,0,3.088s6.328-.626,6.145,3,.933,5.005,3.364,6.507,1.7,6.581,1.7,6.581a13.919,13.919,0,0,0,1.074-5.1A3.987,3.987,0,0,0,999.636,131.091Z" transform="translate(-35.626 -17.651)" fill="#e7e6e6"/>
      <g id="Grupo_1333" data-name="Grupo 1333" transform="translate(949.178 91.638)">
        <path id="Trazado_2257" data-name="Trazado 2257" d="M988.346,109.66a13.5,13.5,0,0,1-1.716-2.262c-.662-1.162-1.317-1.48-2.407-.866s-.38,10.181,6.135,10.059,5.1-4.507,4.12-5.469S990.979,112.365,988.346,109.66Z" transform="translate(-983.805 -106.226)" fill="#e4854a"/>
        <path id="Trazado_2258" data-name="Trazado 2258" d="M990.52,116.231c-5.609.105-6.912-6.968-6.472-9.33-.808,1.523.185,9.97,6.309,9.855,3.43-.064,4.661-1.311,4.916-2.617C994.8,115.236,993.484,116.175,990.52,116.231Z" transform="translate(-983.805 -106.39)" fill="#cb6a27"/>
      </g>
      <g id="Grupo_1334" data-name="Grupo 1334" transform="translate(936.416 80.771)">
        <path id="Trazado_2259" data-name="Trazado 2259" d="M974.656,92.2s-4.814-.709-6,.68a8.662,8.662,0,0,0-1.538,3.711,20.044,20.044,0,0,1,4.354-1.726c1.78-.344,3.639-.31,3.953-1.039S974.656,92.2,974.656,92.2Z" transform="translate(-967.118 -92.016)" fill="#919191"/>
        <path id="Trazado_2260" data-name="Trazado 2260" d="M974.97,92.065l1.331,2.268a7.062,7.062,0,0,1-1.013.207L973.8,92.018C974.216,92.021,974.615,92.04,974.97,92.065Z" transform="translate(-968.743 -92.016)" fill="#828181"/>
        <path id="Trazado_2261" data-name="Trazado 2261" d="M972.381,92.042l1.53,2.609c-.339.045-.691.092-1.045.151L971.3,92.159A8.844,8.844,0,0,1,972.381,92.042Z" transform="translate(-968.136 -92.022)" fill="#828181"/>
        <path id="Trazado_2262" data-name="Trazado 2262" d="M970.035,92.449l1.533,2.612c-.31.08-.634.183-.959.3l-1.421-2.4A2.048,2.048,0,0,1,970.035,92.449Z" transform="translate(-967.621 -92.121)" fill="#828181"/>
        <path id="Trazado_2263" data-name="Trazado 2263" d="M968.427,93.921l1.2,2.051c-.319.129-.625.261-.907.389L967.9,94.97A6.964,6.964,0,0,1,968.427,93.921Z" transform="translate(-967.309 -92.479)" fill="#828181"/>
      </g>
      <path id="Trazado_2264" data-name="Trazado 2264" d="M975.558,68.781s3.751-.4,10.9,1.313,7.631,19.865,7.631,19.865a3.875,3.875,0,0,1,2.732,2.625s7.071-3.9,5.749-16.979-12.221-25.884-27.447-25.458c-19.965.558-42.213,21.841-22.56,42.636l2.64-1.7s-.385-14.134,6.607-18.32A27.82,27.82,0,0,1,975.558,68.781Z" transform="translate(-25.234 -1.391)" fill="#e03a2e"/>
      <path id="Trazado_2265" data-name="Trazado 2265" d="M1017.9,83.492a19.955,19.955,0,0,1-4.119,11.442,15.6,15.6,0,0,0,2.242-9.953A16.953,16.953,0,0,1,1012.475,94c4.513-8.723,0-16.993,0-16.993,3.1,7.6-1.393,16.5-1.393,16.5,1.431-4.151-.2-12.121-.2-12.121.762,3.625-.9,11.23-.9,11.23.519-4.855-2.447-9.556-2.447-9.556a34.484,34.484,0,0,1,1.329,8.212c.388,2.983.449,5.229.449,5.229a3.875,3.875,0,0,1,2.732,2.625c.051-.029.1-.061.148-.091C1013.154,98.41,1018.557,94.429,1017.9,83.492Z" transform="translate(-40.234 -7.925)" fill="#a02825" opacity="0.56"/>
      <path id="Trazado_2266" data-name="Trazado 2266" d="M976.5,50.137s-12,.749-20.141,8.945a45.636,45.636,0,0,1,10.465-4.473l-3.843,4.613,7.58-5.083s-2.1,2.406-6.162,8.138a46.01,46.01,0,0,1,7.662-5.51s.608,4.1-5.631,7.731C966.429,64.5,980.381,62.4,976.5,50.137Z" transform="translate(-28.109 -1.391)" fill="#a02825" opacity="0.48"/>
      <path id="Trazado_2267" data-name="Trazado 2267" d="M952.489,96.9s-11.647-10.3-6.57-23.065c0,0-.93,7.12,1.322,11.537,0,0-1.891-11.35,5.248-18.295a23.277,23.277,0,0,0-2.808,18.686A18.247,18.247,0,0,1,954.145,72s-3.341,16.055.984,23.2Z" transform="translate(-25.386 -5.512)" fill="#a02825" opacity="0.56"/>
      <path id="Trazado_2268" data-name="Trazado 2268" d="M957.152,89.691s-2.418-21.481,18.633-21.77,8.127-23.815,1.889-23.5,2.136,12.187-7.046,16.1-22.182,9.195-16.116,30.87Z" transform="translate(-27.244 0)" fill="#d1322c"/>
      <path id="Trazado_2269" data-name="Trazado 2269" d="M977.854,44.421a2.392,2.392,0,0,0-1.963.9c6.278,4.727,13.223,22.078-4.837,22.324-12,.164-15.137,7.332-16.68,13.364-1.062,5.8-.811,6.342.319,10.379l2.64-1.7S955.7,68.511,975.965,68.422C997.215,68.328,984.092,44.106,977.854,44.421Z" transform="translate(-27.421 0)" fill="#b92b28"/>
      <path id="Trazado_2270" data-name="Trazado 2270" d="M954.65,84.343s.081-10.39,11.987-13.612c8.744-2.367,15.229-2.177,14.384-10.343,0,0,1.583,6.589-14,9.31S953.98,89.724,953.98,89.724Z" transform="translate(-27.483 -3.884)" fill="#b92b28"/>
      <path id="Trazado_2271" data-name="Trazado 2271" d="M960.6,69.175a45.384,45.384,0,0,1,13.692-6.382c7.121-1.692,3.72-14.891,3.72-14.891s5.468,12.956-3.521,15.642A66.123,66.123,0,0,0,960.6,69.175Z" transform="translate(-29.118 -0.847)" fill="#b92b28"/>
      <path id="Trazado_2272" data-name="Trazado 2272" d="M986.389,52.077s2.027,7.883-1.567,10.324C984.822,62.4,990.05,60.9,986.389,52.077Z" transform="translate(-34.909 -1.863)" fill="#b92b28"/>
      <path id="Trazado_2273" data-name="Trazado 2273" d="M979.458,53.694s1.641,8.967-9.272,12.787C970.186,66.481,982.186,64.9,979.458,53.694Z" transform="translate(-31.421 -2.256)" fill="#b92b28"/>
      <path id="Trazado_2274" data-name="Trazado 2274" d="M995.569,55.054s14.269,4.28,16.991,18.7C1012.56,73.759,1008.048,60.215,995.569,55.054Z" transform="translate(-37.373 -2.587)" fill="#b92b28"/>
      <path id="Trazado_2275" data-name="Trazado 2275" d="M1000.336,61.957s8.519,3.076,10.388,16.523C1010.724,78.48,1007.787,68.026,1000.336,61.957Z" transform="translate(-38.535 -4.266)" fill="#b92b28"/>
      <path id="Trazado_2276" data-name="Trazado 2276" d="M1001.275,67.412a18.58,18.58,0,0,1,6.942,14.662S1006.715,73.291,1001.275,67.412Z" transform="translate(-38.775 -5.592)" fill="#b92b28"/>
      <path id="Trazado_2277" data-name="Trazado 2277" d="M998.4,72.874a12.513,12.513,0,0,1,6.656,6.035A22.276,22.276,0,0,0,998.4,72.874Z" transform="translate(-38.099 -6.921)" fill="#b92b28"/>
      <path id="Trazado_2278" data-name="Trazado 2278" d="M987.109,145.723s-6.29-1.921-7.5,11.627-16.945,41.669-34.6,45.253c0,0-3.784,4.773,0,9.237,0,0-19.171-.761-20.411,3.737,0,0,22,6.737,22.7,23.074,0,0,8.671,1.461,24.207.64s22.682,3.655,33.52,0c0,0,.06-19.2,5.867-23.715s-6.957-3.714-12.588-3.737c0,0,5.631-2.5,1.877-9.237,0,0,1.38-13.034,2.824-29.584s5.811-19.767,3.934-22.581-9.314-1.744-9.314-1.744S995.948,141.325,987.109,145.723Z" transform="translate(-20.295 -22.476)" fill="#f0db96"/>
      <path id="Trazado_2279" data-name="Trazado 2279" d="M971.888,236.517s13.531,3.456,24.583.6c0,0-7.941,9.886-6.564,20.272,0,0-3.866-9.087,1.258-16.87C991.165,240.52,979.486,240.212,971.888,236.517Z" transform="translate(-31.75 -45.261)" fill="#dcc88a"/>
      <path id="Trazado_2280" data-name="Trazado 2280" d="M1016.189,235.658s-13.515,1.626-17.018,18.27C999.171,253.928,1004.677,241.539,1016.189,235.658Z" transform="translate(-38.222 -45.079)" fill="#dcc88a"/>
      <path id="Trazado_2281" data-name="Trazado 2281" d="M1057.439,254.718s9.682-2.635,9.568-8.736c-.16-8.448-10.674-7.056-16.411-4.747s-24.406.257-34.784,4.072-42.72,14.239-42.72,14.239l1.61,8.873Z" transform="translate(-31.077 -45.618)" fill="#dd906a"/>
      <path id="Trazado_2282" data-name="Trazado 2282" d="M964.48,267.7s-2.357-1.757-8.068.732-11.648,4.906-18.155,5.271-5.692,10.467-.293,11.86c4.538,1.171,22.372-6.606,27.145-9.234S966.984,267.4,964.48,267.7Z" transform="translate(-22.704 -52.336)" fill="#dd906a"/>
      <path id="Trazado_2283" data-name="Trazado 2283" d="M1058.852,256.244a86.344,86.344,0,0,1-27.4,9.079c-14.828,1.995-56.226,7.175-56.226,7.175l43.838-14.474Z" transform="translate(-32.083 -49.697)" fill="#dd906a"/>
      <path id="Trazado_2284" data-name="Trazado 2284" d="M1003.139,196.639s14.406-26.577,13.585-46.606a15.842,15.842,0,0,1,5,0S1017.78,175.8,1003.139,196.639Z" transform="translate(-39.148 -24.703)" fill="#dcc88a"/>
      <path id="Trazado_2285" data-name="Trazado 2285" d="M1003.783,145.763s-.167,24.8-10.63,43.945c0,0,13.18-16.926,14.287-45.221Z" transform="translate(-36.818 -23.459)" fill="#dcc88a"/>
      <path id="Trazado_2286" data-name="Trazado 2286" d="M951.568,229.107s11.94-3.879,18.629-13.788C970.2,215.319,963.233,230.735,951.568,229.107Z" transform="translate(-26.989 -40.314)" fill="#dcc88a"/>
      <path id="Trazado_2287" data-name="Trazado 2287" d="M971.888,224.447s17.257-12.363,24.583-29.631C996.471,194.816,991.785,217.039,971.888,224.447Z" transform="translate(-31.75 -35.377)" fill="#dcc88a"/>
      <path id="Trazado_2288" data-name="Trazado 2288" d="M954.57,209.032s32.733-29.61,32.607-53.636C987.177,155.4,990.892,187.286,954.57,209.032Z" transform="translate(-27.632 -25.962)" fill="#dcc88a"/>
      <path id="Trazado_2289" data-name="Trazado 2289" d="M1022.4,182.241l-.383,5.755s-13.526,17.735-17.65,33.648C1004.372,221.644,1008.522,200.128,1022.4,182.241Z" transform="translate(-39.442 -32.353)" fill="#dcc88a"/>
      <path id="Trazado_2290" data-name="Trazado 2290" d="M1022.442,208.274A44.855,44.855,0,0,1,1012.032,228a15.582,15.582,0,0,0,9.412-9.844Z" transform="translate(-41.295 -38.614)" fill="#dcc88a"/>
      <path id="Trazado_2291" data-name="Trazado 2291" d="M934.154,234.158s32.686,4.812,38.961,20.079c0,0-4.605-17.472-34.18-20.395Z" transform="translate(-22.803 -44.634)" fill="#dcc88a"/>
      <path id="Trazado_2292" data-name="Trazado 2292" d="M892.611,256.289s-9.682-2.635-9.567-8.736c.159-8.448,10.674-7.056,16.411-4.747s24.406.257,34.783,4.071,42.72,14.24,42.72,14.24l-1.61,8.873Z" transform="translate(-10.632 -46)" fill="#ef9d6e"/>
      <path id="Trazado_2293" data-name="Trazado 2293" d="M1004.816,267.7s2.358-1.757,8.068.732,11.649,4.906,18.156,5.271,5.691,10.467.293,11.86c-4.539,1.171-22.372-6.606-27.146-9.234S1002.312,267.4,1004.816,267.7Z" transform="translate(-38.691 -52.336)" fill="#ef9d6e"/>
      <path id="Trazado_2294" data-name="Trazado 2294" d="M894.5,257.815a86.365,86.365,0,0,0,27.4,9.079c14.828,1.995,56.225,7.174,56.225,7.174L934.3,259.6Z" transform="translate(-13.335 -50.079)" fill="#ef9d6e"/>
      <path id="Trazado_2295" data-name="Trazado 2295" d="M953.286,195.014s1.783,2.556,6.57,2.31,13.29-.621,14.34-3.624c0,0,.019,3.378-7.865,4.223S954.506,198.111,953.286,195.014Z" transform="translate(-27.385 -35.266)" fill="#d78d66"/>
      <circle id="Elipse_286" data-name="Elipse 286" cx="1.736" cy="1.736" r="1.736" transform="translate(932.43 155.24)" fill="#d78d66"/>
      <circle id="Elipse_287" data-name="Elipse 287" cx="0.868" cy="0.868" r="0.868" transform="translate(933.023 156.383)" fill="#be7d5b"/>
      <path id="Trazado_2296" data-name="Trazado 2296" d="M952.212,204.9a34.367,34.367,0,0,0,12.137,2.367S956.467,208.694,952.212,204.9Z" transform="translate(-27.168 -37.923)" fill="#d78d66"/>
      <path id="Trazado_2297" data-name="Trazado 2297" d="M951.876,209.945a25.711,25.711,0,0,0,9.081,1.771S955.059,212.782,951.876,209.945Z" transform="translate(-27.1 -39.119)" fill="#d78d66"/>
      <path id="Trazado_2298" data-name="Trazado 2298" d="M936.067,276.008s-7.336-.481-7.336,2.539,4.63,1.6,6.007,1.746S936.959,277.521,936.067,276.008Z" transform="translate(-21.64 -54.497)" fill="#dd906a"/>
      <path id="Trazado_2299" data-name="Trazado 2299" d="M935,281.554s-4.379.157-4.362,1.381,1.742,1.035,3.672.68S935,281.554,935,281.554Z" transform="translate(-22.099 -55.853)" fill="#dd906a"/>
      <path id="Trazado_2300" data-name="Trazado 2300" d="M935.38,284.18s-4.379.158-4.362,1.382,1.743,1.035,3.672.68S935.38,284.18,935.38,284.18Z" transform="translate(-22.189 -56.491)" fill="#dd906a"/>
      <path id="Trazado_2301" data-name="Trazado 2301" d="M936.619,286.686s-4.378.157-4.361,1.381,1.742,1.035,3.672.68S936.619,286.686,936.619,286.686Z" transform="translate(-22.482 -57.101)" fill="#dd906a"/>
      <path id="Trazado_2302" data-name="Trazado 2302" d="M938.413,288.721s-4.348.549-4.221,1.766,1.828.876,3.718.35S938.413,288.721,938.413,288.721Z" transform="translate(-22.938 -57.596)" fill="#dd906a"/>
      <path id="Trazado_2303" data-name="Trazado 2303" d="M1042.622,276.738s7.336-.481,7.336,2.538-4.63,1.6-6.007,1.747S1041.731,278.25,1042.622,276.738Z" transform="translate(-48.448 -54.675)" fill="#ef9d6e"/>
      <path id="Trazado_2304" data-name="Trazado 2304" d="M1044.636,282.283s4.379.158,4.362,1.382-1.743,1.035-3.672.68S1044.636,282.283,1044.636,282.283Z" transform="translate(-48.938 -56.03)" fill="#ef9d6e"/>
      <path id="Trazado_2305" data-name="Trazado 2305" d="M1044.257,284.91s4.379.157,4.362,1.381-1.743,1.035-3.672.68S1044.257,284.91,1044.257,284.91Z" transform="translate(-48.849 -56.669)" fill="#ef9d6e"/>
      <path id="Trazado_2306" data-name="Trazado 2306" d="M1043.017,287.415s4.379.158,4.362,1.382-1.742,1.035-3.672.68S1043.017,287.415,1043.017,287.415Z" transform="translate(-48.556 -57.278)" fill="#ef9d6e"/>
      <path id="Trazado_2307" data-name="Trazado 2307" d="M1041.236,289.451s4.348.548,4.221,1.766-1.828.875-3.718.349S1041.236,289.451,1041.236,289.451Z" transform="translate(-48.112 -57.773)" fill="#ef9d6e"/>
      <path id="Trazado_2308" data-name="Trazado 2308" d="M928.016,144.547s-28.855,17.056-37.292,4.1-1.438-37.332-1.438-37.332l-6.574-2.268s-17.847,42.722,9.664,57c17.031,8.838,40.407,7.111,47.929,1.665S937.132,141.329,928.016,144.547Z" transform="translate(-9.71 -15.077)" fill="#f0a478"/>
      <path id="Trazado_2309" data-name="Trazado 2309" d="M977.461,160.774l-2.147-2.594-16.53-2.223S973.457,158.613,977.461,160.774Z" transform="translate(-28.69 -26.349)" fill="#d78d66"/>
      <path id="Trazado_2310" data-name="Trazado 2310" d="M970.186,100.988a5.1,5.1,0,0,0,5.534-.045S973.277,105.321,970.186,100.988Z" transform="translate(-31.439 -13.359)" fill="#4e0e02"/>
      <path id="Trazado_2311" data-name="Trazado 2311" d="M993.748,100.988a5.1,5.1,0,0,0,5.535-.045S996.84,105.321,993.748,100.988Z" transform="translate(-37.005 -13.359)" fill="#4e0e02"/>
      <path id="Trazado_2312" data-name="Trazado 2312" d="M881.714,108.787,888.6,82.633s2.037.53,1.747,3.445a60.856,60.856,0,0,1-1.5,7.468s2.58-3.2,5.609-.985,2.485,4.942,2.485,4.942l-1.738-.449s-1.034-3.173-3.067-2.553-4.655,4.706-1.389,6.794,4.445-2.967,4.445-2.967l1.858.683s-1.4,6.823-6.584,5.688l-1.274,5.591Z" transform="translate(-10.525 -9.294)" fill="#f0a478"/>
      <g id="Grupo_1348" data-name="Grupo 1348" transform="translate(934.816 122.05)">
        <g id="Grupo_1335" data-name="Grupo 1335" transform="translate(1.664)">
          <rect id="Rectángulo_1677" data-name="Rectángulo 1677" width="5.867" height="5.867" rx="2.934" fill="#18a3bc"/>
          <path id="Trazado_2313" data-name="Trazado 2313" d="M970.747,145.945a2.9,2.9,0,0,0-.594.061,2.933,2.933,0,0,1,0,5.744,2.9,2.9,0,0,0,.594.062,2.934,2.934,0,1,0,0-5.867Z" transform="translate(-967.814 -145.945)" fill="#43b2b5"/>
        </g>
        <g id="Grupo_1336" data-name="Grupo 1336" transform="translate(0 4.442)">
          <rect id="Rectángulo_1678" data-name="Rectángulo 1678" width="5.867" height="5.867" rx="2.934" transform="translate(0 0)" fill="#18a3bc"/>
          <path id="Trazado_2314" data-name="Trazado 2314" d="M968.549,151.815a2.97,2.97,0,0,0-.595.061,2.933,2.933,0,0,1,0,5.745,2.933,2.933,0,1,0,.595-5.806Z" transform="translate(-965.615 -151.815)" fill="#43b2b5"/>
        </g>
        <g id="Grupo_1337" data-name="Grupo 1337" transform="translate(0.494 9.285)">
          <rect id="Rectángulo_1679" data-name="Rectángulo 1679" width="5.867" height="5.867" rx="2.934" transform="translate(0 0)" fill="#18a3bc"/>
          <path id="Trazado_2315" data-name="Trazado 2315" d="M969.2,158.214a2.971,2.971,0,0,0-.595.061,2.933,2.933,0,0,1,0,5.745,2.933,2.933,0,1,0,.595-5.806Z" transform="translate(-966.268 -158.214)" fill="#43b2b5"/>
        </g>
        <g id="Grupo_1338" data-name="Grupo 1338" transform="translate(2.588 13.345)">
          <rect id="Rectángulo_1680" data-name="Rectángulo 1680" width="5.867" height="5.867" rx="2.934" fill="#18a3bc"/>
          <path id="Trazado_2316" data-name="Trazado 2316" d="M971.968,163.579a2.9,2.9,0,0,0-.594.061,2.933,2.933,0,0,1,0,5.744,2.9,2.9,0,0,0,.594.061,2.933,2.933,0,0,0,0-5.867Z" transform="translate(-969.035 -163.579)" fill="#43b2b5"/>
        </g>
        <g id="Grupo_1339" data-name="Grupo 1339" transform="translate(5.867 17.1)">
          <rect id="Rectángulo_1681" data-name="Rectángulo 1681" width="5.867" height="5.867" rx="2.934" transform="translate(0 0)" fill="#18a3bc"/>
          <path id="Trazado_2317" data-name="Trazado 2317" d="M976.3,168.541a2.962,2.962,0,0,0-.594.061,2.933,2.933,0,0,1,0,5.744,2.909,2.909,0,0,0,.594.062,2.934,2.934,0,1,0,0-5.867Z" transform="translate(-973.368 -168.541)" fill="#43b2b5"/>
        </g>
        <g id="Grupo_1340" data-name="Grupo 1340" transform="translate(9.797 19.627)">
          <rect id="Rectángulo_1682" data-name="Rectángulo 1682" width="5.867" height="5.867" rx="2.934" fill="#18a3bc"/>
          <path id="Trazado_2318" data-name="Trazado 2318" d="M981.494,171.88a2.917,2.917,0,0,0-.595.061,2.932,2.932,0,0,1,0,5.744,2.933,2.933,0,1,0,.595-5.805Z" transform="translate(-978.56 -171.88)" fill="#43b2b5"/>
        </g>
        <g id="Grupo_1341" data-name="Grupo 1341" transform="translate(13.587 20.994)">
          <rect id="Rectángulo_1683" data-name="Rectángulo 1683" width="5.867" height="5.867" rx="2.934" transform="translate(0 0)" fill="#18a3bc"/>
          <path id="Trazado_2319" data-name="Trazado 2319" d="M986.5,173.686a2.956,2.956,0,0,0-.594.061,2.933,2.933,0,0,1,0,5.745,2.9,2.9,0,0,0,.594.061,2.934,2.934,0,1,0,0-5.867Z" transform="translate(-983.569 -173.686)" fill="#43b2b5"/>
        </g>
        <g id="Grupo_1342" data-name="Grupo 1342" transform="translate(18.329 20.35)">
          <rect id="Rectángulo_1684" data-name="Rectángulo 1684" width="5.867" height="5.867" rx="2.934" transform="translate(0 0)" fill="#18a3bc"/>
          <path id="Trazado_2320" data-name="Trazado 2320" d="M992.769,172.835a2.97,2.97,0,0,0-.595.061,2.933,2.933,0,0,1,0,5.745,2.933,2.933,0,1,0,.595-5.806Z" transform="translate(-989.835 -172.835)" fill="#43b2b5"/>
        </g>
        <g id="Grupo_1343" data-name="Grupo 1343" transform="translate(22.678 18.655)">
          <rect id="Rectángulo_1685" data-name="Rectángulo 1685" width="5.867" height="5.867" rx="2.934" fill="#18a3bc"/>
          <path id="Trazado_2321" data-name="Trazado 2321" d="M998.515,170.6a2.917,2.917,0,0,0-.595.061,2.933,2.933,0,0,1,0,5.744,2.933,2.933,0,1,0,.595-5.805Z" transform="translate(-995.581 -170.595)" fill="#43b2b5"/>
        </g>
        <g id="Grupo_1344" data-name="Grupo 1344" transform="translate(25.611 14.701)">
          <rect id="Rectángulo_1686" data-name="Rectángulo 1686" width="5.867" height="5.867" rx="2.934" transform="translate(0 0)" fill="#18a3bc"/>
          <path id="Trazado_2322" data-name="Trazado 2322" d="M1002.391,165.371a2.957,2.957,0,0,0-.594.061,2.933,2.933,0,0,1,0,5.745,2.933,2.933,0,1,0,.594-5.806Z" transform="translate(-999.458 -165.371)" fill="#43b2b5"/>
        </g>
        <g id="Grupo_1345" data-name="Grupo 1345" transform="translate(27.588 10.31)">
          <rect id="Rectángulo_1687" data-name="Rectángulo 1687" width="5.867" height="5.867" rx="2.934" fill="#18a3bc"/>
          <path id="Trazado_2323" data-name="Trazado 2323" d="M1005,159.568a2.915,2.915,0,0,0-.595.061,2.933,2.933,0,0,1,0,5.744,2.933,2.933,0,1,0,.595-5.805Z" transform="translate(-1002.069 -159.568)" fill="#43b2b5"/>
        </g>
        <g id="Grupo_1346" data-name="Grupo 1346" transform="translate(27.95 5.566)">
          <rect id="Rectángulo_1688" data-name="Rectángulo 1688" width="5.867" height="5.867" rx="2.934" fill="#18a3bc"/>
          <path id="Trazado_2324" data-name="Trazado 2324" d="M1005.482,153.3a2.916,2.916,0,0,0-.595.061,2.933,2.933,0,0,1,0,5.744,2.933,2.933,0,1,0,.595-5.805Z" transform="translate(-1002.548 -153.3)" fill="#43b2b5"/>
        </g>
        <g id="Grupo_1347" data-name="Grupo 1347" transform="translate(27.356 0.594)">
          <rect id="Rectángulo_1689" data-name="Rectángulo 1689" width="5.867" height="5.867" rx="2.934" transform="translate(0 0)" fill="#18a3bc"/>
          <path id="Trazado_2325" data-name="Trazado 2325" d="M1004.7,146.73a2.957,2.957,0,0,0-.594.061,2.933,2.933,0,0,1,0,5.745,2.9,2.9,0,0,0,.594.061,2.934,2.934,0,1,0,0-5.867Z" transform="translate(-1001.763 -146.73)" fill="#43b2b5"/>
        </g>
      </g>
      <g id="Grupo_1355" data-name="Grupo 1355" transform="translate(1017.342 92.242)">
        <g id="Grupo_1349" data-name="Grupo 1349" transform="translate(0 3.065)">
          <rect id="Rectángulo_1690" data-name="Rectángulo 1690" width="2.091" height="2.091" rx="1.045" transform="translate(0.05 2.14) rotate(-91.377)" fill="#18a3bc"/>
          <path id="Trazado_2326" data-name="Trazado 2326" d="M1072.659,112.185a1.019,1.019,0,0,0,.027.211,1.045,1.045,0,0,1,2.046-.049,1.1,1.1,0,0,0,.017-.212,1.045,1.045,0,1,0-2.09.05Z" transform="translate(-1072.634 -111.09)" fill="#43b2b5"/>
        </g>
        <g id="Grupo_1350" data-name="Grupo 1350" transform="translate(1.597 3.62)">
          <rect id="Rectángulo_1691" data-name="Rectángulo 1691" width="2.091" height="2.091" rx="1.045" transform="translate(0.05 2.14) rotate(-91.377)" fill="#18a3bc"/>
          <path id="Trazado_2327" data-name="Trazado 2327" d="M1074.769,112.918a1.062,1.062,0,0,0,.027.211,1.045,1.045,0,0,1,2.046-.049,1.1,1.1,0,0,0,.017-.212,1.045,1.045,0,1,0-2.09.05Z" transform="translate(-1074.744 -111.823)" fill="#43b2b5"/>
        </g>
        <g id="Grupo_1351" data-name="Grupo 1351" transform="translate(3.318 3.402)">
          <rect id="Rectángulo_1692" data-name="Rectángulo 1692" width="2.091" height="2.091" rx="1.045" transform="translate(0.05 2.14) rotate(-91.377)" fill="#18a3bc"/>
          <path id="Trazado_2328" data-name="Trazado 2328" d="M1077.043,112.63a1.041,1.041,0,0,0,.027.212,1.045,1.045,0,0,1,2.046-.049,1.1,1.1,0,0,0,.017-.213,1.045,1.045,0,0,0-2.09.05Z" transform="translate(-1077.018 -111.535)" fill="#43b2b5"/>
        </g>
        <g id="Grupo_1352" data-name="Grupo 1352" transform="translate(4.746 2.622)">
          <rect id="Rectángulo_1693" data-name="Rectángulo 1693" width="2.091" height="2.091" rx="1.045" transform="translate(0.05 2.14) rotate(-91.377)" fill="#18a3bc"/>
          <path id="Trazado_2329" data-name="Trazado 2329" d="M1078.93,111.6a1.071,1.071,0,0,0,.027.211,1.045,1.045,0,0,1,2.047-.049,1.03,1.03,0,0,0,.017-.212,1.045,1.045,0,1,0-2.09.05Z" transform="translate(-1078.905 -110.504)" fill="#43b2b5"/>
        </g>
        <g id="Grupo_1353" data-name="Grupo 1353" transform="translate(6.056 1.421)">
          <rect id="Rectángulo_1694" data-name="Rectángulo 1694" width="2.091" height="2.091" rx="1.045" transform="translate(0.05 2.14) rotate(-91.377)" fill="#18a3bc"/>
          <path id="Trazado_2330" data-name="Trazado 2330" d="M1080.661,110.013a1.019,1.019,0,0,0,.027.211,1.045,1.045,0,0,1,2.046-.049,1.088,1.088,0,0,0,.017-.212,1.045,1.045,0,1,0-2.09.05Z" transform="translate(-1080.636 -108.918)" fill="#43b2b5"/>
        </g>
        <g id="Grupo_1354" data-name="Grupo 1354" transform="translate(6.922)">
          <rect id="Rectángulo_1695" data-name="Rectángulo 1695" width="2.091" height="2.091" rx="1.045" transform="translate(0.05 2.14) rotate(-91.377)" fill="#18a3bc"/>
          <path id="Trazado_2331" data-name="Trazado 2331" d="M1081.806,108.135a1.087,1.087,0,0,0,.026.211,1.045,1.045,0,0,1,2.047-.049,1.045,1.045,0,1,0-2.073-.162Z" transform="translate(-1081.781 -107.039)" fill="#43b2b5"/>
        </g>
      </g>
      <g id="Grupo_1362" data-name="Grupo 1362" transform="translate(962.245 213.251)">
        <g id="Grupo_1356" data-name="Grupo 1356" transform="translate(0 8.662)">
          <rect id="Rectángulo_1696" data-name="Rectángulo 1696" width="2.408" height="2.408" rx="1.204" transform="translate(2.105 3.274) rotate(-150.934)" fill="#18a3bc"/>
          <path id="Trazado_2332" data-name="Trazado 2332" d="M1002.143,279.377a1.271,1.271,0,0,0,.225.1,1.2,1.2,0,0,1,1.146-2.061,1.19,1.19,0,0,0-.2-.14,1.2,1.2,0,0,0-1.17,2.1Z" transform="translate(-1001.09 -276.687)" fill="#43b2b5"/>
        </g>
        <g id="Grupo_1357" data-name="Grupo 1357" transform="translate(1.483 7.4)">
          <rect id="Rectángulo_1697" data-name="Rectángulo 1697" width="2.408" height="2.408" rx="1.204" transform="translate(2.105 3.274) rotate(-150.934)" fill="#18a3bc"/>
          <path id="Trazado_2333" data-name="Trazado 2333" d="M1004.1,277.709a1.219,1.219,0,0,0,.226.1,1.2,1.2,0,0,1,1.146-2.061,1.2,1.2,0,1,0-1.371,1.964Z" transform="translate(-1003.049 -275.02)" fill="#43b2b5"/>
        </g>
        <g id="Grupo_1358" data-name="Grupo 1358" transform="translate(2.271 5.564)">
          <rect id="Rectángulo_1698" data-name="Rectángulo 1698" width="2.408" height="2.408" rx="1.204" transform="translate(2.105 3.274) rotate(-150.934)" fill="#18a3bc"/>
          <path id="Trazado_2334" data-name="Trazado 2334" d="M1005.143,275.284a1.229,1.229,0,0,0,.226.1,1.2,1.2,0,0,1,1.145-2.061,1.186,1.186,0,0,0-.2-.14,1.2,1.2,0,1,0-1.17,2.1Z" transform="translate(-1004.091 -272.594)" fill="#43b2b5"/>
        </g>
        <g id="Grupo_1359" data-name="Grupo 1359" transform="translate(2.329 3.691)">
          <rect id="Rectángulo_1699" data-name="Rectángulo 1699" width="2.408" height="2.408" rx="1.204" transform="translate(2.105 3.274) rotate(-150.934)" fill="#18a3bc"/>
          <path id="Trazado_2335" data-name="Trazado 2335" d="M1005.22,272.808a1.194,1.194,0,0,0,.225.1,1.2,1.2,0,0,1,1.145-2.06,1.189,1.189,0,0,0-.2-.141,1.2,1.2,0,0,0-1.17,2.1Z" transform="translate(-1004.168 -270.119)" fill="#43b2b5"/>
        </g>
        <g id="Grupo_1360" data-name="Grupo 1360" transform="translate(1.902 1.69)">
          <rect id="Rectángulo_1700" data-name="Rectángulo 1700" width="2.408" height="2.408" rx="1.204" transform="translate(2.105 3.274) rotate(-150.934)" fill="#18a3bc"/>
          <path id="Trazado_2336" data-name="Trazado 2336" d="M1004.655,270.164a1.2,1.2,0,0,0,.225.1,1.2,1.2,0,0,1,1.145-2.06,1.185,1.185,0,0,0-.2-.141,1.2,1.2,0,0,0-1.17,2.1Z" transform="translate(-1003.603 -267.475)" fill="#43b2b5"/>
        </g>
        <g id="Grupo_1361" data-name="Grupo 1361" transform="translate(0.996)">
          <rect id="Rectángulo_1701" data-name="Rectángulo 1701" width="2.408" height="2.408" rx="1.204" transform="matrix(-0.874, -0.486, 0.486, -0.874, 2.105, 3.274)" fill="#18a3bc"/>
          <path id="Trazado_2337" data-name="Trazado 2337" d="M1003.458,267.931a1.2,1.2,0,0,0,.226.1,1.2,1.2,0,0,1,1.145-2.061,1.188,1.188,0,0,0-.2-.141,1.2,1.2,0,0,0-1.17,2.1Z" transform="translate(-1002.406 -265.242)" fill="#43b2b5"/>
        </g>
      </g>
    </g>
    <rect id="Rectángulo_1875" data-name="Rectángulo 1875" width="232" height="208" transform="translate(64 56)" fill="none"/>
  </g>
</svg>
