<svg xmlns="http://www.w3.org/2000/svg" xmlns:xlink="http://www.w3.org/1999/xlink" width="256" height="176" viewBox="0 0 256 176">
  <defs>
    <clipPath id="clip-path">
      <path id="Trazado_4493" data-name="Trazado 4493" d="M4378.435,1926.806s-8.4-66.641,34.112-72.446,65.213,21.479,89.275,18.577,82.114-47.94,107.075,11.151-8.459,106.112-30.642,111.336-44.824-9.869-63.98,0-41.856,26.7-74.625,20.318-33.93-18.521-37.413-42.35S4382,1953.639,4378.435,1926.806Z" transform="translate(-4377.761 -1853.546)" fill="none"/>
    </clipPath>
    <linearGradient id="linear-gradient" y1="0.5" x2="1" y2="0.5" gradientUnits="objectBoundingBox">
      <stop offset="0" stop-color="#4a1ed9"/>
      <stop offset="0.917" stop-color="#5d2af5"/>
      <stop offset="1" stop-color="#602cf8"/>
    </linearGradient>
  </defs>
  <g id="Grupo_3263" data-name="Grupo 3263" transform="translate(-48 -104)">
    <g id="Grupo_2362" data-name="Grupo 2362" transform="translate(-4321.761 -1743.164)">
      <g id="Grupo_2361" data-name="Grupo 2361" transform="translate(4377.761 1853.546)">
        <g id="Grupo_2360" data-name="Grupo 2360" transform="translate(0)" clip-path="url(#clip-path)">
          <g id="Grupo_2359" data-name="Grupo 2359" transform="translate(-7.924 -22.632)">
            <rect id="Rectángulo_1823" data-name="Rectángulo 1823" width="248.145" height="168.114" transform="translate(0.023)" fill="url(#linear-gradient)"/>
            <g id="Grupo_2349" data-name="Grupo 2349" transform="translate(0.023 39.799)" opacity="0.57">
              <path id="Trazado_4429" data-name="Trazado 4429" d="M4596.882,1991.379c-8.272-1.2-21.8-3.743-21.8-3.743-5.458-9.037-16.316-13.656-26.845-14.414s-20.984,1.746-31.306,3.959-20.987,4.157-31.378,2.286c-11.891-2.141-22.743-9.176-34.817-9.627h-.02q-2.311.167-4.63.136a74.683,74.683,0,0,0-12.42,2.445c-13.7,3.63-27.392,8.326-41.565,8.245,0,0-29.912.283-35.12-.031a14.251,14.251,0,0,0-5.013,1.19v56.506c2.046.505,3.425.82,3.425.82l31-2.763,4.28-5.185.789-.5c.177.327.388.5.639.5h181.329l26.708,4.973v-43.77A10.474,10.474,0,0,0,4596.882,1991.379Z" transform="translate(-4351.974 -1951.377)" fill="#142066"/>
              <path id="Trazado_4430" data-name="Trazado 4430" d="M4657.493,1918.462a2.153,2.153,0,0,0-1.023-1.542,1.757,1.757,0,0,0-1.352-.177,2.027,2.027,0,0,0-1.047.806,2.078,2.078,0,0,0-.34,1.166q.117.868.038.281c.011.094.021.188.03.283a10.5,10.5,0,0,1,.042,1.136c-.006.321-.031.639-.062.958-.012.079-.025.157-.04.236q-.051.28-.118.556c-.062.261-.124.524-.2.784v-.006c-.061-2.343-.144-4.686-.2-7.029a1.888,1.888,0,0,0-3.776,0c.031,1.185.06,2.371.094,3.557-.019-.022-.036-.043-.046-.054s-.007-.011-.007-.007h0a3.616,3.616,0,0,1-.145-.614c-.019-.109-.034-.219-.05-.328.043.3-.032-.24-.052-.384q-.023-.155-.045-.309c-.005-.048-.035-.284-.035-.287q-.186-1.57-.224-3.153-.02-.811,0-1.622a11.343,11.343,0,0,0-.018-1.966,1.586,1.586,0,0,0-1.53-1.165,1.626,1.626,0,0,0-1.531,1.165,8.232,8.232,0,0,0-.107,2.121q.013.927.078,1.853a37.839,37.839,0,0,0,.486,3.93,4.369,4.369,0,0,0,1.779,3.247,3.536,3.536,0,0,0,1.54.469c.007.193.013.385.02.577.04,1.091.11,2.193.2,3.281.052.61.134,1.221.208,1.829a3.44,3.44,0,0,0,.888,2.286,1.141,1.141,0,0,0,1.562,0,3.391,3.391,0,0,0,.808-2.286c.034-.387.059-.778.078-1.167a2.746,2.746,0,0,0,1.572-.257,4.572,4.572,0,0,0,2.038-2.721,11.783,11.783,0,0,0,.59-4.558C4657.572,1919.052,4657.533,1918.758,4657.493,1918.462Zm-7.962,1.03v0s0,0,.009,0v.01Z" transform="translate(-4555.729 -1909.58)" fill="#142066"/>
              <path id="Trazado_4431" data-name="Trazado 4431" d="M4787.66,1953.23a2.078,2.078,0,0,0-2.037,2.037c-.065,2.544-.167,5.088-.222,7.632-.006.283-.01.566-.013.85-.042-.066-.076-.136-.115-.2-.019-.031-.033-.053-.044-.07a.374.374,0,0,0-.015-.054c-.051-.16-.118-.316-.173-.475a7.556,7.556,0,0,1-.241-.869c-.007-.032-.05-.285-.053-.279-.011-.107-.019-.216-.024-.323a6.73,6.73,0,0,1,.018-.92c0-.027.016-.136.021-.176a2.837,2.837,0,0,0-.038-1.135,1.72,1.72,0,0,0-1.437-1.239,1.762,1.762,0,0,0-1.723.826,5.043,5.043,0,0,0-.379,3.235,7.841,7.841,0,0,0,.947,3.029,3.674,3.674,0,0,0,2.341,1.838,2.457,2.457,0,0,0,.953.008,6.281,6.281,0,0,0,.936,3.868,1.245,1.245,0,0,0,1.751,0c1-1.114.983-2.806,1.127-4.221.126-1.221.188-2.466.238-3.692.1-2.542.157-5.088.221-7.632A2.055,2.055,0,0,0,4787.66,1953.23Z" transform="translate(-4649.62 -1939.855)" fill="#142066"/>
              <path id="Trazado_4432" data-name="Trazado 4432" d="M5099.387,1988.426a1.841,1.841,0,0,0-1.806,1.806c-.059,2.255-.147,4.51-.2,6.765q-.007.375-.012.753c-.036-.058-.066-.12-.1-.178-.016-.028-.03-.047-.039-.062s-.006-.025-.014-.048c-.046-.142-.105-.28-.152-.422a6.227,6.227,0,0,1-.214-.77c-.006-.028-.044-.253-.047-.247-.009-.1-.016-.191-.021-.287a6.056,6.056,0,0,1,.015-.815c0-.024.015-.121.02-.156a2.5,2.5,0,0,0-.034-1.007,1.522,1.522,0,0,0-1.274-1.1,1.559,1.559,0,0,0-1.525.732,4.471,4.471,0,0,0-.337,2.867,6.929,6.929,0,0,0,.84,2.684,3.258,3.258,0,0,0,2.074,1.63,2.172,2.172,0,0,0,.845.007,5.568,5.568,0,0,0,.829,3.429,1.1,1.1,0,0,0,1.552,0c.887-.987.871-2.487,1-3.741.111-1.082.166-2.185.211-3.272.091-2.253.138-4.51.2-6.765A1.821,1.821,0,0,0,5099.387,1988.426Z" transform="translate(-4866.357 -1964.268)" fill="#142066"/>
              <path id="Trazado_4433" data-name="Trazado 4433" d="M4423.546,1960.506a1.568,1.568,0,0,0-1.552,1.551c.024.243.03.485.031.729,0,.121-.007.24-.012.361,0,.022,0,.04,0,.053l-.011.041c-.052.213-.1.419-.175.627-.037.108-.068.218-.1.326-.01.033-.021.064-.033.1,0,.009-.01.02-.018.035l-.018.035-.051.057c-.083.078-.159.16-.247.232a2.219,2.219,0,0,1-.434.27c-.042.02-.123.054-.214.094q.094-1.049.189-2.1c.126-1.368.2-2.743.3-4.114.012-.162.023-.324.034-.486a2.523,2.523,0,0,0,1.738-.648,3.457,3.457,0,0,0,1.007-3.388,1.177,1.177,0,0,0-2.27,0,4.385,4.385,0,0,0-.095.676c0,.019-.016.154-.02.209s-.021.106-.025.117a2.7,2.7,0,0,1-.139.433.294.294,0,0,0-.024.04c-.013.02-.023.039-.034.058q.018-.481.023-.962a1.642,1.642,0,0,0-1.625-1.625,1.672,1.672,0,0,0-1.626,1.625c-.137,1.333-.192,2.677-.233,4.016-.024.83-.056,1.661-.079,2.492a1.678,1.678,0,0,1-.062-.179c-.025-.084-.044-.17-.063-.256-.006-.025-.01-.046-.015-.063a.349.349,0,0,0,0-.051,5.823,5.823,0,0,1-.011-.6c.019-.582.036-1.333-.469-1.729a1.176,1.176,0,0,0-1.351-.174c-.762.392-.845,1.414-.794,2.171a4.842,4.842,0,0,0,.477,1.935,2.559,2.559,0,0,0,1.4,1.259,1.613,1.613,0,0,0,.86.055q-.007,1.742-.01,3.484a17.8,17.8,0,0,0,.044,2.029,4.525,4.525,0,0,0,.231,1.123c.172.449.613.958,1.165.764.773-.271.96-1.2,1.086-1.919.122-.7.144-1.422.206-2.127.017-.184.034-.368.05-.552a1.447,1.447,0,0,0,.712.123,3.54,3.54,0,0,0,1.927-.756c.125-.1.148-.117.065-.046.111-.08.221-.163.327-.25a3.427,3.427,0,0,0,.346-.3,3.382,3.382,0,0,0,.6-.919,5.5,5.5,0,0,0,.546-2.322A1.569,1.569,0,0,0,4423.546,1960.506Z" transform="translate(-4395.725 -1939.853)" fill="#142066"/>
            </g>
            <rect id="Rectángulo_1824" data-name="Rectángulo 1824" width="248.168" height="80.491" transform="translate(0 115.46)" fill="#ffc761"/>
            <g id="Grupo_2353" data-name="Grupo 2353" transform="translate(35.245 88.573)">
              <path id="Trazado_4434" data-name="Trazado 4434" d="M4533.834,2268.205c-7.665,0-6.931,3.573-6.931,3.573h18.013S4538.993,2268.205,4533.834,2268.205Z" transform="translate(-4508.517 -2207.103)" fill="#f29100"/>
              <g id="Grupo_2352" data-name="Grupo 2352">
                <g id="Grupo_2351" data-name="Grupo 2351">
                  <g id="Grupo_2350" data-name="Grupo 2350" transform="translate(0 3.492)">
                    <path id="Trazado_4435" data-name="Trazado 4435" d="M4483.726,2111.844a8.192,8.192,0,0,0-3.771-1.808c-.267-.065-.527-.15-.791-.224-.918-.257.541.359-.262-.1-.229-.131-.456-.258-.677-.4-.4-.26-.388-.4-.062-.032-.078-.088-.574-.742-.327-.333.264.438-.273-.6.026.1a9.007,9.007,0,0,1-.523-2.043c-.055-.318-.1-.637-.145-.957.121.835-.1-.716-.153-1.12-.054-.372-.111-.744-.16-1.117.1.756-.073-.633-.073-.635q-.545-4.579-.655-9.2-.056-2.365,0-4.73a32.919,32.919,0,0,0-.049-5.717c-.279-1.881-2.588-3.435-4.406-3.354a4.678,4.678,0,0,0-4.4,3.354,24.011,24.011,0,0,0-.312,6.168q.039,2.7.228,5.4a109.887,109.887,0,0,0,1.417,11.447c.647,3.671,1.77,7.384,5.158,9.432,2.813,1.7,7.454,2.2,9.941-.286a2.748,2.748,0,0,0,0-3.846Z" transform="translate(-4466.935 -2080.169)" fill="#008d36"/>
                    <path id="Trazado_4436" data-name="Trazado 4436" d="M4491.249,2111.844a8.2,8.2,0,0,0-3.771-1.808c-.268-.065-.527-.15-.791-.224-.918-.257.541.359-.262-.1-.228-.131-.456-.258-.677-.4-.4-.26-.388-.4-.062-.032-.079-.088-.574-.742-.326-.333.264.438-.274-.6.025.1a9.006,9.006,0,0,1-.523-2.043c-.054-.318-.1-.637-.145-.957.121.835-.1-.716-.154-1.12-.053-.372-.111-.744-.16-1.117.1.756-.073-.633-.073-.635q-.544-4.579-.654-9.2-.058-2.365,0-4.73a32.823,32.823,0,0,0-.049-5.717c-.279-1.881-2.587-3.435-4.405-3.354a4.68,4.68,0,0,0-4.405,3.354,24.076,24.076,0,0,0-.312,6.168q.04,2.7.228,5.4a110.151,110.151,0,0,0,1.417,11.447c.647,3.671,1.77,7.384,5.158,9.432,2.813,1.7,7.455,2.2,9.942-.286a2.749,2.749,0,0,0,0-3.846Z" transform="translate(-4472.153 -2080.169)" fill="#008d36"/>
                    <path id="Trazado_4437" data-name="Trazado 4437" d="M4476.089,2115.977c-3.388-2.048-4.511-5.761-5.158-9.432a110.142,110.142,0,0,1-1.417-11.447q-.188-2.7-.229-5.4a24.012,24.012,0,0,1,.313-6.168,4.536,4.536,0,0,1,3.321-3.187,3.766,3.766,0,0,0-1.222-.167,4.678,4.678,0,0,0-4.4,3.354,24.012,24.012,0,0,0-.312,6.168q.039,2.7.228,5.4a109.879,109.879,0,0,0,1.417,11.447c.647,3.671,1.77,7.385,5.158,9.432a10.323,10.323,0,0,0,6.353,1.354A10.37,10.37,0,0,1,4476.089,2115.977Z" transform="translate(-4466.935 -2080.169)" fill="#01772b"/>
                    <path id="Trazado_4438" data-name="Trazado 4438" d="M4511.17,2169.994c1.747-1.627,2.1-4.422,2.3-6.668.149-1.7.239-3.428.3-5.135.11-3.24.1-6.529.016-9.769-.176-6.834-.419-13.667-.594-20.5-.073-2.845-2.453-5.579-5.447-5.445a5.529,5.529,0,0,0-5.445,5.445c.175,6.834.345,13.669.594,20.5.116,3.184.32,6.4.589,9.57.151,1.78.391,3.561.608,5.334.273,2.223.716,5.135,2.529,6.668a3.308,3.308,0,0,0,4.555,0Z" transform="translate(-4491.46 -2109.51)" fill="#39a935"/>
                    <path id="Trazado_4439" data-name="Trazado 4439" d="M4521.144,2141.808l.968,37.218S4522.691,2157,4521.144,2141.808Z" transform="translate(-4504.536 -2122.923)" fill="#58cc52"/>
                    <path id="Trazado_4440" data-name="Trazado 4440" d="M4508.266,2170.673c-1.813-1.533-2.257-4.445-2.53-6.667-.218-1.773-.457-3.555-.607-5.334-.269-3.174-.474-6.387-.59-9.57-.25-6.831-.419-13.667-.594-20.5a5.53,5.53,0,0,1,5.445-5.446,4.668,4.668,0,0,1,1.161.094,4.776,4.776,0,0,0-2.812-.773,5.529,5.529,0,0,0-5.445,5.445c.175,6.834.345,13.669.594,20.5.116,3.184.32,6.4.589,9.57.151,1.78.391,3.561.608,5.334.273,2.223.716,5.135,2.53,6.668a3.742,3.742,0,0,0,1.9.876C4508.433,2170.808,4508.348,2170.743,4508.266,2170.673Z" transform="translate(-4491.46 -2109.51)" fill="#58cc52"/>
                    <path id="Trazado_4441" data-name="Trazado 4441" d="M4523.986,2173.094a6.164,6.164,0,0,0,2.751,3.549,7,7,0,0,0,6.531.015c3.163-1.473,4.729-4.834,5.917-7.9a30.7,30.7,0,0,0,1.748-9.136,30.276,30.276,0,0,0-.03-4.14c-.065-.865-.179-1.721-.294-2.581a6.219,6.219,0,0,0-2.957-4.454,5.067,5.067,0,0,0-3.894-.51,5.853,5.853,0,0,0-3.021,2.322,6.014,6.014,0,0,0-.982,3.369q.335,2.5.11.822.049.412.088.825a30.476,30.476,0,0,1,.123,3.312c-.018.97-.1,1.929-.19,2.893q-.112.929.029-.213c-.042.274-.088.546-.139.818q-.149.815-.343,1.622c-.252,1.051-.5,2.109-.824,3.142a6.07,6.07,0,0,0-.341.991q.464-1.056.1-.286-.156.31-.338.606-.462.683.19-.2-.224.264-.463.515-.584.531.242-.167a7.32,7.32,0,0,0-1.262.931q-.537.5.244-.152a3.609,3.609,0,0,0-.471.33q-.53.311.2-.027-.532.135.1-.006a2.965,2.965,0,0,0-2.83,3.715Z" transform="translate(-4506.422 -2127.048)" fill="#008d36"/>
                    <path id="Trazado_4442" data-name="Trazado 4442" d="M4525.365,2174.2a2.949,2.949,0,0,1,2.537-3.689c.06-.05.125-.1.188-.144l.03-.028a7.331,7.331,0,0,1,1.056-.8c.073-.077.143-.159.214-.238.007-.012.013-.021.022-.034.093-.15.178-.3.261-.46.068-.271.244-.622.315-.85.324-1.032.571-2.091.824-3.141q.195-.806.344-1.622c.042-.232.081-.464.118-.7.088-.933.164-1.862.181-2.8a30.355,30.355,0,0,0-.123-3.312q-.037-.413-.088-.825.226,1.678-.11-.822a6.016,6.016,0,0,1,.983-3.369,5.845,5.845,0,0,1,3.02-2.322,5.136,5.136,0,0,1,3.752.421,8.935,8.935,0,0,0-1.237-1.016,5.062,5.062,0,0,0-3.894-.51,5.855,5.855,0,0,0-3.021,2.322,6.013,6.013,0,0,0-.982,3.369q.335,2.5.11.822.049.412.088.825a30.476,30.476,0,0,1,.123,3.312c-.017.938-.093,1.868-.181,2.8-.037.233-.076.465-.119.7q-.149.815-.343,1.622c-.252,1.051-.5,2.109-.824,3.141-.071.229-.248.579-.315.851-.083.156-.169.31-.262.46l-.023.034c-.071.08-.141.16-.213.238a7.406,7.406,0,0,0-1.057.8l-.03.028c-.064.047-.127.094-.188.144a2.949,2.949,0,0,0-2.537,3.689,6.164,6.164,0,0,0,2.751,3.549l.02.01A6.478,6.478,0,0,1,4525.365,2174.2Z" transform="translate(-4506.422 -2127.047)" fill="#01772b"/>
                  </g>
                  <path id="Trazado_4443" data-name="Trazado 4443" d="M4479.372,2070a1.6,1.6,0,0,0-1.466-.132,1.235,1.235,0,0,0-1.081-1.09c-.966-.091-1.385.56-1.5,1.417a.712.712,0,0,0-.908.118c-.544.572-.072,1.538.277,2.066a3.691,3.691,0,0,0,1.265,1.224.8.8,0,0,0,1.292.385,1.756,1.756,0,0,0,.263-.275.72.72,0,0,0,.221-.006C4479.177,2073.447,4481.137,2071.167,4479.372,2070Z" transform="translate(-4471.953 -2068.773)" fill="#eb596a"/>
                  <path id="Trazado_4444" data-name="Trazado 4444" d="M4475.087,2071.578a.71.71,0,0,1,.907-.118c.116-.857.536-1.508,1.5-1.417a1.236,1.236,0,0,1,1.081,1.09,1.6,1.6,0,0,1,1.466.132l.025.019a1.369,1.369,0,0,0-.695-1.28,1.6,1.6,0,0,0-1.466-.132,1.235,1.235,0,0,0-1.081-1.09c-.966-.091-1.385.56-1.5,1.417a.712.712,0,0,0-.908.118c-.544.572-.072,1.538.277,2.066.068.1.138.2.209.29A1.1,1.1,0,0,1,4475.087,2071.578Z" transform="translate(-4471.953 -2068.773)" fill="#d84a5e"/>
                  <path id="Trazado_4445" data-name="Trazado 4445" d="M4558.87,2134.848c-.473-.326-1.087.06-1.515.416.066-.794-.123-1.457-.807-1.679-.719-.235-1.381.526-1.717,1.045a4.194,4.194,0,0,0-.337.66c-.411-1.093-1.012-1.953-1.793-1.382-.679.5-.572,1.7-.4,2.4a6.906,6.906,0,0,0,1.707,2.721.37.37,0,0,0,.26.152.714.714,0,0,0,1.027.428,8.662,8.662,0,0,0,3.094-2.337C4558.751,2136.774,4559.629,2135.372,4558.87,2134.848Z" transform="translate(-4526.056 -2113.697)" fill="#eb596a"/>
                  <path id="Trazado_4446" data-name="Trazado 4446" d="M4552.7,2135.2c.781-.57,1.382.29,1.793,1.382a4.02,4.02,0,0,1,.337-.66c.335-.519,1-1.279,1.717-1.045.684.223.873.886.806,1.68.428-.356,1.043-.742,1.515-.416a.66.66,0,0,1,.113.1c.224-.531.312-1.1-.113-1.393-.472-.326-1.087.06-1.515.416.067-.794-.123-1.457-.806-1.679-.719-.235-1.381.526-1.717,1.045a4.032,4.032,0,0,0-.337.66c-.411-1.093-1.013-1.953-1.793-1.382-.583.426-.586,1.375-.468,2.076A1.289,1.289,0,0,1,4552.7,2135.2Z" transform="translate(-4526.057 -2113.697)" fill="#d84a5e"/>
                  <path id="Trazado_4447" data-name="Trazado 4447" d="M4487.442,2092.658s-.453,15.464,2.187,25.274C4489.629,2117.933,4485.666,2108.264,4487.442,2092.658Z" transform="translate(-4480.842 -2085.34)" fill="#01772b"/>
                </g>
                <path id="Trazado_4448" data-name="Trazado 4448" d="M4541.438,2185.786s8.141-3.979,6.788-20.38C4548.226,2165.406,4551.24,2181.419,4541.438,2185.786Z" transform="translate(-4518.611 -2135.8)" fill="#01772b"/>
              </g>
              <path id="Trazado_4449" data-name="Trazado 4449" d="M4488.476,2269.24c9.644,0,8.719,4.494,8.719,4.494h-22.661S4481.985,2269.24,4488.476,2269.24Z" transform="translate(-4472.206 -2207.821)" fill="#f8b133"/>
            </g>
            <g id="Grupo_2357" data-name="Grupo 2357" transform="translate(187.724 87.739)">
              <g id="Grupo_2356" data-name="Grupo 2356">
                <path id="Trazado_4450" data-name="Trazado 4450" d="M4998.67,2136.08c2.568-.9,3.116-3.918,3.5-6.3.366-2.288.464-4.638.668-6.945q.608-6.821,1.233-13.641c.411-4.479.647-8.979.977-13.464.316-4.3.6-8.619.644-12.931a5.309,5.309,0,0,0-5.256-5.256c-3.089.138-4.953,2.317-5.256,5.256-.449,4.363-.634,8.762-.765,13.145-.137,4.56-.34,9.127-.359,13.689q-.029,6.814-.035,13.628c0,2.212-.086,4.438.114,6.643a13.444,13.444,0,0,0,.725,3.674c.56,1.469,2.007,3.136,3.813,2.5Z" transform="translate(-4984.995 -2074.019)" fill="#39a935"/>
                <path id="Trazado_4451" data-name="Trazado 4451" d="M5009.463,2091.325l-3.646,49.811S5008.883,2122.473,5009.463,2091.325Z" transform="translate(-4993.192 -2083.581)" fill="#58cc52"/>
                <path id="Trazado_4452" data-name="Trazado 4452" d="M4997.1,2134.487a13.445,13.445,0,0,1-.724-3.675c-.2-2.2-.116-4.43-.114-6.642q.008-6.814.034-13.628c.019-4.562.223-9.129.36-13.688.131-4.383.316-8.782.765-13.145.3-2.939,2.167-5.118,5.256-5.256a4.351,4.351,0,0,1,.741.031,4.737,4.737,0,0,0-2.989-.941c-3.089.138-4.953,2.317-5.256,5.256-.449,4.363-.634,8.762-.765,13.145-.137,4.56-.34,9.127-.359,13.689q-.029,6.813-.035,13.628c0,2.212-.086,4.438.114,6.643a13.44,13.44,0,0,0,.725,3.674c.508,1.333,1.748,2.823,3.322,2.615A5.129,5.129,0,0,1,4997.1,2134.487Z" transform="translate(-4984.995 -2074.019)" fill="#58cc52"/>
                <path id="Trazado_4453" data-name="Trazado 4453" d="M5014.4,2093.3c2.839,3.051,7.278,2.577,10.235-.016,2.82-2.473,4.549-7.453,3.293-11.092a3.854,3.854,0,0,0-7.429,0,15.083,15.083,0,0,0-.311,2.212c-.007.1-.114,1.117-.039.641.065-.409-.087.355-.1.427a9.263,9.263,0,0,1-.479,1.475c-.251.592.263-.475-.059.075-.16.274-.3.551-.483.813.5-.707-.714.654-.087.1-.328.288-.709.542-1.059.8.305-.229.2-.118-.054.021-.192.1-.383.207-.578.307.021-.01-.731.349-.466.236.294-.126-.356.014-.161.028.109.008-.539-.013-.57-.015-2.114-.122-2.951,2.584-1.65,3.982Z" transform="translate(-4998.715 -2075.281)" fill="#008d36"/>
                <g id="Grupo_2354" data-name="Grupo 2354" transform="translate(15.064 4.077)">
                  <path id="Trazado_4454" data-name="Trazado 4454" d="M5030.612,2115.95l.064-.048h0Z" transform="translate(-5025.455 -2104.706)" fill="#01772b"/>
                  <path id="Trazado_4455" data-name="Trazado 4455" d="M5030.862,2115.688l-.036.027C5030.958,2115.634,5031,2115.592,5030.862,2115.688Z" transform="translate(-5025.604 -2104.519)" fill="#01772b"/>
                  <path id="Trazado_4456" data-name="Trazado 4456" d="M5027.4,2109.727l-.038.027h0Z" transform="translate(-5023.201 -2100.422)" fill="#01772b"/>
                  <path id="Trazado_4457" data-name="Trazado 4457" d="M5017.107,2091.18c.031,0,.679.023.571.015-.155-.011.218-.1.236-.075.158-.078.4-.194.391-.188.194-.1.386-.2.578-.308.045-.024.083-.047.117-.068l.038-.027c.28-.205.572-.41.84-.632-.286.216.474-.639.294-.337.141-.22.261-.447.393-.674.038-.066.063-.107.081-.132a9.378,9.378,0,0,0,.458-1.417c.008-.035.049-.235.08-.382.012-.184.058-.625.062-.687a15.283,15.283,0,0,1,.311-2.212,3.926,3.926,0,0,1,3.716-2.828,3.522,3.522,0,0,1,2.727,1.189c-.023-.076-.046-.152-.072-.226a3.854,3.854,0,0,0-7.429,0,15.083,15.083,0,0,0-.311,2.212c0,.062-.05.5-.062.686-.032.148-.073.348-.081.382a9.313,9.313,0,0,1-.457,1.418c-.017.025-.043.066-.082.132-.131.227-.251.454-.392.674.179-.3-.581.553-.295.337-.268.222-.56.427-.84.633.135-.1.1-.055-.037.026l-.065.048.063-.047c-.034.021-.071.044-.117.069-.192.1-.383.207-.578.307.012-.006-.231.11-.391.189-.018-.025-.391.064-.236.075.109.008-.539-.013-.57-.015-2.114-.122-2.951,2.584-1.65,3.982.145.156.294.3.448.438A2.228,2.228,0,0,1,5017.107,2091.18Z" transform="translate(-5013.778 -2079.357)" fill="#01772b"/>
                </g>
                <path id="Trazado_4458" data-name="Trazado 4458" d="M4975.765,2144.408c.583.438.381.361.017-.391-.087-.18-.195-.408-.295-.576-.061-.1-.711-1.092-.349-.471-.133-.228-.261-.462-.409-.681-.291-.432-.585-.845-.85-1.294-.384-.655.063.272-.084-.161-.094-.283-.212-.553-.3-.841s-.143-.557-.205-.838c-.284-1.273,0,.365-.054-.372a18.334,18.334,0,0,1-.037-1.959c.062-1.907.119-4.366-1.533-5.661a3.852,3.852,0,0,0-4.423-.571c-2.492,1.284-2.76,4.628-2.6,7.107a15.869,15.869,0,0,0,1.557,6.335,8.4,8.4,0,0,0,4.581,4.12,5.2,5.2,0,0,0,2.93.155,4.551,4.551,0,0,0,2.331-1.69,1.434,1.434,0,0,0-.284-2.209Z" transform="translate(-4964.612 -2110.498)" fill="#008d36"/>
                <path id="Trazado_4459" data-name="Trazado 4459" d="M4975.723,2147.31a5.193,5.193,0,0,1-2.93-.155,8.392,8.392,0,0,1-4.581-4.12,15.847,15.847,0,0,1-1.556-6.334c-.128-1.911.008-4.333,1.216-5.932a4.537,4.537,0,0,0-.625.264c-2.492,1.284-2.76,4.628-2.6,7.107a15.869,15.869,0,0,0,1.557,6.335,8.4,8.4,0,0,0,4.581,4.12,5.2,5.2,0,0,0,2.93.155,4.179,4.179,0,0,0,2.145-1.485C4975.815,2147.279,4975.773,2147.3,4975.723,2147.31Z" transform="translate(-4964.612 -2110.94)" fill="#01772b"/>
                <path id="Trazado_4460" data-name="Trazado 4460" d="M4972.543,2119.583a1.011,1.011,0,0,0-.79-1.095,1.375,1.375,0,0,0-1.109.252,1.51,1.51,0,0,0-2-.6c-.974.554-1.008,1.888-.539,2.959a1.528,1.528,0,0,1,.539-.517,1.51,1.51,0,0,1,2,.6,1.374,1.374,0,0,1,1.109-.252,1.011,1.011,0,0,1,.79,1.1,2.226,2.226,0,0,1,.852-.025c.513-.527,1.014-1.323.677-1.966C4973.787,2119.494,4973.126,2119.466,4972.543,2119.583Z" transform="translate(-4966.83 -2102.054)" fill="#d84a5e"/>
                <path id="Trazado_4461" data-name="Trazado 4461" d="M5018.93,2165.906c-.707.178-.492.185.136-.368.15-.132.337-.3.495-.416.094-.069,1.079-.732.5-.3.211-.159.419-.325.641-.469.434-.286.866-.553,1.284-.865.608-.455-.163.227.14-.116.2-.224.41-.427.6-.66s.347-.458.514-.693c.754-1.064-.141.336.194-.323a18.4,18.4,0,0,0,.792-1.792c.681-1.782,1.579-4.072,3.6-4.627a3.856,3.856,0,0,1,4.3,1.186c1.8,2.148.754,5.336-.356,7.558a15.862,15.862,0,0,1-3.887,5.238,8.394,8.394,0,0,1-5.818,2.027,5.2,5.2,0,0,1-2.762-.991,4.548,4.548,0,0,1-1.495-2.461,1.434,1.434,0,0,1,1.117-1.927Z" transform="translate(-5001.446 -2127.798)" fill="#008d36"/>
                <path id="Trazado_4462" data-name="Trazado 4462" d="M5018.444,2170.236a5.2,5.2,0,0,0,2.762.992,8.4,8.4,0,0,0,5.818-2.027,15.853,15.853,0,0,0,3.887-5.238c.856-1.713,1.668-4,1.173-5.941a4.48,4.48,0,0,1,.475.485c1.8,2.148.755,5.336-.356,7.558a15.851,15.851,0,0,1-3.887,5.239,8.394,8.394,0,0,1-5.818,2.027,5.2,5.2,0,0,1-2.762-.991,4.182,4.182,0,0,1-1.4-2.2C5018.37,2170.173,5018.4,2170.205,5018.444,2170.236Z" transform="translate(-5001.873 -2129.844)" fill="#01772b"/>
                <g id="Grupo_2355" data-name="Grupo 2355" transform="translate(0.978)">
                  <path id="Trazado_4463" data-name="Trazado 4463" d="M4972.539,2119.583a1.011,1.011,0,0,0-.79-1.095,1.377,1.377,0,0,0-1.11.252,1.51,1.51,0,0,0-2-.6c-1.34.762-.9,3.005.178,4a.778.778,0,0,0,1.162.625c.011.006.021.013.032.018a.82.82,0,0,0,.294.156,3.007,3.007,0,0,0,2.707-.6c.586-.454,1.481-1.5,1.058-2.309C4973.783,2119.494,4973.122,2119.466,4972.539,2119.583Z" transform="translate(-4967.804 -2102.054)" fill="#eb596a"/>
                  <path id="Trazado_4464" data-name="Trazado 4464" d="M5059.408,2148.092c-.1-.654-.876-1-1.54-1.138a1.306,1.306,0,0,0-.076-1.136,1.057,1.057,0,0,0-1.491-.328,1.218,1.218,0,0,0-1.282-1.219,1.59,1.59,0,0,0-1.5,1.4,4.768,4.768,0,0,0,.684,2.341.847.847,0,0,0,.365.618.966.966,0,0,0,.6.436c.452.823,1.37.87,2.282.637C5058.153,2149.526,5059.55,2149.045,5059.408,2148.092Z" transform="translate(-5027.241 -2120.306)" fill="#eb596a"/>
                  <path id="Trazado_4465" data-name="Trazado 4465" d="M5047.035,2069.675c.043-.9-.675-1.227-1.417-1.143a1.526,1.526,0,0,0-.314-1.339c-.56-.57-1.14-.4-1.651.09a1.591,1.591,0,0,0-1.23-1.219,1.292,1.292,0,0,0-1.411,1.269,5.017,5.017,0,0,0,1.109,2.778c-.013.055-.023.106-.03.151a.835.835,0,0,0,.225.689.8.8,0,0,0,.916.935C5044.55,2072.595,5046.967,2071.114,5047.035,2069.675Z" transform="translate(-5018.577 -2066.05)" fill="#eb596a"/>
                  <path id="Trazado_4466" data-name="Trazado 4466" d="M5042.422,2068.222a1.591,1.591,0,0,1,1.23,1.219c.512-.486,1.092-.66,1.651-.09a1.526,1.526,0,0,1,.314,1.339,1.567,1.567,0,0,1,.893.136,1.975,1.975,0,0,0,.524-1.153c.043-.9-.675-1.227-1.417-1.143a1.526,1.526,0,0,0-.314-1.339c-.56-.57-1.14-.4-1.651.09a1.591,1.591,0,0,0-1.23-1.219,1.292,1.292,0,0,0-1.411,1.269,2.769,2.769,0,0,0,.3,1.369A1.155,1.155,0,0,1,5042.422,2068.222Z" transform="translate(-5018.577 -2066.05)" fill="#d84a5e"/>
                  <path id="Trazado_4467" data-name="Trazado 4467" d="M5059.409,2148.092c-.1-.654-.877-1-1.541-1.138a1.3,1.3,0,0,0-.076-1.136,1.057,1.057,0,0,0-1.491-.328,1.218,1.218,0,0,0-1.282-1.219,1.589,1.589,0,0,0-1.5,1.4,2.07,2.07,0,0,0,.089.932,1.312,1.312,0,0,1,.849-.286,1.218,1.218,0,0,1,1.282,1.218,1.057,1.057,0,0,1,1.491.328,1.307,1.307,0,0,1,.076,1.136,2.959,2.959,0,0,1,1.022.4C5058.929,2149.141,5059.5,2148.719,5059.409,2148.092Z" transform="translate(-5027.241 -2120.306)" fill="#d84a5e"/>
                </g>
                <path id="Trazado_4468" data-name="Trazado 4468" d="M4979.677,2139.642s-.206,8.738,5.037,12.233C4984.714,2151.875,4981.013,2148.586,4979.677,2139.642Z" transform="translate(-4975.061 -2117.095)" fill="#01772b"/>
                <path id="Trazado_4469" data-name="Trazado 4469" d="M5035.885,2164.136s-2.136,6.682-8.521,8.738C5027.363,2172.874,5034.445,2172.258,5035.885,2164.136Z" transform="translate(-5008.138 -2134.084)" fill="#01772b"/>
                <path id="Trazado_4470" data-name="Trazado 4470" d="M5034.56,2094.009s-.6,8.051-7.2,9.371C5027.363,2103.38,5034.262,2103.467,5034.56,2094.009Z" transform="translate(-5008.138 -2085.443)" fill="#01772b"/>
              </g>
              <path id="Trazado_4471" data-name="Trazado 4471" d="M4978.108,2255c10.216,0,12.54,4.761,12.54,4.761h-24.006A17.279,17.279,0,0,1,4978.108,2255Z" transform="translate(-4966.02 -2197.11)" fill="#f8b133"/>
            </g>
            <path id="Trazado_4472" data-name="Trazado 4472" d="M4739.41,2166.574v29.454l13.259.457-1.6-31.227Z" transform="translate(-4620.683 -2047.124)" fill="#773f11"/>
            <path id="Trazado_4473" data-name="Trazado 4473" d="M4746.932,2182.607l-7.522-7.859v-8.175l11.658-1.316,1.113,23.536Z" transform="translate(-4620.683 -2047.124)" fill="#63330f"/>
            <path id="Trazado_4474" data-name="Trazado 4474" d="M4649.914,2050.139l4.8,40.675,57.739.207,5.78-40.882Z" transform="translate(-4558.607 -1967.275)" fill="#935115"/>
            <path id="Trazado_4475" data-name="Trazado 4475" d="M4654.718,2038.13l-4.8,3.68h68.323l-4.354-3.387Z" transform="translate(-4558.607 -1958.945)" fill="#773f11"/>
            <path id="Trazado_4476" data-name="Trazado 4476" d="M4669.856,2066.05h55.922l-3.87,29.524-48.57-1.345Z" transform="translate(-4572.44 -1978.311)" fill="#773f11"/>
            <g id="Grupo_2358" data-name="Grupo 2358" transform="translate(103.073 95.681)">
              <path id="Trazado_4477" data-name="Trazado 4477" d="M4692.622,2092.2a.484.484,0,0,1,.123.345v4.365a.49.49,0,0,1-.126.35.428.428,0,0,1-.328.134.422.422,0,0,1-.364-.171l-2.714-3.532v3.219a.51.51,0,0,1-.119.35.467.467,0,0,1-.655,0,.5.5,0,0,1-.119-.35v-4.365a.479.479,0,0,1,.125-.345.449.449,0,0,1,.336-.13.418.418,0,0,1,.356.171l2.707,3.518v-3.213a.482.482,0,0,1,.123-.345.421.421,0,0,1,.323-.13A.431.431,0,0,1,4692.622,2092.2Z" transform="translate(-4688.321 -2092.039)" fill="#d39562"/>
              <path id="Trazado_4478" data-name="Trazado 4478" d="M4707.088,2097.021a2.182,2.182,0,0,1-.866-.937,3.51,3.51,0,0,1,0-2.852,2.163,2.163,0,0,1,.866-.933,2.863,2.863,0,0,1,2.658,0,2.166,2.166,0,0,1,.862.933,3.495,3.495,0,0,1,0,2.852,2.194,2.194,0,0,1-.866.937,2.84,2.84,0,0,1-2.647,0Zm2.454-.937a2.711,2.711,0,0,0,0-2.852,1.54,1.54,0,0,0-2.261,0,2.706,2.706,0,0,0,0,2.852,1.531,1.531,0,0,0,2.261,0Z" transform="translate(-4700.525 -2091.972)" fill="#d39562"/>
              <path id="Trazado_4479" data-name="Trazado 4479" d="M4732.063,2097.2a2.37,2.37,0,0,1-.829-.413.452.452,0,0,1-.078-.628.275.275,0,0,1,.22-.116.607.607,0,0,1,.3.1,2.229,2.229,0,0,0,.669.335,2.7,2.7,0,0,0,.773.1,1.528,1.528,0,0,0,.833-.189.62.62,0,0,0,.29-.554.478.478,0,0,0-.271-.435,3.625,3.625,0,0,0-.9-.294,5.344,5.344,0,0,1-1.063-.327,1.5,1.5,0,0,1-.617-.476,1.232,1.232,0,0,1-.208-.737,1.384,1.384,0,0,1,.26-.825,1.721,1.721,0,0,1,.724-.569,2.874,2.874,0,0,1,2.778.361.557.557,0,0,1,.138.16.416.416,0,0,1,.042.2.422.422,0,0,1-.093.271.275.275,0,0,1-.219.115.405.405,0,0,1-.138-.022,1.09,1.09,0,0,1-.167-.082,2.5,2.5,0,0,0-.591-.331,2,2,0,0,0-.7-.108,1.381,1.381,0,0,0-.8.2.657.657,0,0,0-.294.569.523.523,0,0,0,.261.469,3.068,3.068,0,0,0,.886.305,5.928,5.928,0,0,1,1.074.331,1.6,1.6,0,0,1,.633.465,1.122,1.122,0,0,1,.219.707,1.345,1.345,0,0,1-.257.814,1.667,1.667,0,0,1-.722.551,2.712,2.712,0,0,1-1.067.2A3.75,3.75,0,0,1,4732.063,2097.2Z" transform="translate(-4717.968 -2091.972)" fill="#d39562"/>
              <path id="Trazado_4480" data-name="Trazado 4480" d="M4747.543,2097.314a.446.446,0,0,1-.123-.334v-4.335a.447.447,0,0,1,.123-.335.469.469,0,0,1,.339-.119h2.685a.518.518,0,0,1,.335.1.335.335,0,0,1,.119.275.355.355,0,0,1-.119.286.505.505,0,0,1-.335.1h-2.208v1.442h2.06a.516.516,0,0,1,.334.1.341.341,0,0,1,.119.282.335.335,0,0,1-.119.275.518.518,0,0,1-.334.1h-2.06v1.532h2.208a.505.505,0,0,1,.335.1.354.354,0,0,1,.119.286.334.334,0,0,1-.119.275.518.518,0,0,1-.335.1h-2.685A.465.465,0,0,1,4747.543,2097.314Z" transform="translate(-4729.313 -2092.123)" fill="#d39562"/>
              <path id="Trazado_4481" data-name="Trazado 4481" d="M4768.426,2097.348a.479.479,0,0,1-.131-.353v-4.35a.444.444,0,0,1,.123-.335.469.469,0,0,1,.339-.119h1.829a1.894,1.894,0,0,1,1.309.421,1.721,1.721,0,0,1,0,2.361,1.881,1.881,0,0,1-1.309.424h-1.331v1.6a.449.449,0,0,1-.483.484A.466.466,0,0,1,4768.426,2097.348Zm2.041-2.688q.988,0,.989-.863t-.989-.863h-1.212v1.725Z" transform="translate(-4743.792 -2092.123)" fill="#d39562"/>
              <path id="Trazado_4482" data-name="Trazado 4482" d="M4784.776,2096.858a2.205,2.205,0,0,1-.558-1.629v-2.685a.473.473,0,0,1,.126-.345.515.515,0,0,1,.685,0,.476.476,0,0,1,.126.345v2.737a1.456,1.456,0,0,0,.319,1.023,1.215,1.215,0,0,0,.937.346,1.2,1.2,0,0,0,.93-.35,1.459,1.459,0,0,0,.319-1.019v-2.737a.474.474,0,0,1,.126-.345.514.514,0,0,1,.684,0,.474.474,0,0,1,.126.345v2.685a2.314,2.314,0,0,1-3.822,1.629Z" transform="translate(-4754.837 -2092.039)" fill="#d39562"/>
              <path id="Trazado_4483" data-name="Trazado 4483" d="M4802.229,2097.314a.444.444,0,0,1-.123-.334v-4.335a.446.446,0,0,1,.123-.335.465.465,0,0,1,.338-.119h1.472a2.751,2.751,0,0,1,2,.688,2.988,2.988,0,0,1,0,3.867,2.75,2.75,0,0,1-2,.688h-1.472A.462.462,0,0,1,4802.229,2097.314Zm1.751-.662a1.841,1.841,0,0,0,0-3.681h-.915v3.681Z" transform="translate(-4767.244 -2092.123)" fill="#d39562"/>
              <path id="Trazado_4484" data-name="Trazado 4484" d="M4821.046,2097.021a2.182,2.182,0,0,1-.866-.937,3.507,3.507,0,0,1,0-2.852,2.172,2.172,0,0,1,.866-.933,2.864,2.864,0,0,1,2.659,0,2.166,2.166,0,0,1,.862.933,3.5,3.5,0,0,1,0,2.852,2.2,2.2,0,0,1-.867.937,2.839,2.839,0,0,1-2.647,0Zm2.454-.937a2.711,2.711,0,0,0,0-2.852,1.54,1.54,0,0,0-2.26,0,2.706,2.706,0,0,0,0,2.852,1.53,1.53,0,0,0,2.26,0Z" transform="translate(-4779.569 -2091.972)" fill="#d39562"/>
              <path id="Trazado_4485" data-name="Trazado 4485" d="M4698.819,2126.148a2.179,2.179,0,0,1-.874-.937,3.488,3.488,0,0,1,0-2.852,2.186,2.186,0,0,1,.874-.934,2.619,2.619,0,0,1,1.327-.327,2.884,2.884,0,0,1,.923.145,2.407,2.407,0,0,1,.767.42.437.437,0,0,1,.133.156.488.488,0,0,1,.038.2.428.428,0,0,1-.09.275.267.267,0,0,1-.215.112.556.556,0,0,1-.305-.1,2.22,2.22,0,0,0-.594-.331,1.891,1.891,0,0,0-.61-.093,1.429,1.429,0,0,0-1.172.484,2.75,2.75,0,0,0,0,2.848,1.429,1.429,0,0,0,1.172.484,1.757,1.757,0,0,0,.591-.1,2.845,2.845,0,0,0,.613-.327,1.052,1.052,0,0,1,.148-.074.416.416,0,0,1,.157-.03.268.268,0,0,1,.215.112.429.429,0,0,1,.09.275.5.5,0,0,1-.038.2.422.422,0,0,1-.133.159,2.4,2.4,0,0,1-.767.42,2.878,2.878,0,0,1-.923.145A2.617,2.617,0,0,1,4698.819,2126.148Z" transform="translate(-4694.785 -2112.176)" fill="#d39562"/>
              <path id="Trazado_4486" data-name="Trazado 4486" d="M4714.954,2126.148a2.188,2.188,0,0,1-.867-.937,3.5,3.5,0,0,1,0-2.852,2.16,2.16,0,0,1,.866-.934,2.868,2.868,0,0,1,2.659,0,2.173,2.173,0,0,1,.862.934,3.5,3.5,0,0,1,0,2.852,2.193,2.193,0,0,1-.867.937,2.839,2.839,0,0,1-2.647,0Zm2.454-.937a2.716,2.716,0,0,0,0-2.852,1.539,1.539,0,0,0-2.261,0,2.711,2.711,0,0,0,0,2.852,1.531,1.531,0,0,0,2.261,0Z" transform="translate(-4705.981 -2112.176)" fill="#d39562"/>
              <path id="Trazado_4487" data-name="Trazado 4487" d="M4737.525,2121.326a.484.484,0,0,1,.123.346v4.365a.49.49,0,0,1-.126.35.431.431,0,0,1-.328.134.424.424,0,0,1-.364-.171l-2.714-3.532v3.22a.508.508,0,0,1-.119.35.467.467,0,0,1-.654,0,.5.5,0,0,1-.119-.35v-4.365a.477.477,0,0,1,.126-.346.444.444,0,0,1,.335-.13.42.42,0,0,1,.357.171l2.707,3.518v-3.212a.487.487,0,0,1,.122-.346.477.477,0,0,1,.655,0Z" transform="translate(-4719.466 -2112.242)" fill="#d39562"/>
              <path id="Trazado_4488" data-name="Trazado 4488" d="M4751.478,2126.441a.444.444,0,0,1-.122-.334v-4.335a.446.446,0,0,1,.122-.335.467.467,0,0,1,.338-.119h2.686a.515.515,0,0,1,.334.1.333.333,0,0,1,.12.275.353.353,0,0,1-.12.286.5.5,0,0,1-.334.1h-2.208v1.442h2.06a.516.516,0,0,1,.335.1.343.343,0,0,1,.12.282.335.335,0,0,1-.12.275.52.52,0,0,1-.335.1h-2.06v1.532h2.208a.5.5,0,0,1,.334.1.353.353,0,0,1,.12.286.335.335,0,0,1-.12.276.516.516,0,0,1-.334.1h-2.686A.465.465,0,0,1,4751.478,2126.441Z" transform="translate(-4732.043 -2112.326)" fill="#d39562"/>
              <path id="Trazado_4489" data-name="Trazado 4489" d="M4766.248,2126.148a2.172,2.172,0,0,1-.875-.937,3.483,3.483,0,0,1,0-2.852,2.179,2.179,0,0,1,.875-.934,2.614,2.614,0,0,1,1.327-.327,2.87,2.87,0,0,1,.921.145,2.381,2.381,0,0,1,.767.42.419.419,0,0,1,.134.156.481.481,0,0,1,.037.2.43.43,0,0,1-.088.275.269.269,0,0,1-.216.112.553.553,0,0,1-.305-.1,2.217,2.217,0,0,0-.6-.331,1.885,1.885,0,0,0-.61-.093,1.425,1.425,0,0,0-1.17.484,2.747,2.747,0,0,0,0,2.848,1.425,1.425,0,0,0,1.17.484,1.751,1.751,0,0,0,.591-.1,2.816,2.816,0,0,0,.614-.327.979.979,0,0,1,.148-.074.416.416,0,0,1,.157-.03.269.269,0,0,1,.216.112.431.431,0,0,1,.088.275.491.491,0,0,1-.037.2.407.407,0,0,1-.134.159,2.376,2.376,0,0,1-.767.42,2.863,2.863,0,0,1-.921.145A2.612,2.612,0,0,1,4766.248,2126.148Z" transform="translate(-4741.554 -2112.176)" fill="#d39562"/>
              <path id="Trazado_4490" data-name="Trazado 4490" d="M4781.9,2126.467a.464.464,0,0,1-.13-.345v-4.016h-1.354c-.3,0-.446-.131-.446-.394s.149-.395.446-.395h3.667c.3,0,.446.132.446.395s-.148.394-.446.394h-1.353v4.016a.449.449,0,0,1-.476.476A.476.476,0,0,1,4781.9,2126.467Z" transform="translate(-4751.891 -2112.326)" fill="#d39562"/>
              <path id="Trazado_4491" data-name="Trazado 4491" d="M4798.471,2126.079a.37.37,0,0,1-.138.291.469.469,0,0,1-.316.119.422.422,0,0,1-.223-.063.414.414,0,0,1-.164-.2l-.446-1h-2.618l-.446,1a.42.42,0,0,1-.164.2.433.433,0,0,1-.23.063.473.473,0,0,1-.312-.119.366.366,0,0,1-.142-.291.465.465,0,0,1,.044-.193l2.053-4.41a.485.485,0,0,1,.2-.227.594.594,0,0,1,.588,0,.486.486,0,0,1,.2.227l2.06,4.41A.459.459,0,0,1,4798.471,2126.079Zm-3.577-1.591h1.963l-.982-2.208Z" transform="translate(-4761.117 -2112.225)" fill="#d39562"/>
              <path id="Trazado_4492" data-name="Trazado 4492" d="M4816.876,2126.218a.348.348,0,0,1-.138.283.5.5,0,0,1-.323.111.484.484,0,0,1-.409-.223l-.989-1.5a.96.96,0,0,0-.316-.335.86.86,0,0,0-.435-.1h-.729v1.666a.485.485,0,0,1-.125.353.459.459,0,0,1-.342.13.471.471,0,0,1-.347-.13.479.479,0,0,1-.13-.353v-4.35a.445.445,0,0,1,.124-.335.465.465,0,0,1,.337-.119h1.86a2.038,2.038,0,0,1,1.358.4,1.432,1.432,0,0,1,.464,1.149,1.451,1.451,0,0,1-.346,1,1.635,1.635,0,0,1-.979.5.94.94,0,0,1,.381.186,1.65,1.65,0,0,1,.319.372l.678,1.033A.482.482,0,0,1,4816.876,2126.218Zm-1.3-2.7a.763.763,0,0,0,.253-.628.749.749,0,0,0-.253-.628,1.3,1.3,0,0,0-.8-.2h-1.249v1.658h1.249A1.257,1.257,0,0,0,4815.575,2123.515Z" transform="translate(-4774.518 -2112.326)" fill="#d39562"/>
            </g>
          </g>
        </g>
      </g>
      <path id="Trazado_4494" data-name="Trazado 4494" d="M4667.5,2313.934c-7.666,0-6.931,3.573-6.931,3.573h18.014S4672.664,2313.934,4667.5,2313.934Z" transform="translate(-196.151 -319.334)" fill="#f29100"/>
      <path id="Trazado_4495" data-name="Trazado 4495" d="M4622.145,2314.97c9.645,0,8.72,4.494,8.72,4.494H4608.2S4615.655,2314.97,4622.145,2314.97Z" transform="translate(-159.839 -320.053)" fill="#f8b133"/>
    </g>
    <rect id="Rectángulo_2046" data-name="Rectángulo 2046" width="256" height="176" transform="translate(48 104)" fill="none"/>
  </g>
</svg>
