<svg xmlns="http://www.w3.org/2000/svg" xmlns:xlink="http://www.w3.org/1999/xlink" width="104" height="104" viewBox="0 0 104 104">
  <defs>
    <linearGradient id="linear-gradient" y1="0.5" x2="1" y2="0.5" gradientUnits="objectBoundingBox">
      <stop offset="0" stop-color="#4a1ed9"/>
      <stop offset="0.917" stop-color="#5d2af5"/>
      <stop offset="1" stop-color="#602cf8"/>
    </linearGradient>
    <linearGradient id="linear-gradient-2" x1="9.005" y1="1.838" x2="10.048" y2="1.838" xlink:href="#linear-gradient"/>
  </defs>
  <g id="Grupo_2532" data-name="Grupo 2532" transform="translate(-40 -312)">
    <g id="Grupo_2531" data-name="Grupo 2531" transform="translate(-779.315 -384.004)">
      <path id="Trazado_2437" data-name="Trazado 2437" d="M821.436,777.23s-3.145-18.867,22.955-27.673,25.471-8.175,38.364-23.584,36.163-5.031,39.307,22.327-27.358,55.031-53.144,55.031S824.9,797.67,821.436,777.23Z" transform="translate(0 -6.049)" fill="url(#linear-gradient)"/>
      <g id="Grupo_1405" data-name="Grupo 1405" transform="translate(858.932 729.778)">
        <path id="Trazado_2438" data-name="Trazado 2438" d="M907.215,742.8c-14.368,0-26.016,9.568-26.016,21.372a19.474,19.474,0,0,0,7.16,14.716c-1.555,2.942-5.48,8.4-14.012,10.9,0,0,13.708,2.545,19.541-7.258a30.256,30.256,0,0,0,13.327,3.017c14.368,0,26.016-9.568,26.016-21.372S921.584,742.8,907.215,742.8Z" transform="translate(-874.347 -742.8)" fill="#fff"/>
        <g id="Grupo_1398" data-name="Grupo 1398" transform="translate(14.303 18.509)">
          <g id="Grupo_1396" data-name="Grupo 1396">
            <path id="Trazado_2439" data-name="Trazado 2439" d="M901.12,780.62a1.131,1.131,0,0,1-.429-.686,4.617,4.617,0,0,1-.086-2.22,11.1,11.1,0,0,1,.833-2.215,11.006,11.006,0,0,0,.648-1.612,2.455,2.455,0,0,0,0-1.3,1.486,1.486,0,0,0-.858-1.046,2.428,2.428,0,0,0-1.618-.056,3.743,3.743,0,0,0-1.472.75,14.861,14.861,0,0,0-1.485,1.453,2.106,2.106,0,0,1-.846.554.865.865,0,0,1-.758-.18,1.369,1.369,0,0,1-.224-1.956,7.326,7.326,0,0,1,1.914-1.852,7.889,7.889,0,0,1,2.484-1.13,6.212,6.212,0,0,1,2.577-.153,4.118,4.118,0,0,1,2.011.884,3.327,3.327,0,0,1,1.092,1.771,3.794,3.794,0,0,1-.042,2.193,12.953,12.953,0,0,1-1.151,2.38,15.378,15.378,0,0,0-.984,1.952,3.325,3.325,0,0,0-.2,1.607.926.926,0,0,1-.163.633.953.953,0,0,1-.551.345A.809.809,0,0,1,901.12,780.62Zm.629,4.674a1.836,1.836,0,0,1-.619-2.422,1.777,1.777,0,0,1,2.4-.614,1.718,1.718,0,0,1,.785,1.09,1.7,1.7,0,0,1-.176,1.335,1.764,1.764,0,0,1-2.388.611Z" transform="translate(-894.512 -768.894)" fill="#f7941d"/>
          </g>
          <g id="Grupo_1397" data-name="Grupo 1397" transform="translate(0.583 0.005)">
            <path id="Trazado_2440" data-name="Trazado 2440" d="M900.1,772.449a2.679,2.679,0,0,0-1.3.047,3.751,3.751,0,0,0-1.472.75,14.885,14.885,0,0,0-1.485,1.453,3.075,3.075,0,0,1-.509.4.852.852,0,0,0,.716.154,2.1,2.1,0,0,0,.846-.554,14.9,14.9,0,0,1,1.485-1.453,3.743,3.743,0,0,1,1.472-.75C899.938,772.474,900.018,772.463,900.1,772.449Z" transform="translate(-895.333 -769.915)" fill="#ffc07b"/>
            <path id="Trazado_2441" data-name="Trazado 2441" d="M907.307,771.623a3.328,3.328,0,0,0-1.092-1.771,4.118,4.118,0,0,0-2.011-.884,5.652,5.652,0,0,0-1.433-.04c.127.011.255.02.38.04a4.115,4.115,0,0,1,2.01.884,3.329,3.329,0,0,1,1.092,1.771,3.8,3.8,0,0,1-.042,2.193,13,13,0,0,1-1.151,2.38,15.228,15.228,0,0,0-.984,1.952,3.327,3.327,0,0,0-.2,1.607.927.927,0,0,1-.164.633.835.835,0,0,1-.221.2.382.382,0,0,0,.033.028.809.809,0,0,0,.692.112.953.953,0,0,0,.551-.345.927.927,0,0,0,.163-.633,3.323,3.323,0,0,1,.2-1.607,15.394,15.394,0,0,1,.984-1.952,12.95,12.95,0,0,0,1.151-2.38A3.8,3.8,0,0,0,907.307,771.623Z" transform="translate(-897.495 -768.901)" fill="#ffc07b"/>
            <path id="Trazado_2442" data-name="Trazado 2442" d="M906.633,787.636a1.659,1.659,0,0,0-1.324-.179c-.024.006-.045.017-.068.024a1.663,1.663,0,0,1,.338.155,1.719,1.719,0,0,1,.785,1.089,1.7,1.7,0,0,1-.177,1.335,1.661,1.661,0,0,1-1,.767,1.7,1.7,0,0,0,.986.024,1.671,1.671,0,0,0,1.064-.791,1.7,1.7,0,0,0,.176-1.335A1.718,1.718,0,0,0,906.633,787.636Z" transform="translate(-898.199 -774.277)" fill="#ffc07b"/>
          </g>
        </g>
        <g id="Grupo_1401" data-name="Grupo 1401" transform="translate(39.032 18.359)">
          <g id="Grupo_1399" data-name="Grupo 1399">
            <path id="Trazado_2443" data-name="Trazado 2443" d="M931.862,779.574a1.133,1.133,0,0,1,.083-.805,4.617,4.617,0,0,1,1.3-1.805,11.056,11.056,0,0,1,2.017-1.237,10.955,10.955,0,0,0,1.5-.875,2.457,2.457,0,0,0,.8-1.026,1.486,1.486,0,0,0-.035-1.353,2.427,2.427,0,0,0-1.243-1.038,3.751,3.751,0,0,0-1.623-.311,14.852,14.852,0,0,0-2.064.235,2.106,2.106,0,0,1-1.009-.081.868.868,0,0,1-.487-.607,1.37,1.37,0,0,1,1.025-1.682,7.324,7.324,0,0,1,2.647-.287,7.873,7.873,0,0,1,2.654.633,6.215,6.215,0,0,1,2.129,1.461,4.118,4.118,0,0,1,1.045,1.932,3.327,3.327,0,0,1-.226,2.068A3.791,3.791,0,0,1,939,776.5a13,13,0,0,1-2.37,1.172,15.374,15.374,0,0,0-1.975.937,3.326,3.326,0,0,0-1.147,1.143.923.923,0,0,1-.518.4.95.95,0,0,1-.647-.065A.811.811,0,0,1,931.862,779.574Zm-2.373,4.076a1.836,1.836,0,0,1,1-2.292,1.777,1.777,0,0,1,2.27.988,1.716,1.716,0,0,1-.05,1.341,1.7,1.7,0,0,1-.958.946,1.764,1.764,0,0,1-2.26-.984Z" transform="translate(-929.376 -768.683)" fill="#f7941d"/>
          </g>
          <g id="Grupo_1400" data-name="Grupo 1400" transform="translate(0.285 1.2)">
            <path id="Trazado_2444" data-name="Trazado 2444" d="M937.223,772.284a2.679,2.679,0,0,0-1.058-.762,3.736,3.736,0,0,0-1.622-.311,14.777,14.777,0,0,0-2.065.236,3.045,3.045,0,0,1-.647,0,.853.853,0,0,0,.47.561,2.107,2.107,0,0,0,1.009.081,14.859,14.859,0,0,1,2.064-.235,3.75,3.75,0,0,1,1.623.311C937.079,772.2,937.149,772.245,937.223,772.284Z" transform="translate(-930.375 -770.618)" fill="#ffc07b"/>
            <path id="Trazado_2445" data-name="Trazado 2445" d="M941.391,775.287a3.327,3.327,0,0,0,.225-2.068,4.117,4.117,0,0,0-1.045-1.932,5.639,5.639,0,0,0-1.107-.912c.094.087.189.173.275.265a4.117,4.117,0,0,1,1.044,1.932,3.329,3.329,0,0,1-.225,2.068,3.8,3.8,0,0,1-1.38,1.705,12.948,12.948,0,0,1-2.37,1.172,15.422,15.422,0,0,0-1.975.937,3.316,3.316,0,0,0-1.147,1.144.927.927,0,0,1-.518.4.858.858,0,0,1-.3.026c0,.014,0,.029.008.043a.811.811,0,0,0,.477.513.949.949,0,0,0,.647.065.923.923,0,0,0,.518-.4,3.326,3.326,0,0,1,1.147-1.143,15.383,15.383,0,0,1,1.975-.937,13,13,0,0,0,2.37-1.172A3.792,3.792,0,0,0,941.391,775.287Z" transform="translate(-930.677 -770.375)" fill="#ffc07b"/>
            <path id="Trazado_2446" data-name="Trazado 2446" d="M932.875,787.545a1.659,1.659,0,0,0-.935-.955c-.023-.01-.046-.014-.069-.023a1.686,1.686,0,0,1,.172.331,1.718,1.718,0,0,1-.049,1.341,1.7,1.7,0,0,1-.959.946,1.662,1.662,0,0,1-1.257-.006,1.7,1.7,0,0,0,.763.624,1.673,1.673,0,0,0,1.326.029,1.7,1.7,0,0,0,.958-.946A1.716,1.716,0,0,0,932.875,787.545Z" transform="translate(-929.778 -775.082)" fill="#ffc07b"/>
          </g>
        </g>
        <g id="Grupo_1404" data-name="Grupo 1404" transform="translate(22.326 4.925)">
          <g id="Grupo_1402" data-name="Grupo 1402">
            <path id="Trazado_2447" data-name="Trazado 2447" d="M914.233,769.889a1.963,1.963,0,0,1-.474-1.318,8,8,0,0,1,.67-3.785,19.144,19.144,0,0,1,2.22-3.438,19.122,19.122,0,0,0,1.688-2.488,4.257,4.257,0,0,0,.485-2.2,2.57,2.57,0,0,0-1.068-2.083,4.2,4.2,0,0,0-2.715-.689,6.479,6.479,0,0,0-2.763.729,25.773,25.773,0,0,0-3.044,1.912,3.625,3.625,0,0,1-1.634.626,1.494,1.494,0,0,1-1.214-.582,2.369,2.369,0,0,1,.34-3.388,12.652,12.652,0,0,1,3.915-2.429,13.618,13.618,0,0,1,4.613-1,10.745,10.745,0,0,1,4.413.687,7.117,7.117,0,0,1,3.074,2.232,5.753,5.753,0,0,1,1.2,3.393,6.561,6.561,0,0,1-.875,3.692,22.484,22.484,0,0,1-2.819,3.6,26.456,26.456,0,0,0-2.38,2.939,5.743,5.743,0,0,0-.933,2.642,1.6,1.6,0,0,1-.509,1.01,1.648,1.648,0,0,1-1.058.383A1.406,1.406,0,0,1,914.233,769.889Zm-.65,8.131a3.177,3.177,0,0,1-.16-4.321,3.075,3.075,0,0,1,4.281-.158,2.974,2.974,0,0,1,.927,2.129,2.934,2.934,0,0,1-.788,2.192,3.049,3.049,0,0,1-4.26.157Z" transform="translate(-905.822 -749.743)" fill="#f7941d"/>
          </g>
          <g id="Grupo_1403" data-name="Grupo 1403" transform="translate(0.623 0.102)">
            <path id="Trazado_2448" data-name="Trazado 2448" d="M915.732,755.433a4.638,4.638,0,0,0-2.219-.4,6.489,6.489,0,0,0-2.763.728,25.875,25.875,0,0,0-3.044,1.912,5.221,5.221,0,0,1-1.006.49,1.471,1.471,0,0,0,1.153.523,3.625,3.625,0,0,0,1.634-.626,25.781,25.781,0,0,1,3.044-1.912,6.478,6.478,0,0,1,2.763-.728C915.448,755.417,915.587,755.429,915.732,755.433Z" transform="translate(-906.7 -751.382)" fill="#ffc07b"/>
            <path id="Trazado_2449" data-name="Trazado 2449" d="M927.363,756.107a5.754,5.754,0,0,0-1.2-3.393,7.117,7.117,0,0,0-3.074-2.232,9.758,9.758,0,0,0-2.408-.594c.211.067.425.128.627.208a7.123,7.123,0,0,1,3.074,2.232,5.754,5.754,0,0,1,1.2,3.394,6.56,6.56,0,0,1-.875,3.691,22.441,22.441,0,0,1-2.819,3.6,26.465,26.465,0,0,0-2.38,2.939,5.742,5.742,0,0,0-.933,2.641,1.6,1.6,0,0,1-.509,1.01,1.45,1.45,0,0,1-.45.266c.016.019.028.042.045.06a1.407,1.407,0,0,0,1.129.443,1.649,1.649,0,0,0,1.058-.383,1.6,1.6,0,0,0,.509-1.01,5.743,5.743,0,0,1,.933-2.641,26.45,26.45,0,0,1,2.38-2.939,22.484,22.484,0,0,0,2.819-3.6A6.561,6.561,0,0,0,927.363,756.107Z" transform="translate(-909.873 -749.887)" fill="#ffc07b"/>
            <path id="Trazado_2450" data-name="Trazado 2450" d="M921.095,782.97a2.868,2.868,0,0,0-2.173-.789c-.043,0-.081.012-.124.016a2.868,2.868,0,0,1,.516.387,2.974,2.974,0,0,1,.927,2.129,2.934,2.934,0,0,1-.788,2.192,2.871,2.871,0,0,1-1.965.931,2.942,2.942,0,0,0,1.658.4,2.885,2.885,0,0,0,2.088-.946,2.934,2.934,0,0,0,.788-2.193A2.974,2.974,0,0,0,921.095,782.97Z" transform="translate(-909.836 -759.274)" fill="#ffc07b"/>
          </g>
        </g>
      </g>
      <g id="Grupo_1409" data-name="Grupo 1409" transform="translate(837.242 729.369)">
        <g id="Grupo_1408" data-name="Grupo 1408" transform="translate(2.136 0)">
          <g id="Grupo_1407" data-name="Grupo 1407" transform="translate(0 5.368)">
            <path id="Trazado_2451" data-name="Trazado 2451" d="M859.024,767.011l.46.521a.806.806,0,0,0,1.134.07l4.3-3.258a.806.806,0,0,0,.071-1.134l-.992-1.124a.807.807,0,0,0-1.135-.071l-3.765,3.861A.806.806,0,0,0,859.024,767.011Z" transform="translate(-850.28 -753.287)" fill="#e28f56"/>
            <path id="Trazado_2452" data-name="Trazado 2452" d="M852.084,778.757l-.819-12.374,6.1-.677.495,17.138Z" transform="translate(-848.083 -754.418)" fill="#f9b180"/>
            <g id="Grupo_1406" data-name="Grupo 1406">
              <path id="Trazado_2453" data-name="Trazado 2453" d="M847.059,754.575c-.014-.1-.284-1.516-.28-1.618.037-.982.867-1.293,1.808-1.33l7.629-1.779a1.737,1.737,0,0,1,.918.009,1.8,1.8,0,0,1,1.253,1.643L858,762.819a1.955,1.955,0,0,1-.366,1.049,2.413,2.413,0,0,1-2.273,1.042l-3.861.152c-2.174.267-2.7-.7-2.74-1.692Z" transform="translate(-846.779 -749.792)" fill="#f9b180"/>
            </g>
          </g>
          <path id="Trazado_2454" data-name="Trazado 2454" d="M858.958,750.7l.089-7.572a.643.643,0,0,1,.633-.635l1.68-.271a.952.952,0,0,1,.777.855l-.277,8.238c-.008.389-.358.208-.743.148l-1.616-.121A.642.642,0,0,1,858.958,750.7Z" transform="translate(-850.319 -742.224)" fill="#f9b180"/>
        </g>
        <path id="Trazado_2455" data-name="Trazado 2455" d="M846.65,773.352l11.117-.183,2.287,47.686-16.286-3.778Z" transform="translate(-843.768 -751.219)" fill="#252430"/>
      </g>
      <path id="Trazado_2456" data-name="Trazado 2456" d="M905.613,703.087s1.541,4.62-4.674,7.873-6.082,3.068-8.712,7.457-8.9,2.7-10.774-4.054,4.694-14.929,11.179-15.954S903.93,698.084,905.613,703.087Z" transform="translate(-17.386)" fill="url(#linear-gradient-2)"/>
    </g>
    <rect id="Rectángulo_1881" data-name="Rectángulo 1881" width="104" height="104" transform="translate(40 312)" fill="none"/>
  </g>
</svg>
