<svg xmlns="http://www.w3.org/2000/svg" xmlns:xlink="http://www.w3.org/1999/xlink" width="232" height="208" viewBox="0 0 232 208">
  <defs>
    <clipPath id="clip-path">
      <path id="Trazado_5354" data-name="Trazado 5354" d="M6614.078,1080.587c-13.524-10.872-.93-34.782-5.278-49.981l-12.52-72.413H6427.559v120.113c-9.863,10.158-25.125,12.865-21.707,40.86,5.577,45.68,121.018,52.257,181.919,31.175S6629.557,1093.03,6614.078,1080.587Z" fill="none"/>
    </clipPath>
    <linearGradient id="linear-gradient" x1="0.5" x2="0.5" y2="1" gradientUnits="objectBoundingBox">
      <stop offset="0" stop-color="#f1e8ff"/>
      <stop offset="0.256" stop-color="#e0d1ff"/>
      <stop offset="1" stop-color="#b393ff"/>
    </linearGradient>
  </defs>
  <g id="Grupo_2594" data-name="Grupo 2594" transform="translate(-6402.172 -955.824)">
    <g id="Grupo_2593" data-name="Grupo 2593">
      <g id="Grupo_2592" data-name="Grupo 2592">
        <g id="Grupo_2591" data-name="Grupo 2591">
          <g id="Grupo_2590" data-name="Grupo 2590" clip-path="url(#clip-path)">
            <path id="Trazado_5233" data-name="Trazado 5233" d="M6495.056,998.687s-32.52-21.822-54.144,2.681-.183,52.093-8.219,69.567-30.953,14.559-26.841,48.231c5.577,45.68,121.018,52.257,181.919,31.175s41.786-57.311,26.307-69.754-13.144-35.066-20.016-51.056S6534.961,1022.165,6495.056,998.687Z" fill="url(#linear-gradient)"/>
            <g id="Grupo_2589" data-name="Grupo 2589">
              <path id="Trazado_5234" data-name="Trazado 5234" d="M6592.744,1043.122l5.312,16.158-6.973-.462-3.119-13.926Z" fill="#c19063"/>
              <g id="Grupo_2571" data-name="Grupo 2571">
                <path id="Trazado_5235" data-name="Trazado 5235" d="M6596.721,1035.694c.016-.106.307-1.6.3-1.7-.035-1.036-.909-1.368-1.9-1.411l-8.035-1.911a1.838,1.838,0,0,0-.968.005,1.893,1.893,0,0,0-1.329,1.727l.351,11.935a2.054,2.054,0,0,0,.382,1.108,2.541,2.541,0,0,0,2.392,1.109l4.07.179c2.291.292,2.853-.725,2.9-1.77Z" fill="#c19063"/>
              </g>
              <path id="Trazado_5236" data-name="Trazado 5236" d="M6586.79,1044.187l-.546.49a.851.851,0,0,1-1.2-.065l-4.1-3.94a.85.85,0,0,1,.065-1.2l1.177-1.056a.85.85,0,0,1,1.2.066l3.47,4.505A.849.849,0,0,1,6586.79,1044.187Z" fill="#ad754e"/>
              <path id="Trazado_5237" data-name="Trazado 5237" d="M6584.832,1033.744l-.3-8.248a.6.6,0,0,1,.565-.613l1.55-.313a.885.885,0,0,1,.753.766l.568,7.538c.007.362-.851.333-1.21.29l-.889.852C6585.572,1033.981,6584.84,1034.04,6584.832,1033.744Z" fill="#c19063"/>
              <path id="Trazado_5238" data-name="Trazado 5238" d="M6593.512,1034.917l2.461-7.878a.6.6,0,0,1,.737-.39l1.566.221a.884.884,0,0,1,.455.974l-1.975,7.3c-.113.344-.912.03-1.237-.129l-1.122.507C6594.131,1035.387,6593.421,1035.2,6593.512,1034.917Z" fill="#c19063"/>
              <path id="Trazado_5239" data-name="Trazado 5239" d="M6587.228,1031.071s-.1-.869,1.09-.971,6.1,1.022,6.639,2.009-.34,5.108-2.689,5.21S6586.207,1036.333,6587.228,1031.071Z" fill="#ad754e"/>
              <g id="Grupo_2588" data-name="Grupo 2588">
                <path id="Trazado_5240" data-name="Trazado 5240" d="M6441.5,1043.5l-5.312,16.158,6.972-.462,3.119-13.926Z" fill="#c19063"/>
                <path id="Trazado_5241" data-name="Trazado 5241" d="M6538.742,1018.349s5.837,8.789,2.877,13.757-3.576,6.755-2,8.293a4.425,4.425,0,0,1-2.336-3.959s-.362,4.863-3.934,5.709-24.981-6.188-24.981-6.188Z" fill="#261b17"/>
                <path id="Trazado_5242" data-name="Trazado 5242" d="M6497.008,1018.967s-5.836,8.788-2.876,13.756,3.575,6.755,2,8.293a4.423,4.423,0,0,0,2.335-3.958s.363,4.862,3.934,5.708,24.981-6.188,24.981-6.188Z" fill="#261b17"/>
                <path id="Trazado_5243" data-name="Trazado 5243" d="M6539.187,987.389c.106-.317,2.115-7.788,11.418-8.7s12.685,18.747,6.66,22.447-15.435-4.7-15.435-4.7Z" fill="#3a3735"/>
                <path id="Trazado_5244" data-name="Trazado 5244" d="M6536.65,992.252s8.391-12.369,16.459-11.417,12.718,9.3,8.49,11.417-17.289,4.7-19.769,4.179S6536.544,993.52,6536.65,992.252Z" fill="#261b17"/>
                <g id="Grupo_2572" data-name="Grupo 2572">
                  <circle id="Elipse_476" data-name="Elipse 476" cx="4.334" cy="4.334" r="4.334" transform="translate(6533.71 1015.109)" fill="#c19063"/>
                  <circle id="Elipse_477" data-name="Elipse 477" cx="2.543" cy="2.543" r="2.543" transform="translate(6535.502 1016.901)" fill="#ad754e"/>
                </g>
                <g id="Grupo_2573" data-name="Grupo 2573">
                  <circle id="Elipse_478" data-name="Elipse 478" cx="4.334" cy="4.334" r="4.334" transform="translate(6492.402 1014.632)" fill="#c19063"/>
                  <circle id="Elipse_479" data-name="Elipse 479" cx="2.543" cy="2.543" r="2.543" transform="translate(6494.194 1016.424)" fill="#ad754e"/>
                </g>
                <ellipse id="Elipse_480" data-name="Elipse 480" cx="23.471" cy="18.206" rx="23.471" ry="18.206" transform="matrix(0.999, -0.032, 0.032, 0.999, 6490.717, 1134.162)" fill="#c19063"/>
                <path id="Trazado_5245" data-name="Trazado 5245" d="M6489.114,1159.933l51.411.691,6.491,37.854h-59.152Z" fill="#0f3d6b"/>
                <path id="Trazado_5246" data-name="Trazado 5246" d="M6506.977,1049.142l2.81,20.169,15.75.114,1.845-20.631Z" fill="#c19063"/>
                <path id="Trazado_5247" data-name="Trazado 5247" d="M6508.39,1055.614s10.915,5.781,18.326.616l.665-7.436-20.4.348Z" fill="#b28056"/>
                <path id="Trazado_5248" data-name="Trazado 5248" d="M6517.855,1068.695l29.588,5s10.059,5.739-.833,17.277l-9.18,64.842a76.8,76.8,0,0,1-46.136-3.454l-4.87-60.591s-13-8.9.143-19.741Z" fill="#c19063"/>
                <path id="Trazado_5249" data-name="Trazado 5249" d="M6540.939,1077.554l6.5-3.861s-21.647-9.259-33.339-8.488-20.689,4.084-27.537,6.821l16.252,12.208Z" fill="#c19063"/>
                <path id="Trazado_5250" data-name="Trazado 5250" d="M6486.567,1072.026c6.848-2.737,15.844-6.05,27.537-6.821s33.339,8.488,33.339,8.488,10.059,5.739-.833,17.277l-9.18,64.842a76.8,76.8,0,0,1-46.136-3.453l-4.87-60.592S6473.422,1082.87,6486.567,1072.026Z" fill="#c19063"/>
                <g id="Grupo_2574" data-name="Grupo 2574">
                  <path id="Trazado_5251" data-name="Trazado 5251" d="M6514.312,1084.389c.5,1.332,1.8,2.272,2.088,3.69.2.981-.24,1.558-1.235,1.565-1.024.007-1.561-.81-1.769-1.747a5.627,5.627,0,0,1,.639-3.514c.073-.162.312-.021.239.14a6.073,6.073,0,0,0-.686,2.705c.037.909.57,2.457,1.794,2.129l.757-.5a1.082,1.082,0,0,0,.015-.5,2.522,2.522,0,0,0-.232-.828,6.191,6.191,0,0,0-.624-1.019,8.945,8.945,0,0,1-1.253-2.05c-.062-.168.206-.24.267-.074Z" fill="#191817"/>
                  <path id="Trazado_5252" data-name="Trazado 5252" d="M6517.671,1084.342a4.4,4.4,0,0,1-1.665,2.9c-.152.094-.292-.146-.14-.239a4.236,4.236,0,0,0,1.538-2.732c.026-.176.293-.1.267.073Z" fill="#191817"/>
                  <path id="Trazado_5253" data-name="Trazado 5253" d="M6517.686,1084.243c.534,1.39,1.051,2.982.37,4.419a1.935,1.935,0,0,1-2.671,1.023c-.16-.077-.02-.316.14-.239,1.442.7,2.445-.678,2.566-1.982a7.094,7.094,0,0,0-.672-3.147c-.064-.167.2-.239.267-.074Z" fill="#191817"/>
                  <path id="Trazado_5254" data-name="Trazado 5254" d="M6517.205,1084.946q-.372-.681-.72-1.374l.253-.033-.352,1.859c-.033.175-.3.1-.267-.074l.352-1.859a.14.14,0,0,1,.253-.033q.348.693.721,1.374c.085.156-.154.3-.24.14Z" fill="#191817"/>
                  <path id="Trazado_5255" data-name="Trazado 5255" d="M6516.69,1086.214a4.3,4.3,0,0,1-1.458-2.812l.253.033-.893,1.507a.138.138,0,0,1-.239-.139l.893-1.508a.14.14,0,0,1,.253.033,4.045,4.045,0,0,0,1.331,2.646c.142.1,0,.346-.14.24Z" fill="#191817"/>
                  <path id="Trazado_5256" data-name="Trazado 5256" d="M6516.41,1083.764c-.031-.229-.1-.536-.384-.552-.239-.014-.282.29-.394.447s-.343,0-.239-.14a3.282,3.282,0,0,1,.258-.441.5.5,0,0,1,.458-.135c.41.075.529.459.578.821.023.176-.254.175-.277,0Z" fill="#191817"/>
                  <path id="Trazado_5257" data-name="Trazado 5257" d="M6517.964,1085.241a1.846,1.846,0,0,1,1.285-.037c.537.2.772.77,1.249,1.056a.14.14,0,0,1,.028.218c-.709.631.075,1.78-.742,2.45a1.769,1.769,0,0,1-1.994.138.139.139,0,0,1,.14-.239,1.468,1.468,0,0,0,1.4.051,1.175,1.175,0,0,0,.63-1.266,1.481,1.481,0,0,1,.366-1.33l.029.217c-.751-.451-1.178-1.486-2.255-1.019-.162.07-.3-.168-.14-.239Z" fill="#191817"/>
                  <path id="Trazado_5258" data-name="Trazado 5258" d="M6513.472,1085.758a1.667,1.667,0,0,0-1.78.68,1.548,1.548,0,0,1-.831.528l.033-.254a2.129,2.129,0,0,1,.843,1.566,1.377,1.377,0,0,0,.626,1.068,1.1,1.1,0,0,0,1.461-.394.139.139,0,0,1,.24.14,1.375,1.375,0,0,1-1.841.493c-1.041-.538-.527-1.99-1.469-2.633a.141.141,0,0,1,.034-.254c.638-.182.781-.749,1.311-1.066a2.1,2.1,0,0,1,1.447-.141c.175.032.1.3-.074.267Z" fill="#191817"/>
                  <path id="Trazado_5259" data-name="Trazado 5259" d="M6516.518,1083.34a3.351,3.351,0,0,1,1.379-.414.142.142,0,0,1,.139.138c.026.9,1.542,1.135,1.075,2.178-.073.162-.312.021-.239-.14.228-.509-.345-.86-.656-1.169a1.267,1.267,0,0,1-.457-.869l.138.139a3.251,3.251,0,0,0-1.305.4c-.17.056-.243-.211-.074-.267Z" fill="#191817"/>
                  <path id="Trazado_5260" data-name="Trazado 5260" d="M6514.962,1083.857a5.652,5.652,0,0,0-.5-.3c-.413-.167-.635,0-.977.158a1.182,1.182,0,0,1-.835.115l.175-.133a1.009,1.009,0,0,1-.181.505c-.1.145-.294.27-.359.43a.918.918,0,0,0,.167.88c.1.148-.14.287-.24.14a1.108,1.108,0,0,1-.313-.807c.069-.464.6-.679.649-1.148a.142.142,0,0,1,.176-.134c.542.124.934-.388,1.463-.362a2.232,2.232,0,0,1,.913.412c.157.085.017.324-.14.239Z" fill="#191817"/>
                  <path id="Trazado_5261" data-name="Trazado 5261" d="M6518.844,1089.091c.561.242.885.77.416,1.287a1.885,1.885,0,0,1-1,.473,4.157,4.157,0,0,0-1.783.977.141.141,0,0,1-.2,0c-.724-.708-1.8-.721-2.725-1.023-.54-.177-.965-.423-1.015-1.028-.015-.178.262-.177.277,0,.063.761,1.223.89,1.808,1.033a5.931,5.931,0,0,1,1.537.543c.312.169.336.071.611-.13a3.7,3.7,0,0,1,.8-.443c.3-.121.615-.173.921-.273.635-.206,1.013-.829.206-1.177-.163-.07-.022-.309.14-.239Z" fill="#191817"/>
                  <path id="Trazado_5262" data-name="Trazado 5262" d="M6515.388,1091.1a1.647,1.647,0,0,1-1.311,1.63,2.036,2.036,0,0,1-1.145-.226,2.745,2.745,0,0,0-2.308-.115.14.14,0,0,1-.2-.157c.324-1.049-1.061-1.569-.884-2.64.154-.929,1.2-1.252,2.014-1.235a.139.139,0,0,1,0,.277,1.814,1.814,0,0,0-1.592.629c-.37.561-.036,1.085.307,1.534a1.518,1.518,0,0,1,.422,1.509l-.2-.157a2.766,2.766,0,0,1,2.142-.069c.48.165.928.486,1.465.369a1.378,1.378,0,0,0,1.02-1.349.139.139,0,0,1,.277,0Z" fill="#191817"/>
                  <path id="Trazado_5263" data-name="Trazado 5263" d="M6512.247,1084.367a2.393,2.393,0,0,0-1.325.134,4.375,4.375,0,0,0-.875.782,2.1,2.1,0,0,1-1.488.637l.07-.258a1.35,1.35,0,0,1,.627,1.167c.006.3-.058.6-.055.908,0,.266.326,1.179.79,1,.167-.064.239.2.074.267-.373.144-.829-.312-1-.606-.474-.836.356-1.82-.58-2.5a.14.14,0,0,1,.07-.258c.97-.017,1.308-.724,2-1.23a2.335,2.335,0,0,1,1.691-.323c.177.013.178.291,0,.277Z" fill="#191817"/>
                  <path id="Trazado_5264" data-name="Trazado 5264" d="M6518.654,1084.045c.191-.423.307-.657.038-1.072a.954.954,0,0,0-.764-.487c-.439-.092-.9-.116-1.328-.234-.825-.225-1.142-.759-1.557-1.455l.253-.033c-.231.771-.853,1.05-1.576,1.273-1.187.366-2.076.779-2.118,2.154,0,.177-.282.178-.277,0a2.142,2.142,0,0,1,.917-1.873c.887-.581,2.432-.446,2.787-1.627a.14.14,0,0,1,.253-.033,2.37,2.37,0,0,0,1.718,1.394,6.752,6.752,0,0,1,1.476.305c.835.362.739,1.112.418,1.828-.073.162-.312.022-.24-.14Z" fill="#191817"/>
                  <path id="Trazado_5265" data-name="Trazado 5265" d="M6518.991,1083.486a3.343,3.343,0,0,1,1.889.259,5.531,5.531,0,0,1,.609.527,3.444,3.444,0,0,0,1.4.508.14.14,0,0,1,.061.231,3.172,3.172,0,0,0-.563,2.049,2.416,2.416,0,0,1-.262,1.347c-.57.837-1.537.714-2.386.522-.174-.039-.1-.306.074-.267a1.937,1.937,0,0,0,1.929-.228c.428-.4.357-1.034.372-1.571a3.228,3.228,0,0,1,.64-2.047l.061.231a3.638,3.638,0,0,1-1.52-.579,2.648,2.648,0,0,0-.99-.664,4.765,4.765,0,0,0-1.313-.041.139.139,0,0,1,0-.277Z" fill="#191817"/>
                  <path id="Trazado_5266" data-name="Trazado 5266" d="M6520.939,1088.914a1.739,1.739,0,0,1,.152,1.575c-.449.911-1.548,1.195-1.362,2.419a.141.141,0,0,1-.171.17,4.118,4.118,0,0,0-1.628-.077,6.68,6.68,0,0,1-1.192.174,2.135,2.135,0,0,1-.995-.22c-.343-.187-.555-.554-.922-.7-.163-.067-.091-.335.074-.268a2.28,2.28,0,0,1,.6.428,2.154,2.154,0,0,0,1.91.413,5.59,5.59,0,0,1,2.225-.013l-.17.17a1.888,1.888,0,0,1,.416-1.537c.181-.234.409-.414.6-.631a1.375,1.375,0,0,0,.216-1.759c-.077-.16.162-.3.24-.14Z" fill="#191817"/>
                  <path id="Trazado_5267" data-name="Trazado 5267" d="M6513.8,1081.948c-.191-.176-.372-.359-.551-.548-.223-.235-.4-.653-.72-.162a.141.141,0,0,1-.218.028,6.086,6.086,0,0,0-1.432-1.106l.189-.05c-.109.24-.145.492-.449.466s-.948-.947-1.221-.4a.14.14,0,0,1-.189.049,3.208,3.208,0,0,0-1.538-.422c-.33.074-.154.438-.1.7a10.2,10.2,0,0,1,.157,1.011c.017.177-.26.176-.277,0-.039-.393-.582-1.778-.008-1.978a3.225,3.225,0,0,1,1.907.449l-.19.05c.146-.291.31-.456.638-.328.384.151.761.863,1.032.267a.14.14,0,0,1,.189-.05,6.314,6.314,0,0,1,1.489,1.149l-.217.028a1.665,1.665,0,0,1,.45-.466.139.139,0,0,1,.168.021c.37.36.708.749,1.087,1.1.132.122-.065.317-.195.2Z" fill="#191817"/>
                  <path id="Trazado_5268" data-name="Trazado 5268" d="M6507.554,1081.757c-.117-.032-.235-.066-.352-.1l.171-.17a7.525,7.525,0,0,0,.509.907c.035.069.091.11.1.188.033.195-.253.392-.244.46.019.155.475.328.565.522.112.242.017.409-.115.623l-.05-.19a5.9,5.9,0,0,0,.742.332.141.141,0,0,1,.1.17,1.83,1.83,0,0,1-.312.537l-.049-.189c.283.142.693.234.9.491.108.139-.086.336-.2.2-.18-.229-.589-.322-.84-.448a.14.14,0,0,1-.05-.19,2.7,2.7,0,0,0,.284-.471l.1.171a6.512,6.512,0,0,1-.809-.359.14.14,0,0,1-.049-.19c.327-.53-.465-.582-.545-1.039a.146.146,0,0,1,.064-.156c.3-.214-.259-.989-.368-1.291a.14.14,0,0,1,.171-.171c.117.034.234.068.352.1a.139.139,0,0,1-.074.267Z" fill="#191817"/>
                  <path id="Trazado_5269" data-name="Trazado 5269" d="M6523.259,1079.434c-.095.627,0,1.258-.125,1.883l-.17-.17a2.579,2.579,0,0,1,.765-.073.139.139,0,0,1,.133.175c-.141.5-.539.8-.779,1.241l-.083-.2a4.48,4.48,0,0,1,.636.219.141.141,0,0,1,.1.17,1.206,1.206,0,0,1-.418.552c-.29.257-.508.568-.788.835l-.028-.218a6.283,6.283,0,0,0,.607.172.14.14,0,0,1,.061.232c-.184.177-.376.345-.553.53-.123.129-.319-.067-.2-.2.177-.185.369-.353.554-.53l.061.232a6.708,6.708,0,0,1-.674-.2.139.139,0,0,1-.028-.217c.2-.192.349-.422.542-.619s.491-.343.593-.646l.1.171a4.544,4.544,0,0,0-.636-.219.14.14,0,0,1-.083-.2c.224-.415.62-.708.751-1.174l.134.175a1.952,1.952,0,0,0-.692.063.14.14,0,0,1-.17-.171c.124-.623.03-1.256.125-1.883.026-.176.293-.1.267.074Z" fill="#191817"/>
                  <path id="Trazado_5270" data-name="Trazado 5270" d="M6523.239,1079.441a12.787,12.787,0,0,1-1.592.493.14.14,0,0,1-.157-.063,3.911,3.911,0,0,1-.231-.468l.189.049a4.281,4.281,0,0,0-1.174.918.14.14,0,0,1-.218.028c-.483-.583-1.212.509-1.5.868a.133.133,0,0,1-.135.035c-.281-.106-.437-.284-.668-.02a10.615,10.615,0,0,0-.648.979c-.1.146-.34.008-.239-.14a7.782,7.782,0,0,1,.774-1.172.386.386,0,0,1,.271-.149c.354-.024.333.227.723-.064.365-.272.65-.674,1.023-.955a.137.137,0,0,1,.14,0,1.879,1.879,0,0,1,.451.423l-.217.028a4.572,4.572,0,0,1,1.274-1.018.138.138,0,0,1,.189.05c.161.356.156.351.561.254a4.112,4.112,0,0,0,1.04-.315c.157-.085.3.154.14.239Z" fill="#191817"/>
                  <path id="Trazado_5271" data-name="Trazado 5271" d="M6522.342,1080.341" fill="#191817"/>
                  <path id="Trazado_5272" data-name="Trazado 5272" d="M6522.462,1080.41a11.886,11.886,0,0,1-1.607,1.632,6.416,6.416,0,0,0-1.483,1.5c-.087.156-.326.016-.239-.14a5.42,5.42,0,0,1,1.285-1.348,12.471,12.471,0,0,0,1.8-1.784c.107-.14.348,0,.24.139Z" fill="#191817"/>
                  <path id="Trazado_5273" data-name="Trazado 5273" d="M6511.257,1083.43a4.548,4.548,0,0,0-1.161-1.121c-.506-.409-1-.831-1.531-1.207-.144-.1-.006-.343.14-.239.552.39,1.062.826,1.587,1.25a4.711,4.711,0,0,1,1.2,1.177.139.139,0,0,1-.239.14Z" fill="#191817"/>
                  <path id="Trazado_5274" data-name="Trazado 5274" d="M6521.739,1083.38a3.536,3.536,0,0,0-2.242.137c-.162.073-.3-.166-.14-.239a3.825,3.825,0,0,1,2.456-.165.139.139,0,0,1-.074.267Z" fill="#191817"/>
                  <path id="Trazado_5275" data-name="Trazado 5275" d="M6522.081,1082.517a11.559,11.559,0,0,0-1.834.071c-.174.038-.248-.229-.074-.267a12.04,12.04,0,0,1,1.908-.081c.178-.011.177.267,0,.277Z" fill="#191817"/>
                  <path id="Trazado_5276" data-name="Trazado 5276" d="M6522.124,1081.725c-.291.011-.579-.033-.87-.038a.139.139,0,0,1,0-.277c.291.005.579.049.87.038.179-.007.178.27,0,.277Z" fill="#191817"/>
                  <path id="Trazado_5277" data-name="Trazado 5277" d="M6521.132,1080.642a2.851,2.851,0,0,0,.038.907c.054.171-.213.244-.267.074a3.074,3.074,0,0,1-.048-.981.139.139,0,0,1,.277,0Z" fill="#191817"/>
                  <path id="Trazado_5278" data-name="Trazado 5278" d="M6520.261,1081.284v1.133a.139.139,0,0,1-.277,0v-1.133a.139.139,0,0,1,.277,0Z" fill="#191817"/>
                  <path id="Trazado_5279" data-name="Trazado 5279" d="M6519.386,1081.549a6.18,6.18,0,0,1,.092,1.773.138.138,0,0,1-.277,0,5.909,5.909,0,0,0-.082-1.7.139.139,0,0,1,.267-.074Z" fill="#191817"/>
                  <path id="Trazado_5280" data-name="Trazado 5280" d="M6511.815,1081.925a3.206,3.206,0,0,0-.343,1.435c.01.178-.267.178-.277,0a3.39,3.39,0,0,1,.353-1.509c.067-.162.336-.091.267.074Z" fill="#191817"/>
                  <path id="Trazado_5281" data-name="Trazado 5281" d="M6510.844,1081.618c-.15.29-.056.642-.16.949-.058.167-.325.095-.268-.074.114-.335.021-.691.188-1.015.082-.158.321-.018.24.14Z" fill="#191817"/>
                  <path id="Trazado_5282" data-name="Trazado 5282" d="M6509.987,1081.132a1.761,1.761,0,0,0-.082.681.139.139,0,0,1-.277,0,1.955,1.955,0,0,1,.092-.754c.067-.163.336-.092.267.073Z" fill="#191817"/>
                  <path id="Trazado_5283" data-name="Trazado 5283" d="M6511.333,1083.536a2.577,2.577,0,0,0-1.409.4c-.151.1-.29-.144-.14-.24a2.831,2.831,0,0,1,1.549-.434c.178.008.179.285,0,.277Z" fill="#191817"/>
                  <path id="Trazado_5284" data-name="Trazado 5284" d="M6510.419,1082.631a4.621,4.621,0,0,0-1.094.3.139.139,0,0,1-.074-.268,4.954,4.954,0,0,1,1.168-.307c.179-.006.178.271,0,.278Z" fill="#191817"/>
                  <path id="Trazado_5285" data-name="Trazado 5285" d="M6509.593,1081.951a1.8,1.8,0,0,0-.844.17c-.158.083-.3-.156-.14-.239a2.086,2.086,0,0,1,.984-.208.139.139,0,0,1,0,.277Z" fill="#191817"/>
                </g>
                <path id="Trazado_5286" data-name="Trazado 5286" d="M6495.148,993.293c-.749-10.187,8.394-14.579,20.4-15.461,11.812-.868,23.747,4.739,24.055,14.652h.018l-.013.165c0,.106.01.21.009.317a18.121,18.121,0,0,1-.266,2.938l-3,38.154a16.622,16.622,0,0,1-7.749,13.793l-3.33,3.165a10.4,10.4,0,0,1-7.813,2.505,14.558,14.558,0,0,1-8.794-2.625l-3.285-3.214a16.621,16.621,0,0,1-7.548-13.9l-2.505-39.052C6495.245,994.246,6495.183,993.767,6495.148,993.293Z" fill="#c19063"/>
                <path id="Trazado_5287" data-name="Trazado 5287" d="M6488.19,1164.188l-2.876-71.664c-1.521-1.205-5.55-4.872-5.782-10.035-.181-4.028,1.969-7.92,6.389-11.567l.172-.142.208-.083a99.5,99.5,0,0,1,18.744-5.741c-1.359,8.087-4.9,27.445,11.4,26.762,15.654-.656,14.715-20.891,13.767-25.613a154.512,154.512,0,0,1,18.056,6.273l.076.032.07.04a10.534,10.534,0,0,1,4.854,7.109c.559,3.753-1.137,7.808-5.041,12.057l-5.956,74.2S6503.942,1170.742,6488.19,1164.188Z" fill="#fff"/>
                <path id="Trazado_5288" data-name="Trazado 5288" d="M6489.123,1077.654l-3.086-6.957s-11.608,8.335-15.1,15.629c0,0,2.367,9.177,14.609,12.412l9.388-15.372Z" fill="#fff"/>
                <path id="Trazado_5289" data-name="Trazado 5289" d="M6535.618,999.629l.058,8.829s.136,9.479.894,10.653c.463.719.926.332.926.332s4.571-3.43,5.1-7.869V1008.3a11.535,11.535,0,0,0,3.277-11.734c-2.008-7.4-.783-17.02-10.275-19.135,0,0-9.271-6.343-18.1-3.277,0,0-17.289-.578-21.835,7.481,0,0-7.823,11.971-4.546,20.745l1.692,4.123s2.648,11.161,3.988,11.157,2.883-8.726,2.249-15.174,1.772-9.907,3.781-10.857,4.335.669,12.474,1.057c8.88.423,12.051-1.587,14.588-.952S6535.659,996.356,6535.618,999.629Z" fill="#261b17"/>
                <path id="Trazado_5290" data-name="Trazado 5290" d="M6510.81,1002.666s-.364,3.558-1.481,4.16-6.081.515-8.145,2.708c0,0-1.04-3.042.767-4.256S6507.716,1002.051,6510.81,1002.666Z" fill="#261b17"/>
                <path id="Trazado_5291" data-name="Trazado 5291" d="M6523.475,1002.228s.006,3.577,1.056,4.288,6,1.121,7.833,3.51c0,0,1.34-2.922-.336-4.311S6526.614,1001.926,6523.475,1002.228Z" fill="#261b17"/>
                <path id="Trazado_5292" data-name="Trazado 5292" d="M6527.082,990.924s3.882-8.823,9.061-12.2c0,0-4.647-1.183-9.925,10.025C6526.218,988.746,6525.166,991.186,6527.082,990.924Z" fill="#3a3735"/>
                <path id="Trazado_5293" data-name="Trazado 5293" d="M6523.047,990.935s.844-11.3,5.084-16.683c0,0-5.37-.046-6.81,14.411C6521.321,988.663,6521.111,991.783,6523.047,990.935Z" fill="#3a3735"/>
                <path id="Trazado_5294" data-name="Trazado 5294" d="M6509.991,991.394s-1.205-11-5.084-16.143c0,0,4.623-.179,6.474,13.884C6511.381,989.135,6511.694,992.172,6509.991,991.394Z" fill="#3a3735"/>
                <path id="Trazado_5295" data-name="Trazado 5295" d="M6506.1,990.6s-1.953-9.183-5.665-13.192c0,0,3.887-.545,6.646,11.167C6507.076,988.572,6507.6,991.109,6506.1,990.6Z" fill="#3a3735"/>
                <path id="Trazado_5296" data-name="Trazado 5296" d="M6560.9,996.917s.2,2.233-1.149,3.343c-1.761,1.444-19.162-3.76-19.162-3.76S6559.6,993.037,6560.9,996.917Z" fill="#261b17"/>
                <path id="Trazado_5297" data-name="Trazado 5297" d="M6514.887,1030.416s3.355-3.219,6.9-1.054,7.83,4.969,7.83,4.969-3.433,1.7-6.473,0-6.371-.423-7.481-1.06S6514.887,1030.416,6514.887,1030.416Z" fill="#261b17"/>
                <path id="Trazado_5298" data-name="Trazado 5298" d="M6515.977,1030.416s-3.356-3.219-6.905-1.054-7.83,4.969-7.83,4.969,3.433,1.7,6.474,0,6.371-.423,7.48-1.06S6515.977,1030.416,6515.977,1030.416Z" fill="#261b17"/>
                <path id="Trazado_5299" data-name="Trazado 5299" d="M6515.19,1042.913s3.791-1.142,5.245,1.626.5,8.866-1.89,10.713l-1.108-1.38-.538,2.968a12.328,12.328,0,0,1-1.878-2.808l-1.012,1.574S6508.511,1045.509,6515.19,1042.913Z" fill="#261b17"/>
                <g id="Grupo_2577" data-name="Grupo 2577">
                  <g id="Grupo_2576" data-name="Grupo 2576">
                    <path id="Trazado_5300" data-name="Trazado 5300" d="M6512.6,1103.984l.228,67.862-27.026-2.836-.141-69.861s3.587-8.749-2.081-27.675l14.67-5.911S6506.823,1099.2,6512.6,1103.984Z" fill="#141412"/>
                    <g id="Grupo_2575" data-name="Grupo 2575">
                      <path id="Trazado_5301" data-name="Trazado 5301" d="M6491.208,1116.789l13.313.431.163,12.818-6.353,3.41-6.917-2.5Z" fill="#4c4c4c"/>
                      <path id="Trazado_5302" data-name="Trazado 5302" d="M6490.742,1120.01l7.08,2.117,7.18-1.932-.194-3.506-13.944-.451Z" fill="#383736"/>
                      <path id="Trazado_5303" data-name="Trazado 5303" d="M6497.773,1123.138l-.052,7.214-5.017-.162,4.991.959,5.75-1.555-5.011.647Z" fill="#141412"/>
                      <circle id="Elipse_481" data-name="Elipse 481" cx="0.539" cy="0.539" r="0.539" transform="translate(6497.389 1119.293)" fill="#545454"/>
                    </g>
                    <path id="Trazado_5304" data-name="Trazado 5304" d="M6497.9,1137.5l.185,15.483A52.82,52.82,0,0,0,6497.9,1137.5Z" fill="#383736"/>
                    <path id="Trazado_5305" data-name="Trazado 5305" d="M6498.339,1093.528l-.628,19.378S6498.67,1107,6498.339,1093.528Z" fill="#383736"/>
                    <path id="Trazado_5306" data-name="Trazado 5306" d="M6485.558,1168.1l27.8,2.8-.016,1.95-27.843-2.971Z" fill="#383736"/>
                    <path id="Trazado_5307" data-name="Trazado 5307" d="M6499.475,1063.231l13.124,40.753-14.5-16.577.69-3.454-7.6-17.268Z" fill="#383736"/>
                    <path id="Trazado_5308" data-name="Trazado 5308" d="M6505,1150.262s-3.454,9.671-13.124,13.124l.691,2.072s11.051-3.453,14.505-14.505Z" fill="#4c4c4c"/>
                    <path id="Trazado_5309" data-name="Trazado 5309" d="M6504.31,1149.572s-3.454,9.67-13.124,13.124l.691,2.072s11.052-3.454,14.5-14.506Z" fill="#383736"/>
                    <path id="Trazado_5310" data-name="Trazado 5310" d="M6438.548,1049.76s-16.659,37.135-6.308,51.572,53.42-2.183,53.42-2.183l4.65-15.538-6.731-12.137s-31.182,24.014-39.082,15.5,4.086-37.21,4.086-37.21Z" fill="#141412"/>
                    <path id="Trazado_5311" data-name="Trazado 5311" d="M6489.64,1067.589l1.381,2.763-8.979,3.454h-2.763l2.072-3.454Z" fill="#383736"/>
                    <path id="Trazado_5312" data-name="Trazado 5312" d="M6443.322,1050.093s-7.9,16.608-7.768,25.4l-3.377-.45s1.66-10.683,8.078-25.947Z" fill="#383736"/>
                    <path id="Trazado_5313" data-name="Trazado 5313" d="M6441.5,1049.733s-6.963,17.978-6.575,22.506l-1.178-.084s3.069-14.759,7.244-22.724Z" fill="#141412"/>
                  </g>
                </g>
                <g id="Grupo_2578" data-name="Grupo 2578">
                  <path id="Trazado_5314" data-name="Trazado 5314" d="M6513.108,1020.947a16.541,16.541,0,0,0,1.331-3.218c.422-1.584,1.1-2.165,2.583-1.777s3.625,11.957-4.139,13.843-7.456-3.755-6.591-5.2S6510.829,1024.976,6513.108,1020.947Z" fill="#e28f56"/>
                  <path id="Trazado_5315" data-name="Trazado 5315" d="M6512.657,1029.221c6.65-1.762,5.809-10.541,4.495-13.179,1.465,1.524,3.135,11.819-4.126,13.743-4.067,1.078-5.938.022-6.677-1.432C6507.27,1029.488,6509.143,1030.152,6512.657,1029.221Z" fill="#c97236"/>
                </g>
                <g id="Grupo_2579" data-name="Grupo 2579">
                  <path id="Trazado_5316" data-name="Trazado 5316" d="M6522.977,1014.051a3.453,3.453,0,1,0,3.449-3.263A3.36,3.36,0,0,0,6522.977,1014.051Z" fill="#231f20"/>
                  <path id="Trazado_5317" data-name="Trazado 5317" d="M6525.394,1013.326a.9.9,0,0,0,.013,1.215c.439.488-.281,1.213-.723.723a1.905,1.905,0,0,1-.172-2.454.528.528,0,0,1,.7-.183.513.513,0,0,1,.183.7Z" fill="#fff"/>
                </g>
                <g id="Grupo_2580" data-name="Grupo 2580">
                  <path id="Trazado_5318" data-name="Trazado 5318" d="M6502.986,1014.051a3.453,3.453,0,1,0,3.449-3.263A3.36,3.36,0,0,0,6502.986,1014.051Z" fill="#231f20"/>
                  <path id="Trazado_5319" data-name="Trazado 5319" d="M6505.4,1013.326a.9.9,0,0,0,.013,1.215c.439.488-.281,1.213-.723.723a1.907,1.907,0,0,1-.172-2.454.528.528,0,0,1,.7-.183.513.513,0,0,1,.183.7Z" fill="#fff"/>
                </g>
                <g id="Grupo_2582" data-name="Grupo 2582">
                  <g id="Grupo_2581" data-name="Grupo 2581">
                    <path id="Trazado_5320" data-name="Trazado 5320" d="M6515.843,1039.483a3.915,3.915,0,0,1-3.8-.225A2.668,2.668,0,0,0,6515.843,1039.483Z" fill="#f29fa0"/>
                    <path id="Trazado_5321" data-name="Trazado 5321" d="M6509.363,1035.994s-.581.106-.373.571C6508.99,1036.565,6508.381,1035.977,6509.363,1035.994Z" fill="#e69f73"/>
                  </g>
                  <path id="Trazado_5322" data-name="Trazado 5322" d="M6520.9,1036.371s1.082-2.587-.968-1.934C6519.937,1034.437,6521.377,1034.351,6520.9,1036.371Z" fill="#3a3a3a"/>
                  <path id="Trazado_5323" data-name="Trazado 5323" d="M6521.091,1034.948s-6,6.312-11.746,1.486c0,0,3.844,3.6,11.242-1.759Z" fill="#3a3a3a"/>
                </g>
                <g id="Grupo_2584" data-name="Grupo 2584">
                  <path id="Trazado_5324" data-name="Trazado 5324" d="M6525.615,1009.913c1.477.075,4.391.1,5.793,1.291s1.2,4.1.774,5.746-1.212,4.207-4.134,5.246a7.31,7.31,0,0,1-8.025-2.095c-1.926-2.213-2.881-5.962-1.689-7.907S6524.073,1009.833,6525.615,1009.913Z" fill="#fff" opacity="0.05"/>
                  <path id="Trazado_5325" data-name="Trazado 5325" d="M6498.845,1010.909c1.424-1.161,4.338-1.137,5.815-1.186,1.544-.051,6.083.447,7.239,2.413s.134,5.7-1.832,7.875a7.308,7.308,0,0,1-8.061,1.949c-2.9-1.092-3.641-3.664-4.039-5.319S6497.422,1012.07,6498.845,1010.909Z" fill="#fff" opacity="0.05"/>
                  <g id="Grupo_2583" data-name="Grupo 2583">
                    <path id="Trazado_5326" data-name="Trazado 5326" d="M6495.9,1010.154l-.015,1.728a.958.958,0,0,1,.775.79c.157.719.212,3.821.976,5.715a6.944,6.944,0,0,0,4.7,4.445,8.283,8.283,0,0,0,6.7-.885,10.031,10.031,0,0,0,3.33-3.85c1.14-2.229,1-4.7,1.269-5.423.2-.542.843-.623,1.5-.617s1.293.1,1.484.644c.255.729.072,3.2,1.171,5.445a10.054,10.054,0,0,0,3.262,3.91,8.294,8.294,0,0,0,6.684,1.006,6.955,6.955,0,0,0,4.784-4.359c.8-1.88.959-4.98,1.128-5.7a1,1,0,0,1,.855-.775l.016-1.728s-.709-.07-1.458-.174a43.727,43.727,0,0,0-6.4-1.082,18.388,18.388,0,0,0-6.125.681c-1.569.442-2.455,1.062-2.911.992a11.21,11.21,0,0,0-4.953-.044c-.457.061-1.328-.575-2.889-1.046a18.369,18.369,0,0,0-6.1-.791,42.994,42.994,0,0,0-6.37.966C6496.54,1010.1,6495.9,1010.154,6495.9,1010.154Zm22.439,2.04c1.192-1.944,5.739-2.361,7.281-2.281,1.477.075,4.391.1,5.793,1.291s1.2,4.1.774,5.746-1.212,4.207-4.134,5.246a7.31,7.31,0,0,1-8.025-2.095C6518.1,1017.888,6517.142,1014.139,6518.334,1012.194Zm-19.489-1.285c1.424-1.161,4.338-1.137,5.815-1.186,1.544-.051,6.083.447,7.239,2.413s.134,5.7-1.832,7.875a7.308,7.308,0,0,1-8.061,1.949c-2.9-1.092-3.641-3.664-4.039-5.319S6497.422,1012.07,6498.845,1010.909Zm34.1,2.787,8.25,3.325.4-1.446-8.359-3.542Z" fill="#0d1642"/>
                    <path id="Trazado_5327" data-name="Trazado 5327" d="M6520.023,1020.1a7.31,7.31,0,0,0,8.025,2.095c2.922-1.039,3.706-3.6,4.134-5.246s.628-4.559-.774-5.746-4.316-1.216-5.793-1.291c-1.542-.08-6.089.337-7.281,2.281S6518.1,1017.888,6520.023,1020.1Z" fill="#212121"/>
                    <path id="Trazado_5328" data-name="Trazado 5328" d="M6498.845,1010.909c1.424-1.161,4.338-1.137,5.815-1.186,1.544-.051,6.083.447,7.239,2.413s.134,5.7-1.832,7.875a7.308,7.308,0,0,1-8.061,1.949c-2.9-1.092-3.641-3.664-4.039-5.319S6497.422,1012.07,6498.845,1010.909Z" fill="#212121"/>
                    <path id="Trazado_5329" data-name="Trazado 5329" d="M6523.524,1010.011l6.691,10.84a5.757,5.757,0,0,1-2.167,1.345,7.624,7.624,0,0,1-1.52.368l-6.721-11.581A11.921,11.921,0,0,1,6523.524,1010.011Z" fill="#515151" opacity="0.58"/>
                    <path id="Trazado_5330" data-name="Trazado 5330" d="M6519.019,1011.464l6.887,11.158a7.358,7.358,0,0,1-1.161-.034l-6.391-10.424A2.762,2.762,0,0,1,6519.019,1011.464Z" fill="#515151" opacity="0.58"/>
                    <path id="Trazado_5331" data-name="Trazado 5331" d="M6504.718,1009.64l4.359,11.441a7.37,7.37,0,0,1-3.921,1.426l-4.971-12.35A17.424,17.424,0,0,1,6504.718,1009.64Z" fill="#515151" opacity="0.58"/>
                    <path id="Trazado_5332" data-name="Trazado 5332" d="M6499.581,1010.394l4.733,12.116a7.464,7.464,0,0,1-1.025-.126l-4.4-11.578A3.531,3.531,0,0,1,6499.581,1010.394Z" fill="#515151" opacity="0.58"/>
                  </g>
                </g>
                <g id="Grupo_2586" data-name="Grupo 2586">
                  <path id="Trazado_5333" data-name="Trazado 5333" d="M6522.338,1104.674l-.228,67.863,27.026-2.836.141-69.862s-3.587-8.748,2.081-27.674l-14.67-5.911S6528.114,1099.891,6522.338,1104.674Z" fill="#141412"/>
                  <g id="Grupo_2585" data-name="Grupo 2585">
                    <path id="Trazado_5334" data-name="Trazado 5334" d="M6543.729,1117.479l-13.312.431-.163,12.818,6.353,3.41,6.917-2.5Z" fill="#4c4c4c"/>
                    <path id="Trazado_5335" data-name="Trazado 5335" d="M6544.2,1120.7l-7.08,2.117-7.181-1.932.195-3.506,13.944-.451Z" fill="#383736"/>
                    <path id="Trazado_5336" data-name="Trazado 5336" d="M6537.164,1123.828l.052,7.214,5.017-.162-4.991.959-5.75-1.555,5.011.647Z" fill="#141412"/>
                    <circle id="Elipse_482" data-name="Elipse 482" cx="0.539" cy="0.539" r="0.539" transform="translate(6536.47 1119.984)" fill="#545454"/>
                  </g>
                  <path id="Trazado_5337" data-name="Trazado 5337" d="M6537.042,1138.188l-.185,15.483A52.82,52.82,0,0,1,6537.042,1138.188Z" fill="#383736"/>
                  <path id="Trazado_5338" data-name="Trazado 5338" d="M6536.6,1094.218l.628,19.379S6536.267,1107.689,6536.6,1094.218Z" fill="#383736"/>
                  <path id="Trazado_5339" data-name="Trazado 5339" d="M6549.379,1168.791l-27.8,2.8.016,1.95,27.843-2.971Z" fill="#383736"/>
                  <path id="Trazado_5340" data-name="Trazado 5340" d="M6535.462,1063.921l-13.124,40.753,14.505-16.578-.69-3.454,7.6-17.268Z" fill="#383736"/>
                  <path id="Trazado_5341" data-name="Trazado 5341" d="M6529.936,1150.953s3.454,9.67,13.124,13.124l-.691,2.072s-11.051-3.453-14.505-14.505Z" fill="#4c4c4c"/>
                  <path id="Trazado_5342" data-name="Trazado 5342" d="M6530.627,1150.262s3.454,9.671,13.124,13.124l-.691,2.072s-11.052-3.453-14.5-14.505Z" fill="#383736"/>
                </g>
                <g id="Grupo_2587" data-name="Grupo 2587">
                  <path id="Trazado_5343" data-name="Trazado 5343" d="M6437.524,1036.071c-.016-.106-.307-1.6-.3-1.7.034-1.037.908-1.368,1.9-1.412l8.035-1.911a1.849,1.849,0,0,1,.968.006,1.892,1.892,0,0,1,1.329,1.727l-.351,11.935a2.067,2.067,0,0,1-.381,1.108,2.542,2.542,0,0,1-2.392,1.109l-4.071.179c-2.291.292-2.853-.725-2.9-1.771Z" fill="#c19063"/>
                </g>
                <path id="Trazado_5344" data-name="Trazado 5344" d="M6447.455,1044.564l.546.489a.85.85,0,0,0,1.2-.065l4.1-3.939a.85.85,0,0,0-.066-1.2l-1.177-1.055a.851.851,0,0,0-1.2.065l-3.469,4.5A.85.85,0,0,0,6447.455,1044.564Z" fill="#ad754e"/>
                <path id="Trazado_5345" data-name="Trazado 5345" d="M6449.414,1034.121l.3-8.249a.6.6,0,0,0-.565-.612l-1.551-.313a.885.885,0,0,0-.753.766l-.567,7.538c-.008.362.85.332,1.21.29l.888.852C6448.674,1034.358,6449.406,1034.417,6449.414,1034.121Z" fill="#c19063"/>
                <path id="Trazado_5346" data-name="Trazado 5346" d="M6440.733,1035.294l-2.46-7.879a.6.6,0,0,0-.737-.389l-1.567.221a.885.885,0,0,0-.454.973l1.974,7.3c.114.344.913.03,1.238-.13l1.121.508C6440.114,1035.764,6440.824,1035.576,6440.733,1035.294Z" fill="#c19063"/>
                <path id="Trazado_5347" data-name="Trazado 5347" d="M6447.017,1031.448s.1-.869-1.089-.971-6.1,1.021-6.64,2.009.34,5.107,2.69,5.209S6448.039,1036.709,6447.017,1031.448Z" fill="#ad754e"/>
                <path id="Trazado_5348" data-name="Trazado 5348" d="M6436.326,1048.079l14.019.716-.891,2.689h-13.127Z" fill="#2d2c2c"/>
              </g>
              <path id="Trazado_5349" data-name="Trazado 5349" d="M6596,1049.76s16.66,37.135,6.309,51.572-53.421-2.183-53.421-2.183l-4.649-15.538,6.731-12.137s31.182,24.014,39.081,15.5-4.086-37.21-4.086-37.21Z" fill="#141412"/>
              <path id="Trazado_5350" data-name="Trazado 5350" d="M6544.911,1067.589l-1.381,2.763,8.979,3.454h2.763l-2.072-3.454Z" fill="#383736"/>
              <path id="Trazado_5351" data-name="Trazado 5351" d="M6591.229,1050.093s7.9,16.608,7.767,25.4l3.378-.45s-1.66-10.683-8.078-25.947Z" fill="#383736"/>
              <path id="Trazado_5352" data-name="Trazado 5352" d="M6593.048,1049.733s6.963,17.978,6.574,22.506l1.179-.084s-3.069-14.759-7.244-22.724Z" fill="#141412"/>
              <path id="Trazado_5353" data-name="Trazado 5353" d="M6599.01,1048.079l-14.019.716.891,2.689h13.127Z" fill="#2d2c2c"/>
            </g>
          </g>
        </g>
        <path id="Trazado_5355" data-name="Trazado 5355" d="M6460.528,1000.858s-34.073-37.695-28.727-39.156S6460.528,1000.858,6460.528,1000.858Z" fill="#ee9321"/>
        <path id="Trazado_5356" data-name="Trazado 5356" d="M6457.728,1004.871s-50.743,2.621-48.5-2.447S6457.728,1004.871,6457.728,1004.871Z" fill="#ee9321"/>
        <path id="Trazado_5357" data-name="Trazado 5357" d="M6456,1000.6s-24.6-12.465-27.034-11.058S6441.876,997.589,6456,1000.6Z" fill="#ee9321"/>
        <path id="Trazado_5358" data-name="Trazado 5358" d="M6567.684,1006.491s52.307-8.392,50.55-2.887S6567.684,1006.491,6567.684,1006.491Z" fill="#ee9321"/>
        <path id="Trazado_5359" data-name="Trazado 5359" d="M6565.765,1001.765s26.519-45.861,29.677-41.023S6565.765,1001.765,6565.765,1001.765Z" fill="#ee9321"/>
        <path id="Trazado_5360" data-name="Trazado 5360" d="M6570.476,1002.678s24.866-14.432,25.018-17.361S6581.133,992.038,6570.476,1002.678Z" fill="#ee9321"/>
      </g>
    </g>
    <rect id="Rectángulo_1897" data-name="Rectángulo 1897" width="232" height="208" transform="translate(6402.172 955.824)" fill="none"/>
  </g>
</svg>
