<svg xmlns="http://www.w3.org/2000/svg" xmlns:xlink="http://www.w3.org/1999/xlink" width="232" height="208" viewBox="0 0 232 208">
  <defs>
    <linearGradient id="linear-gradient" x1="0.017" y1="0.499" x2="0.979" y2="0.499" gradientUnits="objectBoundingBox">
      <stop offset="0" stop-color="#f1e8ff"/>
      <stop offset="0.256" stop-color="#e0d1ff"/>
      <stop offset="1" stop-color="#b393ff"/>
    </linearGradient>
    <linearGradient id="linear-gradient-2" x1="0.031" y1="0.203" x2="1.149" y2="0.203" xlink:href="#linear-gradient"/>
  </defs>
  <g id="Grupo_2606" data-name="Grupo 2606" transform="translate(-6750.417 -966.824)">
    <path id="Trazado_5361" data-name="Trazado 5361" d="M6885.955,994.755s-28.446-35.615-60.411-13.417-48.939,89.021-9.765,135.109,99.945,52.093,136.288,29.536,34.43-75.889,10.849-95.519S6925.759,1041.6,6885.955,994.755Z" fill="url(#linear-gradient)"/>
    <path id="Trazado_5362" data-name="Trazado 5362" d="M6815.719,1142.616s5.089,13.542-6.251,21.491-37.187-4.6-46.962-21.652-6.455-37.618,4.7-41.726S6801.743,1107.289,6815.719,1142.616Z" fill="url(#linear-gradient-2)"/>
    <rect id="Rectángulo_1898" data-name="Rectángulo 1898" width="232" height="208" transform="translate(6750.417 966.824)" fill="none"/>
    <g id="Grupo_2605" data-name="Grupo 2605">
      <g id="Grupo_2595" data-name="Grupo 2595">
        <path id="Trazado_5363" data-name="Trazado 5363" d="M6884.863,1141.738l-.165-.025,1.458-5.735,2.327.03-3.6,5.677" fill="#3f3f3f"/>
        <path id="Trazado_5364" data-name="Trazado 5364" d="M6893.553,1145.619a25.985,25.985,0,0,1,1.349-5.779s-4.289-5.012-7.259-3.865c0,0-7.51,12.641-6.565,19.575s4.616,2.5,4.431,1.072C6885.509,1156.622,6887.1,1148.593,6893.553,1145.619Z" fill="#020202"/>
        <path id="Trazado_5365" data-name="Trazado 5365" d="M6892.979,1138.981c1.074-.549,1.923.859,1.923.859a25.985,25.985,0,0,0-1.349,5.779c-6.458,2.974-8.044,11-8.044,11s-3.822,2.814-.448-6.26C6885.061,1150.362,6887.719,1141.67,6892.979,1138.981Z" fill="#303030"/>
        <path id="Trazado_5366" data-name="Trazado 5366" d="M6886.845,1146.1a29.852,29.852,0,0,0-1.791,4.306c-3.374,9.075.449,6.26.449,6.26a19.163,19.163,0,0,1,1.857-4.875s1.746-5.475-.172-5.663" fill="#3f3f3f"/>
        <path id="Trazado_5367" data-name="Trazado 5367" d="M6889.589,1145.161s.767,2.369-.477,3.819C6889.112,1148.98,6891.357,1147.682,6889.589,1145.161Z" fill="#020202"/>
        <path id="Trazado_5368" data-name="Trazado 5368" d="M6888.66,1146.556s.767,2.37-.477,3.82C6888.183,1150.376,6890.428,1149.078,6888.66,1146.556Z" fill="#020202"/>
        <path id="Trazado_5369" data-name="Trazado 5369" d="M6887.747,1147.851s.766,2.37-.477,3.82C6887.27,1151.671,6889.515,1150.373,6887.747,1147.851Z" fill="#020202"/>
      </g>
      <path id="Trazado_5370" data-name="Trazado 5370" d="M6891.808,979.674l-.351.439a.652.652,0,0,1-.913.1l-3.594-2.463a.651.651,0,0,1-.1-.913l.757-.945a.651.651,0,0,1,.912-.1l3.188,2.97A.651.651,0,0,1,6891.808,979.674Z" fill="#e8955d"/>
      <g id="Grupo_2596" data-name="Grupo 2596">
        <path id="Trazado_5371" data-name="Trazado 5371" d="M6898.173,972.819c0-.082.078-1.243.064-1.325-.127-.784-.823-.951-1.582-.887l-6.292-.667a1.41,1.41,0,0,0-.736.1,1.453,1.453,0,0,0-.841,1.443l1.433,9.035a1.564,1.564,0,0,0,.4.8,1.947,1.947,0,0,0,1.926.609l3.111-.261c1.769,0,2.1-.83,2.028-1.629Z" fill="#f4be9a"/>
      </g>
      <path id="Trazado_5372" data-name="Trazado 5372" d="M6893.51,978l-2.053,2.11.493,10.673h6.076l-1.245-13.211Z" fill="#f4be9a"/>
      <path id="Trazado_5373" data-name="Trazado 5373" d="M6889.864,983.662l8.375,1.538.409,3.857-8.784-1.176-2.006-4.716Z" fill="#efeeed"/>
      <path id="Trazado_5374" data-name="Trazado 5374" d="M6884.5,1042.695l2.9,2.257s5.065-25.077,0-60.316l12.668,1.931s7.591,47.079,1.454,72.978l-10.642-7.692Z" fill="#132030"/>
      <path id="Trazado_5375" data-name="Trazado 5375" d="M6855.7,1113.319s41.466-24.43,71.011-28.723l-29.259-27.465-31.691,10.372Z" fill="#0a141e"/>
      <path id="Trazado_5376" data-name="Trazado 5376" d="M6929.752,1151.464l-35.94-12.881-4.163,8.633,28.905,15.141s7.057,4.043,10.956.729c2.333-1.984.242-11.622.242-11.622" fill="#132030"/>
      <path id="Trazado_5377" data-name="Trazado 5377" d="M6923.242,1154.6l-18.815-31.716c-1.728-3.408-14.538-18.075-8.172-21.695,1.171-.666,3.233.645,4.3.1,5.079-2.576,11.868,1.564,23.336,24.155l7.945,25.7Z" fill="#132030"/>
      <path id="Trazado_5378" data-name="Trazado 5378" d="M6918.573,1110.02s18.168,30.645,13.335,49.209c0,0-1.26,4.141-3.834,4.5-4.086.576-10.1-15.372-11.832-20.935C6914.861,1138.369,6906.65,1115.2,6918.573,1110.02Z" fill="#132030"/>
      <path id="Trazado_5379" data-name="Trazado 5379" d="M6885.668,1091.007s-13.372,8.023-13.557,21.3,5.626,16.6,23.425,15.678,28.773-8.393,27.082-20.1C6920.943,1096.28,6914.441,1084.551,6885.668,1091.007Z" fill="#132030"/>
      <path id="Trazado_5380" data-name="Trazado 5380" d="M6871.108,1044.373s-8.725,3.086-10.848,5.186,8.824,5.027,8.824,5.027,12.448.09,15.264-3.529,1.79-9.527-2.467-9.019A87.628,87.628,0,0,0,6871.108,1044.373Z" fill="#0a141e"/>
      <path id="Trazado_5381" data-name="Trazado 5381" d="M6865.115,1004.693s3.364-1.787,5.846,0,9.094,14.593,7.432,16.7S6865.436,1011.269,6865.115,1004.693Z" fill="#35312f"/>
      <path id="Trazado_5382" data-name="Trazado 5382" d="M6847.171,1013.49s-4.534,1.69-3.676,7.311,6.3,14.56,10.19,14.736,2.389-3.647,2.389-3.647S6857.422,1013.28,6847.171,1013.49Z" fill="#35312f"/>
      <path id="Trazado_5383" data-name="Trazado 5383" d="M6860.848,1040.239a48.826,48.826,0,0,1,8.75,13.142s10.011,2.628,12.649-2.974l-5.594-11.9S6866.761,1035.536,6860.848,1040.239Z" fill="#f4be9a"/>
      <path id="Trazado_5384" data-name="Trazado 5384" d="M6869.073,1039.64l-8.225.6a48.345,48.345,0,0,1,6.043,8.057s8.889,2.385,13.095-2.7l-3.333-7.088Z" fill="#eaa271"/>
      <g id="Grupo_2597" data-name="Grupo 2597">
        <path id="Trazado_5385" data-name="Trazado 5385" d="M6848.006,1125.728l-.082-.145,5.413-2.39,1.412,1.85-6.688.669" fill="#3f3f3f"/>
        <path id="Trazado_5386" data-name="Trazado 5386" d="M6850.312,1134.962a25.935,25.935,0,0,1,5.381-2.5s1.3-6.468-1.437-8.1c0,0-14.581,1.888-19.455,6.909s.881,5.173,1.889,4.149C6836.69,1135.419,6843.988,1131.713,6850.312,1134.962Z" fill="#020202"/>
        <path id="Trazado_5387" data-name="Trazado 5387" d="M6855.182,1130.415c1.1.507.511,2.044.511,2.044a25.935,25.935,0,0,0-5.381,2.5c-6.324-3.249-13.622.457-13.622.457s-4.573-1.273,4.65-4.215C6841.34,1131.2,6849.821,1127.934,6855.182,1130.415Z" fill="#303030"/>
        <path id="Trazado_5388" data-name="Trazado 5388" d="M6845.8,1129.979a29.913,29.913,0,0,0-4.5,1.247c-9.224,2.943-4.65,4.215-4.65,4.215a19.141,19.141,0,0,1,4.983-1.546s5.386-2,4.352-3.629" fill="#3f3f3f"/>
        <path id="Trazado_5389" data-name="Trazado 5389" d="M6848.228,1131.559s-1.392,2.066-3.3,1.981C6844.927,1133.54,6847.334,1134.506,6848.228,1131.559Z" fill="#020202"/>
        <path id="Trazado_5390" data-name="Trazado 5390" d="M6846.556,1131.689s-1.392,2.065-3.3,1.981C6843.256,1133.67,6845.662,1134.636,6846.556,1131.689Z" fill="#020202"/>
        <path id="Trazado_5391" data-name="Trazado 5391" d="M6844.974,1131.769s-1.393,2.065-3.3,1.981C6841.673,1133.75,6844.08,1134.716,6844.974,1131.769Z" fill="#020202"/>
      </g>
      <path id="Trazado_5392" data-name="Trazado 5392" d="M6874.99,1162.67l-19.152-33.027-8.749,3.911,12.318,30.215s2.784,7.642,7.9,7.625c3.062-.01,7.681-8.724,7.681-8.724" fill="#132030"/>
      <path id="Trazado_5393" data-name="Trazado 5393" d="M6868,1160.864l6.084-36.371c.878-3.719.552-23.19,7.751-21.849,1.325.246,2.054,2.578,3.219,2.853,5.542,1.309,8.059,8.852,2.249,33.511l-10.508,24.761Z" fill="#132030"/>
      <path id="Trazado_5394" data-name="Trazado 5394" d="M6881.952,1112.046s-.776,15.331-8.071,14.005a75.647,75.647,0,0,1,2.281-16.787Z" fill="#1e3144"/>
      <path id="Trazado_5395" data-name="Trazado 5395" d="M6877.3,1121.255l-3.247,1.077s-4.62-7.163-1.116-15.279l9.011,3.735Z" fill="#1e3144"/>
      <g id="Grupo_2598" data-name="Grupo 2598">
        <circle id="Elipse_483" data-name="Elipse 483" cx="2.553" cy="2.553" r="2.553" transform="translate(6850.013 1030.691)" fill="#f4be9a"/>
        <circle id="Elipse_484" data-name="Elipse 484" cx="1.497" cy="1.497" r="1.497" transform="translate(6851.068 1031.746)" fill="#eaa271"/>
      </g>
      <g id="Grupo_2599" data-name="Grupo 2599">
        <circle id="Elipse_485" data-name="Elipse 485" cx="2.553" cy="2.553" r="2.553" transform="translate(6875.503 1018.248)" fill="#f4be9a"/>
        <circle id="Elipse_486" data-name="Elipse 486" cx="1.497" cy="1.497" r="1.497" transform="translate(6876.559 1019.303)" fill="#eaa271"/>
      </g>
      <path id="Trazado_5396" data-name="Trazado 5396" d="M6868.5,1062.135c-1.22-.578-11.139-1.008-11.139-1.008s1.106-6.36,14.663-10.3,18.064-1.316,18.064-1.316l-8.223,9.84Z" fill="#f4be9a"/>
      <path id="Trazado_5397" data-name="Trazado 5397" d="M6881.611,1027l-10.25-17.883s-6.191-10.2-16.646-4.171c-11.724,6.76-7.274,16.716-7.274,16.716l1.177,2.378,7.722,16.921s1.751,4.46,8.722,4.55c.957.012,1.768.057,2.473.117l.158.04a14.262,14.262,0,0,0,3.739.419,6.95,6.95,0,0,0,3.391-.693l.006,0a8.277,8.277,0,0,0,4.419-4.279l2.1-3.376A10.425,10.425,0,0,0,6881.611,1027Z" fill="#f4be9a"/>
      <path id="Trazado_5398" data-name="Trazado 5398" d="M6877.106,1043.658l-.006,0a6.937,6.937,0,0,1-3.391.693,14.236,14.236,0,0,1-3.739-.419l-.157-.039c-.706-.06-1.516-.106-2.474-.118-6.97-.09-8.722-4.55-8.722-4.55l-7.722-16.92-1.176-2.378a12.585,12.585,0,0,1,3.8-14.244c-10.219,6.722-6.083,15.98-6.083,15.98l1.177,2.378,7.722,16.921s1.751,4.46,8.722,4.55c.957.012,1.768.057,2.473.117l.158.04a14.221,14.221,0,0,0,3.739.419,6.95,6.95,0,0,0,3.391-.693l.006,0a8.3,8.3,0,0,0,2.94-2.047C6877.558,1043.457,6877.339,1043.562,6877.106,1043.658Z" fill="#f4b387"/>
      <g id="Grupo_2600" data-name="Grupo 2600">
        <path id="Trazado_5399" data-name="Trazado 5399" d="M6866.682,1035.87s5.02-1.368,6.759-3.68c0,0,.385-.255.315.286,0,0,.425,8.74-7.085,3.724C6866.671,1036.2,6866.207,1036.024,6866.682,1035.87Z" fill="#9c322e"/>
        <path id="Trazado_5400" data-name="Trazado 5400" d="M6873.586,1033.2a1.218,1.218,0,0,0,.17-.722c.07-.541-.315-.286-.315-.286-1.739,2.312-6.759,3.68-6.759,3.68-.475.154-.011.33-.011.33q.324.216.627.4S6871.609,1036.148,6873.586,1033.2Z" fill="#fff"/>
        <path id="Trazado_5401" data-name="Trazado 5401" d="M6869.627,1037.626c2.217.543,3.249-.745,3.727-2.168,0,0-.472,1.6-3.727,2.168" fill="#fff"/>
      </g>
      <g id="Grupo_2601" data-name="Grupo 2601">
        <path id="Trazado_5402" data-name="Trazado 5402" d="M6869.073,1021.919s1.654-2.252,3.42-1.876a1.733,1.733,0,0,0-.427-1.581S6869.182,1019.181,6869.073,1021.919Z" fill="#020202"/>
        <path id="Trazado_5403" data-name="Trazado 5403" d="M6870.961,1021.273s.809-.739,1.277-.485" fill="#020202"/>
      </g>
      <g id="Grupo_2602" data-name="Grupo 2602">
        <path id="Trazado_5404" data-name="Trazado 5404" d="M6861.191,1025.766s-2.793-.082-3.583,1.543a1.732,1.732,0,0,1-.983-1.31S6858.966,1024.168,6861.191,1025.766Z" fill="#020202"/>
        <path id="Trazado_5405" data-name="Trazado 5405" d="M6859.52,1026.857s-1.08.183-1.168.708" fill="#020202"/>
      </g>
      <path id="Trazado_5406" data-name="Trazado 5406" d="M6870.751,1027.7a3.852,3.852,0,0,0-2.677,1.754c-.046.05-.089.1-.13.152-.066,0-.133,0-.2.01a3.853,3.853,0,0,0-3.03,1.03c-1.377,1.3-4.306,6.082-3.19,6.665s4.876-1.508,6.079-2.591a5.323,5.323,0,0,0,4.582-2.237c1.594-.282,5.556-1.96,5.783-3.2S6872.619,1027.408,6870.751,1027.7Z" fill="#35312f"/>
      <path id="Trazado_5407" data-name="Trazado 5407" d="M6865.058,1030.359a16.083,16.083,0,0,0-.481,6.256c.4-.193.8-.406,1.18-.626a22.916,22.916,0,0,1-.006-6.045A3.8,3.8,0,0,0,6865.058,1030.359Z" fill="#4c4a48"/>
      <path id="Trazado_5408" data-name="Trazado 5408" d="M6862.214,1034.188a20.47,20.47,0,0,0-.116,3.218,4.458,4.458,0,0,0,1.22-.267,20.32,20.32,0,0,1,.093-4.893A20.625,20.625,0,0,0,6862.214,1034.188Z" fill="#4c4a48"/>
      <path id="Trazado_5409" data-name="Trazado 5409" d="M6866.465,1029.7a15.161,15.161,0,0,0,.751,5.334c.147-.112.278-.219.387-.317a2.96,2.96,0,0,0,.792.023,21.965,21.965,0,0,1-1.262-5.142A4.1,4.1,0,0,0,6866.465,1029.7Z" fill="#4c4a48"/>
      <path id="Trazado_5410" data-name="Trazado 5410" d="M6869.6,1028.068a3.916,3.916,0,0,0-.575.359,23,23,0,0,1,4.943,3.522c.413-.156.844-.337,1.264-.535A15.8,15.8,0,0,0,6869.6,1028.068Z" fill="#4c4a48"/>
      <path id="Trazado_5411" data-name="Trazado 5411" d="M6871.738,1027.629a21.548,21.548,0,0,1,4.686,3.155,6.312,6.312,0,0,0,1.044-.755,19.544,19.544,0,0,0-3.564-2.285A18.5,18.5,0,0,0,6871.738,1027.629Z" fill="#4c4a48"/>
      <path id="Trazado_5412" data-name="Trazado 5412" d="M6868.074,1029.451l-.011.014a20.681,20.681,0,0,1,3.1,4.147,3.926,3.926,0,0,0,.879-.905,15.609,15.609,0,0,0-3.541-3.819A3.254,3.254,0,0,0,6868.074,1029.451Z" fill="#4c4a48"/>
      <path id="Trazado_5413" data-name="Trazado 5413" d="M6875.461,1015.483c-.348-.515-.424-.094-1.023.175l-.035-.034c-1.69-1.6-4.766-.358-5.365-.094a5.362,5.362,0,0,0-3.254,3.174,3.945,3.945,0,0,0-.168,1.243l-.352-.642-.055-.021c-.03-.017-.833-.587-2.387.172-1.471.718-1.557,1.721-1.562,1.756l.013.041.284.654a3.949,3.949,0,0,0-1.069-.621,5.362,5.362,0,0,0-4.5.611c-.577.31-3.446,1.97-3.228,4.283a.515.515,0,0,0,.007.059c-.579.3-.957.106-.765.7.173.533.586.377.948.2.539,1.816,2.08,3.737,3.945,4.119a5.132,5.132,0,0,0,3.3-.471h0a5.878,5.878,0,0,0,2.369-2.081,5.775,5.775,0,0,0,.053-5.531,4.091,4.091,0,0,0-.363-.555l.013-.007-.627-1.383a2.659,2.659,0,0,1,1.427-1.281,2.618,2.618,0,0,1,1.93-.358l.744,1.325.014-.008a4.078,4.078,0,0,0,.213.627,5.8,5.8,0,0,0,4.4,3.374,5.889,5.889,0,0,0,3.1-.579,5.136,5.136,0,0,0,2.4-2.319c.849-1.708.279-4.109-.826-5.653C6875.4,1016.178,6875.775,1015.948,6875.461,1015.483Zm-13.208,13.031a5.521,5.521,0,0,1-2.217,1.957,4.78,4.78,0,0,1-3.068.433,4.6,4.6,0,0,1-2.643-1.856,6.084,6.084,0,0,1-1.2-2.894,3.09,3.09,0,0,1,.965-2.351,8.165,8.165,0,0,1,2.072-1.581c.107-.058.215-.113.321-.165,3.845-1.877,5.514.738,5.809,1.281A5.416,5.416,0,0,1,6862.253,1028.514Zm13.441-9.9a4.586,4.586,0,0,1-.163,3.224A4.776,4.776,0,0,1,6873.3,1024a5.533,5.533,0,0,1-2.908.544,5.418,5.418,0,0,1-4.1-3.157c-.247-.567-1.282-3.491,2.563-5.368.106-.052.216-.1.328-.152a8.148,8.148,0,0,1,2.52-.66,3.088,3.088,0,0,1,2.448.685A6.082,6.082,0,0,1,6875.694,1018.618Z" fill="#323232"/>
      <g id="Grupo_2603" data-name="Grupo 2603">
        <path id="Trazado_5414" data-name="Trazado 5414" d="M6871.369,1022.965h0l-.023.012c-.048.022-.1.043-.145.067l-.05.036a4.264,4.264,0,0,1-5.855-.482c-1.749-1.55-1.917.294-1.9.468a5.564,5.564,0,0,0,5.36,4.952c4.8.231,5.971-1.995,5.985-2.9C6874.757,1024.226,6874.365,1021.6,6871.369,1022.965Z" fill="#f98f69"/>
        <path id="Trazado_5415" data-name="Trazado 5415" d="M6874.619,1024.773c-.015.907-1.181,3.133-5.985,2.9a5.3,5.3,0,0,1-4.974-3.5,5.34,5.34,0,0,0,5.1,3.842c4.8.231,5.971-1.995,5.985-2.9a3.69,3.69,0,0,0-.277-1.443A3.848,3.848,0,0,1,6874.619,1024.773Z" fill="#d36f50"/>
      </g>
      <path id="Trazado_5416" data-name="Trazado 5416" d="M6875.651,1052.225h0l-11.225,1.652a11.382,11.382,0,0,0-8.73,6.605s16.053,30.495,15.723,33.1c-1.429,11.274,1.849,14.679,5.885,16.44,9.232,4.028,34.354,3.292,40.78-2.137,3.889-3.285-2.217-23.663-2.217-23.663L6896.781,1054s-6.7-7.224-10.993-6.881C6882.418,1047.385,6875.651,1052.225,6875.651,1052.225Z" fill="#f9f9f9"/>
      <path id="Trazado_5417" data-name="Trazado 5417" d="M6900.1,1080.141l6.857-1.833,5.245,3.037s25.985,16.947,4.673,27.379l-17.329.128Z" fill="#f9f9f9"/>
      <path id="Trazado_5418" data-name="Trazado 5418" d="M6865.942,1016.514a12.778,12.778,0,0,1,5.142-2.961s.644-.208.147-.768-1.689-1.1-4.563.666S6864.719,1017.4,6865.942,1016.514Z" fill="#35312f"/>
      <path id="Trazado_5419" data-name="Trazado 5419" d="M6865.942,1016.514a12.778,12.778,0,0,1,5.142-2.961s.644-.208.147-.768-1.689-1.1-4.563.666S6864.719,1017.4,6865.942,1016.514Z" fill="#35312f"/>
      <path id="Trazado_5420" data-name="Trazado 5420" d="M6858.219,1020.209a12.763,12.763,0,0,0-5.351,2.564s-.537.413-.717-.314.048-2.015,3.131-3.385S6859.641,1019.7,6858.219,1020.209Z" fill="#35312f"/>
      <path id="Trazado_5421" data-name="Trazado 5421" d="M6848.045,1024.516l5.217,9.7,1.3-.493-2-5.286s-2.8-9.791-5.937-11.872C6846.628,1016.57,6844.929,1019.679,6848.045,1024.516Z" fill="#35312f"/>
      <path id="Trazado_5422" data-name="Trazado 5422" d="M6868.093,1004.336s-1.857.965,1.962,5.932a101.9,101.9,0,0,1,7.919,13.085l1.033-.892-2.134-4.509S6871.75,1003.8,6868.093,1004.336Z" fill="#35312f"/>
      <path id="Trazado_5423" data-name="Trazado 5423" d="M6852.5,1009.364a.489.489,0,0,1-.459-.32c-.072-.194-1.729-4.778.855-6.324a2.143,2.143,0,0,0,1.076-2.217,2.075,2.075,0,0,0-1.332-1.738.49.49,0,0,1,.243-.949,3,3,0,0,1,2.058,2.546,3.114,3.114,0,0,1-1.542,3.2c-1.865,1.116-.455,5.1-.44,5.145a.49.49,0,0,1-.289.629A.482.482,0,0,1,6852.5,1009.364Z" fill="#35312f"/>
      <path id="Trazado_5424" data-name="Trazado 5424" d="M6855.338,1008.809a.489.489,0,0,1-.476-.376c-.048-.2-1.138-4.952,1.613-6.175a2.143,2.143,0,0,0,1.337-2.071,2.075,2.075,0,0,0-1.113-1.886.49.49,0,1,1,.356-.912,3,3,0,0,1,1.735,2.775,3.112,3.112,0,0,1-1.917,2.988c-1.986.883-1.068,5.013-1.058,5.055a.489.489,0,0,1-.477.6Z" fill="#35312f"/>
      <path id="Trazado_5425" data-name="Trazado 5425" d="M6877.3,1055.563s20.692,31.452,26.49,57.017c0,0,5.755-.63,6.82-1.284,0,0-12.306-35.36-30.848-57.3l-2.462-1.723Z" fill="#e2e2e2"/>
      <path id="Trazado_5426" data-name="Trazado 5426" d="M6864.472,1057.439l-8.776-1.876s-27.943,4.55-35.044,10.175,8.776,7.1,21.91,5.718,26.458-1.259,26.458-1.259S6868.771,1060.223,6864.472,1057.439Z" fill="#132030"/>
      <path id="Trazado_5427" data-name="Trazado 5427" d="M6893.184,1123.792s-5.886,35.136-21.555,46.2c0,0-3.634,2.352-5.835.969-3.494-2.2,2.2-18.26,4.465-23.63C6872.061,1143.058,6880.734,1120.057,6893.184,1123.792Z" fill="#132030"/>
      <path id="Trazado_5428" data-name="Trazado 5428" d="M6876.79,1128.633l-3.232-1.027s-2.715,18.8-6.035,25.374l5.534.415Z" fill="#132030"/>
      <path id="Trazado_5429" data-name="Trazado 5429" d="M6905.7,1123.792v2.79s11.528,17.9,13.476,24.258l3.285-12.257Z" fill="#132030"/>
      <path id="Trazado_5430" data-name="Trazado 5430" d="M6892.473,1050.1s16.111,18.129,26.648,23.663a52.686,52.686,0,0,0,21.972,5.5s1.2,10.451-2.49,13.494c0,0-18.721-5.441-39.056-31.816Z" fill="#132030"/>
      <path id="Trazado_5431" data-name="Trazado 5431" d="M6902.154,1061.011l-18.695-15.413,1.045-2.9s2.906,2.164,4.91,3.942a132.121,132.121,0,0,1,12.116,12.908Z" fill="#132030"/>
      <path id="Trazado_5432" data-name="Trazado 5432" d="M6888.066,1047.571l-4.607-1.973s14.224,12.25,20.758,21.083l.853-2.234-13.408-15.8Z" fill="#231f20"/>
      <path id="Trazado_5433" data-name="Trazado 5433" d="M6883.459,1045.6s5.344,1.46,8.019-.266l1.329,7.15h5.772l3.575,11.27Z" fill="#264059"/>
      <path id="Trazado_5434" data-name="Trazado 5434" d="M6875.65,1054.925l2.594.946s3.113,9.337,17.637,9.06,29.188-7.469,33.823-12.1l1.144-6.639h-8.684s-10.789,11.066-22.617,13.487c0,0-12.38,2.766-17.666-2.852l-1.624-1.649,1.03-2.692-3.983-1.408Z" fill="#d81d5b"/>
      <path id="Trazado_5435" data-name="Trazado 5435" d="M6866.981,1049.9a18.082,18.082,0,0,0,10.323,1.176v8.878s-8.911-2.008-12.876-6.069Z" fill="#f9f8f7"/>
      <path id="Trazado_5436" data-name="Trazado 5436" d="M6881.408,1045.332a8.7,8.7,0,0,1-4.1,5.742l7.373,4.489s2.628-3.5,1.5-9.316Z" fill="#f9f8f7"/>
      <path id="Trazado_5437" data-name="Trazado 5437" d="M6867.8,1052.274s7.991,9.572,4.958,24.346c-3.132,15.258-7,32.931-11.909,48.97,0,0-18.063-1.291-20.922-16.784,0,0,2.247-3.8,14.137-15.02,12.4-11.706,5.6-22.7,4.123-25.281l-2.49-12.942,7.715-1.566a18.113,18.113,0,0,1-3.424-3.55Z" fill="#132030"/>
      <path id="Trazado_5438" data-name="Trazado 5438" d="M6871.488,1082.731s0-9.8-4.449-12.935l3.827-3.647a20.326,20.326,0,0,0-8.675-8.157l5.608-5.718S6878.209,1064.512,6871.488,1082.731Z" fill="#264059"/>
      <path id="Trazado_5439" data-name="Trazado 5439" d="M6850.158,1077.958l7.193.784-1.162,4.581-6.964-.536Z" fill="#f4be9a"/>
      <path id="Trazado_5440" data-name="Trazado 5440" d="M6827.661,1067.859l1.014,2.029s13.46,3.3,23.143,5.786l-1.521,9.821s-20.238-2.594-25.31-4.951-9.031-9.14-5.346-13.863Z" fill="#132030"/>
      <path id="Trazado_5441" data-name="Trazado 5441" d="M6854.541,1079.042l-.369-.424a.651.651,0,0,1,.065-.916l3.066-3.095a.652.652,0,0,1,.916.064l.794.914a.65.65,0,0,1-.064.916l-3.492,2.6A.652.652,0,0,1,6854.541,1079.042Z" fill="#e8955d"/>
      <g id="Grupo_2604" data-name="Grupo 2604">
        <path id="Trazado_5442" data-name="Trazado 5442" d="M6860.146,1086.531c.081.017,1.21.3,1.292.3.795.015,1.083-.64,1.156-1.4l1.783-6.072a1.4,1.4,0,0,0,.035-.741,1.45,1.45,0,0,0-1.269-1.085l-9.145-.208a1.583,1.583,0,0,0-.864.247,1.949,1.949,0,0,0-.944,1.786l-.3,3.107c-.315,1.741.441,2.212,1.239,2.288Z" fill="#f4be9a"/>
      </g>
      <path id="Trazado_5443" data-name="Trazado 5443" d="M6838.358,1071.8l-10.25.145,31.878-3.488-1.141,1.223Z" fill="#0d1a26"/>
    </g>
    <path id="Trazado_5444" data-name="Trazado 5444" d="M6830.692,1031.966s-65.583-20.84-60.327-26.2S6830.692,1031.966,6830.692,1031.966Z" fill="#f09521"/>
    <path id="Trazado_5445" data-name="Trazado 5445" d="M6830.156,1038.571s-57.57,37.7-58.406,30.24S6830.156,1038.571,6830.156,1038.571Z" fill="#f09521"/>
    <path id="Trazado_5446" data-name="Trazado 5446" d="M6825.225,1034.757s-37.282,2.208-39.171,5.517S6806.643,1040.871,6825.225,1034.757Z" fill="#f09521"/>
    <path id="Trazado_5447" data-name="Trazado 5447" d="M6914.145,1018.25s58.28,3.7,55.052,9.191S6914.145,1018.25,6914.145,1018.25Z" fill="#f09521"/>
    <path id="Trazado_5448" data-name="Trazado 5448" d="M6913.231,1012.7s39.668-42.856,41.887-36.886S6913.231,1012.7,6913.231,1012.7Z" fill="#f09521"/>
    <path id="Trazado_5449" data-name="Trazado 5449" d="M6918.074,1014.83s30.247-9.469,31.123-12.581S6932.121,1005.982,6918.074,1014.83Z" fill="#f09521"/>
  </g>
</svg>
