<svg xmlns="http://www.w3.org/2000/svg" xmlns:xlink="http://www.w3.org/1999/xlink" width="176" height="176" viewBox="0 0 176 176">
  <defs>
    <clipPath id="clip-path">
      <path id="Trazado_2205" data-name="Trazado 2205" d="M537.676,46.385S486.46,20.374,463.127,57.774c-20,32.066-8.08,39.753-19.373,61.146-16.386,31.04-7.615,77.535,53.875,63.539s106.179-22.39,106.543-60.295C604.394,99,604.179,82.857,537.676,46.385Z" transform="translate(-436.511 -37.582)" fill="none"/>
    </clipPath>
    <linearGradient id="linear-gradient" x1="0.127" y1="0.111" x2="0.813" y2="0.89" gradientUnits="objectBoundingBox">
      <stop offset="0.091" stop-color="#b393ff"/>
      <stop offset="0.457" stop-color="#9c76f7"/>
      <stop offset="1" stop-color="#7546eb"/>
    </linearGradient>
  </defs>
  <g id="Grupo_3264" data-name="Grupo 3264" transform="translate(-92 -96)">
    <g id="Grupo_1316" data-name="Grupo 1316" transform="translate(-340.353 74.418)">
      <g id="Grupo_1315" data-name="Grupo 1315" transform="translate(436.511 37.582)" clip-path="url(#clip-path)">
        <path id="Trazado_2180" data-name="Trazado 2180" d="M537.676,46.385S486.46,20.374,463.127,57.774c-20,32.066-8.08,39.753-19.373,61.146-16.386,31.04-7.615,77.535,53.875,63.539s106.179-22.39,106.543-60.295C604.394,99,604.179,82.857,537.676,46.385Z" transform="translate(-436.511 -37.582)" fill="url(#linear-gradient)"/>
        <g id="Grupo_1304" data-name="Grupo 1304" transform="translate(99.116 -2.926)">
          <g id="Grupo_1303" data-name="Grupo 1303" transform="translate(0 40.196)">
            <path id="Trazado_2181" data-name="Trazado 2181" d="M613.393,120.43c-.141.08-2.077,1.307-2.23,1.361-1.476.52-2.421-.527-3.025-1.9l-7.092-10.249a2.777,2.777,0,0,1-.523-1.363,2.857,2.857,0,0,1,1.7-2.815l16.971-6.049a3.108,3.108,0,0,1,1.767-.071c1.878.477,2.321,1.51,2.87,2.755l2.483,5.624c1.667,3.06.545,4.408-.9,5.044Z" transform="translate(-600.515 -99.251)" fill="#854c17"/>
          </g>
          <path id="Trazado_2182" data-name="Trazado 2182" d="M627.3,76.986,710.725,32.74,724.713,46.71,633.842,84.475Z" transform="translate(-611.111 -32.74)" fill="#854c17"/>
          <path id="Trazado_2183" data-name="Trazado 2183" d="M629.587,119.565a8.119,8.119,0,0,1,4.946-7.067A15.08,15.08,0,0,0,629.587,119.565Z" transform="translate(-612.017 -64.296)" fill="#633611"/>
        </g>
        <g id="Grupo_1306" data-name="Grupo 1306" transform="translate(-8.73 106.604)">
          <g id="Grupo_1305" data-name="Grupo 1305" transform="translate(57.55)">
            <path id="Trazado_2184" data-name="Trazado 2184" d="M539.556,229.443c.111-.119,1.753-1.718,1.841-1.854.847-1.316.048-2.477-1.145-3.384l-8.324-9.274a2.775,2.775,0,0,0-1.206-.825,2.856,2.856,0,0,0-3.132,1l-9.819,15.105a3.105,3.105,0,0,0-.479,1.7c.029,1.938.931,2.608,2.014,3.43l4.9,3.72c2.59,2.33,4.162,1.552,5.115.293Z" transform="translate(-517.292 -213.976)" fill="#c19063"/>
          </g>
          <path id="Trazado_2185" data-name="Trazado 2185" d="M484.451,238.321l-62.385,70.9,10.347,16.846,57.806-79.637Z" transform="translate(-422.066 -223.608)" fill="#c19063"/>
          <path id="Trazado_2186" data-name="Trazado 2186" d="M528.339,248.929a8.119,8.119,0,0,1,8.414-1.9A15.084,15.084,0,0,0,528.339,248.929Z" transform="translate(-464.113 -226.883)" fill="#ad754e"/>
        </g>
        <g id="Grupo_1308" data-name="Grupo 1308" transform="translate(104.456 95.27)">
          <g id="Grupo_1307" data-name="Grupo 1307">
            <path id="Trazado_2187" data-name="Trazado 2187" d="M611.545,210.689c-.111-.118-1.753-1.717-1.841-1.854-.848-1.315-.049-2.477,1.145-3.383l8.324-9.274a2.777,2.777,0,0,1,1.206-.826,2.856,2.856,0,0,1,3.132,1l9.82,15.106a3.109,3.109,0,0,1,.479,1.7c-.029,1.938-.931,2.608-2.014,3.431l-4.9,3.719c-2.59,2.331-4.162,1.552-5.115.293Z" transform="translate(-609.351 -195.222)" fill="#f2bc98"/>
          </g>
          <path id="Trazado_2188" data-name="Trazado 2188" d="M638.044,219.568l62.385,70.9-10.347,16.846-57.806-79.637Z" transform="translate(-618.422 -204.854)" fill="#f2bc98"/>
          <path id="Trazado_2189" data-name="Trazado 2189" d="M627.159,227.816a8.119,8.119,0,0,1,8.413,1.9A15.084,15.084,0,0,0,627.159,227.816Z" transform="translate(-616.397 -207.937)" fill="#d89e77"/>
        </g>
        <path id="Trazado_2190" data-name="Trazado 2190" d="M584.083,78.333,559.237,90.609a3.514,3.514,0,0,0-1.594,4.707l4.406,8.919a4.562,4.562,0,1,1,3.462,7.009l4.407,8.918a3.515,3.515,0,0,0,4.707,1.594l9.451-4.67a4.033,4.033,0,1,0,5.9-2.917l9.49-4.689a3.515,3.515,0,0,0,1.594-4.708L588.791,79.927A3.515,3.515,0,0,0,584.083,78.333Z" transform="translate(-484.293 -53.561)" fill="#fbb040"/>
        <g id="Grupo_1309" data-name="Grupo 1309" transform="translate(72.99 24.408)">
          <path id="Trazado_2191" data-name="Trazado 2191" d="M558.152,94.418,583,82.142a3.515,3.515,0,0,1,4.708,1.594l12.276,24.846a3.378,3.378,0,0,1,.181.449,3.513,3.513,0,0,0,.908-4.258L588.793,79.927a3.515,3.515,0,0,0-4.708-1.594L559.24,90.609a3.512,3.512,0,0,0-1.774,4.258A3.506,3.506,0,0,1,558.152,94.418Z" transform="translate(-557.285 -77.969)" fill="#efa13a"/>
        </g>
        <path id="Trazado_2192" data-name="Trazado 2192" d="M549.229,187.952a4.535,4.535,0,0,1,1.507-.6l-5.079-8.161a3.514,3.514,0,0,0-4.84-1.127l-9,5.6a4.033,4.033,0,1,0-5.523,3.438l-9,5.6a3.514,3.514,0,0,0-1.127,4.841L530.8,221.08a3.515,3.515,0,0,0,4.841,1.127l23.529-14.642a3.515,3.515,0,0,0,1.126-4.841l-5.078-8.161a4.534,4.534,0,1,1-5.992-6.61Z" transform="translate(-467.814 -92.955)" fill="#1d5a69"/>
        <g id="Grupo_1310" data-name="Grupo 1310" transform="translate(47.816 99.909)">
          <path id="Trazado_2193" data-name="Trazado 2193" d="M560.261,213.246l-23.529,14.642a3.515,3.515,0,0,1-4.841-1.127l-14.642-23.529a3.6,3.6,0,0,1-.182-.334,3.512,3.512,0,0,0-.906,4.687L530.8,231.113a3.515,3.515,0,0,0,4.841,1.128L559.173,217.6a3.515,3.515,0,0,0,1.31-4.507C560.41,213.145,560.338,213.2,560.261,213.246Z" transform="translate(-515.631 -202.898)" fill="#175059"/>
        </g>
        <path id="Trazado_2194" data-name="Trazado 2194" d="M616.664,152.375l-9.432,2.927a4.63,4.63,0,1,1-7.644,2.372l-9.392,2.915a3.514,3.514,0,0,0-2.315,4.4l3.02,9.732a4.033,4.033,0,1,0,2.174,7l3.02,9.732a3.514,3.514,0,0,0,4.4,2.315l26.467-8.214a3.515,3.515,0,0,0,2.315-4.4l-8.214-26.468A3.515,3.515,0,0,0,616.664,152.375Z" transform="translate(-495.795 -82.937)" fill="#b9e7ed"/>
        <g id="Grupo_1311" data-name="Grupo 1311" transform="translate(100.636 69.283)">
          <path id="Trazado_2195" data-name="Trazado 2195" d="M635.876,181.159l-8.214-26.468a3.512,3.512,0,0,0-4.144-2.38,3.511,3.511,0,0,1,.335.748l8.214,26.468a3.515,3.515,0,0,1-2.315,4.4l-26.468,8.214c-.085.027-.17.046-.254.065a3.512,3.512,0,0,0,4.063,1.567l26.468-8.214A3.515,3.515,0,0,0,635.876,181.159Z" transform="translate(-603.03 -152.222)" fill="#add8db"/>
        </g>
        <path id="Trazado_2196" data-name="Trazado 2196" d="M523.978,231.412l-1.1-.118a1.282,1.282,0,0,1-1.135-1.408l.278-8.576a1.281,1.281,0,0,1,1.408-1.134l2.372.254a1.282,1.282,0,0,1,1.135,1.408l-1.549,8.439A1.283,1.283,0,0,1,523.978,231.412Z" transform="translate(-470.23 -109.822)" fill="#ad754e"/>
        <path id="Trazado_2197" data-name="Trazado 2197" d="M641.526,212.658l1.1-.118a1.283,1.283,0,0,0,1.135-1.408l-.278-8.575a1.282,1.282,0,0,0-1.408-1.135l-2.372.254a1.283,1.283,0,0,0-1.135,1.408l1.549,8.439A1.283,1.283,0,0,0,641.526,212.658Z" transform="translate(-516.453 -102.402)" fill="#d18350"/>
        <path id="Trazado_2198" data-name="Trazado 2198" d="M620.841,101.668l.14-1.1a1.283,1.283,0,0,0-1.107-1.43l-8.406-1.718a1.282,1.282,0,0,0-1.43,1.106l-.3,2.367a1.282,1.282,0,0,0,1.106,1.43l8.568.45A1.283,1.283,0,0,0,620.841,101.668Z" transform="translate(-505.044 -61.253)" fill="#633611"/>
        <g id="Grupo_1313" data-name="Grupo 1313" transform="translate(-50.762 -7.3)">
          <g id="Grupo_1312" data-name="Grupo 1312" transform="translate(80.241 44.69)">
            <path id="Trazado_2199" data-name="Trazado 2199" d="M506.929,104.57c.15.061,2.312.823,2.449.91,1.321.838,1.084,2.228.381,3.551l-3.665,11.912a2.774,2.774,0,0,1-.748,1.255,2.857,2.857,0,0,1-3.263.406l-15.251-9.591a3.109,3.109,0,0,1-1.149-1.344c-.787-1.771-.249-2.758.389-3.959l2.883-5.431c1.373-3.2,3.126-3.155,4.52-2.412Z" transform="translate(-485.29 -99.45)" fill="#f2bc98"/>
          </g>
          <path id="Trazado_2200" data-name="Trazado 2200" d="M438.894,83.31,352.518,45.136,354.841,25.5l85.888,48.031Z" transform="translate(-352.518 -25.503)" fill="#f2bc98"/>
          <path id="Trazado_2201" data-name="Trazado 2201" d="M499.639,107.243a8.118,8.118,0,0,1-8.436,1.8A15.081,15.081,0,0,0,499.639,107.243Z" transform="translate(-407.388 -57.844)" fill="#d89e77"/>
        </g>
        <path id="Trazado_2202" data-name="Trazado 2202" d="M527.805,123.781a4.016,4.016,0,0,0-2.113,1.469l-2.968-10.223a3.514,3.514,0,0,0-4.355-2.4l-26.614,7.727a3.514,3.514,0,0,0-2.4,4.355l7.727,26.614a3.515,3.515,0,0,0,4.355,2.4l9.821-2.851a4.343,4.343,0,1,1,6.971-2.025L528.056,146a3.515,3.515,0,0,0,2.4-4.355l-2.969-10.223a4.033,4.033,0,1,0,.322-7.637Z" transform="translate(-457.365 -67.22)" fill="#ffccef"/>
        <g id="Grupo_1314" data-name="Grupo 1314" transform="translate(31.855 45.272)">
          <path id="Trazado_2203" data-name="Trazado 2203" d="M494.258,127.979a3.514,3.514,0,0,1,2.4-4.355L523,115.974l-.275-.947a3.514,3.514,0,0,0-4.355-2.4l-26.614,7.727a3.514,3.514,0,0,0-2.4,4.355l7.727,26.614a3.515,3.515,0,0,0,4.355,2.4l.267-.077Z" transform="translate(-489.22 -112.492)" fill="#f4b8e5"/>
        </g>
        <path id="Trazado_2204" data-name="Trazado 2204" d="M491.173,119.6l-.69.865a1.282,1.282,0,0,0,.2,1.8l6.289,5.836a1.282,1.282,0,0,0,1.8-.2l1.488-1.864a1.283,1.283,0,0,0-.2-1.8L492.97,119.4A1.282,1.282,0,0,0,491.173,119.6Z" transform="translate(-457.755 -69.843)" fill="#d18350"/>
      </g>
    </g>
    <rect id="Rectángulo_1878" data-name="Rectángulo 1878" width="176" height="176" transform="translate(92 96)" fill="none"/>
  </g>
</svg>
