<svg xmlns="http://www.w3.org/2000/svg" xmlns:xlink="http://www.w3.org/1999/xlink" width="104" height="104" viewBox="0 0 104 104">
  <defs>
    <linearGradient id="linear-gradient" y1="0.5" x2="1" y2="0.5" gradientUnits="objectBoundingBox">
      <stop offset="0" stop-color="#4a1ed9"/>
      <stop offset="0.917" stop-color="#5d2af5"/>
      <stop offset="1" stop-color="#602cf8"/>
    </linearGradient>
    <linearGradient id="linear-gradient-2" x1="7.46" y1="16.181" x2="8.473" y2="16.181" xlink:href="#linear-gradient"/>
  </defs>
  <g id="Grupo_2611" data-name="Grupo 2611" transform="translate(-40 -196)">
    <rect id="Rectángulo_1900" data-name="Rectángulo 1900" width="104" height="104" transform="translate(40 196)" fill="none"/>
    <g id="Grupo_2610" data-name="Grupo 2610" transform="translate(-1.869 51.879)">
      <g id="Grupo_1663" data-name="Grupo 1663" transform="translate(44 146)">
        <path id="Trazado_3257" data-name="Trazado 3257" d="M446.593,927.865s-32.311-5.219-41.433,18.284c-9.711,25.019,5.808,34,27.669,53.384,24.185,21.441,75.73-7.505,67.461-43.791C494.944,932.277,482.46,935.836,446.593,927.865Z" transform="translate(-402.205 -907.599)" fill="url(#linear-gradient)"/>
        <path id="Trazado_3258" data-name="Trazado 3258" d="M425.65,943.873l14.972,41.659,66.506-8.746-14.883-59.238Z" transform="translate(-407.541 -905.417)" fill="#f7941d"/>
        <path id="Trazado_3259" data-name="Trazado 3259" d="M425.65,943.873l33.3,26.572,25.6-26.572v35.882l22.578-2.969-14.883-59.238Z" transform="translate(-407.541 -905.417)" fill="#e58217" opacity="0.74"/>
        <path id="Trazado_3260" data-name="Trazado 3260" d="M425.65,943.873l31.263,19.748,35.333-46.073Z" transform="translate(-407.541 -905.417)" fill="#f4bc1e"/>
        <path id="Trazado_3261" data-name="Trazado 3261" d="M469.363,918.267s6.389,2.272,9.127-2.18c2.915-4.74.089-7.152-3.641-11.923-4.126-5.278-15.712-1.3-15.385,6.41C459.676,915.56,462.353,915.3,469.363,918.267Z" transform="translate(-420.04 -901.76)" fill="url(#linear-gradient-2)"/>
      </g>
    </g>
  </g>
</svg>
