<svg xmlns="http://www.w3.org/2000/svg" xmlns:xlink="http://www.w3.org/1999/xlink" width="104" height="104" viewBox="0 0 104 104">
  <defs>
    <linearGradient id="linear-gradient" y1="0.5" x2="1" y2="0.5" gradientUnits="objectBoundingBox">
      <stop offset="0" stop-color="#4a1ed9"/>
      <stop offset="0.917" stop-color="#5d2af5"/>
      <stop offset="1" stop-color="#602cf8"/>
    </linearGradient>
    <clipPath id="clip-path">
      <path id="Trazado_3368" data-name="Trazado 3368" d="M374.887,922.61s-30.793-4.938-39.487,17.3c-9.255,23.675,5.535,32.175,26.37,50.515,23.048,20.289,72.172-7.1,64.293-41.437C420.967,926.785,409.07,930.153,374.887,922.61Z" transform="translate(-332.584 -922.143)" fill="none"/>
    </clipPath>
    <linearGradient id="linear-gradient-2" x1="4.777" y1="7.537" x2="5.832" y2="7.537" xlink:href="#linear-gradient"/>
  </defs>
  <g id="Grupo_2609" data-name="Grupo 2609" transform="translate(-40 -360)">
    <g id="Grupo_2608" data-name="Grupo 2608" transform="translate(-277.387 -527.041)">
      <path id="Trazado_3364" data-name="Trazado 3364" d="M374.887,922.61s-30.793-4.938-39.487,17.3c-9.255,23.675,5.535,32.175,26.37,50.515,23.048,20.289,72.172-7.1,64.293-41.437C420.967,926.785,409.07,930.153,374.887,922.61Z" transform="translate(-6.522 -15.008)" fill="url(#linear-gradient)"/>
      <g id="Grupo_1700" data-name="Grupo 1700" transform="translate(326.061 907.135)">
        <g id="Grupo_1699" data-name="Grupo 1699" transform="translate(0)" clip-path="url(#clip-path)">
          <g id="Grupo_1698" data-name="Grupo 1698" transform="translate(26.002 27.551)">
            <g id="Grupo_1697" data-name="Grupo 1697">
              <path id="Trazado_3365" data-name="Trazado 3365" d="M382.271,986.943c-.1-.107-1.581-1.536-1.66-1.658-.764-1.176-.044-2.216,1.032-3.026l7.507-8.3a2.5,2.5,0,0,1,1.087-.738,2.589,2.589,0,0,1,2.825.9l8.855,13.512a2.761,2.761,0,0,1,.432,1.523,3.427,3.427,0,0,1-1.817,3.068l-4.414,3.328c-2.336,2.085-3.752,1.388-4.612.262Z" transform="translate(-380.293 -973.108)" fill="#f2bc98"/>
            </g>
            <path id="Trazado_3366" data-name="Trazado 3366" d="M408.419,997.454l56.259,63.416-9.331,15.069L403.218,1004.7Z" transform="translate(-390.724 -984.292)" fill="#f2bc98"/>
            <path id="Trazado_3367" data-name="Trazado 3367" d="M398.1,1005.654a7.368,7.368,0,0,1,7.586,1.7A13.684,13.684,0,0,0,398.1,1005.654Z" transform="translate(-388.396 -987.872)" fill="#d89e77"/>
          </g>
        </g>
      </g>
      <path id="Trazado_3369" data-name="Trazado 3369" d="M333.061,1033.894s-6.987-4.873-11.782-.387c-5.1,4.776-2.481,8.637.455,15.655,3.248,7.763,18.606,6.789,20.768-2.662C343.9,1040.389,340.571,1039.815,333.061,1033.894Z" transform="translate(0 -65.298)" fill="url(#linear-gradient-2)"/>
      <path id="Trazado_3370" data-name="Trazado 3370" d="M318.386,902.631l23.084,48.67,47.117-14.025-12.216-49.451Z" transform="translate(0 0)" fill="#b9e7ed"/>
      <path id="Trazado_3371" data-name="Trazado 3371" d="M340.98,913.631l14.285,39.148,35.258-12.291-7.841-36.874Z" transform="translate(-10.38 -7.254)" fill="#cdf6f9"/>
      <path id="Trazado_3372" data-name="Trazado 3372" d="M412.155,989.358l.985-.106a1.147,1.147,0,0,0,1.015-1.26l-.248-7.67a1.147,1.147,0,0,0-1.259-1.015l-2.122.228a1.148,1.148,0,0,0-1.015,1.26l1.386,7.549A1.147,1.147,0,0,0,412.155,989.358Z" transform="translate(-41.471 -41.61)" fill="#d18350"/>
      <g id="Grupo_1701" data-name="Grupo 1701" transform="translate(345.331 907.218)">
        <path id="Trazado_3373" data-name="Trazado 3373" d="M390.861,934.7l-4.707,4.705a6.576,6.576,0,0,1-10.422-1.342l2.187-2.187a1.565,1.565,0,0,1,.355-.236,3.278,3.278,0,0,0,.822,1.412,3.331,3.331,0,0,0,4.705,0l4.706-4.706a3.328,3.328,0,0,0-4.706-4.706l-1.673,1.675a8.352,8.352,0,0,0-4.245-.462l3.566-3.566a6.656,6.656,0,0,1,9.413,9.412Zm-12.444,7.737-1.675,1.675a3.328,3.328,0,0,1-4.706-4.708l4.706-4.705a3.329,3.329,0,0,1,4.706,0,3.3,3.3,0,0,1,.822,1.41,1.6,1.6,0,0,0,.354-.233l2.187-2.186a6.535,6.535,0,0,0-1.01-1.343,6.656,6.656,0,0,0-9.412,0l-4.706,4.706a6.655,6.655,0,0,0,9.412,9.412l3.567-3.566A8.35,8.35,0,0,1,378.417,942.441Z" transform="translate(-367.735 -923.342)" fill="#9ccfd3"/>
      </g>
    </g>
    <rect id="Rectángulo_1899" data-name="Rectángulo 1899" width="104" height="104" transform="translate(40 360)" fill="none"/>
  </g>
</svg>
