<svg xmlns="http://www.w3.org/2000/svg" xmlns:xlink="http://www.w3.org/1999/xlink" width="272" height="221.938" viewBox="0 0 272 221.938">
  <defs>
    <clipPath id="clip-path">
      <path id="Trazado_4570" data-name="Trazado 4570" d="M3089.94,1540.223v-45.452h-88.7v22.981c-36.613,1.887-64.2,21.774-79.734,36.432v153.9s50.4-40.273,100.187-13.686,108.417,31.652,171.813,2.93V1536.708C3171.477,1549.083,3142.135,1555.7,3089.94,1540.223Z" transform="translate(-2921.505 -1494.771)" fill="none"/>
    </clipPath>
  </defs>
  <g id="Grupo_2393" data-name="Grupo 2393" transform="translate(-2921.505 -1494.771)">
    <path id="Trazado_4496" data-name="Trazado 4496" d="M3193.5,1695.648V1535.029c-26.72,15.013-64.169,21.579-140.163-9.518-62.723-25.667-109.6,6.022-131.837,26.994v153.9s50.4-40.273,100.187-13.687S3130.108,1724.37,3193.5,1695.648Z" transform="translate(0 1.679)" fill="#f1e8ff"/>
    <path id="Trazado_4497" data-name="Trazado 4497" d="M3094.045,1528.506s26.541,11.114,48.354,2.049,5.277-38.631-9.932-29.9-25.524,3.628-31.823,1.881-12.641,1.085-15.138,5.869C3082.632,1513.915,3083.564,1523.8,3094.045,1528.506Z" transform="translate(22.905 6.735)" fill="#f1e8ff"/>
    <g id="Grupo_2392" data-name="Grupo 2392" transform="translate(2921.505 1494.771)">
      <g id="Grupo_2391" data-name="Grupo 2391" clip-path="url(#clip-path)">
        <g id="Grupo_2390" data-name="Grupo 2390" transform="translate(34.209 9.138)">
          <path id="Trazado_4498" data-name="Trazado 4498" d="M2994.27,1643.147s-34.388,22.3-41.071,80.9l9.606,3.045s2.737-47.644,35.918-75.114Z" transform="translate(-2953.199 -1492.133)" fill="#cc8b50"/>
          <path id="Trazado_4499" data-name="Trazado 4499" d="M3009.442,1556.313l-5.55,12.919s-1.163,10.583,3.132,12.311,11.209-17.494,10.811-17.721S3009.442,1556.313,3009.442,1556.313Z" transform="translate(-2949.187 -1499.025)" fill="#231f20"/>
          <path id="Trazado_4500" data-name="Trazado 4500" d="M3005.651,1535.485s-5.138,9.858-4.611,16.558l2.286-4.2-1.424,8.641,1.424-2.526s-1.037,11.034,2.325,13.693a41.644,41.644,0,0,0,7.881,4.629l18.213-43.58Z" transform="translate(-2949.405 -1501.216)" fill="#231f20"/>
          <path id="Trazado_4501" data-name="Trazado 4501" d="M3069.179,1549.362s5.826,10.734,4.178,18.144-8.932,20.172-8.932,20.172l-12.516-16.092Z" transform="translate(-2945.365 -1499.576)" fill="#231f20"/>
          <path id="Trazado_4502" data-name="Trazado 4502" d="M3023.443,1607.451l3.448,23.5h18.375l1.978-24.083Z" transform="translate(-2947.624 -1495.012)" fill="#cc8b50"/>
          <path id="Trazado_4503" data-name="Trazado 4503" d="M3024.586,1615.24s13.343,6.4,21.945.312l.713-8.679-23.8.577Z" transform="translate(-2947.624 -1495.012)" fill="#bf7d47"/>
          <path id="Trazado_4504" data-name="Trazado 4504" d="M3035.5,1623.854l-37.244,6.013s-12.7,7.124.889,21.728l10.949,81.6s27.276,8.2,58.033-3.92l6.676-76.13s16.427-11.067,0-24.821Z" transform="translate(-2950.051 -1493.664)" fill="#cc8b50"/>
          <path id="Trazado_4505" data-name="Trazado 4505" d="M3074.4,1628.652l-20.542,15.2L3006,1635.106l-8.141-4.913s27.3-11.442,41.992-10.366,25.973,5.323,34.556,8.826" transform="translate(-2949.655 -1493.99)" fill="#cc8b50"/>
          <ellipse id="Elipse_420" data-name="Elipse 420" cx="22.889" cy="29.508" rx="22.889" ry="29.508" transform="translate(58.21 256.186) rotate(-87.768)" fill="#cc8b50"/>
          <g id="Grupo_2377" data-name="Grupo 2377" transform="translate(41.224 126.365)">
            <g id="Grupo_2376" data-name="Grupo 2376">
              <path id="Trazado_4506" data-name="Trazado 4506" d="M3056.784,1620.31c11.508,4.048,21.646,7.762,21.646,7.762,19.882,11.111,2.012,26.572,2.012,26.572l-3.261,103.857H3000.6l-2.235-100.068s-5.493-2.948-6.826-13.474,6.6-14.956,6.6-14.956,5.771-2.513,18.276-7.19a35.911,35.911,0,0,1,5.322-2.118s2.278,15.681,14.9,16.479S3056.784,1620.31,3056.784,1620.31Z" transform="translate(-2991.392 -1620.31)" fill="#262626"/>
            </g>
          </g>
          <g id="Grupo_2378" data-name="Grupo 2378" transform="translate(117.313 62.59)">
            <circle id="Elipse_421" data-name="Elipse 421" cx="5.34" cy="5.34" r="5.34" fill="#cc8b50"/>
            <circle id="Elipse_422" data-name="Elipse 422" cx="3.132" cy="3.132" r="3.132" transform="translate(2.207 2.207)" fill="#bf7d47"/>
          </g>
          <g id="Grupo_2379" data-name="Grupo 2379" transform="translate(52.497 62.59)">
            <circle id="Elipse_423" data-name="Elipse 423" cx="5.34" cy="5.34" r="5.34" fill="#cc8b50"/>
            <circle id="Elipse_424" data-name="Elipse 424" cx="3.132" cy="3.132" r="3.132" transform="translate(2.207 2.207)" fill="#bf7d47"/>
          </g>
          <path id="Trazado_4507" data-name="Trazado 4507" d="M3006.1,1590.039l1.2-48.932s3.349-20.857,35.61-19.289,29.9,29.737,29.9,29.737l-.163.032-2.986,41.3a13.766,13.766,0,0,1-5.931,12.075l-11.512,8.9c-16.4,12.394-27.912,1.59-27.912,1.59l-7.489-4.684C3004.268,1602.818,3006.1,1590.039,3006.1,1590.039Z" transform="translate(-2949.007 -1501.769)" fill="#cc8b50"/>
          <g id="Grupo_2380" data-name="Grupo 2380" transform="translate(97.627 61.766)">
            <path id="Trazado_4508" data-name="Trazado 4508" d="M3043.648,1564.68a4.465,4.465,0,1,0,4.46-4.219A4.345,4.345,0,0,0,3043.648,1564.68Z" transform="translate(-3043.648 -1560.461)" fill="#231f20"/>
            <path id="Trazado_4509" data-name="Trazado 4509" d="M3046.663,1563.575a1.162,1.162,0,0,0,.016,1.571c.568.63-.364,1.568-.935.935a2.465,2.465,0,0,1-.222-3.173.683.683,0,0,1,.9-.237.665.665,0,0,1,.238.9Z" transform="translate(-3043.537 -1560.292)" fill="#fff"/>
          </g>
          <g id="Grupo_2381" data-name="Grupo 2381" transform="translate(69.43 61.766)">
            <path id="Trazado_4510" data-name="Trazado 4510" d="M3017.524,1564.68a4.465,4.465,0,1,0,4.46-4.219A4.345,4.345,0,0,0,3017.524,1564.68Z" transform="translate(-3017.524 -1560.461)" fill="#231f20"/>
            <path id="Trazado_4511" data-name="Trazado 4511" d="M3020.539,1563.575a1.163,1.163,0,0,0,.015,1.571c.569.63-.363,1.568-.934.935a2.465,2.465,0,0,1-.223-3.173.685.685,0,0,1,.9-.237.665.665,0,0,1,.238.9Z" transform="translate(-3017.413 -1560.292)" fill="#fff"/>
          </g>
          <g id="Grupo_2382" data-name="Grupo 2382" transform="translate(71.499 71.083)">
            <path id="Trazado_4512" data-name="Trazado 4512" d="M3031.115,1575.09a22.915,22.915,0,0,0,2.8-3.93c1.065-2.008,2.162-2.582,4.044-1.593s1.16,17.281-9.915,17.4-8.9-7.4-7.276-9.084S3026.778,1579.819,3031.115,1575.09Z" transform="translate(-3019.441 -1569.094)" fill="#e28f56"/>
            <path id="Trazado_4513" data-name="Trazado 4513" d="M3027.737,1586.025c9.535-.1,11.393-12.188,10.525-16.179,1.449,2.546.189,16.948-10.222,17.063-5.831.064-7.985-1.991-8.485-4.2C3020.406,1584.551,3022.7,1586.08,3027.737,1586.025Z" transform="translate(-3019.432 -1569.034)" fill="#c97236"/>
          </g>
          <path id="Trazado_4514" data-name="Trazado 4514" d="M3044.241,1553.739s10.68,1.574,11.4,3.672a6.607,6.607,0,0,1,.219,3.755s-10.068-4.57-11.2-4.852S3044.241,1553.739,3044.241,1553.739Z" transform="translate(-2945.991 -1499.229)" fill="#231f20"/>
          <path id="Trazado_4515" data-name="Trazado 4515" d="M3025.407,1553.967s-10.753.953-11.6,3.006a6.608,6.608,0,0,0-.437,3.736s10.317-3.979,11.462-4.2S3025.407,1553.967,3025.407,1553.967Z" transform="translate(-2948.431 -1499.211)" fill="#231f20"/>
          <path id="Trazado_4516" data-name="Trazado 4516" d="M3068.709,1563.881s.058-14.1,1.275-18.092,2.6-7.347-6.066-18.032l-5.612,8.472s0,25.123,3.864,26.828c1.183.521-.592,14.017-.592,14.017s.434.586,5.041.166Z" transform="translate(-2944.857 -1501.291)" fill="#231f20"/>
          <path id="Trazado_4517" data-name="Trazado 4517" d="M3063.235,1545.215s.142-5.934-7.733-8.184-29.841-2.789-34.467-.828-19.765,11.824-20,9.8c0,0,8.5-20,16.324-24.2s21.782-8.847,30.79-6.508a150.569,150.569,0,0,0,17.231,3.353s5.737,3.568,5.313,7.775S3063.235,1545.215,3063.235,1545.215Z" transform="translate(-2949.402 -1502.33)" fill="#231f20"/>
          <path id="Trazado_4518" data-name="Trazado 4518" d="M3058.306,1536.229l5.612-8.472s10.739,5.649,11.8,8.472-2.956,26.268-2.956,26.268l-4.054-2.52-4.792-2.09Z" transform="translate(-2944.857 -1501.291)" fill="#231f20"/>
          <path id="Trazado_4519" data-name="Trazado 4519" d="M3012.055,1535.655s.986,12.941-1.236,16.966-3.991,15.479-3.991,15.479-1.642-20.443.463-28.045S3012.055,1535.655,3012.055,1535.655Z" transform="translate(-2948.991 -1500.717)" fill="#231f20"/>
          <path id="Trazado_4520" data-name="Trazado 4520" d="M3008.805,1547.735l2.469,2.8s-1.61,15.612-.67,20.31l-4.194-.321-.191-19.533Z" transform="translate(-2948.991 -1499.705)" fill="#231f20"/>
          <path id="Trazado_4521" data-name="Trazado 4521" d="M3068.672,1532.038s6.97-9.633-1.747-15.722c-6.18-4.315-44.847-3.767-50.877,0s-14.141,13-16.267,19.383a32.462,32.462,0,0,0-1.164,13.133s3.235-4.9,10.6-10.422C3014.8,1534.217,3068.672,1532.038,3068.672,1532.038Z" transform="translate(-2949.612 -1502.44)" fill="#231f20"/>
          <path id="Trazado_4522" data-name="Trazado 4522" d="M3061.588,1541.1s3.706-9.091-1.66-13.129-39.626-4.065-45.627,1.133-4,12.976-4,12.976,2.458-2.625,10.021-6.1C3026.5,1533.141,3060.653,1537.81,3061.588,1541.1Z" transform="translate(-2948.692 -1501.505)" fill="#423e3f"/>
          <path id="Trazado_4523" data-name="Trazado 4523" d="M3060.79,1541.415s.482-13.722-9.252-16.634-31.495,0-31.495,0,30.8-8.076,37.079-.3S3060.79,1541.415,3060.79,1541.415Z" transform="translate(-2947.894 -1501.819)" fill="#2d292b"/>
          <path id="Trazado_4524" data-name="Trazado 4524" d="M3055.7,1539.485s1.086-12.014-10.656-16.38A29.743,29.743,0,0,1,3055.7,1539.485Z" transform="translate(-2945.91 -1501.66)" fill="#2d292b"/>
          <path id="Trazado_4525" data-name="Trazado 4525" d="M3052.229,1538.434s3.081-12.36-11.875-15.329C3040.354,1523.1,3047.229,1524.005,3052.229,1538.434Z" transform="translate(-2946.282 -1501.66)" fill="#2d292b"/>
          <path id="Trazado_4526" data-name="Trazado 4526" d="M3048.7,1537.665s-2.208-11.5-12.523-15A75.381,75.381,0,0,1,3048.7,1537.665Z" transform="translate(-2946.614 -1501.695)" fill="#2d292b"/>
          <path id="Trazado_4527" data-name="Trazado 4527" d="M3060.854,1534.246s-3.129-3.146-11.729-4.552c-8.125-1.33-35.547-5.976-49.107,19.708,0,0,.4-10.27,6.082-16.85,0,0-7.179,11.067-7.478,16.052,0,0-2.892-15.858,9.372-22.835s28.287-11.763,41.662-8.672,16.366,10.5,15.967,14.224-3.111,10.486-3.111,10.486S3061.42,1535.985,3060.854,1534.246Z" transform="translate(-2949.617 -1502.213)" fill="#2d292b"/>
          <path id="Trazado_4528" data-name="Trazado 4528" d="M3049.443,1537.754a33.412,33.412,0,0,0-5.8-12.948Z" transform="translate(-2946.021 -1501.525)" fill="#2d292b"/>
          <path id="Trazado_4529" data-name="Trazado 4529" d="M3044.16,1536.974s1.086-12.014-10.656-16.38A29.731,29.731,0,0,1,3044.16,1536.974Z" transform="translate(-2946.825 -1501.859)" fill="#2d292b"/>
          <path id="Trazado_4530" data-name="Trazado 4530" d="M3041.943,1536.681s3.08-12.36-11.876-15.33C3030.067,1521.351,3036.942,1522.252,3041.943,1536.681Z" transform="translate(-2947.098 -1501.8)" fill="#2d292b"/>
          <path id="Trazado_4531" data-name="Trazado 4531" d="M3038.136,1536.234s-2.207-11.5-12.522-15A75.371,75.371,0,0,1,3038.136,1536.234Z" transform="translate(-2947.452 -1501.809)" fill="#2d292b"/>
          <path id="Trazado_4532" data-name="Trazado 4532" d="M3039.288,1536.109a33.413,33.413,0,0,0-5.8-12.948Z" transform="translate(-2946.826 -1501.656)" fill="#2d292b"/>
          <path id="Trazado_4533" data-name="Trazado 4533" d="M3034.262,1535.775s3.081-12.36-11.875-15.33C3022.387,1520.445,3029.262,1521.346,3034.262,1535.775Z" transform="translate(-2947.708 -1501.871)" fill="#2d292b"/>
          <path id="Trazado_4534" data-name="Trazado 4534" d="M3031.078,1535.6s-2.206-11.5-12.522-15A75.358,75.358,0,0,1,3031.078,1535.6Z" transform="translate(-2948.012 -1501.859)" fill="#2d292b"/>
          <path id="Trazado_4535" data-name="Trazado 4535" d="M3032.231,1535.474a33.411,33.411,0,0,0-5.795-12.948Z" transform="translate(-2947.387 -1501.706)" fill="#2d292b"/>
          <path id="Trazado_4536" data-name="Trazado 4536" d="M3028.64,1535.623s3.08-12.36-11.876-15.33C3016.764,1520.293,3023.639,1521.194,3028.64,1535.623Z" transform="translate(-2948.154 -1501.883)" fill="#2d292b"/>
          <path id="Trazado_4537" data-name="Trazado 4537" d="M3025.272,1535.168s-1.767-8.592-10.028-11.212A57.576,57.576,0,0,1,3025.272,1535.168Z" transform="translate(-2948.274 -1501.593)" fill="#2d292b"/>
          <path id="Trazado_4538" data-name="Trazado 4538" d="M3026.608,1535.322a33.411,33.411,0,0,0-5.795-12.948Z" transform="translate(-2947.833 -1501.718)" fill="#2d292b"/>
          <path id="Trazado_4539" data-name="Trazado 4539" d="M3021.372,1535.677s2.476-8.966-9.545-11.121C3011.828,1524.556,3017.353,1525.21,3021.372,1535.677Z" transform="translate(-2948.546 -1501.545)" fill="#2d292b"/>
          <path id="Trazado_4540" data-name="Trazado 4540" d="M3019.313,1536.507s-1.813-8.966-10.291-11.7A59.741,59.741,0,0,1,3019.313,1536.507Z" transform="translate(-2948.768 -1501.525)" fill="#2d292b"/>
          <path id="Trazado_4541" data-name="Trazado 4541" d="M3020.12,1536.109a33.411,33.411,0,0,0-5.8-12.948Z" transform="translate(-2948.348 -1501.656)" fill="#2d292b"/>
          <path id="Trazado_4542" data-name="Trazado 4542" d="M3016.685,1537.8s-1.813-8.967-10.29-11.7A59.794,59.794,0,0,1,3016.685,1537.8Z" transform="translate(-2948.977 -1501.423)" fill="#2d292b"/>
          <path id="Trazado_4543" data-name="Trazado 4543" d="M3017.492,1537.4a33.408,33.408,0,0,0-5.795-12.948Z" transform="translate(-2948.556 -1501.553)" fill="#2d292b"/>
          <path id="Trazado_4544" data-name="Trazado 4544" d="M3013.6,1539.44s-1.813-8.966-10.291-11.7A59.758,59.758,0,0,1,3013.6,1539.44Z" transform="translate(-2949.222 -1501.292)" fill="#2d292b"/>
          <path id="Trazado_4545" data-name="Trazado 4545" d="M3014.41,1539.042a33.432,33.432,0,0,0-5.795-12.948Z" transform="translate(-2948.801 -1501.423)" fill="#2d292b"/>
          <path id="Trazado_4546" data-name="Trazado 4546" d="M3023.916,1529.02s-11.692,3.771-12.234,10.1a81.259,81.259,0,0,0-.322,10.329s-4.694-4.546-3.347-10.329c0,0-2.859,6.937-1.546,13.451,0,0-8.532-12.346,1.646-20.206S3023.916,1529.02,3023.916,1529.02Z" transform="translate(-2949.237 -1501.293)" fill="#2d292b"/>
          <path id="Trazado_4547" data-name="Trazado 4547" d="M3063.319,1529.93s-4.816-10.99-25.82-10.592-33.618,16.362-33.618,16.362S3032.773,1506.489,3063.319,1529.93Z" transform="translate(-2949.177 -1501.96)" fill="#231f20"/>
          <path id="Trazado_4548" data-name="Trazado 4548" d="M3053.275,1526.343s-29.431-12.226-44.66,9.782C3008.615,1536.125,3020.371,1517.285,3053.275,1526.343Z" transform="translate(-2948.801 -1501.672)" fill="#231f20"/>
          <path id="Trazado_4549" data-name="Trazado 4549" d="M3060.773,1535.205s-3.347-9.111-23.8-9.294C3036.977,1525.911,3053.042,1526.071,3060.773,1535.205Z" transform="translate(-2946.55 -1501.438)" fill="#231f20"/>
          <g id="Grupo_2383" data-name="Grupo 2383" transform="translate(76.921 95.021)">
            <path id="Trazado_4550" data-name="Trazado 4550" d="M3025.1,1591.59s10.653,1.871,16.7-.316c0,0,1.079-.088.386.691,0,0-6.409,13.821-17.437.126C3024.74,1592.091,3023.924,1591.45,3025.1,1591.59Z" transform="translate(-3024.464 -1591.271)" fill="#352626"/>
            <path id="Trazado_4551" data-name="Trazado 4551" d="M3041.089,1592.944a2.209,2.209,0,0,0,1.088-.979c.693-.778-.386-.691-.386-.691-6.042,2.187-16.7.316-16.7.316-1.171-.14-.355.5-.355.5.317.393.629.762.94,1.111C3025.68,1593.2,3033.9,1595.927,3041.089,1592.944Z" transform="translate(-3024.464 -1591.271)" fill="#fff"/>
          </g>
          <path id="Trazado_4552" data-name="Trazado 4552" d="M3017.7,1619.8s3.13,18.7,17.736,18.7c12.77,0,20.881-18.1,20.881-18.1l-2.657-1.155s-8.528,15.418-18.8,15.026-14.39-15.026-14.39-15.026Z" transform="translate(-2948.08 -1494.031)" fill="#3f3f3f"/>
          <path id="Trazado_4553" data-name="Trazado 4553" d="M3072.313,1633.837s33.425,37.755,50.357,32.177,8.347-63,8.347-63l10.652-.756s12.494,68.75-16.728,75.241c-22.968,5.1-57.407-33.547-57.407-33.547Z" transform="translate(-2944.125 -1495.378)" fill="#cc8b50"/>
          <g id="Grupo_2384" data-name="Grupo 2384" transform="translate(181.974 92.157)">
            <path id="Trazado_4554" data-name="Trazado 4554" d="M3142.011,1604.817c.128-.072,1.989-1.017,2.1-1.112,1.094-.914.714-2.141-.078-3.253l-4.724-10.325a2.527,2.527,0,0,0-.823-1.045,2.6,2.6,0,0,0-3,.021l-12.639,10.472a2.838,2.838,0,0,0-.879,1.35,3.5,3.5,0,0,0,.822,3.531l3.248,4.563c1.62,2.73,3.2,2.478,4.369,1.643Z" transform="translate(-3121.792 -1588.618)" fill="#cc8b50"/>
          </g>
          <path id="Trazado_4555" data-name="Trazado 4555" d="M3002.1,1637.966l-2.768-8.675s-10.073,7.544-22.887,22.741l12.827,14.358,11.828-10.457,4.343-14.086Z" transform="translate(-2951.354 -1493.233)" fill="#262626"/>
          <path id="Trazado_4556" data-name="Trazado 4556" d="M3069.728,1626.507l-5.8,15.561,16.827,18.593,12.41-16.012S3078.1,1628.2,3069.728,1626.507Z" transform="translate(-2944.411 -1493.454)" fill="#262626"/>
          <path id="Trazado_4557" data-name="Trazado 4557" d="M2977.626,1648.094l14.468,16.146-2.975,2.718-14-16.418Z" transform="translate(-2951.459 -1491.74)" fill="#3f3f3f"/>
          <path id="Trazado_4558" data-name="Trazado 4558" d="M3077.555,1658.572l14.16-16.417,3.077,2.6-14.489,15.987Z" transform="translate(-2943.329 -1492.212)" fill="#3f3f3f"/>
          <g id="Grupo_2385" data-name="Grupo 2385" transform="translate(35.209)">
            <path id="Trazado_4559" data-name="Trazado 4559" d="M2999.158,1533.606l-13.339,9.349s42.478,17.413,111.115,5.58l-15.246-12.1Z" transform="translate(-2985.819 -1500.827)" fill="#e2831b"/>
            <path id="Trazado_4560" data-name="Trazado 4560" d="M3001.709,1533s.176-29.762,39.888-29.762,35,33.311,35,33.311Z" transform="translate(-2984.558 -1503.237)" fill="#e2831b"/>
            <path id="Trazado_4561" data-name="Trazado 4561" d="M3001.528,1524.758l76.6,4.773,2.886,7.79-83.34-2.564Z" transform="translate(-2984.878 -1501.529)" fill="#754c29"/>
            <path id="Trazado_4562" data-name="Trazado 4562" d="M3078.656,1531.565l-.754-2.034-76.6-4.773-.748,1.941Z" transform="translate(-2984.649 -1501.529)" fill="#603913"/>
          </g>
          <g id="Grupo_2389" data-name="Grupo 2389" transform="translate(168.44 71.144)">
            <g id="Grupo_2386" data-name="Grupo 2386" transform="translate(21.205 10.526)">
              <path id="Trazado_4563" data-name="Trazado 4563" d="M3128.9,1600.074s2.294-16.5,30.6-21.172l8.823,12.46s-21.958,2.095-25.176,15.03Z" transform="translate(-3128.9 -1578.902)" fill="#757334"/>
              <path id="Trazado_4564" data-name="Trazado 4564" d="M3132.756,1594.549a40.618,40.618,0,0,1,23.369-13.563s-.283,1.537,3.071,1.372l3.518,5.327s-1.372.109-.988,2.964c0,0-12.36-.458-18.783,10.853,0,0-2.806-1.739-3.3,1.71l-6.356-4.435A6.422,6.422,0,0,0,3132.756,1594.549Z" transform="translate(-3128.594 -1578.737)" fill="#68652d"/>
              <circle id="Elipse_425" data-name="Elipse 425" cx="3.02" cy="3.02" r="3.02" transform="translate(15.058 7.841)" fill="#757334"/>
            </g>
            <g id="Grupo_2387" data-name="Grupo 2387">
              <path id="Trazado_4565" data-name="Trazado 4565" d="M3109.254,1572.009s16.043,5.223,15.557,27.563l12.877,4.211s1.6-27.209-10.8-34.632Z" transform="translate(-3109.254 -1569.15)" fill="#757334"/>
              <path id="Trazado_4566" data-name="Trazado 4566" d="M3117.347,1572.224l7.7-1.48s-.178,2.134,3.265,2.338c0,0,8.012,10.219,6.746,26.2,0,0-1.271-.2-1.975,1.536l-5.1-1.734s1.252-3.17-1.341-3.137c0,0-2.746-18.264-9.825-21.294C3116.812,1574.658,3119.827,1573.782,3117.347,1572.224Z" transform="translate(-3108.654 -1569.023)" fill="#68652d"/>
              <circle id="Elipse_426" data-name="Elipse 426" cx="2.443" cy="2.443" r="2.443" transform="translate(17.267 13.273)" fill="#757334"/>
            </g>
            <g id="Grupo_2388" data-name="Grupo 2388" transform="translate(18.905 2.491)">
              <path id="Trazado_4567" data-name="Trazado 4567" d="M3139.527,1571.458a28.523,28.523,0,0,1,3.648,32.593l-2.219,3.723-13.906-9.483s7.785-17.121-.281-24.253Z" transform="translate(-3126.769 -1571.458)" fill="#8e8e30"/>
              <path id="Trazado_4568" data-name="Trazado 4568" d="M3130.663,1574.913s2.126.894.464,3.013a23.964,23.964,0,0,1-2.272,20.137l9.7,6.833s1.65-2.977,3.052-1.989c0,0,6.476-16.192-.861-26,0,0-2.94-1.652-1.776-3.493Z" transform="translate(-3126.604 -1571.303)" fill="#ddda7a"/>
              <circle id="Elipse_427" data-name="Elipse 427" cx="3.708" cy="3.708" r="3.708" transform="translate(7.619 13.453)" fill="#8e8e30"/>
            </g>
          </g>
          <path id="Trazado_4569" data-name="Trazado 4569" d="M3123.541,1600.554l-.856-.533a1.168,1.168,0,0,1-.372-1.6l3.63-6.923a1.168,1.168,0,0,1,1.6-.372l1.844,1.151a1.168,1.168,0,0,1,.371,1.6l-4.618,6.307A1.167,1.167,0,0,1,3123.541,1600.554Z" transform="translate(-2939.791 -1496.276)" fill="#bf7d47"/>
        </g>
      </g>
    </g>
  </g>
</svg>
