<svg xmlns="http://www.w3.org/2000/svg" xmlns:xlink="http://www.w3.org/1999/xlink" width="218.625" height="191.474" viewBox="0 0 218.625 191.474">
  <defs>
    <filter id="Trazado_4778" x="0" y="24.523" width="218.625" height="166.951" filterUnits="userSpaceOnUse">
      <feOffset dy="3" input="SourceAlpha"/>
      <feGaussianBlur stdDeviation="3" result="blur"/>
      <feFlood flood-opacity="0.161"/>
      <feComposite operator="in" in2="blur"/>
      <feComposite in="SourceGraphic"/>
    </filter>
    <filter id="Trazado_4779" x="138.813" y="0" width="49.41" height="42.523" filterUnits="userSpaceOnUse">
      <feOffset dy="3" input="SourceAlpha"/>
      <feGaussianBlur stdDeviation="3" result="blur-2"/>
      <feFlood flood-opacity="0.161"/>
      <feComposite operator="in" in2="blur-2"/>
      <feComposite in="SourceGraphic"/>
    </filter>
    <clipPath id="clip-path">
      <path id="Trazado_4833" data-name="Trazado 4833" d="M6384.276,208.951c-18.328-12.18-31.623-9.8-46.1-6.075V179.131h-61.308v22.984q-2.853-1.11-5.85-2.457c-39.126-17.653-66.677,24-59.37,68.243h-7.183v65.364h53.991c62.854,34.9,139.8-20.115,149.142-51.788C6407.6,281.477,6424.417,235.629,6384.276,208.951Z" fill="none"/>
    </clipPath>
  </defs>
  <g id="Grupo_2454" data-name="Grupo 2454" transform="translate(-6201.472 -164.983)">
    <g transform="matrix(1, 0, 0, 1, 6201.47, 164.98)" filter="url(#Trazado_4778)">
      <path id="Trazado_4778-2" data-name="Trazado 4778" d="M6407.6,281.477s16.815-45.848-23.326-72.526-56.139,16.477-113.254-9.293-89.573,74.843-24.92,125.4S6397.636,315.262,6407.6,281.477Z" transform="translate(-6201.47 -164.98)" fill="#f1e8ff"/>
    </g>
    <g transform="matrix(1, 0, 0, 1, 6201.47, 164.98)" filter="url(#Trazado_4779)">
      <path id="Trazado_4779-2" data-name="Trazado 4779" d="M6350.428,178.655s-3.628,6.782,2.047,11.823,9.117-1.338,17.46,3.934,15.612-9.709,6.637-19.011S6352.723,173.6,6350.428,178.655Z" transform="translate(-6201.47 -164.98)" fill="#f1e8ff"/>
    </g>
    <g id="Grupo_2453" data-name="Grupo 2453">
      <g id="Grupo_2452" data-name="Grupo 2452" clip-path="url(#clip-path)">
        <g id="Grupo_2451" data-name="Grupo 2451">
          <path id="Trazado_4780" data-name="Trazado 4780" d="M6261.574,294.273s-9.639,24.948-16.443,24.381S6240.6,273.3,6240.6,273.3l-8.505,1.7s-4.536,45.926,7.938,52.73,26.648-19.278,31.184-31.185Z" fill="#bc8044"/>
          <path id="Trazado_4781" data-name="Trazado 4781" d="M6350.025,273.862s20.386,33.933,22.831,74.275l-8.558,1.223s-8.036-49.417-24.479-69.829Z" fill="#bc8044"/>
          <path id="Trazado_4782" data-name="Trazado 4782" d="M6291.3,217.935l-2.161,10.09s.7,10.081,5.845,12.983,33.8,0,33.8,0,5.042,1.511,4.78-10.822-.721-21.1-.721-21.1Z" fill="#191716"/>
          <path id="Trazado_4783" data-name="Trazado 4783" d="M6300.294,191.561s-5.867.948-8.094,4.543l-.638-3.213-.84,5.291-5.27,2.379h2.894l-1.87,6.315,2.049-.7s-1.925,4.707-.907,7.009,1.247,12.077,1.247,12.077l4.008,7.72,7.421-13.472Z" fill="#232120"/>
          <path id="Trazado_4784" data-name="Trazado 4784" d="M6333.424,219.515c-.6,4.083-1.244,7.637-1.244,7.637l-38.717.873-2.161-2.161s-3.119-8.578-2.949-14.381-.7-17.271,14.165-20.346c15.075-3.121,24.453,2.159,24.453,2.159l3.37,2.657-.264.471,1.79,2.772-1.071.525s2.3,1.352,2.628,7.837S6333.424,219.515,6333.424,219.515Z" fill="#191716"/>
          <g id="Grupo_2441" data-name="Grupo 2441">
            <circle id="Elipse_435" data-name="Elipse 435" cx="3.684" cy="3.684" r="3.684" transform="translate(6328.555 224.341)" fill="#bc8044"/>
            <circle id="Elipse_436" data-name="Elipse 436" cx="2.161" cy="2.161" r="2.161" transform="translate(6330.078 225.864)" fill="#a06938"/>
          </g>
          <g id="Grupo_2442" data-name="Grupo 2442">
            <circle id="Elipse_437" data-name="Elipse 437" cx="3.684" cy="3.684" r="3.684" transform="translate(6287.618 224.341)" fill="#bc8044"/>
            <circle id="Elipse_438" data-name="Elipse 438" cx="2.161" cy="2.161" r="2.161" transform="translate(6289.141 225.864)" fill="#a06938"/>
          </g>
          <path id="Trazado_4785" data-name="Trazado 4785" d="M6304.35,263.528l-24,3.876s-8.184,4.591.573,14l7.057,52.6s30.664,5.288,50.488-2.527l4.3-49.068s10.588-7.132,0-16Z" fill="#f4be9a"/>
          <path id="Trazado_4786" data-name="Trazado 4786" d="M6338.463,331.476c-.317,8.142-22.167,14.41-32.663,14s-18.747-7.341-18.429-15.482,9.083-14.41,19.578-14S6338.78,323.335,6338.463,331.476Z" fill="#f4be9a"/>
          <path id="Trazado_4787" data-name="Trazado 4787" d="M6301.094,278.476c-1.6-1.4-20.749-8.8-20.749-8.8s9.6-7.228,32.362-6.728,30.059,5.735,30.059,5.735l-19.772,11.883Z" fill="#bc8044"/>
          <path id="Trazado_4788" data-name="Trazado 4788" d="M6321.313,251.777v12.671l-18.283.435,1.751-13.507Z" fill="#bc8044"/>
          <path id="Trazado_4789" data-name="Trazado 4789" d="M6321.313,257.744s-11.566,5.646-17.541,1.417l1.01-7.786,16.531-1.09Z" fill="#9b6437"/>
          <path id="Trazado_4790" data-name="Trazado 4790" d="M6293.084,233.8a6.087,6.087,0,0,1-.025-1.4l-.326-18.458s.4-8,6.959-12.783c2.445-1.97,5.921-3.426,10.853-3.471,4.926-.245,8.481,1,11.037,2.828,6.827,4.389,7.7,12.352,7.7,12.352l2.983,18.38a6.045,6.045,0,0,1,.057,1.4l.11,7.372s.892,3.887-8.5,11.161l-.543.654c-3.007,3.022-5.764,4.2-8.077,4.471l-.079.008c-.154.016-.307.032-.457.04-.091.006-.184.007-.276.01s-2.411.072-2.5.072c-.15,0-.3-.006-.459-.014-.027,0-.054,0-.08,0-2.324-.131-5.146-1.149-8.325-3.988l-.58-.622c-9.8-6.709-9.088-10.419-9.088-10.419Z" fill="#bc8044"/>
          <path id="Trazado_4791" data-name="Trazado 4791" d="M6293.489,241.984l-.4-8.185a6.087,6.087,0,0,1-.025-1.4l-.326-18.458s.4-8,6.959-12.783c2.445-1.97,5.921-3.426,10.853-3.471a22.24,22.24,0,0,1,3.714.116,15.545,15.545,0,0,0-7.152,3.137c-6.557,4.782-6.959,12.783-6.959,12.783l.327,18.459a5.97,5.97,0,0,0,.025,1.4l.036,2.061s-.375,9.238,9.43,15.947l.581.622a15.374,15.374,0,0,0,6.534,3.719,9.977,9.977,0,0,1-1.773.374l-.079.008c-.154.016-.307.032-.457.04-.091.006-.184.007-.276.01s-2.411.072-2.5.072c-.15,0-.3-.006-.459-.014-.027,0-.054,0-.08,0-2.324-.131-5.146-1.149-8.325-3.988l-.58-.622C6292.746,245.1,6293.489,241.984,6293.489,241.984Z" fill="#9b6437" opacity="0.23"/>
          <path id="Trazado_4792" data-name="Trazado 4792" d="M6323.685,260.309c4.989,1.054,5.14,1.089,6.912,1.5,4.412,1.018,10.848,3.552,15.347,5.314,4.973,1.948,3.124,15.039,3.124,15.039l-4.808,37.322s.662,19.584-.069,23.791c-1.323,7.614-53.8,3.249-60.406,2.223-4.008-.623-3.749-20.247-2.855-24.129s-7.249-50.544-7.249-50.544c6.664-5.211,21.368-9.382,21.368-9.382l6.55-1.454s-.9,12.174,9.87,11.04A13.325,13.325,0,0,0,6323.685,260.309Z" fill="#f5f8fc"/>
          <g id="Grupo_2443" data-name="Grupo 2443">
            <path id="Trazado_4793" data-name="Trazado 4793" d="M6317.233,231.342a14.066,14.066,0,0,1-1.612-2.482c-.6-1.258-1.256-1.639-2.435-1.084s-1.172,10.555,5.609,10.925,5.648-4.3,4.7-5.371S6319.764,234.355,6317.233,231.342Z" fill="#e28f56"/>
            <path id="Trazado_4794" data-name="Trazado 4794" d="M6319,238.167c-5.839-.318-6.655-7.77-6.017-10.191-.956,1.521-.568,10.377,5.808,10.725,3.57.194,4.945-1.007,5.309-2.346C6323.534,237.46,6322.09,238.335,6319,238.167Z" fill="#c97236"/>
          </g>
          <path id="Trazado_4795" data-name="Trazado 4795" d="M6318.59,242.586s-.732,1.727-2.183,1.648a2.381,2.381,0,0,1-2.174-1.728s-.185-.736-.674-.46c0,0-.423.223-.108.809a3.472,3.472,0,0,0,2.938,2.216,3.013,3.013,0,0,0,3.081-2.169s.162-.488-.11-.655C6319.36,242.247,6318.851,241.939,6318.59,242.586Z" fill="#3a3a3a"/>
          <g id="Grupo_2444" data-name="Grupo 2444">
            <path id="Trazado_4796" data-name="Trazado 4796" d="M6308.184,224.088a3.081,3.081,0,1,1-3.077-2.911A3,3,0,0,1,6308.184,224.088Z" fill="#231f20"/>
            <path id="Trazado_4797" data-name="Trazado 4797" d="M6306.028,223.441a.806.806,0,0,1-.011,1.085c-.393.434.25,1.081.645.644a1.7,1.7,0,0,0,.153-2.189.471.471,0,0,0-.624-.163.458.458,0,0,0-.163.623Z" fill="#fff"/>
          </g>
          <g id="Grupo_2445" data-name="Grupo 2445">
            <path id="Trazado_4798" data-name="Trazado 4798" d="M6326.829,224.088a3.081,3.081,0,1,1-3.077-2.911A3,3,0,0,1,6326.829,224.088Z" fill="#231f20"/>
            <path id="Trazado_4799" data-name="Trazado 4799" d="M6324.672,223.441a.8.8,0,0,1-.011,1.085c-.392.434.251,1.081.645.644a1.7,1.7,0,0,0,.154-2.189.472.472,0,0,0-.624-.163.458.458,0,0,0-.164.623Z" fill="#fff"/>
          </g>
          <path id="Trazado_4800" data-name="Trazado 4800" d="M6291.3,224.341l.9,4.379,1.263-.7s1.537-20.3,3.077-22,7-4.332,12.975-3.36,15.914-.21,15.914-.21a7.492,7.492,0,0,1,4.648,6.8c.088,5.133.946,16.015.946,16.015l1.216-.926.723-18.148-6.133-11.775a37.4,37.4,0,0,0-30.113,0S6286.4,201.019,6291.3,224.341Z" fill="#191716"/>
          <path id="Trazado_4801" data-name="Trazado 4801" d="M6320.226,217.085a12.46,12.46,0,0,1,5.17-.529c2.18.443,3.1,2.878,3.1,2.878a75.3,75.3,0,0,1-7.9.231C6319.263,219.432,6318.761,217.456,6320.226,217.085Z" fill="#191716"/>
          <path id="Trazado_4802" data-name="Trazado 4802" d="M6308.1,216.849a12.473,12.473,0,0,0-5.193-.2c-2.148.582-2.913,3.071-2.913,3.071a75.381,75.381,0,0,0,7.9-.275C6309.207,219.13,6309.581,217.126,6308.1,216.849Z" fill="#191716"/>
          <path id="Trazado_4803" data-name="Trazado 4803" d="M6316.894,249.209a5.751,5.751,0,0,0-5.272,1.581c-2.52,2.379,1.553,9.722,1.553,9.722l-.165-3.005,1.465,4.429,1.32-4.429,1.1,4.052.654-4.9,1.27,1.307S6322.141,251.566,6316.894,249.209Z" fill="#191716"/>
          <g id="Grupo_2446" data-name="Grupo 2446">
            <path id="Trazado_4804" data-name="Trazado 4804" d="M6316.894,249.209a5.75,5.75,0,0,0-5.2,1.519,5.525,5.525,0,0,1,3.5-.385c3.305,1.485,3.209,4.572,2.686,6.655l.939.966S6322.141,251.566,6316.894,249.209Z" fill="#2b2826"/>
          </g>
          <g id="Grupo_2447" data-name="Grupo 2447">
            <path id="Trazado_4805" data-name="Trazado 4805" d="M6334.1,204.794s-.387-11.323-4.123-13.826a35.871,35.871,0,0,0-21.263-6.193c-10.045.377-20.713,6.914-22.915,12.964s.433,14.844.433,14.844a2.571,2.571,0,0,0-.095,2.249c.558,1.116,1.407,1,1.407,1S6307.813,201.6,6334.1,204.794Z" fill="#194e9b"/>
            <path id="Trazado_4806" data-name="Trazado 4806" d="M6342,208.675s1.462,3.263-6.41,2.155-11.684-1.944-17.355-.134-11.9,4.686-15.612,3.035-4.671-3.4-4.671-3.4,17.291-8.235,36.146-5.532C6334.1,204.794,6340.3,206.267,6342,208.675Z" fill="#103f66"/>
            <path id="Trazado_4807" data-name="Trazado 4807" d="M6306.026,187.75s-12.783,9.307-11.757,20.841l.225,2.035-6.515,3.114a38.95,38.95,0,0,1-1.458-8.583c-.161-4.313.575-13.206,14.586-17.823C6301.107,187.334,6306.679,185.939,6306.026,187.75Z" fill="#2967b2"/>
          </g>
          <path id="Trazado_4808" data-name="Trazado 4808" d="M6274.048,270.46l9.639,12.473s-9.639,13.608-12.474,21.546l-15.309-7.371S6264.409,276.7,6274.048,270.46Z" fill="#f5f8fc"/>
          <path id="Trazado_4809" data-name="Trazado 4809" d="M6347.19,267.625l-10.206,11.339s9.639,13.608,12.474,21.546l15.309-7.371S6356.829,273.862,6347.19,267.625Z" fill="#f5f8fc"/>
          <path id="Trazado_4810" data-name="Trazado 4810" d="M6274.636,272.838s3.948,3.292,4.515,12.363Z" fill="#c6d0db" opacity="0.42"/>
          <path id="Trazado_4811" data-name="Trazado 4811" d="M6348.891,272.838s-3.949,3.292-4.516,12.363Z" fill="#c6d0db" opacity="0.42"/>
          <path id="Trazado_4812" data-name="Trazado 4812" d="M6283.687,261.955l1.7,35.72-8.5,8.5,3.969,41.957h65.108l1.229-44.792-7.938-3.969,3.4-35.72-8.5-1.7-5.67,35.153-31.751.567-3.969-37.421Z" fill="#14457f"/>
          <g id="Grupo_2448" data-name="Grupo 2448">
            <rect id="Rectángulo_1867" data-name="Rectángulo 1867" width="1.134" height="0.567" transform="translate(6276.872 309.422) rotate(-44.068)" fill="#70abe5"/>
            <path id="Trazado_4813" data-name="Trazado 4813" d="M6279.872,307.306l-.394-.407,1.791-1.735.4.408Zm3.583-3.469-.394-.407,1.791-1.735.4.408Z" fill="#70abe5"/>
            <path id="Trazado_4814" data-name="Trazado 4814" d="M6287.038,300.369l-.395-.408.723-.7-.048-1,.566-.027.06,1.261Z" fill="#70abe5"/>
            <path id="Trazado_4815" data-name="Trazado 4815" d="M6287.213,296.026l-.107-2.23.567-.027.106,2.231Zm-.213-4.46-.106-2.231.566-.026.107,2.23Zm-.212-4.461-.106-2.23.566-.027.106,2.23Zm-.213-4.46-.106-2.231.566-.027.107,2.23Zm-.212-4.461-.106-2.231.566-.026.106,2.23Zm-.213-4.461-.106-2.23.567-.027.106,2.23Zm-.212-4.461-.106-2.23.566-.027.107,2.231Z" fill="#70abe5"/>
            <path id="Trazado_4816" data-name="Trazado 4816" d="M6285.726,264.8l-.064-1.347,1.28-.427.179.538-.872.291.044.918Z" fill="#70abe5"/>
            <path id="Trazado_4817" data-name="Trazado 4817" d="M6290.9,263.112l-.083-.777-.742.247-.179-.538,1.411-.47.157,1.478Z" fill="#70abe5"/>
            <path id="Trazado_4818" data-name="Trazado 4818" d="M6294.376,295.934l-.248-2.344.564-.06.249,2.344Zm-.5-4.689-.249-2.344.565-.06.248,2.344Zm-.5-4.689-.249-2.344.564-.06.249,2.344Zm-.5-4.689-.249-2.344.564-.06.249,2.344Zm-.5-4.688-.248-2.345.564-.06.248,2.345Zm-.5-4.689-.248-2.345.564-.059.248,2.344Zm-.5-4.689-.249-2.344.564-.06.249,2.344Z" fill="#70abe5"/>
            <path id="Trazado_4819" data-name="Trazado 4819" d="M6294.772,299.664l-.147-1.385.563-.06.092.87.875-.014.009.567Z" fill="#70abe5"/>
            <path id="Trazado_4820" data-name="Trazado 4820" d="M6298.357,299.606l-.009-.567,2.193-.035.009.567Zm4.385-.071-.009-.567,2.192-.035.01.567Zm4.385-.071-.009-.567,2.192-.035.009.567Zm4.385-.07-.009-.567,2.192-.036.009.568Zm4.385-.071-.01-.567,2.192-.035.01.567Zm4.384-.071-.009-.567,2.193-.035.008.567Zm4.385-.07-.009-.567,2.192-.036.009.568Z" fill="#70abe5"/>
            <path id="Trazado_4821" data-name="Trazado 4821" d="M6329.051,299.111l-.009-.567.9-.014.156-.886.558.1-.236,1.348Z" fill="#70abe5"/>
            <path id="Trazado_4822" data-name="Trazado 4822" d="M6331.042,295.538l-.559-.1.387-2.2.558.1Zm.773-4.406-.558-.1.386-2.2.558.1Zm.773-4.406-.558-.1.386-2.2.559.1Zm.773-4.407-.558-.1.386-2.2.558.1Zm.773-4.406-.558-.1.387-2.2.558.1Zm.773-4.406-.558-.1.387-2.2.558.1Zm.773-4.407-.558-.1.387-2.2.558.1Z" fill="#70abe5"/>
            <path id="Trazado_4823" data-name="Trazado 4823" d="M6336.454,264.694l-.558-.1.254-1.448,1.384.5-.192.534-.75-.27Z" fill="#70abe5"/>
            <path id="Trazado_4824" data-name="Trazado 4824" d="M6340.319,266.037l-.564-.05.081-.912-.861-.31.192-.533,1.273.458Z" fill="#70abe5"/>
            <path id="Trazado_4825" data-name="Trazado 4825" d="M6337.563,297.181l-.564-.05.2-2.225.564.05Zm.394-4.449-.565-.05.2-2.225.565.05Zm.394-4.449-.565-.05.2-2.225.565.05Zm.393-4.45-.564-.049.2-2.225.564.05Zm.394-4.449-.564-.05.2-2.224.565.05Zm.394-4.449-.565-.05.2-2.224.565.05Zm.393-4.449-.564-.05.2-2.224.564.05Z" fill="#70abe5"/>
            <path id="Trazado_4826" data-name="Trazado 4826" d="M6337.836,301.31l-1.151-.642.117-1.313.565.05-.084.947.83.463Z" fill="#70abe5"/>
            <rect id="Rectángulo_1868" data-name="Rectángulo 1868" width="0.567" height="2.928" transform="translate(6340.392 302.738) rotate(-60.83)" fill="#70abe5"/>
            <rect id="Rectángulo_1869" data-name="Rectángulo 1869" width="0.567" height="1.134" transform="translate(6345.505 305.591) rotate(-60.82)" fill="#70abe5"/>
          </g>
          <g id="Grupo_2449" data-name="Grupo 2449">
            <path id="Trazado_4827" data-name="Trazado 4827" d="M6303.856,309.869l.56,11.608,10.457,3.587,8.5-3.587s.125-10.134.111-11.272S6303.856,309.869,6303.856,309.869Z" fill="#397fc4"/>
            <path id="Trazado_4828" data-name="Trazado 4828" d="M6301.934,307.272s15,1.364,23.306,0v4.536s-13.739,1.631-23.306,0Z" fill="#2967b2"/>
            <rect id="Rectángulo_1870" data-name="Rectángulo 1870" width="2.054" height="2.054" rx="1.006" transform="translate(6314.01 309.397)" fill="#194e9b"/>
          </g>
          <g id="Grupo_2450" data-name="Grupo 2450">
            <path id="Trazado_4829" data-name="Trazado 4829" d="M6223.579,275.342c-.135-.045-2.065-.581-2.19-.648-1.2-.653-1.078-1.879-.543-3.075l2.488-10.608a2.434,2.434,0,0,1,.578-1.139,2.5,2.5,0,0,1,2.822-.548l13.873,7.459a2.72,2.72,0,0,1,1.082,1.1,3.352,3.352,0,0,1-.1,3.477l-2.191,4.908c-1.008,2.875-2.539,2.937-3.8,2.373Z" fill="#bc8044"/>
          </g>
          <path id="Trazado_4830" data-name="Trazado 4830" d="M6251.563,230.074l-4.9,9.258-5.9-2.949,5.461-9.284a11.04,11.04,0,0,0-10.688,18.184l-14.418,27.035A11.047,11.047,0,0,0,6211.484,291l4.9-9.257,5.9,2.948-5.462,9.284a11.045,11.045,0,0,0,10.206-18.69l15.765-26.418c.305.026.611.047.923.047a11.054,11.054,0,0,0,7.849-18.84Z" fill="#828282"/>
          <path id="Trazado_4831" data-name="Trazado 4831" d="M6223.748,285.554a1.7,1.7,0,0,0-.705-2.384l-5.9-2.949a1.7,1.7,0,0,0-2.264.726l-3.666,6.925a9.359,9.359,0,0,1,8.117-14.01,9.392,9.392,0,0,1,1.514.135,1.7,1.7,0,0,0,1.774-.879l14.419-27.035a1.7,1.7,0,0,0-.242-1.944,9.342,9.342,0,0,1,6.628-15.632l-4.127,7.014A1.7,1.7,0,0,0,6240,237.9l5.9,2.948a1.7,1.7,0,0,0,2.264-.725l3.666-6.925a9.36,9.36,0,0,1-8.118,14.01c-.241,0-.487-.016-.783-.041-.047,0-.094-.006-.141-.006a1.7,1.7,0,0,0-1.46.83l-15.765,26.417a1.7,1.7,0,0,0,.276,2.092,9.349,9.349,0,0,1-6.219,16.063Z" fill="#b7b7b7" opacity="0.27"/>
          <path id="Trazado_4832" data-name="Trazado 4832" d="M6238.336,268.889l.913-.322a1.121,1.121,0,0,0,.682-1.427l-1.962-7.239a1.123,1.123,0,0,0-1.427-.683l-1.966.7a1.12,1.12,0,0,0-.682,1.426l3.016,6.868A1.122,1.122,0,0,0,6238.336,268.889Z" fill="#9b6437"/>
        </g>
      </g>
    </g>
    <rect id="Rectángulo_1871" data-name="Rectángulo 1871" width="210.794" height="176" transform="translate(6203.89 169.457)" fill="none"/>
  </g>
</svg>
