<svg xmlns="http://www.w3.org/2000/svg" xmlns:xlink="http://www.w3.org/1999/xlink" width="272" height="235.634" viewBox="0 0 272 235.634">
  <defs>
    <clipPath id="clip-path">
      <path id="Trazado_6106" data-name="Trazado 6106" d="M5145.73,664.325V596.667H4916.616V665.65c-1.616,1.407-3.135,2.787-4.552,4.125v153.9s50.4-40.273,100.187-13.686,108.417,31.654,171.813,2.931V652.3A94.6,94.6,0,0,1,5145.73,664.325Z" transform="translate(-4912.063 -596.667)" fill="none"/>
    </clipPath>
    <linearGradient id="linear-gradient" x1="383.161" y1="31.653" x2="384.23" y2="31.653" gradientUnits="objectBoundingBox">
      <stop offset="0" stop-color="#fff" stop-opacity="0"/>
      <stop offset="0.091" stop-color="#fff" stop-opacity="0.024"/>
      <stop offset="0.217" stop-color="#fff" stop-opacity="0.094"/>
      <stop offset="0.363" stop-color="#fff" stop-opacity="0.208"/>
      <stop offset="0.524" stop-color="#fff" stop-opacity="0.369"/>
      <stop offset="0.697" stop-color="#fff" stop-opacity="0.573"/>
      <stop offset="0.878" stop-color="#fff" stop-opacity="0.82"/>
      <stop offset="1" stop-color="#fff"/>
    </linearGradient>
    <linearGradient id="linear-gradient-2" x1="478.421" y1="31.646" x2="479.528" y2="31.646" xlink:href="#linear-gradient"/>
    <linearGradient id="linear-gradient-3" x1="378.735" y1="31.547" x2="379.803" y2="31.547" xlink:href="#linear-gradient"/>
    <linearGradient id="linear-gradient-4" x1="472.88" y1="31.541" x2="473.986" y2="31.541" xlink:href="#linear-gradient"/>
  </defs>
  <g id="Grupo_2889" data-name="Grupo 2889" transform="translate(-4912.063 -596.667)">
    <path id="Trazado_6017" data-name="Trazado 6017" d="M5184.063,822.557V661.938c-26.72,15.013-64.169,21.578-140.163-9.518-62.723-25.667-109.6,6.023-131.836,26.994v153.9s50.4-40.273,100.187-13.686S5120.667,851.28,5184.063,822.557Z" transform="translate(0 -9.639)" fill="#f1e8ff"/>
    <path id="Trazado_6018" data-name="Trazado 6018" d="M5184.063,822.557V661.938c-26.72,15.013-64.169,21.578-140.163-9.518-62.723-25.667-109.6,6.023-131.836,26.994v153.9s50.4-40.273,100.187-13.686S5120.667,851.28,5184.063,822.557Z" transform="translate(0 -9.639)" fill="#f1e8ff"/>
    <g id="Grupo_2887" data-name="Grupo 2887" transform="translate(4912.063 596.667)">
      <g id="Grupo_2886" data-name="Grupo 2886" clip-path="url(#clip-path)">
        <g id="Grupo_2885" data-name="Grupo 2885" transform="translate(31.514 1.992)">
          <g id="Grupo_2871" data-name="Grupo 2871" transform="translate(63.761)">
            <path id="Trazado_6019" data-name="Trazado 6019" d="M5116.143,630.3s11.923-15.78,32.85-14.905,23.377,23.709,18.714,32.563c0,0-2.055,4.6.216,7.81,0,0-4.16.73-6.046-1.707,0,0,1.151,8.749-3.284,12.688a4.894,4.894,0,0,0-4.309-4.661s-1.881,4.287-6.407,4.958c0,0,.809-3.586-1.585-4.737s-3.726,3.3-3.726,3.3a10.861,10.861,0,0,1-2.287-7.99s-1.444,4.584-9.812,4.271S5109.668,645.93,5116.143,630.3Z" transform="translate(-5049.574 -602.563)" fill="#3a1b17"/>
            <g id="Grupo_2864" data-name="Grupo 2864" transform="translate(65.539 12.798)">
              <path id="Trazado_6020" data-name="Trazado 6020" d="M5159.33,679.905l-.006-.049c.011.013.021.024.031.037Z" transform="translate(-5124.505 -628.827)" fill="#2b1311"/>
              <path id="Trazado_6021" data-name="Trazado 6021" d="M5155.965,660.285c4.662-8.854,2.211-31.688-18.715-32.563a39.248,39.248,0,0,0-21.933,5.629,23.939,23.939,0,0,1,1.029-3.051s11.923-15.78,32.851-14.905,23.377,23.709,18.714,32.563c0,0-2.054,4.6.216,7.81,0,0-4.16.73-6.045-1.707,0,0,1.15,8.749-3.284,12.688a4.944,4.944,0,0,0-3.446-4.481A11.037,11.037,0,0,1,5155.965,660.285Z" transform="translate(-5115.317 -615.361)" fill="#2b1311"/>
            </g>
            <path id="Trazado_6022" data-name="Trazado 6022" d="M5118.859,627.427s.861-2.962,5.026-3.078c6.041-.167,24.921,35.779,16.711,38.918,0,0-2.371,2.92-5.5-1.024S5118.859,627.427,5118.859,627.427Z" transform="translate(-5050.518 -604.439)" fill="#05e866"/>
            <path id="Trazado_6023" data-name="Trazado 6023" d="M5063.937,635.473s10.457-15.357,28.517-15.326,29.459,15.781,32.751,30.88c0,0,8.465,33.736-15.739,37.057s-42.007-9.171-44.783-25.669S5063.937,635.473,5063.937,635.473Z" transform="translate(-5038.9 -603.562)" fill="#3a1b17"/>
            <g id="Grupo_2865" data-name="Grupo 2865" transform="translate(67.706 68.301)">
              <circle id="Elipse_557" data-name="Elipse 557" cx="4.903" cy="4.903" r="4.903" fill="#bc8044"/>
              <circle id="Elipse_558" data-name="Elipse 558" cx="2.876" cy="2.876" r="2.876" transform="translate(2.027 2.027)" fill="#d38c5b"/>
            </g>
            <g id="Grupo_2866" data-name="Grupo 2866" transform="translate(15.382 69.75)">
              <circle id="Elipse_559" data-name="Elipse 559" cx="4.903" cy="4.903" r="4.903" fill="#bc8044"/>
              <circle id="Elipse_560" data-name="Elipse 560" cx="2.876" cy="2.876" r="2.876" transform="translate(2.027 2.027)" fill="#d38c5b"/>
            </g>
            <path id="Trazado_6024" data-name="Trazado 6024" d="M5090.552,921.73h0c-.8-12.882,4.961-18.483,9.9-20.915a8.808,8.808,0,0,1,3.059-1.391,15.16,15.16,0,0,1,3.375-.453c.13-.011.2-.013.2-.013v.013c9.182-.013,12.991,9.923,13.125,18.982.151,10.157-2.861,86.745-14.173,91.992C5090.884,1016.971,5089.922,944.832,5090.552,921.73Z" transform="translate(-5044.579 -661.777)" fill="#bc8044"/>
            <path id="Trazado_6025" data-name="Trazado 6025" d="M5067.4,919.186h0c.628-12.892-5.207-18.415-10.177-20.781a8.817,8.817,0,0,0-3.078-1.35,15.185,15.185,0,0,0-3.381-.409c-.129-.009-.2-.01-.2-.01v.013c-9.182.11-12.858,10.1-12.872,19.156-.015,10.158,4.021,86.7,15.4,91.793C5068.34,1014.423,5068.337,942.277,5067.4,919.186Z" transform="translate(-5033.57 -661.292)" fill="#bc8044"/>
            <path id="Trazado_6026" data-name="Trazado 6026" d="M5082.542,755.516l13.828-.383a27.468,27.468,0,0,1,.035-16.821l-15.255.926S5084.857,749.31,5082.542,755.516Z" transform="translate(-5042.644 -628.234)" fill="#bc8044"/>
            <path id="Trazado_6027" data-name="Trazado 6027" d="M5082.639,744.677a41.418,41.418,0,0,0-1.489-5.438l15.255-.926a25.842,25.842,0,0,0-1.321,8.909C5090.636,748.944,5085.679,746.617,5082.639,744.677Z" transform="translate(-5042.644 -628.234)" fill="#a56c38"/>
            <path id="Trazado_6028" data-name="Trazado 6028" d="M5045.435,867.051c2.841-7.082,12.025-30.339,29.534-31.7,12.92-1.006,26.292,26.662,26.3,26.677,8.073,18.613,24.638,54.115-20.533,57.617l-3.5.274C5014.606,923.317,5045.435,867.051,5045.435,867.051Z" transform="translate(-5033.602 -648.49)" fill="#262626"/>
            <path id="Trazado_6029" data-name="Trazado 6029" d="M5107.58,866.659l6.173-2.742s15.953,28.927,9.9,75.2-13.873,66.78-13.873,66.78l-2.863-.041-1.213-8.046-1.99,8-9.707-.139-3.963-109-.187-25.79Z" transform="translate(-5044.462 -654.461)" fill="#262626"/>
            <path id="Trazado_6030" data-name="Trazado 6030" d="M5054.556,865.858l-6.093-2.918s-16.774,28.459-12.047,74.887,11.955,67.149,11.955,67.149l2.865.04,1.44-8.007,1.762,8.053,9.706.139,7.084-108.843.924-25.774Z" transform="translate(-5033.128 -654.257)" fill="#262626"/>
            <path id="Trazado_6031" data-name="Trazado 6031" d="M5063.07,757.761c-10.992,11.843-31.325,38.824-7.346,49.918,4.729,15.674-7.625,32.465-7.625,32.465s17.992,7.411,27.125,7.208c.8-.018,3.278.018,4.08.059,9.125.464,23.9-6.963,23.9-6.963s-9.2-16.775-3.385-32.144c25.577-10.968,6.672-37.46-2.868-50.51,0,0-3.521-5.8-8.738-5.844s-16.974-1.185-20.158.832A17.207,17.207,0,0,0,5063.07,757.761Z" transform="translate(-5034.997 -631.006)" fill="#0a4f25"/>
            <path id="Trazado_6032" data-name="Trazado 6032" d="M5107.029,821.4s-10.842,2.272-17.019-6.311C5090.01,815.088,5094.028,826.31,5107.029,821.4Z" transform="translate(-5044.494 -644.265)" fill="#083f1c"/>
            <path id="Trazado_6033" data-name="Trazado 6033" d="M5060.8,820.8s10.772,2.582,17.192-5.822C5077.991,814.981,5073.653,826.084,5060.8,820.8Z" transform="translate(-5038.395 -644.243)" fill="#083f1c"/>
            <path id="Trazado_6034" data-name="Trazado 6034" d="M5057.056,697.852l1.5-38.68s1.43-22.36,24.073-21.426c25.4,1.048,26.651,21.49,26.651,21.49l.113,4.981h0l1.872,34.879s.966,8.946-10.556,15.161c-1.583.854-2.892,1.635-4.014,2.349l-.228.2a26.781,26.781,0,0,1-5.858,3.95,13.03,13.03,0,0,1-6.247,1.8h-.013a15.534,15.534,0,0,1-11.077-3.276l-6.433-3.791A19.582,19.582,0,0,1,5057.056,697.852Z" transform="translate(-5037.608 -607.23)" fill="#bc8044"/>
            <path id="Trazado_6035" data-name="Trazado 6035" d="M5084.357,721.682h.013a13.031,13.031,0,0,0,6.247-1.8,26.785,26.785,0,0,0,5.858-3.951l.228-.2c1.122-.714,2.431-1.494,4.014-2.348,11.522-6.216,10.557-15.161,10.557-15.161l-1.873-34.88-.112-4.981s-.983-15.922-18.673-20.381c22.921,2.266,24.095,21.31,24.095,21.31l.112,4.981,1.872,34.879s.966,8.946-10.556,15.161c-1.583.854-2.892,1.635-4.013,2.349l-.229.2a26.787,26.787,0,0,1-5.858,3.951,13.027,13.027,0,0,1-6.247,1.8h-.012a15.606,15.606,0,0,1-6.727-.868C5083.477,721.741,5083.911,721.722,5084.357,721.682Z" transform="translate(-5043.041 -607.285)" fill="#ad733e"/>
            <path id="Trazado_6036" data-name="Trazado 6036" d="M5104.5,860.247s-14.377,8.088-27.636,7.615c-14.154-.506-27.155-8.979-27.155-8.979l-2.355,4.307s10.3,8.493,29.452,8.767,29.724-8.1,29.724-8.1Z" transform="translate(-5035.588 -653.409)" fill="#083f1c"/>
            <path id="Trazado_6037" data-name="Trazado 6037" d="M5111.709,882.9s2.939,9.97,9.924,13.722l-2.633,2.91s-9.151-9.256-9.809-14.788Z" transform="translate(-5048.499 -658.424)" fill="#3c3d3f"/>
            <path id="Trazado_6038" data-name="Trazado 6038" d="M5055.434,882.123s-3.223,9.881-10.312,13.433l2.548,2.984s9.413-8.99,10.23-14.5Z" transform="translate(-5035.122 -658.262)" fill="#3c3d3f"/>
            <path id="Trazado_6039" data-name="Trazado 6039" d="M5100.853,706.181a4.509,4.509,0,1,0,4.382-4.632A4.507,4.507,0,0,0,5100.853,706.181Z" transform="translate(-5046.757 -620.558)" fill="#f48f8a" opacity="0.41"/>
            <path id="Trazado_6040" data-name="Trazado 6040" d="M5071.6,705.627a4.509,4.509,0,1,1-4.632-4.382A4.509,4.509,0,0,1,5071.6,705.627Z" transform="translate(-5038.767 -620.495)" fill="#f48f8a" opacity="0.41"/>
            <path id="Trazado_6041" data-name="Trazado 6041" d="M5079.786,646.157s-34.751,26.379-46.837,4.674c0,0,7.4-2.275,13.819-14.86s42-18.625,49.256-1.364Z" transform="translate(-5032.58 -604.351)" fill="#3a1b17"/>
            <path id="Trazado_6042" data-name="Trazado 6042" d="M5046.768,635.972c4.669-9.158,24.784-14.847,38.188-10.616-10.775.82-21.558,5.521-24.818,11.912-6.416,12.586-13.819,14.86-13.819,14.86a16.109,16.109,0,0,0,6.759,6.763c-7.878,1.457-15.6.078-20.128-8.06C5032.949,650.831,5040.353,648.557,5046.768,635.972Z" transform="translate(-5032.58 -604.352)" fill="#2b1311"/>
            <path id="Trazado_6043" data-name="Trazado 6043" d="M5092.612,641.322s-6.266,12.649,4.75,15.574,18.109,12.423,16.96,20.5c0,0,2.845,2,5.64-4.13s9.044-33.166-11.851-36.023S5092.612,641.322,5092.612,641.322Z" transform="translate(-5044.666 -606.987)" fill="#3a1b17"/>
            <path id="Trazado_6044" data-name="Trazado 6044" d="M5058.744,664.121l-.795,17.811s5.79-11.95,3.673-17.891S5058.744,664.121,5058.744,664.121Z" transform="translate(-5037.799 -612.18)" fill="#3a1b17"/>
            <path id="Trazado_6045" data-name="Trazado 6045" d="M5073.3,668.5s-7.564.916-8.9,3.7,8.965-.553,9.6-1.411S5074.671,669.094,5073.3,668.5Z" transform="translate(-5039.121 -613.658)" fill="#3a1b17"/>
            <path id="Trazado_6046" data-name="Trazado 6046" d="M5099.575,668.617s7.566.91,8.9,3.691-8.965-.545-9.6-1.4S5098.2,669.212,5099.575,668.617Z" transform="translate(-5046.257 -613.682)" fill="#3a1b17"/>
            <path id="Trazado_6047" data-name="Trazado 6047" d="M5058.13,664.833s-6.459,7.488-.8,17.811Z" transform="translate(-5037.186 -612.892)" fill="#3a1b17"/>
            <path id="Trazado_6048" data-name="Trazado 6048" d="M5105.1,630.965s18.514-5.565,10.429-23.7C5115.526,607.267,5129.9,627.409,5105.1,630.965Z" transform="translate(-5047.644 -600.872)" fill="#2b1311"/>
            <path id="Trazado_6049" data-name="Trazado 6049" d="M5163.537,622.6s-4.74-16.1,12.39-15.8C5175.927,606.8,5164.905,609.227,5163.537,622.6Z" transform="translate(-5059.72 -600.773)" fill="#3a1b17"/>
            <path id="Trazado_6050" data-name="Trazado 6050" d="M5143.865,617.48s9.377-8.083,8.322-18.295C5152.188,599.185,5158.624,615.865,5143.865,617.48Z" transform="translate(-5055.739 -599.185)" fill="#3a1b17"/>
            <path id="Trazado_6051" data-name="Trazado 6051" d="M5158.9,663.044s5.951,7.187,1.884,20.82C5160.78,683.864,5169.76,670.674,5158.9,663.044Z" transform="translate(-5058.877 -612.519)" fill="#3a1b17"/>
            <path id="Trazado_6052" data-name="Trazado 6052" d="M5174.031,638.448s5.548,10.28,16.53,12.3C5190.561,650.743,5176.385,655.58,5174.031,638.448Z" transform="translate(-5062.037 -607.383)" fill="#3a1b17"/>
            <path id="Trazado_6053" data-name="Trazado 6053" d="M5173.754,626.673s12.083,1.241,16-6.709C5189.758,619.964,5186.111,636.988,5173.754,626.673Z" transform="translate(-5061.98 -603.524)" fill="#3a1b17"/>
            <path id="Trazado_6054" data-name="Trazado 6054" d="M5122.016,656.468s15.723,9.161,26.076-.722C5148.092,655.746,5137.375,660.23,5122.016,656.468Z" transform="translate(-5051.177 -610.995)" fill="#2b1311"/>
            <path id="Trazado_6055" data-name="Trazado 6055" d="M5131.2,676.1s7.823,9.992,2.636,27.929C5133.84,704.028,5147.121,686.355,5131.2,676.1Z" transform="translate(-5053.095 -615.245)" fill="#2b1311"/>
            <path id="Trazado_6056" data-name="Trazado 6056" d="M5054.771,670.114s-8.543,7.389-22.29,5.143C5032.482,675.257,5047.539,684.075,5054.771,670.114Z" transform="translate(-5032.482 -613.995)" fill="#2b1311"/>
            <path id="Trazado_6057" data-name="Trazado 6057" d="M5074.687,632.875s-26.183,1.719-35.932-20.231C5038.755,612.644,5046.349,644.365,5074.687,632.875Z" transform="translate(-5033.792 -601.995)" fill="#2b1311"/>
            <path id="Trazado_6058" data-name="Trazado 6058" d="M5097.823,625.983s9.619-13.985-1.251-23.732C5096.572,602.251,5115.909,616.208,5097.823,625.983Z" transform="translate(-5045.864 -599.825)" fill="#3a1b17"/>
            <path id="Trazado_6059" data-name="Trazado 6059" d="M5085.639,648.579s8.976,8.823-2.441,19.259C5083.2,667.838,5101.362,660.225,5085.639,648.579Z" transform="translate(-5043.072 -609.498)" fill="#3a1b17"/>
            <path id="Trazado_6060" data-name="Trazado 6060" d="M5104.684,653.545s-6.133,13.567,6.977,21.813A38,38,0,0,1,5104.684,653.545Z" transform="translate(-5047.258 -610.535)" fill="#2b1311"/>
            <g id="Grupo_2867" data-name="Grupo 2867" transform="translate(36.483 93.074)">
              <path id="Trazado_6061" data-name="Trazado 6061" d="M5078.6,722.36s.373-4.886,6.35-5.458,10.115,2.056,10.283,4.49-2.225,4.023-4.788,3.18a9.553,9.553,0,0,0-6.908-.012C5081.12,725.439,5078.464,724.9,5078.6,722.36Z" transform="translate(-5078.592 -716.822)" fill="#3a3a3a"/>
              <path id="Trazado_6062" data-name="Trazado 6062" d="M5078.6,722.36s.373-4.886,6.35-5.458,10.115,2.056,10.283,4.49-2.225,4.023-4.788,3.18a9.553,9.553,0,0,0-6.908-.012C5081.12,725.439,5078.464,724.9,5078.6,722.36Z" transform="translate(-5078.592 -716.822)" fill="#3a3a3a"/>
              <path id="Trazado_6063" data-name="Trazado 6063" d="M5092.55,719.648l.711-1.313a13.213,13.213,0,0,0-7.9-1.434,7.171,7.171,0,0,0-4.78,2.131l.353,1.243Z" transform="translate(-5079.008 -716.822)" fill="#fff"/>
              <path id="Trazado_6064" data-name="Trazado 6064" d="M5086.428,722.02c-3.536.077-4.1,2.447-4.1,4.011a6.3,6.3,0,0,0,1.982-.388,9.554,9.554,0,0,1,6.908.012,4.22,4.22,0,0,0,2.217.138C5092.918,723.276,5090.867,721.923,5086.428,722.02Z" transform="translate(-5079.373 -717.906)" fill="#d31a1a"/>
              <path id="Trazado_6065" data-name="Trazado 6065" d="M5084.314,725.771a9.553,9.553,0,0,1,6.908.012,4.454,4.454,0,0,0,1.211.219c-.652-2.257-2.713-3.463-6.909-3.371a5.561,5.561,0,0,0-1.821.316,3.876,3.876,0,0,0-1.372,3.212A6.3,6.3,0,0,0,5084.314,725.771Z" transform="translate(-5079.373 -718.034)" fill="#e53333"/>
            </g>
            <g id="Grupo_2868" data-name="Grupo 2868" transform="translate(24.348 66.732)">
              <path id="Trazado_6066" data-name="Trazado 6066" d="M5075.4,687.627a3.925,3.925,0,1,1-3.92-4.1A4.013,4.013,0,0,1,5075.4,687.627Z" transform="translate(-5064.154 -683.528)" fill="#2f1b11"/>
              <path id="Trazado_6067" data-name="Trazado 6067" d="M5074.278,686.244s-3.784-3.031-7.213.279c0,0-3.254-.608-3.809-2.813,0,0,2.708,1.431,4.6.494S5073.089,683.056,5074.278,686.244Z" transform="translate(-5063.256 -683.542)" fill="#2f1b11"/>
              <path id="Trazado_6068" data-name="Trazado 6068" d="M5070.161,687.426a1.091,1.091,0,0,0,.015,1.472c.533.59-.34,1.469-.875.875a2.309,2.309,0,0,1-.208-2.972.64.64,0,0,1,.847-.222.623.623,0,0,1,.222.847Z" transform="translate(-5064.381 -684.148)" fill="#fff"/>
            </g>
            <g id="Grupo_2869" data-name="Grupo 2869" transform="translate(52.411 66.732)">
              <path id="Trazado_6069" data-name="Trazado 6069" d="M5098.724,687.627a3.925,3.925,0,1,0,3.92-4.1A4.014,4.014,0,0,0,5098.724,687.627Z" transform="translate(-5098.724 -683.528)" fill="#2f1b11"/>
              <path id="Trazado_6070" data-name="Trazado 6070" d="M5099.005,686.244s3.784-3.031,7.213.279c0,0,3.255-.608,3.808-2.813,0,0-2.707,1.431-4.6.494S5100.195,683.056,5099.005,686.244Z" transform="translate(-5098.783 -683.542)" fill="#2f1b11"/>
              <path id="Trazado_6071" data-name="Trazado 6071" d="M5102.052,687.426a1.09,1.09,0,0,0,.016,1.472c.532.59-.341,1.469-.877.875a2.309,2.309,0,0,1-.208-2.972.64.64,0,0,1,.846-.222.623.623,0,0,1,.223.847Z" transform="translate(-5099.103 -684.148)" fill="#fff"/>
            </g>
            <g id="Grupo_2870" data-name="Grupo 2870" transform="translate(16.346 62.179)">
              <path id="Trazado_6072" data-name="Trazado 6072" d="M5069.333,679.643c4.278.135,7.674,1.693,8.547,3.307a1.029,1.029,0,0,1,.049.1,7.117,7.117,0,0,1-.018,4.892,16.567,16.567,0,0,1-6.037,7.963c-3.235,2.332-5.5,1.952-7.909.519a10.243,10.243,0,0,1-4.577-6.322c-.743-2.644-.592-6.2.917-8.18S5064.969,679.505,5069.333,679.643Z" transform="translate(-5054.355 -678.158)" fill="#fff" opacity="0.27"/>
              <path id="Trazado_6073" data-name="Trazado 6073" d="M5069.8,679.117l7,14.428s-1.895,3.787-4.986,3.955l-7.932-18.272S5064.886,678.706,5069.8,679.117Z" transform="translate(-5055.384 -678.02)" opacity="0.41" fill="url(#linear-gradient)"/>
              <path id="Trazado_6074" data-name="Trazado 6074" d="M5062.264,679.542l7.528,18.157s.388.225-2.7.394l-7.646-17.4A5.3,5.3,0,0,1,5062.264,679.542Z" transform="translate(-5054.457 -678.142)" opacity="0.41" fill="url(#linear-gradient-2)"/>
              <path id="Trazado_6075" data-name="Trazado 6075" d="M5094.453,683.642c1.007-1.535,4.521-2.8,8.8-2.571,4.361.232,7.466.934,8.8,3.034s1.186,5.655.222,8.227a10.247,10.247,0,0,1-5.1,5.912c-2.522,1.223-4.81,1.412-7.835-1.187a16.564,16.564,0,0,1-5.342-8.445,7.119,7.119,0,0,1,.4-4.876A1.071,1.071,0,0,1,5094.453,683.642Z" transform="translate(-5061.622 -678.456)" fill="#fff" opacity="0.27"/>
              <path id="Trazado_6076" data-name="Trazado 6076" d="M5106.353,680.668l7,14.428s-1.9,3.786-4.986,3.955l-7.931-18.273S5101.435,680.256,5106.353,680.668Z" transform="translate(-5063.015 -678.344)" opacity="0.41" fill="url(#linear-gradient-3)"/>
              <path id="Trazado_6077" data-name="Trazado 6077" d="M5098.813,681.092l7.527,18.158s.388.225-2.7.393l-7.646-17.4A5.3,5.3,0,0,1,5098.813,681.092Z" transform="translate(-5062.088 -678.466)" opacity="0.41" fill="url(#linear-gradient-4)"/>
              <path id="Trazado_6078" data-name="Trazado 6078" d="M5053.668,686.2a2.8,2.8,0,0,1,2.064,1.751c.518,1.209,2.068,7.213,6.53,9.539s7.149,1.057,10.728-2.015c3.8-3.259,4.835-6.391,5.812-8.425a5.368,5.368,0,0,0-.077-2.495c-.395-.777-1-2.276,2.608-2.123s2.878,1.6,2.419,2.336a5.439,5.439,0,0,0-.276,2.513,17.079,17.079,0,0,0,5.067,8.854c3.305,3.364,5.875,4.857,10.518,2.916s6.7-7.792,7.315-8.952a2.8,2.8,0,0,1,2.205-1.57c.717-.112.7-1.87.629-2.491s-.012-.76-1.32-1.291-1.7-1.165-2.878-2.544a8.656,8.656,0,0,0-5.007-2.636,27.739,27.739,0,0,0-7.982-.528c-3.95.165-5.972,1.932-6.636,1.9s-2.054-.847-3.951-.927-3.352.618-4.016.589-2.529-1.96-6.451-2.458a27.683,27.683,0,0,0-8-.15,8.65,8.65,0,0,0-5.211,2.2c-1.29,1.275-1.737,1.874-3.084,2.291s-1.3.563-1.425,1.175S5052.962,686.025,5053.668,686.2Zm32.247-3.145a.88.88,0,0,1,.058-.093c1.006-1.535,4.521-2.8,8.8-2.571,4.361.232,7.466.934,8.8,3.034s1.186,5.656.222,8.227a10.245,10.245,0,0,1-5.1,5.912c-2.522,1.223-4.81,1.411-7.835-1.187a16.564,16.564,0,0,1-5.342-8.445A7.119,7.119,0,0,1,5085.915,683.052Zm-26.823-1.518c1.508-1.979,4.663-2.415,9.028-2.277,4.278.134,7.674,1.693,8.546,3.307a1.034,1.034,0,0,1,.049.1,7.117,7.117,0,0,1-.018,4.892,16.565,16.565,0,0,1-6.038,7.963c-3.234,2.333-5.5,1.952-7.908.519a10.245,10.245,0,0,1-4.577-6.322C5057.432,687.07,5057.583,683.513,5059.092,681.534Z" transform="translate(-5053.142 -677.773)" fill="#0d173f"/>
              <path id="Trazado_6079" data-name="Trazado 6079" d="M5121.209,687.457l1.948-.685,3.486-1.885-.687,3.449-3.164,1.675Z" transform="translate(-5067.354 -679.258)" fill="#0d173f"/>
            </g>
          </g>
          <path id="Trazado_6080" data-name="Trazado 6080" d="M5095.675,754.39s29.939-.133,33.247,18.75c0,0,1.685,11.7-12.3,13.182Z" transform="translate(-4981.916 -631.592)" fill="#0a4f25"/>
          <g id="Grupo_2873" data-name="Grupo 2873" transform="translate(100.457 118.424)">
            <path id="Trazado_6081" data-name="Trazado 6081" d="M5098.235,748.861l-.553,8.425-17.364.481-1.457-8.369Z" transform="translate(-5078.861 -748.861)" fill="#0a4f25"/>
            <g id="Grupo_2872" data-name="Grupo 2872" transform="translate(2.745 1.534)">
              <path id="Trazado_6082" data-name="Trazado 6082" d="M5100.187,750.8l.164,5.918A12.2,12.2,0,0,1,5100.187,750.8Z" transform="translate(-5085.992 -750.8)" fill="#083f1c"/>
              <path id="Trazado_6083" data-name="Trazado 6083" d="M5097.682,750.869l.164,5.918A12.2,12.2,0,0,1,5097.682,750.869Z" transform="translate(-5085.469 -750.814)" fill="#083f1c"/>
              <path id="Trazado_6084" data-name="Trazado 6084" d="M5095.178,750.939l.163,5.918A12.186,12.186,0,0,1,5095.178,750.939Z" transform="translate(-5084.946 -750.829)" fill="#083f1c"/>
              <path id="Trazado_6085" data-name="Trazado 6085" d="M5092.671,751.008l.164,5.918A12.2,12.2,0,0,1,5092.671,751.008Z" transform="translate(-5084.423 -750.843)" fill="#083f1c"/>
              <path id="Trazado_6086" data-name="Trazado 6086" d="M5090.166,751.078l.164,5.917A12.187,12.187,0,0,1,5090.166,751.078Z" transform="translate(-5083.9 -750.858)" fill="#083f1c"/>
              <path id="Trazado_6087" data-name="Trazado 6087" d="M5087.661,751.147l.164,5.918A12.2,12.2,0,0,1,5087.661,751.147Z" transform="translate(-5083.377 -750.872)" fill="#083f1c"/>
              <path id="Trazado_6088" data-name="Trazado 6088" d="M5085.155,751.216l.164,5.918A12.2,12.2,0,0,1,5085.155,751.216Z" transform="translate(-5082.854 -750.887)" fill="#083f1c"/>
              <path id="Trazado_6089" data-name="Trazado 6089" d="M5082.65,751.286l.164,5.917A12.187,12.187,0,0,1,5082.65,751.286Z" transform="translate(-5082.331 -750.901)" fill="#083f1c"/>
            </g>
          </g>
          <path id="Trazado_6090" data-name="Trazado 6090" d="M5197.61,770.587l-.795-.464a1.066,1.066,0,0,1-.383-1.454l3.125-6.414a1.066,1.066,0,0,1,1.455-.383l1.713,1a1.067,1.067,0,0,1,.383,1.454l-4.044,5.879A1.066,1.066,0,0,1,5197.61,770.587Z" transform="translate(-5002.923 -633.124)" fill="#a56c38"/>
          <path id="Trazado_6091" data-name="Trazado 6091" d="M5184.384,772.137s-7.369,42.416-24.9,31.453c-15.374-9.612-27.538-36.269-27.538-36.269l-6.676,4.689s15.829,33.59,36.191,41.177,28.449-35.964,28.449-35.964Z" transform="translate(-4988.094 -634.291)" fill="#bc8044"/>
          <path id="Trazado_6092" data-name="Trazado 6092" d="M5106.055,758.722l1.133-3.2s23.757-1.3,34.551,24.143c0,0-7.945,8.912-19.559,9.365Z" transform="translate(-4984.083 -631.826)" fill="#0a4f25"/>
          <g id="Grupo_2874" data-name="Grupo 2874" transform="translate(191.887 128.623)">
            <path id="Trazado_6093" data-name="Trazado 6093" d="M5211.982,777.226c.128-.04,1.972-.521,2.092-.584,1.152-.6,1.052-1.771.562-2.916l-2.209-10.126a2.31,2.31,0,0,0-.533-1.092,2.376,2.376,0,0,0-2.676-.563l-13.306,6.89a2.58,2.58,0,0,0-1.045,1.033,3.192,3.192,0,0,0,.046,3.309l2.012,4.7c.916,2.749,2.372,2.831,3.579,2.313Z" transform="translate(-5194.419 -761.752)" fill="#bc8044"/>
          </g>
          <path id="Trazado_6094" data-name="Trazado 6094" d="M4982.1,768.947s7.369,42.416,24.9,31.453c15.374-9.612,27.538-36.27,27.538-36.27l6.675,4.689s-15.829,33.591-36.191,41.178-28.45-35.964-28.45-35.964Z" transform="translate(-4957.048 -633.625)" fill="#bc8044"/>
          <path id="Trazado_6095" data-name="Trazado 6095" d="M5068.07,755.532l-1.133-3.2s-23.756-1.3-34.55,24.143c0,0,7.944,8.912,19.558,9.365Z" transform="translate(-4968.701 -631.16)" fill="#0a4f25"/>
          <g id="Grupo_2875" data-name="Grupo 2875" transform="translate(8.89 126.099)">
            <path id="Trazado_6096" data-name="Trazado 6096" d="M4966.133,774.036c-.128-.04-1.973-.521-2.092-.584-1.153-.6-1.053-1.771-.562-2.916l2.211-10.127a2.3,2.3,0,0,1,.533-1.092,2.373,2.373,0,0,1,2.675-.562l13.305,6.889a2.6,2.6,0,0,1,1.045,1.034,3.192,3.192,0,0,1-.047,3.308l-2.012,4.7c-.916,2.749-2.371,2.832-3.578,2.313Z" transform="translate(-4963.131 -758.561)" fill="#bc8044"/>
          </g>
          <g id="Grupo_2884" data-name="Grupo 2884" transform="translate(0 110.416)">
            <g id="Grupo_2876" data-name="Grupo 2876" transform="translate(0.606 6.851)">
              <path id="Trazado_6097" data-name="Trazado 6097" d="M4952.66,748.366l4.237,29.473c.06,1.513,4.136,2.569,9.109,2.37s8.948-1.579,8.888-3.092l1.853-29.718Z" transform="translate(-4952.66 -747.399)" fill="#ef146d"/>
            </g>
            <g id="Grupo_2877" data-name="Grupo 2877" transform="translate(0.046 6.824)">
              <path id="Trazado_6098" data-name="Trazado 6098" d="M4977.26,747.365l-25.308,1.016.042,2.19,25.307-1.016Z" transform="translate(-4951.953 -747.365)" fill="#cdd2d3"/>
            </g>
            <g id="Grupo_2878" data-name="Grupo 2878" transform="translate(0.088 5.649)">
              <path id="Trazado_6099" data-name="Trazado 6099" d="M4977.311,749.245c.086,2.12-5.51,4.072-12.5,4.352s-12.724-1.215-12.81-3.336c1.453-1.582,5.508-4.075,12.5-4.356s11.211,1.864,12.8,3.34" transform="translate(-4952.005 -745.88)" fill="#cdd2d3"/>
            </g>
            <g id="Grupo_2879" data-name="Grupo 2879" transform="translate(0 3.461)">
              <path id="Trazado_6100" data-name="Trazado 6100" d="M4977.2,746.48c.086,2.126-5.51,4.073-12.5,4.353s-12.725-1.212-12.811-3.338c1.454-1.577,5.508-4.075,12.5-4.355s11.21,1.863,12.8,3.34" transform="translate(-4951.894 -743.115)" fill="#f7f7f7"/>
            </g>
            <g id="Grupo_2880" data-name="Grupo 2880" transform="translate(0.508 3.761)">
              <path id="Trazado_6101" data-name="Trazado 6101" d="M4952.536,747.554l1.679-3.227,20.766-.833,1.936,3.082Z" transform="translate(-4952.536 -743.494)" fill="#f7f7f7"/>
            </g>
            <g id="Grupo_2881" data-name="Grupo 2881" transform="translate(2.109 2.764)">
              <path id="Trazado_6102" data-name="Trazado 6102" d="M4965.065,745.8c-5.74.23-10.436-.989-10.506-2.733l.039,1c.071,1.74,4.766,2.969,10.507,2.737s10.321-1.831,10.251-3.571l-.041-1c.07,1.744-4.517,3.336-10.251,3.566" transform="translate(-4954.56 -742.233)" fill="#cdd2d3"/>
            </g>
            <g id="Grupo_2882" data-name="Grupo 2882" transform="translate(2.108)">
              <path id="Trazado_6103" data-name="Trazado 6103" d="M4975.316,741.5c.07,1.744-4.517,3.336-10.251,3.566s-10.437-.989-10.506-2.733,4.513-3.339,10.254-3.569,10.434,1,10.5,2.736" transform="translate(-4954.558 -738.74)" fill="#f7f7f7"/>
            </g>
            <g id="Grupo_2883" data-name="Grupo 2883" transform="translate(2.078 17.194)">
              <path id="Trazado_6104" data-name="Trazado 6104" d="M4965.6,763.213c-3.673.147-9.016.047-11.083-1.859l1.46,11.5c1.873,1.735,6.733,1.824,10.077,1.69s8.167-.612,9.895-2.491l.541-11.577c-1.9,2.065-7.223,2.594-10.89,2.741" transform="translate(-4954.521 -760.471)" fill="#845d1e"/>
            </g>
          </g>
          <path id="Trazado_6105" data-name="Trazado 6105" d="M4985.75,766.743l0-.92a1.065,1.065,0,0,0-1.058-1.069l-7.113-.57a1.066,1.066,0,0,0-1.069,1.058l-.01,1.984a1.066,1.066,0,0,0,1.057,1.069l7.119-.494A1.067,1.067,0,0,0,4985.75,766.743Z" transform="translate(-4957.033 -633.637)" fill="#a56c38"/>
        </g>
      </g>
    </g>
    <path id="Trazado_6107" data-name="Trazado 6107" d="M5019.738,706.229s-25.64-4.856-38.461-26.053c10.22-5.076,17.021-14.071,17.021-24.329,0-15.852-16.226-28.7-36.241-28.7s-36.24,12.85-36.24,28.7,16.226,28.7,36.24,28.7a45.288,45.288,0,0,0,9.357-.971C4980.114,691.82,4998.377,706.233,5019.738,706.229Z" transform="translate(-2.872 -6.364)" fill="#ef146d"/>
    <g id="Grupo_2888" data-name="Grupo 2888" transform="translate(4933.444 639.213)">
      <path id="Trazado_6108" data-name="Trazado 6108" d="M4942.612,668.3a7.769,7.769,0,0,1-2.815-1.332,1.766,1.766,0,0,1-.545-.6,1.871,1.871,0,0,1,.228-1.915,1.147,1.147,0,0,1,.9-.481,1.705,1.705,0,0,1,.544.089,3.456,3.456,0,0,1,.646.316,8.483,8.483,0,0,0,2.206,1,8.951,8.951,0,0,0,2.459.317,4.841,4.841,0,0,0,2.561-.558,1.78,1.78,0,0,0,.888-1.6,1.436,1.436,0,0,0-.825-1.268,10.6,10.6,0,0,0-2.928-.912,16.254,16.254,0,0,1-3.767-1.167,4.875,4.875,0,0,1-2.053-1.7,4.48,4.48,0,0,1-.647-2.46,4.791,4.791,0,0,1,.926-2.877,6.138,6.138,0,0,1,2.562-2,9.033,9.033,0,0,1,3.689-.722,9.433,9.433,0,0,1,5.934,1.8,1.991,1.991,0,0,1,.544.621,1.662,1.662,0,0,1,.165.773,1.714,1.714,0,0,1-.393,1.116,1.148,1.148,0,0,1-.9.481,1.712,1.712,0,0,1-.519-.076,3.573,3.573,0,0,1-.672-.33,10.782,10.782,0,0,0-1.914-.989,6.39,6.39,0,0,0-2.22-.329,4.318,4.318,0,0,0-2.434.6,1.871,1.871,0,0,0-.888,1.635,1.473,1.473,0,0,0,.341,1,2.85,2.85,0,0,0,1.143.7,17.244,17.244,0,0,0,2.269.635,12.6,12.6,0,0,1,4.957,1.953,3.942,3.942,0,0,1,1.51,3.27,4.759,4.759,0,0,1-.9,2.866,5.811,5.811,0,0,1-2.536,1.927,9.755,9.755,0,0,1-3.791.684A14.16,14.16,0,0,1,4942.612,668.3Z" transform="translate(-4939.087 -650.441)" fill="#fff"/>
      <path id="Trazado_6109" data-name="Trazado 6109" d="M4964.429,667.646a7.625,7.625,0,0,1-3.03-3.2,11.6,11.6,0,0,1,0-9.711,7.544,7.544,0,0,1,3.03-3.181,10.149,10.149,0,0,1,9.255,0,7.545,7.545,0,0,1,3.03,3.181,11.607,11.607,0,0,1,0,9.711,7.626,7.626,0,0,1-3.03,3.2,10.059,10.059,0,0,1-9.255,0Zm8.139-3.512a8.7,8.7,0,0,0,.013-9.065,4.748,4.748,0,0,0-7.036,0,8.769,8.769,0,0,0,.013,9.065,4.694,4.694,0,0,0,7.011,0Z" transform="translate(-4943.523 -650.441)" fill="#fff"/>
      <path id="Trazado_6110" data-name="Trazado 6110" d="M4988.7,668.3a7.763,7.763,0,0,1-2.814-1.332,1.763,1.763,0,0,1-.545-.6,1.869,1.869,0,0,1,.229-1.915,1.147,1.147,0,0,1,.9-.481,1.7,1.7,0,0,1,.544.089,3.441,3.441,0,0,1,.646.316,8.5,8.5,0,0,0,2.206,1,8.954,8.954,0,0,0,2.459.317,4.839,4.839,0,0,0,2.561-.558,1.781,1.781,0,0,0,.888-1.6,1.436,1.436,0,0,0-.824-1.268,10.6,10.6,0,0,0-2.928-.912,16.241,16.241,0,0,1-3.766-1.167,4.867,4.867,0,0,1-2.053-1.7,4.472,4.472,0,0,1-.647-2.46,4.791,4.791,0,0,1,.926-2.877,6.14,6.14,0,0,1,2.562-2,9.033,9.033,0,0,1,3.689-.722,9.43,9.43,0,0,1,5.934,1.8,2,2,0,0,1,.545.621,1.668,1.668,0,0,1,.165.773,1.717,1.717,0,0,1-.393,1.116,1.149,1.149,0,0,1-.9.481,1.719,1.719,0,0,1-.52-.076,3.586,3.586,0,0,1-.671-.33,10.769,10.769,0,0,0-1.914-.989,6.385,6.385,0,0,0-2.219-.329,4.322,4.322,0,0,0-2.435.6,1.871,1.871,0,0,0-.887,1.635,1.473,1.473,0,0,0,.342,1,2.849,2.849,0,0,0,1.142.7,17.289,17.289,0,0,0,2.269.635,12.588,12.588,0,0,1,4.958,1.953,3.942,3.942,0,0,1,1.51,3.27,4.762,4.762,0,0,1-.9,2.866,5.81,5.81,0,0,1-2.536,1.927,9.758,9.758,0,0,1-3.791.684A14.163,14.163,0,0,1,4988.7,668.3Z" transform="translate(-4948.709 -650.441)" fill="#fff"/>
    </g>
  </g>
</svg>
