<svg xmlns="http://www.w3.org/2000/svg" xmlns:xlink="http://www.w3.org/1999/xlink" width="176" height="176" viewBox="0 0 176 176">
  <defs>
    <linearGradient id="linear-gradient" x1="0.5" x2="0.5" y2="1" gradientUnits="objectBoundingBox">
      <stop offset="0" stop-color="#f1e8ff"/>
      <stop offset="0.256" stop-color="#e0d1ff"/>
      <stop offset="1" stop-color="#b393ff"/>
    </linearGradient>
    <clipPath id="clip-path">
      <path id="Trazado_4944" data-name="Trazado 4944" d="M6360.794,486.824V415.162H6243.747v44.413c-7.1.223-13.5,2.452-18.888,7.8-26.591,26.409-11.561,54.177-11.561,54.177,24.856,61.51,113.876,65.662,143.935,40.228C6380.167,542.375,6378.87,501.438,6360.794,486.824Z" fill="none"/>
    </clipPath>
  </defs>
  <g id="Grupo_2481" data-name="Grupo 2481" transform="translate(-6204.469 -400.457)">
    <path id="Trazado_4901" data-name="Trazado 4901" d="M6213.3,521.553s-15.029-27.768,11.562-54.177,78.037,23.219,114.455,14.88,47.978,54.091,17.919,79.525S6238.154,583.063,6213.3,521.553Z" fill="url(#linear-gradient)"/>
    <rect id="Rectángulo_1876" data-name="Rectángulo 1876" width="176" height="176" transform="translate(6204.469 400.457)" fill="none"/>
    <path id="Trazado_4902" data-name="Trazado 4902" d="M6267.608,427.5s-16.618-26.736-13.2-27.038S6267.608,427.5,6267.608,427.5Z" fill="#ee9321"/>
    <path id="Trazado_4903" data-name="Trazado 4903" d="M6265.459,429.635s-31.226-3.995-29.3-6.838S6265.459,429.635,6265.459,429.635Z" fill="#ee9321"/>
    <path id="Trazado_4904" data-name="Trazado 4904" d="M6264.877,426.843s-13.623-10.31-15.263-9.721S6256.6,423.448,6264.877,426.843Z" fill="#ee9321"/>
    <path id="Trazado_4905" data-name="Trazado 4905" d="M6320.163,428.683s16.618-26.737,13.2-27.038S6320.163,428.683,6320.163,428.683Z" fill="#ee9321"/>
    <path id="Trazado_4906" data-name="Trazado 4906" d="M6322.312,430.821s31.225-4,29.3-6.838S6322.312,430.821,6322.312,430.821Z" fill="#ee9321"/>
    <path id="Trazado_4907" data-name="Trazado 4907" d="M6322.894,428.029s13.623-10.311,15.263-9.721S6331.174,424.634,6322.894,428.029Z" fill="#ee9321"/>
    <g id="Grupo_2480" data-name="Grupo 2480">
      <g id="Grupo_2479" data-name="Grupo 2479" clip-path="url(#clip-path)">
        <g id="Grupo_2478" data-name="Grupo 2478">
          <g id="Grupo_2477" data-name="Grupo 2477">
            <path id="Trazado_4908" data-name="Trazado 4908" d="M6325.679,450.633l-.018.675a.784.784,0,0,1-.8.759l-5.231.247a.782.782,0,0,1-.758-.8l.04-1.455a.782.782,0,0,1,.8-.759l5.209.533A.784.784,0,0,1,6325.679,450.633Z" fill="#996e4f"/>
            <path id="Trazado_4909" data-name="Trazado 4909" d="M6299.29,423.947s-20.632-5.443-28.7,8.061-4.5,29.351-10.221,31.978c0,0,2.532,2.088,4.313-.643,0,0-7.6,9.366.094,15.649s-.915,14.817-.915,14.817,6.917.281,8.042-3.564c0,0-2.438,11.16,7.972,12.191s28.985.6,31.808-5.4a17.836,17.836,0,0,0,.92-11.938s1.97,7.4,8.347,6.944c0,0-4.248-5.452-2.157-10.329a30.682,30.682,0,0,0,1.5-19.582s2.173,2.391,6.432.858c0,0-4.369-2.743-4.65-7.436S6324.61,425.073,6299.29,423.947Z" fill="#3f150a"/>
            <g id="Grupo_2469" data-name="Grupo 2469">
              <circle id="Elipse_440" data-name="Elipse 440" cx="3.23" cy="3.23" r="3.23" transform="translate(6273.915 458.166)" fill="#c19063"/>
              <circle id="Elipse_441" data-name="Elipse 441" cx="1.895" cy="1.895" r="1.895" transform="translate(6275.25 459.501)" fill="#996e4f" opacity="0.55"/>
            </g>
            <path id="Trazado_4910" data-name="Trazado 4910" d="M6300.491,485.435v10.714l-11.772.368L6290.2,485.1Z" fill="#c19063"/>
            <path id="Trazado_4911" data-name="Trazado 4911" d="M6300.491,490.807s-5.915,3.08-10.967-.495l.676-5.216,10.291.339Z" fill="#996e4f"/>
            <path id="Trazado_4912" data-name="Trazado 4912" d="M6326.046,567.508h0c-6.2-23.348-13.448-38.19-13.448-38.19,6.473-8.317,15.867-25-5.231-33.735l-.018.019a29.555,29.555,0,0,0-23.233.134c-20.63,8.772-11.45,25.313-5.015,33.582,0,0-7.66,15.268-13.862,38.616h0c-5.841,18.175,7.542,32.05,27.734,31.377h5.473C6318.8,599.99,6332.236,585.892,6326.046,567.508Z" fill="#c19063"/>
            <path id="Trazado_4913" data-name="Trazado 4913" d="M6323.689,559.164a216.4,216.4,0,0,0-11.09-29.846c6.473-8.317,15.867-25-5.231-33.735l-.018.019a29.555,29.555,0,0,0-23.233.134c-20.63,8.772-11.45,25.313-5.015,33.582a208.092,208.092,0,0,0-11.247,29.47" fill="#c19063"/>
            <path id="Trazado_4914" data-name="Trazado 4914" d="M6324.746,560.386q1.219,4.1,2.421,8.636h0c6.362,19.03-7.569,33.582-28.617,32.835l-5.661-.012c-20.888.651-34.7-13.732-28.618-32.518h0c.889-3.316,1.805-6.474,2.726-9.455C6266.994,559.872,6295.6,564.388,6324.746,560.386Z" fill="#231f20"/>
            <path id="Trazado_4915" data-name="Trazado 4915" d="M6283.163,502.986s4.389-7.95.954-7.25c-6.281,1.28-21.2,6.024-20.213,10.929s3.786,9.233,9.864,9.89S6283.163,502.986,6283.163,502.986Z" fill="#c19063"/>
            <path id="Trazado_4916" data-name="Trazado 4916" d="M6307.428,502.986s-4.528-7.483-.078-7.384c4.071.09,20.319,6.158,19.338,11.063s-3.787,9.233-9.865,9.89S6307.428,502.986,6307.428,502.986Z" fill="#c19063"/>
            <g id="Grupo_2470" data-name="Grupo 2470">
              <circle id="Elipse_442" data-name="Elipse 442" cx="3.23" cy="3.23" r="3.23" transform="translate(6310.527 458.166)" fill="#c19063"/>
              <circle id="Elipse_443" data-name="Elipse 443" cx="1.895" cy="1.895" r="1.895" transform="translate(6311.862 459.501)" fill="#996e4f" opacity="0.55"/>
            </g>
            <path id="Trazado_4917" data-name="Trazado 4917" d="M6314.024,444.262c-.112-7.016-8.328-12.68-18.452-12.68s-18.337,5.662-18.452,12.677h0v.149c0,.014,0,.027,0,.041.021,2.548.266,29.895,1.28,33.049,1.063,3.309,4.135,5.674,9.1,8.272a30.16,30.16,0,0,0,4.032,1.8,8.172,8.172,0,0,0,2.921.8c.375,0,.748,0,1.131-.014.384.014.757.014,1.132.014a8.17,8.17,0,0,0,2.921-.8,30.19,30.19,0,0,0,4.032-1.8c4.962-2.6,8.035-4.963,9.1-8.272s1.281-33.239,1.281-33.239Z" fill="#c19063"/>
            <path id="Trazado_4918" data-name="Trazado 4918" d="M6307.717,481.987a30.056,30.056,0,0,1-4.032,1.8,8.17,8.17,0,0,1-2.921.8c-.375,0-.748,0-1.132-.014-.383.014-.756.014-1.131.014a8.17,8.17,0,0,1-2.921-.8,30.03,30.03,0,0,1-4.032-1.8c-4.963-2.6-8.035-4.962-9.1-8.271-1.013-3.154-1.258-30.5-1.279-33.049,0-.014,0-.027,0-.041v-.149h0a9.754,9.754,0,0,1,1.871-5.487c-3.6,2.312-5.868,5.605-5.928,9.268h-.005v.149c0,.014,0,.027,0,.041.021,2.548.266,29.895,1.279,33.049,1.064,3.309,4.136,5.674,9.1,8.272a30.1,30.1,0,0,0,4.032,1.8,8.17,8.17,0,0,0,2.921.8c.375,0,.748,0,1.131-.014.384.014.757.014,1.132.014a8.17,8.17,0,0,0,2.921-.8,30.19,30.19,0,0,0,4.032-1.8c3.807-1.993,6.5-3.851,8.026-6.1A42.007,42.007,0,0,1,6307.717,481.987Z" fill="#996e4f" opacity="0.28"/>
            <path id="Trazado_4919" data-name="Trazado 4919" d="M6291.3,477.215s.394-3.781,5.041-4.1,7.8,1.812,7.878,3.7-1.812,3.072-3.781,2.363a7.414,7.414,0,0,0-5.357-.157C6293.189,479.657,6291.14,479.184,6291.3,477.215Z" fill="#3a3a3a"/>
            <path id="Trazado_4920" data-name="Trazado 4920" d="M6291.3,477.215s.394-3.781,5.041-4.1,7.8,1.812,7.878,3.7-1.812,3.072-3.781,2.363a7.414,7.414,0,0,0-5.357-.157C6293.189,479.657,6291.14,479.184,6291.3,477.215Z" fill="#3a3a3a"/>
            <path id="Trazado_4921" data-name="Trazado 4921" d="M6301.854,475.4l.579-1a10.25,10.25,0,0,0-6.094-1.281,5.558,5.558,0,0,0-3.752,1.55l.247.971Z" fill="#fff"/>
            <path id="Trazado_4922" data-name="Trazado 4922" d="M6296.795,476.262c-2.742-.016-3.228,1.81-3.261,3.023a4.912,4.912,0,0,0,1.545-.258,7.414,7.414,0,0,1,5.357.157,3.263,3.263,0,0,0,1.715.154C6301.8,477.376,6300.239,476.283,6296.795,476.262Z" fill="#d31a1a"/>
            <path id="Trazado_4923" data-name="Trazado 4923" d="M6295.079,479.027a7.414,7.414,0,0,1,5.357.157,3.4,3.4,0,0,0,.934.2c-.458-1.765-2.03-2.743-5.285-2.763a4.336,4.336,0,0,0-1.418.206,3,3,0,0,0-1.133,2.462A4.912,4.912,0,0,0,6295.079,479.027Z" fill="#e53333"/>
            <g id="Grupo_2471" data-name="Grupo 2471">
              <path id="Trazado_4924" data-name="Trazado 4924" d="M6303.659,455.585a2.414,2.414,0,1,0,2.125-2.768A2.47,2.47,0,0,0,6303.659,455.585Z" fill="#230a0b"/>
              <path id="Trazado_4925" data-name="Trazado 4925" d="M6306.8,454.916c.042.077.006,0,.031.064a1.475,1.475,0,0,1,.079.286.934.934,0,0,1-.307.841c-.367.361.2.926.566.565a1.8,1.8,0,0,0,.321-2.16c-.246-.452-.937-.049-.69.4Z" fill="#fff"/>
              <path id="Trazado_4926" data-name="Trazado 4926" d="M6308.129,456.357a4.752,4.752,0,0,0,1.991-1.611,3.779,3.779,0,0,1-1.938.395" fill="#230a0b"/>
            </g>
            <g id="Grupo_2472" data-name="Grupo 2472">
              <path id="Trazado_4927" data-name="Trazado 4927" d="M6292.431,455.585a2.414,2.414,0,1,1-2.124-2.768A2.47,2.47,0,0,1,6292.431,455.585Z" fill="#230a0b"/>
              <path id="Trazado_4928" data-name="Trazado 4928" d="M6290.823,454.916c.042.077.007,0,.031.064a1.411,1.411,0,0,1,.08.286.936.936,0,0,1-.307.841c-.368.361.2.926.565.565a1.8,1.8,0,0,0,.322-2.16c-.247-.452-.937-.049-.691.4Z" fill="#fff"/>
              <path id="Trazado_4929" data-name="Trazado 4929" d="M6287.962,456.357a4.743,4.743,0,0,1-1.991-1.611,3.774,3.774,0,0,0,1.937.395" fill="#230a0b"/>
            </g>
            <path id="Trazado_4930" data-name="Trazado 4930" d="M6285.578,449.087s3.637.574,5.657-.154c0,0-1.324,1.828-5.073,1.316C6286.162,450.249,6284.519,449.974,6285.578,449.087Z" fill="#2f1b11"/>
            <path id="Trazado_4931" data-name="Trazado 4931" d="M6310.141,448.664s-3.5,1.155-5.607.763c0,0,1.6,1.59,5.219.479C6309.753,449.906,6311.33,449.369,6310.141,448.664Z" fill="#2f1b11"/>
            <g id="Grupo_2473" data-name="Grupo 2473">
              <circle id="Elipse_444" data-name="Elipse 444" cx="0.607" cy="0.607" r="0.607" transform="translate(6287.747 462.129)" fill="#e5007e" opacity="0.34"/>
              <circle id="Elipse_445" data-name="Elipse 445" cx="0.607" cy="0.607" r="0.607" transform="translate(6290.697 462.129)" fill="#e5007e" opacity="0.34"/>
              <circle id="Elipse_446" data-name="Elipse 446" cx="0.607" cy="0.607" r="0.607" transform="translate(6289.222 464.341)" fill="#e5007e" opacity="0.34"/>
            </g>
            <g id="Grupo_2474" data-name="Grupo 2474">
              <circle id="Elipse_447" data-name="Elipse 447" cx="0.607" cy="0.607" r="0.607" transform="translate(6305.513 461.773)" fill="#e5007e" opacity="0.34"/>
              <circle id="Elipse_448" data-name="Elipse 448" cx="0.607" cy="0.607" r="0.607" transform="translate(6308.463 461.773)" fill="#e5007e" opacity="0.34"/>
              <circle id="Elipse_449" data-name="Elipse 449" cx="0.607" cy="0.607" r="0.607" transform="translate(6306.988 463.986)" fill="#e5007e" opacity="0.34"/>
            </g>
            <path id="Trazado_4932" data-name="Trazado 4932" d="M6302.433,438.667s-1.361,5.251-5.581,8.159a14.753,14.753,0,0,0,.99-4.715s-8.436,6.048-17.467,6.553c0,0,1.576-.931.825-5.024,0,0-5.14,5.769-2.161,16.333,0,0-3.115-.018-5.124-8.083s2.01-25.133,21.663-24.571,27.488,20.943,18.179,32.182a66.307,66.307,0,0,1-2.071-13.519l-6.173-5.456s1.358,3.486-.979,6.112A24.7,24.7,0,0,0,6302.433,438.667Z" fill="#3f150a"/>
            <path id="Trazado_4933" data-name="Trazado 4933" d="M6271.718,433.073s-6.027,7.086-14.737,8.521c0,0,8.576,1.955,16.7-5.881C6273.684,435.713,6275.724,433.824,6271.718,433.073Z" fill="#3f150a"/>
            <path id="Trazado_4934" data-name="Trazado 4934" d="M6314.051,430.022s5.323,7.63,13.857,9.889c0,0-8.724,1.128-16.066-7.448C6311.842,432.463,6309.991,430.388,6314.051,430.022Z" fill="#3f150a"/>
            <path id="Trazado_4935" data-name="Trazado 4935" d="M6266.339,516c-16.893-1.7-29.688-13.25-32.5-24.489-4.873-19.465,23.565-42.618,27.463-46.065l4.131,4.669c-13.241,11.722-27.8,30.69-23.918,38.665,6.885,14.159,30.658,10.528,30.893,10.5l1.043,16.288A52.938,52.938,0,0,1,6266.339,516Z" fill="#c19063"/>
            <path id="Trazado_4936" data-name="Trazado 4936" d="M6323.934,516c16.806-1.844,28.842-14.1,31.656-25.335,4.872-19.465-22.719-41.772-26.617-45.219l-4.132,4.669c13.241,11.722,26.951,29.844,23.073,37.819-6.885,14.159-29.812,11.374-30.048,11.341l-1.043,16.288A52.951,52.951,0,0,0,6323.934,516Z" fill="#c19063"/>
            <path id="Trazado_4937" data-name="Trazado 4937" d="M6285.222,494.465s-1.312,18.006,10.356,17.725c10.014-.242,9.935-18.639,9.935-18.639l6.727,2.141s.526,19.647,7.022,21.59c0,0-2.439,6.864-5.22,13.968,0,0,8.153,21.171,10.193,25.953,0,0-24.028,6.471-57-.211l8.383-24.639s-1.412-4.141-5.117-14.347c0,0,7.191-11.853,4.752-20.657C6275.25,497.349,6280.952,495.742,6285.222,494.465Z" fill="#da1c5c"/>
            <path id="Trazado_4938" data-name="Trazado 4938" d="M6264.4,449.906l.018.675a.783.783,0,0,0,.8.759l5.23.247a.783.783,0,0,0,.759-.8l-.04-1.455a.782.782,0,0,0-.8-.759l-5.21.533A.783.783,0,0,0,6264.4,449.906Z" fill="#996e4f"/>
            <g id="Grupo_2475" data-name="Grupo 2475">
              <path id="Trazado_4939" data-name="Trazado 4939" d="M6263.273,438.718c.058-.08.828-1.247.9-1.316.692-.659,1.48-.313,2.16.3l6.515,3.925a1.7,1.7,0,0,1,.633.628,1.745,1.745,0,0,1-.24,1.993l-7.928,7.619a1.887,1.887,0,0,1-.965.483,2.343,2.343,0,0,1-2.288-.813l-2.792-2.508c-1.694-1.285-1.407-2.316-.762-3.032Z" fill="#c19063"/>
            </g>
            <g id="Grupo_2476" data-name="Grupo 2476">
              <path id="Trazado_4940" data-name="Trazado 4940" d="M6326.806,439.445c-.059-.08-.828-1.247-.9-1.316-.691-.659-1.479-.313-2.159.3l-6.515,3.925a1.69,1.69,0,0,0-.633.628,1.742,1.742,0,0,0,.24,1.993l7.928,7.62a1.893,1.893,0,0,0,.965.482,2.34,2.34,0,0,0,2.287-.813l2.792-2.508c1.695-1.285,1.408-2.316.763-3.032Z" fill="#c19063"/>
            </g>
            <path id="Trazado_4941" data-name="Trazado 4941" d="M6278.283,498.967l-3.033-1.618s-16.66,4.883-28.9-4.064,5.345-28.04,15.192-38.539c0,0-4.683-4.04-8.18-4.667,0,0-22.767,22.323-21.22,38.489s18.048,27.377,38.354,29.438C6270.5,518.006,6282.5,513.456,6278.283,498.967Z" fill="#da1c5c"/>
            <path id="Trazado_4942" data-name="Trazado 4942" d="M6310.638,498.667l1.6-2.975s16.121,5.4,29.063-2.407c12.98-7.833-4.079-28.34-13.926-38.839,0,0,4.684-4.04,8.18-4.667,0,0,22.768,22.323,21.22,38.489s-18.048,27.377-38.353,29.438C6318.424,517.706,6306.418,513.156,6310.638,498.667Z" fill="#da1c5c"/>
            <path id="Trazado_4943" data-name="Trazado 4943" d="M6265.482,561s31.932,4.923,60.488,0a35.4,35.4,0,0,1,1.864,5.486s-33.248,6.611-63.977,0Z" fill="#754c29"/>
          </g>
        </g>
      </g>
    </g>
  </g>
</svg>
