<svg xmlns="http://www.w3.org/2000/svg" xmlns:xlink="http://www.w3.org/1999/xlink" width="256" height="176" viewBox="0 0 256 176">
  <defs>
    <clipPath id="clip-path">
      <path id="Trazado_2973" data-name="Trazado 2973" d="M268.006,1518.377s33.957,33.242,78.169,7.807S372.4,1463.256,359,1454.736c-4.725-3-15.541-7.738-14.037-37.243s-5.256-48.646-71.493-39.737-81-12.289-103.354,15.181-30.2,57.348-3.77,94.81C185.358,1514.7,244.674,1493.916,268.006,1518.377Z" transform="translate(-149.68 -1375.557)" fill="none"/>
    </clipPath>
    <linearGradient id="linear-gradient" x1="-0.178" y1="0.416" x2="0.821" y2="0.416" gradientUnits="objectBoundingBox">
      <stop offset="0" stop-color="#f1e8ff"/>
      <stop offset="0.256" stop-color="#e0d1ff"/>
      <stop offset="1" stop-color="#b393ff"/>
    </linearGradient>
    <linearGradient id="linear-gradient-2" x1="0.156" y1="1" x2="0.156" gradientUnits="objectBoundingBox">
      <stop offset="0" stop-color="#fff" stop-opacity="0"/>
      <stop offset="0.265" stop-color="#fff" stop-opacity="0.278"/>
      <stop offset="0.776" stop-color="#fff" stop-opacity="0.792"/>
      <stop offset="1" stop-color="#fff"/>
    </linearGradient>
    <linearGradient id="linear-gradient-3" x1="0.142" y1="1" x2="0.142" y2="0" xlink:href="#linear-gradient-2"/>
    <linearGradient id="linear-gradient-4" x1="0.144" y1="1" x2="0.144" y2="0" xlink:href="#linear-gradient-2"/>
    <linearGradient id="linear-gradient-5" x1="0.14" y1="1" x2="0.14" y2="0" xlink:href="#linear-gradient-2"/>
    <linearGradient id="linear-gradient-6" x1="0.5" y1="1" x2="0.5" y2="0" xlink:href="#linear-gradient-2"/>
    <linearGradient id="linear-gradient-10" x1="0.382" y1="1" x2="0.382" y2="0" xlink:href="#linear-gradient-2"/>
    <linearGradient id="linear-gradient-11" x1="0.328" y1="1" x2="0.328" y2="0" xlink:href="#linear-gradient-2"/>
  </defs>
  <g id="Grupo_3265" data-name="Grupo 3265" transform="translate(-56 -168)">
    <g id="Grupo_1630" data-name="Grupo 1630" transform="translate(-71.68 -1199.37)">
      <g id="Grupo_1608" data-name="Grupo 1608" transform="translate(149.68 1375.413)">
        <g id="Grupo_1607" data-name="Grupo 1607" transform="translate(0 0)" clip-path="url(#clip-path)">
          <path id="Trazado_2971" data-name="Trazado 2971" d="M268.006,1518.377s33.957,33.242,78.169,7.807S372.4,1463.256,359,1454.736c-4.725-3-15.541-7.738-14.037-37.243s-5.256-48.646-71.493-39.737-81-12.289-103.354,15.181-30.2,57.348-3.77,94.81C185.358,1514.7,244.674,1493.916,268.006,1518.377Z" transform="translate(-149.68 -1375.557)" fill="url(#linear-gradient)"/>
          <path id="Trazado_2972" data-name="Trazado 2972" d="M936.05,1687s9.343,53.782,31.577,39.881c19.494-12.188,34.917-45.989,34.917-45.989l8.464,5.945s-20.07,42.591-45.889,52.212-36.073-45.6-36.073-45.6Z" transform="translate(-749.573 -1610.581)" fill="#bc8044"/>
        </g>
      </g>
      <g id="Grupo_1622" data-name="Grupo 1622" transform="translate(170.152 1384.181)">
        <path id="Trazado_2974" data-name="Trazado 2974" d="M269.636,1482.391l-2.955-68.761H396.466l-.638,68.092Z" transform="translate(-260.21 -1413.63)" fill="#919191"/>
        <path id="Trazado_2975" data-name="Trazado 2975" d="M318.053,1612.463v17.6l99.249-1.623-.61-18.127Z" transform="translate(-299.752 -1565.018)" fill="#bf2652"/>
        <path id="Trazado_2976" data-name="Trazado 2976" d="M327.337,1678.237l93.788-1.223.392,1.231-94.614,1.2Z" transform="translate(-306.564 -1616.362)" fill="#ad1f4f"/>
        <path id="Trazado_2977" data-name="Trazado 2977" d="M268.371,1767.369l-3.6-56.408,133.283-1.837-1.9,58.246Z" transform="translate(-258.738 -1641.078)" fill="#a4a4a5"/>
        <path id="Trazado_2978" data-name="Trazado 2978" d="M274.1,1911.881l132.546-.586v13.063H274.1Z" transform="translate(-265.92 -1796.693)" fill="#bf2652"/>
        <g id="Grupo_1609" data-name="Grupo 1609" transform="translate(38.893 122.947)">
          <path id="Trazado_2979" data-name="Trazado 2979" d="M415.616,1947.529l3.8.048.02,1.46h-3.816Z" transform="translate(-413.742 -1947.529)" fill="#aa214f"/>
          <path id="Trazado_2980" data-name="Trazado 2980" d="M426.377,1955.414l4.074.052.022,1.567h-4.1Z" transform="translate(-422.024 -1953.599)" fill="#96224e"/>
          <path id="Trazado_2981" data-name="Trazado 2981" d="M407.476,1955.414l4.074.052.022,1.567h-4.1Z" transform="translate(-407.476 -1953.599)" fill="#821a42"/>
        </g>
        <g id="Grupo_1610" data-name="Grupo 1610" transform="translate(100.032 72.74)">
          <path id="Trazado_2982" data-name="Trazado 2982" d="M672.972,1729.508l2.437,38.048,14.158-.669v-37.38Z" transform="translate(-672.972 -1729.508)" fill="#b5b5b5"/>
          <path id="Trazado_2983" data-name="Trazado 2983" d="M678.781,1736.485l2.066,33.448,12-.588v-32.86Z" transform="translate(-677.443 -1734.878)" fill="#d4f2f6"/>
          <path id="Trazado_2984" data-name="Trazado 2984" d="M681.7,1768.36l13.4-4.608v6.466l-13.036,3.978Z" transform="translate(-679.691 -1755.867)" fill="url(#linear-gradient-2)"/>
          <path id="Trazado_2985" data-name="Trazado 2985" d="M683.931,1803.342l12.883-4.942v3.69l-12.651,5.005Z" transform="translate(-681.407 -1782.535)" fill="url(#linear-gradient-3)"/>
          <path id="Trazado_2986" data-name="Trazado 2986" d="M760.53,1729.508v37.342h15.957l.177-36.872Z" transform="translate(-740.367 -1729.508)" fill="#b5b5b5"/>
          <path id="Trazado_2987" data-name="Trazado 2987" d="M766.725,1736.432v32.821H779.3l.43-32.407Z" transform="translate(-745.135 -1734.837)" fill="#d4f2f6"/>
          <path id="Trazado_2988" data-name="Trazado 2988" d="M766.725,1769.718l12.919-4.394-.084,6.333-12.835,4.09Z" transform="translate(-745.135 -1757.076)" fill="url(#linear-gradient-4)"/>
          <path id="Trazado_2989" data-name="Trazado 2989" d="M766.725,1808.413l12.8-5.546-.083,4.556-12.722,4.594Z" transform="translate(-745.135 -1785.974)" fill="url(#linear-gradient-5)"/>
        </g>
        <g id="Grupo_1611" data-name="Grupo 1611" transform="translate(10.291 73.96)">
          <path id="Trazado_2990" data-name="Trazado 2990" d="M283.27,1734.8l2.437,38.049,14.158-.669V1734.8Z" transform="translate(-283.27 -1734.803)" fill="#b5b5b5"/>
          <path id="Trazado_2991" data-name="Trazado 2991" d="M289.08,1741.779l2.066,33.448,12-.588v-32.86Z" transform="translate(-287.742 -1740.173)" fill="#d4f2f6"/>
          <path id="Trazado_2992" data-name="Trazado 2992" d="M292,1773.655l13.4-4.608v6.466l-13.035,3.979Z" transform="translate(-289.99 -1761.161)" fill="url(#linear-gradient-6)"/>
          <path id="Trazado_2993" data-name="Trazado 2993" d="M294.23,1808.637l12.883-4.943v3.69l-12.651,5.005Z" transform="translate(-291.706 -1787.83)" fill="url(#linear-gradient-6)"/>
          <path id="Trazado_2994" data-name="Trazado 2994" d="M370.829,1734.8v37.343h15.957l-1.164-36.872Z" transform="translate(-350.666 -1734.803)" fill="#b5b5b5"/>
          <path id="Trazado_2995" data-name="Trazado 2995" d="M377.023,1741.726v32.821h14.025l-1.023-32.407Z" transform="translate(-355.434 -1740.132)" fill="#d4f2f6"/>
          <path id="Trazado_2996" data-name="Trazado 2996" d="M377.023,1774.7l13.2-4.489.2,6.249-13.393,4.268Z" transform="translate(-355.434 -1762.056)" fill="url(#linear-gradient-6)"/>
          <path id="Trazado_2997" data-name="Trazado 2997" d="M377.023,1814.031l13.475-5.449.141,4.459-13.616,4.594Z" transform="translate(-355.434 -1791.592)" fill="url(#linear-gradient-6)"/>
        </g>
        <path id="Trazado_2998" data-name="Trazado 2998" d="M238.58,1706.752l143.031-1.717-.948-3.9-142.083,2.025Z" transform="translate(-238.58 -1634.924)" fill="#17373f"/>
        <path id="Trazado_2999" data-name="Trazado 2999" d="M430.633,1753.523l-3.2-64.5,62.309.091-3.424,64.44Z" transform="translate(-383.944 -1625.609)" fill="#9b9b9b"/>
        <g id="Grupo_1612" data-name="Grupo 1612" transform="translate(95.527 100.452)">
          <path id="Trazado_3000" data-name="Trazado 3000" d="M653.409,1861.932l3.358.326-.076-1.145H653.6Z" transform="translate(-653.409 -1858.519)" fill="#808285"/>
          <path id="Trazado_3001" data-name="Trazado 3001" d="M664.157,1873.246l2.723-.083-.055-.761h-2.5Z" transform="translate(-661.682 -1867.209)" fill="#d1d3d4"/>
          <path id="Trazado_3002" data-name="Trazado 3002" d="M664.217,1850.832l3.374.156-.148-1.139-3.081.156Z" transform="translate(-661.728 -1849.848)" fill="#6d6e71"/>
        </g>
        <path id="Trazado_3003" data-name="Trazado 3003" d="M412.084,1682.431l61.39-.075,4.608,5.129-70.606,1.189Z" transform="translate(-368.582 -1620.474)" fill="#235667"/>
        <path id="Trazado_3004" data-name="Trazado 3004" d="M408.593,1707.487l-1.117-1.67,70.606-1.189-.78,1.988Z" transform="translate(-368.582 -1637.617)" fill="#204b56"/>
        <path id="Trazado_3005" data-name="Trazado 3005" d="M296.216,1462.993l.758,31.727,113.626-2.538.606-29.189Z" transform="translate(-282.944 -1451.626)" fill="#a4a4a5"/>
        <path id="Trazado_3006" data-name="Trazado 3006" d="M307.985,1462.993l.723,29.753,108.512-2.38.579-27.373Z" transform="translate(-292.003 -1451.626)" fill="#d4f2f6"/>
        <path id="Trazado_3007" data-name="Trazado 3007" d="M320.236,1608.089l-2.183.953,98.638-2.155-2.214-1.024Z" transform="translate(-299.752 -1561.596)" fill="#ad1f4f"/>
        <path id="Trazado_3008" data-name="Trazado 3008" d="M323.661,1618.948l.63,11.511,95.073-1.327-.273-12.637Z" transform="translate(-304.069 -1569.779)" fill="#ad1f4f"/>
        <path id="Trazado_3009" data-name="Trazado 3009" d="M325.2,1620.423l94.749-2.435.258,11.963-94.413,1.318Z" transform="translate(-305.251 -1570.928)" fill="#820c37"/>
        <g id="Grupo_1613" data-name="Grupo 1613" transform="translate(98.458 71.827)">
          <path id="Trazado_3010" data-name="Trazado 3010" d="M666.138,1737.625l3.358.326-.076-1.145h-3.087Z" transform="translate(-666.138 -1734.212)" fill="#808285"/>
          <path id="Trazado_3011" data-name="Trazado 3011" d="M676.886,1748.939l2.723-.083-.055-.761h-2.5Z" transform="translate(-674.411 -1742.902)" fill="#d1d3d4"/>
          <path id="Trazado_3012" data-name="Trazado 3012" d="M676.946,1726.525l3.374.156-.148-1.139-3.081.156Z" transform="translate(-674.457 -1725.542)" fill="#6d6e71"/>
        </g>
        <g id="Grupo_1614" data-name="Grupo 1614" transform="translate(46.412 87.481)">
          <path id="Trazado_3013" data-name="Trazado 3013" d="M440.124,1805.6l3.358.326-.076-1.146h-3.087Z" transform="translate(-440.124 -1802.188)" fill="#808285"/>
          <path id="Trazado_3014" data-name="Trazado 3014" d="M450.872,1816.915l2.723-.083-.055-.761h-2.5Z" transform="translate(-448.397 -1810.878)" fill="#d1d3d4"/>
          <path id="Trazado_3015" data-name="Trazado 3015" d="M450.932,1794.5l3.374.156-.148-1.139-3.081.156Z" transform="translate(-448.443 -1793.517)" fill="#6d6e71"/>
        </g>
        <g id="Grupo_1617" data-name="Grupo 1617" transform="translate(51.849 73.054)">
          <path id="Trazado_3016" data-name="Trazado 3016" d="M464.432,1782.953l-.7-52.085,45.254.173-1.241,53.734Z" transform="translate(-463.736 -1730.868)" fill="#2abdd2"/>
          <path id="Trazado_3017" data-name="Trazado 3017" d="M467.463,1784.151l-.685-49.349,43.687.259-.979,49.4Z" transform="translate(-466.077 -1733.897)" fill="#22d0dd"/>
          <path id="Trazado_3018" data-name="Trazado 3018" d="M472.059,1786.4l-.44-47.877,20.188-.1.007,47.879Z" transform="translate(-469.804 -1736.688)" fill="#d4f2f6"/>
          <path id="Trazado_3019" data-name="Trazado 3019" d="M491.227,1783.97l-19.246,6.261.042,4.439,20.055-7.406.023-3.881Z" transform="translate(-470.081 -1771.291)" fill="#fff" opacity="0.6"/>
          <path id="Trazado_3020" data-name="Trazado 3020" d="M491.272,1810.87l-19.161,6.7.046,4.8,20.041-7v-5.194Z" transform="translate(-470.183 -1791.907)" fill="#fff" opacity="0.6"/>
          <path id="Trazado_3021" data-name="Trazado 3021" d="M562.918,1786.291l-.44-47.877,20.765.391-.853,47.776Z" transform="translate(-539.74 -1736.677)" fill="#d4f2f6"/>
          <path id="Trazado_3022" data-name="Trazado 3022" d="M583.076,1785.576l-19.961,5.954.042,4.439,20.366-6.232.089-4.537Z" transform="translate(-540.23 -1772.689)" fill="#fff" opacity="0.6"/>
          <path id="Trazado_3023" data-name="Trazado 3023" d="M582.929,1812.642l-19.682,6.442.046,4.8,20.186-5.856.113-5.761Z" transform="translate(-540.331 -1793.521)" fill="#fff" opacity="0.6"/>
          <path id="Trazado_3024" data-name="Trazado 3024" d="M553.206,1824.805l4.23.3-.515,10.1-3.033-.266Z" transform="translate(-532.602 -1803.173)" fill="#22d0dd"/>
          <path id="Trazado_3025" data-name="Trazado 3025" d="M555.758,1827.946l2.9.252-.132,8.935-2.424-.355Z" transform="translate(-534.567 -1805.591)" fill="#2abdd2"/>
          <path id="Trazado_3026" data-name="Trazado 3026" d="M560.187,1840.6a.981.981,0,1,0-1.956.009,1.074,1.074,0,0,0,.544.946l-.294,2.2,1.485.071-.344-2.26A1.07,1.07,0,0,0,560.187,1840.6Z" transform="translate(-536.471 -1814.518)" fill="#208e9e"/>
          <path id="Trazado_3027" data-name="Trazado 3027" d="M562.659,1840.6a1.023,1.023,0,0,0-.983-1.058.927.927,0,0,0-.234.033,1.048,1.048,0,0,1,.749,1.027,1.07,1.07,0,0,1-.565.967l.341,2.235.471.023-.344-2.26A1.07,1.07,0,0,0,562.659,1840.6Z" transform="translate(-538.942 -1814.518)" fill="#208e9e" opacity="0.2"/>
          <path id="Trazado_3028" data-name="Trazado 3028" d="M464.161,1785.694l-.425-54.826,45.254.173-1.264,54.724Z" transform="translate(-463.736 -1730.868)" fill="#17373f"/>
          <path id="Trazado_3029" data-name="Trazado 3029" d="M467.516,1788l-.739-53.2,43.687.259L509.416,1788Z" transform="translate(-466.077 -1733.897)" fill="#235667"/>
          <g id="Grupo_1615" data-name="Grupo 1615" transform="translate(1.815 1.741)">
            <path id="Trazado_3030" data-name="Trazado 3030" d="M472.091,1789.926l-.472-51.4,9.013-.1.008,51.5Z" transform="translate(-471.62 -1738.429)" fill="#d4f2f6"/>
            <path id="Trazado_3031" data-name="Trazado 3031" d="M480.379,1764.339l-7.981,6.484.042,4.439,8.785-7.406.023-3.881Z" transform="translate(-472.219 -1758.093)" fill="#fff" opacity="0.6"/>
            <path id="Trazado_3032" data-name="Trazado 3032" d="M480.425,1791.239l-7.9,6.922.046,4.8,8.772-7v-5.194Z" transform="translate(-472.32 -1778.71)" fill="#fff" opacity="0.6"/>
            <path id="Trazado_3033" data-name="Trazado 3033" d="M504.11,1839.979l.1,5.6.544.031-.055-5.6Z" transform="translate(-496.628 -1816.594)" fill="#235667"/>
          </g>
          <g id="Grupo_1616" data-name="Grupo 1616" transform="translate(33.913 1.738)">
            <path id="Trazado_3034" data-name="Trazado 3034" d="M611.479,1789.915l-.473-51.5,9.59.391-1.13,50.836Z" transform="translate(-611.006 -1738.414)" fill="#d4f2f6"/>
            <path id="Trazado_3035" data-name="Trazado 3035" d="M620.387,1766.981l-8.744,5.954.042,4.439,9.069-6.207.089-4.318Z" transform="translate(-611.496 -1760.301)" fill="#fff" opacity="0.6"/>
            <path id="Trazado_3036" data-name="Trazado 3036" d="M620.241,1793.849l-8.467,6.441.046,4.8,8.87-5.827.125-5.6Z" transform="translate(-611.597 -1780.936)" fill="#fff" opacity="0.6"/>
            <path id="Trazado_3037" data-name="Trazado 3037" d="M616.209,1839.979l.1,5.6.544.031-.055-5.6Z" transform="translate(-615.011 -1816.59)" fill="#235667"/>
          </g>
        </g>
        <path id="Trazado_3038" data-name="Trazado 3038" d="M284.861,1930.371l6.263.08.034,2.409h-6.3Z" transform="translate(-274.203 -1811.376)" fill="#aa214f"/>
        <path id="Trazado_3039" data-name="Trazado 3039" d="M302.62,1943.384l6.724.086.036,2.586h-6.76Z" transform="translate(-287.872 -1821.392)" fill="#96224e"/>
        <path id="Trazado_3040" data-name="Trazado 3040" d="M271.425,1943.384l6.724.086.036,2.586h-6.76Z" transform="translate(-263.862 -1821.392)" fill="#821a42"/>
        <g id="Grupo_1618" data-name="Grupo 1618" transform="translate(103.713 115.733)">
          <path id="Trazado_3041" data-name="Trazado 3041" d="M697.1,1916.205l3.8.048.02,1.46H697.1Z" transform="translate(-695.223 -1916.205)" fill="#aa214f"/>
          <path id="Trazado_3042" data-name="Trazado 3042" d="M707.859,1924.09l4.074.052.022,1.567h-4.1Z" transform="translate(-703.506 -1922.274)" fill="#96224e"/>
          <path id="Trazado_3043" data-name="Trazado 3043" d="M688.957,1924.09l4.074.052.022,1.567h-4.1Z" transform="translate(-688.957 -1922.274)" fill="#821a42"/>
        </g>
        <g id="Grupo_1619" data-name="Grupo 1619" transform="translate(114.455 123.527)">
          <path id="Trazado_3044" data-name="Trazado 3044" d="M743.746,1950.048l3.8.048.02,1.46h-3.816Z" transform="translate(-741.872 -1950.048)" fill="#aa214f"/>
          <path id="Trazado_3045" data-name="Trazado 3045" d="M754.507,1957.933l4.074.051.022,1.567h-4.1Z" transform="translate(-750.154 -1956.117)" fill="#96224e"/>
          <path id="Trazado_3046" data-name="Trazado 3046" d="M735.605,1957.933l4.074.051.022,1.567h-4.1Z" transform="translate(-735.605 -1956.117)" fill="#821a42"/>
        </g>
        <g id="Grupo_1620" data-name="Grupo 1620" transform="translate(128.634 116.641)">
          <path id="Trazado_3047" data-name="Trazado 3047" d="M805.318,1920.147l3.8.048.02,1.46h-3.816Z" transform="translate(-803.443 -1920.147)" fill="#aa214f"/>
          <path id="Trazado_3048" data-name="Trazado 3048" d="M816.078,1928.033l4.074.052.022,1.567h-4.1Z" transform="translate(-811.726 -1926.217)" fill="#96224e"/>
          <path id="Trazado_3049" data-name="Trazado 3049" d="M797.177,1928.033l4.074.052.022,1.567h-4.1Z" transform="translate(-797.177 -1926.217)" fill="#821a42"/>
        </g>
        <path id="Trazado_3050" data-name="Trazado 3050" d="M344.795,1492.746l25.311-29.753h13.653l-18.149,29.126Z" transform="translate(-320.336 -1451.626)" fill="url(#linear-gradient-10)"/>
        <path id="Trazado_3051" data-name="Trazado 3051" d="M461.265,1491.988l16.645-28.995h10.174L471.3,1491.767Z" transform="translate(-409.985 -1451.626)" fill="url(#linear-gradient-11)"/>
        <g id="Grupo_1621" data-name="Grupo 1621" transform="translate(25.207 49.9)">
          <path id="Trazado_3052" data-name="Trazado 3052" d="M353.128,1637.331a.576.576,0,0,1,.154.406l.106,5.169a.58.58,0,0,1-.141.417.51.51,0,0,1-.384.167.5.5,0,0,1-.436-.194l-3.3-4.116.078,3.813a.6.6,0,0,1-.132.417.553.553,0,0,1-.775.016.6.6,0,0,1-.149-.41l-.106-5.168a.56.56,0,0,1,.141-.412.527.527,0,0,1,.393-.162.494.494,0,0,1,.427.194l3.29,4.1-.078-3.8a.572.572,0,0,1,.137-.412.5.5,0,0,1,.38-.162A.514.514,0,0,1,353.128,1637.331Z" transform="translate(-348.043 -1635.605)" fill="#fff"/>
          <path id="Trazado_3053" data-name="Trazado 3053" d="M379.128,1642.321a2.614,2.614,0,0,1-.7-1.915l-.065-3.178a.563.563,0,0,1,.141-.412.61.61,0,0,1,.81-.017.564.564,0,0,1,.158.406l.066,3.24a1.727,1.727,0,0,0,.4,1.2,1.437,1.437,0,0,0,1.118.387,1.416,1.416,0,0,0,1.092-.437,1.727,1.727,0,0,0,.354-1.214l-.067-3.24a.563.563,0,0,1,.141-.412.61.61,0,0,1,.81-.017.564.564,0,0,1,.158.406l.065,3.179a2.741,2.741,0,0,1-4.486,2.021Z" transform="translate(-371.38 -1635.131)" fill="#fff"/>
          <path id="Trazado_3054" data-name="Trazado 3054" d="M408.712,1642.364a.526.526,0,0,1-.153-.393l-.105-5.133a.527.527,0,0,1,.137-.4.551.551,0,0,1,.4-.149l3.178-.065a.615.615,0,0,1,.4.107.4.4,0,0,1,.147.322.418.418,0,0,1-.134.342.594.594,0,0,1-.394.127l-2.615.054.035,1.708,2.439-.05a.614.614,0,0,1,.4.106.407.407,0,0,1,.148.332.4.4,0,0,1-.134.329.611.611,0,0,1-.394.122l-2.439.05.037,1.814,2.615-.054a.6.6,0,0,1,.4.111.42.42,0,0,1,.148.336.4.4,0,0,1-.134.328.61.61,0,0,1-.394.123l-3.179.065A.55.55,0,0,1,408.712,1642.364Z" transform="translate(-394.542 -1634.865)" fill="#fff"/>
          <path id="Trazado_3055" data-name="Trazado 3055" d="M435.849,1635.383a.621.621,0,0,1,.4.133.434.434,0,0,1,.183.349.568.568,0,0,1-.048.221l-2.331,5.3a.576.576,0,0,1-.237.265.7.7,0,0,1-.7.014.575.575,0,0,1-.247-.255l-2.538-5.2a.554.554,0,0,1-.057-.21.438.438,0,0,1,.173-.365.65.65,0,0,1,.407-.15.541.541,0,0,1,.279.07.5.5,0,0,1,.2.22l2.117,4.457,1.933-4.54A.481.481,0,0,1,435.849,1635.383Z" transform="translate(-411.341 -1634.218)" fill="#fff"/>
          <path id="Trazado_3056" data-name="Trazado 3056" d="M464.089,1640.8a.437.437,0,0,1-.156.347.556.556,0,0,1-.371.149.489.489,0,0,1-.464-.3l-.552-1.169-3.1.064-.5,1.19a.5.5,0,0,1-.189.237.515.515,0,0,1-.271.08.558.558,0,0,1-.373-.133.431.431,0,0,1-.174-.34.54.54,0,0,1,.048-.23l2.323-5.271a.565.565,0,0,1,.236-.274.7.7,0,0,1,.7-.014.568.568,0,0,1,.248.263l2.546,5.171A.544.544,0,0,1,464.089,1640.8Zm-4.273-1.8,2.324-.048-1.216-2.591Z" transform="translate(-432.629 -1633.961)" fill="#fff"/>
          <path id="Trazado_3057" data-name="Trazado 3057" d="M502.329,1640.306a2.822,2.822,0,0,1-.992-.468.535.535,0,0,1-.108-.742.327.327,0,0,1,.257-.142.714.714,0,0,1,.364.116,2.64,2.64,0,0,0,.8.38,3.2,3.2,0,0,0,.918.1,1.8,1.8,0,0,0,.981-.245.735.735,0,0,0,.331-.663.564.564,0,0,0-.332-.508,4.276,4.276,0,0,0-1.077-.326,6.312,6.312,0,0,1-1.267-.361,1.78,1.78,0,0,1-.743-.549,1.458,1.458,0,0,1-.264-.867,1.638,1.638,0,0,1,.288-.983,2.028,2.028,0,0,1,.844-.691,3.037,3.037,0,0,1,1.232-.267,3.072,3.072,0,0,1,2.065.627.667.667,0,0,1,.167.186.506.506,0,0,1,.053.233.5.5,0,0,1-.1.324.326.326,0,0,1-.257.141.49.49,0,0,1-.164-.022,1.351,1.351,0,0,1-.2-.093,2.966,2.966,0,0,0-.708-.377,2.376,2.376,0,0,0-.834-.111,1.634,1.634,0,0,0-.942.262.776.776,0,0,0-.334.681.618.618,0,0,0,.32.548,3.6,3.6,0,0,0,1.055.339,7.077,7.077,0,0,1,1.28.366,1.894,1.894,0,0,1,.76.535,1.322,1.322,0,0,1,.277.831,1.6,1.6,0,0,1-.284.97,1.983,1.983,0,0,1-.841.669,3.212,3.212,0,0,1-1.259.259A4.458,4.458,0,0,1,502.329,1640.306Z" transform="translate(-465.874 -1633.224)" fill="#fff"/>
          <path id="Trazado_3058" data-name="Trazado 3058" d="M529,1639.25a2.613,2.613,0,0,1-.7-1.915l-.065-3.179a.563.563,0,0,1,.142-.412.609.609,0,0,1,.81-.016.563.563,0,0,1,.158.406l.066,3.24a1.726,1.726,0,0,0,.4,1.2,1.436,1.436,0,0,0,1.118.387,1.416,1.416,0,0,0,1.092-.436,1.728,1.728,0,0,0,.354-1.214l-.067-3.24a.563.563,0,0,1,.141-.412.61.61,0,0,1,.81-.017.564.564,0,0,1,.158.406l.065,3.178A2.742,2.742,0,0,1,529,1639.25Z" transform="translate(-486.741 -1632.767)" fill="#fff"/>
          <path id="Trazado_3059" data-name="Trazado 3059" d="M559.165,1638.9a2.575,2.575,0,0,1-1.057-1.088,4.129,4.129,0,0,1-.069-3.376,2.58,2.58,0,0,1,1.012-1.126,3.1,3.1,0,0,1,1.563-.42,3.4,3.4,0,0,1,1.1.149,2.837,2.837,0,0,1,.917.479.507.507,0,0,1,.162.182.576.576,0,0,1,.049.237.506.506,0,0,1-.1.328.318.318,0,0,1-.252.137.649.649,0,0,1-.364-.116,2.62,2.62,0,0,0-.712-.377,2.247,2.247,0,0,0-.724-.1,1.692,1.692,0,0,0-1.375.6,3.253,3.253,0,0,0,.069,3.372,1.69,1.69,0,0,0,1.4.544,2.075,2.075,0,0,0,.7-.129,3.377,3.377,0,0,0,.718-.4,1.284,1.284,0,0,1,.174-.092.5.5,0,0,1,.184-.039.316.316,0,0,1,.258.127.5.5,0,0,1,.113.324.579.579,0,0,1-.039.234.493.493,0,0,1-.155.193,2.842,2.842,0,0,1-.9.516,3.4,3.4,0,0,1-1.088.194A3.1,3.1,0,0,1,559.165,1638.9Z" transform="translate(-509.429 -1632.3)" fill="#fff"/>
          <path id="Trazado_3060" data-name="Trazado 3060" d="M586.772,1638.066a2.613,2.613,0,0,1-.7-1.914l-.065-3.178a.561.561,0,0,1,.141-.412.609.609,0,0,1,.81-.016.562.562,0,0,1,.158.406l.066,3.24a1.725,1.725,0,0,0,.4,1.2,1.438,1.438,0,0,0,1.118.387,1.416,1.416,0,0,0,1.092-.437,1.728,1.728,0,0,0,.354-1.214l-.066-3.24a.561.561,0,0,1,.141-.412.61.61,0,0,1,.81-.017.565.565,0,0,1,.158.406l.065,3.179a2.742,2.742,0,0,1-4.487,2.021Z" transform="translate(-531.209 -1631.856)" fill="#fff"/>
          <path id="Trazado_3061" data-name="Trazado 3061" d="M621.279,1637.808a.413.413,0,0,1-.156.338.593.593,0,0,1-.38.14.574.574,0,0,1-.49-.254l-1.207-1.754a1.143,1.143,0,0,0-.382-.388,1.024,1.024,0,0,0-.517-.1l-.863.017.04,1.972a.576.576,0,0,1-.141.421.54.54,0,0,1-.4.163.555.555,0,0,1-.413-.146.565.565,0,0,1-.163-.415l-.105-5.151a.528.528,0,0,1,.137-.4.555.555,0,0,1,.4-.149l2.2-.045a2.41,2.41,0,0,1,1.617.438,1.7,1.7,0,0,1,.578,1.349,1.722,1.722,0,0,1-.386,1.193,1.938,1.938,0,0,1-1.145.618,1.116,1.116,0,0,1,.454.211,1.947,1.947,0,0,1,.388.432l.826,1.207A.556.556,0,0,1,621.279,1637.808Zm-1.606-3.169a.9.9,0,0,0,.284-.75.886.886,0,0,0-.315-.738,1.534,1.534,0,0,0-.947-.214l-1.479.03.04,1.964,1.479-.03A1.492,1.492,0,0,0,619.672,1634.639Z" transform="translate(-554.371 -1631.655)" fill="#fff"/>
          <path id="Trazado_3062" data-name="Trazado 3062" d="M644.709,1637.388a2.823,2.823,0,0,1-.992-.469.535.535,0,0,1-.107-.742.325.325,0,0,1,.257-.142.713.713,0,0,1,.364.116,2.639,2.639,0,0,0,.8.38,3.191,3.191,0,0,0,.918.1,1.8,1.8,0,0,0,.981-.245.734.734,0,0,0,.33-.663.565.565,0,0,0-.332-.508,4.258,4.258,0,0,0-1.077-.326,6.306,6.306,0,0,1-1.267-.361,1.78,1.78,0,0,1-.743-.549,1.457,1.457,0,0,1-.264-.867,1.639,1.639,0,0,1,.288-.983,2.03,2.03,0,0,1,.844-.691,3.407,3.407,0,0,1,3.3.359.664.664,0,0,1,.167.186.5.5,0,0,1,.054.233.5.5,0,0,1-.1.324.327.327,0,0,1-.257.141.492.492,0,0,1-.164-.023,1.332,1.332,0,0,1-.2-.093,2.97,2.97,0,0,0-.708-.377,2.382,2.382,0,0,0-.835-.111,1.633,1.633,0,0,0-.942.262.776.776,0,0,0-.334.681.618.618,0,0,0,.32.549,3.61,3.61,0,0,0,1.055.339,7.091,7.091,0,0,1,1.28.366,1.892,1.892,0,0,1,.76.535,1.322,1.322,0,0,1,.277.831,1.6,1.6,0,0,1-.284.97,1.985,1.985,0,0,1-.841.669,3.214,3.214,0,0,1-1.258.259A4.458,4.458,0,0,1,644.709,1637.388Z" transform="translate(-575.467 -1630.978)" fill="#fff"/>
          <path id="Trazado_3063" data-name="Trazado 3063" d="M675.06,1636.473a.438.438,0,0,1-.155.347.557.557,0,0,1-.372.149.488.488,0,0,1-.464-.3l-.552-1.169-3.1.063-.5,1.191a.5.5,0,0,1-.189.237.519.519,0,0,1-.272.081.559.559,0,0,1-.372-.134.432.432,0,0,1-.175-.34.542.542,0,0,1,.048-.23l2.323-5.271a.569.569,0,0,1,.236-.274.7.7,0,0,1,.7-.014.566.566,0,0,1,.248.263l2.545,5.171A.542.542,0,0,1,675.06,1636.473Zm-4.274-1.8,2.324-.048-1.216-2.591Z" transform="translate(-595.017 -1630.633)" fill="#fff"/>
          <path id="Trazado_3064" data-name="Trazado 3064" d="M701.039,1636.443a.524.524,0,0,1-.149-.384l-.106-5.16a.53.53,0,0,1,.552-.575.566.566,0,0,1,.421.146.555.555,0,0,1,.163.406l.1,4.754,2.474-.051q.528-.011.538.456t-.519.477l-3.073.063A.536.536,0,0,1,701.039,1636.443Z" transform="translate(-619.555 -1630.324)" fill="#fff"/>
        </g>
      </g>
      <path id="Trazado_3065" data-name="Trazado 3065" d="M253.464,1417.085H386.747l2.714-8.059H251.774Z" transform="translate(-78.583 -25.906)" fill="#235667"/>
      <path id="Trazado_3066" data-name="Trazado 3066" d="M228.817,1388.357h143.2l2.916-12.986H227Z" transform="translate(-59.515 0)" fill="#17373f"/>
      <path id="Trazado_3067" data-name="Trazado 3067" d="M951.528,1670.248l1.167.021a1.352,1.352,0,0,0,1.372-1.324l.834-9.009a1.353,1.353,0,0,0-1.324-1.372l-2.515-.044a1.352,1.352,0,0,0-1.372,1.324l.514,9.033A1.352,1.352,0,0,0,951.528,1670.248Z" transform="translate(-615.783 -217.945)" fill="#a56c38"/>
      <g id="Grupo_1623" data-name="Grupo 1623" transform="translate(315.665 1440.14)">
        <path id="Trazado_3068" data-name="Trazado 3068" d="M874.282,1676.258c-.163-.051-2.5-.661-2.653-.741-1.462-.764-1.335-2.246-.713-3.7l2.8-12.839a2.926,2.926,0,0,1,.675-1.384,3.012,3.012,0,0,1,3.393-.714l16.87,8.736a3.275,3.275,0,0,1,1.326,1.311c.983,1.792.5,2.876-.06,4.195l-2.551,5.96c-1.161,3.486-3.007,3.59-4.537,2.933Z" transform="translate(-870.475 -1656.636)" fill="#bc8044"/>
      </g>
      <g id="Grupo_1626" data-name="Grupo 1626" transform="translate(154.33 1495.52)">
        <path id="Trazado_3069" data-name="Trazado 3069" d="M170.026,1913.507h40.879s1.034-8.154-7.139-6.782c0,0-.195-8.816-6.36-9.524s-10.055,3.7-10.739,6.756a5.865,5.865,0,0,0-5.388-2.324,6.608,6.608,0,0,0-5.646,5.961S168.758,1906.948,170.026,1913.507Z" transform="translate(-169.87 -1897.125)" fill="#28773e"/>
        <g id="Grupo_1625" data-name="Grupo 1625" transform="translate(0 0)">
          <path id="Trazado_3070" data-name="Trazado 3070" d="M170.026,1913.507h40.879s1.034-8.154-7.139-6.782c0,0-.195-8.816-6.36-9.524s-10.055,3.7-10.739,6.756a5.865,5.865,0,0,0-5.388-2.324,6.608,6.608,0,0,0-5.646,5.961S168.758,1906.948,170.026,1913.507Z" transform="translate(-169.87 -1897.125)" fill="#28773e"/>
          <g id="Grupo_1624" data-name="Grupo 1624" transform="translate(0.19)">
            <path id="Trazado_3071" data-name="Trazado 3071" d="M200.811,1918.5a5.866,5.866,0,0,1,5.388,2.324c.747-1.09.888-1.191,1.445-2.022a5.416,5.416,0,0,0-5.388-2.324,6.8,6.8,0,0,0-5.133,3.856A6.586,6.586,0,0,1,200.811,1918.5Z" transform="translate(-191.036 -1911.969)" fill="#338947"/>
            <path id="Trazado_3072" data-name="Trazado 3072" d="M261.983,1906.725s-.195-8.816-6.36-9.524a9.985,9.985,0,0,0-10.12,5.122,10.048,10.048,0,0,1,8.675-3.1c6.165.709,6.36,9.524,6.36,9.524,5.482-.92,6.82,2.443,7.108,4.759h1.476S270.156,1905.353,261.983,1906.725Z" transform="translate(-228.276 -1897.125)" fill="#338947"/>
            <path id="Trazado_3073" data-name="Trazado 3073" d="M174.822,1944.6a4.969,4.969,0,0,1,.475-2.026c-1.4.08-3.9.571-4.6,2.987A7.043,7.043,0,0,1,174.822,1944.6Z" transform="translate(-170.693 -1932.106)" fill="#338947"/>
          </g>
        </g>
      </g>
      <g id="Grupo_1629" data-name="Grupo 1629" transform="translate(291.302 1495.52)">
        <path id="Trazado_3074" data-name="Trazado 3074" d="M805.6,1913.507H764.718s-1.035-8.154,7.139-6.782c0,0,.195-8.816,6.36-9.524s10.055,3.7,10.739,6.756a5.865,5.865,0,0,1,5.388-2.324,6.608,6.608,0,0,1,5.646,5.961S806.866,1906.948,805.6,1913.507Z" transform="translate(-764.676 -1897.125)" fill="#28773e"/>
        <g id="Grupo_1628" data-name="Grupo 1628" transform="translate(0 0)">
          <path id="Trazado_3075" data-name="Trazado 3075" d="M805.6,1913.507H764.718s-1.035-8.154,7.139-6.782c0,0,.195-8.816,6.36-9.524s10.055,3.7,10.739,6.756a5.865,5.865,0,0,1,5.388-2.324,6.608,6.608,0,0,1,5.646,5.961S806.866,1906.948,805.6,1913.507Z" transform="translate(-764.676 -1897.125)" fill="#28773e"/>
          <g id="Grupo_1627" data-name="Grupo 1627">
            <path id="Trazado_3076" data-name="Trazado 3076" d="M876.947,1918.5a5.866,5.866,0,0,0-5.389,2.324c-.747-1.09-.888-1.191-1.445-2.022a5.415,5.415,0,0,1,5.388-2.324,6.8,6.8,0,0,1,5.133,3.856A6.587,6.587,0,0,0,876.947,1918.5Z" transform="translate(-845.833 -1911.969)" fill="#338947"/>
            <path id="Trazado_3077" data-name="Trazado 3077" d="M771.857,1906.725s.195-8.816,6.36-9.524a9.986,9.986,0,0,1,10.12,5.122,10.048,10.048,0,0,0-8.675-3.1c-6.165.709-6.36,9.524-6.36,9.524-5.482-.92-6.82,2.443-7.108,4.759h-1.475S763.683,1905.353,771.857,1906.725Z" transform="translate(-764.676 -1897.125)" fill="#338947"/>
            <path id="Trazado_3078" data-name="Trazado 3078" d="M922.714,1944.6a4.967,4.967,0,0,0-.475-2.026c1.4.08,3.9.571,4.6,2.987A7.043,7.043,0,0,0,922.714,1944.6Z" transform="translate(-885.955 -1932.106)" fill="#338947"/>
          </g>
        </g>
      </g>
    </g>
    <rect id="Rectángulo_2047" data-name="Rectángulo 2047" width="256" height="176" transform="translate(56 168)" fill="none"/>
  </g>
</svg>
