<svg xmlns="http://www.w3.org/2000/svg" xmlns:xlink="http://www.w3.org/1999/xlink" width="200" height="179.249" viewBox="0 0 200 179.249">
  <defs>
    <clipPath id="clip-path">
      <path id="Trazado_2868" data-name="Trazado 2868" d="M2286.538,226.258h-186.25V342.98c-7.325,5.792-15.652,10.16-13.364,28.9,4.4,36.013,95.408,41.2,143.422,24.577,26.467-9.162,33.764-21.952,32.94-33.23h23.253Z" transform="translate(-2086.538 -226.258)" fill="none"/>
    </clipPath>
    <linearGradient id="linear-gradient" x1="0.5" x2="0.5" y2="1" gradientUnits="objectBoundingBox">
      <stop offset="0" stop-color="#f1e8ff"/>
      <stop offset="0.256" stop-color="#e0d1ff"/>
      <stop offset="1" stop-color="#b393ff"/>
    </linearGradient>
  </defs>
  <g id="Grupo_1573" data-name="Grupo 1573" transform="translate(-2077.538 -204.748)">
    <g id="Grupo_1572" data-name="Grupo 1572" transform="translate(2077.538 204.748)" clip-path="url(#clip-path)">
      <path id="Trazado_2798" data-name="Trazado 2798" d="M2157.25,345.476s-25.638-17.2-42.686,2.114-.145,41.069-6.48,54.845-24.4,11.478-21.161,38.025c4.4,36.013,95.408,41.2,143.422,24.577s32.943-45.182,20.739-54.993-10.361-27.645-15.78-40.251S2188.711,363.986,2157.25,345.476Z" transform="translate(-2086.538 -294.841)" fill="url(#linear-gradient)"/>
      <path id="Trazado_2799" data-name="Trazado 2799" d="M2190.419,639.674l-.218-.734a.886.886,0,0,1,.6-1.1l5.547-2.109a.886.886,0,0,1,1.1.6l.47,1.582a.887.887,0,0,1-.6,1.1l-5.8,1.26A.887.887,0,0,1,2190.419,639.674Z" transform="translate(-2149.902 -476.615)" fill="#996e4f"/>
      <path id="Trazado_2800" data-name="Trazado 2800" d="M2360.219,500.78s19.433,37.553,31.585,35.03,16.058-40.573,16.058-40.573h7.2s-6.121,45.1-21.758,49.535-40.465-36.674-40.465-36.674Z" transform="translate(-2249.374 -390.729)" fill="#c19063"/>
      <path id="Trazado_2801" data-name="Trazado 2801" d="M2493.659,473.833l-.7-.318a.887.887,0,0,1-.437-1.172l2.054-5.566a.887.887,0,0,1,1.172-.437l1.5.685a.886.886,0,0,1,.437,1.171l-2.859,5.2A.888.888,0,0,1,2493.659,473.833Z" transform="translate(-2334.736 -373.011)" fill="#996e4f"/>
      <g id="Grupo_1559" data-name="Grupo 1559" transform="translate(155.881 93.992)">
        <path id="Trazado_2802" data-name="Trazado 2802" d="M2501.956,481.124c.109-.026,1.668-.312,1.771-.357.993-.43.981-1.4.644-2.384l-1.216-8.533a1.921,1.921,0,0,0-.375-.938,1.975,1.975,0,0,0-2.185-.63l-11.455,4.9a2.15,2.15,0,0,0-.93.794,2.651,2.651,0,0,0-.162,2.747l1.382,4.021c.592,2.336,1.794,2.493,2.826,2.137Z" transform="translate(-2487.74 -468.172)" fill="#c19063"/>
      </g>
      <g id="Grupo_1569" data-name="Grupo 1569" transform="translate(9.523 7.523)">
        <path id="Trazado_2803" data-name="Trazado 2803" d="M2146.216,509.928s-27.95,18.974-34.528,32.455,39.773,31.525,39.773,31.525l4.511-5.924s-34.456-13.968-35.43-21.277,29.079-31.244,29.079-31.244Z" transform="translate(-2111.048 -407.236)" fill="#c19063"/>
        <path id="Trazado_2804" data-name="Trazado 2804" d="M2231.3,255.872s-2.6-10.387-21.723-10.249-31.592,20.359-27.16,43.211,2.362,24.312-.9,31.268-8.521,23.017,5.605,33.961l30.3.7Z" transform="translate(-2151.868 -245.621)" fill="#2f1b11"/>
        <path id="Trazado_2805" data-name="Trazado 2805" d="M2229.96,273.949a47.828,47.828,0,0,1,31.138-11.2c19.126.138,22.176,13.665,19.689,35.9-2.587,23.133-1.248,24.97,2.01,31.927s8.522,23.017-5.6,33.961l-30.3.7Z" transform="translate(-2183.758 -256.092)" fill="#2f1b11"/>
        <g id="Grupo_1561" data-name="Grupo 1561" transform="translate(38.951 44.064)">
          <circle id="Elipse_331" data-name="Elipse 331" cx="4.138" cy="4.138" r="4.138" fill="#c19063"/>
          <circle id="Elipse_332" data-name="Elipse 332" cx="2.427" cy="2.427" r="2.427" transform="translate(1.71 1.71)" fill="#996e4f"/>
          <g id="Grupo_1560" data-name="Grupo 1560" transform="translate(0.541 6.291)">
            <circle id="Elipse_333" data-name="Elipse 333" cx="2.262" cy="2.262" r="2.262" fill="#4399ff"/>
            <path id="Trazado_2806" data-name="Trazado 2806" d="M2217.858,375.224a2.256,2.256,0,0,0-.417.04,2.261,2.261,0,0,1,0,4.445,2.293,2.293,0,0,0,.417.04,2.262,2.262,0,0,0,0-4.524Z" transform="translate(-2215.596 -375.224)" fill="#3386ff"/>
          </g>
        </g>
        <g id="Grupo_1563" data-name="Grupo 1563" transform="translate(83.611 44.064)">
          <circle id="Elipse_334" data-name="Elipse 334" cx="4.138" cy="4.138" r="4.138" fill="#c19063"/>
          <circle id="Elipse_335" data-name="Elipse 335" cx="2.427" cy="2.427" r="2.427" transform="translate(1.71 1.71)" fill="#996e4f"/>
          <g id="Grupo_1562" data-name="Grupo 1562" transform="translate(3.21 6.291)">
            <circle id="Elipse_336" data-name="Elipse 336" cx="2.262" cy="2.262" r="2.262" fill="#4399ff"/>
            <path id="Trazado_2807" data-name="Trazado 2807" d="M2336.768,375.224a2.258,2.258,0,0,1,.417.04,2.261,2.261,0,0,0,0,4.445,2.3,2.3,0,0,1-.417.04,2.262,2.262,0,0,1,0-4.524Z" transform="translate(-2334.506 -375.224)" fill="#3386ff"/>
          </g>
        </g>
        <path id="Trazado_2808" data-name="Trazado 2808" d="M2221.248,1034.227s.171,6.687-4.115,9.027-6.912,3.337-12.269,6.987,20.87-.122,24.338-1.718.266-14.9.266-14.9Z" transform="translate(-2167.974 -727.456)" fill="#c19063"/>
        <path id="Trazado_2809" data-name="Trazado 2809" d="M2208.2,1058.935l-2.071-1.176-3.715-.472s-13.249,5.818-13.171,7.589,5.983,3.65,13.107,2.491,16.267-2.248,18.864-3.794,1.234-8.184.606-10.839c0,0-2.158,1.328-4.963,5.931A11.716,11.716,0,0,1,2208.2,1058.935Z" transform="translate(-2158.862 -739.144)" fill="#2d1607"/>
        <path id="Trazado_2810" data-name="Trazado 2810" d="M2307.528,1034.812s-.318,6.682,3.915,9.116,6.837,3.488,12.113,7.256-20.862-.582-24.3-2.254-.533-13.976-.533-13.976Z" transform="translate(-2225.108 -728.185)" fill="#c19063"/>
        <path id="Trazado_2811" data-name="Trazado 2811" d="M2309.671,1058.311l2.1-1.13,3.724-.39s13.117,6.109,13,7.877-6.062,3.517-13.159,2.2-16.213-2.606-18.775-4.208-1.053-8.21-.367-10.85c0,0,2.128,1.375,4.831,6.038A11.718,11.718,0,0,0,2309.671,1058.311Z" transform="translate(-2223.603 -738.579)" fill="#2d1607"/>
        <path id="Trazado_2812" data-name="Trazado 2812" d="M2275.618,446.16v13.225l-14.53.454,1.828-14.1Z" transform="translate(-2202.792 -367.988)" fill="#c19063"/>
        <path id="Trazado_2813" data-name="Trazado 2813" d="M2277.254,449.574s-7.255,4.7-13.491.282l.788-7.331,12.7.419Z" transform="translate(-2204.428 -366.021)" fill="#996e4f"/>
        <path id="Trazado_2814" data-name="Trazado 2814" d="M2258.878,563.372h0c-7.655-28.819-16.6-47.139-16.6-47.139,7.989-10.266,19.584-30.862-6.457-41.639l-.022.023a36.482,36.482,0,0,0-28.678.166c-25.463,10.827-14.134,31.244-6.19,41.451,0,0-9.455,18.846-17.11,47.665h0c-7.209,22.433,9.31,39.56,34.234,38.729h6.756C2249.933,603.465,2266.519,586.064,2258.878,563.372Z" transform="translate(-2154.509 -383.895)" fill="#c19063"/>
        <path id="Trazado_2815" data-name="Trazado 2815" d="M2205.947,490.153s1.859-6.393-.815-7.738-24.169,6.224-22.958,12.279,4.674,11.4,12.176,12.207S2205.947,490.153,2205.947,490.153Z" transform="translate(-2154.509 -390.317)" fill="#efa878"/>
        <path id="Trazado_2816" data-name="Trazado 2816" d="M2319.534,490.153s-1.859-6.393.815-7.738,24.169,6.224,22.958,12.279-4.674,11.4-12.176,12.207S2319.534,490.153,2319.534,490.153Z" transform="translate(-2238.146 -390.317)" fill="#efa878"/>
        <path id="Trazado_2817" data-name="Trazado 2817" d="M2206.735,841.167l-23.758-110.256-.005-.115c-.261-5.988,1.308-10.937,4.54-14.313a14.5,14.5,0,0,1,10.773-4.381,21.418,21.418,0,0,1,7.723,1.534c7.2,2.786,11.879,9.976,13.538,20.791a63.109,63.109,0,0,1,.377,15.265l-2.384,93.416Z" transform="translate(-2155.01 -530.858)" fill="#2d1607"/>
        <path id="Trazado_2818" data-name="Trazado 2818" d="M2292.833,843.424l-3.119-93.732a63.187,63.187,0,0,1,.377-15.265c1.659-10.816,6.341-18.005,13.539-20.791a21.418,21.418,0,0,1,7.722-1.534,14.5,14.5,0,0,1,10.773,4.381c3.232,3.376,4.8,8.326,4.54,14.313l0,.115-23.62,109.617Z" transform="translate(-2220.117 -530.858)" fill="#2d1607"/>
        <path id="Trazado_2819" data-name="Trazado 2819" d="M2242.354,613.854a119.05,119.05,0,0,0,12.068-2.743s6.129-26.3,6.014-38.607S2241,517.453,2241,517.453c6.323-5.64,7.271-14.265,7.271-14.265,13.507-7.189,9.739-16.845,9.739-16.845-9-7.976-21.119-10.73-27.331-11.655-.741,6.7-3.262,13.353-12.5,12.478-8.271-.783-9.456-9.883-9.626-12.546-5.235.7-19.145,3.354-29.042,12.457,0,0-3.587,9.726,10.052,16.661,0,0,1.109,8.606,7.537,14.127,0,0-18.519,43.095-18.4,55.406s6.736,38.488,6.736,38.488a141.148,141.148,0,0,0,29.916,4.284v.083q2.339.047,4.623,0,2.281,0,4.623-.088l14.25-1.594,1.51-15.216Z" transform="translate(-2152.414 -385.646)" fill="#4399ff"/>
        <g id="Grupo_1564" data-name="Grupo 1564" transform="translate(42.803 111.493)">
          <path id="Trazado_2820" data-name="Trazado 2820" d="M2225.593,539.044v6.193l5.321,2.166,4.542-2.112.49-6.931Z" transform="translate(-2223.892 -536.114)" fill="#2975fc"/>
          <path id="Trazado_2821" data-name="Trazado 2821" d="M2234.092,538.482l-.337,4.768-4.542,2.112-3.62-1.473v1.348l5.321,2.166,4.542-2.112.49-6.931Z" transform="translate(-2223.892 -536.114)" fill="#2677ed" opacity="0.22"/>
          <path id="Trazado_2822" data-name="Trazado 2822" d="M2221.626,532.579a34.553,34.553,0,0,0,13.015.031,8.014,8.014,0,0,1-.09,3.509s-4.862,2.491-13.015-.031A4.291,4.291,0,0,1,2221.626,532.579Z" transform="translate(-2221.214 -532.579)" fill="#1f58bd"/>
          <path id="Trazado_2823" data-name="Trazado 2823" d="M2234.761,532.66c-.782.168-1.563.294-2.333.388a5.569,5.569,0,0,1-.249,1.735s-3.977,2.037-10.769.56a3.19,3.19,0,0,0,.247.793c8.153,2.523,13.015.031,13.015.031A8.018,8.018,0,0,0,2234.761,532.66Z" transform="translate(-2221.333 -532.629)" fill="#153b7e" opacity="0.21"/>
        </g>
        <g id="Grupo_1565" data-name="Grupo 1565" transform="translate(76.596 111.493)">
          <path id="Trazado_2824" data-name="Trazado 2824" d="M2312.569,539.044v6.193l5.322,2.166,4.542-2.112.49-6.931Z" transform="translate(-2310.867 -536.114)" fill="#2975fc"/>
          <path id="Trazado_2825" data-name="Trazado 2825" d="M2321.068,538.482l-.337,4.768-4.543,2.112-3.62-1.473v1.348l5.322,2.166,4.542-2.112.49-6.931Z" transform="translate(-2310.867 -536.114)" fill="#2677ed" opacity="0.22"/>
          <path id="Trazado_2826" data-name="Trazado 2826" d="M2308.6,532.579a34.554,34.554,0,0,0,13.015.031,8.014,8.014,0,0,1-.089,3.509s-4.862,2.491-13.015-.031A4.293,4.293,0,0,1,2308.6,532.579Z" transform="translate(-2308.19 -532.579)" fill="#1f58bd"/>
          <path id="Trazado_2827" data-name="Trazado 2827" d="M2321.736,532.66c-.782.168-1.563.294-2.333.388a5.569,5.569,0,0,1-.249,1.735s-3.977,2.037-10.769.56a3.2,3.2,0,0,0,.247.793c8.153,2.523,13.015.031,13.015.031A8.019,8.019,0,0,0,2321.736,532.66Z" transform="translate(-2308.309 -532.629)" fill="#153b7e" opacity="0.21"/>
        </g>
        <path id="Trazado_2828" data-name="Trazado 2828" d="M2243.5,474.081l.6-5.336,6.228-1.311v-3.55s8.394,2.719,16.108.5v2.556l3.861,1.18,5.793,3.65-9.385,11.585-14.066,1.065Z" transform="translate(-2192.041 -379.081)" fill="#4399ff"/>
        <path id="Trazado_2829" data-name="Trazado 2829" d="M2273.918,463.828l1.781,47.02,3.532.027-.12-47.007Z" transform="translate(-2210.637 -379.047)" fill="#2975fc"/>
        <path id="Trazado_2830" data-name="Trazado 2830" d="M2276.7,466.941l1.72,51.416h1.5l-.421-51.416Z" transform="translate(-2212.336 -380.951)" fill="#3386ff"/>
        <path id="Trazado_2831" data-name="Trazado 2831" d="M2207.193,487.122c6.927-2.758,6.508-10.2,5.772-12.894s-1.738-2.458-1.738-2.458c-5.422-.292-15.361,4.286-16.674,6.079s1.054,6.456,1.054,6.456S2198.95,490.4,2207.193,487.122Z" transform="translate(-2161.866 -383.895)" fill="#153b7e"/>
        <path id="Trazado_2832" data-name="Trazado 2832" d="M2219.878,474.228c-.736-2.694-1.738-2.457-1.738-2.457a11.986,11.986,0,0,0-1.909.07,7.165,7.165,0,0,1,.535,1.426c.736,2.695,1.154,10.136-5.772,12.894a11.646,11.646,0,0,1-5.532.919c1.871,1.033,4.694,1.616,8.645.042C2221.033,484.365,2220.614,476.923,2219.878,474.228Z" transform="translate(-2168.779 -383.896)" fill="#153b7e" opacity="0.26"/>
        <path id="Trazado_2833" data-name="Trazado 2833" d="M2320.9,485.518c-6.926-2.758-6.508-10.2-5.772-12.894s1.738-2.458,1.738-2.458c5.423-.292,15.361,4.286,16.674,6.079s-1.054,6.456-1.054,6.456S2329.14,488.8,2320.9,485.518Z" transform="translate(-2235.596 -382.915)" fill="#153b7e"/>
        <path id="Trazado_2834" data-name="Trazado 2834" d="M2315.125,472.624c.737-2.694,1.738-2.457,1.738-2.457a11.99,11.99,0,0,1,1.91.07,7.155,7.155,0,0,0-.534,1.426c-.736,2.695-1.155,10.136,5.771,12.894a11.645,11.645,0,0,0,5.532.919c-1.871,1.033-4.693,1.616-8.644.042C2313.971,482.761,2314.389,475.319,2315.125,472.624Z" transform="translate(-2235.596 -382.915)" fill="#153b7e" opacity="0.26"/>
        <path id="Trazado_2835" data-name="Trazado 2835" d="M2296.82,836.09l0-.082c5.21-.285,10.051-.858,14.254-1.512" transform="translate(-2224.639 -605.698)" fill="#04afc7"/>
        <path id="Trazado_2836" data-name="Trazado 2836" d="M2222.037,585.274s17.3,2.836,43.9-.411a8.607,8.607,0,0,1,2.969,6.75s-36.093,8.171-49.3-.535A5.465,5.465,0,0,1,2222.037,585.274Z" transform="translate(-2177.349 -453.056)" fill="#153b7e"/>
        <path id="Trazado_2837" data-name="Trazado 2837" d="M2265.936,584.863l-.351.042a7.611,7.611,0,0,1,1.032,4.354s-32.553,7.369-47.138.651a4.8,4.8,0,0,0,.128,1.169c13.205,8.705,49.3.535,49.3.535A8.607,8.607,0,0,0,2265.936,584.863Z" transform="translate(-2177.35 -453.056)" fill="#153b7e" opacity="0.26"/>
        <circle id="Elipse_337" data-name="Elipse 337" cx="20.71" cy="20.71" r="20.71" transform="translate(44.792 10.077)" fill="#c19063"/>
        <path id="Trazado_2838" data-name="Trazado 2838" d="M2235.875,304.219l-12.63,2.061s-1.773,4.091-2.288,16.65-4.379,23.019,6.284,32.509c0,0,3.212,2.937,4.666,4.019s4.929,4.364,10.844,4.461,10.078-24.979,10.078-24.979Z" transform="translate(-2177.58 -281.452)" fill="#c19063"/>
        <path id="Trazado_2839" data-name="Trazado 2839" d="M2271.489,304.219l12.629,2.061s1.773,4.091,2.287,16.65,4.38,23.019-6.284,32.509c0,0-3.211,2.937-4.665,4.019s-4.929,4.364-10.844,4.461-10.077-24.979-10.077-24.979Z" transform="translate(-2198.786 -281.452)" fill="#c19063"/>
        <g id="Grupo_1566" data-name="Grupo 1566" transform="translate(50.067 42.554)">
          <path id="Trazado_2840" data-name="Trazado 2840" d="M2296.445,358.537a3.247,3.247,0,1,0,3.243-3.391A3.321,3.321,0,0,0,2296.445,358.537Z" transform="translate(-2274.479 -355.146)" fill="#2f1b11"/>
          <path id="Trazado_2841" data-name="Trazado 2841" d="M2296.918,357.452s3.131-2.508,5.968.23c0,0,2.692-.5,3.15-2.327,0,0-2.239,1.183-3.807.408S2297.9,354.814,2296.918,357.452Z" transform="translate(-2274.769 -355.216)" fill="#2f1b11"/>
          <path id="Trazado_2842" data-name="Trazado 2842" d="M2307.845,360.915a.9.9,0,0,1-.013,1.218c-.44.488.282,1.215.725.724a1.911,1.911,0,0,0,.172-2.459.53.53,0,0,0-.7-.184.515.515,0,0,0-.183.7Z" transform="translate(-2281.358 -358.204)" fill="#fff"/>
          <path id="Trazado_2843" data-name="Trazado 2843" d="M2253.642,358.537a3.247,3.247,0,1,1-3.244-3.391A3.321,3.321,0,0,1,2253.642,358.537Z" transform="translate(-2244.339 -355.146)" fill="#2f1b11"/>
          <path id="Trazado_2844" data-name="Trazado 2844" d="M2249.028,357.452s-3.13-2.508-5.968.23c0,0-2.693-.5-3.15-2.327,0,0,2.24,1.183,3.807.408S2248.044,354.814,2249.028,357.452Z" transform="translate(-2239.91 -355.216)" fill="#2f1b11"/>
          <path id="Trazado_2845" data-name="Trazado 2845" d="M2257.335,360.915a.9.9,0,0,1-.012,1.218c-.441.488.281,1.215.724.724a1.91,1.91,0,0,0,.173-2.459.53.53,0,0,0-.7-.184.515.515,0,0,0-.184.7Z" transform="translate(-2250.473 -358.204)" fill="#fff"/>
        </g>
        <path id="Trazado_2846" data-name="Trazado 2846" d="M2242.953,389.614a3.232,3.232,0,1,1-3.232-3.232A3.232,3.232,0,0,1,2242.953,389.614Z" transform="translate(-2187.751 -331.692)" fill="#f48f8a" opacity="0.41"/>
        <path id="Trazado_2847" data-name="Trazado 2847" d="M2307.176,388.442a3.232,3.232,0,1,0,3.232-3.232A3.231,3.231,0,0,0,2307.176,388.442Z" transform="translate(-2230.973 -330.975)" fill="#f48f8a" opacity="0.41"/>
        <g id="Grupo_1567" data-name="Grupo 1567" transform="translate(57.711 63.063)">
          <path id="Trazado_2848" data-name="Trazado 2848" d="M2275.673,407.994s-9.677,2.984-15.545,1.66c0,0-1.013.045-.278.686,0,0,7.57,12.088,16.211-1.922C2276.061,408.418,2276.743,407.727,2275.673,407.994Z" transform="translate(-2259.583 -407.933)" fill="#352626"/>
          <path id="Trazado_2849" data-name="Trazado 2849" d="M2260.975,411.122a2.07,2.07,0,0,1-1.125-.782c-.735-.641.278-.686.278-.686,5.868,1.324,15.545-1.66,15.545-1.66,1.071-.267.388.424.388.424-.249.4-.5.782-.743,1.142C2275.318,409.56,2268,413.052,2260.975,411.122Z" transform="translate(-2259.583 -407.933)" fill="#fff"/>
        </g>
        <path id="Trazado_2850" data-name="Trazado 2850" d="M2297.707,334.314s6.52-1.48,10.086,5.4a23.075,23.075,0,0,0-8.977-1.851s-1.558.286-2.161-.839A1.944,1.944,0,0,1,2297.707,334.314Z" transform="translate(-2224.412 -299.772)" fill="#2f1b11"/>
        <path id="Trazado_2851" data-name="Trazado 2851" d="M2244.255,334.314s-6.519-1.48-10.085,5.4a23.073,23.073,0,0,1,8.977-1.851s1.559.286,2.162-.839A1.944,1.944,0,0,0,2244.255,334.314Z" transform="translate(-2186.333 -299.772)" fill="#2f1b11"/>
        <path id="Trazado_2852" data-name="Trazado 2852" d="M2214.722,291.906s29.24-2.285,34.01-23.2c0,0-5.376-4.986-17.893-3.324S2212.005,284.837,2214.722,291.906Z" transform="translate(-2174.061 -257.498)" fill="#2f1b11"/>
        <path id="Trazado_2853" data-name="Trazado 2853" d="M2286.853,277.673s-.235,10.786-2.965,16.378c0,0,8.981-8.914,7.518-19.578Z" transform="translate(-2216.734 -263.263)" fill="#2f1b11"/>
        <path id="Trazado_2854" data-name="Trazado 2854" d="M2298.485,274.625s2.6,14.606,15.9,17.967c0,0,3.2-18.66-14.051-24.892Z" transform="translate(-2225.66 -259.122)" fill="#2f1b11"/>
        <rect id="Rectángulo_1752" data-name="Rectángulo 1752" width="20.774" height="15.927" rx="7.964" transform="translate(57.188 129.442)" fill="#fbb03b"/>
        <rect id="Rectángulo_1753" data-name="Rectángulo 1753" width="10.929" height="15.777" rx="5.465" transform="translate(75.464 131.941) rotate(90)" fill="#f15a24"/>
        <g id="Grupo_1568" data-name="Grupo 1568" transform="translate(64.686 133.2)">
          <path id="Trazado_2855" data-name="Trazado 2855" d="M2282.388,593.577h-.405a1.664,1.664,0,0,1-1.662-1.662V590.11a1.664,1.664,0,0,1,1.662-1.662h.405a1.664,1.664,0,0,1,1.663,1.662v1.805A1.664,1.664,0,0,1,2282.388,593.577Zm-.405-4.508a1.041,1.041,0,0,0-1.04,1.04v1.805a1.041,1.041,0,0,0,1.04,1.041h.405a1.042,1.042,0,0,0,1.041-1.041V590.11a1.042,1.042,0,0,0-1.041-1.04Z" transform="translate(-2279.239 -588.448)" fill="#ccc"/>
          <rect id="Rectángulo_1754" data-name="Rectángulo 1754" width="5.894" height="5.211" rx="2.605" transform="translate(0 2.877)" fill="#fbb03b"/>
          <path id="Trazado_2856" data-name="Trazado 2856" d="M2283.049,595.974a1.779,1.779,0,0,1,.637,1.362v1.646a1.787,1.787,0,0,1-1.782,1.782h-2.33a1.759,1.759,0,0,1-.4-.047,1.773,1.773,0,0,0,1.145.42h2.329a1.787,1.787,0,0,0,1.782-1.782v-1.646A1.787,1.787,0,0,0,2283.049,595.974Z" transform="translate(-2278.539 -593.05)" fill="#ea9a32"/>
          <path id="Trazado_2857" data-name="Trazado 2857" d="M2284.28,600.486a.827.827,0,1,0-1.151.762v.913h.685v-.932A.827.827,0,0,0,2284.28,600.486Z" transform="translate(-2280.647 -595.303)" fill="#ad3814"/>
          <path id="Trazado_2858" data-name="Trazado 2858" d="M2284.363,599.659a.818.818,0,0,0-.249.038.826.826,0,0,1,.113,1.532v.932h.5v-.932a.827.827,0,0,0-.361-1.57Z" transform="translate(-2281.558 -595.303)" fill="#7f2f19"/>
        </g>
      </g>
      <circle id="Elipse_338" data-name="Elipse 338" cx="29.28" cy="29.28" r="29.28" transform="translate(138.414 43.193)" fill="#7facfd" opacity="0.54"/>
      <path id="Trazado_2859" data-name="Trazado 2859" d="M2476,397.419a26.781,26.781,0,1,1,26.781-26.781A26.811,26.811,0,0,1,2476,397.419Z" transform="translate(-2308.302 -298.166)" fill="#1f58bd" opacity="0.31"/>
      <g id="Grupo_1570" data-name="Grupo 1570" transform="translate(156.632 56.462)">
        <path id="Trazado_2860" data-name="Trazado 2860" d="M2507.888,390.83h-1.52a6.246,6.246,0,0,1-6.239-6.239v-6.775a6.246,6.246,0,0,1,6.239-6.239h1.52a6.246,6.246,0,0,1,6.239,6.239v6.775A6.246,6.246,0,0,1,2507.888,390.83Zm-1.52-16.918a3.909,3.909,0,0,0-3.905,3.9v6.775a3.909,3.909,0,0,0,3.905,3.9h1.52a3.909,3.909,0,0,0,3.905-3.9v-6.775a3.909,3.909,0,0,0-3.905-3.9Z" transform="translate(-2496.067 -371.578)" fill="#f2f2f2"/>
        <rect id="Rectángulo_1755" data-name="Rectángulo 1755" width="22.123" height="19.557" rx="9.779" transform="translate(0 10.798)" fill="#ffbc45"/>
        <path id="Trazado_2861" data-name="Trazado 2861" d="M2510.369,399.823a6.681,6.681,0,0,1,2.393,5.113v6.178a6.709,6.709,0,0,1-6.69,6.69h-8.743a6.65,6.65,0,0,1-1.5-.176,6.654,6.654,0,0,0,4.3,1.576h8.743a6.709,6.709,0,0,0,6.69-6.69v-6.178A6.712,6.712,0,0,0,2510.369,399.823Z" transform="translate(-2493.439 -388.849)" fill="#ea9a32" opacity="0.59"/>
        <path id="Trazado_2862" data-name="Trazado 2862" d="M2514.987,416.76a3.1,3.1,0,1,0-4.319,2.857v3.429h2.573v-3.5A3.1,3.1,0,0,0,2514.987,416.76Z" transform="translate(-2501.356 -397.307)" fill="#ad3814"/>
        <path id="Trazado_2863" data-name="Trazado 2863" d="M2515.3,413.657a3.088,3.088,0,0,0-.934.143,3.1,3.1,0,0,1,.425,5.749v3.5h1.866v-3.5a3.1,3.1,0,0,0-1.358-5.893Z" transform="translate(-2504.772 -397.308)" fill="#7f2f19"/>
      </g>
      <path id="Trazado_2864" data-name="Trazado 2864" d="M2474.792,349.857a.41.41,0,0,1-.193-.048l-1.967-1.034-1.966,1.034a.417.417,0,0,1-.6-.439l.375-2.189-1.591-1.551a.416.416,0,0,1,.23-.71l2.2-.319.983-1.992a.416.416,0,0,1,.747,0l.984,1.992,2.2.319a.416.416,0,0,1,.23.71l-1.59,1.551.375,2.189a.417.417,0,0,1-.411.487Z" transform="translate(-2320.229 -297.26)" fill="#fbb03b"/>
      <path id="Trazado_2865" data-name="Trazado 2865" d="M2520.438,335.28a.42.42,0,0,1-.194-.048l-1.966-1.034-1.966,1.034a.417.417,0,0,1-.6-.439l.376-2.189-1.591-1.551a.416.416,0,0,1,.231-.71l2.2-.319.983-1.992a.417.417,0,0,1,.747,0l.983,1.992,2.2.319a.416.416,0,0,1,.231.71l-1.591,1.551.375,2.189a.417.417,0,0,1-.41.487Z" transform="translate(-2348.141 -288.347)" fill="#fbb03b"/>
      <path id="Trazado_2866" data-name="Trazado 2866" d="M2488.45,318.561a.418.418,0,0,1-.194-.048l-1.967-1.034-1.966,1.034a.416.416,0,0,1-.6-.439l.375-2.189-1.591-1.551a.416.416,0,0,1,.231-.71l2.2-.319.983-1.992a.417.417,0,0,1,.747,0l.984,1.992,2.2.319a.416.416,0,0,1,.231.71l-1.591,1.551.375,2.189a.416.416,0,0,1-.41.487Z" transform="translate(-2328.581 -278.124)" fill="#fbb03b"/>
      <g id="Grupo_1571" data-name="Grupo 1571" transform="translate(34.52 160.426)">
        <path id="Trazado_2867" data-name="Trazado 2867" d="M2184.108,654.237c.092.066,1.332,1.052,1.433,1.1.977.466,1.7-.183,2.221-1.081l5.634-6.522a1.919,1.919,0,0,0,.46-.9,1.975,1.975,0,0,0-.96-2.062l-11.222-5.414a2.148,2.148,0,0,0-1.209-.18,2.653,2.653,0,0,0-2.177,1.682l-2.123,3.684c-1.373,1.981-.7,2.991.247,3.535Z" transform="translate(-2175.385 -639.158)" fill="#c19063"/>
      </g>
    </g>
  </g>
</svg>
