<svg xmlns="http://www.w3.org/2000/svg" xmlns:xlink="http://www.w3.org/1999/xlink" width="176" height="176" viewBox="0 0 176 176">
  <defs>
    <linearGradient id="linear-gradient" y1="0.5" x2="1" y2="0.5" gradientUnits="objectBoundingBox">
      <stop offset="0" stop-color="#f1e8ff"/>
      <stop offset="0.256" stop-color="#e0d1ff"/>
      <stop offset="1" stop-color="#b393ff"/>
    </linearGradient>
    <linearGradient id="linear-gradient-3" x1="48.93" y1="-227.693" x2="48.93" y2="-228.73" gradientUnits="objectBoundingBox">
      <stop offset="0" stop-color="#fff" stop-opacity="0"/>
      <stop offset="0.088" stop-color="#fff" stop-opacity="0.027"/>
      <stop offset="0.216" stop-color="#fff" stop-opacity="0.102"/>
      <stop offset="0.369" stop-color="#fff" stop-opacity="0.227"/>
      <stop offset="0.54" stop-color="#fff" stop-opacity="0.4"/>
      <stop offset="0.726" stop-color="#fff" stop-opacity="0.624"/>
      <stop offset="0.923" stop-color="#fff" stop-opacity="0.886"/>
      <stop offset="1" stop-color="#fff"/>
    </linearGradient>
    <linearGradient id="linear-gradient-4" x1="55.85" y1="-237.84" x2="55.85" y2="-238.943" xlink:href="#linear-gradient-3"/>
    <linearGradient id="linear-gradient-5" y1="0.5" x2="1" y2="0.5" gradientUnits="objectBoundingBox">
      <stop offset="0" stop-color="#4a1ed9"/>
      <stop offset="0.917" stop-color="#5d2af5"/>
      <stop offset="1" stop-color="#602cf8"/>
    </linearGradient>
  </defs>
  <g id="Grupo_2565" data-name="Grupo 2565" transform="translate(-6528.927 -670.843)">
    <g id="Grupo_2564" data-name="Grupo 2564">
      <path id="Trazado_5105" data-name="Trazado 5105" d="M6631.293,705.62s-17.581-32.4-46.182-19.269-51.614,63.906-26.982,106.164,72.153,55.677,104.291,42.888,38.2-55.515,22.216-74.494S6656.319,748.57,6631.293,705.62Z" fill="url(#linear-gradient)"/>
      <path id="Trazado_5106" data-name="Trazado 5106" d="M6639.7,701.41s-7.786-10.92.48-20.743,34.415-4.737,47.235,8.21,14.746,32.166,5.73,38.5S6660.636,729.733,6639.7,701.41Z" fill="url(#linear-gradient)"/>
      <g id="Grupo_2561" data-name="Grupo 2561">
        <g id="Grupo_2535" data-name="Grupo 2535">
          <path id="Trazado_5107" data-name="Trazado 5107" d="M6657.574,730.171l-16.618-9.529s-11.5,3.523-27.009,13.866-66.34,4.274-83.55,6.358c0,0,10.814,4.354,18.515,10.19,4.621,3.5,8.121,7.538,7.493,11.487-1.675,10.532,6.056,21.4,16.651,20.994s32.493-4.017,33.618,5.848S6653.389,741.952,6657.574,730.171Z" fill="#91101d"/>
          <path id="Trazado_5108" data-name="Trazado 5108" d="M6642.072,724.614s-39.444,26.814-93.16,26.442a7.282,7.282,0,0,1,2.722,2.261c3.181,2.925,5.268,6.1,4.771,9.226a19.274,19.274,0,0,0,2.516,12.812c6.478-3.488,23.087-11.943,37.943-15.411C6615.81,755.521,6639.1,743.375,6642.072,724.614Z" fill="#7c1221"/>
          <path id="Trazado_5109" data-name="Trazado 5109" d="M6606.674,789.385c.844,7.4,26.706-22.99,41.345-43.613a13.709,13.709,0,0,0-.554-5.666l-49.573,42.915C6602.691,783.769,6606.239,785.567,6606.674,789.385Z" fill="#7c1221"/>
        </g>
        <g id="Grupo_2560" data-name="Grupo 2560">
          <path id="Trazado_5110" data-name="Trazado 5110" d="M6647.04,722.652l.446-1.716,8.128,4.722-.467,1.492-5.5,1.818-1.23-.016Z" fill="#533e60"/>
          <path id="Trazado_5111" data-name="Trazado 5111" d="M6622.078,764.583s-4.758,11.608-23.57,29.106l2.587,4.687s24.591-15.751,33.617-30.379Z" fill="#18181c"/>
          <path id="Trazado_5112" data-name="Trazado 5112" d="M6632.967,764.5a9.772,9.772,0,0,1-6.1,5.495c-1.651.455-1.742.355-3.457-.411-4.1-1.832-6.812-6.47-4.387-11.161,0,0,2.74-8.5,9.387-5.419C6634.925,756.022,6634.688,761.078,6632.967,764.5Z" fill="#252430"/>
          <path id="Trazado_5113" data-name="Trazado 5113" d="M6641.021,761.408c-1.672,3.7-5.831,6.189-8.683,6.974a9.053,9.053,0,0,1-6.248-.5c-5.051-2.257-7.116-7.839-4.128-13.617,0,0,4.089-10.611,12.276-6.816C6642.267,751.172,6643.142,757.2,6641.021,761.408Z" fill="#252430"/>
          <path id="Trazado_5114" data-name="Trazado 5114" d="M6621.893,753.228a84.209,84.209,0,0,0,17.805,11,10.174,10.174,0,0,0,1.719-2.656L6624,751.058A2.63,2.63,0,0,0,6621.893,753.228Z" fill="#e98924"/>
          <g id="Grupo_2537" data-name="Grupo 2537">
            <g id="Grupo_2536" data-name="Grupo 2536">
              <rect id="Rectángulo_1883" data-name="Rectángulo 1883" width="4.823" height="3.355" rx="0.315" transform="translate(6630.408 756.291) rotate(30.982)" fill="#e8c325"/>
              <rect id="Rectángulo_1884" data-name="Rectángulo 1884" width="3.44" height="2.393" rx="0.225" transform="translate(6630.753 757.06) rotate(30.982)" fill="#f9da58"/>
              <path id="Trazado_5115" data-name="Trazado 5115" d="M6633.509,758.715l-.1-.061-.981,1.634a.226.226,0,0,1-.309.077l-2.462-1.479-.019.032a.226.226,0,0,0,.077.309l2.564,1.539a.225.225,0,0,0,.308-.077l1-1.666A.224.224,0,0,0,6633.509,758.715Z" fill="#f4e5a4"/>
            </g>
          </g>
          <path id="Trazado_5116" data-name="Trazado 5116" d="M6648.689,699.032l-1.053-1.336a3.675,3.675,0,0,0-2.486,3.515c.137,2.639.819,7.473.819,7.473l.98.534,6.333-10.89Z" fill="#231f20"/>
          <g id="Grupo_2538" data-name="Grupo 2538">
            <circle id="Elipse_472" data-name="Elipse 472" cx="1.488" cy="1.488" r="1.488" transform="translate(6644.653 706.339)" fill="#eaa271"/>
            <circle id="Elipse_473" data-name="Elipse 473" cx="0.873" cy="0.873" r="0.873" transform="translate(6645.268 706.955)" fill="#d38c5b"/>
          </g>
          <path id="Trazado_5117" data-name="Trazado 5117" d="M6664.852,700.985l.172,1.124s-2.178,5.4-1.163,7.533l1.01.2,2.271-6.55S6665.828,700.552,6664.852,700.985Z" fill="#231f20"/>
          <g id="Grupo_2539" data-name="Grupo 2539">
            <circle id="Elipse_474" data-name="Elipse 474" cx="1.488" cy="1.488" r="1.488" transform="translate(6662.799 708.465)" fill="#eaa271"/>
            <circle id="Elipse_475" data-name="Elipse 475" cx="0.873" cy="0.873" r="0.873" transform="translate(6663.414 709.08)" fill="#d38c5b"/>
          </g>
          <path id="Trazado_5118" data-name="Trazado 5118" d="M6663.345,716.382l2.4-13.684s.233-5.991-8.832-7.357-9.983,6.6-9.983,6.6l.043.018-1.476,11.659a3.909,3.909,0,0,0,.976,3.692l2.707,3.119c3.87,4.365,7.678,2,7.678,2l2.346-.885A6.25,6.25,0,0,0,6663.345,716.382Z" fill="#f9b180"/>
          <path id="Trazado_5119" data-name="Trazado 5119" d="M6655.381,722.978l-3.628,5.539-4.646-2.155,2.324-6.321Z" fill="#f9b180"/>
          <path id="Trazado_5120" data-name="Trazado 5120" d="M6643.3,722.333s9.689-.35,12.6,7.364l-9.54.2Z" fill="#f9b180"/>
          <path id="Trazado_5121" data-name="Trazado 5121" d="M6654.179,724.814s-4.125.053-5.586-2.5l.838-2.278,5.95,2.937Z" fill="#e28f56"/>
          <g id="Grupo_2540" data-name="Grupo 2540">
            <path id="Trazado_5122" data-name="Trazado 5122" d="M6653.845,707.119a1.245,1.245,0,1,1-.987-1.4A1.212,1.212,0,0,1,6653.845,707.119Z" fill="#231f20"/>
            <path id="Trazado_5123" data-name="Trazado 5123" d="M6653.042,706.691a.325.325,0,0,1-.09.429c-.19.141.013.448.2.307a.688.688,0,0,0,.235-.855.191.191,0,0,0-.234-.115.186.186,0,0,0-.115.234Z" fill="#fff"/>
          </g>
          <g id="Grupo_2541" data-name="Grupo 2541">
            <path id="Trazado_5124" data-name="Trazado 5124" d="M6661.551,708.666a1.245,1.245,0,1,1-.988-1.4A1.212,1.212,0,0,1,6661.551,708.666Z" fill="#231f20"/>
            <path id="Trazado_5125" data-name="Trazado 5125" d="M6660.748,708.238a.325.325,0,0,1-.091.429c-.19.141.014.448.2.307a.688.688,0,0,0,.234-.855.191.191,0,0,0-.234-.115.185.185,0,0,0-.114.234Z" fill="#fff"/>
          </g>
          <g id="Grupo_2542" data-name="Grupo 2542">
            <path id="Trazado_5126" data-name="Trazado 5126" d="M6657.012,710.35a5.716,5.716,0,0,1-.377-1.134c-.106-.553-.324-.769-.842-.672s-1.533,4.007,1.08,4.842,2.646-1.1,2.385-1.621S6657.695,711.786,6657.012,710.35Z" fill="#e28f56"/>
            <path id="Trazado_5127" data-name="Trazado 5127" d="M6657.009,713.2c-2.249-.72-1.809-3.716-1.313-4.6-.529.5-1.279,4,1.177,4.784,1.376.44,2.036.11,2.315-.376C6658.852,713.384,6658.2,713.579,6657.009,713.2Z" fill="#c97236"/>
          </g>
          <g id="Grupo_2544" data-name="Grupo 2544">
            <g id="Grupo_2543" data-name="Grupo 2543">
              <path id="Trazado_5128" data-name="Trazado 5128" d="M6654.455,718.186a1.181,1.181,0,0,0,1.136.159A.8.8,0,0,1,6654.455,718.186Z" fill="#f29fa0"/>
              <path id="Trazado_5129" data-name="Trazado 5129" d="M6656.576,717.54s.166.065.077.19C6656.653,717.73,6656.867,717.593,6656.576,717.54Z" fill="#e69f73"/>
            </g>
            <path id="Trazado_5130" data-name="Trazado 5130" d="M6653.144,716.966s-.167-.828.4-.514C6653.545,716.452,6653.124,716.341,6653.144,716.966Z" fill="#3a3a3a"/>
            <path id="Trazado_5131" data-name="Trazado 5131" d="M6653.173,716.535s1.4,2.221,3.383,1.136c0,0-1.35.836-3.218-1.187Z" fill="#3a3a3a"/>
          </g>
          <path id="Trazado_5132" data-name="Trazado 5132" d="M6663.23,705.725a2.19,2.19,0,0,0-1.331-2.211,3.789,3.789,0,0,0-.705-.23,1.124,1.124,0,0,0-.483-.059l.173-.276a2.371,2.371,0,0,0-.748.468l.034-.437a3.125,3.125,0,0,0-.444.979l.517.089C6660.774,704.21,6662.759,704.864,6663.23,705.725Z" fill="#231f20"/>
          <path id="Trazado_5133" data-name="Trazado 5133" d="M6650.632,703.9a2.19,2.19,0,0,1,2.082-1.525,3.821,3.821,0,0,1,.738.058,1.133,1.133,0,0,1,.469.133l-.053-.321c.209.11.509.72.509.72l.138-.416a3.13,3.13,0,0,1,.031,1.074l-.511-.117C6653.483,703.454,6651.4,703.291,6650.632,703.9Z" fill="#231f20"/>
          <path id="Trazado_5134" data-name="Trazado 5134" d="M6647.979,703.108s.593-4.189,2.6-4.231,5.188,2.021,7.384,2.787,10.18,1.665,11.766-3.2a2.6,2.6,0,0,1-2.543-1.084c-1.828-2.184-8.36-5.863-12.987-4.653S6645.841,696.547,6647.979,703.108Z" fill="#231f20"/>
          <path id="Trazado_5135" data-name="Trazado 5135" d="M6648.695,697.909s-.969-2.048-.5-3.139a3.558,3.558,0,0,0-.76,2.18s-1.893.286-2.164,1.083c0,0,.243-.321,1.705-.027a3.368,3.368,0,0,0-1.051,1.38A8.5,8.5,0,0,1,6648.695,697.909Z" fill="#231f20"/>
          <path id="Trazado_5136" data-name="Trazado 5136" d="M6649.035,698.641l.122,1.136s-.4,6.642-2.16,8.223l-.8.1-.543-6.811S6648.3,697.865,6649.035,698.641Z" fill="#231f20"/>
          <path id="Trazado_5137" data-name="Trazado 5137" d="M6663.077,702.255s1.756.133,1.808,1.531a39.064,39.064,0,0,1-1.024,5.856l.61.348.245-1.469,1.338-3.64-.033-2.464-.056-1.311Z" fill="#231f20"/>
          <path id="Trazado_5138" data-name="Trazado 5138" d="M6657.653,701.549s4.777,1.895,7.2-.564,2.335-3.6,2.335-3.6l-1.012-.976S6664.691,703.1,6657.653,701.549Z" fill="#514b4d"/>
          <path id="Trazado_5139" data-name="Trazado 5139" d="M6657.306,701.41s7.083-1.031,7.553-5.966l-1.156-.7s0,4.1-6.953,6.425Z" fill="#514b4d"/>
          <path id="Trazado_5140" data-name="Trazado 5140" d="M6663.653,702.376s5.12-.437,6.077-3.912a2.061,2.061,0,0,1-1.2-.1S6666.609,701.841,6663.653,702.376Z" fill="#514b4d"/>
          <path id="Trazado_5141" data-name="Trazado 5141" d="M6648.582,704.119l-2.724-.547,2.565,1.259Z" fill="#514b4d"/>
          <path id="Trazado_5142" data-name="Trazado 5142" d="M6648.11,705.946l-.26.707-2.024-1.692Z" fill="#514b4d"/>
          <path id="Trazado_5143" data-name="Trazado 5143" d="M6647.438,707.461,6647,708l-.931-1.512Z" fill="#514b4d"/>
          <path id="Trazado_5144" data-name="Trazado 5144" d="M6663.876,705.011l1.572-.614-1.622,1.564Z" fill="#514b4d"/>
          <path id="Trazado_5145" data-name="Trazado 5145" d="M6663.788,706.689l1.426-1.051-1.471,1.688Z" fill="#514b4d"/>
          <path id="Trazado_5146" data-name="Trazado 5146" d="M6663.683,708.1l.642-.64-.291,1.047-.374-.146Z" fill="#514b4d"/>
          <path id="Trazado_5147" data-name="Trazado 5147" d="M6646.195,708.1l.8-.1s.9,11.257,4.792,12.334a1.684,1.684,0,0,0,2.232-1.464l1.408.282s-.167,1.643.49,1.662,4.6-1.522,5.379-3.532,2.563-7.64,2.563-7.64l.61.348s-1.048,7.348-1.133,7.776c-.438,2.193-3.669,4.715-5.784,5.327a7.114,7.114,0,0,1-3,.422c-2.071-.171-3.963-.183-6.946-3.624,0,0-2.164-2.743-2.357-4.823C6645.074,713.177,6646.195,708.1,6646.195,708.1Z" fill="#2d2a2b"/>
          <path id="Trazado_5148" data-name="Trazado 5148" d="M6656.256,715.033a2.448,2.448,0,0,0-1.316-.745,12.491,12.491,0,0,0-1.872-.139,7.588,7.588,0,0,1-1.9.01c-.663-.133-2.56.156-2.866,1.37a2.5,2.5,0,0,0,1.032,2.482c.327.121.012-1.716.583-1.982a9.934,9.934,0,0,1,4.72-.209,7.772,7.772,0,0,0,1.97.4,3.416,3.416,0,0,1,1.442.559c.556.443,1.784.516,2.19,1.845s1.21-.86,1.268-.95a4.166,4.166,0,0,0-2.317-2.048C6657.9,715.327,6657.449,714.606,6656.256,715.033Z" fill="#2d2a2b"/>
          <g id="Grupo_2549" data-name="Grupo 2549">
            <path id="Trazado_5149" data-name="Trazado 5149" d="M6656.6,731.478s9.488,7.076,18.786-4.03c7.64-9.126,8.658-12.477,8.658-12.477l2.831,2.535s-11.076,25.692-31.542,21.9C6655.328,739.41,6652.948,736.47,6656.6,731.478Z" fill="#b62eef"/>
            <path id="Trazado_5150" data-name="Trazado 5150" d="M6633.918,722.794s2.4-2.6,5.212-1.427l-.451,2.835-3.858-.04Z" fill="#b62eef"/>
            <path id="Trazado_5151" data-name="Trazado 5151" d="M6633.538,727.557a2.777,2.777,0,0,1,1.986.218l1.219-2.667-2.954-.6Z" fill="#b62eef"/>
            <path id="Trazado_5152" data-name="Trazado 5152" d="M6655.147,727.151a28.7,28.7,0,0,1,4.122,5.575c3.143,5.346-3.183,6.52-3.183,6.52l-13.376,21.886-19.143-11.209,11.392-21.853s-.885-1.448.249-4.1a4.037,4.037,0,0,1,3.606-2.6,58.673,58.673,0,0,1,7.718.532l2.329,6.838Z" fill="#b62eef"/>
            <g id="Grupo_2546" data-name="Grupo 2546">
              <path id="Trazado_5153" data-name="Trazado 5153" d="M6632.476,757.662s-8.615-4.006-10.481-6.236l12-23.206s4.041-3.587,5.21-7.276l6.778.66,2.433,7.348s-.578,2.536-6.372,12.885S6632.476,757.662,6632.476,757.662Z" fill="#373747"/>
              <path id="Trazado_5154" data-name="Trazado 5154" d="M6634,731.3l-1.123,2.225,1.792,2.441,3.319.143,1.214-2.35Z" fill="#1f1f28"/>
              <path id="Trazado_5155" data-name="Trazado 5155" d="M6634.048,730.659l5.65,2.661-.525,1.312-5.8-2.827Z" fill="#282835"/>
              <rect id="Rectángulo_1885" data-name="Rectángulo 1885" width="0.679" height="0.679" rx="0.34" transform="translate(6636.396 732.179) rotate(30.351)" fill="#1f1f28"/>
              <path id="Trazado_5156" data-name="Trazado 5156" d="M6628.718,737.226l3.931,1.885-3.049,5.227-2.719-.474-.938-1.5Z" fill="#1f1f28"/>
              <path id="Trazado_5157" data-name="Trazado 5157" d="M6625.943,742.362l2.648,1.032,2.451-5.053,1.607.771-3.049,5.227-2.719-.474Z" fill="#282833"/>
              <path id="Trazado_5158" data-name="Trazado 5158" d="M6626.936,737.892l1.782-.666,3.931,1.885-1.758.917Z" fill="#434351"/>
              <rect id="Rectángulo_1886" data-name="Rectángulo 1886" width="0.679" height="0.679" rx="0.34" transform="matrix(0.863, 0.505, -0.505, 0.863, 6629.778, 738.031)" fill="#1f1f28"/>
              <path id="Trazado_5159" data-name="Trazado 5159" d="M6633.232,737.279l6.946,3.86A30.376,30.376,0,0,1,6633.232,737.279Z" fill="#282835"/>
              <path id="Trazado_5160" data-name="Trazado 5160" d="M6633.44,741.237,6638.5,744A16.087,16.087,0,0,1,6633.44,741.237Z" fill="#282835"/>
              <path id="Trazado_5161" data-name="Trazado 5161" d="M6631.847,743.958l5.065,2.758A16.1,16.1,0,0,1,6631.847,743.958Z" fill="#282835"/>
              <path id="Trazado_5162" data-name="Trazado 5162" d="M6628.059,745.787l6.947,3.86A30.42,30.42,0,0,1,6628.059,745.787Z" fill="#282835"/>
              <g id="Grupo_2545" data-name="Grupo 2545">
                <path id="Trazado_5163" data-name="Trazado 5163" d="M6644.605,720.877l.138,1.378-4.545-.571-.8-.876,1.044-.39Z" fill="#1f1f28"/>
                <rect id="Rectángulo_1887" data-name="Rectángulo 1887" width="0.503" height="0.503" rx="0.251" transform="matrix(0.848, 0.53, -0.53, 0.848, 6640.523, 720.666)" fill="#3d3d4f"/>
                <path id="Trazado_5164" data-name="Trazado 5164" d="M6641.209,721.052l3.008.23.063.328-3.045-.336Z" fill="#3d3d4f"/>
              </g>
            </g>
            <g id="Grupo_2548" data-name="Grupo 2548">
              <path id="Trazado_5165" data-name="Trazado 5165" d="M6648.657,729.183l-16.181,28.479s6.626,4.908,9.293,5.332l14-22.024s1.267-5.211,3.853-8.071l-3.462-5.336Z" fill="#373747"/>
              <path id="Trazado_5166" data-name="Trazado 5166" d="M6648.686,735.687l3.492.326,1.971,2.995-2.907,3.886-3.14.116-1.678-2.586Z" fill="#e98924"/>
              <path id="Trazado_5167" data-name="Trazado 5167" d="M6649.019,736.658l2.623.271,1.46,2.2-2.271,2.962-2.257-.012-1.306-1.93Z" fill="#e8c325"/>
              <path id="Trazado_5168" data-name="Trazado 5168" d="M6649.095,736.854l2.442.252,1.36,2.05-2.114,2.758-2.1-.011-1.216-1.8Z" fill="#fce481"/>
              <path id="Trazado_5169" data-name="Trazado 5169" d="M6650.745,750.074l-2.548-1.735-2.935,5.289,1.153,1.689,1.38-.206Z" fill="#1f1f28"/>
              <path id="Trazado_5170" data-name="Trazado 5170" d="M6647.795,755.112l-1.542-1.31,2.985-4.754-1.042-.709-2.935,5.289,1.153,1.689Z" fill="#282833"/>
              <path id="Trazado_5171" data-name="Trazado 5171" d="M6650.784,751.758l-.039-1.683-2.548-1.735-.153,1.814Z" fill="#434351"/>
              <rect id="Rectángulo_1888" data-name="Rectángulo 1888" width="0.679" height="0.679" rx="0.34" transform="matrix(-0.863, -0.505, 0.505, -0.863, 6649.681, 750.554)" fill="#1f1f28"/>
              <path id="Trazado_5172" data-name="Trazado 5172" d="M6649.843,747l-6.489-4.008A28,28,0,0,0,6649.843,747Z" fill="#282835"/>
              <path id="Trazado_5173" data-name="Trazado 5173" d="M6646.365,748.8l-4.684-2.951A14.851,14.851,0,0,0,6646.365,748.8Z" fill="#282835"/>
              <path id="Trazado_5174" data-name="Trazado 5174" d="M6644.772,751.52l-4.684-2.95A14.845,14.845,0,0,0,6644.772,751.52Z" fill="#282835"/>
              <path id="Trazado_5175" data-name="Trazado 5175" d="M6644.949,755.671l-6.49-4.008A28.053,28.053,0,0,0,6644.949,755.671Z" fill="#282835"/>
              <g id="Grupo_2547" data-name="Grupo 2547">
                <path id="Trazado_5176" data-name="Trazado 5176" d="M6656.985,728.126l-1.269.554,2.722,3.684,1.155.269-.171-1.1Z" fill="#1f1f28"/>
                <rect id="Rectángulo_1889" data-name="Rectángulo 1889" width="0.503" height="0.503" rx="0.251" transform="translate(6658.925 732.023) rotate(-151.276)" fill="#3d3d4f"/>
                <path id="Trazado_5177" data-name="Trazado 5177" d="M6658.495,731.173l-1.673-2.511-.317.105,1.783,2.491Z" fill="#3d3d4f"/>
              </g>
            </g>
          </g>
          <path id="Trazado_5178" data-name="Trazado 5178" d="M6647.486,720.936l1.289,7.633-.744,1.255-2.223-7.962Z" fill="#581480"/>
          <path id="Trazado_5179" data-name="Trazado 5179" d="M6655.614,725.659l-7.031,3.015-.552,1.151,8.657-2.106Z" fill="#581480"/>
          <path id="Trazado_5180" data-name="Trazado 5180" d="M6659.423,731.718s-.663-.093-1.849-1.547-.72-2.289-.72-2.289S6658.769,728.252,6659.423,731.718Z" fill="#91101d"/>
          <g id="Grupo_2550" data-name="Grupo 2550">
            <path id="Trazado_5181" data-name="Trazado 5181" d="M6647.6,703.723s13.722,3.531,17.938,3.34l-1.22,6.2s-11.122-.909-17.225-3.825C6647.1,709.437,6648.427,706.176,6647.6,703.723Z" fill="#e98924" opacity="0.48"/>
            <path id="Trazado_5182" data-name="Trazado 5182" d="M6655.714,705.62l-4.971,5.189c1.08.328,2.205.616,3.327.869l4.77-5.429C6657.808,706.055,6656.749,705.84,6655.714,705.62Z" opacity="0.38" fill="url(#linear-gradient-3)"/>
            <path id="Trazado_5183" data-name="Trazado 5183" d="M6656.893,712.25l4.961-5.49c-.614-.09-1.261-.2-1.928-.313l-5.158,5.385C6655.488,711.985,6656.2,712.125,6656.893,712.25Z" opacity="0.38" fill="url(#linear-gradient-4)"/>
            <path id="Trazado_5184" data-name="Trazado 5184" d="M6665,706.843a15.706,15.706,0,0,1-1.235,6.453l.787-.022a14.2,14.2,0,0,0,1.125-6.33Z" fill="#40304c"/>
          </g>
          <g id="Grupo_2551" data-name="Grupo 2551">
            <path id="Trazado_5185" data-name="Trazado 5185" d="M6647.708,703.963a2.565,2.565,0,0,0-3.32,1.95c-.849,2.79.672,3.473,2.512,3.728C6646.9,709.641,6648.647,706.537,6647.708,703.963Z" fill="#b62eef"/>
            <path id="Trazado_5186" data-name="Trazado 5186" d="M6644.453,706.424a3.408,3.408,0,0,1,.839-1.721c.62-.5.657.72.525,1.769s-.558,1.968-.967,1.906S6644.2,707.842,6644.453,706.424Z" fill="#533e60"/>
            <path id="Trazado_5187" data-name="Trazado 5187" d="M6645.339,705.1a1.3,1.3,0,0,0-1.687.991c-.432,1.418.342,1.765,1.277,1.9A4.035,4.035,0,0,0,6645.339,705.1Z" fill="#e98924"/>
            <path id="Trazado_5188" data-name="Trazado 5188" d="M6647.379,703.7s.791,2.254-.9,6.105l.627.081a10.672,10.672,0,0,0,.945-6.05Z" fill="#40304c"/>
          </g>
          <path id="Trazado_5189" data-name="Trazado 5189" d="M6648.522,728.371s-15.025,26.664-16.891,29.485l1.076.663s12.928-23.2,16.549-29.82Z" fill="#282835"/>
          <path id="Trazado_5190" data-name="Trazado 5190" d="M6637.277,722.074l-.7-.869s-14.247,2.753-17.369,13.819,12.47,10.623,12.47,10.623l.968-3.431s-12.049.627-8.885-7.114c2.019-4.938,6.779-6.968,10.375-7.669a9.394,9.394,0,0,0,2.866-2.566A2.282,2.282,0,0,0,6637.277,722.074Z" fill="#b62eef"/>
          <path id="Trazado_5191" data-name="Trazado 5191" d="M6626.926,740.291l-1.536,6.727,8.638-1.387-.331-3.14Z" fill="#252430"/>
          <g id="Grupo_2552" data-name="Grupo 2552">
            <path id="Trazado_5192" data-name="Trazado 5192" d="M6633.39,742.539l.221.154a.312.312,0,0,0,.433-.077L6635.36,741a.311.311,0,0,0-.077-.432l-.476-.332a.312.312,0,0,0-.433.077l-1.061,1.8A.312.312,0,0,0,6633.39,742.539Z" fill="#252430"/>
            <path id="Trazado_5193" data-name="Trazado 5193" d="M6636.991,745.892c.04,0,.595.049.634.043.377-.053.463-.385.44-.749l.38-3.006a.678.678,0,0,0-.04-.353.7.7,0,0,0-.683-.416l-4.34.6a.756.756,0,0,0-.389.182.936.936,0,0,0-.31.917l.1,1.492c-.017.847.377,1.012.76.987Z" fill="#252430"/>
          </g>
          <path id="Trazado_5194" data-name="Trazado 5194" d="M6680,718.529l5.182,4.556,2.9-8.254-2.918-1.206Z" fill="#252430"/>
          <g id="Grupo_2553" data-name="Grupo 2553">
            <path id="Trazado_5195" data-name="Trazado 5195" d="M6685.15,714.109l.24-.12a.313.313,0,0,0,.139-.418l-.795-1.929a.312.312,0,0,0-.418-.138l-.518.26a.312.312,0,0,0-.138.418l1.073,1.789A.311.311,0,0,0,6685.15,714.109Z" fill="#252430"/>
            <path id="Trazado_5196" data-name="Trazado 5196" d="M6689.814,712.541c.02-.034.326-.5.34-.536.133-.357-.118-.591-.449-.744l-2.462-1.767a.675.675,0,0,0-.329-.133.7.7,0,0,0-.692.4l-1.541,4.1a.756.756,0,0,0-.025.429.935.935,0,0,0,.658.709l1.357.627c.737.418,1.069.151,1.23-.2Z" fill="#252430"/>
          </g>
          <path id="Trazado_5197" data-name="Trazado 5197" d="M6640.956,720.642s.341.576,2.139,1.113,2.39-.215,2.39-.215S6644.408,719.914,6640.956,720.642Z" fill="#91101d"/>
          <path id="Trazado_5198" data-name="Trazado 5198" d="M6592.446,804.339l12.526-5.706-5.559-7.671-9.815,8.467Z" fill="#581480"/>
          <g id="Grupo_2554" data-name="Grupo 2554">
            <path id="Trazado_5199" data-name="Trazado 5199" d="M6603.483,799.664a5.685,5.685,0,0,1-1.613-3.074l-1.025.538s-.193.986,1.562,3.1Z" fill="#2e1c3a"/>
            <path id="Trazado_5200" data-name="Trazado 5200" d="M6602.861,799.638l-.364.231a5.623,5.623,0,0,1-1.287-2.427l.364-.232A5.726,5.726,0,0,0,6602.861,799.638Z" fill="#af27ff"/>
          </g>
          <g id="Grupo_2555" data-name="Grupo 2555">
            <path id="Trazado_5201" data-name="Trazado 5201" d="M6601.756,800.761a5.677,5.677,0,0,1-1.614-3.073l-1.024.538s-.194.985,1.561,3.1Z" fill="#2e1c3a"/>
            <path id="Trazado_5202" data-name="Trazado 5202" d="M6601.134,800.736l-.364.231a5.63,5.63,0,0,1-1.287-2.428l.364-.231A5.718,5.718,0,0,0,6601.134,800.736Z" fill="#af27ff"/>
          </g>
          <g id="Grupo_2556" data-name="Grupo 2556">
            <path id="Trazado_5203" data-name="Trazado 5203" d="M6600.043,801.571a5.518,5.518,0,0,1-1.568-2.986l-1,.522s-.188.958,1.517,3.014Z" fill="#2e1c3a"/>
            <path id="Trazado_5204" data-name="Trazado 5204" d="M6599.438,801.547l-.353.224a5.461,5.461,0,0,1-1.251-2.359l.353-.225A5.578,5.578,0,0,0,6599.438,801.547Z" fill="#af27ff"/>
          </g>
          <path id="Trazado_5205" data-name="Trazado 5205" d="M6593.046,801.074l.163,2.681s-.285,4.261-.372,6.437a8.636,8.636,0,0,0,.619,3.685s.61,1.889-1.086,1.9c-2.455.018-4.74-4.355-5.11-6.953s-2.643-5.11-2.051-6.218,4.744-3.848,5.733-3.673S6593.046,801.074,6593.046,801.074Z" fill="#581480"/>
          <path id="Trazado_5206" data-name="Trazado 5206" d="M6620.19,755.971s-6.871,9.843,3.218,13.61c12.183,4.548,24.243,7.41,25.857,4.244C6651.171,770.088,6649.177,765.216,6620.19,755.971Z" fill="#252430"/>
          <path id="Trazado_5207" data-name="Trazado 5207" d="M6636.246,773.979s4.5,1.207,3.443,2.691c-1.624,2.27-8.665,12.951-8.665,12.951s.054,2.362,3.8,3.535c0,0,15.984-16.35,14.949-21.977s-20.178.469-20.178.469Z" fill="#252430"/>
          <path id="Trazado_5208" data-name="Trazado 5208" d="M6632.055,796.37l10.6-8.786-7.374-5.948-7.255,10.741Z" fill="#581480"/>
          <g id="Grupo_2557" data-name="Grupo 2557">
            <path id="Trazado_5209" data-name="Trazado 5209" d="M6641.483,788.968a5.68,5.68,0,0,1-2.362-2.543l-.848.787s.072,1,2.319,2.584Z" fill="#2e1c3a"/>
            <path id="Trazado_5210" data-name="Trazado 5210" d="M6640.876,789.107l-.291.318a5.627,5.627,0,0,1-1.878-2.006l.291-.318A5.732,5.732,0,0,0,6640.876,789.107Z" fill="#af27ff"/>
          </g>
          <g id="Grupo_2558" data-name="Grupo 2558">
            <path id="Trazado_5211" data-name="Trazado 5211" d="M6640.1,790.48a5.679,5.679,0,0,1-2.362-2.544l-.848.788s.072,1,2.319,2.584Z" fill="#2e1c3a"/>
            <path id="Trazado_5212" data-name="Trazado 5212" d="M6639.5,790.618l-.291.319a5.615,5.615,0,0,1-1.877-2.006l.29-.319A5.722,5.722,0,0,0,6639.5,790.618Z" fill="#af27ff"/>
          </g>
          <g id="Grupo_2559" data-name="Grupo 2559">
            <path id="Trazado_5213" data-name="Trazado 5213" d="M6638.662,791.71a5.518,5.518,0,0,1-2.295-2.472l-.824.765s.069.974,2.253,2.512Z" fill="#2e1c3a"/>
            <path id="Trazado_5214" data-name="Trazado 5214" d="M6638.072,791.845l-.282.309a5.456,5.456,0,0,1-1.825-1.95l.282-.309A5.562,5.562,0,0,0,6638.072,791.845Z" fill="#af27ff"/>
          </g>
          <path id="Trazado_5215" data-name="Trazado 5215" d="M6631.779,793.062l.859,2.545s.841,4.187,1.327,6.31a8.654,8.654,0,0,0,1.561,3.4s1.084,1.663-.549,2.119c-2.365.66-5.715-2.963-6.753-5.373s-3.888-4.24-3.607-5.465,3.571-4.956,4.571-5.045S6631.779,793.062,6631.779,793.062Z" fill="#581480"/>
        </g>
      </g>
      <g id="Grupo_2562" data-name="Grupo 2562">
        <path id="Trazado_5216" data-name="Trazado 5216" d="M6561.066,698.04s1.578-7.745,9.118-7.286,7.883,8.374,7.883,8.374,8.693-4.366,13.91,2.445c4.294,5.6,3.307,10.357,3.307,10.357s6.31-.941,8.2,4.971l-61.479.677s0-10.114,10.647-8.708C6552.651,708.87,6551.449,698.856,6561.066,698.04Z" fill="url(#linear-gradient-5)"/>
      </g>
      <g id="Grupo_2563" data-name="Grupo 2563">
        <path id="Trazado_5217" data-name="Trazado 5217" d="M6686.812,804.916s-1.438-7.058-8.309-6.639-7.184,7.631-7.184,7.631-7.922-3.979-12.677,2.228c-3.912,5.107-3.013,9.438-3.013,9.438s-5.75-.857-7.472,4.53l56.026.617s0-9.216-9.7-7.935C6694.48,814.786,6695.575,805.66,6686.812,804.916Z" fill="url(#linear-gradient-5)"/>
      </g>
    </g>
    <rect id="Rectángulo_1890" data-name="Rectángulo 1890" width="176" height="176" transform="translate(6528.927 670.843)" fill="none"/>
  </g>
</svg>
