<svg xmlns="http://www.w3.org/2000/svg" xmlns:xlink="http://www.w3.org/1999/xlink" width="176" height="176" viewBox="0 0 176 176">
  <defs>
    <linearGradient id="linear-gradient" x1="0.5" x2="0.5" y2="1" gradientUnits="objectBoundingBox">
      <stop offset="0" stop-color="#4a1ed9"/>
      <stop offset="0.917" stop-color="#5d2af5"/>
      <stop offset="1" stop-color="#602cf8"/>
    </linearGradient>
    <linearGradient id="linear-gradient-3" x1="10.321" y1="10.043" x2="10.321" y2="10.95" xlink:href="#linear-gradient"/>
    <clipPath id="clip-path">
      <path id="Trazado_5096" data-name="Trazado 5096" d="M6379.46,770.722a22.1,22.1,0,0,1-3.952-.645l.107,1.83,1.606,1.151,2.524-.274Z" fill="none"/>
    </clipPath>
  </defs>
  <g id="Grupo_2502" data-name="Grupo 2502" transform="translate(-6227.417 -686.194)">
    <path id="Trazado_5055" data-name="Trazado 5055" d="M6300.537,716.38s-21.9-14.7-36.461,1.8-.123,35.08-5.534,46.847-20.844,9.8-18.075,32.479c3.756,30.761,81.494,35.19,122.505,20.993s27.582-35.472,17.715-46.972c-10.131-11.808-1.548-23.292-12.528-37.082C6357.793,721.431,6327.409,732.19,6300.537,716.38Z" fill="url(#linear-gradient)"/>
    <path id="Trazado_5056" data-name="Trazado 5056" d="M6347.425,834.406s21.91-.648,29.963-12.114,16.418-1.36,11.6,10.43-12.437,16.421-27.152,18.105S6332.933,836.85,6347.425,834.406Z" fill="url(#linear-gradient)"/>
    <path id="Trazado_5057" data-name="Trazado 5057" d="M6272.478,702.058s-10.851,1.884-14.039,8.161-8.069,1.848-6.515-4.36,5.014-9.054,12.214-10.941S6279.512,699.809,6272.478,702.058Z" fill="url(#linear-gradient-3)"/>
    <g id="Grupo_2529" data-name="Grupo 2529">
      <g id="Grupo_2527" data-name="Grupo 2527">
        <g id="Grupo_2517" data-name="Grupo 2517">
          <path id="Trazado_5058" data-name="Trazado 5058" d="M6307.7,780.952s-8.871,16.492-21.961,11.807-16.457-13.8-16.457-13.8-14.711-.8-20.634,4.07-14.593,3.664-13.841-1.573c0,0,.2-3.021,1.992-3.277s11.668,1.347,16.391-1.9,14.624-10.389,18.319-8.37c0,0,4.4,5.846,9.416,4.421s7.112-9.491,15.628-8.523S6310.967,776.26,6307.7,780.952Z" fill="#b5895d"/>
          <path id="Trazado_5059" data-name="Trazado 5059" d="M6242.01,782s-3.912,3.416-6.994,1.411c0,0,.663,1.7,3.384,1.016A5.536,5.536,0,0,0,6242.01,782Z" fill="#aa7d55"/>
          <path id="Trazado_5060" data-name="Trazado 5060" d="M6244.173,783.6s-2.541,2.631-4.949,2.43a10.237,10.237,0,0,0,2.223.022A4.123,4.123,0,0,0,6244.173,783.6Z" fill="#aa7d55"/>
        </g>
        <path id="Trazado_5061" data-name="Trazado 5061" d="M6360.51,774.483s1.068,7.569,4.357,9.737,24.2,11.333,32.737,10.921c0,0,2.382-.334,2.673.387s-1.071,3.056-5.149,3.866-41.887-7.078-41.887-7.078S6337.162,779,6360.51,774.483Z" fill="#b5895d"/>
        <path id="Trazado_5062" data-name="Trazado 5062" d="M6365.637,753.967s-6.913-19.509-14.345-31.641a105.906,105.906,0,0,0-9.837-14.032,2.249,2.249,0,0,0-3.908,1.861c.006.034.012.068.019.1.563,2.962,1.574,6.853,1.859,7.932.049.184.184,2.332.2,2.521.3,2.749.143,4.975,3.788,11.042,4.151,6.909,17.97,25.033,20.285,25S6366.157,755.4,6365.637,753.967Z" fill="#b5895d"/>
        <path id="Trazado_5063" data-name="Trazado 5063" d="M6363.891,749.291c-1.517-3.939-3.907-9.865-6.7-15.8-1.35.571-4.16.831-8.709-2.943-5.794-4.807-8.287-19.069-8.878-23.022a2.244,2.244,0,0,0-2.058,2.629c.006.034.012.068.019.1.563,2.962,1.574,6.853,1.859,7.932.049.184.184,2.332.2,2.521.3,2.749.143,4.975,3.788,11.042,3.654,6.082,14.8,20.854,18.994,24.279l3.467-1.05v0Z" fill="#aa7d55"/>
        <path id="Trazado_5064" data-name="Trazado 5064" d="M6363.924,754.529s-15.33-28.255-40.916-39.108c0,0-3.808-2.1-5.9-1.608s-.158,3.35,2.014,5.205,12.058,22.4,24.966,28.982,12.676,8.175,14.092,10.839C6358.18,758.839,6364.382,759.153,6363.924,754.529Z" fill="#c69c6d"/>
        <path id="Trazado_5065" data-name="Trazado 5065" d="M6323.15,719.049s-.755-.113.065,1.513,11.652,20.327,24.112,27.577c0,0,6.193,3.348,7.6,4.408a49.252,49.252,0,0,1,4.5,4.39l1.322-1.545S6341.5,726.42,6323.15,719.049Z" fill="#fccde0"/>
        <path id="Trazado_5066" data-name="Trazado 5066" d="M6361.917,777.806a6.677,6.677,0,0,1-2.029-3.866c-.527-6.312-1.959-3.951-3.187-8.51a10.15,10.15,0,0,1,7.467-12.064c5.821-1.334,12.357-1.68,14.688,3.164,2.283,4.743,4.622,5.8,4.622,5.8,3.164,2.326-1.633,4.814-1.633,4.814a23.574,23.574,0,0,1-4.191,4.224s-6.2,4.172-9.493,8.512h0S6363.359,779.521,6361.917,777.806Z" fill="#c69c6d"/>
        <path id="Trazado_5067" data-name="Trazado 5067" d="M6384.527,763.744s.77,6.661-6.256,7.127c-5.373.356-9-.277-10.4-3.074Z" fill="#c69c6d"/>
        <path id="Trazado_5068" data-name="Trazado 5068" d="M6378.271,770.871c5.957-.395,6.31-5.242,6.279-6.708a1.559,1.559,0,0,0-.019-.383l0-.036h0a2.393,2.393,0,0,0-1.045-1.415s-1.787-.807-3.76-4.177h0s-2.972-.76-4.631,3.3-.054,9.072,2.238,9.473a4.789,4.789,0,0,0,.8.063l.141-.116Z" fill="#eac3a0" opacity="0.51"/>
        <g id="Grupo_2518" data-name="Grupo 2518">
          <circle id="Elipse_469" data-name="Elipse 469" cx="0.332" cy="0.332" r="0.332" transform="translate(6376.993 765.087)" fill="#a67c52"/>
          <circle id="Elipse_470" data-name="Elipse 470" cx="0.332" cy="0.332" r="0.332" transform="translate(6378.676 764.947)" fill="#a67c52"/>
          <circle id="Elipse_471" data-name="Elipse 471" cx="0.332" cy="0.332" r="0.332" transform="translate(6377.939 766.28)" fill="#a67c52"/>
        </g>
        <path id="Trazado_5069" data-name="Trazado 5069" d="M6372.848,753.619a12.581,12.581,0,0,0-10.332-.058c-5.967,2.444-7.087,13.915-10.824,14.59S6322.4,766.644,6307.55,762c-13.573-4.243-21.683,6.23-25.554,9.839s-2.885,24.971,15.966,20.074,27.391-7.173,32.778-5.3,25.384,10.427,31.122,9.975,8.315-4.776,6.561-7.449a9.128,9.128,0,0,1,2.3-12.158s4.714-4.125,1.628-6.064C6369.98,769.429,6362.646,755.566,6372.848,753.619Z" fill="#c69c6d"/>
        <path id="Trazado_5070" data-name="Trazado 5070" d="M6365.6,778.856s-.1,7.643,2.822,10.288,22.187,14.889,30.689,15.784c0,0,2.405.033,2.583.79s-1.525,2.857-5.678,3.036-40.318-13.382-40.318-13.382S6341.839,779.756,6365.6,778.856Z" fill="#c69c6d"/>
        <g id="Grupo_2519" data-name="Grupo 2519" opacity="0.6">
          <path id="Trazado_5071" data-name="Trazado 5071" d="M6396.672,807.205c-2.6.257-18.132-4.2-29.311-7.551,10.96,3.957,26.06,9.211,28.656,9.1,4.153-.179,5.857-2.279,5.678-3.036a.592.592,0,0,0-.3-.351A7.939,7.939,0,0,1,6396.672,807.205Z" fill="#e0b68c"/>
        </g>
        <path id="Trazado_5072" data-name="Trazado 5072" d="M6298.4,761.127s-10.566-4.562-14.762-3.6-8.443,2.916-7.069,4.184,4.264.789,4.264.789-4.181,2.956-2.943,3.78,5.049-1.355,5.049-1.355-3.11,1.9-.959,2.737,4.691.218,7.863-.908S6298.4,761.127,6298.4,761.127Z" fill="#c69c6d"/>
        <path id="Trazado_5073" data-name="Trazado 5073" d="M6351.37,794.281a15.255,15.255,0,0,0-2.549-2.647,47.784,47.784,0,0,0-8.034-5.481c-8.285-4.642-27.529-6.071-33.352-6.04-4.831.027-1.4,1.687-6.7,11.084,0,0,14.891-.55,25.022.053S6351.37,794.281,6351.37,794.281Z" fill="#eac3a0"/>
        <path id="Trazado_5074" data-name="Trazado 5074" d="M6347.155,792.2l4.215,2.086s-5.45,3.7-6.953,3.254.251-2.326.251-2.326-3.725,2.844-5.156,2.282,1.313-2.906,1.313-2.906-1.414,1.232-2.247.229,1.951-4.455,1.951-4.455Z" fill="#eac3a0"/>
        <path id="Trazado_5075" data-name="Trazado 5075" d="M6323.15,719.049s-.755-.113.065,1.513,11.652,20.327,24.112,27.577c0,0,6.193,3.348,7.6,4.408a49.252,49.252,0,0,1,4.5,4.39l1.322-1.545S6341.5,726.42,6323.15,719.049Z" fill="#fccde0"/>
        <path id="Trazado_5076" data-name="Trazado 5076" d="M6354.925,752.547a49.252,49.252,0,0,1,4.5,4.39l1.322-1.545s-19.244-28.972-37.6-36.343c0,0-.754-.113.066,1.513.289.575,1.83,3.282,4.25,6.861,5.608,2.88,16.671,11.747,19.442,15.783a9.641,9.641,0,0,1,1.942,5.765C6350.777,750.034,6353.966,751.823,6354.925,752.547Z" fill="#efbfd5"/>
        <path id="Trazado_5077" data-name="Trazado 5077" d="M6396.879,795.153s2.452.514,1.621,1.758a10.846,10.846,0,0,1-3.372,2.483s5.366-1.06,5.149-3.866C6400.277,795.528,6400.67,794.743,6396.879,795.153Z" fill="#aa7d55"/>
        <g id="Grupo_2520" data-name="Grupo 2520">
          <path id="Trazado_5078" data-name="Trazado 5078" d="M6304.455,781.626s-3.917,19.636-18.766,18.937-21.143-8.973-21.143-8.973-15.293,3.78-19.828,10.611-13.777,8.307-14.643,2.717c0,0-.742-3.15,1.012-3.973s12.352-2.27,16.167-7.064,11.706-15.194,16.116-14.284c0,0,6.328,4.6,11.01,1.577s4.306-11.927,13.316-13.6S6306.326,775.807,6304.455,781.626Z" fill="#c69c6d"/>
          <path id="Trazado_5079" data-name="Trazado 5079" d="M6237.608,803.227s-2.934,4.716-6.712,3.629c0,0,1.211,1.535,3.779-.019A5.922,5.922,0,0,0,6237.608,803.227Z" fill="#aa7d55"/>
          <path id="Trazado_5080" data-name="Trazado 5080" d="M6240.318,804.186s-1.775,3.485-4.3,4.032a10.914,10.914,0,0,0,2.28-.673A4.4,4.4,0,0,0,6240.318,804.186Z" fill="#aa7d55"/>
        </g>
        <path id="Trazado_5081" data-name="Trazado 5081" d="M6323.191,785.618a148.884,148.884,0,0,1,19.738,1.788l-.011-.007c-.131-.075-1.965-1.123-4.935-2.515-9.646-3.608-25.3-4.8-30.548-4.771-4.831.027-1.4,1.687-6.7,11.083,0,0,4.822-.2,10.872-.3C6311.6,790.9,6311.574,785.282,6323.191,785.618Z" fill="#e0b68c"/>
        <path id="Trazado_5082" data-name="Trazado 5082" d="M6343.6,704.219s10.968,4.882,11.279,13.567C6354.876,717.786,6357.964,705.5,6343.6,704.219Z" fill="#f8c212"/>
        <path id="Trazado_5083" data-name="Trazado 5083" d="M6349.827,702.524s8.467,3.768,8.707,10.473C6358.534,713,6360.918,703.515,6349.827,702.524Z" fill="#f8c212"/>
        <path id="Trazado_5084" data-name="Trazado 5084" d="M6355.231,700.906s6.3,2.8,6.478,7.793C6361.709,708.7,6363.483,701.643,6355.231,700.906Z" fill="#f8c212"/>
        <g id="Grupo_2521" data-name="Grupo 2521">
          <path id="Trazado_5085" data-name="Trazado 5085" d="M6369.5,760.446a1.888,1.888,0,1,0,1.214-2.443A1.929,1.929,0,0,0,6369.5,760.446Z" fill="#070707"/>
          <path id="Trazado_5086" data-name="Trazado 5086" d="M6371.779,759.45a.7.7,0,0,1,.243.824c-.121.3.327.539.448.236a1.213,1.213,0,0,0-.349-1.434c-.255-.2-.6.173-.342.374Z" fill="#fff"/>
        </g>
        <path id="Trazado_5087" data-name="Trazado 5087" d="M6360.747,755.392s1.98-4.353,4.632-4.353c2.091,0,4.854.093,5.916-.884s-.663-3.629-1.894-3.024a1.094,1.094,0,0,0-.393,1.722s-1.3-.186-.838-2.094,6.447-1.21,6.806,1.675-.048,6.421-2.915,6.188-7.8-1.165-9.241.232-2.073.538-2.073.538" fill="#6d4d33"/>
        <g id="Grupo_2522" data-name="Grupo 2522">
          <path id="Trazado_5088" data-name="Trazado 5088" d="M6374.976,748.434a2.461,2.461,0,0,0-.959-1.6,2.125,2.125,0,0,1,.12.481c.359,2.884-.049,6.42-2.916,6.188s-7.8-1.165-9.241.232a4.115,4.115,0,0,1-.593.482,12.065,12.065,0,0,0-.64,1.174s.63.859,2.073-.537,6.374-.465,9.241-.232S6375.336,751.319,6374.976,748.434Z" fill="#5b3f2a"/>
        </g>
        <path id="Trazado_5089" data-name="Trazado 5089" d="M6383.478,762.33s1.756.026,2.119,1.394-1.382,2.887-1.382,2.887-1,.095-1.141-1.192a5.552,5.552,0,0,0-.685-2.147Z" fill="#6d4c30"/>
        <path id="Trazado_5090" data-name="Trazado 5090" d="M6385.6,763.724a1.718,1.718,0,0,0-.991-1.124,1.644,1.644,0,0,1,.048,1.233,2.5,2.5,0,0,1-1.618,1.308c.014.091.028.183.038.278.145,1.287,1.141,1.192,1.141,1.192S6385.959,765.091,6385.6,763.724Z" fill="#5b3e28"/>
        <path id="Trazado_5091" data-name="Trazado 5091" d="M6379.138,770.776s-5.663-.166-8.036-3.833c0,0,1.008,4,6.552,4.425Z" fill="#070707"/>
        <g id="Grupo_2526" data-name="Grupo 2526">
          <g id="Grupo_2525" data-name="Grupo 2525" clip-path="url(#clip-path)">
            <g id="Grupo_2523" data-name="Grupo 2523">
              <path id="Trazado_5092" data-name="Trazado 5092" d="M6376.227,770.249s-.3,1.795.274,1.967a1.051,1.051,0,0,0,1.045-.09c.258-.186.4-1.711.4-1.711Z" fill="#edeae4"/>
              <path id="Trazado_5093" data-name="Trazado 5093" d="M6377.567,770.379a3.526,3.526,0,0,1-.373,1.437.992.992,0,0,1-.945.118.423.423,0,0,0,.252.282,1.051,1.051,0,0,0,1.045-.09c.258-.186.4-1.711.4-1.711Z" fill="#ddd"/>
            </g>
            <g id="Grupo_2524" data-name="Grupo 2524">
              <path id="Trazado_5094" data-name="Trazado 5094" d="M6377.719,770.423s-.031,1.819.563,1.9a1.053,1.053,0,0,0,1.021-.244c.227-.223.144-1.752.144-1.752Z" fill="#edeae4"/>
              <path id="Trazado_5095" data-name="Trazado 5095" d="M6379.063,770.352a3.511,3.511,0,0,1-.155,1.477.99.99,0,0,1-.916.257.422.422,0,0,0,.29.241,1.053,1.053,0,0,0,1.021-.244c.227-.223.144-1.752.144-1.752Z" fill="#ddd"/>
            </g>
          </g>
        </g>
        <path id="Trazado_5097" data-name="Trazado 5097" d="M6352.274,792.014l-.9,2.267a48.671,48.671,0,0,0,20.318,6.847l4.525-3.344Z" fill="#c69c6d"/>
      </g>
      <g id="Grupo_2528" data-name="Grupo 2528">
        <path id="Trazado_5098" data-name="Trazado 5098" d="M6282.278,806.551s-11.787,2.28-17.016-4.662C6265.262,801.889,6269.765,813.727,6282.278,806.551Z" fill="#f8c212"/>
        <path id="Trazado_5099" data-name="Trazado 5099" d="M6278.142,811.509s-9.1,1.759-13.135-3.6C6265.007,807.91,6268.483,817.048,6278.142,811.509Z" fill="#f8c212"/>
        <path id="Trazado_5100" data-name="Trazado 5100" d="M6274.639,815.929s-6.77,1.31-9.774-2.677C6264.865,813.252,6267.452,820.051,6274.639,815.929Z" fill="#f8c212"/>
      </g>
    </g>
    <g id="Grupo_2530" data-name="Grupo 2530">
      <path id="Trazado_5101" data-name="Trazado 5101" d="M6270.806,732.75l6.773,18.846,30.086-3.957-6.733-26.8Z" fill="#f7941d"/>
      <path id="Trazado_5102" data-name="Trazado 5102" d="M6270.806,732.75l15.063,12.021,11.582-12.021v16.233l10.214-1.343-6.733-26.8Z" fill="#e58217" opacity="0.74"/>
      <path id="Trazado_5103" data-name="Trazado 5103" d="M6270.806,732.75l14.143,8.934,15.984-20.843Z" fill="#f4bc1e"/>
    </g>
    <rect id="Rectángulo_1880" data-name="Rectángulo 1880" width="176" height="176" transform="translate(6227.417 686.194)" fill="none"/>
  </g>
</svg>
