<svg xmlns="http://www.w3.org/2000/svg" xmlns:xlink="http://www.w3.org/1999/xlink" width="176" height="176" viewBox="0 0 176 176">
  <defs>
    <linearGradient id="linear-gradient" x1="1.247" y1="0.526" x2="1.11" y2="-0.459" gradientUnits="objectBoundingBox">
      <stop offset="0" stop-color="#f1e8ff"/>
      <stop offset="0.256" stop-color="#e0d1ff"/>
      <stop offset="1" stop-color="#b393ff"/>
    </linearGradient>
    <clipPath id="clip-path">
      <path id="Trazado_5229" data-name="Trazado 5229" d="M6855.935,704.155,6781.2,722.482l28.3,50.67h2.24c1.594,4.792,8.644,4.5,23.379,4.738,16.439.27,20.11-5.664,20.784-10.654l15.047-43.136Z" fill="none"/>
    </clipPath>
  </defs>
  <g id="Grupo_2570" data-name="Grupo 2570" transform="translate(-6764.927 -678.843)">
    <path id="Trazado_5218" data-name="Trazado 5218" d="M6856.588,722.553s-25.937-20.086-51.4-6.893-5.477,36.732-23.164,61.271c-16.282,22.588-17.717,48.14,13.39,61.3,24.279,10.27,84.2,9.118,105.152-24.8S6856.588,722.553,6856.588,722.553Z" fill="url(#linear-gradient)"/>
    <rect id="Rectángulo_1891" data-name="Rectángulo 1891" width="176" height="176" transform="translate(6764.927 678.843)" fill="none"/>
    <g id="Grupo_2566" data-name="Grupo 2566">
      <path id="Trazado_5219" data-name="Trazado 5219" d="M6807.78,785.6s-2.718,39.2-5.008,51.222c0,0-.429,15.166,29.332,15.023s37.2-14.308,37.2-14.308-5.866-29.045-8.012-53.94C6861.292,783.594,6841.976,774.15,6807.78,785.6Z" fill="#1a1a1a"/>
      <path id="Trazado_5220" data-name="Trazado 5220" d="M6863.277,801.24c-.783-5.829-1.485-11.849-1.985-17.646,0,0-19.316-9.443-53.512,2,0,0-.5,7.148-1.242,16.269C6813.718,804.557,6832.941,809.508,6863.277,801.24Z" fill="#ffc239"/>
      <path id="Trazado_5221" data-name="Trazado 5221" d="M6807.78,785.6l-.533,7.274s47.507-5,49.631,9.957l6.4-1.588-1.985-17.646Z" fill="#f7b32d"/>
      <path id="Trazado_5222" data-name="Trazado 5222" d="M6852.993,751.258s-24.9-4.579-37.344,0-34.339,17.169-29.9,27.9,24.323,9.3,42.208,9.443,37.916,6.725,52.081-12.3C6891.291,761.176,6884.274,755.836,6852.993,751.258Z" fill="#1a1a1a"/>
      <path id="Trazado_5223" data-name="Trazado 5223" d="M6811.4,771.282s-.81-2.428,4.45-5.934,7.677-6.878,19.416-5.8,21.314,2.7,20.639,7.688-4.345,10.924-20.784,10.654S6811.8,778.025,6811.4,771.282Z" fill="#4d4d4d"/>
      <path id="Trazado_5224" data-name="Trazado 5224" d="M6815.846,765.348c-5.26,3.506-4.45,5.934-4.45,5.934.4,6.713,7.229,6.343,23.511,6.605V759.523C6823.486,758.548,6821.05,761.878,6815.846,765.348Z" fill="#333"/>
      <path id="Trazado_5225" data-name="Trazado 5225" d="M6837.323,759.747v18.137q2.331-.045,4.292-.263V760.236C6840.24,760.057,6838.8,759.9,6837.323,759.747Z" fill="#333"/>
    </g>
    <g id="Grupo_2568" data-name="Grupo 2568">
      <g id="Grupo_2567" data-name="Grupo 2567" clip-path="url(#clip-path)">
        <path id="Trazado_5226" data-name="Trazado 5226" d="M6815.848,776.851l-27.1-49.685,63.477-16.55-6.439,78.268Z" fill="#d1e1e5"/>
        <path id="Trazado_5227" data-name="Trazado 5227" d="M6806.68,731.411l14.562,56.483,29.66.054,6.605-69.272Z" fill="#b6d0d6"/>
        <path id="Trazado_5228" data-name="Trazado 5228" d="M6820.483,735.05l6.857,54.059,23.563-1.161,10.175-58.963Z" fill="#e2f1f7"/>
      </g>
    </g>
    <g id="Grupo_2569" data-name="Grupo 2569">
      <rect id="Rectángulo_1892" data-name="Rectángulo 1892" width="6.53" height="55.344" transform="translate(6882.514 728.326) rotate(-80.222)" fill="#464e57"/>
      <rect id="Rectángulo_1893" data-name="Rectángulo 1893" width="6.529" height="23.698" transform="translate(6872.67 726.633) rotate(-80.222)" fill="#f6c43d"/>
      <rect id="Rectángulo_1894" data-name="Rectángulo 1894" width="6.531" height="2.787" transform="translate(6875.736 727.162) rotate(-80.236)" fill="#f92d39"/>
      <rect id="Rectángulo_1895" data-name="Rectángulo 1895" width="6.531" height="2.786" transform="matrix(0.17, -0.985, 0.985, 0.17, 6881.141, 728.093)" fill="#f92d39"/>
      <rect id="Rectángulo_1896" data-name="Rectángulo 1896" width="6.53" height="2.786" transform="matrix(0.17, -0.985, 0.985, 0.17, 6886.545, 729.024)" fill="#f92d39"/>
    </g>
    <path id="Trazado_5230" data-name="Trazado 5230" d="M6864.763,691.322a.67.67,0,0,1-.871-.539l-.4-2.689-2.441-1.2a.67.67,0,0,1,0-1.2l2.435-1.207.386-2.691a.671.671,0,0,1,1.143-.373l1.9,1.943,2.678-.464a.67.67,0,0,1,.708.971l-1.261,2.408,1.269,2.4a.671.671,0,0,1-.384.95.68.68,0,0,1-.32.024l-2.681-.455-1.893,1.949A.66.66,0,0,1,6864.763,691.322Z" fill="#ffc039"/>
    <path id="Trazado_5231" data-name="Trazado 5231" d="M6835.259,700.505a1.293,1.293,0,0,1-.944-1.737l1.909-4.886-2.944-4.343a1.294,1.294,0,0,1,1.147-2.017l5.237.306,3.22-4.14a1.293,1.293,0,0,1,2.272.467l1.328,5.075,4.933,1.784a1.293,1.293,0,0,1,.259,2.3l-4.418,2.83-.172,5.243a1.292,1.292,0,0,1-2.112.958l-4.057-3.326-5.038,1.457A1.294,1.294,0,0,1,6835.259,700.505Z" fill="#ffc039"/>
    <path id="Trazado_5232" data-name="Trazado 5232" d="M6879.6,709.357a1.109,1.109,0,0,1-.876-1.454l1.451-4.264-2.691-3.613a1.111,1.111,0,0,1,.907-1.773l4.5.063,2.6-3.675a1.11,1.11,0,0,1,1.966.314l1.333,4.3,4.3,1.342a1.11,1.11,0,0,1,.31,1.967l-3.681,2.6.052,4.5a1.111,1.111,0,0,1-1.775.9l-3.608-2.7-4.266,1.441A1.1,1.1,0,0,1,6879.6,709.357Z" fill="#ffc039"/>
  </g>
</svg>
