<svg xmlns="http://www.w3.org/2000/svg" xmlns:xlink="http://www.w3.org/1999/xlink" width="500" height="300" viewBox="0 0 500 300">
  <defs>
    <clipPath id="clip-path">
      <path id="Trazado_43053" data-name="Trazado 43053" d="M951.506,2300.225l-23.4-62.317-11.057-8.922L900.008,2215.1l-42.487,5.694.849,40.463,13.728,4.966,2.2,13.895-38.582,62.61,87.094-.021v-32.673l8.82-3.006Z" transform="translate(-835.717 -2215.1)" fill="none"/>
    </clipPath>
  </defs>
  <g id="Grupo_34792" data-name="Grupo 34792" transform="translate(-498 -200)">
    <rect id="Rectángulo_3773" data-name="Rectángulo 3773" width="500" height="300" transform="translate(498 200)" fill="none"/>
    <g id="Grupo_34792-2" data-name="Grupo 34792" transform="translate(17 7.866)">
      <rect id="Rectángulo_3773-2" data-name="Rectángulo 3773" width="477.413" height="285.251" transform="translate(498 200)" fill="none"/>
      <g id="Grupo_40214" data-name="Grupo 40214" transform="translate(505.498 218.244)">
        <path id="Trazado_42992" data-name="Trazado 42992" d="M980.017,2594.526s-226.5.761-234.683,9.652,69.524,3.194,67.48,15.906S777.4,2657.2,836.2,2658.037c39.016.555,254.232.154,315.4-2.747,33.377-1.583,22.116-15.359,19.711-27.347s34.235-3.1,34.235-15.373C1205.553,2585.573,980.017,2594.526,980.017,2594.526Z" transform="translate(-744.73 -2409.518)" fill="#c9ebf5"/>
        <path id="Trazado_42993" data-name="Trazado 42993" d="M909.48,2464.186s10.319-.531,10.226,3.807c-.089,4.138-8.856,2.75-11.108,2.461S906.587,2464.34,909.48,2464.186Z" transform="translate(-828.235 -2343.202)" fill="#876148"/>
        <path id="Trazado_42994" data-name="Trazado 42994" d="M1463.532,2242.769h-84.145l14.5-11.307h84.144Z" transform="translate(-1071.154 -2223.515)" fill="#6d31fd"/>
        <path id="Trazado_42995" data-name="Trazado 42995" d="M1552.642,2242.769v195.524l14.5-13.018V2231.462Z" transform="translate(-1160.265 -2223.515)" fill="#5224e2"/>
        <path id="Trazado_42996" data-name="Trazado 42996" d="M973.729,2242.769H889.584l14.5-11.307h84.144Z" transform="translate(-819.233 -2223.515)" fill="#6d31fd"/>
        <path id="Trazado_42997" data-name="Trazado 42997" d="M1062.839,2242.769v195.524l14.5-13.018V2231.462Z" transform="translate(-908.344 -2223.515)" fill="#5224e2"/>
        <path id="Trazado_42998" data-name="Trazado 42998" d="M836.667,2450.229h66.217V2254.7l-84.144-.035-66.87,108.514v31.792h84.8Z" transform="translate(-748.403 -2235.452)" fill="#a176ff"/>
        <path id="Trazado_42999" data-name="Trazado 42999" d="M864.607,2477.685l26.463.088s.478,4.9-4.932,4.964c0,0-3.007,4.631-7.277.321a3.19,3.19,0,0,1-2.586,2.835,3.424,3.424,0,0,1-4.073-2.443,2.819,2.819,0,0,1-3.5.58C866.472,2482.978,864.607,2477.685,864.607,2477.685Z" transform="translate(-806.387 -2350.156)" fill="#6d31fd" opacity="0.32"/>
        <path id="Trazado_43000" data-name="Trazado 43000" d="M922.811,2396.845v-76.47l-39.95-.014-47.144,76.5Z" transform="translate(-791.528 -2269.239)" fill="#fff"/>
        <path id="Trazado_43001" data-name="Trazado 43001" d="M898.623,2320.362l-44.736,76.494-18.2.01,47.144-76.5Z" transform="translate(-791.511 -2269.239)" fill="#422c9b"/>
        <path id="Trazado_43002" data-name="Trazado 43002" d="M927.133,2253.254l-44.4,2.548s-2.552,2.886-1.108,5.412c0,0-5.893,3.608-1.457,9.385,0,0-.708,16.236,16.941,13.709,0,0-5.326,14.435,0,20.689l7.13-.722,2.279,5.741,15.162-30.881Z" transform="translate(-813.537 -2234.724)" fill="#6d31fd" opacity="0.32"/>
        <path id="Trazado_43003" data-name="Trazado 43003" d="M1323.6,2450.229h69.117V2254.7l-84.144-.035-66.87,108.514v31.792h81.9Z" transform="translate(-1000.338 -2235.452)" fill="#a176ff"/>
        <g id="Grupo_40191" data-name="Grupo 40191" transform="translate(274.108 47.982)" opacity="0.43">
          <path id="Trazado_43004" data-name="Trazado 43004" d="M1315.526,2374.3l-5.294,8.339-.743,1.171a2.737,2.737,0,0,0,.973,3.712,2.771,2.771,0,0,0,3.711-.973l5.294-8.339.743-1.171a2.737,2.737,0,0,0-.973-3.712,2.771,2.771,0,0,0-3.712.973Z" transform="translate(-1309.122 -2344.283)" fill="#fff"/>
          <path id="Trazado_43005" data-name="Trazado 43005" d="M1344.727,2315.216l-4.7,7.4-7.478,11.781-1.7,2.677a2.737,2.737,0,0,0,.973,3.711,2.77,2.77,0,0,0,3.711-.973l4.7-7.4,7.478-11.781,1.7-2.677a2.736,2.736,0,0,0-.973-3.712,2.77,2.77,0,0,0-3.712.973Z" transform="translate(-1320.109 -2313.896)" fill="#fff"/>
        </g>
        <path id="Trazado_43006" data-name="Trazado 43006" d="M1472.315,2259.96l4.732-2.558s11.912-1,16.893,7.382l1.465-3.709,7.618,2.815-2,3.448,3.14-1.364,2.072,6.1-3.754,1.443s4.716,2.326,5.037,10.184-4.631,17.35-4.731,20.609c-.305,9.972-3.406,19.918-14.654,20.88l1.024-57.046Z" transform="translate(-1118.95 -2236.838)" fill="#6d31fd" opacity="0.32"/>
        <path id="Trazado_43007" data-name="Trazado 43007" d="M1412.643,2396.845v-76.47l-39.951-.014-47.144,76.5Z" transform="translate(-1043.463 -2269.239)" fill="#fff"/>
        <path id="Trazado_43008" data-name="Trazado 43008" d="M1388.487,2320.362l-44.736,76.494-18.2.01,47.144-76.5Z" transform="translate(-1043.463 -2269.239)" fill="#422c9b"/>
        <path id="Trazado_43009" data-name="Trazado 43009" d="M1397.966,2365.308l5.107-1.087s22.627,8.438,31,19.211l-30.327,2.841Z" transform="translate(-1080.71 -2291.798)" fill="#1e1291"/>
        <path id="Trazado_43010" data-name="Trazado 43010" d="M1355.382,2362.554s52.059,12.571,51.943,56.186l-86.335-.172Z" transform="translate(-1041.118 -2290.94)" fill="#fccc05"/>
        <path id="Trazado_43011" data-name="Trazado 43011" d="M1373.924,2380.288l1.7,2.446-8.27,13.59,1.373-7.545Z" transform="translate(-1064.965 -2300.062)" fill="#6d31fd"/>
        <path id="Trazado_43012" data-name="Trazado 43012" d="M1382.679,2361.1s-14.763,15.484-22.127,41.378l-5.707-12.835s3.918-6.362,8.62-13.95l2.321-.229-.686-2.444s4.09-7.119,9.2-14.446A45.326,45.326,0,0,1,1382.679,2361.1Z" transform="translate(-1058.532 -2288.896)" fill="#5224e2"/>
        <path id="Trazado_43013" data-name="Trazado 43013" d="M1393.088,2387.306l-30.06,43.981,4.977.183,29.249-41.27Z" transform="translate(-1062.74 -2303.671)" fill="#dbb100" opacity="0.5"/>
        <g id="Grupo_40195" data-name="Grupo 40195" transform="translate(44.189)">
          <g id="Grupo_40194" data-name="Grupo 40194" transform="translate(0)" clip-path="url(#clip-path)">
            <g id="Grupo_40193" data-name="Grupo 40193" transform="translate(1.157 3.873)">
              <path id="Trazado_43014" data-name="Trazado 43014" d="M1038.252,2331.913s5.786,3.953.772,12.729l-5.4-12.729Z" transform="translate(-938.664 -2279.053)" fill="#e00b71"/>
              <path id="Trazado_43015" data-name="Trazado 43015" d="M953.96,2403.816s1.336-2.275,9.652.451,12.725,4.891,14.54,6.027,3.935,2.789,3.446,4.147-3.923,1.549-3.923,1.549l-3.785,3.115-18.244-6.476S952.305,2407.246,953.96,2403.816Z" transform="translate(-897.453 -2315.578)" fill="#006070"/>
              <g id="Grupo_40192" data-name="Grupo 40192" transform="translate(22.843)">
                <path id="Trazado_43016" data-name="Trazado 43016" d="M921.519,2290.039l.364,3.964s-5.287,4.009-15.223,2.985-20.787-4.362-19.2-11.3S921.519,2290.039,921.519,2290.039Z" transform="translate(-886.25 -2254.117)" fill="#e00b71"/>
                <path id="Trazado_43017" data-name="Trazado 43017" d="M957.317,2260.2l1.176-.025s7.229-6.949,4.61-16.589-9-18.981-15.594-16.29S957.317,2260.2,957.317,2260.2Z" transform="translate(-916.411 -2225.003)" fill="#e00b71"/>
                <path id="Trazado_43018" data-name="Trazado 43018" d="M937.472,2256.461s7.784-10.908-3.088-24.672-20.5-7.606-22.072-5.586c0,0-7.68-.7-8.276,5.564,0,0-.194,8.087,1.579,10.8s27.7,18.375,27.7,18.375Z" transform="translate(-894.853 -2223.075)" fill="#f80a73"/>
                <path id="Trazado_43019" data-name="Trazado 43019" d="M925.676,2265.829s-26.4-28.856-35.141-25.826-2.54,11.884-2.54,11.884-5.133,5.342-1.652,11.348,16.141,11.177,34.422,8.318Z" transform="translate(-885.133 -2231.667)" fill="#fc4c96"/>
                <path id="Trazado_43020" data-name="Trazado 43020" d="M940.264,2257.228a7.057,7.057,0,0,1-.543-1.136c-1.121-1.765-4.691-11.358-19.82-25.389l-2.888-2.2a.537.537,0,0,1-.065-.7c.359-.509,1.239-1.239,3.225-.779,2.908.672,21.236,19.921,21.534,29.11C941.706,2256.134,942.067,2257.793,940.264,2257.228Z" transform="translate(-901.445 -2225.031)" fill="#e00b71"/>
                <path id="Trazado_43021" data-name="Trazado 43021" d="M921.1,2277.537s-31-14.43-33.736-16.138c-1.519-.949-2.692,2.26-.706,3.778s24.62,13.177,33.986,13.444Z" transform="translate(-885.378 -2242.697)" fill="#e00b71"/>
                <path id="Trazado_43022" data-name="Trazado 43022" d="M985.176,2268.141s-14.29-7.393-22.167,7.607l-1.939.362s2.159-13.06,17.531-13.223a19.7,19.7,0,0,1,7.121,1.845Z" transform="translate(-924.19 -2243.551)" fill="#bc0f65"/>
                <path id="Trazado_43023" data-name="Trazado 43023" d="M937.922,2297.849s-12.737,1.05-15.078,10.824.009,15.349.009,15.349a11.375,11.375,0,0,1-4.252.09s-6.27-27.8,18.762-28.691Z" transform="translate(-901.987 -2260.285)" fill="#bc0f65"/>
              </g>
              <path id="Trazado_43024" data-name="Trazado 43024" d="M969.159,2395.419l-8.113,18.972,11.7,3.409s7.723-16.274,7.709-21.215Z" transform="translate(-901.335 -2311.718)" fill="#a57758"/>
              <path id="Trazado_43025" data-name="Trazado 43025" d="M953.5,2417.778s18.033-.6,25.9,10.848c2.54,3.7-6.975,4.275-6.975,4.275l-4.355,3.15-12.3-3.424Z" transform="translate(-897.453 -2323.214)" fill="#a57758"/>
              <path id="Trazado_43026" data-name="Trazado 43026" d="M884.23,2489.134s13.922,7.98,48.038,13.615c0,0,19.178-41.7,12.384-71.276,0,0-14.483,2.3-30.836-8.606C913.817,2422.866,889.3,2441.841,884.23,2489.134Z" transform="translate(-861.826 -2325.834)" fill="#fccc05"/>
              <path id="Trazado_43027" data-name="Trazado 43027" d="M952.1,2440.054a22.17,22.17,0,0,1-2.562.189l-4.005-.611-2.662.216c-.45-.062-.915-.134-1.391-.216-.227,5.037-3.144,34.98-40.491,36.535l-2.146,24.747c.992.385,2.091.8,3.3,1.227l37.57,9.187S958.9,2469.632,952.1,2440.054Z" transform="translate(-869.342 -2334.457)" fill="#dbb100" opacity="0.5"/>
              <path id="Trazado_43028" data-name="Trazado 43028" d="M949.071,2420.4s9.977,8.267,26.549,8.364l.536,2.767s-9.865,2.862-28.053-7.415Z" transform="translate(-894.678 -2324.566)" fill="#6d31fd"/>
              <path id="Trazado_43029" data-name="Trazado 43029" d="M983.1,2403.01a23.61,23.61,0,0,0,1.542-6.424l-11.293-1.166-4.161,9.731Z" transform="translate(-905.52 -2311.718)" fill="#876148"/>
              <path id="Trazado_43030" data-name="Trazado 43030" d="M970.959,2289.533s1.507-5.889-5.813-6.3-12.367,5.2-10.427,10.195S970.959,2289.533,970.959,2289.533Z" transform="translate(-897.866 -2254.006)" fill="#6d31fd"/>
              <path id="Trazado_43031" data-name="Trazado 43031" d="M965.146,2283.235c4.926.275,5.853,3.03,5.934,4.8a7.1,7.1,0,0,0-4.428-1.5c-6.29-.351-10.9,3.742-10.839,8.07a2.146,2.146,0,0,1-1.094-1.183C952.78,2288.436,957.826,2282.825,965.146,2283.235Z" transform="translate(-897.866 -2254.006)" fill="#a176ff" opacity="0.5"/>
              <circle id="Elipse_1389" data-name="Elipse 1389" cx="23.518" cy="23.518" r="23.518" transform="translate(53.721 41.751)" fill="#a57758"/>
              <path id="Trazado_43032" data-name="Trazado 43032" d="M951.116,2337.151a7.212,7.212,0,0,0,6.891-2.933,12.14,12.14,0,0,0,9.932-4.276s4.243,1.191,5.207-1.413c0,0,3.857,4.079,14.56,1.413,0,0,2.572,3.164,8.657,2.1a46.629,46.629,0,0,0-2.753-8.142c-1.758-3.761-21.429-7.865-32.422-3.857S951.116,2337.151,951.116,2337.151Z" transform="translate(-896.217 -2272.103)" fill="#876148" opacity="0.58"/>
              <path id="Trazado_43033" data-name="Trazado 43033" d="M942.845,2373.362s-1.53,4.257-.213,7.108c0,0,.049.874,2.7.21,0,0-1.959.57-1.041-6.488Z" transform="translate(-891.589 -2300.372)" fill="#dbb100"/>
              <path id="Trazado_43034" data-name="Trazado 43034" d="M946.655,2318.714a8.793,8.793,0,0,1-5.2,5.351,5.15,5.15,0,0,1-3.429,1.64s-10.9-16.393,5.93-26.132a10.138,10.138,0,0,1,10.964-5.3s3.617-2.748,10.03-2.314,8.7,4.436,8.7,4.436,8.573-.9,11.016,7.586c0,0,7.7,2.781,2.6,12.319a13.254,13.254,0,0,1-8.188-3.448s-3.552,2.572-14.568-1.543a6.424,6.424,0,0,1-4.2,1.414S957.442,2318.794,946.655,2318.714Z" transform="translate(-887.708 -2258.478)" fill="#f80a73"/>
              <circle id="Elipse_1390" data-name="Elipse 1390" cx="4.859" cy="4.859" r="4.859" transform="translate(49.228 64.859)" fill="#a57758"/>
              <path id="Trazado_43035" data-name="Trazado 43035" d="M1002.435,2355.662l-.755-.894c.035-.029,3.594-2.977,7.281-.34l-.681.951A4.846,4.846,0,0,0,1002.435,2355.662Z" transform="translate(-922.234 -2290.07)" fill="#fccc05"/>
              <path id="Trazado_43036" data-name="Trazado 43036" d="M945.577,2365.328a1.5,1.5,0,0,1,1.962,1.1c.4,1.594-.779,1.987-1.332,1.948a.675.675,0,0,1-.278-1.194c.466-.279.878.228.878.228A1.659,1.659,0,0,0,945.577,2365.328Z" transform="translate(-893.379 -2296.203)" fill="#876148"/>
              <rect id="Rectángulo_5901" data-name="Rectángulo 5901" width="17.334" height="8.457" transform="translate(85.475 61.593) rotate(-2.718)" fill="#1e1e21"/>
              <path id="Trazado_43037" data-name="Trazado 43037" d="M1025.108,2348.913l7.4-.352-2.847,4.008,3.263-.155-2.579,4.717-6.759.321,2.785-5.3-3.03.145Z" transform="translate(-933.374 -2287.616)" fill="#83838e"/>
              <path id="Trazado_43038" data-name="Trazado 43038" d="M946.661,2374.51c.358,1.389,1.374,6.027-1.13,7.37a1.851,1.851,0,0,1-2.333-1.046s2.737-.963,2.016-6.106c0,0-.126-.478.48-.626A.764.764,0,0,1,946.661,2374.51Z" transform="translate(-892.155 -2300.736)" fill="#fccc05"/>
              <line id="Línea_3" data-name="Línea 3" x2="9.939" y2="0.017" transform="translate(53.905 65.047)" fill="none" stroke="#fccc05" stroke-miterlimit="10" stroke-width="2.122"/>
              <rect id="Rectángulo_5902" data-name="Rectángulo 5902" width="17.334" height="8.457" transform="translate(62.718 62.938) rotate(-2.718)" fill="#1e1e21"/>
              <path id="Trazado_43039" data-name="Trazado 43039" d="M978.251,2351.682l7.4-.351-2.846,4.008,3.263-.155-2.579,4.717-6.759.321,2.785-5.3-3.03.144Z" transform="translate(-909.274 -2289.041)" fill="#83838e"/>
              <path id="Trazado_43040" data-name="Trazado 43040" d="M891.865,2414.625s4.1,3.4,3.31,5.75-11.391,21.682-17.919,41.7-7.626,28.6-8.059,30.395-.664,5.012-3.854,5.211-15.112-1-23.762-7.95c0,0-3.492-1.422-3.482-10.028s8.609-47.178,33.09-69.884Z" transform="translate(-838.099 -2319.123)" fill="#2bbee0"/>
              <path id="Trazado_43041" data-name="Trazado 43041" d="M906.459,2469.722c6.528-20.017,17.132-39.347,17.919-41.7.347-1.036-.254-2.274-1.034-3.336a2.306,2.306,0,0,1-.112.609c-.845,2.525-11.864,23.383-18.882,44.854s-8.35,30.626-8.829,32.548c-.182.732-.342,1.683-.644,2.6,2.875-.4,3.106-3.444,3.523-5.177C898.833,2498.321,899.931,2489.74,906.459,2469.722Z" transform="translate(-867.302 -2326.77)" fill="#c9ebf5"/>
              <path id="Trazado_43042" data-name="Trazado 43042" d="M866.059,2434.3a22.859,22.859,0,0,1,7.988-.065l24.039-12.935,9.36-5.521h0l1.488-5.747a41.285,41.285,0,0,0-28.878.146L867.6,2425.265Z" transform="translate(-852.48 -2317.933)" fill="#2bbee0"/>
              <path id="Trazado_43043" data-name="Trazado 43043" d="M957.3,2404.308s-5.575-1.8-7.552.04,2.53,3.63,2.53,3.63a1.971,1.971,0,0,1,1.329,2.451c-.576,1.813-2.474,6.421-3.265,7.039a2.309,2.309,0,0,1-2.284.354,10.238,10.238,0,0,1-5.294-4.758s-.551-.947.081-3.246,3.377-6.3,5.025-7.089c2.508-1.2,5.832-.643,9.847.6Z" transform="translate(-891.82 -2315.135)" fill="#0e7992"/>
              <path id="Trazado_43044" data-name="Trazado 43044" d="M1006.128,2431.115s4.584,18.577-1.492,44.228l9.084-.868.752-46.865Z" transform="translate(-923.754 -2328.274)" fill="#2bbee0"/>
              <path id="Trazado_43045" data-name="Trazado 43045" d="M992.225,2438.3s6.044,36.981-13.781,73.165h2.065s17.76-24.952,13.663-74.88Z" transform="translate(-910.283 -2332.892)" fill="#c9ebf5"/>
              <path id="Trazado_43046" data-name="Trazado 43046" d="M992.8,2413.565s5.566,2.568,5.778,5.26-4.319.961-4.319.961a1.971,1.971,0,0,0-2.637.9c-.8,1.726-2.523,6.4-2.358,7.393a2.308,2.308,0,0,0,1.441,1.806,10.237,10.237,0,0,0,7.117.078s1.046-.324,2.136-2.445,1.777-6.926,1.1-8.621c-1.036-2.578-4.1-4.531-7.9-6.332Z" transform="translate(-915.841 -2320.539)" fill="#0e7992"/>
              <path id="Trazado_43047" data-name="Trazado 43047" d="M844.408,2442.876c0-.193,2.355-6.835,2.355-6.835s10.928-24.549,27.671-26.224c0,0,3.724,21.295-12.283,33.059Z" transform="translate(-841.344 -2319.123)" fill="#0e7992"/>
              <path id="Trazado_43048" data-name="Trazado 43048" d="M1036.3,2314.778s1.545,7.442-.849,12.376a.624.624,0,0,0,.447.652c.771.29.847-.059,1.007-.235a11.931,11.931,0,0,0,1.576-10.974c-.3-.726-.162-.416-.446-1.036C1037.566,2314.54,1036.473,2314.119,1036.3,2314.778Z" transform="translate(-939.6 -2270.078)" fill="#e00b71"/>
            </g>
            <path id="Trazado_43049" data-name="Trazado 43049" d="M944.391,2312.9s4.874,17.734,7.627,17.652c0,0,1.41-.031,1.484-1.187.052-.823-6.013-17.5-8.062-17.823C944.2,2311.35,944.391,2312.9,944.391,2312.9Z" transform="translate(-891.606 -2264.695)" fill="#e00b71"/>
            <path id="Trazado_43050" data-name="Trazado 43050" d="M974.916,2316.5a1.2,1.2,0,0,1-1.234-1.044c-1.085-8.149-11.026-18.4-11.127-18.5l-.149-.153-.015-.213a1.627,1.627,0,0,1,.361-1.271,1.32,1.32,0,0,1,1-.4,2.245,2.245,0,0,1,.72.128l.048.019.044.026c4.917,2.937,9.556,10.911,10.948,14.528,1.076,2.8,1.348,4.956.764,6.075a1.36,1.36,0,0,1-.887.74,1.945,1.945,0,0,1-.469.061Z" transform="translate(-900.866 -2256.156)" fill="#e00b71"/>
            <path id="Trazado_43051" data-name="Trazado 43051" d="M994.671,2291.26s9.576.9,14.461,21.152c0,0,.138,1.138,1.407.737.938-.3,1.176-9.868-5.542-17.977C999.6,2288.663,993.481,2290.135,994.671,2291.26Z" transform="translate(-917.395 -2253.765)" fill="#e00b71"/>
            <path id="Trazado_43052" data-name="Trazado 43052" d="M909.48,2464.186s10.319-.531,10.226,3.807c-.089,4.138-8.856,2.75-11.108,2.461S906.587,2464.34,909.48,2464.186Z" transform="translate(-872.425 -2343.202)" fill="#876148"/>
          </g>
        </g>
        <path id="Trazado_43054" data-name="Trazado 43054" d="M898.017,2455.662a2.513,2.513,0,0,1,2.748-1.78c2.363.048,6.027,1.78,6.364,11.041.252,6.9-4.966,4.581-5.111,2.652S901.44,2458.794,898.017,2455.662Z" transform="translate(-823.57 -2337.913)" fill="#a57758"/>
        <path id="Trazado_43055" data-name="Trazado 43055" d="M907.133,2465.848c-1.034,1-2.367,1.321-2.993-2.539-.893-5.514-4.143-7.626-5.331-8.226a2.326,2.326,0,0,0-.792,1.2c3.423,3.131,3.857,9.984,4,11.913C902.161,2470.092,907.217,2472.362,907.133,2465.848Z" transform="translate(-823.57 -2338.531)" fill="#876148" opacity="0.45"/>
        <path id="Trazado_43056" data-name="Trazado 43056" d="M892.853,2457.181s-4.6-1.829-5.657,2.9c0,0,2.813,6.508,2.829,9.691,0,0,1.077,2.748,3.295,2.555s3.715-2.954,3.5-4.587S896.389,2460.986,892.853,2457.181Z" transform="translate(-818.005 -2339.431)" fill="#a57758"/>
        <path id="Trazado_43057" data-name="Trazado 43057" d="M892.869,2471c-.938-7.68-3.58-9.932-5.108-10.591a5.357,5.357,0,0,0-.565,1.509s2.813,6.509,2.829,9.691c0,0,1.077,2.748,3.295,2.556a3.211,3.211,0,0,0,1.715-.726C892.92,2472.538,892.869,2471,892.869,2471Z" transform="translate(-818.005 -2341.268)" fill="#876148" opacity="0.45"/>
        <path id="Trazado_43058" data-name="Trazado 43058" d="M882.795,2463.2a4.068,4.068,0,0,0-4.532.482c-2.266,1.832-.145,13.162,3.423,12.632s3.568-4.5,3.519-5.551S885.254,2465.036,882.795,2463.2Z" transform="translate(-812.928 -2342.461)" fill="#a57758"/>
        <path id="Trazado_43059" data-name="Trazado 43059" d="M874.356,2470.1a2.55,2.55,0,0,0-3.007-1.416c-2.285.447-1.175,10.429,1.712,10.092S875.01,2471.439,874.356,2470.1Z" transform="translate(-809.225 -2345.491)" fill="#a57758"/>
        <path id="Trazado_43060" data-name="Trazado 43060" d="M874.505,2477.105c-2.209.259-3.375-5.527-2.778-8.456a3.5,3.5,0,0,0-.379.054c-2.285.447-1.175,10.429,1.712,10.092.854-.1,1.371-.785,1.662-1.731A1.716,1.716,0,0,1,874.505,2477.105Z" transform="translate(-809.225 -2345.508)" fill="#876148" opacity="0.45"/>
        <path id="Trazado_43061" data-name="Trazado 43061" d="M883.411,2474.756c-3.062.454-5.059-7.828-4.13-11.342a4.47,4.47,0,0,0-1.019.627c-2.266,1.832-.145,13.162,3.423,12.632a3.706,3.706,0,0,0,3.012-2.321A4.134,4.134,0,0,1,883.411,2474.756Z" transform="translate(-812.928 -2342.815)" fill="#876148" opacity="0.45"/>
        <path id="Trazado_43062" data-name="Trazado 43062" d="M1357.306,2408.693l-5.783,9.454,7.417,3.605,1.345,14.113,25.912,6.532-18.714-13.668-1.163,1.674-1.524-1.674s2.77-4.015,5.435-4.614-.554-7.736-6.884-5.09c0,0,.693-3.528-.292-4.972S1357.306,2408.693,1357.306,2408.693Z" transform="translate(-1056.823 -2314.671)" fill="#5224e2" opacity="0.41" style="mix-blend-mode: multiply;isolation: isolate"/>
        <path id="Trazado_43063" data-name="Trazado 43063" d="M1365.05,2448.462l1.1-3.818s2.755-7.078,6.323-8.621-.1-6.316-4.388-3.616-6.461,6.412-6.123,8.823S1365.05,2448.462,1365.05,2448.462Z" transform="translate(-1062.173 -2326.45)" fill="#f9cdaf"/>
        <path id="Trazado_43064" data-name="Trazado 43064" d="M1372.329,2432.407a18.285,18.285,0,0,0-2.07,1.514c-.009.052-.02.1-.027.156-.314,2.236.936,8.824.936,8.824s1.692-8.841,6.832-9.475C1377.379,2431.918,1374.974,2430.742,1372.329,2432.407Z" transform="translate(-1066.419 -2326.45)" fill="#efbb97"/>
        <path id="Trazado_43065" data-name="Trazado 43065" d="M1352.773,2430.117l5.153,1.664s.12-4.846.247-9.378c.074-2.634.386-7.714-.9-9.9s-5.657-4.5-7.971-6.879-5.336.514-4.628,2.957,7.328,11.682,7.328,11.682Z" transform="translate(-1053.246 -2312.637)" fill="#f9cdaf"/>
        <path id="Trazado_43066" data-name="Trazado 43066" d="M1351.523,2413.3a34.65,34.65,0,0,0,4,2.679c1.8.965,4.04,2.058,4.368,3.11,1.008,3.23-.246,7.393-.246,7.393Z" transform="translate(-1056.823 -2317.043)" fill="#efbb97"/>
        <path id="Trazado_43067" data-name="Trazado 43067" d="M1012.527,2316.762l10.618-2.638a28.675,28.675,0,0,0,15.9-14.161c5.43-10.74,12.624-42.626,51.807-46.4s87.383,26.723,85.579,84.76-48.2,74.922-91.481,73.447-75.3-39.665-67.218-91.831Z" transform="translate(-882.467 -2234.724)" fill="#c9ebf5"/>
        <path id="Trazado_43068" data-name="Trazado 43068" d="M1302.863,2373.671a79.159,79.159,0,0,0-2.789-10.138,103.909,103.909,0,0,0-5.109-12.056l10.429-7.516c1.343,2.844,4.489,9.935,5.612,13.188a89.04,89.04,0,0,1,3.493,13.187Z" transform="translate(-1027.733 -2281.377)" fill="#f0fcff"/>
        <path id="Trazado_43069" data-name="Trazado 43069" d="M1264.4,2302.269a70.739,70.739,0,0,0-28.745-24.71q-1.991-.931-4.04-1.738l-8.248,11.361A60.59,60.59,0,0,1,1254.608,2311Z" transform="translate(-990.908 -2246.33)" fill="#f0fcff"/>
        <path id="Trazado_43070" data-name="Trazado 43070" d="M1011.092,2378.86s1.646-1.585,2.726-1.073.953,2.714-1.407,3.024c0,0,2.579.76,2.115,2.094s-3.707-1.088-3.707-1.088,2.132.878,2.493.5-1.756-1.545-1.756-1.545,2.158-.759,2-1.519S1011.092,2378.86,1011.092,2378.86Z" transform="translate(-881.588 -2298.723)" fill="#6d4d37"/>
        <g id="Grupo_40212" data-name="Grupo 40212" transform="translate(315.572 19.451)">
          <path id="Trazado_43071" data-name="Trazado 43071" d="M1418.661,2364.885a108.947,108.947,0,0,1,17.459,8.883s1.026.646.919,1.353-.656,4.444-.656,4.444a2.007,2.007,0,0,1-1.158,1.239c-.964.427-10.735,3.811-10.735,3.811s-1.327.488-1.754-.491c-.285-.655-1.524-6.371-1.524-6.371l-4.535,3.146s-1.156.819-1.5-.26c-.457-1.434-2.2-9.963-2.2-9.963a1.851,1.851,0,0,1,.308-1.759,31.9,31.9,0,0,1,4.161-3.682A1.188,1.188,0,0,1,1418.661,2364.885Z" transform="translate(-1403.95 -2311.555)" fill="#dbb100"/>
          <path id="Trazado_43072" data-name="Trazado 43072" d="M1425.162,2367.806l16.5,8.426s-7.053,2.156-11.652,1.413S1425.162,2367.806,1425.162,2367.806Z" transform="translate(-1410.269 -2313.092)" fill="#a48502"/>
          <g id="Grupo_40199" data-name="Grupo 40199" transform="translate(0 0)">
            <path id="Trazado_43073" data-name="Trazado 43073" d="M1458.247,2279.531s11.842,1.645,11.611,12.327-4.271,11.72-4.927,17.234-5.592,16.739-20.03,12.59l.8-2.494s-6.729,3.911-13.058,1.694-8.111-3.524-11.5-4.254-6.673-2.792-7.111-6.153-3.909-7.09-7.954-10.475,20.8-26.891,20.8-26.891l21.743-.468Z" transform="translate(-1400.223 -2264.145)" fill="#2bbee0"/>
            <path id="Trazado_43074" data-name="Trazado 43074" d="M1404.491,2307.749c3.668,3.185,6.689,6.622,7.1,9.743.438,3.361,3.721,5.422,7.111,6.153s5.173,2.036,11.5,4.254,13.057-1.694,13.057-1.694l-.8,2.494c6.014,1.729,10.066.755,12.893-1.357,3.547-2.651,2.984-8.137,2.207-12.5a8.83,8.83,0,0,0-2.178-4.851c-4.138-5.6-1.142-11.972-7.326-19.9s-22.255-4.091-27.482,3.953-18.375,11.886-18.375,11.886.977,1.332,1.984,2.683A4.9,4.9,0,0,1,1404.491,2307.749Z" transform="translate(-1398.458 -2270.879)" fill="#4295a8"/>
            <circle id="Elipse_1391" data-name="Elipse 1391" cx="4.427" cy="4.427" r="4.427" transform="translate(53.054 37.901)" fill="#f9cdaf"/>
            <path id="Trazado_43075" data-name="Trazado 43075" d="M1439.262,2364.983l5.963-11-11.81-6.01-6.512,11.6-.859,1.521s.754,4.917,3.6,6.109c2.752,1.153,8.62-.229,8.62-.229Z" transform="translate(-1410.724 -2302.893)" fill="#f9cdaf"/>
            <path id="Trazado_43076" data-name="Trazado 43076" d="M1434.325,2347.976l10.913,7.828-3.547,6.275-13.878-2.5Z" transform="translate(-1411.633 -2302.893)" fill="#efbb97"/>
            <circle id="Elipse_1392" data-name="Elipse 1392" cx="22.893" cy="22.893" r="22.893" transform="translate(13.626 10.056)" fill="#f9cdaf"/>
            <g id="Grupo_40196" data-name="Grupo 40196" transform="translate(21.026 39.133)">
              <path id="Trazado_43077" data-name="Trazado 43077" d="M1438.608,2337.279s1.2-2.367,4.936-1.259,10.828,4.639,10.929,7.238-3.368,4.879-8.082,3.119S1435.558,2341.54,1438.608,2337.279Z" transform="translate(-1437.79 -2335.725)" fill="#062625"/>
              <path id="Trazado_43078" data-name="Trazado 43078" d="M1452.523,2349.451c.15-3.177-4.7-5.532-8.592-6.986a7.372,7.372,0,0,0-6.126.077c-.15,3.177,4.7,5.531,8.593,6.985A7.368,7.368,0,0,0,1452.523,2349.451Z" transform="translate(-1437.796 -2338.874)" fill="#ed1c24"/>
              <path id="Trazado_43079" data-name="Trazado 43079" d="M1448.241,2342.816c3.207,1.843,7.047,4.522,7.393,7.313a5.511,5.511,0,0,0,1.485-.543c.15-3.177-4.7-5.532-8.592-6.985a10.055,10.055,0,0,0-1.789-.491A10.027,10.027,0,0,1,1448.241,2342.816Z" transform="translate(-1442.392 -2339.009)" fill="#fc3a49"/>
            </g>
            <path id="Trazado_43080" data-name="Trazado 43080" d="M1422.715,2293.677s7-.81,19.947-9.988c6.36-4.51,14.575.889,14.575.889s-3.217,13.526,9.667,14.322l-6.077-24.8-11.94-7.75-11.1,3.475-15.164,20.333Z" transform="translate(-1408.965 -2260.911)" fill="#efbb97" opacity="0.55"/>
            <path id="Trazado_43081" data-name="Trazado 43081" d="M1455.412,2270.014a30.912,30.912,0,0,0-18.389-13.751c-13.011-3.567-18.87,2.29-21.379,5.606s-4.875,3.8-8.96,4.594-8.2,4.153-8.124,9.284-10.57,11.737,2.3,21.323c0,0-3.26-7.4,5.019-8.658s13.307-9.331,15.917-12.9,13.881-7.713,23.091,2.613c0,0-3.714,13.549,10.59,15.718C1455.48,2293.848,1464.106,2279.538,1455.412,2270.014Z" transform="translate(-1394.498 -2255.149)" fill="#2bbee0"/>
            <path id="Trazado_43082" data-name="Trazado 43082" d="M1445.414,2280.6c-9.538-1.623-14.048,5.918-16.9,11.085-2.806,5.084-10.57,9.71-10.57,9.71,8.279-1.255,13.306-9.332,15.917-12.9s13.881-7.714,23.091,2.613C1456.953,2291.112,1454.625,2282.168,1445.414,2280.6Z" transform="translate(-1406.557 -2268.124)" fill="#0e7992"/>
            <path id="Trazado_43083" data-name="Trazado 43083" d="M1519.353,2284.543l-1.636-3.7a16.468,16.468,0,0,0,1.834-5.165l2.979.943-1.384,3.4,3.517-1.441,1.167,2.785A14.134,14.134,0,0,0,1519.353,2284.543Z" transform="translate(-1457.874 -2265.705)" fill="#2bbee0"/>
            <path id="Trazado_43084" data-name="Trazado 43084" d="M1514.1,2340.741a1.476,1.476,0,0,0-2.114.667c-.7,1.458.353,2.073.894,2.146a.665.665,0,0,0,.508-1.1c-.393-.362-.893.044-.893.044S1512.448,2340.73,1514.1,2340.741Z" transform="translate(-1454.808 -2299.062)" fill="#efbb97"/>
            <path id="Trazado_43085" data-name="Trazado 43085" d="M1506.6,2294.94l6.1-5.34S1510.181,2293.836,1506.6,2294.94Z" transform="translate(-1452.158 -2272.869)" fill="#4295a8"/>
            <path id="Trazado_43086" data-name="Trazado 43086" d="M1510.818,2348.413l-.9,2.157,1.793,5.032.8-5.524Z" transform="translate(-1453.86 -2303.118)" fill="#bc0f65"/>
            <path id="Trazado_43087" data-name="Trazado 43087" d="M1511.345,2350.246l-1.431.325.9-2.157,1.686,1.666Z" transform="translate(-1453.86 -2303.118)" fill="#f80a73"/>
            <path id="Trazado_43088" data-name="Trazado 43088" d="M1511.775,2348.413l.889,7.19.8-5.524Z" transform="translate(-1454.817 -2303.118)" fill="#e24295" opacity="0.34"/>
            <path id="Trazado_43089" data-name="Trazado 43089" d="M1464.45,2317.36c-2.088-3.585-5.249-2.475-5.383-2.426l-.347-.945a5.554,5.554,0,0,1,6.6,2.865Z" transform="translate(-1427.529 -2285.29)" fill="#ea810f"/>
            <g id="Grupo_40197" data-name="Grupo 40197" transform="translate(14.05 15.782)">
              <circle id="Elipse_1393" data-name="Elipse 1393" cx="9.67" cy="9.67" r="9.67" fill="#c0d8dd"/>
              <path id="Trazado_43090" data-name="Trazado 43090" d="M1436.2,2298.687l6.479-7.452a9.675,9.675,0,0,0-5.6-3.248l-5.837,6.713,2.838,1.258-6.372,7.524a9.674,9.674,0,0,0,5.423,3.433l5.9-6.97Z" transform="translate(-1425.63 -2287.821)" fill="#f0fafc"/>
            </g>
            <g id="Grupo_40198" data-name="Grupo 40198" transform="translate(35.289 25.198)">
              <rect id="Rectángulo_5903" data-name="Rectángulo 5903" width="0.87" height="6.066" transform="matrix(0.155, -0.988, 0.988, 0.155, 17.803, 12.519)" fill="#ea810f"/>
              <circle id="Elipse_1394" data-name="Elipse 1394" cx="9.67" cy="9.67" r="9.67" fill="#c0d8dd"/>
              <path id="Trazado_43091" data-name="Trazado 43091" d="M1479.929,2318.074l6.478-7.451a9.626,9.626,0,0,0-3.457-2.585,9.736,9.736,0,0,0-2.139-.664l-5.837,6.713,2.839,1.259-6.373,7.524a9.653,9.653,0,0,0,5.424,3.433l5.9-6.969Z" transform="translate(-1469.361 -2307.208)" fill="#f0fafc"/>
            </g>
          </g>
          <path id="Trazado_43092" data-name="Trazado 43092" d="M1417.811,2394.875s-4.885,12.453,1.307,13.384c4.37.656,4.715-7.218,6.652-9.785" transform="translate(-1405.547 -2327.015)" fill="none" stroke="#1eaac1" stroke-miterlimit="10" stroke-width="1.134"/>
          <g id="Grupo_40205" data-name="Grupo 40205" transform="translate(11.292 66.56)">
            <circle id="Elipse_1395" data-name="Elipse 1395" cx="0.993" cy="0.993" r="0.993" fill="#0b6060"/>
            <g id="Grupo_40204" data-name="Grupo 40204" transform="translate(0.331 0.378)">
              <g id="Grupo_40203" data-name="Grupo 40203">
                <g id="Grupo_40202" data-name="Grupo 40202">
                  <g id="Grupo_40200" data-name="Grupo 40200" transform="translate(0.328)">
                    <path id="Trazado_43093" data-name="Trazado 43093" d="M1419.685,2393.287a.219.219,0,0,1,.013.309l-.015.016s.181.13.1.264l.1-.11a.471.471,0,1,0-.693-.638l-.016.016a.215.215,0,0,0,0,.313l.029.027.162-.176.009-.01a.219.219,0,0,1,.309-.013" transform="translate(-1419.106 -2392.976)" fill="#128d93"/>
                  </g>
                  <g id="Grupo_40201" data-name="Grupo 40201" transform="translate(0 0.354)">
                    <path id="Trazado_43094" data-name="Trazado 43094" d="M1418.753,2394.3a.219.219,0,0,1-.013-.309l.015-.016s-.181-.129-.1-.264l-.1.11a.471.471,0,0,0,.693.638l.015-.017a.214.214,0,0,0,0-.312l-.03-.027-.162.176-.009.01a.219.219,0,0,1-.309.012" transform="translate(-1418.43 -2393.706)" fill="#128d93"/>
                  </g>
                </g>
                <path id="Trazado_43095" data-name="Trazado 43095" d="M1419.56,2393.863l-.251.272a.072.072,0,0,0,.106.1l.251-.272a.073.073,0,0,0,0-.1A.072.072,0,0,0,1419.56,2393.863Z" transform="translate(-1418.873 -2393.421)" fill="#128d93"/>
              </g>
            </g>
          </g>
          <g id="Grupo_40211" data-name="Grupo 40211" transform="translate(19.349 70.268)">
            <circle id="Elipse_1396" data-name="Elipse 1396" cx="0.993" cy="0.993" r="0.993" fill="#0b6060"/>
            <g id="Grupo_40210" data-name="Grupo 40210" transform="translate(0.331 0.378)">
              <g id="Grupo_40209" data-name="Grupo 40209">
                <g id="Grupo_40208" data-name="Grupo 40208">
                  <g id="Grupo_40206" data-name="Grupo 40206" transform="translate(0.329)">
                    <path id="Trazado_43096" data-name="Trazado 43096" d="M1436.273,2400.922a.219.219,0,0,1,.013.309l-.016.016s.182.129.1.264l.1-.109a.472.472,0,0,0-.693-.639l-.015.017a.215.215,0,0,0,0,.313l.03.027.162-.176.009-.01a.218.218,0,0,1,.309-.012" transform="translate(-1435.695 -2400.611)" fill="#128d93"/>
                  </g>
                  <g id="Grupo_40207" data-name="Grupo 40207" transform="translate(0 0.354)">
                    <path id="Trazado_43097" data-name="Trazado 43097" d="M1435.341,2401.931a.219.219,0,0,1-.013-.309l.016-.017s-.182-.129-.1-.264l-.1.11a.471.471,0,1,0,.693.639l.016-.017a.214.214,0,0,0,0-.312l-.03-.028-.162.176-.009.009a.218.218,0,0,1-.309.012" transform="translate(-1435.018 -2401.341)" fill="#128d93"/>
                  </g>
                </g>
                <path id="Trazado_43098" data-name="Trazado 43098" d="M1436.149,2401.5l-.251.273a.072.072,0,0,0,0,.1.073.073,0,0,0,.1,0l.25-.272a.072.072,0,0,0-.106-.1Z" transform="translate(-1435.461 -2401.056)" fill="#128d93"/>
              </g>
            </g>
          </g>
        </g>
        <path id="Trazado_43099" data-name="Trazado 43099" d="M1451.268,2411.53s12.532,7.232,11.857,32.3l-35.582.1Z" transform="translate(-1095.922 -2316.13)" fill="#6d31fd"/>
        <path id="Trazado_43100" data-name="Trazado 43100" d="M1441.97,2396.143s-5.818,20.983-25,39.873h8.66s8.816-6.171,12.094-12.439l-.426-5.3,4.184.1s4.9-9.313,6.543-15.677A49.112,49.112,0,0,0,1441.97,2396.143Z" transform="translate(-1090.486 -2308.216)" fill="#5224e2"/>
        <path id="Trazado_43101" data-name="Trazado 43101" d="M1362.574,2470.525l-10.89-7.125,6.261-11.967,10.321,11.978Z" transform="translate(-1056.906 -2336.653)" fill="#f9cdaf"/>
        <path id="Trazado_43102" data-name="Trazado 43102" d="M1374.763,2458.863l-6.357-5.47-10.716,14.961,8.7,5.682Z" transform="translate(-1059.995 -2337.661)" fill="#dbb100"/>
        <path id="Trazado_43103" data-name="Trazado 43103" d="M1352.778,2430.819s-3.744,11.123-5.434,11.822c-1.3.54-7.363-.523-7.661-6.228a10.984,10.984,0,0,1,3.26-8.144s.531-5.952,3.424-8.731c0,0-5.374-2.172-5.883-7.193-.482-4.764,3.857-4.049,4.532-2.209.687,1.871,3.327,4.05,6.75,5.786S1352.778,2430.819,1352.778,2430.819Z" transform="translate(-1050.726 -2314.691)" fill="#f9cdaf"/>
        <path id="Trazado_43104" data-name="Trazado 43104" d="M1344.568,2424.118s.2,1.051,2.324,2.466,5.817,2.5,5.143,5.464a9.064,9.064,0,0,0,.962-4.3C1352.939,2425.657,1351.843,2424.527,1344.568,2424.118Z" transform="translate(-1053.246 -2322.604)" fill="#efbb97"/>
        <path id="Trazado_43105" data-name="Trazado 43105" d="M1417.118,2438.494l8.563.965s9.885,27.6-1.556,43.989-64.846-20.3-64.846-20.3l7.765-9.4,3.164-.322-1.414-3.086,2.678-4.611s22.287,16.5,30.065,15.918,3.055-4.8,3.055-4.8Z" transform="translate(-1060.812 -2329.999)" fill="#6d31fd"/>
        <path id="Trazado_43106" data-name="Trazado 43106" d="M1347.382,2432.184s.771-3.279,0-5.143-6.67-2.03-10.053-2.622-2.162,6.094,4.846,5.515a15.321,15.321,0,0,0-1.366,6.385Z" transform="translate(-1048.592 -2322.74)" fill="#f9cdaf"/>
        <path id="Trazado_43107" data-name="Trazado 43107" d="M1463.166,2457.863c-.176.211,3.436-7.6,14.32-9.455A32.219,32.219,0,0,0,1463.166,2457.863Z" transform="translate(-1114.241 -2335.098)" fill="#5224e2"/>
        <path id="Trazado_43108" data-name="Trazado 43108" d="M1385.4,2376.473s-3.989,9.531-7.761,7.623c-3.6-1.821,1.406-9.144,2.632-11.055S1386.509,2373.8,1385.4,2376.473Z" transform="translate(-1069.594 -2296.001)" fill="#e2b08f"/>
        <path id="Trazado_43109" data-name="Trazado 43109" d="M1389.312,2368.867a2.514,2.514,0,0,1-.756,3.186c-1.741,1.6-5.587,2.877-12.23-3.585-4.948-4.814.426-6.742,1.862-5.448S1384.675,2368.97,1389.312,2368.867Z" transform="translate(-1068.525 -2290.978)" fill="#f9cdaf"/>
        <path id="Trazado_43110" data-name="Trazado 43110" d="M1376.118,2368.25c.058-1.434.8-2.591,3.918-.232,4.455,3.368,8.264,2.651,9.537,2.263a2.332,2.332,0,0,0-.255-1.414c-4.638.1-9.686-4.552-11.124-5.846C1376.78,2361.747,1371.557,2363.6,1376.118,2368.25Z" transform="translate(-1068.531 -2290.979)" fill="#efbb97" opacity="0.48"/>
        <path id="Trazado_43111" data-name="Trazado 43111" d="M1392.375,2363.871s4.587-1.854,2.089-6c0,0-6.531-2.762-8.741-5.052,0,0-2.677-1.243-4.147.429s-.645,4.7.641,5.732S1387.189,2363.562,1392.375,2363.871Z" transform="translate(-1071.878 -2285.703)" fill="#f9cdaf"/>
        <path id="Trazado_43112" data-name="Trazado 43112" d="M1384.133,2355.223c5.983,4.9,9.45,4.706,11.01,4.128a5.342,5.342,0,0,0-.634-1.482s-6.531-2.762-8.74-5.051c0,0-2.678-1.243-4.148.429a3.2,3.2,0,0,0-.739,1.71C1383.03,2354.143,1384.133,2355.223,1384.133,2355.223Z" transform="translate(-1071.923 -2285.704)" fill="#efbb97" opacity="0.48"/>
        <path id="Trazado_43113" data-name="Trazado 43113" d="M1398.156,2352.924a4.068,4.068,0,0,0,2.943-3.48c.372-2.89-8.99-9.615-11.2-6.767s.528,5.716,1.291,6.445S1395.112,2353.3,1398.156,2352.924Z" transform="translate(-1076.124 -2280.363)" fill="#f9cdaf"/>
        <path id="Trazado_43114" data-name="Trazado 43114" d="M1403.589,2343.928a2.551,2.551,0,0,0,3.152-1.053c1.343-1.9-6.356-8.352-8.21-6.114S1402.192,2343.413,1403.589,2343.928Z" transform="translate(-1080.807 -2277.434)" fill="#f9cdaf"/>
        <path id="Trazado_43115" data-name="Trazado 43115" d="M1398.655,2338.981c1.419-1.714,6.259,1.662,7.85,4.194a3.74,3.74,0,0,0,.238-.3c1.342-1.9-6.357-8.352-8.21-6.114a2.113,2.113,0,0,0-.005,2.4A1.615,1.615,0,0,1,1398.655,2338.981Z" transform="translate(-1080.808 -2277.434)" fill="#efbb97" opacity="0.48"/>
        <path id="Trazado_43116" data-name="Trazado 43116" d="M1389.974,2345.255c1.9-2.445,9.065,2.163,10.822,5.346a4.528,4.528,0,0,0,.3-1.157c.372-2.89-8.99-9.615-11.2-6.767a3.706,3.706,0,0,0-.574,3.759A4.106,4.106,0,0,1,1389.974,2345.255Z" transform="translate(-1076.125 -2280.363)" fill="#efbb97" opacity="0.48"/>
        <g id="Grupo_40213" data-name="Grupo 40213" transform="translate(35.96 47.982)" opacity="0.43">
          <path id="Trazado_43117" data-name="Trazado 43117" d="M825.176,2374.3l-5.294,8.339-.744,1.171a2.738,2.738,0,0,0,.973,3.712,2.772,2.772,0,0,0,3.712-.973l5.294-8.339.743-1.171a2.737,2.737,0,0,0-.973-3.712,2.771,2.771,0,0,0-3.711.973Z" transform="translate(-818.772 -2344.283)" fill="#fff"/>
          <path id="Trazado_43118" data-name="Trazado 43118" d="M854.377,2315.216l-4.7,7.4L842.2,2334.4l-1.7,2.677a2.737,2.737,0,0,0,.973,3.711,2.771,2.771,0,0,0,3.712-.973l4.7-7.4,7.478-11.781,1.7-2.677a2.737,2.737,0,0,0-.973-3.712,2.771,2.771,0,0,0-3.712.973Z" transform="translate(-829.758 -2313.896)" fill="#fff"/>
        </g>
      </g>
    </g>
  </g>
</svg>
