<svg xmlns="http://www.w3.org/2000/svg" xmlns:xlink="http://www.w3.org/1999/xlink" width="422.442" height="385.499" viewBox="0 0 422.442 385.499">
  <defs>
    <clipPath id="clip-path">
      <path id="Trazado_43127" data-name="Trazado 43127" d="M1192.1,211.614l-3.6-60.671-7.238-10.766-11.115-16.71-38.6-6.5L1121.373,152.5l10.635,8.035-1.828,12.714-50.549,44.207,75.98,23.479,8.816-28.5,8.5-.243Z" transform="translate(-1079.631 -116.973)" fill="none"/>
    </clipPath>
  </defs>
  <g id="Grupo_40234" data-name="Grupo 40234" transform="translate(-976.69 -116.973)">
    <g id="Grupo_34792" data-name="Grupo 34792" transform="translate(976.69 116.973)">
      <g id="Grupo_40214" data-name="Grupo 40214">
        <path id="Trazado_42993" data-name="Trazado 42993" d="M1148.913,340.069s9.145,2.321,7.893,6.08c-1.194,3.586-8.466.01-10.353-.85S1146.349,339.423,1148.913,340.069Z" transform="translate(-1066.535 -235.562)" fill="#876148"/>
        <path id="Trazado_42996" data-name="Trazado 42996" d="M1264.192,160.673l-73.4-22.7,15.7-5.952,73.4,22.7Z" transform="translate(-1090.527 -124.973)" fill="#6d31fd"/>
        <path id="Trazado_42997" data-name="Trazado 42997" d="M1287.756,186.433l-52.662,170.278,16.153-7.424,52.2-168.791Z" transform="translate(-1114.083 -150.748)" fill="#5224e2"/>
        <path id="Trazado_42998" data-name="Trazado 42998" d="M1039.927,319.788l57.767,17.866,52.657-170.262-73.392-22.73L989.4,221.114,976.69,262.22l73.972,22.877Z" transform="translate(-976.69 -131.694)" fill="#a176ff"/>
        <path id="Trazado_42999" data-name="Trazado 42999" d="M1105.947,339.039l23.061,7.216s-.9,4.408-5.642,3c0,0-3.873,3.228-6.434-1.683a2.912,2.912,0,0,1-3.021,1.775,3.126,3.126,0,0,1-2.895-3.23,2.574,2.574,0,0,1-3.213-.442C1106.146,344.159,1105.947,339.039,1105.947,339.039Z" transform="translate(-1045.416 -235.045)" fill="#6d31fd" opacity="0.32" style="isolation: isolate"/>
        <path id="Trazado_43000" data-name="Trazado 43000" d="M1155.682,293.444l20.63-66.707-34.845-10.79L1079.7,269.965Z" transform="translate(-1031.461 -169.597)" fill="#fde375"/>
        <path id="Trazado_43001" data-name="Trazado 43001" d="M1155.222,220.2l-59.658,54.66-15.882-4.9,61.764-54.018Z" transform="translate(-1031.451 -169.594)" fill="#422c9b"/>
        <path id="Trazado_43002" data-name="Trazado 43002" d="M1219.1,157.219l-39.423-9.758s-3,1.831-2.426,4.423c0,0-6.115,1.557-3.8,7.793,0,0-5,13.972,11.079,16.529,0,0-8.541,11.158-5.583,18.053l6.414,1.293.439,5.623,21.557-22.848Z" transform="translate(-1080.917 -133.183)" fill="#6d31fd" opacity="0.32" style="isolation: isolate"/>
        <g id="Grupo_40195" data-name="Grupo 40195" transform="translate(48.207)">
          <g id="Grupo_40227" data-name="Grupo 40227">
            <g id="Grupo_40226" data-name="Grupo 40226" clip-path="url(#clip-path)">
              <g id="Grupo_40194" data-name="Grupo 40194" transform="translate(-9.876 5.212)">
                <g id="Grupo_40193" data-name="Grupo 40193">
                  <path id="Trazado_43014" data-name="Trazado 43014" d="M1303.552,256.094s3.981,5.009-2.762,11.311l-1.276-12.56Z" transform="translate(-1186.665 -195.491)" fill="#e00b71"/>
                  <path id="Trazado_43015" data-name="Trazado 43015" d="M1205.969,298.283s1.78-1.624,8.3,3,9.781,7.7,11.058,9.18,2.68,3.5,1.887,4.549-3.841.293-3.841.293l-4.142,1.7-14.168-10.571S1203.6,300.828,1205.969,298.283Z" transform="translate(-1136.208 -218.44)" fill="#006070"/>
                  <g id="Grupo_40192" data-name="Grupo 40192" transform="translate(56.031)">
                    <path id="Trazado_43016" data-name="Trazado 43016" d="M1207.43,186.125l-.751,3.556s-5.693,2.07-14.084-1.5-16.959-9.414-13.7-15.04S1207.43,186.125,1207.43,186.125Z" transform="translate(-1178.188 -151.484)" fill="#e00b71"/>
                    <path id="Trazado_43017" data-name="Trazado 43017" d="M1248.552,168.345l1.032.3s8.181-4.112,8.5-13.228-2.731-18.985-9.207-18.417S1248.552,168.345,1248.552,168.345Z" transform="translate(-1214.195 -132.818)" fill="#e00b71"/>
                    <path id="Trazado_43018" data-name="Trazado 43018" d="M1228.3,162.644s9.733-7.416,3.963-22.355-15.833-12.164-17.748-10.825c0,0-6.51-2.683-8.722,2.621,0,0-2.349,7-1.537,9.849s19.206,23.5,19.206,23.5Z" transform="translate(-1191.955 -128.234)" fill="#f80a73"/>
                    <path id="Trazado_43019" data-name="Trazado 43019" d="M1213.062,165.485s-15.242-32.293-23.686-32.01-5.422,9.682-5.422,9.682-5.919,3.274-4.5,9.454,11.065,14.1,27.783,16.543Z" transform="translate(-1178.743 -130.958)" fill="#fc4c96"/>
                    <path id="Trazado_43020" data-name="Trazado 43020" d="M1235.093,160.449a6.428,6.428,0,0,1-.168-1.137c-.5-1.842-1.028-11.173-10.44-27.495l-1.925-2.7a.49.49,0,0,1,.131-.628c.45-.347,1.416-.746,3.024.19,2.355,1.372,13.15,23.11,10.931,31.2C1236.646,159.884,1236.511,161.432,1235.093,160.449Z" transform="translate(-1201.747 -128.102)" fill="#e00b71"/>
                    <path id="Trazado_43021" data-name="Trazado 43021" d="M1211.263,173.619s-23.152-20.952-25.074-23.18c-1.069-1.238-2.961,1.244-1.635,3.105s17.922,18.136,26.021,20.9Z" transform="translate(-1181.331 -139.802)" fill="#e00b71"/>
                    <path id="Trazado_43022" data-name="Trazado 43022" d="M1268.753,187.543s-10.471-10.3-21.389.652l-1.789-.207s5.407-10.811,18.86-6.806a17.987,17.987,0,0,1,5.715,3.531Z" transform="translate(-1214.017 -155.851)" fill="#bc0f65"/>
                    <path id="Trazado_43023" data-name="Trazado 43023" d="M1213.746,201.919s-11.394-2.521-16.073,5.374-4.133,13.392-4.133,13.392a10.383,10.383,0,0,1-3.734-1.068s2.029-25.94,24.107-19.967Z" transform="translate(-1184.365 -165.669)" fill="#bc0f65"/>
                  </g>
                  <path id="Trazado_43024" data-name="Trazado 43024" d="M1217.354,296.664l-12.195,14.361,9.285,6.13s11.127-12.112,12.448-16.427Z" transform="translate(-1136.498 -217.726)" fill="#a57758"/>
                  <path id="Trazado_43025" data-name="Trazado 43025" d="M1200.7,310.113s15.892,4.343,19.659,16.449c1.218,3.909-7.237,1.848-7.237,1.848l-4.649,1.572-9.8-6.3Z" transform="translate(-1133.047 -224.877)" fill="#a57758"/>
                  <path id="Trazado_43026" data-name="Trazado 43026" d="M1100.74,362.2s9.992,10.717,38.232,24.836c0,0,27.979-31.2,30.032-58.835,0,0-13.256-1.9-24.577-15.827C1144.427,312.375,1117.924,322.313,1100.74,362.2Z" transform="translate(-1080.978 -226.079)" fill="#fccc05"/>
                  <path id="Trazado_43027" data-name="Trazado 43027" d="M1175.018,342.385a20.3,20.3,0,0,1-2.286-.523l-3.329-1.614-2.38-.53c-.376-.176-.762-.364-1.155-.563-1.557,4.332-12.179,29.665-45.179,20.946l-8.548,21.009c.762.6,1.609,1.258,2.551,1.961l30.3,18.15S1172.966,370.02,1175.018,342.385Z" transform="translate(-1087.04 -240.318)" fill="#dbb100" opacity="0.5" style="isolation: isolate"/>
                  <path id="Trazado_43028" data-name="Trazado 43028" d="M1197.1,311.53s6.472,9.9,20.9,14.458l-.279,2.559s-9.378-.164-22.473-14.034Z" transform="translate(-1131.228 -225.63)" fill="#6d31fd"/>
                  <path id="Trazado_43029" data-name="Trazado 43029" d="M1230.559,305.908a21.574,21.574,0,0,0,3.076-5.188l-9.536-4.064-6.255,7.366Z" transform="translate(-1143.242 -217.721)" fill="#876148"/>
                  <path id="Trazado_43030" data-name="Trazado 43030" d="M1251.477,201.111s2.9-4.73-3.372-7.062-12.19,1.2-11.846,6.079S1251.477,201.111,1251.477,201.111Z" transform="translate(-1153.026 -162.774)" fill="#6d31fd"/>
                  <path id="Trazado_43031" data-name="Trazado 43031" d="M1248.1,194.048c4.222,1.569,4.288,4.221,3.88,5.792a6.488,6.488,0,0,0-3.459-2.5c-5.393-2-10.515.325-11.633,4.115a1.961,1.961,0,0,1-.635-1.327C1235.913,195.249,1241.829,191.716,1248.1,194.048Z" transform="translate(-1153.024 -162.774)" fill="#a176ff" opacity="0.5" style="isolation: isolate"/>
                  <circle id="Elipse_1389" data-name="Elipse 1389" cx="21.474" cy="21.474" r="21.474" transform="translate(72.569 43.925)" fill="#a57758"/>
                  <path id="Trazado_43032" data-name="Trazado 43032" d="M1217.871,240.586a6.585,6.585,0,0,0,6.8-.7,11.082,11.082,0,0,0,9.817-1.051s3.38,2.184,4.923.173c0,0,2.264,4.6,12.321,5.16,0,0,1.39,3.454,6.985,4.169a42.591,42.591,0,0,0-.2-7.845c-.519-3.754-16.571-12.641-27.241-12.112S1217.871,240.586,1217.871,240.586Z" transform="translate(-1143.256 -181.407)" fill="#876148" opacity="0.58" style="isolation: isolate"/>
                  <path id="Trazado_43033" data-name="Trazado 43033" d="M1204.078,267.167s-2.484,3.3-2.1,6.143c0,0-.193.775,2.294.91,0,0-1.862-.031.842-5.941Z" transform="translate(-1134.783 -202.042)" fill="#dbb100"/>
                  <path id="Trazado_43034" data-name="Trazado 43034" d="M1216.7,224.9a8.031,8.031,0,0,1-5.984,3.264,4.7,4.7,0,0,1-3.432.5s-5.083-17.24,12.223-21.2a9.257,9.257,0,0,1,11-1.669s3.9-1.421,9.372.691,6.392,6.216,6.392,6.216,7.721,1.528,7.562,9.59c0,0,5.967,4.5-1.057,11.449a12.1,12.1,0,0,1-6.212-5.218s-3.792,1.285-12.293-5.274a5.866,5.866,0,0,1-4.048.1S1226.091,227.882,1216.7,224.9Z" transform="translate(-1137.259 -168.827)" fill="#f80a73"/>
                  <circle id="Elipse_1390" data-name="Elipse 1390" cx="4.437" cy="4.437" r="4.437" transform="translate(68.21 58.598)" fill="#a57758"/>
                  <path id="Trazado_43035" data-name="Trazado 43035" d="M1264.215,268.481l-.417-.984c.039-.016,3.938-1.627,6.443,1.667l-.851.646A4.425,4.425,0,0,0,1264.215,268.481Z" transform="translate(-1167.676 -202.001)" fill="#fccc05"/>
                  <path id="Trazado_43036" data-name="Trazado 43036" d="M1209.818,260.512a1.366,1.366,0,0,1,1.42,1.309,1.448,1.448,0,0,1,0,.18c-.085,1.5-1.216,1.522-1.688,1.34a.615.615,0,0,1,.079-1.117c.482-.118.7.436.7.436a1.515,1.515,0,0,0-.432-2.1C1209.872,260.544,1209.845,260.527,1209.818,260.512Z" transform="translate(-1138.659 -198.503)" fill="#876148"/>
                  <rect id="Rectángulo_5901" data-name="Rectángulo 5901" width="7.723" height="15.828" transform="translate(100.29 71.893) rotate(-75.533)" fill="#1e1e21"/>
                  <path id="Trazado_43037" data-name="Trazado 43037" d="M1284.522,268.7l6.55,1.689-3.565,2.729,2.889.745-3.523,3.418-5.982-1.544,3.858-3.867-2.682-.692Z" transform="translate(-1176.763 -202.86)" fill="#83838e"/>
                  <path id="Trazado_43038" data-name="Trazado 43038" d="M1206.753,269.8c-.062,1.308-.427,5.628-2.974,6.124a1.689,1.689,0,0,1-1.752-1.542s2.647-.1,3.406-4.782c0,0,.02-.454.589-.416A.7.7,0,0,1,1206.753,269.8Z" transform="translate(-1134.832 -203.114)" fill="#fccc05"/>
                  <line id="Línea_3" data-name="Línea 3" x2="8.665" y2="2.695" transform="translate(73.747 58.91)" fill="none" stroke="#fccc05" stroke-miterlimit="10" stroke-width="2.122"/>
                  <rect id="Rectángulo_5902" data-name="Rectángulo 5902" width="7.723" height="15.828" transform="translate(80.075 66.926) rotate(-75.533)" fill="#1e1e21"/>
                  <path id="Trazado_43039" data-name="Trazado 43039" d="M1241.355,258.106l6.549,1.69-3.564,2.729,2.888.745-3.522,3.418-5.982-1.544,3.858-3.866-2.682-.692Z" transform="translate(-1153.812 -197.225)" fill="#83838e"/>
                  <path id="Trazado_43040" data-name="Trazado 43040" d="M1123.952,299.459s2.658,4.069,1.336,5.909-15.786,15.842-26.881,31.541-14.368,22.889-15.23,24.34-1.931,4.193-4.765,3.507-12.911-4.953-18.583-13.346c0,0-2.663-2.182-.332-9.687s20.238-38.832,47.717-52.031Z" transform="translate(-1058.541 -214.019)" fill="#2bbee0"/>
                  <path id="Trazado_43041" data-name="Trazado 43041" d="M1121.3,351.087c11.1-15.7,25.561-29.7,26.881-31.541a3.637,3.637,0,0,0,0-3.189,2.117,2.117,0,0,1-.262.5c-1.418,1.975-16.657,17.2-28.573,34.033s-15.547,24.463-16.483,26.01c-.356.589-.752,1.375-1.263,2.093,2.615.43,3.638-2.166,4.469-3.566C1106.932,373.976,1110.205,366.788,1121.3,351.087Z" transform="translate(-1081.435 -228.197)" fill="#c9ebf5"/>
                  <path id="Trazado_43042" data-name="Trazado 43042" d="M1111.339,306.575a20.864,20.864,0,0,1,6.987,2.1l24.459-4.8,9.655-2.291h0l2.849-4.612a37.7,37.7,0,0,0-25.228-7.663l-14.938,9.8Z" transform="translate(-1086.613 -213.777)" fill="#2bbee0"/>
                  <path id="Trazado_43043" data-name="Trazado 43043" d="M1206.591,301s-4.378-3.073-6.6-2,1.228,3.849,1.228,3.849a1.8,1.8,0,0,1,.5,2.5h0c-.993,1.426-3.891,4.934-4.747,5.259a2.111,2.111,0,0,1-2.088-.307,9.349,9.349,0,0,1-3.334-5.579s-.225-.974.946-2.809,4.646-4.586,6.3-4.829c2.511-.369,5.26,1.012,8.428,3.182Z" transform="translate(-1129.252 -217.913)" fill="#0e7992"/>
                  <path id="Trazado_43044" data-name="Trazado 43044" d="M1232.252,339.786s-1.013,17.441-13.233,38.178l8.158,1.7,13.3-40.678Z" transform="translate(-1143.867 -240.226)" fill="#2bbee0"/>
                  <path id="Trazado_43045" data-name="Trazado 43045" d="M1208.932,344.139s-4.7,33.89-31.761,60.105l1.8.557s22.224-16.975,32.12-61.634Z" transform="translate(-1121.617 -242.452)" fill="#c9ebf5"/>
                  <path id="Trazado_43046" data-name="Trazado 43046" d="M1234.861,318.418s4.162,3.743,3.618,6.148-4.027-.326-4.027-.326a1.8,1.8,0,0,0-2.544.078h0c-1.166,1.29-3.929,4.9-4.052,5.814a2.109,2.109,0,0,0,.772,1.965,9.348,9.348,0,0,0,6.188,1.988s1,0,2.523-1.557,3.42-5.566,3.282-7.225c-.208-2.528-2.351-5.059-5.177-7.653Z" transform="translate(-1148.553 -228.884)" fill="#0e7992"/>
                  <path id="Trazado_43047" data-name="Trazado 43047" d="M1087.495,310.032c.052-.168,3.9-5.326,3.9-5.326s16.154-18.463,31.213-15.411c0,0-2.5,19.581-19.634,25.524Z" transform="translate(-1073.936 -213.627)" fill="#0e7992"/>
                  <path id="Trazado_43048" data-name="Trazado 43048" d="M1302.772,240.437s-.659,6.909-4.079,10.567a.571.571,0,0,0,.215.689c.594.459.754.177.942.066a10.9,10.9,0,0,0,4.336-9.146c-.064-.712-.03-.407-.11-1.024C1303.944,240.571,1303.1,239.91,1302.772,240.437Z" transform="translate(-1186.207 -187.732)" fill="#e00b71"/>
                </g>
                <path id="Trazado_43049" data-name="Trazado 43049" d="M1223.655,212.858s-.533,16.785,1.891,17.456c0,0,1.238.354,1.614-.635.268-.7-.523-16.892-2.223-17.723C1223.913,211.454,1223.655,212.858,1223.655,212.858Z" transform="translate(-1146.305 -172.629)" fill="#e00b71"/>
                <path id="Trazado_43050" data-name="Trazado 43050" d="M1249.966,223.992a1.092,1.092,0,0,1-.795-1.244c1.252-7.4-4.655-19.022-4.715-19.139l-.089-.173.046-.191a1.483,1.483,0,0,1,.657-1.011,1.206,1.206,0,0,1,.976-.079,2.05,2.05,0,0,1,.593.306l.037.029.032.035c3.5,3.888,5.393,12.1,5.63,15.627.184,2.731-.161,4.686-.972,5.505a1.241,1.241,0,0,1-.974.406,1.746,1.746,0,0,1-.426-.073Z" transform="translate(-1157.344 -167.44)" fill="#e00b71"/>
                <path id="Trazado_43051" data-name="Trazado 43051" d="M1275.428,207.489s8.11,3.37,6.908,22.353c0,0-.187,1.03,1.029,1.023.9-.006,3.688-8.291.015-17.177C1280.432,206.553,1274.694,206.185,1275.428,207.489Z" transform="translate(-1173.825 -169.998)" fill="#e00b71"/>
                <path id="Trazado_43052" data-name="Trazado 43052" d="M1148.8,340.441s9.145,2.321,7.893,6.079c-1.194,3.587-8.467.01-10.354-.85S1146.234,339.795,1148.8,340.441Z" transform="translate(-1104.805 -240.972)" fill="#876148"/>
              </g>
            </g>
          </g>
        </g>
        <path id="Trazado_43054" data-name="Trazado 43054" d="M1141.8,329.03a2.3,2.3,0,0,1,2.877-.811c2.049.679,4.777,3.178,2.573,11.348-1.642,6.086-5.567,2.656-5.174.934S1143.94,332.686,1141.8,329.03Z" transform="translate(-1064.478 -229.178)" fill="#a57758"/>
        <path id="Trazado_43055" data-name="Trazado 43055" d="M1147.171,340.054c-1.171.592-2.422.514-1.927-3.023.708-5.051-1.552-7.77-2.431-8.613a2.13,2.13,0,0,0-1.015.831c2.141,3.655.671,9.75.277,11.471C1141.689,342.415,1145.486,345.758,1147.171,340.054Z" transform="translate(-1064.478 -229.398)" fill="#876148" opacity="0.45" style="isolation: isolate"/>
        <path id="Trazado_43056" data-name="Trazado 43056" d="M1135.892,329.274s-3.516-2.835-5.716,1c0,0,.7,6.436-.147,9.217,0,0,.2,2.688,2.185,3.118s4.038-1.574,4.288-3.057S1137.95,333.548,1135.892,329.274Z" transform="translate(-1058.22 -229.316)" fill="#a57758"/>
        <path id="Trazado_43057" data-name="Trazado 43057" d="M1132.675,340.685c1.254-6.951-.444-9.629-1.6-10.614a4.9,4.9,0,0,0-.9,1.164s.7,6.436-.147,9.217c0,0,.2,2.688,2.185,3.118a2.925,2.925,0,0,0,1.692-.17A2.8,2.8,0,0,1,1132.675,340.685Z" transform="translate(-1058.22 -230.277)" fill="#876148" opacity="0.45" style="isolation: isolate"/>
        <path id="Trazado_43058" data-name="Trazado 43058" d="M1124.185,331.875a3.715,3.715,0,0,0-4.084-.8c-2.47.984-3.677,11.443-.422,11.943s4.326-2.961,4.567-3.893S1125.836,334.136,1124.185,331.875Z" transform="translate(-1051.666 -230.653)" fill="#a57758"/>
        <path id="Trazado_43059" data-name="Trazado 43059" d="M1115.063,335.264a2.329,2.329,0,0,0-2.241-2.046c-2.114-.226-3.839,8.78-1.23,9.265S1115.273,336.607,1115.063,335.264Z" transform="translate(-1047.717 -231.948)" fill="#a57758"/>
        <path id="Trazado_43060" data-name="Trazado 43060" d="M1113.308,341.4c-2-.371-1.453-5.732-.142-8.125a3.183,3.183,0,0,0-.345-.055c-2.114-.227-3.839,8.78-1.23,9.265a1.926,1.926,0,0,0,1.917-1.063A1.453,1.453,0,0,1,1113.308,341.4Z" transform="translate(-1047.717 -231.949)" fill="#876148" opacity="0.45" style="isolation: isolate"/>
        <path id="Trazado_43061" data-name="Trazado 43061" d="M1121.7,341.839c-2.794-.43-2.3-8.194-.543-11.008a4.07,4.07,0,0,0-1.057.272c-2.47.984-3.677,11.442-.422,11.943a3.385,3.385,0,0,0,3.253-1.212A3.782,3.782,0,0,1,1121.7,341.839Z" transform="translate(-1051.665 -230.681)" fill="#876148" opacity="0.45" style="isolation: isolate"/>
      </g>
    </g>
    <ellipse id="Elipse_1399" data-name="Elipse 1399" cx="76.385" cy="6.649" rx="76.385" ry="6.649" transform="translate(1240.798 489.173)" fill="#fccc05"/>
    <g id="Grupo_40228" data-name="Grupo 40228" transform="translate(1202.495 292.405)">
      <path id="Trazado_42994" data-name="Trazado 42994" d="M1756.755,521.571l-76.6-23.791,16.4-6.194,76.6,23.792Z" transform="translate(-1576.525 -491.586)" fill="#6d31fd"/>
      <path id="Trazado_42995" data-name="Trazado 42995" d="M1781.075,548.532l-55.192,177.7,16.883-7.762,54.71-176.151Z" transform="translate(-1600.839 -518.563)" fill="#5224e2"/>
      <path id="Trazado_43003" data-name="Trazado 43003" d="M1520.99,686.711l62.921,19.542L1639.1,528.566l-76.593-23.822L1471,584.45l-12.133,39.066,73.934,25.157Z" transform="translate(-1458.868 -498.582)" fill="#a176ff"/>
      <path id="Trazado_43006" data-name="Trazado 43006" d="M1760.959,538.456l5.03-.99s11.128,2.455,13.292,11.5l2.383-2.963,6.14,4.717-2.8,2.573,3.244-.353.163,6.134-3.826.253s3.637,3.451,1.706,10.7-9.122,14.485-10.135,17.424c-3.1,8.992-8.733,17.17-19.244,14.865l17.062-51.643Z" transform="translate(-1617.338 -515.98)" fill="#6d31fd" opacity="0.32" style="isolation: isolate"/>
      <path id="Trazado_43007" data-name="Trazado 43007" d="M1643.259,660.12l21.622-69.616L1628.515,579.2l-64.549,56.318Z" transform="translate(-1514.749 -538.168)" fill="#fde375"/>
      <path id="Trazado_43008" data-name="Trazado 43008" d="M1642.893,583.662l-62.355,56.989-16.575-5.137,64.549-56.317Z" transform="translate(-1514.747 -538.169)" fill="#422c9b"/>
      <path id="Trazado_43009" data-name="Trazado 43009" d="M1664.259,615.485l4.956.455s18.213,14.08,22.791,26.254l-28.412-5.988Z" transform="translate(-1567.72 -557.463)" fill="#1e1291"/>
      <path id="Trazado_43010" data-name="Trazado 43010" d="M1606.824,609.94s43.838,26.165,31.4,65.836l-78.551-24.57Z" transform="translate(-1512.466 -554.515)" fill="#fccc05"/>
      <path id="Trazado_43011" data-name="Trazado 43011" d="M1632.9,623.514l.855,2.708-11.371,10.033,3.384-6.48Z" transform="translate(-1545.807 -561.732)" fill="#6d31fd"/>
      <path id="Trazado_43012" data-name="Trazado 43012" d="M1615.65,611.789s-29.679,20.3-47.6,40.541l-8.379-2.621s27.932-24.489,34.359-30.066l2.177.448.067-2.418s5.737-5.328,12.463-10.548A43.184,43.184,0,0,1,1615.65,611.789Z" transform="translate(-1512.466 -553.017)" fill="#5224e2"/>
      <path id="Trazado_43013" data-name="Trazado 43013" d="M1639.184,643l-39.8,31.54,4.48,1.573,38.3-29.3Z" transform="translate(-1533.58 -572.09)" fill="#dbb100" opacity="0.5" style="isolation: isolate"/>
      <g id="Grupo_40212" data-name="Grupo 40212" transform="translate(97.775 17.481)">
        <path id="Trazado_43071" data-name="Trazado 43071" d="M1682.043,621.97a103.814,103.814,0,0,1,13.383,13.023s.751.879.454,1.492-1.854,3.861-1.854,3.861a1.913,1.913,0,0,1-1.4.8c-1,.116-10.851.435-10.851.435s-1.346.07-1.457-.944c-.078-.677.414-6.231.414-6.231l-5.018,1.581s-1.283.42-1.292-.661c-.01-1.434.81-9.692.81-9.692a1.766,1.766,0,0,1,.778-1.514,30.45,30.45,0,0,1,4.829-2.175A1.133,1.133,0,0,1,1682.043,621.97Z" transform="translate(-1671.252 -578.293)" fill="#dbb100"/>
        <path id="Trazado_43072" data-name="Trazado 43072" d="M1689.437,624.982l12.635,12.335s-7.03-.031-11.006-2.009S1689.437,624.982,1689.437,624.982Z" transform="translate(-1678.87 -579.993)" fill="#a48502"/>
        <g id="Grupo_40199" data-name="Grupo 40199" transform="translate(3.017)">
          <path id="Trazado_43073" data-name="Trazado 43073" d="M1737.11,557.864s10.313,4.845,7.085,14.5-7.2,9.463-9.358,14.3-9.824,13.657-21.795,5.8l1.433-2.045s-7.231,1.658-12.366-2.15-6.388-5.5-9.267-7.125-5.286-4.428-4.734-7.611-1.554-7.56-4.278-11.785,26.535-18.6,26.535-18.6l19.927,5.721Z" transform="translate(-1679.176 -536.482)" fill="#2bbee0"/>
          <path id="Trazado_43074" data-name="Trazado 43074" d="M1681.987,571.809c2.439,3.937,4.217,7.92,3.7,10.876-.552,3.183,1.853,5.988,4.734,7.613s4.134,3.316,9.268,7.124,12.366,2.15,12.366,2.15l-1.434,2.045c4.986,3.278,8.95,3.533,12.125,2.412,3.979-1.411,5.017-6.564,5.542-10.752a8.418,8.418,0,0,0-.61-5.032c-2.186-6.263,2.346-11.221-1.042-20.191s-19.1-10.016-26.136-4.172-20.088,5.626-20.088,5.626.513,1.488,1.047,3A4.708,4.708,0,0,1,1681.987,571.809Z" transform="translate(-1677.458 -545.57)" fill="#4295a8"/>
          <circle id="Elipse_1391" data-name="Elipse 1391" cx="4.221" cy="4.221" r="4.221" transform="translate(45.602 41.535)" fill="#f9cdaf"/>
          <path id="Trazado_43075" data-name="Trazado 43075" d="M1699.762,628.107l8.543-8.325-9.052-8.81-9.21,8.723-1.212,1.142s-.7,4.69,1.549,6.579c2.178,1.829,7.913,2.228,7.913,2.228Z" transform="translate(-1681.875 -572.545)" fill="#f9cdaf"/>
          <path id="Trazado_43076" data-name="Trazado 43076" d="M1700.739,610.968l7.722,10.212-5,4.709-11.928-6.2Z" transform="translate(-1683.366 -572.542)" fill="#efbb97"/>
          <circle id="Elipse_1392" data-name="Elipse 1392" cx="21.824" cy="21.824" r="21.824" transform="translate(11.569 9.466)" fill="#f9cdaf"/>
          <g id="Grupo_40196" data-name="Grupo 40196" transform="translate(16.328 33.446)">
            <path id="Trazado_43077" data-name="Trazado 43077" d="M1710.478,601.071s1.765-1.814,4.85.25,8.545,7.285,7.9,9.679-4.446,3.488-8.243.554S1706.5,604.088,1710.478,601.071Z" transform="translate(-1708.962 -600.334)" fill="#062625"/>
            <path id="Trazado_43078" data-name="Trazado 43078" d="M1720.6,615.908c1.035-2.849-2.713-6.365-5.847-8.79a7.025,7.025,0,0,0-5.6-1.661c-1.035,2.849,2.712,6.364,5.847,8.788A7.028,7.028,0,0,0,1720.6,615.908Z" transform="translate(-1708.972 -603.021)" fill="#ed1c24"/>
            <path id="Trazado_43079" data-name="Trazado 43079" d="M1719.292,608.119c2.4,2.584,5.136,6.111,4.662,8.75a5.252,5.252,0,0,0,1.506-.075c1.035-2.849-2.713-6.364-5.847-8.788a9.556,9.556,0,0,0-1.489-.953A9.574,9.574,0,0,1,1719.292,608.119Z" transform="translate(-1713.833 -603.906)" fill="#fc3a49"/>
          </g>
          <path id="Trazado_43080" data-name="Trazado 43080" d="M1701.247,561.785s6.6,1.242,20.983-3.453c7.065-2.307,13.017,4.931,13.017,4.931s-6.753,11.4,4.751,15.771l1.479-24.294-8.674-10.43-11.084.027-19.554,14.223Z" transform="translate(-1688.532 -537.1)" fill="#efbb97" opacity="0.55" style="isolation: isolate"/>
          <path id="Trazado_43081" data-name="Trazado 43081" d="M1734.811,550.638a29.468,29.468,0,0,0-12.852-17.719c-10.837-6.927-17.822-3.249-21.047-.941s-5.513,2.081-9.456,1.649-8.638,1.463-10.021,6.155-12.941,7.7-3.932,20.063c0,0-.874-7.662,7.018-6.467s14.752-4.732,18.137-7.241,14.818-3.1,20.282,8.907c0,0-7.212,11.285,5.194,17.3C1728.133,572.354,1740.032,561.767,1734.811,550.638Z" transform="translate(-1674.096 -528.914)" fill="#2bbee0"/>
          <path id="Trazado_43082" data-name="Trazado 43082" d="M1727.238,555.662c-8.224-4.174-14.467,1.414-18.519,5.313-3.992,3.835-12.368,5.851-12.368,5.851,7.89,1.2,14.751-4.732,18.137-7.241s14.818-3.1,20.282,8.908C1734.771,568.495,1735.179,559.694,1727.238,555.662Z" transform="translate(-1685.93 -542.35)" fill="#0e7992"/>
          <path id="Trazado_43083" data-name="Trazado 43083" d="M1801.941,574.264l-.442-3.835a15.688,15.688,0,0,0,3.13-4.184l2.445,1.7-2.22,2.7,3.61-.32.275,2.865A13.473,13.473,0,0,0,1801.941,574.264Z" transform="translate(-1741.836 -548.762)" fill="#2bbee0"/>
          <path id="Trazado_43084" data-name="Trazado 43084" d="M1781.421,625.913a1.407,1.407,0,0,0-1.986-.124,1.434,1.434,0,0,0-.131.132c-1.05,1.129-.265,1.987.206,2.207a.634.634,0,0,0,.773-.854c-.255-.441-.825-.212-.825-.212A1.558,1.558,0,0,1,1781.421,625.913Z" transform="translate(-1729.759 -580.235)" fill="#efbb97"/>
          <path id="Trazado_43085" data-name="Trazado 43085" d="M1786.809,581.845l7.066-3.136S1790.381,581.851,1786.809,581.845Z" transform="translate(-1734.025 -555.39)" fill="#4295a8"/>
          <path id="Trazado_43086" data-name="Trazado 43086" d="M1776.052,632.071l-1.432,1.708.21,5.088,2.288-4.8Z" transform="translate(-1727.544 -583.763)" fill="#bc0f65"/>
          <path id="Trazado_43087" data-name="Trazado 43087" d="M1776.013,633.888l-1.394-.109,1.433-1.708,1.064,1.994Z" transform="translate(-1727.544 -583.762)" fill="#f80a73"/>
          <path id="Trazado_43088" data-name="Trazado 43088" d="M1776.287,632.07l-1.224,6.8,2.288-4.8Z" transform="translate(-1727.78 -583.762)" fill="#e24295" opacity="0.34" style="isolation: isolate"/>
          <path id="Trazado_43089" data-name="Trazado 43089" d="M1741.871,588.937c-.887-3.853-4.079-3.737-4.214-3.73l-.049-.96a5.3,5.3,0,0,1,5.2,4.474Z" transform="translate(-1707.865 -558.335)" fill="#ea810f"/>
          <g id="Grupo_40197" data-name="Grupo 40197" transform="translate(14.641 11.628)">
            <circle id="Elipse_1393" data-name="Elipse 1393" cx="9.219" cy="9.219" r="9.219" fill="#c0d8dd"/>
            <path id="Trazado_43090" data-name="Trazado 43090" d="M1715.758,565.512l8-4.951a9.218,9.218,0,0,0-4.176-4.54l-7.211,4.461,2.228,1.948-7.928,5.048a9.219,9.219,0,0,0,3.966,4.659l7.346-4.676Z" transform="translate(-1706.059 -554.955)" fill="#f0fafc"/>
          </g>
          <g id="Grupo_40198" data-name="Grupo 40198" transform="translate(31.314 26.205)">
            <rect id="Rectángulo_5903" data-name="Rectángulo 5903" width="0.83" height="5.783" transform="matrix(0.441, -0.897, 0.897, 0.441, 15.816, 14.112)" fill="#ea810f"/>
            <circle id="Elipse_1394" data-name="Elipse 1394" cx="9.219" cy="9.219" r="9.219" fill="#c0d8dd"/>
            <path id="Trazado_43091" data-name="Trazado 43091" d="M1751.357,596.645l8-4.951a9.221,9.221,0,0,0-4.176-4.541l-7.211,4.461,2.228,1.948-7.929,5.048a9.176,9.176,0,0,0,2.537,3.633,9.287,9.287,0,0,0,1.43,1.026l7.345-4.676Z" transform="translate(-1741.66 -586.084)" fill="#f0fafc"/>
          </g>
        </g>
        <path id="Trazado_43092" data-name="Trazado 43092" d="M1672.11,648.95s-7.968,9.956-2.593,12.549c3.793,1.833,6.335-5.238,8.822-7.027" transform="translate(-1667.655 -592.737)" fill="none" stroke="#1eaac1" stroke-miterlimit="10" stroke-width="1.134"/>
        <g id="Grupo_40205" data-name="Grupo 40205" transform="translate(3.616 54.992)">
          <circle id="Elipse_1395" data-name="Elipse 1395" cx="0.946" cy="0.946" r="0.946" fill="#0b6060"/>
          <g id="Grupo_40204" data-name="Grupo 40204" transform="translate(0.298 0.385)">
            <g id="Grupo_40203" data-name="Grupo 40203">
              <g id="Grupo_40202" data-name="Grupo 40202">
                <g id="Grupo_40200" data-name="Grupo 40200" transform="translate(0.41)">
                  <path id="Trazado_43093" data-name="Trazado 43093" d="M1677.435,647.521a.21.21,0,0,1-.076.286l-.018.009s.128.17.013.268l.119-.073a.45.45,0,1,0-.424-.793l-.026.015-.019.011a.2.2,0,0,0-.095.273l.006.011.02.033.2-.115.011-.006a.21.21,0,0,1,.285.075" transform="translate(-1676.887 -647.166)" fill="#128d93"/>
                </g>
                <g id="Grupo_40201" data-name="Grupo 40201" transform="translate(0 0.202)">
                  <path id="Trazado_43094" data-name="Trazado 43094" d="M1676.258,648.161a.208.208,0,0,1,.076-.285h0l.019-.011s-.128-.169-.013-.268l-.123.071a.45.45,0,0,0,.451.777l.019-.011a.2.2,0,0,0,.094-.273l-.006-.011-.02-.033-.2.115-.011.006a.209.209,0,0,1-.285-.076" transform="translate(-1676.012 -647.598)" fill="#128d93"/>
                </g>
              </g>
              <path id="Trazado_43095" data-name="Trazado 43095" d="M1677.175,648.034l-.305.177a.069.069,0,0,0,.069.118l.306-.176a.07.07,0,0,0,.024-.094.068.068,0,0,0-.094-.024Z" transform="translate(-1676.454 -647.622)" fill="#128d93"/>
            </g>
          </g>
        </g>
        <g id="Grupo_40211" data-name="Grupo 40211" transform="translate(9.902 60.647)">
          <circle id="Elipse_1396" data-name="Elipse 1396" cx="0.946" cy="0.946" r="0.946" fill="#0b6060"/>
          <g id="Grupo_40210" data-name="Grupo 40210" transform="translate(0.266 0.393)">
            <g id="Grupo_40209" data-name="Grupo 40209">
              <g id="Grupo_40208" data-name="Grupo 40208">
                <g id="Grupo_40206" data-name="Grupo 40206" transform="translate(0.45)">
                  <path id="Trazado_43096" data-name="Trazado 43096" d="M1690.87,659.6a.209.209,0,0,1-.075.285l-.019.011s.128.17.013.267l.123-.071a.45.45,0,0,0-.451-.778l-.019.011a.206.206,0,0,0-.093.276l0,.01.02.033.2-.115.01-.006a.207.207,0,0,1,.284.074v0" transform="translate(-1690.328 -659.257)" fill="#128d93"/>
                </g>
                <g id="Grupo_40207" data-name="Grupo 40207" transform="translate(0 0.194)">
                  <path id="Trazado_43097" data-name="Trazado 43097" d="M1689.646,660.235a.208.208,0,0,1,.076-.285h0l.019-.011s-.129-.169-.013-.267l-.123.071a.45.45,0,1,0,.424.793l.026-.015.019-.01a.205.205,0,0,0,.094-.274l-.006-.011-.019-.033-.2.114-.01.006a.208.208,0,0,1-.285-.075h0" transform="translate(-1689.367 -659.672)" fill="#128d93"/>
                </g>
              </g>
              <path id="Trazado_43098" data-name="Trazado 43098" d="M1690.584,660.12l-.3.177a.069.069,0,0,0-.029.093.071.071,0,0,0,.093.029l.3-.177a.069.069,0,0,0,.012-.1.068.068,0,0,0-.081-.021Z" transform="translate(-1689.833 -659.715)" fill="#128d93"/>
            </g>
          </g>
        </g>
      </g>
      <path id="Trazado_43099" data-name="Trazado 43099" d="M1690.95,680.935s9.364,10.127,1.661,32.761l-32.42-9.973Z" transform="translate(-1565.911 -592.262)" fill="#6d31fd"/>
      <path id="Trazado_43100" data-name="Trazado 43100" d="M1684.236,664.091s-11.229,17.457-34.03,29.231l7.886,2.449s9.77-3.125,14.527-7.9l1.111-4.949,3.782,1.271s7.1-7.092,10.391-12.422A46.831,46.831,0,0,0,1684.236,664.091Z" transform="translate(-1560.602 -583.307)" fill="#5224e2"/>
      <path id="Trazado_43107" data-name="Trazado 43107" d="M1685.033,725.329c-.22.142,11.032-7.412,21.253-5.261C1700.734,720.139,1689.762,722.417,1685.033,725.329Z" transform="translate(-1579.118 -612.864)" fill="#5224e2"/>
      <path id="Trazado_43108" data-name="Trazado 43108" d="M1649.852,620.3s-5.936,6.923-8.588,4.3c-2.529-2.505,3.662-7.3,5.211-8.572S1651.51,618.352,1649.852,620.3Z" transform="translate(-1555.529 -557.608)" fill="#e2b08f"/>
      <path id="Trazado_43109" data-name="Trazado 43109" d="M1657.479,613.819a2.219,2.219,0,0,1-1.5,2.472c-1.9.869-5.471.9-9.3-6.33-2.852-5.385,2.186-5.545,3.043-4.071S1653.552,612.646,1657.479,613.819Z" transform="translate(-1558.266 -551.938)" fill="#f9cdaf"/>
      <path id="Trazado_43110" data-name="Trazado 43110" d="M1646.557,609.717c.437-1.189,1.373-1.96,3.355.868,2.83,4.039,6.224,4.469,7.4,4.489a2.062,2.062,0,0,0,.17-1.257c-3.924-1.172-6.9-6.452-7.76-7.929C1648.878,604.433,1643.988,604.572,1646.557,609.717Z" transform="translate(-1558.269 -551.936)" fill="#efbb97" opacity="0.48" style="isolation: isolate"/>
      <path id="Trazado_43111" data-name="Trazado 43111" d="M1661.311,610.256s4.357-.313,3.383-4.476c0,0-4.737-4.093-5.973-6.615,0,0-1.912-1.771-3.6-.765s-1.817,3.776-1.017,4.99S1657.038,608.592,1661.311,610.256Z" transform="translate(-1562.422 -548.214)" fill="#f9cdaf"/>
      <path id="Trazado_43112" data-name="Trazado 43112" d="M1657.16,600.745c3.7,5.743,6.663,6.517,8.13,6.455a4.712,4.712,0,0,0-.13-1.417s-4.737-4.092-5.973-6.615c0,0-1.913-1.77-3.6-.765a2.832,2.832,0,0,0-1.084,1.236A2.705,2.705,0,0,1,1657.16,600.745Z" transform="translate(-1562.886 -548.216)" fill="#efbb97" opacity="0.48" style="isolation: isolate"/>
      <path id="Trazado_43113" data-name="Trazado 43113" d="M1669.6,602.31a3.591,3.591,0,0,0,3.417-2.125c1.1-2.325-4.944-10.518-7.576-8.724s-1.106,4.946-.664,5.769S1666.939,601.8,1669.6,602.31Z" transform="translate(-1567.9 -544.554)" fill="#f9cdaf"/>
      <path id="Trazado_43114" data-name="Trazado 43114" d="M1677.472,595.892a2.251,2.251,0,0,0,2.934-.029c1.644-1.234-3.071-8.74-5.239-7.364S1676.438,595.08,1677.472,595.892Z" transform="translate(-1573.499 -543.025)" fill="#f9cdaf"/>
      <path id="Trazado_43115" data-name="Trazado 43115" d="M1674.634,590.4c1.657-1.055,4.805,3.094,5.457,5.654a3.2,3.2,0,0,0,.281-.188c1.644-1.234-3.072-8.74-5.24-7.363a1.865,1.865,0,0,0-.655,2.015A1.363,1.363,0,0,1,1674.634,590.4Z" transform="translate(-1573.466 -543.025)" fill="#efbb97" opacity="0.48" style="isolation: isolate"/>
      <path id="Trazado_43116" data-name="Trazado 43116" d="M1664.792,593.649c2.259-1.54,7.029,4.276,7.642,7.427a4.009,4.009,0,0,0,.568-.888c1.1-2.325-4.944-10.517-7.577-8.724a3.27,3.27,0,0,0-1.5,3A3.616,3.616,0,0,1,1664.792,593.649Z" transform="translate(-1567.89 -544.556)" fill="#efbb97" opacity="0.48" style="isolation: isolate"/>
    </g>
    <g id="Grupo_40229" data-name="Grupo 40229" transform="translate(1260.245 360.659)">
      <path id="Trazado_43063" data-name="Trazado 43063" d="M1602.033,650.854l2.6-3.045s5.477-5.345,9.392-5.274,2.544-5.834-2.517-5.145-8.6,3.19-9.294,5.542S1602.033,650.854,1602.033,650.854Z" transform="translate(-1592.64 -637.334)" fill="#f9cdaf"/>
      <path id="Trazado_43064" data-name="Trazado 43064" d="M1616.289,637.4a18.391,18.391,0,0,0-2.529.527c-.03.044-.062.086-.091.131-1.219,1.92-2.819,8.484-2.819,8.484s5.236-7.4,10.217-5.843C1621.125,639.055,1619.41,636.975,1616.289,637.4Z" transform="translate(-1597.426 -637.339)" fill="#efbb97"/>
      <path id="Trazado_43101" data-name="Trazado 43101" d="M1589.206,669.812l-7.021-11.071,10.73-8.369,4.476,15.288Z" transform="translate(-1582.185 -644.266)" fill="#f9cdaf"/>
      <path id="Trazado_43102" data-name="Trazado 43102" d="M1604.008,666.45l-3.548-7.666-16.064,9.259,3.624,8.834Z" transform="translate(-1583.361 -648.739)" fill="#dbb100"/>
      <path id="Trazado_43129" data-name="Trazado 43129" d="M1622.565,703.367c-9.875-6.18-20.545-39.211-20.545-39.211l-4.622,2.74-.273,3.409-2.941-1.272-11.45,4.454s12.558,45.983,34.429,57.171,34.5-25.364,35.369-29.451-25.085-5.429-25.085-5.429S1625.868,705.435,1622.565,703.367Z" transform="translate(-1582.477 -651.596)" fill="#6d31fd"/>
    </g>
    <path id="Trazado_43130" data-name="Trazado 43130" d="M1248.181,271.691s9.566,7.045,8.082,17.024c-2.713,18.249-32.563,39.291-22.048,90.931,12.707,62.4,86.97,104.866,157,68.644s76.517-125.309,20.059-172.232C1343.155,219.441,1278.858,278.731,1248.181,271.691Z" transform="translate(-135.737 -71.435)" fill="#85dbf0" opacity="0.862"/>
    <path id="Trazado_43131" data-name="Trazado 43131" d="M1622.5,381.887a84.733,84.733,0,0,0-10.31-19.367l11.443-8.15a98.741,98.741,0,0,1,12.02,22.581Z" transform="translate(-337.892 -126.224)" fill="#fff" opacity="0.61"/>
    <path id="Trazado_43132" data-name="Trazado 43132" d="M1643.67,489.432l-12.864-5.645a82.53,82.53,0,0,0,6.442-24.228,83.415,83.415,0,0,0-1.746-28.314l13.672-3.231a97.513,97.513,0,0,1-5.5,61.418Z" transform="translate(-347.792 -165.38)" fill="#fff" opacity="0.61"/>
    <g id="Grupo_40230" data-name="Grupo 40230" transform="translate(1256.487 343.978)">
      <path id="Trazado_43065" data-name="Trazado 43065" d="M1600.918,626.287l2.931,4.242s2.956-4.932,4.87-8.852c1.113-2.278,3.407-6.605,3.151-9.031s-3.163-6.2-4.246-9.2-4.88-1.673-5.231.749,1.771,13.151,1.771,13.151Z" transform="translate(-1588.388 -601.715)" fill="#f9cdaf"/>
      <path id="Trazado_43066" data-name="Trazado 43066" d="M1609.058,607.088a24.69,24.69,0,0,0,2.822,5.424c1.417,1.958,2.615,3.2,2.475,4.3-.422,3.384-3.306,6.679-3.306,6.679Z" transform="translate(-1592.716 -604.572)" fill="#efbb97"/>
      <path id="Trazado_43133" data-name="Trazado 43133" d="M1609.55,609.262a12.775,12.775,0,0,1-.724-2.174,5.587,5.587,0,0,0,.491,4.181Z" transform="translate(-1592.484 -604.572)" fill="#efbb97"/>
      <path id="Trazado_43103" data-name="Trazado 43103" d="M1589.006,626.5s-8.069,8.642-9.911,8.579c-1.419-.047-6.536-3.549-4.432-8.9a11.069,11.069,0,0,1,6.384-6.112s2.967-5.239,6.779-6.582c0,0-4.024-4.232-2.4-9.049,1.544-4.571,5.225-2.107,5.078-.137-.149,2,1.364,5.1,3.781,8.12S1589.006,626.5,1589.006,626.5Z" transform="translate(-1574.162 -601.782)" fill="#f9cdaf"/>
      <path id="Trazado_43104" data-name="Trazado 43104" d="M1597.815,616.351s-.252,1.049,1.1,3.23,4.293,4.72,2.441,7.156a9.13,9.13,0,0,0,2.674-3.542C1604.852,621.251,1604.318,619.756,1597.815,616.351Z" transform="translate(-1586.728 -609.497)" fill="#efbb97"/>
      <path id="Trazado_43106" data-name="Trazado 43106" d="M1595.776,625.277s2.073-2.686,2.143-4.718-5.273-4.641-8.128-6.594-4.522,4.689,2.146,7.078a15.426,15.426,0,0,0-3.913,5.288Z" transform="translate(-1581.142 -608.04)" fill="#f9cdaf"/>
    </g>
    <path id="Trazado_43070" data-name="Trazado 43070" d="M1264.533,290.286s1.853-.961,2.665-.232.129,2.623-2.017,2.283c0,0,2.061,1.335,1.31,2.382s-2.962-1.914-2.962-1.914,1.638,1.323,2.054,1.081-1.135-1.809-1.135-1.809,2.086-.1,2.141-.812S1264.533,290.286,1264.533,290.286Z" transform="translate(-152.511 -91.882)" fill="#6d4d37"/>
  </g>
</svg>
