<svg xmlns="http://www.w3.org/2000/svg" xmlns:xlink="http://www.w3.org/1999/xlink" width="414" height="736" viewBox="0 0 414 736">
  <defs>
    <clipPath id="clip-path">
      <rect id="Rectángulo_5894" data-name="Rectángulo 5894" width="414" height="736" fill="none" stroke="#707070" stroke-width="1"/>
    </clipPath>
  </defs>
  <g id="Enmascarar_grupo_39938" data-name="Enmascarar grupo 39938" clip-path="url(#clip-path)">
    <path id="Trazado_43134" data-name="Trazado 43134" d="M1613.138-30.086s10.838,98.483-61.859,120.164S1394.829,72.126,1307,26.553,1192.654,28,1218.5,63.389s163.127,86.948,98.35,167.959-166.528-94.276-188.915-96.774-6.382,30.364-30.975,27.192-22.437-27.593-47-18.217S1032.31,305.514,930.2,289.274s-45.689-121.99-22.044-167.819,17.03-126.411-16.672-101.17c-30.633,22.942-130.945,226.2-201.978,146.4C624.158,93.269,770.6,12.877,783.225-30.047s-58.508-29.372-63.894-68.711c-5.135-37.51,54.353-37.413,51.74-71.489S663.816-217,662.08-320.256s89.28-121.755,136.482-89.973S869.806-261.2,912.975-269.968s-15.54-130.8,12.751-142.893,26.69,34.2,42.276,27.383,24.372-75.239,65.877-66.554S1049.4-324,1094.229-325.314s25.028-56.4,67.392-152.458,102.921-84.31,128.874-79.276,54.372,55.675,22.457,120.68-39.386,80.954-23.715,95,58.669.559,106.391-45.149,97.4-48.861,115.913-32.112,62.422,53.135-7.687,96.345c-.7.432-12.731,7.842-13.629,8.408a18.558,18.558,0,0,0-3.351,2c-34.686,22.253-6.134,58.379,40.872,47.412,1.283-.3-15.69-3.222-14.115-3.675,54.868-15.756,74.858,29.423,2.142,59.249s-85.651,67.708-26.241,94.606S1600.489-80.25,1613.138-30.086Z" transform="matrix(-0.105, 0.995, -0.995, -0.105, 177.925, -792.789)" fill="#fde375"/>
    <path id="Trazado_43135" data-name="Trazado 43135" d="M-11174.289,10506.791c-5.372-8.009-7.537-12.713-10.429-16.785-3.351-4.723-7.8-8.228-21.323-15.549-23.977-12.98,5.723-33.3,37.33-15.368S-11155.615,10523.916-11174.289,10506.791Z" transform="translate(13367.145 -7293.693) rotate(13)" fill="#fff"/>
  </g>
</svg>
