<svg xmlns="http://www.w3.org/2000/svg" xmlns:xlink="http://www.w3.org/1999/xlink" width="333" height="326" viewBox="0 0 333 326">
  <defs>
    <clipPath id="clip-path">
      <path id="Trazado_43127" data-name="Trazado 43127" d="M1166.083,189.719l-2.769-46.635-5.564-8.275-8.544-12.844-29.669-4.992-7.822,27.307,8.175,6.176-1.405,9.773-38.855,33.98,58.4,18.047,6.776-21.91,6.537-.187Z" transform="translate(-1079.631 -116.973)" fill="none"/>
    </clipPath>
  </defs>
  <g id="Grupo_40235" data-name="Grupo 40235" transform="translate(-42 -134)">
    <g id="Grupo_40234" data-name="Grupo 40234" transform="translate(-931.611 34.187)">
      <g id="Grupo_34792" data-name="Grupo 34792" transform="translate(976.69 116.973)">
        <g id="Grupo_40214" data-name="Grupo 40214">
          <path id="Trazado_42993" data-name="Trazado 42993" d="M1148.162,340.056s7.029,1.784,6.067,4.673c-.917,2.757-6.508.008-7.958-.653S1146.191,339.559,1148.162,340.056Z" transform="translate(-1084.842 -259.726)" fill="#876148"/>
          <path id="Trazado_42996" data-name="Trazado 42996" d="M1247.211,154.044l-56.42-17.449,12.066-4.575,56.42,17.449Z" transform="translate(-1113.723 -126.604)" fill="#6d31fd"/>
          <path id="Trazado_42997" data-name="Trazado 42997" d="M1275.573,185.06l-40.479,130.885,12.416-5.706L1287.635,180.5Z" transform="translate(-1142.078 -157.631)" fill="#5224e2"/>
          <path id="Trazado_42998" data-name="Trazado 42998" d="M1025.3,279.272,1069.7,293l40.475-130.872-56.413-17.471-67.3,58.766-9.772,31.6,56.859,17.585Z" transform="translate(-976.69 -134.694)" fill="#a176ff"/>
          <path id="Trazado_42999" data-name="Trazado 42999" d="M1105.947,339.039l17.726,5.546a3.168,3.168,0,0,1-4.337,2.306s-2.977,2.481-4.946-1.293a2.239,2.239,0,0,1-2.322,1.364,2.4,2.4,0,0,1-2.225-2.483,1.979,1.979,0,0,1-2.47-.339C1106.1,342.974,1105.947,339.039,1105.947,339.039Z" transform="translate(-1059.42 -259.104)" fill="#6d31fd" opacity="0.32" style="isolation: isolate"/>
          <path id="Trazado_43000" data-name="Trazado 43000" d="M1138.1,275.515l15.858-51.274-26.784-8.294L1079.7,257.468Z" transform="translate(-1042.622 -180.32)" fill="#fde375"/>
          <path id="Trazado_43001" data-name="Trazado 43001" d="M1137.746,219.216l-45.856,42.015-12.208-3.768,47.475-41.521Z" transform="translate(-1042.609 -180.317)" fill="#422c9b"/>
          <path id="Trazado_43002" data-name="Trazado 43002" d="M1208.372,154.962l-30.3-7.5s-2.31,1.407-1.865,3.4a4.276,4.276,0,0,0-2.923,5.99s-3.841,10.74,8.516,12.705c0,0-6.565,8.576-4.292,13.876l4.93.994.338,4.322,16.57-17.562Z" transform="translate(-1102.155 -136.486)" fill="#6d31fd" opacity="0.32" style="isolation: isolate"/>
          <g id="Grupo_40195" data-name="Grupo 40195" transform="translate(37.055)">
            <g id="Grupo_40227" data-name="Grupo 40227">
              <g id="Grupo_40226" data-name="Grupo 40226" clip-path="url(#clip-path)">
                <g id="Grupo_40194" data-name="Grupo 40194" transform="translate(-7.591 4.006)">
                  <g id="Grupo_40193" data-name="Grupo 40193">
                    <path id="Trazado_43014" data-name="Trazado 43014" d="M1302.617,255.8s3.06,3.851-2.123,8.694l-.981-9.654Z" transform="translate(-1212.772 -209.222)" fill="#e00b71"/>
                    <path id="Trazado_43015" data-name="Trazado 43015" d="M1205.656,298.219s1.368-1.248,6.378,2.3a51.44,51.44,0,0,1,8.5,7.056c.982,1.137,2.06,2.687,1.45,3.5s-2.952.225-2.952.225l-3.183,1.3-10.89-8.125S1203.835,300.175,1205.656,298.219Z" transform="translate(-1152.034 -236.847)" fill="#006070"/>
                    <g id="Grupo_40192" data-name="Grupo 40192" transform="translate(43.068)">
                      <path id="Trazado_43016" data-name="Trazado 43016" d="M1200.665,182.875l-.578,2.734s-4.376,1.591-10.825-1.156-13.036-7.236-10.529-11.561S1200.665,182.875,1200.665,182.875Z" transform="translate(-1178.188 -156.248)" fill="#e00b71"/>
                      <path id="Trazado_43017" data-name="Trazado 43017" d="M1247.941,161.087l.794.227s6.288-3.161,6.531-10.167-2.1-14.593-7.077-14.156S1247.941,161.087,1247.941,161.087Z" transform="translate(-1221.532 -133.78)" fill="#e00b71"/>
                      <path id="Trazado_43018" data-name="Trazado 43018" d="M1222.693,154.711s7.482-5.7,3.046-17.183-12.17-9.35-13.642-8.321c0,0-5-2.063-6.7,2.014,0,0-1.806,5.381-1.182,7.571s14.762,18.065,14.762,18.065Z" transform="translate(-1194.76 -128.261)" fill="#f80a73"/>
                      <path id="Trazado_43019" data-name="Trazado 43019" d="M1205.235,158.079s-11.716-24.822-18.207-24.6-4.167,7.442-4.167,7.442-4.55,2.517-3.461,7.267,8.505,10.841,21.355,12.716Z" transform="translate(-1178.856 -131.54)" fill="#fc4c96"/>
                      <path id="Trazado_43020" data-name="Trazado 43020" d="M1232.179,152.966a4.942,4.942,0,0,1-.129-.874c-.386-1.416-.79-8.588-8.025-21.134l-1.48-2.074a.376.376,0,0,1,.1-.483c.346-.267,1.088-.573,2.324.146,1.81,1.055,10.108,17.763,8.4,23.985C1233.373,152.531,1233.269,153.721,1232.179,152.966Z" transform="translate(-1206.547 -128.102)" fill="#e00b71"/>
                      <path id="Trazado_43021" data-name="Trazado 43021" d="M1204.979,168.18s-17.8-16.105-19.274-17.817c-.822-.951-2.276.956-1.257,2.387s13.776,13.94,20,16.062Z" transform="translate(-1181.971 -142.186)" fill="#e00b71"/>
                      <path id="Trazado_43022" data-name="Trazado 43022" d="M1263.391,185.866s-8.048-7.921-16.441.5l-1.375-.159s4.156-8.31,14.5-5.231a13.825,13.825,0,0,1,4.393,2.714Z" transform="translate(-1221.318 -161.506)" fill="#bc0f65"/>
                      <path id="Trazado_43023" data-name="Trazado 43023" d="M1208.207,201.187s-8.758-1.938-12.355,4.131-3.177,10.294-3.177,10.294a7.982,7.982,0,0,1-2.87-.821s1.56-19.939,18.53-15.348Z" transform="translate(-1185.624 -173.324)" fill="#bc0f65"/>
                    </g>
                    <path id="Trazado_43024" data-name="Trazado 43024" d="M1214.533,296.664l-9.374,11.039,7.136,4.712s8.553-9.31,9.568-12.626Z" transform="translate(-1152.382 -235.988)" fill="#a57758"/>
                    <path id="Trazado_43025" data-name="Trazado 43025" d="M1200.23,310.113s12.215,3.338,15.111,12.644c.936,3-5.563,1.42-5.563,1.42l-3.573,1.208-7.536-4.845Z" transform="translate(-1148.228 -244.596)" fill="#a57758"/>
                    <path id="Trazado_43026" data-name="Trazado 43026" d="M1100.74,350.672s7.68,8.238,29.387,19.091c0,0,21.506-23.981,23.085-45.224,0,0-10.189-1.459-18.891-12.165C1134.32,312.375,1113.948,320.014,1100.74,350.672Z" transform="translate(-1085.55 -246.043)" fill="#fccc05"/>
                    <path id="Trazado_43027" data-name="Trazado 43027" d="M1160.472,341.638a15.616,15.616,0,0,1-1.757-.4l-2.559-1.24-1.83-.408c-.289-.135-.586-.28-.888-.433-1.2,3.33-9.361,22.8-34.727,16.1l-6.57,16.149c.586.464,1.237.967,1.961,1.507l23.286,13.951S1158.894,362.88,1160.472,341.638Z" transform="translate(-1092.847 -263.184)" fill="#dbb100" opacity="0.5" style="isolation: isolate"/>
                    <path id="Trazado_43028" data-name="Trazado 43028" d="M1196.669,311.53s4.975,7.612,16.067,11.113l-.214,1.967s-7.208-.126-17.274-10.787Z" transform="translate(-1146.039 -245.503)" fill="#6d31fd"/>
                    <path id="Trazado_43029" data-name="Trazado 43029" d="M1227.618,303.767a16.583,16.583,0,0,0,2.365-3.988l-7.33-3.124-4.808,5.662Z" transform="translate(-1160.501 -235.982)" fill="#876148"/>
                    <path id="Trazado_43030" data-name="Trazado 43030" d="M1247.953,199.307s2.232-3.636-2.592-5.428-9.37.92-9.105,4.673S1247.953,199.307,1247.953,199.307Z" transform="translate(-1172.279 -169.839)" fill="#6d31fd"/>
                    <path id="Trazado_43031" data-name="Trazado 43031" d="M1245.359,193.878c3.245,1.206,3.3,3.245,2.983,4.452a4.986,4.986,0,0,0-2.659-1.921c-4.145-1.54-8.083.249-8.942,3.163a1.507,1.507,0,0,1-.488-1.02C1235.989,194.8,1240.536,192.085,1245.359,193.878Z" transform="translate(-1172.277 -169.839)" fill="#a176ff" opacity="0.5" style="isolation: isolate"/>
                    <circle id="Elipse_1389" data-name="Elipse 1389" cx="16.506" cy="16.506" r="16.506" transform="translate(55.78 33.763)" fill="#a57758"/>
                    <path id="Trazado_43032" data-name="Trazado 43032" d="M1217.871,237.757a5.061,5.061,0,0,0,5.228-.538,8.519,8.519,0,0,0,7.546-.808s2.6,1.678,3.784.133c0,0,1.74,3.534,9.47,3.966,0,0,1.068,2.655,5.369,3.2a32.725,32.725,0,0,0-.157-6.03c-.4-2.886-12.738-9.717-20.939-9.31S1217.871,237.757,1217.871,237.757Z" transform="translate(-1160.519 -192.269)" fill="#876148" opacity="0.58" style="isolation: isolate"/>
                    <path id="Trazado_43033" data-name="Trazado 43033" d="M1203.582,267.167s-1.909,2.537-1.617,4.722c0,0-.148.6,1.764.7,0,0-1.432-.024.647-4.566Z" transform="translate(-1150.319 -217.109)" fill="#dbb100"/>
                    <path id="Trazado_43034" data-name="Trazado 43034" d="M1214.364,220.228a6.173,6.173,0,0,1-4.6,2.509,3.615,3.615,0,0,1-2.638.386s-3.907-13.251,9.4-16.292a7.115,7.115,0,0,1,8.452-1.283,10.98,10.98,0,0,1,7.2.531c4.209,1.623,4.913,4.778,4.913,4.778s5.935,1.174,5.812,7.371c0,0,4.587,3.461-.812,8.8a9.3,9.3,0,0,1-4.775-4.011s-2.915.988-9.449-4.054a4.509,4.509,0,0,1-3.111.077S1221.58,222.518,1214.364,220.228Z" transform="translate(-1153.299 -177.126)" fill="#f80a73"/>
                    <circle id="Elipse_1390" data-name="Elipse 1390" cx="3.411" cy="3.411" r="3.411" transform="translate(52.429 45.041)" fill="#a57758"/>
                    <path id="Trazado_43035" data-name="Trazado 43035" d="M1264.118,268.158l-.321-.756a4.284,4.284,0,0,1,4.952,1.281l-.654.5A3.4,3.4,0,0,0,1264.118,268.158Z" transform="translate(-1189.913 -217.059)" fill="#fccc05"/>
                    <path id="Trazado_43036" data-name="Trazado 43036" d="M1209.681,260.511a1.05,1.05,0,0,1,1.091,1.006,1.134,1.134,0,0,1,0,.138c-.066,1.151-.935,1.17-1.3,1.03a.473.473,0,0,1,.061-.859c.37-.091.541.335.541.335a1.165,1.165,0,0,0-.332-1.613C1209.722,260.536,1209.7,260.523,1209.681,260.511Z" transform="translate(-1154.984 -212.848)" fill="#876148"/>
                    <rect id="Rectángulo_5901" data-name="Rectángulo 5901" width="5.936" height="12.166" transform="translate(77.088 55.26) rotate(-75.533)" fill="#1e1e21"/>
                    <path id="Trazado_43037" data-name="Trazado 43037" d="M1283.682,268.7l5.034,1.3-2.74,2.1,2.22.573-2.708,2.627-4.6-1.186,2.966-2.972-2.061-.532Z" transform="translate(-1200.853 -218.093)" fill="#83838e"/>
                    <path id="Trazado_43038" data-name="Trazado 43038" d="M1205.66,269.658c-.048,1.006-.329,4.326-2.286,4.707a1.3,1.3,0,0,1-1.346-1.185s2.034-.078,2.618-3.676c0,0,.015-.349.452-.32A.536.536,0,0,1,1205.66,269.658Z" transform="translate(-1150.378 -218.399)" fill="#fccc05"/>
                    <line id="Línea_3" data-name="Línea 3" x2="6.66" y2="2.072" transform="translate(56.686 45.281)" fill="none" stroke="#fccc05" stroke-miterlimit="10" stroke-width="2.122"/>
                    <rect id="Rectángulo_5902" data-name="Rectángulo 5902" width="5.936" height="12.166" transform="translate(61.55 51.443) rotate(-75.533)" fill="#1e1e21"/>
                    <path id="Trazado_43039" data-name="Trazado 43039" d="M1240.515,258.106l5.034,1.3-2.74,2.1,2.22.573-2.708,2.627-4.6-1.187,2.965-2.972-2.062-.532Z" transform="translate(-1173.225 -211.309)" fill="#83838e"/>
                    <path id="Trazado_43040" data-name="Trazado 43040" d="M1108.819,297.2s2.043,3.127,1.027,4.542-12.134,12.177-20.662,24.244-11.044,17.594-11.706,18.709-1.484,3.223-3.662,2.7-9.924-3.807-14.284-10.258c0,0-2.047-1.677-.255-7.446s15.556-29.848,36.678-39.993Z" transform="translate(-1058.541 -231.526)" fill="#2bbee0"/>
                    <path id="Trazado_43041" data-name="Trazado 43041" d="M1116.742,343.052c8.529-12.07,19.647-22.83,20.662-24.244a2.8,2.8,0,0,0,0-2.451,1.625,1.625,0,0,1-.2.386c-1.09,1.518-12.8,13.218-21.962,26.159s-11.95,18.8-12.669,19.993c-.273.453-.578,1.057-.97,1.609,2.01.331,2.8-1.665,3.435-2.741C1105.7,360.646,1108.214,355.12,1116.742,343.052Z" transform="translate(-1086.1 -248.592)" fill="#c9ebf5"/>
                    <path id="Trazado_43042" data-name="Trazado 43042" d="M1111.339,302.563a16.039,16.039,0,0,1,5.37,1.613l18.8-3.687,7.421-1.761h0l2.189-3.545a28.975,28.975,0,0,0-19.392-5.89l-11.482,7.532Z" transform="translate(-1092.334 -231.234)" fill="#2bbee0"/>
                    <path id="Trazado_43043" data-name="Trazado 43043" d="M1203.107,300.077s-3.365-2.362-5.072-1.54.944,2.958.944,2.958a1.384,1.384,0,0,1,.384,1.919h0c-.764,1.1-2.991,3.793-3.649,4.043a1.622,1.622,0,0,1-1.6-.236,7.186,7.186,0,0,1-2.563-4.288,3.2,3.2,0,0,1,.727-2.159c.9-1.411,3.571-3.525,4.839-3.712,1.93-.284,4.043.778,6.478,2.446Z" transform="translate(-1143.661 -236.213)" fill="#0e7992"/>
                    <path id="Trazado_43044" data-name="Trazado 43044" d="M1229.19,339.6s-.779,13.406-10.171,29.346l6.271,1.3,10.222-31.267Z" transform="translate(-1161.253 -263.073)" fill="#2bbee0"/>
                    <path id="Trazado_43045" data-name="Trazado 43045" d="M1201.584,343.915s-3.616,26.05-24.413,46.2l1.384.428s17.082-13.048,24.689-47.375Z" transform="translate(-1134.469 -265.753)" fill="#c9ebf5"/>
                    <path id="Trazado_43046" data-name="Trazado 43046" d="M1233.235,318.24s3.2,2.877,2.781,4.726-3.1-.251-3.1-.251a1.383,1.383,0,0,0-1.956.06h0c-.9.991-3.02,3.77-3.115,4.469a1.621,1.621,0,0,0,.594,1.51,7.185,7.185,0,0,0,4.756,1.528s.768,0,1.939-1.2,2.628-4.278,2.523-5.553c-.16-1.943-1.807-3.888-3.979-5.883Z" transform="translate(-1166.894 -249.42)" fill="#0e7992"/>
                    <path id="Trazado_43047" data-name="Trazado 43047" d="M1087.495,305.156c.04-.129,3-4.094,3-4.094s12.417-14.191,23.992-11.846c0,0-1.919,15.051-15.091,19.619Z" transform="translate(-1077.073 -231.054)" fill="#0e7992"/>
                    <path id="Trazado_43048" data-name="Trazado 43048" d="M1301.819,240.394s-.507,5.311-3.136,8.122a.439.439,0,0,0,.165.53c.456.353.579.136.724.05a8.377,8.377,0,0,0,3.333-7.03c-.049-.548-.023-.312-.084-.787C1302.72,240.5,1302.074,239.989,1301.819,240.394Z" transform="translate(-1212.221 -199.882)" fill="#e00b71"/>
                  </g>
                  <path id="Trazado_43049" data-name="Trazado 43049" d="M1223.643,212.624s-.41,12.9,1.453,13.417c0,0,.952.272,1.24-.488.206-.541-.4-12.984-1.709-13.623C1223.842,211.545,1223.643,212.624,1223.643,212.624Z" transform="translate(-1164.188 -181.702)" fill="#e00b71"/>
                  <path id="Trazado_43050" data-name="Trazado 43050" d="M1248.67,218.925a.839.839,0,0,1-.611-.956c.963-5.689-3.578-14.622-3.625-14.711l-.069-.133.035-.146a1.14,1.14,0,0,1,.505-.777.927.927,0,0,1,.75-.06,1.574,1.574,0,0,1,.456.235l.028.022.025.027c2.688,2.989,4.145,9.3,4.328,12.012.141,2.1-.124,3.6-.747,4.232a.953.953,0,0,1-.748.312,1.34,1.34,0,0,1-.327-.056Z" transform="translate(-1177.476 -175.456)" fill="#e00b71"/>
                  <path id="Trazado_43051" data-name="Trazado 43051" d="M1275.413,207.353s6.233,2.59,5.31,17.182c0,0-.143.792.791.786.69,0,2.835-6.373.012-13.2C1279.259,206.633,1274.849,206.35,1275.413,207.353Z" transform="translate(-1197.316 -178.535)" fill="#e00b71"/>
                  <path id="Trazado_43052" data-name="Trazado 43052" d="M1148.048,340.428s7.029,1.784,6.067,4.673c-.918,2.757-6.508.008-7.958-.653S1146.076,339.931,1148.048,340.428Z" transform="translate(-1114.232 -263.97)" fill="#876148"/>
                </g>
              </g>
            </g>
          </g>
          <path id="Trazado_43054" data-name="Trazado 43054" d="M1141.8,328.793a1.764,1.764,0,0,1,2.212-.623c1.575.522,3.672,2.443,1.978,8.723-1.262,4.678-4.279,2.042-3.977.718S1143.444,331.6,1141.8,328.793Z" transform="translate(-1082.366 -252.042)" fill="#a57758"/>
          <path id="Trazado_43055" data-name="Trazado 43055" d="M1145.928,337.362c-.9.455-1.861.4-1.481-2.324.545-3.883-1.193-5.972-1.868-6.621a1.637,1.637,0,0,0-.78.639c1.646,2.809.516,7.494.213,8.817C1141.714,339.177,1144.633,341.747,1145.928,337.362Z" transform="translate(-1082.366 -252.306)" fill="#876148" opacity="0.45" style="isolation: isolate"/>
          <path id="Trazado_43056" data-name="Trazado 43056" d="M1134.536,329.04s-2.7-2.179-4.393.769c0,0,.536,4.947-.113,7.084,0,0,.153,2.066,1.679,2.4a3.135,3.135,0,0,0,3.3-2.35C1135.2,335.8,1136.117,332.326,1134.536,329.04Z" transform="translate(-1074.833 -252.208)" fill="#a57758"/>
          <path id="Trazado_43057" data-name="Trazado 43057" d="M1132.063,338.229c.964-5.343-.341-7.4-1.23-8.159a3.773,3.773,0,0,0-.692.895s.536,4.947-.113,7.085c0,0,.152,2.066,1.679,2.4a2.249,2.249,0,0,0,1.3-.131A2.154,2.154,0,0,1,1132.063,338.229Z" transform="translate(-1074.833 -253.364)" fill="#876148" opacity="0.45" style="isolation: isolate"/>
          <path id="Trazado_43058" data-name="Trazado 43058" d="M1122.685,331.621a2.855,2.855,0,0,0-3.139-.617c-1.9.756-2.826,8.8-.325,9.18s3.325-2.276,3.511-2.992S1123.954,333.359,1122.685,331.621Z" transform="translate(-1066.943 -253.817)" fill="#a57758"/>
          <path id="Trazado_43059" data-name="Trazado 43059" d="M1113.955,334.79a1.79,1.79,0,0,0-1.723-1.573c-1.625-.174-2.951,6.749-.945,7.122S1114.116,335.822,1113.955,334.79Z" transform="translate(-1062.19 -255.376)" fill="#a57758"/>
          <path id="Trazado_43060" data-name="Trazado 43060" d="M1112.607,339.507c-1.538-.285-1.117-4.406-.109-6.246a2.458,2.458,0,0,0-.265-.042c-1.625-.174-2.951,6.749-.945,7.122a1.481,1.481,0,0,0,1.474-.817A1.12,1.12,0,0,1,1112.607,339.507Z" transform="translate(-1062.19 -255.377)" fill="#876148" opacity="0.45" style="isolation: isolate"/>
          <path id="Trazado_43061" data-name="Trazado 43061" d="M1120.775,339.293c-2.147-.33-1.768-6.3-.417-8.462a3.129,3.129,0,0,0-.813.209c-1.9.756-2.826,8.8-.324,9.18a2.6,2.6,0,0,0,2.5-.932A2.907,2.907,0,0,1,1120.775,339.293Z" transform="translate(-1066.942 -253.85)" fill="#876148" opacity="0.45" style="isolation: isolate"/>
        </g>
      </g>
      <ellipse id="Elipse_1399" data-name="Elipse 1399" cx="58.714" cy="5.111" rx="58.714" ry="5.111" transform="translate(1179.697 403.065)" fill="#fccc05"/>
      <g id="Grupo_40228" data-name="Grupo 40228" transform="translate(1150.255 251.819)">
        <path id="Trazado_42994" data-name="Trazado 42994" d="M1739.033,514.634l-58.88-18.287,12.6-4.761,58.88,18.287Z" transform="translate(-1600.499 -491.586)" fill="#6d31fd"/>
        <path id="Trazado_42995" data-name="Trazado 42995" d="M1768.307,547.1l-42.423,136.592,12.977-5.966,42.053-135.4Z" transform="translate(-1629.768 -524.06)" fill="#5224e2"/>
        <path id="Trazado_43003" data-name="Trazado 43003" d="M1506.618,644.613l48.364,15.021,42.42-136.579-58.873-18.311-70.335,61.266-9.326,30.028,56.83,19.337Z" transform="translate(-1458.868 -500.008)" fill="#a176ff"/>
        <path id="Trazado_43006" data-name="Trazado 43006" d="M1760.023,538.227l3.867-.761s8.554,1.887,10.217,8.837l1.832-2.277,4.719,3.626-2.153,1.978,2.494-.271.125,4.715-2.941.195s2.8,2.652,1.311,8.221-7.012,11.134-7.79,13.393c-2.381,6.912-6.713,13.2-14.792,11.426l13.114-39.7Z" transform="translate(-1649.628 -520.951)" fill="#6d31fd" opacity="0.32" style="isolation: isolate"/>
        <path id="Trazado_43007" data-name="Trazado 43007" d="M1624.915,641.4l16.62-53.51-27.952-8.693-49.616,43.289Z" transform="translate(-1526.135 -547.659)" fill="#fde375"/>
        <path id="Trazado_43008" data-name="Trazado 43008" d="M1624.633,582.629l-47.93,43.8-12.74-3.949,49.616-43.288Z" transform="translate(-1526.133 -547.66)" fill="#422c9b"/>
        <path id="Trazado_43009" data-name="Trazado 43009" d="M1664.1,615.485l3.81.35s14,10.823,17.519,20.18l-21.839-4.6Z" transform="translate(-1589.901 -570.886)" fill="#1e1291"/>
        <path id="Trazado_43010" data-name="Trazado 43010" d="M1595.916,609.94s33.7,20.111,24.136,50.605l-60.378-18.886Z" transform="translate(-1523.388 -567.337)" fill="#fccc05"/>
        <path id="Trazado_43011" data-name="Trazado 43011" d="M1630.463,623.514l.658,2.082-8.74,7.712,2.6-4.981Z" transform="translate(-1563.522 -576.025)" fill="#6d31fd"/>
        <path id="Trazado_43012" data-name="Trazado 43012" d="M1602.7,610.71s-22.812,15.6-36.586,31.162l-6.44-2.015s21.47-18.823,26.41-23.111l1.674.344.052-1.858s4.41-4.1,9.58-8.108A33.194,33.194,0,0,1,1602.7,610.71Z" transform="translate(-1523.388 -565.535)" fill="#5224e2"/>
        <path id="Trazado_43013" data-name="Trazado 43013" d="M1629.976,643l-30.593,24.243,3.443,1.209,29.436-22.522Z" transform="translate(-1548.803 -588.494)" fill="#dbb100" opacity="0.5" style="isolation: isolate"/>
        <g id="Grupo_40212" data-name="Grupo 40212" transform="translate(75.155 13.437)">
          <path id="Trazado_43071" data-name="Trazado 43071" d="M1680.279,621.927a79.787,79.787,0,0,1,10.287,10.01s.577.676.349,1.147-1.425,2.968-1.425,2.968a1.47,1.47,0,0,1-1.077.616c-.766.089-8.34.334-8.34.334s-1.035.054-1.12-.725c-.06-.521.318-4.789.318-4.789l-3.857,1.216s-.986.323-.993-.508c-.008-1.1.623-7.45.623-7.45a1.357,1.357,0,0,1,.6-1.164,23.4,23.4,0,0,1,3.712-1.672A.871.871,0,0,1,1680.279,621.927Z" transform="translate(-1671.985 -588.354)" fill="#dbb100"/>
          <path id="Trazado_43072" data-name="Trazado 43072" d="M1689.278,624.982l9.712,9.481s-5.4-.024-8.46-1.544S1689.278,624.982,1689.278,624.982Z" transform="translate(-1681.155 -590.401)" fill="#a48502"/>
          <g id="Grupo_40199" data-name="Grupo 40199" transform="translate(2.319)">
            <path id="Trazado_43073" data-name="Trazado 43073" d="M1724.742,554.459s7.927,3.724,5.446,11.149-5.535,7.274-7.193,10.99-7.551,10.5-16.752,4.457l1.1-1.572s-5.558,1.274-9.505-1.652-4.91-4.228-7.123-5.477-4.063-3.4-3.639-5.85-1.194-5.811-3.288-9.059,20.4-14.3,20.4-14.3l15.317,4.4Z" transform="translate(-1680.212 -538.024)" fill="#2bbee0"/>
            <path id="Trazado_43074" data-name="Trazado 43074" d="M1681.624,569.132c1.875,3.026,3.241,6.088,2.848,8.36-.424,2.447,1.425,4.6,3.639,5.851s3.178,2.549,7.124,5.476,9.505,1.652,9.505,1.652l-1.1,1.572c3.832,2.52,6.88,2.716,9.32,1.854,3.058-1.084,3.857-5.045,4.26-8.264a6.47,6.47,0,0,0-.469-3.868c-1.68-4.815,1.8-8.625-.8-15.52s-14.684-7.7-20.09-3.207-15.441,4.324-15.441,4.324.394,1.144.8,2.308A3.615,3.615,0,0,1,1681.624,569.132Z" transform="translate(-1678.142 -548.963)" fill="#4295a8"/>
            <circle id="Elipse_1391" data-name="Elipse 1391" cx="3.244" cy="3.244" r="3.244" transform="translate(35.052 31.926)" fill="#f9cdaf"/>
            <path id="Trazado_43075" data-name="Trazado 43075" d="M1697.208,624.143l6.566-6.4-6.958-6.771-7.079,6.7-.931.878s-.541,3.605,1.191,5.057c1.674,1.406,6.082,1.712,6.082,1.712Z" transform="translate(-1683.46 -581.435)" fill="#f9cdaf"/>
            <path id="Trazado_43076" data-name="Trazado 43076" d="M1698.609,610.968l5.935,7.849-3.846,3.62-9.168-4.763Z" transform="translate(-1685.255 -581.432)" fill="#efbb97"/>
            <circle id="Elipse_1392" data-name="Elipse 1392" cx="16.775" cy="16.775" r="16.775" transform="translate(8.892 7.276)" fill="#f9cdaf"/>
            <g id="Grupo_40196" data-name="Grupo 40196" transform="translate(12.55 25.708)">
              <path id="Trazado_43077" data-name="Trazado 43077" d="M1710.127,600.9s1.356-1.395,3.728.192,6.568,5.6,6.074,7.44-3.418,2.681-6.336.426S1707.066,603.219,1710.127,600.9Z" transform="translate(-1708.961 -600.334)" fill="#062625"/>
              <path id="Trazado_43078" data-name="Trazado 43078" d="M1717.913,613.474c.8-2.19-2.085-4.893-4.494-6.756a5.4,5.4,0,0,0-4.3-1.277c-.8,2.19,2.085,4.891,4.495,6.755A5.4,5.4,0,0,0,1717.913,613.474Z" transform="translate(-1708.974 -603.569)" fill="#ed1c24"/>
              <path id="Trazado_43079" data-name="Trazado 43079" d="M1719.021,607.872c1.844,1.986,3.948,4.7,3.583,6.726a4.038,4.038,0,0,0,1.158-.058c.8-2.19-2.085-4.892-4.494-6.755a7.345,7.345,0,0,0-1.145-.733A7.365,7.365,0,0,1,1719.021,607.872Z" transform="translate(-1714.825 -604.634)" fill="#fc3a49"/>
            </g>
            <path id="Trazado_43080" data-name="Trazado 43080" d="M1701.247,557.742s5.075.954,16.129-2.654c5.431-1.773,10.006,3.79,10.006,3.79s-5.191,8.766,3.652,12.122l1.137-18.673-6.667-8.017-8.52.021-15.03,10.933Z" transform="translate(-1691.474 -538.768)" fill="#efbb97" opacity="0.55" style="isolation: isolate"/>
            <path id="Trazado_43081" data-name="Trazado 43081" d="M1720.764,545.612a22.65,22.65,0,0,0-9.879-13.62c-8.33-5.324-13.7-2.5-16.178-.723s-4.237,1.6-7.268,1.267-6.64,1.125-7.7,4.731-9.947,5.916-3.023,15.422c0,0-.672-5.889,5.394-4.971s11.339-3.637,13.941-5.566,11.39-2.381,15.59,6.846c0,0-5.543,8.674,3.993,13.3C1715.632,562.3,1724.778,554.166,1720.764,545.612Z" transform="translate(-1674.096 -528.914)" fill="#2bbee0"/>
            <path id="Trazado_43082" data-name="Trazado 43082" d="M1720.093,555.32c-6.322-3.209-11.12,1.087-14.234,4.084-3.068,2.948-9.506,4.5-9.506,4.5,6.065.923,11.339-3.637,13.941-5.566s11.39-2.38,15.59,6.847C1725.882,565.184,1726.2,558.419,1720.093,555.32Z" transform="translate(-1688.341 -545.087)" fill="#0e7992"/>
            <path id="Trazado_43083" data-name="Trazado 43083" d="M1801.839,572.408l-.34-2.948a12.061,12.061,0,0,0,2.406-3.216l1.879,1.308-1.707,2.075,2.775-.246.212,2.2A10.358,10.358,0,0,0,1801.839,572.408Z" transform="translate(-1755.639 -552.807)" fill="#2bbee0"/>
            <path id="Trazado_43084" data-name="Trazado 43084" d="M1780.811,625.8a1.082,1.082,0,0,0-1.526-.1,1.125,1.125,0,0,0-.1.1c-.807.868-.2,1.528.158,1.7a.487.487,0,0,0,.594-.657c-.2-.339-.634-.163-.634-.163A1.2,1.2,0,0,1,1780.811,625.8Z" transform="translate(-1741.1 -590.693)" fill="#efbb97"/>
            <path id="Trazado_43085" data-name="Trazado 43085" d="M1786.809,581.119l5.432-2.41S1789.555,581.124,1786.809,581.119Z" transform="translate(-1746.237 -560.785)" fill="#4295a8"/>
            <path id="Trazado_43086" data-name="Trazado 43086" d="M1775.72,632.071l-1.1,1.313.161,3.911,1.759-3.692Z" transform="translate(-1738.435 -594.939)" fill="#bc0f65"/>
            <path id="Trazado_43087" data-name="Trazado 43087" d="M1775.69,633.467l-1.071-.084,1.1-1.313.818,1.532Z" transform="translate(-1738.435 -594.938)" fill="#f80a73"/>
            <path id="Trazado_43088" data-name="Trazado 43088" d="M1776,632.07l-.941,5.224,1.759-3.692Z" transform="translate(-1738.719 -594.938)" fill="#e24295" opacity="0.34" style="isolation: isolate"/>
            <path id="Trazado_43089" data-name="Trazado 43089" d="M1740.885,587.852a3.276,3.276,0,0,0-3.239-2.867l-.037-.738a4.071,4.071,0,0,1,4,3.439Z" transform="translate(-1714.746 -564.329)" fill="#ea810f"/>
            <g id="Grupo_40197" data-name="Grupo 40197" transform="translate(11.254 8.938)">
              <circle id="Elipse_1393" data-name="Elipse 1393" cx="7.086" cy="7.086" r="7.086" fill="#c0d8dd"/>
              <path id="Trazado_43090" data-name="Trazado 43090" d="M1713.656,563.316l6.153-3.806a7.086,7.086,0,0,0-3.21-3.489l-5.543,3.429,1.713,1.5-6.094,3.88a7.087,7.087,0,0,0,3.048,3.581l5.646-3.595Z" transform="translate(-1706.202 -555.201)" fill="#f0fafc"/>
            </g>
            <g id="Grupo_40198" data-name="Grupo 40198" transform="translate(24.07 20.142)">
              <rect id="Rectángulo_5903" data-name="Rectángulo 5903" width="0.638" height="4.445" transform="matrix(0.441, -0.897, 0.897, 0.441, 12.157, 10.847)" fill="#ea810f"/>
              <circle id="Elipse_1394" data-name="Elipse 1394" cx="7.086" cy="7.086" r="7.086" fill="#c0d8dd"/>
              <path id="Trazado_43091" data-name="Trazado 43091" d="M1749.256,594.449l6.152-3.806a7.087,7.087,0,0,0-3.21-3.49l-5.543,3.429,1.713,1.5-6.095,3.88a7.056,7.056,0,0,0,1.95,2.792,7.146,7.146,0,0,0,1.1.789l5.646-3.594Z" transform="translate(-1741.802 -586.332)" fill="#f0fafc"/>
            </g>
          </g>
          <path id="Trazado_43092" data-name="Trazado 43092" d="M1671.08,648.95s-6.125,7.652-1.993,9.646c2.915,1.409,4.869-4.026,6.781-5.4" transform="translate(-1667.655 -605.742)" fill="none" stroke="#1eaac1" stroke-miterlimit="10" stroke-width="1.134"/>
          <g id="Grupo_40205" data-name="Grupo 40205" transform="translate(2.779 42.27)">
            <circle id="Elipse_1395" data-name="Elipse 1395" cx="0.727" cy="0.727" r="0.727" fill="#0b6060"/>
            <g id="Grupo_40204" data-name="Grupo 40204" transform="translate(0.229 0.296)">
              <g id="Grupo_40203" data-name="Grupo 40203">
                <g id="Grupo_40202" data-name="Grupo 40202">
                  <g id="Grupo_40200" data-name="Grupo 40200" transform="translate(0.315)">
                    <path id="Trazado_43093" data-name="Trazado 43093" d="M1677.308,647.439a.161.161,0,0,1-.059.22l-.014.007s.1.13.01.206l.091-.056a.346.346,0,1,0-.326-.609l-.02.011-.014.009a.157.157,0,0,0-.073.21l0,.009.015.026.151-.088.009-.005a.161.161,0,0,1,.219.058" transform="translate(-1676.887 -647.166)" fill="#128d93"/>
                  </g>
                  <g id="Grupo_40201" data-name="Grupo 40201" transform="translate(0 0.156)">
                    <path id="Trazado_43094" data-name="Trazado 43094" d="M1676.2,648.031a.16.16,0,0,1,.058-.219h0l.014-.008s-.1-.13-.01-.206l-.095.055a.346.346,0,0,0,.346.6l.014-.008a.157.157,0,0,0,.073-.21l0-.009-.015-.025-.152.088-.009,0a.161.161,0,0,1-.219-.059" transform="translate(-1676.012 -647.598)" fill="#128d93"/>
                  </g>
                </g>
                <path id="Trazado_43095" data-name="Trazado 43095" d="M1677.1,648.032l-.234.136a.053.053,0,0,0,.053.09l.235-.135a.054.054,0,0,0,.019-.072.053.053,0,0,0-.072-.019Z" transform="translate(-1676.544 -647.715)" fill="#128d93"/>
              </g>
            </g>
          </g>
          <g id="Grupo_40211" data-name="Grupo 40211" transform="translate(7.611 46.616)">
            <circle id="Elipse_1396" data-name="Elipse 1396" cx="0.727" cy="0.727" r="0.727" fill="#0b6060"/>
            <g id="Grupo_40210" data-name="Grupo 40210" transform="translate(0.205 0.302)">
              <g id="Grupo_40209" data-name="Grupo 40209">
                <g id="Grupo_40208" data-name="Grupo 40208">
                  <g id="Grupo_40206" data-name="Grupo 40206" transform="translate(0.346)">
                    <path id="Trazado_43096" data-name="Trazado 43096" d="M1690.745,659.524a.161.161,0,0,1-.058.219l-.015.008s.1.13.01.206l.094-.055a.346.346,0,1,0-.347-.6l-.015.009a.158.158,0,0,0-.072.212l0,.008.015.025.152-.088.008,0a.159.159,0,0,1,.218.057h0" transform="translate(-1690.328 -659.257)" fill="#128d93"/>
                  </g>
                  <g id="Grupo_40207" data-name="Grupo 40207" transform="translate(0 0.149)">
                    <path id="Trazado_43097" data-name="Trazado 43097" d="M1689.581,660.1a.16.16,0,0,1,.058-.219h0l.014-.009s-.1-.13-.01-.206l-.094.055a.346.346,0,1,0,.326.609l.02-.012.015-.008a.158.158,0,0,0,.072-.211l0-.008-.015-.026-.152.088-.008,0a.16.16,0,0,1-.219-.058h0" transform="translate(-1689.367 -659.672)" fill="#128d93"/>
                  </g>
                </g>
                <path id="Trazado_43098" data-name="Trazado 43098" d="M1690.505,660.12l-.234.136a.053.053,0,0,0-.022.072.054.054,0,0,0,.072.022l.234-.136a.053.053,0,0,0,.009-.074.052.052,0,0,0-.062-.016Z" transform="translate(-1689.928 -659.809)" fill="#128d93"/>
              </g>
            </g>
          </g>
        </g>
        <path id="Trazado_43099" data-name="Trazado 43099" d="M1683.834,680.935s7.2,7.784,1.277,25.181l-24.919-7.666Z" transform="translate(-1587.723 -612.777)" fill="#6d31fd"/>
        <path id="Trazado_43100" data-name="Trazado 43100" d="M1676.364,664.091a73.062,73.062,0,0,1-26.157,22.468l6.062,1.883s7.51-2.4,11.166-6.076l.854-3.8,2.907.977s5.455-5.452,7.987-9.548A36.014,36.014,0,0,0,1676.364,664.091Z" transform="translate(-1581.332 -601.996)" fill="#5224e2"/>
        <path id="Trazado_43107" data-name="Trazado 43107" d="M1685.033,724.022c-.169.109,8.48-5.7,16.336-4.044C1697.1,720.033,1688.667,721.784,1685.033,724.022Z" transform="translate(-1603.62 -637.576)" fill="#5224e2"/>
        <path id="Trazado_43108" data-name="Trazado 43108" d="M1647.727,619.247s-4.563,5.322-6.6,3.3c-1.944-1.926,2.815-5.612,4.005-6.589S1649,617.752,1647.727,619.247Z" transform="translate(-1575.225 -571.061)" fill="#e2b08f"/>
        <path id="Trazado_43109" data-name="Trazado 43109" d="M1654.779,611.8a1.705,1.705,0,0,1-1.152,1.9c-1.458.668-4.205.694-7.151-4.865-2.192-4.14,1.68-4.262,2.339-3.129S1651.761,610.9,1654.779,611.8Z" transform="translate(-1578.519 -564.235)" fill="#f9cdaf"/>
        <path id="Trazado_43110" data-name="Trazado 43110" d="M1646.386,608.647c.336-.914,1.055-1.507,2.579.667,2.175,3.1,4.784,3.435,5.687,3.45a1.584,1.584,0,0,0,.13-.967c-3.016-.9-5.306-4.959-5.965-6.095C1648.17,604.585,1644.411,604.692,1646.386,608.647Z" transform="translate(-1578.523 -564.233)" fill="#efbb97" opacity="0.48" style="isolation: isolate"/>
        <path id="Trazado_43111" data-name="Trazado 43111" d="M1659.534,607.441s3.349-.24,2.6-3.44c0,0-3.641-3.146-4.591-5.085,0,0-1.47-1.361-2.767-.588a3.033,3.033,0,0,0-.781,3.836C1654.61,603.1,1656.249,606.162,1659.534,607.441Z" transform="translate(-1583.523 -559.753)" fill="#f9cdaf"/>
        <path id="Trazado_43112" data-name="Trazado 43112" d="M1656.544,600.132c2.841,4.414,5.121,5.01,6.249,4.961a3.622,3.622,0,0,0-.1-1.089s-3.641-3.146-4.591-5.085c0,0-1.47-1.361-2.768-.588a2.178,2.178,0,0,0-.833.95A2.079,2.079,0,0,1,1656.544,600.132Z" transform="translate(-1584.081 -559.755)" fill="#efbb97" opacity="0.48" style="isolation: isolate"/>
        <path id="Trazado_43113" data-name="Trazado 43113" d="M1668.286,599.742a2.76,2.76,0,0,0,2.626-1.633c.843-1.787-3.8-8.084-5.823-6.706s-.85,3.8-.51,4.434S1666.243,599.348,1668.286,599.742Z" transform="translate(-1590.116 -555.347)" fill="#f9cdaf"/>
        <path id="Trazado_43114" data-name="Trazado 43114" d="M1676.776,594.143a1.73,1.73,0,0,0,2.255-.023c1.264-.949-2.361-6.718-4.027-5.66S1675.981,593.519,1676.776,594.143Z" transform="translate(-1596.857 -553.507)" fill="#f9cdaf"/>
        <path id="Trazado_43115" data-name="Trazado 43115" d="M1674.58,589.919c1.273-.811,3.693,2.378,4.195,4.346a2.475,2.475,0,0,0,.216-.144c1.264-.948-2.361-6.718-4.027-5.66a1.434,1.434,0,0,0-.5,1.549A1.05,1.05,0,0,1,1674.58,589.919Z" transform="translate(-1596.817 -553.507)" fill="#efbb97" opacity="0.48" style="isolation: isolate"/>
        <path id="Trazado_43116" data-name="Trazado 43116" d="M1664.589,593.085c1.736-1.184,5.4,3.287,5.874,5.709a3.086,3.086,0,0,0,.437-.683c.843-1.787-3.8-8.084-5.824-6.706a2.514,2.514,0,0,0-1.156,2.307A2.78,2.78,0,0,1,1664.589,593.085Z" transform="translate(-1590.104 -555.349)" fill="#efbb97" opacity="0.48" style="isolation: isolate"/>
      </g>
      <g id="Grupo_40229" data-name="Grupo 40229" transform="translate(1194.645 304.282)">
        <path id="Trazado_43063" data-name="Trazado 43063" d="M1601.991,647.726l2-2.341s4.21-4.108,7.219-4.053,1.955-4.484-1.935-3.955-6.609,2.452-7.144,4.26S1601.991,647.726,1601.991,647.726Z" transform="translate(-1594.771 -637.334)" fill="#f9cdaf"/>
        <path id="Trazado_43064" data-name="Trazado 43064" d="M1615.03,637.387a14.138,14.138,0,0,0-1.944.4c-.023.034-.048.066-.07.1-.937,1.476-2.166,6.521-2.166,6.521s4.025-5.692,7.853-4.491C1618.748,638.659,1617.429,637.06,1615.03,637.387Z" transform="translate(-1600.532 -637.34)" fill="#efbb97"/>
        <path id="Trazado_43101" data-name="Trazado 43101" d="M1587.582,665.314l-5.4-8.51,8.248-6.433,3.44,11.751Z" transform="translate(-1582.185 -645.679)" fill="#f9cdaf"/>
        <path id="Trazado_43102" data-name="Trazado 43102" d="M1599.47,664.676l-2.727-5.892L1584.4,665.9l2.785,6.79Z" transform="translate(-1583.6 -651.063)" fill="#dbb100"/>
        <path id="Trazado_43129" data-name="Trazado 43129" d="M1613.35,694.3c-7.59-4.75-15.792-30.139-15.792-30.139l-3.552,2.106-.21,2.62-2.26-.978-8.8,3.424s9.653,35.345,26.464,43.944,26.516-19.5,27.186-22.637-19.281-4.173-19.281-4.173S1615.889,695.885,1613.35,694.3Z" transform="translate(-1582.536 -654.502)" fill="#6d31fd"/>
      </g>
      <path id="Trazado_43130" data-name="Trazado 43130" d="M1244.433,266.979s7.353,5.415,6.212,13.085c-2.085,14.027-25.03,30.2-16.947,69.894,9.767,47.962,66.849,80.605,120.679,52.763s58.815-96.319,15.418-132.386C1317.435,226.817,1268.013,272.391,1244.433,266.979Z" transform="translate(-163.395 -85.991)" fill="#85dbf0" opacity="0.862"/>
      <path id="Trazado_43131" data-name="Trazado 43131" d="M1620.11,375.521a65.127,65.127,0,0,0-7.924-14.887l8.8-6.265a75.893,75.893,0,0,1,9.239,17.357Z" transform="translate(-406.742 -151.944)" fill="#fff" opacity="0.61"/>
      <path id="Trazado_43132" data-name="Trazado 43132" d="M1640.694,475.223l-9.888-4.339a63.435,63.435,0,0,0,4.952-18.623,64.116,64.116,0,0,0-1.342-21.763l10.509-2.484a74.952,74.952,0,0,1-4.231,47.209Z" transform="translate(-418.66 -199.079)" fill="#fff" opacity="0.61"/>
      <g id="Grupo_40230" data-name="Grupo 40230" transform="translate(1191.756 291.461)">
        <path id="Trazado_43065" data-name="Trazado 43065" d="M1600.918,620.6l2.253,3.261s2.272-3.791,3.744-6.8c.856-1.751,2.619-5.077,2.422-6.942s-2.431-4.764-3.264-7.071-3.751-1.286-4.021.576,1.361,10.108,1.361,10.108Z" transform="translate(-1591.287 -601.715)" fill="#f9cdaf"/>
        <path id="Trazado_43066" data-name="Trazado 43066" d="M1609.058,607.088a18.992,18.992,0,0,0,2.169,4.169c1.089,1.505,2.01,2.46,1.9,3.306a11.543,11.543,0,0,1-2.541,5.134Z" transform="translate(-1596.496 -605.154)" fill="#efbb97"/>
        <path id="Trazado_43133" data-name="Trazado 43133" d="M1609.335,608.759a9.81,9.81,0,0,1-.557-1.671,4.3,4.3,0,0,0,.378,3.214Z" transform="translate(-1596.217 -605.154)" fill="#efbb97"/>
        <path id="Trazado_43103" data-name="Trazado 43103" d="M1585.571,620.8s-6.2,6.642-7.618,6.594c-1.091-.036-5.024-2.728-3.407-6.845a8.508,8.508,0,0,1,4.907-4.7s2.28-4.027,5.211-5.06c0,0-3.093-3.253-1.844-6.955,1.187-3.513,4.016-1.619,3.9-.105-.115,1.539,1.049,3.921,2.906,6.241S1585.571,620.8,1585.571,620.8Z" transform="translate(-1574.161 -601.796)" fill="#f9cdaf"/>
        <path id="Trazado_43104" data-name="Trazado 43104" d="M1597.811,616.351s-.194.806.849,2.483,3.3,3.628,1.876,5.5a7.017,7.017,0,0,0,2.056-2.722C1603.22,620.117,1602.809,618.969,1597.811,616.351Z" transform="translate(-1589.289 -611.082)" fill="#efbb97"/>
        <path id="Trazado_43106" data-name="Trazado 43106" d="M1593.813,622.578s1.593-2.065,1.647-3.626-4.053-3.568-6.248-5.068-3.476,3.6,1.65,5.44a11.857,11.857,0,0,0-3.008,4.064Z" transform="translate(-1582.564 -609.329)" fill="#f9cdaf"/>
      </g>
      <path id="Trazado_43070" data-name="Trazado 43070" d="M1264.3,290.169s1.424-.738,2.049-.178.1,2.017-1.551,1.754c0,0,1.584,1.026,1.007,1.831s-2.277-1.472-2.277-1.472,1.259,1.017,1.579.831-.873-1.391-.873-1.391,1.6-.08,1.646-.624S1264.3,290.169,1264.3,290.169Z" transform="translate(-183.588 -110.604)" fill="#6d4d37"/>
    </g>
    <rect id="Rectángulo_5893" data-name="Rectángulo 5893" width="333" height="326" transform="translate(42 134)" fill="none"/>
  </g>
</svg>
