<?xml version="1.0" encoding="utf-8"?>
<!-- Generator: Adobe Illustrator 23.0.4, SVG Export Plug-In . SVG Version: 6.00 Build 0)  -->
<svg version="1.1" id="Capa_1" xmlns="http://www.w3.org/2000/svg" xmlns:xlink="http://www.w3.org/1999/xlink" x="0px" y="0px"
	 viewBox="0 0 528 298" style="enable-background:new 0 0 528 298;" xml:space="preserve">
<style type="text/css">
	.st0{clip-path:url(#SVGID_2_);}
	.st1{fill:#4B23EF;}
	.st2{fill:#C19063;}
	.st3{fill:#AD754E;}
	.st4{fill:#191817;}
	.st5{fill:#261B17;}
	.st6{fill:#3A3735;}
	.st7{fill:#6D31FF;}
	.st8{fill:#B28056;}
	.st9{fill:#FFFFFF;}
	.st10{fill:#141412;}
	.st11{fill:#4C4C4C;}
	.st12{fill:#383736;}
	.st13{fill:#545454;}
	.st14{fill:#E28F56;}
	.st15{fill:#C97236;}
	.st16{fill:#231F20;}
	.st17{fill:#F29FA0;}
	.st18{fill:#E69F73;}
	.st19{fill:#3A3A3A;}
	.st20{opacity:5.000000e-02;fill:#FFFFFF;enable-background:new    ;}
	.st21{fill:#0D1642;}
	.st22{fill:#212121;}
	.st23{opacity:0.58;fill:#515151;enable-background:new    ;}
	.st24{fill:#633611;}
	.st25{fill:#FCFCEB;}
	.st26{fill:#E8E8DD;}
	.st27{fill:#CC8758;}
	.st28{fill:#874C17;}
	.st29{fill:#E8955D;}
	.st30{fill:#F9B180;}
	.st31{fill:#D38550;}
	.st32{fill:#EAA36A;}
</style>
<g id="Enmascarar_grupo_9" transform="translate(0 -422)">
	<g>
		<defs>
			<rect id="SVGID_1_" y="422" width="528" height="298"/>
		</defs>
		<clipPath id="SVGID_2_">
			<use xlink:href="#SVGID_1_"  style="overflow:visible;"/>
		</clipPath>
		<g id="Enmascarar_grupo_6" class="st0">
			<g id="Grupo_34494" transform="translate(328.451 424.52)">
				<g id="Grupo_3491">
					<path id="Trazado_7118" class="st1" d="M-75.3,162.2l0.1-0.6h-0.3v-0.2h0.3l0.1-0.5h-0.3v-0.2h0.3l0.1-0.6h0.2l-0.1,0.6h0.3
						l0.1-0.6h0.2l-0.1,0.6h0.3v0.2h-0.3l-0.1,0.5h0.3v0.2h-0.3l-0.1,0.6h-0.2l0.1-0.6H-75l-0.1,0.6H-75.3z M-74.6,161.4l0.1-0.5
						h-0.3l-0.1,0.5H-74.6z"/>
					<path id="Trazado_7119" class="st1" d="M-72.9,162.2v-0.6h-1v-0.2l1-1.4h0.3v1.3h0.3v0.2h-0.3v0.6L-72.9,162.2z M-72.9,161.4
						v-0.7c0-0.1,0-0.2,0-0.3h0c-0.1,0.1-0.1,0.2-0.2,0.3l-0.5,0.7v0H-72.9z"/>
					<path id="Trazado_7120" class="st1" d="M-72,160c0.2,0,0.4,0,0.5,0c0.2,0,0.4,0,0.6,0.2c0.1,0.1,0.2,0.2,0.2,0.4
						c0,0.2-0.2,0.4-0.4,0.5v0c0.3,0.1,0.5,0.3,0.5,0.6c0,0.2-0.1,0.3-0.2,0.4c-0.2,0.2-0.5,0.2-0.8,0.2c-0.1,0-0.3,0-0.4,0V160z
						 M-71.7,160.9h0.3c0.3,0,0.5-0.2,0.5-0.4c0-0.3-0.2-0.4-0.5-0.4c-0.1,0-0.2,0-0.3,0L-71.7,160.9z M-71.7,162c0.1,0,0.2,0,0.2,0
						c0.3,0,0.6-0.1,0.6-0.4c0-0.3-0.3-0.4-0.6-0.4h-0.2L-71.7,162z"/>
					<path id="Trazado_7121" class="st1" d="M-70.3,162.2V162l0.2-0.2c0.6-0.5,0.8-0.8,0.8-1.1c0-0.2-0.1-0.4-0.3-0.4
						c0,0-0.1,0-0.1,0c-0.2,0-0.3,0.1-0.5,0.2l-0.1-0.2c0.2-0.1,0.4-0.2,0.6-0.2c0.3,0,0.6,0.2,0.7,0.5c0,0,0,0,0,0c0,0,0,0.1,0,0.1
						c0,0.4-0.3,0.7-0.7,1.2l-0.2,0.2v0h1v0.2L-70.3,162.2z"/>
					<path id="Trazado_7122" class="st1" d="M-68.5,161.9c0.1,0.1,0.3,0.1,0.5,0.1c0.4,0,0.5-0.2,0.5-0.4c0-0.3-0.3-0.4-0.6-0.4
						h-0.2v-0.2h0.2c0.2,0,0.5-0.1,0.5-0.4c0-0.2-0.1-0.3-0.4-0.3c-0.2,0-0.3,0.1-0.4,0.1l-0.1-0.2c0.2-0.1,0.4-0.2,0.6-0.2
						c0.4,0,0.6,0.3,0.6,0.5c0,0.2-0.2,0.4-0.4,0.5v0c0.3,0,0.5,0.3,0.5,0.6c0,0.3-0.3,0.6-0.8,0.6c-0.2,0-0.4,0-0.6-0.1
						L-68.5,161.9z"/>
					<path id="Trazado_7123" class="st1" d="M-65.7,161.2h-0.9v0.8h1v0.2h-1.3V160h1.2v0.2h-0.9v0.7h0.9V161.2z"/>
					<path id="Trazado_7124" class="st1" d="M-65.2,160h1.2v0.2h-0.9v0.7h0.8v0.2h-0.8v1h-0.3L-65.2,160z"/>
				</g>
				<g id="Grupo_3510" transform="translate(0 -5)">
					<path id="Trazado_7125" class="st2" d="M-117.4,148.9c0,0-27.1,35.3-99.3,40.7v8.8c0,0,70-1.6,104.5-42.2L-117.4,148.9z"/>
					<g id="Grupo_3492">
						<path id="Trazado_7126" class="st2" d="M-227.6,203.3c-0.1,0-2.1,0.4-2.3,0.4c-1.4,0-1.8-1.2-1.9-2.5l-2.6-10.8
							c-0.1-0.4-0.1-0.9,0-1.3c0.3-1,1.2-1.7,2.3-1.8l16,0.5c0.5,0,1.1,0.2,1.5,0.5c1.1,0.7,1.6,1.9,1.5,3.2l0.2,5.5
							c0.4,3.1-1,3.8-2.4,3.9L-227.6,203.3z"/>
					</g>
					<path id="Trazado_7127" class="st3" d="M-216.2,190l0.7-0.7c0.4-0.5,0.4-1.2-0.1-1.6l-5.3-5.5c-0.5-0.4-1.2-0.4-1.6,0.1
						l-1.4,1.6c-0.4,0.5-0.4,1.2,0.1,1.6l6,4.6C-217.3,190.5-216.6,190.4-216.2,190z"/>
					<path id="Trazado_7128" class="st2" d="M-16.9,156.9c0,0,28.7,34,101.1,36l0.4,8.8c0,0-70,1.7-106.4-37.2L-16.9,156.9z"/>
					<g id="Grupo_3493">
						<path id="Trazado_7129" class="st2" d="M95.7,205.9c0.1,0,2.2,0.3,2.3,0.3c1.4-0.1,1.8-1.3,1.8-2.6l2-10.9
							c0.1-0.4,0.1-0.9-0.1-1.3c-0.4-1-1.3-1.7-2.4-1.7l-16,1.2c-0.5,0-1,0.2-1.5,0.6c-1,0.8-1.5,2-1.3,3.3l0,5.5
							c-0.2,3.1,1.1,3.8,2.6,3.8L95.7,205.9z"/>
					</g>
					<g id="Grupo_3494">
						<path id="Trazado_7130" class="st4" d="M-8,164.8l-2.5,0.5c-0.1,0-0.1-0.2,0-0.2l2.5-0.5C-7.9,164.6-7.9,164.8-8,164.8z"/>
						<path id="Trazado_7131" class="st4" d="M-10.4,165.3c-0.8,0.9-1.7,1.9-2.5,2.9c-0.1,0.1-0.2,0-0.1-0.1
							c0.8-0.9,1.7-1.9,2.5-2.9C-10.5,165.1-10.3,165.2-10.4,165.3z"/>
						<path id="Trazado_7132" class="st4" d="M-12.9,168.1c0,0.8,0,1.7,0,2.5c0,0.1-0.2,0.1-0.2,0c0-0.8,0-1.7,0-2.5
							C-13.1,168-12.9,168-12.9,168.1z"/>
						<path id="Trazado_7133" class="st4" d="M-7.9,164.7l1.4,6.2c0,0.1-0.2,0.2-0.2,0.1l-1.4-6.2C-8.1,164.7-7.9,164.6-7.9,164.7z"
							/>
						<path id="Trazado_7134" class="st4" d="M-6.6,171.1c-2.1-0.1-4.3-0.3-6.4-0.4c-0.1,0-0.1-0.2,0-0.2c2.1,0.1,4.3,0.3,6.4,0.4
							C-6.4,170.9-6.5,171.1-6.6,171.1z"/>
						<path id="Trazado_7135" class="st4" d="M-8,164.9l-4.9,5.8c0,0-0.1,0-0.1,0c0,0,0-0.1,0-0.1l4.9-5.8c0,0,0.1,0,0.1,0
							C-8,164.8-8,164.8-8,164.9L-8,164.9z"/>
						<path id="Trazado_7136" class="st4" d="M-11,165.8c0.6,0,1.2,0.1,1.8,0.3c0.1,0,0.1,0.2,0,0.2c-0.6-0.1-1.2-0.2-1.8-0.3
							C-11.2,166-11.1,165.8-11,165.8z"/>
						<path id="Trazado_7137" class="st4" d="M-9.1,166.2c0.9,1.6,1.7,3.2,2.5,4.8c0.1,0.1-0.1,0.2-0.2,0.1
							c-0.8-1.6-1.6-3.2-2.5-4.7C-9.3,166.2-9.1,166-9.1,166.2z"/>
						<path id="Trazado_7138" class="st4" d="M-12.2,167.3c0.2,0.6,0.5,1.1,0.6,1.7c0,0.1-0.1,0.2-0.2,0.1c-0.2-0.6-0.5-1.1-0.6-1.7
							C-12.4,167.2-12.3,167.2-12.2,167.3z"/>
						<path id="Trazado_7139" class="st4" d="M-11.6,169c1.7,0.5,3.3,1.1,4.9,1.8c0.1,0,0,0.2-0.1,0.2c-1.6-0.7-3.3-1.3-4.9-1.8
							C-11.8,169.1-11.8,169-11.6,169z"/>
					</g>
					<path id="Trazado_7140" class="st5" d="M-40.4,65.8c0,0,7.8,11.8,3.9,18.4s-4.8,9.1-2.7,11.1c-2-1-3.2-3.1-3.1-5.3
						c0,0-0.5,6.5-5.3,7.6s-33.5-8.3-33.5-8.3L-40.4,65.8z"/>
					<path id="Trazado_7141" class="st5" d="M-96.3,66.6c0,0-7.8,11.8-3.9,18.4s4.8,9.1,2.7,11.1c2-1,3.2-3.1,3.1-5.3
						c0,0,0.5,6.5,5.3,7.6s33.5-8.3,33.5-8.3L-96.3,66.6z"/>
					<path id="Trazado_7142" class="st6" d="M-39.8,24.3c0.1-0.4,2.8-10.4,15.3-11.7s17,25.1,8.9,30.1s-20.7-6.3-20.7-6.3
						L-39.8,24.3z"/>
					<path id="Trazado_7143" class="st5" d="M-43.2,30.9c0,0,11.2-16.6,22.1-15.3S-4.1,28-9.8,30.9s-23.2,6.3-26.5,5.6
						S-43.4,32.6-43.2,30.9z"/>
					<g id="Grupo_3495">
						<circle id="Elipse_494" class="st2" cx="-41.4" cy="67.3" r="5.8"/>
						<circle id="Elipse_495" class="st3" cx="-41.4" cy="67.3" r="3.4"/>
					</g>
					<g id="Grupo_3496">
						<circle id="Elipse_496" class="st2" cx="-96.7" cy="66.6" r="5.8"/>
						<circle id="Elipse_497" class="st3" cx="-96.7" cy="66.6" r="3.4"/>
					</g>
					
						<ellipse id="Elipse_498" transform="matrix(0.9995 -3.202132e-02 3.202132e-02 0.9995 -7.8617 -2.1988)" class="st2" cx="-72.6" cy="244.4" rx="31.4" ry="24.4"/>
					<path id="Trazado_7144" class="st7" d="M-104.5,255.5l70.9,1.6l9.1,56.4l-80-4.8V255.5z"/>
					<path id="Trazado_7145" class="st2" d="M-83,107.1l3.8,27l21.1,0.2l2.5-27.6L-83,107.1z"/>
					<path id="Trazado_7146" class="st8" d="M-81.1,115.7c0,0,14.6,7.7,24.6,0.8l0.9-10l-27.3,0.5L-81.1,115.7z"/>
					<path id="Trazado_7147" class="st2" d="M-68.4,133.3l39.6,6.7c0,0,13.5,7.7-1.1,23.1L-42.2,250c0,0-29.1,8.5-61.8-4.6
						l-6.5-81.2c0,0-17.4-11.9,0.2-26.4L-68.4,133.3z"/>
					<path id="Trazado_7148" class="st2" d="M-37.5,145.1l8.7-5.2c0,0-29-12.4-44.7-11.4c-15.7,1-27.7,5.5-36.9,9.1l21.8,16.4
						L-37.5,145.1z"/>
					<path id="Trazado_7149" class="st2" d="M-110.3,137.7c9.2-3.7,21.2-8.1,36.9-9.1S-28.8,140-28.8,140s13.5,7.7-1.1,23.1
						L-42.2,250c0,0-29.1,8.5-61.8-4.6l-6.5-81.2C-110.5,164.2-127.9,152.3-110.3,137.7z"/>
					<g id="Grupo_3497">
						<path id="Trazado_7150" class="st4" d="M-73.2,154.3c0.7,1.8,2.4,3,2.8,4.9c0.3,1.3-0.3,2.1-1.7,2.1c-1.4,0-2.1-1.1-2.4-2.3
							c-0.2-1.6,0.1-3.3,0.9-4.7c0.1-0.2,0.4,0,0.3,0.2c-0.6,1.1-0.9,2.4-0.9,3.6c0,1.2,0.8,3.3,2.4,2.9l1-0.7
							c0.1-0.2,0.1-0.4,0-0.7c0-0.4-0.1-0.8-0.3-1.1c-0.2-0.5-0.5-0.9-0.8-1.4c-0.7-0.8-1.2-1.8-1.7-2.7
							C-73.6,154.2-73.2,154.1-73.2,154.3L-73.2,154.3z"/>
						<path id="Trazado_7151" class="st4" d="M-68.7,154.2c-0.2,1.5-1,2.9-2.2,3.9c-0.2,0.1-0.4-0.2-0.2-0.3
							c1.1-0.9,1.9-2.2,2.1-3.7C-69,153.9-68.6,154-68.7,154.2L-68.7,154.2z"/>
						<path id="Trazado_7152" class="st4" d="M-68.6,154.1c0.7,1.9,1.4,4,0.5,5.9c-0.5,1.3-2,2-3.4,1.5c0,0,0,0,0,0
							c-0.1,0-0.1-0.1-0.2-0.1c-0.2-0.1,0-0.4,0.2-0.3c1.9,0.9,3.3-0.9,3.4-2.7c0-1.5-0.3-2.9-0.9-4.2
							C-69.1,154-68.7,153.9-68.6,154.1L-68.6,154.1z"/>
						<path id="Trazado_7153" class="st4" d="M-69.3,155c-0.3-0.6-0.7-1.2-1-1.8l0.3,0l-0.5,2.5c0,0.2-0.4,0.1-0.4-0.1l0.5-2.5
							c0-0.1,0.1-0.2,0.2-0.1c0,0,0.1,0,0.1,0.1c0.3,0.6,0.6,1.2,1,1.8C-68.9,155.1-69.2,155.3-69.3,155L-69.3,155z"/>
						<path id="Trazado_7154" class="st4" d="M-70,156.7c-1.1-1-1.8-2.3-2-3.8l0.3,0l-1.2,2c-0.1,0.1-0.2,0.1-0.3,0
							c-0.1-0.1-0.1-0.1-0.1-0.2l1.2-2c0.1-0.1,0.2-0.1,0.3-0.1c0,0,0.1,0.1,0.1,0.1c0.1,1.4,0.8,2.6,1.8,3.5
							C-69.6,156.6-69.8,156.9-70,156.7L-70,156.7z"/>
						<path id="Trazado_7155" class="st4" d="M-70.4,153.5c0-0.3-0.1-0.7-0.5-0.7c-0.3,0-0.4,0.4-0.5,0.6c-0.1,0.2-0.5,0-0.3-0.2
							c0.1-0.2,0.2-0.4,0.3-0.6c0.2-0.2,0.4-0.2,0.6-0.2c0.6,0.1,0.7,0.6,0.8,1.1C-70,153.7-70.3,153.7-70.4,153.5L-70.4,153.5z"/>
						<path id="Trazado_7156" class="st4" d="M-68.3,155.4c0.5-0.2,1.2-0.2,1.7,0c0.7,0.3,1,1,1.7,1.4c0.1,0.1,0.1,0.2,0.1,0.3
							c0,0,0,0,0,0c0,0,0,0,0,0c-1,0.8,0.1,2.4-1,3.3c-0.8,0.6-1.8,0.7-2.7,0.2c-0.1-0.1-0.1-0.2-0.1-0.3s0.2-0.1,0.3-0.1
							c0.6,0.3,1.3,0.4,1.9,0.1c0.6-0.3,1-1,0.8-1.7c-0.1-0.6,0-1.3,0.5-1.8l0,0.3c-1-0.6-1.6-2-3-1.4
							C-68.3,155.9-68.5,155.5-68.3,155.4L-68.3,155.4z"/>
						<path id="Trazado_7157" class="st4" d="M-74.3,156.1c-0.9-0.2-1.9,0.1-2.4,0.9c-0.3,0.4-0.7,0.6-1.1,0.7l0-0.3
							c0.7,0.5,1.1,1.3,1.1,2.1c0,0.6,0.3,1.1,0.8,1.4c0.7,0.4,1.6,0.1,2-0.5c0.1-0.1,0.2-0.1,0.3-0.1s0.1,0.2,0.1,0.3
							c-0.5,0.8-1.6,1.1-2.5,0.7c-1.4-0.7-0.7-2.7-2-3.5c-0.1-0.1-0.1-0.2-0.1-0.3c0,0,0.1-0.1,0.1-0.1c0.9-0.2,1-1,1.8-1.4
							c0.6-0.3,1.3-0.4,1.9-0.2C-74,155.8-74.1,156.2-74.3,156.1L-74.3,156.1z"/>
						<path id="Trazado_7158" class="st4" d="M-70.2,152.9c0.6-0.3,1.2-0.5,1.8-0.6c0.1,0,0.2,0.1,0.2,0.2c0,1.2,2.1,1.5,1.4,2.9
							c-0.1,0.2-0.4,0-0.3-0.2c0.3-0.7-0.5-1.2-0.9-1.6c-0.4-0.3-0.6-0.7-0.6-1.2l0.2,0.2c-0.6,0.1-1.2,0.2-1.7,0.5
							C-70.3,153.3-70.4,153-70.2,152.9L-70.2,152.9z"/>
						<path id="Trazado_7159" class="st4" d="M-72.3,153.6c-0.2-0.1-0.4-0.3-0.7-0.4c-0.6-0.2-0.9,0-1.3,0.2
							c-0.3,0.2-0.7,0.2-1.1,0.2l0.2-0.2c0,0.2-0.1,0.5-0.2,0.7c-0.1,0.2-0.4,0.4-0.5,0.6c-0.1,0.4-0.1,0.9,0.2,1.2
							c0.1,0.2-0.2,0.4-0.3,0.2c-0.3-0.3-0.4-0.7-0.4-1.1c0.1-0.6,0.8-0.9,0.9-1.5c0-0.1,0.1-0.2,0.2-0.2c0,0,0,0,0,0
							c0.7,0.2,1.3-0.5,2-0.5c0.4,0.1,0.9,0.3,1.2,0.6C-71.9,153.4-72.1,153.7-72.3,153.6L-72.3,153.6z"/>
						<path id="Trazado_7160" class="st4" d="M-67.1,160.6c0.8,0.3,1.2,1,0.6,1.7c-0.4,0.3-0.8,0.6-1.3,0.6
							c-0.9,0.2-1.7,0.7-2.4,1.3c-0.1,0.1-0.2,0.1-0.3,0c-1-0.9-2.4-1-3.7-1.4c-0.7-0.2-1.3-0.6-1.4-1.4c0-0.2,0.4-0.2,0.4,0
							c0.1,1,1.6,1.2,2.4,1.4c0.7,0.1,1.4,0.4,2.1,0.7c0.4,0.2,0.4,0.1,0.8-0.2c0.3-0.2,0.7-0.4,1.1-0.6c0.4-0.2,0.8-0.2,1.2-0.4
							c0.9-0.3,1.4-1.1,0.3-1.6C-67.5,160.8-67.3,160.5-67.1,160.6L-67.1,160.6z"/>
						<path id="Trazado_7161" class="st4" d="M-71.7,163.3c0,1.1-0.7,2-1.8,2.2c-0.5,0.1-1.1-0.1-1.5-0.3c-1-0.5-2.1-0.6-3.1-0.2
							c-0.1,0-0.2,0-0.3-0.1c0,0,0-0.1,0-0.1c0.4-1.4-1.4-2.1-1.2-3.5c0.2-1.2,1.6-1.7,2.7-1.7c0.1,0,0.2,0.1,0.2,0.2
							c0,0.1-0.1,0.2-0.2,0.2c-0.8-0.1-1.6,0.2-2.1,0.8c-0.5,0.8,0,1.5,0.4,2.1c0.5,0.5,0.8,1.3,0.6,2l-0.3-0.2
							c0.9-0.4,1.9-0.4,2.9-0.1c0.6,0.3,1.3,0.5,2,0.5c0.8-0.2,1.4-1,1.4-1.8c0-0.1,0.1-0.2,0.2-0.2
							C-71.8,163.1-71.7,163.2-71.7,163.3L-71.7,163.3z"/>
						<path id="Trazado_7162" class="st4" d="M-75.9,154.3c-0.6-0.1-1.2,0-1.8,0.2c-0.4,0.3-0.8,0.6-1.2,1c-0.5,0.5-1.2,0.8-2,0.9
							l0.1-0.3c0.5,0.3,0.9,0.9,0.8,1.6c0,0.4-0.1,0.8-0.1,1.2c0,0.4,0.4,1.6,1.1,1.3c0.2-0.1,0.3,0.3,0.1,0.4
							c-0.5,0.2-1.1-0.4-1.3-0.8c-0.6-1.1,0.5-2.4-0.8-3.3c-0.1-0.1-0.1-0.2-0.1-0.3c0-0.1,0.1-0.1,0.2-0.1c1.3,0,1.8-1,2.7-1.6
							c0.7-0.4,1.5-0.6,2.3-0.4C-75.7,153.9-75.7,154.3-75.9,154.3L-75.9,154.3z"/>
						<path id="Trazado_7163" class="st4" d="M-67.3,153.8c0.3-0.6,0.4-0.9,0.1-1.4c-0.2-0.4-0.6-0.6-1-0.7
							c-0.6-0.1-1.2-0.2-1.8-0.3c-1.1-0.3-1.5-1-2.1-1.9l0.3,0c-0.3,1-1.1,1.4-2.1,1.7c-1.6,0.5-2.8,1-2.8,2.9c0,0.2-0.4,0.2-0.4,0
							c-0.1-1,0.4-1.9,1.2-2.5c1.2-0.8,3.3-0.6,3.7-2.2c0-0.1,0.1-0.2,0.2-0.1c0,0,0.1,0,0.1,0.1c0.4,1,1.3,1.7,2.3,1.9
							c0.7,0.1,1.3,0.2,2,0.4c1.1,0.5,1,1.5,0.6,2.4C-67.1,154.2-67.4,154.1-67.3,153.8L-67.3,153.8z"/>
						<path id="Trazado_7164" class="st4" d="M-66.9,153.1c0.9-0.1,1.7,0,2.5,0.3c0.3,0.2,0.6,0.5,0.8,0.7c0.6,0.4,1.2,0.6,1.9,0.7
							c0.1,0,0.2,0.1,0.1,0.2c0,0,0,0.1,0,0.1c-0.6,0.8-0.8,1.8-0.8,2.7c0.1,0.6-0.1,1.2-0.4,1.8c-0.8,1.1-2.1,1-3.2,0.7
							c-0.2-0.1-0.1-0.4,0.1-0.4c0.9,0.2,1.8,0.4,2.6-0.3c0.6-0.5,0.5-1.4,0.5-2.1c0-1,0.3-2,0.9-2.7l0.1,0.3
							c-0.7-0.1-1.4-0.4-2-0.8c-0.4-0.4-0.8-0.7-1.3-0.9c-0.6-0.1-1.2-0.1-1.8-0.1c-0.1,0-0.2-0.1-0.2-0.2
							C-67.1,153.2-67,153.1-66.9,153.1L-66.9,153.1z"/>
						<path id="Trazado_7165" class="st4" d="M-64.3,160.4c0.4,0.6,0.5,1.4,0.2,2.1c-0.6,1.2-2.1,1.6-1.8,3.2c0,0.1,0,0.2-0.1,0.2
							c0,0-0.1,0-0.1,0c-0.7-0.2-1.5-0.2-2.2-0.1c-0.5,0.1-1.1,0.2-1.6,0.2c-0.5,0-0.9-0.1-1.3-0.3c-0.5-0.2-0.7-0.7-1.2-0.9
							c-0.2-0.1-0.1-0.4,0.1-0.4c0.3,0.1,0.6,0.3,0.8,0.6c0.7,0.6,1.7,0.8,2.6,0.6c1-0.2,2-0.2,3,0l-0.2,0.2
							c-0.1-0.7,0.1-1.5,0.6-2.1c0.2-0.3,0.5-0.6,0.8-0.8c0.7-0.6,0.8-1.6,0.3-2.4C-64.7,160.3-64.4,160.2-64.3,160.4L-64.3,160.4z"
							/>
						<path id="Trazado_7166" class="st4" d="M-73.8,151c-0.3-0.2-0.5-0.5-0.7-0.7c-0.3-0.3-0.5-0.9-1-0.2c-0.1,0.1-0.2,0.1-0.3,0.1
							c0,0,0,0,0,0c-0.6-0.6-1.2-1.1-1.9-1.5l0.3-0.1c-0.1,0.3-0.2,0.7-0.6,0.6s-1.3-1.3-1.6-0.5c-0.1,0.1-0.2,0.1-0.3,0.1
							c-0.6-0.4-1.3-0.6-2.1-0.6c-0.4,0.1-0.2,0.6-0.1,0.9c0.1,0.4,0.2,0.9,0.2,1.4c0,0.2-0.3,0.2-0.4,0c-0.1-0.5-0.8-2.4,0-2.6
							c0.9-0.1,1.8,0.1,2.6,0.6l-0.3,0.1c0.2-0.4,0.4-0.6,0.9-0.4c0.5,0.2,1,1.2,1.4,0.4c0.1-0.1,0.2-0.1,0.3-0.1
							c0.7,0.4,1.4,0.9,2,1.5l-0.3,0c0.2-0.2,0.4-0.5,0.6-0.6c0.1,0,0.2,0,0.2,0c0.5,0.5,0.9,1,1.5,1.5
							C-73.4,150.9-73.7,151.2-73.8,151L-73.8,151z"/>
						<path id="Trazado_7167" class="st4" d="M-82.2,150.8l-0.5-0.1l0.2-0.2c0.2,0.4,0.4,0.8,0.7,1.2c0,0.1,0.1,0.1,0.1,0.3
							c0,0.3-0.3,0.5-0.3,0.6c0,0.2,0.6,0.4,0.8,0.7c0.1,0.3,0,0.5-0.2,0.8l-0.1-0.3c0.3,0.2,0.7,0.3,1,0.4c0.1,0,0.2,0.1,0.1,0.2
							c-0.1,0.3-0.2,0.5-0.4,0.7l-0.1-0.3c0.4,0.2,0.9,0.3,1.2,0.7c0.1,0.2-0.1,0.4-0.3,0.3c-0.2-0.3-0.8-0.4-1.1-0.6
							c-0.1-0.1-0.1-0.2-0.1-0.3c0.1-0.2,0.3-0.4,0.4-0.6l0.1,0.2c-0.4-0.1-0.7-0.3-1.1-0.5c-0.1-0.1-0.1-0.2-0.1-0.3
							c0.4-0.7-0.6-0.8-0.7-1.4c0-0.1,0-0.2,0.1-0.2c0.4-0.3-0.3-1.3-0.5-1.7c0-0.1,0-0.2,0.1-0.2c0,0,0.1,0,0.1,0l0.5,0.1
							c0.1,0,0.2,0.1,0.1,0.2C-82,150.7-82.1,150.8-82.2,150.8L-82.2,150.8z"/>
						<path id="Trazado_7168" class="st4" d="M-61.2,147.7c-0.1,0.8,0,1.7-0.2,2.5l-0.2-0.2c0.3-0.1,0.7-0.1,1-0.1
							c0.1,0,0.2,0.1,0.2,0.2c0,0,0,0,0,0c0,0,0,0,0,0c-0.2,0.7-0.7,1.1-1,1.7l-0.1-0.3c0.3,0.1,0.6,0.2,0.9,0.3
							c0.1,0,0.2,0.1,0.1,0.2c-0.1,0.3-0.3,0.6-0.6,0.7c-0.4,0.3-0.7,0.8-1.1,1.1l0-0.3c0.3,0.1,0.5,0.2,0.8,0.2
							c0.1,0,0.2,0.1,0.1,0.2c0,0,0,0.1,0,0.1c-0.2,0.2-0.5,0.5-0.7,0.7c-0.2,0.2-0.4-0.1-0.3-0.3c0.2-0.2,0.5-0.5,0.7-0.7l0.1,0.3
							c-0.3-0.1-0.6-0.2-0.9-0.3c-0.1-0.1-0.1-0.2-0.1-0.3c0,0,0,0,0,0c0,0,0,0,0,0c0.3-0.3,0.5-0.6,0.7-0.8
							c0.3-0.3,0.7-0.5,0.8-0.9l0.1,0.2c-0.3-0.1-0.6-0.2-0.9-0.3c-0.1,0-0.2-0.1-0.1-0.2c0,0,0,0,0,0c0.3-0.6,0.8-0.9,1-1.6
							l0.2,0.2c-0.3,0-0.6,0-0.9,0.1c-0.1,0-0.2,0-0.2-0.1c0,0,0,0,0,0c0,0,0-0.1,0-0.1c0.2-0.8,0-1.7,0.2-2.5
							C-61.5,147.3-61.1,147.4-61.2,147.7L-61.2,147.7z"/>
						<path id="Trazado_7169" class="st4" d="M-61.2,147.7c-0.7,0.3-1.4,0.5-2.1,0.7c-0.1,0-0.2,0-0.2-0.1c-0.1-0.2-0.2-0.4-0.3-0.6
							l0.3,0.1c-0.6,0.3-1.1,0.7-1.6,1.2c-0.1,0.1-0.2,0.1-0.3,0.1c0,0,0,0,0,0c0,0,0,0,0,0c-0.6-0.8-1.6,0.7-2,1.2
							c0,0-0.1,0.1-0.2,0c-0.4-0.1-0.6-0.4-0.9,0c-0.3,0.4-0.6,0.9-0.9,1.3c-0.1,0.2-0.5,0-0.3-0.2c0.3-0.6,0.6-1.1,1-1.6
							c0.1-0.1,0.2-0.2,0.4-0.2c0.5,0,0.4,0.3,1-0.1c0.5-0.4,0.9-0.9,1.4-1.3c0.1,0,0.1,0,0.2,0c0.2,0.2,0.4,0.3,0.6,0.6l-0.3,0
							c0.5-0.6,1.1-1,1.7-1.4c0.1-0.1,0.2,0,0.3,0.1c0,0,0,0,0,0c0.2,0.5,0.2,0.5,0.8,0.3c0.5-0.1,0.9-0.2,1.4-0.4
							C-61.2,147.2-61,147.6-61.2,147.7L-61.2,147.7z"/>
						<path id="Trazado_7170" class="st4" d="M-62.4,148.9"/>
						<path id="Trazado_7171" class="st4" d="M-62.2,149c-0.6,0.8-1.4,1.5-2.2,2.2c-0.8,0.6-1.4,1.2-2,2c-0.1,0.1-0.2,0.1-0.3,0.1
							c-0.1-0.1-0.1-0.2-0.1-0.3l0,0c0.5-0.7,1-1.3,1.7-1.8c0.9-0.7,1.7-1.5,2.4-2.4C-62.4,148.6-62.1,148.8-62.2,149L-62.2,149z"/>
						<path id="Trazado_7172" class="st4" d="M-77.3,153c-0.4-0.6-1-1.1-1.6-1.5c-0.7-0.5-1.3-1.1-2.1-1.6c-0.2-0.1,0-0.5,0.2-0.3
							c0.7,0.5,1.4,1.1,2.1,1.7c0.6,0.4,1.2,1,1.6,1.6c0,0.1,0,0.2-0.1,0.3C-77.1,153.1-77.2,153.1-77.3,153L-77.3,153z"/>
						<path id="Trazado_7173" class="st4" d="M-63.2,153c-1-0.3-2-0.2-3,0.2c-0.2,0.1-0.4-0.2-0.2-0.3c1-0.4,2.2-0.5,3.3-0.2
							c0.1,0,0.2,0.1,0.1,0.2C-63,152.9-63.1,153-63.2,153L-63.2,153z"/>
						<path id="Trazado_7174" class="st4" d="M-62.8,151.8c-0.8,0-1.6,0-2.5,0.1c-0.2,0.1-0.3-0.3-0.1-0.4c0.8-0.1,1.7-0.1,2.6-0.1
							C-62.5,151.4-62.5,151.8-62.8,151.8L-62.8,151.8z"/>
						<path id="Trazado_7175" class="st4" d="M-62.7,150.7c-0.4,0-0.8,0-1.2-0.1c-0.1,0-0.2-0.1-0.2-0.2c0-0.1,0.1-0.2,0.2-0.2
							c0.4,0,0.8,0.1,1.2,0.1C-62.5,150.4-62.5,150.7-62.7,150.7z"/>
						<path id="Trazado_7176" class="st4" d="M-64,149.3c0,0.4,0,0.8,0.1,1.2c0.1,0.2-0.3,0.3-0.4,0.1c-0.1-0.4-0.1-0.9-0.1-1.3
							c0-0.1,0.1-0.2,0.2-0.2C-64.1,149.1-64,149.2-64,149.3L-64,149.3z"/>
						<path id="Trazado_7177" class="st4" d="M-65.2,150.1v1.5c0,0.1-0.1,0.2-0.2,0.2c-0.1,0-0.2-0.1-0.2-0.2v-1.5
							c0-0.1,0.1-0.2,0.2-0.2C-65.3,150-65.2,150.1-65.2,150.1z"/>
						<path id="Trazado_7178" class="st4" d="M-66.4,150.5c0.2,0.8,0.2,1.6,0.1,2.4c0,0.1-0.1,0.2-0.2,0.2c-0.1,0-0.2-0.1-0.2-0.2
							c0.1-0.8,0-1.5-0.1-2.3c0-0.1,0-0.2,0.1-0.2C-66.5,150.4-66.4,150.4-66.4,150.5L-66.4,150.5z"/>
						<path id="Trazado_7179" class="st4" d="M-76.5,151c-0.3,0.6-0.5,1.3-0.5,1.9c0,0.2-0.4,0.2-0.4,0c0-0.7,0.2-1.4,0.5-2
							C-76.8,150.7-76.4,150.8-76.5,151L-76.5,151z"/>
						<path id="Trazado_7180" class="st4" d="M-77.8,150.6c-0.2,0.4-0.1,0.9-0.2,1.3c-0.1,0.2-0.4,0.1-0.4-0.1
							c0.2-0.4,0-0.9,0.3-1.4C-78,150.2-77.7,150.4-77.8,150.6L-77.8,150.6z"/>
						<path id="Trazado_7181" class="st4" d="M-79,149.9c-0.1,0.3-0.1,0.6-0.1,0.9c0,0.1-0.1,0.2-0.2,0.2c-0.1,0-0.2-0.1-0.2-0.2
							c0-0.3,0-0.7,0.1-1C-79.2,149.6-78.9,149.7-79,149.9L-79,149.9z"/>
						<path id="Trazado_7182" class="st4" d="M-77.2,153.2c-0.7,0-1.3,0.2-1.9,0.5c-0.2,0.1-0.4-0.2-0.2-0.3
							c0.6-0.4,1.3-0.6,2.1-0.6C-76.9,152.8-76.9,153.2-77.2,153.2z"/>
						<path id="Trazado_7183" class="st4" d="M-78.4,151.9c-0.5,0.1-1,0.2-1.5,0.4c-0.1,0-0.2,0-0.2-0.1c0-0.1,0-0.2,0.1-0.2
							c0.5-0.2,1-0.3,1.6-0.4C-78.1,151.6-78.1,151.9-78.4,151.9L-78.4,151.9z"/>
						<path id="Trazado_7184" class="st4" d="M-79.5,151c-0.4,0-0.8,0.1-1.1,0.2c-0.2,0.1-0.4-0.2-0.2-0.3c0.4-0.2,0.9-0.3,1.3-0.3
							c0.1,0,0.2,0.1,0.2,0.2C-79.3,151-79.4,151-79.5,151z"/>
					</g>
					<path id="Trazado_7185" class="st2" d="M-98.8,32.2c-1-13.6,11.2-19.5,27.3-20.7c15.8-1.2,31.8,6.4,32.2,19.6h0l0,0.2
						c0,0.1,0,0.3,0,0.4c0,1.3-0.1,2.6-0.4,3.9l-4,51.1c-0.1,7.5-4,14.5-10.4,18.5l-4.5,4.2c-2.9,2.5-6.7,3.7-10.5,3.4
						c-4.2,0.1-8.3-1.1-11.8-3.5l-4.4-4.3C-91.4,101-95.2,94-95.3,86.5l-3.4-52.3C-98.7,33.5-98.8,32.9-98.8,32.2z"/>
					<path id="Trazado_7186" class="st9" d="M-108.2,261.2l-3.9-96c-2-1.6-7.4-6.5-7.7-13.4c-0.2-5.4,2.6-10.6,8.6-15.5l0.2-0.2
						l0.3-0.1c8.1-3.4,16.5-6,25.1-7.7c-1.8,10.8-6.6,36.8,15.3,35.9c21-0.9,19.7-28,18.4-34.3c8.2,2.3,16.3,5.1,24.2,8.4l0.1,0
						l0.1,0.1c3.4,2.1,5.8,5.6,6.5,9.5c0.7,5-1.5,10.5-6.8,16.2l-8,99.4C-35.7,263.4-87.1,270-108.2,261.2z"/>
					<path id="Trazado_7187" class="st9" d="M-34.2,145.3l6.2-7.1c0,0,13.5,8.9,18.2,18.7c0,0-3.2,12.3-19.6,16.6L-42,152.9
						L-34.2,145.3z"/>
					<path id="Trazado_7188" class="st9" d="M-106.9,145.3l-4.1-9.3c0,0-15.6,11.2-20.2,20.9c0,0,3.2,12.3,19.6,16.6l12.6-20.6
						L-106.9,145.3z"/>
					<path id="Trazado_7189" class="st5" d="M-44.6,40.7l0.1,11.8c0,0,0.2,12.7,1.2,14.3c0.6,1,1.2,0.4,1.2,0.4s6.1-4.6,6.8-10.5
						v-4.4c4.3-4,6-10.1,4.4-15.7c-2.7-9.9-1-22.8-13.8-25.6c0,0-12.4-8.5-24.3-4.4c0,0-23.2-0.8-29.3,10c0,0-10.5,16-6.1,27.8
						l2.3,5.5c0,0,3.5,15,5.3,14.9s3.9-11.7,3-20.3s2.4-13.3,5.1-14.5s5.8,0.9,16.7,1.4c11.9,0.6,16.1-2.1,19.5-1.3
						S-44.6,36.4-44.6,40.7z"/>
					<path id="Trazado_7190" class="st5" d="M-77.9,44.8c0,0-0.5,4.8-2,5.6S-88,51.1-90.8,54c0,0-1.4-4.1,1-5.7S-82,44-77.9,44.8z"
						/>
					<path id="Trazado_7191" class="st5" d="M-60.9,44.2c0,0,0,4.8,1.4,5.7s8,1.5,10.5,4.7c0,0,1.8-3.9-0.4-5.8
						S-56.7,43.8-60.9,44.2z"/>
					<path id="Trazado_7192" class="st6" d="M-56.1,29.1c0,0,5.2-11.8,12.1-16.4c0,0-6.2-1.6-13.3,13.4
						C-57.2,26.2-58.6,29.4-56.1,29.1z"/>
					<path id="Trazado_7193" class="st6" d="M-61.5,29.1c0,0,1.1-15.1,6.8-22.4c0,0-7.2-0.1-9.1,19.3C-63.8,26-64.1,30.2-61.5,29.1z
						"/>
					<path id="Trazado_7194" class="st6" d="M-79,29.7c0,0-1.6-14.7-6.8-21.6c0,0,6.2-0.2,8.7,18.6C-77.1,26.7-76.7,30.7-79,29.7z"
						/>
					<path id="Trazado_7195" class="st6" d="M-84.2,28.6c0,0-2.6-12.3-7.6-17.7c0,0,5.2-0.7,8.9,15C-82.9,25.9-82.2,29.3-84.2,28.6z
						"/>
					<path id="Trazado_7196" class="st5" d="M-10.7,37.1c0,0,0.3,3-1.5,4.5c-2.4,1.9-25.7-5-25.7-5S-12.5,31.9-10.7,37.1z"/>
					<path id="Trazado_7197" class="st5" d="M-72.4,82c0,0,4.5-4.3,9.3-1.4s10.5,6.7,10.5,6.7s-4.6,2.3-8.7,0s-8.5-0.6-10-1.4
						S-72.4,82-72.4,82z"/>
					<path id="Trazado_7198" class="st5" d="M-70.9,82c0,0-4.5-4.3-9.3-1.4s-10.5,6.7-10.5,6.7s4.6,2.3,8.7,0s8.5-0.6,10-1.4
						S-70.9,82-70.9,82z"/>
					<path id="Trazado_7199" class="st5" d="M-72,98.7c0,0,5.1-1.5,7,2.2s0.7,11.9-2.5,14.4l-1.5-1.8l-0.7,4c0,0-2.2-2.6-2.5-3.8
						l-1.4,2.1C-73.6,115.7-80.9,102.2-72,98.7z"/>
					<g id="Grupo_3500">
						<g id="Grupo_3499">
							<path id="Trazado_7200" class="st10" d="M-75.5,180.6l0.3,90.9l-36.2-3.8l-0.2-93.6c0,0,4.8-11.7-2.8-37.1l19.7-7.9
								C-94.7,129.1-83.2,174.1-75.5,180.6z"/>
							<g id="Grupo_3498">
								<path id="Trazado_7201" class="st11" d="M-104.1,197.7l17.8,0.6l0.2,17.2l-8.5,4.6l-9.3-3.4L-104.1,197.7z"/>
								<path id="Trazado_7202" class="st12" d="M-104.7,202l9.5,2.8l9.6-2.6l-0.3-4.7l-18.7-0.6L-104.7,202z"/>
								<path id="Trazado_7203" class="st10" d="M-95.3,206.2l-0.1,9.7l-6.7-0.2l6.7,1.3l7.7-2.1l-6.7,0.9L-95.3,206.2z"/>
								<circle id="Elipse_499" class="st13" cx="-95.1" cy="201.8" r="0.7"/>
							</g>
							<path id="Trazado_7204" class="st12" d="M-95.2,225.5l0.2,20.7C-94.9,246.2-93.3,235.4-95.2,225.5z"/>
							<path id="Trazado_7205" class="st12" d="M-94.6,166.5l-0.8,26C-95.4,192.5-94.1,184.6-94.6,166.5z"/>
							<path id="Trazado_7206" class="st12" d="M-111.7,266.5l37.2,3.8l0,2.6l-37.3-4L-111.7,266.5z"/>
							<path id="Trazado_7207" class="st12" d="M-93,126l17.6,54.6l-19.4-22.2l0.9-4.6l-10.2-23.1L-93,126z"/>
							<path id="Trazado_7208" class="st11" d="M-85.6,242.6c0,0-4.6,13-17.6,17.6l0.9,2.8c0,0,14.8-4.6,19.4-19.4L-85.6,242.6z"/>
							<path id="Trazado_7209" class="st12" d="M-86.6,241.6c0,0-4.6,13-17.6,17.6l0.9,2.8c0,0,14.8-4.6,19.4-19.4L-86.6,241.6z"/>
							<path id="Trazado_7210" class="st10" d="M-110.6,137.1l-10.2,4.6c0,0-9.3,17.6-40.7,31.5c-14.9,5.9-30.4,10.3-46.3,13
								l3.7,16.7c0,0,78.7-14.8,95.3-30.5L-110.6,137.1z"/>
							<path id="Trazado_7211" class="st12" d="M-106.9,133.4l1.9,3.7l-12,4.6h-3.7l2.8-4.6L-106.9,133.4z"/>
							<path id="Trazado_7212" class="st12" d="M-204.1,191.7c0,0,26.8-1.9,37.9-8.3l1.9,4.6c0,0-14.8,5.6-38.9,8.3L-204.1,191.7z"
								/>
							<path id="Trazado_7213" class="st10" d="M-203.3,194.2c0,0,27.9-4,33.4-7.8l0.7,1.6c0,0-21,6.7-34.2,7.1L-203.3,194.2z"/>
						</g>
						<path id="Trazado_7214" class="st11" d="M-209.6,186.1l4.6,18.5h5.6l-4.6-20.4L-209.6,186.1z"/>
					</g>
					<g id="Grupo_3501">
						<path id="Trazado_7215" class="st14" d="M-74.8,69.3c0.7-1.4,1.3-2.8,1.8-4.3c0.6-2.1,1.5-2.9,3.5-2.4s4.9,16-5.5,18.5
							s-10-5-8.8-7S-77.8,74.7-74.8,69.3z"/>
						<path id="Trazado_7216" class="st15" d="M-75.4,80.4c8.9-2.4,7.8-14.1,6-17.7c2,2,4.2,15.8-5.5,18.4c-5.4,1.4-8,0-8.9-1.9
							C-82.6,80.7-80.1,81.6-75.4,80.4z"/>
					</g>
					<g id="Grupo_3502">
						<path id="Trazado_7217" class="st16" d="M-61.6,60.1c-0.1,2.6,1.8,4.7,4.4,4.9c2.6,0.1,4.7-1.8,4.9-4.4
							c0.1-2.6-1.8-4.7-4.4-4.9c-0.1,0-0.2,0-0.3,0C-59.4,55.6-61.5,57.6-61.6,60.1z"/>
						<path id="Trazado_7218" class="st9" d="M-58.3,59.1c-0.4,0.5-0.4,1.2,0,1.6c0.6,0.7-0.4,1.6-1,1c-0.9-0.9-1-2.3-0.2-3.3
							c0.2-0.3,0.6-0.4,0.9-0.2C-58.2,58.3-58.1,58.8-58.3,59.1L-58.3,59.1z"/>
					</g>
					<g id="Grupo_3503">
						<path id="Trazado_7219" class="st16" d="M-88.3,60.1c-0.1,2.6,1.8,4.7,4.4,4.9c2.6,0.1,4.7-1.8,4.9-4.4
							c0.1-2.6-1.8-4.7-4.4-4.9c-0.1,0-0.2,0-0.3,0C-86.2,55.6-88.3,57.6-88.3,60.1z"/>
						<path id="Trazado_7220" class="st9" d="M-85.1,59.1c-0.4,0.5-0.4,1.2,0,1.6c0.6,0.7-0.4,1.6-1,1c-0.9-0.9-1-2.3-0.2-3.3
							c0.2-0.3,0.6-0.4,0.9-0.2C-85,58.3-84.9,58.8-85.1,59.1L-85.1,59.1z"/>
					</g>
					<path id="Trazado_7221" class="st3" d="M83.7,193.2l-0.7-0.7c-0.4-0.4-0.4-1.2,0-1.6l5-5.7c0.4-0.4,1.2-0.4,1.6,0l1.5,1.5
						c0.4,0.4,0.4,1.2,0,1.6l-5.8,4.9C84.9,193.6,84.1,193.6,83.7,193.2z"/>
					<g id="Grupo_3505">
						<g id="Grupo_3504">
							<path id="Trazado_7222" class="st17" d="M-71.1,94.1c-1.6,0.8-3.6,0.7-5.1-0.3C-76.2,93.8-73.7,96.5-71.1,94.1z"/>
							<path id="Trazado_7223" class="st18" d="M-79.8,89.5c0,0-0.8,0.1-0.5,0.8C-80.3,90.2-81.1,89.4-79.8,89.5z"/>
						</g>
						<path id="Trazado_7224" class="st19" d="M-64.3,90c0,0,1.4-3.5-1.3-2.6C-65.6,87.4-63.7,87.3-64.3,90z"/>
						<path id="Trazado_7225" class="st19" d="M-64.1,88.1c0,0-8,8.5-15.7,2c0,0,5.1,4.8,15.1-2.4L-64.1,88.1z"/>
					</g>
					<g id="Grupo_3507">
						<path id="Trazado_7226" class="st20" d="M-58,54.5c2,0.1,5.9,0.1,7.8,1.7s1.6,5.5,1,7.7s-1.6,5.6-5.5,7
							c-3.8,1.4-8.1,0.3-10.8-2.8c-2.6-3-3.9-8-2.3-10.6S-60.1,54.4-58,54.5z"/>
						<path id="Trazado_7227" class="st20" d="M-93.9,55.9c1.9-1.6,5.8-1.5,7.8-1.6c2.1-0.1,8.1,0.6,9.7,3.2s0.2,7.6-2.5,10.6
							c-2.7,3-7,4.1-10.8,2.6c-3.9-1.5-4.9-4.9-5.4-7.1S-95.8,57.4-93.9,55.9z"/>
						<g id="Grupo_3506">
							<path id="Trazado_7228" class="st21" d="M-97.8,54.8l0,2.3c0.5,0.1,1,0.5,1,1.1c0.2,1,0.3,5.1,1.3,7.7c1,2.9,3.3,5.1,6.3,6
								c3,0.9,6.3,0.5,9-1.2c1.9-1.3,3.4-3.1,4.5-5.2c1.5-3,1.3-6.3,1.7-7.3c0.3-0.7,1.1-0.8,2-0.8s1.7,0.1,2,0.9
								c0.3,1,0.1,4.3,1.6,7.3c1,2.1,2.5,3.9,4.4,5.2c2.7,1.7,5.9,2.2,9,1.3c3-0.8,5.4-3,6.4-5.8c1.1-2.5,1.3-6.7,1.5-7.6
								c0.1-0.6,0.6-1,1.1-1l0-2.3c0,0-0.9-0.1-2-0.2s-5.7-1.4-8.6-1.4c-2.8-0.2-5.5,0.1-8.2,0.9c-2.1,0.6-3.3,1.4-3.9,1.3
								c-2.2-0.5-4.4-0.5-6.6-0.1c-0.6,0.1-1.8-0.8-3.9-1.4c-2.6-0.8-5.4-1.2-8.2-1.1c-2.8,0-7.5,1.2-8.5,1.3S-97.8,54.8-97.8,54.8z
								 M-67.8,57.6c1.6-2.6,7.7-3.2,9.8-3.1c2,0.1,5.9,0.1,7.8,1.7s1.6,5.5,1,7.7c-0.6,2.2-1.6,5.6-5.5,7
								c-3.8,1.4-8.1,0.3-10.8-2.8C-68.1,65.2-69.4,60.2-67.8,57.6L-67.8,57.6z M-93.9,55.9c1.9-1.6,5.8-1.5,7.8-1.6
								c2.1-0.1,8.1,0.6,9.7,3.2s0.2,7.6-2.5,10.6c-2.7,3-7,4.1-10.8,2.6c-3.9-1.5-4.9-4.9-5.4-7.1S-95.8,57.4-93.9,55.9L-93.9,55.9
								z M-48.2,59.6l11.1,4.5l0.5-1.9l-11.2-4.7L-48.2,59.6z"/>
							<path id="Trazado_7229" class="st22" d="M-65.5,68.2c2.7,3.1,6.9,4.2,10.8,2.8c3.9-1.4,5-4.8,5.5-7s0.8-6.1-1-7.7
								s-5.8-1.6-7.8-1.7c-2.1-0.1-8.2,0.5-9.8,3.1S-68.1,65.2-65.5,68.2z"/>
							<path id="Trazado_7230" class="st22" d="M-93.9,55.9c1.9-1.6,5.8-1.5,7.8-1.6c2.1-0.1,8.1,0.6,9.7,3.2s0.2,7.6-2.5,10.6
								c-2.7,3-7,4.1-10.8,2.6c-3.9-1.5-4.9-4.9-5.4-7.1S-95.8,57.4-93.9,55.9z"/>
							<path id="Trazado_7231" class="st23" d="M-60.8,54.6l9,14.5c-0.8,0.8-1.8,1.4-2.9,1.8c-0.7,0.2-1.3,0.4-2,0.5l-9-15.5
								C-64.2,55.3-62.5,54.8-60.8,54.6z"/>
							<path id="Trazado_7232" class="st23" d="M-66.9,56.6l9.2,15c-0.5,0-1,0-1.6,0l-8.6-14C-67.5,57.2-67.2,56.9-66.9,56.6z"/>
							<path id="Trazado_7233" class="st23" d="M-86,54.2l5.8,15.3c-1.5,1.1-3.4,1.8-5.3,1.9l-6.7-16.5
								C-90.1,54.3-88.1,54.1-86,54.2z"/>
							<path id="Trazado_7234" class="st23" d="M-92.9,55.2l6.3,16.2c-0.5,0-0.9-0.1-1.4-0.2l-5.9-15.5
								C-93.5,55.5-93.2,55.3-92.9,55.2z"/>
						</g>
					</g>
					<g id="Grupo_3509">
						<path id="Trazado_7235" class="st10" d="M-62.4,181.5l-0.3,90.9l36.2-3.8l0.2-93.6c0,0-4.8-11.7,2.8-37.1l-19.7-7.9
							C-43.2,130-54.7,175.1-62.4,181.5z"/>
						<g id="Grupo_3508">
							<path id="Trazado_7236" class="st11" d="M-33.7,198.6l-17.8,0.6l-0.2,17.2l8.5,4.6l9.3-3.4L-33.7,198.6z"/>
							<path id="Trazado_7237" class="st12" d="M-33.1,203l-9.5,2.8l-9.6-2.6l0.3-4.7l18.7-0.6L-33.1,203z"/>
							<path id="Trazado_7238" class="st10" d="M-42.5,207.1l0.1,9.7l6.7-0.2l-6.7,1.3l-7.7-2.1l6.7,0.9L-42.5,207.1z"/>
							<circle id="Elipse_500" class="st13" cx="-42.8" cy="202.7" r="0.7"/>
						</g>
						<path id="Trazado_7239" class="st12" d="M-42.7,226.4l-0.2,20.7C-43,247.1-44.6,236.3-42.7,226.4z"/>
						<path id="Trazado_7240" class="st12" d="M-43.3,167.5l0.8,26C-42.5,193.4-43.7,185.5-43.3,167.5z"/>
						<path id="Trazado_7241" class="st12" d="M-26.2,267.4l-37.2,3.8l0,2.6l37.3-4L-26.2,267.4z"/>
						<path id="Trazado_7242" class="st12" d="M-44.8,126.9l-17.6,54.6l19.4-22.2l-0.9-4.6l10.2-23.1L-44.8,126.9z"/>
						<path id="Trazado_7243" class="st11" d="M-52.2,243.5c0,0,4.6,13,17.6,17.6l-0.9,2.8c0,0-14.8-4.6-19.4-19.4L-52.2,243.5z"/>
						<path id="Trazado_7244" class="st12" d="M-51.3,242.6c0,0,4.6,13,17.6,17.6l-0.9,2.8c0,0-14.8-4.6-19.4-19.4L-51.3,242.6z"/>
						<path id="Trazado_7245" class="st10" d="M-27.2,138l10.2,4.6c0,0,9.3,17.6,40.7,31.5c14.9,5.9,30.4,10.3,46.3,13l-3.7,16.7
							c0,0-78.7-14.8-95.3-30.5L-27.2,138z"/>
						<path id="Trazado_7246" class="st12" d="M-30.9,134.3l-1.9,3.7l12,4.6h3.7l-2.8-4.6L-30.9,134.3z"/>
						<path id="Trazado_7247" class="st12" d="M66.2,192.6c0,0-26.8-1.9-37.9-8.3l-1.9,4.6c0,0,14.8,5.6,38.9,8.3L66.2,192.6z"/>
						<path id="Trazado_7248" class="st10" d="M65.4,195.2c0,0-27.9-4-33.4-7.8l-0.7,1.6c0,0,21,6.7,34.2,7.1L65.4,195.2z"/>
					</g>
					<path id="Trazado_7249" class="st11" d="M74.5,187l-4.6,18.5h-5.6l4.6-20.4L74.5,187z"/>
				</g>
				<g id="Grupo_3554">
					<g id="Grupo_3518" transform="translate(7)">
						<path id="Trazado_7250" class="st24" d="M-15.9,228.4l0.7,0.6c0.5,0.4,1.1,0.3,1.5-0.2l5.2-5.2c0.4-0.4,0.4-1.1-0.1-1.5
							l-1.4-1.2c-0.5-0.4-1.1-0.3-1.5,0.2l-4.4,5.8C-16.3,227.4-16.3,228-15.9,228.4z"/>
						<g>
							<path id="Trazado_7251" class="st25" d="M-3.4,180.1l2.9,40.7l-37.3,4.8l-7.7-39.7L-3.4,180.1z"/>
							<polygon class="st26" points="-35.9,215.5 -5,210.8 -3.6,216.5 -35.5,220.3 							"/>
							<g id="Grupo_3512" transform="translate(6.421 6.59)">
								<g id="Grupo_3511">
									<path id="Trazado_7252" class="st27" d="M-46.2,183.7c0-0.2,0.1-0.4,0.4-0.5l0,0l1.4-0.2c0.4-0.1,0.8,0,1.2,0.2
										c0.3,0.2,0.5,0.5,0.5,0.8l0,0c0.1,0.6-0.1,1.1-0.6,1.4l0.7,0.7c0.2,0,0.3,0.1,0.3,0.2c0,0.2-0.1,0.4-0.4,0.5l0,0
										c-0.2,0-0.3,0-0.5-0.1l-1.1-0.9l-0.7,0.1l0.2,0.9c0,0.2-0.1,0.5-0.4,0.5c-0.2,0-0.5-0.1-0.5-0.4L-46.2,183.7z M-44.1,185
										c0.4,0,0.6-0.4,0.6-0.7l0,0c0-0.4-0.4-0.5-0.8-0.5l-0.9,0.2l0.2,1.1L-44.1,185z"/>
									<path id="Trazado_7253" class="st27" d="M-42.1,183c0-0.2,0.1-0.5,0.4-0.5l0,0l2.2-0.4c0.2,0,0.4,0.1,0.4,0.4
										c0,0.2,0,0.4-0.3,0.4l-1.7,0.3l0.2,0.9l1.5-0.3c0.2,0,0.4,0.1,0.4,0.4c0,0.2-0.1,0.4-0.4,0.4l-1.5,0.3l0.2,1.1
										c0,0.2-0.1,0.5-0.4,0.5c-0.2,0-0.4-0.1-0.5-0.4l0,0L-42.1,183z"/>
									<path id="Trazado_7254" class="st27" d="M-38.1,183.9L-38.1,183.9c-0.3-1.1,0.5-2.2,1.6-2.4l0.1,0c0.5-0.1,1,0,1.4,0.2
										c0.1,0.1,0.2,0.2,0.3,0.3c0,0.2-0.1,0.5-0.4,0.5l0,0c-0.1,0-0.2,0-0.2-0.1c-0.3-0.1-0.6-0.2-0.9-0.2
										c-0.6,0.1-1.1,0.8-1,1.5l0,0l0,0c0.1,0.6,0.7,1.1,1.3,1.1c0,0,0,0,0.1,0c0.3,0,0.6-0.2,0.8-0.5c0.1-0.2,0.4-0.2,0.6-0.1
										c0.2,0.1,0.2,0.4,0.1,0.6l0,0c-0.7,0.9-2.1,1-3,0.3C-37.8,184.9-38,184.5-38.1,183.9L-38.1,183.9z"/>
								</g>
							</g>
							<g id="Grupo_3514" transform="translate(8.395 28.471)">
								<g id="Grupo_3513">
									<path id="Trazado_7255" class="st27" d="M-44.9,179.6c0-0.2,0.1-0.5,0.4-0.5l0,0l0.1,0c0.2,0,0.4,0,0.5,0.2l2.1,2l-0.3-2.1
										c0-0.2,0.1-0.5,0.4-0.5c0.2,0,0.5,0.1,0.5,0.4l0.5,3.2c0,0.2-0.1,0.5-0.4,0.5l0,0l0,0c-0.2,0.1-0.5,0-0.6-0.1l-2.1-2
										l0.4,2.1c0,0.2-0.1,0.5-0.4,0.5c-0.2,0-0.5-0.1-0.5-0.4l0,0L-44.9,179.6z"/>
									<path id="Trazado_7256" class="st27" d="M-40.2,181L-40.2,181c-0.2-1,0.6-1.8,1.5-1.9c0.9-0.1,1.7,0.5,1.8,1.4l0,0
										c0.1,1-0.6,1.8-1.5,1.9C-39.3,182.5-40,181.9-40.2,181L-40.2,181z M-37.7,180.6L-37.7,180.6c0-0.5-0.5-0.8-1-0.7l0,0
										c-0.5,0-0.8,0.5-0.7,0.9l0,0.1l0,0c0,0.5,0.5,0.8,1,0.7l0,0C-37.9,181.5-37.6,181.1-37.7,180.6L-37.7,180.6L-37.7,180.6z"
										/>
									<path id="Trazado_7257" class="st27" d="M-36.3,179.2c0-0.2,0.1-0.5,0.4-0.5c0.2,0,0.5,0.1,0.5,0.4l0,0
										c0.1-0.3,0.4-0.6,0.8-0.6c0.4-0.1,0.7,0.1,0.9,0.3c0.2-0.3,0.5-0.6,0.9-0.7c0.6-0.1,1.1,0.2,1.2,0.9l0.2,1.6
										c0,0.2-0.1,0.5-0.4,0.5c-0.2,0-0.5-0.1-0.5-0.4l-0.2-1.4c0-0.4-0.3-0.6-0.6-0.5c-0.3,0.1-0.4,0.4-0.4,0.8l0.2,1.4
										c0,0.2-0.1,0.5-0.4,0.5c-0.2,0-0.5-0.1-0.5-0.4l-0.2-1.4c0-0.4-0.3-0.6-0.6-0.5c-0.3,0.1-0.5,0.2-0.4,0.7l0.2,1.4
										c0,0.2-0.1,0.5-0.4,0.5c-0.2,0-0.5,0-0.5-0.3L-36.3,179.2z"/>
									<path id="Trazado_7258" class="st27" d="M-31.1,177.2c0-0.2,0.1-0.5,0.4-0.5c0.2,0,0.5,0.1,0.5,0.4l0.2,1.2
										c0.1-0.3,0.5-0.6,0.9-0.7c0.8-0.1,1.6,0.5,1.7,1.3l0,0.1l0,0c0.2,0.8-0.3,1.6-1,1.8l-0.1,0c-0.4,0-0.7,0-1-0.3l0,0
										c0,0.2-0.1,0.5-0.4,0.5c-0.2,0-0.5-0.1-0.5-0.4l0,0L-31.1,177.2z M-28.3,179L-28.3,179c0-0.4-0.4-0.8-0.8-0.7
										c-0.4,0-0.8,0.4-0.7,0.8c0,0.1,0,0.2,0,0.2l0,0c0,0.4,0.4,0.8,0.8,0.7s0.8-0.4,0.7-0.8C-28.3,179.2-28.3,179.1-28.3,179
										L-28.3,179z"/>
									<path id="Trazado_7259" class="st27" d="M-27,177.7c0-0.2,0.1-0.5,0.4-0.5c0.2,0,0.5,0.1,0.5,0.4l0,0l0,0.2
										c0-0.3,0.3-0.7,0.5-0.7c0.2,0,0.4,0.1,0.5,0.3c0,0,0,0,0,0.1c0,0.2,0,0.4-0.3,0.4c-0.4,0.2-0.6,0.5-0.5,1.2l0.2,0.8
										c0,0.2-0.1,0.5-0.4,0.5c-0.2,0-0.5-0.1-0.5-0.4L-27,177.7z"/>
									<path id="Trazado_7260" class="st27" d="M-22.8,179.8c-0.9,0.2-1.7-0.4-1.8-1.2l0-0.1l0,0c-0.2-0.9,0.3-1.6,1.2-1.8l0.1,0
										c0.8-0.2,1.6,0.4,1.7,1.2c0,0,0,0,0,0.1c0,0.2-0.1,0.4-0.3,0.5l0,0l-1.8,0.2c0.1,0.4,0.5,0.6,0.9,0.5
										c0.2,0,0.5-0.1,0.6-0.3c0.1-0.1,0.2-0.1,0.2-0.1c0.2,0,0.3,0.1,0.4,0.3l0,0c0,0.1,0,0.2-0.1,0.2
										C-22,179.6-22.4,179.8-22.8,179.8z M-22.5,177.9c0-0.3-0.4-0.6-0.8-0.6s-0.6,0.4-0.6,0.8L-22.5,177.9z"/>
								</g>
							</g>
							<polygon class="st26" points="-39.2,196.4 -6.9,191.6 -5.5,197.2 -38.7,201.1 							"/>
						</g>
						<path id="Trazado_7288" class="st28" d="M-15.7,227.1l12.6,78.4l-13.2,0.9l-8.2-78.6L-15.7,227.1z"/>
						<g id="Grupo_3517">
							<path id="Trazado_7289" class="st28" d="M-27.8,217.8c0-0.1-0.5-2-0.5-2.2c0-1.3,1.1-1.8,2.3-1.9l10.2-3
								c0.4-0.1,0.8-0.2,1.2-0.1c1,0.3,1.7,1.1,1.8,2.1l0.4,15.3c0,0.5-0.1,1-0.4,1.4c-0.6,1-1.8,1.7-3,1.6l-5.2,0.5
								c-2.9,0.5-3.7-0.7-3.8-2.1L-27.8,217.8z"/>
						</g>
					</g>
					<g id="Grupo_3526">
						<path id="Trazado_7290" class="st29" d="M-279.6,233.9l0.7,0.6c0.5,0.4,1.1,0.3,1.5-0.2l5.2-5.2c0.4-0.4,0.4-1.1-0.1-1.5
							l-1.4-1.2c-0.5-0.4-1.1-0.3-1.5,0.2l-4.4,5.8C-280.1,232.9-280.1,233.5-279.6,233.9z"/>
						<path id="Trazado_7329" class="st30" d="M-279.5,229.6l10.9,70.8l-14.8,1.5l-4.7-71.6L-279.5,229.6z"/>
						<g>
							<path id="Trazado_7251_3_" class="st25" d="M-269.2,188.1l2.2,38.4l-35.2,4l-6.7-37.5L-269.2,188.1z"/>
							<polygon class="st26" points="-300.3,221 -271.1,217 -269.9,222.3 -300,225.4 							"/>
							<g id="Grupo_3512_3_" transform="translate(6.421 6.59)">
								<g id="Grupo_3511_3_">
									<path id="Trazado_7252_3_" class="st27" d="M-310,190.6c0-0.2,0.1-0.4,0.3-0.5l0,0l1.4-0.2c0.4-0.1,0.8,0,1.2,0.2
										c0.2,0.2,0.4,0.5,0.4,0.8l0,0c0.1,0.5-0.1,1.1-0.6,1.3l0.7,0.6c0.2,0,0.2,0.1,0.2,0.2c0,0.2-0.1,0.4-0.3,0.5l0,0
										c-0.2,0-0.3-0.1-0.5-0.1l-1-0.9l-0.7,0.1l0.1,0.8c0,0.2-0.1,0.5-0.3,0.5c-0.2,0-0.5-0.1-0.5-0.3L-310,190.6z M-308.1,191.8
										c0.4,0,0.6-0.4,0.6-0.7l0,0c0-0.4-0.3-0.5-0.7-0.5l-0.8,0.1l0.2,1.1L-308.1,191.8z"/>
									<path id="Trazado_7253_3_" class="st27" d="M-306.1,190c0-0.2,0.1-0.5,0.3-0.5l0,0l2.1-0.3c0.2,0,0.4,0.1,0.4,0.3
										c0,0.2,0,0.4-0.3,0.4l-1.7,0.3l0.1,0.8l1.4-0.3c0.2,0,0.4,0.1,0.4,0.3c0,0.2-0.1,0.4-0.3,0.4l-1.4,0.3l0.2,1.1
										c0,0.2-0.1,0.5-0.3,0.5c-0.2,0-0.4-0.1-0.5-0.3l0,0L-306.1,190z"/>
									<path id="Trazado_7254_3_" class="st27" d="M-302.4,190.9L-302.4,190.9c-0.2-1,0.5-2,1.6-2.3l0.1,0c0.4-0.1,0.9,0,1.3,0.2
										c0.1,0.1,0.2,0.2,0.3,0.3c0,0.2-0.1,0.5-0.3,0.5l0,0c-0.1,0-0.2,0-0.2-0.1c-0.3-0.1-0.5-0.2-0.8-0.2c-0.6,0.1-1,0.8-1,1.4
										l0,0l0,0c0,0.6,0.6,1.1,1.2,1c0,0,0,0,0.1,0c0.3,0,0.6-0.2,0.8-0.4c0.1-0.2,0.4-0.2,0.5,0s0.2,0.4,0,0.5l0,0
										c-0.7,0.8-2,0.9-2.9,0.2C-302.1,191.8-302.3,191.4-302.4,190.9L-302.4,190.9z"/>
								</g>
							</g>
							<g id="Grupo_3514_3_" transform="translate(8.395 28.471)">
								<g id="Grupo_3513_3_">
									<path id="Trazado_7255_3_" class="st27" d="M-309.1,185.4c0-0.2,0.1-0.5,0.3-0.5l0,0l0.1,0c0.2,0,0.4,0,0.5,0.2l1.9,1.9
										l-0.2-2c0-0.2,0.1-0.5,0.3-0.5c0.2,0,0.5,0.1,0.5,0.3l0.5,3c0,0.2-0.1,0.5-0.3,0.5l0,0l0,0c-0.2,0.1-0.5,0-0.5-0.1l-2-1.9
										l0.3,2c0,0.2-0.1,0.5-0.3,0.5c-0.2,0-0.5-0.1-0.5-0.3l0,0L-309.1,185.4z"/>
									<path id="Trazado_7256_3_" class="st27" d="M-304.8,186.8L-304.8,186.8c-0.1-0.9,0.6-1.6,1.5-1.8c0.8-0.1,1.6,0.5,1.7,1.3
										l0,0c0.1,0.9-0.5,1.7-1.5,1.8C-303.9,188.3-304.6,187.7-304.8,186.8L-304.8,186.8z M-302.4,186.5L-302.4,186.5
										c0-0.5-0.4-0.7-0.9-0.7l0,0c-0.5,0-0.7,0.4-0.7,0.8l0,0.1l0,0c0,0.5,0.4,0.7,0.9,0.7l0,0
										C-302.6,187.4-302.3,186.9-302.4,186.5L-302.4,186.5L-302.4,186.5z"/>
									<path id="Trazado_7257_3_" class="st27" d="M-301.1,185.2c0-0.2,0.1-0.5,0.3-0.5c0.2,0,0.5,0.1,0.5,0.3l0,0
										c0.1-0.3,0.4-0.6,0.8-0.6c0.4-0.1,0.7,0.1,0.9,0.3c0.2-0.3,0.5-0.6,0.9-0.6c0.6-0.1,1,0.2,1.1,0.9l0.2,1.5
										c0,0.2-0.1,0.5-0.3,0.5c-0.2,0-0.5-0.1-0.5-0.3l-0.2-1.3c0-0.4-0.3-0.6-0.6-0.5c-0.3,0.1-0.4,0.4-0.4,0.8l0.2,1.3
										c0,0.2-0.1,0.5-0.3,0.5c-0.2,0-0.5-0.1-0.5-0.3l-0.2-1.3c0-0.4-0.3-0.6-0.6-0.5c-0.3,0.1-0.4,0.2-0.4,0.6l0.2,1.3
										c0,0.2-0.1,0.5-0.3,0.5c-0.2,0-0.5,0-0.5-0.3L-301.1,185.2z"/>
									<path id="Trazado_7258_3_" class="st27" d="M-296.1,183.4c0-0.2,0.1-0.5,0.3-0.5c0.2,0,0.5,0.1,0.5,0.3l0.2,1.1
										c0.1-0.3,0.5-0.6,0.9-0.6c0.8-0.1,1.5,0.5,1.5,1.2l0,0.1l0,0c0.2,0.7-0.3,1.5-1,1.7l-0.1,0c-0.4,0-0.7,0-0.9-0.3l0,0
										c0,0.2-0.1,0.5-0.3,0.5c-0.2,0-0.5-0.1-0.5-0.3l0,0L-296.1,183.4z M-293.6,185.2L-293.6,185.2c0-0.4-0.4-0.7-0.7-0.7
										s-0.7,0.4-0.7,0.7c0,0.1,0,0.2,0,0.2l0,0c0,0.4,0.4,0.7,0.7,0.7s0.7-0.4,0.7-0.7C-293.6,185.3-293.6,185.3-293.6,185.2
										L-293.6,185.2z"/>
									<path id="Trazado_7259_3_" class="st27" d="M-292.3,183.9c0-0.2,0.1-0.5,0.3-0.5s0.5,0.1,0.5,0.3l0,0l0,0.2
										c0.1-0.3,0.3-0.6,0.5-0.6c0.2,0,0.4,0.1,0.5,0.3c0,0,0,0,0,0.1c0,0.2,0,0.4-0.3,0.4c-0.4,0.2-0.6,0.5-0.5,1.1l0.1,0.7
										c0,0.2-0.1,0.5-0.3,0.5c-0.2,0-0.5-0.1-0.5-0.3L-292.3,183.9z"/>
									<path id="Trazado_7260_3_" class="st27" d="M-288.3,186c-0.8,0.1-1.6-0.4-1.7-1.2l0-0.1l0,0c-0.1-0.8,0.3-1.5,1.2-1.7
										l0.1,0c0.7-0.1,1.5,0.4,1.6,1.2c0,0,0,0,0,0.1c0,0.2-0.1,0.4-0.3,0.5l0,0l-1.7,0.2c0.1,0.4,0.4,0.6,0.8,0.5
										c0.2,0,0.4-0.1,0.6-0.3c0.1-0.1,0.1-0.1,0.2-0.1c0.2,0,0.3,0.1,0.4,0.3l0,0c0,0.1,0,0.2-0.1,0.2
										C-287.6,185.8-287.9,185.9-288.3,186z M-288,184.2c0-0.3-0.4-0.6-0.7-0.5c-0.4,0-0.6,0.4-0.5,0.7L-288,184.2z"/>
								</g>
							</g>
							<polygon class="st26" points="-303.1,202.9 -272.7,198.8 -271.4,204.2 -302.7,207.3 							"/>
						</g>
						<g id="Grupo_3525">
							<path id="Trazado_7330" class="st30" d="M-291.6,223.3c0-0.1-0.5-2-0.5-2.2c0-1.3,1.1-1.8,2.3-1.9l10.2-3
								c0.4-0.1,0.8-0.2,1.2-0.1c1,0.3,1.7,1.1,1.8,2.1l0.4,15.3c0,0.5-0.1,1-0.4,1.4c-0.6,1-1.8,1.7-3,1.6l-5.2,0.5
								c-2.9,0.5-3.7-0.7-3.8-2.1L-291.6,223.3z"/>
						</g>
					</g>
					<g id="Grupo_3535">
						<path id="Trazado_7331" class="st31" d="M167.1,247.7l-0.7,0.6c-0.5,0.4-1.1,0.3-1.5-0.1l-5.2-5.1c-0.4-0.5-0.3-1.1,0.1-1.5
							l1.5-1.3c0.5-0.4,1.1-0.3,1.5,0.1l4.4,5.9C167.6,246.7,167.6,247.3,167.1,247.7z"/>
						<g>
							<path id="Trazado_7251_5_" class="st25" d="M193.2,206.9l-5.9,38l-35.3-3.5l1.3-38.1L193.2,206.9z"/>
							<polygon class="st26" points="155.8,232.5 185.2,234.7 185.2,240.2 155.2,236.9 							"/>
							<g id="Grupo_3512_5_" transform="translate(6.421 6.59)">
								<g id="Grupo_3511_5_">
									<path id="Trazado_7252_5_" class="st27" d="M151.2,202c0-0.2,0.2-0.4,0.4-0.4l0,0l1.4,0.1c0.4,0,0.7,0.2,1.1,0.4
										c0.2,0.3,0.3,0.6,0.3,0.9l0,0c0,0.5-0.4,1-0.8,1.2l0.5,0.8c0.2,0,0.2,0.2,0.2,0.3c0,0.2-0.2,0.4-0.4,0.4l0,0
										c-0.2,0-0.3-0.1-0.4-0.2l-0.8-1.1l-0.7-0.1l0,0.8c0,0.2-0.2,0.4-0.4,0.4c-0.2,0-0.4-0.2-0.4-0.4L151.2,202z M152.8,203.6
										c0.4,0,0.6-0.2,0.7-0.5l0,0c0-0.4-0.2-0.6-0.6-0.6l-0.8,0l-0.1,1.1L152.8,203.6z"/>
									<path id="Trazado_7253_5_" class="st27" d="M155.1,202.2c0-0.2,0.2-0.4,0.4-0.4l0,0l2.1,0.1c0.2,0,0.4,0.2,0.3,0.4
										c0,0.2-0.1,0.4-0.4,0.3l-1.7-0.1l0,0.8l1.4,0c0.2,0,0.4,0.2,0.3,0.4c0,0.2-0.2,0.4-0.4,0.3l-1.4,0l-0.1,1.1
										c0,0.2-0.2,0.4-0.4,0.4c-0.2,0-0.4-0.2-0.4-0.4l0,0L155.1,202.2z"/>
									<path id="Trazado_7254_5_" class="st27" d="M158.6,203.9L158.6,203.9c0-1.1,0.9-1.9,2-1.9l0.1,0c0.5,0,0.9,0.2,1.2,0.5
										c0.1,0.1,0.1,0.2,0.2,0.3c0,0.2-0.2,0.4-0.4,0.4l0,0c-0.1,0-0.2,0-0.2-0.1c-0.3-0.2-0.5-0.3-0.8-0.3
										c-0.6,0-1.1,0.5-1.2,1.1l0,0l0,0c-0.1,0.6,0.4,1.2,1,1.3c0,0,0,0,0.1,0c0.3,0,0.6-0.1,0.9-0.3c0.2-0.1,0.4-0.1,0.5,0.1
										c0.1,0.2,0.1,0.4-0.1,0.5l0,0c-0.9,0.7-2.1,0.5-2.9-0.4C158.7,204.8,158.5,204.4,158.6,203.9L158.6,203.9z"/>
								</g>
							</g>
							<g id="Grupo_3514_5_" transform="translate(8.395 28.471)">
								<g id="Grupo_3513_5_">
									<path id="Trazado_7255_5_" class="st27" d="M148.5,197c0-0.2,0.2-0.4,0.4-0.4l0,0l0.1,0c0.2,0,0.4,0.1,0.4,0.3l1.5,2.3
										l0.2-2c0-0.2,0.2-0.4,0.4-0.4c0.2,0,0.4,0.2,0.4,0.4l-0.2,3c0,0.2-0.2,0.4-0.4,0.4l0,0l0,0c-0.2,0-0.5-0.1-0.5-0.2
										l-1.5-2.3l-0.1,2c0,0.2-0.2,0.4-0.4,0.4c-0.2,0-0.4-0.2-0.4-0.4l0,0L148.5,197z"/>
									<path id="Trazado_7256_5_" class="st27" d="M152.5,199.3L152.5,199.3c0-0.9,0.9-1.5,1.8-1.4c0.8,0.1,1.4,0.8,1.4,1.6l0,0
										c-0.1,0.9-0.9,1.6-1.8,1.4C153,200.9,152.4,200.2,152.5,199.3L152.5,199.3z M154.9,199.5L154.9,199.5
										c0.1-0.5-0.3-0.8-0.7-0.9l0,0c-0.5-0.1-0.8,0.3-0.9,0.7l0,0.1l0,0c-0.1,0.5,0.3,0.8,0.7,0.9l0,0
										C154.5,200.3,154.8,199.9,154.9,199.5L154.9,199.5L154.9,199.5z"/>
									<path id="Trazado_7257_5_" class="st27" d="M156.4,198.5c0-0.2,0.2-0.4,0.4-0.4c0.2,0,0.4,0.2,0.4,0.4l0,0
										c0.2-0.3,0.5-0.5,0.9-0.4c0.4,0,0.7,0.2,0.8,0.5c0.3-0.3,0.6-0.5,1-0.4c0.6,0,0.9,0.4,0.9,1.1l-0.1,1.5
										c0,0.2-0.2,0.4-0.4,0.4c-0.2,0-0.4-0.2-0.4-0.4l0.1-1.3c0-0.4-0.1-0.6-0.5-0.6c-0.3,0-0.5,0.3-0.6,0.7l-0.1,1.3
										c0,0.2-0.2,0.4-0.4,0.4s-0.4-0.2-0.4-0.4l0.1-1.3c0-0.4-0.1-0.6-0.5-0.6c-0.3,0-0.5,0.1-0.5,0.5l-0.1,1.3
										c0,0.2-0.2,0.4-0.4,0.4c-0.2,0-0.4-0.1-0.4-0.4L156.4,198.5z"/>
									<path id="Trazado_7258_5_" class="st27" d="M161.6,197.8c0-0.2,0.2-0.4,0.4-0.4c0.2,0,0.4,0.2,0.4,0.4l-0.1,1.1
										c0.2-0.3,0.6-0.5,1-0.4c0.8,0.1,1.3,0.8,1.2,1.5l0,0.1l0,0c0.1,0.8-0.6,1.4-1.3,1.4l-0.1,0c-0.4,0-0.7-0.2-0.9-0.5l0,0
										c0,0.2-0.2,0.4-0.4,0.4c-0.2,0-0.4-0.2-0.4-0.4l0,0L161.6,197.8z M163.8,200.1L163.8,200.1c0-0.4-0.2-0.8-0.6-0.8
										c-0.4,0-0.8,0.2-0.8,0.6c0,0.1,0,0.2,0,0.2l0,0c0,0.4,0.2,0.8,0.6,0.8s0.8-0.2,0.8-0.6
										C163.8,200.2,163.8,200.1,163.8,200.1L163.8,200.1z"/>
									<path id="Trazado_7259_5_" class="st27" d="M165.3,199.1c0-0.2,0.2-0.4,0.4-0.4c0.2,0,0.4,0.2,0.4,0.4l0,0l0,0.2
										c0.1-0.3,0.4-0.6,0.6-0.5c0.2,0,0.4,0.2,0.4,0.4c0,0,0,0,0,0.1c0,0.2-0.1,0.4-0.4,0.3c-0.4,0.1-0.7,0.4-0.7,1l0,0.8
										c0,0.2-0.2,0.4-0.4,0.4c-0.2,0-0.4-0.2-0.4-0.4L165.3,199.1z"/>
									<path id="Trazado_7260_5_" class="st27" d="M168.7,201.9c-0.8,0-1.4-0.7-1.4-1.5l0-0.1l0,0c0-0.8,0.6-1.4,1.5-1.4l0.1,0
										c0.8,0,1.4,0.7,1.3,1.5c0,0,0,0,0,0.1c0,0.2-0.2,0.4-0.4,0.4l0,0l-1.7-0.1c0,0.4,0.3,0.7,0.7,0.6c0.2,0,0.5,0,0.6-0.1
										c0.1-0.1,0.2-0.1,0.2,0c0.2,0,0.3,0.2,0.3,0.4l0,0c0,0.1,0,0.2-0.1,0.2C169.5,201.9,169.1,202,168.7,201.9z M169.4,200.3
										c0-0.3-0.2-0.6-0.6-0.7c-0.4,0-0.6,0.2-0.7,0.6L169.4,200.3z"/>
								</g>
							</g>
							<polygon class="st26" points="156.8,214.3 187.5,216.6 187.6,222.2 156.3,218.7 							"/>
						</g>
						<path id="Trazado_7368" class="st32" d="M167,243.3l-11.7,57.2l13.9-1l6.4-55.4L167,243.3z"/>
						<g id="Grupo_3534">
							<path id="Trazado_7369" class="st32" d="M179.1,237c0-0.1,0.5-2,0.5-2.2c0-1.3-1.1-1.8-2.3-1.9l-10.2-3
								c-0.4-0.1-0.8-0.2-1.2-0.1c-1,0.3-1.7,1.1-1.8,2.1l-0.4,15.3c0,0.5,0.1,1,0.4,1.4c0.6,1,1.8,1.7,3,1.6l5.2,0.5
								c2.9,0.5,3.7-0.7,3.8-2.1L179.1,237z"/>
						</g>
					</g>
					<g id="Grupo_3541" transform="translate(-1 -2)">
						<path id="Trazado_7370" class="st29" d="M-133.8,249.6l-0.8,0.4c-0.5,0.3-1.2,0.1-1.4-0.4l-4-6.1c-0.3-0.5-0.1-1.1,0.4-1.4
							l1.7-0.9c0.5-0.3,1.2-0.1,1.4,0.4l3.1,6.6C-133.2,248.7-133.3,249.3-133.8,249.6z"/>
						<path id="Trazado_7407" class="st30" d="M-133.3,244.7l-6.8,56.8h10.9l4.6-56.1L-133.3,244.7z"/>
						<g>
							<path id="Trazado_7251_1_" class="st25" d="M-102,207.2l-7,40.2l-37.4-4.3l2.1-40.4L-102,207.2z"/>
							<polygon class="st26" points="-142.1,233.7 -110.9,236.6 -111,242.5 -142.8,238.4 							"/>
							<g id="Grupo_3512_1_" transform="translate(6.421 6.59)">
								<g id="Grupo_3511_1_">
									<path id="Trazado_7252_1_" class="st27" d="M-146.2,201.8c0-0.2,0.2-0.4,0.5-0.4l0,0l1.4,0.1c0.4,0,0.8,0.2,1.1,0.5
										c0.2,0.3,0.3,0.6,0.3,0.9l0,0c0,0.6-0.4,1.1-0.9,1.2l0.5,0.8c0.2,0,0.2,0.2,0.2,0.3c0,0.2-0.2,0.4-0.5,0.4l0,0
										c-0.2,0-0.3-0.1-0.5-0.2l-0.8-1.2l-0.7-0.1l-0.1,0.9c0,0.2-0.2,0.5-0.5,0.4c-0.2,0-0.5-0.2-0.4-0.5L-146.2,201.8z
										 M-144.5,203.5c0.4,0.1,0.7-0.2,0.7-0.5l0,0c0.1-0.4-0.2-0.6-0.6-0.7l-0.9-0.1l-0.1,1.1L-144.5,203.5z"/>
									<path id="Trazado_7253_1_" class="st27" d="M-142,202.1c0-0.2,0.2-0.5,0.5-0.4l0,0l2.3,0.2c0.2,0,0.4,0.2,0.3,0.5
										c0,0.2-0.1,0.4-0.4,0.4l-1.8-0.1l-0.1,0.9l1.5,0.1c0.2,0,0.4,0.2,0.3,0.5s-0.2,0.4-0.5,0.3l-1.5-0.1l-0.1,1.1
										c0,0.2-0.2,0.5-0.5,0.4c-0.2,0-0.4-0.2-0.4-0.5l0,0L-142,202.1z"/>
									<path id="Trazado_7254_1_" class="st27" d="M-138.3,203.9L-138.3,203.9c0-1.1,1-2,2.2-2l0.1,0c0.5,0,0.9,0.2,1.3,0.5
										c0.1,0.1,0.1,0.3,0.2,0.4c0,0.2-0.2,0.5-0.5,0.4l0,0c-0.1,0-0.2,0-0.2-0.1c-0.3-0.2-0.5-0.3-0.8-0.4
										c-0.6,0-1.2,0.6-1.3,1.2l0,0l0,0c-0.1,0.6,0.4,1.3,1,1.4c0,0,0,0,0.1,0c0.3,0,0.7-0.1,0.9-0.3c0.2-0.1,0.4-0.1,0.6,0.1
										c0.1,0.2,0.1,0.4-0.1,0.6l0,0c-0.9,0.7-2.3,0.5-3-0.5C-138.2,204.9-138.4,204.5-138.3,203.9L-138.3,203.9z"/>
								</g>
							</g>
							<g id="Grupo_3514_1_" transform="translate(8.395 28.471)">
								<g id="Grupo_3513_1_">
									<path id="Trazado_7255_1_" class="st27" d="M-149.2,197.9c0-0.2,0.2-0.5,0.5-0.4l0,0l0.1,0c0.2,0,0.4,0.1,0.4,0.3l1.5,2.4
										l0.2-2.1c0-0.2,0.2-0.5,0.5-0.4c0.2,0,0.5,0.2,0.4,0.5l-0.2,3.2c0,0.2-0.2,0.5-0.5,0.4l0,0l0,0c-0.3,0-0.5-0.1-0.5-0.2
										l-1.6-2.4l-0.2,2.2c0,0.2-0.2,0.5-0.5,0.4c-0.2,0-0.5-0.2-0.4-0.5l0,0L-149.2,197.9z"/>
									<path id="Trazado_7256_1_" class="st27" d="M-145,200.4L-145,200.4c0.1-1,1-1.6,1.9-1.5c0.9,0.1,1.5,0.9,1.4,1.8l0,0
										c-0.1,1-1,1.6-1.9,1.5C-144.5,202.1-145.1,201.3-145,200.4L-145,200.4z M-142.5,200.6L-142.5,200.6
										c0.1-0.5-0.3-0.9-0.8-0.9l0,0c-0.5-0.1-0.9,0.3-0.9,0.7l0,0.1l0,0c-0.1,0.5,0.3,0.9,0.8,0.9l0,0
										C-142.9,201.4-142.5,201.1-142.5,200.6L-142.5,200.6L-142.5,200.6z"/>
									<path id="Trazado_7257_1_" class="st27" d="M-140.8,199.5c0-0.2,0.2-0.5,0.5-0.4c0.2,0,0.5,0.2,0.4,0.5l0,0
										c0.2-0.3,0.6-0.5,1-0.4c0.4,0,0.7,0.3,0.8,0.5c0.3-0.3,0.6-0.5,1-0.4c0.6,0,1,0.5,1,1.2l-0.2,1.6c0,0.2-0.2,0.5-0.5,0.4
										s-0.5-0.2-0.4-0.5l0.1-1.4c0.1-0.4-0.1-0.7-0.5-0.6s-0.5,0.3-0.6,0.7l-0.1,1.4c0,0.2-0.2,0.5-0.5,0.4
										c-0.2,0-0.5-0.2-0.4-0.5l0.1-1.4c0.1-0.4-0.1-0.7-0.5-0.6c-0.3,0-0.5,0.1-0.6,0.6l-0.1,1.4c0,0.2-0.2,0.5-0.5,0.4
										c-0.2,0-0.5-0.2-0.4-0.4L-140.8,199.5z"/>
									<path id="Trazado_7258_1_" class="st27" d="M-135.3,198.9c0-0.2,0.2-0.5,0.5-0.4s0.5,0.2,0.4,0.5l-0.1,1.2
										c0.2-0.3,0.6-0.5,1-0.4c0.8,0.1,1.4,0.9,1.3,1.7l0,0.1l0,0c0,0.8-0.6,1.5-1.4,1.5l-0.1,0c-0.4-0.1-0.7-0.2-0.9-0.5l0,0
										c0,0.2-0.2,0.5-0.5,0.4c-0.2,0-0.5-0.2-0.4-0.5l0,0L-135.3,198.9z M-133,201.3L-133,201.3c0.1-0.4-0.2-0.8-0.6-0.9
										s-0.8,0.2-0.9,0.6c0,0.1,0,0.2,0,0.2l0,0c-0.1,0.4,0.2,0.8,0.6,0.9c0.4,0.1,0.8-0.2,0.9-0.6
										C-133.1,201.5-133,201.4-133,201.3L-133,201.3z"/>
									<path id="Trazado_7259_1_" class="st27" d="M-131.4,200.4c0-0.2,0.2-0.5,0.5-0.4s0.5,0.2,0.4,0.5l0,0l0,0.2
										c0.1-0.3,0.4-0.6,0.7-0.6s0.4,0.2,0.4,0.4c0,0,0,0,0,0.1c0,0.2-0.1,0.4-0.4,0.4c-0.4,0.1-0.7,0.4-0.8,1l0,0.8
										c0,0.2-0.2,0.5-0.5,0.4c-0.2,0-0.5-0.2-0.4-0.5L-131.4,200.4z"/>
									<path id="Trazado_7260_1_" class="st27" d="M-127.8,203.4c-0.9-0.1-1.5-0.8-1.5-1.6l0-0.1l0,0c0.1-0.9,0.7-1.5,1.6-1.5
										l0.1,0c0.8,0,1.4,0.8,1.4,1.6c0,0,0,0,0,0.1c0,0.2-0.2,0.4-0.4,0.4l0,0l-1.8-0.2c0,0.4,0.3,0.7,0.7,0.7
										c0.2,0,0.5,0,0.7-0.1c0.1-0.1,0.2-0.1,0.3,0c0.2,0,0.3,0.2,0.4,0.4l0,0c0,0.1,0,0.2-0.1,0.2
										C-127,203.4-127.4,203.5-127.8,203.4z M-127.1,201.7c0-0.3-0.2-0.7-0.6-0.7c-0.4-0.1-0.7,0.2-0.7,0.6L-127.1,201.7z"/>
								</g>
							</g>
							<polygon class="st26" points="-140.7,214.4 -108.1,217.5 -108.1,223.3 -141.3,219 							"/>
						</g>
						<g id="Grupo_3540">
							<path id="Trazado_7408" class="st30" d="M-121.1,238.4c0-0.1,0.5-2,0.5-2.2c0-1.3-1.1-1.8-2.3-1.9l-10.2-3
								c-0.4-0.1-0.8-0.2-1.2-0.1c-1,0.3-1.7,1.1-1.8,2.1l-0.4,15.3c0,0.5,0.1,1,0.4,1.4c0.6,1,1.8,1.7,3,1.6l5.2,0.5
								c2.9,0.5,3.7-0.7,3.8-2.1L-121.1,238.4z"/>
						</g>
					</g>
					<g id="Grupo_3547" transform="translate(0 10)">
						<path id="Trazado_7409" class="st29" d="M74.8,256.4l-0.8,0.4c-0.5,0.3-1.2,0.1-1.4-0.4l-4-6.1c-0.3-0.5-0.1-1.1,0.4-1.4
							l1.7-0.9c0.5-0.3,1.2-0.1,1.4,0.4l3.1,6.6C75.4,255.4,75.2,256.1,74.8,256.4z"/>
						<path id="Trazado_7446" class="st30" d="M75.3,251.4l-6.8,56.8h10.9l4.6-56.1L75.3,251.4z"/>
						<g>
							<path id="Trazado_7251_4_" class="st25" d="M103.9,215.5l-6.8,37.8L61.9,249l2.2-38L103.9,215.5z"/>
							<polygon class="st26" points="65.9,240.2 95.3,243.1 95.2,248.6 65.3,244.6 							"/>
							<g id="Grupo_3512_4_" transform="translate(6.421 6.59)">
								<g id="Grupo_3511_4_">
									<path id="Trazado_7252_4_" class="st27" d="M61.9,209.7c0-0.2,0.2-0.4,0.4-0.4l0,0l1.4,0.1c0.4,0,0.7,0.2,1.1,0.5
										c0.2,0.3,0.3,0.6,0.2,0.9l0,0c0,0.5-0.4,1-0.9,1.2l0.5,0.8c0.1,0,0.2,0.2,0.2,0.3c0,0.2-0.2,0.4-0.4,0.4l0,0
										c-0.1,0-0.3-0.1-0.4-0.2l-0.7-1.1l-0.7-0.1l-0.1,0.8c0,0.2-0.2,0.4-0.4,0.4c-0.2,0-0.4-0.2-0.4-0.4L61.9,209.7z
										 M63.5,211.4c0.4,0.1,0.6-0.2,0.7-0.5l0,0c0.1-0.4-0.2-0.6-0.6-0.6l-0.8-0.1l-0.1,1.1L63.5,211.4z"/>
									<path id="Trazado_7253_4_" class="st27" d="M65.8,210c0-0.2,0.2-0.4,0.4-0.4l0,0l2.1,0.2c0.2,0,0.4,0.2,0.3,0.4
										s-0.1,0.4-0.4,0.3l-1.7-0.1l-0.1,0.8l1.4,0.1c0.2,0,0.4,0.2,0.3,0.4c0,0.2-0.2,0.4-0.4,0.3l-1.4-0.1l-0.1,1.1
										c0,0.2-0.2,0.4-0.4,0.4c-0.2,0-0.4-0.2-0.4-0.4l0,0L65.8,210z"/>
									<path id="Trazado_7254_4_" class="st27" d="M69.2,211.8L69.2,211.8c0-1.1,1-1.8,2-1.8l0.1,0c0.5,0,0.9,0.2,1.2,0.5
										c0.1,0.1,0.1,0.2,0.2,0.3c0,0.2-0.2,0.4-0.4,0.4l0,0c-0.1,0-0.1,0-0.2-0.1c-0.3-0.2-0.5-0.3-0.8-0.4
										c-0.6,0-1.2,0.5-1.2,1.1l0,0l0,0c-0.1,0.6,0.3,1.2,0.9,1.3c0,0,0,0,0.1,0c0.3,0,0.6-0.1,0.9-0.2c0.2-0.1,0.4-0.1,0.5,0.1
										c0.1,0.2,0.1,0.4-0.1,0.5l0,0c-0.9,0.6-2.1,0.4-2.8-0.4C69.3,212.7,69.1,212.3,69.2,211.8L69.2,211.8z"/>
								</g>
							</g>
							<g id="Grupo_3514_4_" transform="translate(8.395 28.471)">
								<g id="Grupo_3513_4_">
									<path id="Trazado_7255_4_" class="st27" d="M58.8,204.8c0-0.2,0.2-0.4,0.4-0.4l0,0l0.1,0c0.1,0,0.4,0.1,0.4,0.3l1.4,2.3
										l0.2-2c0-0.2,0.2-0.4,0.4-0.4c0.2,0,0.4,0.2,0.4,0.4l-0.2,3c0,0.2-0.2,0.4-0.4,0.4l0,0l0,0c-0.2,0-0.4-0.1-0.5-0.2
										l-1.5-2.3l-0.2,2c0,0.2-0.2,0.4-0.4,0.4c-0.2,0-0.4-0.2-0.4-0.4l0,0L58.8,204.8z"/>
									<path id="Trazado_7256_4_" class="st27" d="M62.7,207.1L62.7,207.1c0.1-0.9,0.9-1.5,1.8-1.4c0.8,0.1,1.4,0.8,1.4,1.7l0,0
										c-0.1,0.9-0.9,1.5-1.8,1.4C63.2,208.8,62.6,208.1,62.7,207.1L62.7,207.1z M65.1,207.4L65.1,207.4c0.1-0.4-0.3-0.8-0.7-0.9
										l0,0c-0.4-0.1-0.8,0.3-0.9,0.6l0,0.1l0,0c-0.1,0.4,0.3,0.8,0.7,0.9l0,0C64.7,208.1,65.1,207.8,65.1,207.4L65.1,207.4
										L65.1,207.4z"/>
									<path id="Trazado_7257_4_" class="st27" d="M66.7,206.4c0-0.2,0.2-0.4,0.4-0.4c0.2,0,0.4,0.2,0.4,0.4l0,0
										c0.2-0.3,0.5-0.5,0.9-0.4c0.4,0,0.7,0.3,0.8,0.5c0.3-0.3,0.6-0.4,1-0.4c0.6,0,0.9,0.5,0.9,1.1l-0.2,1.5
										c0,0.2-0.2,0.4-0.4,0.4c-0.2,0-0.4-0.2-0.4-0.4l0.1-1.3c0.1-0.4-0.1-0.6-0.4-0.6c-0.3,0-0.5,0.3-0.6,0.7l-0.1,1.3
										c0,0.2-0.2,0.4-0.4,0.4c-0.2,0-0.4-0.2-0.4-0.4l0.1-1.3c0.1-0.4-0.1-0.6-0.4-0.6c-0.3,0-0.5,0.1-0.5,0.5l-0.1,1.3
										c0,0.2-0.2,0.4-0.4,0.4c-0.2,0-0.4-0.1-0.4-0.4L66.7,206.4z"/>
									<path id="Trazado_7258_4_" class="st27" d="M71.9,205.8c0-0.2,0.2-0.4,0.4-0.4c0.2,0,0.4,0.2,0.4,0.4l-0.1,1.1
										c0.2-0.3,0.6-0.4,1-0.4c0.7,0.1,1.3,0.8,1.2,1.6l0,0.1l0,0c0,0.8-0.6,1.4-1.4,1.4l-0.1,0c-0.4-0.1-0.7-0.2-0.8-0.5l0,0
										c0,0.2-0.2,0.4-0.4,0.4c-0.2,0-0.4-0.2-0.4-0.4l0,0L71.9,205.8z M74,208.1L74,208.1c0.1-0.4-0.2-0.8-0.6-0.9
										c-0.4-0.1-0.8,0.2-0.9,0.6c0,0.1,0,0.1,0,0.1l0,0c-0.1,0.4,0.2,0.8,0.6,0.9c0.4,0.1,0.8-0.2,0.9-0.6
										C74,208.3,74,208.2,74,208.1L74,208.1z"/>
									<path id="Trazado_7259_4_" class="st27" d="M75.5,207.2c0-0.2,0.2-0.4,0.4-0.4c0.2,0,0.4,0.2,0.4,0.4l0,0l0,0.1
										c0.1-0.3,0.4-0.6,0.6-0.5c0.2,0,0.4,0.2,0.4,0.4c0,0,0,0,0,0.1c0,0.1-0.1,0.4-0.4,0.3c-0.4,0.1-0.7,0.4-0.8,1l0,0.8
										c0,0.2-0.2,0.4-0.4,0.4c-0.2,0-0.4-0.2-0.4-0.4L75.5,207.2z"/>
									<path id="Trazado_7260_4_" class="st27" d="M78.9,210.1c-0.8-0.1-1.4-0.8-1.4-1.5l0-0.1l0,0c0.1-0.8,0.7-1.4,1.5-1.4l0.1,0
										c0.8,0,1.3,0.7,1.3,1.5c0,0,0,0,0,0.1c0,0.2-0.2,0.4-0.4,0.4l0,0l-1.7-0.2c0,0.4,0.3,0.7,0.7,0.6c0.2,0,0.5,0,0.6-0.1
										c0.1-0.1,0.2-0.1,0.2,0c0.1,0,0.3,0.2,0.3,0.4l0,0c0,0.1,0,0.1-0.1,0.2C79.7,210.1,79.3,210.2,78.9,210.1z M79.6,208.5
										c0-0.3-0.2-0.6-0.6-0.7c-0.4-0.1-0.6,0.2-0.7,0.6L79.6,208.5z"/>
								</g>
							</g>
							<polygon class="st26" points="67.4,222 98,225.1 98,230.6 66.8,226.4 							"/>
						</g>
						<g id="Grupo_3546">
							<path id="Trazado_7447" class="st30" d="M87.4,245.1c0-0.1,0.5-2,0.5-2.2c0-1.3-1.1-1.8-2.3-1.9l-10.2-3
								c-0.4-0.1-0.8-0.2-1.2-0.1c-1,0.3-1.7,1.1-1.8,2.1L72,255.4c0,0.5,0.1,1,0.4,1.4c0.6,1,1.8,1.7,3,1.6l5.2,0.5
								c2.9,0.5,3.7-0.7,3.8-2.1L87.4,245.1z"/>
						</g>
					</g>
					<g id="Grupo_3553" transform="translate(0 4)">
						<path id="Trazado_7448" class="st24" d="M-206.9,249.7l0.8,0.4c0.5,0.3,1.2,0.1,1.4-0.4l4.1-6c0.3-0.5,0.2-1.1-0.3-1.5l-1.6-1
							c-0.5-0.3-1.2-0.1-1.4,0.4l-3.2,6.5C-207.5,248.8-207.4,249.4-206.9,249.7z"/>
						<path id="Trazado_7485" class="st28" d="M-207.5,245.7l7.4,57.2l-12.3-0.2l-3.8-56.2L-207.5,245.7z"/>
						<g>
							<path id="Trazado_7251_2_" class="st25" d="M-193.5,203.4l2.2,38.4l-35.2,4l-6.7-37.5L-193.5,203.4z"/>
							<polygon class="st26" points="-224.6,236.2 -195.4,232.2 -194.3,237.6 -224.3,240.7 							"/>
							<g id="Grupo_3512_2_" transform="translate(6.421 6.59)">
								<g id="Grupo_3511_2_">
									<path id="Trazado_7252_2_" class="st27" d="M-234.3,205.8c0-0.2,0.1-0.4,0.3-0.5l0,0l1.4-0.2c0.4-0.1,0.8,0,1.2,0.2
										c0.2,0.2,0.4,0.5,0.4,0.8l0,0c0.1,0.5-0.1,1.1-0.6,1.3l0.7,0.6c0.2,0,0.2,0.1,0.2,0.2c0,0.2-0.1,0.4-0.3,0.5l0,0
										c-0.2,0-0.3-0.1-0.5-0.1l-1-0.9l-0.7,0.1l0.1,0.8c0,0.2-0.1,0.5-0.3,0.5c-0.2,0-0.5-0.1-0.5-0.3L-234.3,205.8z
										 M-232.4,207.1c0.4,0,0.6-0.4,0.6-0.7l0,0c0-0.4-0.3-0.5-0.7-0.5l-0.8,0.1l0.2,1.1L-232.4,207.1z"/>
									<path id="Trazado_7253_2_" class="st27" d="M-230.4,205.2c0-0.2,0.1-0.5,0.3-0.5l0,0l2.1-0.3c0.2,0,0.4,0.1,0.4,0.3
										c0,0.2,0,0.4-0.3,0.4l-1.7,0.3l0.1,0.8l1.4-0.3c0.2,0,0.4,0.1,0.4,0.3c0,0.2-0.1,0.4-0.3,0.4l-1.4,0.3l0.2,1.1
										c0,0.2-0.1,0.5-0.3,0.5c-0.2,0-0.4-0.1-0.5-0.3l0,0L-230.4,205.2z"/>
									<path id="Trazado_7254_2_" class="st27" d="M-226.7,206.1L-226.7,206.1c-0.2-1,0.5-2,1.6-2.3l0.1,0c0.4-0.1,0.9,0,1.3,0.2
										c0.1,0.1,0.2,0.2,0.3,0.3c0,0.2-0.1,0.5-0.3,0.5l0,0c-0.1,0-0.2,0-0.2-0.1c-0.3-0.1-0.5-0.2-0.8-0.2c-0.6,0.1-1,0.8-1,1.4
										l0,0l0,0c0,0.6,0.6,1.1,1.2,1c0,0,0,0,0.1,0c0.3,0,0.6-0.2,0.8-0.4c0.1-0.2,0.4-0.2,0.5,0c0.2,0.1,0.2,0.4,0,0.5l0,0
										c-0.7,0.8-2,0.9-2.9,0.2C-226.4,207-226.7,206.7-226.7,206.1L-226.7,206.1z"/>
								</g>
							</g>
							<g id="Grupo_3514_2_" transform="translate(8.395 28.471)">
								<g id="Grupo_3513_2_">
									<path id="Trazado_7255_2_" class="st27" d="M-233.5,200.7c0-0.2,0.1-0.5,0.3-0.5l0,0l0.1,0c0.2,0,0.4,0,0.5,0.2l1.9,1.9
										l-0.2-2c0-0.2,0.1-0.5,0.3-0.5c0.2,0,0.5,0.1,0.5,0.3l0.5,3c0,0.2-0.1,0.5-0.3,0.5l0,0l0,0c-0.2,0.1-0.5,0-0.5-0.1l-2-1.9
										l0.3,2c0,0.2-0.1,0.5-0.3,0.5s-0.5-0.1-0.5-0.3l0,0L-233.5,200.7z"/>
									<path id="Trazado_7256_2_" class="st27" d="M-229.1,202.1L-229.1,202.1c-0.1-0.9,0.6-1.6,1.5-1.8c0.8-0.1,1.6,0.5,1.7,1.3
										l0,0c0.1,0.9-0.5,1.7-1.5,1.8C-228.2,203.5-228.9,203-229.1,202.1L-229.1,202.1z M-226.7,201.7L-226.7,201.7
										c0-0.5-0.4-0.7-0.9-0.7l0,0c-0.5,0-0.7,0.4-0.7,0.8l0,0.1l0,0c0,0.5,0.4,0.7,0.9,0.7l0,0
										C-226.9,202.6-226.6,202.2-226.7,201.7L-226.7,201.7L-226.7,201.7z"/>
									<path id="Trazado_7257_2_" class="st27" d="M-225.4,200.4c0-0.2,0.1-0.5,0.3-0.5c0.2,0,0.5,0.1,0.5,0.3l0,0
										c0.1-0.3,0.4-0.6,0.8-0.6c0.4-0.1,0.7,0.1,0.9,0.3c0.2-0.3,0.5-0.6,0.9-0.6c0.6-0.1,1,0.2,1.1,0.9l0.2,1.5
										c0,0.2-0.1,0.5-0.3,0.5c-0.2,0-0.5-0.1-0.5-0.3l-0.2-1.3c0-0.4-0.3-0.6-0.6-0.5c-0.3,0.1-0.4,0.4-0.4,0.8l0.2,1.3
										c0,0.2-0.1,0.5-0.3,0.5c-0.2,0-0.5-0.1-0.5-0.3l-0.2-1.3c0-0.4-0.3-0.6-0.6-0.5c-0.3,0.1-0.4,0.2-0.4,0.6l0.2,1.3
										c0,0.2-0.1,0.5-0.3,0.5c-0.2,0-0.5,0-0.5-0.3L-225.4,200.4z"/>
									<path id="Trazado_7258_2_" class="st27" d="M-220.5,198.7c0-0.2,0.1-0.5,0.3-0.5c0.2,0,0.5,0.1,0.5,0.3l0.2,1.1
										c0.1-0.3,0.5-0.6,0.9-0.6c0.8-0.1,1.5,0.5,1.5,1.2l0,0.1l0,0c0.2,0.7-0.3,1.5-1,1.7l-0.1,0c-0.4,0-0.7,0-0.9-0.3l0,0
										c0,0.2-0.1,0.5-0.3,0.5c-0.2,0-0.5-0.1-0.5-0.3l0,0L-220.5,198.7z M-217.9,200.4L-217.9,200.4c0-0.4-0.4-0.7-0.7-0.7
										s-0.7,0.4-0.7,0.7c0,0.1,0,0.2,0,0.2l0,0c0,0.4,0.4,0.7,0.7,0.7s0.7-0.4,0.7-0.7C-217.9,200.6-217.9,200.5-217.9,200.4
										L-217.9,200.4z"/>
									<path id="Trazado_7259_2_" class="st27" d="M-216.6,199.2c0-0.2,0.1-0.5,0.3-0.5c0.2,0,0.5,0.1,0.5,0.3l0,0l0,0.2
										c0.1-0.3,0.3-0.6,0.5-0.6c0.2,0,0.4,0.1,0.5,0.3c0,0,0,0,0,0.1c0,0.2,0,0.4-0.3,0.4c-0.4,0.2-0.6,0.5-0.5,1.1l0.1,0.7
										c0,0.2-0.1,0.5-0.3,0.5c-0.2,0-0.5-0.1-0.5-0.3L-216.6,199.2z"/>
									<path id="Trazado_7260_2_" class="st27" d="M-212.6,201.2c-0.8,0.1-1.6-0.4-1.7-1.2l0-0.1l0,0c-0.1-0.8,0.3-1.5,1.2-1.7
										l0.1,0c0.7-0.1,1.5,0.4,1.6,1.2c0,0,0,0,0,0.1c0,0.2-0.1,0.4-0.3,0.5l0,0l-1.7,0.2c0.1,0.4,0.4,0.6,0.8,0.5
										c0.2,0,0.4-0.1,0.6-0.3c0.1-0.1,0.1-0.1,0.2-0.1c0.2,0,0.3,0.1,0.4,0.3l0,0c0,0.1,0,0.2-0.1,0.2
										C-211.9,201-212.3,201.2-212.6,201.2z M-212.3,199.4c0-0.3-0.4-0.6-0.7-0.6c-0.4,0-0.6,0.4-0.5,0.7L-212.3,199.4z"/>
								</g>
							</g>
							<polygon class="st26" points="-227.5,218.2 -197,214.1 -195.7,219.4 -227,222.6 							"/>
						</g>
						<g id="Grupo_3552">
							<path id="Trazado_7486" class="st28" d="M-219.6,239.4c0-0.1-0.5-2-0.5-2.2c0-1.3,1.1-1.8,2.3-1.9l10.2-3
								c0.4-0.1,0.8-0.2,1.2-0.1c1,0.3,1.7,1.1,1.8,2.1l0.4,15.3c0,0.5-0.1,1-0.4,1.4c-0.6,1-1.8,1.7-3,1.6l-5.2,0.5
								c-2.9,0.5-3.7-0.7-3.8-2.1L-219.6,239.4z"/>
						</g>
					</g>
				</g>
			</g>
		</g>
	</g>
</g>
</svg>
