<?xml version="1.0" encoding="utf-8"?>
<!-- Generator: Adobe Illustrator 23.0.4, SVG Export Plug-In . SVG Version: 6.00 Build 0)  -->
<svg version="1.1" id="Capa_1" xmlns="http://www.w3.org/2000/svg" xmlns:xlink="http://www.w3.org/1999/xlink" x="0px" y="0px"
	 viewBox="0 0 185 153.1" style="enable-background:new 0 0 185 153.1;" xml:space="preserve">
<style type="text/css">
	.st0{clip-path:url(#SVGID_2_);}
	.st1{fill:#C19063;}
	.st2{fill:#FCFCEB;}
	.st3{fill:#E8E8DD;}
	.st4{fill:#CC8758;}
	.st5{fill:#EDEDDD;}
	.st6{fill:#D8D8CB;}
	.st7{fill:#191817;}
	.st8{fill:#261B17;}
	.st9{fill:#3A3735;}
	.st10{fill:#AD754E;}
	.st11{fill:#B28056;}
	.st12{fill:#FFFFFF;}
	.st13{fill:#A89469;}
	.st14{fill:#917A46;}
	.st15{fill:#846E41;}
	.st16{fill:#725E36;}
	.st17{fill:#D6BF92;}
	.st18{fill:#E28F56;}
	.st19{fill:#C97236;}
	.st20{fill:#231F20;}
	.st21{fill:#3A1D0D;}
	.st22{clip-path:url(#SVGID_4_);}
	.st23{fill:#F1F1F1;}
	.st24{fill:#965E38;}
</style>
<g>
	<defs>
		<rect id="SVGID_1_" width="185" height="153.1"/>
	</defs>
	<clipPath id="SVGID_2_">
		<use xlink:href="#SVGID_1_"  style="overflow:visible;"/>
	</clipPath>
	<g id="Enmascarar_grupo_7" class="st0">
		<g id="Grupo_34546" transform="translate(6.607 3.887)">
			<path id="Trazado_38726" class="st1" d="M58.5,87.9c0,0-6.5,11.5-16.6,12.8s-12.8-26.4-11.2-39l-6.5,0.7c0,0-1.9,44.9,16.1,44.4
				c15.9-0.4,23.1-15.6,23.1-15.6L58.5,87.9z"/>
			<g id="Grupo_34502" transform="translate(17.999 49.734)">
				<path id="Trazado_38727" class="st1" d="M1,7.5C0.9,7.4,0.1,6.4,0.1,6.3c-0.3-0.8,0.3-1.4,1.1-1.7l6-4.2C7.4,0.2,7.7,0,8,0
					c0.7-0.1,1.4,0.3,1.7,0.9l4,9.4c0.1,0.3,0.2,0.7,0.1,1c-0.2,0.8-0.8,1.5-1.6,1.7l-3.3,1.5c-1.8,1-2.6,0.4-3-0.4L1,7.5z"/>
				<g>
					<path id="Trazado_7251_3_" class="st2" d="M3.6-15.5L14.8,2.9L-1.6,14.1L-14.8-2.6L3.6-15.5z"/>
					<polygon class="st3" points="-3.2,8.9 10.2,-0.7 12.2,1.6 -1.8,11 					"/>
					<g id="Grupo_3512_3_" transform="translate(6.421 6.59)">
						<g id="Grupo_3511_3_">
							<path id="Trazado_7252_3_" class="st4" d="M-17.5-8.6c-0.1-0.1-0.1-0.2,0-0.3l0,0l0.6-0.5c0.2-0.2,0.4-0.2,0.6-0.2
								c0.2,0,0.3,0.1,0.4,0.3l0,0c0.2,0.2,0.2,0.6,0,0.8l0.5,0.1c0.1-0.1,0.1,0,0.2,0c0.1,0.1,0.1,0.2,0,0.3l0,0
								c-0.1,0.1-0.2,0-0.3,0.1l-0.7-0.2l-0.3,0.2l0.3,0.4c0.1,0.1,0.1,0.3,0,0.3c-0.1,0.1-0.3,0.1-0.3,0L-17.5-8.6z M-16.2-8.5
								C-16-8.6-16-8.8-16.1-9l0,0c-0.1-0.2-0.3-0.2-0.5-0.1l-0.4,0.3l0.4,0.5L-16.2-8.5z"/>
							<path id="Trazado_7253_3_" class="st4" d="M-15.7-9.9c-0.1-0.1-0.1-0.3,0-0.3l0,0l1-0.7c0.1-0.1,0.2-0.1,0.3,0
								c0.1,0.1,0.1,0.2,0,0.3l-0.8,0.6l0.3,0.4l0.6-0.5c0.1-0.1,0.2-0.1,0.3,0c0.1,0.1,0.1,0.2,0,0.3l-0.6,0.5l0.4,0.5
								c0.1,0.1,0.1,0.3,0,0.3c-0.1,0.1-0.2,0.1-0.3,0l0,0L-15.7-9.9z"/>
							<path id="Trazado_7254_3_" class="st4" d="M-13.6-10.4L-13.6-10.4c-0.4-0.4-0.3-1.1,0.2-1.6l0,0c0.2-0.2,0.4-0.2,0.7-0.2
								c0.1,0,0.2,0,0.2,0.1c0.1,0.1,0.1,0.3,0,0.3l0,0c0,0-0.1,0.1-0.1,0c-0.2,0-0.3,0-0.4,0.1c-0.3,0.2-0.3,0.7-0.1,1l0,0l0,0
								c0.2,0.3,0.6,0.4,0.9,0.2c0,0,0,0,0,0c0.1-0.1,0.2-0.3,0.3-0.4c0-0.1,0.1-0.2,0.2-0.1c0.1,0.1,0.2,0.1,0.1,0.2l0,0
								c-0.1,0.6-0.8,1-1.4,0.9C-13.2-10.1-13.4-10.2-13.6-10.4L-13.6-10.4z"/>
						</g>
					</g>
					<g id="Grupo_3514_3_" transform="translate(8.395 28.471)">
						<g id="Grupo_3513_3_">
							<path id="Trazado_7255_3_" class="st4" d="M-13.6-23c-0.1-0.1-0.1-0.3,0-0.3l0,0l0,0c0.1-0.1,0.2-0.1,0.3,0l1.4,0.4l-0.6-0.9
								c-0.1-0.1-0.1-0.3,0-0.3c0.1-0.1,0.3-0.1,0.3,0l1,1.4c0.1,0.1,0.1,0.3,0,0.3l0,0l0,0c-0.1,0.1-0.2,0.1-0.3,0.1l-1.5-0.4
								l0.7,0.9c0.1,0.1,0.1,0.3,0,0.3c-0.1,0.1-0.3,0.1-0.3,0l0,0L-13.6-23z"/>
							<path id="Trazado_7256_3_" class="st4" d="M-11.1-23.4L-11.1-23.4c-0.3-0.4-0.1-0.9,0.3-1.3c0.4-0.3,0.9-0.2,1.2,0.2l0,0
								c0.3,0.4,0.2,1-0.3,1.3C-10.3-22.9-10.8-23-11.1-23.4L-11.1-23.4z M-10-24.2L-10-24.2c-0.1-0.2-0.4-0.2-0.6-0.1l0,0
								c-0.2,0.1-0.2,0.4-0.1,0.6l0,0l0,0c0.1,0.2,0.4,0.2,0.6,0.1l0,0C-9.9-23.7-9.9-24-10-24.2L-10-24.2L-10-24.2z"/>
							<path id="Trazado_7257_3_" class="st4" d="M-9.7-25.2c-0.1-0.1-0.1-0.3,0-0.3c0.1-0.1,0.3-0.1,0.3,0l0,0c0-0.2,0-0.4,0.2-0.5
								c0.2-0.2,0.4-0.1,0.5-0.1c0-0.2,0.1-0.4,0.3-0.5c0.3-0.2,0.5-0.2,0.8,0.2l0.5,0.7c0.1,0.1,0.1,0.3,0,0.3
								c-0.1,0.1-0.3,0.1-0.3,0L-7.8-26c-0.1-0.2-0.3-0.2-0.4-0.1c-0.1,0.1-0.1,0.3,0,0.5l0.4,0.6c0.1,0.1,0.1,0.3,0,0.3
								c-0.1,0.1-0.3,0.1-0.3,0l-0.4-0.6c-0.1-0.2-0.3-0.2-0.4-0.1c-0.1,0.1-0.1,0.2,0,0.4l0.4,0.6c0.1,0.1,0.1,0.3,0,0.3
								C-8.7-24-8.9-24-9-24.1L-9.7-25.2z"/>
							<path id="Trazado_7258_3_" class="st4" d="M-7.7-27.4c-0.1-0.1-0.1-0.3,0-0.3c0.1-0.1,0.3-0.1,0.3,0l0.4,0.5
								c0-0.2,0.1-0.4,0.3-0.5c0.4-0.3,0.9-0.1,1.1,0.2l0,0l0,0c0.3,0.3,0.2,0.8,0,1.1l0,0c-0.2,0.1-0.3,0.2-0.5,0.1l0,0
								c0.1,0.1,0.1,0.3,0,0.3c-0.1,0.1-0.3,0.1-0.3,0l0,0L-7.7-27.4z M-6-27.1L-6-27.1c-0.1-0.2-0.4-0.2-0.5-0.2s-0.2,0.4-0.2,0.5
								c0,0,0.1,0.1,0.1,0.1l0,0c0.1,0.2,0.4,0.2,0.5,0.2S-5.9-26.9-6-27.1C-6-27.1-6-27.1-6-27.1L-6-27.1z"/>
							<path id="Trazado_7259_3_" class="st4" d="M-5.7-28.1c-0.1-0.1-0.1-0.3,0-0.3s0.3-0.1,0.3,0l0,0l0.1,0.1c0-0.2,0-0.4,0.1-0.4
								c0.1-0.1,0.2-0.1,0.3,0c0,0,0,0,0,0c0.1,0.1,0.1,0.2,0,0.3c-0.1,0.2-0.2,0.4,0,0.7l0.2,0.3c0.1,0.1,0.1,0.3,0,0.3
								C-4.8-27-4.9-27-5-27.1L-5.7-28.1z"/>
							<path id="Trazado_7260_3_" class="st4" d="M-3.2-28.1c-0.4,0.3-0.9,0.2-1.2-0.1l0,0l0,0c-0.3-0.4-0.2-0.8,0.1-1.2l0,0
								c0.3-0.2,0.8-0.2,1.1,0.2c0,0,0,0,0,0C-3-29.2-3-29.1-3-29l0,0l-0.8,0.5c0.2,0.2,0.4,0.2,0.5,0c0.1-0.1,0.2-0.2,0.2-0.3
								c0-0.1,0-0.1,0.1-0.1c0.1-0.1,0.2,0,0.3,0l0,0c0,0,0.1,0.1,0,0.1C-2.9-28.4-3-28.3-3.2-28.1z M-3.5-29.1
								c-0.1-0.1-0.4-0.2-0.5-0.1c-0.2,0.1-0.2,0.4-0.1,0.5L-3.5-29.1z"/>
						</g>
					</g>
					<polygon class="st3" points="-9.3,0.7 4.7,-9.3 6.7,-7 -7.9,2.8 					"/>
				</g>
				<g>
					<path id="Trazado_7251_1_" class="st5" d="M10-15.7L16,5l-18.7,6.5l-8.3-19.7L10-15.7z"/>
					<polygon class="st6" points="-2.9,6.1 12.6,0.3 13.9,3 -2.2,8.5 					"/>
					<g id="Grupo_3512_1_" transform="translate(6.421 6.59)">
						<g id="Grupo_3511_1_">
							<path id="Trazado_7252_1_" class="st4" d="M-14.1-13.1c0-0.1,0-0.2,0.1-0.3l0,0l0.7-0.3c0.2-0.1,0.4-0.1,0.7,0
								c0.1,0.1,0.3,0.2,0.3,0.4l0,0c0.1,0.3,0.1,0.6-0.2,0.8l0.5,0.2c0.1,0,0.1,0,0.1,0.1c0,0.1,0,0.2-0.1,0.3l0,0
								c-0.1,0-0.2,0-0.3,0l-0.7-0.4l-0.4,0.1l0.2,0.4c0,0.1,0,0.3-0.1,0.3c-0.1,0-0.3,0-0.3-0.1L-14.1-13.1z M-12.9-12.7
								c0.2,0,0.3-0.3,0.2-0.5l0,0c0-0.2-0.2-0.2-0.4-0.2l-0.4,0.2l0.2,0.6L-12.9-12.7z"/>
							<path id="Trazado_7253_1_" class="st4" d="M-12-13.9c0-0.1,0-0.3,0.1-0.3l0,0l1.1-0.4c0.1,0,0.2,0,0.3,0.1
								c0,0.1,0,0.2-0.1,0.3l-0.9,0.4l0.2,0.4l0.7-0.3c0.1,0,0.2,0,0.3,0.1c0,0.1,0,0.2-0.1,0.3l-0.7,0.3l0.2,0.6
								c0,0.1,0,0.3-0.1,0.3c-0.1,0-0.2,0-0.3-0.1l0,0L-12-13.9z"/>
							<path id="Trazado_7254_1_" class="st4" d="M-9.9-13.9L-9.9-13.9c-0.2-0.5,0-1.2,0.6-1.5l0.1,0c0.2-0.1,0.5-0.1,0.7-0.1
								c0.1,0,0.1,0.1,0.2,0.1c0,0.1,0,0.3-0.1,0.3l0,0c-0.1,0-0.1,0-0.1,0c-0.2,0-0.3,0-0.5,0c-0.3,0.1-0.4,0.6-0.4,0.9l0,0l0,0
								c0.1,0.3,0.5,0.5,0.8,0.4c0,0,0,0,0.1,0c0.2,0,0.3-0.2,0.4-0.3c0-0.1,0.2-0.2,0.3-0.1c0.1,0.1,0.2,0.2,0.1,0.3l0,0
								c-0.3,0.5-1,0.7-1.6,0.5C-9.6-13.4-9.8-13.6-9.9-13.9L-9.9-13.9z"/>
						</g>
					</g>
					<g id="Grupo_3514_1_" transform="translate(8.395 28.471)">
						<g id="Grupo_3513_1_">
							<path id="Trazado_7255_1_" class="st4" d="M-12.4-26.2c0-0.1,0-0.3,0.1-0.3l0,0l0.1,0c0.1,0,0.2,0,0.3,0l1.3,0.8l-0.4-1.1
								c0-0.1,0-0.3,0.1-0.3c0.1,0,0.3,0,0.3,0.1l0.6,1.6c0,0.1,0,0.3-0.1,0.3l0,0l0,0c-0.1,0.1-0.3,0.1-0.3,0l-1.3-0.8l0.4,1.1
								c0,0.1,0,0.3-0.1,0.3c-0.1,0-0.3,0-0.3-0.1l0,0L-12.4-26.2z"/>
							<path id="Trazado_7256_1_" class="st4" d="M-9.9-26L-9.9-26c-0.2-0.5,0.1-0.9,0.6-1.2c0.4-0.2,0.9,0.1,1.1,0.5l0,0
								c0.2,0.5-0.1,1-0.6,1.2C-9.2-25.3-9.7-25.5-9.9-26L-9.9-26z M-8.6-26.5L-8.6-26.5c-0.1-0.3-0.3-0.3-0.6-0.3l0,0
								c-0.3,0.1-0.3,0.3-0.3,0.5l0,0.1l0,0c0.1,0.3,0.3,0.3,0.6,0.3l0,0C-8.6-25.9-8.5-26.3-8.6-26.5L-8.6-26.5L-8.6-26.5z"/>
							<path id="Trazado_7257_1_" class="st4" d="M-8.1-27.3c0-0.1,0-0.3,0.1-0.3c0.1,0,0.3,0,0.3,0.1l0,0c0-0.2,0.1-0.4,0.4-0.4
								c0.2-0.1,0.4,0,0.5,0.1c0.1-0.2,0.2-0.4,0.4-0.4c0.3-0.1,0.6,0,0.7,0.4l0.3,0.8c0,0.1,0,0.3-0.1,0.3c-0.1,0-0.3,0-0.3-0.1
								L-6-27.7c0-0.2-0.2-0.3-0.4-0.2c-0.2,0.1-0.2,0.3-0.1,0.5l0.3,0.7c0,0.1,0,0.3-0.1,0.3c-0.1,0-0.3,0-0.3-0.1l-0.3-0.7
								c0-0.2-0.2-0.3-0.4-0.2c-0.2,0.1-0.2,0.2-0.1,0.4l0.3,0.7c0,0.1,0,0.3-0.1,0.3c-0.1,0-0.3,0.1-0.3-0.1L-8.1-27.3z"/>
							<path id="Trazado_7258_1_" class="st4" d="M-5.5-28.9c0-0.1,0-0.3,0.1-0.3c0.1,0,0.3,0,0.3,0.1l0.2,0.6
								c0-0.2,0.2-0.4,0.4-0.4c0.4-0.2,0.9,0.1,1,0.5l0,0.1l0,0c0.2,0.4,0,0.9-0.3,1.1l-0.1,0c-0.2,0-0.4,0.1-0.5-0.1l0,0
								c0,0.1,0,0.3-0.1,0.3c-0.1,0-0.3,0-0.3-0.1l0,0L-5.5-28.9z M-4-28.3L-4-28.3c0-0.2-0.3-0.3-0.5-0.3s-0.3,0.3-0.3,0.5
								c0,0.1,0,0.1,0,0.1l0,0c0,0.2,0.3,0.3,0.5,0.3c0.2,0,0.3-0.3,0.3-0.5C-3.9-28.2-3.9-28.2-4-28.3L-4-28.3z"/>
							<path id="Trazado_7259_1_" class="st4" d="M-3.4-29.1c0-0.1,0-0.3,0.1-0.3c0.1,0,0.3,0,0.3,0.1l0,0l0,0.1
								c0-0.2,0.1-0.4,0.2-0.4c0.1,0,0.2,0,0.3,0.1c0,0,0,0,0,0.1c0,0.1,0,0.2-0.1,0.3c-0.2,0.2-0.3,0.3-0.1,0.7l0.1,0.4
								c0,0.1,0,0.3-0.1,0.3c-0.1,0-0.3,0-0.3-0.1L-3.4-29.1z"/>
							<path id="Trazado_7260_1_" class="st4" d="M-1-28.5c-0.4,0.2-0.9,0-1.1-0.4l0-0.1l0,0c-0.2-0.4,0-0.9,0.4-1.1l0.1,0
								c0.4-0.1,0.9,0,1,0.5c0,0,0,0,0,0.1c0,0.1,0,0.2-0.1,0.3l0,0l-0.9,0.3c0.1,0.2,0.3,0.3,0.5,0.2c0.1,0,0.2-0.1,0.3-0.2
								c0-0.1,0-0.1,0.1-0.1c0.1,0,0.2,0,0.3,0.1l0,0c0,0.1,0,0.1,0,0.1C-0.6-28.7-0.8-28.6-1-28.5z M-1-29.5c0-0.2-0.3-0.3-0.4-0.2
								c-0.2,0-0.3,0.3-0.2,0.4L-1-29.5z"/>
						</g>
					</g>
					<polygon class="st6" points="-6.7,-3.5 9.4,-9.5 10.8,-6.7 -5.9,-1.1 					"/>
				</g>
				<g>
					<path id="Trazado_7251_2_" class="st2" d="M17.5-14.3l1.8,21.5L-0.4,9.9L-4.7-11L17.5-14.3z"/>
					<polygon class="st3" points="0.5,4.5 16.8,1.9 17.6,4.8 0.8,7 					"/>
					<g id="Grupo_3512_2_" transform="translate(6.421 6.59)">
						<g id="Grupo_3511_2_">
							<path id="Trazado_7252_2_" class="st4" d="M-8.1-15.4c0-0.1,0.1-0.2,0.2-0.3l0,0l0.8-0.1c0.2-0.1,0.4,0,0.7,0.1
								c0.1,0.1,0.2,0.3,0.2,0.4l0,0c0.1,0.3,0,0.6-0.3,0.7l0.4,0.3c0.1,0,0.1,0.1,0.1,0.1c0,0.1-0.1,0.2-0.2,0.3l0,0
								c-0.1,0-0.2-0.1-0.3,0L-7-14.3l-0.4,0.1l0.1,0.4c0,0.1,0,0.3-0.2,0.3c-0.1,0-0.3,0-0.3-0.2L-8.1-15.4z M-7-14.7
								c0.2,0,0.3-0.2,0.3-0.4l0,0c0-0.2-0.2-0.3-0.4-0.3l-0.4,0.1l0.1,0.6L-7-14.7z"/>
							<path id="Trazado_7253_2_" class="st4" d="M-5.9-15.7c0-0.1,0-0.3,0.2-0.3l0,0l1.2-0.2c0.1,0,0.2,0.1,0.2,0.2
								c0,0.1,0,0.2-0.2,0.2l-0.9,0.2l0.1,0.4l0.8-0.2c0.1,0,0.2,0.1,0.2,0.2c0,0.1-0.1,0.2-0.2,0.2l-0.8,0.2l0.1,0.6
								c0,0.1,0,0.3-0.2,0.3c-0.1,0-0.2-0.1-0.3-0.2l0,0L-5.9-15.7z"/>
							<path id="Trazado_7254_2_" class="st4" d="M-3.8-15.3L-3.8-15.3c-0.1-0.6,0.3-1.1,0.9-1.3l0.1,0c0.2-0.1,0.5,0,0.7,0.1
								c0.1,0.1,0.1,0.1,0.2,0.2c0,0.1,0,0.3-0.2,0.3l0,0c-0.1,0-0.1,0-0.1-0.1c-0.2-0.1-0.3-0.1-0.5-0.1c-0.3,0.1-0.5,0.5-0.5,0.8
								l0,0l0,0c0,0.3,0.4,0.6,0.7,0.5c0,0,0,0,0.1,0c0.2,0,0.3-0.1,0.4-0.2c0.1-0.1,0.2-0.1,0.3,0c0.1,0.1,0.1,0.2,0,0.3l0,0
								c-0.4,0.5-1.1,0.5-1.6,0.2C-3.6-14.8-3.7-15-3.8-15.3L-3.8-15.3z"/>
						</g>
					</g>
					<g id="Grupo_3514_2_" transform="translate(8.395 28.471)">
						<g id="Grupo_3513_2_">
							<path id="Trazado_7255_2_" class="st4" d="M-8.2-27.9c0-0.1,0-0.3,0.2-0.3l0,0l0.1,0c0.1,0,0.2,0,0.3,0.1l1.1,1l-0.1-1.1
								c0-0.1,0-0.3,0.2-0.3c0.1,0,0.3,0,0.3,0.2l0.3,1.7c0,0.1,0,0.3-0.2,0.3l0,0l0,0c-0.1,0.1-0.3,0-0.3,0l-1.1-1l0.2,1.1
								c0,0.1,0,0.3-0.2,0.3c-0.1,0-0.3,0-0.3-0.2l0,0L-8.2-27.9z"/>
							<path id="Trazado_7256_2_" class="st4" d="M-5.8-27.2L-5.8-27.2c-0.1-0.5,0.3-0.9,0.8-1c0.4-0.1,0.9,0.3,1,0.7l0,0
								c0.1,0.5-0.3,1-0.8,1C-5.2-26.4-5.6-26.7-5.8-27.2L-5.8-27.2z M-4.4-27.4L-4.4-27.4c0-0.3-0.2-0.4-0.5-0.4l0,0
								c-0.3,0-0.4,0.2-0.4,0.5l0,0.1l0,0c0,0.3,0.2,0.4,0.5,0.4l0,0C-4.5-26.9-4.4-27.2-4.4-27.4L-4.4-27.4L-4.4-27.4z"/>
							<path id="Trazado_7257_2_" class="st4" d="M-3.7-28.2c0-0.1,0-0.3,0.2-0.3c0.1,0,0.3,0,0.3,0.2l0,0c0.1-0.2,0.2-0.3,0.4-0.3
								c0.2-0.1,0.4,0,0.5,0.2c0.1-0.2,0.3-0.3,0.5-0.3c0.3-0.1,0.6,0.1,0.6,0.5l0.1,0.8c0,0.1,0,0.3-0.2,0.3c-0.1,0-0.3,0-0.3-0.2
								l-0.1-0.7c0-0.2-0.2-0.3-0.3-0.3c-0.2,0.1-0.2,0.2-0.2,0.5l0.1,0.7c0,0.1,0,0.3-0.2,0.3c-0.1,0-0.3,0-0.3-0.2l-0.1-0.7
								c0-0.2-0.2-0.3-0.3-0.3c-0.2,0.1-0.2,0.1-0.2,0.3l0.1,0.7c0,0.1,0,0.3-0.2,0.3c-0.1,0-0.3,0-0.3-0.2L-3.7-28.2z"/>
							<path id="Trazado_7258_2_" class="st4" d="M-0.9-29.2c0-0.1,0-0.3,0.2-0.3c0.1,0,0.3,0,0.3,0.2l0.1,0.6
								c0.1-0.2,0.3-0.3,0.5-0.3C0.6-29.2,1-28.8,1-28.4l0,0.1l0,0c0.1,0.4-0.1,0.8-0.5,1l-0.1,0c-0.2,0-0.4,0-0.5-0.2l0,0
								c0,0.1,0,0.3-0.2,0.3c-0.1,0-0.3,0-0.3-0.2l0,0L-0.9-29.2z M0.5-28.3L0.5-28.3c0-0.2-0.2-0.4-0.4-0.4s-0.4,0.2-0.4,0.4
								c0,0.1,0,0.1,0,0.1l0,0c0,0.2,0.2,0.4,0.4,0.4s0.4-0.2,0.4-0.4C0.5-28.2,0.5-28.2,0.5-28.3L0.5-28.3z"/>
							<path id="Trazado_7259_2_" class="st4" d="M1.2-29c0-0.1,0-0.3,0.2-0.3s0.3,0,0.3,0.2l0,0l0,0.1c0.1-0.2,0.2-0.3,0.3-0.3
								c0.1,0,0.2,0.1,0.3,0.2c0,0,0,0,0,0.1c0,0.1,0,0.2-0.2,0.2c-0.2,0.1-0.3,0.3-0.3,0.6l0.1,0.4c0,0.1,0,0.3-0.2,0.3
								c-0.1,0-0.3,0-0.3-0.2L1.2-29z"/>
							<path id="Trazado_7260_2_" class="st4" d="M3.5-27.9c-0.4,0.1-0.9-0.2-1-0.6l0-0.1l0,0c-0.1-0.4,0.1-0.8,0.6-1l0.1,0
								c0.4-0.1,0.8,0.2,0.9,0.6c0,0,0,0,0,0.1c0,0.1-0.1,0.2-0.2,0.3l0,0L3-28.4c0.1,0.2,0.2,0.3,0.5,0.3c0.1,0,0.2-0.1,0.3-0.2
								c0.1-0.1,0.1-0.1,0.1-0.1c0.1,0,0.2,0.1,0.2,0.2l0,0c0,0.1,0,0.1-0.1,0.1C3.9-28,3.7-27.9,3.5-27.9z M3.6-28.9
								c0-0.2-0.2-0.3-0.4-0.3c-0.2,0-0.3,0.2-0.3,0.4L3.6-28.9z"/>
						</g>
					</g>
					<polygon class="st3" points="-1.3,-5.6 15.7,-8.3 16.5,-5.3 -1,-3.1 					"/>
				</g>
				<g>
					<path id="Trazado_7251_4_" class="st5" d="M23.7-13.2L23.1,8.3L3.2,8.8L1.3-12.5L23.7-13.2z"/>
					<polygon class="st6" points="4.7,3.6 21.2,2.8 21.6,5.8 4.7,6 					"/>
					<g id="Grupo_3512_4_" transform="translate(6.421 6.59)">
						<g id="Grupo_3511_4_">
							<path id="Trazado_7252_4_" class="st4" d="M-2.3-16.5c0-0.1,0.1-0.2,0.2-0.3l0,0l0.8,0c0.2,0,0.4,0,0.7,0.2
								c0.1,0.1,0.2,0.3,0.2,0.5l0,0c0,0.3-0.1,0.6-0.4,0.7l0.4,0.4c0.1,0,0.1,0.1,0.1,0.1c0,0.1-0.1,0.2-0.2,0.3l0,0
								c-0.1,0-0.2-0.1-0.3-0.1l-0.5-0.6l-0.4,0l0,0.5c0,0.1-0.1,0.3-0.2,0.3c-0.1,0-0.3-0.1-0.3-0.2L-2.3-16.5z M-1.3-15.7
								c0.2,0,0.4-0.2,0.4-0.4l0,0c0-0.2-0.1-0.3-0.4-0.3l-0.5,0l0.1,0.6L-1.3-15.7z"/>
							<path id="Trazado_7253_4_" class="st4" d="M-0.1-16.6c0-0.1,0.1-0.3,0.2-0.3l0,0l1.2-0.1c0.1,0,0.2,0.1,0.2,0.2
								c0,0.1,0,0.2-0.2,0.2l-1,0.1l0,0.5l0.8-0.1c0.1,0,0.2,0.1,0.2,0.2s-0.1,0.2-0.2,0.2l-0.8,0.1L0.4-15c0,0.1-0.1,0.3-0.2,0.3
								c-0.1,0-0.2-0.1-0.3-0.2l0,0L-0.1-16.6z"/>
							<path id="Trazado_7254_4_" class="st4" d="M1.9-15.9L1.9-15.9c-0.1-0.6,0.4-1.1,1-1.2l0.1,0c0.2,0,0.5,0,0.7,0.2
								c0.1,0.1,0.1,0.1,0.2,0.2c0,0.1-0.1,0.3-0.2,0.3l0,0c-0.1,0-0.1,0-0.1-0.1c-0.2-0.1-0.3-0.1-0.4-0.2c-0.3,0-0.6,0.4-0.6,0.7
								l0,0l0,0c0,0.3,0.3,0.6,0.6,0.6c0,0,0,0,0.1,0c0.2,0,0.3-0.1,0.5-0.2c0.1-0.1,0.2-0.1,0.3,0s0.1,0.2,0,0.3l0,0
								c-0.4,0.4-1.2,0.4-1.6,0C2-15.4,1.9-15.6,1.9-15.9L1.9-15.9z"/>
						</g>
					</g>
					<g id="Grupo_3514_4_" transform="translate(8.395 28.471)">
						<g id="Grupo_3513_4_">
							<path id="Trazado_7255_4_" class="st4" d="M-3.5-28.9c0-0.1,0.1-0.3,0.2-0.3l0,0l0.1,0c0.1,0,0.2,0,0.3,0.1l1,1.2l0-1.1
								c0-0.1,0.1-0.3,0.2-0.3c0.1,0,0.3,0.1,0.3,0.2l0.1,1.7c0,0.1-0.1,0.3-0.2,0.3l0,0l0,0c-0.1,0-0.3,0-0.3-0.1l-1-1.2l0.1,1.1
								c0,0.1-0.1,0.3-0.2,0.3c-0.1,0-0.3-0.1-0.3-0.2l0,0L-3.5-28.9z"/>
							<path id="Trazado_7256_4_" class="st4" d="M-1.2-27.9L-1.2-27.9c0-0.5,0.4-0.9,0.9-0.9c0.5,0,0.9,0.4,0.9,0.8l0,0
								c0,0.5-0.4,0.9-0.9,0.9C-0.8-27-1.1-27.4-1.2-27.9L-1.2-27.9z M0.2-28L0.2-28c0-0.3-0.2-0.4-0.5-0.4l0,0
								c-0.3,0-0.4,0.2-0.4,0.4l0,0.1l0,0c0,0.3,0.2,0.4,0.5,0.4l0,0C0-27.5,0.2-27.7,0.2-28L0.2-28L0.2-28z"/>
							<path id="Trazado_7257_4_" class="st4" d="M0.9-28.6c0-0.1,0.1-0.3,0.2-0.3c0.1,0,0.3,0.1,0.3,0.2l0,0
								C1.5-28.8,1.7-29,1.9-29c0.2,0,0.4,0.1,0.5,0.2c0.1-0.2,0.3-0.3,0.5-0.3c0.3,0,0.5,0.2,0.6,0.6l0,0.8c0,0.1-0.1,0.3-0.2,0.3
								c-0.1,0-0.3-0.1-0.3-0.2l0-0.7c0-0.2-0.1-0.3-0.3-0.3c-0.2,0-0.2,0.2-0.3,0.4l0,0.7c0,0.1-0.1,0.3-0.2,0.3
								c-0.1,0-0.3-0.1-0.3-0.2l0-0.7c0-0.2-0.1-0.3-0.3-0.3c-0.2,0-0.2,0.1-0.3,0.3l0,0.7c0,0.1-0.1,0.3-0.2,0.3
								c-0.1,0-0.3,0-0.3-0.2L0.9-28.6z"/>
							<path id="Trazado_7258_4_" class="st4" d="M3.8-29.4c0-0.1,0.1-0.3,0.2-0.3c0.1,0,0.3,0.1,0.3,0.2l0.1,0.6
								c0.1-0.2,0.3-0.3,0.5-0.3c0.5,0,0.8,0.4,0.8,0.7l0,0.1l0,0c0.1,0.4-0.2,0.8-0.6,0.9l-0.1,0c-0.2,0-0.4,0-0.5-0.2l0,0
								c0,0.1-0.1,0.3-0.2,0.3c-0.1,0-0.3-0.1-0.3-0.2l0,0L3.8-29.4z M5.1-28.2L5.1-28.2c0-0.2-0.2-0.4-0.4-0.4s-0.4,0.2-0.4,0.4
								c0,0.1,0,0.1,0,0.1l0,0c0,0.2,0.2,0.4,0.4,0.4c0.2,0,0.4-0.2,0.4-0.4C5.1-28.2,5.1-28.2,5.1-28.2L5.1-28.2z"/>
							<path id="Trazado_7259_4_" class="st4" d="M5.9-28.9c0-0.1,0.1-0.3,0.2-0.3c0.1,0,0.3,0.1,0.3,0.2l0,0l0,0.1
								c0.1-0.2,0.2-0.3,0.3-0.3c0.1,0,0.2,0.1,0.3,0.2c0,0,0,0,0,0.1c0,0.1,0,0.2-0.2,0.2c-0.2,0.1-0.4,0.2-0.3,0.6l0,0.4
								c0,0.1-0.1,0.3-0.2,0.3c-0.1,0-0.3-0.1-0.3-0.2L5.9-28.9z"/>
							<path id="Trazado_7260_4_" class="st4" d="M8.1-27.5c-0.5,0-0.9-0.3-0.9-0.8l0-0.1l0,0c0-0.5,0.2-0.8,0.8-0.9l0.1,0
								c0.4,0,0.8,0.3,0.8,0.7c0,0,0,0,0,0.1c0,0.1-0.1,0.2-0.2,0.3l0,0l-1,0c0,0.2,0.2,0.4,0.4,0.3c0.1,0,0.2,0,0.3-0.1
								C8.5-28,8.5-28,8.5-28c0.1,0,0.2,0.1,0.2,0.2l0,0c0,0.1,0,0.1-0.1,0.1C8.5-27.6,8.3-27.6,8.1-27.5z M8.3-28.5
								c0-0.2-0.2-0.4-0.4-0.3c-0.2,0-0.4,0.2-0.3,0.4L8.3-28.5z"/>
						</g>
					</g>
					<polygon class="st6" points="4.1,-6.7 21.2,-7.4 21.7,-4.4 4.1,-4.2 					"/>
				</g>
			</g>
			<g id="Grupo_34503" transform="translate(55.379 93.336)">
				<path id="Trazado_38728" class="st7" d="M0.1,0.3l1.5-0.2c0.1,0,0-0.1,0-0.1L0,0.2C0,0.2,0,0.3,0.1,0.3z"/>
				<path id="Trazado_38729" class="st7" d="M1.6,0.1c0.7,0.4,1.4,0.8,2,1.1c0.1,0,0.1-0.1,0.1-0.1C3,0.8,2.3,0.4,1.6,0.1
					C1.6,0,1.5,0.1,1.6,0.1L1.6,0.1z"/>
				<path id="Trazado_38730" class="st7" d="M3.6,1.2c0.2,0.5,0.3,0.9,0.5,1.4c0,0.1,0.1,0,0.1,0C4,2.1,3.9,1.6,3.7,1.2
					C3.7,1.1,3.6,1.1,3.6,1.2L3.6,1.2z"/>
				<path id="Trazado_38731" class="st7" d="M0,0.3L0.4,4C0.4,4,0.5,4,0.5,4L0.1,0.3C0.1,0.2,0,0.2,0,0.3z"/>
				<path id="Trazado_38732" class="st7" d="M0.5,4c1.2-0.5,2.4-0.9,3.7-1.4c0.1,0,0-0.1-0.1-0.1C2.9,3,1.7,3.5,0.4,3.9
					C0.4,3.9,0.4,4,0.5,4z"/>
				<path id="Trazado_38733" class="st7" d="M0.1,0.3l4,2.3c0.1,0,0.1-0.1,0.1-0.1L0.1,0.3C0.1,0.2,0,0.3,0.1,0.3z"/>
				<path id="Trazado_38734" class="st7" d="M2,0.3C1.7,0.4,1.3,0.6,1,0.8c0,0,0,0.1,0,0.1c0,0,0.1,0,0.1,0c0.3-0.2,0.7-0.3,1-0.5
					C2.2,0.3,2.1,0.2,2,0.3z"/>
				<path id="Trazado_38735" class="st7" d="M1,0.8c-0.2,1-0.4,2.1-0.5,3.1c0,0.1,0.1,0.1,0.1,0c0.1-1,0.3-2,0.5-3.1
					C1.1,0.8,1,0.8,1,0.8L1,0.8z"/>
				<path id="Trazado_38736" class="st7" d="M3,0.9C3,1.2,3,1.6,3,2C3,2,3.1,2,3.1,2c0-0.4,0-0.7,0-1.1C3.2,0.8,3,0.8,3,0.9z"/>
				<path id="Trazado_38737" class="st7" d="M3,1.9C2.1,2.5,1.3,3.2,0.5,3.9c-0.1,0,0,0.1,0.1,0.1C1.4,3.3,2.2,2.6,3,1.9
					C3.2,2,3.1,1.9,3,1.9z"/>
			</g>
			<path id="Trazado_38738" class="st1" d="M121.4,83.4c0,0,5.1,12.1,15,14.5s15.9-24.9,15.7-37.6l6.4,1.4c0,0-3.4,44.8-21.2,42.5
				c-15.7-2.1-21.1-17.9-21.1-17.9L121.4,83.4z"/>
			<path id="Trazado_38739" class="st8" d="M74.9,35.1c0,0-4.8,6.8-2.4,10.7s3,5.3,1.7,6.5c1.2-0.6,1.9-1.8,1.9-3.1
				c0,0,0.3,3.8,3.3,4.4s20.7-4.8,20.7-4.8L74.9,35.1z"/>
			<path id="Trazado_38740" class="st8" d="M109.4,35.6c0,0,4.8,6.8,2.4,10.7s-3,5.3-1.7,6.5c-1.2-0.6-1.9-1.8-1.9-3.1
				c0,0-0.3,3.8-3.3,4.4s-20.7-4.8-20.7-4.8L109.4,35.6z"/>
			<path id="Trazado_38741" class="st9" d="M74.5,11c-0.1-0.2-1.8-6.1-9.5-6.8s-10.5,14.6-5.5,17.5S72.3,18,72.3,18L74.5,11z"/>
			<path id="Trazado_38742" class="st8" d="M76.6,14.8c0,0-6.9-9.6-13.6-8.9s-10.5,7.2-7,8.9s14.3,3.7,16.4,3.3S76.7,15.7,76.6,14.8
				z"/>
			<g id="Grupo_34504" transform="translate(71.863 32.564)">
				<ellipse id="Elipse_735" class="st1" cx="3.6" cy="3.4" rx="3.6" ry="3.4"/>
				<ellipse id="Elipse_736" class="st10" cx="3.6" cy="3.4" rx="2.1" ry="2"/>
			</g>
			<g id="Grupo_34505" transform="translate(106.058 32.192)">
				<ellipse id="Elipse_737" class="st1" cx="3.6" cy="3.4" rx="3.6" ry="3.4"/>
				<ellipse id="Elipse_738" class="st10" cx="3.6" cy="3.4" rx="2.1" ry="2"/>
			</g>
			<path id="Trazado_38983" class="st1" d="M75.3,138.3c0.3-7.8,9.2-13.9,19.9-13.6c10.7,0.3,19.2,6.9,18.9,14.8
				c-0.3,7.8-9.2,13.9-19.9,13.6C83.5,152.8,75,146.2,75.3,138.3z"/>
			<path id="Trazado_38743" class="st1" d="M101.2,59.1l-2.3,15.7l-13,0.1l-1.5-16.1L101.2,59.1z"/>
			<path id="Trazado_38744" class="st11" d="M100,64.1c0,0-9,4.5-15.2,0.5l-0.6-5.8l16.9,0.3L100,64.1z"/>
			<path id="Trazado_38745" class="st1" d="M92.2,74.3l-24.5,3.9c0,0-8.3,4.5,0.7,13.5l7.6,50.5c12.7,2.8,26,1.9,38.2-2.7l4-47.2
				c0,0,10.8-6.9-0.1-15.4L92.2,74.3z"/>
			<path id="Trazado_38746" class="st1" d="M73.1,81.2l-5.4-3c0,0,17.9-7.2,27.6-6.6c7.8,0.6,15.5,2.4,22.8,5.3l-13.5,9.5L73.1,81.2
				z"/>
			<path id="Trazado_38747" class="st1" d="M118.1,76.9c-7.3-2.9-15-4.7-22.8-5.3c-9.7-0.6-27.6,6.6-27.6,6.6s-8.3,4.5,0.7,13.5
				l7.6,50.5c12.7,2.8,26,1.9,38.2-2.7l4-47.2C118.2,92.3,128.9,85.4,118.1,76.9z"/>
			<g id="Grupo_34506" transform="translate(87.187 82.489)">
				<path id="Trazado_38748" class="st7" d="M7.9,4.1c-0.4,1-1.5,1.8-1.7,2.9C6,7.7,6.4,8.1,7.2,8.2c0.8,0,1.4-0.6,1.5-1.4
					c0.1-0.9,0-1.9-0.5-2.7C8.1,3.9,7.9,4,7.9,4.2c0.4,0.6,0.6,1.4,0.6,2.1C8.5,7,8,8.2,7,7.9L6.4,7.5c0-0.1,0-0.3,0-0.4
					c0-0.2,0.1-0.4,0.2-0.6C6.7,6.2,6.9,6,7.1,5.7c0.4-0.5,0.8-1,1-1.6C8.2,4,8,3.9,7.9,4.1L7.9,4.1z"/>
				<path id="Trazado_38749" class="st7" d="M5.1,4c0.1,0.9,0.6,1.7,1.4,2.3c0.1,0,0.1,0,0.2,0c0-0.1,0-0.1,0-0.2
					C5.9,5.6,5.5,4.8,5.4,4C5.3,3.8,5.1,3.9,5.1,4L5.1,4z"/>
				<path id="Trazado_38750" class="st7" d="M5.1,3.9C4.5,5,4.4,6.2,4.8,7.4C5.2,8.2,6.2,8.6,7,8.2c0,0,0,0,0,0C7.2,8.1,7,7.9,6.9,8
					c-1.2,0.5-2-0.5-2.1-1.5C4.8,5.6,5,4.8,5.3,4C5.4,3.9,5.2,3.8,5.1,3.9L5.1,3.9z"/>
				<path id="Trazado_38751" class="st7" d="M5.5,4.5c0.2-0.4,0.4-0.7,0.6-1.1l-0.2,0l0.3,1.4c0,0.1,0.2,0.1,0.2-0.1L6.1,3.3
					C6.1,3.3,6,3.2,6,3.3c0,0,0,0-0.1,0C5.7,3.7,5.5,4,5.3,4.4C5.2,4.5,5.4,4.6,5.5,4.5L5.5,4.5z"/>
				<path id="Trazado_38752" class="st7" d="M5.9,5.5c0.7-0.5,1.1-1.3,1.2-2.2l-0.2,0l0.7,1.2c0.1,0.1,0.3,0,0.2-0.1L7.1,3.2
					c0-0.1-0.1-0.1-0.2,0c0,0,0,0,0,0.1C6.8,4,6.5,4.8,5.8,5.3C5.7,5.4,5.8,5.6,5.9,5.5L5.9,5.5z"/>
				<path id="Trazado_38753" class="st7" d="M6.2,3.6c0-0.2,0.1-0.4,0.3-0.4c0.2,0,0.2,0.2,0.3,0.3s0.3,0,0.2-0.1
					C7,3.3,6.9,3.1,6.8,3C6.7,2.9,6.6,2.9,6.4,2.9C6.1,3,6,3.3,5.9,3.6C5.9,3.7,6.2,3.7,6.2,3.6L6.2,3.6z"/>
				<path id="Trazado_38754" class="st7" d="M4.9,4.7c-0.3-0.1-0.7-0.1-1.1,0c-0.4,0.2-0.6,0.6-1,0.8c-0.1,0-0.1,0.1,0,0.1
					c0,0,0,0,0,0c0.6,0.5-0.1,1.4,0.6,1.9C3.9,7.9,4.5,8,5,7.7c0.1-0.1,0-0.3-0.1-0.2c-0.4,0.2-0.8,0.2-1.2,0C3.4,7.4,3.2,7,3.2,6.6
					c0-0.4,0-0.8-0.3-1l0,0.2c0.6-0.4,1-1.2,1.9-0.8C4.9,5,5,4.8,4.9,4.7L4.9,4.7z"/>
				<path id="Trazado_38755" class="st7" d="M8.6,5.1C9.2,5,9.7,5.2,10.1,5.6c0.2,0.2,0.4,0.3,0.7,0.4l0-0.2
					c-0.4,0.3-0.7,0.7-0.7,1.2c0,0.3-0.2,0.7-0.5,0.8C9.1,8.1,8.6,8,8.3,7.6C8.2,7.5,8,7.6,8.1,7.7c0.3,0.5,1,0.7,1.5,0.4
					c0.9-0.4,0.4-1.6,1.2-2.1c0.1,0,0.1-0.1,0-0.1c0,0,0,0-0.1-0.1C10.3,5.7,10.2,5.3,9.7,5C9.4,4.8,8.9,4.8,8.5,4.9
					C8.4,4.9,8.5,5.1,8.6,5.1L8.6,5.1z"/>
				<path id="Trazado_38756" class="st7" d="M6.1,3.2C5.7,3.1,5.3,2.9,4.9,2.9C4.9,2.9,4.8,3,4.8,3c0,0.7-1.3,0.9-0.9,1.7
					c0.1,0.1,0.3,0,0.2-0.1C3.9,4.2,4.4,3.9,4.7,3.7C4.9,3.5,5,3.3,5.1,3L4.9,3.1c0.4,0,0.7,0.1,1.1,0.3c0.1,0,0.1,0,0.1-0.1
					C6.2,3.3,6.2,3.3,6.1,3.2C6.1,3.2,6.1,3.2,6.1,3.2L6.1,3.2z"/>
				<path id="Trazado_38757" class="st7" d="M7.4,3.6c0.1-0.1,0.3-0.2,0.4-0.2c0.3-0.1,0.5,0,0.8,0.1c0.2,0.1,0.5,0.1,0.7,0.1
					L9.1,3.5c0,0.1,0.1,0.3,0.2,0.4C9.4,4,9.5,4.1,9.6,4.3c0.1,0.2,0,0.5-0.1,0.7C9.4,5.1,9.6,5.2,9.7,5C9.8,4.8,10,4.7,9.9,4.4
					C9.9,4.1,9.4,3.9,9.4,3.5c0-0.1-0.1-0.1-0.1-0.1c0,0,0,0,0,0C8.8,3.5,8.5,3.1,8,3.1C7.7,3.2,7.5,3.3,7.3,3.5
					C7.1,3.5,7.2,3.7,7.4,3.6L7.4,3.6z"/>
				<path id="Trazado_38758" class="st7" d="M4.2,7.7c-0.5,0.2-0.7,0.6-0.3,1C4,8.9,4.3,9,4.6,9.1c0.5,0.1,1.1,0.4,1.5,0.8
					c0,0,0.1,0,0.2,0C7,9.4,7.7,9.1,8.5,9C9,8.9,9.3,8.7,9.4,8.2c0-0.1-0.2-0.1-0.2,0c-0.1,0.6-1,0.7-1.5,0.8
					C7.2,9.1,6.8,9.3,6.4,9.5C6.1,9.6,6.1,9.5,5.9,9.4C5.7,9.2,5.4,9.1,5.2,9C5,8.9,4.7,8.9,4.4,8.8C3.9,8.7,3.6,8.2,4.3,7.9
					C4.4,7.8,4.3,7.7,4.2,7.7L4.2,7.7z"/>
				<path id="Trazado_38759" class="st7" d="M7,9.3c0,0.6,0.5,1.2,1.1,1.3c0.3,0,0.7,0,0.9-0.2c0.6-0.3,1.3-0.3,1.9-0.1
					c0.1,0,0.1,0,0.2,0c0,0,0-0.1,0-0.1c-0.3-0.8,0.9-1.2,0.7-2.1c-0.1-0.7-1-1-1.7-1c-0.1,0-0.1,0-0.1,0.1c0,0.1,0,0.1,0.1,0.1
					c0.5-0.1,1,0.1,1.3,0.5c0.3,0.4,0,0.8-0.3,1.2c-0.3,0.3-0.5,0.7-0.3,1.2l0.2-0.1C10.5,9.9,9.9,9.8,9.3,10
					c-0.4,0.2-0.8,0.3-1.2,0.3c-0.5-0.1-0.8-0.5-0.8-1.1C7.2,9.1,7,9.1,7,9.3L7,9.3z"/>
				<path id="Trazado_38760" class="st7" d="M9.6,4C10,4,10.4,4,10.7,4.1c0.3,0.2,0.5,0.4,0.7,0.6c0.3,0.3,0.8,0.5,1.2,0.5L12.6,5
					c-0.3,0.2-0.5,0.5-0.5,0.9c0,0.2,0,0.5,0,0.7c0,0.2-0.3,0.9-0.7,0.8c-0.1-0.1-0.2,0.2-0.1,0.2c0.3,0.1,0.7-0.2,0.8-0.5
					c0.4-0.7-0.3-1.4,0.5-1.9c0.1,0,0.1-0.1,0-0.1c0,0-0.1-0.1-0.1-0.1c-0.8,0-1.1-0.6-1.7-1c-0.4-0.2-0.9-0.3-1.4-0.3
					C9.5,3.8,9.5,4.1,9.6,4L9.6,4z"/>
				<path id="Trazado_38761" class="st7" d="M4.3,3.8C4.2,3.5,4.1,3.3,4.3,3c0.1-0.2,0.4-0.4,0.6-0.4C5.3,2.5,5.7,2.5,6,2.4
					c0.6-0.2,1-0.6,1.3-1.1l-0.2,0c0.2,0.6,0.7,0.8,1.3,1c1,0.3,1.7,0.6,1.8,1.7c0,0.1,0.2,0.1,0.2,0c0-0.6-0.3-1.1-0.8-1.5
					C8.9,2,7.6,2.1,7.3,1.2c0-0.1-0.1-0.1-0.2-0.1c0,0,0,0-0.1,0c-0.3,0.6-0.8,1-1.4,1.1c-0.4,0-0.8,0.1-1.2,0.2
					C3.8,2.8,3.8,3.3,4.1,3.9C4.2,4,4.4,3.9,4.3,3.8L4.3,3.8z"/>
				<path id="Trazado_38762" class="st7" d="M4,3.4C3.5,3.3,3,3.3,2.5,3.6C2.3,3.7,2.1,3.8,2,4C1.6,4.2,1.2,4.3,0.8,4.4
					c-0.1,0-0.1,0.1-0.1,0.1c0,0,0,0,0,0.1c0.3,0.5,0.5,1,0.5,1.6c0,0.4,0,0.7,0.2,1c0.5,0.7,1.3,0.6,2,0.4c0.1,0,0.1-0.2-0.1-0.2
					C2.8,7.6,2.2,7.5,1.8,7.2C1.4,6.9,1.5,6.4,1.5,6c0-0.6-0.2-1.1-0.5-1.6L0.9,4.6c0.4-0.1,0.9-0.2,1.3-0.5
					c0.2-0.2,0.5-0.4,0.8-0.5c0.4-0.1,0.7-0.1,1.1,0c0.1,0,0.1,0,0.1-0.1C4.2,3.4,4.1,3.4,4,3.4C4,3.4,4,3.4,4,3.4L4,3.4z"/>
				<path id="Trazado_38763" class="st7" d="M2.4,7.6C2.2,7.9,2.1,8.4,2.3,8.8c0.4,0.7,1.3,0.9,1.1,1.9c0,0.1,0,0.1,0.1,0.1
					c0,0,0,0,0.1,0c0.4-0.1,0.9-0.1,1.3-0.1c0.3,0.1,0.7,0.1,1,0.1c0.3,0,0.6-0.1,0.8-0.2c0.3-0.1,0.5-0.4,0.8-0.5
					c0.1-0.1,0.1-0.3-0.1-0.2c-0.2,0.1-0.4,0.2-0.5,0.3c-0.5,0.3-1,0.5-1.6,0.3c-0.6-0.1-1.2-0.1-1.8,0l0.1,0.1
					c0.1-0.4,0-0.9-0.3-1.2C3.2,9.4,3,9.2,2.8,9.1C2.4,8.7,2.3,8.1,2.6,7.7C2.7,7.6,2.5,7.5,2.4,7.6L2.4,7.6z"/>
				<path id="Trazado_38764" class="st7" d="M8.3,2.2C8.5,2,8.6,1.9,8.8,1.7C9,1.5,9.1,1.2,9.4,1.6c0,0.1,0.1,0.1,0.2,0c0,0,0,0,0,0
					c0.4-0.3,0.8-0.6,1.2-0.9l-0.2,0c0.1,0.2,0.1,0.4,0.4,0.4s0.8-0.7,1-0.3c0,0.1,0.1,0.1,0.2,0c0.4-0.2,0.8-0.3,1.3-0.3
					c0.3,0.1,0.1,0.3,0.1,0.5c-0.1,0.3-0.1,0.5-0.1,0.8c0,0.1,0.2,0.1,0.2,0c0-0.3,0.5-1.4,0-1.5c-0.5,0-1.1,0.1-1.6,0.4l0.2,0
					c-0.1-0.2-0.3-0.4-0.5-0.3c-0.3,0.1-0.6,0.7-0.9,0.2c0-0.1-0.1-0.1-0.2,0c-0.5,0.2-0.9,0.5-1.2,0.9l0.2,0
					C9.5,1.4,9.4,1.2,9.2,1.1c0,0-0.1,0-0.1,0C8.8,1.4,8.5,1.7,8.2,2C8.1,2.1,8.2,2.3,8.3,2.2L8.3,2.2z"/>
				<path id="Trazado_38765" class="st7" d="M13.5,2c0.1,0,0.2-0.1,0.3-0.1l-0.1-0.1c-0.1,0.2-0.3,0.5-0.4,0.7
					c0,0.1-0.1,0.1-0.1,0.1c0,0.2,0.2,0.3,0.2,0.4c0,0.1-0.4,0.3-0.5,0.4c-0.1,0.2,0,0.3,0.1,0.5l0-0.1c-0.2,0.1-0.4,0.2-0.6,0.3
					c-0.1,0-0.1,0.1-0.1,0.1c0,0,0,0,0,0c0.1,0.2,0.1,0.3,0.3,0.4l0-0.1c-0.3,0.1-0.5,0.2-0.7,0.4C11.8,4.9,12,5.1,12,4.9
					c0.1-0.2,0.5-0.3,0.7-0.4c0.1,0,0.1-0.1,0-0.1c0,0,0,0,0,0c-0.1-0.1-0.2-0.2-0.2-0.4l-0.1,0.1c0.2-0.1,0.5-0.2,0.7-0.3
					c0.1,0,0.1-0.1,0-0.1c0,0,0,0,0,0c-0.3-0.4,0.4-0.5,0.5-0.8c0,0,0-0.1-0.1-0.1c-0.2-0.2,0.2-0.8,0.3-1c0-0.1-0.1-0.2-0.1-0.1
					l-0.3,0.1c-0.1,0-0.1,0.1-0.1,0.1C13.4,2,13.4,2,13.5,2L13.5,2z"/>
				<path id="Trazado_38766" class="st7" d="M0.5,0.2c0.1,0.5,0,1,0.1,1.5l0.1-0.1c-0.2,0-0.4-0.1-0.6-0.1C0,1.5,0,1.5,0,1.6
					c0,0,0,0,0,0c0.1,0.4,0.4,0.6,0.6,1l0.1-0.2c-0.2,0-0.4,0.1-0.5,0.2c-0.1,0-0.1,0.1-0.1,0.1c0,0,0,0,0,0C0.2,2.9,0.3,3,0.5,3.2
					c0.2,0.2,0.4,0.4,0.7,0.6l0-0.2C1,3.7,0.8,3.7,0.6,3.8c-0.1,0-0.1,0.1-0.1,0.1c0,0,0,0,0,0.1C0.7,4.1,0.9,4.2,1,4.4
					c0.1,0.1,0.3-0.1,0.2-0.2C1.1,4.1,0.9,3.9,0.7,3.8L0.7,4c0.2,0,0.4-0.1,0.6-0.2c0.1,0,0.1-0.1,0.1-0.1c0,0,0,0,0,0
					C1.1,3.5,1,3.3,0.8,3.2S0.4,2.9,0.3,2.7L0.3,2.8c0.2-0.1,0.3-0.1,0.5-0.2c0.1,0,0.1-0.1,0.1-0.1c0,0,0,0,0,0
					C0.7,2.1,0.3,1.9,0.2,1.6L0.1,1.7c0.2,0,0.4,0,0.6,0.1c0.1,0,0.1,0,0.1-0.1c0,0,0,0,0-0.1c-0.1-0.5,0-1-0.1-1.5
					C0.7,0,0.5,0.1,0.5,0.2L0.5,0.2z"/>
				<path id="Trazado_38767" class="st7" d="M0.5,0.2C1,0.4,1.4,0.5,1.8,0.6c0,0,0.1,0,0.1-0.1C2,0.4,2.1,0.3,2.2,0.2L2,0.2
					c0.4,0.2,0.7,0.4,1,0.7C3,1,3.1,1,3.1,1c0,0,0,0,0,0c0.4-0.5,1,0.4,1.2,0.7c0,0,0.1,0,0.1,0c0.2-0.1,0.4-0.2,0.6,0
					c0.2,0.2,0.4,0.5,0.5,0.8c0.1,0.1,0.3,0,0.2-0.1C5.6,2,5.4,1.7,5.2,1.4C5.1,1.3,5,1.3,4.9,1.3c-0.3,0-0.3,0.2-0.6-0.1
					C4,1,3.8,0.7,3.5,0.5c0,0-0.1,0-0.1,0C3.2,0.6,3.1,0.7,3,0.8l0.2,0C2.9,0.5,2.5,0.2,2.1,0C2.1,0,2,0,2,0.1
					C1.8,0.3,1.8,0.3,1.5,0.3C1.2,0.2,0.9,0.1,0.6,0C0.5,0,0.4,0.1,0.5,0.2L0.5,0.2z"/>
				<path id="Trazado_38768" class="st7" d="M1.3,0.9"/>
				<path id="Trazado_38769" class="st7" d="M1.2,1C1.6,1.4,2,1.8,2.5,2.2C3,2.5,3.4,2.9,3.7,3.4c0.1,0.1,0.3,0,0.2-0.1
					C3.6,2.9,3.3,2.5,2.9,2.2c-0.5-0.4-1-0.9-1.5-1.4C1.3,0.7,1.1,0.8,1.2,1L1.2,1z"/>
				<path id="Trazado_38770" class="st7" d="M10.4,3.3c0.3-0.3,0.6-0.6,1-0.9c0.4-0.3,0.8-0.6,1.3-0.9c0.1-0.1,0-0.3-0.1-0.2
					c-0.5,0.3-0.9,0.6-1.3,1c-0.4,0.2-0.7,0.6-1,0.9C10.2,3.3,10.4,3.4,10.4,3.3L10.4,3.3z"/>
				<path id="Trazado_38771" class="st7" d="M1.8,3.3C2.4,3.1,3,3.2,3.6,3.4c0.1,0.1,0.2-0.1,0.1-0.2c-0.6-0.3-1.4-0.3-2-0.1
					c-0.1,0-0.1,0.1-0.1,0.1C1.6,3.3,1.7,3.3,1.8,3.3L1.8,3.3z"/>
				<path id="Trazado_38772" class="st7" d="M1.5,2.6c0.5,0,1,0,1.5,0.1c0.1,0,0.2-0.2,0.1-0.2C2.5,2.4,2,2.4,1.5,2.4
					C1.3,2.4,1.3,2.6,1.5,2.6z"/>
				<path id="Trazado_38773" class="st7" d="M1.4,2c0.2,0,0.5,0,0.7,0c0.1,0,0.1,0,0.1-0.1c0-0.1,0-0.1-0.1-0.1l0,0
					c-0.2,0-0.5,0-0.7,0c-0.1,0-0.1,0-0.1,0.1C1.3,1.9,1.4,2,1.4,2z"/>
				<path id="Trazado_38774" class="st7" d="M2.3,1.1c0,0.2,0,0.5,0,0.7C2.2,2,2.4,2,2.5,1.9c0.1-0.3,0.1-0.5,0-0.8
					C2.5,1,2.3,1,2.3,1.1z"/>
				<path id="Trazado_38775" class="st7" d="M3,1.6v0.9C3,2.6,3,2.6,3.1,2.6c0.1,0,0.1,0,0.1-0.1V1.6c0-0.1-0.1-0.1-0.1-0.1
					C3,1.5,3,1.6,3,1.6z"/>
				<path id="Trazado_38776" class="st7" d="M3.7,1.8C3.6,2.3,3.6,2.8,3.6,3.2c0,0.1,0.2,0.1,0.2,0c0-0.4,0-0.9,0.1-1.3
					C4,1.8,3.8,1.7,3.7,1.8L3.7,1.8z"/>
				<path id="Trazado_38777" class="st7" d="M10,2.1c0.2,0.3,0.3,0.7,0.3,1.1c0,0.1,0.2,0.1,0.2,0c0-0.4-0.1-0.8-0.3-1.2
					C10.1,2,9.9,2,10,2.1z"/>
				<path id="Trazado_38778" class="st7" d="M10.8,1.9c0.1,0.2,0,0.5,0.1,0.7c0,0.1,0.3,0.1,0.2-0.1C11,2.3,11.1,2,11,1.8
					c0-0.1-0.1-0.1-0.2,0C10.8,1.8,10.7,1.8,10.8,1.9L10.8,1.9L10.8,1.9z"/>
				<path id="Trazado_38779" class="st7" d="M11.5,1.5c0.1,0.2,0.1,0.4,0.1,0.5c0,0.1,0.1,0.1,0.1,0.1c0.1,0,0.1,0,0.1-0.1
					c0-0.2,0-0.4-0.1-0.6C11.7,1.3,11.4,1.4,11.5,1.5L11.5,1.5z"/>
				<path id="Trazado_38780" class="st7" d="M10.4,3.4c0.4,0,0.8,0.1,1.2,0.3c0.1,0,0.1,0,0.2,0c0-0.1,0-0.1,0-0.2l0,0
					c-0.4-0.2-0.8-0.3-1.3-0.3c-0.1,0-0.1,0-0.1,0.1C10.3,3.3,10.3,3.4,10.4,3.4L10.4,3.4L10.4,3.4z"/>
				<path id="Trazado_38781" class="st7" d="M11.1,2.7c0.3,0,0.6,0.1,0.9,0.2c0.1,0,0.1,0,0.1-0.1c0-0.1,0-0.1-0.1-0.1c0,0,0,0,0,0
					c-0.3-0.1-0.6-0.2-1-0.2c-0.1,0-0.1,0-0.1,0.1C11,2.6,11.1,2.7,11.1,2.7z"/>
				<path id="Trazado_38782" class="st7" d="M11.8,2.2c0.2,0,0.5,0,0.7,0.1c0.1,0.1,0.2-0.1,0.1-0.2c-0.3-0.1-0.5-0.2-0.8-0.2
					c-0.1,0-0.1,0-0.1,0.1C11.7,2.1,11.8,2.2,11.8,2.2L11.8,2.2z"/>
			</g>
			<path id="Trazado_38783" class="st1" d="M111,15.6c0.6-7.9-6.9-11.4-16.9-12c-9.8-0.7-19.7,3.7-19.9,11.4h0l0,0.1
				c0,0.1,0,0.2,0,0.2c0,0.8,0.1,1.5,0.2,2.3l2.5,29.7c0,0-0.4,6.5,6.4,10.7l2.8,2.5c1.8,1.5,4.1,2.2,6.5,2c2.6,0.1,5.1-0.6,7.3-2
				l2.7-2.5c6.7-4.3,6.2-10.8,6.2-10.8l2.1-30.4C110.9,16.3,110.9,15.9,111,15.6z"/>
			<path id="Trazado_38784" class="st12" d="M116.7,148.7l2.4-55.8c1.3-0.9,4.6-3.8,4.8-7.8c0.1-3.1-1.6-6.2-5.3-9l-0.1-0.1
				l-0.2-0.1c-5-2-10.2-3.5-15.5-4.5c1.1,6.3,4.1,21.4-9.4,20.9c-13-0.5-12.2-16.3-11.4-20c-5.1,1.3-10.1,3-14.9,4.9l-0.1,0l-0.1,0
				c-2.1,1.2-3.5,3.2-4,5.5c-0.5,2.9,0.9,6.1,4.2,9.4L72,150C72,150,103.7,153.8,116.7,148.7z"/>
			<path id="Trazado_38785" class="st12" d="M71,81.3l-3.8-4.1c0,0-8.3,5.2-11.2,10.9c0,0,2,7.1,12.1,9.7l7.8-12L71,81.3z"/>
			<path id="Trazado_38786" class="st12" d="M115.9,81.3l2.6-5.4c0,0,9.6,6.5,12.5,12.2c0,0-2,7.1-12.1,9.7l-7.8-12L115.9,81.3z"/>
			<path id="Trazado_38787" class="st8" d="M77.5,20.5l0,6.9c0,0-0.1,7.4-0.7,8.3c-0.4,0.6-0.8,0.3-0.8,0.3s-3.8-2.7-4.2-6.1v-2.6
				C69,25,68,21.4,69,18.1c1.7-5.8,0.6-13.3,8.5-14.9c0,0,7.7-4.9,15-2.6c0,0,14.3-0.5,18.1,5.8c0,0,6.5,9.3,3.8,16.2l-1.4,3.2
				c0,0-2.2,8.7-3.3,8.7s-2.4-6.8-1.9-11.8s-1.5-7.7-3.1-8.5s-3.6,0.5-10.3,0.8c-7.4,0.3-10-1.2-12.1-0.7S77.4,18,77.5,20.5z"/>
			<path id="Trazado_38788" class="st8" d="M98,22.9c0,0,0.3,2.8,1.2,3.2s5,0.4,6.7,2.1c0,0,0.9-2.4-0.6-3.3S100.6,22.4,98,22.9z"/>
			<path id="Trazado_38789" class="st8" d="M87.5,22.5c0,0,0,2.8-0.9,3.3s-5,0.9-6.5,2.7c0,0-1.1-2.3,0.3-3.4S84.9,22.3,87.5,22.5z"
				/>
			<path id="Trazado_38790" class="st9" d="M84.5,13.7c0,0-3.2-6.9-7.5-9.5c0,0,3.8-0.9,8.2,7.8C85.2,12,86.1,13.9,84.5,13.7z"/>
			<path id="Trazado_38791" class="st9" d="M87.9,13.7c0,0-0.7-8.8-4.2-13c0,0,4.4,0,5.6,11.2C89.3,12,89.5,14.4,87.9,13.7z"/>
			<path id="Trazado_38792" class="st9" d="M98.7,14.1c0,0,1-8.6,4.2-12.6c0,0-3.8-0.1-5.4,10.8C97.5,12.3,97.3,14.7,98.7,14.1z"/>
			<path id="Trazado_38793" class="st9" d="M101.9,13.5c0,0,1.6-7.2,4.7-10.3c0,0-3.2-0.4-5.5,8.7C101.1,11.9,100.7,13.9,101.9,13.5
				z"/>
			<path id="Trazado_38794" class="st8" d="M56.5,18.4c-0.1,1,0.3,1.9,1,2.6c1.5,1.1,15.9-2.9,15.9-2.9S57.6,15.4,56.5,18.4z"/>
			<path id="Trazado_38795" class="st8" d="M94.6,44.5c0,0-2.8-2.5-5.7-0.8s-6.5,3.9-6.5,3.9c1.7,0.8,3.7,0.8,5.4,0
				c2.5-1.3,5.3-0.3,6.2-0.8S94.6,44.5,94.6,44.5z"/>
			<path id="Trazado_38796" class="st8" d="M93.7,44.5c0,0,2.8-2.5,5.7-0.8s6.5,3.9,6.5,3.9c-1.7,0.8-3.7,0.8-5.4,0
				c-2.5-1.3-5.3-0.3-6.2-0.8S93.7,44.5,93.7,44.5z"/>
			<path id="Trazado_38797" class="st8" d="M94.4,54.2c0,0-3.1-0.9-4.3,1.3s-0.4,6.9,1.6,8.3l0.9-1.1l0.4,2.3
				c0.6-0.7,1.1-1.4,1.6-2.2l0.8,1.2C95.3,64.1,99.9,56.3,94.4,54.2z"/>
			<g id="Grupo_34507" transform="translate(151.367 49.901)">
				<path id="Trazado_38798" class="st1" d="M11.2,5.2c0-0.1,0.4-1.3,0.4-1.4c0.1-0.9-0.7-1.2-1.6-1.4L3,0.1C2.7,0,2.4,0,2.1,0
					C1.4,0.1,0.9,0.7,0.8,1.4L0,11.5c0,0.3,0.1,0.7,0.2,1c0.4,0.7,1.2,1.2,2.1,1.1l3.6,0.5c2,0.4,2.6-0.4,2.8-1.3L11.2,5.2z"/>
			</g>
			<g id="Grupo_34509" transform="translate(63.417 71.403)">
				<path id="Trazado_38799" class="st13" d="M13,0.8c0,0-4.1,21.3,11.9,23.2l3,59.2L5.5,81.7L4,34.1c1.2-9.6,0.1-19.2-3-28.4
					L13,0.8z"/>
				<path id="Trazado_38800" class="st14" d="M2,4.9c0,0,2.5,3.7,3.3,13c0.5,5.6,0,11.3-1.2,16.7l-1.5-1.8c0,0,1.3-2.7,0.9-12.5
					C2.9,8.2,0,6.2,0,6.2L2,4.9z"/>
				<g id="Grupo_34508" transform="translate(8.057 41.539)">
					<path id="Trazado_38801" class="st14" d="M0.3,0.5h12l0.5,10.8l-5.6,3.1l-6.3-1.9L0.3,0.5z"/>
					<path id="Trazado_38802" class="st15" d="M12.8,11.3l1.1-3L13.4,0h-1.7L12.8,11.3z"/>
					<path id="Trazado_38803" class="st16" d="M0,3.2l6.4,1.6L12.8,3l-0.3-3H0L0,3.2z"/>
					<path id="Trazado_38804" class="st15" d="M6.4,5.6l0.2,6.1H2.1l4.5,0.7l5.1-1.5l-4.5,0.7L6.4,5.6z"/>
					<ellipse id="Elipse_740" class="st14" cx="6.4" cy="2.8" rx="0.5" ry="0.5"/>
				</g>
				<path id="Trazado_38805" class="st17" d="M15.2,57.8l0.6,21.8C15.8,79.6,17.2,68.1,15.2,57.8z"/>
				<path id="Trazado_38806" class="st17" d="M14,24.7v7.4C14,32.2,14.7,29.9,14,24.7z"/>
				<path id="Trazado_38807" class="st14" d="M25.5,35.3c0,0-8.5,1.7-21.4,0.6l0.1,3.5c7.1,0.6,14.3,0.5,21.4-0.5L25.5,35.3z"/>
				<path id="Trazado_38808" class="st15" d="M24.5,24l2.7,59.1l0.8-0.7l-2.4-57.7L24.5,24z"/>
				<path id="Trazado_38809" class="st16" d="M25.6,37.8l0.1,1.1c-7.1,0.9-14.3,1.1-21.5,0.5l0-1.4C11.3,38.6,18.5,38.6,25.6,37.8z"
					/>
				<path id="Trazado_38810" class="st14" d="M14.5,0c0,0-5.2,19.9,11.6,23.9L26,25.8c0,0-11-1.6-13.5-11.4S12,0,12,0L14.5,0z"/>
				<path id="Trazado_38811" class="st14" d="M5.3,81l23.1,1.5l0,1.5L5.3,82.4V81z"/>
			</g>
			<g id="Grupo_34511" transform="translate(95.886 71.037)">
				<path id="Trazado_38812" class="st13" d="M12.5,0.8c0,0,4.8,21.2-11.1,23.5l-1,59.3l22.4-2.2l-0.2-47.6
					c-1.5-9.5-0.8-19.2,2-28.4L12.5,0.8z"/>
				<path id="Trazado_38813" class="st14" d="M11,0.1c0,0,5.8,19.7-10.7,24.2l0.1,1.9c0,0,11-1.9,13.1-11.8S13.5,0,13.5,0L11,0.1z"
					/>
				<path id="Trazado_38814" class="st14" d="M23.6,4.6c0,0-2.4,3.8-2.8,13.1c-0.3,5.6,0.3,11.3,1.8,16.7l1.5-1.8
					c0,0-1.4-2.6-1.3-12.5c0.1-12.1,2.9-14.2,2.9-14.2L23.6,4.6z"/>
				<g id="Grupo_34510" transform="translate(4.995 41.399)">
					<path id="Trazado_38815" class="st14" d="M13.3,0.5l-12,0.4L1.2,11.7l5.7,2.9l6.2-2.1L13.3,0.5z"/>
					<path id="Trazado_38816" class="st15" d="M1.2,11.7L0,8.7l0.3-8.3L2,0.4L1.2,11.7z"/>
					<path id="Trazado_38817" class="st16" d="M13.7,3.2L7.4,5L0.9,3.3l0.2-3L13.6,0L13.7,3.2z"/>
					<path id="Trazado_38818" class="st15" d="M7.4,5.8l0,6.1l4.5-0.1l-4.5,0.8l-5.2-1.3l4.5,0.5L7.4,5.8z"/>
					<ellipse id="Elipse_741" class="st14" cx="7.3" cy="3" rx="0.5" ry="0.5"/>
				</g>
				<path id="Trazado_38819" class="st17" d="M12.4,56.9l-0.1,22.5C11.4,71.9,11.4,64.4,12.4,56.9z"/>
				<path id="Trazado_38820" class="st17" d="M12.3,24.8l0.3,7.4C12.6,32.2,11.8,30,12.3,24.8z"/>
				<path id="Trazado_38821" class="st14" d="M23,80.7L0,82.9l0,1.5l23-2.3L23,80.7z"/>
			</g>
			<path id="Trazado_38822" class="st14" d="M97.1,106.7c0,0,8.5,1.8,21.4,0.6l0,3.4c-7.1,0.6-14.3,0.5-21.4-0.5L97.1,106.7z"/>
			<path id="Trazado_38823" class="st16" d="M97.1,109v1.3c7.1,0.9,14.3,1.1,21.4,0.5l0-1.3C111.4,109.9,104.2,109.8,97.1,109z"/>
			<g id="Grupo_34512" transform="translate(90.301 33.13)">
				<path id="Trazado_38824" class="st18" d="M4.4,4C4,3.2,3.6,2.3,3.3,1.5C3,0.2,2.4-0.2,1.2,0.1s-3,9.3,3.4,10.8s6.2-2.9,5.5-4.1
					S6.3,7.1,4.4,4z"/>
				<path id="Trazado_38825" class="st19" d="M4.8,10.4C-0.7,9.1,0,2.2,1.1,0.2c-1.2,1.2-2.6,9.2,3.4,10.7c3.4,0.8,4.9,0,5.5-1.1
					C9.3,10.6,7.7,11.2,4.8,10.4z"/>
			</g>
			<g id="Grupo_34513" transform="translate(82.215 29.197)">
				<path id="Trazado_38826" class="st20" d="M5.7,2.5C5.6,4,4.3,5.2,2.9,5.1C1.4,5.2,0.1,4,0,2.5C0.1,1.1,1.4-0.1,2.9,0
					C4.3-0.1,5.6,1.1,5.7,2.5z"/>
				<path id="Trazado_38827" class="st12" d="M3.7,2C4,2.2,4,2.7,3.7,2.9C3.3,3.3,3.9,3.9,4.3,3.5C4.8,3,4.9,2.2,4.4,1.6
					C4.3,1.4,4.1,1.3,3.9,1.4C3.7,1.5,3.6,1.8,3.7,2C3.7,2,3.7,2,3.7,2L3.7,2z"/>
			</g>
			<g id="Grupo_34514" transform="translate(98.764 29.197)">
				<path id="Trazado_38828" class="st20" d="M5.7,2.5C5.6,4,4.3,5.2,2.9,5.1C1.4,5.2,0.1,4,0,2.5C0.1,1.1,1.4-0.1,2.9,0
					C4.3-0.1,5.6,1.1,5.7,2.5z"/>
				<path id="Trazado_38829" class="st12" d="M3.7,2C4,2.2,4,2.7,3.7,2.9C3.3,3.3,3.9,3.9,4.3,3.5C4.8,3,4.9,2.2,4.4,1.6
					C4.3,1.4,4.1,1.3,3.9,1.4C3.7,1.5,3.6,1.8,3.7,2C3.7,2,3.7,2,3.7,2L3.7,2z"/>
			</g>
			<g id="Grupo_34521" transform="translate(88.92 47.525)">
				<g id="Grupo_34518" transform="translate(0)">
					<g id="Grupo_34517">
						<path id="Trazado_38830" class="st21" d="M2.6,0.6C0.7-0.2-1.1,0.9,0.8,2.5c2.1,2,5.4,2.2,7.8,0.4c2.6-2,0.9-3.5-0.6-2.8
							C6.4,1.3,4.4,1.4,2.6,0.6z"/>
						<g id="Grupo_34516">
							<g>
								<defs>
									<path id="SVGID_3_" d="M2.6,0.6C0.7-0.2-1.1,0.9,0.8,2.5c2.1,2,5.4,2.2,7.8,0.4c2.6-2,0.9-3.5-0.6-2.8
										C6.4,1.3,4.4,1.4,2.6,0.6z"/>
								</defs>
								<clipPath id="SVGID_4_">
									<use xlink:href="#SVGID_3_"  style="overflow:visible;"/>
								</clipPath>
								<g id="Grupo_34515" class="st22">
									<path id="Trazado_38831" class="st12" d="M0.8-0.2l0.7,1.5c0,0-1,0.8-1.6,1.3c3.1,2.3,7.1,2.8,10.6,1.3L8.8,1.1l0.3-2
										L0.8-0.2z"/>
								</g>
							</g>
						</g>
					</g>
					<path id="Trazado_38833" class="st23" d="M1.8,1.4c0.3,0.2,0.6,0.3,1,0.4C2.9,1.9,3.1,1.9,3.3,2c0.2,0,0.4,0.1,0.6,0.1
						c0.1,0,0.2,0,0.3,0s0.2,0,0.3,0s0.2,0,0.3,0s0.2,0,0.3,0c0.2,0,0.4,0,0.6,0l0.3,0l0.3-0.1C6.4,2,6.4,2,6.5,2
						c0.1,0,0.2,0,0.3-0.1S7,1.9,7.1,1.8s0.2,0,0.2-0.1c0.1-0.1,0.3-0.1,0.4-0.1S7.9,1.5,8,1.5c0.2-0.1,0.3-0.1,0.3-0.1
						S8.2,1.5,8,1.6C8,1.6,7.9,1.7,7.8,1.7S7.5,1.9,7.4,1.9S7.1,2.1,6.9,2.1c-0.1,0-0.2,0.1-0.3,0.1S6.4,2.3,6.3,2.3L6,2.4
						c-0.1,0-0.2,0-0.3,0.1c-0.2,0-0.4,0-0.7,0.1c-0.1,0-0.2,0-0.3,0s-0.2,0-0.3,0C4.2,2.4,4,2.4,3.8,2.3c-0.2,0-0.4-0.1-0.6-0.2
						C3,2.1,2.9,2.1,2.7,2C2.5,1.9,2.2,1.7,2,1.6C2,1.5,1.9,1.5,1.8,1.4z"/>
				</g>
				<g id="Grupo_34520" transform="translate(3.645 4.502)">
					<g id="Grupo_34519">
						<path id="Trazado_38834" class="st24" d="M0,0.5l0.2,0.1c0.1,0,0.3,0.1,0.4,0.2C0.8,0.9,1,0.9,1.3,1c0.1,0,0.1,0,0.2,0
							c0.1,0,0.1,0,0.2,0C1.7,1,1.8,1,2,1c0.1,0,0.2,0,0.3-0.1c0.1,0,0.2-0.1,0.3-0.1c0.1-0.1,0.2-0.1,0.3-0.2C3,0.6,3,0.6,3,0.5
							c0,0,0.1-0.1,0.1-0.1c0.1-0.1,0.1-0.1,0.2-0.2s0.1-0.1,0.2-0.1C3.6,0,3.7,0,3.7,0s0,0.1-0.1,0.2c0,0.1-0.1,0.1-0.1,0.2
							c0,0,0,0.1-0.1,0.1L3.4,0.6c0,0-0.1,0.1-0.1,0.1c0,0-0.1,0.1-0.1,0.1C3,0.9,2.9,1,2.8,1.1C2.7,1.2,2.6,1.3,2.5,1.3
							C2.3,1.4,2.2,1.4,2,1.4c-0.1,0-0.3,0-0.5,0c-0.1,0-0.3,0-0.4-0.1C0.9,1.3,0.7,1.1,0.5,1C0.4,0.9,0.2,0.8,0.1,0.7
							C0.1,0.6,0,0.6,0,0.5z"/>
					</g>
				</g>
			</g>
			<path id="Trazado_38979" class="st10" d="M30.3,60.5l0.6,0.2c0.4,0.1,0.8-0.1,1-0.5l2-4.5c0.1-0.4-0.1-0.8-0.5-0.9c0,0,0,0,0,0
				L32,54.5c-0.4-0.1-0.8,0.1-1,0.5l-1.3,4.7C29.7,60,29.9,60.4,30.3,60.5C30.2,60.5,30.3,60.5,30.3,60.5z"/>
			<path id="Trazado_38980" class="st10" d="M152.7,60.8l-0.6,0.2c-0.4,0.1-0.8-0.1-0.9-0.5l-1.7-4.6c-0.1-0.4,0.1-0.8,0.5-0.9
				c0,0,0,0,0,0l1.4-0.3c0.4-0.1,0.8,0.1,0.9,0.5l0.9,4.8C153.4,60.3,153.1,60.7,152.7,60.8C152.7,60.8,152.7,60.8,152.7,60.8z"/>
		</g>
	</g>
</g>
</svg>
