<svg xmlns="http://www.w3.org/2000/svg" width="500" height="300" viewBox="0 0 500 300">
  <g id="Grupo_34911" data-name="Grupo 34911" transform="translate(70 -27)">
    <rect id="Rectángulo_5507" data-name="Rectángulo 5507" width="500" height="300" transform="translate(-70 27)" fill="#c9ebf5"/>
    <g id="Grupo_34910" data-name="Grupo 34910" transform="translate(-1379.705 -1111.305)">
      <ellipse id="Elipse_752" data-name="Elipse 752" cx="95.636" cy="5.848" rx="95.636" ry="5.848" transform="translate(1454.772 1388.737)" fill="#fdda43"/>
      <ellipse id="Elipse_753" data-name="Elipse 753" cx="123.655" cy="12.898" rx="123.655" ry="12.898" transform="translate(1436.705 1378.659)" fill="#85dbf0"/>
      <path id="Trazado_41838" data-name="Trazado 41838" d="M1476.675,1498.478l-27.375,5.811h0l5.859,1.358a299.757,299.757,0,0,0,31.471,4.032l9.6-5.774Z" transform="translate(-4.507 -108.136)" fill="#4295a8" opacity="0.34" style="mix-blend-mode: multiply;isolation: isolate"/>
      <path id="Trazado_41839" data-name="Trazado 41839" d="M1641.907,1496.663l-8.3-3.262,6.1.316-17.471,5.488,28.674,11.322c8.946-.185,17.544-.47,25.682-.844Z" transform="translate(-66.394 -106.319)" fill="#4295a8" opacity="0.34" style="mix-blend-mode: multiply;isolation: isolate"/>
      <path id="Trazado_41840" data-name="Trazado 41840" d="M1673.757,1496.943l-2.6,3.046,27.472,9.273c2.262-.119,5.983-.332,8.162-.466l5.957-.389c10.862-.754,20.513-1.684,28.586-2.75l-48.553-12.836Z" transform="translate(-83.901 -106.112)" fill="#4295a8" opacity="0.34" style="mix-blend-mode: multiply;isolation: isolate"/>
      <g id="Grupo_34873" data-name="Grupo 34873" transform="translate(1545.365 1236.662)">
        <path id="Trazado_41841" data-name="Trazado 41841" d="M1608.9,1259.153s11.206,6.219,11.388,11.2-6.479,5.608-13.647,1.268A12.84,12.84,0,0,1,1608.9,1259.153Z" transform="translate(-1605.92 -1259.153)" fill="#0e7992"/>
        <path id="Trazado_41842" data-name="Trazado 41842" d="M1608.9,1259.153s1.932,1.072,4.2,2.682a9.833,9.833,0,0,0,3.035,8.434,7.941,7.941,0,0,0,4.019,1.391c-.968,3.742-7.033,3.882-13.515-.042A12.84,12.84,0,0,1,1608.9,1259.153Z" transform="translate(-1605.92 -1259.153)" fill="#006070" opacity="0.7"/>
      </g>
      <g id="Grupo_34893" data-name="Grupo 34893" transform="translate(1459.043 1196.305)">
        <path id="Trazado_41843" data-name="Trazado 41843" d="M1610.423,1213.187l5.725,8.377-4.767,4.37a64.271,64.271,0,0,0-7.081-7.482A12.966,12.966,0,0,1,1610.423,1213.187Z" transform="translate(-1519.019 -1202.347)" fill="#e2a388"/>
        <path id="Trazado_41844" data-name="Trazado 41844" d="M1603.816,1205.277s7.606,4.747,2.024,8.235c0,0-3.659,3.595-6.314,2.2s-5.769-5.7-5.769-5.7,6.714-5.652,8.2-5.847A1.632,1.632,0,0,1,1603.816,1205.277Z" transform="translate(-1515.246 -1199.111)" fill="#e2a388"/>
        <path id="Trazado_41845" data-name="Trazado 41845" d="M1596.689,1209.085s-6.1-8.334-7.882-6.638c-3.776,3.595,7.125,11.32,7.125,11.32Z" transform="translate(-1513.19 -1198.422)" fill="#e2a388"/>
        <path id="Trazado_41846" data-name="Trazado 41846" d="M1608.148,1203.422s-1.439-7.3-3.306-7.113c-3,.3-.178,7.375-.178,7.375Z" transform="translate(-1518.719 -1196.305)" fill="#e2a388"/>
        <path id="Trazado_41847" data-name="Trazado 41847" d="M1597.122,1204.322a1.5,1.5,0,0,1,2.172-.123c1.243,1,2.839,3.319,1.531,4.528S1595.928,1205.607,1597.122,1204.322Z" transform="translate(-1516.365 -1198.981)" fill="#d3927a"/>
        <path id="Trazado_41848" data-name="Trazado 41848" d="M1601.735,1202.307a1.554,1.554,0,0,1,2.257.141c1.158,1.189,1.982,3.161.483,4.247S1600.345,1203.486,1601.735,1202.307Z" transform="translate(-1517.961 -1198.301)" fill="#d3927a"/>
        <path id="Trazado_41849" data-name="Trazado 41849" d="M1596.671,1216.652c-1.241-.78-.964-2.53.372-3.841,1.883-1.848,4.1-2.768,4.916-1.721s-.854,3.27-2.437,4.595C1599.522,1215.684,1597.629,1217.254,1596.671,1216.652Z" transform="translate(-1516.004 -1201.439)" fill="#d3927a"/>
        <path id="Trazado_41850" data-name="Trazado 41850" d="M1598.7,1216.013c1.582-1.324,3.249-3.548,2.437-4.594a1.181,1.181,0,0,0-.922-.433c1.015-.448,1.9-.473,2.344.106.813,1.046-.854,3.27-2.437,4.594,0,0-1.56,1.29-2.565,1.076A7.215,7.215,0,0,0,1598.7,1216.013Z" transform="translate(-1516.607 -1201.439)" fill="#d69680" opacity="0.26" style="mix-blend-mode: multiply;isolation: isolate"/>
        <path id="Trazado_41851" data-name="Trazado 41851" d="M1606.242,1213.038a3.465,3.465,0,0,1,2.723,2.033A7.6,7.6,0,0,0,1606.242,1213.038Z" transform="translate(-1519.714 -1202.293)" fill="#d3927a"/>
        <path id="Trazado_41852" data-name="Trazado 41852" d="M1610.244,1209.688l-2.738,1.693A5.031,5.031,0,0,0,1610.244,1209.688Z" transform="translate(-1520.166 -1201.094)" fill="#d3927a"/>
        <path id="Trazado_41853" data-name="Trazado 41853" d="M1612.2,1217.636s-2.052,2.345-3.845,2.62C1608.353,1220.256,1610.588,1220.618,1612.2,1217.636Z" transform="translate(-1520.469 -1203.939)" fill="#d3927a"/>
        <path id="Trazado_41854" data-name="Trazado 41854" d="M1484.88,1280.193l4.234,9.221,6.2-1.837a64.222,64.222,0,0,1-2.769-9.922A12.961,12.961,0,0,0,1484.88,1280.193Z" transform="translate(-1476.283 -1225.415)" fill="#e2a388"/>
        <path id="Trazado_41855" data-name="Trazado 41855" d="M1628.454,1488.846l-6.62-.252a2.5,2.5,0,0,0-.015,3.524,25.706,25.706,0,0,0,9.748,1.007c5.37-.5,18.292-13.089,18.838-14.39a3.076,3.076,0,0,0,.461-1.72c-.083-.881-1.007-3.272-2.014-3.4a1.85,1.85,0,0,0-1.51.378Z" transform="translate(-1525.02 -1295.537)" fill="#e8edef"/>
        <g id="Grupo_34876" data-name="Grupo 34876" transform="translate(0 174.263)">
          <path id="Trazado_41856" data-name="Trazado 41856" d="M1504.043,1468.059l-.991,12.706,11.281,2.159,1.556-15.241Z" transform="translate(-1482.786 -1467.684)" fill="#e2a388"/>
          <path id="Trazado_41857" data-name="Trazado 41857" d="M1504.223,1470.27l-.43,5.21a17.93,17.93,0,0,0,11.437,2.182l.72-6.728Z" transform="translate(-1483.051 -1468.609)" fill="#d3927a"/>
          <g id="Grupo_34875" data-name="Grupo 34875" transform="translate(0 9.052)">
            <path id="Trazado_41858" data-name="Trazado 41858" d="M1478.153,1492.474l5.687,2.089s17.327,1.955,23.615,1.117c0,0,1.761-6.6-1.539-11.792a7.332,7.332,0,0,1-6.66,1.693c-3.056-.585-3.631-1.536-3.631-1.536l-12.442,1.885Z" transform="translate(-1473.876 -1482.535)" fill="#f2f4f4"/>
            <path id="Trazado_41859" data-name="Trazado 41859" d="M1509.3,1488.617l7.067-1.5a12.239,12.239,0,0,0-1.451-3.313,7.33,7.33,0,0,1-6.66,1.693c-3.056-.585-3.631-1.536-3.631-1.536l-1.274.193-.08.669Z" transform="translate(-1482.865 -1482.504)" fill="#dbdbdb"/>
            <path id="Trazado_41860" data-name="Trazado 41860" d="M1491.4,1491.249a9.316,9.316,0,0,1-.3,6.162l2.656.25s1.314-4.108.08-6.586Z" transform="translate(-1478.511 -1485.107)" fill="#dbdbdb"/>
            <path id="Trazado_41861" data-name="Trazado 41861" d="M1518.916,1485.665a6.556,6.556,0,0,1,.638,3.427s-.242.634.632.882,2.477.243,2.736-1.113a6.346,6.346,0,0,0-1.2-5.474s-.661-.823-1.2-.322c-.277.255-.8.7-1.241,1.084A1.312,1.312,0,0,0,1518.916,1485.665Z" transform="translate(-1488.425 -1482.182)" fill="#6d31fd"/>
            <path id="Trazado_41862" data-name="Trazado 41862" d="M1522.116,1483.387s-.627-.776-1.16-.355a6.693,6.693,0,0,1,.744,4.878,1.62,1.62,0,0,1-1.763,1.238c-.035.159-.071.624.647.826.874.247,2.477.243,2.736-1.113A6.346,6.346,0,0,0,1522.116,1483.387Z" transform="translate(-1488.823 -1482.184)" fill="#422c9b" opacity="0.4"/>
            <path id="Trazado_41863" data-name="Trazado 41863" d="M1486.435,1488.887s5.657.362,9.025-.915,3.8-2.917,3.845-3.349-.328-1.424-1.241-.838-7.659,3.82-11.355,3.673l-.595-.033Z" transform="translate(-1476.725 -1482.433)" fill="#6d31fd"/>
            <path id="Trazado_41864" data-name="Trazado 41864" d="M1483.79,1484.248a41.321,41.321,0,0,0,8.8-1.8c3.538-1.325,3.976-.48,4.4.843s-2.262,4.493-11.623,4.022l-3.4-.211Z" transform="translate(-1475.239 -1481.781)" fill="#e8edef"/>
            <path id="Trazado_41865" data-name="Trazado 41865" d="M1472.494,1493.2s-2.636-4.429.645-6.925a7.257,7.257,0,0,1,6.9-.921s3.31,2.8,1.414,9.561A89.835,89.835,0,0,1,1472.494,1493.2Z" transform="translate(-1471.492 -1482.883)" fill="#dbdbdb"/>
            <path id="Trazado_41866" data-name="Trazado 41866" d="M1486.082,1485.326s1.876.452,1.9,3.668a.724.724,0,0,0,.932-.076s-.1-2.931-1.7-3.8C1487.216,1485.12,1486.456,1484.836,1486.082,1485.326Z" transform="translate(-1476.713 -1482.947)" fill="#dbdbdb"/>
            <path id="Trazado_41867" data-name="Trazado 41867" d="M1490.038,1484.757s1.514.755,1.536,3.97a.691.691,0,0,0,.894-.111s-.047-3.059-1.386-4.05A.906.906,0,0,0,1490.038,1484.757Z" transform="translate(-1478.129 -1482.745)" fill="#dbdbdb"/>
            <path id="Trazado_41868" data-name="Trazado 41868" d="M1493.48,1484.1s1.516.814,1.538,4.029a.751.751,0,0,0,.94-.1s-.168-3.167-1.507-4.158A1.028,1.028,0,0,0,1493.48,1484.1Z" transform="translate(-1479.361 -1482.517)" fill="#dbdbdb"/>
            <path id="Trazado_41869" data-name="Trazado 41869" d="M1496.327,1483.352s1.656.93,1.864,4.139a.754.754,0,0,0,.9-.217s-.481-3.291-1.875-4.2A.845.845,0,0,0,1496.327,1483.352Z" transform="translate(-1480.38 -1482.233)" fill="#dbdbdb"/>
            <path id="Trazado_41870" data-name="Trazado 41870" d="M1499.122,1482.406s1.651.967,1.856,4.025a.877.877,0,0,0,.865-.336s-.442-3.058-1.837-3.97A.846.846,0,0,0,1499.122,1482.406Z" transform="translate(-1481.38 -1481.894)" fill="#dbdbdb"/>
            <path id="Trazado_41871" data-name="Trazado 41871" d="M1472.745,1497.841a119.674,119.674,0,0,0,16.118,2.406c7.874.525,14.858.841,16.46.426a.847.847,0,0,1,.564.909c-.126.656.44,3.488-3.447,3.385s-9.587-1.275-13.664-2.055-7.547-.523-16.305-2.8A1.778,1.778,0,0,1,1472.745,1497.841Z" transform="translate(-1471.743 -1487.528)" fill="#e8edef"/>
            <path id="Trazado_41872" data-name="Trazado 41872" d="M1473.093,1499.907s12.055,2.556,16.691,2.4,15.137,1.207,15.137,1.207-10.875-.794-13.522-.811C1489.2,1502.691,1478.942,1501.988,1473.093,1499.907Z" transform="translate(-1472.065 -1488.267)" fill="#dbdbdb"/>
            <path id="Trazado_41873" data-name="Trazado 41873" d="M1504.418,1505.031l11.541,1.22S1512.253,1506.571,1504.418,1505.031Z" transform="translate(-1483.275 -1490.101)" fill="#dbdbdb"/>
            <g id="Grupo_34874" data-name="Grupo 34874" transform="translate(24.264 9.494)">
              <path id="Trazado_41874" data-name="Trazado 41874" d="M1509.585,1496.565l3.944.262-.1,2-4.153-.443Z" transform="translate(-1509.279 -1496.565)" fill="#6d31fd"/>
              <path id="Trazado_41875" data-name="Trazado 41875" d="M1513.529,1496.933l-1.088-.072-.045.925-2.946-.314-.171,1.022,4.153.443Z" transform="translate(-1509.279 -1496.671)" fill="#422c9b" opacity="0.4"/>
            </g>
          </g>
        </g>
        <path id="Trazado_41876" data-name="Trazado 41876" d="M1626.309,1460.5s4.363,3.692,6.294,5.789c0,0,6.964-2.685,9.062-7.8a30.279,30.279,0,0,0-8.391-6.88Z" transform="translate(-1526.895 -1287.669)" fill="#e2a388"/>
        <path id="Trazado_41877" data-name="Trazado 41877" d="M1626.6,1460.719c.456.39,1.478,1.269,2.6,2.28a15.575,15.575,0,0,0,9.868-7.24,29.427,29.427,0,0,0-5.759-4.149l-6.895,8.806Z" transform="translate(-1526.934 -1287.669)" fill="#d3927a"/>
        <path id="Trazado_41878" data-name="Trazado 41878" d="M1534.4,1356.159s-26.9,17.695-33.348,77.218c0,0,3.217,2.528,15.185.94,0,0,5.428-45.9,32.329-72.043Z" transform="translate(-1482.07 -1253.511)" fill="#2bbee0"/>
        <path id="Trazado_41879" data-name="Trazado 41879" d="M1559.644,1373.183l5.8,2.216s-8.223,15.271,0,27.186,37.172,27.1,37.172,27.1,9.049-2.266,8.978-10.4c0,0-27.345-19.55-30.958-27.606s7.473-12.922,7.473-12.922,9.108,0,6.871-13.088l-35.337-3.689Z" transform="translate(-1503.038 -1255.594)" fill="#2bbee0"/>
        <g id="Grupo_34879" data-name="Grupo 34879" transform="translate(49.588 101.373)">
          <path id="Trazado_41880" data-name="Trazado 41880" d="M1592.2,1364.777l-.3,3.871a1.084,1.084,0,0,1-1.286.948c-5.335-.8-25.723-1.925-41.3-11.508a1.082,1.082,0,0,1-.5-1.411l2.315-2.5Z" transform="translate(-1548.715 -1354.173)" fill="#4295a8"/>
          <g id="Grupo_34878" data-name="Grupo 34878" transform="translate(14.27 5.997)">
            <path id="Trazado_41881" data-name="Trazado 41881" d="M1574.365,1369.8a1,1,0,0,0,1.228-.722l.925-3.7a1,1,0,0,0-.709-1.206l-2.573-.628a1,1,0,0,0-1.194.688l-1.063,3.6a1,1,0,0,0,.7,1.247Z" transform="translate(-1570.937 -1363.512)" fill="#006070"/>
            <path id="Trazado_41882" data-name="Trazado 41882" d="M1575.443,1369.194l.925-3.7a.633.633,0,0,0-.464-.769l-2.549-.622a.634.634,0,0,0-.758.436l-1.063,3.6a.634.634,0,0,0,.444.791l2.687.721A.633.633,0,0,0,1575.443,1369.194Z" transform="translate(-1571.141 -1363.715)" fill="#0e7992"/>
            <g id="Grupo_34877" data-name="Grupo 34877" transform="translate(1.461 2.828)">
              <circle id="Elipse_754" data-name="Elipse 754" cx="1.093" cy="1.093" r="1.093" transform="translate(0 0)" fill="#c8cacc"/>
              <path id="Trazado_41883" data-name="Trazado 41883" d="M1574.59,1367.953a1.076,1.076,0,0,1,.255.106,1.092,1.092,0,0,0-.55,2.042,1.052,1.052,0,0,1-.274-.036,1.093,1.093,0,1,1,.568-2.111Z" transform="translate(-1573.212 -1367.915)" fill="#dbdcdd"/>
            </g>
          </g>
          <path id="Trazado_41884" data-name="Trazado 41884" d="M1602.784,1367.521l-1.23,6.87,2.351.522,1.217-6.778Z" transform="translate(-1567.624 -1358.95)" fill="#006070"/>
          <path id="Trazado_41885" data-name="Trazado 41885" d="M1603.831,1374.674l1.053-5.864-1.421-.374-1.06,5.921Z" transform="translate(-1567.928 -1359.277)" fill="#0e7992"/>
          <path id="Trazado_41886" data-name="Trazado 41886" d="M1560.639,1356.439l-2.167,6.136-2.3-.707,2.133-6.049Z" transform="translate(-1551.383 -1354.762)" fill="#006070"/>
          <path id="Trazado_41887" data-name="Trazado 41887" d="M1560.362,1357.082l-1.42-.377-1.824,5.173,1.4.43Z" transform="translate(-1551.722 -1355.079)" fill="#0e7992"/>
        </g>
        <path id="Trazado_41888" data-name="Trazado 41888" d="M1494.889,1286.054s.334-1.962-.826-2.037a11.517,11.517,0,0,0-4.255,1.164c-1.154.512-2.39,1.258-2.226,1.951a1.962,1.962,0,0,0,1,1.089S1491.06,1288.352,1494.889,1286.054Z" transform="translate(-1477.245 -1227.692)" fill="#422c9b"/>
        <path id="Trazado_41889" data-name="Trazado 41889" d="M1564.546,1256.253l1.075-1.489s2.067.656,4.846-2.535,9.213-4.124,17.434-2.129c13.369,3.245,9.062,18.343,13.984,24.443s17.118,6.374,24.725,1.818c0,0,4.066-3.051,6.117,0s.823,22.418-23.57,15.47c0,0-2.776-.842-2.888,1.454s4.341,6.528,11.725,9.9c6.8,3.107.5,19.188-15.523,9.008S1576.209,1294.962,1564.546,1256.253Z" transform="translate(-1504.793 -1215.181)" fill="#fccc05"/>
        <path id="Trazado_41890" data-name="Trazado 41890" d="M1572.769,1253.358l-9.45,6.9s-2.016,13.034,2.851,21.48,14.04,12.978,23.438,9.509S1596.823,1256.921,1572.769,1253.358Z" transform="translate(-1504.205 -1216.722)" fill="#fccc05"/>
        <path id="Trazado_41891" data-name="Trazado 41891" d="M1588.069,1283.772s6.149,4.142,4.555,13.933l-19.206-2.957s-.128-5.2-1.912-8.717Z" transform="translate(-1507.284 -1227.606)" fill="#dbb100" opacity="0.5"/>
        <g id="Grupo_34880" data-name="Grupo 34880" transform="translate(85.075 47.084)">
          <circle id="Elipse_755" data-name="Elipse 755" cx="2.504" cy="2.504" r="2.504" fill="#e2a388"/>
          <path id="Trazado_41892" data-name="Trazado 41892" d="M1608.645,1272.574a.953.953,0,0,0-1.36.451c-.439.949.248,1.336.6,1.379a.43.43,0,0,0,.318-.713c-.258-.231-.577.036-.577.036S1607.574,1272.583,1608.645,1272.574Z" transform="translate(-1605.112 -1270.637)" fill="#d3927a"/>
        </g>
        <g id="Grupo_34881" data-name="Grupo 34881" transform="translate(58.324 50.488)">
          <circle id="Elipse_756" data-name="Elipse 756" cx="2.504" cy="2.504" r="2.504" fill="#d3927a"/>
          <path id="Trazado_41893" data-name="Trazado 41893" d="M1563.549,1277.827a.737.737,0,0,1,.994.486c.238.772-.328,1-.6.993a.332.332,0,0,1-.17-.578c.221-.15.437.088.437.088S1564.367,1277.945,1563.549,1277.827Z" transform="translate(-1562.76 -1275.948)" fill="#c18370"/>
        </g>
        <path id="Trazado_41894" data-name="Trazado 41894" d="M1594.542,1301.092l.456-1.006s-6.823-.926-19.521-2.1c0,0-.486,13.106,9.242,13.505S1594.542,1301.092,1594.542,1301.092Z" transform="translate(-1508.703 -1232.693)" fill="#e4e5ef"/>
        <path id="Trazado_41895" data-name="Trazado 41895" d="M1593.078,1299.643l-1.953,2.923-4.2-.282-2.2-.043-1.827-3.943,10.39.544Z" transform="translate(-1511.358 -1232.804)" fill="#acaebc"/>
        <path id="Trazado_41896" data-name="Trazado 41896" d="M1583.947,1298.13l3.063.583,6.152-1.379-.984-11.4-9.214.8Z" transform="translate(-1511.383 -1228.381)" fill="#e2a388"/>
        <path id="Trazado_41897" data-name="Trazado 41897" d="M1592.9,1294.258l-.476-5.51-9.215.8.431,5S1587.338,1296.3,1592.9,1294.258Z" transform="translate(-1511.47 -1229.387)" fill="#d3927a"/>
        <path id="Trazado_41898" data-name="Trazado 41898" d="M1615.394,1220.567s-.2-1.98-1.338-1.745a11.526,11.526,0,0,0-3.793,2.253c-.977.8-1.97,1.848-1.628,2.473a1.966,1.966,0,0,0,1.256.783S1612.313,1223.8,1615.394,1220.567Z" transform="translate(-1520.545 -1204.356)" fill="#422c9b"/>
        <path id="Trazado_41899" data-name="Trazado 41899" d="M1590.1,1303.71l-1.479,3.087.279,6.63-1.686-.083.354-6.746a18.64,18.64,0,0,1-.851-2.954,17.2,17.2,0,0,1,1.667.655Z" transform="translate(-1512.718 -1234.718)" fill="#dcdee5"/>
        <circle id="Elipse_757" data-name="Elipse 757" cx="13.223" cy="13.223" r="13.223" transform="translate(60.628 37.047)" fill="#e2a388"/>
        <path id="Trazado_41900" data-name="Trazado 41900" d="M1578.856,1260.53s3.23,1.93,5.915.378c0,0,3.138,5.571,7.338,3.751l-4.373-7.384a13.246,13.246,0,0,0-1.761-1.266l-9.26-1.647a13.172,13.172,0,0,0-5.892,2.743l-.832.743a13.178,13.178,0,0,0-3.95,8.027,17.888,17.888,0,0,0,5.264-3.12S1576.716,1264.306,1578.856,1260.53Z" transform="translate(-1505.327 -1217.081)" fill="#d69680" opacity="0.62"/>
        <path id="Trazado_41901" data-name="Trazado 41901" d="M1563.09,1254.522s-1.395,1.253-4.04-.914-4.321-1.128-5.139.263a5.644,5.644,0,0,0,.377,6.22c1.884,2.582,7.256,3.836,11.8-.469,0,0,4.936,3.374,7.706-2.447,0,0,1.619,2.971,7.577.707,0,0,2.776,7.07,6.125,5.917s-1.491-8.449-1.491-8.449l-1.791-2.878S1575.366,1250.432,1563.09,1254.522Z" transform="translate(-1500.715 -1216.223)" fill="#fccc05"/>
        <path id="Trazado_41902" data-name="Trazado 41902" d="M1581.631,1298.3l4.129,4.088-2.879,3.751-3.512-4.878Z" transform="translate(-1510.097 -1232.804)" fill="#cacbd8"/>
        <path id="Trazado_41903" data-name="Trazado 41903" d="M1595.583,1299.144l-6.262,3.544,1.917,4.463,6.41-4.007Z" transform="translate(-1513.659 -1233.107)" fill="#cacbd8"/>
        <g id="Grupo_34882" data-name="Grupo 34882" transform="translate(60.448 45.327)">
          <circle id="Elipse_758" data-name="Elipse 758" cx="4.901" cy="4.901" r="4.901" transform="translate(12.574 0.039)" fill="#bbe2ef"/>
          <circle id="Elipse_759" data-name="Elipse 759" cx="4.901" cy="4.901" r="4.901" transform="translate(0.825 0.55)" fill="#bbe2ef"/>
          <line id="Línea_9" data-name="Línea 9" x1="1.958" y2="0.085" transform="translate(9.801 5.206)" fill="none" stroke="#4d4d4d" stroke-miterlimit="10" stroke-width="1.387"/>
          <circle id="Elipse_760" data-name="Elipse 760" cx="4.901" cy="4.901" r="4.901" transform="translate(11.749)" fill="#d0ecf4"/>
          <circle id="Elipse_761" data-name="Elipse 761" cx="4.901" cy="4.901" r="4.901" transform="translate(0 0.511)" fill="#d0ecf4"/>
          <path id="Trazado_41904" data-name="Trazado 41904" d="M1588.27,1267.145l4.835,8.077a4.872,4.872,0,0,1-2.445,1.427l-4.8-8.024A4.874,4.874,0,0,1,1588.27,1267.145Z" transform="translate(-1572.867 -1266.983)" fill="#fafeff" opacity="0.69"/>
          <path id="Trazado_41905" data-name="Trazado 41905" d="M1570.461,1267.814c.077-.016.155-.029.232-.04l4.656,7.779a4.885,4.885,0,0,1-2.29,1.687l-4.936-8.245A4.872,4.872,0,0,1,1570.461,1267.814Z" transform="translate(-1566.521 -1267.208)" fill="#fafeff" opacity="0.69"/>
          <line id="Línea_10" data-name="Línea 10" x1="3.217" y2="0.845" transform="translate(22.281 3.134)" fill="none" stroke="#4d4d4d" stroke-miterlimit="10" stroke-width="1.387"/>
        </g>
        <path id="Trazado_41906" data-name="Trazado 41906" d="M1567.856,1298.56l-.5-1.2s-4.849-1.88-9.417-.2-2.373,13.163-3.716,19.037-6.669,9.324-4.488,17.435a1.807,1.807,0,0,0-.574,2.07c.518,1.231,35.424,12.6,42.7,11.2,0,0,2.126-1.008,2.014-3.053,0,0,6.154-.469,5.818-5.564s-1.071-14.216-.871-22.913l-12-17.183a3.718,3.718,0,0,1-2.505,1.032s-.263,10.776-9.617,10.195C1566.6,1308.909,1567.856,1298.56,1567.856,1298.56Z" transform="translate(-1499.236 -1232.149)" fill="#6d31fd"/>
        <path id="Trazado_41907" data-name="Trazado 41907" d="M1578.443,1298.177s-1.65,10.372,6.012,11.059c8.77.786,9.419-9.644,9.419-9.644a1.209,1.209,0,0,1,1.218.139s.037,11.046-9.878,10.889c0,0-7.243.355-8.178-7.913a39.193,39.193,0,0,1-.234-4.686A1.633,1.633,0,0,1,1578.443,1298.177Z" transform="translate(-1509.171 -1232.649)" fill="#422c9b"/>
        <path id="Trazado_41908" data-name="Trazado 41908" d="M1559.145,1251.933l.837-1.381s2.631,1.4,6.211-.831c2.9-1.81,12.671-7.591,19.775-.823l5.692,7.734-15.459-4.112-13.39,3.182S1560.152,1255.751,1559.145,1251.933Z" transform="translate(-1502.86 -1213.98)" fill="#fccc05"/>
        <path id="Trazado_41909" data-name="Trazado 41909" d="M1607.143,1274.379l.473-3.724a33.511,33.511,0,0,0,7.051-26.531c-2.685-15.775-5.752-17.171-6.023-19.032s4.022-5.3,6.491-5.553,16.733,13.09,17.991,31.718-8.475,37.759-15.1,41.954C1618.024,1293.209,1607.432,1291.264,1607.143,1274.379Z" transform="translate(-1520.036 -1204.618)" fill="#6d31fd"/>
        <path id="Trazado_41910" data-name="Trazado 41910" d="M1609.77,1303.773s.4,12.781,9.144,15.724C1618.914,1319.5,1610.162,1319.275,1609.77,1303.773Z" transform="translate(-1520.976 -1234.764)" fill="#422c9b"/>
        <path id="Trazado_41911" data-name="Trazado 41911" d="M1603.88,1294.5a18.579,18.579,0,0,1-.382,7.778c-.655,2.007-1.465,4.173.172,4.934.989.46,3.495.412,4.3-6.671a18.611,18.611,0,0,0-.33-5.785C1606.952,1292.079,1603.88,1294.5,1603.88,1294.5Z" transform="translate(-1518.449 -1231.085)" fill="#fccc05"/>
        <path id="Trazado_41912" data-name="Trazado 41912" d="M1553.152,1353.942s14.888,6.19,28.989,8.987Z" transform="translate(-1500.715 -1252.717)" fill="#422c9b"/>
        <path id="Trazado_41913" data-name="Trazado 41913" d="M1603.979,1368.635s5.494,1.206,8.038,1.038A13.849,13.849,0,0,1,1603.979,1368.635Z" transform="translate(-1518.904 -1257.975)" fill="#422c9b"/>
        <path id="Trazado_41914" data-name="Trazado 41914" d="M1536.143,1298.424l-1.8-4.819s-12.563,10.618-25.376,6.549-13.3-13.258-13.3-13.258-.206-1.375-1.446-1.168-6.613,1.126-7.577,3.054,4.079,34.3,43.694,28.107C1530.338,1316.89,1535.99,1314.163,1536.143,1298.424Z" transform="translate(-1476.877 -1228.299)" fill="#6d31fd"/>
        <path id="Trazado_41915" data-name="Trazado 41915" d="M1530.793,1307.773l10.733-6.087s6.986-5.016,12.945-5.016l-.275,11.8Z" transform="translate(-1492.714 -1232.222)" fill="#6d31fd"/>
        <path id="Trazado_41916" data-name="Trazado 41916" d="M1542.272,1306.779l.3-1.2a39.144,39.144,0,0,1,6.938-4.714l-3.088,4.714Z" transform="translate(-1496.822 -1233.723)" fill="#6d31fd"/>
        <g id="Grupo_34884" data-name="Grupo 34884" transform="translate(64.332 81.975)">
          <rect id="Rectángulo_5508" data-name="Rectángulo 5508" width="1.222" height="0.625" transform="translate(8.164 7.025) rotate(168.385)" fill="#fccc05"/>
          <rect id="Rectángulo_5509" data-name="Rectángulo 5509" width="1.222" height="0.625" transform="translate(12.854 11.62) rotate(168.385)" fill="#fccc05"/>
          <rect id="Rectángulo_5510" data-name="Rectángulo 5510" width="2.41" height="0.625" transform="translate(8.892 7.514) rotate(168.385)" fill="#fccc05"/>
          <rect id="Rectángulo_5511" data-name="Rectángulo 5511" width="2.41" height="0.625" transform="translate(9.018 8.126) rotate(168.385)" fill="#fccc05"/>
          <rect id="Rectángulo_5512" data-name="Rectángulo 5512" width="2.41" height="0.625" transform="translate(9.58 7.927) rotate(168.385)" fill="#fccc05"/>
          <rect id="Rectángulo_5513" data-name="Rectángulo 5513" width="2.41" height="0.625" transform="translate(9.706 8.54) rotate(168.385)" fill="#fccc05"/>
          <rect id="Rectángulo_5514" data-name="Rectángulo 5514" width="2.41" height="0.625" transform="translate(10.308 8.416) rotate(168.385)" fill="#fccc05"/>
          <rect id="Rectángulo_5515" data-name="Rectángulo 5515" width="2.41" height="0.625" transform="translate(10.434 9.028) rotate(168.385)" fill="#fccc05"/>
          <rect id="Rectángulo_5516" data-name="Rectángulo 5516" width="2.41" height="0.625" transform="translate(11.008 8.889) rotate(168.385)" fill="#fccc05"/>
          <rect id="Rectángulo_5517" data-name="Rectángulo 5517" width="2.41" height="0.625" transform="translate(11.134 9.502) rotate(168.385)" fill="#fccc05"/>
          <rect id="Rectángulo_5518" data-name="Rectángulo 5518" width="2.41" height="0.625" transform="translate(11.723 9.318) rotate(168.385)" fill="#fccc05"/>
          <rect id="Rectángulo_5519" data-name="Rectángulo 5519" width="2.41" height="0.625" transform="translate(11.849 9.931) rotate(168.385)" fill="#fccc05"/>
          <rect id="Rectángulo_5520" data-name="Rectángulo 5520" width="2.41" height="0.625" transform="translate(12.465 9.827) rotate(168.385)" fill="#fccc05"/>
          <rect id="Rectángulo_5521" data-name="Rectángulo 5521" width="2.41" height="0.625" transform="translate(12.591 10.439) rotate(168.385)" fill="#fccc05"/>
          <rect id="Rectángulo_5522" data-name="Rectángulo 5522" width="2.41" height="0.625" transform="translate(13.206 10.335) rotate(168.385)" fill="#fccc05"/>
          <rect id="Rectángulo_5523" data-name="Rectángulo 5523" width="2.41" height="0.625" transform="translate(13.332 10.947) rotate(168.385)" fill="#fccc05"/>
          <g id="Grupo_34883" data-name="Grupo 34883">
            <rect id="Rectángulo_5524" data-name="Rectángulo 5524" width="5.394" height="0.625" transform="translate(8.715 0.612) rotate(168.385)" fill="#fccc05"/>
            <rect id="Rectángulo_5525" data-name="Rectángulo 5525" width="7.883" height="0.625" transform="translate(10.064 0.973) rotate(168.385)" fill="#fccc05"/>
            <rect id="Rectángulo_5526" data-name="Rectángulo 5526" width="9.114" height="0.625" transform="translate(10.781 1.464) rotate(168.385)" fill="#fccc05"/>
            <rect id="Rectángulo_5527" data-name="Rectángulo 5527" width="10.362" height="0.625" transform="translate(11.454 1.964) rotate(168.385)" fill="#fccc05"/>
            <rect id="Rectángulo_5528" data-name="Rectángulo 5528" width="11.549" height="0.625" transform="translate(12.188 2.451) rotate(168.385)" fill="#fccc05"/>
            <rect id="Rectángulo_5529" data-name="Rectángulo 5529" width="12.032" height="0.625" transform="translate(12.298 2.984) rotate(168.385)" fill="#fccc05"/>
            <rect id="Rectángulo_5530" data-name="Rectángulo 5530" width="4.887" height="0.625" transform="translate(13.05 3.468) rotate(168.385)" fill="#fccc05"/>
            <rect id="Rectángulo_5531" data-name="Rectángulo 5531" width="4.809" height="0.625" transform="translate(5.349 5.051) rotate(168.385)" fill="#fccc05"/>
            <rect id="Rectángulo_5532" data-name="Rectángulo 5532" width="4.26" height="0.625" transform="translate(13.176 4.08) rotate(168.385)" fill="#fccc05"/>
            <rect id="Rectángulo_5533" data-name="Rectángulo 5533" width="4.258" height="0.625" transform="translate(4.297 5.905) rotate(168.385)" fill="#fccc05"/>
            <rect id="Rectángulo_5534" data-name="Rectángulo 5534" width="3.671" height="0.625" transform="translate(13.302 4.693) rotate(168.385)" fill="#fccc05"/>
            <rect id="Rectángulo_5535" data-name="Rectángulo 5535" width="3.068" height="0.625" transform="translate(13.416 5.25) rotate(168.385)" fill="#fccc05"/>
            <rect id="Rectángulo_5536" data-name="Rectángulo 5536" width="1.908" height="0.625" transform="translate(12.916 5.992) rotate(168.385)" fill="#fccc05"/>
            <rect id="Rectángulo_5537" data-name="Rectángulo 5537" width="0.701" height="0.625" transform="translate(12.536 6.651) rotate(168.385)" fill="#fccc05"/>
            <rect id="Rectángulo_5538" data-name="Rectángulo 5538" width="4.258" height="0.625" transform="translate(4.422 6.517) rotate(168.385)" fill="#fccc05"/>
            <rect id="Rectángulo_5539" data-name="Rectángulo 5539" width="3.603" height="0.625" transform="translate(3.907 7.262) rotate(168.385)" fill="#fccc05"/>
            <rect id="Rectángulo_5540" data-name="Rectángulo 5540" width="3.603" height="0.625" transform="translate(4.033 7.874) rotate(168.385)" fill="#fccc05"/>
            <rect id="Rectángulo_5541" data-name="Rectángulo 5541" width="3.603" height="0.625" transform="translate(4.159 8.486) rotate(168.385)" fill="#fccc05"/>
            <rect id="Rectángulo_5542" data-name="Rectángulo 5542" width="3.603" height="0.625" transform="translate(4.159 8.486) rotate(168.385)" fill="#fccc05"/>
            <rect id="Rectángulo_5543" data-name="Rectángulo 5543" width="3.603" height="0.625" transform="translate(4.285 9.099) rotate(168.385)" fill="#fccc05"/>
            <rect id="Rectángulo_5544" data-name="Rectángulo 5544" width="3.603" height="0.625" transform="translate(4.41 9.711) rotate(168.385)" fill="#fccc05"/>
            <rect id="Rectángulo_5545" data-name="Rectángulo 5545" width="4.218" height="0.625" transform="translate(5.138 10.2) rotate(168.385)" fill="#fccc05"/>
            <rect id="Rectángulo_5546" data-name="Rectángulo 5546" width="4.772" height="0.625" transform="translate(5.786 10.601) rotate(168.385)" fill="#fccc05"/>
            <rect id="Rectángulo_5547" data-name="Rectángulo 5547" width="3.566" height="0.625" transform="translate(5.369 11.325) rotate(168.385)" fill="#fccc05"/>
            <rect id="Rectángulo_5548" data-name="Rectángulo 5548" width="2.952" height="0.625" transform="translate(4.893 12.061) rotate(168.385)" fill="#fccc05"/>
            <rect id="Rectángulo_5549" data-name="Rectángulo 5549" width="2.369" height="0.625" transform="translate(5.019 12.673) rotate(168.385)" fill="#fccc05"/>
            <rect id="Rectángulo_5550" data-name="Rectángulo 5550" width="1.356" height="0.625" transform="translate(4.593 13.319) rotate(168.385)" fill="#fccc05"/>
            <rect id="Rectángulo_5551" data-name="Rectángulo 5551" width="0.678" height="0.625" transform="translate(4.719 13.931) rotate(168.385)" fill="#fccc05"/>
          </g>
          <rect id="Rectángulo_5552" data-name="Rectángulo 5552" width="5.394" height="0.625" transform="translate(11.025 17.607) rotate(-11.615)" fill="#fccc05"/>
          <rect id="Rectángulo_5553" data-name="Rectángulo 5553" width="7.883" height="0.625" transform="translate(9.677 17.246) rotate(-11.615)" fill="#fccc05"/>
          <rect id="Rectángulo_5554" data-name="Rectángulo 5554" width="9.114" height="0.625" transform="translate(8.959 16.755) rotate(-11.615)" fill="#fccc05"/>
          <rect id="Rectángulo_5555" data-name="Rectángulo 5555" width="10.362" height="0.625" transform="translate(8.286 16.255) rotate(-11.615)" fill="#fccc05"/>
          <rect id="Rectángulo_5556" data-name="Rectángulo 5556" width="11.549" height="0.625" transform="translate(7.552 15.768) rotate(-11.615)" fill="#fccc05"/>
          <rect id="Rectángulo_5557" data-name="Rectángulo 5557" width="12.032" height="0.625" transform="translate(7.443 15.235) rotate(-11.615)" fill="#fccc05"/>
          <rect id="Rectángulo_5558" data-name="Rectángulo 5558" width="4.887" height="0.625" transform="translate(6.69 14.751) rotate(-11.615)" fill="#fccc05"/>
          <rect id="Rectángulo_5559" data-name="Rectángulo 5559" width="4.809" height="0.625" transform="translate(14.391 13.169) rotate(-11.615)" fill="#fccc05"/>
          <rect id="Rectángulo_5560" data-name="Rectángulo 5560" width="4.26" height="0.625" transform="translate(6.565 14.139) rotate(-11.615)" fill="#fccc05"/>
          <rect id="Rectángulo_5561" data-name="Rectángulo 5561" width="4.258" height="0.625" transform="translate(15.443 12.314) rotate(-11.615)" fill="#fccc05"/>
          <rect id="Rectángulo_5562" data-name="Rectángulo 5562" width="3.671" height="0.625" transform="translate(6.439 13.527) rotate(-11.615)" fill="#fccc05"/>
          <rect id="Rectángulo_5563" data-name="Rectángulo 5563" width="3.068" height="0.625" transform="translate(6.324 12.969) rotate(-11.615)" fill="#fccc05"/>
          <rect id="Rectángulo_5564" data-name="Rectángulo 5564" width="1.908" height="0.625" transform="translate(6.824 12.228) rotate(-11.615)" fill="#fccc05"/>
          <rect id="Rectángulo_5565" data-name="Rectángulo 5565" width="0.701" height="0.625" transform="translate(7.204 11.568) rotate(-11.615)" fill="#fccc05"/>
          <rect id="Rectángulo_5566" data-name="Rectángulo 5566" width="4.258" height="0.625" transform="translate(15.318 11.702) rotate(-11.615)" fill="#fccc05"/>
          <rect id="Rectángulo_5567" data-name="Rectángulo 5567" width="3.603" height="0.625" transform="translate(15.833 10.957) rotate(-11.615)" fill="#fccc05"/>
          <rect id="Rectángulo_5568" data-name="Rectángulo 5568" width="3.603" height="0.625" transform="translate(15.707 10.345) rotate(-11.615)" fill="#fccc05"/>
          <rect id="Rectángulo_5569" data-name="Rectángulo 5569" width="3.603" height="0.625" transform="translate(15.581 9.733) rotate(-11.615)" fill="#fccc05"/>
          <rect id="Rectángulo_5570" data-name="Rectángulo 5570" width="3.603" height="0.625" transform="translate(15.581 9.733) rotate(-11.615)" fill="#fccc05"/>
          <rect id="Rectángulo_5571" data-name="Rectángulo 5571" width="3.603" height="0.625" transform="translate(15.455 9.12) rotate(-11.615)" fill="#fccc05"/>
          <rect id="Rectángulo_5572" data-name="Rectángulo 5572" width="3.603" height="0.625" transform="translate(15.33 8.508) rotate(-11.615)" fill="#fccc05"/>
          <rect id="Rectángulo_5573" data-name="Rectángulo 5573" width="4.218" height="0.625" transform="translate(14.602 8.019) rotate(-11.615)" fill="#fccc05"/>
          <rect id="Rectángulo_5574" data-name="Rectángulo 5574" width="4.772" height="0.625" transform="translate(13.954 7.619) rotate(-11.615)" fill="#fccc05"/>
          <rect id="Rectángulo_5575" data-name="Rectángulo 5575" width="3.566" height="0.625" transform="translate(14.371 6.894) rotate(-11.615)" fill="#fccc05"/>
          <rect id="Rectángulo_5576" data-name="Rectángulo 5576" width="2.952" height="0.625" transform="translate(14.847 6.158) rotate(-11.615)" fill="#fccc05"/>
          <rect id="Rectángulo_5577" data-name="Rectángulo 5577" width="2.369" height="0.625" transform="translate(14.721 5.546) rotate(-11.615)" fill="#fccc05"/>
          <rect id="Rectángulo_5578" data-name="Rectángulo 5578" width="1.356" height="0.625" transform="translate(15.147 4.901) rotate(-11.615)" fill="#fccc05"/>
          <rect id="Rectángulo_5579" data-name="Rectángulo 5579" width="0.678" height="0.625" transform="translate(15.021 4.288) rotate(-11.615)" fill="#fccc05"/>
        </g>
        <path id="Trazado_41917" data-name="Trazado 41917" d="M1494.856,1289.612c.252-.42,2.341-3.891,2.341-3.891s1.162-.43,2.021,1.626c.813,1.944,8.507,12.588,18.49,12.23a32.058,32.058,0,0,0,14.832-4.144l-2.443,10.751h-20.306l-10.027-9.608Z" transform="translate(-1479.853 -1228.29)" fill="#6d31fd"/>
        <path id="Trazado_41918" data-name="Trazado 41918" d="M1622.259,1484.5s10.195,2.014,14.6-1.678a90.8,90.8,0,0,0,11.111-11.5c1.307-1.8-.125-4.783-3.6-7.3s-4.151-1.762-4.151-1.762-3.356,4.945-6.209,6.374l-2.853,1.429s-1.93,8.81-3.776,10.069A59.136,59.136,0,0,0,1622.259,1484.5Z" transform="translate(-1525.446 -1291.444)" fill="#f2f4f4"/>
        <path id="Trazado_41919" data-name="Trazado 41919" d="M1639.94,1483.016s3.1.957,4.08,5.823l2.048-1.876s-.742-5.274-5.479-5.992Z" transform="translate(-1531.773 -1298.176)" fill="#dbdbdb"/>
        <path id="Trazado_41920" data-name="Trazado 41920" d="M1635.962,1469.289l.095.839h7.384l3.374-7.543-1.7-.261S1640.419,1469.563,1635.962,1469.289Z" transform="translate(-1530.35 -1291.503)" fill="#dbdbdb"/>
        <path id="Trazado_41921" data-name="Trazado 41921" d="M1635.252,1481.651s4.2-4.886,2.858-10.256c0,0,.01-.672.877-.209,1.178.629,2.018,6.88-2.723,10.991Z" transform="translate(-1530.095 -1294.616)" fill="#6d31fd"/>
        <path id="Trazado_41922" data-name="Trazado 41922" d="M1630.752,1480.165s3.3-4.049,2.447-8.486a2.133,2.133,0,0,1,1.917-2.17c1.93-.168,2.938,3.44,1.93,6.376a20.418,20.418,0,0,1-2.948,5.37Z" transform="translate(-1528.485 -1294.072)" fill="#e8edef"/>
        <path id="Trazado_41923" data-name="Trazado 41923" d="M1622.251,1493s-.672-7.8,6.964-7.048c0,0,5.621-.13,6.292,6.247C1635.507,1492.194,1631.637,1494.8,1622.251,1493Z" transform="translate(-1525.438 -1299.938)" fill="#dbdbdb"/>
        <g id="Grupo_34885" data-name="Grupo 34885" transform="translate(114.352 178.564)">
          <path id="Trazado_41924" data-name="Trazado 41924" d="M1649.573,1477.186l2.787-2.8,1.448,1.388-3.06,2.843Z" transform="translate(-1649.573 -1474.382)" fill="#6d31fd"/>
          <path id="Trazado_41925" data-name="Trazado 41925" d="M1652.647,1474.382l-.768.773.669.641-2.171,2.017.659.8,3.06-2.843Z" transform="translate(-1649.86 -1474.382)" fill="#422c9b" opacity="0.4"/>
        </g>
        <path id="Trazado_41926" data-name="Trazado 41926" d="M1649.635,1463.556a6.554,6.554,0,0,1,2.645,2.269s.209.646,1.045.291,2.081-1.363,1.433-2.583a6.341,6.341,0,0,0-4.37-3.51s-1.031-.227-1.14.5c-.056.373-.18,1.049-.288,1.623A1.311,1.311,0,0,0,1649.635,1463.556Z" transform="translate(-1534.993 -1290.668)" fill="#6d31fd"/>
        <path id="Trazado_41927" data-name="Trazado 41927" d="M1650.569,1460.024s-.975-.212-1.127.451a6.692,6.692,0,0,1,3.638,3.334,1.62,1.62,0,0,1-.6,2.07c.073.146.336.53,1.023.238.835-.355,2.081-1.363,1.433-2.583A6.341,6.341,0,0,0,1650.569,1460.024Z" transform="translate(-1535.174 -1290.668)" fill="#422c9b" opacity="0.4"/>
        <path id="Trazado_41928" data-name="Trazado 41928" d="M1634.591,1475.479s1.625-1.011,4.426.231a.875.875,0,0,0,.106-.921s-2.9-1.109-4.474-.165A.8.8,0,0,0,1634.591,1475.479Z" transform="translate(-1529.823 -1295.768)" fill="#dbdbdb"/>
        <path id="Trazado_41929" data-name="Trazado 41929" d="M1634.1,1478.659s1.625-1.01,4.427.232a.876.876,0,0,0,.106-.922s-2.9-1.109-4.474-.165A.8.8,0,0,0,1634.1,1478.659Z" transform="translate(-1529.647 -1296.906)" fill="#dbdbdb"/>
        <path id="Trazado_41930" data-name="Trazado 41930" d="M1633.094,1481.485s1.686-.9,4.4.514a.876.876,0,0,0,.164-.913s-2.71-1.288-4.341-.447A.741.741,0,0,0,1633.094,1481.485Z" transform="translate(-1529.3 -1297.955)" fill="#dbdbdb"/>
        <path id="Trazado_41931" data-name="Trazado 41931" d="M1631.644,1484.218s1.781-.907,4.36.748a.876.876,0,0,0,.245-.894s-2.506-1.426-4.2-.733C1632.045,1483.338,1631.46,1483.728,1631.644,1484.218Z" transform="translate(-1528.792 -1298.955)" fill="#dbdbdb"/>
        <path id="Trazado_41932" data-name="Trazado 41932" d="M1623.478,1492.163s8.034,1.5,11.614-.51,14.02-13.086,14.02-13.086-10.537,13.065-15.747,14.1C1627.018,1493.936,1623.478,1492.163,1623.478,1492.163Z" transform="translate(-1525.882 -1297.315)" fill="#dbdbdb"/>
        <path id="Trazado_41933" data-name="Trazado 41933" d="M1655.228,1486.642l6.061-6.934A26.4,26.4,0,0,1,1655.228,1486.642Z" transform="translate(-1537.244 -1297.724)" fill="#dbdbdb"/>
        <path id="Trazado_41934" data-name="Trazado 41934" d="M1558.947,1304.3a35.309,35.309,0,0,1-.154,9.071,31.965,31.965,0,0,1-3.094,8.313A20.639,20.639,0,0,0,1558.947,1304.3Z" transform="translate(-1501.626 -1234.952)" fill="#422c9b"/>
        <path id="Trazado_41935" data-name="Trazado 41935" d="M1480.68,1270.632s.153,8.965,6.018,5.975c0,0,4.966-1.287,5.133-4.283s-1.914-7.878-1.914-7.878-8.3,2.846-9.235,4.022A1.631,1.631,0,0,0,1480.68,1270.632Z" transform="translate(-1474.632 -1220.69)" fill="#e2a388"/>
        <path id="Trazado_41936" data-name="Trazado 41936" d="M1491.613,1265.459s-.833-10.469,1.563-11.029c3.848-.9,2.675,13.906,2.675,13.906Z" transform="translate(-1478.643 -1217.092)" fill="#e2a388"/>
        <path id="Trazado_41937" data-name="Trazado 41937" d="M1485.794,1266.455s-4.054-9.688-1.952-10.967c3.376-2.054,6.068,9.508,6.068,9.508Z" transform="translate(-1475.695 -1217.397)" fill="#e2a388"/>
        <path id="Trazado_41938" data-name="Trazado 41938" d="M1483.658,1264.895a1.784,1.784,0,0,0-1.856,1.814c-.116,1.9.637,5.17,2.754,4.991S1485.751,1264.877,1483.658,1264.895Z" transform="translate(-1475.178 -1220.851)" fill="#d3927a"/>
        <path id="Trazado_41939" data-name="Trazado 41939" d="M1480.031,1267.321a1.784,1.784,0,0,0-1.856,1.814c-.116,1.9.645,4.235,2.762,4.057S1482.124,1267.3,1480.031,1267.321Z" transform="translate(-1473.88 -1221.719)" fill="#d3927a"/>
        <path id="Trazado_41940" data-name="Trazado 41940" d="M1495.11,1269.774c-.029-1.465-1.672-2.129-3.484-1.658-2.554.663-4.485,2.093-4.006,3.328s3.244.951,5.194.276C1492.813,1271.72,1495.132,1270.905,1495.11,1269.774Z" transform="translate(-1477.237 -1221.95)" fill="#d3927a"/>
        <path id="Trazado_41941" data-name="Trazado 41941" d="M1493.826,1271.457c-1.95.675-4.715.959-5.194-.276a1.182,1.182,0,0,1,.1-1.014c-.907.64-1.38,1.382-1.116,2.064.478,1.235,3.243.951,5.194.276,0,0,1.909-.674,2.242-1.645A7.217,7.217,0,0,1,1493.826,1271.457Z" transform="translate(-1477.237 -1222.738)" fill="#d69680" opacity="0.26" style="mix-blend-mode: multiply;isolation: isolate"/>
        <path id="Trazado_41942" data-name="Trazado 41942" d="M1488.5,1275.024a3.465,3.465,0,0,0,.341,3.381A7.6,7.6,0,0,1,1488.5,1275.024Z" transform="translate(-1477.472 -1224.476)" fill="#d3927a"/>
        <path id="Trazado_41943" data-name="Trazado 41943" d="M1482.943,1277.216l2.861-1.476A5.029,5.029,0,0,1,1482.943,1277.216Z" transform="translate(-1475.59 -1224.732)" fill="#d3927a"/>
        <path id="Trazado_41944" data-name="Trazado 41944" d="M1488.433,1283.249s3.067-.552,4.225-1.948C1492.658,1281.3,1491.818,1283.4,1488.433,1283.249Z" transform="translate(-1477.555 -1226.722)" fill="#d3927a"/>
        <g id="Grupo_34891" data-name="Grupo 34891" transform="translate(59.218 23.584)">
          <path id="Trazado_41945" data-name="Trazado 41945" d="M1596.813,1251.69s2.291-16.588-12.933-18.4c-13.458-1.6-20.341,4.261-20.164,14.457a64.242,64.242,0,0,1,17.527-.652C1590.929,1248.071,1596.813,1251.69,1596.813,1251.69Z" transform="translate(-1563.713 -1233.033)" fill="#2bbee0"/>
          <path id="Trazado_41946" data-name="Trazado 41946" d="M1584.3,1234.021a34.008,34.008,0,0,0-5.218-.238,27.158,27.158,0,0,1,10.3-.489c15.224,1.808,12.933,18.4,12.933,18.4a29.089,29.089,0,0,0-4.965-2.23C1597.209,1244.6,1595.458,1235.346,1584.3,1234.021Z" transform="translate(-1569.214 -1233.033)" fill="#4295a8" opacity="0.47"/>
          <path id="Trazado_41947" data-name="Trazado 41947" d="M1591.081,1248.434l-11.963-.983.395,3.03,10.926.712Z" transform="translate(-1569.226 -1238.193)" fill="#4295a8"/>
          <path id="Trazado_41948" data-name="Trazado 41948" d="M1590.915,1249.326l-.307,1.62-10.253-.5-.224-2.113Z" transform="translate(-1569.588 -1238.508)" fill="#f8cf48"/>
          <g id="Grupo_34890" data-name="Grupo 34890" transform="translate(14.29 5.754)">
            <g id="Grupo_34889" data-name="Grupo 34889">
              <g id="Grupo_34888" data-name="Grupo 34888">
                <g id="Grupo_34886" data-name="Grupo 34886">
                  <path id="Trazado_41949" data-name="Trazado 41949" d="M1586.711,1242.849a.55.55,0,0,0,.11.771l.045.034s-.39.4-.125.7l-.3-.225a1.186,1.186,0,0,1,1.422-1.9l.046.035a.54.54,0,0,1,.142.774l-.06.081-.482-.362-.026-.019a.55.55,0,0,0-.771.11" transform="translate(-1585.966 -1241.994)" fill="#4295a8"/>
                </g>
                <g id="Grupo_34887" data-name="Grupo 34887" transform="translate(1.03 0.652)">
                  <path id="Trazado_41950" data-name="Trazado 41950" d="M1589.021,1244.514a.551.551,0,0,0-.11-.771l-.045-.034s.39-.4.125-.7l.3.226a1.185,1.185,0,1,1-1.422,1.9l-.046-.034a.542.542,0,0,1-.142-.774l.06-.08.482.362.026.019a.552.552,0,0,0,.771-.11" transform="translate(-1587.571 -1243.009)" fill="#4295a8"/>
                </g>
              </g>
              <path id="Trazado_41951" data-name="Trazado 41951" d="M1587.905,1243.658l.745.559a.181.181,0,0,1-.217.29l-.745-.558a.181.181,0,0,1,.217-.29Z" transform="translate(-1586.557 -1242.577)" fill="#4295a8"/>
            </g>
          </g>
        </g>
        <g id="Grupo_34892" data-name="Grupo 34892" transform="translate(68.28 56.74)">
          <path id="Trazado_41952" data-name="Trazado 41952" d="M1585.53,1284.667a.66.66,0,0,1,.7.724,4.276,4.276,0,0,1-8.388.573.667.667,0,0,1,.6-.837Z" transform="translate(-1577.824 -1284.666)" fill="#062625"/>
          <path id="Trazado_41953" data-name="Trazado 41953" d="M1585.934,1288.9a4.22,4.22,0,0,0-5.947.39,4.271,4.271,0,0,0,5.947-.39Z" transform="translate(-1578.598 -1285.808)" fill="#ed1c24"/>
          <path id="Trazado_41954" data-name="Trazado 41954" d="M1583.11,1288.494a4.184,4.184,0,0,1,2.29,1.232,4.253,4.253,0,0,0,1.01-.823,4.074,4.074,0,0,0-3.052-1.035,4.247,4.247,0,0,0-2.042.666A4.307,4.307,0,0,1,1583.11,1288.494Z" transform="translate(-1579.074 -1285.808)" fill="#fc3a49"/>
        </g>
      </g>
      <g id="Grupo_34908" data-name="Grupo 34908" transform="translate(1548.598 1225.368)">
        <path id="Trazado_41955" data-name="Trazado 41955" d="M1647.373,1286.323c-2.934,4.014-8.729,6.908-19.369,4.437a49.871,49.871,0,0,1-2.729,4.822,34.522,34.522,0,0,0,9.328,5.952c3.072,1.4,4.189,3.5,2.229,6.578-.854-.242-15.181-5.861-24-24.729-3.774-8.079-1.169-19.059,1.734-24.174.519,2.019.849,4.109,1.216,6.091a32.38,32.38,0,0,0,.638-8.986,41.316,41.316,0,0,1,13.8-11.873,45.834,45.834,0,0,1,2.493,6.318s-11.1,7.449-9.739,17.955S1639.454,1287.33,1647.373,1286.323Z" transform="translate(-1610.955 -1242.593)" fill="#555e60" opacity="0.13" style="mix-blend-mode: multiply;isolation: isolate"/>
        <path id="Trazado_41956" data-name="Trazado 41956" d="M1701.139,1458.822s8.376.322,13.6,3.572l-3.67,1.824-8.869-2.686Z" transform="translate(-1643.228 -1319.312)" fill="#910c55"/>
        <path id="Trazado_41957" data-name="Trazado 41957" d="M1709.7,1479.466s-3.444-1.734-9.408.023l2.176,3.511Z" transform="translate(-1642.926 -1326.427)" fill="#006070"/>
        <path id="Trazado_41958" data-name="Trazado 41958" d="M1700.8,1478.8s-.008-2-1.045-2.044-1.409.548-1.138,1c.2.325,1.148.241,1.176,1.057A1.363,1.363,0,0,0,1700.8,1478.8Z" transform="translate(-1642.294 -1325.731)" fill="#006070"/>
        <path id="Trazado_41959" data-name="Trazado 41959" d="M1704.065,1458.72s-3.324,11.442-2.237,19.605l6.949.907c-.641-9.012,3.922-18.36,3.922-18.36Z" transform="translate(-1643.396 -1319.276)" fill="#f4b08e"/>
        <g id="Grupo_34894" data-name="Grupo 34894" transform="translate(56.61 151.702)">
          <path id="Trazado_41960" data-name="Trazado 41960" d="M1724.789,1499.682s1.217-.208,1.484.789-.523,2.387-6.213,2.67c-5.917.294-8.1-.4-15.272-.839,0,0-4.039-.151-4.362-.771a1.555,1.555,0,0,1,.087-1.661,4.019,4.019,0,0,1,1.09-.331Z" transform="translate(-1699.515 -1485.585)" fill="#006070"/>
          <path id="Trazado_41961" data-name="Trazado 41961" d="M1700.368,1493.137s7.774.808,9.594,1.185,11.248.907,14.289-.615c0,0,1.4-.618.913-1.58s-7.28-3.1-10.972-4.947-4.509-1.814-4.679-2.625a44.745,44.745,0,0,1,.2-5.216s-5.066,2.025-9.88.447C1699.832,1479.786,1697.9,1488.672,1700.368,1493.137Z" transform="translate(-1699.113 -1478.357)" fill="#2bbee0"/>
          <path id="Trazado_41962" data-name="Trazado 41962" d="M1700.32,1491.784s-.049-1.23-.664-1.157-.525.914-.525.914S1699.79,1492.039,1700.32,1491.784Z" transform="translate(-1699.118 -1482.395)" fill="#0e7992"/>
          <path id="Trazado_41963" data-name="Trazado 41963" d="M1718.585,1491.63s-11.914-2.51-10.022-11.095a15.607,15.607,0,0,0,3.485-.6s-1.153,3.4.425,5.458,7.664,4.252,7.664,4.252Z" transform="translate(-1702.422 -1478.569)" fill="#006070"/>
          <path id="Trazado_41964" data-name="Trazado 41964" d="M1719.528,1490.07a33.485,33.485,0,0,1-6.393-3.105c-1.944-1.469-3.052-2.869-3.253-4.91s.347-3.927,1.971-4.2,1.7.941,1.7.941-.064,4.233.419,5.009c.791,1.271,4.114,2.99,7.192,4.219Z" transform="translate(-1702.953 -1477.809)" fill="#4295a8"/>
          <path id="Trazado_41965" data-name="Trazado 41965" d="M1701.213,1492.475l-.509-1s-.168-1.065.475-1.029.687.849.687.849a.781.781,0,0,1,1.088-.394.771.771,0,0,1,.393,1.073s.711-.5,1.19.074.015.923.015.923a.868.868,0,0,1,1.166.449c.389.807-.156.988-.156.988a.775.775,0,0,1,.976.349.886.886,0,0,1-.232,1.11s.792-.342,1.007.328-.559.995-.559.995.764.074.819.523l0,.157-1.125-.138-3.38-2.592Z" transform="translate(-1699.676 -1482.329)" fill="#0e7992"/>
          <path id="Trazado_41966" data-name="Trazado 41966" d="M1725.6,1493.564c.5.208,1.014.414,1.526.617-1.438.428-3.1,1.843-3.041,5.63-.319-.006-.819-.017-1.126-.027C1722.786,1498.365,1722.678,1494.887,1725.6,1493.564Z" transform="translate(-1707.621 -1483.447)" fill="#0e7992"/>
          <path id="Trazado_41967" data-name="Trazado 41967" d="M1706.462,1498.3s-1.711-5.825-5.747-6.256l.226,5.64Z" transform="translate(-1699.686 -1482.903)" fill="#5ed4f0"/>
          <path id="Trazado_41968" data-name="Trazado 41968" d="M1723.585,1492.571a4.62,4.62,0,0,0-2.423,2.273.733.733,0,0,1-.709-.229,3.732,3.732,0,0,1,2.229-2.445A.867.867,0,0,1,1723.585,1492.571Z" transform="translate(-1706.75 -1482.942)" fill="#0e7992"/>
          <path id="Trazado_41969" data-name="Trazado 41969" d="M1720.332,1491.014a3.19,3.19,0,0,0-1.424.941,4.9,4.9,0,0,0-.871,1.579.9.9,0,0,1-.714-.311,3.769,3.769,0,0,1,2.24-2.6A.867.867,0,0,1,1720.332,1491.014Z" transform="translate(-1705.63 -1482.392)" fill="#0e7992"/>
          <path id="Trazado_41970" data-name="Trazado 41970" d="M1717.31,1489.413s-2.128.647-2.675,2.252a.923.923,0,0,1-.7-.364,4.213,4.213,0,0,1,2.748-2.308A.668.668,0,0,1,1717.31,1489.413Z" transform="translate(-1704.419 -1481.811)" fill="#0e7992"/>
          <path id="Trazado_41971" data-name="Trazado 41971" d="M1714.895,1487.692s-2.452.462-3.286,1.778a.891.891,0,0,1-.488-.512,4.125,4.125,0,0,1,3.307-1.818A.686.686,0,0,1,1714.895,1487.692Z" transform="translate(-1703.41 -1481.148)" fill="#0e7992"/>
          <path id="Trazado_41972" data-name="Trazado 41972" d="M1713.681,1485.4a5.987,5.987,0,0,0-3.705,1.407.636.636,0,0,1-.284-.679s1.024-1.519,3.907-1.411A.616.616,0,0,1,1713.681,1485.4Z" transform="translate(-1702.898 -1480.279)" fill="#0e7992"/>
          <path id="Trazado_41973" data-name="Trazado 41973" d="M1713.243,1482.14a12.444,12.444,0,0,0-4.268.65,1.018,1.018,0,0,0,.084.828,18.056,18.056,0,0,1,4.209-.658S1713.588,1482.689,1713.243,1482.14Z" transform="translate(-1702.623 -1479.358)" fill="#0e7992"/>
          <path id="Trazado_41974" data-name="Trazado 41974" d="M1700.841,1492.68c-.042-.056-.693-.651-.693-.651a4.707,4.707,0,0,0-1.015.005,12.077,12.077,0,0,0,1.241,5.635Z" transform="translate(-1699.12 -1482.888)" fill="#5ed4f0"/>
        </g>
        <path id="Trazado_41975" data-name="Trazado 41975" d="M1725.872,1492.694a1,1,0,0,0-.61-.7.872.872,0,0,0-.1-.419c-.323-.637-3.416-1.792-6.541-3.037h0c-.512-.2-1.025-.41-1.527-.617h0c-.393-.162-.779-.324-1.153-.486l.006,0a.867.867,0,0,0-.9-.4h0c-.423-.2-.836-.4-1.234-.6h.006a.872.872,0,0,0-.751-.4c-.377-.209-.733-.417-1.06-.625a.667.667,0,0,0-.622-.419,7.3,7.3,0,0,1-.785-.64.684.684,0,0,0-.466-.55,2.613,2.613,0,0,1-.237-.872h0a.616.616,0,0,0-.082-.682c-.024-.268-.043-.552-.057-.836,0,0,.32-.271-.026-.821h-.007c-.027-.982-.015-1.8-.015-1.8s-.073-1.219-1.7-.941a2.313,2.313,0,0,0-1.8,1.813,14.181,14.181,0,0,1-6.383-.424,36.275,36.275,0,0,0-.709,7.555,1.268,1.268,0,0,0,0,.161,12.854,12.854,0,0,0,.975,5.145,1.572,1.572,0,0,0-.078,1.654c.323.62,4.362.771,4.362.771,7.172.443,9.355,1.133,15.272.839C1725.348,1495.081,1726.139,1493.691,1725.872,1492.694Z" transform="translate(-1642.504 -1326.107)" fill="#555e60" opacity="0.53" style="mix-blend-mode: multiply;isolation: isolate"/>
        <path id="Trazado_41976" data-name="Trazado 41976" d="M1672.159,1384.8l3.611-1.008s13.784,15.517,13.784,23.159c0,8.95-2.736,21.229-2.736,21.229s6.628,2.764,10.824.879c0,0,4.02-15.6,5.133-25.8,1.3-11.915-25.1-39.58-25.1-39.58s-14.59,1.181-18.6-.008S1672.159,1384.8,1672.159,1384.8Z" transform="translate(-1627.956 -1285.245)" fill="#e00b71"/>
        <path id="Trazado_41977" data-name="Trazado 41977" d="M1714.347,1462.394l-1.316,4.154a1.827,1.827,0,0,1-1.522.876,30.5,30.5,0,0,1-10.4-2.376,1.958,1.958,0,0,1-1.061-1.785c.1-1.2.7-4.442.7-4.442A35.339,35.339,0,0,0,1714.347,1462.394Z" transform="translate(-1642.836 -1319.312)" fill="#bc0f65"/>
        <path id="Trazado_41978" data-name="Trazado 41978" d="M1681.137,1480.737s-3.444-1.734-9.409.023l2.176,3.511Z" transform="translate(-1632.703 -1326.882)" fill="#006070"/>
        <path id="Trazado_41979" data-name="Trazado 41979" d="M1672.284,1480.2s.065-2-.968-2.081-1.429.5-1.175.956c.184.331,1.138.282,1.137,1.1A1.361,1.361,0,0,0,1672.284,1480.2Z" transform="translate(-1632.109 -1326.214)" fill="#006070"/>
        <path id="Trazado_41980" data-name="Trazado 41980" d="M1679.23,1461.27s5.977,1.268,6.943,2.394a13.064,13.064,0,0,1-8.617-.207c-5-1.7-4.983-3.365-4.983-3.365A38.451,38.451,0,0,1,1679.23,1461.27Z" transform="translate(-1633.005 -1319.767)" fill="#910c55"/>
        <path id="Trazado_41981" data-name="Trazado 41981" d="M1675.5,1459.99s-3.323,11.442-2.237,19.605l6.948.907c-.641-9.012,3.923-18.36,3.923-18.36Z" transform="translate(-1633.174 -1319.73)" fill="#f4b08e"/>
        <path id="Trazado_41982" data-name="Trazado 41982" d="M1648.37,1358.834s-6.3,13.382-5.884,16.922,6.466,11.943,19.1,26.375c0,0,4.411,5.9,4.1,11.1s-2.914,13.493-2.914,13.493a11.007,11.007,0,0,0,10.605,3.071s6.5-16.419,6.669-24.978-13.7-24.03-16.235-33.543" transform="translate(-1622.231 -1283.531)" fill="#e00b71"/>
        <path id="Trazado_41983" data-name="Trazado 41983" d="M1651.218,1353.607s-1.133,3.608-.462,4.28,5.874,4.381,17.831,4.078c0,0,4.517-.107,6.293-.82,0,0,.518-.112.573-.363s0-1.762,0-1.762Z" transform="translate(-1625.122 -1281.66)" fill="#910c55"/>
        <path id="Trazado_41984" data-name="Trazado 41984" d="M1660.936,1359.114l-.441,4.1,1.458.367.684-4.183Z" transform="translate(-1628.683 -1283.631)" fill="#bc0f65"/>
        <path id="Trazado_41985" data-name="Trazado 41985" d="M1684.308,1360.563l-.21,4,1.479.034.377-4Z" transform="translate(-1637.13 -1284.149)" fill="#bc0f65"/>
        <path id="Trazado_41986" data-name="Trazado 41986" d="M1674.821,1364.1l.563-6.31s-4.656-.848-6.819-.475l-.3,6.334A14.365,14.365,0,0,0,1674.821,1364.1Z" transform="translate(-1631.465 -1282.953)" fill="#bc0f65"/>
        <g id="Grupo_34895" data-name="Grupo 34895" transform="translate(39.173 78.229)">
          <circle id="Elipse_762" data-name="Elipse 762" cx="1.038" cy="1.038" r="1.038" fill="#fccc05"/>
          <path id="Trazado_41987" data-name="Trazado 41987" d="M1673.438,1363.394a1.027,1.027,0,0,0-.5.085,1.032,1.032,0,0,1,.064,1.924,1.037,1.037,0,1,0,.438-2.009Z" transform="translate(-1672.308 -1363.39)" fill="#e8bc05"/>
        </g>
        <path id="Trazado_41988" data-name="Trazado 41988" d="M1657.239,1307.8s12.114,1.7,22.111,8.411c0,0-.022,21.78-1.58,24.053-.767,1.119-2.969,1.231-2.969,1.231s.394,1.4-.389,1.678-16.558,2.406-25.732-4.587a1.4,1.4,0,0,1,0-2.035s-3.414-4.23-1.287-8.482S1657.239,1307.8,1657.239,1307.8Z" transform="translate(-1623.745 -1265.267)" fill="#f80a73"/>
        <path id="Trazado_41989" data-name="Trazado 41989" d="M1700.455,1324.484l-5.838-3.631v-1.812a30.9,30.9,0,0,0,15.132,2.87Z" transform="translate(-1640.894 -1269.29)" fill="#f80a73"/>
        <path id="Trazado_41990" data-name="Trazado 41990" d="M1679.57,1262.1l-1.354-5.363s-4.68-1.359-8.706,7.621c-3.536,7.886.354,12.747,3.454,13.254C1679.029,1278.6,1679.57,1262.1,1679.57,1262.1Z" transform="translate(-1631.407 -1246.967)" fill="#6d31fd"/>
        <path id="Trazado_41991" data-name="Trazado 41991" d="M1664.74,1283.663s-.474-5.851-4.853-6.174-5.049,5.141-8.946,1.942c0,0,.119,6.209,4.356,8.3C1660.038,1290.063,1664.224,1287.6,1664.74,1283.663Z" transform="translate(-1625.264 -1254.416)" fill="#6d31fd"/>
        <path id="Trazado_41992" data-name="Trazado 41992" d="M1660.05,1282.451s3.634.177,4.388,2.7c0,0-1.513-.681-4.56,1.629-2.86,2.168-8.736.793-8.937-6.258,0,0,1.3,4.2,3.895,3.19A22.133,22.133,0,0,1,1660.05,1282.451Z" transform="translate(-1625.264 -1255.505)" fill="#5224e2"/>
        <path id="Trazado_41993" data-name="Trazado 41993" d="M1659.887,1277.489c3.082.227,4.229,3.19,4.638,4.927l-.844,1.039s-1.325-2.463-4.688-.759-7.1,1.685-8.052-3.265C1654.838,1282.63,1655.507,1277.167,1659.887,1277.489Z" transform="translate(-1625.264 -1254.416)" fill="#6d31fd"/>
        <path id="Trazado_41994" data-name="Trazado 41994" d="M1668.166,1283.663a5.591,5.591,0,0,1-3.136,4.385,10.853,10.853,0,0,0-1.554-6.686,8.6,8.6,0,0,0-2.962-3.195,4.638,4.638,0,0,1,2.8-.677C1667.692,1277.812,1668.166,1283.663,1668.166,1283.663Z" transform="translate(-1628.69 -1254.416)" fill="#422c9b" opacity="0.41"/>
        <path id="Trazado_41995" data-name="Trazado 41995" d="M1672.714,1288.8s-2.222,1.1-2.646-1.769,1.531-2.846,2.621-2.818S1672.714,1288.8,1672.714,1288.8Z" transform="translate(-1632.088 -1256.823)" fill="#e00b71"/>
        <path id="Trazado_41996" data-name="Trazado 41996" d="M1672.689,1284.209a.331.331,0,0,1,.188.063c-1.083.034-2.428.387-2.07,2.82.18,1.224.686,1.725,1.209,1.9-.69.08-1.679-.143-1.948-1.964C1669.645,1284.153,1671.6,1284.181,1672.689,1284.209Z" transform="translate(-1632.088 -1256.823)" fill="#f80a73"/>
        <g id="Grupo_34896" data-name="Grupo 34896" transform="translate(36.715 22.399)">
          <circle id="Elipse_763" data-name="Elipse 763" cx="2.727" cy="2.727" r="2.727" fill="#eaa07f"/>
          <path id="Trazado_41997" data-name="Trazado 41997" d="M1670.531,1279.412a.853.853,0,0,1,.86.951c-.076.932-.782.931-1.074.81a.385.385,0,0,1,.068-.7c.3-.066.432.282.432.282A.945.945,0,0,0,1670.531,1279.412Z" transform="translate(-1668.844 -1277.508)" fill="#d88564"/>
        </g>
        <g id="Grupo_34897" data-name="Grupo 34897" transform="translate(62.943 28.209)">
          <circle id="Elipse_764" data-name="Elipse 764" cx="2.727" cy="2.727" r="2.727" fill="#eaa07f"/>
          <path id="Trazado_41998" data-name="Trazado 41998" d="M1714.453,1288.695a.853.853,0,0,0-.984.823c-.053.934.646,1.031.951.95a.385.385,0,0,0,.03-.7c-.29-.107-.467.22-.467.22A.945.945,0,0,1,1714.453,1288.695Z" transform="translate(-1710.582 -1286.638)" fill="#d88564"/>
        </g>
        <path id="Trazado_41999" data-name="Trazado 41999" d="M1678.462,1306.632s-5.823-.97-6.952-.561a1.48,1.48,0,0,0-.638,2.408s-1.307,2.013.4,3.229c1.914,1.365,5.984,2.616,9.149,3.188s5.8-.037,6.141-.83a3.633,3.633,0,0,0,.292-1.522,1.593,1.593,0,0,0,.923-1.846C1687.45,1309.376,1680.616,1307.106,1678.462,1306.632Z" transform="translate(-1632.225 -1264.613)" fill="#e00b71"/>
        <path id="Trazado_42000" data-name="Trazado 42000" d="M1686.866,1311.8c-.153.539-4.618-.259-7.553-1.095s-5.192-1.949-5.038-2.488,2.657-.3,5.593.537S1687.018,1311.264,1686.866,1311.8Z" transform="translate(-1633.611 -1265.315)" fill="#910c55"/>
        <path id="Trazado_42001" data-name="Trazado 42001" d="M1677.711,1308.008l-.463,1.626a25.077,25.077,0,0,0,3.131,1.1,38,38,0,0,0,5.242,1.126l.986-3.466Z" transform="translate(-1634.678 -1265.342)" fill="#f4b08e"/>
        <path id="Trazado_42002" data-name="Trazado 42002" d="M1686.865,1305.822l.749-2.634-8.333-2.37-1.313,4.617Z" transform="translate(-1634.936 -1262.769)" fill="#eaa07f"/>
        <path id="Trazado_42003" data-name="Trazado 42003" d="M1673.752,1311.35a31.129,31.129,0,0,0,13.007,3.153S1678.743,1315.136,1673.752,1311.35Z" transform="translate(-1633.427 -1266.538)" fill="#bc0f65"/>
        <path id="Trazado_42004" data-name="Trazado 42004" d="M1674.145,1313.688s4.648,2.143,7.392,2.384C1681.537,1316.072,1676.534,1315.75,1674.145,1313.688Z" transform="translate(-1633.568 -1267.375)" fill="#bc0f65"/>
        <circle id="Elipse_765" data-name="Elipse 765" cx="13.197" cy="13.197" r="13.197" transform="translate(39.656 15.085)" fill="#f4b08e"/>
        <path id="Trazado_42005" data-name="Trazado 42005" d="M1683.249,1262.484a4.081,4.081,0,0,1,.911,3.306c-.9,4.18-4.586,2.617-7.031,3.9-1.9,1-1.789,3.677-1.789,3.677s-3.567-1.728-1.783-7.535S1678.884,1257.776,1683.249,1262.484Z" transform="translate(-1633.179 -1248.142)" fill="#6d31fd"/>
        <path id="Trazado_42006" data-name="Trazado 42006" d="M1704.221,1275.128c-8.215.13-7.826-7.994-12.061-10.141-3.844-1.948-8.575,1.007-8.575,1.007l-7.9-4.873s1.719-9.985,18.132-5.892C1710.057,1259.28,1704.221,1275.128,1704.221,1275.128Z" transform="translate(-1634.118 -1246.102)" fill="#6d31fd"/>
        <path id="Trazado_42007" data-name="Trazado 42007" d="M1687.991,1269.9s1.4-4.147,5.143-4.635,6.732.758,9.108,5.2c2.591,4.842,6.153,7.658,8.571,7.231,0,0-1.212,2.886-6.073.594s-6.42-7.69-9.288-8.914C1692.124,1267.96,1687.991,1269.9,1687.991,1269.9Z" transform="translate(-1638.523 -1250.011)" fill="#241c6b"/>
        <path id="Trazado_42008" data-name="Trazado 42008" d="M1696.021,1267.551c-3.764-1.079-8.03,2.353-8.03,2.353s1.4-4.147,5.143-4.635,6.732.758,9.108,5.2c2.591,4.842,6.153,7.658,8.571,7.231a2.624,2.624,0,0,1-1.644,1.321C1702.94,1278.87,1700.92,1268.954,1696.021,1267.551Z" transform="translate(-1638.523 -1250.011)" fill="#5224e2"/>
        <path id="Trazado_42009" data-name="Trazado 42009" d="M1681.506,1254.6l-.523-1.52s4.218-5.073,15.349-2.391,8.649-4.63,8.649-4.63,5.9,7.234-3.116,8.768C1695.038,1255.99,1690.417,1250.18,1681.506,1254.6Z" transform="translate(-1636.015 -1243.173)" fill="#6d31fd"/>
        <path id="Trazado_42010" data-name="Trazado 42010" d="M1681.8,1259.36l2.867,7.181S1683.827,1261.124,1681.8,1259.36Z" transform="translate(-1636.306 -1247.933)" fill="#5224e2"/>
        <g id="Grupo_34900" data-name="Grupo 34900" transform="translate(40.064 21.433)">
          <g id="Grupo_34898" data-name="Grupo 34898" transform="translate(13.315 3.805)">
            <path id="Trazado_42011" data-name="Trazado 42011" d="M1702.718,1291.025a5.072,5.072,0,0,0,4.361-.658c2.678-1.9,3.091-6.244,3.107-6.428a.63.63,0,0,0-.472-.665l-9.738-2.387a.63.63,0,0,0-.718.341c-.074.155-1.8,3.852-.48,6.788a5.426,5.426,0,0,0,3.691,2.942C1702.554,1290.982,1702.637,1291,1702.718,1291.025Z" transform="translate(-1695.585 -1280.868)" fill="#4295a8"/>
            <path id="Trazado_42012" data-name="Trazado 42012" d="M1708.875,1283.98l-8.7-2.133s-3.367,7.076,2.817,8.856c4.745,1.366,6.279-3.17,6.737-5.358A1.159,1.159,0,0,0,1708.875,1283.98Z" transform="translate(-1695.936 -1281.218)" fill="#062625"/>
            <path id="Trazado_42013" data-name="Trazado 42013" d="M1702.429,1285.206l2.008.509-.543-2.881,2.846.7.192.1.711,3.773-2.007-.509.968,4.337a5.342,5.342,0,0,1-2.475-.177c-.085-.024-.161-.053-.242-.08l-.191-.1Z" transform="translate(-1697.069 -1281.572)" fill="#20514e"/>
            <path id="Trazado_42014" data-name="Trazado 42014" d="M1713.857,1284.6l.3-.419,2.306.575a.318.318,0,0,1,.229.4l-.189.685a.319.319,0,0,1-.384.221l-.819-.147-.126-1Z" transform="translate(-1701.159 -1282.055)" fill="#4295a8"/>
            <ellipse id="Elipse_766" data-name="Elipse 766" cx="0.209" cy="0.339" rx="0.209" ry="0.339" transform="translate(14.314 3.317) rotate(-75.767)" fill="#fccc05"/>
            <rect id="Rectángulo_5580" data-name="Rectángulo 5580" width="3.356" height="1.059" transform="translate(3.253 3.374) rotate(-165.767)" fill="#128d93"/>
          </g>
          <g id="Grupo_34899" data-name="Grupo 34899" transform="translate(2.435)">
            <path id="Trazado_42015" data-name="Trazado 42015" d="M1681.379,1285.559a5.069,5.069,0,0,1-3.52-2.657c-1.448-2.947.259-6.962.332-7.132a.629.629,0,0,1,.731-.359l9.7,2.542a.63.63,0,0,1,.469.641c-.009.172-.252,4.245-2.814,6.2a5.426,5.426,0,0,1-4.647.828C1681.544,1285.6,1681.46,1285.579,1681.379,1285.559Z" transform="translate(-1677.188 -1275.103)" fill="#4295a8"/>
            <path id="Trazado_42016" data-name="Trazado 42016" d="M1680.15,1276.77l8.662,2.271s-.412,7.825-6.7,6.443c-4.822-1.06-4.009-5.781-3.368-7.921A1.159,1.159,0,0,1,1680.15,1276.77Z" transform="translate(-1677.539 -1275.583)" fill="#062625"/>
            <path id="Trazado_42017" data-name="Trazado 42017" d="M1684.494,1280.638l-.549-2.916,3.153.827.6,3.78-2.007-.509.879,3.939a5.394,5.394,0,0,1-2.945.079c-.219-.049-.423-.107-.62-.169l-.521-5.54Z" transform="translate(-1679.052 -1275.937)" fill="#20514e"/>
            <path id="Trazado_42018" data-name="Trazado 42018" d="M1680.063,1276.057l-.065-.512-2.3-.593a.318.318,0,0,0-.39.24l-.16.692a.318.318,0,0,0,.232.377l.79.262.59-.823Z" transform="translate(-1677.138 -1274.942)" fill="#4295a8"/>
            <ellipse id="Elipse_767" data-name="Elipse 767" cx="0.209" cy="0.339" rx="0.209" ry="0.339" transform="translate(0.48 0.853) rotate(-75.767)" fill="#fccc05"/>
            <rect id="Rectángulo_5581" data-name="Rectángulo 5581" width="3.356" height="1.059" transform="translate(11.094 5.316) rotate(14.233)" fill="#4295a8"/>
          </g>
          <path id="Trazado_42019" data-name="Trazado 42019" d="M1676.625,1278.243l-3.278-.167.086,1.06,2.816.094Z" transform="translate(-1673.347 -1276.063)" fill="#4295a8"/>
        </g>
        <path id="Trazado_42020" data-name="Trazado 42020" d="M1693.019,1323.673l1.39-3.519s12.9,5.245,21.3-.275c0,0,6.3,3.215,7.821,9.3,0,0-5.252,11.692-28.655,8.244C1694.874,1337.426,1692.448,1328.791,1693.019,1323.673Z" transform="translate(-1640.291 -1269.59)" fill="#f80a73"/>
        <path id="Trazado_42021" data-name="Trazado 42021" d="M1734.005,1325.529a24.526,24.526,0,0,1,1.438,2.944c.453,1.259-.421,2.21-2.052,3s-1.221,1.921-2.73,2.053-9.189-8.811-9.382-14.339c0,0-.073-.984.84-1.062s1.478-.744,2.124-.006c0,0,.708-1.686,2.227-1.028A26.56,26.56,0,0,1,1734.005,1325.529Z" transform="translate(-1650.435 -1268.538)" fill="#e00b71"/>
        <path id="Trazado_42022" data-name="Trazado 42022" d="M1734.047,1331.666a25.517,25.517,0,0,1-7.44-9.8A74.32,74.32,0,0,0,1734.047,1331.666Z" transform="translate(-1652.342 -1270.3)" fill="#bc0f65"/>
        <path id="Trazado_42023" data-name="Trazado 42023" d="M1731.213,1333.565a23.653,23.653,0,0,1-4.963-7.011S1729.308,1331.01,1731.213,1333.565Z" transform="translate(-1652.214 -1271.979)" fill="#bc0f65"/>
        <ellipse id="Elipse_768" data-name="Elipse 768" cx="1.071" cy="6.807" rx="1.071" ry="6.807" transform="translate(74.769 50.137) rotate(-37.467)" fill="#910c55"/>
        <path id="Trazado_42024" data-name="Trazado 42024" d="M1741.851,1287.826c.392.886.809,1.916,1.254,3.109,4.8,12.88-4,23.67-5.836,25.733a30.861,30.861,0,0,0-2.838-4.312,28.8,28.8,0,0,0-3.689-4.093c4.32-3.862,7.43-10.078,5.746-20.072Z" transform="translate(-1653.822 -1258.12)" fill="#f4b08e"/>
        <path id="Trazado_42025" data-name="Trazado 42025" d="M1737.514,1282.243s3.026-1.216,8.446.376a14.905,14.905,0,0,1-.769,4.233c-.477,1.055-2.57,1.065-3.263.907,0,0-2.954.764-3.684-.346C1737.715,1286.607,1737.61,1283.865,1737.514,1282.243Z" transform="translate(-1656.245 -1255.963)" fill="#f4b08e"/>
        <path id="Trazado_42026" data-name="Trazado 42026" d="M1740.154,1278.785s0-7.512-2.052-7.51c-1.774,0-.635,8.737-.635,8.737Z" transform="translate(-1656.1 -1252.197)" fill="#f4b08e"/>
        <path id="Trazado_42027" data-name="Trazado 42027" d="M1741.239,1278.288a1.016,1.016,0,0,1,1.259-.886c1.131.2,1.435,3.136.372,4.11C1742.012,1282.3,1740.76,1281.526,1741.239,1278.288Z" transform="translate(-1657.54 -1254.38)" fill="#eaa07f"/>
        <path id="Trazado_42028" data-name="Trazado 42028" d="M1744.629,1278.647a1.017,1.017,0,0,1,1.336-.766c1.107.308.826,3.315-.008,4.128S1743.854,1281.827,1744.629,1278.647Z" transform="translate(-1658.705 -1254.541)" fill="#eaa07f"/>
        <path id="Trazado_42029" data-name="Trazado 42029" d="M1740.775,1288.861l-1.933-1.575.6-1.512,2.362-.893.4.264a1.608,1.608,0,0,1-1.316,2.175,1.556,1.556,0,0,1-.108,1.541" transform="translate(-1656.72 -1257.066)" fill="#eaa07f"/>
        <path id="Trazado_42030" data-name="Trazado 42030" d="M1740.159,1288.734a2.509,2.509,0,0,1-2.339-.781c-.763-1.015-.934-2.82-.348-3.444s3.316-1.074,3.956-.11-.467,1.985-1.9,2.217A4.046,4.046,0,0,1,1740.159,1288.734Z" transform="translate(-1656.105 -1256.693)" fill="#f4b08e"/>
        <path id="Trazado_42031" data-name="Trazado 42031" d="M1747.785,1279.967s.466-.552,1.324,0,.764,2.66-.31,2.99-1.266-.473-1.325-.954A8.119,8.119,0,0,1,1747.785,1279.967Z" transform="translate(-1659.806 -1255.219)" fill="#eaa07f"/>
        <path id="Trazado_42032" data-name="Trazado 42032" d="M1747.05,1286.4s-1.883.721-1.646,2.235A4.164,4.164,0,0,1,1747.05,1286.4Z" transform="translate(-1659.061 -1257.609)" fill="#eaa07f"/>
        <path id="Trazado_42033" data-name="Trazado 42033" d="M1730.194,1319.083q.541-.484,1.054-1.019c1.5,4.015,5.569,4.771,8.905,4.642a30.48,30.48,0,0,1-3.43,4.783c-.209.234-.6.715-.906,1.035a23.367,23.367,0,0,1-3.633-4.044,29.108,29.108,0,0,1-2.97-4.577Q1729.713,1319.512,1730.194,1319.083Z" transform="translate(-1653.275 -1268.941)" fill="#eaa07f"/>
        <path id="Trazado_42034" data-name="Trazado 42034" d="M1646.818,1304.018l1.068-3.629s-13.4-3.8-16.627-13.314c0,0-6.946-1.338-11.888,2.527,0,0-3.5,15.977,20.518,26.958C1639.888,1316.56,1645.243,1310.243,1646.818,1304.018Z" transform="translate(-1613.902 -1257.77)" fill="#f80a73"/>
        <path id="Trazado_42035" data-name="Trazado 42035" d="M1619.442,1286.461a24.537,24.537,0,0,0-2.944,1.438c-1.132.715-1.028,2-.226,3.627s-.218,2.265.89,3.3,12.665-1.3,16.216-5.538a.96.96,0,0,0-.01-1.355c-.672-.623-.708-1.5-1.671-1.311,0,0,.478-1.765-1.124-2.18A26.542,26.542,0,0,0,1619.442,1286.461Z" transform="translate(-1612.638 -1256.885)" fill="#e00b71"/>
        <path id="Trazado_42036" data-name="Trazado 42036" d="M1619.651,1293.022a25.507,25.507,0,0,0,11.9-3.156A74.258,74.258,0,0,1,1619.651,1293.022Z" transform="translate(-1614.067 -1258.85)" fill="#bc0f65"/>
        <path id="Trazado_42037" data-name="Trazado 42037" d="M1622.765,1296.263a23.646,23.646,0,0,0,8.224-2.477S1625.838,1295.419,1622.765,1296.263Z" transform="translate(-1615.181 -1260.253)" fill="#bc0f65"/>
        <ellipse id="Elipse_769" data-name="Elipse 769" cx="6.807" cy="1.071" rx="6.807" ry="1.071" transform="translate(4.245 30.939) rotate(-14.589)" fill="#910c55"/>
        <path id="Trazado_42038" data-name="Trazado 42038" d="M1634.3,1249.844c-.854.458-1.817,1.014-2.9,1.682-11.706,7.205-11.4,21.123-11.221,23.881a30.86,30.86,0,0,1,4.889-1.656,28.768,28.768,0,0,1,5.426-.959c-1.032-5.7.337-12.517,7.81-19.363Z" transform="translate(-1614.238 -1244.527)" fill="#f4b08e"/>
        <path id="Trazado_42039" data-name="Trazado 42039" d="M1649.828,1247.325s-1.677-2.561-6.929-4.64c0,0-2.6,3.418-2.971,4.966-.272,1.126,1.372,2.42,2.016,2.721,0,0,1.86,2.419,3.118,1.992C1645.973,1252.055,1648.753,1248.545,1649.828,1247.325Z" transform="translate(-1621.312 -1241.965)" fill="#f4b08e"/>
        <path id="Trazado_42040" data-name="Trazado 42040" d="M1650.855,1247.126s4.62-5.925,6.236-4.661c1.4,1.093-5.872,8.485-5.872,8.485Z" transform="translate(-1625.233 -1241.823)" fill="#f4b08e"/>
        <path id="Trazado_42041" data-name="Trazado 42041" d="M1652.479,1245.038a1.017,1.017,0,0,0-.448-1.473c-1.018-.534-3.06,1.591-2.822,3.013C1649.4,1247.727,1650.866,1247.886,1652.479,1245.038Z" transform="translate(-1624.638 -1242.25)" fill="#eaa07f"/>
        <path id="Trazado_42042" data-name="Trazado 42042" d="M1649.255,1243.2a1.016,1.016,0,0,0-.582-1.426c-1.063-.438-2.69,2.106-2.531,3.26S1647.911,1246.18,1649.255,1243.2Z" transform="translate(-1623.543 -1241.62)" fill="#eaa07f"/>
        <path id="Trazado_42043" data-name="Trazado 42043" d="M1646.655,1254.095l2.492-.053.46-1.56-1.314-2.156-.477-.037a1.609,1.609,0,0,0-.3,2.525,1.553,1.553,0,0,0-.863,1.281" transform="translate(-1623.73 -1244.686)" fill="#eaa07f"/>
        <path id="Trazado_42044" data-name="Trazado 42044" d="M1646.419,1254.154a2.508,2.508,0,0,0,2.325.821c1.227-.331,2.471-1.649,2.393-2.5s-1.955-2.886-3.052-2.518-.853,1.853.134,2.915A4.046,4.046,0,0,0,1646.419,1254.154Z" transform="translate(-1623.646 -1244.551)" fill="#f4b08e"/>
        <path id="Trazado_42045" data-name="Trazado 42045" d="M1646.288,1242.382s-.027-.722-1.044-.814-2.238,1.628-1.594,2.549,1.29.406,1.632.062A8.15,8.15,0,0,0,1646.288,1242.382Z" transform="translate(-1622.591 -1241.564)" fill="#eaa07f"/>
        <path id="Trazado_42046" data-name="Trazado 42046" d="M1644.658,1247.972s1.042,1.725-.075,2.774A4.158,4.158,0,0,0,1644.658,1247.972Z" transform="translate(-1622.989 -1243.857)" fill="#eaa07f"/>
        <path id="Trazado_42047" data-name="Trazado 42047" d="M1630.5,1283.761q-.129-.714-.206-1.451c-3.653,2.243-7.325.337-9.877-1.815a30.491,30.491,0,0,0-.236,5.881c.021.313.037.936.077,1.374a23.341,23.341,0,0,0,5.352-.956,29.061,29.061,0,0,0,5.156-1.784Q1630.615,1284.4,1630.5,1283.761Z" transform="translate(-1614.239 -1255.496)" fill="#eaa07f"/>
        <path id="Trazado_42048" data-name="Trazado 42048" d="M1653.283,1369.595s0,8.11-3.1,12.165l.977.55c.71-.528,3.3-4.1,3.662-12.632Z" transform="translate(-1624.991 -1287.381)" fill="#bc0f65"/>
        <g id="Grupo_34901" data-name="Grupo 34901" transform="translate(37.996 152.885)">
          <path id="Trazado_42049" data-name="Trazado 42049" d="M1695.483,1501.948s1.223-.164,1.454.843-.611,2.366-6.307,2.439c-5.924.076-8.08-.693-15.231-1.4,0,0-4.03-.3-4.331-.93a1.555,1.555,0,0,1,.148-1.656,4.016,4.016,0,0,1,1.1-.291Z" transform="translate(-1670.405 -1487.274)" fill="#006070"/>
          <path id="Trazado_42050" data-name="Trazado 42050" d="M1671.184,1494.7s7.739,1.094,9.544,1.537,11.207,1.32,14.3-.089c0,0,1.419-.566.97-1.545s-7.161-3.367-10.782-5.348-4.439-1.978-4.579-2.795a44.584,44.584,0,0,1,.39-5.206s-5.137,1.837-9.889.083C1671.138,1481.337,1668.884,1490.145,1671.184,1494.7Z" transform="translate(-1670.134 -1480.224)" fill="#2bbee0"/>
          <path id="Trazado_42051" data-name="Trazado 42051" d="M1671.328,1493.139s0-1.231-.62-1.18-.559.894-.559.894S1670.79,1493.375,1671.328,1493.139Z" transform="translate(-1670.133 -1484.055)" fill="#0e7992"/>
          <path id="Trazado_42052" data-name="Trazado 42052" d="M1689.551,1493.72s-11.814-2.946-9.608-11.456a15.618,15.618,0,0,0,3.505-.473s-1.277,3.354.224,5.47,7.5,4.531,7.5,4.531Z" transform="translate(-1673.54 -1480.417)" fill="#006070"/>
          <path id="Trazado_42053" data-name="Trazado 42053" d="M1690.53,1492.17a33.459,33.459,0,0,1-6.275-3.338c-1.888-1.54-2.944-2.98-3.07-5.026s.491-3.912,2.124-4.13,1.662,1,1.662,1-.219,4.228.235,5.021c.743,1.3,4,3.14,7.032,4.48Z" transform="translate(-1674.077 -1479.651)" fill="#4295a8"/>
          <path id="Trazado_42054" data-name="Trazado 42054" d="M1672.2,1493.86l-.471-1.023s-.128-1.07.512-1.01.655.873.655.873a.782.782,0,0,1,1.1-.353.771.771,0,0,1,.354,1.087s.729-.47,1.187.117-.019.923-.019.923a.869.869,0,0,1,1.148.492c.359.821-.192.982-.192.982a.774.774,0,0,1,.962.385.885.885,0,0,1-.272,1.1s.8-.313.994.364-.595.974-.595.974.761.1.8.552l0,.157-1.119-.179-3.281-2.714Z" transform="translate(-1670.693 -1484.007)" fill="#0e7992"/>
          <path id="Trazado_42055" data-name="Trazado 42055" d="M1696.441,1495.892c.494.225,1,.45,1.5.673-1.453.374-3.17,1.727-3.245,5.513-.319-.017-.817-.047-1.124-.068C1693.448,1500.586,1693.469,1497.106,1696.441,1495.892Z" transform="translate(-1678.503 -1485.463)" fill="#0e7992"/>
          <path id="Trazado_42056" data-name="Trazado 42056" d="M1677.244,1499.864s-1.5-5.883-5.514-6.463l.019,5.645Z" transform="translate(-1670.699 -1484.571)" fill="#5ed4f0"/>
          <path id="Trazado_42057" data-name="Trazado 42057" d="M1694.516,1494.817a4.619,4.619,0,0,0-2.505,2.182.733.733,0,0,1-.7-.255,3.731,3.731,0,0,1,2.317-2.362A.868.868,0,0,1,1694.516,1494.817Z" transform="translate(-1677.706 -1484.919)" fill="#0e7992"/>
          <path id="Trazado_42058" data-name="Trazado 42058" d="M1691.318,1493.14a3.187,3.187,0,0,0-1.458.889,4.9,4.9,0,0,0-.928,1.546.9.9,0,0,1-.7-.337,3.769,3.769,0,0,1,2.335-2.519A.864.864,0,0,1,1691.318,1493.14Z" transform="translate(-1676.604 -1484.327)" fill="#0e7992"/>
          <path id="Trazado_42059" data-name="Trazado 42059" d="M1688.364,1491.438s-2.15.569-2.756,2.153a.923.923,0,0,1-.682-.39,4.213,4.213,0,0,1,2.831-2.206A.668.668,0,0,1,1688.364,1491.438Z" transform="translate(-1675.422 -1483.711)" fill="#0e7992"/>
          <path id="Trazado_42060" data-name="Trazado 42060" d="M1686.023,1489.641s-2.468.372-3.349,1.656a.893.893,0,0,1-.469-.529,4.125,4.125,0,0,1,3.372-1.7A.685.685,0,0,1,1686.023,1489.641Z" transform="translate(-1674.448 -1483.022)" fill="#0e7992"/>
          <path id="Trazado_42061" data-name="Trazado 42061" d="M1684.9,1487.31a5.983,5.983,0,0,0-3.754,1.27.635.635,0,0,1-.259-.688s1.079-1.48,3.956-1.266A.615.615,0,0,1,1684.9,1487.31Z" transform="translate(-1673.973 -1482.139)" fill="#0e7992"/>
          <path id="Trazado_42062" data-name="Trazado 42062" d="M1684.594,1484.046a12.455,12.455,0,0,0-4.289.493,1.02,1.02,0,0,0,.053.83,18.071,18.071,0,0,1,4.23-.5S1684.918,1484.607,1684.594,1484.046Z" transform="translate(-1673.744 -1481.218)" fill="#0e7992"/>
          <path id="Trazado_42063" data-name="Trazado 42063" d="M1671.825,1494.05c-.041-.057-.669-.677-.669-.677a4.723,4.723,0,0,0-1.015-.031,12.071,12.071,0,0,0,1.034,5.677Z" transform="translate(-1670.125 -1484.543)" fill="#5ed4f0"/>
        </g>
        <path id="Trazado_42064" data-name="Trazado 42064" d="M1685.781,1463.664l-1.316,4.154a1.826,1.826,0,0,1-1.522.876,30.476,30.476,0,0,1-10.4-2.376,1.956,1.956,0,0,1-1.061-1.784c.1-1.2.7-4.442.7-4.442A35.341,35.341,0,0,0,1685.781,1463.664Z" transform="translate(-1632.614 -1319.767)" fill="#bc0f65"/>
        <path id="Trazado_42065" data-name="Trazado 42065" d="M1658.228,1314.461a25.447,25.447,0,0,0-4.859,8.665S1656.858,1316.877,1658.228,1314.461Z" transform="translate(-1626.133 -1267.651)" fill="#bc0f65"/>
        <path id="Trazado_42066" data-name="Trazado 42066" d="M1697.724,1325.7a23.228,23.228,0,0,0-.573,9.472S1697.55,1328.353,1697.724,1325.7Z" transform="translate(-1641.706 -1271.675)" fill="#bc0f65"/>
        <g id="Grupo_34906" data-name="Grupo 34906" transform="translate(50.455 57.472)">
          <g id="Grupo_34905" data-name="Grupo 34905">
            <g id="Grupo_34904" data-name="Grupo 34904">
              <g id="Grupo_34902" data-name="Grupo 34902" transform="translate(0.732)">
                <path id="Trazado_42067" data-name="Trazado 42067" d="M1691.889,1331.732a.462.462,0,0,1,0,.653l-.033.033s.371.288.187.566l.224-.223a.994.994,0,0,0-1.406-1.406l-.034.033a.453.453,0,0,0-.026.66l.06.06.357-.357.019-.019a.462.462,0,0,1,.652,0" transform="translate(-1690.667 -1331.065)" fill="#fccc05"/>
              </g>
              <g id="Grupo_34903" data-name="Grupo 34903" transform="translate(0 0.701)">
                <path id="Trazado_42068" data-name="Trazado 42068" d="M1690.2,1333.409a.462.462,0,0,1,0-.652l.034-.034s-.372-.288-.187-.566l-.223.224a.994.994,0,0,0,1.406,1.406l.033-.034a.453.453,0,0,0,.026-.659l-.059-.06-.357.357-.019.019a.462.462,0,0,1-.653,0" transform="translate(-1689.528 -1332.157)" fill="#fccc05"/>
              </g>
            </g>
            <path id="Trazado_42069" data-name="Trazado 42069" d="M1691.5,1332.484l-.552.552a.152.152,0,0,0,.214.215l.552-.552a.152.152,0,0,0-.215-.214Z" transform="translate(-1690.02 -1331.557)" fill="#fccc05"/>
          </g>
        </g>
        <path id="Trazado_42070" data-name="Trazado 42070" d="M1669.959,1385.752s14.209,17.873,14.752,28.389a53.577,53.577,0,0,1-2.924,19.6s4.006-12.659,1.47-23.992C1681.554,1402.136,1669.959,1385.752,1669.959,1385.752Z" transform="translate(-1632.07 -1293.163)" fill="#bc0f65"/>
        <path id="Trazado_42071" data-name="Trazado 42071" d="M1690.313,1382.224s16.12,18.218,16.764,25c1,10.492-1.309,25-1.309,25s3.218-18.62,1.525-26.34S1690.313,1382.224,1690.313,1382.224Z" transform="translate(-1639.354 -1291.901)" fill="#bc0f65"/>
        <path id="Trazado_42072" data-name="Trazado 42072" d="M1640.124,1257.2a9.811,9.811,0,0,0,2.061,1.9.474.474,0,0,1-.069.5c-.133.2-.57.695-.832.692a7.6,7.6,0,0,1-2.136-1.673Z" transform="translate(-1621.044 -1247.16)" fill="#4295a8"/>
        <path id="Trazado_42073" data-name="Trazado 42073" d="M1636.885,1252.421a12.9,12.9,0,0,0,2.217,3.4s.792.9.522,1.39a.776.776,0,0,1-1.214.2,10.8,10.8,0,0,1-2.915-4.011s-.072-.22.2-.516S1636.642,1252.122,1636.885,1252.421Z" transform="translate(-1619.733 -1245.415)" fill="#2bbee0"/>
        <path id="Trazado_42074" data-name="Trazado 42074" d="M1639.188,1258.812l1.072-.961a.708.708,0,0,0,.054-1l-.71-.792a.709.709,0,0,0-1-.055l-1.072.961a.708.708,0,0,0-.055,1l.71.792A.709.709,0,0,0,1639.188,1258.812Zm-.51-.494-.713-.8a.05.05,0,0,1,.007-.068l1.072-.961a.048.048,0,0,1,.037-.013.05.05,0,0,1,.035.017l.71.793a.051.051,0,0,1,0,.071l-1.072.961A.051.051,0,0,1,1638.677,1258.318Z" transform="translate(-1620.381 -1246.667)" fill="#fccc05"/>
        <g id="Grupo_34907" data-name="Grupo 34907" transform="translate(50.517 34.961)">
          <path id="Trazado_42075" data-name="Trazado 42075" d="M1694.007,1297.06a.376.376,0,0,1,.249.518,2.432,2.432,0,0,1-4.624-1.214.38.38,0,0,1,.475-.343Z" transform="translate(-1689.625 -1296.009)" fill="#062625"/>
          <path id="Trazado_42076" data-name="Trazado 42076" d="M1693.44,1299.47a2.4,2.4,0,0,0-3.275-.87,2.428,2.428,0,0,0,3.275.87Z" transform="translate(-1689.818 -1296.82)" fill="#ed1c24"/>
          <path id="Trazado_42077" data-name="Trazado 42077" d="M1692.068,1298.652a2.375,2.375,0,0,1,1.011,1.079,2.429,2.429,0,0,0,.693-.261,2.314,2.314,0,0,0-1.456-1.111,2.426,2.426,0,0,0-1.221-.012A2.443,2.443,0,0,1,1692.068,1298.652Z" transform="translate(-1690.151 -1296.82)" fill="#fc3a49"/>
        </g>
      </g>
      <path id="Trazado_42078" data-name="Trazado 42078" d="M1684.553,1213.906a2.182,2.182,0,0,0-.7-1.683,7.314,7.314,0,0,0-1.752-.854q-1.026-.43-2.07-.813-.993-.365-2-.686a7.825,7.825,0,0,0-1.9-.474,1.549,1.549,0,0,0-1.454.681,4.91,4.91,0,0,0-.443,1.765c-.227,1.335-.439,2.673-.665,4.008-.345,2.052-.717,4.106-1.216,6.128a1.679,1.679,0,0,0-1.226-.9.6.6,0,0,0-.132,0,.467.467,0,0,0-.1-.04,2.809,2.809,0,0,0-3.108,1.118,2.74,2.74,0,0,0,.024,3.073,2.684,2.684,0,0,0,4.49-.057.428.428,0,0,0,.1-.168,2.731,2.731,0,0,0,.305-.909c.006-.043.01-.088.015-.132a60.4,60.4,0,0,0,1.406-6.273c.227-1.267.433-2.537.642-3.807.051-.312.1-.624.156-.936q4.431,1.513,8.81,3.172a25.927,25.927,0,0,1-.247,3.323,30.29,30.29,0,0,1-1.018,4.477q-.253.843-.527,1.679a1.988,1.988,0,0,0-1.53-1.725.6.6,0,0,0-.132,0,.457.457,0,0,0-.1-.041,2.808,2.808,0,0,0-3.108,1.118,2.74,2.74,0,0,0,.024,3.073,2.685,2.685,0,0,0,4.476-.034l0,0a6.608,6.608,0,0,0,1.53-3.19,33.941,33.941,0,0,0,1.085-4.29,27.7,27.7,0,0,0,.411-4.352C1684.626,1215.4,1684.607,1214.651,1684.553,1213.906Zm-13.861,11.515a1.791,1.791,0,0,1-1.99-.476,1.884,1.884,0,0,1-.339-2.034,1.928,1.928,0,0,1,2.31-1.041.436.436,0,0,0,.141.017.315.315,0,0,0,.088.028c.787.118,1.008,1.093.984,1.763,0,.034-.007.067-.01.1q-.127.433-.265.864A1.764,1.764,0,0,1,1670.692,1225.421Zm9.289,2.792a1.791,1.791,0,0,1-1.99-.476,1.884,1.884,0,0,1-.339-2.034,1.928,1.928,0,0,1,2.31-1.041.442.442,0,0,0,.141.017.311.311,0,0,0,.088.028c.787.118,1.008,1.093.984,1.763A1.866,1.866,0,0,1,1679.981,1228.213Zm-4.9-16.14c.05-.294.1-.588.152-.882a1.505,1.505,0,0,1,.245-.734c.3-.347.914-.173,1.29-.067.633.178,1.259.386,1.881.6q1.922.653,3.786,1.461c.509.222,1.06.4,1.2,1a8.3,8.3,0,0,1,.117,1.74q-4.307-1.627-8.666-3.116Z" transform="translate(-82.534 -4.683)" fill="#4295a8" opacity="0.34" style="mix-blend-mode: multiply;isolation: isolate"/>
      <path id="Trazado_42079" data-name="Trazado 42079" d="M1461.288,1330.471a4.5,4.5,0,0,1-2.587,1.354q-.518-3.494-.97-7a2.781,2.781,0,0,1,.975.126,1.024,1.024,0,0,0-.2.341.8.8,0,0,0-.03.395,1.123,1.123,0,0,0,.124.568.919.919,0,0,0,.378.379,1.069,1.069,0,0,0,1.06-.068l.01-.006.016-.01.01-.008a.826.826,0,0,0,.176-.146h0a.985.985,0,0,0,.2-.259,1,1,0,0,0,.1-.263,1.064,1.064,0,0,0,0-.38.638.638,0,0,0-.018-.069.529.529,0,0,0-.121-.346,3.267,3.267,0,0,0-2.786-1.121c-.008-.056-.016-.112-.022-.169q-.209-1.656-.4-3.314a.449.449,0,0,0-.435-.435.437.437,0,0,0-.435.435q.213,1.817.445,3.631a4.455,4.455,0,0,0-2.763,2.346,4.516,4.516,0,0,0,.249,4.25,5.9,5.9,0,0,0,1.471,1.678,3.046,3.046,0,0,0,2.134.442l.115-.012q.214,1.418.436,2.834a.437.437,0,0,0,.534.3.446.446,0,0,0,.3-.535q-.216-1.364-.421-2.73a5.3,5.3,0,0,0,3.074-1.6C1462.268,1330.665,1461.656,1330.048,1461.288,1330.471Zm-3.945,1.521a6.772,6.772,0,0,1-.341-6.076q.4,3.027.846,6.047A4.3,4.3,0,0,1,1457.344,1331.992Z" transform="translate(-6.043 -44.281)" fill="#4295a8" opacity="0.34" style="mix-blend-mode: multiply;isolation: isolate"/>
      <path id="Trazado_42080" data-name="Trazado 42080" d="M1525.414,1241.443a32.426,32.426,0,0,1-1.188-6.076,29.723,29.723,0,0,1-.093-3.433c0-.019.008-.038.012-.058.119-.527-.661-.76-.823-.279a.435.435,0,0,0-.057.2v.04c-1.066,4.862-1.04,9.861-1.531,14.794q-.1,1.006-.236,2.006a2.254,2.254,0,0,0-.451-.489,1.941,1.941,0,0,0-1.323-.421l-.011,0c-1.263-.345-2.391.993-2.766,2.05a2.555,2.555,0,0,0,.916,2.977,2.486,2.486,0,0,0,2.943-.007,3.023,3.023,0,0,0,1.017-1.431.37.37,0,0,0,.155-.249,75.952,75.952,0,0,0,1-9.425,15.02,15.02,0,0,0,.787,1.86c.587,1.162,1.393,2.336,1.282,3.7-.041.5.719.571.854.116C1526.483,1245.359,1525.953,1243.343,1525.414,1241.443Zm-.243,2.875.029-.006c0,.029.007.058.011.087Zm-4.044,6.062-.01-.009.01-.011A.191.191,0,0,1,1521.127,1250.38Z" transform="translate(-28.659 -12.536)" fill="#4295a8" opacity="0.34" style="mix-blend-mode: multiply;isolation: isolate"/>
      <g id="Grupo_34909" data-name="Grupo 34909" transform="translate(1646.635 1224.546)" opacity="0.34" style="mix-blend-mode: multiply;isolation: isolate">
        <path id="Trazado_42081" data-name="Trazado 42081" d="M1774.53,1260.375a3.988,3.988,0,0,0-4.067-2.185,3.908,3.908,0,0,0-2.117,1.17c-.234-1.442-.463-2.885-.665-4.332a28.046,28.046,0,0,0,1.718-4.837c.744-2.948.9-6.658-1.275-9.07a5.989,5.989,0,0,0-.868-.775.437.437,0,0,0-.639.26,46.956,46.956,0,0,0,.174,14.259q-.39.84-.825,1.661a17,17,0,0,0-2.287,5.819,6.27,6.27,0,0,0,1.259,4.749,4.7,4.7,0,0,0,3.869,1.537c.014.139.03.277.042.415.15,1.585.243,3.177.248,4.77a10.034,10.034,0,0,1-.073,1.459,1.9,1.9,0,0,0-2.006-.7,1.81,1.81,0,0,0-.366,3.009,1.636,1.636,0,0,0,1.8.209,2.555,2.555,0,0,0,1.171-1.463,5.944,5.944,0,0,0,.34-2.085c.007-.984-.02-1.967-.075-2.949-.052-.922-.129-1.841-.224-2.759.195-.033.387-.073.577-.123a6.926,6.926,0,0,0,4.228-3.138A4.977,4.977,0,0,0,1774.53,1260.375Zm-7.25,15.027a1.18,1.18,0,0,0-.288.255A.561.561,0,0,1,1767.28,1275.4Zm1.925-12.3v0l.015-.01,0,0Zm-1.957-20.842c.028-.234.061-.469.094-.7,2.2,2.192,1.87,6.014,1.123,8.772a27.2,27.2,0,0,1-1.008,3A46.088,46.088,0,0,1,1767.247,1242.257Zm-2.027,23.751a5.988,5.988,0,0,1-.513-4.483,23.81,23.81,0,0,1,2.3-5.12c.156,1.047.322,2.094.491,3.136q.068.423.137.847a3.418,3.418,0,0,0-.323,1.187c0,.014,0,.028,0,.041a1.668,1.668,0,0,0-.342,1.5,1.7,1.7,0,0,0,.44.779,1.416,1.416,0,0,0,.8.376l.043,0c.173,1.162.331,2.326.463,3.493A3.806,3.806,0,0,1,1765.22,1266.008Zm8.415-1.024a6.132,6.132,0,0,1-4,2.682l-.067.012q-.124-1.087-.271-2.17c-.06-.439-.123-.877-.188-1.316a1.615,1.615,0,0,0,.751-.523,1.818,1.818,0,0,0,.18-1.984.434.434,0,0,0-.376-.215c-.079,0-.158.005-.238.011a.452.452,0,0,0-.311-.356,1.523,1.523,0,0,0-.5-.082l-.081-.5a3.158,3.158,0,0,1,1.606-1.365,3,3,0,0,1,3.577,1.537A4.107,4.107,0,0,1,1773.635,1264.983Z" transform="translate(-1763.627 -1240.284)" fill="#4295a8"/>
      </g>
      <path id="Trazado_42082" data-name="Trazado 42082" d="M1503.754,1356.548a1.844,1.844,0,0,0-.592-1.423,6.183,6.183,0,0,0-1.482-.723q-.868-.363-1.751-.688-.839-.308-1.691-.58a6.619,6.619,0,0,0-1.6-.4,1.31,1.31,0,0,0-1.23.576,4.143,4.143,0,0,0-.374,1.493c-.193,1.129-.372,2.26-.562,3.39-.292,1.735-.606,3.473-1.028,5.183a1.42,1.42,0,0,0-1.037-.762.492.492,0,0,0-.111,0,.4.4,0,0,0-.082-.034,2.375,2.375,0,0,0-2.628.946,2.317,2.317,0,0,0,.021,2.6,2.27,2.27,0,0,0,3.8-.047.378.378,0,0,0,.084-.142,2.314,2.314,0,0,0,.257-.769c.005-.036.009-.074.013-.111a51.113,51.113,0,0,0,1.188-5.305c.191-1.072.367-2.147.543-3.22q.066-.4.132-.792,3.747,1.28,7.451,2.683a21.905,21.905,0,0,1-.208,2.811,25.662,25.662,0,0,1-.861,3.786c-.142.475-.292.948-.446,1.42a1.682,1.682,0,0,0-1.294-1.459.5.5,0,0,0-.111,0,.4.4,0,0,0-.082-.035,2.375,2.375,0,0,0-2.628.946,2.316,2.316,0,0,0,.021,2.6,2.271,2.271,0,0,0,3.786-.029l0,0a5.581,5.581,0,0,0,1.294-2.7,28.658,28.658,0,0,0,.918-3.629,23.409,23.409,0,0,0,.347-3.68C1503.816,1357.812,1503.8,1357.178,1503.754,1356.548Zm-11.723,9.739a1.516,1.516,0,0,1-1.683-.4,1.593,1.593,0,0,1-.287-1.72,1.631,1.631,0,0,1,1.954-.88.38.38,0,0,0,.119.014.252.252,0,0,0,.074.024c.666.1.852.924.833,1.491,0,.029-.006.057-.009.085q-.108.367-.224.731A1.492,1.492,0,0,1,1492.032,1366.287Zm7.857,2.36a1.515,1.515,0,0,1-1.683-.4,1.593,1.593,0,0,1-.287-1.72,1.632,1.632,0,0,1,1.954-.881.383.383,0,0,0,.119.015.26.26,0,0,0,.074.023c.666.1.852.925.832,1.492A1.578,1.578,0,0,1,1499.888,1368.648Zm-4.148-13.65c.042-.248.084-.5.129-.745a1.275,1.275,0,0,1,.207-.621c.258-.294.772-.146,1.09-.057.536.15,1.065.325,1.591.5,1.083.367,2.153.778,3.2,1.236.431.188.9.34,1.011.846a6.978,6.978,0,0,1,.1,1.472q-3.643-1.377-7.329-2.635Z" transform="translate(-18.784 -55.978)" fill="#4295a8" opacity="0.34" style="mix-blend-mode: multiply;isolation: isolate"/>
      <path id="Trazado_42083" data-name="Trazado 42083" d="M1744.827,1361.6a31.979,31.979,0,0,1-.667-6.08,29.15,29.15,0,0,1,.193-3.388c.005-.019.01-.037.016-.055.161-.509-.587-.8-.787-.343a.428.428,0,0,0-.072.2l0,.039c-1.451,4.7-1.839,9.623-2.73,14.44q-.182.982-.4,1.955a2.2,2.2,0,0,0-.4-.518,1.917,1.917,0,0,0-1.268-.524l-.01-.005c-1.215-.444-2.437.78-2.894,1.79a2.524,2.524,0,0,0,.655,3.006,2.458,2.458,0,0,0,2.9.236,2.994,2.994,0,0,0,1.12-1.325.368.368,0,0,0,.174-.233,75.075,75.075,0,0,0,1.764-9.2,14.831,14.831,0,0,0,.622,1.9c.482,1.192,1.178,2.415.956,3.746-.082.49.66.622.831.184C1745.557,1365.545,1745.2,1363.517,1744.827,1361.6Zm-.477,2.81.029,0c0,.028,0,.057,0,.085Zm-4.483,5.635-.009-.01.011-.01Z" transform="translate(-106.95 -55.54)" fill="#4295a8" opacity="0.34" style="mix-blend-mode: multiply;isolation: isolate"/>
    </g>
  </g>
</svg>
