<?xml version="1.0" encoding="utf-8"?>
<!-- Generator: Adobe Illustrator 23.0.4, SVG Export Plug-In . SVG Version: 6.00 Build 0)  -->
<svg version="1.1" id="Capa_1" xmlns="http://www.w3.org/2000/svg" xmlns:xlink="http://www.w3.org/1999/xlink" x="0px" y="0px"
	 viewBox="0 0 700 320" style="enable-background:new 0 0 700 320;" xml:space="preserve">
<style type="text/css">
	.st0{clip-path:url(#SVGID_2_);}
	.st1{fill:#FFFFFF;}
	.st2{fill:none;}
	.st3{fill:#707070;}
	.st4{clip-path:url(#SVGID_4_);}
	.st5{fill:#A176FF;}
	.st6{opacity:0.13;fill:#1B2B3F;enable-background:new    ;}
	.st7{opacity:9.000000e-02;fill:#FFFFFF;enable-background:new    ;}
	.st8{fill:#C19063;}
	.st9{fill:#AD754E;}
	.st10{fill:#191817;}
	.st11{fill:#261B17;}
	.st12{fill:#3A3735;}
	.st13{fill:#6D31FF;}
	.st14{fill:#B28056;}
	.st15{fill:#141412;}
	.st16{fill:#4C4C4C;}
	.st17{fill:#383736;}
	.st18{fill:#545454;}
	.st19{fill:#E28F56;}
	.st20{fill:#C97236;}
	.st21{fill:#231F20;}
	.st22{fill:#F29FA0;}
	.st23{fill:#E69F73;}
	.st24{fill:#3A3A3A;}
	.st25{opacity:5.000000e-02;fill:#FFFFFF;enable-background:new    ;}
	.st26{fill:#0D1642;}
	.st27{fill:#212121;}
	.st28{opacity:0.58;fill:#515151;enable-background:new    ;}
	.st29{fill:#633611;}
	.st30{fill:#FCFCEB;}
	.st31{fill:#E8E8DD;}
	.st32{fill:#CC8758;}
	.st33{fill:#874C17;}
	.st34{fill:#E8955D;}
	.st35{fill:#F9B180;}
	.st36{fill:#D38550;}
	.st37{fill:#EAA36A;}
</style>
<g>
	<g>
		<defs>
			<rect id="SVGID_1_" width="700" height="320"/>
		</defs>
		<clipPath id="SVGID_2_">
			<use xlink:href="#SVGID_1_"  style="overflow:visible;"/>
		</clipPath>
		<g id="Principal_problema_2" class="st0">
			<rect class="st1" width="700" height="320"/>
			<g id="Rectángulo_3758">
				<rect class="st2" width="700" height="320"/>
				<path class="st3" d="M700,320H0V0h700V320z M1,319h698V1H1V319z"/>
			</g>
			<g id="Grupo_34378" transform="translate(0.05 0.465)">
				<g>
					<g>
						<defs>
							<rect id="SVGID_3_" x="-4.7" y="-0.5" width="704.6" height="328.7"/>
						</defs>
						<clipPath id="SVGID_4_">
							<use xlink:href="#SVGID_3_"  style="overflow:visible;"/>
						</clipPath>
						<g id="Grupo_3556" transform="translate(0 0)" class="st4">
							<g id="Grupo_3555" transform="translate(-65.146 -6.081)">
								<rect id="Rectángulo_2011" x="58.2" y="5.6" class="st5" width="706.6" height="321.4"/>
								<path id="Trazado_7115" class="st6" d="M776.2,369.8v-2.8l-0.2-0.1l-0.1-0.7h0.5c-0.1-1.2-0.2-2.5-0.2-3.8l0.1-0.4h-0.1
									c-1-20.2,1.6-48.4,1.5-70.3c0-16.3,0.2-30-0.2-39.3l0.1-1.4c0.1,0,0.2-0.1,0.4-0.1c0,0,1.6-46.6,1.7-46.3l2,8.7
									c0.6,0,1.2-0.2,1.7-0.5c3.7,8.6,10.8,25.9,12.2,34.9c-0.1,0.1-0.3,0.2-0.4,0.3c-0.2,0.1-0.4,0.2-0.4,0.3l-0.8,3.5
									c0,0.3,0.1,0.5,0.4,0.5l0,0l1.2,0.2l0.9,4.9c0.2,0.7,1,1.5,1.7,1.3l5.9-0.5c0.7-0.2,1.1-0.9,0.9-1.6l0,0l-3.6-9.5
									c-0.2-0.2-0.4-0.3-0.5-0.4c-1.5-3.1-5.2-12.1-13.2-36.5c1.3-1,2.4-1.8,2.4-1.8c-1.1-8.8-8.1-15.8-8.1-15.8l-12.3-4.1
									l-2.5-4.9l-3.2,0.2l1.5-7.8l6-4.6c2-1.4,3.2-3.8,3.1-6.2l0.1-6.8v-1.5c1,0,1.7-0.8,1.7-1.7c0-0.8-0.5-1.4-1.3-1.7l1.5-14.6
									l0.2-1.2c2.3-8.5-2-11.1-2-11.1c-9.7-5.4-21.4-6-31.6-1.5c-10.2-4.4-21.8-3.7-31.5,1.7c-1.4,1.1-2.4,2.6-2.7,4.4
									c-2.4-2-5.9-2.3-8.7-0.6c-0.3-1.5-1.2-2.8-2.4-3.7c-7.9-4.4-17.1-5.7-25.9-3.4c-2.3-0.3-4.7-0.1-7,0.6
									c-2,0.5-3.9,1.4-5.6,2.6c-1.7-1.5-4-2.3-6.3-2.3c-1.3,0-2.5,0.3-3.7,0.7c-0.3-0.1-0.7-0.3-1.1-0.4
									c-2.2-3.4-6.8-4.4-10.3-2.1c-0.7,0.5-1.4,1.1-1.9,1.8c-2.3,0.6-4.5,1.8-6.2,3.4c-4.2,4-4,9.9-3.9,10.5c0,0.5,0,0.9,0,1.3
									c-1.1,1.8-1.6,3.9-1.6,6c-0.1,2.8,1,5.5,2.9,7.7l-0.2,3.2v0.1c0,0.3,0,0.5,0,0.8l-0.8,10.7c0,0-0.5,2.2,1.8,5
									c-0.1,0.7-0.3,4.5,5.6,8.3c0.5,0.4,1,0.7,1.5,1l0.1,0.2h-0.1l-4,3.2l0.1,0.2l-1.9,0.8l-8.9,2.8l-1.7,0.8
									c-1.1,0.7-2,1.6-2.7,2.8c-0.7-1.1-1.6-2.1-2.7-2.7l-1.7-0.8l-10.6-3.5h-0.1l0,0h-0.3l-4.2-3.7l0.5-4.9c0,0,0.1,0,0.1-0.1
									l7-3.6c0,0,4.5-3,4.1-10.6l-0.1-8c2.1,0.4,4.1-1,4.4-3.1c0.3-1.9-0.7-3.7-2.5-4.3c0.4-1.7,0.5-3.5,0.5-5.2
									c-0.1-2.4-1.6-9.3-4.1-12.8c-2.1-2.7-5.1-4.6-8.6-5.3c-3.2-0.8-6.5-0.8-9.7,0.1c-2.6,0.6-4.9,1.8-6.8,3.6
									c-1.1,1-1.9,2.2-2.6,3.6c-3.5-0.3-7,0-10.5,0.7c0,0-4.6,1.1-6.6,3.3c-1.1-0.9-2.3-1.6-3.7-2.1c-0.3-4.7-6.7-8.6-14.7-8.6
									c-0.4,0-0.8,0-1.2,0s-0.8-0.1-1.2-0.1c-3.3,0-6.5,1.2-9,3.4c-1.7,1.2-2.8,3-3.1,5c-0.3-0.1-0.7-0.2-1.1-0.2
									c-11.1,3-10.8,14.6-10.8,14.6c-1.4,1.2-2,3-1.7,4.7c1.5,11.6,1.1,27.5,3.4,40.2c-0.3,0.4-0.6,0.8-0.9,1.2
									c-0.1-0.1-0.2-0.2-0.3-0.2l-1.6-0.7l-8.5-2.6l-2.1-4l-2.8-0.1l0.7-3.1l0,0l0.9-3.6l3.1-2.2c3.2-2.2,4.9-5.9,4.6-9.9
									l-0.5-5.9c1.1-0.2,1.8-1.2,1.6-2.3c-0.1-0.9-0.8-1.5-1.7-1.6c0.1-0.7,0.2-1.4,0.2-2c0,0,1.8-12.3-3.8-16.6
									c1.7-1.4,3.6-2.4,5.8-2.8c0,0-6.5-6.5-21.9-3.4c0,0-7.7,1.8-7.7,5.5c-6.4,0.1-15.4,0.6-17.9,2.3c-0.4-0.9-1.2-1.5-2.1-1.8
									c6.9-3.2,7.7-11.8,7.7-11.8c0-12.2-9.5-9.4-9.5-9.4c-2.7,1.2-2.3,3.5-2.3,3.5c0.9-2.6,3.5-1.2,3.5-1.2
									c1.4,0.8,0.6,2.6,0.6,2.6c-1.2,2.1-3.9,2.9-6,1.8c-8-3.3-12.7-3.6-12.7-3.6c-12.4-1.6-12.8,8.9-12.8,8.9
									c0,0.6,0.1,1.2,0.2,1.8c-2.4,2.4-6.5,8.3-4.7,19.1c-0.4,0.6-0.6,1.4-0.6,2.1c0,0.1,0,0.1,0,0.2c0,0.1,0,0.1,0,0.2
									c0,2.2,1.7,3.9,3.9,3.9c0.3,0,0.5,0,0.8-0.1l-0.1,7.7c-0.4,7.8,4.3,10.8,4.3,10.8l7.2,3.6l0.2,0.2l0.5,4.9l-4.3,3.8
									l-0.3,0.1l-10.9,3.7l-1.8,0.8c-1.1,0.9-2.4,3.1-3.6,5.3c-0.6-1-1.4-2-2.3-2.8l-1.5-0.7l-6.4-2l-0.1-0.5l-1.3-0.3l-1.8-3.3
									l-2.6-0.1l0.6-2.9l0,0l0.8-3.4l2.9-2c3-2.1,4.6-5.6,4.3-9.3l-0.4-5.1v-0.5c1-0.2,1.7-1.1,1.5-2.1c-0.1-0.8-0.8-1.4-1.6-1.5
									c0.1-0.3,0.2-0.6,0.3-1v-0.7c3.7-3.9,3.6-10.2-0.2-14c0-0.1,0-0.2,0-0.3c0.5-0.6,1-1.2,1.4-1.9c0,0,2.5-3.8-3.3-4.7
									c0,0-1.1,0-2.9,0c-1.5-1.4-3.4-2.1-5.4-2.1c-1.3,0-2.5,0.3-3.6,0.9c-1.6-3.1-5.3-4.3-8.5-2.7c-2.1,1.1-3.4,3.2-3.4,5.6
									c0,0.1,0,0.1,0,0.2c0,0-0.1,0-0.1,0.1c-0.4-0.1-0.7-0.1-1.1-0.1c-1.6,0-3.1,0.8-4,2.1c-0.5-2.4-2.1-4.4-4.3-5.3
									c2.4-2.6,3.9-5.9,4.3-9.5c0-12.2-9.5-9.4-9.5-9.4c-2.7,1.2-2.3,3.5-2.3,3.5c0.9-2.6,3.5-1.2,3.5-1.2
									c1.4,0.8,0.6,2.6,0.6,2.6c-1.2,2.1-3.9,2.9-6,1.8c-8-3.3-12.7-3.6-12.7-3.6c-12.4-1.6-12.8,8.9-12.8,8.9
									c0,0.6,0.1,1.2,0.2,1.8c-2.2,2.2-5.7,7.2-5,16.3c-0.9-2-2.6-3.5-4.6-4.1c0-0.2,0-0.4,0-0.6c0-3.9-3.4-7-7.8-7
									c-1.3,0-2.5,0.3-3.6,0.9c-1.6-3.1-5.3-4.3-8.5-2.7c-2.1,1.1-3.4,3.2-3.4,5.6c0,0.1,0,0.2,0,0.3c-2.5-0.7-5.1,0.8-5.8,3.3
									c-0.3,1.1-0.2,2.3,0.3,3.3c-1.6,1.2-2.7,3-2.9,5c-2.3,0.3-4.4,1.4-6,3.1c-1.1,0.9-1.8,2.2-2,3.5c-0.3-0.1-0.6-0.1-0.8-0.1
									c-1.3,0.4-2.5,0.9-3.6,1.7c-0.2-0.2-0.4-0.4-0.6-0.6c0-0.2,0-0.4,0-0.5c0-3.9-5.2-7-11.7-7c-0.1,0-0.2,0-0.3,0
									c-0.5-0.1-1.1-0.1-1.6-0.1c-2.9,0-5.6,1.1-7.7,3.2c-1.1,0.9-1.8,2.2-2,3.5c-0.3-0.1-0.6-0.1-0.8-0.1
									c-8.8,2.4-8.6,11.6-8.6,11.6c-1.1,0.9-1.6,2.4-1.4,3.8c1.2,9.4,0.8,22.1,2.8,32.2c-1.4,2-2.3,4.1-2.9,6.5
									c-0.2-0.9-0.4-1.8-0.5-2.7c0.2-0.5,0.4-1,0.6-1.5c0.1-0.4,0.2-0.6,0.2-0.6l-2.4-5.6c-0.8-2.5-2.9-4.5-5.4-5.2l-0.8-0.2
									c0-0.6,0-1.1,0-1.6c0.4-4.9,0.6-10,0.4-14.9c0.9-2.5,0.7-5.3-0.5-7.7v-10.1c0.4-4.5-0.2-9.1-1.9-13.3
									c-1.9-4.9-5.7-9.7-13.1-10.4c0,0-11.7,0.2-10.8,4.9c-0.1,0-0.2,0-0.2,0c-0.9,0.3-1.7,0.6-2.5,1.1c-1,0.6-1.9,1.2-2.8,2
									c-2.3-4.6-6.8-7.7-12.1-8.1c0,0-11.7,0.2-10.8,4.9c-0.1,0-0.2,0-0.2,0c-0.9,0.3-1.7,0.6-2.5,1.1c-0.7,0.4-1.3,0.8-1.9,1.2
									c-0.3-0.9-0.8-1.8-1.4-2.5c8.3-2.7,9.1-12.3,9.1-12.3c0-12.2-9.5-9.4-9.5-9.4c-2.7,1.2-2.3,3.5-2.3,3.5
									c0.9-2.6,3.5-1.2,3.5-1.2c1.4,0.8,0.6,2.6,0.6,2.6c-1.2,2.1-3.9,2.9-6,1.8c-8-3.3-12.7-3.6-12.7-3.6
									c-12.4-1.6-12.8,8.9-12.8,8.9c0,0.6,0.1,1.2,0.2,1.8c-0.9,1-1.8,2-2.5,3.2c-2.1,0.1-11.1,0.7-10.3,4.9c-0.1,0-0.2,0-0.2,0
									s-0.2,0.1-0.6,0.2c-0.3-0.1-0.6-0.2-1-0.3c-1.5-0.5-3.1-0.7-4.7-0.7c-5.4-0.1-8.9,1.9-11,4.3c-1.1,1.2-2,2.7-2.5,4.3
									c-0.1,0.2-0.2,0.4-0.2,0.6l-0.1,0.3c0,0,0,0,0-0.1c-0.2,0.6-0.3,1.1-0.4,1.6c-0.4-1.3-0.9-2.5-1.5-3.7l0,0L123,151l-0.1-0.2
									c-1.6-3.1-4.3-5.4-7.8-6.4c-1.5-0.5-3.1-0.7-4.7-0.7c-5.4-0.1-8.9,1.9-11,4.3c-1.1,1.2-2,2.7-2.5,4.3
									c-0.1,0.2-0.2,0.4-0.2,0.6l-0.1,0.3c0,0,0,0,0-0.1c-0.4,1.3-0.6,2.7-0.7,4H96c0,0.4,0,0.7,0,0.7l0.2,10.1l0,0
									c-1.2,0-2.2,1-2.2,2.2s1,2.2,2.2,2.2l0,0h0.1l0.2,8.3c-0.1,2.4,0.9,4.7,2.9,6.1l5.5,4.5l0,0l1.6,7.8l-3-0.1l-2.2,4.4l0,0
									L90.6,207l-1.7,0.8c-1,0.8-1.9,1.8-2.4,3c-0.7-1.1-1.5-2.1-2.5-2.9l-0.7-0.3c-1-1.7-2-3.3-3.2-4.9c0.2-1.9-0.5-3.8-3.2-4.8
									c-2.4-1.1-4.9-2.1-7.6-3l0.6-2.5l3.4-2.4c3.5-2.4,5.4-6.5,5-10.9l-0.6-6.5c1.1-0.2,1.8-1.1,1.8-2.2c0-1.2-1-2.2-2.2-2.2l0,0
									l0,0l-1-12.2c-0.3-1.6-0.9-3.2-1.7-4.7l0,0l-0.1-0.1c0,0-0.1-0.1-0.1-0.2c-0.3-0.5-0.6-1-0.9-1.4c-0.3-3.1-1.6-6.1-3.6-8.6
									c0-0.2,0-0.5,0-0.7c0-6.3-5.9-11.5-13.1-11.5s-13.1,5.2-13,11.6c0,0.5,0,0.9,0.1,1.4c0,0.1,0,0.1,0,0.2
									c-2,2.5-3.3,6-3.3,11.1l1,0.2c0.3,2.8,0.7,5.6,1.3,8.5l-0.1,2.9c-0.2-0.1-0.4-0.1-0.6-0.1c-1.2,0.1-2.1,1.1-2,2.3
									c0,0.7,0.3,1.3,0.8,1.7v2.5c-0.1,0-0.1,0-0.2,0c-0.4,0-0.8,0.4-0.8,0.8c0,0.4,0.4,0.8,0.8,0.8c0.4,0,0.7-0.2,0.8-0.6
									c0.1,0,0.1-0.1,0.1-0.2v-2.9c0.2,0.1,0.4,0.1,0.6,0.1c0.1,0,0.3,0,0.4-0.1l-0.1,3.1c0.9,7.6,2,10.1,4.8,13.4
									c1.1,1,2.3,1.8,3.6,2.4l0.4,0.3l0.2,0.8l0.9,4c-0.2,0.2-0.4,0.5-0.6,0.7c-4.9,0.8-11.7,4.1-11.7,4.1c-2.3,0.9-3.1,2.4-3.2,4
									l-0.6,0.8l0,0c-3.8,5.4-14.2,23.4-7,51c-0.1,0.3-0.2,0.7-0.2,1l4.3,8.6c0.4,0.6,1.1,0.8,1.7,0.4l4.1-3.8
									c0.6-0.4,0.5-1.5,0.2-2.1l-2.9-3.7l0.6-0.9c0.1-0.2,0.1-0.5-0.1-0.6l0,0l-2.9-1.7c-0.1,0-0.1,0-0.2,0
									c-1.1-4.7-4-19.4,0.5-33.3l1.6,1.7c0,0.8,0.1,1.5,0.2,2.3c0.6,5.3,2.5,17.7,7.3,22.4c-0.3,0.6-0.5,1.1-0.1,1.3
									c0.3,0.1,0.5,0.3,0.8,0.4v0.5l-0.2,0.4l-0.1,0.3c-0.1,0.2-0.2,0.4-0.2,0.7l-0.1,0.3c-0.1,0.2-0.2,0.5-0.2,0.7
									c0,0.1-0.1,0.2-0.1,0.3c-0.1,0.3-0.2,0.5-0.3,0.8c0,0.1,0,0.1-0.1,0.2l0,0c-3,9.4-6.7,25.7-3.8,43.4c2,0.6,4.1,1.2,6.2,1.6
									c0.1,0.6,0.1,1.2,0.2,1.8c0,1.6,0,3.1,0,4.7c0.1,22.1,1.9,43.8,0.5,63.1l1.1,0.1v0.7c-0.1-0.1-0.3-0.1-0.4-0.2l0.1,5.2
									c-17.1,1.1-29,3.3-29,5.9c0,0.8,1.2,1.6,3.2,2.3c-2.8,0.8-4.3,1.7-4.3,2.6c0,3.5,22.1,6.2,49.3,6.1c8.9,0,17.1-0.4,24.3-0.9
									c7.1,0.5,15.5,0.8,24.4,0.7c4.9,0,9.7-0.1,14.2-0.3c4.5,0.2,9.3,0.2,14.2,0.2c27.3-0.1,49.3-3,49.3-6.5
									c0-0.4-0.3-0.8-0.9-1.2c21.5-0.8,37.5-3.4,37.5-6.3c0-0.3-0.1-0.5-0.3-0.7l89.4-1.5c6.1,2.6,25.4,4.5,48.1,4.4
									c19.3-0.1,36-1.5,44.4-3.6c8.9,1.8,24.7,2.9,42.7,2.9c21.8-0.1,40.4-1.9,47.2-4.4l2.4,0.3c-1,0.5-1.5,1-1.5,1.6
									c0,3.5,22.3,6.3,49.8,6.2c19.4-0.1,36.1-1.5,44.4-3.6c6.8,1.6,18.9,2.7,33.3,3.1c3.2,2.2,14.7,3.9,30.2,4.7
									c8.8,1.8,24.7,3,42.9,2.9c17.1-0.1,32.2-1.2,41.2-2.9c4.4,0.1,9.2,0.2,14,0.2c28.8-0.1,52.1-3.2,52.1-6.8
									C808.9,373.1,795.5,370.8,776.2,369.8z M510.8,157.3L510.8,157.3L510.8,157.3v-0.2C510.8,157.2,510.8,157.2,510.8,157.3z
									 M35.5,215.9l-0.3-0.4c-0.1,0-0.1,0.1-0.2,0.1c0.9-2.3,2-4.6,3.3-6.7l0,0l0.5-0.8c0.1,0.2,0.2,0.4,0.3,0.5
									C37.5,210.2,36.2,213.4,35.5,215.9z M40.3,224.5L40.3,224.5L40.3,224.5l1.1,1.1c0.4-1.1,0.8-2,0.8-2l-0.1-0.1
									c0.2-0.4,0.3-0.8,0.4-1.2c0.2,0.4,0.5,0.8,0.7,1.2l0.6,15.2C42.3,236.1,41.1,231.6,40.3,224.5L40.3,224.5z M83.3,251
									c-0.1-0.1-0.3-0.1-0.4,0l-2.9,1.7c-0.2,0.1-0.2,0.4-0.1,0.6l0,0l0.6,0.9l-1.3,1.7l1.2-37.2c0,0,0.8,1.9,1.7,5l-0.3,0.2
									c0.1,0.5,0.4,1,0.8,1.4l0.8-0.3l0.1,0.3c0.1,0.4,0.2,0.8,0.3,1.2l0,0l0,0c0.2,0.8,0.4,1.6,0.7,2.5
									C85.3,236.4,84.8,243.7,83.3,251L83.3,251z M90,225.4c0.4-1.1,0.8-2,0.8-2l-0.1-0.1c0.5-1.5,0.8-3,0.9-4.6l0.6,15
									c-1.3-2.9-2.3-6-3-9.3L90,225.4z M86.8,257.1l1.2-2.3c0-0.2,0-0.5-0.1-0.7c1-4.2,1.7-8.5,2-12.8c0.7,1.3,1.6,2.4,2.8,3.4
									l0.5,12L86.8,257.1z M109.1,209.3l0.5-0.3l0,0L109.1,209.3z M114.5,210.2l-1.9-1.2l0,0L114.5,210.2L114.5,210.2z
									 M116.6,374.8c-0.3-0.1-0.5-0.3-0.8-0.4h2.3v0.4C117.6,374.8,117.1,374.8,116.6,374.8L116.6,374.8z M133.6,199l-2.1-0.1
									l-2.2,4.4l0,0l-5,1.7l-2.5-0.8l-2.5-4.6l-3-0.1l0.8-3.4l0,0l1-4l3.4-2.4c1.8-1.2,3.2-3,4.1-5c0.5,0.8,1.1,1.5,1.8,2l5.5,4.5
									l0,0l1.5,7.1C134.1,198.6,133.9,198.8,133.6,199L133.6,199z M184.2,193.2l-0.6-0.3l0.1-0.2h-0.1l0.1-0.1h-0.1l-3.9-3.1h-0.1
									l0.6-1.6l0.2-0.1l1.3-3.8c0.5-0.3,1-0.6,1.5-1c0.2-0.2,0.5-0.3,0.7-0.5v2.3c0,0,0.3,3.6,0.6,8.6L184.2,193.2z M192.1,238.2
									c-0.2-0.1-0.3-0.3-0.5-0.4l0.5-7.6l0.8-0.2C193.2,232.8,192.9,235.6,192.1,238.2L192.1,238.2z M217,222.9l0.1-0.3
									c0.1,0.1,0.2,0.2,0.2,0.4c0.2,0.4,0.5,0.9,0.7,1.3c-0.5-0.4-1-0.9-1.5-1.4H217z M216.2,243.7v0.1c0-0.1-0.1-0.2-0.1-0.3
									l0.1,0.1V243.7z M218.6,237c0,0-0.6,1-1.5,2.8c-0.4,0.5-0.8,1.1-1.1,1.7c-0.1,0.1-0.1,0.3-0.2,0.5c0,0.1-0.1,0.2-0.1,0.4
									c-1-2.3-1.8-3.6-1.8-3.6c-1.4-3.7-1.6-7.8-0.5-11.6c0.9,0.8,1.9,1.6,3,2.3l0,0c1.1,0.7,2.1,1.5,3.3,2.3
									C219.6,233.7,219.2,235.4,218.6,237L218.6,237z M262.1,214.7c0.5,1,1,1.9,1.6,2.8c0.3,1.9,1.1,3.8,2.2,5.3
									c0.2,0.4,0.5,0.9,0.7,1.3C263.9,221.9,261.7,218.8,262.1,214.7L262.1,214.7z M251.2,213.2l-0.2,0.2
									c-0.1-0.1-0.1-0.2-0.2-0.2C250.9,213.1,251,213.2,251.2,213.2L251.2,213.2z M245.8,247c-0.2-0.6-0.4-1.1-0.6-1.6
									c0.5,0.1,1,0.3,1.4,0.4c-0.1,0.2-0.1,0.4,0,0.5c-0.1,0.1-0.1,0.3,0,0.5l0.2,0.2L245.8,247z M264.8,243.3v0.1
									c-0.1,0.7-0.1,1.5-0.2,2.4l-6.5,0.4c0-0.5-0.3-0.9-0.7-1.1l-8.2-3.1c-0.1,0-0.2,0-0.3,0v-0.2c-2.3-0.3-4.4-1.2-6.3-2.5
									c-0.2-0.5-0.4-0.7-0.4-0.7c-0.2-0.4-0.3-0.9-0.4-1.3l7.2-0.9c0.5-0.1,0.8-0.6,0.7-1.1l0,0l-1.7-4c-0.1-0.5-1-0.8-1.5-0.7
									l-3.5,1.2l-0.5-0.7c-0.1-0.2-0.3-0.2-0.5-0.1l0,0l-0.9,0.8c0.1-3,0.8-6,2.1-8.9l2.2-0.1l0.5-2.9l0.2,2.6h3.2
									c-0.1-0.8-0.2-1.7-0.3-2.9c1.2,1.2,2.4,2.4,3.8,3.4c0.1,0.1,0.1,0.1,0.2,0.2c0.5,0.3,0.9,0.7,1.4,1
									c2.2,5.3,5.7,11.7,10.7,16.1c-0.2,0.3-0.4,0.7-0.6,1c-0.1,0.2-0.1,0.3-0.2,0.5c-0.1,0.3-0.2,0.7-0.2,1.1
									C264.1,242.9,264.3,243.1,264.8,243.3z M267.3,236.3c-2.5-2.6-4.5-5.6-6-9c0.8,0.4,1.6,0.8,2.4,1.1c0.4,0.3,0.8,0.6,1.2,0.9
									l0,0c0.8,0.6,1.6,1.1,2.4,1.7l0.9,1C268.1,233.6,267.8,235,267.3,236.3z M288.9,238.5c-0.5-0.9-0.8-1.4-0.9-1.7
									c0.5,0.1,1.1,0.1,1.6,0.2C289.4,237.5,289.1,238,288.9,238.5L288.9,238.5z M291.5,231.4l-0.4-0.6c-0.1-0.2-0.3-0.2-0.5-0.1
									l0,0l-2,1.7c-0.1,0.1-0.1,0.2-0.1,0.4v0.1c-0.5,0-1,0-1.6-0.1c-0.3-2.8,0.1-5.7,1.2-8.4c1.2,1.4,2.6,2.7,4.1,3.8
									C292,229.3,291.8,230.3,291.5,231.4L291.5,231.4z M292.5,242L292.5,242c0.1-0.2,0.1-0.3,0.2-0.4c0,0,0,0.1-0.1,0.1
									c-0.1,0.2-0.1,0.3-0.1,0.5V242z M293.2,243.4c0,0.3-0.1,0.7-0.1,1h-0.4l-0.1-1.5c0.1,0.1,0.3,0.2,0.6,0.3V243.4z
									 M293.3,222.5c-1.1-1.1-1.9-2.5-2.4-3.9c0.1-0.6,0.3-1.1,0.3-1.7c0.1-0.1,0.1-0.3,0.2-0.4c0.2,0.3,0.4,0.6,0.6,0.9
									c0.2,1.5,0.7,2.9,1.5,4.2C293.5,221.9,293.4,222.2,293.3,222.5L293.3,222.5z M295.5,236.7c0,0-0.6,1-1.5,2.8
									c0,0-0.1,0.1-0.2,0.2c0.5-1,0.9-2.1,1.3-3.1l0.5-0.1C295.6,236.6,295.5,236.7,295.5,236.7L295.5,236.7z M333.2,242.4
									c0-0.5-0.1-1.1-0.1-1.6l0,0l-0.1-0.4c0-0.2,0-0.4-0.1-0.6c0.2,0,0.4-0.1,0.6-0.2c0.3,0.9,0.6,1.8,1,2.6L333.2,242.4z
									 M339.6,233.2c-0.4,1.2-0.8,2.4-1.3,3.5c-0.1-0.6-0.3-1.1-0.4-1.6l0.8,0.2L339.6,233.2C339.6,233.1,339.6,233.1,339.6,233.2
									L339.6,233.2z M339.6,231.9l-1.5-0.4c-0.1-1.5-0.1-3,0-4.5c0.5,0.2,1,0.5,1.5,0.7C339.6,229.1,339.6,230.5,339.6,231.9
									L339.6,231.9z M338.4,222.7c0.1-1.4,0.3-2.8,0.5-4.1c0.2,1.5,0.3,3.1,0.4,4.7c-0.2-0.1-0.4-0.2-0.6-0.3c0,0,0,0,0-0.1
									L338.4,222.7z M342.2,242c0-0.2-0.1-0.3-0.2-0.5c0.5-1.1,0.9-2.2,1.1-3.3c0.5-1.2,0.9-2.4,1.2-3.6l0.4,7.3L342.2,242z
									 M342.9,209.1l0.4,6.5c-0.2-2-0.5-4-0.8-6.3L342.9,209.1z M342.5,204.2l0.1-0.2v0.6C342.6,204.5,342.5,204.4,342.5,204.2
									L342.5,204.2z M352.4,188.5l-0.3,0.1l-10.9,3.7l-1.8,0.8c-1.2,0.7-2.2,1.8-2.9,3l-1.1-0.3l-7.9-2.6l0,0l-1.9-3.8h-0.3
									c0.1-2.1,0.1-4,0.1-5.4l4-2c0,0,4.2-2.2,3.5-9.1l-0.1-6.8c0.2,0,0.4,0.1,0.6,0.1c1.8,0,3.3-1.5,3.3-3.3
									c0-0.6-0.2-1.2-0.5-1.7c2.1-1.1,3.7-3,4.3-5.3c0.9,1.2,2.4,1.7,3.8,1.4l-0.1,8.2c-0.4,7.8,4.3,10.8,4.3,10.8l6.9,3.4
									c0.2,0.4,0.4,0.7,0.6,1.1l0.4,4.2L352.4,188.5z M381.6,240.2c0-0.2,0-0.3,0-0.5c0.2,0,0.3-0.1,0.5-0.1v0.6H381.6z
									 M388.9,189.7l-2.1,3.9h-0.1l-1.4,0.4c-0.5-0.5-1-0.9-1.6-1.2l-1.8-0.8l-7.3-2.2l-0.3-0.7l-1.6,0.1l-1.1-0.4l0.4-4.1
									c0,0,0.1,0,0.1-0.1l6.1-3.1c0,0,4.2-2.2,3.5-9.1l-0.1-6.8c0.2,0,0.4,0.1,0.6,0.1c0.9,0,1.7-0.3,2.3-0.9c0,0,0,0,0.1,0.1
									l-0.9,11.9c0,0-0.9,3.6,4.7,7c0.4,0.3,0.8,0.6,1.3,0.9l1.3,3.3l0,0l0.6,1.6L388.9,189.7z M430.4,217.1l0.9,16.2
									c-0.7-3.3-1.6-7.4-2.5-11.6C429.4,220.2,429.9,218.7,430.4,217.1L430.4,217.1z M423,237.8L423,237.8c0.5-1.1,1.2-2.8,2-4.9
									c0.6,2.1,1.1,4,1.6,5.5l-3.9,0.1l0.7-0.7L423,237.8z M421.9,220.9l0.2,0.8c-0.4,1.2-0.8,2.4-1.1,3.5c0-0.4,0-0.8,0-1.2
									C421.3,223,421.6,221.9,421.9,220.9L421.9,220.9z M408.6,365.5c-2.5-0.5-5.6-1-9.3-1.4l34.1-1.7
									C422.8,363.1,413.9,364.1,408.6,365.5z M463.8,146.2c0-0.4,0-0.8,0-1.2c0-0.1,0-0.2,0-0.2c0.2-0.2,0.3-0.4,0.5-0.5
									c0,0.3,0.1,0.6,0.2,0.8l1.8,15.2v0.6c-0.5,0-1,0.3-1.3,0.7c-0.3-0.4-0.7-0.6-1.2-0.7c0.1-0.3,0.2-0.6,0.3-1L463.8,146.2z
									 M472.7,187.2l-1.7,3.5l-2.1,0.5l-10.4-3.2l-0.6-0.3l0.1-0.2h-0.1l0.1-0.1h-0.1l-2-1.6l0.2-1l0,0l0.8-3.4l2.9-2
									c3-2.1,4.6-5.6,4.3-9.3l-0.4-5.1v-0.5c0.5-0.1,0.9-0.3,1.1-0.7c0.4,0.4,0.9,0.7,1.5,0.7h0.1v1.3l0.1,3.3v2.3
									c0,0.3,0,0.5,0,0.8c0.1,1.8,1,3.6,2.4,4.6l1.3,1.1l3.3,2.8c0.1,0,0.1,0.1,0.2,0.1l1.3,6.5L472.7,187.2z M490.4,185.5l-2,4
									l0,0l-0.9,0.3l-1.1-2.1l-2.6-0.1l0.6-2.9l0,0l0.8-3.4l2.9-2c0.7-0.5,1.4-1.1,2-1.8l1.4,1.2l0,0l1.5,7L490.4,185.5z
									 M515.3,235.8c-0.6-4.4-0.8-9-0.5-13.4v-0.1c0.4,0,0.7,0,1-0.1l0,0l0,0c0,0,0,0,0-0.1l0,0c0,0,0-0.1,0-0.2c0,0,0,0,0-0.1
									s0-0.1,0-0.2v-0.1c0-0.1,0-0.2,0-0.3v-0.1c0-0.1,0-0.2,0-0.4c0-0.1,0-0.1,0-0.2c0-0.1,0-0.2,0-0.3s0-0.1,0-0.2
									c0-0.2,0-0.3,0-0.5c0-0.1,0-0.1,0-0.2c0-0.1,0-0.3,0-0.4c0-0.1,0-0.2,0-0.3c0-0.2,0-0.3,0.1-0.5l1.2-0.3
									c0.4,1.8,0.9,3.6,1.4,5.4c-0.5,4.1-0.4,8.4,0.1,12.5L515.3,235.8z M522.9,235.7c-0.1-1-0.2-2.2-0.2-3.3
									c0.8,1.2,1.6,2.3,2.5,3.3H522.9z M528.3,231.3c0,0,0,0.1-0.1,0.2c-2-2.7-3.6-5.6-4.7-8.9c0.2-1.4,0.4-2.8,0.6-4.2l1.8,0.2
									l0.4-1.8l-0.6-0.1l0.6-1.1l-0.5-0.1c0.1-0.9,0.3-1.8,0.4-2.7c0.2,0.3,0.3,0.5,0.5,0.8c1.3,2.3,2.2,4.8,2.6,7.4l0.2,5.2
									C529.4,228.1,528.9,229.8,528.3,231.3L528.3,231.3z M560.5,137.5c-0.3-0.4-0.6-0.8-0.8-1.1c0.5-0.2,1-0.4,1.5-0.5
									C560.7,136.3,560.5,136.9,560.5,137.5L560.5,137.5z M567.4,185.2l-2,4l0,0l-1.3,0.4c0.8-4.6,1.3-9.3,1.6-13.9l3,2.4l0,0
									l1.5,7L567.4,185.2z M586.5,182.3l-4,3.2l0.1,0.2l-0.6,0.2l-0.1-0.1l-2.7-0.1l0.7-3.1l0,0l0.9-3.6l3.1-2.2
									c0,0,0.1,0,0.1-0.1c0.1,0.1,0.2,0.1,0.4,0.2l1.3,3.7c0,0,0.1,0,0.2,0.1L586.5,182.3L586.5,182.3z M612.5,207l-1.1-0.6
									l-0.5,5l1.6,0.2c-0.8,5.1-0.9,10.4-0.4,15.6c-0.2,1.1-0.4,2.3-0.6,3.5c0,0-0.3,1.7-0.9,4.2h-0.1l-1.6-0.9
									c-0.1,0-0.2,0-0.2,0l1.7-33.5c0,0,1.3,1.3,2.4,5.3C612.6,206.4,612.5,206.7,612.5,207L612.5,207z M618.2,235.1
									c1.5-5.7,2.1-11.7,1.8-17.5c0.1-0.5,0.2-0.9,0.3-1.4l1.1-0.1l0.7-2.4l0.3,0.2l0.2-0.2l1.5,21.6
									C622.1,235.2,620.2,235.1,618.2,235.1L618.2,235.1z M663.5,182.1l-4,3.2l0.1,0.2l-1.9,0.8l-3,0.9l-5.1-1.7h-0.1l0,0h-0.3
									l-1.6-1.4l0.2-2c0,0,0.1,0,0.1-0.1l7.2-3.7c1.4-0.9,2.5-2.1,3.2-3.6c0.5,0.4,1.1,0.8,1.6,1.1c0.4,0.4,0.9,0.7,1.4,1l1.3,3.7
									c0,0,0.1,0,0.2,0.1L663.5,182.1L663.5,182.1z M673.3,181.6l0.5-4.6l0.2,0.2c0.3,0.2,0.6,0.5,0.9,0.6l0.8,3l0,0l0.8,3.5
									L673.3,181.6z M692.7,188.8l-2.5-4.9l-3.2,0.2l1.5-7.8l2-1.5l-0.5,5.9c0,0-1,4.2,5.6,8.4c0.5,0.4,1,0.7,1.5,1l0.1,0.3
									L692.7,188.8z M722,184.5l-2.6,4.8l-9.2,2.9c0,0-0.2,0.1-0.5,0.4l0.3-2.5c0,0,0.1,0,0.1-0.1l7.2-3.6c0,0,4.6-2.4,4.2-10
									l1.1,0.7c0.3,0.2,0.6,0.5,0.9,0.6l0.8,3l0,0l0.8,3.6L722,184.5z M727.2,195.8l-0.2-0.3l2-1.3l0,0L727.2,195.8z M750.3,184.3
									l-2.6,4.8l-2.3,0.7l-4-1.3l-2.5-4.9l-3.2,0.2l1.5-7.8l6-4.6c0.1-0.1,0.3-0.2,0.4-0.3c0.9,1.3,2.1,2.4,3.4,3.2l3.9,2.4
									c0.3,0.2,0.6,0.5,0.9,0.6l0.8,3l0,0l0.8,3.6L750.3,184.3z M755.8,195.4c-0.1-0.1-0.1-0.1-0.2-0.2l1.7-1.1l0,0L755.8,195.4z"
									/>
								<path id="Trazado_7116" class="st7" d="M701.1-0.5h29.8l-18.8,324L514.3,325L701.1-0.5z"/>
								<path id="Trazado_7117" class="st7" d="M112.6,0.4H82.9l18.8,324.8l197.8,1.5L112.6,0.4z"/>
								<g id="Grupo_3510" transform="translate(242.725 14.098)">
									<path id="Trazado_7125" class="st8" d="M117.7,148.2c0,0-28.1,36.6-102.9,42.2v9.2c0,0,72.5-1.6,108.2-43.7L117.7,148.2z"
										/>
									<g id="Grupo_3492" transform="translate(0 187.088)">
										<path id="Trazado_7126" class="st8" d="M3.6,17.4c-0.1,0-2.2,0.4-2.4,0.4c-1.4,0-1.9-1.3-1.9-2.6L-3.4,4.1
											c-0.1-0.5-0.1-0.9,0-1.4c0.3-1,1.3-1.8,2.4-1.8l16.6,0.5c0.5,0,1.1,0.2,1.5,0.5c1.1,0.7,1.7,2,1.5,3.3l0.2,5.6
											c0.4,3.2-1,3.9-2.4,4L3.6,17.4z"/>
									</g>
									<path id="Trazado_7127" class="st9" d="M15.4,190.7l0.7-0.8c0.4-0.5,0.4-1.2-0.1-1.7l-5.4-5.7c-0.5-0.4-1.2-0.4-1.6,0.1
										l-1.5,1.6c-0.4,0.5-0.4,1.2,0.1,1.7l6.2,4.8C14.3,191.3,15,191.2,15.4,190.7z"/>
									<path id="Trazado_7128" class="st8" d="M221.8,156.4c0,0,29.8,35.2,104.8,37.2l0.4,9.2c0,0-72.5,1.8-110.2-38.6
										L221.8,156.4z"/>
									<g id="Grupo_3493" transform="translate(324.132 189.626)">
										<path id="Trazado_7129" class="st8" d="M14.3,17.6c0.1,0,2.2,0.3,2.4,0.3c1.4-0.1,1.8-1.3,1.8-2.7l2.1-11.3
											c0.1-0.4,0.1-0.9-0.1-1.3c-0.4-1-1.4-1.7-2.5-1.7L1.6,2.2C1,2.2,0.5,2.4,0.1,2.8c-1.1,0.7-1.6,2-1.4,3.3v5.6
											c-0.3,3.2,1.2,3.9,2.6,3.9L14.3,17.6z"/>
									</g>
									<g id="Grupo_3494" transform="translate(227.73 163.782)">
										<path id="Trazado_7130" class="st10" d="M3.3,0.9L0.8,1.4c-0.1,0-0.1-0.2,0-0.2l2.5-0.5C3.4,0.7,3.5,0.9,3.3,0.9z"/>
										<path id="Trazado_7131" class="st10" d="M0.9,1.4c-0.9,1-1.7,2-2.6,3c-0.1,0-0.3-0.1-0.2-0.2c0.9-1,1.7-2,2.6-3
											C0.8,1.1,0.9,1.3,0.9,1.4z"/>
										<path id="Trazado_7132" class="st10" d="M-1.7,4.3c0,0.9,0,1.7,0,2.6c0,0.1-0.2,0.1-0.2,0c0-0.9,0-1.7,0-2.6
											C-1.9,4.2-1.7,4.1-1.7,4.3z"/>
										<path id="Trazado_7133" class="st10" d="M3.4,0.8l1.4,6.4c0,0.1-0.2,0.2-0.2,0.1L3.2,0.9C3.2,0.7,3.4,0.7,3.4,0.8z"/>
										<path id="Trazado_7134" class="st10" d="M4.8,7.3C2.6,7.2,0.4,7.1-1.8,6.9c-0.1,0-0.1-0.2,0-0.2C0.4,6.8,2.6,7,4.8,7.1
											C4.9,7.2,4.9,7.4,4.8,7.3L4.8,7.3z"/>
										<path id="Trazado_7135" class="st10" d="M3.3,0.9l-5.1,6h-0.1V6.8l5.1-6h0.1C3.3,0.9,3.4,0.9,3.3,0.9z"/>
										<path id="Trazado_7136" class="st10" d="M0.2,1.9c0.6,0,1.3,0.1,1.9,0.3c0.1,0,0.1,0.2,0,0.2C1.4,2.2,0.8,2.1,0.2,2.1
											C0,2.1,0.1,1.9,0.2,1.9z"/>
										<path id="Trazado_7137" class="st10" d="M2.2,2.3C3.1,3.9,4,5.5,4.8,7.2c0.1,0.1-0.1,0.2-0.2,0.1C3.8,5.6,3,4,2.1,2.4
											C2,2.3,2.2,2.2,2.2,2.3L2.2,2.3z"/>
										<path id="Trazado_7138" class="st10" d="M-1,3.4C-0.8,4-0.5,4.6-0.3,5.2c0,0.1-0.1,0.2-0.2,0.1C-0.7,4.7-1,4.1-1.2,3.5
											C-1.2,3.4-1.1,3.3-1,3.4L-1,3.4z"/>
										<path id="Trazado_7139" class="st10" d="M-0.4,5.2C1.3,5.8,3,6.4,4.7,7.1c0.1,0,0,0.2-0.1,0.2C2.9,6.6,1.2,5.9-0.5,5.4
											C-0.6,5.3-0.5,5.2-0.4,5.2z"/>
									</g>
									<path id="Trazado_7140" class="st11" d="M197.5,62.1c0,0,8.1,12.2,4,19.1c-4,6.9-4.9,9.4-2.8,11.5c-2-1.1-3.2-3.2-3.2-5.5
										c0,0-0.5,6.7-5.4,8c-4.9,1.2-34.6-8.6-34.6-8.6L197.5,62.1z"/>
									<path id="Trazado_7141" class="st11" d="M139.5,62.9c0,0-8.1,12.2-4,19.1c4,6.9,4.9,9.4,2.8,11.5c2-1.1,3.2-3.2,3.2-5.5
										c0,0,0.5,6.7,5.4,8c4.9,1.2,34.6-8.6,34.6-8.6L139.5,62.9z"/>
									<path id="Trazado_7142" class="st12" d="M198.1,19.1c0.1-0.4,2.9-10.8,15.8-12.1s17.6,26,9.3,31.1s-21.4-6.5-21.4-6.5
										L198.1,19.1z"/>
									<path id="Trazado_7143" class="st11" d="M194.6,25.9c0,0,11.7-17.2,22.9-15.8s17.6,12.9,11.8,15.8s-24,6.5-27.5,5.8
										S194.5,27.7,194.6,25.9z"/>
									<g id="Grupo_3495" transform="translate(192.643 57.627)">
										<circle id="Elipse_494" class="st8" cx="3.9" cy="6" r="6"/>
										<circle id="Elipse_495" class="st9" cx="3.9" cy="6" r="3.5"/>
									</g>
									<g id="Grupo_3496" transform="translate(135.687 56.969)">
										<circle id="Elipse_496" class="st8" cx="3.5" cy="6" r="6"/>
										<circle id="Elipse_497" class="st9" cx="3.5" cy="6" r="3.5"/>
									</g>
									
										<ellipse id="Elipse_498" transform="matrix(0.9995 -3.168980e-02 3.168980e-02 0.9995 -7.7463 5.3262)" class="st8" cx="164.2" cy="247" rx="32.6" ry="25.3"/>
									<path id="Trazado_7144" class="st13" d="M130.2,258.6l76.7,2l9.9,69.8l-86.7-5.9L130.2,258.6z"/>
									<path id="Trazado_7145" class="st8" d="M153.4,104.9l3.9,28l21.8,0.2l2.5-28.6L153.4,104.9z"/>
									<path id="Trazado_7146" class="st14" d="M155.3,113.9c0,0,15.1,8.1,25.5,0.9l0.9-10.4l-28.3,0.5L155.3,113.9z"/>
									<path id="Trazado_7147" class="st8" d="M168.5,132l41.1,6.9c0,0,14,8-1.1,24l-12.8,90c0,0-30.2,8.9-64-4.8l-6.7-84.1
										c0,0-18-12.4,0.2-27.4L168.5,132z"/>
									<path id="Trazado_7148" class="st8" d="M200.5,144.3l9.1-5.3c0,0-30-12.9-46.3-11.8s-28.7,5.6-38.3,9.5l22.6,16.9
										L200.5,144.3z"/>
									<path id="Trazado_7149" class="st8" d="M125,136.6c9.5-3.8,21.9-8.4,38.3-9.5s46.3,11.8,46.3,11.8s14,8-1.1,24l-12.8,90
										c0,0-30.2,8.9-64-4.8l-6.7-84.1C124.8,164,106.8,151.7,125,136.6z"/>
									<g id="Grupo_3497" transform="translate(155.95 145.975)">
										<path id="Trazado_7150" class="st10" d="M7.6,7.8c0.7,1.8,2.5,3.1,2.9,5.1c0.3,1.4-0.3,2.1-1.7,2.2
											c-1.4,0-2.2-1.1-2.4-2.4C6.1,11,6.4,9.3,7.3,7.9c0.1-0.2,0.4,0,0.3,0.2c-0.6,1-0.9,2.3-1,3.6c0.1,1.3,0.8,3.4,2.5,2.9
											l1-0.7c0.1-0.2,0.1-0.5,0-0.7c0-0.4-0.1-0.8-0.3-1.1c-0.2-0.5-0.5-1-0.9-1.4C8.3,9.8,7.7,8.9,7.3,7.9
											C7.2,7.7,7.6,7.6,7.6,7.8L7.6,7.8z"/>
										<path id="Trazado_7151" class="st10" d="M12.3,7.7c-0.2,1.6-1,3-2.3,4c-0.2,0.1-0.4-0.2-0.2-0.3c1.1-1,1.9-2.3,2.1-3.8
											C11.9,7.4,12.3,7.5,12.3,7.7L12.3,7.7z"/>
										<path id="Trazado_7152" class="st10" d="M12.3,7.6c0.7,1.9,1.5,4.1,0.5,6.1c-0.5,1.4-2.1,2-3.5,1.5
											c-0.1,0-0.2-0.1-0.2-0.1c-0.2-0.1,0-0.4,0.2-0.3c2,1,3.4-0.9,3.5-2.7c0-1.5-0.3-3-0.9-4.3C11.8,7.4,12.2,7.3,12.3,7.6
											L12.3,7.6z"/>
										<path id="Trazado_7153" class="st10" d="M11.6,8.5c-0.3-0.6-0.7-1.3-1-1.9h0.3l-0.5,2.6c0,0.2-0.4,0.1-0.4-0.1l0.5-2.6
											c0-0.1,0.1-0.2,0.2-0.1c0,0,0.1,0,0.1,0.1c0.3,0.6,0.7,1.3,1,1.9C12.1,8.6,11.8,8.8,11.6,8.5L11.6,8.5z"/>
										<path id="Trazado_7154" class="st10" d="M10.9,10.3c-1.1-1-1.9-2.4-2-3.9h0.3L8,8.5c0,0.1-0.1,0.2-0.2,0.1
											c-0.1,0-0.2-0.2-0.1-0.3l1.2-2.1C9,6.1,9.1,6.1,9.2,6.1l0.1,0.1c0.1,1.4,0.8,2.7,1.8,3.6C11.3,10.1,11.1,10.4,10.9,10.3
											L10.9,10.3z"/>
										<path id="Trazado_7155" class="st10" d="M10.5,6.9c0-0.3-0.1-0.7-0.5-0.8c-0.3,0-0.4,0.4-0.5,0.6S9,6.7,9.2,6.5
											c0.1-0.2,0.2-0.4,0.4-0.6c0.2-0.2,0.4-0.2,0.6-0.2c0.6,0.1,0.7,0.6,0.8,1.1C11,7.2,10.6,7.2,10.5,6.9L10.5,6.9z"/>
										<path id="Trazado_7156" class="st10" d="M12.7,9c0.6-0.2,1.2-0.2,1.8-0.1c0.7,0.3,1.1,1.1,1.7,1.5
											c0.1,0.1,0.1,0.2,0.1,0.3l0,0c-1,0.9,0.1,2.5-1,3.4c-0.8,0.6-1.9,0.7-2.7,0.2c-0.1-0.1-0.1-0.2-0.1-0.3
											c0.1-0.1,0.2-0.1,0.3-0.1c0.6,0.4,1.3,0.4,1.9,0.1c0.6-0.3,1-1,0.9-1.7s0-1.3,0.5-1.8v0.3c-1-0.6-1.6-2-3.1-1.4
											C12.7,9.4,12.5,9,12.7,9L12.7,9z"/>
										<path id="Trazado_7157" class="st10" d="M6.4,9.7c-0.9-0.3-1.9,0.1-2.5,0.9c-0.3,0.4-0.7,0.6-1.1,0.7V11
											c0.7,0.5,1.1,1.3,1.2,2.2c0,0.6,0.4,1.1,0.9,1.5c0.7,0.4,1.6,0.1,2-0.5c0.1-0.1,0.2-0.1,0.3-0.1c0.1,0.1,0.1,0.2,0.1,0.3
											l0,0c-0.5,0.9-1.6,1.2-2.5,0.7c-1.4-0.7-0.7-2.7-2-3.6c-0.1-0.1-0.1-0.2-0.1-0.3l0.1-0.1c0.9-0.3,1.1-1,1.8-1.5
											c0.6-0.3,1.3-0.4,2-0.2C6.7,9.3,6.6,9.7,6.4,9.7L6.4,9.7z"/>
										<path id="Trazado_7158" class="st10" d="M10.7,6.3c0.6-0.3,1.2-0.5,1.9-0.6c0.1,0,0.2,0.1,0.2,0.2c0,1.2,2.1,1.6,1.5,3
											c-0.1,0.2-0.4,0-0.3-0.2c0.3-0.7-0.5-1.2-0.9-1.6c-0.4-0.3-0.6-0.7-0.6-1.2l0.2,0.2c-0.6,0.1-1.2,0.2-1.8,0.6
											C10.6,6.8,10.5,6.4,10.7,6.3L10.7,6.3z"/>
										<path id="Trazado_7159" class="st10" d="M8.5,7C8.3,6.9,8,6.7,7.8,6.6c-0.5-0.2-0.8,0-1.3,0.3C6.1,7,5.6,7.1,5.3,7
											l0.2-0.2c0,0.3-0.1,0.5-0.2,0.7C5.1,7.7,4.8,7.9,4.8,8.1C4.6,8.5,4.7,9,5,9.3c0.1,0.2-0.2,0.4-0.3,0.2
											C4.4,9.2,4.2,8.8,4.2,8.4C4.3,7.8,5,7.5,5.1,6.8c0-0.1,0.1-0.2,0.2-0.2l0,0c0.7,0.2,1.3-0.5,2-0.5
											c0.5,0.1,0.9,0.3,1.3,0.6C9,6.8,8.8,7.2,8.5,7L8.5,7z"/>
										<path id="Trazado_7160" class="st10" d="M13.9,14.4c0.8,0.3,1.2,1.1,0.6,1.8c-0.4,0.3-0.9,0.6-1.4,0.7
											c-0.9,0.2-1.8,0.7-2.5,1.3c-0.1,0.1-0.2,0.1-0.3,0c-1-1-2.5-1-3.8-1.4c-0.7-0.2-1.3-0.6-1.4-1.4c0-0.2,0.4-0.2,0.4,0
											c0.1,1,1.7,1.2,2.5,1.4c0.7,0.2,1.5,0.4,2.1,0.7c0.4,0.2,0.5,0.1,0.8-0.2c0.3-0.2,0.7-0.5,1.1-0.6
											c0.4-0.2,0.8-0.2,1.3-0.4c0.9-0.3,1.4-1.1,0.3-1.6C13.5,14.6,13.7,14.3,13.9,14.4L13.9,14.4z"/>
										<path id="Trazado_7161" class="st10" d="M9.1,17.1c0,1.1-0.7,2-1.8,2.2c-0.5,0.1-1.1-0.1-1.6-0.3c-1-0.5-2.1-0.6-3.2-0.2
											c-0.1,0.1-0.2,0-0.3-0.1v-0.1c0.4-1.4-1.5-2.2-1.2-3.6c0.2-1.3,1.7-1.7,2.8-1.7c0.1,0,0.2,0.1,0.2,0.2
											c0,0.1-0.1,0.2-0.2,0.2c-0.8-0.1-1.7,0.2-2.2,0.9c-0.5,0.8,0,1.5,0.4,2.1c0.6,0.5,0.8,1.3,0.6,2.1l-0.3-0.2
											c0.9-0.4,2-0.5,3-0.1c0.7,0.2,1.3,0.7,2,0.5c0.8-0.2,1.4-1,1.4-1.9c0-0.1,0.1-0.2,0.2-0.2C9,16.9,9.1,17,9.1,17.1
											L9.1,17.1z"/>
										<path id="Trazado_7162" class="st10" d="M4.7,7.7c-0.6-0.1-1.2,0-1.8,0.2C2.4,8.2,2,8.6,1.7,9C1.1,9.6,0.4,9.9-0.4,9.9
											l0.1-0.4c0.6,0.4,0.9,1,0.9,1.6c0,0.4-0.1,0.8-0.1,1.3c0,0.4,0.5,1.6,1.1,1.4c0.2-0.1,0.3,0.3,0.1,0.4
											c-0.5,0.2-1.1-0.4-1.4-0.8c-0.7-1.2,0.5-2.5-0.8-3.4c-0.1-0.2-0.1-0.3,0-0.4c0-0.1,0.1-0.1,0.1-0.1c1.3,0,1.8-1,2.8-1.7
											c0.7-0.4,1.5-0.6,2.3-0.4C4.9,7.4,4.9,7.8,4.7,7.7L4.7,7.7z"/>
										<path id="Trazado_7163" class="st10" d="M13.6,7.3c0.3-0.6,0.4-0.9,0.1-1.5c-0.2-0.4-0.6-0.6-1.1-0.7
											C12,5,11.4,4.9,10.8,4.8c-1.1-0.3-1.6-1-2.1-2H9c-0.3,1-1.2,1.4-2.2,1.7C5.1,5,3.9,5.6,3.8,7.5c0,0.2-0.4,0.2-0.4,0
											c-0.1-1,0.4-2,1.3-2.6c1.2-0.8,3.4-0.6,3.8-2.2c0-0.1,0.1-0.2,0.2-0.1c0,0,0.1,0,0.1,0.1c0.4,1,1.3,1.7,2.4,1.9
											c0.7,0.1,1.4,0.2,2,0.4c1.2,0.5,1,1.5,0.6,2.5C13.9,7.7,13.5,7.5,13.6,7.3L13.6,7.3z"/>
										<path id="Trazado_7164" class="st10" d="M14.1,6.5c0.9-0.1,1.8,0,2.6,0.4c0.3,0.2,0.6,0.5,0.8,0.7
											c0.6,0.4,1.2,0.6,1.9,0.7c0.1,0,0.2,0.1,0.1,0.2v0.1c-0.6,0.8-0.8,1.8-0.8,2.8c0.1,0.6-0.1,1.3-0.4,1.9
											c-0.8,1.2-2.1,1-3.3,0.7c-0.2-0.1-0.1-0.4,0.1-0.4c0.9,0.2,1.9,0.4,2.7-0.3c0.6-0.6,0.5-1.4,0.5-2.2c0-1,0.3-2,0.9-2.8
											l0.1,0.3c-0.8-0.1-1.5-0.4-2.1-0.8c-0.4-0.4-0.8-0.7-1.4-0.9c-0.6-0.1-1.2-0.1-1.8-0.1c-0.1,0-0.2-0.1-0.2-0.2
											C13.9,6.6,14,6.5,14.1,6.5L14.1,6.5z"/>
										<path id="Trazado_7165" class="st10" d="M16.8,14.1c0.4,0.6,0.5,1.5,0.2,2.2c-0.6,1.3-2.1,1.6-1.9,3.3
											c0,0.1,0,0.2-0.1,0.2h-0.1c-0.7-0.2-1.5-0.2-2.2-0.1c-0.5,0.1-1.1,0.2-1.6,0.2s-0.9-0.1-1.4-0.3c-0.5-0.3-0.8-0.8-1.3-1
											c-0.2-0.1-0.1-0.5,0.1-0.4c0.3,0.1,0.6,0.3,0.8,0.6c0.7,0.6,1.7,0.8,2.6,0.6c1-0.2,2.1-0.2,3.1,0l-0.3,0.3
											c-0.1-0.8,0.1-1.5,0.6-2.1c0.2-0.3,0.6-0.6,0.8-0.9c0.7-0.6,0.8-1.7,0.3-2.4C16.3,14.1,16.7,13.9,16.8,14.1L16.8,14.1z"/>
										<path id="Trazado_7166" class="st10" d="M6.8,4.4C6.6,4.2,6.3,3.9,6.1,3.7c-0.3-0.3-0.6-0.9-1-0.2c-0.1,0-0.2,0.1-0.3,0
											l0,0C4.2,2.9,3.6,2.4,2.8,2l0.3-0.1C2.9,2.2,2.9,2.6,2.5,2.5C2.1,2.4,1.2,1.2,0.8,2C0.7,2.1,0.6,2.1,0.5,2
											c-0.6-0.3-1.4-0.5-2.1-0.5c-0.5,0.1-0.2,0.6-0.1,0.9c0.1,0.5,0.2,0.9,0.2,1.4c0,0.2-0.4,0.2-0.4,0c-0.1-0.5-0.8-2.5,0-2.7
											C-1,1-0.1,1.2,0.7,1.7L0.4,1.8c0.2-0.4,0.5-0.7,0.9-0.5c0.5,0.2,1,1.2,1.4,0.4C2.8,1.6,2.9,1.6,3,1.6
											c0.8,0.4,1.5,1,2.1,1.6H4.8C4.9,3,5.1,2.8,5.4,2.6c0.1,0,0.2,0,0.2,0c0.5,0.5,1,1,1.5,1.5C7.4,4.3,7,4.6,6.8,4.4L6.8,4.4z
											"/>
										<path id="Trazado_7167" class="st10" d="M-1.8,4.1C-2,4.1-2.1,4-2.3,4l0.2-0.2C-1.8,4.2-1.6,4.6-1.3,5
											c0,0.1,0.1,0.2,0.1,0.3c0,0.3-0.3,0.5-0.3,0.6c0,0.2,0.7,0.5,0.8,0.7c0.2,0.3,0,0.6-0.2,0.9L-1,7.2c0.3,0.2,0.7,0.3,1,0.5
											c0.1,0,0.2,0.1,0.1,0.2c0,0.3-0.2,0.5-0.3,0.8l-0.1-0.3c0.4,0.2,1,0.3,1.2,0.7c0.2,0.2-0.1,0.5-0.3,0.3
											C0.4,9-0.1,8.9-0.5,8.7c-0.1,0-0.1-0.1-0.1-0.2c0.2-0.2,0.3-0.4,0.4-0.7L-0.1,8c-0.3-0.1-0.7-0.2-1.1-0.4
											c0-0.1-0.1-0.2,0-0.3C-0.8,6.6-1.9,6.5-2,5.9c0-0.1,0-0.2,0.1-0.2c0.4-0.3-0.3-1.4-0.5-1.8c0-0.1,0-0.2,0.1-0.3h0.1
											l0.5,0.1c0.1,0,0.2,0.1,0.1,0.2C-1.6,4.1-1.7,4.2-1.8,4.1L-1.8,4.1z"/>
										<path id="Trazado_7168" class="st10" d="M20,0.9c-0.1,0.9,0,1.7-0.2,2.6l-0.2-0.2c0.3-0.1,0.7-0.1,1.1-0.1
											c0.1,0,0.2,0.1,0.2,0.2l0,0c-0.3,0.7-0.8,1.2-1.2,1.8l-0.1-0.3c0.3,0.1,0.6,0.2,0.9,0.3c0.1,0,0.2,0.1,0.1,0.2
											C20.5,5.7,20.3,6,20,6.2c-0.4,0.4-0.7,0.8-1.1,1.2V7.1c0.3,0.1,0.6,0.1,0.8,0.2c0.1,0,0.2,0.1,0.1,0.2v0.1
											c-0.3,0.2-0.5,0.5-0.8,0.7c-0.2,0.2-0.4-0.1-0.3-0.3c0.2-0.3,0.5-0.5,0.8-0.7l0.2,0.3c-0.3,0-0.7-0.1-1-0.2
											c0-0.1-0.1-0.2,0-0.3l0,0c0.3-0.3,0.5-0.6,0.7-0.9c0.3-0.3,0.7-0.5,0.8-0.9l0.2,0.3c-0.3-0.1-0.6-0.2-0.9-0.3
											c-0.1,0-0.2-0.1-0.1-0.2l0,0c0.3-0.6,0.9-1,1-1.6l0.2,0.1c-0.3,0-0.6,0-1,0.1c-0.1,0-0.2,0-0.2-0.1V3.5
											c0.2-0.9,0-1.7,0.2-2.6C19.7,0.6,20,0.7,20,0.9L20,0.9z"/>
										<path id="Trazado_7169" class="st10" d="M20,1c-0.7,0.3-1.5,0.5-2.2,0.7c-0.1,0-0.2,0-0.2-0.1c-0.1-0.2-0.2-0.4-0.3-0.6
											l0.3,0.1C17,1.4,16.4,1.9,16,2.4c-0.1,0.1-0.2,0.1-0.3,0.1l0,0C15,1.7,14,3.2,13.6,3.7c0,0-0.1,0.1-0.2,0
											c-0.4-0.1-0.6-0.4-0.9,0c-0.3,0.4-0.6,0.9-0.9,1.3c-0.1,0.2-0.5,0-0.3-0.2c0.3-0.6,0.7-1.1,1.1-1.6
											C12.5,3.1,12.6,3,12.8,3c0.5,0,0.5,0.3,1-0.1c0.5-0.4,0.9-0.9,1.4-1.3c0.1,0,0.1,0,0.2,0s0.3,0.2,0.4,0.4h-0.3
											c0.5-0.6,1.1-1,1.8-1.4c0.1-0.1,0.2,0,0.3,0.1c0.2,0.5,0.2,0.5,0.8,0.3c0.5-0.1,1-0.2,1.4-0.4C20,0.5,20.2,0.9,20,1L20,1z
											"/>
										<path id="Trazado_7170" class="st10" d="M18.7,2.2"/>
										<path id="Trazado_7171" class="st10" d="M18.9,2.3c-0.7,0.8-1.4,1.6-2.2,2.2c-0.8,0.6-1.5,1.3-2,2.1
											c-0.1,0.2-0.5,0-0.3-0.2c0.5-0.7,1.1-1.3,1.8-1.9c0.9-0.7,1.7-1.6,2.5-2.5C18.7,1.9,19,2.1,18.9,2.3L18.9,2.3z"/>
										<path id="Trazado_7172" class="st10" d="M3.3,6.5C2.9,5.9,2.3,5.4,1.7,5C1,4.3,0.4,3.8-0.4,3.2c-0.2-0.1,0-0.4,0.2-0.3
											C0.6,3.5,1.3,4.1,2,4.6c0.6,0.4,1.2,1,1.7,1.6c0.1,0.1,0,0.2-0.1,0.3C3.5,6.6,3.4,6.5,3.3,6.5L3.3,6.5z"/>
										<path id="Trazado_7173" class="st10" d="M17.9,6.4c-1-0.3-2.1-0.2-3.1,0.2c-0.2,0.1-0.4-0.2-0.2-0.3
											c1.1-0.4,2.3-0.5,3.4-0.2c0.1,0,0.2,0.1,0.1,0.2C18.1,6.4,18,6.4,17.9,6.4L17.9,6.4z"/>
										<path id="Trazado_7174" class="st10" d="M18.4,5.2c-0.8,0-1.7,0-2.5,0.1c-0.2,0.1-0.3-0.3-0.1-0.4
											c0.9-0.1,1.8-0.1,2.6-0.1C18.6,4.8,18.6,5.2,18.4,5.2L18.4,5.2z"/>
										<path id="Trazado_7175" class="st10" d="M18.4,4.1c-0.4,0-0.8,0-1.2-0.1C17.1,4,17,3.9,17,3.8c0-0.1,0.1-0.2,0.2-0.2
											c0.4,0,0.8,0.1,1.2,0.1C18.7,3.7,18.7,4.1,18.4,4.1z"/>
										<path id="Trazado_7176" class="st10" d="M17,2.6c0,0.4,0,0.8,0.1,1.3c0.1,0.2-0.3,0.3-0.4,0.1c-0.1-0.5-0.1-0.9,0-1.4
											c0-0.1,0.1-0.2,0.2-0.2S17,2.5,17,2.6L17,2.6z"/>
										<path id="Trazado_7177" class="st10" d="M15.8,3.5v1.6c0,0.1-0.1,0.2-0.2,0.2s-0.2-0.1-0.2-0.2V3.5c0-0.1,0.1-0.2,0.2-0.2
											C15.8,3.3,15.8,3.4,15.8,3.5z"/>
										<path id="Trazado_7178" class="st10" d="M14.6,3.9c0.2,0.8,0.2,1.6,0.1,2.4c0,0.1-0.1,0.2-0.2,0.2s-0.2-0.1-0.2-0.2
											c0.1-0.8,0-1.6-0.1-2.3c0-0.1,0-0.2,0.1-0.2C14.4,3.8,14.6,3.8,14.6,3.9L14.6,3.9L14.6,3.9z"/>
										<path id="Trazado_7179" class="st10" d="M4.1,4.4C3.8,5,3.6,5.7,3.6,6.4c0,0.2-0.3,0.2-0.4,0c0-0.7,0.2-1.4,0.5-2.1
											C3.8,4.1,4.2,4.2,4.1,4.4L4.1,4.4z"/>
										<path id="Trazado_7180" class="st10" d="M2.8,4C2.6,4.4,2.7,4.8,2.5,5.3c0,0.2-0.4,0.1-0.3-0.1c0.2-0.5,0-1,0.3-1.4
											C2.5,3.5,2.9,3.7,2.8,4L2.8,4z"/>
										<path id="Trazado_7181" class="st10" d="M1.6,3.3C1.5,3.6,1.4,3.9,1.5,4.2c0,0.1-0.1,0.2-0.2,0.2c-0.1,0-0.2-0.1-0.2-0.2
											c0-0.4,0-0.7,0.1-1C1.3,3,1.7,3.1,1.6,3.3L1.6,3.3z"/>
										<path id="Trazado_7182" class="st10" d="M3.4,6.6c-0.6,0-1.3,0.2-1.9,0.5C1.3,7.3,1.1,6.9,1.3,6.8
											c0.6-0.4,1.4-0.6,2.1-0.6C3.7,6.2,3.7,6.6,3.4,6.6L3.4,6.6z"/>
										<path id="Trazado_7183" class="st10" d="M2.2,5.4c-0.5,0-1,0.2-1.5,0.4c-0.1,0-0.2-0.1-0.3-0.2c0-0.1,0-0.2,0.1-0.2
											C1.1,5.2,1.6,5,2.2,5C2.4,5,2.4,5.3,2.2,5.4L2.2,5.4z"/>
										<path id="Trazado_7184" class="st10" d="M1,4.4c-0.4,0-0.8,0.1-1.1,0.2c-0.2,0.2-0.4-0.2-0.2-0.3C0.1,4.1,0.6,4,1,4
											c0.1,0,0.2,0.1,0.2,0.2C1.2,4.3,1.1,4.4,1,4.4L1,4.4z"/>
									</g>
									<path id="Trazado_7185" class="st8" d="M137,27.3C136,13.2,148.7,7,165.3,5.8c16.4-1.2,32.9,6.5,33.4,20.3l0,0v0.2
										c0,0.1,0,0.3,0,0.4c0,1.4-0.1,2.7-0.4,4.1l-4.1,53c-0.1,7.8-4.1,15-10.8,19.1l-4.6,4.4c-3,2.6-6.9,3.8-10.9,3.5
										c-4.3,0.1-8.7-1.1-12.2-3.6l-4.5-4.4c-6.5-4.2-10.5-11.5-10.5-19.3l-3.5-54.2C137.1,28.7,137,28,137,27.3z"/>
									<path id="Trazado_7186" class="st1" d="M127.3,264.6l-4-99.5c-2.1-1.7-7.8-6.7-8.1-13.9c-0.2-5.6,2.7-11,8.9-16l0.2-0.2
										l0.3-0.1c8.4-3.5,17.1-6.1,26-8c-1.9,11.3-6.8,38.1,15.8,37.1c21.7-0.9,20.4-29,19.1-35.5c8.6,2.4,16.9,5.3,25.1,8.7h0.1
										l0.1,0.1c3.5,2.2,6,5.7,6.7,9.9c0.8,5.2-1.6,10.9-7,16.7l-8.3,103C202.4,266.8,149.2,273.6,127.3,264.6z"/>
									<path id="Trazado_7187" class="st1" d="M203.9,144.5l6.4-7.3c0,0,14,9.3,18.8,19.3c0,0-3.3,12.8-20.2,17.2l-13.1-21.3
										L203.9,144.5z"/>
									<path id="Trazado_7188" class="st1" d="M128.6,144.5l-4.3-9.7c0,0-16.1,11.6-20.9,21.7c0,0,3.3,12.8,20.2,17.2l13-21.3
										L128.6,144.5z"/>
									<path id="Trazado_7189" class="st11" d="M193.2,36.1l0.1,12.3c0,0,0.2,13.2,1.2,14.8c0.6,1,1.3,0.5,1.3,0.5s6.3-4.7,7-10.9
										v-4.5c4.5-4.1,6.2-10.5,4.5-16.3c-2.8-10.3-1.1-23.7-14.3-26.6c0,0-12.9-8.8-25.2-4.5c0,0-24-0.8-30.3,10.4
										c0,0-10.9,16.6-6.3,28.8l2.3,5.7c0,0,3.7,15.5,5.5,15.5s4-12.1,3.1-21c-0.9-9,2.4-13.8,5.2-15.1c2.8-1.3,6,0.9,17.3,1.5
										c12.3,0.6,16.7-2.2,20.2-1.3C188.5,26.3,193.2,31.6,193.2,36.1z"/>
									<path id="Trazado_7190" class="st11" d="M158.7,40.4c0,0-0.5,4.9-2,5.7s-8.5,0.7-11.3,3.7c0,0-1.4-4.2,1.1-5.9
										C149.1,42.2,154.4,39.5,158.7,40.4z"/>
									<path id="Trazado_7191" class="st11" d="M176.2,39.8c0,0,0,4.9,1.5,5.9c1.5,1,8.4,1.5,10.9,4.8c0,0,1.8-4-0.5-5.9
										C185.8,42.7,180.7,39.3,176.2,39.8z"/>
									<path id="Trazado_7192" class="st12" d="M181.3,24.1c0,0,5.4-12.3,12.6-16.9c0,0-6.4-1.6-13.8,13.9
										C180.1,21,178.7,24.4,181.3,24.1z"/>
									<path id="Trazado_7193" class="st12" d="M175.6,24.1c0,0,1.2-15.7,7-23.2c0,0-7.4-0.1-9.5,20
										C173.3,20.9,173,25.3,175.6,24.1z"/>
									<path id="Trazado_7194" class="st12" d="M157.5,24.7c0,0-1.7-15.3-7-22.4c0,0,6.4-0.2,9,19.2
										C159.5,21.5,159.9,25.8,157.5,24.7z"/>
									<path id="Trazado_7195" class="st12" d="M152.2,23.5c0,0-2.7-12.8-7.9-18.3c0,0,5.4-0.8,9.3,15.5
										C153.5,20.7,154.2,24.3,152.2,23.5z"/>
									<path id="Trazado_7196" class="st11" d="M228.2,32.3c0,0,0.3,3.1-1.6,4.6c-2.4,2-26.6-5.2-26.6-5.2S226.4,27,228.2,32.3z"
										/>
									<path id="Trazado_7197" class="st11" d="M164.4,78.8c0,0,4.6-4.4,9.6-1.5c4.9,2.9,10.9,6.9,10.9,6.9s-4.7,2.3-9,0
										c-4.2-2.3-8.9-0.6-10.4-1.5S164.4,78.8,164.4,78.8z"/>
									<path id="Trazado_7198" class="st11" d="M165.9,78.8c0,0-4.6-4.4-9.6-1.5c-4.9,2.9-10.9,6.9-10.9,6.9s4.7,2.3,9,0
										c4.2-2.3,8.9-0.6,10.4-1.5S165.9,78.8,165.9,78.8z"/>
									<path id="Trazado_7199" class="st11" d="M164.8,96.2c0,0,5.2-1.6,7.2,2.2c2,3.8,0.7,12.3-2.6,14.9l-1.5-1.9l-0.7,4.1
										c0,0-2.2-2.6-2.6-3.9l-1.4,2.2C163.2,113.9,155.5,99.8,164.8,96.2z"/>
									<g id="Grupo_3500" transform="translate(25.437 123.978)">
										<g id="Grupo_3499" transform="translate(1.905)">
											<path id="Trazado_7200" class="st15" d="M133.8,57l0.3,94.2l-37.6-3.9l-0.2-97c0,0,4.9-12.2-2.9-38.5l20.3-8.2
												C113.9,3.6,125.8,50.4,133.8,57z"/>
											<g id="Grupo_3498" transform="translate(106.055 73.088)">
												<path id="Trazado_7201" class="st16" d="M-2,1.7l18.5,0.6L16.8,20l-8.9,4.7l-9.6-3.5L-2,1.7z"/>
												<path id="Trazado_7202" class="st17" d="M-2.6,6.1l9.9,2.9l10-2.7L17,1.5L-2.4,0.9L-2.6,6.1z"/>
												<path id="Trazado_7203" class="st15" d="M7.2,10.5l-0.1,10l-6.9-0.2l6.9,1.3l8-2.1l-6.9,0.9L7.2,10.5z"/>
												<circle id="Elipse_499" class="st18" cx="7.4" cy="5.9" r="0.7"/>
											</g>
											<path id="Trazado_7204" class="st17" d="M113.4,103.5l0.3,21.4C113.7,125,115.4,113.8,113.4,103.5z"/>
											<path id="Trazado_7205" class="st17" d="M114,42.5l-0.9,26.9C113.2,69.4,114.5,61.1,114,42.5z"/>
											<path id="Trazado_7206" class="st17" d="M96.3,146l38.6,3.9v2.7l-38.7-4.2L96.3,146z"/>
											<path id="Trazado_7207" class="st17" d="M115.6,0.4L133.8,57l-20.1-23.1l1-4.8L104.1,5.3L115.6,0.4z"/>
											<path id="Trazado_7208" class="st16" d="M123.3,121.2c0,0-4.8,13.4-18.2,18.2l1,2.9c0,0,15.3-4.8,20.1-20.1L123.3,121.2z
												"/>
											<path id="Trazado_7209" class="st17" d="M122.4,120.2c0,0-4.8,13.4-18.2,18.2l1,2.9c0,0,15.3-4.8,20.1-20.1L122.4,120.2z
												"/>
											<path id="Trazado_7210" class="st15" d="M97.4,11.9l-10.6,4.8c0,0-9.6,18.2-42.2,32.6C29.2,55.5,13.1,60-3.3,62.7L0.5,80
												c0,0,81.5-15.3,98.8-31.6L97.4,11.9z"/>
											<path id="Trazado_7211" class="st17" d="M101.2,8.1l1.9,3.8l-12.5,4.8h-3.8l2.9-4.8L101.2,8.1z"/>
											<path id="Trazado_7212" class="st17" d="M0.5,68.5c0,0,27.8-1.9,39.3-8.7l1.9,4.8c0,0-15.3,5.7-40.3,8.7L0.5,68.5z"/>
											<path id="Trazado_7213" class="st15" d="M1.5,71.2c0,0,28.9-4.1,34.6-8.1l0.8,1.6c0,0-21.7,6.9-35.4,7.3L1.5,71.2z"/>
										</g>
										<path id="Trazado_7214" class="st16" d="M-3.3,62.7l4.8,19.1h5.7l-4.8-21L-3.3,62.7z"/>
									</g>
									<g id="Grupo_3501" transform="translate(154.244 58.629)">
										<path id="Trazado_7215" class="st19" d="M7.6,7c0.8-1.4,1.4-2.9,1.8-4.4c0.6-2.2,1.5-3,3.6-2.4s5,16.6-5.7,19.2
											S-3,14.2-1.8,12.2S4.4,12.7,7.6,7z"/>
										<path id="Trazado_7216" class="st20" d="M7,18.6c9.3-2.4,8.1-14.6,6.2-18.3c2,2.1,4.3,16.4-5.7,19c-5.6,1.5-8.3,0-9.3-2
											C-0.5,18.9,2.1,19.8,7,18.6z"/>
									</g>
									<g id="Grupo_3502" transform="translate(177.844 51.668)">
										<path id="Trazado_7217" class="st21" d="M-2.3,4.5c-0.1,2.6,1.9,4.9,4.5,5s4.9-1.9,5-4.5s-1.9-4.8-4.5-5
											c-0.1,0-0.2,0-0.2,0C-0.1-0.2-2.2,1.8-2.3,4.5z"/>
										<path id="Trazado_7218" class="st1" d="M1.1,3.5C0.7,4,0.7,4.7,1.1,5.2c0.6,0.7-0.4,1.7-1,1c-0.9-0.9-1-2.3-0.2-3.4
											c0.2-0.3,0.6-0.4,1-0.3C1.2,2.7,1.3,3.2,1.1,3.5L1.1,3.5z"/>
									</g>
									<g id="Grupo_3503" transform="translate(150.28 51.668)">
										<path id="Trazado_7219" class="st21" d="M-2.5,4.5c-0.1,2.6,1.9,4.9,4.5,5S7,7.6,7.1,5s-1.9-4.8-4.5-5c-0.1,0-0.2,0-0.2,0
											C-0.2-0.2-2.4,1.8-2.5,4.5z"/>
										<path id="Trazado_7220" class="st1" d="M0.9,3.5C0.5,4,0.5,4.7,0.9,5.2c0.6,0.7-0.4,1.7-1,1c-0.9-0.9-1-2.3-0.2-3.4
											c0.2-0.3,0.6-0.4,1-0.3C1,2.7,1.1,3.2,0.9,3.5L0.9,3.5z"/>
									</g>
									<path id="Trazado_7221" class="st9" d="M326,194l-0.7-0.7c-0.5-0.5-0.4-1.2,0-1.7l5.2-5.9c0.5-0.5,1.2-0.4,1.7,0l1.5,1.6
										c0.5,0.5,0.4,1.2,0,1.7l-6,5.1C327.2,194.5,326.5,194.5,326,194z"/>
									<g id="Grupo_3505" transform="translate(158.3 84.13)">
										<g id="Grupo_3504" transform="translate(0 2.293)">
											<path id="Trazado_7222" class="st22" d="M7.4,5C5.7,5.8,3.6,5.7,2.1,4.7C2.1,4.7,4.6,7.5,7.4,5z"/>
											<path id="Trazado_7223" class="st23" d="M-1.6,0.2c0,0-0.8,0.1-0.5,0.8C-2.1,1-3,0.2-1.6,0.2z"/>
										</g>
										<path id="Trazado_7224" class="st24" d="M14.4,3c0,0,1.5-3.6-1.3-2.7C13.1,0.3,15,0.2,14.4,3z"/>
										<path id="Trazado_7225" class="st24" d="M14.6,1.1c0,0-8.4,8.8-16.3,2c0,0,5.3,5,15.6-2.4L14.6,1.1z"/>
									</g>
									<g id="Grupo_3507" transform="translate(140.482 49.258)">
										<path id="Trazado_7226" class="st25" d="M38.8,1.1c2,0.1,6.1,0.1,8.1,1.8c1.9,1.7,1.7,5.6,1.1,8c-0.6,2.3-1.7,5.8-5.7,7.2
											c-3.9,1.4-8.4,0.3-11.2-2.9c-2.7-3.1-4-8.3-2.3-11S36.6,1,38.8,1.1z"/>
										<path id="Trazado_7227" class="st25" d="M1.6,2.5c2-1.6,6-1.6,8.1-1.6c2.1-0.1,8.5,0.6,10.1,3.3c1.6,2.7,0.2,8-2.5,11
											C14.4,18.3,10,19.5,6,17.9c-4-1.5-5-5.1-5.6-7.3S-0.4,4.1,1.6,2.5z"/>
										<g id="Grupo_3506">
											<path id="Trazado_7228" class="st26" d="M-2.5,1.4v2.4c0.6,0.1,1,0.6,1.1,1.1c0.2,1,0.3,5.3,1.3,8c1,3,3.4,5.3,6.5,6.1
												c3.1,0.9,6.5,0.5,9.3-1.2c2-1.3,3.5-3.2,4.6-5.3C21.9,9.4,21.7,6,22.1,5C22.4,4.2,23.4,4,24.3,4c0.9,0,1.8,0.1,2,0.9
												c0.4,1,0.1,4.4,1.6,7.6c1,2.2,2.6,4,4.5,5.4c2.7,1.8,6.1,2.3,9.3,1.4c3.1-0.8,5.5-3,6.6-6c1.1-2.6,1.3-6.9,1.6-8
												c0.1-0.6,0.6-1,1.2-1.1V1.8c0,0-1-0.1-2-0.2c-1-0.1-5.9-1.5-8.9-1.5c-2.8-0.2-5.7,0.2-8.5,0.9c-2.2,0.6-3.4,1.5-4,1.4
												c-2.2-0.5-4.6-0.6-6.8-0.1c-0.6,0.1-1.8-0.8-4-1.4c-2.7-0.8-5.6-1.2-8.5-1.1c-3.1,0.1-8,1.3-9.1,1.4
												C-1.7,1.3-2.5,1.4-2.5,1.4z M28.7,4.2c1.6-2.7,8-3.3,10.1-3.1c2,0.1,6.1,0.1,8.1,1.8c1.9,1.7,1.7,5.6,1.1,8
												c-0.6,2.3-1.7,5.8-5.7,7.2c-3.9,1.4-8.4,0.3-11.2-2.9C28.3,12.2,27,7,28.7,4.2z M1.6,2.5c2-1.6,6-1.6,8.1-1.6
												c2.1-0.1,8.5,0.6,10.1,3.3c1.6,2.7,0.2,8-2.5,11C14.4,18.3,10,19.5,6,17.9c-4-1.5-5-5.1-5.6-7.3S-0.4,4.1,1.6,2.5
												L1.6,2.5z M48.9,6.4L60.4,11l0.5-2L49.3,4L48.9,6.4z"/>
											<path id="Trazado_7229" class="st27" d="M31,15.3c2.7,3.2,7.1,4.3,11.2,2.9s5.1-5,5.7-7.2c0.6-2.2,0.8-6.4-1.1-8.1
												c-1.9-1.6-6-1.7-8.1-1.8C36.6,1,30.3,1.6,28.7,4.2S28.3,12.2,31,15.3z"/>
											<path id="Trazado_7230" class="st27" d="M1.6,2.5c2-1.6,6-1.6,8.1-1.6c2.1-0.1,8.5,0.6,10.1,3.3c1.6,2.7,0.2,8-2.5,11
												C14.4,18.3,10,19.5,6,17.9c-4-1.5-5-5.1-5.6-7.3S-0.4,4.1,1.6,2.5z"/>
											<path id="Trazado_7231" class="st28" d="M35.8,1.2l9.3,15c-0.8,0.8-1.9,1.5-3,1.9c-0.7,0.2-1.4,0.4-2.1,0.5l-9.3-16
												C32.3,1.9,34,1.4,35.8,1.2z"/>
											<path id="Trazado_7232" class="st28" d="M29.6,3.2l9.6,15.5c-0.5,0-1.1,0-1.6,0L28.7,4.2C28.9,3.8,29.2,3.5,29.6,3.2z"/>
											<path id="Trazado_7233" class="st28" d="M9.8,0.7l6,15.9c-1.6,1.2-3.5,1.8-5.4,2L3.4,1.5C5.5,0.9,7.7,0.7,9.8,0.7z"/>
											<path id="Trazado_7234" class="st28" d="M2.6,1.8l6.5,16.8c-0.5,0-0.9-0.1-1.4-0.2L1.6,2.3C1.9,2.1,2.3,1.9,2.6,1.8z"/>
										</g>
									</g>
									<g id="Grupo_3509" transform="translate(175.915 124.931)">
										<path id="Trazado_7235" class="st15" d="M-1.3,57l-0.3,94.2l37.6-3.9l0.2-96.9c0,0-4.9-12.2,2.9-38.5L18.7,3.7
											C18.7,3.7,6.8,50.4-1.3,57z"/>
										<g id="Grupo_3508" transform="translate(11.522 73.088)">
											<path id="Trazado_7236" class="st16" d="M16.9,1.7L-1.5,2.3L-1.8,20l8.9,4.7l9.6-3.5L16.9,1.7z"/>
											<path id="Trazado_7237" class="st17" d="M17.6,6.2L7.8,9.1l-10-2.6l0.3-4.8l19.3-0.7L17.6,6.2z"/>
											<path id="Trazado_7238" class="st15" d="M7.9,10.5l0.1,10l6.9-0.2L8,21.6l-8-2.1L7,20.3L7.9,10.5z"/>
											<circle id="Elipse_500" class="st18" cx="7.7" cy="6" r="0.7"/>
										</g>
										<path id="Trazado_7239" class="st17" d="M19.2,103.5L18.9,125C19,125,17.3,113.8,19.2,103.5z"/>
										<path id="Trazado_7240" class="st17" d="M18.6,42.5l0.9,26.9C19.5,69.4,18.2,61.1,18.6,42.5z"/>
										<path id="Trazado_7241" class="st17" d="M36.3,146l-38.6,3.9v2.7l38.7-4.1L36.3,146z"/>
										<path id="Trazado_7242" class="st17" d="M16.9,0.4L-1.3,57L18.9,34l-1-4.8L28.5,5.3L16.9,0.4z"/>
										<path id="Trazado_7243" class="st16" d="M9.3,121.2c0,0,4.8,13.4,18.2,18.2l-1,2.9c0,0-15.3-4.8-20.1-20.1L9.3,121.2z"/>
										<path id="Trazado_7244" class="st17" d="M10.3,120.2c0,0,4.8,13.4,18.2,18.2l-1,2.9c0,0-15.3-4.8-20.1-20.1L10.3,120.2z"
											/>
										<path id="Trazado_7245" class="st15" d="M35.2,11.9l10.6,4.8c0,0,9.6,18.2,42.2,32.6c15.5,6.1,31.5,10.7,47.9,13.4L132,80
											c0,0-81.5-15.3-98.8-31.6L35.2,11.9z"/>
										<path id="Trazado_7246" class="st17" d="M31.3,8.1l-1.9,3.8l12.5,4.8h3.8l-2.9-4.8L31.3,8.1z"/>
										<path id="Trazado_7247" class="st17" d="M132,68.5c0,0-27.8-1.9-39.3-8.7l-1.9,4.8c0,0,15.3,5.7,40.3,8.7L132,68.5z"/>
										<path id="Trazado_7248" class="st15" d="M131.2,71.2c0,0-28.9-4.1-34.6-8.1l-0.8,1.6c0,0,21.7,6.9,35.4,7.3V71.2z"/>
									</g>
									<path id="Trazado_7249" class="st16" d="M316.5,187.6l-4.8,19.1h-5.7l4.8-21.1L316.5,187.6z"/>
								</g>
								<g id="Grupo_3554" transform="translate(145.565 182.838)">
									<g id="Grupo_3518" transform="translate(306.201)">
										<path id="Trazado_7250" class="st29" d="M33.5,59.6l0.8,0.7c0.5,0.4,1.3,0.3,1.7-0.2l6-6.1c0.5-0.5,0.4-1.3-0.1-1.7
											l-1.7-1.5c-0.5-0.4-1.3-0.3-1.7,0.2l-5.1,6.8C32.9,58.3,33,59.1,33.5,59.6z"/>
										<path id="Trazado_7251" class="st30" d="M50.6,0.7l-1.2,50.7L2.7,52.9L-2.1,2.9L50.6,0.7z"/>
										<polygon class="st31" points="6.2,40.6 45,38.4 46,45.6 6.2,46.5 										"/>
										<g id="Grupo_3512" transform="translate(6.421 6.59)">
											<g id="Grupo_3511">
												<path id="Trazado_7252" class="st32" d="M-2,2.4c0-0.3,0.2-0.5,0.5-0.6l0,0l1.8-0.1c0.5-0.1,1,0.1,1.5,0.4
													c0.3,0.3,0.5,0.7,0.5,1.1l0,0C2.4,3.9,2,4.6,1.4,4.9l0.8,0.9c0.2,0,0.3,0.2,0.3,0.3c0,0.3-0.2,0.5-0.5,0.6l0,0
													c-0.2,0-0.4-0.1-0.6-0.2L0.2,5.2h-0.9l0.1,1.1c0,0.3-0.2,0.6-0.5,0.6s-0.6-0.2-0.6-0.5L-2,2.4z M0.4,4.2
													c0.5,0,0.8-0.4,0.8-0.8l0,0c0-0.5-0.4-0.7-0.9-0.7l-1.1,0.1l0.1,1.4H0.4z"/>
												<path id="Trazado_7253" class="st32" d="M3.2,2c0-0.3,0.2-0.6,0.5-0.6l0,0l2.8-0.2C6.8,1.2,7,1.4,7,1.7S6.9,2.2,6.6,2.2
													L4.4,2.4l0.1,1.1l1.9-0.2c0.3,0,0.5,0.2,0.5,0.5S6.7,4.3,6.4,4.3L4.5,4.5l0.1,1.4c0,0.3-0.2,0.6-0.5,0.6S3.6,6.3,3.5,6
													l0,0L3.2,2z"/>
												<path id="Trazado_7254" class="st32" d="M8,3.6L8,3.6C7.8,2.2,8.9,1,10.3,0.8h0.1c0.6-0.1,1.2,0.1,1.7,0.4
													c0.1,0.1,0.2,0.3,0.3,0.4c0,0.3-0.2,0.6-0.5,0.6l0,0c-0.1,0-0.2,0-0.3-0.1c-0.4-0.2-0.7-0.3-1.1-0.3
													C9.7,1.9,9.1,2.7,9.1,3.5l0,0l0,0C9.1,4.3,9.8,5,10.6,5c0,0,0,0,0.1,0c0.4,0,0.8-0.2,1.1-0.5c0.2-0.2,0.5-0.2,0.7,0
													c0.2,0.2,0.2,0.5,0,0.7l0,0c-1,1-2.7,1-3.8,0C8.3,4.8,8,4.3,8,3.6L8,3.6z"/>
											</g>
										</g>
										<g id="Grupo_3514" transform="translate(8.395 28.471)">
											<g id="Grupo_3513">
												<path id="Trazado_7255" class="st32" d="M-2,2.8c0-0.3,0.2-0.6,0.5-0.6l0,0h0.1c0.2,0,0.5,0.1,0.6,0.3l2.3,2.7L1.4,2.6
													C1.4,2.3,1.6,2,1.9,2c0.3,0,0.6,0.2,0.6,0.5l0.3,4c0,0.3-0.2,0.6-0.5,0.6l0,0l0,0C2,7.2,1.7,7.1,1.6,6.9l-2.4-2.7
													l0.2,2.7c0,0.3-0.2,0.6-0.5,0.6S-1.7,7.3-1.7,7l0,0L-2,2.8z"/>
												<path id="Trazado_7256" class="st32" d="M3.6,5.1L3.6,5.1C3.5,3.9,4.5,3,5.7,2.9c1.1,0,2,0.8,2.1,1.9l0,0
													C7.8,6,6.9,7,5.7,7C4.6,7.1,3.7,6.3,3.6,5.1L3.6,5.1z M6.8,4.9L6.8,4.9c0-0.6-0.5-1-1.1-1l0,0c-0.6,0-1,0.5-1,1V5l0,0
													c0,0.6,0.5,1,1.1,1l0,0C6.4,6,6.8,5.5,6.8,4.9L6.8,4.9L6.8,4.9z"/>
												<path id="Trazado_7257" class="st32" d="M8.6,3.3c0-0.3,0.2-0.6,0.5-0.6s0.6,0.2,0.6,0.5l0,0c0.2-0.4,0.6-0.7,1.1-0.7
													c0.5-0.1,0.9,0.2,1.1,0.5c0.3-0.4,0.7-0.7,1.2-0.7c0.8-0.1,1.3,0.4,1.4,1.3l0.1,2c0,0.3-0.2,0.6-0.5,0.6
													c-0.3,0-0.6-0.2-0.6-0.5L13.4,4c0-0.5-0.3-0.8-0.7-0.7s-0.6,0.5-0.6,1L12.2,6c0,0.3-0.2,0.6-0.5,0.6s-0.6-0.2-0.6-0.5
													L11,4.4c0-0.5-0.3-0.8-0.7-0.7C9.9,3.8,9.7,3.9,9.7,4.5l0.1,1.7c0,0.3-0.2,0.6-0.5,0.6S8.7,6.7,8.7,6.4L8.6,3.3z"/>
												<path id="Trazado_7258" class="st32" d="M15.3,1.5c0-0.3,0.2-0.6,0.5-0.6c0.3,0,0.6,0.2,0.6,0.5l0.1,1.5
													c0.2-0.4,0.7-0.7,1.2-0.7c1,0,1.9,0.8,1.9,1.8v0.1l0,0c0.2,1-0.5,1.9-1.5,2.1H18c-0.5,0-0.9-0.1-1.2-0.5l0,0
													c0,0.3-0.2,0.6-0.5,0.6c-0.3,0-0.6-0.2-0.6-0.5l0,0L15.3,1.5z M18.5,4.1L18.5,4.1c0-0.5-0.4-1-0.9-1c-0.5,0-1,0.4-1,0.9
													c0,0.1,0,0.2,0,0.2l0,0c0,0.5,0.4,1,0.9,1s1-0.4,1-0.9C18.5,4.3,18.5,4.2,18.5,4.1L18.5,4.1z"/>
												<path id="Trazado_7259" class="st32" d="M20.3,2.6c0-0.3,0.2-0.6,0.5-0.6c0.3,0,0.6,0.2,0.6,0.5l0,0v0.2
													c0.1-0.4,0.4-0.8,0.7-0.8c0.3,0,0.5,0.2,0.6,0.4c0,0,0,0,0,0.1c0,0.2-0.1,0.5-0.4,0.5c-0.5,0.2-0.8,0.6-0.8,1.4l0.1,1
													c0,0.3-0.2,0.6-0.5,0.6c-0.3,0-0.6-0.2-0.6-0.5L20.3,2.6z"/>
												<path id="Trazado_7260" class="st32" d="M25.3,5.7c-1.1,0.1-2-0.7-2.1-1.7c0,0,0-0.1,0-0.1l0,0c-0.1-1.1,0.6-2,1.7-2.1
													H25c1-0.1,1.9,0.7,2,1.7c0,0,0,0,0,0.1c0,0.3-0.2,0.5-0.4,0.6l0,0l-2.2,0.1c0.1,0.5,0.5,0.8,1,0.7
													c0.3,0,0.6-0.1,0.8-0.3c0.1-0.1,0.2-0.1,0.3-0.1c0.2,0,0.4,0.2,0.5,0.4l0,0c0,0.1,0,0.2-0.1,0.3
													C26.3,5.5,25.8,5.7,25.3,5.7z M25.9,3.4c0-0.4-0.4-0.8-0.9-0.8c-0.5,0-0.8,0.4-0.8,0.9L25.9,3.4z"/>
											</g>
										</g>
										<path id="Trazado_7288" class="st33" d="M33.7,58l14.9,92.5l-15.5,1.1l-9.7-92.8L33.7,58z"/>
										<g id="Grupo_3517" transform="translate(20.657 37.515)">
											<path id="Trazado_7289" class="st33" d="M-1.3,9.5c0-0.2-0.6-2.4-0.6-2.6c0-1.6,1.3-2.1,2.7-2.3l12-3.5
												c0.5-0.2,1-0.2,1.5-0.1c1.2,0.3,2,1.3,2.1,2.5l0.4,18.1c0,0.6-0.2,1.2-0.5,1.7c-1,1.6-2.2,1.7-3.5,1.9l-6.1,0.6
												c-3.4,0.6-4.3-0.9-4.5-2.4L-1.3,9.5z"/>
										</g>
										<polygon class="st31" points="4.4,16.6 44.9,14.4 46,21.6 4.5,22.4 										"/>
									</g>
									<g id="Grupo_3526" transform="translate(-47 32.63)">
										<path id="Trazado_7290" class="st34" d="M28.1,53.6l0.8,0.7c0.5,0.4,1.3,0.3,1.7-0.2l6-6.1c0.5-0.5,0.4-1.3-0.1-1.7
											l-1.7-1.5c-0.5-0.4-1.3-0.3-1.7,0.2L28,51.8C27.5,52.3,27.6,53.1,28.1,53.6z"/>
										<path id="Trazado_7329" class="st35" d="M28.3,48.5L41.1,132l-17.4,1.8L18,49.3L28.3,48.5z"/>
										<path id="Trazado_7251_3_" class="st30" d="M41.9,1.4l3.8,44.8L4.7,52l-9-43.6L41.9,1.4z"/>
										<polygon class="st31" points="6.5,39.8 40.6,34.2 42.1,40.4 7.2,45 										"/>
										<g id="Grupo_3512_3_" transform="translate(6.421 6.59)">
											<g id="Grupo_3511_3_">
												<path id="Trazado_7252_3_" class="st32" d="M-4.5,6.5c0-0.3,0.1-0.5,0.4-0.6l0,0l1.6-0.3c0.4-0.1,0.9,0,1.4,0.2
													c0.3,0.2,0.5,0.6,0.6,0.9l0,0c0.2,0.6-0.1,1.3-0.6,1.6l0.8,0.7c0.2,0,0.3,0.1,0.3,0.2c0,0.3-0.1,0.5-0.4,0.6l0,0
													c-0.2,0-0.4,0-0.6-0.1l-1.2-1L-3,8.9l0.2,1c0,0.3-0.1,0.6-0.4,0.6c-0.3,0-0.6-0.1-0.6-0.4L-4.5,6.5z M-2.2,7.9
													c0.4,0,0.7-0.4,0.6-0.8l0,0c0-0.4-0.4-0.6-0.9-0.5l-1,0.2L-3.1,8L-2.2,7.9z"/>
												<path id="Trazado_7253_3_" class="st32" d="M0.1,5.7c0-0.3,0.1-0.6,0.4-0.6l0,0L3,4.6c0.3,0,0.5,0.1,0.5,0.4
													c0,0.3,0,0.5-0.3,0.5L1.2,5.9l0.2,1l1.7-0.4c0.3,0,0.5,0.1,0.5,0.4c0,0.3-0.1,0.5-0.4,0.5L1.5,7.8L1.7,9
													c0,0.3-0.1,0.6-0.4,0.6S0.9,9.4,0.8,9.2l0,0L0.1,5.7z"/>
												<path id="Trazado_7254_3_" class="st32" d="M4.4,6.6L4.4,6.6C4.1,5.4,5,4.2,6.2,3.9l0.1,0c0.5-0.1,1.1,0,1.5,0.2
													C7.9,4.2,8,4.4,8.1,4.4C8.2,4.7,8,5,7.8,5l0,0C7.7,5,7.6,5,7.5,5c-0.4-0.1-0.7-0.2-1-0.2C5.8,5,5.3,5.7,5.4,6.4l0,0l0,0
													c0.1,0.7,0.8,1.3,1.5,1.2c0,0,0,0,0.1,0c0.4,0,0.7-0.3,0.9-0.6C8,6.9,8.3,6.8,8.5,7c0.2,0.2,0.2,0.4,0.1,0.6l0,0
													C7.8,8.6,6.3,8.8,5.2,8C4.8,7.7,4.5,7.3,4.4,6.6L4.4,6.6z"/>
											</g>
										</g>
										<g id="Grupo_3514_3_" transform="translate(8.395 28.471)">
											<g id="Grupo_3513_3_">
												<path id="Trazado_7255_3_" class="st32" d="M-2.5,3.1c0-0.3,0.1-0.6,0.4-0.6l0,0l0.1,0c0.2,0,0.5,0,0.6,0.2l2.3,2.2
													L0.5,2.6c0-0.3,0.1-0.6,0.4-0.6c0.3,0,0.6,0.1,0.6,0.4L2.1,6c0,0.3-0.1,0.6-0.4,0.6l0,0l0,0c-0.3,0-0.5,0-0.7-0.2
													l-2.4-2.2l0.4,2.4c0,0.3-0.1,0.6-0.4,0.6S-1.8,7-1.9,6.7l0,0L-2.5,3.1z"/>
												<path id="Trazado_7256_3_" class="st32" d="M2.7,4.6L2.7,4.6c-0.2-1.1,0.6-2,1.6-2.1c1-0.1,1.9,0.5,2,1.5l0,0
													C6.4,5,5.7,5.9,4.6,6C3.7,6.2,2.9,5.6,2.7,4.6L2.7,4.6z M5.4,4.2L5.4,4.2C5.3,3.6,4.8,3.3,4.3,3.4l0,0
													c-0.5,0.1-0.8,0.5-0.8,1l0,0.1l0,0C3.6,5,4.1,5.3,4.6,5.2l0,0C5.1,5.2,5.4,4.7,5.4,4.2L5.4,4.2L5.4,4.2z"/>
												<path id="Trazado_7257_3_" class="st32" d="M6.8,2.6C6.8,2.3,6.9,2,7.2,2c0.3,0,0.6,0.1,0.6,0.4l0,0
													C7.9,2,8.3,1.7,8.7,1.6c0.4-0.1,0.8,0.1,1,0.3c0.2-0.4,0.6-0.7,1-0.7c0.7-0.2,1.2,0.2,1.4,1L12.4,4
													c0,0.3-0.1,0.6-0.4,0.6s-0.6-0.1-0.6-0.4l-0.3-1.5c0-0.4-0.3-0.7-0.7-0.6C10.1,2.3,10,2.7,10,3.1l0.3,1.5
													c0,0.3-0.1,0.6-0.4,0.6c-0.3,0-0.6-0.1-0.6-0.4L9.1,3.3c0-0.4-0.3-0.7-0.7-0.6S7.9,3,7.9,3.5L8.2,5
													c0,0.3-0.1,0.6-0.4,0.6c-0.3,0-0.6-0.1-0.6-0.4L6.8,2.6z"/>
												<path id="Trazado_7258_3_" class="st32" d="M12.6,0.3c0-0.3,0.1-0.6,0.4-0.6c0.3,0,0.6,0.1,0.6,0.4l0.2,1.3
													c0.1-0.4,0.6-0.7,1-0.7c0.9-0.1,1.8,0.5,1.9,1.4l0,0.1l0,0c0.3,0.9-0.3,1.7-1.1,2l-0.1,0c-0.4,0-0.8,0-1.1-0.3l0,0
													c0,0.3-0.1,0.6-0.4,0.6c-0.3,0-0.6-0.1-0.6-0.4l0,0L12.6,0.3z M15.7,2.3L15.7,2.3c0-0.4-0.5-0.8-0.9-0.8
													c-0.4,0-0.8,0.5-0.8,0.9c0,0.1,0,0.2,0,0.2l0,0c0,0.4,0.5,0.8,0.9,0.8c0.4,0,0.8-0.5,0.8-0.9
													C15.7,2.5,15.7,2.4,15.7,2.3L15.7,2.3z"/>
												<path id="Trazado_7259_3_" class="st32" d="M17.1,0.8c0-0.3,0.1-0.6,0.4-0.6s0.6,0.1,0.6,0.4l0,0l0,0.2
													c0-0.4,0.3-0.7,0.5-0.8c0.3,0,0.5,0.1,0.6,0.3c0,0,0,0,0,0.1c0,0.2,0,0.5-0.3,0.5c-0.4,0.2-0.7,0.6-0.6,1.3l0.2,0.9
													c0,0.3-0.1,0.6-0.4,0.6s-0.6-0.1-0.6-0.4L17.1,0.8z"/>
												<path id="Trazado_7260_3_" class="st32" d="M21.8,3.1c-1,0.2-1.8-0.4-2-1.3c0,0,0-0.1,0-0.1l0,0c-0.2-1,0.3-1.8,1.3-2
													l0.1,0C22-0.5,22.9,0.1,23.1,1c0,0,0,0,0,0.1c0,0.3-0.1,0.5-0.3,0.6l0,0l-1.9,0.3c0.1,0.4,0.5,0.7,1,0.5
													c0.3,0,0.5-0.1,0.7-0.3C22.6,2,22.7,2,22.8,2c0.2,0,0.4,0.1,0.5,0.3l0,0c0,0.1,0,0.2-0.1,0.3C22.7,2.8,22.2,3,21.8,3.1z
													 M22.1,1c0-0.4-0.4-0.7-0.9-0.6c-0.4,0-0.7,0.4-0.6,0.9L22.1,1z"/>
											</g>
										</g>
										<polygon class="st31" points="2.7,19.8 38.2,14 39.8,20.2 3.3,25 										"/>
										<g id="Grupo_3525" transform="translate(17.654 31.335)">
											<path id="Trazado_7330" class="st35" d="M-3.7,9.7c0-0.2-0.6-2.4-0.6-2.6C-4.3,5.5-3,5-1.6,4.8l12-3.5
												c0.5-0.2,1-0.2,1.5-0.1c1.2,0.3,2,1.3,2.1,2.5l0.4,18.1c0,0.6-0.2,1.2-0.5,1.7c-1,1.6-2.2,1.7-3.5,1.9L4.2,26
												c-3.4,0.6-4.3-0.9-4.5-2.4L-3.7,9.7z"/>
										</g>
									</g>
									<g id="Grupo_3535" transform="translate(534.712 25.771)">
										<path id="Trazado_7331" class="st36" d="M20.8,60.6L20,61.3c-0.5,0.5-1.3,0.4-1.8-0.1l-6.1-6c-0.5-0.5-0.4-1.3,0.1-1.8
											l1.8-1.6c0.5-0.5,1.3-0.4,1.8,0.1l5.1,6.9C21.4,59.4,21.4,60.2,20.8,60.6z"/>
										<path id="Trazado_7251_5_" class="st30" d="M48,10.2l-4.2,44.5L2.7,53.1L1.6,9L48,10.2z"/>
										<polygon class="st31" points="6.7,41.6 40.9,42 41.3,48.4 6.4,46.7 										"/>
										<g id="Grupo_3512_5_" transform="translate(6.421 6.59)">
											<g id="Grupo_3511_5_">
												<path id="Trazado_7252_5_" class="st32" d="M0.5,8.1c0-0.3,0.2-0.4,0.5-0.5l0,0l1.6,0C3,7.5,3.4,7.7,3.9,8
													c0.2,0.3,0.4,0.7,0.4,1l0,0c0,0.6-0.4,1.2-0.9,1.4L4,11.3c0.2,0,0.3,0.2,0.2,0.3c0,0.3-0.2,0.4-0.5,0.5l0,0
													c-0.2,0-0.3-0.1-0.5-0.2l-1-1.2l-0.8-0.1l0,1c0,0.3-0.2,0.5-0.5,0.5c-0.3,0-0.5-0.2-0.5-0.5L0.5,8.1z M2.5,9.8
													c0.4,0,0.7-0.3,0.8-0.7l0,0c0-0.4-0.3-0.6-0.8-0.7l-1,0l0,1.2L2.5,9.8z"/>
												<path id="Trazado_7253_5_" class="st32" d="M5.1,8c0-0.3,0.2-0.5,0.5-0.5l0,0l2.5,0c0.3,0,0.4,0.2,0.4,0.5
													c0,0.3-0.1,0.4-0.4,0.4l-2,0l0,1l1.7-0.1c0.3,0,0.4,0.2,0.4,0.5c0,0.3-0.2,0.4-0.5,0.4l-1.7,0.1l0,1.2
													c0,0.3-0.2,0.5-0.5,0.5c-0.3,0-0.4-0.2-0.5-0.5l0,0L5.1,8z"/>
												<path id="Trazado_7254_5_" class="st32" d="M9.2,9.7L9.2,9.7c-0.1-1.3,1-2.2,2.2-2.3l0.1,0c0.5-0.1,1.1,0.2,1.5,0.5
													C13,8,13.1,8.1,13.2,8.2c0,0.3-0.2,0.5-0.5,0.5l0,0c-0.1,0-0.2,0-0.3-0.1c-0.3-0.2-0.6-0.3-1-0.3
													c-0.7,0-1.3,0.7-1.3,1.4l0,0l0,0c0,0.7,0.5,1.4,1.2,1.4c0,0,0,0,0.1,0c0.4,0,0.7-0.1,1-0.4c0.2-0.2,0.5-0.1,0.6,0
													c0.2,0.2,0.1,0.5,0,0.6l0,0c-0.9,0.8-2.5,0.7-3.4-0.2C9.4,10.8,9.1,10.4,9.2,9.7L9.2,9.7z"/>
											</g>
										</g>
										<g id="Grupo_3514_5_" transform="translate(8.395 28.471)">
											<g id="Grupo_3513_5_">
												<path id="Trazado_7255_5_" class="st32" d="M-0.9,4.9c0-0.3,0.2-0.5,0.5-0.5l0,0l0.1,0c0.2,0,0.4,0.1,0.5,0.3L2,7.3
													L2.1,5c0-0.3,0.2-0.5,0.5-0.5c0.3,0,0.5,0.2,0.5,0.5l0,3.6C3.1,8.8,2.9,9,2.6,9l0,0l0,0C2.3,9,2.1,8.9,2,8.7L0,6.2
													l0,2.4c0,0.3-0.2,0.5-0.5,0.5c-0.3,0-0.5-0.2-0.5-0.5l0,0L-0.9,4.9z"/>
												<path id="Trazado_7256_5_" class="st32" d="M3.9,7.3L3.9,7.3c0-1.1,0.9-1.8,1.9-1.8c1,0.1,1.7,0.8,1.7,1.8l0,0
													C7.4,8.4,6.6,9.1,5.5,9C4.6,9.1,3.9,8.3,3.9,7.3L3.9,7.3z M6.6,7.3L6.6,7.3c0-0.5-0.4-0.9-0.9-1l0,0
													c-0.5,0-0.9,0.4-0.9,0.8l0,0.1l0,0c0,0.5,0.4,0.9,0.9,1l0,0C6.2,8.3,6.6,7.9,6.6,7.3L6.6,7.3L6.6,7.3z"/>
												<path id="Trazado_7257_5_" class="st32" d="M8.3,6c0-0.3,0.2-0.5,0.5-0.5c0.3,0,0.5,0.2,0.5,0.5l0,0
													c0.2-0.3,0.6-0.6,1-0.6c0.4-0.1,0.8,0.2,0.9,0.5c0.3-0.3,0.7-0.6,1.1-0.5c0.7,0,1.1,0.4,1.2,1.2l0,1.8
													c0,0.3-0.2,0.5-0.5,0.5c-0.3,0-0.5-0.2-0.5-0.5l0-1.5c0-0.4-0.2-0.7-0.6-0.7c-0.4,0.1-0.6,0.4-0.6,0.8l0,1.5
													c0,0.3-0.2,0.5-0.5,0.5c-0.3,0-0.5-0.2-0.5-0.5l0-1.5c0-0.4-0.2-0.7-0.6-0.7C9.4,6.6,9.3,6.6,9.2,7.2l0,1.5
													c0,0.3-0.2,0.5-0.5,0.5S8.2,9,8.2,8.7L8.3,6z"/>
												<path id="Trazado_7258_5_" class="st32" d="M14.4,4.9c0-0.3,0.2-0.5,0.5-0.5c0.3,0,0.5,0.2,0.5,0.5l0,1.3
													c0.2-0.3,0.7-0.6,1.1-0.5c0.9,0.1,1.6,0.8,1.6,1.7l0,0.1l0,0c0.1,0.9-0.6,1.7-1.5,1.8l-0.1,0c-0.4,0-0.8-0.1-1-0.5l0,0
													c0,0.3-0.2,0.5-0.5,0.5S14.4,9,14.4,8.7l0,0L14.4,4.9z M17,7.4L17,7.4c0-0.4-0.3-0.9-0.7-0.9c-0.4,0-0.9,0.3-0.9,0.7
													c0,0.1,0,0.2,0,0.2l0,0c0,0.4,0.3,0.9,0.7,0.9S17,8,17,7.5C17,7.5,17,7.4,17,7.4L17,7.4z"/>
												<path id="Trazado_7259_5_" class="st32" d="M18.7,6.1c0-0.3,0.2-0.5,0.5-0.5c0.3,0,0.5,0.2,0.5,0.5l0,0l0,0.2
													c0.1-0.3,0.4-0.7,0.7-0.7c0.3,0,0.4,0.2,0.5,0.4c0,0,0,0,0,0.1c0,0.2-0.1,0.4-0.4,0.4C20,6.7,19.7,7,19.7,7.7l0,0.9
													c0,0.3-0.2,0.5-0.5,0.5c-0.3,0-0.5-0.2-0.5-0.5L18.7,6.1z"/>
												<path id="Trazado_7260_5_" class="st32" d="M22.9,9.2c-1,0-1.7-0.7-1.8-1.6c0,0,0-0.1,0-0.1l0,0c0-1,0.7-1.7,1.6-1.8
													l0.1,0c0.9,0,1.6,0.7,1.7,1.6c0,0,0,0,0,0.1c0,0.3-0.2,0.4-0.4,0.5l0,0l-2,0c0.1,0.4,0.4,0.7,0.8,0.7
													c0.3,0,0.5-0.1,0.7-0.2c0.1-0.1,0.2-0.1,0.3-0.1c0.2,0,0.3,0.2,0.4,0.4l0,0c0,0.1,0,0.2-0.1,0.3
													C23.8,9.1,23.3,9.2,22.9,9.2z M23.5,7.2c0-0.4-0.3-0.7-0.7-0.8c-0.4,0-0.7,0.3-0.8,0.7L23.5,7.2z"/>
											</g>
										</g>
										<polygon class="st31" points="6.4,21.4 42.2,21.9 42.6,28.3 6.1,26.5 										"/>
										<path id="Trazado_7368" class="st37" d="M20.7,55.4L6.9,122.8l16.4-1.2l7.6-65.4L20.7,55.4z"/>
										<g id="Grupo_3534" transform="translate(17.276 38.275)">
											<path id="Trazado_7369" class="st37" d="M17.8,9.7c0-0.2,0.6-2.4,0.6-2.5c0-1.6-1.3-2.1-2.7-2.3L3.6,1.3
												c-0.4-0.1-0.9-0.1-1.4,0C1,1.6,0.2,2.6,0.1,3.8l-0.5,18c0,0.6,0.2,1.2,0.5,1.7c1,1.6,2.2,1.7,3.5,1.9L9.8,26
												c3.4,0.6,4.3-0.9,4.5-2.4L17.8,9.7z"/>
										</g>
									</g>
									<g id="Grupo_3541" transform="translate(183.846 24.98)">
										<path id="Trazado_7370" class="st34" d="M16.7,59.6l-0.9,0.5c-0.6,0.3-1.4,0.1-1.7-0.5l-4.7-7.1c-0.4-0.6-0.2-1.3,0.4-1.7
											l1.9-1.1c0.6-0.3,1.3-0.1,1.7,0.5l3.7,7.8C17.4,58.5,17.2,59.3,16.7,59.6z"/>
										<path id="Trazado_7407" class="st35" d="M17.3,53.7l-8.1,67h12.9l5.4-66.2L17.3,53.7z"/>
										<path id="Trazado_7251_1_" class="st30" d="M48.7,5.6l-9,50l-46.4-5.8l3-50.1L48.7,5.6z"/>
										<polygon class="st31" points="-1.3,38.2 37.4,42 37.2,49.2 -2.1,44 										"/>
										<g id="Grupo_3512_1_" transform="translate(6.421 6.59)">
											<g id="Grupo_3511_1_">
												<path id="Trazado_7252_1_" class="st32" d="M-4.6,0c0-0.3,0.3-0.5,0.6-0.5l0,0l1.8,0.2c0.5,0,1,0.3,1.4,0.6
													c0.3,0.3,0.4,0.8,0.3,1.2l0,0c0,0.7-0.5,1.3-1.2,1.6l0.7,1c0.2,0,0.3,0.2,0.3,0.3c0,0.3-0.3,0.5-0.6,0.5l0,0
													c-0.2,0-0.4-0.2-0.6-0.3l-1-1.5L-3.8,3l-0.1,1.1c0,0.3-0.3,0.6-0.6,0.5c-0.3,0-0.6-0.3-0.5-0.6L-4.6,0z M-2.5,2.2
													C-2,2.3-1.7,1.9-1.6,1.5l0,0C-1.5,1-1.9,0.8-2.4,0.7l-1.1-0.1L-3.6,2L-2.5,2.2z"/>
												<path id="Trazado_7253_1_" class="st32" d="M0.6,0.5c0-0.3,0.3-0.6,0.6-0.5l0,0L4,0.2c0.3,0,0.5,0.3,0.4,0.6
													C4.4,1,4.3,1.2,4,1.2L1.7,1L1.7,2.1l1.9,0.1c0.3,0,0.5,0.3,0.4,0.6c0,0.3-0.3,0.5-0.6,0.4L1.5,3.1L1.4,4.5
													c0,0.3-0.3,0.6-0.6,0.5C0.5,5,0.4,4.8,0.3,4.5l0,0L0.6,0.5z"/>
												<path id="Trazado_7254_1_" class="st32" d="M5,2.8L5,2.8c0-1.4,1.3-2.4,2.7-2.4l0.1,0C8.5,0.3,9,0.6,9.5,1
													c0.1,0.1,0.2,0.3,0.2,0.4C9.7,1.8,9.4,2,9.1,2l0,0C9,2,8.9,1.9,8.9,1.8c-0.4-0.3-0.7-0.4-1-0.5C7,1.3,6.3,2,6.2,2.8l0,0
													l0,0C6,3.6,6.6,4.4,7.4,4.6c0,0,0,0,0.1,0c0.4,0.1,0.8-0.1,1.2-0.3c0.2-0.2,0.5-0.1,0.7,0.1c0.2,0.2,0.1,0.5-0.1,0.7
													l0,0C8.1,5.9,6.4,5.6,5.5,4.5C5.2,4,4.9,3.5,5,2.8L5,2.8z"/>
											</g>
										</g>
										<g id="Grupo_3514_1_" transform="translate(8.395 28.471)">
											<g id="Grupo_3513_1_">
												<path id="Trazado_7255_1_" class="st32" d="M-8.1,0.5C-8,0.2-7.8,0-7.5,0l0,0l0.1,0c0.2,0,0.5,0.2,0.6,0.4l1.9,3
													l0.3-2.6c0-0.3,0.3-0.6,0.6-0.5s0.6,0.3,0.5,0.6l-0.3,4c0,0.3-0.3,0.6-0.6,0.5l0,0l0,0c-0.3,0-0.6-0.2-0.7-0.4l-2-3.1
													l-0.2,2.7c0,0.3-0.3,0.6-0.6,0.5c-0.3,0-0.6-0.3-0.5-0.6l0,0L-8.1,0.5z"/>
												<path id="Trazado_7256_1_" class="st32" d="M-2.8,3.7L-2.8,3.7c0.1-1.2,1.2-2,2.3-1.9C0.6,2,1.4,2.9,1.3,4l0,0
													C1.1,5.2,0.1,6-1.1,5.8C-2.1,5.7-2.9,4.8-2.8,3.7L-2.8,3.7z M0.3,4L0.3,4c0.1-0.6-0.3-1.1-0.9-1.2l0,0
													c-0.6-0.1-1.1,0.3-1.1,0.8l0,0.1l0,0c-0.1,0.6,0.3,1.1,0.9,1.2l0,0C-0.3,5,0.2,4.6,0.3,4L0.3,4L0.3,4z"/>
												<path id="Trazado_7257_1_" class="st32" d="M2.3,2.7c0-0.3,0.3-0.6,0.6-0.5s0.6,0.3,0.5,0.6l0,0
													c0.3-0.4,0.7-0.6,1.2-0.5c0.5,0,0.9,0.3,1,0.7C6,2.5,6.5,2.3,6.9,2.4c0.8,0,1.2,0.6,1.2,1.5l-0.2,2
													c0,0.3-0.3,0.6-0.6,0.5C7,6.3,6.8,6.1,6.8,5.8L7,4.1c0.1-0.5-0.2-0.8-0.6-0.8C6,3.3,5.7,3.7,5.6,4.2L5.5,5.9
													c0,0.3-0.3,0.6-0.6,0.5c-0.3,0-0.6-0.3-0.5-0.6l0.2-1.7c0.1-0.5-0.2-0.8-0.6-0.8S3.3,3.4,3.2,4L3.1,5.7
													C3,6,2.8,6.3,2.5,6.2C2.2,6.2,1.9,6,2,5.7L2.3,2.7z"/>
												<path id="Trazado_7258_1_" class="st32" d="M9.3,1.9c0-0.3,0.3-0.6,0.6-0.5s0.6,0.3,0.5,0.6l-0.1,1.5
													C10.5,3.1,11,2.9,11.5,3c1,0.2,1.8,1.1,1.6,2.1l0,0.1l0,0c0,1-0.8,1.8-1.8,1.9l-0.1,0c-0.5-0.1-0.9-0.2-1.1-0.7l0,0
													c0,0.3-0.3,0.6-0.6,0.5C9.2,6.8,8.9,6.5,9,6.2l0,0L9.3,1.9z M12,5L12,5c0.1-0.5-0.2-1.1-0.7-1.1
													c-0.5-0.1-1.1,0.2-1.1,0.7c0,0.1,0,0.2,0,0.2l0,0c-0.1,0.5,0.2,1.1,0.7,1.1C11.4,6,11.9,5.7,12,5.2C12,5.2,12,5.1,12,5
													L12,5z"/>
												<path id="Trazado_7259_1_" class="st32" d="M14.1,3.8c0-0.3,0.3-0.6,0.6-0.5s0.6,0.3,0.5,0.6l0,0l0,0.2
													c0.2-0.4,0.5-0.7,0.8-0.7c0.3,0,0.5,0.3,0.5,0.5c0,0,0,0,0,0.1c0,0.2-0.2,0.5-0.5,0.4c-0.5,0.1-0.9,0.5-1,1.3l-0.1,1
													c0,0.3-0.3,0.6-0.6,0.5c-0.3,0-0.6-0.3-0.5-0.6L14.1,3.8z"/>
												<path id="Trazado_7260_1_" class="st32" d="M18.5,7.6c-1.1-0.1-1.9-1-1.8-2c0,0,0-0.1,0-0.1l0,0c0.1-1.1,0.9-1.9,2-1.8
													l0.1,0c1,0.1,1.8,1,1.7,2c0,0,0,0,0,0.1c0,0.3-0.3,0.5-0.5,0.5l0,0l-2.2-0.2c0,0.5,0.4,0.9,0.9,0.9c0.3,0,0.6,0,0.8-0.2
													c0.1-0.1,0.2-0.1,0.3-0.1c0.2,0,0.4,0.3,0.4,0.5l0,0c0,0.1,0,0.2-0.1,0.3C19.5,7.6,19,7.7,18.5,7.6z M19.4,5.4
													c0.1-0.4-0.3-0.9-0.8-0.9c-0.5-0.1-0.9,0.3-0.9,0.8L19.4,5.4z"/>
											</g>
										</g>
										<polygon class="st31" points="0.6,14.2 41,18.2 40.9,25.5 -0.2,20 										"/>
										<g id="Grupo_3540" transform="translate(16.12 36.666)">
											<path id="Trazado_7408" class="st35" d="M15.5,9.7c0-0.2,0.6-2.4,0.6-2.5c0-1.6-1.3-2.1-2.7-2.3L1.3,1.2
												c-0.4-0.1-0.9-0.1-1.4,0c-1.2,0.3-2,1.3-2.1,2.5l-0.5,18c0,0.6,0.2,1.2,0.5,1.7c1,1.6,2.2,1.7,3.5,1.9L7.4,26
												c3.4,0.6,4.3-0.9,4.5-2.4L15.5,9.7z"/>
										</g>
									</g>
									<g id="Grupo_3547" transform="translate(417.354 66.685)">
										<path id="Trazado_7409" class="st34" d="M16.7,55.5L15.9,56c-0.6,0.3-1.3,0.1-1.5-0.5L10,48.9c-0.3-0.5-0.2-1.2,0.4-1.6
											l1.8-1c0.6-0.3,1.3-0.1,1.5,0.5l3.4,7.2C17.4,54.5,17.3,55.2,16.7,55.5z"/>
										<path id="Trazado_7446" class="st35" d="M17.3,50.1l-7.4,62.1h11.9l5-61.3L17.3,50.1z"/>
										<path id="Trazado_7251_4_" class="st30" d="M46.6,10.7l-8.5,41.6l-38.7-5.7L2.9,4.7L46.6,10.7z"/>
										<polygon class="st31" points="4.4,36 36.7,40 36.4,46.1 3.6,40.9 										"/>
										<g id="Grupo_3512_4_" transform="translate(6.421 6.59)">
											<g id="Grupo_3511_4_">
												<path id="Trazado_7252_4_" class="st32" d="M0.9,4c0-0.2,0.2-0.4,0.5-0.4l0,0l1.5,0.2c0.4,0,0.8,0.2,1.2,0.6
													c0.2,0.3,0.3,0.7,0.3,1l0,0c0,0.6-0.5,1.1-1,1.3l0.5,0.9c0.2,0,0.2,0.2,0.2,0.3c0,0.2-0.2,0.4-0.5,0.4l0,0
													c-0.2,0-0.3-0.1-0.5-0.3L2.3,6.7L1.6,6.6L1.5,7.5C1.5,7.7,1.2,8,1,7.9S0.5,7.7,0.6,7.4L0.9,4z M2.6,5.9
													C3.1,6,3.4,5.7,3.4,5.3l0,0c0.1-0.4-0.2-0.6-0.6-0.7L1.9,4.5L1.7,5.7L2.6,5.9z"/>
												<path id="Trazado_7253_4_" class="st32" d="M5.3,4.5c0-0.2,0.3-0.5,0.5-0.4l0,0l2.4,0.3c0.2,0,0.4,0.2,0.3,0.5
													c0,0.2-0.2,0.4-0.4,0.4L6.2,5L6.1,5.9L7.8,6c0.2,0,0.4,0.2,0.3,0.5c0,0.2-0.2,0.4-0.5,0.3L6,6.7L5.9,7.9
													c0,0.2-0.3,0.5-0.5,0.4C5.1,8.3,5,8.1,4.9,7.8l0,0L5.3,4.5z"/>
												<path id="Trazado_7254_4_" class="st32" d="M9,6.5L9,6.5c0-1.2,1.1-2,2.3-2l0.1,0c0.5,0,1,0.3,1.4,0.6
													c0.1,0.1,0.1,0.3,0.2,0.4c0,0.2-0.3,0.5-0.5,0.4l0,0c-0.1,0-0.2,0-0.2-0.1c-0.3-0.2-0.5-0.4-0.9-0.4
													c-0.7,0-1.3,0.5-1.4,1.2l0,0l0,0c-0.1,0.7,0.4,1.3,1,1.5c0,0,0,0,0.1,0c0.3,0.1,0.7,0,1-0.3c0.2-0.1,0.4-0.1,0.6,0.1
													s0.1,0.4-0.1,0.6l0,0c-1,0.7-2.4,0.4-3.2-0.6C9,7.5,8.8,7.1,9,6.5L9,6.5z"/>
											</g>
										</g>
										<g id="Grupo_3514_4_" transform="translate(8.395 28.471)">
											<g id="Grupo_3513_4_">
												<path id="Trazado_7255_4_" class="st32" d="M-2.5-0.1c0-0.2,0.3-0.5,0.5-0.4l0,0l0.1,0c0.2,0,0.4,0.2,0.5,0.3l1.5,2.6
													l0.3-2.2c0-0.2,0.3-0.5,0.5-0.4s0.5,0.3,0.4,0.5L1,3.7c0,0.2-0.3,0.5-0.5,0.4l0,0l0,0C0.2,4.1,0,4-0.1,3.8l-1.6-2.6
													l-0.2,2.3c0,0.2-0.3,0.5-0.5,0.4c-0.2,0-0.5-0.3-0.4-0.5l0,0L-2.5-0.1z"/>
												<path id="Trazado_7256_4_" class="st32" d="M1.8,2.7L1.8,2.7c0.1-1,1.1-1.6,2-1.5c0.9,0.2,1.5,1,1.5,1.9l0,0
													C5.1,4,4.2,4.7,3.2,4.5C2.4,4.4,1.8,3.6,1.8,2.7L1.8,2.7z M4.5,3L4.5,3c0.1-0.5-0.3-0.9-0.8-1l0,0
													c-0.5-0.1-0.9,0.3-1,0.7l0,0.1l0,0C2.6,3.3,3,3.7,3.5,3.7l0,0C4,3.8,4.4,3.5,4.5,3L4.5,3L4.5,3z"/>
												<path id="Trazado_7257_4_" class="st32" d="M6.2,1.9c0-0.2,0.3-0.5,0.5-0.4c0.2,0,0.5,0.3,0.4,0.5l0,0
													c0.2-0.3,0.6-0.5,1-0.4c0.4,0,0.7,0.3,0.8,0.6c0.3-0.3,0.7-0.5,1.1-0.4c0.7,0,1,0.5,1,1.3l-0.2,1.7
													c0,0.2-0.3,0.5-0.5,0.4c-0.2,0-0.5-0.3-0.4-0.5l0.2-1.4c0.1-0.4-0.1-0.7-0.5-0.7S9,2.9,8.9,3.3L8.8,4.7
													c0,0.2-0.3,0.5-0.5,0.4C8,5.1,7.8,4.9,7.8,4.6L8,3.2c0.1-0.4-0.1-0.7-0.5-0.7S7,2.6,6.9,3.1L6.7,4.5
													c0,0.2-0.3,0.5-0.5,0.4C6,4.9,5.8,4.7,5.8,4.4L6.2,1.9z"/>
												<path id="Trazado_7258_4_" class="st32" d="M12,1.4c0-0.2,0.3-0.5,0.5-0.4c0.2,0,0.5,0.3,0.4,0.5l-0.1,1.3
													c0.2-0.3,0.7-0.5,1.1-0.4c0.8,0.1,1.5,0.9,1.3,1.8l0,0.1l0,0c0,0.9-0.7,1.5-1.6,1.5l-0.1,0c-0.4-0.1-0.7-0.2-0.9-0.6
													l0,0c0,0.2-0.3,0.5-0.5,0.4s-0.5-0.3-0.4-0.5l0,0L12,1.4z M14.3,4.1L14.3,4.1c0.1-0.4-0.2-0.9-0.6-1
													c-0.4-0.1-0.9,0.2-1,0.6c0,0.1,0,0.2,0,0.2l0,0c-0.1,0.4,0.2,0.9,0.6,1c0.4,0.1,0.9-0.2,1-0.6
													C14.3,4.2,14.3,4.1,14.3,4.1L14.3,4.1z"/>
												<path id="Trazado_7259_4_" class="st32" d="M16,3.1c0-0.2,0.3-0.5,0.5-0.4c0.2,0,0.5,0.3,0.4,0.5l0,0l0,0.2
													C17,3,17.3,2.7,17.6,2.8C17.8,2.8,18,3,18,3.2c0,0,0,0,0,0.1c0,0.2-0.2,0.4-0.4,0.4c-0.4,0.1-0.8,0.4-0.9,1l-0.1,0.8
													c0,0.2-0.3,0.5-0.5,0.4c-0.2,0-0.5-0.3-0.4-0.5L16,3.1z"/>
												<path id="Trazado_7260_4_" class="st32" d="M19.6,6.4c-0.9-0.1-1.6-0.9-1.5-1.7c0,0,0-0.1,0-0.1l0,0
													c0.1-0.9,0.8-1.6,1.7-1.5l0.1,0c0.8,0.1,1.5,0.9,1.4,1.7c0,0,0,0,0,0.1c0,0.2-0.2,0.4-0.4,0.4l0,0l-1.8-0.2
													c0,0.4,0.3,0.7,0.7,0.7c0.2,0,0.5,0,0.7-0.1c0.1-0.1,0.2-0.1,0.3,0c0.2,0,0.3,0.2,0.4,0.4l0,0c0,0.1,0,0.2-0.1,0.2
													C20.5,6.4,20,6.5,19.6,6.4z M20.4,4.6c0.1-0.3-0.2-0.7-0.6-0.8C19.4,3.7,19.1,4,19,4.4L20.4,4.6z"/>
											</g>
										</g>
										<polygon class="st31" points="6.2,16.9 39.9,21.1 39.7,27.2 5.4,21.7 										"/>
										<g id="Grupo_3546" transform="translate(14.929 33.956)">
											<path id="Trazado_7447" class="st35" d="M15.7,9.3c0-0.1,0.5-2.2,0.5-2.3c0-1.4-1.2-2-2.5-2.1L2.6,1.5
												c-0.5-0.1-1-0.1-1.4,0c-1.1,0.3-1.9,1.2-2,2.3l-0.4,16.7c0,0.6,0.1,1.1,0.4,1.6c0.7,1.1,1.9,1.8,3.2,1.7l5.7,0.6
												c3.2,0.6,4-0.8,4.2-2.2L15.7,9.3z"/>
										</g>
									</g>
									<g id="Grupo_3553" transform="translate(66.672 50.237)">
										<path id="Trazado_7448" class="st29" d="M26.5,54l0.8,0.7c0.5,0.4,1.3,0.3,1.7-0.2l6-6.1c0.5-0.5,0.4-1.3-0.1-1.7
											l-1.7-1.5c-0.5-0.4-1.3-0.3-1.7,0.2l-5.1,6.8C26,52.7,26,53.5,26.5,54z"/>
										<path id="Trazado_7251_2_" class="st30" d="M43.1-5.1l4.3,50.6L1.2,52L-9,2.8L43.1-5.1z"/>
										<polygon class="st31" points="3.3,39.4 41.7,33 43.4,40 4,45.2 										"/>
										<g id="Grupo_3512_2_" transform="translate(6.421 6.59)">
											<g id="Grupo_3511_2_">
												<path id="Trazado_7252_2_" class="st32" d="M-8.3,1.5c0-0.3,0.1-0.5,0.4-0.7l0,0l1.8-0.3c0.5-0.2,1,0,1.5,0.2
													c0.3,0.3,0.6,0.6,0.6,1l0,0c0.2,0.7-0.1,1.4-0.7,1.8l0.9,0.8c0.2,0,0.3,0.2,0.3,0.3c0,0.3-0.1,0.5-0.4,0.7l0,0
													c-0.2,0-0.4-0.1-0.6-0.1l-1.3-1.2l-0.9,0.1l0.2,1.1c0,0.3-0.1,0.6-0.4,0.7c-0.3,0-0.6-0.1-0.7-0.4L-8.3,1.5z M-5.7,3.1
													C-5.2,3-4.9,2.6-5,2.2l0,0C-5,1.7-5.5,1.5-6,1.6l-1.1,0.2l0.3,1.4L-5.7,3.1z"/>
												<path id="Trazado_7253_2_" class="st32" d="M-3.1,0.6c0-0.3,0.1-0.6,0.4-0.7l0,0l2.8-0.5c0.3,0,0.5,0.1,0.6,0.4
													c0,0.3,0,0.5-0.3,0.5l-2.2,0.4l0.2,1.1l1.9-0.4c0.3,0,0.5,0.1,0.6,0.4c0,0.3-0.1,0.5-0.4,0.6l-1.9,0.4l0.3,1.4
													c0,0.3-0.1,0.6-0.4,0.7s-0.5-0.1-0.7-0.4l0,0L-3.1,0.6z"/>
												<path id="Trazado_7254_2_" class="st32" d="M1.7,1.6L1.7,1.6c-0.4-1.4,0.6-2.7,2-3.1l0.1,0c0.6-0.2,1.2,0,1.7,0.2
													c0.1,0.1,0.2,0.3,0.3,0.4c0,0.3-0.1,0.6-0.4,0.7l0,0c-0.1,0-0.2,0-0.3-0.1C4.8-0.4,4.4-0.5,4-0.4
													C3.3-0.2,2.7,0.6,2.8,1.4l0,0l0,0c0.1,0.8,0.9,1.4,1.7,1.3c0,0,0,0,0.1,0c0.4,0,0.8-0.3,1-0.6c0.2-0.2,0.5-0.3,0.7-0.1
													c0.2,0.2,0.3,0.5,0.1,0.7l0,0C5.5,3.9,3.8,4,2.6,3.2C2.2,2.8,1.8,2.3,1.7,1.6L1.7,1.6z"/>
											</g>
										</g>
										<g id="Grupo_3514_2_" transform="translate(8.395 28.471)">
											<g id="Grupo_3513_2_">
												<path id="Trazado_7255_2_" class="st32" d="M-5.9,1.6C-5.9,1.3-5.7,1-5.4,1l0,0l0.1,0c0.2,0,0.5,0,0.6,0.2l2.6,2.4
													l-0.4-2.6c0-0.3,0.1-0.6,0.4-0.7c0.3,0,0.6,0.1,0.7,0.4l0.7,4c0,0.3-0.1,0.6-0.4,0.7l0,0l0,0c-0.3,0-0.6,0-0.7-0.2
													l-2.7-2.4L-4,5.5c0,0.3-0.1,0.6-0.4,0.7c-0.3,0-0.6-0.1-0.7-0.4l0,0L-5.9,1.6z"/>
												<path id="Trazado_7256_2_" class="st32" d="M0,3.3L0,3.3c-0.2-1.2,0.7-2.2,1.8-2.4c1.1-0.1,2.1,0.6,2.3,1.7l0,0
													c0.1,1.2-0.7,2.2-1.9,2.3C1.2,5.1,0.2,4.4,0,3.3L0,3.3z M3.1,2.8L3.1,2.8C3,2.2,2.5,1.8,1.9,1.9l0,0C1.3,2,0.9,2.5,1,3
													l0,0.1l0,0C1,3.7,1.6,4.1,2.2,4l0,0C2.8,3.9,3.1,3.4,3.1,2.8L3.1,2.8L3.1,2.8z"/>
												<path id="Trazado_7257_2_" class="st32" d="M4.7,1c0-0.3,0.1-0.6,0.4-0.7s0.6,0.1,0.7,0.4l0,0c0.2-0.4,0.5-0.8,1-0.8
													C7.3-0.2,7.7,0,8,0.3c0.3-0.4,0.6-0.8,1.1-0.8c0.8-0.2,1.3,0.3,1.5,1.1l0.3,2c0,0.3-0.1,0.6-0.4,0.7
													c-0.3,0-0.6-0.1-0.7-0.4L9.6,1.2C9.5,0.7,9.2,0.4,8.8,0.5C8.4,0.7,8.3,1.1,8.3,1.6l0.3,1.7c0,0.3-0.1,0.6-0.4,0.7
													C7.9,4,7.5,3.8,7.5,3.5L7.2,1.8C7.2,1.3,6.8,1,6.4,1.2C6.1,1.3,5.9,1.5,5.9,2.1l0.3,1.7c0,0.3-0.1,0.6-0.4,0.7
													S5.2,4.3,5.1,4L4.7,1z"/>
												<path id="Trazado_7258_2_" class="st32" d="M11.2-1.6c0-0.3,0.1-0.6,0.4-0.7c0.3,0,0.6,0.1,0.7,0.4l0.3,1.5
													c0.2-0.4,0.6-0.8,1.1-0.8c1-0.1,2,0.6,2.1,1.6l0,0.1l0,0c0.3,1-0.3,2-1.3,2.3l-0.1,0c-0.5,0.1-0.9,0-1.3-0.4l0,0
													c0,0.3-0.1,0.6-0.4,0.7c-0.3,0-0.6-0.1-0.7-0.4l0,0L11.2-1.6z M14.7,0.7L14.7,0.7c-0.1-0.5-0.5-1-1-0.9s-1,0.5-0.9,1
													c0,0.1,0,0.2,0,0.2l0,0c0.1,0.5,0.5,1,1,0.9c0.5-0.1,1-0.5,0.9-1C14.7,0.9,14.7,0.8,14.7,0.7L14.7,0.7z"/>
												<path id="Trazado_7259_2_" class="st32" d="M16.3-1c0-0.3,0.1-0.6,0.4-0.7c0.3,0,0.6,0.1,0.7,0.4l0,0l0,0.2
													c0.1-0.4,0.3-0.8,0.6-0.9s0.5,0.1,0.6,0.3c0,0,0,0,0,0.1c0,0.2,0,0.5-0.3,0.5c-0.5,0.3-0.7,0.7-0.6,1.5l0.2,1
													c0,0.3-0.1,0.6-0.4,0.7c-0.3,0-0.6-0.1-0.7-0.4L16.3-1z"/>
												<path id="Trazado_7260_2_" class="st32" d="M21.6,1.6c-1.1,0.2-2.1-0.5-2.3-1.5c0,0,0-0.1,0-0.1l0,0
													c-0.2-1.1,0.4-2.1,1.5-2.3l0.1,0c1-0.2,2,0.5,2.2,1.5c0,0,0,0,0,0.1c0,0.3-0.1,0.5-0.3,0.6l0,0l-2.2,0.3
													c0.2,0.5,0.6,0.7,1.1,0.6c0.3,0,0.6-0.2,0.8-0.4c0.1-0.1,0.2-0.1,0.3-0.1c0.2,0,0.4,0.2,0.5,0.3l0,0
													c0,0.1,0,0.2-0.1,0.3C22.5,1.3,22.1,1.5,21.6,1.6z M21.9-0.8c0-0.4-0.5-0.8-1-0.7s-0.8,0.5-0.7,1L21.9-0.8z"/>
											</g>
										</g>
										<polygon class="st31" points="-1.1,15.7 39,9.1 40.8,16.2 -0.3,21.5 										"/>
										<path id="Trazado_7485" class="st33" d="M26.7,48.8l8.8,67.5L21,115.9l-4.5-66.2L26.7,48.8z"/>
										<g id="Grupo_3552" transform="translate(15.381 31.6)">
											<path id="Trazado_7486" class="st33" d="M-3,9.8c0-0.2-0.6-2.4-0.6-2.6c0-1.6,1.3-2.1,2.7-2.3l12-3.5
												c0.5-0.2,1-0.2,1.5-0.1c1.2,0.3,2,1.3,2.1,2.5l0.4,18.1c0,0.6-0.2,1.2-0.5,1.7c-1,1.6-2.2,1.7-3.5,1.9L5,26.1
												c-3.4,0.6-4.3-0.9-4.5-2.4L-3,9.8z"/>
										</g>
									</g>
								</g>
							</g>
						</g>
					</g>
				</g>
			</g>
		</g>
	</g>
</g>
</svg>
