<?xml version="1.0" encoding="utf-8"?>
<!-- Generator: Adobe Illustrator 22.0.1, SVG Export Plug-In . SVG Version: 6.00 Build 0)  -->
<svg version="1.1" id="Capa_1" xmlns="http://www.w3.org/2000/svg" xmlns:xlink="http://www.w3.org/1999/xlink" x="0px" y="0px"
	 viewBox="0 0 500 500" style="enable-background:new 0 0 500 500;" xml:space="preserve">
<style type="text/css">
	.st0{fill:#3B3B3B;}
	.st1{fill:#333333;}
	.st2{fill:#1F1F1F;}
	.st3{fill:#FFFFFF;}
	.st4{fill:#222222;}
	.st5{fill:#2A2A2A;}
	.st6{fill:#1C1C1C;}
	.st7{fill:#FAFAF8;}
</style>
<g>
	<g>
		<path class="st0" d="M305.2,64C189.4,41.5,69.2,86.7,60.2,179.5c-6.3,65.5,12.2,89.4,2,129.4c-10.2,39.9-18.1,89.9,52.8,114.3
			c70.9,24.4,218.9,28.9,301.5-12.4c82.6-41.3,24.6-108.5,31.7-155.6C455.4,208,449.4,92.1,305.2,64z"/>
		<path class="st1" d="M204.4,245.1c-16.6,1.8-15.2-15.2-20.5-35.5c-5.4-20.3-34.9-48-73-25c-38.1,23-42.8,47.2-31.8,85.1
			c11.1,37.9,46.9,23.8,44.1,45.1c-2.8,21.3-18.9,64.9,12.5,90.2c43,34.7,135.2,34.7,200.1,5.2c34.5-15.7,4.5-76.5,14-86.3
			c9.5-9.8,71.1-2.5,70.1-56.2c-1-53.7-40.8-82.1-79.4-73.7c-38.5,8.3-43,26.4-43.9,49.1c-0.5,13.8-12,13.6-18.2,10.8
			C272.3,251.1,242.3,240.9,204.4,245.1z"/>
		<path d="M182.8,365.4c-20.2,30.4,85.8,39.4,95.1,15.3c9.3-24-36.5-88.6-43.5-87.1C227.4,295.1,195.7,338.2,182.8,365.4z"/>
		<path class="st2" d="M198.3,365.2c0,0-2.6,10.5,7.6,14.2c10.2,3.7,43.2,5.7,49.3,1.3c6.1-4.4,2.6-14.8,2.6-14.8L198.3,365.2z"/>
		<path class="st3" d="M176.9,238.2c1.5,24.1-15.9,44.7-38.9,46.1c-23,1.4-42.7-17-44.2-41.1c-1.5-24.1,15.9-44.7,38.9-46.1
			C155.7,195.7,175.4,214.1,176.9,238.2z"/>
		<path class="st4" d="M133.4,85.6C126.2,65,109.5,44.1,74,83.2C47,113,9.7,104.9,6.2,133c-3.5,28.2,33,35.4,38.3,68.6
			c5.3,33.1,40.3-5,45.7-46.3c5.4-41.4,28.8-60.9,28.8-60.9L133.4,85.6z"/>
		<path class="st4" d="M369.5,86.6c8.3-20.1,26-40.2,59.4,0.7c25.5,31.2,63.1,25.1,65.1,53.4c2,28.3-34.8,33.6-41.9,66.5
			c-7,32.8-40-7.1-43.2-48.7c-3.2-41.6-25.5-62.3-25.5-62.3L369.5,86.6z"/>
		<path class="st3" d="M401.6,253.4c1.5,24.1-15.9,44.7-38.9,46.1c-22.9,1.4-42.7-17-44.2-41.1c-1.5-24.1,15.9-44.7,38.9-46.1
			C380.3,210.9,400.1,229.3,401.6,253.4z"/>
		<path d="M391,255.2c1,17.1-11.9,31.7-29,32.8c-17.1,1-31.7-11.9-32.8-29c-1-17.1,12-31.7,29-32.8C375.3,225.1,390,238.1,391,255.2
			z"/>
		<path d="M163.9,244.4c-0.2,17.1-14.2,30.8-31.3,30.6c-17.1-0.2-30.8-14.2-30.6-31.3c0.2-17.1,14.2-30.8,31.3-30.6
			C150.4,213.3,164.1,227.3,163.9,244.4z"/>
		<path class="st2" d="M200.5,261.8c-27.7,7-85.5,45.2-86.3,81.6c-0.8,36.4,34.1,56.2,63,42.3c28.9-13.9,50.7-85.2,57.5-96.4
			C227.2,274.7,200.5,261.8,200.5,261.8z"/>
		<path class="st2" d="M231.9,292.3c1.5,12,22.4,46.6,30.4,71.3c8,24.7,33.2,37.2,63.1,23.7c29.9-13.5,42.2-44.8,15.2-74.7
			c-27-29.9-63.4-47.9-73.1-45.4C257.4,270.1,231.9,292.3,231.9,292.3z"/>
		<path d="M162.4,153.5c-0.4,1.1-4,0.5-9.6,0.2c-5.5-0.2-13,0.1-20.8,2.9c-7.8,2.7-14.3,6.8-19,10c-4.7,3.2-7.7,5.4-8.5,4.6
			c-0.7-0.6,0.8-4.1,5-8.7c4.1-4.5,10.9-10,20.1-13.1c4.5-1.6,9.1-2.3,13.3-2.4c4.2-0.1,7.9,0.6,10.9,1.4
			C159.8,150.2,162.8,152.6,162.4,153.5z"/>
		<path d="M388.9,180c-0.9,0.6-3.3-1.3-7.1-4.1c-3.8-2.8-9.1-6.3-15.6-9c-6.4-2.7-12.7-4.3-17.4-5.2c-4.6-1-7.7-1.5-7.8-2.6
			c-0.1-1,2.9-2.4,8.2-2.8c5.2-0.4,12.6,0.4,20,3.6c7.5,3.1,13.2,8,16.4,12.2c1.6,2.1,2.7,3.9,3.1,5.4
			C389.3,178.8,389.4,179.7,388.9,180z"/>
		<g>
			<path d="M198.9,259.3c0,0-0.1-14.5,31-12.6s39.6,11.3,41.7,17.1c2.1,5.8-2.6,35-39,32.6S198.9,259.3,198.9,259.3z"/>
			<path class="st5" d="M228.6,271.4c0,0-1.2-13.1-12.3-10.9c-7.7,1.5-1.8,23.9,5.2,26.2C228.5,289,228.9,278.1,228.6,271.4z"/>
			<path class="st5" d="M241.1,271.7c0,0,1.9-13,12.9-10.3c7.6,1.9,0.5,23.9-6.6,25.9S240.5,278.4,241.1,271.7z"/>
			<path class="st6" d="M235.7,249.8c0,0,16.5,0.1,22.9,5.4c0,0,0.4,3.6-9.9,1.1C238.4,253.7,234.1,253.2,235.7,249.8z"/>
		</g>
		<path class="st3" d="M117.8,251.8c-2.8,0-5.2-2.2-5.4-5c-1-14.1,8.4-21.4,13.5-23.3c2.8-1,5.9,0.4,6.9,3.2c1,2.8-0.4,5.8-3.1,6.9
			c-0.8,0.3-7.2,3.2-6.5,12.4c0.2,3-2,5.5-5,5.8C118,251.8,117.9,251.8,117.8,251.8z"/>
		<path class="st3" d="M346.6,264.1c-2.8,0-5.2-2.2-5.4-5c-1-14.1,8.4-21.4,13.5-23.3c2.8-1,5.9,0.4,6.9,3.2c1,2.8-0.4,5.8-3.1,6.9
			c-0.8,0.3-7.2,3.2-6.5,12.4c0.2,3-2,5.5-5,5.8C346.8,264,346.7,264.1,346.6,264.1z"/>
	</g>
	<path class="st7" d="M203.9,359.9c0,0-4-7.1,2.6-24.8c0,0,5.7,15.8,13.1,23.7C219.6,358.8,213.1,362.1,203.9,359.9z"/>
	<path class="st7" d="M217.4,343.7l-4.9,15c0,0,6.2,5.1,14.8,1.3L217.4,343.7z"/>
	<path class="st5" d="M202,354.3c9.4,0.9,36.1,3.2,55.6,1.2c2.5-0.3,4.8,0.8,6.2,2.9l0,0c2.8,4.1,0.4,9.6-4.4,10.4
		c-9.9,1.6-28.2,2.8-59.1-0.8c-5.4-0.6-7.9-7-4.3-11.1l0.3-0.4C197.7,354.9,199.8,354,202,354.3z"/>
</g>
</svg>
