<svg id="Grupo_34555" data-name="Grupo 34555" xmlns="http://www.w3.org/2000/svg" xmlns:xlink="http://www.w3.org/1999/xlink" width="700" height="320" viewBox="0 0 700 320">
  <defs>
    <clipPath id="clip-path">
      <rect id="Rectángulo_3777" data-name="Rectángulo 3777" width="700" height="320" fill="none"/>
    </clipPath>
    <linearGradient id="linear-gradient" x1="0.5" y1="1" x2="0.5" gradientUnits="objectBoundingBox">
      <stop offset="0" stop-color="#fff" stop-opacity="0"/>
      <stop offset="0.265" stop-color="#fff" stop-opacity="0.278"/>
      <stop offset="0.776" stop-color="#fff" stop-opacity="0.792"/>
      <stop offset="1" stop-color="#fff"/>
    </linearGradient>
    <linearGradient id="linear-gradient-2" x1="0.5" y1="1" x2="0.5" gradientUnits="objectBoundingBox">
      <stop offset="0" stop-color="#fff" stop-opacity="0"/>
      <stop offset="1" stop-color="#fff"/>
    </linearGradient>
  </defs>
  <g id="Grupo_34554" data-name="Grupo 34554" clip-path="url(#clip-path)">
    <g id="Grupo_34539" data-name="Grupo 34539">
      <rect id="Rectángulo_3772" data-name="Rectángulo 3772" width="712" height="343.613" transform="translate(-5 -15.613)" fill="#f1e8ff"/>
      <path id="Trazado_37104" data-name="Trazado 37104" d="M189.079-15.613h137.7L178.949,462.4H59.349Z" opacity="0.79" fill="url(#linear-gradient)"/>
      <path id="Trazado_37105" data-name="Trazado 37105" d="M89.035-15.613h57.7L15.613,462.4H-35.719Z" opacity="0.48" fill="url(#linear-gradient-2)"/>
      <path id="Trazado_37106" data-name="Trazado 37106" d="M457.806-15.613h23.12L349.8,462.4H333.052Z" opacity="0.48" fill="url(#linear-gradient-2)"/>
    </g>
    <g id="Grupo_34553" data-name="Grupo 34553" transform="translate(-8.858 13.229)">
      <path id="Trazado_37107" data-name="Trazado 37107" d="M256.909,271.378l-.318-1.072a1.294,1.294,0,0,1,.87-1.6l8.1-3.079a1.3,1.3,0,0,1,1.6.87l.686,2.309a1.3,1.3,0,0,1-.87,1.606l-8.467,1.84A1.3,1.3,0,0,1,256.909,271.378Z" transform="translate(-6.797 -33.514)" fill="#996e4f"/>
      <path id="Trazado_37108" data-name="Trazado 37108" d="M373.572,181.914s28.373,54.83,46.117,51.147,23.445-59.24,23.445-59.24h10.515s-8.937,65.853-31.768,72.324S362.8,192.6,362.8,192.6Z" transform="translate(-20.774 -21.446)" fill="#c19063"/>
      <path id="Trazado_37109" data-name="Trazado 37109" d="M455.761,165.95l-1.017-.465a1.294,1.294,0,0,1-.638-1.71l3-8.128a1.294,1.294,0,0,1,1.71-.638l2.192,1a1.294,1.294,0,0,1,.638,1.71l-4.175,7.592A1.3,1.3,0,0,1,455.761,165.95Z" transform="translate(-32.768 -18.956)" fill="#996e4f"/>
      <g id="Grupo_34540" data-name="Grupo 34540" transform="translate(418.551 137.022)">
        <path id="Trazado_37110" data-name="Trazado 37110" d="M471.672,175.052c.16-.037,2.435-.456,2.585-.521,1.45-.628,1.432-2.051.941-3.482l-1.775-12.459a2.8,2.8,0,0,0-.548-1.37,2.884,2.884,0,0,0-3.19-.92L452.96,163.46a3.134,3.134,0,0,0-1.358,1.159c-1.065,1.642-.684,2.712-.237,4.011l2.017,5.871c.864,3.41,2.62,3.64,4.128,3.12Z" transform="translate(-450.915 -156.142)" fill="#c19063"/>
      </g>
      <g id="Grupo_34550" data-name="Grupo 34550" transform="translate(204.858 10.771)">
        <path id="Trazado_37111" data-name="Trazado 37111" d="M256.206,183.417S215.4,211.12,205.792,230.8s58.072,46.028,58.072,46.028l6.587-8.65s-50.309-20.394-51.731-31.066S261.177,191.5,261.177,191.5Z" transform="translate(-204.858 -33.479)" fill="#c19063"/>
        <path id="Trazado_37112" data-name="Trazado 37112" d="M326.574,25.737s-3.792-15.166-31.718-14.965S248.73,40.5,255.2,73.864s3.449,35.5-1.309,45.654-12.442,33.606,8.184,49.585l44.241,1.015Z" transform="translate(-210.594 -10.771)" fill="#2f1b11"/>
        <path id="Trazado_37113" data-name="Trazado 37113" d="M282.532,38.315S300.07,21.755,328,21.958s32.38,19.952,28.749,52.417c-3.778,33.777-1.822,36.458,2.935,46.615s12.442,33.606-8.184,49.585l-44.241,1.015Z" transform="translate(-215.075 -12.242)" fill="#2f1b11"/>
        <g id="Grupo_34542" data-name="Grupo 34542" transform="translate(56.872 64.336)">
          <circle id="Elipse_724" data-name="Elipse 724" cx="6.041" cy="6.041" r="6.041" fill="#c19063"/>
          <circle id="Elipse_725" data-name="Elipse 725" cx="3.544" cy="3.544" r="3.544" transform="translate(2.497 2.497)" fill="#996e4f"/>
          <g id="Grupo_34541" data-name="Grupo 34541" transform="translate(0.79 9.186)">
            <circle id="Elipse_726" data-name="Elipse 726" cx="3.303" cy="3.303" r="3.303" fill="#4399ff"/>
            <path id="Trazado_37114" data-name="Trazado 37114" d="M274.963,95.428a3.348,3.348,0,0,0-.608.058,3.3,3.3,0,0,1,0,6.489,3.348,3.348,0,0,0,.608.058,3.3,3.3,0,1,0,0-6.606Z" transform="translate(-271.66 -95.428)" fill="#3386ff"/>
          </g>
        </g>
        <g id="Grupo_34544" data-name="Grupo 34544" transform="translate(122.079 64.336)">
          <circle id="Elipse_727" data-name="Elipse 727" cx="6.041" cy="6.041" r="6.041" fill="#c19063"/>
          <circle id="Elipse_728" data-name="Elipse 728" cx="3.544" cy="3.544" r="3.544" transform="translate(2.497 2.497)" fill="#996e4f"/>
          <g id="Grupo_34543" data-name="Grupo 34543" transform="translate(4.686 9.186)">
            <circle id="Elipse_729" data-name="Elipse 729" cx="3.303" cy="3.303" r="3.303" transform="translate(0)" fill="#4399ff"/>
            <path id="Trazado_37115" data-name="Trazado 37115" d="M354.125,95.428a3.349,3.349,0,0,1,.609.058,3.3,3.3,0,0,0,0,6.489,3.348,3.348,0,0,1-.609.058,3.3,3.3,0,1,1,0-6.606Z" transform="translate(-350.822 -95.428)" fill="#3386ff"/>
          </g>
        </g>
        <path id="Trazado_37116" data-name="Trazado 37116" d="M290.642,526.381s.25,9.764-6.008,13.181-10.092,4.872-17.914,10.2,30.471-.179,35.536-2.51.388-21.759.388-21.759Z" transform="translate(-212.857 -78.473)" fill="#c19063"/>
        <path id="Trazado_37117" data-name="Trazado 37117" d="M283.615,547.034l-3.024-1.716-5.424-.69s-19.343,8.5-19.231,11.081,8.736,5.329,19.138,3.637,23.75-3.282,27.542-5.539,1.8-11.95.885-15.826c0,0-3.151,1.939-7.246,8.66A17.107,17.107,0,0,1,283.615,547.034Z" transform="translate(-211.577 -80.115)" fill="#2d1607"/>
        <path id="Trazado_37118" data-name="Trazado 37118" d="M341.225,526.274s-.466,9.756,5.716,13.309,9.981,5.093,17.685,10.594-30.46-.849-35.473-3.292-.779-20.406-.779-20.406Z" transform="translate(-220.885 -78.575)" fill="#c19063"/>
        <path id="Trazado_37119" data-name="Trazado 37119" d="M346.34,546.867l3.06-1.65,5.438-.569s19.152,8.919,18.982,11.5-8.851,5.135-19.214,3.215-23.672-3.8-27.413-6.144-1.537-11.987-.536-15.842c0,0,3.106,2.008,7.054,8.817A17.107,17.107,0,0,0,346.34,546.867Z" transform="translate(-220.673 -80.035)" fill="#2d1607"/>
        <path id="Trazado_37120" data-name="Trazado 37120" d="M324.08,142.1v19.309l-21.215.663,2.669-20.584Z" transform="translate(-217.749 -27.964)" fill="#c19063"/>
        <path id="Trazado_37121" data-name="Trazado 37121" d="M324.31,149.681s-10.592,6.856-19.7.412l1.152-10.7L324.31,140Z" transform="translate(-217.979 -27.688)" fill="#996e4f"/>
        <path id="Trazado_37122" data-name="Trazado 37122" d="M363.353,292.249h0c-11.176-42.077-24.236-68.826-24.236-68.826,11.664-14.99,28.594-45.061-9.427-60.8l-.032.034c-21.927-9.46-41.862.089-41.872.241-37.178,15.808-20.636,45.618-9.038,60.522,0,0-13.805,27.517-24.982,69.594h0c-10.526,32.754,13.592,57.761,49.983,56.548h9.863C350.292,350.788,374.507,325.38,363.353,292.249Z" transform="translate(-210.965 -30.199)" fill="#c19063"/>
        <path id="Trazado_37123" data-name="Trazado 37123" d="M286.068,176.87s2.715-9.334-1.19-11.3-35.289,9.088-33.52,17.928,6.824,16.64,17.778,17.824S286.068,176.87,286.068,176.87Z" transform="translate(-210.965 -31.102)" fill="#efa878"/>
        <path id="Trazado_37124" data-name="Trazado 37124" d="M341.55,176.87s-2.714-9.334,1.19-11.3,35.289,9.088,33.52,17.928-6.824,16.64-17.778,17.824S341.55,176.87,341.55,176.87Z" transform="translate(-222.717 -31.102)" fill="#efa878"/>
        <path id="Trazado_37125" data-name="Trazado 37125" d="M286.557,503.923,251.869,342.942l-.007-.168c-.381-8.742,1.911-15.969,6.63-20.9a21.173,21.173,0,0,1,15.729-6.4,31.261,31.261,0,0,1,11.275,2.239c10.509,4.068,17.345,14.565,19.767,30.357a92.171,92.171,0,0,1,.55,22.288l-3.48,136.394Z" transform="translate(-211.035 -50.849)" fill="#2d1607"/>
        <path id="Trazado_37126" data-name="Trazado 37126" d="M326.354,507.218,321.8,370.362a92.176,92.176,0,0,1,.55-22.288c2.422-15.791,9.258-26.289,19.767-30.357a31.261,31.261,0,0,1,11.275-2.239,21.174,21.174,0,0,1,15.729,6.4c4.719,4.929,7.011,12.156,6.629,20.9l-.007.168L341.257,502.99Z" transform="translate(-220.183 -50.849)" fill="#2d1607"/>
        <path id="Trazado_37127" data-name="Trazado 37127" d="M341.99,363.647a173.613,173.613,0,0,0,17.62-4s8.95-38.394,8.782-56.37-28.379-80.38-28.379-80.38c9.232-8.235,10.615-20.829,10.615-20.829,19.722-10.5,14.22-24.6,14.22-24.6-13.146-11.645-30.835-15.667-39.906-17.017-1.081,9.782-4.763,19.5-18.247,18.219-12.077-1.144-13.806-14.43-14.054-18.318-7.643,1.024-27.953,4.9-42.4,18.188,0,0-5.238,14.2,14.677,24.326,0,0,1.619,12.565,11,20.626,0,0-27.039,62.922-26.87,80.9s9.834,56.2,9.834,56.2a206.1,206.1,0,0,0,43.679,6.256l0,.121q3.416.069,6.75,0,3.331,0,6.75-.128l20.807-2.328,2.205-22.217Z" transform="translate(-210.671 -30.445)" fill="#4399ff"/>
        <g id="Grupo_34545" data-name="Grupo 34545" transform="translate(62.496 162.788)">
          <path id="Trazado_37128" data-name="Trazado 37128" d="M279.68,202.988v9.042l7.77,3.162,6.632-3.083.715-10.12Z" transform="translate(-277.196 -198.71)" fill="#2975fc"/>
          <path id="Trazado_37129" data-name="Trazado 37129" d="M292.09,202.168l-.492,6.962-6.632,3.083-5.286-2.151v1.969l7.77,3.162,6.632-3.083.715-10.12Z" transform="translate(-277.196 -198.71)" fill="#2677ed" opacity="0.22"/>
          <path id="Trazado_37130" data-name="Trazado 37130" d="M277.421,198.213a50.448,50.448,0,0,0,19,.046,11.706,11.706,0,0,1-.129,5.123s-7.1,3.637-19-.046A6.268,6.268,0,0,1,277.421,198.213Z" transform="translate(-276.819 -198.213)" fill="#1f58bd"/>
          <path id="Trazado_37131" data-name="Trazado 37131" d="M296.441,198.266c-1.141.245-2.281.43-3.406.566a8.127,8.127,0,0,1-.364,2.534s-5.807,2.975-15.724.818a4.641,4.641,0,0,0,.361,1.159c11.9,3.683,19,.046,19,.046A11.705,11.705,0,0,0,296.441,198.266Z" transform="translate(-276.836 -198.22)" fill="#153b7e" opacity="0.21"/>
        </g>
        <g id="Grupo_34546" data-name="Grupo 34546" transform="translate(111.836 162.788)">
          <path id="Trazado_37132" data-name="Trazado 37132" d="M336.493,202.988v9.042l7.77,3.162,6.632-3.083.715-10.12Z" transform="translate(-334.009 -198.71)" fill="#2975fc"/>
          <path id="Trazado_37133" data-name="Trazado 37133" d="M348.9,202.168l-.492,6.962-6.632,3.083-5.286-2.151v1.969l7.77,3.162,6.632-3.083.715-10.12Z" transform="translate(-334.009 -198.71)" fill="#2677ed" opacity="0.22"/>
          <path id="Trazado_37134" data-name="Trazado 37134" d="M334.234,198.213a50.448,50.448,0,0,0,19,.046,11.706,11.706,0,0,1-.129,5.123s-7.1,3.637-19-.046A6.268,6.268,0,0,1,334.234,198.213Z" transform="translate(-333.632 -198.213)" fill="#1f58bd"/>
          <path id="Trazado_37135" data-name="Trazado 37135" d="M353.254,198.266c-1.141.245-2.281.43-3.406.566a8.15,8.15,0,0,1-.363,2.534s-5.808,2.975-15.724.818a4.684,4.684,0,0,0,.361,1.159c11.9,3.683,19,.046,19,.046A11.706,11.706,0,0,0,353.254,198.266Z" transform="translate(-333.649 -198.22)" fill="#153b7e" opacity="0.21"/>
        </g>
        <path id="Trazado_37136" data-name="Trazado 37136" d="M291.38,168.23l.881-7.791,9.094-1.915v-5.183s12.255,3.97,23.519.734v3.733l5.636,1.723,8.458,5.33-13.7,16.914-20.538,1.555Z" transform="translate(-216.239 -29.523)" fill="#4399ff"/>
        <path id="Trazado_37137" data-name="Trazado 37137" d="M311.246,153.3l2.6,68.653L319,222l-.175-68.634Z" transform="translate(-218.852 -29.518)" fill="#2975fc"/>
        <path id="Trazado_37138" data-name="Trazado 37138" d="M313.06,155.338l2.512,75.071h2.183l-.615-75.071Z" transform="translate(-219.09 -29.786)" fill="#3386ff"/>
        <path id="Trazado_37139" data-name="Trazado 37139" d="M278.18,180.918c10.113-4.027,9.5-14.893,8.428-18.827s-2.537-3.589-2.537-3.589c-7.918-.426-22.428,6.258-24.347,8.877s1.54,9.426,1.54,9.426S266.145,185.71,278.18,180.918Z" transform="translate(-211.999 -30.199)" fill="#153b7e"/>
        <path id="Trazado_37140" data-name="Trazado 37140" d="M287.579,162.092c-1.075-3.934-2.537-3.589-2.537-3.589a17.553,17.553,0,0,0-2.789.1,10.413,10.413,0,0,1,.781,2.083c1.074,3.934,1.686,14.8-8.428,18.827a17.02,17.02,0,0,1-8.077,1.342c2.732,1.507,6.853,2.359,12.621.062C289.265,176.891,288.653,166.026,287.579,162.092Z" transform="translate(-212.97 -30.2)" fill="#153b7e" opacity="0.26"/>
        <path id="Trazado_37141" data-name="Trazado 37141" d="M346.9,179.87c-10.112-4.027-9.5-14.893-8.427-18.827s2.537-3.589,2.537-3.589c7.917-.426,22.428,6.258,24.346,8.877s-1.539,9.427-1.539,9.427S358.94,184.662,346.9,179.87Z" transform="translate(-222.358 -30.062)" fill="#153b7e"/>
        <path id="Trazado_37142" data-name="Trazado 37142" d="M338.477,161.044c1.075-3.934,2.537-3.589,2.537-3.589a17.54,17.54,0,0,1,2.788.1,10.5,10.5,0,0,0-.78,2.083c-1.074,3.934-1.686,14.8,8.427,18.827a17.012,17.012,0,0,0,8.078,1.342c-2.732,1.508-6.853,2.359-12.622.062C336.791,175.843,337.4,164.978,338.477,161.044Z" transform="translate(-222.358 -30.062)" fill="#153b7e" opacity="0.26"/>
        <path id="Trazado_37143" data-name="Trazado 37143" d="M326.208,397.754l-.005-.121c7.606-.416,14.675-1.251,20.812-2.208" transform="translate(-220.819 -61.364)" fill="#04afc7"/>
        <path id="Trazado_37144" data-name="Trazado 37144" d="M279.423,232.965s25.258,4.141,64.093-.6c0,0,4.784,3.891,4.334,9.856,0,0-52.7,11.93-71.977-.781A7.978,7.978,0,0,1,279.423,232.965Z" transform="translate(-214.174 -39.917)" fill="#153b7e"/>
        <path id="Trazado_37145" data-name="Trazado 37145" d="M343.516,232.366l-.512.061a11.113,11.113,0,0,1,1.507,6.357s-47.53,10.759-68.825.95a7,7,0,0,0,.188,1.707c19.279,12.711,71.977.781,71.977.781C348.3,236.256,343.516,232.366,343.516,232.366Z" transform="translate(-214.174 -39.917)" fill="#153b7e" opacity="0.26"/>
        <circle id="Elipse_730" data-name="Elipse 730" cx="30.239" cy="30.239" r="30.239" transform="translate(65.4 14.714)" fill="#c19063"/>
        <path id="Trazado_37146" data-name="Trazado 37146" d="M299.322,49.048l-18.44,3.008s-2.59,5.973-3.34,24.309-6.394,33.61,9.175,47.466c0,0,4.69,4.288,6.811,5.867s7.2,6.372,15.834,6.514,14.714-36.471,14.714-36.471Z" transform="translate(-214.207 -15.805)" fill="#c19063"/>
        <path id="Trazado_37147" data-name="Trazado 37147" d="M323.339,49.048l18.44,3.008s2.59,5.973,3.34,24.309,6.394,33.61-9.175,47.466c0,0-4.69,4.288-6.811,5.867s-7.2,6.372-15.834,6.514-14.714-36.471-14.714-36.471Z" transform="translate(-217.186 -15.805)" fill="#c19063"/>
        <g id="Grupo_34547" data-name="Grupo 34547" transform="translate(73.102 62.132)">
          <path id="Trazado_37148" data-name="Trazado 37148" d="M325.96,87.265a4.741,4.741,0,1,0,4.736-4.952A4.849,4.849,0,0,0,325.96,87.265Z" transform="translate(-293.889 -82.313)" fill="#2f1b11"/>
          <path id="Trazado_37149" data-name="Trazado 37149" d="M326.27,85.587s4.57-3.661,8.713.336c0,0,3.932-.735,4.6-3.4,0,0-3.27,1.729-5.559.6S327.706,81.735,326.27,85.587Z" transform="translate(-293.93 -82.323)" fill="#2f1b11"/>
          <path id="Trazado_37150" data-name="Trazado 37150" d="M333.528,86.7a1.318,1.318,0,0,1-.018,1.778c-.643.713.412,1.773,1.058,1.057a2.789,2.789,0,0,0,.252-3.589.773.773,0,0,0-1.023-.268.752.752,0,0,0-.268,1.023Z" transform="translate(-294.856 -82.743)" fill="#fff"/>
          <path id="Trazado_37151" data-name="Trazado 37151" d="M303.235,87.265a4.741,4.741,0,1,1-4.735-4.952A4.848,4.848,0,0,1,303.235,87.265Z" transform="translate(-289.654 -82.313)" fill="#2f1b11"/>
          <path id="Trazado_37152" data-name="Trazado 37152" d="M302.345,85.587s-4.57-3.661-8.713.336c0,0-3.932-.735-4.6-3.4,0,0,3.27,1.729,5.558.6S300.908,81.735,302.345,85.587Z" transform="translate(-289.032 -82.323)" fill="#2f1b11"/>
          <path id="Trazado_37153" data-name="Trazado 37153" d="M300.535,86.7a1.318,1.318,0,0,1-.018,1.778c-.644.713.411,1.773,1.058,1.057a2.789,2.789,0,0,0,.251-3.589.772.772,0,0,0-1.022-.268.751.751,0,0,0-.268,1.023Z" transform="translate(-290.516 -82.743)" fill="#fff"/>
        </g>
        <path id="Trazado_37154" data-name="Trazado 37154" d="M296.235,107.435a4.719,4.719,0,1,1-4.719-4.719A4.718,4.718,0,0,1,296.235,107.435Z" transform="translate(-215.636 -22.864)" fill="#f48f8a" opacity="0.41"/>
        <path id="Trazado_37155" data-name="Trazado 37155" d="M332.97,106.67a4.719,4.719,0,1,0,4.719-4.719A4.718,4.718,0,0,0,332.97,106.67Z" transform="translate(-221.709 -22.764)" fill="#f48f8a" opacity="0.41"/>
        <g id="Grupo_34548" data-name="Grupo 34548" transform="translate(84.262 92.078)">
          <path id="Trazado_37156" data-name="Trazado 37156" d="M325.375,116.883s-14.129,4.356-22.7,2.423c0,0-1.478.065-.4,1,0,0,11.052,17.649,23.668-2.807C325.941,117.5,326.938,116.493,325.375,116.883Z" transform="translate(-301.882 -116.793)" fill="#352626"/>
          <path id="Trazado_37157" data-name="Trazado 37157" d="M303.914,121.451a3.019,3.019,0,0,1-1.641-1.142c-1.073-.937.4-1,.4-1,8.568,1.933,22.7-2.423,22.7-2.423,1.563-.391.566.618.566.618-.363.587-.723,1.142-1.085,1.667C324.857,119.169,314.177,124.268,303.914,121.451Z" transform="translate(-301.882 -116.793)" fill="#fff"/>
        </g>
        <path id="Trazado_37158" data-name="Trazado 37158" d="M327.8,68.813s9.519-2.161,14.726,7.887A33.7,33.7,0,0,0,329.423,74s-2.275.419-3.155-1.225S326.556,68.975,327.8,68.813Z" transform="translate(-220.787 -18.379)" fill="#2f1b11"/>
        <path id="Trazado_37159" data-name="Trazado 37159" d="M300.008,68.813s-9.519-2.161-14.726,7.887A33.7,33.7,0,0,1,298.39,74s2.275.419,3.155-1.225S301.257,68.975,300.008,68.813Z" transform="translate(-215.436 -18.379)" fill="#2f1b11"/>
        <path id="Trazado_37160" data-name="Trazado 37160" d="M273.081,62.678s42.694-3.337,49.657-33.871c0,0-7.848-7.28-26.124-4.853S269.115,52.356,273.081,62.678Z" transform="translate(-213.712 -12.44)" fill="#2f1b11"/>
        <path id="Trazado_37161" data-name="Trazado 37161" d="M322.088,34.289s-.343,15.748-4.33,23.912c0,0,13.113-13.014,10.977-28.585Z" transform="translate(-219.708 -13.25)" fill="#2f1b11"/>
        <path id="Trazado_37162" data-name="Trazado 37162" d="M327.293,35.3S331.1,56.63,350.5,61.538c0,0,4.674-27.245-20.515-36.345Z" transform="translate(-220.962 -12.668)" fill="#2f1b11"/>
        <rect id="Rectángulo_3773" data-name="Rectángulo 3773" width="30.332" height="23.255" rx="9.803" transform="translate(83.499 188.996)" fill="#fbb03b"/>
        <rect id="Rectángulo_3774" data-name="Rectángulo 3774" width="15.958" height="23.036" rx="5.601" transform="translate(110.183 192.644) rotate(90)" fill="#f15a24"/>
        <g id="Grupo_34549" data-name="Grupo 34549" transform="translate(94.447 194.482)">
          <path id="Trazado_37163" data-name="Trazado 37163" d="M318.447,242.2h-.591a2.43,2.43,0,0,1-2.427-2.427v-2.635a2.43,2.43,0,0,1,2.427-2.427h.591a2.43,2.43,0,0,1,2.427,2.427v2.635A2.43,2.43,0,0,1,318.447,242.2Zm-.591-6.582a1.521,1.521,0,0,0-1.519,1.52v2.635a1.521,1.521,0,0,0,1.519,1.519h.591a1.52,1.52,0,0,0,1.519-1.519v-2.635a1.521,1.521,0,0,0-1.519-1.52Z" transform="translate(-313.848 -234.707)" fill="#ccc"/>
          <rect id="Rectángulo_3775" data-name="Rectángulo 3775" width="8.606" height="7.608" rx="2.997" transform="translate(0 4.201)" fill="#fbb03b"/>
          <path id="Trazado_37164" data-name="Trazado 37164" d="M320.336,239.623a2.6,2.6,0,0,1,.931,1.989v2.4a2.61,2.61,0,0,1-2.6,2.6h-3.4a2.572,2.572,0,0,1-.582-.069,2.583,2.583,0,0,0,1.671.613h3.4a2.609,2.609,0,0,0,2.6-2.6v-2.4A2.61,2.61,0,0,0,320.336,239.623Z" transform="translate(-313.75 -235.354)" fill="#ea9a32"/>
          <path id="Trazado_37165" data-name="Trazado 37165" d="M319.349,243.238a1.208,1.208,0,1,0-1.681,1.112v1.334h1v-1.361A1.208,1.208,0,0,0,319.349,243.238Z" transform="translate(-314.046 -235.67)" fill="#ad3814"/>
          <path id="Trazado_37166" data-name="Trazado 37166" d="M318.269,242.03a1.225,1.225,0,0,0-.363.056,1.207,1.207,0,0,1,.165,2.237v1.361h.727v-1.361a1.207,1.207,0,0,0-.529-2.293Z" transform="translate(-314.174 -235.67)" fill="#7f2f19"/>
        </g>
      </g>
      <circle id="Elipse_731" data-name="Elipse 731" cx="42.75" cy="42.75" r="42.75" transform="translate(393.048 62.851)" fill="#7facfd" opacity="0.54"/>
      <path id="Trazado_37167" data-name="Trazado 37167" d="M464.853,153.143a39.1,39.1,0,1,1,39.1-39.1A39.145,39.145,0,0,1,464.853,153.143Z" transform="translate(-29.054 -8.44)" fill="#1f58bd" opacity="0.31"/>
      <g id="Grupo_34551" data-name="Grupo 34551" transform="translate(419.648 82.224)">
        <path id="Trazado_37168" data-name="Trazado 37168" d="M470.337,121.157h-2.22a9.12,9.12,0,0,1-9.109-9.109v-9.892a9.12,9.12,0,0,1,9.109-9.109h2.22a9.12,9.12,0,0,1,9.109,9.109v9.892A9.12,9.12,0,0,1,470.337,121.157Zm-2.22-24.7a5.708,5.708,0,0,0-5.7,5.7v9.892a5.708,5.708,0,0,0,5.7,5.7h2.22a5.708,5.708,0,0,0,5.7-5.7v-9.892a5.708,5.708,0,0,0-5.7-5.7Z" transform="translate(-453.077 -93.046)" fill="#f2f2f2"/>
        <rect id="Rectángulo_3776" data-name="Rectángulo 3776" width="32.301" height="28.555" rx="11.247" transform="translate(0 15.766)" fill="#ffbc45"/>
        <path id="Trazado_37169" data-name="Trazado 37169" d="M477.426,111.5a9.757,9.757,0,0,1,3.493,7.466v9.02a9.8,9.8,0,0,1-9.767,9.768H458.386a9.7,9.7,0,0,1-2.185-.257,9.711,9.711,0,0,0,6.274,2.3h12.767a9.8,9.8,0,0,0,9.767-9.768v-9.02A9.8,9.8,0,0,0,477.426,111.5Z" transform="translate(-452.708 -95.473)" fill="#ea9a32" opacity="0.59"/>
        <path id="Trazado_37170" data-name="Trazado 37170" d="M473.723,125.065a4.533,4.533,0,1,0-6.306,4.172v5.007h3.756v-5.107A4.528,4.528,0,0,0,473.723,125.065Z" transform="translate(-453.82 -96.661)" fill="#ad3814"/>
        <path id="Trazado_37171" data-name="Trazado 37171" d="M469.671,120.532a4.526,4.526,0,0,0-1.363.209,4.53,4.53,0,0,1,.619,8.395v5.107h2.726v-5.107a4.53,4.53,0,0,0-1.983-8.6Z" transform="translate(-454.3 -96.661)" fill="#7f2f19"/>
      </g>
      <path id="Trazado_37172" data-name="Trazado 37172" d="M447.356,84.895a.6.6,0,0,1-.282-.069L444.2,83.316l-2.871,1.509a.608.608,0,0,1-.882-.641l.548-3.2-2.322-2.264a.609.609,0,0,1,.337-1.038l3.21-.466,1.436-2.909a.607.607,0,0,1,1.09,0l1.436,2.909,3.21.466a.609.609,0,0,1,.337,1.038l-2.323,2.264.549,3.2a.609.609,0,0,1-.6.71Z" transform="translate(-30.73 -8.313)" fill="#fbb03b"/>
      <path id="Trazado_37173" data-name="Trazado 37173" d="M477.173,75.373a.6.6,0,0,1-.283-.069l-2.871-1.509L471.148,75.3a.608.608,0,0,1-.882-.641l.548-3.2L468.491,69.2a.608.608,0,0,1,.337-1.037l3.21-.467,1.436-2.909a.608.608,0,0,1,1.091,0L476,67.7l3.21.467a.608.608,0,0,1,.337,1.037l-2.322,2.264.548,3.2a.607.607,0,0,1-.6.71Z" transform="translate(-34.652 -7.06)" fill="#fbb03b"/>
      <path id="Trazado_37174" data-name="Trazado 37174" d="M456.278,64.452a.609.609,0,0,1-.283-.069l-2.871-1.509-2.87,1.509a.608.608,0,0,1-.882-.641l.548-3.2L447.6,58.28a.608.608,0,0,1,.338-1.037l3.21-.467,1.435-2.909a.608.608,0,0,1,1.091,0l1.436,2.909,3.211.467a.608.608,0,0,1,.337,1.037l-2.323,2.264.549,3.2a.607.607,0,0,1-.6.71Z" transform="translate(-31.903 -5.624)" fill="#fbb03b"/>
      <g id="Grupo_34552" data-name="Grupo 34552" transform="translate(241.356 234.02)">
        <path id="Trazado_37175" data-name="Trazado 37175" d="M259.621,289.848c.133.1,1.944,1.536,2.091,1.607,1.426.681,2.487-.268,3.243-1.578l8.226-9.524a2.81,2.81,0,0,0,.673-1.313,2.885,2.885,0,0,0-1.4-3.009l-16.385-7.906a3.137,3.137,0,0,0-1.766-.262c-1.937.276-2.493,1.265-3.179,2.456l-3.1,5.378c-2,2.892-1.023,4.367.36,5.16Z" transform="translate(-246.883 -267.831)" fill="#c19063"/>
      </g>
    </g>
  </g>
</svg>
