<svg id="Grupo_34596" data-name="Grupo 34596" xmlns="http://www.w3.org/2000/svg" xmlns:xlink="http://www.w3.org/1999/xlink" width="700" height="320" viewBox="0 0 700 320">
  <defs>
    <clipPath id="clip-path">
      <rect id="Rectángulo_3780" data-name="Rectángulo 3780" width="700" height="320" fill="none"/>
    </clipPath>
    <linearGradient id="linear-gradient" x1="0.5" y1="1" x2="0.5" gradientUnits="objectBoundingBox">
      <stop offset="0" stop-color="#fff" stop-opacity="0"/>
      <stop offset="0.265" stop-color="#fff" stop-opacity="0.278"/>
      <stop offset="0.776" stop-color="#fff" stop-opacity="0.792"/>
      <stop offset="1" stop-color="#fff"/>
    </linearGradient>
    <linearGradient id="linear-gradient-2" x1="0.5" y1="1" x2="0.5" gradientUnits="objectBoundingBox">
      <stop offset="0" stop-color="#fff" stop-opacity="0"/>
      <stop offset="1" stop-color="#fff"/>
    </linearGradient>
    <clipPath id="clip-path-2">
      <rect id="Rectángulo_3779" data-name="Rectángulo 3779" width="490.345" height="314" transform="translate(82.117 6)" fill="none"/>
    </clipPath>
  </defs>
  <g id="Grupo_34595" data-name="Grupo 34595" clip-path="url(#clip-path)">
    <g id="FONDO">
      <rect id="Rectángulo_3778" data-name="Rectángulo 3778" width="700" height="320" transform="translate(700 320) rotate(180)" fill="#faf3ff"/>
      <g id="Grupo_34556" data-name="Grupo 34556">
        <path id="Trazado_37176" data-name="Trazado 37176" d="M700,36.848l-286.023.927,36.656,147.1L696.715,187.4" fill="none" stroke="#dfa9ff" stroke-miterlimit="10" stroke-width="0.267"/>
        <path id="Trazado_37177" data-name="Trazado 37177" d="M-10.2,103.4l159.7,11.116V250.729l-159.7-3.312Z" fill="none" stroke="#dfa9ff" stroke-miterlimit="10" stroke-width="0.267"/>
        <path id="Trazado_37178" data-name="Trazado 37178" d="M99.975-3l6.582,74.654L-6.451,64.306" fill="none" stroke="#dfa9ff" stroke-miterlimit="10" stroke-width="0.267"/>
        <path id="Trazado_37179" data-name="Trazado 37179" d="M696.715,94.8l-241.78-5.16L481.724-5.8" fill="none" stroke="#dfa9ff" stroke-miterlimit="10" stroke-width="0.267"/>
        <path id="Trazado_37180" data-name="Trazado 37180" d="M696.715,120.165l-188.648.927L454.138,320.676" fill="none" stroke="#dfa9ff" stroke-miterlimit="10" stroke-width="0.267"/>
        <path id="Trazado_37181" data-name="Trazado 37181" d="M-10.2,181.569l201.334-18.376-17.29,157.659-183.7-1.226Z" fill="none" stroke="#dfa9ff" stroke-miterlimit="10" stroke-width="0.267"/>
        <path id="Trazado_37182" data-name="Trazado 37182" d="M656.423,132.906l.443,3.359h12.785v-3.6Z" fill="#c955ff"/>
        <path id="Trazado_37183" data-name="Trazado 37183" d="M95.062,118.746,95.5,122.1H108.29v-3.6Z" fill="#c955ff"/>
        <path id="Trazado_37184" data-name="Trazado 37184" d="M614.925,201.225l.443,3.359h12.785v-3.6Z" fill="#cab1d9"/>
        <path id="Trazado_37185" data-name="Trazado 37185" d="M623.726,207.8l.443,3.359h12.785v-3.6Z" fill="#fff"/>
        <path id="Trazado_37186" data-name="Trazado 37186" d="M91.677,50.065l-.443,3.359H78.449v-3.6Z" fill="#cab1d9"/>
        <path id="Trazado_37187" data-name="Trazado 37187" d="M82.875,56.638,82.432,60H69.647V56.4Z" fill="#fff"/>
        <path id="Trazado_37188" data-name="Trazado 37188" d="M504.35,110.563l.443,3.359h12.785v-3.6Z" fill="#cab1d9"/>
        <path id="Trazado_37189" data-name="Trazado 37189" d="M517.578,130.327l.443,3.359h12.785v-3.6Z" fill="#fff"/>
        <path id="Trazado_37190" data-name="Trazado 37190" d="M643.2,27.788l.443,3.359h12.785v-3.6Z" fill="#cab1d9"/>
        <path id="Trazado_37191" data-name="Trazado 37191" d="M95.062,207.025l.443,3.359H108.29v-3.6Z" fill="#cab1d9"/>
        <path id="Trazado_37192" data-name="Trazado 37192" d="M656.423,47.552l.443,3.359h12.785v-3.6Z" fill="#fff"/>
      </g>
    </g>
    <path id="Trazado_37193" data-name="Trazado 37193" d="M331.6-.64h92.368L324.8,320H244.579Z" opacity="0.79" fill="url(#linear-gradient)"/>
    <path id="Trazado_37194" data-name="Trazado 37194" d="M264.492-.64H303.2L215.242,320H180.809Z" opacity="0.48" fill="url(#linear-gradient-2)"/>
    <path id="Trazado_37195" data-name="Trazado 37195" d="M553.281-.64h38.707L504.031,320H469.6Z" opacity="0.48" fill="url(#linear-gradient-2)"/>
    <g id="Grupo_34584" data-name="Grupo 34584">
      <g id="Grupo_34583" data-name="Grupo 34583" clip-path="url(#clip-path-2)">
        <g id="Grupo_34582" data-name="Grupo 34582">
          <g id="Grupo_34577" data-name="Grupo 34577">
            <path id="Trazado_37196" data-name="Trazado 37196" d="M423.592,78.422l5.976-5.841s12.217,5.929,9.879,18.7-8.724,35.883-8.724,35.883l-5.112,1.984L401.664,72.079Z" fill="#231f20"/>
            <g id="Grupo_34557" data-name="Grupo 34557">
              <circle id="Elipse_732" data-name="Elipse 732" cx="7.311" cy="7.311" r="7.311" transform="translate(423.117 115.571)" fill="#eaa271"/>
              <circle id="Elipse_733" data-name="Elipse 733" cx="4.288" cy="4.288" r="4.288" transform="translate(426.139 118.594)" fill="#d38c5b"/>
            </g>
            <path id="Trazado_37197" data-name="Trazado 37197" d="M343.619,77.692l-1.548,5.366s7.187,27.66.889,37.429l-5.046.347L331,87.487S339.142,74.962,343.619,77.692Z" fill="#231f20"/>
            <g id="Grupo_34558" data-name="Grupo 34558">
              <circle id="Elipse_734" data-name="Elipse 734" cx="7.311" cy="7.311" r="7.311" transform="translate(333.377 114.422)" fill="#eaa271"/>
              <circle id="Elipse_735" data-name="Elipse 735" cx="4.288" cy="4.288" r="4.288" transform="translate(336.399 117.444)" fill="#d38c5b"/>
            </g>
            <path id="Trazado_37198" data-name="Trazado 37198" d="M341.2,153.647l-3.01-68.177s2.661-29.331,47.684-30.24,44.442,38.5,44.442,38.5l-.223.061-.2,57.726a19.192,19.192,0,0,1-7.093,17.364L407.642,182.36c-21.621,18.811-38.67,4.884-38.67,4.884l-10.868-5.8C339.874,171.6,341.2,153.647,341.2,153.647Z" fill="#f9b180"/>
            <path id="Trazado_37199" data-name="Trazado 37199" d="M369.819,187.71l6.921,31.782,25.1-1.728.436-33.082Z" fill="#f9b180"/>
            <path id="Trazado_37200" data-name="Trazado 37200" d="M372.112,198.242s18.828,7.489,30.005-1.637l.157-11.923-32.455,3.028Z" fill="#e28f56"/>
            <path id="Trazado_37201" data-name="Trazado 37201" d="M388.822,221.745l49.825,7.931s17,9.489-1.124,29.06L423.122,367.9s-36.452,11.052-77.621-5.071l-9.155-101.792s-22-14.751-.073-33.193Z" fill="#f9b180"/>
            <path id="Trazado_37202" data-name="Trazado 37202" d="M336.273,227.843l27.517,20.266,63.984-11.838,10.873-6.6s-36.541-15.221-56.187-13.739-34.719,7.2-46.187,11.906" fill="#f9b180"/>
            <ellipse id="Elipse_736" data-name="Elipse 736" cx="39.462" cy="30.61" rx="39.462" ry="30.61" transform="translate(344.24 332.244) rotate(-2.359)" fill="#f9b180"/>
            <g id="Grupo_34559" data-name="Grupo 34559">
              <path id="Trazado_37203" data-name="Trazado 37203" d="M375.618,127.869a27.858,27.858,0,0,0,2.557-5.287c.867-2.626,2.066-3.539,4.525-2.739s4.93,20.489-8.329,22.9-12.186-7.055-10.588-9.406S371.385,134.429,375.618,127.869Z" fill="#e28f56"/>
              <path id="Trazado_37204" data-name="Trazado 37204" d="M373.827,141.746c11.415-2.077,11.17-16.951,9.312-21.56,2.26,2.757,3.7,20.291-8.768,22.559-6.981,1.271-9.987-.754-11.037-3.3C364.733,141.48,367.793,142.844,373.827,141.746Z" fill="#c97236"/>
            </g>
            <path id="Trazado_37205" data-name="Trazado 37205" d="M349.02,109.1s.094-7.754,7.886-9.923a18.69,18.69,0,0,1,3.576-.679,5.551,5.551,0,0,1,2.393.023l-.669-1.454c1.132.25,3.347,2.751,3.347,2.751l.113-2.149c1,1.276,1.54,5.048,1.54,5.048l-2.574.106C361.943,103.274,351.861,105.2,349.02,109.1Z" fill="#231f20"/>
            <path id="Trazado_37206" data-name="Trazado 37206" d="M411.3,106.032s-1.156-7.668-9.172-8.749A18.752,18.752,0,0,0,398.5,97.1a5.543,5.543,0,0,0-2.368.351l.463-1.532c-1.087.4-2.938,3.183-2.938,3.183l-.406-2.113c-.814,1.4-.834,5.212-.834,5.212l2.564-.248C397.7,102.034,407.955,102.562,411.3,106.032Z" fill="#231f20"/>
            <path id="Trazado_37207" data-name="Trazado 37207" d="M424.466,98.726s-.236-20.784-9.989-22.257-26.553,6.556-37.734,8.894S326.1,87.022,321.455,62.319c0,0,6.257,2.608,13.074-3.671,10.289-9.478,44.443-23.256,66.215-14.433S439.037,68.12,424.466,98.726Z" fill="#231f20"/>
            <path id="Trazado_37208" data-name="Trazado 37208" d="M424.275,72.945s6.016-9.361,4.429-14.971c0,0,3.53,5.836,2.318,11.1,0,0,9.041,2.6,9.856,6.65,0,0-.98-1.72-8.289-1.217,0,0,3.431,3.339,4.246,7.393A41.815,41.815,0,0,0,424.275,72.945Z" fill="#231f20"/>
            <path id="Trazado_37209" data-name="Trazado 37209" d="M422.151,76.3l-1.313,5.456s-2.266,32.609,5.312,41.423l3.84,1.024,6.961-32.836S426.212,72.98,422.151,76.3Z" fill="#231f20"/>
            <path id="Trazado_37210" data-name="Trazado 37210" d="M351.459,85s-8.635-.465-9.777,6.31,1.278,29.176,1.278,29.176l-3.189,1.309-.264-7.31L335.3,95.907l1.722-11.982,1.1-6.349Z" fill="#231f20"/>
            <path id="Trazado_37211" data-name="Trazado 37211" d="M378.332,85s-24.473,6.205-34.713-7.308-9.09-19.044-9.09-19.044l5.548-4.111S343.064,88.109,378.332,85Z" fill="#514b4d"/>
            <path id="Trazado_37212" data-name="Trazado 37212" d="M380.108,84.545s-33.85-9.513-33.012-33.85l6.079-2.676s-2.583,19.958,29.794,35.7Z" fill="#514b4d"/>
            <path id="Trazado_37213" data-name="Trazado 37213" d="M348.58,85.227s-24.666-5.372-27.125-22.908a10.115,10.115,0,0,0,5.91.256S334.52,80.745,348.58,85.227Z" fill="#514b4d"/>
            <path id="Trazado_37214" data-name="Trazado 37214" d="M420.887,103.271l13.618-.938-13.3,4.5Z" fill="#514b4d"/>
            <path id="Trazado_37215" data-name="Trazado 37215" d="M422.027,112.47l.818,3.606,10.933-6.96Z" fill="#514b4d"/>
            <path id="Trazado_37216" data-name="Trazado 37216" d="M424.341,120.272l1.808,2.9,5.493-6.773Z" fill="#514b4d"/>
            <path id="Trazado_37217" data-name="Trazado 37217" d="M341.613,104.046l-7.776-2.884,8.1,7.544Z" fill="#514b4d"/>
            <path id="Trazado_37218" data-name="Trazado 37218" d="M342.191,112.279l-7.095-5.042,7.367,8.166Z" fill="#514b4d"/>
            <path id="Trazado_37219" data-name="Trazado 37219" d="M342.827,119.206l-3.208-3.088,1.515,5.118,1.826-.749Z" fill="#514b4d"/>
            <path id="Trazado_37220" data-name="Trazado 37220" d="M429.99,124.2l-3.84-1.024s-11.513,54.265-31.16,57.048c-9.985,1.414-9.708-6.369-9.708-6.369l-7.039.485s-.464,5.927-3.676,5.6-21.429-10.325-23.962-20.612-7.645-38.844-7.645-38.844l-3.189,1.309s.447,36.461.591,38.6c.739,10.963,14.882,25.294,24.794,29.616a34.963,34.963,0,0,0,14.354,3.958c10.2.48,19.419,1.62,36.129-13.25,0,0,12.282-11.994,14.541-22C432.235,149.617,429.99,124.2,429.99,124.2Z" fill="#2d2a2b"/>
            <path id="Trazado_37221" data-name="Trazado 37221" d="M377.6,146.947s3.935-3.35,7.926-3.218,6.654-.083,10.612.587,6.854,1.707,10.675,1.444,14.256,2.743,15.084,9.782-5.685,12.741-7.6,13.178,1.19-9.642-1.825-11.553-18.536-6.176-26.334-4.617a44.07,44.07,0,0,1-11.345.781s-5.061,0-8.5,2.082S355.9,157,352.653,164.169s-6.161-5.713-6.422-6.26,7.084-9.084,14.5-9.8S371.221,143.68,377.6,146.947Z" fill="#2d2a2b"/>
            <g id="Grupo_34575" data-name="Grupo 34575">
              <g id="Grupo_34560" data-name="Grupo 34560">
                <path id="Trazado_37222" data-name="Trazado 37222" d="M337.186,227.123s11.851-7.513,31.284-13.472c3.021-.927,1.7-12,1.7-12l17.833.754,17.831-.833s-1.193,10.86,1.756,11.993c15.307,5.883,31.351,16.72,31.351,16.72s10.626,5.1,8.874,19.179S438.73,267.5,438.73,267.5L427.419,391.729l-83.286.184-9.559-129.248S310.63,242.042,337.186,227.123Z" fill="#b62eef"/>
              </g>
              <g id="Grupo_34561" data-name="Grupo 34561" opacity="0.41">
                <path id="Trazado_37223" data-name="Trazado 37223" d="M404.8,203.085l-5.233.377c-1.569.108-3.4.2-5.364.294s-4.056.167-6.149.19c-2.093.052-4.186.035-6.147-.017l-2.826-.116-2.527-.187-2.13-.233c-.637-.054-1.183-.163-1.635-.236l-1.426-.226,1.4.347c.448.1.989.251,1.623.349s1.343.249,2.125.355l2.533.293c.9.069,1.852.153,2.838.2,1.971.079,4.076.127,6.18.1,2.1-.052,4.2-.14,6.171-.275,1.967-.12,3.8-.329,5.363-.489C402.733,203.458,404.8,203.085,404.8,203.085Z" fill="#fff"/>
              </g>
              <g id="Grupo_34573" data-name="Grupo 34573">
                <g id="Grupo_34572" data-name="Grupo 34572">
                  <g id="Grupo_34562" data-name="Grupo 34562">
                    <path id="Trazado_37224" data-name="Trazado 37224" d="M401.762,205.32a13.657,13.657,0,0,0-.035,1.385,20.589,20.589,0,0,0,.32,2.94,17.208,17.208,0,0,0,.761,2.82,10.172,10.172,0,0,0,.558,1.222,11.282,11.282,0,0,0,.058-1.394,18.048,18.048,0,0,0-.342-2.935,19.617,19.617,0,0,0-.785-2.81A13.063,13.063,0,0,0,401.762,205.32Z" fill="#c955ff"/>
                  </g>
                  <g id="Grupo_34563" data-name="Grupo 34563">
                    <path id="Trazado_37225" data-name="Trazado 37225" d="M398.723,206.067s-.072.561-.09,1.381a20.571,20.571,0,0,0,.2,2.955,17.935,17.935,0,0,0,.643,2.863,10.208,10.208,0,0,0,.507,1.255,11.767,11.767,0,0,0,.114-1.389,18.1,18.1,0,0,0-.222-2.952,19.741,19.741,0,0,0-.665-2.855A13.41,13.41,0,0,0,398.723,206.067Z" fill="#c955ff"/>
                  </g>
                  <g id="Grupo_34564" data-name="Grupo 34564">
                    <path id="Trazado_37226" data-name="Trazado 37226" d="M395.666,206.628s-.1.556-.147,1.375a20.584,20.584,0,0,0,.074,2.962,17.959,17.959,0,0,0,.523,2.9,10.64,10.64,0,0,0,.454,1.284,11.046,11.046,0,0,0,.17-1.379,18.376,18.376,0,0,0-.1-2.962,20.066,20.066,0,0,0-.547-2.891C395.874,207.138,395.666,206.628,395.666,206.628Z" fill="#c955ff"/>
                  </g>
                  <g id="Grupo_34565" data-name="Grupo 34565">
                    <path id="Trazado_37227" data-name="Trazado 37227" d="M392.593,207.006a13.582,13.582,0,0,0-.2,1.363,20.824,20.824,0,0,0-.048,2.963,18.336,18.336,0,0,0,.4,2.925,10.982,10.982,0,0,0,.4,1.309,11.035,11.035,0,0,0,.228-1.367,18.279,18.279,0,0,0,.023-2.965,20.34,20.34,0,0,0-.426-2.918C392.78,207.527,392.591,207.006,392.593,207.006Z" fill="#c955ff"/>
                  </g>
                  <g id="Grupo_34566" data-name="Grupo 34566">
                    <path id="Trazado_37228" data-name="Trazado 37228" d="M389.511,207.2a13.28,13.28,0,0,0-.26,1.349,20.815,20.815,0,0,0-.17,2.957,18.26,18.26,0,0,0,.281,2.944,10.956,10.956,0,0,0,.345,1.333,11.311,11.311,0,0,0,.284-1.353,18.607,18.607,0,0,0,.145-2.958,20.7,20.7,0,0,0-.3-2.942C389.677,207.729,389.509,207.2,389.511,207.2Z" fill="#c955ff"/>
                  </g>
                  <g id="Grupo_34567" data-name="Grupo 34567">
                    <path id="Trazado_37229" data-name="Trazado 37229" d="M386.425,207.2a13.621,13.621,0,0,0-.316,1.332,20.592,20.592,0,0,0-.29,2.943,18.242,18.242,0,0,0,.158,2.958,11.013,11.013,0,0,0,.289,1.35,10.143,10.143,0,0,0,.339-1.333,18.173,18.173,0,0,0,.268-2.945,20.816,20.816,0,0,0-.182-2.957C386.569,207.745,386.425,207.2,386.425,207.2Z" fill="#c955ff"/>
                  </g>
                  <g id="Grupo_34568" data-name="Grupo 34568">
                    <path id="Trazado_37230" data-name="Trazado 37230" d="M383.341,207.027s-.184.522-.369,1.311a20.376,20.376,0,0,0-.414,2.92,18.481,18.481,0,0,0,.037,2.965,10.678,10.678,0,0,0,.236,1.366,10.709,10.709,0,0,0,.392-1.311,18.008,18.008,0,0,0,.389-2.926,20.656,20.656,0,0,0-.061-2.963A13.7,13.7,0,0,0,383.341,207.027Z" fill="#c955ff"/>
                  </g>
                  <g id="Grupo_34569" data-name="Grupo 34569">
                    <path id="Trazado_37231" data-name="Trazado 37231" d="M380.266,206.662s-.2.511-.423,1.288a19.988,19.988,0,0,0-.533,2.893,18.284,18.284,0,0,0-.086,2.963,11.207,11.207,0,0,0,.176,1.379,10.5,10.5,0,0,0,.449-1.287,17.99,17.99,0,0,0,.51-2.9,20.565,20.565,0,0,0,.062-2.961C380.365,207.219,380.266,206.662,380.266,206.662Z" fill="#c955ff"/>
                  </g>
                  <g id="Grupo_34570" data-name="Grupo 34570">
                    <path id="Trazado_37232" data-name="Trazado 37232" d="M377.206,206.115a13.01,13.01,0,0,0-.477,1.26,19.613,19.613,0,0,0-.653,2.857,18.339,18.339,0,0,0-.209,2.954,11.268,11.268,0,0,0,.121,1.388,10.717,10.717,0,0,0,.5-1.257,17.859,17.859,0,0,0,.628-2.866,20.275,20.275,0,0,0,.184-2.956A13.3,13.3,0,0,0,377.206,206.115Z" fill="#c955ff"/>
                  </g>
                  <g id="Grupo_34571" data-name="Grupo 34571">
                    <path id="Trazado_37233" data-name="Trazado 37233" d="M374.166,205.382a12.793,12.793,0,0,0-.531,1.229,19.738,19.738,0,0,0-.771,2.814,18.418,18.418,0,0,0-.331,2.937,11.135,11.135,0,0,0,.066,1.394,10.231,10.231,0,0,0,.553-1.226,17.534,17.534,0,0,0,.748-2.823,20.258,20.258,0,0,0,.306-2.941C374.217,205.945,374.165,205.382,374.166,205.382Z" fill="#c955ff"/>
                  </g>
                </g>
              </g>
              <g id="Grupo_34574" data-name="Grupo 34574">
                <path id="Trazado_37234" data-name="Trazado 37234" d="M407.594,213.564s-18.9,8.233-39.124.087C368.47,213.651,385.5,223.41,407.594,213.564Z" fill="#a122d6"/>
              </g>
            </g>
            <path id="Trazado_37235" data-name="Trazado 37235" d="M416.077,221.684l31.9,10.126s9.715,24.086-7.2,39.1l.3,135.023-60.192,3.22-.181-81.529s33.077-19.078,35.247-56.659S416.077,221.684,416.077,221.684Z" fill="#252430"/>
            <path id="Trazado_37236" data-name="Trazado 37236" d="M407.594,213.564s15.521,37.984-26.882,114.063l.017,7.949s66.475-72.806,51.6-112.763C432.326,222.813,427.241,210.876,407.594,213.564Z" fill="#1d1d1e"/>
            <path id="Trazado_37237" data-name="Trazado 37237" d="M345.6,221.841l-25.216,10.252s-7.6,24.125,5.851,39.074l1.92,134.66,34,3.371.5-82.739s-14.9-17.764-16.765-55.336S345.6,221.841,345.6,221.841Z" fill="#252430"/>
            <path id="Trazado_37238" data-name="Trazado 37238" d="M364.4,214.6s-23.818,33.562-1.739,111.86l-.054,9.157s-40.5-92.974-29.858-112.582C332.745,223.034,348.833,211.99,364.4,214.6Z" fill="#1d1d1e"/>
            <g id="Grupo_34576" data-name="Grupo 34576">
              <path id="Trazado_37239" data-name="Trazado 37239" d="M388.6,162.83s1.859,3.286-.985,2.74C387.617,165.57,389.556,165.455,388.6,162.83Z" fill="#3a3a3a"/>
              <path id="Trazado_37240" data-name="Trazado 37240" d="M389.078,164.7s-9.03-7.48-15.936-.113c0,0,4.563-5.43,15.306.557Z" fill="#3a3a3a"/>
            </g>
            <path id="Trazado_37241" data-name="Trazado 37241" d="M323.007,239.619l-2.62-7.526s-21.011,35.658-22.663,77.314l19.2,3.576s3.533-24.657,9.312-41.816S323.007,239.619,323.007,239.619Z" fill="#252430"/>
          </g>
          <g id="Grupo_34578" data-name="Grupo 34578">
            <path id="Trazado_37242" data-name="Trazado 37242" d="M367.106,118.213a6.484,6.484,0,1,1-6.721-5.858A6.308,6.308,0,0,1,367.106,118.213Z" fill="#231f20"/>
            <path id="Trazado_37243" data-name="Trazado 37243" d="M362.516,117.038a1.692,1.692,0,0,1,.07,2.281c-.788.948.62,2.254,1.411,1.3a3.578,3.578,0,0,0,.135-4.617.993.993,0,0,0-1.326-.291.965.965,0,0,0-.29,1.326Z" fill="#fff"/>
          </g>
          <g id="Grupo_34579" data-name="Grupo 34579">
            <path id="Trazado_37244" data-name="Trazado 37244" d="M406.316,116.61a6.484,6.484,0,1,1-6.72-5.857A6.309,6.309,0,0,1,406.316,116.61Z" fill="#231f20"/>
            <path id="Trazado_37245" data-name="Trazado 37245" d="M401.726,115.436a1.691,1.691,0,0,1,.07,2.281c-.788.948.62,2.253,1.412,1.3a3.581,3.581,0,0,0,.134-4.618.993.993,0,0,0-1.326-.29.965.965,0,0,0-.29,1.326Z" fill="#fff"/>
          </g>
          <g id="Grupo_34581" data-name="Grupo 34581">
            <path id="Trazado_37246" data-name="Trazado 37246" d="M409.353,175.4l1.155-1.264a1.984,1.984,0,0,0-.127-2.794l-9.1-9.654a1.983,1.983,0,0,0-2.794.126L396,164.543a1.984,1.984,0,0,0,.126,2.794l10.436,8.194A1.983,1.983,0,0,0,409.353,175.4Z" fill="#e28f56"/>
            <g id="Grupo_34580" data-name="Grupo 34580">
              <path id="Trazado_37247" data-name="Trazado 37247" d="M384.336,194.236c-.251-.006-3.793.081-4.039.031-2.371-.485-2.792-2.625-2.5-4.924l-1.254-19.232a4.3,4.3,0,0,1,.391-2.225,4.418,4.418,0,0,1,4.493-2.381l27.319,5.476a4.8,4.8,0,0,1,2.4,1.311c2.111,2.127,1.877,3.849,1.615,5.936l-1.18,9.435c-.224,5.383-2.784,6.279-5.207,5.972Z" fill="#eaa271"/>
            </g>
            <path id="Trazado_37248" data-name="Trazado 37248" d="M399.126,189.409l21.982,13.8,8.137-7.449-22.688-18.065Z" fill="#eaa271"/>
          </g>
          <path id="Trazado_37249" data-name="Trazado 37249" d="M506.942,79.018" fill="#252430"/>
          <path id="Trazado_37250" data-name="Trazado 37250" d="M404.8,203.085s57.58,91.679,76.8,88c17.176-3.287-9.866-56.118-58.385-104.133Z" fill="#252430"/>
          <path id="Trazado_37251" data-name="Trazado 37251" d="M449.757,242.7,481.6,291.087s-4.879,1.283-8.635.352c-11.462-2.838-32.179-20.526-32.179-20.526Z" fill="#252430"/>
        </g>
        <ellipse id="Elipse_737" data-name="Elipse 737" cx="51.405" cy="66.263" rx="51.405" ry="66.263" transform="translate(142.346 137.912) rotate(-88.523)" fill="#fff"/>
        <path id="Trazado_37252" data-name="Trazado 37252" d="M261.282,104.474s15.256,20.752,56.351,33.357c0,0-42.686-1.093-65.962-24.532Z" fill="#fff"/>
      </g>
    </g>
    <g id="Grupo_34587" data-name="Grupo 34587">
      <g id="Grupo_34586" data-name="Grupo 34586">
        <path id="Trazado_37253" data-name="Trazado 37253" d="M314.579,188.223l1.033,1.333a1.953,1.953,0,0,0,2.733.346l10.9-7.216a1.955,1.955,0,0,0,.346-2.733l-2.227-2.872a1.954,1.954,0,0,0-2.733-.347l-9.706,8.756A1.953,1.953,0,0,0,314.579,188.223Z" fill="#e28f56"/>
        <path id="Trazado_37254" data-name="Trazado 37254" d="M301.462,213.167l-.063-30.06,14.868-.693-1.459,41.533Z" fill="#f9b180"/>
        <g id="Grupo_34585" data-name="Grupo 34585">
          <path id="Trazado_37255" data-name="Trazado 37255" d="M295.493,165.287c-.02-.247-.453-3.711-.428-3.957.242-2.372,2.3-2.995,4.58-2.938l18.729-3.121a4.233,4.233,0,0,1,2.219.164,4.352,4.352,0,0,1,2.776,4.17l-2.68,27.318a4.734,4.734,0,0,1-1.049,2.482c-1.877,2.278-3.589,2.218-5.66,2.167l-9.364-.229c-5.3.31-6.429-2.111-6.367-4.516Z" fill="#f9b180"/>
        </g>
      </g>
      <path id="Trazado_37256" data-name="Trazado 37256" d="M315.97,162.533l1.389-18.3a1.556,1.556,0,0,1,1.63-1.437l4.1-.4a2.307,2.307,0,0,1,1.747,2.19l-1.948,19.883c-.079.941-.9.448-1.821.242l-3.889-.543A1.558,1.558,0,0,1,315.97,162.533Z" fill="#f9b180"/>
    </g>
    <path id="Trazado_37257" data-name="Trazado 37257" d="M297.347,199.655l-1.679,123.792,23.4,1.714s.515-103.348,1.343-123.816Z" fill="#252430"/>
    <g id="Grupo_34594" data-name="Grupo 34594">
      <path id="Trazado_37258" data-name="Trazado 37258" d="M237.724,85.953c.235.024.578.077,1.035.163a18.985,18.985,0,0,1,2.736.718c1.829.637,4.143,1.82,4.424,3.973.129.992,1.708,1,1.577,0-.577-4.419-5.962-6.041-9.772-6.431-1.008-.1-1,1.474,0,1.577Z" fill="#2d2a2b"/>
      <g id="Grupo_34588" data-name="Grupo 34588">
        <path id="Trazado_37259" data-name="Trazado 37259" d="M240,106.146c-.021-5.189-1.358-20.808-2.045-29.935-.32-4.247-3.936-8.424-10.655-7.5l-41.12,3.877a4.6,4.6,0,0,0-3.091,1.694Z" fill="#f7941d"/>
        <path id="Trazado_37260" data-name="Trazado 37260" d="M183.07,74.277a4.6,4.6,0,0,0-.992,3.383l2.446,35.3c.033.3.039,1.216.085,1.518.446,2.9,3.131,7.918,13.184,7.89,6.261-.017,28.985-7.178,32.746-7.705a4.582,4.582,0,0,0,1.271-.37c1.5-.692,5.935-6.781,5.914-11.962Z" fill="#db7b12"/>
        <path id="Trazado_37261" data-name="Trazado 37261" d="M190.988,116.28a4.539,4.539,0,0,0,.186.894,7.343,7.343,0,0,0,7.713,5.22c6.257-.191,31.631-3.725,35.392-4.253a4.515,4.515,0,0,0,1.271-.37c1.5-.692,4.592-2.744,4.571-7.925s-1.467-24.557-2.166-33.635a4.613,4.613,0,0,0-5.1-4.231l-41.5,4.562c-2.528.278-3.324,1.731-3.052,4.26Z" fill="#f4bc1e"/>
        <path id="Trazado_37262" data-name="Trazado 37262" d="M192.214,80.111l41.525-4.133s2.517,23.21,3.006,33.7a5.191,5.191,0,0,1-4.194,5.592c-4.684,1.049-32.681,4.335-32.681,4.335s-4.02.489-5.139-2.936S192.214,80.111,192.214,80.111Z" fill="#e8b125"/>
      </g>
      <g id="Grupo_34590" data-name="Grupo 34590">
        <path id="Trazado_37263" data-name="Trazado 37263" d="M195.861,71.782l.659-1.119a11.263,11.263,0,0,0-6.183.453l1.807.691Z" fill="#9b4e10"/>
        <path id="Trazado_37264" data-name="Trazado 37264" d="M225.928,69.142l.658-1.12a11.259,11.259,0,0,0-6.182.453l1.807.692Z" fill="#9b4e10"/>
        <path id="Trazado_37265" data-name="Trazado 37265" d="M222.054,72.077s2.391.806,3.969-.7l-1.136-14.6s-.511-4.975-5.424-5.339c-5.166-.384-23.939,1.642-23.939,1.642a6.714,6.714,0,0,0-5.122,7.108c.212,6.453.939,14.572.939,14.572a8.082,8.082,0,0,0,4.782-.533l-.814-12.242s-.471-3.67,2.9-4.062c3.914-.456,19.846-1.483,19.846-1.483a2.276,2.276,0,0,1,2.622,1.957C220.92,60.64,222.054,72.077,222.054,72.077Z" fill="#999"/>
        <g id="Grupo_34589" data-name="Grupo 34589">
          <path id="Trazado_37266" data-name="Trazado 37266" d="M194.035,54.567s18.772-2.025,23.939-1.642c4.913.365,5.424,5.34,5.424,5.34l1.083,13.925a3.251,3.251,0,0,0,1.542-.811l-1.136-14.6s-.511-4.975-5.424-5.339c-5.166-.384-23.939,1.642-23.939,1.642a6.971,6.971,0,0,0-3.9,2.613A6.962,6.962,0,0,1,194.035,54.567Z" fill="#c1c1c1"/>
          <path id="Trazado_37267" data-name="Trazado 37267" d="M195.652,59.686c-2.195.954-1.832,3.786-1.832,3.786l.746,11.224a10.275,10.275,0,0,0,1.557-.471l-.814-12.242A4.8,4.8,0,0,1,195.652,59.686Z" fill="#c1c1c1"/>
        </g>
        <path id="Trazado_37268" data-name="Trazado 37268" d="M220.8,72.359l-.395-3.884a11.8,11.8,0,0,0,6.182-.453l.426,3.755S225.346,73.028,220.8,72.359Z" fill="#c66b10"/>
        <path id="Trazado_37269" data-name="Trazado 37269" d="M190.733,75l-.4-3.884a11.814,11.814,0,0,0,6.183-.453l.425,3.755S195.279,75.669,190.733,75Z" fill="#c66b10"/>
      </g>
      <path id="Trazado_37270" data-name="Trazado 37270" d="M186.7,91.778A14.354,14.354,0,0,0,182,95.237a9.4,9.4,0,0,0-2.186,3.907,5.136,5.136,0,0,0,.207,3.809c1.149,1.857,3.861,1.547,5.669,1.163a30.225,30.225,0,0,0,8.952-3.792,29.227,29.227,0,0,0,8.438-7.1c.615-.807-.754-1.593-1.361-.8a25.641,25.641,0,0,1-6.541,5.706,34.291,34.291,0,0,1-8.017,3.947,13.726,13.726,0,0,1-3.364.729,3.289,3.289,0,0,1-2.181-.4c-.579-.451-.515-1.494-.407-2.24a7.338,7.338,0,0,1,1.781-3.679,13.2,13.2,0,0,1,4.5-3.353c.924-.414.123-1.773-.8-1.362Z" fill="#2d2a2b"/>
      <g id="Grupo_34591" data-name="Grupo 34591">
        <path id="Trazado_37271" data-name="Trazado 37271" d="M222.463,112.594l-2.875-5.876a4.431,4.431,0,1,0-6.085.532l-1.528,6.147Z" fill="#c66b10"/>
        <path id="Trazado_37272" data-name="Trazado 37272" d="M213.777,113.259l1.463-5.886a4.43,4.43,0,0,1,2.2-7.859,4.431,4.431,0,0,0-3.938,7.736l-1.528,6.147Z" fill="#9b4e10"/>
      </g>
      <g id="Grupo_34593" data-name="Grupo 34593">
        <path id="Trazado_37273" data-name="Trazado 37273" d="M204.969,85.055l5.19,2.617-5.816,3.815,3.458-3.558Z" fill="#331907"/>
        <path id="Trazado_37274" data-name="Trazado 37274" d="M224.435,82.937l-4.506,3.672,6.5,2.475-4.142-2.731Z" fill="#331907"/>
        <path id="Trazado_37275" data-name="Trazado 37275" d="M227.637,81.614s-2.116-2.321-4.737-1.194A8.609,8.609,0,0,1,227.637,81.614Z" fill="#2d2a2b"/>
        <path id="Trazado_37276" data-name="Trazado 37276" d="M199.87,84.791s1.868-3.979,5.84-3.557C205.71,81.234,203.013,81.67,199.87,84.791Z" fill="#2d2a2b"/>
        <path id="Trazado_37277" data-name="Trazado 37277" d="M210.242,92.135l-1.191,1.894,1.017-.111,1.038-1.951Z" fill="#db7b12"/>
        <path id="Trazado_37278" data-name="Trazado 37278" d="M208.713,92.3,207.521,94.2l1.017-.111,1.038-1.951Z" fill="#db7b12"/>
        <path id="Trazado_37279" data-name="Trazado 37279" d="M222.479,90.433l-1.191,1.894,1.017-.111,1.038-1.951Z" fill="#db7b12"/>
        <path id="Trazado_37280" data-name="Trazado 37280" d="M220.949,90.6l-1.191,1.894,1.017-.111,1.038-1.951Z" fill="#db7b12"/>
        <g id="Grupo_34592" data-name="Grupo 34592">
          <path id="Trazado_37281" data-name="Trazado 37281" d="M215.658,93.066a2.416,2.416,0,0,1,2.589.75,6.18,6.18,0,0,0-.632-3.258,8.1,8.1,0,0,1-4.423.69s-.685,2.439.26,3.754A2.348,2.348,0,0,1,215.658,93.066Z" fill="#331907"/>
          <path id="Trazado_37282" data-name="Trazado 37282" d="M216.041,95.752a2.346,2.346,0,0,0,2.206-1.936,2.416,2.416,0,0,0-2.589-.75A2.348,2.348,0,0,0,213.452,95,2.418,2.418,0,0,0,216.041,95.752Z" fill="#e33333"/>
          <path id="Trazado_37283" data-name="Trazado 37283" d="M215.658,93.811a2.555,2.555,0,0,1,2.426.553,2.433,2.433,0,0,0,.163-.548,2.416,2.416,0,0,0-2.589-.75A2.348,2.348,0,0,0,213.452,95a2.027,2.027,0,0,0,.163.2A2.445,2.445,0,0,1,215.658,93.811Z" fill="#d11a1a"/>
        </g>
      </g>
      <path id="Trazado_37284" data-name="Trazado 37284" d="M198.622,96.29a3.994,3.994,0,0,1-.8-3.363c.42-2.045,4.618-5.243,5.586-4.509s-.6,2.5-.6,2.5,2.28-1.5,3.027-.609-1.231,2.516-1.231,2.516,1.871-1.306,2.423-.522S202.669,100.334,198.622,96.29Z" fill="#2d2a2b"/>
      <path id="Trazado_37285" data-name="Trazado 37285" d="M197.689,93.362s-1.281-3.305.654-4.139c1.286-.554,1.178,3,1.627,3.468S198.457,93.9,197.689,93.362Z" fill="#2d2a2b"/>
      <path id="Trazado_37286" data-name="Trazado 37286" d="M245.919,90.807c.284,3.112-3.74,3.176-5.911,2.956a20.335,20.335,0,0,1-11.064-4.83c-.761-.666-1.88.445-1.115,1.115A21.925,21.925,0,0,0,240.6,95.389c2.989.187,7.246-.736,6.9-4.582-.092-1-1.669-1.012-1.577,0Z" fill="#2d2a2b"/>
      <path id="Trazado_37287" data-name="Trazado 37287" d="M232.78,92.133a3.987,3.987,0,0,0,.112-3.453c-.817-1.921-5.567-4.221-6.37-3.31s1.089,2.327,1.089,2.327-2.532-1.018-3.088.005,1.707,2.221,1.707,2.221-2.093-.908-2.479-.03S229.618,96.9,232.78,92.133Z" fill="#2d2a2b"/>
      <path id="Trazado_37288" data-name="Trazado 37288" d="M233.113,89.078s.6-3.493-1.463-3.926c-1.37-.288-.559,3.174-.906,3.722S232.468,89.758,233.113,89.078Z" fill="#2d2a2b"/>
    </g>
  </g>
</svg>
