<svg xmlns="http://www.w3.org/2000/svg" xmlns:xlink="http://www.w3.org/1999/xlink" width="700" height="320" viewBox="0 0 700 320">
  <defs>
    <clipPath id="clip-path">
      <rect id="Rect치ngulo_3782" data-name="Rect치ngulo 3782" width="700" height="320" transform="translate(0 1)" fill="none"/>
    </clipPath>
    <clipPath id="clip-path-2">
      <path id="Trazado_37316" data-name="Trazado 37316" d="M259.955,199.956l181.569,1.052a3.682,3.682,0,0,0,3.7-3.647l.668-133-188.91-1.1-.668,133A3.68,3.68,0,0,0,259.955,199.956Z" fill="none"/>
    </clipPath>
    <linearGradient id="linear-gradient" x1="-49.438" y1="-33.376" x2="-49.25" y2="-35.397" gradientUnits="objectBoundingBox">
      <stop offset="0" stop-color="#fff"/>
      <stop offset="0.036" stop-color="#fff" stop-opacity="0.941"/>
      <stop offset="0.192" stop-color="#fff" stop-opacity="0.694"/>
      <stop offset="0.347" stop-color="#fff" stop-opacity="0.482"/>
      <stop offset="0.497" stop-color="#fff" stop-opacity="0.31"/>
      <stop offset="0.64" stop-color="#fff" stop-opacity="0.176"/>
      <stop offset="0.775" stop-color="#fff" stop-opacity="0.078"/>
      <stop offset="0.898" stop-color="#fff" stop-opacity="0.02"/>
      <stop offset="1" stop-color="#fff" stop-opacity="0"/>
    </linearGradient>
    <linearGradient id="linear-gradient-2" x1="-44.9" y1="-20.496" x2="-44.704" y2="-21.916" xlink:href="#linear-gradient"/>
  </defs>
  <g id="Grupo_34616" data-name="Grupo 34616" transform="translate(0 -1)">
    <g id="Grupo_34615" data-name="Grupo 34615" clip-path="url(#clip-path)">
      <g id="FONDO">
        <rect id="Rect치ngulo_3781" data-name="Rect치ngulo 3781" width="700" height="320" transform="translate(700 321) rotate(180)" fill="#faf3ff"/>
        <g id="Grupo_34597" data-name="Grupo 34597">
          <path id="Trazado_37289" data-name="Trazado 37289" d="M700,37.848l-286.023.927,36.656,147.1L696.715,188.4" fill="none" stroke="#dfa9ff" stroke-miterlimit="10" stroke-width="0.267"/>
          <path id="Trazado_37290" data-name="Trazado 37290" d="M-10.2,104.4l159.7,11.116V251.729l-159.7-3.312Z" fill="none" stroke="#dfa9ff" stroke-miterlimit="10" stroke-width="0.267"/>
          <path id="Trazado_37291" data-name="Trazado 37291" d="M99.975-2l6.582,74.654L-6.451,65.306" fill="none" stroke="#dfa9ff" stroke-miterlimit="10" stroke-width="0.267"/>
          <path id="Trazado_37292" data-name="Trazado 37292" d="M696.715,95.8l-241.78-5.16L481.724-4.8" fill="none" stroke="#dfa9ff" stroke-miterlimit="10" stroke-width="0.267"/>
          <path id="Trazado_37293" data-name="Trazado 37293" d="M696.715,121.165l-188.648.927L454.138,321.676" fill="none" stroke="#dfa9ff" stroke-miterlimit="10" stroke-width="0.267"/>
          <path id="Trazado_37294" data-name="Trazado 37294" d="M-10.2,182.569l201.334-18.376-17.29,157.659-183.7-1.226Z" fill="none" stroke="#dfa9ff" stroke-miterlimit="10" stroke-width="0.267"/>
          <path id="Trazado_37295" data-name="Trazado 37295" d="M656.423,133.906l.443,3.359h12.785v-3.6Z" fill="#c955ff"/>
          <path id="Trazado_37296" data-name="Trazado 37296" d="M95.062,119.746,95.5,123.1H108.29v-3.6Z" fill="#c955ff"/>
          <path id="Trazado_37297" data-name="Trazado 37297" d="M614.925,202.225l.443,3.359h12.785v-3.6Z" fill="#cab1d9"/>
          <path id="Trazado_37298" data-name="Trazado 37298" d="M623.726,208.8l.443,3.359h12.785v-3.6Z" fill="#fff"/>
          <path id="Trazado_37299" data-name="Trazado 37299" d="M91.677,51.065l-.443,3.359H78.449v-3.6Z" fill="#cab1d9"/>
          <path id="Trazado_37300" data-name="Trazado 37300" d="M82.875,57.638,82.432,61H69.647V57.4Z" fill="#fff"/>
          <path id="Trazado_37301" data-name="Trazado 37301" d="M504.35,111.563l.443,3.359h12.785v-3.6Z" fill="#cab1d9"/>
          <path id="Trazado_37302" data-name="Trazado 37302" d="M517.578,131.327l.443,3.359h12.785v-3.6Z" fill="#fff"/>
          <path id="Trazado_37303" data-name="Trazado 37303" d="M643.2,28.788l.443,3.359h12.785v-3.6Z" fill="#cab1d9"/>
          <path id="Trazado_37304" data-name="Trazado 37304" d="M95.062,208.025l.443,3.359H108.29v-3.6Z" fill="#cab1d9"/>
          <path id="Trazado_37305" data-name="Trazado 37305" d="M656.423,48.552l.443,3.359h12.785v-3.6Z" fill="#fff"/>
        </g>
      </g>
      <g id="Grupo_34600" data-name="Grupo 34600">
        <g id="Grupo_34599" data-name="Grupo 34599">
          <path id="Trazado_37306" data-name="Trazado 37306" d="M487.253,252.269l-33.728-47.743L476.4,186.792l44.142,67.693Z" fill="#f9b180"/>
          <g id="Grupo_34598" data-name="Grupo 34598">
            <path id="Trazado_37307" data-name="Trazado 37307" d="M424.193,182.79c-.306-.371-4.871-5.395-5.107-5.815-2.268-4.042.3-7.334,4-9.8l26.3-25.915a8.233,8.233,0,0,1,3.714-2.222,8.463,8.463,0,0,1,9.081,3.527l26.3,46.449a9.212,9.212,0,0,1,1.109,5.12c-.438,5.725-3.227,7.544-6.579,9.78l-15.151,10.111c-8.081,6.422-12.586,3.834-15.178-.061Z" fill="#f9b180"/>
          </g>
        </g>
      </g>
      <path id="Trazado_37308" data-name="Trazado 37308" d="M455.534,229.818l44.249-28.081L585,320H508Z" fill="#252430"/>
      <g id="Grupo_34603" data-name="Grupo 34603">
        <g id="Grupo_34602" data-name="Grupo 34602">
          <path id="Trazado_37309" data-name="Trazado 37309" d="M212.224,252.269l33.728-47.743-22.874-17.735-44.142,67.693Z" fill="#f9b180"/>
          <g id="Grupo_34601" data-name="Grupo 34601">
            <path id="Trazado_37310" data-name="Trazado 37310" d="M275.283,182.79c.307-.371,4.872-5.395,5.107-5.815,2.268-4.042-.305-7.334-4-9.8l-26.3-25.915a8.227,8.227,0,0,0-3.714-2.222,8.464,8.464,0,0,0-9.081,3.527L211,189.017a9.2,9.2,0,0,0-1.109,5.12c.437,5.725,3.227,7.544,6.578,9.78l15.151,10.111c8.082,6.422,12.587,3.834,15.178-.061Z" fill="#f9b180"/>
          </g>
        </g>
      </g>
      <path id="Trazado_37311" data-name="Trazado 37311" d="M243.943,229.818l-44.249-28.081L115,320h76Z" fill="#252430"/>
      <g id="Grupo_34614" data-name="Grupo 34614">
        <path id="Trazado_37312" data-name="Trazado 37312" d="M257.658,30.815,246.38,28.1s-12.022-1.543-17.126,7.319a31.21,31.21,0,0,0-2.033,10.318c-.283,6.358,2.167,161.379,2.167,161.379s-.275,12.327,10.116,12.789,19.511.634,19.511.634Z" fill="#2d2d2d"/>
        <path id="Trazado_37313" data-name="Trazado 37313" d="M233.748,40.779l2.126,167.194a12.5,12.5,0,0,0,11.923,12.3l209.55,4.947a12.5,12.5,0,0,0,13.071-12.466l.246-169.835A12.5,12.5,0,0,0,458.3,30.409L246.38,28.1A12.5,12.5,0,0,0,233.748,40.779Z" fill="#434444"/>
        <path id="Trazado_37314" data-name="Trazado 37314" d="M248.156,210.949a3.168,3.168,0,0,1-2.948-3.111L243.082,40.66a3.163,3.163,0,0,1,3.2-3.223L458.2,39.743l.114,0a3.151,3.151,0,0,1,3.014,3.164l-.246,169.835a3.162,3.162,0,0,1-3.3,3.155l-.1,0Z" fill="#231f20"/>
        <g id="Grupo_34611" data-name="Grupo 34611">
          <g id="Grupo_34605" data-name="Grupo 34605">
            <g id="Grupo_34604" data-name="Grupo 34604" clip-path="url(#clip-path-2)">
              <path id="Trazado_37315" data-name="Trazado 37315" d="M445.991,203.315l-189.9-1.247.7-138.3,189.9,1.247Z" fill="#1b2b3f"/>
            </g>
          </g>
          <path id="Trazado_37317" data-name="Trazado 37317" d="M442.278,54.857,260.71,53.806a3.682,3.682,0,0,0-3.695,3.647l-.042,6.314,188.911,1.1.041-6.314A3.682,3.682,0,0,0,442.278,54.857Z" fill="#ededed"/>
          <g id="Grupo_34606" data-name="Grupo 34606">
            <circle id="Elipse_738" data-name="Elipse 738" cx="1.788" cy="1.788" r="1.788" transform="translate(259.905 56.9)" fill="#e5035f"/>
            <circle id="Elipse_739" data-name="Elipse 739" cx="1.788" cy="1.788" r="1.788" transform="translate(265.361 56.936)" fill="#04ae4d"/>
            <circle id="Elipse_740" data-name="Elipse 740" cx="1.788" cy="1.788" r="1.788" transform="translate(270.74 56.971)" fill="#ffae0d"/>
          </g>
          <path id="Trazado_37318" data-name="Trazado 37318" d="M425.549,187.672l-144.712-.857a.386.386,0,0,1-.384-.389l.516-109.9a.388.388,0,0,1,.389-.384L426.07,77a.386.386,0,0,1,.384.389l-.516,109.9A.387.387,0,0,1,425.549,187.672Z" fill="#fff"/>
          <g id="Grupo_34610" data-name="Grupo 34610">
            <path id="Trazado_37319" data-name="Trazado 37319" d="M403.386,89.153c-53.75-12.032-106.2,12.289-106.2,12.289l6.323,77s52.454-24.321,106.2-12.289Z" fill="#c4c4cc"/>
            <path id="Trazado_37320" data-name="Trazado 37320" d="M388.5,96.155a7.064,7.064,0,0,0,8.973,5.464l3.976,48.427a7.037,7.037,0,0,0-7.079,6.648,178.119,178.119,0,0,0-50.918,2.564,216.561,216.561,0,0,0-25.722,6.5,7.209,7.209,0,0,0-.1-.736,7.067,7.067,0,0,0-8.25-5.64c-.167.031-.328.075-.49.118l-3.87-47.137a6.971,6.971,0,0,0,1.23-.115,7.052,7.052,0,0,0,5.453-9,202.213,202.213,0,0,1,27.98-7.388,163.082,163.082,0,0,1,48.8-2.193A7.058,7.058,0,0,0,388.5,96.155Z" fill="#dcdce2"/>
            <g id="Grupo_34607" data-name="Grupo 34607">
              <path id="Trazado_37321" data-name="Trazado 37321" d="M383.78,128.5l.882-2.065.445,2.2,1.133-1.938.165,2.239,1.367-1.781-.117,2.242,1.58-1.6-.4,2.21,1.767-1.385-.671,2.143,1.927-1.153-.934,2.042,2.056-.9-1.182,1.909,2.153-.637-1.412,1.746,2.216-.362-1.62,1.555,2.244-.082-1.8,1.34,2.237.2-1.956,1.1,2.194.479-2.079.849,2.116.75-2.169.582,2.006,1.009-2.225.306,1.863,1.253-2.245.024,1.692,1.477L392.786,144l1.493,1.677-2.181-.535,1.271,1.851-2.1-.8,1.029,2-1.979-1.06.771,2.109-1.831-1.3.5,2.189L388.11,148.6l.222,2.234-1.45-1.714-.059,2.245-1.224-1.883-.34,2.22-.978-2.021-.616,2.159-.717-2.128-.882,2.065-.445-2.2-1.133,1.938-.165-2.239-1.367,1.781.117-2.242-1.58,1.6.4-2.21-1.767,1.385.671-2.143-1.927,1.153.934-2.042-2.056.9,1.182-1.909-2.153.637,1.412-1.746-2.216.362,1.62-1.555-2.244.082,1.8-1.34-2.237-.2,1.956-1.1-2.194-.479,2.079-.849-2.116-.75,2.169-.582-2.006-1.009,2.225-.306-1.863-1.253,2.245-.024-1.692-1.477,2.231.257-1.493-1.677,2.181.535-1.271-1.851,2.1.8-1.029-2,1.979,1.06-.771-2.109,1.831,1.3-.5-2.189,1.653,1.519-.222-2.234,1.45,1.714.059-2.245,1.224,1.883.34-2.22.978,2.021.616-2.159Z" fill="#e28a0c"/>
              <circle id="Elipse_741" data-name="Elipse 741" cx="10.026" cy="10.026" r="10.026" transform="translate(373.338 129.08)" fill="#ea9b11"/>
              <path id="Trazado_37322" data-name="Trazado 37322" d="M383.119,145.354a6.253,6.253,0,1,1,6.493-6A6.259,6.259,0,0,1,383.119,145.354Z" fill="#d38913"/>
            </g>
            <path id="Trazado_37323" data-name="Trazado 37323" d="M319.523,137.556c.534-.238-.246.092.014-.009.519-.2,1.039-.4,1.564-.585,2.036-.721,4.114-1.326,6.206-1.863a124.193,124.193,0,0,1,23.9-3.487c3.193-.181,3.267-5.177.051-5-11.319.642-23.708,1.914-34.209,6.6-2.932,1.309-.44,5.641,2.477,4.339Z" fill="#c7c7d1"/>
            <path id="Trazado_37324" data-name="Trazado 37324" d="M320.873,146.811c.534-.238-.246.092.014-.009.518-.2,1.039-.4,1.564-.585,2.036-.721,4.114-1.325,6.206-1.863a124.18,124.18,0,0,1,23.9-3.486c3.193-.181,3.267-5.178.05-5-11.318.642-23.708,1.914-34.209,6.6-2.932,1.309-.44,5.641,2.478,4.338Z" fill="#c7c7d1"/>
            <path id="Trazado_37325" data-name="Trazado 37325" d="M322.15,157c.533-.238-.246.092.013-.009.519-.2,1.039-.4,1.564-.585,2.036-.721,4.115-1.325,6.206-1.863a124.123,124.123,0,0,1,23.9-3.486c3.192-.181,3.266-5.178.05-5-11.319.642-23.708,1.914-34.209,6.6-2.932,1.308-.44,5.641,2.478,4.338Z" fill="#c7c7d1"/>
            <g id="Grupo_34608" data-name="Grupo 34608">
              <path id="Trazado_37326" data-name="Trazado 37326" d="M360.468,107.826a4.558,4.558,0,1,0,4.115-4.725A4.435,4.435,0,0,0,360.468,107.826Z" fill="#231f20"/>
              <path id="Trazado_37327" data-name="Trazado 37327" d="M363.551,106.566a1.189,1.189,0,0,0,.171,1.6c.64.585-.215,1.629-.857,1.042a2.516,2.516,0,0,1-.539-3.2.7.7,0,0,1,.9-.33.678.678,0,0,1,.33.9Z" fill="#fff"/>
            </g>
            <g id="Grupo_34609" data-name="Grupo 34609">
              <path id="Trazado_37328" data-name="Trazado 37328" d="M331.8,111.015a4.558,4.558,0,1,0,4.115-4.725A4.435,4.435,0,0,0,331.8,111.015Z" fill="#231f20"/>
              <path id="Trazado_37329" data-name="Trazado 37329" d="M334.887,109.756a1.19,1.19,0,0,0,.171,1.6c.64.584-.214,1.628-.857,1.041a2.516,2.516,0,0,1-.539-3.2.7.7,0,0,1,.9-.33.678.678,0,0,1,.33.9Z" fill="#fff"/>
            </g>
            <path id="Trazado_37330" data-name="Trazado 37330" d="M335.6,100.781s-6.513,1.883-6.784,3.25a4.149,4.149,0,0,0,.181,2.355s5.878-3.7,6.558-3.967S335.6,100.781,335.6,100.781Z" fill="#231f20"/>
            <path id="Trazado_37331" data-name="Trazado 37331" d="M362.373,97.227s6.779-.042,7.428,1.192a4.15,4.15,0,0,1,.494,2.309s-6.685-1.876-7.414-1.943S362.373,97.227,362.373,97.227Z" fill="#231f20"/>
            <path id="Trazado_37332" data-name="Trazado 37332" d="M353.959,115.683s-.573,2.437-2.5,2.661a3.178,3.178,0,0,1-3.251-1.783s-.409-.926-.99-.453c0,0-.506.389.041,1.089a4.637,4.637,0,0,0,4.365,2.252s2.778-.056,3.562-3.549c0,0,.1-.679-.292-.837C354.895,115.063,354.156,114.773,353.959,115.683Z" fill="#231f20"/>
          </g>
        </g>
        <g id="Grupo_34612" data-name="Grupo 34612">
          <circle id="Elipse_742" data-name="Elipse 742" cx="2.011" cy="2.011" r="2.011" transform="translate(463.508 126.866)" fill="#212121"/>
        </g>
        <g id="Grupo_34613" data-name="Grupo 34613">
          <circle id="Elipse_743" data-name="Elipse 743" cx="2.72" cy="2.72" r="2.72" transform="translate(237.132 124.736)" fill="#212121"/>
          <path id="Trazado_37333" data-name="Trazado 37333" d="M242.573,127.461a2.707,2.707,0,0,0-.591-1.695,2.772,2.772,0,0,1,.057.558,2.719,2.719,0,0,1-4.85,1.686,2.72,2.72,0,0,0,5.384-.549Z" fill="#212121"/>
        </g>
        <path id="Trazado_37334" data-name="Trazado 37334" d="M461.25,97.258l-135.1-58.78L297.5,38.152l-35.62-.406,199.309,104.98Z" opacity="0.069" fill="url(#linear-gradient)"/>
        <path id="Trazado_37335" data-name="Trazado 37335" d="M461.061,165.059,243.257,45.867l1.083,88.186,147.079,80.278,65.149,1.628a4.621,4.621,0,0,0,4.7-4.98Z" opacity="0.069" fill="url(#linear-gradient-2)"/>
      </g>
      <path id="Trazado_37336" data-name="Trazado 37336" d="M214.18,192.926l-2.228-2.406a3.8,3.8,0,0,1,.2-5.354l17.31-18.615a3.8,3.8,0,0,1,5.353.205l4.8,5.185a3.8,3.8,0,0,1-.2,5.353L219.533,193.13A3.8,3.8,0,0,1,214.18,192.926Z" fill="#e28f56"/>
      <path id="Trazado_37337" data-name="Trazado 37337" d="M485.3,192.926l2.229-2.406a3.8,3.8,0,0,0-.2-5.354l-17.309-18.615a3.8,3.8,0,0,0-5.354.205l-4.8,5.185a3.8,3.8,0,0,0,.2,5.353l19.884,15.836A3.8,3.8,0,0,0,485.3,192.926Z" fill="#e28f56"/>
    </g>
  </g>
</svg>
