<svg xmlns="http://www.w3.org/2000/svg" width="296.257" height="84.059" viewBox="0 0 296.257 84.059">
  <g id="Grupo_34402" data-name="Grupo 34402" transform="translate(-389.649 -69.584)">
    <g id="Grupo_1108" data-name="Grupo 1108" transform="translate(389.649 69.584)">
      <g id="Grupo_1107" data-name="Grupo 1107" transform="translate(0 0)">
        <path id="Trazado_643" data-name="Trazado 643" d="M245.781,42.3c-25.4-4.95-51.753,4.966-53.711,25.325-1.382,14.353,2.675,19.609.445,28.362s-3.962,19.7,11.57,25.052,47.987,6.331,66.108-2.72,5.39-23.78,6.947-34.114S277.387,48.459,245.781,42.3Z" transform="translate(-180.179 -41.041)" fill="#383838"/>
        <path id="Trazado_644" data-name="Trazado 644" d="M234.331,150.632c-3.633.4-3.327-3.323-4.505-7.784s-7.641-10.514-16-5.472-9.392,10.344-6.972,18.659,10.292,5.215,9.67,9.887-4.146,14.228,2.743,19.778c9.436,7.6,29.646,7.611,43.877,1.151,7.558-3.431.976-16.78,3.064-18.922s15.579-.546,15.365-12.32-8.953-17.989-17.4-16.164-9.425,5.788-9.619,10.761c-.118,3.03-2.639,2.981-3.985,2.358A34.941,34.941,0,0,0,234.331,150.632Z" transform="translate(-190.825 -109.678)" fill="#303030"/>
        <path id="Trazado_645" data-name="Trazado 645" d="M291.6,245.648c-4.423,6.673,18.805,8.635,20.853,3.361s-8.011-19.422-9.534-19.089S294.431,239.7,291.6,245.648Z" transform="translate(-252.845 -178.327)"/>
        <path id="Trazado_646" data-name="Trazado 646" d="M305.373,287.352a2.642,2.642,0,0,0,1.677,3.118c2.24.812,9.47,1.253,10.815.284s.563-3.246.563-3.246Z" transform="translate(-263.216 -220.077)" fill="#191919"/>
        <path id="Trazado_647" data-name="Trazado 647" d="M239.855,161.411a9.136,9.136,0,1,1-9.691-9A9.359,9.359,0,0,1,239.855,161.411Z" transform="translate(-202.384 -121.978)" fill="#fff"/>
        <path id="Trazado_648" data-name="Trazado 648" d="M179.115,48.728c-1.579-4.5-5.233-9.09-13.007-.531-5.933,6.535-14.1,4.76-14.865,10.935s7.239,7.765,8.406,15.032,8.833-1.09,10.023-10.157,6.307-13.346,6.307-13.346Z" transform="translate(-151.192 -42.746)" fill="#1c1c1c"/>
        <path id="Trazado_649" data-name="Trazado 649" d="M442.933,50.3c1.813-4.414,5.7-8.8,13.017.152,5.583,6.837,13.835,5.493,14.272,11.7s-7.636,7.375-9.182,14.571-8.764-1.551-9.476-10.668-5.6-13.658-5.6-13.658Z" transform="translate(-363.25 -44.098)" fill="#1c1c1c"/>
        <path id="Trazado_650" data-name="Trazado 650" d="M420.207,173.647a9.136,9.136,0,1,1-9.691-9A9.36,9.36,0,0,1,420.207,173.647Z" transform="translate(-333.476 -130.871)" fill="#fff"/>
        <path id="Trazado_651" data-name="Trazado 651" d="M424.156,182.117a6.787,6.787,0,1,1-7.189-6.361A6.787,6.787,0,0,1,424.156,182.117Z" transform="translate(-339.743 -138.952)"/>
        <path id="Trazado_652" data-name="Trazado 652" d="M241.831,172.164a6.786,6.786,0,1,1-6.714-6.857A6.786,6.786,0,0,1,241.831,172.164Z" transform="translate(-207.21 -131.366)"/>
        <path id="Trazado_653" data-name="Trazado 653" d="M256.948,204.391c-6.08,1.524-18.747,9.911-18.916,17.892s7.483,12.321,13.817,9.279,11.107-18.681,12.61-21.144C262.8,207.218,256.948,204.391,256.948,204.391Z" transform="translate(-214.311 -159.775)" fill="#191919"/>
        <path id="Trazado_654" data-name="Trazado 654" d="M332.547,214.118c.336,2.641,4.9,10.226,6.663,15.636s7.288,8.166,13.843,5.2,9.256-9.823,3.338-16.368-13.9-10.493-16.034-9.951C338.121,209.271,332.547,214.118,332.547,214.118Z" transform="translate(-283.013 -162.825)" fill="#191919"/>
        <path id="Trazado_655" data-name="Trazado 655" d="M242.891,113.665c-.086.231-.886.111-2.1.046a12.169,12.169,0,0,0-4.562.632,17.873,17.873,0,0,0-4.165,2.186c-1.026.692-1.682,1.174-1.868,1-.158-.142.179-.909,1.086-1.9a10.859,10.859,0,0,1,4.4-2.882,9.241,9.241,0,0,1,2.92-.518,8.517,8.517,0,0,1,2.388.306C242.3,112.931,242.971,113.464,242.891,113.665Z" transform="translate(-208.592 -92.784)"/>
        <path id="Trazado_656" data-name="Trazado 656" d="M430.671,124.822c-.2.142-.73-.3-1.552-.91a16.357,16.357,0,0,0-3.412-1.962,20.236,20.236,0,0,0-3.8-1.146c-1.016-.216-1.687-.339-1.711-.58-.025-.221.64-.527,1.787-.61a9.725,9.725,0,0,1,4.385.782,8.944,8.944,0,0,1,3.6,2.67,4.592,4.592,0,0,1,.685,1.182C430.755,124.558,430.767,124.755,430.671,124.822Z" transform="translate(-346.719 -98.138)"/>
        <g id="Grupo_1106" data-name="Grupo 1106" transform="translate(42.276 41.25)">
          <path id="Trazado_657" data-name="Trazado 657" d="M305.984,194.874s-.023-3.177,6.793-2.773,8.685,2.47,9.135,3.739-.577,7.684-8.54,7.151S305.984,194.874,305.984,194.874Z" transform="translate(-305.974 -192.066)"/>
          <path id="Trazado_658" data-name="Trazado 658" d="M320.6,205.552s-.257-2.87-2.7-2.4c-1.683.324-.386,5.235,1.138,5.746S320.669,207.024,320.6,205.552Z" transform="translate(-314.07 -200.086)" fill="#262626"/>
          <path id="Trazado_659" data-name="Trazado 659" d="M339.742,206.12s.407-2.853,2.823-2.255c1.663.411.111,5.248-1.438,5.678S339.6,207.586,339.742,206.12Z" transform="translate(-330.474 -200.582)" fill="#262626"/>
          <path id="Trazado_660" data-name="Trazado 660" d="M335.369,194.732s3.627.016,5.015,1.177c0,0,.077.787-2.172.235S335.02,195.484,335.369,194.732Z" transform="translate(-327.289 -194.004)" fill="#161616"/>
        </g>
        <path id="Trazado_661" data-name="Trazado 661" d="M237.73,179.712a1.179,1.179,0,0,1-1.174-1.093,4.923,4.923,0,0,1,2.949-5.1,1.179,1.179,0,0,1,.828,2.208,2.545,2.545,0,0,0-1.425,2.719,1.179,1.179,0,0,1-1.09,1.262C237.788,179.711,237.759,179.712,237.73,179.712Z" transform="translate(-213.228 -137.283)" fill="#fff"/>
        <path id="Trazado_662" data-name="Trazado 662" d="M421.382,189.529a1.179,1.179,0,0,1-1.174-1.093,4.923,4.923,0,0,1,2.949-5.1,1.179,1.179,0,0,1,.828,2.208,2.545,2.545,0,0,0-1.426,2.719,1.179,1.179,0,0,1-1.09,1.262C421.44,189.528,421.411,189.529,421.382,189.529Z" transform="translate(-346.719 -144.419)" fill="#fff"/>
      </g>
      <path id="Trazado_663" data-name="Trazado 663" d="M310.4,271.1s-.881-1.546.561-5.436a18.3,18.3,0,0,0,2.879,5.191A5.468,5.468,0,0,1,310.4,271.1Z" transform="translate(-266.72 -204.315)" fill="#fbfbf9"/>
      <path id="Trazado_664" data-name="Trazado 664" d="M319.1,272.517l-1.067,3.28a3.231,3.231,0,0,0,3.239.294Z" transform="translate(-272.463 -209.294)" fill="#fbfbf9"/>
      <path id="Trazado_665" data-name="Trazado 665" d="M305.066,281a68.936,68.936,0,0,0,12.191.258,1.467,1.467,0,0,1,1.368.631h0a1.472,1.472,0,0,1-.975,2.286c-2.169.352-6.182.611-12.96-.166a1.475,1.475,0,0,1-.948-2.431l.069-.079A1.468,1.468,0,0,1,305.066,281Z" transform="translate(-261.811 -215.456)" fill="#262626"/>
    </g>
    <text id="CASHME" transform="translate(599.906 123.573)" fill="#191b1d" font-size="39" font-family="AvenirNext-Bold, Avenir Next" font-weight="700" letter-spacing="0.016em"><tspan x="-85.995" y="0">CASHME</tspan></text>
  </g>
</svg>
