<?xml version="1.0" encoding="utf-8"?>
<!-- Generator: Adobe Illustrator 23.0.4, SVG Export Plug-In . SVG Version: 6.00 Build 0)  -->
<svg version="1.1" id="Capa_1" xmlns="http://www.w3.org/2000/svg" xmlns:xlink="http://www.w3.org/1999/xlink" x="0px" y="0px"
	 viewBox="0 0 177.2 38" style="enable-background:new 0 0 177.2 38;" xml:space="preserve">
<style type="text/css">
	.st0{fill:#383838;}
	.st1{fill:#303030;}
	.st2{fill:#191919;}
	.st3{fill:#FFFFFF;}
	.st4{fill:#1C1C1C;}
	.st5{fill:#262626;}
	.st6{fill:#161616;}
	.st7{fill:#FBFBF9;}
	.st8{enable-background:new    ;}
	.st9{fill:#191B1D;}
</style>
<g id="Grupo_34220" transform="translate(-422.824 -80)">
	<g id="Grupo_1108" transform="translate(271.632 41.959)">
		<g id="Grupo_1107" transform="translate(151.192 41.041)">
			<path id="Trazado_643" class="st0" d="M24.5,0.5C15-1.4,5.2,2.3,4.4,9.9c-0.5,5.4,1,7.3,0.2,10.6s-1.5,7.4,4.3,9.4
				s17.9,2.4,24.7-1s2-8.9,2.6-12.8S36.3,2.8,24.5,0.5z"/>
			<path id="Trazado_644" class="st1" d="M16.3,15.3c-1.4,0.1-1.2-1.2-1.7-2.9c-0.6-2.1-2.8-3.2-4.8-2.6c-0.4,0.1-0.8,0.3-1.1,0.6
				c-3.1,1.9-3.5,3.9-2.6,7s3.8,1.9,3.6,3.7s-1.6,5.3,1,7.4c3.5,2.8,11.1,2.8,16.4,0.4c2.8-1.3,0.4-6.3,1.1-7.1s5.8-0.2,5.7-4.6
				s-3.3-6.7-6.5-6s-3.5,2.2-3.6,4c0,1.1-1,1.1-1.5,0.9C20.4,15.3,18.3,15.1,16.3,15.3z"/>
			<path id="Trazado_645" d="M14.5,25.2c-1.7,2.5,7,3.2,7.8,1.3s-3-7.3-3.6-7.1S15.5,22.9,14.5,25.2z"/>
			<path id="Trazado_646" class="st2" d="M15.8,25.2c-0.1,0.5,0.2,1,0.6,1.2c0.8,0.3,3.5,0.5,4,0.1s0.2-1.2,0.2-1.2L15.8,25.2z"/>
			<path id="Trazado_647" class="st3" d="M14,14.7c0,1.9-1.5,3.4-3.4,3.5c-1.9,0-3.4-1.5-3.5-3.4c0-1.8,1.4-3.3,3.2-3.5
				C12.3,11.3,13.9,12.8,14,14.7z"/>
			<path id="Trazado_648" class="st4" d="M10.4,2.2C9.9,0.6,8.5-1.2,5.6,2C3.4,4.5,0.3,3.8,0,6.1S2.7,9,3.2,11.7s3.3-0.4,3.7-3.8
				c0.2-1.9,1-3.7,2.4-5L10.4,2.2z"/>
			<path id="Trazado_649" class="st4" d="M29.8,2.3c0.7-1.7,2.1-3.3,4.9,0.1c2.1,2.6,5.2,2.1,5.3,4.4s-2.9,2.8-3.4,5.4
				s-3.3-0.6-3.5-4c-0.1-1.9-0.8-3.7-2.1-5.1L29.8,2.3z"/>
			<path id="Trazado_650" class="st3" d="M32.4,16c0,1.9-1.5,3.4-3.4,3.5c-1.9,0-3.4-1.5-3.5-3.4c0-1.8,1.4-3.3,3.2-3.5
				C30.7,12.6,32.4,14.1,32.4,16z"/>
			<path id="Trazado_651" d="M31.6,16.1c0.1,1.4-1,2.6-2.4,2.7c-1.4,0.1-2.6-1-2.7-2.4s1-2.6,2.4-2.7c0,0,0,0,0,0
				C30.3,13.7,31.5,14.7,31.6,16.1C31.6,16.1,31.6,16.1,31.6,16.1z"/>
			<path id="Trazado_652" d="M12.9,15.3c0,1.4-1.2,2.5-2.6,2.5s-2.5-1.2-2.5-2.6c0-1.4,1.2-2.5,2.6-2.5C11.8,12.7,13,13.9,12.9,15.3
				C12.9,15.3,12.9,15.3,12.9,15.3z"/>
			<path id="Trazado_653" class="st2" d="M15.9,16.7c-2.3,0.6-7,3.7-7.1,6.7c-0.1,2,1.4,3.7,3.4,3.8c0.6,0,1.2-0.1,1.8-0.4
				c2.4-1.1,4.2-7,4.7-7.9C18.1,17.7,15.9,16.7,15.9,16.7z"/>
			<path id="Trazado_654" class="st2" d="M18.5,19.2c0.1,1,1.8,3.8,2.5,5.8s2.7,3.1,5.2,1.9s3.5-3.7,1.2-6.1s-5.2-3.9-6-3.7
				C20.4,17.7,19.4,18.4,18.5,19.2z"/>
			<path id="Trazado_655" d="M12.8,7.8c0,0.1-0.3,0-0.8,0c-0.6,0-1.2,0-1.7,0.2C9.8,8.3,9.3,8.5,8.8,8.9C8.4,9.1,8.1,9.3,8.1,9.3
				s0.1-0.3,0.4-0.7c0.5-0.5,1-0.9,1.6-1.1c0.4-0.1,0.7-0.2,1.1-0.2c0.3,0,0.6,0,0.9,0.1C12.6,7.5,12.9,7.7,12.8,7.8z"/>
			<path id="Trazado_656" d="M31.4,10c-0.1,0.1-0.3-0.1-0.6-0.3c-0.4-0.3-0.8-0.5-1.3-0.7c-0.5-0.2-0.9-0.3-1.4-0.4
				c-0.4-0.1-0.6-0.1-0.6-0.2s0.2-0.2,0.7-0.2c0.6,0,1.1,0.1,1.6,0.3c0.5,0.2,1,0.6,1.3,1c0.1,0.1,0.2,0.3,0.3,0.4
				C31.4,9.9,31.4,10,31.4,10z"/>
			<g id="Grupo_1106" transform="translate(15.806 15.422)">
				<path id="Trazado_657" d="M0,1.1c0,0,0-1.2,2.5-1S5.8,0.9,6,1.4S5.7,4.3,2.8,4.1C1.2,4.1,0,2.8,0,1.3C0,1.2,0,1.1,0,1.1z"/>
				<path id="Trazado_658" class="st5" d="M2.4,2c0,0-0.1-1.1-1-0.9c-0.6,0.1-0.1,2,0.4,2.1S2.5,2.6,2.4,2z"/>
				<path id="Trazado_659" class="st5" d="M3.5,2.1c0,0,0.2-1.1,1.1-0.8c0.6,0.2,0,2-0.5,2.1S3.4,2.6,3.5,2.1z"/>
				<path id="Trazado_660" class="st6" d="M3,0.3c0.7,0,1.3,0.1,1.9,0.4c0,0,0,0.3-0.8,0.1S2.9,0.6,3,0.3z"/>
			</g>
			<path id="Trazado_661" class="st3" d="M9.2,15.9c-0.2,0-0.4-0.2-0.4-0.4c-0.1-0.8,0.4-1.6,1.1-1.9c0.2-0.1,0.5,0,0.6,0.3
				c0.1,0.2,0,0.5-0.3,0.6c-0.4,0.2-0.6,0.6-0.5,1C9.6,15.6,9.4,15.8,9.2,15.9C9.2,15.9,9.2,15.9,9.2,15.9L9.2,15.9z"/>
			<path id="Trazado_662" class="st3" d="M27.9,16.9c-0.2,0-0.4-0.2-0.4-0.4c-0.1-0.8,0.4-1.6,1.1-1.9c0.2-0.1,0.5,0,0.6,0.3
				c0.1,0.2,0,0.5-0.3,0.6c-0.4,0.2-0.6,0.6-0.5,1C28.4,16.6,28.2,16.8,27.9,16.9C27.9,16.9,27.9,16.9,27.9,16.9L27.9,16.9z"/>
		</g>
		<path id="Trazado_663" class="st7" d="M167.5,66c0,0-0.3-0.6,0.2-2c0.3,0.7,0.6,1.4,1.1,1.9C168.4,66.1,167.9,66.1,167.5,66z"/>
		<path id="Trazado_664" class="st7" d="M168.6,64.7l-0.4,1.2c0.4,0.3,0.8,0.3,1.2,0.1L168.6,64.7z"/>
		<path id="Trazado_665" class="st5" d="M167.4,65.5c1.5,0.2,3,0.2,4.6,0.1c0.2,0,0.4,0.1,0.5,0.2l0,0c0.2,0.3,0.1,0.6-0.1,0.8
			c-0.1,0-0.1,0.1-0.2,0.1c-1.6,0.2-3.2,0.2-4.8-0.1c-0.3,0-0.5-0.3-0.5-0.6c0-0.1,0.1-0.2,0.1-0.3l0,0
			C167,65.6,167.2,65.5,167.4,65.5z"/>
	</g>
	<g class="st8">
		<path class="st9" d="M492.5,107.7c-1.3,0.6-2.8,0.9-4.5,0.9c-1.5,0-2.9-0.3-4.2-0.8s-2.4-1.2-3.4-2.1c-1-0.9-1.7-2-2.2-3.3
			c-0.5-1.3-0.8-2.7-0.8-4.3c0-1.6,0.3-3,0.8-4.3s1.3-2.4,2.3-3.3c1-0.9,2.1-1.6,3.4-2.1c1.3-0.5,2.7-0.7,4.2-0.7
			c1.4,0,2.8,0.2,4.1,0.7c1.4,0.5,2.5,1.2,3.3,2.2l-3.2,3.2c-0.4-0.6-1-1.1-1.8-1.4c-0.7-0.3-1.5-0.4-2.2-0.4
			c-0.8,0-1.6,0.2-2.3,0.5c-0.7,0.3-1.3,0.7-1.8,1.3c-0.5,0.5-0.9,1.2-1.2,1.9c-0.3,0.7-0.4,1.5-0.4,2.4c0,0.9,0.1,1.7,0.4,2.5
			c0.3,0.7,0.7,1.4,1.2,1.9c0.5,0.5,1.1,0.9,1.8,1.2c0.7,0.3,1.4,0.4,2.3,0.4c1,0,1.8-0.2,2.5-0.6c0.7-0.4,1.3-0.9,1.7-1.5l3.3,3.1
			C494.9,106.3,493.8,107.1,492.5,107.7z"/>
		<path class="st9" d="M511.3,108l-1.5-3.9h-7.7l-1.5,3.9h-5.2l8.3-19.8h4.6l8.2,19.8H511.3z M506,93.5l-2.5,6.8h5L506,93.5z"/>
		<path class="st9" d="M529.2,93.3c-0.4-0.5-0.9-0.9-1.6-1.2c-0.7-0.3-1.3-0.5-1.9-0.5c-0.3,0-0.6,0-1,0.1c-0.3,0.1-0.6,0.2-0.9,0.3
			c-0.3,0.2-0.5,0.4-0.7,0.6c-0.2,0.3-0.3,0.6-0.3,1c0,0.3,0.1,0.6,0.2,0.8c0.1,0.2,0.3,0.4,0.6,0.6s0.6,0.3,1,0.5
			c0.4,0.1,0.8,0.3,1.3,0.4c0.7,0.2,1.4,0.5,2.1,0.7c0.7,0.3,1.4,0.6,2,1.1c0.6,0.4,1.1,1,1.5,1.7c0.4,0.7,0.6,1.5,0.6,2.5
			c0,1.1-0.2,2.1-0.6,3c-0.4,0.8-1,1.5-1.7,2.1c-0.7,0.5-1.5,0.9-2.4,1.2c-0.9,0.3-1.9,0.4-2.8,0.4c-1.4,0-2.8-0.2-4.1-0.7
			c-1.3-0.5-2.4-1.2-3.3-2.1l3.1-3.2c0.5,0.6,1.1,1.1,1.9,1.5c0.8,0.4,1.6,0.6,2.4,0.6c0.4,0,0.7,0,1-0.1c0.3-0.1,0.6-0.2,0.9-0.4
			s0.5-0.4,0.6-0.7s0.2-0.6,0.2-1c0-0.4-0.1-0.7-0.3-1c-0.2-0.3-0.5-0.5-0.8-0.7s-0.8-0.4-1.3-0.6c-0.5-0.2-1.1-0.4-1.8-0.6
			c-0.6-0.2-1.3-0.4-1.9-0.7c-0.6-0.3-1.1-0.6-1.6-1.1c-0.5-0.4-0.9-1-1.1-1.6c-0.3-0.6-0.4-1.4-0.4-2.3c0-1.1,0.2-2,0.7-2.8
			c0.4-0.8,1-1.4,1.8-1.9c0.7-0.5,1.5-0.9,2.5-1.1c0.9-0.2,1.8-0.4,2.8-0.4c1.1,0,2.3,0.2,3.4,0.6c1.2,0.4,2.2,1,3.1,1.8L529.2,93.3
			z"/>
		<path class="st9" d="M548.3,108v-8.3h-7.7v8.3h-4.8V88.2h4.8v7.5h7.7v-7.5h4.8V108H548.3z"/>
		<path class="st9" d="M575.6,108l0.1-14h-0.1l-5.2,14h-3.4l-5-14H562l0.1,14h-4.5V88.2h6.8l4.5,12.7h0.1l4.3-12.7h6.9V108H575.6z"
			/>
		<path class="st9" d="M584.8,108V88.2h13.3v4h-8.7V96h8.2v3.8h-8.2v4.1h9.2v4.1H584.8z"/>
	</g>
</g>
</svg>
