<?xml version="1.0" encoding="utf-8"?>
<!-- Generator: Adobe Illustrator 23.0.4, SVG Export Plug-In . SVG Version: 6.00 Build 0)  -->
<svg version="1.1" id="Capa_1" xmlns="http://www.w3.org/2000/svg" xmlns:xlink="http://www.w3.org/1999/xlink" x="0px" y="0px"
	 viewBox="0 0 185.2 42" style="enable-background:new 0 0 185.2 42;" xml:space="preserve">
<style type="text/css">
	.st0{fill:#383838;}
	.st1{fill:#303030;}
	.st2{fill:#191919;}
	.st3{fill:#FFFFFF;}
	.st4{fill:#1C1C1C;}
	.st5{fill:#262626;}
	.st6{fill:#161616;}
	.st7{fill:#FBFBF9;}
	.st8{enable-background:new    ;}
</style>
<g id="Grupo_34773" transform="translate(-435.649 -79.903)">
	<g id="Grupo_1108" transform="translate(435.649 88.582)">
		<g id="Grupo_1107" transform="translate(0 0)">
			<path id="Trazado_643" class="st0" d="M22.3,0.4C13.6-1.3,4.7,2.1,4,9c-0.5,4.9,0.9,6.7,0.2,9.6s-1.3,6.7,3.9,8.5
				s16.3,2.1,22.4-0.9s1.8-8.1,2.4-11.6S33,2.5,22.3,0.4z"/>
			<path id="Trazado_644" class="st1" d="M14.8,13.9c-1.2,0.1-1.1-1.1-1.5-2.6c-0.6-1.9-2.5-2.9-4.4-2.4C8.5,9,8.1,9.2,7.8,9.4
				c-2.8,1.7-3.2,3.5-2.4,6.3s3.5,1.8,3.3,3.4s-1.4,4.8,0.9,6.7c3.2,2.6,10.1,2.6,14.9,0.4c2.6-1.2,0.3-5.7,1-6.4s5.3-0.2,5.2-4.2
				s-3-6.1-5.9-5.5s-3.2,2-3.3,3.6c0,1-0.9,1-1.4,0.8C18.5,13.9,16.6,13.7,14.8,13.9z"/>
			<path id="Trazado_645" d="M13.1,22.8c-1.5,2.3,6.4,2.9,7.1,1.1s-2.7-6.6-3.2-6.5S14.1,20.8,13.1,22.8z"/>
			<path id="Trazado_646" class="st2" d="M14.3,22.8c-0.1,0.4,0.1,0.9,0.6,1.1c0.8,0.3,3.2,0.4,3.7,0.1s0.2-1.1,0.2-1.1L14.3,22.8z"
				/>
			<path id="Trazado_647" class="st3" d="M12.7,13.4c0,1.7-1.3,3.1-3.1,3.1c-1.7,0-3.1-1.3-3.1-3.1c0-1.7,1.3-3,2.9-3.1
				C11.2,10.3,12.6,11.6,12.7,13.4z"/>
			<path id="Trazado_648" class="st4" d="M9.5,2C8.9,0.5,7.7-1.1,5.1,1.9C3,4.1,0.3,3.5,0,5.6s2.5,2.6,2.9,5.1s3-0.4,3.4-3.4
				c0.2-1.7,0.9-3.3,2.1-4.5L9.5,2z"/>
			<path id="Trazado_649" class="st4" d="M27,2.1c0.6-1.5,1.9-3,4.4,0.1c1.9,2.3,4.7,1.9,4.8,4s-2.6,2.5-3.1,4.9s-3-0.5-3.2-3.6
				c-0.1-1.7-0.7-3.4-1.9-4.6L27,2.1z"/>
			<path id="Trazado_650" class="st3" d="M29.4,14.5c0,1.7-1.3,3.1-3.1,3.1s-3.1-1.3-3.1-3.1c0-1.7,1.3-3,2.9-3.1
				C27.9,11.4,29.4,12.8,29.4,14.5z"/>
			<path id="Trazado_651" d="M28.6,14.6c0.1,1.3-0.9,2.4-2.2,2.4c-1.3,0.1-2.4-0.9-2.4-2.2c-0.1-1.3,0.9-2.4,2.2-2.4
				C27.5,12.4,28.6,13.4,28.6,14.6C28.6,14.6,28.6,14.6,28.6,14.6z"/>
			<path id="Trazado_652" d="M11.7,13.8c0,1.3-1.1,2.3-2.3,2.3s-2.3-1.1-2.3-2.3c0-1.3,1.1-2.3,2.3-2.3
				C10.7,11.5,11.8,12.6,11.7,13.8C11.7,13.8,11.7,13.8,11.7,13.8z"/>
			<path id="Trazado_653" class="st2" d="M14.5,15.1c-2.1,0.5-6.4,3.4-6.4,6.1c-0.1,1.8,1.2,3.4,3,3.5c0.6,0,1.1-0.1,1.6-0.3
				c2.1-1,3.8-6.3,4.3-7.2C16.3,16.3,15.5,15.6,14.5,15.1z"/>
			<path id="Trazado_654" class="st2" d="M16.8,17.4c0.1,0.9,1.7,3.5,2.3,5.3s2.5,2.8,4.7,1.8s3.1-3.3,1.1-5.6s-4.7-3.6-5.4-3.4
				C18.5,16,17.6,16.7,16.8,17.4z"/>
			<path id="Trazado_655" d="M11.6,7.1c0,0.1-0.3,0-0.7,0c-0.5,0-1,0-1.5,0.2C8.9,7.5,8.4,7.7,8,8.1C7.6,8.3,7.4,8.5,7.3,8.4
				s0.1-0.3,0.4-0.6c0.4-0.4,0.9-0.8,1.5-1c0.3-0.1,0.7-0.2,1-0.2c0.3,0,0.5,0,0.8,0.1C11.4,6.8,11.7,7,11.6,7.1z"/>
			<path id="Trazado_656" d="M28.5,9.1c-0.1,0-0.2-0.1-0.5-0.3c-0.4-0.3-0.7-0.5-1.2-0.7c-0.4-0.2-0.8-0.3-1.3-0.4
				c-0.3-0.1-0.6-0.1-0.6-0.2s0.2-0.2,0.6-0.2c0.5,0,1,0.1,1.5,0.3c0.5,0.2,0.9,0.5,1.2,0.9c0.1,0.1,0.2,0.3,0.2,0.4
				C28.5,9,28.5,9,28.5,9.1z"/>
			<g id="Grupo_1106" transform="translate(14.341 13.993)">
				<path id="Trazado_657" d="M0,1C0,1,0-0.1,2.3,0s2.9,0.8,3.1,1.3S5.2,3.9,2.5,3.7C1.1,3.7,0,2.5,0,1.1C0,1.1,0,1,0,1z"/>
				<path id="Trazado_658" class="st5" d="M2.2,1.9c0,0-0.1-1-0.9-0.8C0.7,1.2,1.2,2.8,1.7,3S2.2,2.4,2.2,1.9z"/>
				<path id="Trazado_659" class="st5" d="M3.1,1.9c0,0,0.1-1,1-0.8c0.6,0.1,0,1.8-0.5,1.9S3.1,2.4,3.1,1.9z"/>
				<path id="Trazado_660" class="st6" d="M2.7,0.2c0.6,0,1.2,0.1,1.7,0.4c0,0,0,0.3-0.7,0.1S2.6,0.5,2.7,0.2z"/>
			</g>
			<path id="Trazado_661" class="st3" d="M8.3,14.4c-0.2,0-0.4-0.2-0.4-0.4c-0.1-0.7,0.3-1.4,1-1.7c0.2-0.1,0.4,0,0.5,0.2
				c0.1,0.2,0,0.4-0.2,0.5c-0.3,0.2-0.5,0.5-0.5,0.9C8.7,14.2,8.6,14.4,8.3,14.4C8.3,14.4,8.3,14.4,8.3,14.4L8.3,14.4z"/>
			<path id="Trazado_662" class="st3" d="M25.3,15.3c-0.2,0-0.4-0.2-0.4-0.4c-0.1-0.7,0.3-1.4,1-1.7c0.2-0.1,0.4,0,0.5,0.2
				c0.1,0.2,0,0.4-0.2,0.5c-0.3,0.2-0.5,0.5-0.5,0.9C25.7,15.1,25.6,15.3,25.3,15.3C25.4,15.3,25.4,15.3,25.3,15.3L25.3,15.3z"/>
		</g>
		<path id="Trazado_663" class="st7" d="M14.8,22.7c0,0-0.3-0.5,0.2-1.8c0.2,0.6,0.6,1.2,1,1.8C15.6,22.7,15.2,22.8,14.8,22.7z"/>
		<path id="Trazado_664" class="st7" d="M15.8,21.4l-0.4,1.1c0.3,0.2,0.7,0.3,1.1,0.1L15.8,21.4z"/>
		<path id="Trazado_665" class="st5" d="M14.7,22.2c1.4,0.2,2.8,0.2,4.1,0.1c0.2,0,0.4,0.1,0.5,0.2l0,0c0.2,0.2,0.1,0.5-0.1,0.7
			c-0.1,0-0.1,0.1-0.2,0.1c-1.5,0.2-2.9,0.2-4.4-0.1c-0.3,0-0.5-0.3-0.4-0.6c0-0.1,0.1-0.2,0.1-0.3l0,0
			C14.4,22.3,14.5,22.2,14.7,22.2z"/>
	</g>
	<g class="st8">
		<path class="st3" d="M501.4,110.5c-1.4,0.7-3.1,1-4.9,1c-1.7,0-3.3-0.3-4.7-0.8c-1.4-0.6-2.7-1.3-3.7-2.4c-1.1-1-1.9-2.2-2.5-3.7
			c-0.6-1.4-0.9-3-0.9-4.7c0-1.8,0.3-3.3,0.9-4.8c0.6-1.4,1.5-2.6,2.5-3.6c1.1-1,2.3-1.8,3.8-2.3c1.4-0.5,3-0.8,4.7-0.8
			c1.5,0,3.1,0.3,4.6,0.8c1.5,0.5,2.7,1.3,3.6,2.4l-3.6,3.6c-0.5-0.7-1.1-1.2-2-1.5c-0.8-0.3-1.6-0.5-2.5-0.5
			c-0.9,0-1.8,0.2-2.6,0.5s-1.4,0.8-2,1.4s-1,1.3-1.3,2.1c-0.3,0.8-0.5,1.7-0.5,2.7c0,1,0.2,1.9,0.5,2.7c0.3,0.8,0.7,1.5,1.3,2.1
			c0.5,0.6,1.2,1,2,1.4c0.8,0.3,1.6,0.5,2.5,0.5c1.1,0,2-0.2,2.8-0.6c0.8-0.4,1.4-1,1.9-1.6l3.7,3.5
			C504.1,109,502.9,109.9,501.4,110.5z"/>
		<path class="st3" d="M522.3,110.9l-1.7-4.3h-8.5l-1.6,4.3h-5.8l9.2-21.9h5.1l9.1,21.9H522.3z M516.4,94.8l-2.8,7.5h5.5L516.4,94.8
			z"/>
		<path class="st3" d="M542.1,94.7c-0.5-0.6-1-1-1.8-1.4c-0.7-0.3-1.4-0.5-2.1-0.5c-0.4,0-0.7,0-1.1,0.1c-0.4,0.1-0.7,0.2-1,0.4
			c-0.3,0.2-0.5,0.4-0.7,0.7c-0.2,0.3-0.3,0.6-0.3,1.1c0,0.4,0.1,0.7,0.2,0.9c0.2,0.2,0.4,0.5,0.7,0.7c0.3,0.2,0.7,0.4,1.1,0.5
			c0.4,0.2,0.9,0.3,1.4,0.5c0.7,0.2,1.5,0.5,2.3,0.8c0.8,0.3,1.5,0.7,2.2,1.2s1.2,1.1,1.6,1.8c0.4,0.7,0.7,1.6,0.7,2.7
			c0,1.3-0.2,2.4-0.7,3.3s-1.1,1.7-1.9,2.3s-1.7,1-2.7,1.3c-1,0.3-2.1,0.4-3.1,0.4c-1.6,0-3.1-0.3-4.6-0.8c-1.5-0.5-2.7-1.3-3.7-2.3
			l3.5-3.5c0.5,0.7,1.2,1.2,2.1,1.7c0.9,0.4,1.8,0.7,2.6,0.7c0.4,0,0.8,0,1.1-0.1c0.4-0.1,0.7-0.2,1-0.4c0.3-0.2,0.5-0.4,0.7-0.7
			c0.2-0.3,0.2-0.7,0.2-1.1c0-0.4-0.1-0.8-0.3-1.1c-0.2-0.3-0.5-0.6-0.9-0.8c-0.4-0.2-0.9-0.5-1.4-0.7s-1.2-0.4-1.9-0.6
			c-0.7-0.2-1.4-0.5-2.1-0.8c-0.7-0.3-1.3-0.7-1.8-1.2s-1-1.1-1.3-1.8s-0.5-1.5-0.5-2.5c0-1.2,0.2-2.3,0.7-3.1s1.1-1.6,2-2.1
			c0.8-0.6,1.7-1,2.7-1.2c1-0.3,2-0.4,3.1-0.4c1.2,0,2.5,0.2,3.8,0.7c1.3,0.5,2.4,1.1,3.4,2L542.1,94.7z"/>
		<path class="st3" d="M563.2,110.9v-9.2h-8.6v9.2h-5.3V89h5.3v8.3h8.6V89h5.3v21.9H563.2z"/>
		<path class="st3" d="M593.4,110.9l0.1-15.5h-0.1l-5.7,15.5H584l-5.5-15.5h-0.1l0.1,15.5h-5V89h7.5l5,14.1h0.1L591,89h7.7v21.9
			H593.4z"/>
		<path class="st3" d="M603.6,110.9V89h14.8v4.5h-9.6v4.2h9.1v4.2h-9.1v4.6h10.2v4.5H603.6z"/>
	</g>
</g>
</svg>
