<svg width="16" height="16" xmlns="http://www.w3.org/2000/svg">

 <g>
  <title>background</title>
  <rect fill="none" id="canvas_background" height="402" width="582" y="-1" x="-1"/>
 </g>
 <g>
  <title>Layer 1</title>
  <g fill="#707070" id="Grupo_40159">
   <g id="Grupo_40157">
    <g id="Grupo_40154">
     <path fill="#ffffff" id="Trazado_42786" d="m10.805002,14.321999l-5.3,0c-1.9314,-0.004 -3.4961,-1.569 -3.5,-3.5l0,-5.3c0.0039,-1.931 1.5686,-3.496 3.5,-3.5l5.3,0c1.9314,0.004 3.4961,1.569 3.5,3.5l0,5.3c-0.0039,1.931 -1.5686,3.496 -3.5,3.5zm-5.3,-11.254c-1.3513,0.002 -2.4463,1.097 -2.448,2.448l0,5.3c0.0017,1.351 1.0967,2.446 2.448,2.448l5.3,0c1.3513,-0.002 2.4463,-1.097 2.448,-2.448l0,-5.3c-0.0017,-1.351 -1.0967,-2.446 -2.448,-2.448l-5.3,0z"/>
    </g>
    <g id="Grupo_40155">
     <path fill="#ffffff" id="Trazado_42787" d="m8.154997,11.316009c-1.741,0 -3.152,-1.411 -3.152,-3.152c0,-1.741 1.411,-3.152 3.152,-3.152c1.741,0 3.152,1.411 3.152,3.152c0,0 0,0.001 0,0.001c-0.002,1.74 -1.412,3.149 -3.152,3.151zm0,-5.248c-1.16,0 -2.1,0.94 -2.1,2.1c0,1.16 0.94,2.1 2.1,2.1c1.16,0 2.1,-0.94 2.1,-2.1c0,-1.16 -0.94,-2.1 -2.1,-2.1z"/>
    </g>
    <g id="Grupo_40156">
     <path fill="#ffffff" id="Trazado_42788" d="m12.201996,4.833c-0.001,0.418 -0.34,0.757 -0.758,0.756c-0.418,-0.001 -0.757,-0.34 -0.756,-0.758c0.001,-0.418 0.339,-0.756 0.757,-0.756c0.418,0 0.757,0.339 0.757,0.757c0,0 0,0.001 0,0.001z"/>
    </g>
   </g>
  </g>
 </g>
</svg>