<svg xmlns="http://www.w3.org/2000/svg" xmlns:xlink="http://www.w3.org/1999/xlink" width="700" height="320" viewBox="0 0 700 320">
  <defs>
    <clipPath id="clip-path">
      <rect id="Rectángulo_3769" data-name="Rectángulo 3769" width="700" height="320" transform="translate(3343 -485)" fill="#fff" stroke="#707070" stroke-width="1"/>
    </clipPath>
    <linearGradient id="linear-gradient" x1="0.718" y1="0.078" x2="0.037" y2="1" gradientUnits="objectBoundingBox">
      <stop offset="0" stop-color="#fff" stop-opacity="0"/>
      <stop offset="1" stop-color="#fff"/>
    </linearGradient>
    <linearGradient id="linear-gradient-2" x1="0.481" y1="0.416" x2="-0.302" y2="0.882" xlink:href="#linear-gradient"/>
  </defs>
  <g id="Enmascarar_grupo_1" data-name="Enmascarar grupo 1" transform="translate(-3343 485)" clip-path="url(#clip-path)">
    <g id="Grupo_34751" data-name="Grupo 34751" transform="translate(588 25)">
      <g id="Grupo_34740" data-name="Grupo 34740" transform="translate(2791.153 -936.829)">
        <g id="Rectángulo_3390" data-name="Rectángulo 3390" transform="translate(-170.437)">
          <rect id="Rectángulo_3390-2" data-name="Rectángulo 3390" width="700" height="320" transform="translate(133.847 426.829)" fill="#243445"/>
          <rect id="Rectángulo_3391" data-name="Rectángulo 3391" width="699" height="319" transform="translate(134.347 427.329)" fill="#243445"/>
        </g>
        <path id="Trazado_38997" data-name="Trazado 38997" d="M598.157,745.693C576.679,715.076,539.737,713.9,510.1,725.5s-59.711-3.723-59.711-3.723c-30.156-11.983-52.227-13.653-68.193-10.754l.028-.048s-74.513,8.813-121.784,56.085H395.12c7.4-7.961,19.94-14.374,41.089-11.488,47.253,6.443,68.3-8.162,68.3-8.162s27.493-20.189,51.12,0a94.528,94.528,0,0,1,17.69,19.651h48.021A72.154,72.154,0,0,1,598.157,745.693Z" transform="translate(0 -20.232)" fill="#3b4d60"/>
        <path id="Trazado_38998" data-name="Trazado 38998" d="M445.466,483.163s-11.867-14.944-48.786-5.714c-25.93,6.483-46.873-29.53-57.042-51.541H267.389a54.7,54.7,0,0,1,5.206,9.2c13.184,29.886,57.72,39.555,57.72,39.555s20.218,5.273,26.957,17.58,21.683,33.7,56.257,23.734S496.448,540.3,496.448,540.3s28.231,21.64,65.442,31.735V468.266C487.86,518.554,445.466,483.163,445.466,483.163Z" transform="translate(101.957 1)" fill="#3b4d60"/>
        <path id="Trazado_38999" data-name="Trazado 38999" d="M826.037,597.109c-78.595-38.295-188.111-48.247-188.111-48.247s-79.883-4.976-141.3,14.063c-49.071,15.212-184.675-1.48-237.359-8.694,0,0-66.3-6.1-130.547-4.559,1.362,13.483-2.719,41.689-2.719,56.961,0,54.794,10.922,57.866,0,94.005l15.781,3.3s81.171,17.755,115.348,10.761c32.879-6.729,92.435-34.863,96.915-36.993.01.049.02.1.03.147,112.365-55.076,176.677-64.612,278.7-41.726,109.945,24.664,166.637-3.894,166.637-3.894A314.075,314.075,0,0,1,856.2,621.855V608.671A191.9,191.9,0,0,1,826.037,597.109Z" transform="translate(-173.853 8)" fill="#3b4d60"/>
      </g>
      <path id="Unión_1" data-name="Unión 1" d="M132.117,239.239,127.8,138.628l-26.293-9.689s-16.826,25.078-35.545,28.573-10.38,19.469-21.314,21.811c0,0-25.868,6.3-32.3,4.77s-18.822-5.246-8.209-8.189,30-2.275,35.638-10.714,53.043-53.644,62.653-53.285,72.495,29.889,86.736,28.977a20.573,20.573,0,0,0,4.894-.959q-.041-.789-.074-1.593A158.634,158.634,0,0,1,195,113.239a3.617,3.617,0,0,1,7.169.971,154.327,154.327,0,0,0-1.007,22.389c10.975-6.69,21.484-19.977,24.791-31.346C230.483,89.689,232.6,68.23,232.6,68.23l-15.013-3.441L232.6,19.662,222.8,0S252.181,1.869,259,26.1s-13.864,42.83-13.864,42.83S254,107.665,222.8,140.882a48.369,48.369,0,0,1-19.74,13.019c1.728,8.182,4.576,14.29,8.444,17.995,4.054,3.883,9.27,5.19,15.947,3.994,17.321-3.1,28.171-21.987,37.744-38.649,7.786-13.551,14.511-25.252,24.015-26.607,4.677-.665,9.451,1.312,14.191,5.877,8.181,7.879,15.2,19.512,22.641,31.828,16.968,28.1,33,54.649,61.817,38.8,1.75-.963,120.188-57.542,121.15-55.792.808,1.469-.634,3.706-1.793,4.812-.222.211-115.59,57.163-115.871,57.317-15.709,8.639-29.769,7.539-42.986-3.362-11.045-9.11-19.924-23.815-28.509-38.037-7.185-11.9-13.971-23.136-21.467-30.356-3.1-2.982-5.764-4.265-8.154-3.926-6.009.856-12.2,11.636-18.762,23.049-9.848,17.14-22.1,38.47-42.742,42.166-8.99,1.61-16.47-.374-22.231-5.9-4.909-4.7-8.4-11.873-10.455-21.407-25.222,4.472-49.444-11.745-49.444-11.745a43.058,43.058,0,0,1,3.046,25.3c-2.572,14.45,1.465,21.147,1.465,26.925s6.853,23.3-2.359,35.675c-5.1,6.844-9.642,8.373-12.687,8.373A7.524,7.524,0,0,1,132.117,239.239Z" transform="translate(2965.568 -458.94)" fill="#130f22" stroke="rgba(0,0,0,0)" stroke-width="1" opacity="0.364"/>
      <g id="Grupo_34741" data-name="Grupo 34741" transform="translate(3159.436 -354.602)">
        <path id="Trazado_39118" data-name="Trazado 39118" d="M1469.455,648.871a3.615,3.615,0,0,1-.756.552c-15.709,8.639-29.77,7.539-42.986-3.362-11.045-9.109-19.924-23.814-28.51-38.036-7.184-11.9-13.97-23.137-21.467-30.357-3.1-2.981-5.763-4.265-8.154-3.925-6.009.856-12.2,11.636-18.762,23.049-9.848,17.139-22.1,38.47-42.742,42.166-8.99,1.61-16.47-.374-22.23-5.9-7.543-7.23-11.75-20.28-12.5-38.786a158.632,158.632,0,0,1,1.016-25.091,3.617,3.617,0,0,1,7.168.971,154.178,154.178,0,0,0-.952,23.933c.678,16.288,4.233,27.959,10.281,33.753,4.053,3.883,9.27,5.19,15.947,3.994,17.321-3.1,28.171-21.987,37.745-38.649,7.786-13.551,14.51-25.252,24.014-26.606,4.677-.666,9.451,1.312,14.191,5.876,8.181,7.879,15.205,19.512,22.641,31.828,16.968,28.1,33,54.649,61.818,38.8a3.617,3.617,0,0,1,4.241,5.786Z" transform="translate(-1271.225 -566.055)" fill="#f7f7f0"/>
        <path id="Trazado_39119" data-name="Trazado 39119" d="M1277.656,658.924s-4.8-11.153-3.861-16.453l7.746-4.44s.315,10.161,2.719,17.9C1284.261,655.929,1279.323,650.667,1277.656,658.924Z" transform="translate(-1272.497 -603.417)" fill="#9e9e9f"/>
        <path id="Trazado_39120" data-name="Trazado 39120" d="M1386.315,669.349a28.5,28.5,0,0,0,4.46,5.83q1.4-1.584,2.724-3.254a24.428,24.428,0,0,1-4.312-6.192C1388.253,666.975,1387.3,668.186,1386.315,669.349Z" transform="translate(-1330.967 -617.796)" fill="#d90066"/>
        <path id="Trazado_39121" data-name="Trazado 39121" d="M1502.347,588.862c-.906-1.116-1.824-2.193-2.755-3.219a28.373,28.373,0,0,0-5.05,5.2q1.412,1.582,2.8,3.335A24.423,24.423,0,0,1,1502.347,588.862Z" transform="translate(-1387.146 -576.223)" fill="#d90066"/>
        <path id="Trazado_39122" data-name="Trazado 39122" d="M1572.363,694.735q-1.281-1.643-2.539-3.382a28.408,28.408,0,0,0-5.155,5.143c.881,1.189,1.777,2.343,2.683,3.476A24.428,24.428,0,0,1,1572.363,694.735Z" transform="translate(-1423.548 -631.095)" fill="#d90066"/>
        <path id="Trazado_39126" data-name="Trazado 39126" d="M184.947,86.2V81.66s137.3-69.044,165.51-87.786-31.171,31.842-31.171,31.842l-128,60.48Z" fill="#f7f7f0"/>
      </g>
      <g id="Grupo_34742" data-name="Grupo 34742" transform="translate(2951.479 -461.823)">
        <g id="Grupo_34023" data-name="Grupo 34023" transform="translate(120.419 19.689)">
          <path id="Trazado_36708" data-name="Trazado 36708" d="M-218.363-902.42l71.245-57.06,21.65,22.746-47.384,28.094Z" transform="translate(218.363 959.48)" opacity="0.246" fill="url(#linear-gradient)"/>
          <path id="Trazado_36709" data-name="Trazado 36709" d="M-171.877-869.719l88.426-36.971-26.668-40.544-60.545,36.181-4.52,4.362Z" transform="translate(216.655 961.802)" opacity="0.605" fill="url(#linear-gradient-2)"/>
        </g>
        <g id="Grupo_34013" data-name="Grupo 34013" transform="matrix(0.998, -0.07, 0.07, 0.998, 0, 18.48)">
          <g id="Grupo_34006" data-name="Grupo 34006" transform="translate(0 0)">
            <path id="Trazado_36551" data-name="Trazado 36551" d="M12.7,6.738S9.333,0,5.771,0s-4.09,6.536-4.09,6.536L0,53.536S-.08,61.889,6.349,58.6s12.5-12.4,11.745-21.769a101.225,101.225,0,0,1,.064-19.237C18.6,10.758,12.7,6.738,12.7,6.738Z" transform="translate(128.055 174.218)" fill="#f7f7f0"/>
            <path id="Trazado_36552" data-name="Trazado 36552" d="M6.349,15.722C10.491,13.6,14.484,9.063,16.6,3.6,9.845.264,4.375-.3.377.122L0,10.66S-.08,19.013,6.349,15.722Z" transform="translate(128.055 217.094)" fill="#909090"/>
            <path id="Trazado_36553" data-name="Trazado 36553" d="M17.436,9.746A20.3,20.3,0,0,0,17.5,5.917c-.084-1.029-.153-1.977-.21-2.867C11.778-.07,5.563-.442.2.368L0,5.943a29.034,29.034,0,0,1,3.622-.477C9.2,5.1,13.826,6.541,17.436,9.746Z" transform="translate(128.652 205.13)" fill="#174e9a"/>
            <path id="Trazado_36554" data-name="Trazado 36554" d="M48.455,1.27,1.443,22.083s-3.085,1.9-.234,4.66,15.5,3.954,23.066,2.091,13-1.315,18.12-2.74,4.291-7.277,10.461-14.815S57.766-2.852,48.455,1.27Z" transform="translate(0 136.847)" fill="#adadac"/>
            <g id="Grupo_33993" data-name="Grupo 33993" transform="translate(136.331 62.63)">
              <path id="Trazado_36555" data-name="Trazado 36555" d="M66.163.16S59.253-2,52.631,9.552,46.969,27.717,33.9,28.12.769,30.2.769,30.2a16.517,16.517,0,0,0-.018,9.994s23.92,7.936,49.282,1.651S79.8.714,66.163.16Z" transform="translate(0 0)" fill="#bababa"/>
              <path id="Trazado_36556" data-name="Trazado 36556" d="M8.456.449C1.575,2,.23,7.559,0,10.4c2.308-.356,4.646-.816,7-1.4A29.754,29.754,0,0,0,19.239,2.725C17.728,1.119,14.52-.917,8.456.449Z" transform="translate(43.037 32.842)" fill="#9e9e9f"/>
              <path id="Trazado_36557" data-name="Trazado 36557" d="M9.167,0C4.21.365.769.653.769.653a16.518,16.518,0,0,0-.018,9.994,79.345,79.345,0,0,0,9.5,2.29A49.221,49.221,0,0,1,9.167,0Z" transform="translate(0 29.547)" fill="#174e9a"/>
              <path id="Trazado_36558" data-name="Trazado 36558" d="M4.429,0C3.089.088,1.78.177.522.265a33.963,33.963,0,0,0,.4,13.809c1.277.195,2.628.377,4.047.538A30.571,30.571,0,0,1,4.429,0Z" transform="translate(12.739 28.989)" fill="#b71562"/>
              <path id="Trazado_36561" data-name="Trazado 36561" d="M10.209,12.938A49.221,49.221,0,0,1,9.13,0c-2.142.158-4,.3-5.42.413.906,2,2.465,6.089.732,7.432C2.95,9,1.121,7.774,0,6.746a17.223,17.223,0,0,0,.714,3.9A79.346,79.346,0,0,0,10.209,12.938Z" transform="translate(0.038 29.547)" fill="#114682"/>
              <path id="Trazado_36562" data-name="Trazado 36562" d="M0,33.535s18.522-.352,36.084-1.837C51.878,30.363,53.047,15.94,54.094,6.656c0,0,8.072-12.774,15.41-2.928C76.1,12.584,72.456,41,42.87,42.913S.584,39.864.584,39.864Z" transform="translate(0.168 0.331)" fill="#c7c5c0"/>
              <path id="Trazado_36663" data-name="Trazado 36663" d="M1.639,0C1.035,1.224.5,2.375,0,3.454,3.925,4.643,13.321,8.218,18.633,16.305a34.059,34.059,0,0,0,2.184-3.475C15,5,6.077,1.385,1.639,0Z" transform="translate(48.87 13.554)" fill="#174e9a"/>
              <path id="Trazado_36664" data-name="Trazado 36664" d="M19.2,15.821a33.544,33.544,0,0,0,1.441-4.375C14.975,4.594,6.915,1.387,2.073,0,1.53.772.985,1.619.442,2.566c-.153.267-.3.528-.442.789C4.518,4.537,13.846,7.845,19.2,15.821Z" transform="translate(52.188 6.986)" fill="#174e9a"/>
            </g>
            <g id="Grupo_33994" data-name="Grupo 33994" transform="translate(173.917 73.411)">
              <path id="Trazado_36563" data-name="Trazado 36563" d="M66.163.16S59.253-2,52.631,9.552,46.97,27.717,33.9,28.12.769,30.2.769,30.2a16.513,16.513,0,0,0-.018,9.994s23.92,7.936,49.282,1.651S79.8.714,66.163.16Z" transform="translate(0 0)" fill="#c7c5c0"/>
              <path id="Trazado_36564" data-name="Trazado 36564" d="M8.456.449C1.574,2,.23,7.559,0,10.4c2.308-.356,4.646-.816,7-1.4a29.747,29.747,0,0,0,12.243-6.28C17.728,1.119,14.52-.917,8.456.449Z" transform="translate(43.037 32.841)" fill="#9e9e9f"/>
              <path id="Trazado_36565" data-name="Trazado 36565" d="M9.168,0C4.21.365.769.653.769.653a16.513,16.513,0,0,0-.018,9.994,79.316,79.316,0,0,0,9.5,2.29A49.2,49.2,0,0,1,9.168,0Z" transform="translate(0 29.547)" fill="#174e9a"/>
              <path id="Trazado_36566" data-name="Trazado 36566" d="M4.429,0C3.09.088,1.781.177.523.265a33.952,33.952,0,0,0,.4,13.809c1.278.195,2.629.377,4.047.538A30.573,30.573,0,0,1,4.429,0Z" transform="translate(12.739 28.988)" fill="#b71562"/>
              <path id="Trazado_36567" data-name="Trazado 36567" d="M1.639,0C1.035,1.224.5,2.375,0,3.454,3.926,4.643,13.321,8.217,18.633,16.305a33.954,33.954,0,0,0,2.184-3.475C15,5,6.077,1.385,1.639,0Z" transform="translate(48.87 13.554)" fill="#174e9a"/>
              <path id="Trazado_36568" data-name="Trazado 36568" d="M19.2,15.821a33.518,33.518,0,0,0,1.442-4.374C14.975,4.594,6.914,1.387,2.073,0,1.53.772.985,1.619.442,2.566c-.153.267-.3.527-.442.789C4.518,4.537,13.846,7.845,19.2,15.821Z" transform="translate(52.189 6.986)" fill="#174e9a"/>
              <path id="Trazado_36569" data-name="Trazado 36569" d="M10.209,12.938A49.2,49.2,0,0,1,9.13,0c-2.142.158-4,.3-5.42.413.906,2,2.465,6.089.732,7.432C2.95,9,1.121,7.774,0,6.746a17.228,17.228,0,0,0,.714,3.9A79.316,79.316,0,0,0,10.209,12.938Z" transform="translate(0.038 29.547)" fill="#114682"/>
            </g>
            <g id="Grupo_33995" data-name="Grupo 33995" transform="translate(96.157 94.183)">
              <path id="Trazado_36570" data-name="Trazado 36570" d="M4.324,0,0,2.379S1.788,7.614,22.308,18.257l13.765,5.477s24.081,8.5,38.3,7.445-5.634-17.42-5.634-17.42L34.413,4.087Z" transform="translate(1.123 6.921)" fill="#adadac"/>
              <path id="Trazado_36571" data-name="Trazado 36571" d="M70.594,36.934h0c10.523,3.553,16.632-.611,19.9-4.7a9.121,9.121,0,0,0,1.926-2.556,16.465,16.465,0,0,0,1.225-3.056c.041-.12.061-.184.061-.184l-.011,0c2.315-8.58-5-14.3-12.507-16.4C72.767,7.682,8.254-6.182,1.047,3.25-8.608,15.883,51.2,32.492,70.594,36.934Z" transform="translate(0 0)" fill="#adadac"/>
              <path id="Trazado_36572" data-name="Trazado 36572" d="M6.56.77C4.5.49,2.442.231.418,0A35.71,35.71,0,0,1,1.611,4.577c1.6,8.342.3,16.481-1.611,22.9q2.567,1.008,5.3,2.031C9.114,17.074,8.272,7.31,6.56.77Z" transform="translate(31.899 1.147)" fill="#14457f"/>
              <path id="Trazado_36573" data-name="Trazado 36573" d="M6.092.514C4.006.306,1.968.131,0,0A35.463,35.463,0,0,1,1.284,4.848,47.233,47.233,0,0,1,.447,24.893c1.646.692,3.417,1.425,5.293,2.182C8.743,15.6,7.766,6.582,6.092.514Z" transform="translate(22.985 0.286)" fill="#14457f"/>
            </g>
            <path id="Trazado_36574" data-name="Trazado 36574" d="M0,57.026S10.2,76.909,27.1,84.334c0,0,18.524-10.01,28.406-36.892S62.529,10.19,62.529,10.19,46.866,9.336,35.517,5.918,19.993,0,19.993,0,8.953,12.544,7.121,23.611,0,57.026,0,57.026" transform="translate(183.312 59.396)" fill="#f7f7f0"/>
            <path id="Trazado_36575" data-name="Trazado 36575" d="M32.576,27.621s-4.186,10.7-22.661,4.619S1.911-1.081,15.95.033,42.258,13.827,32.576,27.621Z" transform="translate(181.288 112.148)" fill="#e2e2e2"/>
            <path id="Trazado_36576" data-name="Trazado 36576" d="M70.594,36.934h0c10.523,3.554,16.632-.611,19.9-4.7a9.119,9.119,0,0,0,1.926-2.556,16.464,16.464,0,0,0,1.225-3.056c.041-.12.061-.184.061-.184l-.011,0c2.315-8.58-5-14.3-12.507-16.4C72.767,7.682,8.254-6.182,1.047,3.25-8.608,15.883,51.2,32.492,70.594,36.934Z" transform="translate(121.877 106.543)" fill="#f7f7f0"/>
            <path id="Trazado_36577" data-name="Trazado 36577" d="M0,6.519S46.243,28.351,66.679,26.77c0,0,5.84-1.151,7.255-11.883S4.784,0,4.784,0Z" transform="translate(133.634 120.05)" fill="#f7f7f0"/>
            <path id="Trazado_36578" data-name="Trazado 36578" d="M6.56.771C4.5.49,2.442.231.418,0A35.725,35.725,0,0,1,1.611,4.577c1.6,8.342.3,16.481-1.611,22.9q2.567,1.009,5.3,2.032C9.114,17.075,8.272,7.31,6.56.771Z" transform="translate(153.775 107.69)" fill="#174e9a"/>
            <path id="Trazado_36579" data-name="Trazado 36579" d="M73.395,0S62.24,12.362,47.3,7.148,0,.755,0,.755L6.432,9.964s1.211.546,3.306,1.441c-.237-.813-.488-1.624-.765-2.43,13.34,5.853,44.591,18.641,60.4,17.418a7.236,7.236,0,0,0,3.61-2.471,14.738,14.738,0,0,0,3.069-1.138C83.691,14.219,73.395,0,73.395,0Z" transform="translate(130.939 120.428)" fill="#a0a09f" opacity="0.52"/>
            <path id="Trazado_36580" data-name="Trazado 36580" d="M6.092.514C4.006.306,1.968.132,0,0A35.463,35.463,0,0,1,1.284,4.848,47.232,47.232,0,0,1,.447,24.893c1.646.692,3.417,1.425,5.293,2.182C8.743,15.6,7.766,6.582,6.092.514Z" transform="translate(144.861 106.828)" fill="#174e9a"/>
            <g id="Grupo_34003" data-name="Grupo 34003" transform="translate(193.17 0)">
              <path id="Trazado_36581" data-name="Trazado 36581" d="M18.99,1.708S7.184-1.043,0,.438c0,0,11.151,8.581,34.472,7.3C34.472,7.738,27.163,2.059,18.99,1.708Z" transform="translate(15.63 61.135)" fill="#f2b590"/>
              <path id="Trazado_36582" data-name="Trazado 36582" d="M29.215,31.251s5.933-1.467,9.8-11.611L20.032,0S-6.166,14.819,1.358,27.258c0,0,2.139-3.916,10.181-2.064s18.13,5.505,17.675,6.058" transform="translate(13.006 30.104)" fill="#0a0e16"/>
              <path id="Trazado_36583" data-name="Trazado 36583" d="M9.065,1.691,6.472,10.8,0,9.988.225,0Z" transform="translate(30.585 53.766)" fill="#f2b590"/>
              <path id="Trazado_36584" data-name="Trazado 36584" d="M7.55,6.953,0,9.225.208,0,9.525.575Z" transform="translate(30.602 53.766)" fill="#dca484"/>
              <path id="Trazado_36585" data-name="Trazado 36585" d="M2.061.464s2.9,6.405.714,8.3-2.7,3.131-1.74,4.411c0,0-1.641-1.476-.426-4.371S2.255,4.2.561,2.2,1.495-.579,2.061.464Z" transform="translate(41.632 50.692)" fill="#0d193e"/>
              <path id="Trazado_36586" data-name="Trazado 36586" d="M1.726.219S-.278,2.2.033,3.526s2.413,4.059,1.1,5.433A2.843,2.843,0,0,0,2.816,6.244c-.048-2.038.061-2.828,1.01-3.84S3.084-.674,1.726.219Z" transform="translate(15.125 49.374)" fill="#1f2f52"/>
              <path id="Trazado_36587" data-name="Trazado 36587" d="M.8,0s11.45,4.892,11.18,13.386,5.95,5.359,4.512,10.624S8.344,35.765,8.344,35.765L0,30.189Z" transform="translate(43.676 13.979)" fill="#0a0e16"/>
              <path id="Trazado_36588" data-name="Trazado 36588" d="M39.669,5.466s-4.644-6-10.626-5.427c-5.52.531-9.329,10.093-14.673,9.938S2.727,11.775,4,18.93s-4,6.234-4,6.234,6.053,2.176,7.138-3.126,3.154-5.529,5.492-4.789,15.579-6.364,15.579-6.364Z" transform="translate(1.217 6.533)" fill="#091531"/>
              <path id="Trazado_36589" data-name="Trazado 36589" d="M5.892.465S.33,7.293,1.311,12.2,2.653,16.588,1,18.424a4.642,4.642,0,0,0,1.3,6.893S.1,22.993,2.031,20.881s4.737-.884,5.1-7.636S12.925,0,12.925,0Z" transform="translate(7.49 23.262)" fill="#091531"/>
              <path id="Trazado_36590" data-name="Trazado 36590" d="M3.8,7.114S6.9,14.585,1.913,19.8s1.359,9.865,1.359,9.865-3.951-3.9-1.029-5.9S7.758,21,8.385,17.568,2.327,9.177,5.309,3.39,2.277-.528,3.8,7.114Z" transform="translate(6.899 30.423)" fill="#1f2f52"/>
              <path id="Trazado_36591" data-name="Trazado 36591" d="M31.24,6.69S32.4.765,26.51.2,14.63-.1,10.53,6.529.9,14.675.065,21.352s6.737,12.9,3.456,18.4a7.4,7.4,0,0,0,1.075,9.4s-2.682-7.5,2.977-8.326,14.9,2.66,15.663-10.2S31.24,6.69,31.24,6.69Z" transform="translate(9.768 8.211)" fill="#0d193e"/>
              <g id="Grupo_33996" data-name="Grupo 33996" transform="translate(14.096 33.096)">
                <ellipse id="Elipse_641" data-name="Elipse 641" cx="2.93" cy="2.93" rx="2.93" ry="2.93" fill="#f2b590"/>
                <ellipse id="Elipse_642" data-name="Elipse 642" cx="1.719" cy="1.719" rx="1.719" ry="1.719" transform="translate(1.211 1.211)" fill="#d58350"/>
              </g>
              <path id="Trazado_36592" data-name="Trazado 36592" d="M20.48.122C13.077-.747,5.969,3.071,4.3,10.4a13.776,13.776,0,0,0-.316,2.213,83.9,83.9,0,0,1-1.9,8.556C1.126,24.043-3.446,36.8,5.07,43.1a13.171,13.171,0,0,1,1.724,2.387,3.829,3.829,0,0,0,2.023,1.452,5.657,5.657,0,0,0,3.6.255c1.8-.559,8.348-3.661,11.687-4.572s5.08-5.317,5.993-8.659S44.345,2.921,20.48.122Z" transform="translate(15.861 13.792)" fill="#f2b590"/>
              <g id="Grupo_33998" data-name="Grupo 33998" transform="translate(19.252 31.979)">
                <g id="Grupo_33997" data-name="Grupo 33997" transform="translate(0 0)">
                  <path id="Trazado_36593" data-name="Trazado 36593" d="M4.54,2.739a2.337,2.337,0,0,1-2.626,2A2.336,2.336,0,0,1,.031,2.03a2.336,2.336,0,0,1,2.626-2A2.337,2.337,0,0,1,4.54,2.739Z" transform="translate(1.055 1.04)" fill="#32190f"/>
                  <path id="Trazado_36594" data-name="Trazado 36594" d="M5.625,3.309A2.206,2.206,0,0,0,3.884,1.021C2.073.736,1.544.52,1.394,0c0,0-.115.944.583,1.135A2.7,2.7,0,0,1,0,.641,2.109,2.109,0,0,0,1.9,2.054C3.49,2.25,4.9,2.342,5.625,3.309Z" fill="#32190f"/>
                </g>
                <path id="Trazado_36595" data-name="Trazado 36595" d="M.957.589a.64.64,0,0,0-.125.853c.255.39-.33.819-.586.427A1.353,1.353,0,0,1,.4.13.374.374,0,0,1,.906.079a.364.364,0,0,1,.051.51Z" transform="translate(1.709 2.293)" fill="#fff"/>
              </g>
              <g id="Grupo_34000" data-name="Grupo 34000" transform="translate(33.344 35.445)">
                <g id="Grupo_33999" data-name="Grupo 33999" transform="translate(0 0)">
                  <path id="Trazado_36596" data-name="Trazado 36596" d="M.031,2.029A2.336,2.336,0,0,0,1.914,4.743a2.337,2.337,0,0,0,2.626-2A2.336,2.336,0,0,0,2.656.027,2.336,2.336,0,0,0,.031,2.029Z" transform="translate(0 0.277)" fill="#32190f"/>
                  <path id="Trazado_36597" data-name="Trazado 36597" d="M0,1.85A2.207,2.207,0,0,1,2.359.207C4.171.492,4.74.449,5.042,0c0,0-.18.933-.9.9a2.7,2.7,0,0,0,2.033.137,2.109,2.109,0,0,1-2.24.762C2.357,1.5.986,1.152,0,1.85Z" transform="translate(0.147 0)" fill="#32190f"/>
                </g>
                <path id="Trazado_36598" data-name="Trazado 36598" d="M.958.589a.638.638,0,0,0-.125.853c.254.39-.331.819-.587.427A1.353,1.353,0,0,1,.4.13.375.375,0,0,1,.906.079.365.365,0,0,1,.958.589Z" transform="translate(0.998 1.584)" fill="#fff"/>
              </g>
              <path id="Trazado_36599" data-name="Trazado 36599" d="M11.41,0S9.828,5.842,8.819,9.275s-1.454,4.937-4.439,4.314S0,9.151,0,9.151Z" transform="translate(12.836 19.27)" fill="#0d193e"/>
              <path id="Trazado_36600" data-name="Trazado 36600" d="M10.434,6.787S6.652,4.223,2.5,9.3-.4-.665,4.508.023,11.251,4.546,10.434,6.787Z" transform="translate(23.301 14.172)" fill="#0a0e16"/>
              <path id="Trazado_36601" data-name="Trazado 36601" d="M16.314,1.077S11.906-1.164,9.773.819,7.4,12.5,4.042,13.068s-5.512,4.8-2.84,7.574c0,0-1.756-4.008,1.546-4.764S8.262,14.2,9.114,8.93,11.2,1.633,16.314,1.077Z" transform="translate(2.002 20.287)" fill="#1f2f52"/>
              <path id="Trazado_36602" data-name="Trazado 36602" d="M0,0" transform="translate(33.736 20.959)" fill="#1f2f52"/>
              <path id="Trazado_36603" data-name="Trazado 36603" d="M0,4.292s11.383-.719,9.857,9.381S6.768,27.518,8.552,30.4c2.015,3.255,2.9,12.788-.067,14.291,0,0,7.957-1.809,6.115-12.068s-.7-15.284.708-18.6S14.5-.56,3.451.022C3.451.022.708-.531,0,4.292Z" transform="translate(33.736 16.666)" fill="#0d193e"/>
              <path id="Trazado_36604" data-name="Trazado 36604" d="M.5,7.884s-1.639-1.846,1.016-4.2S-.837,1.3,3.256.5C5.675.028,10.167-1.617,17.6,5.559c3.99,3.851,4.5,9.5,3,12.363s-3.065,8.265,2.023,13.721-3.559,8.341-3.559,8.341,4.573-5.015-.142-7.655-5.162-4.8-3.826-11.764S5.474,6.619.5,7.884Z" transform="translate(33.946 10.118)" fill="#0d193e"/>
              <path id="Trazado_36605" data-name="Trazado 36605" d="M22.969,8.618s-1.867-4.193-4.774-3.6S16.484,13,11.643,14.658A9.348,9.348,0,0,0,5.587,26.669c1.707,5.571-4.333,6.2-4.057,8.842,0,0-2.784-3.169-.841-5.82s2.712-5.234,1-6.608-1.067-8.54,6-13.207S10.971-.479,19.907.032,22.969,8.618,22.969,8.618Z" transform="translate(10.767 12.34)" fill="#1f2f52"/>
              <path id="Trazado_36606" data-name="Trazado 36606" d="M.318,4.965S-1.305.541,2.787.039,18.833,3.97,18.8,9.572s-3.865,12.68,1.1,14.051,9.418,3.368,5.294,8.63c0,0,1.208-3.424-2.655-5.352s-9.728-.693-9.971-4.132S14.476,4.626.318,4.965Z" transform="translate(34.129 13.037)" fill="#1f2f52"/>
              <path id="Trazado_36607" data-name="Trazado 36607" d="M0,0S5.175,5.11,3.851,8.46,2.14,17.137,9.494,17.176c0,0-6.04,3.151-8.329-.97S3.5,7.7,0,0Z" transform="translate(45.757 35.52)" fill="#1f2f52"/>
              <path id="Trazado_36608" data-name="Trazado 36608" d="M.021,10.551S-.342,3.422,1.968,2.343s4.383-4.1,2.685-.947C4.031,2.55.021,10.551.021,10.551Z" transform="translate(33.715 10.408)" fill="#0a0e16"/>
              <path id="Trazado_36609" data-name="Trazado 36609" d="M1.84,0s-3.6,6.682-.725,10.047,7.293,14.1,4.082,18.1c0,0,6.2-3.947,3.591-10.939S.635,7.546,1.84,0Z" transform="translate(44.666 29.081)" fill="#0d193e"/>
              <path id="Trazado_36610" data-name="Trazado 36610" d="M1.968,0S-.277,9.751,3.138,14.024a4.569,4.569,0,0,1-.821,7.05s1.9-.75-1.145-6.721S1.968,0,1.968,0Z" transform="translate(44.144 41.271)" fill="#1f2f52"/>
              <path id="Trazado_36611" data-name="Trazado 36611" d="M.192,0A10.542,10.542,0,0,1,1.486,4.911C1.424,7.491,5.4,8.036,7.367,6.5c0,0-3.169,5.1-6.048,2.153S1.349,2.118.192,0Z" transform="translate(54.887 22.381)" fill="#1f2f52"/>
              <path id="Trazado_36612" data-name="Trazado 36612" d="M10.066,1.712A10.547,10.547,0,0,0,5.387,3.687C3.382,5.313.52,2.495.539,0c0,0-2.1,5.621,1.99,6.1S7.682,2.089,10.066,1.712Z" transform="translate(12.693 11.168)" fill="#1f2f52"/>
              <path id="Trazado_36613" data-name="Trazado 36613" d="M.12,1.351s3.471.233,4.092,1.095a3.71,3.71,0,0,1,.7,1.622s.582-2.105-.372-2.841S.537-.324.446.132-.253.235.12,1.351Z" transform="translate(35.81 31.879)" fill="#0d193e"/>
              <path id="Trazado_36614" data-name="Trazado 36614" d="M5.506,2.313S2.374.8,1.408,1.244A3.713,3.713,0,0,0,0,2.309S.534.191,1.727.023s4.245.628,4.1,1.07S6.382,1.528,5.506,2.313Z" transform="translate(19.914 28.903)" fill="#0d193e"/>
              <g id="Grupo_34002" data-name="Grupo 34002" transform="translate(23.615 48.476)">
                <g id="Grupo_34001" data-name="Grupo 34001" transform="translate(7.001 1.012)">
                  <path id="Trazado_36615" data-name="Trazado 36615" d="M.278.89S.9-.126,0,.013C0,.013.611.073.278.89Z" transform="translate(0 0)" fill="#39393a"/>
                </g>
                <path id="Trazado_36616" data-name="Trazado 36616" d="M2.81,1.316A5.556,5.556,0,0,1,0,0,2.6,2.6,0,0,0,2.7,2.688C5.528,2.838,5.82.906,5.82.906" transform="translate(0.279 0.996)" fill="#f28194" opacity="0.53"/>
                <path id="Trazado_36617" data-name="Trazado 36617" d="M.141,1.134,0,.912A2.2,2.2,0,0,1,1.877,0s.283-.051.644.445l.115.16s.427-.425.821-.359A3.832,3.832,0,0,1,5.934,1.976,9.84,9.84,0,0,1,1.51,1.9,2.776,2.776,0,0,1,.141,1.134Z" transform="translate(0.122 0)" fill="#f28194" opacity="0.53"/>
                <path id="Trazado_36618" data-name="Trazado 36618" d="M0,0A4.752,4.752,0,0,0,2.893,1.4,7.306,7.306,0,0,0,7.451.557S6.141,1.88,2.957,1.668C2.957,1.668.386,1.436,0,0Z" transform="translate(0 0.687)" fill="#494747"/>
              </g>
              <path id="Trazado_36619" data-name="Trazado 36619" d="M7.147,0S4.458,5.227,4.617,9.528,3.922,22.995,0,24.33c0,0,8.444.124,7.733-8.483S5.1,12.053,7.147,0Z" transform="translate(36.799 34.01)" fill="#0d193e"/>
              <ellipse id="Elipse_643" data-name="Elipse 643" cx="1.956" cy="1.956" rx="1.956" ry="1.956" transform="translate(18.129 41.993)" fill="#f28194" opacity="0.53"/>
              <ellipse id="Elipse_644" data-name="Elipse 644" cx="1.956" cy="1.956" rx="1.956" ry="1.956" transform="translate(34.661 44.396)" fill="#f28194" opacity="0.53"/>
              <path id="Trazado_36620" data-name="Trazado 36620" d="M28.659,5.856l-3.589-.641c-.075-.112-.225-.087-.454-.081L24.2,5.06c-.487-2.2-3.632-2.889-4.257-3a5.208,5.208,0,0,0-4.346.773,3.852,3.852,0,0,0-.814.907l.068-.707-.033-.047c-.015-.031-.349-.927-2.011-1.165a2.341,2.341,0,0,0-2.214.558l-.012.04-.128.68a3.828,3.828,0,0,0-.52-1.082A5.207,5.207,0,0,0,5.984.044c-.632-.066-3.843-.3-4.93,1.677-.009.016-.018.034-.027.051C.4,1.7.2,1.336.032,1.914c-.152.524.266.623.655.675a5.753,5.753,0,0,0,.92,5.462,4.98,4.98,0,0,0,2.9,1.421h0a5.709,5.709,0,0,0,3.038-.378,5.607,5.607,0,0,0,3.062-4.413,4.03,4.03,0,0,0,.012-.644h.014l.251-1.453a2.586,2.586,0,0,1,1.846-.25,2.541,2.541,0,0,1,1.745.766l-.125,1.47.014,0a3.963,3.963,0,0,0-.171.62A5.634,5.634,0,0,0,15.89,10.3,5.721,5.721,0,0,0,18.7,11.532a4.989,4.989,0,0,0,3.188-.554,5.752,5.752,0,0,0,2.422-4.992l4.118.843ZM7.408,8.781a5.363,5.363,0,0,1-2.849.362,4.641,4.641,0,0,1-2.7-1.328A4.462,4.462,0,0,1,.749,4.882,5.9,5.9,0,0,1,1.362,1.9,3,3,0,0,1,3.42.539,7.93,7.93,0,0,1,5.947.4c.118.013.234.027.348.043,4.113.591,4.025,3.6,3.966,4.2A5.26,5.26,0,0,1,7.408,8.781Zm16.2-.612a4.458,4.458,0,0,1-1.891,2.5,4.636,4.636,0,0,1-2.965.513,5.355,5.355,0,0,1-2.632-1.15,5.26,5.26,0,0,1-1.572-4.774c.111-.59.877-3.5,4.989-2.912.113.016.229.035.345.056a7.937,7.937,0,0,1,2.385.846,3,3,0,0,1,1.592,1.886A5.907,5.907,0,0,1,23.6,8.169Z" transform="translate(16.464 31.614)" fill="#323232"/>
              <ellipse id="Elipse_645" data-name="Elipse 645" cx="35.878" cy="35.878" rx="35.878" ry="35.878" transform="translate(0 0)" fill="#caccca" opacity="0.209"/>
              <path id="Trazado_36621" data-name="Trazado 36621" d="M1.891,14.347A1.689,1.689,0,0,1,.1,12.1,23.832,23.832,0,0,1,9.41.277,1.689,1.689,0,0,1,11.262,3.1,20.438,20.438,0,0,0,3.279,13.239,1.687,1.687,0,0,1,1.891,14.347Z" transform="translate(6.626 8.3)" fill="#fbfcfb"/>
              <path id="Trazado_36622" data-name="Trazado 36622" d="M1.89,4.645a1.689,1.689,0,0,1-.773-3.266A23.745,23.745,0,0,1,8.233,0a1.689,1.689,0,1,1,.128,3.375,20.421,20.421,0,0,0-6.1,1.18A1.7,1.7,0,0,1,1.89,4.645Z" transform="translate(19.832 4.745)" fill="#fbfcfb"/>
            </g>
            <path id="Trazado_36623" data-name="Trazado 36623" d="M18.845,0S5.244,15.6,2.333,42.745c0,0-.915,2.456-2.333,5.429" transform="translate(191.458 66.562)" fill="none" stroke="#465a69" stroke-linecap="round" stroke-linejoin="round" stroke-width="7"/>
            <path id="Trazado_36624" data-name="Trazado 36624" d="M15.612,0S2.341,15.881,0,43.083" transform="translate(207.389 72.617)" fill="none" stroke="#465a69" stroke-linecap="round" stroke-linejoin="round" stroke-width="7"/>
            <path id="Trazado_36625" data-name="Trazado 36625" d="M0,15.277S7.755,17.521,9.76,36.3c0,0,4-13.47,20.466-15.506,0,0,4.622-6.509,7.679-17.751S0,15.277,0,15.277Z" transform="translate(202.615 98.944)" fill="#a0a09f" opacity="0.52"/>
            <path id="Trazado_36626" data-name="Trazado 36626" d="M0,0" transform="translate(183.824 116.848)" fill="#d3e5d3"/>
            <path id="Trazado_36627" data-name="Trazado 36627" d="M5.822.058S2.125-.9,0,4.961c0,0,23.865,14.054,50.653,12.816,0,0,1.407-2.272,0-6.846C50.649,10.931,21.864,10.461,5.822.058Z" transform="translate(196.316 59.026)" fill="#d90066"/>
            <path id="Trazado_36628" data-name="Trazado 36628" d="M50.649,7.236s-1.089-.019-2.955-.123a6.609,6.609,0,0,1-.607,3.551C26.955,11.594,8.474,3.887.534,0A13.091,13.091,0,0,0,0,1.265S23.865,15.319,50.653,14.081C50.653,14.081,52.061,11.809,50.649,7.236Z" transform="translate(196.316 62.722)" fill="#b71562"/>
            <path id="Trazado_36629" data-name="Trazado 36629" d="M.741,2.97c14.279,9.159,32.754,13.987,49.6,12.69,1.964-.151,1.8-3.212-.171-3.06C33.814,13.86,15.995,9.13,2.138.242.475-.824-.906,1.914.741,2.97Z" transform="translate(197.893 55.407)" fill="#546a80"/>
            <path id="Trazado_36630" data-name="Trazado 36630" d="M3.119.168S11.914,18.092,0,30.217c0,0,.916,1.832,5.742,1.181S17.668,13.116,9.814,2.307C7.489-.891,3.119.168,3.119.168Z" transform="translate(200.313 116.603)" fill="#b71562"/>
            <path id="Trazado_36631" data-name="Trazado 36631" d="M9.814,1.971A5.352,5.352,0,0,0,7.042,0c.086.1.175.2.256.308,7.855,10.808.755,28.439-4.071,29.09a12.475,12.475,0,0,1-2.86.1c-.121.129-.241.259-.367.387,0,0,.917,1.832,5.743,1.18S17.669,12.779,9.814,1.971Z" transform="translate(200.313 116.94)" fill="#d90066"/>
            <path id="Trazado_36632" data-name="Trazado 36632" d="M13.55,0S5.923.491,2.915,2.137-1.571.291,2.464,31.783,9.18,78.116,9.18,78.116l13.377-.988s.326-21.1,1.784-29.839,1.352-17.053-4.356-29.477S13.55,0,13.55,0Z" transform="translate(120.663 106.604)" fill="#f7f7f0"/>
            <g id="Grupo_34004" data-name="Grupo 34004" transform="translate(114.08 63.375)">
              <path id="Trazado_36633" data-name="Trazado 36633" d="M0,5.027,45.928,0,71.213,6.081l-27.085,4.7Z" transform="translate(0 34.939)" fill="#333133"/>
              <path id="Trazado_36634" data-name="Trazado 36634" d="M0,39.966,1.335,2.657,45.723,0l-1.6,45.722Z" transform="translate(0 0)" fill="#333133"/>
              <path id="Trazado_36635" data-name="Trazado 36635" d="M1.6,0,3.758.248,1.814,45.557,0,45.722Z" transform="translate(44.128 0)" fill="#212021"/>
              <path id="Trazado_36636" data-name="Trazado 36636" d="M16.622,2.385S5.534-1.516,2.012.66.078,6.508,3.051,8.678s9.351,4.555,13.956,4.253S19.7,1.865,16.622,2.385Z" transform="translate(41.449 40.138)" fill="#c7c5c0"/>
              <path id="Trazado_36637" data-name="Trazado 36637" d="M68.4.118s-7.377-2-13.9,10.456S49.266,29.967,35.5,30.92.624,34.453.624,34.453A17.439,17.439,0,0,0,1.01,45s25.556,7.407,52.06-.249S82.81.152,68.4.118Z" transform="translate(57.447 8.07)" fill="#c7c5c0"/>
              <path id="Trazado_36638" data-name="Trazado 36638" d="M8.519.636C1.321,2.55.127,8.469,0,11.479c2.42-.469,4.868-1.049,7.324-1.758A31.419,31.419,0,0,0,19.987,2.6C18.329.968,14.862-1.05,8.519.636Z" transform="translate(103.192 43.099)" fill="#9e9e9f"/>
              <path id="Trazado_36639" data-name="Trazado 36639" d="M9.459,0C4.243.586.624,1.028.624,1.028A17.439,17.439,0,0,0,1.01,11.573a83.706,83.706,0,0,0,10.11,2.033A51.963,51.963,0,0,1,9.459,0Z" transform="translate(57.447 41.495)" fill="#174e9a"/>
              <path id="Trazado_36640" data-name="Trazado 36640" d="M4.449,0C3.039.146,1.662.293.338.437A35.857,35.857,0,0,0,1.322,14.99c1.355.154,2.788.292,4.291.4A32.276,32.276,0,0,1,4.449,0Z" transform="translate(70.875 40.583)" fill="#b71562"/>
              <path id="Trazado_36641" data-name="Trazado 36641" d="M1.59,0C1,1.316.485,2.552,0,3.71,4.19,4.806,14.247,8.2,20.177,16.516a35.876,35.876,0,0,0,2.164-3.754C15.888,4.733,6.328,1.281,1.59,0Z" transform="translate(108.286 22.952)" fill="#174e9a"/>
              <path id="Trazado_36642" data-name="Trazado 36642" d="M20.759,16A35.37,35.37,0,0,0,22.1,11.326C15.849,4.326,7.215,1.267,2.052,0,1.51.836.969,1.751.435,2.773c-.15.287-.292.568-.435.849C4.815,4.688,14.79,7.8,20.759,16Z" transform="translate(111.518 15.871)" fill="#174e9a"/>
              <path id="Trazado_36643" data-name="Trazado 36643" d="M11.02,13.606A51.963,51.963,0,0,1,9.36,0c-2.254.253-4.208.479-5.7.654,1.036,2.07,2.847,6.325,1.072,7.812C3.2,9.745,1.224,8.526,0,7.486a18.189,18.189,0,0,0,.911,4.087A83.706,83.706,0,0,0,11.02,13.606Z" transform="translate(57.546 41.495)" fill="#114682"/>
              <ellipse id="Elipse_646" data-name="Elipse 646" cx="5.809" cy="4.301" rx="5.809" ry="4.301" transform="matrix(0.015, -1, 1, 0.015, 16.542, 26.726)" fill="#b0aea6"/>
              <path id="Trazado_36644" data-name="Trazado 36644" d="M1.49,0A3.319,3.319,0,0,0,0,.342C1.956.907,3.4,3.273,3.36,6.085A5.992,5.992,0,0,1,.465,11.49a3.269,3.269,0,0,0,.855.128C3.7,11.653,5.659,9.08,5.706,5.872S3.865.035,1.49,0Z" transform="translate(19.522 15.171)" fill="#9c9b95"/>
            </g>
            <g id="Grupo_34005" data-name="Grupo 34005" transform="translate(193.588 77.962)">
              <path id="Trazado_36645" data-name="Trazado 36645" d="M3.9,0,23.785,6.625,18.919,18.751,0,12.615Z" transform="translate(0 1.14)" fill="#f29e31"/>
              <path id="Trazado_36646" data-name="Trazado 36646" d="M7.051,0,2.76,11.819,0,13.38,4.866,1.254Z" transform="translate(18.919 6.511)" fill="#915614"/>
              <path id="Trazado_36647" data-name="Trazado 36647" d="M0,0,5.4,9.567,19.883,6.625,6.273,1.25Z" transform="translate(3.902 1.14)" fill="#e0861e"/>
              <ellipse id="Elipse_647" data-name="Elipse 647" cx="1.146" cy="1.146" rx="1.146" ry="1.146" transform="translate(9.807 6.635)" fill="#f29e31"/>
              <path id="Trazado_36648" data-name="Trazado 36648" d="M2.393,0,0,1.14,19.883,7.765l2.185-1.254Z" transform="translate(3.902 0)" fill="#bf751a"/>
            </g>
            <path id="Trazado_36649" data-name="Trazado 36649" d="M0,.7C2.828,22.566,5.212,35.579,5.212,35.579L18.635,33.2S19.249,12.568,20.894.968C13.433.071,3.242-.541,0,.7Z" transform="translate(124.631 149.141)" fill="#f29e31"/>
            <path id="Trazado_36650" data-name="Trazado 36650" d="M0,2.354Q.371,5.312.72,8.137c4.12-1.572,14.822-2.688,21.612-1.156A22.529,22.529,0,0,0,21.895.56C14.7-.872,4.711.7,0,2.354Z" transform="translate(123.457 138.765)" fill="#d90066"/>
            <path id="Trazado_36651" data-name="Trazado 36651" d="M16.075,17.313S16.323,8.9,16.888.037C11.54-.119,3.19.2,0,1.286c1.554,9.96,2.526,17.022,2.526,17.022Z" transform="translate(127.146 166.418)" fill="#e68218"/>
            <path id="Trazado_36652" data-name="Trazado 36652" d="M0,23.341S9.733,9.966,14.258,8.261s6-7.414.845-8.24S0,23.341,0,23.341Z" transform="translate(94.033 102.341)" fill="#adadac"/>
            <path id="Trazado_36653" data-name="Trazado 36653" d="M0,0" transform="translate(122.293 109.682)" fill="#e6e5df"/>
            <path id="Trazado_36654" data-name="Trazado 36654" d="M12.864,0,1.443,5.056s-3.085,1.9-.234,4.66c2.513,2.431,12.631,3.647,20.178,2.627C20.507,6.474,16.59,2.506,12.864,0Z" transform="translate(0 153.874)" fill="#909090"/>
            <path id="Trazado_36655" data-name="Trazado 36655" d="M6.155,0,0,2.725A20.406,20.406,0,0,1,2.62,4.961,18.532,18.532,0,0,1,7.962,16.714c2.141-.4,4.108-.626,5.949-.807A25.136,25.136,0,0,0,6.155,0Z" transform="translate(19.185 148.351)" fill="#174e9a"/>
            <path id="Trazado_36656" data-name="Trazado 36656" d="M68.849,9.1s-.739-6.088-3.933-7.337C58.588-.709,60.688-3.632,35.965,16.288S0,46.261,0,46.261L7.843,57.142s18.15-10.766,26.36-14.1,15.239-7.773,22.838-19.139S68.849,9.1,68.849,9.1Z" transform="translate(42.229 94.892)" fill="#adadac"/>
            <path id="Trazado_36657" data-name="Trazado 36657" d="M26.99,0C9.839,13.853,0,22.695,0,22.695L9.052,32.887S26.953,22.612,37.7,17.942C34.559,11.116,29.746,2.111,26.99,0Z" transform="translate(42.229 118.458)" fill="#f29e31"/>
            <path id="Trazado_36658" data-name="Trazado 36658" d="M4.551,0Q2.224,1.864,0,3.64C3.5,6.327,10.048,14.863,12.3,21.45a22.515,22.515,0,0,0,5.243-3.733C14.991,10.834,8.422,3.151,4.551,0Z" transform="translate(71.488 112.892)" fill="#d90066"/>
            <path id="Trazado_36659" data-name="Trazado 36659" d="M7.939,22.085s7.3-4.193,15.147-8.349C20.42,9.1,15.775,2.152,13.183,0,5.509,6.537,0,11.061,0,11.061Z" transform="translate(42.134 129.949)" fill="#e68218"/>
            <path id="Trazado_36660" data-name="Trazado 36660" d="M121.579,4.495s-3.847-1.562-7-2.866A21.224,21.224,0,0,0,103.065.268C93.108-.377,77.13,19.71,59.87,31.376S38.6,45.97,33.289,53.311,0,58.989,0,58.989a3.385,3.385,0,0,0,.28.241c.032.026.069.05.1.075.072.053.145.105.224.157.045.029.094.058.142.087.076.046.153.092.234.137.054.03.11.059.166.088.083.043.168.086.256.127l.184.086c.091.041.186.082.284.122l.2.081c.1.041.212.081.32.121.066.024.129.048.2.072.128.045.262.088.4.132l.156.052c.187.058.379.114.576.169.07.02.144.037.215.057.133.035.265.07.4.1l.281.067c.12.028.241.056.364.084l.317.068c.116.025.233.049.351.072l.346.067.344.062.372.064.335.054c.133.021.265.042.4.061l.309.043c.147.02.294.041.443.06l.111.013q.6.075,1.223.135l.13.013c.183.017.368.033.553.048l.226.018q.274.022.549.039l.236.016.559.031.226.011q.287.014.576.024l.2.007q.3.009.606.016l.132,0c1.221.021,2.447,0,3.645-.07l.108-.006q.318-.019.631-.043l.15-.011q.307-.024.609-.052l.15-.015q.307-.029.609-.064l.114-.014a28.937,28.937,0,0,0,3.523-.614c.993-.245,1.948-.445,2.871-.617.5-.093,1-.176,1.481-.252l.293-.045q.58-.088,1.144-.163l.353-.047q.543-.069,1.07-.129l.315-.036c.432-.048.859-.092,1.278-.133a54.7,54.7,0,0,0,9.313-1.318c4.2-1.17,4.4-5.327,7.751-10.95.769-.441,7.678-4.389,15.073-8.306L64,39.072c4.092-2.172,8.49-4.421,12.312-6.19a50.348,50.348,0,0,0,6.259-3.141h0a22.52,22.52,0,0,0,5.243-3.733v0a51.276,51.276,0,0,0,8.321-9.077l0,.012c.043-.064.088-.129.133-.194.255-.35.511-.7.768-1.07a67.111,67.111,0,0,1,8.169-8.569,100.56,100.56,0,0,0,14.584,8.212s-.09-1.072-.339-5.912S121.579,4.495,121.579,4.495Z" transform="translate(1.209 104.602)" fill="#a0a09f" opacity="0.264"/>
          </g>
        </g>
      </g>
      <g id="Grupo_34743" data-name="Grupo 34743" transform="translate(2454.129 -472.379)">
        <path id="Trazado_36744" data-name="Trazado 36744" d="M642.9,107.941l-.372,2.552a2.1,2.1,0,0,1-1.777,1.777l-2.552.372,2.552.372a2.1,2.1,0,0,1,1.777,1.777l.372,2.551.372-2.551a2.1,2.1,0,0,1,1.777-1.777l2.552-.372-2.552-.372a2.1,2.1,0,0,1-1.777-1.777Z" transform="translate(141.421 107.048)" fill="#fff" opacity="0.43"/>
        <path id="Trazado_36745" data-name="Trazado 36745" d="M637.974,240.941l-.325,2.228a1.834,1.834,0,0,1-1.551,1.551l-2.228.325,2.228.324a1.834,1.834,0,0,1,1.551,1.551l.325,2.227.324-2.227a1.834,1.834,0,0,1,1.551-1.551l2.228-.324-2.228-.325a1.835,1.835,0,0,1-1.551-1.551Z" transform="translate(-61.87 -165.478)" fill="#fff"/>
        <circle id="Elipse_657" data-name="Elipse 657" cx="0.895" cy="0.895" r="0.895" transform="translate(586.175 67.48)" fill="#fff" opacity="0.43"/>
        <circle id="Elipse_658" data-name="Elipse 658" cx="0.895" cy="0.895" r="0.895" transform="translate(594.68 66.436)" fill="#fff" opacity="0.43"/>
        <circle id="Elipse_659" data-name="Elipse 659" cx="0.895" cy="0.895" r="0.895" transform="translate(590.502 75.09)" fill="#fff" opacity="0.6"/>
        <path id="Trazado_36748" data-name="Trazado 36748" d="M641.114,107.941l-.23,1.58a1.3,1.3,0,0,1-1.1,1.1l-1.58.23,1.58.23a1.3,1.3,0,0,1,1.1,1.1l.23,1.579.23-1.579a1.3,1.3,0,0,1,1.1-1.1l1.58-.23-1.58-.23a1.3,1.3,0,0,1-1.1-1.1Z" transform="translate(151.12 104.064)" fill="#fff" opacity="0.202"/>
        <ellipse id="Elipse_662" data-name="Elipse 662" cx="0.895" cy="0.895" rx="0.895" ry="0.895" transform="matrix(0.875, -0.485, 0.485, 0.875, 636.662, 14.914)" fill="#fff" opacity="0.43"/>
        <ellipse id="Elipse_663" data-name="Elipse 663" cx="0.895" cy="0.895" rx="0.895" ry="0.895" transform="matrix(0.875, -0.485, 0.485, 0.875, 646.279, 11.22)" fill="#fff" opacity="0.43"/>
        <ellipse id="Elipse_664" data-name="Elipse 664" cx="0.895" cy="0.895" rx="0.895" ry="0.895" transform="matrix(0.875, -0.485, 0.485, 0.875, 646.821, 20.814)" fill="#fff" opacity="0.6"/>
        <g id="Grupo_34744" data-name="Grupo 34744" transform="translate(25 -5)">
          <path id="Trazado_39125" data-name="Trazado 39125" d="M5.313,0,4.892,2.884A2.375,2.375,0,0,1,2.885,4.893L0,5.313l2.885.42A2.374,2.374,0,0,1,4.892,7.741l.421,2.884.42-2.884A2.374,2.374,0,0,1,7.741,5.733l2.885-.42-2.885-.42A2.375,2.375,0,0,1,5.733,2.884Z" transform="translate(593.787 237.977) rotate(180)" fill="#fff"/>
          <circle id="Elipse_806" data-name="Elipse 806" cx="1.159" cy="1.159" r="1.159" transform="translate(575.434 248.313) rotate(180)" fill="#fff" opacity="0.43"/>
          <circle id="Elipse_807" data-name="Elipse 807" cx="1.159" cy="1.159" r="1.159" transform="translate(564.423 249.665) rotate(180)" fill="#fff" opacity="0.43"/>
          <circle id="Elipse_808" data-name="Elipse 808" cx="1.159" cy="1.159" r="1.159" transform="translate(569.832 238.46) rotate(180)" fill="#fff" opacity="0.6"/>
        </g>
        <ellipse id="Elipse_809" data-name="Elipse 809" cx="0.895" cy="0.895" rx="0.895" ry="0.895" transform="matrix(-0.875, 0.485, -0.485, -0.875, 808.227, 77.164)" fill="#fff" opacity="0.43"/>
        <ellipse id="Elipse_810" data-name="Elipse 810" cx="0.895" cy="0.895" rx="0.895" ry="0.895" transform="matrix(-0.875, 0.485, -0.485, -0.875, 798.609, 80.857)" fill="#fff" opacity="0.43"/>
        <ellipse id="Elipse_811" data-name="Elipse 811" cx="0.895" cy="0.895" rx="0.895" ry="0.895" transform="matrix(-0.875, 0.485, -0.485, -0.875, 798.068, 71.264)" fill="#fff" opacity="0.6"/>
      </g>
      <g id="Grupo_34745" data-name="Grupo 34745" transform="translate(2093.604 -745.513)">
        <path id="Trazado_39074" data-name="Trazado 39074" d="M943.618,313.79c.1-1.052.157-2.118.157-3.2q0-.872-.046-1.733c0-.088-.014-.175-.02-.262-.03-.49-.065-.977-.115-1.46-.006-.057-.015-.113-.021-.169-.056-.514-.122-1.025-.2-1.532-.005-.031-.011-.062-.017-.093q-.126-.791-.289-1.57c0-.006,0-.011,0-.016v0a32.745,32.745,0,0,0-3.209-8.77,4.012,4.012,0,0,0-.3-4.3l-1.4-1.884a4.013,4.013,0,0,0-4.027-1.52,32.862,32.862,0,0,0-20.307-9.517,2.9,2.9,0,0,0-2.588-1.837l-4.579-.158a2.894,2.894,0,0,0-2.972,2.633,32.9,32.9,0,0,0-16.023,8.721,4.858,4.858,0,0,0-4.14,1.827l-1.45,1.834a4.869,4.869,0,0,0-.661,4.9,32.689,32.689,0,0,0-2.853,8.075h0v0a32.666,32.666,0,0,0-.52,3.279c0,.031-.008.062-.012.093-.052.5-.09,1-.119,1.5,0,.075-.013.15-.017.225q-.045.862-.046,1.734a32.905,32.905,0,0,0,1.962,11.222c-.275.444.07,1.948.855,3.591a7.812,7.812,0,0,0,1.962,2.8.832.832,0,0,0,.239.114h0l.022,0a.664.664,0,0,0,.159.03,33.052,33.052,0,0,0,16.958,13.385,3.829,3.829,0,0,0,3.051,2.312l2.69.33a3.81,3.81,0,0,0,2.942-.894c.705.045,1.414.076,2.13.076a32.975,32.975,0,0,0,30.306-19.974,2.831,2.831,0,0,0,2.365-1.8l1.682-4.393A2.833,2.833,0,0,0,943.618,313.79Z" transform="translate(-3.445 -4.897)" fill="#1d2638" opacity="0.757"/>
        <g id="Grupo_34747" data-name="Grupo 34747" transform="translate(871.867 267.286)">
          <path id="Trazado_39075" data-name="Trazado 39075" d="M928.1,406.213l2.691.33a3.834,3.834,0,0,1,3.327,4.26l-.252,2.053a3.834,3.834,0,0,1-4.26,3.328l-2.689-.33a3.834,3.834,0,0,1-3.329-4.26l.252-2.053A3.833,3.833,0,0,1,928.1,406.213Z" transform="translate(-901.712 -347.473)" fill="#c2c2c2"/>
          <path id="Rectángulo_3767" data-name="Rectángulo 3767" d="M4.855,0H5.5a4.856,4.856,0,0,1,4.856,4.856v0A4.857,4.857,0,0,1,5.5,9.713H4.856A4.856,4.856,0,0,1,0,4.857v0A4.855,4.855,0,0,1,4.855,0Z" transform="translate(68.333 39.089) rotate(110.947)" fill="#c2c2c2"/>
          <path id="Trazado_39076" data-name="Trazado 39076" d="M1002.841,296.158l1.4,1.884a4.014,4.014,0,0,1-.817,5.6l-1.369,1.021a4.014,4.014,0,0,1-5.6-.817l-1.405-1.884a4.014,4.014,0,0,1,.817-5.6l1.37-1.02A4.014,4.014,0,0,1,1002.841,296.158Z" transform="translate(-942.527 -283.026)" fill="#d6d6d6"/>
          <path id="Rectángulo_3768" data-name="Rectángulo 3768" d="M4.857,0H5.5a4.856,4.856,0,0,1,4.856,4.856v0A4.856,4.856,0,0,1,5.5,9.713H4.856A4.856,4.856,0,0,1,0,4.857v0A4.857,4.857,0,0,1,4.857,0Z" transform="translate(35.942 10.063) rotate(-178.028)" fill="#d6d6d6"/>
          <path id="Trazado_39077" data-name="Trazado 39077" d="M889.517,302.216l-1.449,1.835a4.872,4.872,0,0,1-6.822.8h0a4.872,4.872,0,0,1-.8-6.822l1.45-1.834a4.871,4.871,0,0,1,6.821-.8h0A4.87,4.87,0,0,1,889.517,302.216Z" transform="translate(-876.22 -282.913)" fill="#d6d6d6"/>
          <path id="Trazado_39078" data-name="Trazado 39078" d="M937.808,304.873A32.97,32.97,0,1,1,904.837,271.9,32.971,32.971,0,0,1,937.808,304.873Z" transform="translate(-871.867 -269.951)" fill="#f6f6f6"/>
          <path id="Trazado_39079" data-name="Trazado 39079" d="M904.837,359.865a32.979,32.979,0,0,1-32.256-26.134,32.97,32.97,0,1,0,64.514,0A32.98,32.98,0,0,1,904.837,359.865Z" transform="translate(-871.867 -305.645)" fill="#230753" opacity="0.15"/>
          <path id="Trazado_39080" data-name="Trazado 39080" d="M921.078,303.144c.558,1.34-.6,3.1-2.581,3.923s-4.045.408-4.6-.932.6-3.1,2.581-3.925S920.519,301.8,921.078,303.144Z" transform="translate(-896.048 -287.203)" fill="#e3e3e3"/>
          <path id="Trazado_39081" data-name="Trazado 39081" d="M910,305.358c-.842-2.02.9-4.669,3.891-5.914a6.409,6.409,0,0,1,5.858.121c-1.26-1.322-3.856-1.606-6.373-.558-2.991,1.244-4.732,3.893-3.891,5.914a2.9,2.9,0,0,0,1.079,1.285A2.761,2.761,0,0,1,910,305.358Z" transform="translate(-893.462 -285.23)" fill="#e3e3e3"/>
          <path id="Trazado_39082" data-name="Trazado 39082" d="M921.183,303.891a1.9,1.9,0,0,0-.654-.81c.38,1.313-.755,2.944-2.645,3.732a4.2,4.2,0,0,1-3.95-.122,1.988,1.988,0,0,0,.064.191c.558,1.341,2.619,1.758,4.6.932S921.741,305.232,921.183,303.891Z" transform="translate(-896.152 -287.951)" fill="#230753" opacity="0.15"/>
          <path id="Trazado_39083" data-name="Trazado 39083" d="M950.865,285.4c.089.8-1,1.577-2.428,1.735s-2.661-.362-2.75-1.162,1-1.577,2.429-1.735S950.777,284.6,950.865,285.4Z" transform="translate(-914.481 -277.058)" fill="#e3e3e3"/>
          <path id="Trazado_39084" data-name="Trazado 39084" d="M972.834,311.867a1.777,1.777,0,0,1-.333-2.3c-.06.083-.12.167-.174.259-.589,1.02-.5,2.174.2,2.576s1.74-.1,2.329-1.118c.054-.092.094-.186.137-.28C974.385,311.846,973.469,312.233,972.834,311.867Z" transform="translate(-929.638 -291.697)" fill="#e3e3e3"/>
          <path id="Trazado_39085" data-name="Trazado 39085" d="M942.58,285.167c-.142-1.28,1.6-2.524,3.888-2.778a6.471,6.471,0,0,1,2.619.216,5.961,5.961,0,0,0-3.2-.445c-2.289.254-4.03,1.5-3.888,2.778.081.738.773,1.326,1.782,1.644A1.915,1.915,0,0,1,942.58,285.167Z" transform="translate(-912.353 -275.847)" fill="#230753" opacity="0.15"/>
          <path id="Trazado_39086" data-name="Trazado 39086" d="M952.439,285.406c-.075-.692-1.008-1.174-2.183-1.189.648.2,1.095.569,1.147,1.038.088.8-1,1.576-2.429,1.735a4.514,4.514,0,0,1-.565.027,4.059,4.059,0,0,0,1.6.124C951.441,286.983,952.528,286.207,952.439,285.406Z" transform="translate(-916.055 -277.06)" fill="#230753" opacity="0.15"/>
          <path id="Trazado_39087" data-name="Trazado 39087" d="M886.322,332.807c1.232.77,1.323,2.845.2,4.637s-3.025,2.619-4.257,1.848-1.324-2.846-.205-4.637S885.09,332.037,886.322,332.807Z" transform="translate(-877.302 -304.945)" fill="#e3e3e3"/>
          <path id="Trazado_39088" data-name="Trazado 39088" d="M892.126,330.26c1.314.822,1.591,2.826.784,4.789,1.126-1.973.985-4.185-.358-5.024a2.609,2.609,0,0,0-2.452-.041A2.645,2.645,0,0,1,892.126,330.26Z" transform="translate(-882.393 -303.318)" fill="#230753" opacity="0.15"/>
          <path id="Trazado_39089" data-name="Trazado 39089" d="M878.651,341.614c-1.688-1.054-1.927-3.762-.645-6.262-.136.183-.27.372-.394.572-1.658,2.653-1.522,5.728.3,6.869s4.649-.086,6.307-2.738c.125-.2.236-.4.341-.606C882.878,341.7,880.338,342.669,878.651,341.614Z" transform="translate(-874.514 -306.581)" fill="#230753" opacity="0.15"/>
          <path id="Trazado_39090" data-name="Trazado 39090" d="M886.8,332.807c-1.232-.77-3.138.057-4.257,1.848a5.466,5.466,0,0,0-.433.856c1.121-1.241,2.638-1.732,3.677-1.083s1.264,2.228.638,3.779a5.442,5.442,0,0,0,.58-.765C888.123,335.652,888.031,333.577,886.8,332.807Z" transform="translate(-877.78 -304.945)" fill="#230753" opacity="0.15"/>
          <path id="Trazado_39091" data-name="Trazado 39091" d="M905.2,362.839c2.668,1.668,3.727,4.788,2.364,6.969s-4.631,2.6-7.3.93-3.727-4.787-2.364-6.969S902.532,361.172,905.2,362.839Z" transform="translate(-886.553 -321.859)" fill="#e3e3e3"/>
          <path id="Trazado_39092" data-name="Trazado 39092" d="M897.9,366.829c1.363-2.182,4.632-2.6,7.3-.93a6.388,6.388,0,0,1,2.682,3.261c.822-2.116-.267-4.812-2.682-6.321-2.668-1.667-5.937-1.251-7.3.93a4.275,4.275,0,0,0-.318,3.709A3.908,3.908,0,0,1,897.9,366.829Z" transform="translate(-886.554 -321.859)" fill="#230753" opacity="0.15"/>
          <path id="Trazado_39093" data-name="Trazado 39093" d="M908.172,374.662a5.678,5.678,0,0,1-.736,3.127c-1.838,3.183-6.484,3.941-10.378,1.693a8.963,8.963,0,0,1-4.18-5.084,8.5,8.5,0,0,0,4.459,6.706c3.894,2.248,8.54,1.49,10.378-1.692A5.977,5.977,0,0,0,908.172,374.662Z" transform="translate(-883.997 -329.122)" fill="#230753" opacity="0.15"/>
          <path id="Trazado_39094" data-name="Trazado 39094" d="M921.311,405.983c1.045-1.673,3.825-1.821,6.21-.33a5.675,5.675,0,0,1,2.807,3.967,5.312,5.312,0,0,0-2.807-4.54c-2.384-1.49-5.165-1.342-6.21.33a2.765,2.765,0,0,0-.381,1.758A2.637,2.637,0,0,1,921.311,405.983Z" transform="translate(-900.182 -346.242)" fill="#230753" opacity="0.15"/>
          <path id="Trazado_39095" data-name="Trazado 39095" d="M930.157,412.582a1.894,1.894,0,0,1-.241.662c-.769,1.231-2.816,1.34-4.571.243a4.667,4.667,0,0,1-1.823-2.028,3.756,3.756,0,0,0,2.026,3.554c1.755,1.1,3.8.989,4.571-.243A2.326,2.326,0,0,0,930.157,412.582Z" transform="translate(-901.666 -350.518)" fill="#230753" opacity="0.15"/>
          <path id="Trazado_39096" data-name="Trazado 39096" d="M973.851,363.231c4,2.5,5.427,7.415,3.2,10.984s-7.278,4.438-11.273,1.942-5.427-7.415-3.2-10.984S969.856,360.734,973.851,363.231Z" transform="translate(-923.627 -321.853)" fill="#e3e3e3"/>
          <path id="Trazado_39097" data-name="Trazado 39097" d="M964.806,369.638c2.231-3.569,7.277-4.439,11.273-1.942a9.458,9.458,0,0,1,1.915,1.58,8.9,8.9,0,0,0-4.142-6.046c-4-2.5-9.043-1.628-11.274,1.941a7.789,7.789,0,0,0,1.282,9.4A7.085,7.085,0,0,1,964.806,369.638Z" transform="translate(-923.628 -321.853)" fill="#230753" opacity="0.15"/>
          <path id="Trazado_39098" data-name="Trazado 39098" d="M976.961,377.144a11.326,11.326,0,0,1-1.739,6.1A10.817,10.817,0,0,1,960.4,387a10.32,10.32,0,0,1-4.605-6.6,10.464,10.464,0,0,0,4.858,8.869,10.818,10.818,0,0,0,14.823-3.76A11.245,11.245,0,0,0,976.961,377.144Z" transform="translate(-920.318 -330.707)" fill="#230753" opacity="0.15"/>
          <path id="Trazado_39099" data-name="Trazado 39099" d="M928.346,338.633c-.231.666-1.2.933-2.171.6s-1.564-1.148-1.333-1.813,1.2-.933,2.171-.6S928.577,337.968,928.346,338.633Z" transform="translate(-902.421 -307.344)" fill="#e3e3e3"/>
          <path id="Trazado_39100" data-name="Trazado 39100" d="M928.417,338.735a1.4,1.4,0,0,1,.123,1.118c-.314.9-1.63,1.265-2.942.809a3.219,3.219,0,0,1-1.431-.961,2.98,2.98,0,0,0,1.685,1.34c1.311.455,2.628.093,2.941-.809A1.564,1.564,0,0,0,928.417,338.735Z" transform="translate(-902.059 -308.534)" fill="#230753" opacity="0.15"/>
          <path id="Trazado_39101" data-name="Trazado 39101" d="M925.3,337.889c.231-.666,1.2-.933,2.171-.6a2.545,2.545,0,0,1,.7.372,2.283,2.283,0,0,0-1.153-.844c-.968-.336-1.939-.069-2.171.6a1.347,1.347,0,0,0,.636,1.442A1.091,1.091,0,0,1,925.3,337.889Z" transform="translate(-902.422 -307.344)" fill="#230753" opacity="0.15"/>
          <path id="Trazado_39102" data-name="Trazado 39102" d="M965.453,335.7a1.639,1.639,0,0,0-1.773.376,1.874,1.874,0,0,1,.93.082,1.527,1.527,0,0,1,1.1,1.837,1.171,1.171,0,0,1-.216.377,1.327,1.327,0,0,0,1.06-.834A1.528,1.528,0,0,0,965.453,335.7Z" transform="translate(-924.871 -306.72)" fill="#230753" opacity="0.15"/>
          <path id="Trazado_39103" data-name="Trazado 39103" d="M962.373,337.575a3.058,3.058,0,0,1-2.447-3.524,2.331,2.331,0,0,1,.336-.7,2.436,2.436,0,0,0-.993,1.362,3.058,3.058,0,0,0,2.446,3.525,3.256,3.256,0,0,0,3.555-1.07A3.513,3.513,0,0,1,962.373,337.575Z" transform="translate(-922.276 -305.423)" fill="#230753" opacity="0.15"/>
          <path id="Trazado_39104" data-name="Trazado 39104" d="M1005.978,341.8a1.156,1.156,0,0,1-.252.78.984.984,0,0,1-1.351.287.748.748,0,0,1-.18-.205.8.8,0,0,0,.287.57.986.986,0,0,0,1.351-.287A1.054,1.054,0,0,0,1005.978,341.8Z" transform="translate(-948.26 -310.303)" fill="#230753" opacity="0.15"/>
          <path id="Trazado_39105" data-name="Trazado 39105" d="M974.256,309a1.043,1.043,0,0,1,1.45.189.865.865,0,0,1,.079.73.951.951,0,0,0,.114-1.094,1.042,1.042,0,0,0-1.449-.189,1.216,1.216,0,0,0-.512.662A1.276,1.276,0,0,1,974.256,309Z" transform="translate(-930.792 -291.039)" fill="#230753" opacity="0.15"/>
          <path id="Trazado_39106" data-name="Trazado 39106" d="M1005.138,318.983a1.041,1.041,0,0,0-1.35-.559,1.251,1.251,0,0,0-.606.413,1.3,1.3,0,0,1,.363-.185,1.043,1.043,0,0,1,1.351.559.887.887,0,0,1-.187.82A.957.957,0,0,0,1005.138,318.983Z" transform="translate(-947.676 -296.773)" fill="#230753" opacity="0.15"/>
          <path id="Trazado_39107" data-name="Trazado 39107" d="M976.142,293.063c.136-.664,1.222-1,2.427-.757a3.762,3.762,0,0,1,.884.3,3.036,3.036,0,0,0-1.678-.877c-1.205-.246-2.291.093-2.427.757-.1.486.343,1.009,1.058,1.352A.921.921,0,0,1,976.142,293.063Z" transform="translate(-931.599 -281.349)" fill="#230753" opacity="0.15"/>
          <g id="Grupo_34746" data-name="Grupo 34746" transform="translate(1.867 45.716)">
            <g id="Grupo_34745-2" data-name="Grupo 34745" transform="translate(0.192)">
              <path id="Trazado_39108" data-name="Trazado 39108" d="M880.1,378.217c-.9-1.883-2.3-3.1-3.111-2.7a.8.8,0,0,0-.258.249,6.162,6.162,0,0,1,2.442,2.926,5.9,5.9,0,0,1,.518,3.683.709.709,0,0,0,.553-.038C881.068,381.944,881,380.1,880.1,378.217Z" transform="translate(-876.736 -375.439)" fill="#230753" opacity="0.15"/>
            </g>
            <path id="Trazado_39109" data-name="Trazado 39109" d="M878.9,379.062c.871,1.824,1.2,3.482.742,3.7s-1.541-1.081-2.411-2.905-1.2-3.482-.742-3.7S878.031,377.238,878.9,379.062Z" transform="translate(-876.283 -375.84)" fill="#c2c2c2"/>
            <path id="Trazado_39110" data-name="Trazado 39110" d="M879.879,382.362c-.085-.178-.173-.346-.261-.513.689,1.606.923,2.977.506,3.177s-1.334-.846-2.149-2.392c.074.174.15.347.235.525.87,1.824,1.949,3.125,2.411,2.905S880.75,384.186,879.879,382.362Z" transform="translate(-877.26 -379.139)" fill="#230753" opacity="0.15"/>
          </g>
          <path id="Trazado_39111" data-name="Trazado 39111" d="M1003.25,320.512a1.6,1.6,0,0,1-2.069-.863,1.38,1.38,0,0,1,.242-1.25,1.472,1.472,0,0,0-.567,1.594,1.594,1.594,0,0,0,2.069.863,1.862,1.862,0,0,0,.927-.663A1.952,1.952,0,0,1,1003.25,320.512Z" transform="translate(-946.297 -296.794)" fill="#230753" opacity="0.15"/>
        </g>
      </g>
      <g id="Grupo_34748" data-name="Grupo 34748" transform="translate(2868.242 -1050.98) rotate(77)">
        <path id="Trazado_36744-2" data-name="Trazado 36744" d="M642.9,107.941l-.372,2.552a2.1,2.1,0,0,1-1.777,1.777l-2.552.372,2.552.372a2.1,2.1,0,0,1,1.777,1.777l.372,2.551.372-2.551a2.1,2.1,0,0,1,1.777-1.777l2.552-.372-2.552-.372a2.1,2.1,0,0,1-1.777-1.777Z" transform="translate(85.884 80.884)" fill="#fff" opacity="0.43"/>
        <path id="Trazado_36745-2" data-name="Trazado 36745" d="M637.974,240.941l-.325,2.228a1.834,1.834,0,0,1-1.551,1.551l-2.228.325,2.228.324a1.834,1.834,0,0,1,1.551,1.551l.325,2.227.324-2.227a1.834,1.834,0,0,1,1.551-1.551l2.228-.324-2.228-.325a1.835,1.835,0,0,1-1.551-1.551Z" transform="translate(-19.076 -119.678)" fill="#fff"/>
        <circle id="Elipse_657-2" data-name="Elipse 657" cx="0.895" cy="0.895" r="0.895" transform="translate(628.969 113.281)" fill="#fff" opacity="0.43"/>
        <circle id="Elipse_658-2" data-name="Elipse 658" cx="0.895" cy="0.895" r="0.895" transform="translate(637.474 112.236)" fill="#fff" opacity="0.43"/>
        <circle id="Elipse_659-2" data-name="Elipse 659" cx="0.895" cy="0.895" r="0.895" transform="translate(633.296 120.89)" fill="#fff" opacity="0.6"/>
        <path id="Trazado_36748-2" data-name="Trazado 36748" d="M641.114,107.941l-.23,1.58a1.3,1.3,0,0,1-1.1,1.1l-1.58.23,1.58.23a1.3,1.3,0,0,1,1.1,1.1l.23,1.579.23-1.579a1.3,1.3,0,0,1,1.1-1.1l1.58-.23-1.58-.23a1.3,1.3,0,0,1-1.1-1.1Z" transform="translate(95.582 77.9)" fill="#fff" opacity="0.202"/>
        <ellipse id="Elipse_662-2" data-name="Elipse 662" cx="0.895" cy="0.895" rx="0.895" ry="0.895" transform="matrix(0.875, -0.485, 0.485, 0.875, 636.662, 14.914)" fill="#fff" opacity="0.43"/>
        <ellipse id="Elipse_663-2" data-name="Elipse 663" cx="0.895" cy="0.895" rx="0.895" ry="0.895" transform="matrix(0.875, -0.485, 0.485, 0.875, 646.279, 11.22)" fill="#fff" opacity="0.43"/>
        <ellipse id="Elipse_664-2" data-name="Elipse 664" cx="0.895" cy="0.895" rx="0.895" ry="0.895" transform="matrix(0.875, -0.485, 0.485, 0.875, 646.821, 20.814)" fill="#fff" opacity="0.6"/>
        <g id="Grupo_34744-2" data-name="Grupo 34744" transform="translate(25 -5)">
          <path id="Trazado_39125-2" data-name="Trazado 39125" d="M5.313,0,4.892,2.884A2.375,2.375,0,0,1,2.885,4.893L0,5.313l2.885.42A2.374,2.374,0,0,1,4.892,7.741l.421,2.884.42-2.884A2.374,2.374,0,0,1,7.741,5.733l2.885-.42-2.885-.42A2.375,2.375,0,0,1,5.733,2.884Z" transform="translate(549.867 210.39) rotate(180)" fill="#fff"/>
          <circle id="Elipse_806-2" data-name="Elipse 806" cx="1.159" cy="1.159" r="1.159" transform="translate(531.514 220.726) rotate(180)" fill="#fff" opacity="0.43"/>
          <circle id="Elipse_807-2" data-name="Elipse 807" cx="1.159" cy="1.159" r="1.159" transform="translate(520.503 222.078) rotate(180)" fill="#fff" opacity="0.43"/>
          <circle id="Elipse_808-2" data-name="Elipse 808" cx="1.159" cy="1.159" r="1.159" transform="translate(525.912 210.873) rotate(180)" fill="#fff" opacity="0.6"/>
        </g>
        <ellipse id="Elipse_809-2" data-name="Elipse 809" cx="0.895" cy="0.895" rx="0.895" ry="0.895" transform="matrix(-0.875, 0.485, -0.485, -0.875, 823.358, 176.103)" fill="#fff" opacity="0.43"/>
        <ellipse id="Elipse_810-2" data-name="Elipse 810" cx="0.895" cy="0.895" rx="0.895" ry="0.895" transform="matrix(-0.875, 0.485, -0.485, -0.875, 813.741, 179.797)" fill="#fff" opacity="0.43"/>
        <ellipse id="Elipse_811-2" data-name="Elipse 811" cx="0.895" cy="0.895" rx="0.895" ry="0.895" transform="matrix(-0.875, 0.485, -0.485, -0.875, 813.199, 170.203)" fill="#fff" opacity="0.6"/>
      </g>
      <g id="Grupo_34749" data-name="Grupo 34749" transform="matrix(0.99, 0.139, -0.139, 0.99, 2024.734, -1029.688)">
        <g id="Grupo_34020" data-name="Grupo 34020" transform="translate(858.603 533.066)">
          <ellipse id="Elipse_648" data-name="Elipse 648" cx="44.52" cy="44.52" rx="44.52" ry="44.52" transform="matrix(0.901, -0.434, 0.434, 0.901, 0, 38.647)" fill="#ffb03a"/>
          <g id="Grupo_34019" data-name="Grupo 34019" transform="translate(15.143 25.57)">
            <g id="Grupo_34018" data-name="Grupo 34018">
              <path id="Trazado_36715" data-name="Trazado 36715" d="M895.438,592.588c10.9,2.359,7.179,11.576,19.693,9.722,13.289-1.967,26.258-4.571,21.837-2.007s11.7-3.551,19.91-8.042a29.685,29.685,0,0,0,2.574-1.565,19.574,19.574,0,0,0,3.454-3.008,44.044,44.044,0,0,0-1.811-7.06l-1.686.51c-7.191,2.181-11.887,3.7-8.576,4.471,5.387,1.248-6.936,6.711-21.489,9s-21.223-2.131-9.518-4.411,16.456-1.665.939-2.231c-8.206-.3-16.767-.775-25.355-1.663-6.405-.663-12.826-1.555-19.128-2.775a44.267,44.267,0,0,0-1.192,6.007c5.274.737,11.483,1.943,18.148,2.691A21.967,21.967,0,0,1,895.438,592.588Z" transform="translate(-874.735 -561.488)" fill="#f97821"/>
              <path id="Trazado_36716" data-name="Trazado 36716" d="M896.2,626.75c-3.174-.2-6.867-.413-10.835-.739a44.624,44.624,0,0,0,10.794,9.533l.08-.043c2.584-1.388,6.178-3,8.863-4.65C909.972,627.853,905.158,627.324,896.2,626.75Z" transform="translate(-875.351 -564.209)" fill="#f97821"/>
              <path id="Trazado_36717" data-name="Trazado 36717" d="M893.675,574.79c.622.079,1.362.138,2.2.179,11.645.563,42.773-2.548,60.323-6.209a44.386,44.386,0,0,0-3.031-3.905c-10.353,3.07-18.089,1.677-15.537-2.35,2.83-4.466-8.206-1.013-16.465-.146a116.917,116.917,0,0,1-25.351-.642q-2.817-.357-5.744-.854a44.6,44.6,0,0,0-6.471,7.188,51.474,51.474,0,0,0,8.473,2.294C902.845,572.2,881.637,573.254,893.675,574.79Z" transform="translate(-875.245 -560.267)" fill="#f97821"/>
              <path id="Trazado_36718" data-name="Trazado 36718" d="M959.492,605.445a37.225,37.225,0,0,1-6.68,3.692c-11.061,4.821-29.734,6.177-45.884,5.614a26.55,26.55,0,0,1-11.429-2.72c-6.648-3.485-7.825-9.211-3.829-10.57,5.69-1.934,5.363-4.159-6.352-4.106a73.716,73.716,0,0,1-10.606-.816,44.423,44.423,0,0,0,1.73,11.94c8.77.594,11.664,2.62,8,5.18-2.127,1.488,3.5,3.282,11.085,4.655a133.56,133.56,0,0,0,21.558,2.163c12.032-.055,19,.23,7.3,3.133s-10.732,7.33-2.495,8.243c6.234.691,18.619-1.73,28.387-4.065q1.534-1.512,2.919-3.167c-3.189.261-6.664.663-9.172,1.094-7.593,1.307-9.187-1.232-1.6-3.81,4.564-1.55,9.587-2.989,15.893-4.872q.647-1.211,1.219-2.466a44.147,44.147,0,0,0,3.615-12.662A13.427,13.427,0,0,1,959.492,605.445Z" transform="translate(-874.712 -562.442)" fill="#f97821"/>
              <path id="Trazado_36719" data-name="Trazado 36719" d="M968.589,592.738a18.879,18.879,0,0,0-3.96,1.858c-4.468,2.818-4.719,6.261-.024,5.058l.047-.011c2.124-.538,3.4-.416,3.885.142q.173-2.005.168-4.059C968.7,594.722,968.66,593.725,968.589,592.738Z" transform="translate(-879.896 -562.214)" fill="#f97821"/>
              <path id="Trazado_36720" data-name="Trazado 36720" d="M905.952,640.47a44.279,44.279,0,0,0,15.236,2.611,44.821,44.821,0,0,0,7.109-.6,2.432,2.432,0,0,1,.873-1.8C933.885,636.221,921.771,640.133,905.952,640.47Z" transform="translate(-876.585 -564.961)" fill="#f97821"/>
            </g>
          </g>
        </g>
        <g id="Grupo_34021" data-name="Grupo 34021" transform="translate(901.933 548.189)" opacity="0.363">
          <path id="Trazado_36721" data-name="Trazado 36721" d="M921.873,549.154a44.226,44.226,0,0,1-16.1,85.341c-.363,0-.721-.015-1.081-.022a44.221,44.221,0,1,0,17.176-85.318Z" transform="translate(-904.697 -549.154)" fill="#99969c" opacity="0.64"/>
        </g>
      </g>
      <g id="Grupo_34750" data-name="Grupo 34750" transform="translate(3304.214 -478.228)">
        <path id="Trazado_36738" data-name="Trazado 36738" d="M32.7,0A32.7,32.7,0,1,1,0,32.7,32.7,32.7,0,0,1,32.7,0Z" transform="translate(11.658 59.105) rotate(-64.669)" fill="#00ebc0"/>
        <g id="Grupo_34026" data-name="Grupo 34026" transform="translate(22.972 11.094)">
          <path id="Trazado_36728" data-name="Trazado 36728" d="M125.527,599.556c-4.212,4.736-11.854,10.482-21.206,15.584s-18.318,8.421-24.58,9.4a32.745,32.745,0,0,1,.7-3.428c6.056-1.344,14-4.456,22.251-8.956s15.164-9.5,19.572-13.866A32.792,32.792,0,0,1,125.527,599.556Z" transform="translate(-79.653 -596.789)" fill="#07d1aa" fill-rule="evenodd"/>
          <path id="Trazado_36729" data-name="Trazado 36729" d="M135.791,607.809c-4.562,5.677-13.894,12.878-25.511,19.218s-22.722,10.291-29.966,11.055a32.312,32.312,0,0,1-.674-3.594c7.237-1.046,17.769-4.905,28.761-10.9s19.938-12.767,24.733-18.287A32.563,32.563,0,0,1,135.791,607.809Z" transform="translate(-79.639 -597.731)" fill="#07d1aa" fill-rule="evenodd"/>
          <path id="Trazado_36730" data-name="Trazado 36730" d="M140.728,614.966c-2.225,5.439-12.27,13.968-25.62,21.253S89.149,647.337,83.37,646.263a33.005,33.005,0,0,1-1.413-3.094c5.907.891,18.312-2.934,31.435-10.094s23.051-15.523,25.5-20.972A32.964,32.964,0,0,1,140.728,614.966Z" transform="translate(-79.951 -598.646)" fill="#07d1aa" fill-rule="evenodd"/>
          <path id="Trazado_36731" data-name="Trazado 36731" d="M145.548,627.805c-4.753,5.555-13.781,12.414-24.9,18.483s-21.774,9.95-29.019,10.941a32.457,32.457,0,0,1-3.236-3.287c7.23-.654,18.537-4.635,30.377-11.1s21.305-13.815,25.767-19.541A32.536,32.536,0,0,1,145.548,627.805Z" transform="translate(-80.815 -600.152)" fill="#07d1aa" fill-rule="evenodd"/>
          <path id="Trazado_36732" data-name="Trazado 36732" d="M146.557,639.358c-4.612,4.721-12.121,10.208-21.137,15.129s-17.694,8.265-24.159,9.588a32.788,32.788,0,0,1-4.891-2.638c6.617-.708,16.742-4.315,27.334-10.094s19.1-12.342,23.28-17.525A32.788,32.788,0,0,1,146.557,639.358Z" transform="translate(-81.888 -601.565)" fill="#07d1aa" fill-rule="evenodd"/>
          <path id="Trazado_36733" data-name="Trazado 36733" d="M119.606,597.249a96.119,96.119,0,0,1-17.945,12.33A96.083,96.083,0,0,1,81.581,618a32.886,32.886,0,0,1,1.752-4,103.538,103.538,0,0,0,16.7-7.4,103.592,103.592,0,0,0,15.26-10.037A32.715,32.715,0,0,1,119.606,597.249Z" transform="translate(-79.9 -596.556)" fill="#07d1aa" fill-rule="evenodd"/>
          <path id="Trazado_36734" data-name="Trazado 36734" d="M141.508,656.86a116.6,116.6,0,0,1-21.534,11.751,32.652,32.652,0,0,1-9.263-.26,99.367,99.367,0,0,0,18.711-8.032A99.354,99.354,0,0,0,146.3,648.93,32.627,32.627,0,0,1,141.508,656.86Z" transform="translate(-83.816 -603.596)" fill="#07d1aa" fill-rule="evenodd"/>
        </g>
        <g id="Grupo_34027" data-name="Grupo 34027" transform="translate(42.941 10.813)" opacity="0.74">
          <path id="Trazado_36735" data-name="Trazado 36735" d="M115.729,596.231a32.784,32.784,0,0,1-12.218,63.206c-.268,0-.534-.014-.8-.02a32.78,32.78,0,1,0,13.019-63.187Z" transform="translate(-102.71 -596.231)" fill="#07d1aa" opacity="0.79"/>
        </g>
        <g id="Grupo_34028" data-name="Grupo 34028" transform="translate(0 11.539)">
          <path id="Trazado_36736" data-name="Trazado 36736" d="M135.005,609.009c10.713-4.212,18.239-5.683,19.562-3.332,2.337,4.154-15.572,18.664-40,32.41S68.438,659.607,66.1,655.453c-1.323-2.352,3.845-8.023,13.011-15q.252.793.542,1.573c-5.612,4.685-8.569,8.383-7.614,10.082,2.024,3.6,20.809-3.135,41.959-15.035s36.655-24.463,34.631-28.059c-.955-1.7-5.649-1.092-12.563,1.271Q135.553,609.637,135.005,609.009Z" transform="translate(-54.82 -598.077)" fill="#ffb03a" fill-rule="evenodd"/>
          <path id="Trazado_36737" data-name="Trazado 36737" d="M131.381,606c17.575-7.757,30.524-11.028,32.49-7.531,2.92,5.189-19.453,23.317-49.971,40.488S56.276,665.84,53.356,660.65c-1.967-3.5,7.552-12.869,23.31-23.866q.2.893.454,1.773c-11.321,8.312-17.882,15.187-16.346,17.919,2.528,4.492,26-3.917,52.416-18.782s45.79-30.559,43.262-35.052c-1.536-2.732-10.815-.693-23.791,4.666Q132.042,606.637,131.381,606Z" transform="translate(-53.1 -597.07)" fill="#ffb03a" fill-rule="evenodd"/>
        </g>
      </g>
    </g>
  </g>
</svg>
