<svg xmlns="http://www.w3.org/2000/svg" width="500" height="300" viewBox="0 0 500 300">
  <g id="Grupo_34943" data-name="Grupo 34943" transform="translate(70 -27)">
    <g id="Grupo_34941" data-name="Grupo 34941">
      <g id="Grupo_34911" data-name="Grupo 34911">
        <path id="Trazado_42645" data-name="Trazado 42645" d="M0,0H500V300H0Z" transform="translate(-70 27)" fill="#c9ebf5"/>
      </g>
    </g>
    <g id="Grupo_34942" data-name="Grupo 34942" transform="translate(-1192.462 -0.331)">
      <g id="Grupo_33589" data-name="Grupo 33589" transform="translate(1411.922 178.996)">
        <path id="Unión_2" data-name="Unión 2" d="M1701.245,359.263h-20.954c0-7.95,11.488-7.806,11.488-7.806s.822-6.39,7.495-6.39a6.509,6.509,0,0,1,6.013,3.361c3.044-.453,6.989-.022,8.794,4.451,0,0,8.9.094,10.482,6.384Z" transform="translate(-1680.291 -345.059)" fill="#85dbf0"/>
      </g>
      <g id="Grupo_33588" data-name="Grupo 33588" transform="translate(1280.462 234.951)">
        <path id="Unión_1" data-name="Unión 1" d="M1309.29,532.792h-28.828c1.962-7.777,12.957-7.9,12.957-7.9,2.233-5.533,7.115-6.061,10.879-5.5a8.047,8.047,0,0,1,7.431-4.152c8.246,0,9.27,7.9,9.27,7.9s14.2-.179,14.2,9.651Z" transform="translate(-1280.462 -515.243)" fill="#85dbf0"/>
      </g>
      <path id="Trazado_39126" data-name="Trazado 39126" d="M1607.547,288.626s8.892,1.224,10.433-2.447c1.783-4.249-.9-8.1-3.946-8.571l1.827-1.884s7.664,4.237,4.421,10.995c-2.231,4.649-8.251,4.055-12.681,3.572Z" transform="translate(-219.543 -119.525)" fill="#e00b71"/>
      <path id="Trazado_39127" data-name="Trazado 39127" d="M1613.939,323.888a19.181,19.181,0,0,1,7.854,18.407l2.283.213s2.986-15.026-10.115-19.875Z" transform="translate(-223.833 -151.01)" fill="#bc0f65"/>
      <path id="Trazado_39128" data-name="Trazado 39128" d="M1468.114,314.818a12.512,12.512,0,0,1-11.165,3.624c-8.021-1.222-7.317-9.277-7.317-9.277l-2.854.635s.921,10.4,9.5,11.027,12.538-4.768,12.538-4.768Z" transform="translate(-111.632 -141.97)" fill="#e00b71"/>
      <path id="Trazado_39129" data-name="Trazado 39129" d="M1513.149,322.834s-8.409,9.745-3.811,19.662c0,0,29.039.91,35.223-1.57,0,0,4.281-10.726-3.124-16.682Z" transform="translate(-152.701 -151.145)" fill="#f80a73"/>
      <path id="Trazado_39130" data-name="Trazado 39130" d="M1524.709,325.118s-6.723,8.956-2.116,19.058l1.785.954s-3.813-13.348,1.734-19.885Z" transform="translate(-161.438 -152.678)" fill="#e00b71"/>
      <path id="Trazado_39131" data-name="Trazado 39131" d="M1587.7,322.834s9.086,6.795,5.7,19.372l2.307.437s2.256-12.149-5.492-19.809Z" transform="translate(-206.221 -151.145)" fill="#e00b71"/>
      <path id="Trazado_39132" data-name="Trazado 39132" d="M1583.742,336.689s5.392,6.708,3.037,15.254l-2.03-.1s2.839-5.148-1.864-14.233Z" transform="translate(-202.99 -160.445)" fill="#e00b71"/>
      <path id="Trazado_39133" data-name="Trazado 39133" d="M1541.178,353.877a6.028,6.028,0,0,0-1.258,6.766h1.258s-.921-3.834.96-5.878Z" transform="translate(-173.794 -171.981)" fill="#e00b71"/>
      <path id="Trazado_39134" data-name="Trazado 39134" d="M1569.84,240.141s8.666-2.9,9.185-5.6-1.193-4.333-2.75-3.594-7.81,5.7-7.849,7.864S1569.84,240.141,1569.84,240.141Z" transform="translate(-193.284 -89.352)" fill="#fc4c96"/>
      <path id="Trazado_39135" data-name="Trazado 39135" d="M1543.831,241.9s-8.413-5.1-7.651-7.629,3.8-2.958,3.8-2.958S1545.349,236.685,1543.831,241.9Z" transform="translate(-171.608 -89.716)" fill="#fc4c96"/>
      <path id="Trazado_39136" data-name="Trazado 39136" d="M1548.157,236.353s-8.561-7.785-6.949-10.674c2.128-3.813,14.81-4.031,17.382-.47s-6.738,8.15-7.3,11.144Z" transform="translate(-174.88 -83.916)" fill="#f80a73"/>
      <path id="Trazado_39137" data-name="Trazado 39137" d="M1551.987,234.885s-5.216-10.1-4.07-11.349,2.112-.973,2.589-.461,3.435,11.247,2.864,11.769A1.247,1.247,0,0,1,1551.987,234.885Z" transform="translate(-179.407 -83.897)" fill="#e00b71"/>
      <path id="Trazado_39138" data-name="Trazado 39138" d="M1567.051,233.321s3.908-10.678,5.6-10.677,2.146.9,2.092,1.595-5.955,10.14-6.727,10.074S1567.051,233.321,1567.051,233.321Z" transform="translate(-192.361 -83.897)" fill="#e00b71"/>
      <g id="Grupo_34793" data-name="Grupo 34793" transform="translate(1338.747 254.613)">
        <path id="Trazado_39139" data-name="Trazado 39139" d="M1468.147,615.8s-2.417,2.1-4,1.466a1.837,1.837,0,0,1-.977-2.349l3.687-1.826Z" transform="translate(-1461.308 -600.583)" fill="#a57758"/>
        <path id="Trazado_39140" data-name="Trazado 39140" d="M1470.948,621.129s-3.152,2.669-4.382,1.953a1.559,1.559,0,0,1-.566-2.065l3.583-2.339Z" transform="translate(-1463.158 -604.331)" fill="#a57758"/>
        <path id="Trazado_39141" data-name="Trazado 39141" d="M1474.992,627.567s-2.928,2.765-4.4,1.793a1.6,1.6,0,0,1-.613-1.925l2.565-2.334Z" transform="translate(-1465.879 -608.642)" fill="#a57758"/>
        <path id="Trazado_39142" data-name="Trazado 39142" d="M1481.631,633.66s-2.556,2.919-3.961,2.255a1.753,1.753,0,0,1-.966-2.37l2.619-2.015Z" transform="translate(-1470.361 -612.958)" fill="#a57758"/>
        <path id="Trazado_39143" data-name="Trazado 39143" d="M1489.468,575.186a96.985,96.985,0,0,0-13.565,3.067,109.739,109.739,0,0,0-11.617,5.088,8.178,8.178,0,0,0-5.993,2.809,2.225,2.225,0,0,0-.055,2.869c1.168,1.552,4.749-.074,4.749-.074a7.856,7.856,0,0,0,4.527,8.186s.985.715,3.316-.445,8.948-5.607,8.948-5.607a15.957,15.957,0,0,0,7.51-4.05,24.063,24.063,0,0,1,6.323-2.356l-1-8.738A2.852,2.852,0,0,0,1489.468,575.186Z" transform="translate(-1457.733 -575.044)" fill="#a57758"/>
        <path id="Trazado_39144" data-name="Trazado 39144" d="M1489.468,575.186a96.985,96.985,0,0,0-13.565,3.067,109.739,109.739,0,0,0-11.617,5.088,8.178,8.178,0,0,0-5.993,2.809,2.225,2.225,0,0,0-.055,2.869c1.168,1.552,4.749-.074,4.749-.074a7.856,7.856,0,0,0,4.527,8.186s.985.715,3.316-.445,8.948-5.607,8.948-5.607a15.957,15.957,0,0,0,7.51-4.05,24.063,24.063,0,0,1,6.323-2.356l-1-8.738A2.852,2.852,0,0,0,1489.468,575.186Z" transform="translate(-1457.733 -575.044)" fill="#a57758"/>
        <path id="Trazado_39145" data-name="Trazado 39145" d="M1543.8,575.61c1.523-.273,2.523-.424,2.523-.424a3.118,3.118,0,0,1,2.8.414l.562,2.252.78,6.821a24.068,24.068,0,0,0-6.323,2.356l-.036.035C1542.938,584.607,1541.2,579.638,1543.8,575.61Z" transform="translate(-1514.593 -575.044)" fill="#876148" opacity="0.58"/>
        <path id="Trazado_39146" data-name="Trazado 39146" d="M1466.8,615.678a6.5,6.5,0,0,1-3.709,1.264,2.066,2.066,0,0,0,.181,1.346,4.112,4.112,0,0,0,2.226-.7A3.107,3.107,0,0,0,1466.8,615.678Z" transform="translate(-1461.304 -602.318)" fill="#876148" opacity="0.81"/>
        <path id="Trazado_39147" data-name="Trazado 39147" d="M1469.733,621.977s-1.523,2.154-3.742,1.254c0,0-.373.956-.07,1.386C1465.921,624.617,1469.019,624.313,1469.733,621.977Z" transform="translate(-1463.149 -606.546)" fill="#876148" opacity="0.81"/>
        <path id="Trazado_39148" data-name="Trazado 39148" d="M1472.99,627.761a4.247,4.247,0,0,1-3.026,1.531,1.737,1.737,0,0,0,.036,1.163C1470.2,630.917,1472.668,629.882,1472.99,627.761Z" transform="translate(-1465.885 -610.428)" fill="#876148" opacity="0.81"/>
        <path id="Trazado_39149" data-name="Trazado 39149" d="M1478.819,635.12a7,7,0,0,1-2.187,1.018,1.726,1.726,0,0,0,.31,1.665A4.113,4.113,0,0,0,1478.819,635.12Z" transform="translate(-1470.355 -615.368)" fill="#876148" opacity="0.81"/>
      </g>
      <path id="Trazado_39150" data-name="Trazado 39150" d="M1492.611,575.938a1.856,1.856,0,0,0-.341-.333v0l-.052-.038-.026-.019c-.041-.029-.085-.059-.132-.088l-.035-.02c-.042-.025-.088-.051-.135-.075l-.03-.016c-.056-.028-.115-.055-.177-.08l-.045-.018c-.057-.022-.117-.044-.18-.063l-.031-.01c-.071-.021-.147-.041-.225-.057l-.057-.011c-.074-.014-.151-.027-.231-.036l-.028,0c-.088-.009-.18-.014-.274-.017h-.07c-.093,0-.189,0-.289.009h-.018c-.1.008-.214.022-.327.04l-.082.014c-.116.02-.234.044-.357.076l-.211.033h0l-.146.023-.018,0-.187.03-.022,0-.187.03-.06.01-.238.04-.047.008-.226.038-.083.014-.3.052h0l-.316.055-.1.018-.314.056-.041.007-.017,0h0a82.161,82.161,0,0,0-11.042,2.643,109.725,109.725,0,0,0-11.617,5.088,8.178,8.178,0,0,0-5.993,2.809,2.225,2.225,0,0,0-.055,2.869,1.789,1.789,0,0,0,1.288.649h0a2.229,2.229,0,0,0-.008.805c0,.02.007.041.011.062.01.046.022.092.036.139.007.024.015.048.023.072.016.047.034.094.055.14l.021.042c.014.029.028.058.044.086h0a1.66,1.66,0,0,0,.865.714,2.036,2.036,0,0,0-.182.79.93.93,0,0,0,.113.6h0a1.457,1.457,0,0,0,.634.679,1.1,1.1,0,0,0,.667.113,1.735,1.735,0,0,0,.035,1.153l0,.011h0a1.555,1.555,0,0,0,.6.689,1.773,1.773,0,0,0,1.565.053h0a1.779,1.779,0,0,0,.148,1.448l.027.042c.014.022.03.043.045.064s.055.071.086.107l0,0h0a2.218,2.218,0,0,0,.724.521c.7.329,1.674-.222,2.484-.861.12.076,1.122.632,3.3-.454,2.33-1.16,8.948-5.607,8.948-5.607a15.968,15.968,0,0,0,7.474-4.015h0l.036-.035s.177-.1.5-.266c.12-.061.26-.132.419-.209.106-.051.219-.106.341-.162s.251-.116.387-.176a23.532,23.532,0,0,1,4.679-1.543Z" transform="translate(-118.986 -320.434)" fill="#876148" opacity="0.79"/>
      <path id="Trazado_39151" data-name="Trazado 39151" d="M1607.123,488.371l2.387-1.793s-.889-1.557-3.321-.854Z" transform="translate(-218.631 -260.357)" fill="#422c9b"/>
      <path id="Trazado_39152" data-name="Trazado 39152" d="M1537.435,483.909s.617,6.772-.483,10.586c0,0-20.949,8.952-35.039.856,0,0-1.472-6.28.078-8.2s4.748,0,4.748,0a22.641,22.641,0,0,0,15.694.623C1530.792,484.921,1534.269,483.131,1537.435,483.909Z" transform="translate(-148.216 -259.138)" fill="#a57758"/>
      <path id="Trazado_39153" data-name="Trazado 39153" d="M1502.219,493.99s2.448-5.528,34.7-3.938l-1.349-7.427s-13.726,5.831-18.025,4.883-14.207-2.149-14.207-2.149S1497.81,489.872,1502.219,493.99Z" transform="translate(-147.7 -258.398)" fill="#876148" opacity="0.58"/>
      <path id="Trazado_39154" data-name="Trazado 39154" d="M1481.625,523.055a11.955,11.955,0,0,1,5.5,1.694L1516.55,510.4c-4.281-8.329-13.839-4.126-13.839-4.126s-4.532,2.958-18.976,3.347-22.868-2.65-22.868-2.65c-7.5-1.758-12.117,4.6-12.117,4.6l24.364,16.243C1477.785,523.14,1480.024,523.039,1481.625,523.055Z" transform="translate(-112.957 -273.561)" fill="#f80a73"/>
      <path id="Trazado_39155" data-name="Trazado 39155" d="M1621.946,507.472l7.2-4.065s13.253-.064,16.308,4.882c3.918,6.344-1.521,13.062-1.521,13.062Z" transform="translate(-229.207 -272.347)" fill="#f80a73"/>
      <path id="Trazado_39156" data-name="Trazado 39156" d="M1590.868,525.158c.415.1,6.311,6.217,6.311,6.217s-.384,8.417-17.67,13.711-24.653,6.331-24.653,6.331-7.3-7.1-5.365-13.36l31-12.939Z" transform="translate(-180.356 -286.92)" fill="#f80a73"/>
      <path id="Trazado_39157" data-name="Trazado 39157" d="M1583.263,521.664l-33.722,14.075s-1.113,3,.931,7.153c0,0,.072-.169.219-.458,1.144,4.409,2.974,9.219,2.974,9.219l17.417-6.4c-3.659-2.839-12.417-4.292-12.874-7.679-.224-1.658,2.179-2.885,3.552-3.444l.92-.337h0C1568.9,531.52,1581.886,526.772,1583.263,521.664Z" transform="translate(-180.405 -284.602)" fill="#e00b71"/>
      <path id="Trazado_39158" data-name="Trazado 39158" d="M1549.1,569.8a9.469,9.469,0,0,1,.107-2.343l4.343,1.481v1.3s11.134,3.143,15.96,6.294l-3.373,1.307Z" transform="translate(-180.296 -315.336)" fill="#bcb5b1" opacity="0.2" style="mix-blend-mode: multiply;isolation: isolate"/>
      <path id="Trazado_39159" data-name="Trazado 39159" d="M1499.8,510.468s19.2,5.192,37.917-2.054l-1.122-1.042s-17.079,6.194-36.085,1.865Z" transform="translate(-147.222 -275.009)" fill="#e00b71"/>
      <path id="Trazado_39160" data-name="Trazado 39160" d="M1433.849,516.942l-7.2-4.065s-13.253-.064-16.308,4.882c-3.918,6.344,1.521,13.062,1.521,13.062Z" transform="translate(-86.224 -278.704)" fill="#f80a73"/>
      <path id="Trazado_39161" data-name="Trazado 39161" d="M1539.5,422.645s2.98-12.989-5.847-29.071c0,0-8.043,3.727-19.352.077,0,0-13.278,4.7-8.434,33.042,0,0,12.659,1.868,18.579.571S1536.233,422.386,1539.5,422.645Z" transform="translate(-150.578 -198.626)" fill="#fccc05"/>
      <path id="Trazado_39162" data-name="Trazado 39162" d="M1536.7,413.214c-6.365,18.726-23.293,18.121-31.849,16.472a70.741,70.741,0,0,0,1.045,10.189s12.659,1.868,18.579.571,11.791-4.878,15.053-4.619C1539.533,435.828,1541.746,426.178,1536.7,413.214Z" transform="translate(-150.615 -211.809)" fill="#dbb100" opacity="0.5"/>
      <path id="Trazado_39163" data-name="Trazado 39163" d="M1509.106,485.712l2.6-1.038a40.581,40.581,0,0,0,15.606.778c7.9-1.349,10.652-4.722,16.516-3.788l.519,2.2s-1.661-2.2-11.75,1.793C1523.271,489.353,1512.116,487.217,1509.106,485.712Z" transform="translate(-153.468 -257.645)" fill="#6d31fd"/>
      <path id="Trazado_39164" data-name="Trazado 39164" d="M1531.373,371.928s.775-3.25,2.817-3.263,5.086,2.07,8.926,1.631,5.864-1.684,7.213-1.632a4.913,4.913,0,0,1,4.048,3.023c.519,1.752-4,5.166-4,5.166S1530.113,381.938,1531.373,371.928Z" transform="translate(-168.376 -181.906)" fill="#006070"/>
      <path id="Trazado_39165" data-name="Trazado 39165" d="M1523.208,374.43s15.46,3.666,28.673.008c0,0-4.088,7.958-14.84,7.578C1529.223,381.739,1523.208,374.43,1523.208,374.43Z" transform="translate(-162.934 -185.777)" fill="#a57758"/>
      <path id="Trazado_39166" data-name="Trazado 39166" d="M1560.5,372.267l-3.49-.9-6.334.9V360.116h9.824Z" transform="translate(-181.368 -176.169)" fill="#a57758"/>
      <path id="Trazado_39167" data-name="Trazado 39167" d="M1535.46,387.1a30.725,30.725,0,0,0,19.369.366v1.969s-6.333,4-20.073-.128Z" transform="translate(-170.685 -194.278)" fill="#6d31fd"/>
      <path id="Trazado_39168" data-name="Trazado 39168" d="M1591.059,369.386s1.771-1.6,9.775,0c0,0,.654,17.388,3.217,24.092a28.853,28.853,0,0,1,1.972,13.621s2.861,2.664.652,7.287l-11.517,1.367s-9.811-21.414-6.935-38.892Z" transform="translate(-206.218 -181.914)" fill="#2bbee0"/>
      <path id="Trazado_39169" data-name="Trazado 39169" d="M1487.676,379.583s1.093.078,1.014,3.658-1.17,21.2-5.373,27.14-6.695,8.823-6.695,8.823-7.967-1.667-11.053-.659c0,0-1.868-6.114,3.114-9.227a42.212,42.212,0,0,0,1.611-11.108c.018-3.879,1.83-6.566,2.514-10.376,1.635-9.108.215-12.238.215-12.238s10.8-2.12,15.063-.585S1487.676,379.583,1487.676,379.583Z" transform="translate(-124.016 -185.793)" fill="#2bbee0"/>
      <path id="Trazado_39170" data-name="Trazado 39170" d="M1510.778,390.981s.673.649.621,3.762-.623,16.762-4.255,24.494a35.443,35.443,0,0,1-8.407,11.634s-.852-.105-.53-.68,5.5-6.008,7.484-9.916,3.529-10.846,3.892-15,1.081-10.817.593-13.374C1510.175,391.9,1510.021,390.856,1510.778,390.981Z" transform="translate(-146.104 -196.879)" fill="#c9ebf5"/>
      <path id="Trazado_39171" data-name="Trazado 39171" d="M1509.744,333.953s-1.133,2.7-.378,4.588c0,0,0,.566,1.738.227,0,0-1.286.3-.454-4.23Z" transform="translate(-153.468 -158.608)" fill="#dbb100"/>
      <circle id="Elipse_1321" data-name="Elipse 1321" cx="3.146" cy="3.146" r="3.146" transform="translate(1385.59 169.953)" fill="#a57758"/>
      <circle id="Elipse_1322" data-name="Elipse 1322" cx="3.146" cy="3.146" r="3.146" transform="translate(1355.07 170.18)" fill="#a57758"/>
      <path id="Trazado_39172" data-name="Trazado 39172" d="M1560.5,368.462v-2.493h-9.824v3.054A11.473,11.473,0,0,0,1560.5,368.462Z" transform="translate(-181.369 -180.098)" fill="#876148"/>
      <g id="Grupo_34794" data-name="Grupo 34794" transform="translate(1370.585 146.226)">
        <path id="Trazado_39173" data-name="Trazado 39173" d="M1575.293,248.078s4.9-5.838,10.042-.311a7.374,7.374,0,0,1,.941,1.4l-1.771,1.186s-1.926-3.589-4.226-3.49a6.765,6.765,0,0,0-4.108,2.1Z" transform="translate(-1568.478 -245.388)" fill="#bc0f65"/>
        <path id="Trazado_39174" data-name="Trazado 39174" d="M1555.191,254.662s-2-2.267,1.151-4.1,6.649-.49,6.918,2.158S1555.191,254.662,1555.191,254.662Z" transform="translate(-1554.567 -248.293)" fill="#6d31fd"/>
        <path id="Trazado_39175" data-name="Trazado 39175" d="M1556.343,250.562c-2.119,1.234-1.907,2.663-1.542,3.467a3.528,3.528,0,0,1,1.622-1.662c2.705-1.576,5.669-.8,6.621,1.124a1.065,1.065,0,0,0,.217-.771C1562.993,250.071,1559.491,248.727,1556.343,250.562Z" transform="translate(-1554.567 -248.293)" fill="#a176ff" opacity="0.5"/>
      </g>
      <circle id="Elipse_1323" data-name="Elipse 1323" cx="15.224" cy="15.224" r="15.224" transform="translate(1358.394 157.216)" fill="#a57758"/>
      <path id="Trazado_39176" data-name="Trazado 39176" d="M1517.065,301.166l1.888-1.516s3.494-.3,5.459-1.7c0,0,9.453,1.1,14.085-.306,0,0,5.3,3.176,8.2,3.519l-.6-7.346-23.229-2.115-6.539,5.167Z" transform="translate(-158.319 -130.251)" fill="#876148" opacity="0.58"/>
      <path id="Trazado_39177" data-name="Trazado 39177" d="M1510.289,280.264a13.525,13.525,0,0,0,.6-4.23s4.02-.512,5.933-2.778c0,0,7.425,1.839,13.494-.906a12.5,12.5,0,0,0,7.8,1.964s.193,3.32,2.589,4.984c0,0,2.942-.553,3.072-6.595s-5.308-9.969-7.473-10.624a11.782,11.782,0,0,0-13.9-2.518s-9.282-.906-12.118,6.243C1510.289,265.8,1502.355,274.88,1510.289,280.264Z" transform="translate(-151.895 -107.824)" fill="#f80a73"/>
      <path id="Trazado_39178" data-name="Trazado 39178" d="M1513.633,281.88s.325,5.211,2.147,7.836a4.257,4.257,0,0,1,.566.963c0,.557-1.821.906-2.166.512-.584-.668-2.9-4.591-2.45-8.367,0,0,.148-1.7,1.095-1.926C1513.7,280.687,1513.633,281.88,1513.633,281.88Z" transform="translate(-155.19 -122.98)" fill="#e00b71"/>
      <path id="Trazado_39179" data-name="Trazado 39179" d="M1540.879,260.18a14.464,14.464,0,0,0-4.286,8.423c-.673,5.092-.179,5.788.717,5.721,1.007-.076,1.011-.685,1.486-3.562,1.082-6.571,2.823-7.513,5.491-11.3,0,0-.112-.255-1.426-.189A3.46,3.46,0,0,0,1540.879,260.18Z" transform="translate(-171.708 -108.477)" fill="#e00b71"/>
      <path id="Trazado_39180" data-name="Trazado 39180" d="M1573.523,259.2s-2.782,2.082-3.487,8.547c-.667,6.119.293,6.139.856,6.168,1.057.055,1.682-.223,1.737-1.208s-.528-8.333,2.92-12.461a.771.771,0,0,0-.151-1.045A1.392,1.392,0,0,0,1573.523,259.2Z" transform="translate(-194.213 -108.184)" fill="#e00b71"/>
      <path id="Trazado_39181" data-name="Trazado 39181" d="M1597.926,269.41a17.559,17.559,0,0,1,.147,12.1,2.17,2.17,0,0,0,1.65,1.907s3.3-4.655.816-12.579C1599.583,267.793,1597.926,269.41,1597.926,269.41Z" transform="translate(-213.085 -114.999)" fill="#e00b71"/>
      <path id="Trazado_39182" data-name="Trazado 39182" d="M1556.633,329.605l-.46-.6a3.951,3.951,0,0,1,4.718,0l-.469.594A3.138,3.138,0,0,0,1556.633,329.605Z" transform="translate(-185.06 -154.743)" fill="#fccc05"/>
      <path id="Trazado_39183" data-name="Trazado 39183" d="M1562.906,346.946a2.667,2.667,0,0,0,1.131-1.288c.425-.95,1.33-3.28,4-3.605a3.8,3.8,0,0,1,4.347,4.3,3.654,3.654,0,0,1-4.225,3.419c-1.716-.289-3.381-2.562-4.017-2.518C1563.571,347.293,1563.179,347.328,1562.906,346.946Z" transform="translate(-189.579 -164.021)" fill="#c7e8f9"/>
      <path id="Trazado_39184" data-name="Trazado 39184" d="M1561.264,353.658s.514-.754.925-.6.471,1.081-.36,1.342c0,0,.96.175.857.758s-1.38-.249-1.38-.249.806.249.917.069-.7-.548-.7-.548.737-.437.643-.746S1561.264,353.658,1561.264,353.658Z" transform="translate(-188.477 -171.418)" fill="#6d4d37"/>
      <path id="Trazado_39185" data-name="Trazado 39185" d="M1513.247,326.389a.97.97,0,0,1,1.232.778c.2,1.043-.571,1.258-.927,1.214a.437.437,0,0,1-.139-.781c.311-.164.56.177.56.177A1.074,1.074,0,0,0,1513.247,326.389Z" transform="translate(-156.232 -153.511)" fill="#876148"/>
      <path id="Trazado_39186" data-name="Trazado 39186" d="M1611.357,326.389a.969.969,0,0,0-1.232.778c-.2,1.043.571,1.258.927,1.214a.437.437,0,0,0,.139-.781c-.311-.164-.56.177-.56.177A1.074,1.074,0,0,1,1611.357,326.389Z" transform="translate(-221.251 -153.511)" fill="#876148"/>
      <rect id="Rectángulo_5686" data-name="Rectángulo 5686" width="0.757" height="3.141" transform="translate(1358.136 171.598) rotate(-67.689)" fill="#fccc05"/>
      <rect id="Rectángulo_5687" data-name="Rectángulo 5687" width="3.141" height="0.757" transform="translate(1385.81 172.09) rotate(-22.307)" fill="#fccc05"/>
      <rect id="Rectángulo_5688" data-name="Rectángulo 5688" width="11.221" height="5.475" transform="translate(1360.448 171.689)" fill="#1e1e21"/>
      <path id="Trazado_39187" data-name="Trazado 39187" d="M1532.736,322.834h4.795l-1.964,2.5h2.115l-1.813,2.971h-4.38l1.964-3.339h-1.964Z" transform="translate(-168.491 -151.145)" fill="#83838e"/>
      <rect id="Rectángulo_5689" data-name="Rectángulo 5689" width="11.221" height="5.475" transform="translate(1375.142 171.689)" fill="#1e1e21"/>
      <path id="Trazado_39188" data-name="Trazado 39188" d="M1578.217,322.834h4.795l-1.964,2.5h2.115l-1.812,2.971h-4.38l1.964-3.339h-1.964Z" transform="translate(-199.019 -151.145)" fill="#83838e"/>
      <path id="Trazado_39189" data-name="Trazado 39189" d="M1512.348,335.2c.184.909.685,3.942-.979,4.726a1.2,1.2,0,0,1-1.473-.755s1.8-.53,1.51-3.879c0,0-.066-.313.331-.388A.5.5,0,0,1,1512.348,335.2Z" transform="translate(-153.998 -159.235)" fill="#fccc05"/>
      <path id="Trazado_39190" data-name="Trazado 39190" d="M1615.778,323.813a.557.557,0,0,1,.3-.237c.411-.138,1.5-.479,1.694-.291a1.193,1.193,0,0,1,.156,1.249c-.169.262-1.24.2-1.745.149a.547.547,0,0,1-.5-.635A.737.737,0,0,1,1615.778,323.813Z" transform="translate(-224.997 -151.41)" fill="#fccc05"/>
      <path id="Trazado_39191" data-name="Trazado 39191" d="M1582.885,344.955a4.333,4.333,0,0,1,1.567,3.417l.944-.208s.08-2.587-1.82-3.531Z" transform="translate(-202.99 -165.777)" fill="#fff"/>
      <path id="Trazado_39192" data-name="Trazado 39192" d="M1554.66,508.451a.55.55,0,0,1,.965.262c.365.992-.451,1.09-.8,1.047a.435.435,0,0,1-.138-.777c.309-.163.557.176.557.176S1555.551,508.647,1554.66,508.451Z" transform="translate(-183.934 -275.595)" fill="#876148"/>
      <path id="Trazado_39193" data-name="Trazado 39193" d="M1531.736,368.866s-3.572-1.306-4.806-.248,1.435,2.244,1.435,2.244a1.186,1.186,0,0,1,.74,1.506,17.2,17.2,0,0,1-2.133,4.154,1.389,1.389,0,0,1-1.382.158,6.163,6.163,0,0,1-3.069-2.989,2.744,2.744,0,0,1,.126-1.949c.435-1.367,2.183-3.708,3.193-4.141,1.537-.66,3.481-.26,5.866.586Z" transform="translate(-162.401 -180.971)" fill="#0e7992"/>
      <path id="Trazado_39194" data-name="Trazado 39194" d="M1580.553,368.866s3.573-1.306,4.806-.248-1.435,2.244-1.435,2.244a1.186,1.186,0,0,0-.74,1.506,17.208,17.208,0,0,0,2.133,4.154,1.39,1.39,0,0,0,1.382.158,6.165,6.165,0,0,0,3.07-2.989,2.746,2.746,0,0,0-.127-1.949c-.435-1.367-2.183-3.708-3.193-4.141-1.537-.66-3.48-.26-5.866.586Z" transform="translate(-201.424 -180.971)" fill="#0e7992"/>
      <path id="Trazado_39195" data-name="Trazado 39195" d="M1479.072,475.782s4.382-.341,6.126-6.646a1.367,1.367,0,0,1,1.736.147s-1.245,7.031-7.239,7.914A1.008,1.008,0,0,1,1479.072,475.782Z" transform="translate(-133.237 -249.182)" fill="#0e7992"/>
      <path id="Trazado_39196" data-name="Trazado 39196" d="M1620.045,474.6s-4.38.367-7.115-5.575a1.367,1.367,0,0,0-1.689.424s2.36,6.74,8.417,6.647A1.008,1.008,0,0,0,1620.045,474.6Z" transform="translate(-222.021 -249.182)" fill="#0e7992"/>
      <g id="Grupo_34795" data-name="Grupo 34795" transform="translate(1393.237 143.265)">
        <path id="Trazado_39197" data-name="Trazado 39197" d="M1724.722,248.119l.727-1.4a19.752,19.752,0,0,0,1.79-5.475c.234-2.361.727-4.67,2.465-4.852s2.491,3.632,2.18,5.553-4.1,7.856-4.1,7.856Z" transform="translate(-1691.429 -236.385)" fill="#a57758"/>
        <path id="Trazado_39198" data-name="Trazado 39198" d="M1737.556,246.039a4.98,4.98,0,0,0-1.211.75c-1.116.779-2.74,5.527-3.1,7.421l.813.674,3.417-6.772.192-.361A8.926,8.926,0,0,0,1737.556,246.039Z" transform="translate(-1697.15 -242.865)" fill="#876148"/>
        <path id="Trazado_39199" data-name="Trazado 39199" d="M1734.022,257.5s1.561-8.459,4.338-8.718.415,7.94.415,7.94l-3.5,2.958Z" transform="translate(-1697.671 -244.702)" fill="#a57758"/>
        <path id="Trazado_39200" data-name="Trazado 39200" d="M1738.359,248.782c-2.776.259-4.338,8.718-4.338,8.718l1.25,2.18,3.5-2.958S1741.135,248.522,1738.359,248.782Z" transform="translate(-1697.671 -244.702)" fill="#a57758"/>
        <path id="Trazado_39201" data-name="Trazado 39201" d="M1709.657,256.851l.509-3.852s-2.291.92-3.017-.481.771-3.723,3.862-3.742,3.143,1.94,3.117,2.634-.363,4.092-.363,4.092Z" transform="translate(-1679.513 -244.702)" fill="#a57758"/>
        <path id="Trazado_39202" data-name="Trazado 39202" d="M1694.712,281.863a31.362,31.362,0,0,1-.415-6.63c.26-2.7,2.076-4.152,5.138-5.4s5.553-2.024,5.553-2.024,5.034,3.724,5.708,7.025a34.2,34.2,0,0,1-7.006,4.443l-1.223,3.321S1697.048,283.563,1694.712,281.863Z" transform="translate(-1670.967 -257.48)" fill="#a57758"/>
        <path id="Trazado_39203" data-name="Trazado 39203" d="M1690.087,305.34s-.1-3.352,1.652-3.818c3.518-.935,8.462.6,9.092,1.854a7.842,7.842,0,0,1,.35,3.635Z" transform="translate(-1668.181 -279.912)" fill="#0e7992"/>
        <path id="Trazado_39204" data-name="Trazado 39204" d="M1624.841,328.032s-4.487,14.18,2.73,22.614c0,0,30.379,1.53,30.379-38.4,0,0,.331-2.438-1.07-3.294-1.316-.8-3.873-2.666-10.781-1.537a3.668,3.668,0,0,0-2.938,3.1C1642.926,313.1,1642.323,328.249,1624.841,328.032Z" transform="translate(-1623.462 -283.825)" fill="#4295a8"/>
        <path id="Trazado_39205" data-name="Trazado 39205" d="M1715.467,273.488s-.142-3.236,2.587-4.249a19.376,19.376,0,0,1,4.07-1.122s1.549-5.824,4.714-4.865l-4.256,7.733Z" transform="translate(-1685.216 -254.347)" fill="#876148"/>
        <path id="Trazado_39206" data-name="Trazado 39206" d="M1717.565,276.8l-2.41-1.235s-.291-3.633,2.41-5.164a8.979,8.979,0,0,1,4.673-1.375s1.868-5.6,4-5.553,1.116,3.373.856,4.152-1.167,2.595-1.375,3.425-5.553,4.178-6.591,4.67A2.924,2.924,0,0,0,1717.565,276.8Z" transform="translate(-1685.001 -254.565)" fill="#a57758"/>
        <path id="Trazado_39207" data-name="Trazado 39207" d="M1691.365,271.857s-2.983-1.577-2.964-4.32.96-3.542,1.482-3.97,3.515-2.88,4.656-1.557-.514,3.464-1.915,3.756a4.734,4.734,0,0,1,1.882,1.343C1695.1,267.93,1691.365,271.857,1691.365,271.857Z" transform="translate(-1667.05 -253.324)" fill="#a57758"/>
        <path id="Trazado_39208" data-name="Trazado 39208" d="M1717.863,271.357s3.285-.156,5.313,1.557C1723.176,272.913,1719.682,271.875,1717.863,271.357Z" transform="translate(-1686.825 -259.856)" fill="#876148"/>
        <path id="Trazado_39209" data-name="Trazado 39209" d="M1705.007,277.861s-.519,2.906-2.906,3.581C1702.1,281.442,1705.293,281.623,1705.007,277.861Z" transform="translate(-1676.245 -264.224)" fill="#876148"/>
      </g>
      <g id="Grupo_34796" data-name="Grupo 34796" transform="translate(1307.829 145.597)">
        <path id="Trazado_39210" data-name="Trazado 39210" d="M1377.115,255.21l-.727-1.4a19.75,19.75,0,0,1-1.79-5.475c-.234-2.361-.727-4.67-2.465-4.852s-2.491,3.633-2.18,5.553,4.1,7.856,4.1,7.856Z" transform="translate(-1367.851 -243.476)" fill="#a57758"/>
        <path id="Trazado_39211" data-name="Trazado 39211" d="M1370,253.13a4.981,4.981,0,0,1,1.211.75c1.116.778,2.741,5.527,3.1,7.421l-.813.675-3.416-6.772-.193-.361A9,9,0,0,1,1370,253.13Z" transform="translate(-1367.853 -249.956)" fill="#876148"/>
        <path id="Trazado_39212" data-name="Trazado 39212" d="M1370.962,264.591s-1.561-8.458-4.337-8.718-.415,7.94-.415,7.94l3.5,2.958Z" transform="translate(-1364.755 -251.793)" fill="#a57758"/>
        <path id="Trazado_39213" data-name="Trazado 39213" d="M1366.625,255.873c2.776.26,4.337,8.718,4.337,8.718l-1.249,2.18-3.5-2.958S1363.848,255.613,1366.625,255.873Z" transform="translate(-1364.755 -251.793)" fill="#a57758"/>
        <path id="Trazado_39214" data-name="Trazado 39214" d="M1392.316,263.942l-.509-3.852s2.29.92,3.017-.481-.771-3.722-3.862-3.742-3.143,1.94-3.118,2.634.363,4.093.363,4.093Z" transform="translate(-1379.903 -251.793)" fill="#a57758"/>
        <path id="Trazado_39215" data-name="Trazado 39215" d="M1388.287,288.955a31.353,31.353,0,0,0,.415-6.63c-.26-2.7-2.076-4.152-5.137-5.4s-5.553-2.024-5.553-2.024-5.033,3.724-5.708,7.025a34.212,34.212,0,0,0,7.006,4.444l1.223,3.321S1385.952,290.654,1388.287,288.955Z" transform="translate(-1369.475 -264.571)" fill="#a57758"/>
        <path id="Trazado_39216" data-name="Trazado 39216" d="M1403.713,312.431s.1-3.352-1.652-3.818c-3.518-.935-8.462.6-9.091,1.854a7.838,7.838,0,0,0-.35,3.635Z" transform="translate(-1383.062 -287.004)" fill="#0e7992"/>
        <path id="Trazado_39217" data-name="Trazado 39217" d="M1421.284,335.123s4.487,14.18-2.729,22.614c0,0-30.379,1.53-30.379-38.4,0,0-.331-2.438,1.07-3.294,1.316-.8,3.873-2.666,10.781-1.537a3.669,3.669,0,0,1,2.939,3.1C1403.2,320.191,1403.8,335.34,1421.284,335.123Z" transform="translate(-1380.105 -290.916)" fill="#4295a8"/>
        <path id="Trazado_39218" data-name="Trazado 39218" d="M1377.914,280.58s.142-3.236-2.587-4.249a19.4,19.4,0,0,0-4.071-1.122s-1.548-5.824-4.714-4.864l4.255,7.732Z" transform="translate(-1365.608 -261.439)" fill="#876148"/>
        <path id="Trazado_39219" data-name="Trazado 39219" d="M1373.692,283.889l2.41-1.235s.291-3.632-2.41-5.163a8.982,8.982,0,0,0-4.673-1.375s-1.868-5.6-4-5.553-1.116,3.373-.856,4.152,1.168,2.594,1.375,3.425,5.552,4.177,6.591,4.67A2.922,2.922,0,0,1,1373.692,283.889Z" transform="translate(-1363.699 -261.657)" fill="#a57758"/>
        <path id="Trazado_39220" data-name="Trazado 39220" d="M1411.925,278.948s2.984-1.576,2.965-4.32-.96-3.542-1.482-3.97-3.515-2.88-4.656-1.557.514,3.464,1.915,3.756a4.74,4.74,0,0,0-1.882,1.343C1408.188,275.021,1411.925,278.948,1411.925,278.948Z" transform="translate(-1393.683 -260.415)" fill="#a57758"/>
        <path id="Trazado_39221" data-name="Trazado 39221" d="M1387.888,278.448s-3.285-.156-5.313,1.557C1382.575,280.005,1386.07,278.967,1387.888,278.448Z" transform="translate(-1376.369 -266.947)" fill="#876148"/>
        <path id="Trazado_39222" data-name="Trazado 39222" d="M1405.621,284.953s.519,2.906,2.906,3.581C1408.527,288.534,1405.336,288.715,1405.621,284.953Z" transform="translate(-1391.825 -271.316)" fill="#876148"/>
      </g>
      <g id="Grupo_34797" data-name="Grupo 34797" transform="translate(1364.828 255.3)">
        <path id="Trazado_39223" data-name="Trazado 39223" d="M1622.134,629s2.1,2.413,3.754,2.011a1.837,1.837,0,0,0,1.3-2.189l-3.4-2.324Z" transform="translate(-1594.162 -610.266)" fill="#a57758"/>
        <path id="Trazado_39224" data-name="Trazado 39224" d="M1618.6,633.891s2.748,3.083,4.066,2.547a1.558,1.558,0,0,0,.849-1.966l-3.221-2.817Z" transform="translate(-1591.79 -613.729)" fill="#a57758"/>
        <path id="Trazado_39225" data-name="Trazado 39225" d="M1613.708,640.012s2.513,3.147,4.109,2.391a1.6,1.6,0,0,0,.875-1.82l-2.214-2.67Z" transform="translate(-1588.506 -617.929)" fill="#a57758"/>
        <path id="Trazado_39226" data-name="Trazado 39226" d="M1606.461,645.088s2.123,3.248,3.606,2.787a1.754,1.754,0,0,0,1.288-2.212l-2.312-2.361Z" transform="translate(-1583.642 -621.547)" fill="#a57758"/>
        <path id="Trazado_39227" data-name="Trazado 39227" d="M1542.487,577.457a97.016,97.016,0,0,1,13,4.933,109.792,109.792,0,0,1,10.791,6.662,8.176,8.176,0,0,1,5.541,3.619,2.224,2.224,0,0,1-.347,2.849c-1.374,1.374-4.692-.737-4.692-.737a7.856,7.856,0,0,1-5.627,7.473s-1.076.57-3.221-.9-8.076-6.8-8.076-6.8a15.955,15.955,0,0,1-6.87-5.06,24.052,24.052,0,0,0-5.932-3.217l2.212-8.512A2.853,2.853,0,0,1,1542.487,577.457Z" transform="translate(-1537.058 -577.135)" fill="#a57758"/>
        <path id="Trazado_39228" data-name="Trazado 39228" d="M1542.487,577.457a97.016,97.016,0,0,1,13,4.933,109.792,109.792,0,0,1,10.791,6.662,8.176,8.176,0,0,1,5.541,3.619,2.224,2.224,0,0,1-.347,2.849c-1.374,1.374-4.692-.737-4.692-.737a7.856,7.856,0,0,1-5.627,7.473s-1.076.57-3.221-.9-8.076-6.8-8.076-6.8a15.955,15.955,0,0,1-6.87-5.06,24.052,24.052,0,0,0-5.932-3.217l2.212-8.512A2.853,2.853,0,0,1,1542.487,577.457Z" transform="translate(-1537.058 -577.135)" fill="#a57758"/>
        <path id="Trazado_39229" data-name="Trazado 39229" d="M1544.926,578.229c-1.47-.483-2.439-.773-2.439-.773a3.119,3.119,0,0,0-2.832.018l-.871,2.151-1.727,6.645a24.052,24.052,0,0,1,5.932,3.217l.031.04C1544.526,587.259,1546.946,582.582,1544.926,578.229Z" transform="translate(-1537.058 -577.134)" fill="#876148" opacity="0.3"/>
        <path id="Trazado_39230" data-name="Trazado 39230" d="M1626.959,629.078a6.5,6.5,0,0,0,3.5,1.771,2.067,2.067,0,0,1-.367,1.308,4.109,4.109,0,0,1-2.106-1A3.108,3.108,0,0,1,1626.959,629.078Z" transform="translate(-1597.401 -611.999)" fill="#876148" opacity="0.58"/>
        <path id="Trazado_39231" data-name="Trazado 39231" d="M1622.814,634.854s1.206,2.346,3.53,1.765c0,0,.235,1-.125,1.382C1626.219,638,1623.194,637.267,1622.814,634.854Z" transform="translate(-1594.618 -615.876)" fill="#876148" opacity="0.58"/>
        <path id="Trazado_39232" data-name="Trazado 39232" d="M1620.436,640.36a4.249,4.249,0,0,0,2.783,1.939,1.737,1.737,0,0,1-.2,1.147C1622.759,643.876,1620.458,642.505,1620.436,640.36Z" transform="translate(-1593.022 -619.572)" fill="#876148" opacity="0.58"/>
        <path id="Trazado_39233" data-name="Trazado 39233" d="M1615.315,647.068a7,7,0,0,0,2.024,1.314,1.726,1.726,0,0,1-.54,1.605A4.112,4.112,0,0,1,1615.315,647.068Z" transform="translate(-1589.585 -624.074)" fill="#876148" opacity="0.58"/>
      </g>
      <path id="Trazado_39234" data-name="Trazado 39234" d="M1417.793,534.628c-.415.1-6.311,6.217-6.311,6.217s.384,8.417,17.67,13.711,24.653,6.331,24.653,6.331,7.3-7.1,5.364-13.36l-31-12.939Z" transform="translate(-87.942 -293.276)" fill="#f80a73"/>
      <path id="Trazado_39235" data-name="Trazado 39235" d="M1453.959,531.134l33.722,14.074s1.113,3-.931,7.154a20.2,20.2,0,0,0-12.679-10.614C1464.857,539.238,1454.815,534.1,1453.959,531.134Z" transform="translate(-116.453 -290.958)" fill="#e00b71"/>
      <path id="Trazado_39236" data-name="Trazado 39236" d="M1513.159,526.66s4.9,2.647,7.317,10.042C1520.476,536.7,1519.931,528.373,1513.159,526.66Z" transform="translate(-156.189 -287.955)" fill="#e00b71"/>
      <path id="Trazado_39237" data-name="Trazado 39237" d="M1572.87,526.66s-4.9,2.647-7.317,10.042C1565.553,536.7,1566.1,528.373,1572.87,526.66Z" transform="translate(-191.356 -287.955)" fill="#e00b71"/>
      <g id="Grupo_34798" data-name="Grupo 34798" transform="translate(1339.539 230.115)">
        <path id="Trazado_39238" data-name="Trazado 39238" d="M1460.2,504.606a4.029,4.029,0,0,1,1.253-3.713c1.006-.825,7.28-.1,10.223.941,2.554.907,2.983,1.244,2.8,2.231-.16.872-.928,3.227-2.594,3.046-1.3-.142-2.335-1.645-5.138-1.567S1461.814,506.3,1460.2,504.606Z" transform="translate(-1460.143 -500.535)" fill="#006070"/>
        <path id="Trazado_39239" data-name="Trazado 39239" d="M1464.884,500.545a9.248,9.248,0,0,0-2.012,4.716,3.91,3.91,0,0,0,1.59.456,16.943,16.943,0,0,1,2.284-5.133A17.464,17.464,0,0,0,1464.884,500.545Z" transform="translate(-1461.975 -500.535)" fill="#0e7992"/>
        <path id="Trazado_39240" data-name="Trazado 39240" d="M1475.319,501.076a9.6,9.6,0,0,0-1.753,4.973c.556-.042,1.146-.1,1.77-.125.208-1.243.709-3.537,1.7-4.605C1476.465,501.224,1475.886,501.141,1475.319,501.076Z" transform="translate(-1469.153 -500.898)" fill="#0e7992"/>
        <path id="Trazado_39241" data-name="Trazado 39241" d="M1486.148,502.845a9.719,9.719,0,0,0-1.586,4.357,6.435,6.435,0,0,1,1.7.589,12.6,12.6,0,0,1,1.441-4.53C1487.239,503.114,1486.713,502.974,1486.148,502.845Z" transform="translate(-1476.533 -502.085)" fill="#0e7992"/>
        <path id="Trazado_39242" data-name="Trazado 39242" d="M1495.77,505.874a9.4,9.4,0,0,0-1.554,4.685,2.274,2.274,0,0,0,.542.135,1.624,1.624,0,0,0,1.251-.4,13.21,13.21,0,0,1,1.113-3.657A4.034,4.034,0,0,0,1495.77,505.874Z" transform="translate(-1483.014 -504.118)" fill="#0e7992"/>
      </g>
      <g id="Grupo_34799" data-name="Grupo 34799" transform="translate(1387.909 228.803)">
        <path id="Trazado_39243" data-name="Trazado 39243" d="M1621.57,500.614a4.028,4.028,0,0,0-1.253-3.713c-1.006-.825-7.28-.1-10.223.94-2.554.907-2.983,1.244-2.8,2.232.16.872.929,3.227,2.595,3.046,1.305-.142,2.335-1.645,5.137-1.567S1619.96,502.311,1621.57,500.614Z" transform="translate(-1607.255 -496.543)" fill="#006070"/>
        <path id="Trazado_39244" data-name="Trazado 39244" d="M1638.328,496.554a9.249,9.249,0,0,1,2.012,4.716,3.9,3.9,0,0,1-1.59.456c-.407-1.356-1.288-3.992-2.284-5.133A17.487,17.487,0,0,1,1638.328,496.554Z" transform="translate(-1626.863 -496.544)" fill="#0e7992"/>
        <path id="Trazado_39245" data-name="Trazado 39245" d="M1628.722,497.085a9.6,9.6,0,0,1,1.753,4.972c-.557-.041-1.146-.095-1.77-.125-.207-1.242-.709-3.537-1.7-4.6C1627.576,497.233,1628.154,497.15,1628.722,497.085Z" transform="translate(-1620.512 -496.907)" fill="#0e7992"/>
        <path id="Trazado_39246" data-name="Trazado 39246" d="M1618.561,498.854a9.718,9.718,0,0,1,1.587,4.357,6.436,6.436,0,0,0-1.7.589,12.6,12.6,0,0,0-1.441-4.53C1617.47,499.123,1618,498.983,1618.561,498.854Z" transform="translate(-1613.8 -498.094)" fill="#0e7992"/>
        <path id="Trazado_39247" data-name="Trazado 39247" d="M1609.419,501.883a9.4,9.4,0,0,1,1.553,4.685,2.272,2.272,0,0,1-.541.135,1.623,1.623,0,0,1-1.251-.4,13.228,13.228,0,0,0-1.113-3.657A4.035,4.035,0,0,1,1609.419,501.883Z" transform="translate(-1607.8 -500.127)" fill="#0e7992"/>
      </g>
      <path id="Trazado_39248" data-name="Trazado 39248" d="M1540.548,251.957a6.321,6.321,0,0,0-2.776-1.042c-4.037-.675-5.449,6.72-5.449,6.72h1.479a7.755,7.755,0,0,1,2.634-4.987c.949-.706,2.354-.332,3.41.22a2.655,2.655,0,0,1,.252-.4A5.932,5.932,0,0,1,1540.548,251.957Z" transform="translate(-169.052 -102.843)" fill="#bc0f65"/>
      <circle id="Elipse_1324" data-name="Elipse 1324" cx="0.562" cy="0.562" r="0.562" transform="translate(1372.963 169.304)" fill="#910c55"/>
      <g id="Grupo_34804" data-name="Grupo 34804" transform="translate(1384.247 199.889)">
        <g id="Grupo_34803" data-name="Grupo 34803">
          <g id="Grupo_34802" data-name="Grupo 34802">
            <g id="Grupo_34800" data-name="Grupo 34800" transform="translate(2.116)">
              <path id="Trazado_39249" data-name="Trazado 39249" d="M1606.093,410.535a1.337,1.337,0,0,1,0,1.889l-.1.1s1.075.833.542,1.637l.645-.645a2.876,2.876,0,1,0-4.067-4.067l-.1.1a1.313,1.313,0,0,0-.074,1.909l.172.172,1.033-1.033.056-.056a1.337,1.337,0,0,1,1.888,0" transform="translate(-1602.557 -408.605)" fill="#0e7992"/>
            </g>
            <g id="Grupo_34801" data-name="Grupo 34801" transform="translate(0 2.029)">
              <path id="Trazado_39250" data-name="Trazado 39250" d="M1598.05,418.4a1.337,1.337,0,0,1,0-1.889l.1-.1s-1.075-.832-.542-1.637l-.645.645a2.876,2.876,0,0,0,4.067,4.068l.1-.1a1.312,1.312,0,0,0,.074-1.908l-.172-.173-1.033,1.033-.056.056a1.337,1.337,0,0,1-1.889,0" transform="translate(-1596.12 -414.777)" fill="#0e7992"/>
            </g>
          </g>
          <path id="Trazado_39251" data-name="Trazado 39251" d="M1605.613,416.5l-1.6,1.6a.439.439,0,0,0,.621.621l1.6-1.6a.439.439,0,0,0-.621-.621Z" transform="translate(-1601.333 -413.819)" fill="#0e7992"/>
        </g>
      </g>
      <path id="Trazado_39252" data-name="Trazado 39252" d="M1513.741,336.862a3.061,3.061,0,0,1-.31-.1c-.036.213-.067.413-.093.6C1513.469,337.2,1513.6,337.029,1513.741,336.862Z" transform="translate(-156.309 -160.493)" fill="#bc0f65"/>
      <path id="Trazado_39253" data-name="Trazado 39253" d="M1500.044,334.876c-.03-.026-.063-.049-.092-.077-3.205,3.391-8.208,11.18-2.519,23.189l2.36-.519s-5.659-10.04-.237-19.38A8.217,8.217,0,0,1,1500.044,334.876Z" transform="translate(-143.896 -159.176)" fill="#bc0f65"/>
      <g id="Grupo_33558" data-name="Grupo 33558" transform="translate(1295.18 196.654)">
        <path id="Trazado_39254" data-name="Trazado 39254" d="M1344.852,424.991l2.5-2.1-.25-.316,2.669-2.242-1.854-2.344-2.669,2.242-1.345-1.719,2.67-2.243-1.854-2.344-2.67,2.243-6.166-7.925a6.188,6.188,0,0,0-.3-7.244,5.737,5.737,0,0,0-8.226-.892h0a6.153,6.153,0,0,0-.807,8.482,5.751,5.751,0,0,0,6.828,1.756Zm-15.968-18.362a2.981,2.981,0,0,1,.391-4.109,2.777,2.777,0,0,1,3.985.433h0a2.98,2.98,0,0,1-.391,4.108h0A2.777,2.777,0,0,1,1328.884,406.629Z" transform="translate(-1325.226 -398.764)" fill="#e00b71"/>
        <path id="Rectángulo_4472" data-name="Rectángulo 4472" d="M1384.509,464.014l.816-.686,1.854,2.344-.816.686Z" transform="translate(-1365.017 -442.1)" fill="#bc0f65"/>
        <path id="Rectángulo_4473" data-name="Rectángulo 4473" d="M1375,451.488l.816-.686,1.854,2.344-.816.686Z" transform="translate(-1358.637 -433.692)" fill="#bc0f65"/>
        <path id="Trazado_35486" data-name="Trazado 35486" d="M1349.8,425.811h0a.26.26,0,0,0-.035.358l0,0,11.863,15.147a.242.242,0,0,0,.347.039l0,0h0a.26.26,0,0,0,.035-.358l0,0-11.862-15.147A.246.246,0,0,0,1349.8,425.811Z" transform="translate(-1341.657 -416.88)" fill="#bc0f65"/>
        <path id="Trazado_35488" data-name="Trazado 35488" d="M1339.062,408.546a3.046,3.046,0,0,0-4.371-.472,3.269,3.269,0,0,0-.427,4.506,3.045,3.045,0,0,0,4.369.474A3.276,3.276,0,0,0,1339.062,408.546Zm-.21.176a2.98,2.98,0,0,1-.391,4.109,2.777,2.777,0,0,1-3.985-.432,2.981,2.981,0,0,1,.391-4.109h0a2.777,2.777,0,0,1,3.985.432h0Z" transform="translate(-1330.818 -404.533)" fill="#bc0f65"/>
      </g>
      <g id="Grupo_33559" data-name="Grupo 33559" transform="translate(1420.555 219.767)">
        <path id="Trazado_35489" data-name="Trazado 35489" d="M1736.85,476.666h-26.5a3.8,3.8,0,0,1-3.8-3.8h0a3.8,3.8,0,0,1,3.8-3.8h26.5a3.8,3.8,0,0,1,3.8,3.8h0A3.805,3.805,0,0,1,1736.85,476.666Z" transform="translate(-1706.548 -469.06)" fill="#fff"/>
        <path id="Trazado_35490" data-name="Trazado 35490" d="M1719.666,479.789h0a1,1,0,0,1-1-.995h0a1,1,0,0,1,1-1h0a1,1,0,0,1,1,1h0A1,1,0,0,1,1719.666,479.789Zm3.947-.995h0a1,1,0,0,0-.995-1h0a1,1,0,0,0-1,1h0a1,1,0,0,0,1,.995h0a1,1,0,0,0,.995-.994Zm2.953,0h0a1,1,0,0,0-.995-1h0a1,1,0,0,0-1,1h0a1,1,0,0,0,1,.995h0a1,1,0,0,0,.994-.994Zm2.953,0h0a1,1,0,0,0-1-1h0a1,1,0,0,0-1,1h0a1,1,0,0,0,1,.995h0a1,1,0,0,0,.995-.994Zm2.953,0h0a1,1,0,0,0-1-1h0a1,1,0,0,0-1,1h0a1,1,0,0,0,1,.995h0a1,1,0,0,0,1-.994Zm2.957,0h0a1,1,0,0,0-1-1h0a1,1,0,0,0-1,1h0a1,1,0,0,0,1,.995h0a1,1,0,0,0,.994-.994Zm2.952,0h0a1,1,0,0,0-1-1h0a1,1,0,0,0-.995,1h0a1,1,0,0,0,.995.995h0a1,1,0,0,0,.994-.994Z" transform="translate(-1714.685 -474.926)" fill="#fc4c96"/>
      </g>
      <path id="Trazado_35491" data-name="Trazado 35491" d="M1343.052,189.665s.448-6.137,6.287-6.137,6.589,6.137,6.589,6.137,7.485-2.7,10.031,6.287H1334.07S1333.171,190.561,1343.052,189.665Z" transform="translate(-35.968 -57.642)" fill="#fff"/>
      <path id="Trazado_35492" data-name="Trazado 35492" d="M1755.639,563.983s.439-6,6.146-6,6.437,6,6.437,6,7.315-2.633,9.8,6.146H1746.86S1745.982,564.861,1755.639,563.983Z" transform="translate(-313.037 -308.98)" fill="#fff"/>
      <g id="Grupo_34807" data-name="Grupo 34807" transform="translate(1353.315 97.651)">
        <g id="Grupo_34806" data-name="Grupo 34806">
          <path id="Trazado_39255" data-name="Trazado 39255" d="M1535.086,97.651h-26.064a6.979,6.979,0,0,0-6.979,6.979v14.526a6.979,6.979,0,0,0,6.979,6.98h10.708l3.021,4.368a1.07,1.07,0,0,0,.88.461h.039a1.064,1.064,0,0,0,.883-.527l2.525-4.3h2.159l6.575-.037a6.98,6.98,0,0,0,6.254-6.942V104.63A6.979,6.979,0,0,0,1535.086,97.651Z" transform="translate(-1502.042 -97.651)" fill="#e21e7c"/>
          <path id="Trazado_39256" data-name="Trazado 39256" d="M1535.086,97.651h-26.064a6.979,6.979,0,0,0-6.979,6.979v14.526a6.957,6.957,0,0,0,2.052,4.942c6.333-6,17.885-13.227,37.971-15.872v-3.6A6.979,6.979,0,0,0,1535.086,97.651Z" transform="translate(-1502.042 -97.651)" fill="#fc4c96" opacity="0.21"/>
          <g id="Grupo_34805" data-name="Grupo 34805" opacity="0.19">
            <path id="Trazado_39257" data-name="Trazado 39257" d="M1504.289,121.6V107.078a6.98,6.98,0,0,1,6.979-6.98h26.064a6.947,6.947,0,0,1,3.872,1.172,6.978,6.978,0,0,0-6.119-3.62h-26.064a6.979,6.979,0,0,0-6.979,6.979v14.526a6.971,6.971,0,0,0,3.107,5.805A6.947,6.947,0,0,1,1504.289,121.6Z" transform="translate(-1502.042 -97.651)" fill="#fff"/>
          </g>
        </g>
        <g id="Grupo_33556" data-name="Grupo 33556" transform="translate(13.36 4.933)">
          <path id="Trazado_39258" data-name="Trazado 39258" d="M1556.666,120.239V118.12a5.464,5.464,0,0,0-10.928,0v2.118a1.946,1.946,0,0,0-1.435,1.877v7.112h0a1.947,1.947,0,0,0,1.947,1.946h9.9a1.947,1.947,0,0,0,1.947-1.946v-7.113h0A1.946,1.946,0,0,0,1556.666,120.239Zm-5.464-5.774a3.658,3.658,0,0,1,3.658,3.658v2.045h-7.316v-2.045A3.658,3.658,0,0,1,1551.2,114.465Z" transform="translate(-1543.767 -112.656)" fill="#fff" opacity="0.55"/>
          <path id="Trazado_35481" data-name="Trazado 35481" d="M1552.505,112.656a5.469,5.469,0,0,0-5.464,5.464v5.253h10.928V118.12A5.473,5.473,0,0,0,1552.505,112.656Zm-3.658,8.915v-3.448a3.658,3.658,0,0,1,7.317,0v3.448Z" transform="translate(-1545.606 -112.656)" fill="#f49c0f"/>
          <path id="Trazado_35483" data-name="Trazado 35483" d="M1554.525,146.509h-9.9a1.947,1.947,0,0,1-1.947-1.946h0V137.45a1.947,1.947,0,0,1,1.947-1.947h9.9a1.947,1.947,0,0,1,1.947,1.946h0v7.113A1.947,1.947,0,0,1,1554.525,146.509Z" transform="translate(-1542.676 -127.991)" fill="#f7bf21"/>
          <path id="Trazado_35484" data-name="Trazado 35484" d="M1561.572,145.837a2,2,0,1,0-2.927,1.78v2.168h1.846v-2.168A2.01,2.01,0,0,0,1561.572,145.837Z" transform="translate(-1552.668 -133.582)" fill="#e96f4e"/>
          <path id="Trazado_39259" data-name="Trazado 39259" d="M1574.455,163.877v1.07h1.3l.036-.005a1.949,1.949,0,0,0,.367-.091l-.509-.973Z" transform="translate(-1564.006 -147.036)" fill="#f9f9f9"/>
          <path id="Trazado_39260" data-name="Trazado 39260" d="M1580.711,155.52h-1.07v2.351l.776.853a1.269,1.269,0,0,0,.293-.831Z" transform="translate(-1567.487 -141.427)" fill="#f9f9f9"/>
        </g>
      </g>
      <ellipse id="Elipse_1325" data-name="Elipse 1325" cx="77.899" cy="7.813" rx="77.899" ry="7.813" transform="translate(1295.06 288.867)" fill="#5ed4f0"/>
      <ellipse id="Elipse_1326" data-name="Elipse 1326" cx="33.82" cy="3.737" rx="33.82" ry="3.737" transform="translate(1335.432 292.465)" fill="#2bbee0"/>
    </g>
  </g>
</svg>
