<svg xmlns="http://www.w3.org/2000/svg" width="700" height="342" viewBox="0 0 700 342">
  <g id="Grupo_34765" data-name="Grupo 34765" transform="translate(170)">
    <rect id="Rectángulo_4475" data-name="Rectángulo 4475" width="700" height="331" transform="translate(-170)" fill="#bea0ff"/>
    <g id="Grupo_34757" data-name="Grupo 34757" transform="translate(-22.481 -38.711)">
      <path id="Trazado_35379" data-name="Trazado 35379" d="M199.13,192.813s-31.571-31.008-72.781-7.39S111.409,247.6,114.3,251.936s14.457,7.229,13.014,34.705,4.819,45.3,66.513,37.115,75.415,11.57,96.267-13.98,24.026-76.036,9.609-100.252S220.816,215.626,199.13,192.813Z" transform="translate(-4.437 -35.547)" fill="#a176ff"/>
      <path id="Trazado_35380" data-name="Trazado 35380" d="M326.247,286.745s27.914,16.5,36.08,3.962,1.392-36.12,1.392-36.12l6.36-2.2s17.269,41.336-9.351,55.149c-16.476,8.551-39.093,6.878-46.374,1.61S317.431,283.628,326.247,286.745Z" transform="translate(-93.035 -67.773)" fill="#f2a678"/>
      <path id="Trazado_35381" data-name="Trazado 35381" d="M405.711,244.073l-6.659-25.3s-1.972.512-1.691,3.335a59.333,59.333,0,0,0,1.455,7.223s-2.5-3.1-5.429-.955-2.4,4.779-2.4,4.779l1.685-.437s1-3.071,2.967-2.467,4.5,4.555,1.346,6.573-4.3-2.87-4.3-2.87l-1.8.661s1.357,6.6,6.372,5.5l1.231,5.411Z" transform="translate(-126.598 -53.487)" fill="#f2a678"/>
      <path id="Trazado_35382" data-name="Trazado 35382" d="M317.573,439.844c-3.485.495-16.953,1.656-18.7-9.724-.006-.023-.006-.04-.012-.063-.034-.23-.063-.46-.086-.7-.88-8.557,7.027-10.685,13.3-11.047v-.006s38.926-1.892,52.176-.742c0,0,10.587.374,11.076,6.889C376.156,435.617,335.142,438.884,317.573,439.844Z" transform="translate(-87.433 -137.804)" fill="#d88d63"/>
      <path id="Trazado_35383" data-name="Trazado 35383" d="M275.1,194.314l-3.778-3.4.132,1.4-3.249-1.4,1.656,2.415H262.5l1.547.776-6.769.874,1.029,1.018-5.532,3.174H254.8l-1.351,1.65-1.633.638,1.3.891L250.41,204.5h1.829l-2.726,5.21.19,2.645-.822,4.256.633.955v5.613l1.639,3.767,24.5-27.017Z" transform="translate(-66.257 -41.648)" fill="#d8d7d6"/>
      <path id="Trazado_35384" data-name="Trazado 35384" d="M284.365,195.854l3.675-3.4-.132,1.4,3.163-1.4-1.61,2.415h7.154l-1.5.776,6.079.978-2.7,1.035,5.17,2.709h-1.972l1.317,1.65,1.593.638-1.265.886,2.634,2.162h-1.783l2.651,7.51-1.219.684.805,4.261-.615.955v5.607l-1.6,3.772L280.38,201.467Z" transform="translate(-79.643 -42.303)" fill="#d8d7d6"/>
      <path id="Trazado_35385" data-name="Trazado 35385" d="M255.908,237.3l-1.1-2.03s-2.962-16.97-1.219-22.773,6.17-10.587,14.325-12.186,23.371.253,24.429,11.565a129.772,129.772,0,0,1,0,21.979l-.7,3.433H255.908Z" transform="translate(-68.023 -45.434)" fill="#d8d7d6"/>
      <g id="Grupo_33551" data-name="Grupo 33551" transform="translate(220.52 181.218)">
        <circle id="Elipse_272" data-name="Elipse 272" cx="3.128" cy="3.128" r="3.128" fill="#ee9a66"/>
        <circle id="Elipse_273" data-name="Elipse 273" cx="1.834" cy="1.834" r="1.834" transform="translate(1.294 1.294)" fill="#d78550"/>
      </g>
      <g id="Grupo_33552" data-name="Grupo 33552" transform="translate(183.652 182.173)">
        <circle id="Elipse_274" data-name="Elipse 274" cx="3.128" cy="3.128" r="3.128" fill="#ee9a66"/>
        <circle id="Elipse_275" data-name="Elipse 275" cx="1.834" cy="1.834" r="1.834" transform="translate(1.294 1.294)" fill="#d78550"/>
      </g>
      <path id="Trazado_35386" data-name="Trazado 35386" d="M264.862,415.417l-14.877-2.507s-4.5,23.469,21.065,23.469c23.871,0,14.5-17.908,14.5-17.908Z" transform="translate(-66.598 -135.983)" fill="#f2a678"/>
      <path id="Trazado_35387" data-name="Trazado 35387" d="M289.412,412.643l14.814-6.263s6,27.224-21,27.224c-23.871,0-14.5-17.908-14.5-17.908Z" transform="translate(-73.919 -133.208)" fill="#f2a678"/>
      <path id="Trazado_35388" data-name="Trazado 35388" d="M217.591,441.844c3.485.495,16.953,1.656,18.7-9.724.006-.023.006-.04.011-.063.035-.23.063-.46.086-.7.88-8.557-7.027-10.685-13.3-11.047v-.006s-38.926-1.892-52.176-.742c0,0-10.587.374-11.076,6.889C159.009,437.617,200.023,440.884,217.591,441.844Z" transform="translate(-28.413 -138.654)" fill="#f2a678"/>
      <path id="Trazado_35389" data-name="Trazado 35389" d="M171.39,411.1" transform="translate(-33.33 -135.214)" fill="#d98f66" opacity="0.48"/>
      <path id="Trazado_35390" data-name="Trazado 35390" d="M165.01,414.49" transform="translate(-30.619 -136.654)" fill="#d98f66" opacity="0.48"/>
      <path id="Trazado_35391" data-name="Trazado 35391" d="M164.16,422.235c10.616,2.622,45.476,19.322,45.476,19.322l-1.334-21.9-21.14-.443c3.629,3.8-18.845,1.093-18.845,1.093A12.034,12.034,0,0,0,164.16,422.235Z" transform="translate(-30.257 -138.66)" fill="#d98f66" opacity="0.48"/>
      <path id="Trazado_35392" data-name="Trazado 35392" d="M285.847,365.658l7.907-26.056c3.054-3.238,4.923-10.921,4.923-10.921s4.612-8.362-4.284-11.749l-18.465-3.606-26.58-.207-20.306,3.232c-8.948,3.255-4.463,11.685-4.463,11.685s3.64,7.85,6.636,11.133l7.867,26s1.955,10.737,20.587,11.346S284.07,368.844,285.847,365.658Z" transform="translate(-55.454 -93.579)" fill="#f2a678"/>
      <path id="Trazado_35393" data-name="Trazado 35393" d="M246.678,323.587,223.451,320.4s-2.2-13.767,34.682-14.8,41.992,9.742,41.727,13.52S246.678,323.587,246.678,323.587Z" transform="translate(-55.441 -90.354)" fill="#f2a678"/>
      <path id="Trazado_35394" data-name="Trazado 35394" d="M297.77,318.938l2.076-2.507,15.993-2.151S301.64,316.851,297.77,318.938Z" transform="translate(-87.032 -94.072)" fill="#d98f66"/>
      <path id="Trazado_35395" data-name="Trazado 35395" d="M251.346,321.193l-24.32-2.433s-11.513,7.758,3.956,22.813Z" transform="translate(-55.221 -95.976)" fill="#f2a678"/>
      <path id="Trazado_35396" data-name="Trazado 35396" d="M308.43,321.193l24.32-2.433s12.583,8.189-2.887,23.239Z" transform="translate(-91.562 -95.976)" fill="#f2a678"/>
      <path id="Trazado_35397" data-name="Trazado 35397" d="M274.087,402.054l-23.877-9s.38-25.936,23.25-26.85,24.153,26.85,24.153,26.85Z" transform="translate(-66.823 -116.127)" fill="#f2a678"/>
      <path id="Trazado_35398" data-name="Trazado 35398" d="M292.08,291.436v10.006l-14.279.3-.2-10.627Z" transform="translate(-78.461 -84.231)" fill="#f2a678"/>
      <path id="Trazado_35399" data-name="Trazado 35399" d="M292.08,296.451s-9.563,2.525-14.365.627l-.115-5.958,14.475.316v5.015Z" transform="translate(-78.461 -84.231)" fill="#d58858" opacity="0.8"/>
      <path id="Trazado_35400" data-name="Trazado 35400" d="M293.945,240.187l-.109-24.59s-1.633-11.685-19.667-11.179-17.045,16.263-17.045,16.263a.838.838,0,0,1,.092.023l1.2,22.065a7.7,7.7,0,0,0,3.174,6.815l6.326,5.1c9.017,7.114,15.573,1.208,15.573,1.208l4.928-4A13.686,13.686,0,0,0,293.945,240.187Z" transform="translate(-69.756 -47.382)" fill="#f2a678"/>
      <g id="Grupo_33553" data-name="Grupo 33553" transform="translate(211.148 172.728)">
        <path id="Trazado_35401" data-name="Trazado 35401" d="M299.281,231.891s4.658-.684,5.808.656a8.362,8.362,0,0,1,1.489,3.588,19.146,19.146,0,0,0-4.215-1.668c-1.725-.328-3.519-.3-3.824-1.006S299.281,231.891,299.281,231.891Z" transform="translate(-298.483 -231.716)" fill="#939393"/>
        <path id="Trazado_35402" data-name="Trazado 35402" d="M301.128,231.77l-1.288,2.2a7.085,7.085,0,0,0,.978.2l1.443-2.438C301.853,231.73,301.467,231.747,301.128,231.77Z" transform="translate(-299.06 -231.722)" fill="#848383"/>
        <path id="Trazado_35403" data-name="Trazado 35403" d="M304.314,231.75l-1.484,2.525c.328.04.667.086,1.012.144l1.512-2.559A9.625,9.625,0,0,0,304.314,231.75Z" transform="translate(-300.33 -231.731)" fill="#848383"/>
        <path id="Trazado_35404" data-name="Trazado 35404" d="M307.394,232.27l-1.484,2.53c.3.075.615.178.926.288l1.374-2.323A1.875,1.875,0,0,0,307.394,232.27Z" transform="translate(-301.639 -231.952)" fill="#848383"/>
        <path id="Trazado_35405" data-name="Trazado 35405" d="M309.812,234.14l-1.162,1.984c.311.127.6.253.874.374l.794-1.346A6.653,6.653,0,0,0,309.812,234.14Z" transform="translate(-302.803 -232.746)" fill="#848383"/>
      </g>
      <path id="Trazado_35406" data-name="Trazado 35406" d="M255.494,230.379l1.162-1.15-.581-7.4,2.64-7.073s2.093-4.025,4.813-4.894,3.669-1.961,7.585-2.18l3.916-.219V209.1l.759-1.305v.926l.926-.817.27.978.546-1.415,3.859.38s5.549,3.261,7.016,4.951,2.007,8.7,2.007,8.7l.6,8.408h.592l.552-8.965s5.1-20.961-14.676-22.629c-17.028-1.438-22.917,9.874-24.141,13.209S255.494,230.379,255.494,230.379Z" transform="translate(-68.041 -44.738)" fill="#d8d7d6"/>
      <path id="Trazado_35407" data-name="Trazado 35407" d="M257.28,249.237l1.162-1.15s3.3,11.662,7.378,11.542,15.078-1.455,18.534-.483,6.746.6,7.28-.966.9-13.215.9-13.215l.943-.144s1.714,12.358.569,17.821-6.1,8.3-7.073,11.179.063,5.906-5.417,7.3-11.536-.4-14.2-5.314-4.117-4.187-6.78-6.849S257.28,249.237,257.28,249.237Z" transform="translate(-69.827 -64.556)" fill="#d8d7d6"/>
      <path id="Trazado_35408" data-name="Trazado 35408" d="M259.932,256.63l-1.972,3.749c.115,1.346.259,2.8.431,4.25l2.421-5.889C260.485,258.022,260.191,257.3,259.932,256.63Z" transform="translate(-70.116 -69.575)" fill="#cecdcc"/>
      <path id="Trazado_35409" data-name="Trazado 35409" d="M262.624,264.33,259.45,270.9a30.783,30.783,0,0,0,.914,4.083l3.284-9.1A13.962,13.962,0,0,1,262.624,264.33Z" transform="translate(-70.749 -72.847)" fill="#cecdcc"/>
      <path id="Trazado_35410" data-name="Trazado 35410" d="M268.437,270a2.938,2.938,0,0,1-1.915-.776l-3.082,10.345a22.852,22.852,0,0,0,3.048,2.272l2.272-11.846C268.644,269.991,268.535,269.991,268.437,270Z" transform="translate(-72.444 -74.925)" fill="#cecdcc"/>
      <path id="Trazado_35411" data-name="Trazado 35411" d="M274.394,270.225l-2.364,13.813a18.29,18.29,0,0,1,1.587,2.49,10.579,10.579,0,0,0,1.167,1.714l1.731-18.172C275.762,270.128,275.049,270.185,274.394,270.225Z" transform="translate(-76.095 -75.286)" fill="#cecdcc"/>
      <path id="Trazado_35412" data-name="Trazado 35412" d="M281.781,269.718l-1.231,20.231a12.1,12.1,0,0,0,4.175,1.777l-.5-22.186C283.4,269.6,282.58,269.661,281.781,269.718Z" transform="translate(-79.715 -75.061)" fill="#cecdcc"/>
      <path id="Trazado_35413" data-name="Trazado 35413" d="M289.36,269.305l2.461,22.612a14.835,14.835,0,0,0,3.358-.449,1.671,1.671,0,0,0,.161-.046l-3.726-22.232C290.878,269.225,290.125,269.265,289.36,269.305Z" transform="translate(-83.459 -74.912)" fill="#cecdcc"/>
      <path id="Trazado_35414" data-name="Trazado 35414" d="M296.83,269.119l3.571,21.594a4.522,4.522,0,0,0,2.548-2.9l-3.991-18.644C298.314,269.125,297.595,269.113,296.83,269.119Z" transform="translate(-86.633 -74.881)" fill="#cecdcc"/>
      <path id="Trazado_35415" data-name="Trazado 35415" d="M303.837,269.62a6.3,6.3,0,0,0-.707-.15l3.991,13.554a30.226,30.226,0,0,1,2.289-2.755l-4.008-10.3C304.89,269.878,304.366,269.763,303.837,269.62Z" transform="translate(-89.31 -75.031)" fill="#cecdcc"/>
      <path id="Trazado_35416" data-name="Trazado 35416" d="M311.18,270.415l3.169,8.292a15.217,15.217,0,0,0,1.766-2.87l-3.025-5.728A6.415,6.415,0,0,1,311.18,270.415Z" transform="translate(-92.731 -75.303)" fill="#cecdcc"/>
      <path id="Trazado_35417" data-name="Trazado 35417" d="M317.466,262.73a25.464,25.464,0,0,1-.316,2.755l2.473,3.916a30.149,30.149,0,0,0,.247-3.887Z" transform="translate(-95.268 -72.167)" fill="#cecdcc"/>
      <path id="Trazado_35418" data-name="Trazado 35418" d="M319.893,253.254l-1.685-1.144c-.04.886-.086,1.835-.138,2.789l2.053,1.42C320.06,255.256,319.979,254.215,319.893,253.254Z" transform="translate(-95.658 -67.654)" fill="#cecdcc"/>
      <path id="Trazado_35419" data-name="Trazado 35419" d="M290.019,271.28s-9.569-1.11-9.839,2.047-.253,4.917,4.146,5.337,10.581.2,11.116-1.639S296.081,271.344,290.019,271.28Z" transform="translate(-79.517 -75.72)" fill="#f2a678"/>
      <path id="Trazado_35420" data-name="Trazado 35420" d="M293.7,276.691s-.621,1.472-1.857,1.4a2.028,2.028,0,0,1-1.852-1.472s-.155-.627-.575-.391c0,0-.362.19-.092.69a2.955,2.955,0,0,0,2.5,1.886,2.563,2.563,0,0,0,2.622-1.852s.138-.414-.092-.558C294.358,276.4,293.927,276.139,293.7,276.691Z" transform="translate(-83.402 -77.881)" fill="#39393a"/>
      <path id="Trazado_35421" data-name="Trazado 35421" d="M285.025,266.892s-3.485-3.065-6.8-.765-4.043,5.084-3.192,8.114-1.7,3.312-1.875,5.894a12.994,12.994,0,0,0,1.024,5.314s-.7-4.917,1.65-6.366,3.433-2.783,3.255-6.3,4.56-1.7,5.946-2.9A1.758,1.758,0,0,0,285.025,266.892Z" transform="translate(-76.565 -73.247)" fill="#f4f4f2"/>
      <path id="Trazado_35422" data-name="Trazado 35422" d="M285.49,268.37a2.426,2.426,0,0,1-.771,1.1c-1.386,1.213-6.124-.6-5.946,2.9s-.9,4.842-3.255,6.3-1.65,6.366-1.65,6.366-.017-.034-.04-.092a13.744,13.744,0,0,0,.615,1.817s-.7-4.917,1.65-6.366,3.433-2.783,3.255-6.3,4.56-1.7,5.946-2.9A1.736,1.736,0,0,0,285.49,268.37Z" transform="translate(-76.834 -74.563)" fill="#e9e8e8"/>
      <path id="Trazado_35423" data-name="Trazado 35423" d="M294.129,266.892s3.485-3.065,6.8-.765,4.043,5.084,3.192,8.114,1.7,3.312,1.875,5.894a12.994,12.994,0,0,1-1.024,5.314s.7-4.917-1.65-6.366-3.433-2.783-3.255-6.3-4.56-1.7-5.946-2.9A1.751,1.751,0,0,1,294.129,266.892Z" transform="translate(-85.128 -73.247)" fill="#f4f4f2"/>
      <path id="Trazado_35424" data-name="Trazado 35424" d="M304.482,278.872c-2.352-1.455-3.433-2.783-3.255-6.3s-4.56-1.7-5.946-2.9a1.771,1.771,0,0,1-.679-2.191c-.293.207-.472.357-.472.357a1.746,1.746,0,0,0,0,2.985c1.386,1.213,6.124-.6,5.946,2.9s.9,4.842,3.255,6.3,1.65,6.366,1.65,6.366a13.519,13.519,0,0,0,1.041-4.94A3.886,3.886,0,0,0,304.482,278.872Z" transform="translate(-85.13 -74.185)" fill="#e9e8e8"/>
      <g id="Grupo_33554" data-name="Grupo 33554" transform="translate(205.037 183.707)">
        <path id="Trazado_35425" data-name="Trazado 35425" d="M292.252,254.133a12.857,12.857,0,0,1-1.662-2.191c-.638-1.121-1.277-1.432-2.329-.84s-.368,9.851,5.935,9.73,4.934-4.359,3.985-5.291S294.8,256.749,292.252,254.133Z" transform="translate(-287.858 -250.807)" fill="#e6874a"/>
        <path id="Trazado_35426" data-name="Trazado 35426" d="M294.359,260.7c-5.429.1-6.688-6.74-6.263-9.029-.782,1.472.178,9.644,6.1,9.535,3.318-.063,4.509-1.271,4.756-2.53C298.5,259.732,297.223,260.641,294.359,260.7Z" transform="translate(-287.859 -251.174)" fill="#cd6a27"/>
      </g>
      <g id="Grupo_33555" data-name="Grupo 33555" transform="translate(192.818 173.303)">
        <path id="Trazado_35427" data-name="Trazado 35427" d="M273.908,232.891s-4.658-.684-5.808.656a8.363,8.363,0,0,0-1.489,3.588,19.146,19.146,0,0,1,4.215-1.668c1.725-.328,3.519-.3,3.824-1.006S273.908,232.891,273.908,232.891Z" transform="translate(-266.61 -232.716)" fill="#939393"/>
        <path id="Trazado_35428" data-name="Trazado 35428" d="M276.253,232.77l1.288,2.2a7.091,7.091,0,0,1-.978.2l-1.443-2.438C275.523,232.73,275.908,232.747,276.253,232.77Z" transform="translate(-270.226 -232.722)" fill="#848383"/>
        <path id="Trazado_35429" data-name="Trazado 35429" d="M272.981,232.75l1.484,2.525c-.328.04-.667.086-1.012.144l-1.512-2.559A9.954,9.954,0,0,1,272.981,232.75Z" transform="translate(-268.875 -232.731)" fill="#848383"/>
        <path id="Trazado_35430" data-name="Trazado 35430" d="M270.067,233.27l1.484,2.53c-.3.075-.615.178-.926.288l-1.374-2.323A1.945,1.945,0,0,1,270.067,233.27Z" transform="translate(-267.732 -232.951)" fill="#848383"/>
        <path id="Trazado_35431" data-name="Trazado 35431" d="M268.126,235.14l1.162,1.984c-.311.127-.6.253-.874.374l-.794-1.346A6.163,6.163,0,0,1,268.126,235.14Z" transform="translate(-267.039 -233.746)" fill="#848383"/>
      </g>
      <path id="Trazado_35432" data-name="Trazado 35432" d="M268,197.431s3.629-.391,10.547,1.271,7.384,19.219,7.384,19.219a3.753,3.753,0,0,1,2.645,2.542s6.843-3.772,5.561-16.43-11.823-25.044-26.557-24.63c-19.317.541-40.841,21.128-21.824,41.25l2.553-1.645s-.374-13.675,6.395-17.724A26.924,26.924,0,0,1,268,197.431Z" transform="translate(-61.794 -36.754)" fill="#e23a2e"/>
      <path id="Trazado_35433" data-name="Trazado 35433" d="M328.1,219.884a19.33,19.33,0,0,1-3.985,11.07,15.091,15.091,0,0,0,2.168-9.627,16.4,16.4,0,0,1-3.433,8.724c4.365-8.436,0-16.441,0-16.441,3,7.355-1.346,15.958-1.346,15.958,1.386-4.014-.2-11.726-.2-11.726.736,3.508-.868,10.863-.868,10.863.5-4.7-2.369-9.247-2.369-9.247a33.635,33.635,0,0,1,1.288,7.947c.374,2.887.431,5.061.431,5.061a3.753,3.753,0,0,1,2.645,2.542c.052-.029.092-.057.144-.086C323.51,234.318,328.738,230.465,328.1,219.884Z" transform="translate(-95.658 -51.294)" fill="#a22825" opacity="0.56"/>
      <path id="Trazado_35434" data-name="Trazado 35434" d="M272.4,179.4s-11.6.725-19.483,8.655a44.045,44.045,0,0,1,10.127-4.324l-3.715,4.463,7.332-4.917s-2.03,2.329-5.963,7.873a44.406,44.406,0,0,1,7.413-5.331s.587,3.962-5.446,7.482C262.662,193.294,276.159,191.264,272.4,179.4Z" transform="translate(-67.974 -36.757)" fill="#a22825" opacity="0.48"/>
      <path id="Trazado_35435" data-name="Trazado 35435" d="M245.587,229.831s-11.271-9.966-6.355-22.313c0,0-.9,6.889,1.282,11.162,0,0-1.829-10.978,5.078-17.7a22.513,22.513,0,0,0-2.714,18.08,17.668,17.668,0,0,1,4.319-13.319s-3.232,15.533.949,22.445Z" transform="translate(-61.63 -45.927)" fill="#a22825" opacity="0.56"/>
      <path id="Trazado_35436" data-name="Trazado 35436" d="M252.645,215.911s-2.341-20.783,18.028-21.065,7.861-23.043,1.829-22.738,2.065,11.789-6.815,15.579-21.462,8.9-15.59,29.869Z" transform="translate(-66.135 -33.657)" fill="#d3322c"/>
      <path id="Trazado_35437" data-name="Trazado 35437" d="M272.9,172.118a2.307,2.307,0,0,0-1.9.874c6.073,4.572,12.8,21.358-4.681,21.6-11.6.161-14.647,7.091-16.136,12.928-1.029,5.607-.782,6.136.311,10.041l2.553-1.645s-1.576-20.49,18.028-20.576C291.632,195.247,278.934,171.813,272.9,172.118Z" transform="translate(-66.535 -33.662)" fill="#bb2b28"/>
      <path id="Trazado_35438" data-name="Trazado 35438" d="M250.49,215.625s.081-10.052,11.6-13.169c8.459-2.289,14.733-2.1,13.917-10.006,0,0,1.53,6.372-13.549,9.006S249.84,220.83,249.84,220.83Z" transform="translate(-66.602 -42.303)" fill="#bb2b28"/>
      <path id="Trazado_35439" data-name="Trazado 35439" d="M258.32,197.132a43.922,43.922,0,0,1,13.244-6.176c6.889-1.639,3.6-14.406,3.6-14.406s5.291,12.537-3.4,15.136A64.039,64.039,0,0,0,258.32,197.132Z" transform="translate(-70.269 -35.546)" fill="#bb2b28"/>
      <path id="Trazado_35440" data-name="Trazado 35440" d="M290.668,181.87s1.961,7.625-1.518,9.989C289.15,191.859,294.211,190.4,290.668,181.87Z" transform="translate(-83.369 -37.807)" fill="#bb2b28"/>
      <path id="Trazado_35441" data-name="Trazado 35441" d="M279.491,183.93s1.587,8.678-8.971,12.37C270.52,196.3,282.131,194.764,279.491,183.93Z" transform="translate(-75.453 -38.682)" fill="#bb2b28"/>
      <path id="Trazado_35442" data-name="Trazado 35442" d="M302.84,185.66s13.807,4.141,16.441,18.1C319.276,203.757,314.911,190.652,302.84,185.66Z" transform="translate(-89.187 -39.417)" fill="#bb2b28"/>
      <path id="Trazado_35443" data-name="Trazado 35443" d="M308.91,194.45s8.241,2.979,10.052,15.987C318.956,210.437,316.116,200.321,308.91,194.45Z" transform="translate(-91.766 -43.153)" fill="#bb2b28"/>
      <path id="Trazado_35444" data-name="Trazado 35444" d="M310.1,201.39a17.982,17.982,0,0,1,6.717,14.187S315.362,207.077,310.1,201.39Z" transform="translate(-92.272 -46.102)" fill="#bb2b28"/>
      <path id="Trazado_35445" data-name="Trazado 35445" d="M306.45,208.35a12.109,12.109,0,0,1,6.441,5.837A21.571,21.571,0,0,0,306.45,208.35Z" transform="translate(-90.721 -49.059)" fill="#bb2b28"/>
      <path id="Trazado_35446" data-name="Trazado 35446" d="M272.96,300.669s-6.084-1.857-7.252,11.248-16.4,40.312-33.481,43.78c0,0-3.663,4.618,0,8.937,0,0-18.546-.736-19.748,3.617,0,0,21.283,6.516,21.962,22.324,0,0,8.39,1.415,23.423.621s21.945,3.537,32.428,0c0,0,.057-18.581,5.676-22.945s-6.728-3.594-12.18-3.617c0,0,5.446-2.415,1.817-8.937,0,0,1.334-12.611,2.732-28.621s5.624-19.121,3.807-21.847-9.011-1.685-9.011-1.685S281.506,296.414,272.96,300.669Z" transform="translate(-50.79 -87.713)" fill="#f2dd98"/>
      <path id="Trazado_35447" data-name="Trazado 35447" d="M272.69,416.7s13.094,3.347,23.785.581c0,0-7.683,9.563-6.349,19.616,0,0-3.738-8.793,1.219-16.32C291.34,420.57,280.039,420.271,272.69,416.7Z" transform="translate(-76.375 -137.593)" fill="#deca8c"/>
      <path id="Trazado_35448" data-name="Trazado 35448" d="M323.884,415.6s-13.077,1.576-16.464,17.678C307.42,433.278,312.751,421.293,323.884,415.6Z" transform="translate(-91.133 -137.126)" fill="#deca8c"/>
      <path id="Trazado_35449" data-name="Trazado 35449" d="M355.822,435.21s9.368-2.548,9.259-8.454c-.155-8.172-10.328-6.826-15.878-4.595s-23.612.247-33.653,3.939-41.33,13.779-41.33,13.779l1.558,8.586Z" transform="translate(-77.025 -139.19)" fill="#df926a"/>
      <path id="Trazado_35450" data-name="Trazado 35450" d="M253.823,456.209s-2.283-1.7-7.8.707-11.271,4.744-17.568,5.1-5.509,10.127-.282,11.473c4.394,1.133,21.646-6.389,26.263-8.931S256.25,455.927,253.823,456.209Z" transform="translate(-55.679 -154.134)" fill="#df926a"/>
      <path id="Trazado_35451" data-name="Trazado 35451" d="M357.842,441.81a83.594,83.594,0,0,1-26.516,8.787c-14.348,1.932-54.4,6.941-54.4,6.941l42.411-14Z" transform="translate(-78.177 -148.263)" fill="#df926a"/>
      <path id="Trazado_35452" data-name="Trazado 35452" d="M312.48,351.618s13.94-25.711,13.146-45.091a15.337,15.337,0,0,1,4.836,0C330.457,306.526,326.644,331.461,312.48,351.618Z" transform="translate(-93.283 -90.695)" fill="#deca8c"/>
      <path id="Trazado_35453" data-name="Trazado 35453" d="M310.052,300.756s-.161,23.992-10.282,42.515c0,0,12.749-16.378,13.825-43.751Z" transform="translate(-87.882 -87.8)" fill="#deca8c"/>
      <path id="Trazado_35454" data-name="Trazado 35454" d="M246.82,403.052s11.553-3.749,18.023-13.342C264.843,389.71,258.1,404.622,246.82,403.052Z" transform="translate(-65.382 -126.125)" fill="#deca8c"/>
      <path id="Trazado_35455" data-name="Trazado 35455" d="M272.69,392.277s16.694-11.961,23.785-28.667C296.475,363.6,291.938,385.106,272.69,392.277Z" transform="translate(-76.375 -115.034)" fill="#deca8c"/>
      <path id="Trazado_35456" data-name="Trazado 35456" d="M250.64,365.3s31.669-28.65,31.548-51.894C282.183,313.41,285.777,344.263,250.64,365.3Z" transform="translate(-67.005 -93.702)" fill="#deca8c"/>
      <path id="Trazado_35457" data-name="Trazado 35457" d="M331.492,347.59l-.368,5.567s-13.089,17.16-17.074,32.555C314.05,385.711,318.064,364.9,331.492,347.59Z" transform="translate(-93.95 -108.226)" fill="#deca8c"/>
      <path id="Trazado_35458" data-name="Trazado 35458" d="M333.869,380.74A43.443,43.443,0,0,1,323.8,399.827a15.079,15.079,0,0,0,9.109-9.523Z" transform="translate(-98.093 -122.313)" fill="#deca8c"/>
      <path id="Trazado_35459" data-name="Trazado 35459" d="M224.64,413.595s31.623,4.658,37.7,19.426c0,0-4.457-16.9-33.067-19.731Z" transform="translate(-55.957 -136.144)" fill="#deca8c"/>
      <path id="Trazado_35460" data-name="Trazado 35460" d="M168.828,437.21s-9.368-2.548-9.259-8.454c.155-8.172,10.328-6.826,15.878-4.595s23.612.247,33.653,3.939,41.33,13.779,41.33,13.779l-1.558,8.586Z" transform="translate(-28.306 -140.04)" fill="#f19f6e"/>
      <path id="Trazado_35461" data-name="Trazado 35461" d="M313.637,456.209s2.283-1.7,7.8.707,11.271,4.744,17.568,5.1,5.509,10.127.282,11.473c-4.394,1.133-21.646-6.389-26.263-8.931S311.21,455.927,313.637,456.209Z" transform="translate(-92.462 -154.134)" fill="#f19f6e"/>
      <path id="Trazado_35462" data-name="Trazado 35462" d="M174.16,443.81a83.593,83.593,0,0,0,26.516,8.787c14.348,1.932,54.4,6.941,54.4,6.941l-42.411-14Z" transform="translate(-34.507 -149.113)" fill="#f19f6e"/>
      <path id="Trazado_35463" data-name="Trazado 35463" d="M249,363.451s1.725,2.473,6.355,2.237,12.859-.6,13.876-3.508c0,0,.017,3.266-7.608,4.089S250.179,366.447,249,363.451Z" transform="translate(-66.308 -114.426)" fill="#d98f66"/>
      <circle id="Elipse_276" data-name="Elipse 276" cx="1.679" cy="1.679" r="1.679" transform="translate(189.017 244.7)" fill="#d98f66"/>
      <circle id="Elipse_277" data-name="Elipse 277" cx="0.84" cy="0.84" r="0.84" transform="translate(189.592 245.804)" fill="#c07d5b"/>
      <path id="Trazado_35464" data-name="Trazado 35464" d="M247.63,376.45a33.2,33.2,0,0,0,11.743,2.289S251.747,380.119,247.63,376.45Z" transform="translate(-65.726 -120.49)" fill="#d98f66"/>
      <path id="Trazado_35465" data-name="Trazado 35465" d="M247.21,382.87A24.883,24.883,0,0,0,256,384.584S250.287,385.613,247.21,382.87Z" transform="translate(-65.548 -123.218)" fill="#d98f66"/>
      <path id="Trazado_35466" data-name="Trazado 35466" d="M224.836,466.97s-7.1-.466-7.1,2.456,4.48,1.547,5.814,1.691S225.7,468.436,224.836,466.97Z" transform="translate(-53.025 -158.943)" fill="#df926a"/>
      <path id="Trazado_35467" data-name="Trazado 35467" d="M224.391,474.04s-4.238.155-4.221,1.334,1.685,1,3.554.656S224.391,474.04,224.391,474.04Z" transform="translate(-54.058 -161.959)" fill="#df926a"/>
      <path id="Trazado_35468" data-name="Trazado 35468" d="M224.871,477.38s-4.238.155-4.221,1.334,1.685,1,3.554.656S224.871,477.38,224.871,477.38Z" transform="translate(-54.262 -163.378)" fill="#df926a"/>
      <path id="Trazado_35469" data-name="Trazado 35469" d="M226.451,480.57s-4.238.155-4.221,1.334,1.685,1,3.554.656S226.451,480.57,226.451,480.57Z" transform="translate(-54.933 -164.734)" fill="#df926a"/>
      <path id="Trazado_35470" data-name="Trazado 35470" d="M228.771,483.17s-4.2.529-4.083,1.708,1.771.845,3.6.339S228.771,483.17,228.771,483.17Z" transform="translate(-55.977 -165.839)" fill="#df926a"/>
      <path id="Trazado_35471" data-name="Trazado 35471" d="M362.637,467.9s7.1-.466,7.1,2.456-4.48,1.547-5.814,1.691S361.775,469.361,362.637,467.9Z" transform="translate(-114.446 -159.338)" fill="#f19f6e"/>
      <path id="Trazado_35472" data-name="Trazado 35472" d="M365.191,474.97s4.238.155,4.221,1.334-1.685,1-3.554.656S365.191,474.97,365.191,474.97Z" transform="translate(-115.521 -162.354)" fill="#f19f6e"/>
      <path id="Trazado_35473" data-name="Trazado 35473" d="M364.709,478.31s4.238.155,4.221,1.334-1.685,1-3.554.656S364.709,478.31,364.709,478.31Z" transform="translate(-115.315 -163.773)" fill="#f19f6e"/>
      <path id="Trazado_35474" data-name="Trazado 35474" d="M363.129,481.5s4.238.155,4.221,1.334-1.685,1-3.554.656S363.129,481.5,363.129,481.5Z" transform="translate(-114.644 -165.129)" fill="#f19f6e"/>
      <path id="Trazado_35475" data-name="Trazado 35475" d="M360.829,484.09s4.2.529,4.083,1.708-1.771.845-3.6.339S360.829,484.09,360.829,484.09Z" transform="translate(-113.627 -166.23)" fill="#f19f6e"/>
      <path id="Trazado_35476" data-name="Trazado 35476" d="M201.232,288.745s-27.914,16.5-36.08,3.962-1.392-36.12-1.392-36.12l-6.36-2.2s-17.269,41.336,9.351,55.149c16.476,8.551,39.093,6.878,46.374,1.61S210.054,285.628,201.232,288.745Z" transform="translate(-25.044 -68.623)" fill="#f2a678"/>
      <path id="Trazado_35477" data-name="Trazado 35477" d="M274.069,318.788l-2.076-2.507L256,314.13S270.2,316.7,274.069,318.788Z" transform="translate(-69.283 -94.008)" fill="#d98f66"/>
      <path id="Trazado_35478" data-name="Trazado 35478" d="M270.52,244.13a4.94,4.94,0,0,0,5.354-.04C275.874,244.084,273.51,248.323,270.52,244.13Z" transform="translate(-75.453 -64.246)" fill="#4e0e02"/>
      <path id="Trazado_35479" data-name="Trazado 35479" d="M300.52,244.13a4.94,4.94,0,0,0,5.354-.04C305.874,244.084,303.51,248.323,300.52,244.13Z" transform="translate(-88.201 -64.246)" fill="#4e0e02"/>
      <path id="Trazado_35480" data-name="Trazado 35480" d="M157.88,246.073l6.659-25.3s1.972.512,1.691,3.335a59.33,59.33,0,0,1-1.455,7.223s2.5-3.1,5.429-.955,2.4,4.779,2.4,4.779l-1.685-.437s-1-3.071-2.967-2.467-4.5,4.555-1.346,6.573,4.3-2.87,4.3-2.87l1.8.661s-1.357,6.6-6.372,5.5l-1.231,5.411Z" transform="translate(-27.589 -54.337)" fill="#f2a678"/>
      <g id="Grupo_33556" data-name="Grupo 33556" transform="translate(252.7 112.63)">
        <path id="Trazado_35481" data-name="Trazado 35481" d="M386.656,127.21a10.936,10.936,0,0,0-10.926,10.926v10.507h21.853V138.136A10.944,10.944,0,0,0,386.656,127.21Zm-7.315,17.827v-6.9a7.315,7.315,0,1,1,14.63,0v6.9Z" transform="translate(-372.86 -127.21)" fill="#e96f4e"/>
        <path id="Trazado_35482" data-name="Trazado 35482" d="M388.284,130.97a8.733,8.733,0,0,0-8.724,8.724v8.39h17.448v-8.39A8.737,8.737,0,0,0,388.284,130.97Zm7.315,15.665h-14.63v-6.9a7.315,7.315,0,1,1,14.63,0Z" transform="translate(-374.488 -128.808)" fill="#e96f4e" opacity="0.4"/>
        <path id="Trazado_35483" data-name="Trazado 35483" d="M394.433,175.338h-19.8a3.892,3.892,0,0,1-3.893-3.893V157.223a3.892,3.892,0,0,1,3.893-3.893h19.8a3.892,3.892,0,0,1,3.893,3.893v14.221A3.892,3.892,0,0,1,394.433,175.338Z" transform="translate(-370.74 -138.309)" fill="#f4ad56"/>
        <path id="Trazado_35484" data-name="Trazado 35484" d="M395.777,166.858a4.008,4.008,0,1,0-5.854,3.56v4.336h3.692v-4.336A4.021,4.021,0,0,0,395.777,166.858Z" transform="translate(-377.972 -142.355)" fill="#e96f4e"/>
        <path id="Trazado_35485" data-name="Trazado 35485" d="M395.811,153.34h-6.625a41.279,41.279,0,0,1-6.562,12.473c-2.663,3.462-6.861,7.855-11.6,7.763a2.633,2.633,0,0,0,2.484,1.765h22.313a2.633,2.633,0,0,0,2.634-2.634V155.974A2.642,2.642,0,0,0,395.811,153.34Z" transform="translate(-370.859 -138.313)" fill="#f4ad56" opacity="0.4"/>
      </g>
      <g id="Grupo_33558" data-name="Grupo 33558" transform="translate(99.181 251.424)">
        <rect id="Rectángulo_4470" data-name="Rectángulo 4470" width="5.331" height="3.755" transform="translate(35.519 6.516) rotate(-122.935)" fill="#f4ad56"/>
        <rect id="Rectángulo_4471" data-name="Rectángulo 4471" width="5.331" height="3.755" transform="translate(31.616 9.043) rotate(-122.935)" fill="#f4ad56"/>
        <rect id="Rectángulo_4472" data-name="Rectángulo 4472" width="1.357" height="3.755" transform="translate(35.517 6.512) rotate(-122.935)" fill="#f6c37b" opacity="0.5"/>
        <rect id="Rectángulo_4473" data-name="Rectángulo 4473" width="1.357" height="3.755" transform="translate(31.617 9.044) rotate(-122.935)" fill="#f6c37b" opacity="0.5"/>
        <rect id="Rectángulo_4474" data-name="Rectángulo 4474" width="4.164" height="32.624" transform="translate(13.493 24.682) rotate(-122.935)" fill="#f4ad56"/>
        <path id="Trazado_35486" data-name="Trazado 35486" d="M123.592,396.3h0a.317.317,0,0,0,.443.092l26.85-17.39a.317.317,0,0,0,.092-.443h0a.317.317,0,0,0-.443-.092l-26.85,17.39A.322.322,0,0,0,123.592,396.3Z" transform="translate(-112.177 -372.75)" fill="#f6c37b" opacity="0.5"/>
        <g id="Grupo_33557" data-name="Grupo 33557" transform="translate(0 18.57)">
          <path id="Trazado_35487" data-name="Trazado 35487" d="M107.208,402.059a7.51,7.51,0,1,1-2.22,10.386A7.517,7.517,0,0,1,107.208,402.059Zm2.1,3.249a3.638,3.638,0,1,0,5.032,1.075A3.64,3.64,0,0,0,109.313,405.308Z" transform="translate(-103.781 -400.854)" fill="#f4ad56"/>
        </g>
        <path id="Trazado_35488" data-name="Trazado 35488" d="M111.726,407.617a3.992,3.992,0,1,0,5.521,1.179A4,4,0,0,0,111.726,407.617Zm.19.293a3.638,3.638,0,1,1-1.075,5.032A3.64,3.64,0,0,1,111.916,407.91Z" transform="translate(-106.384 -384.886)" fill="#f6c37b" opacity="0.5"/>
      </g>
      <g id="Grupo_33559" data-name="Grupo 33559" transform="translate(259.182 252.642)">
        <path id="Trazado_35489" data-name="Trazado 35489" d="M426.687,381.894h-39.07a5.607,5.607,0,0,1-5.607-5.607h0a5.607,5.607,0,0,1,5.607-5.607h39.07a5.607,5.607,0,0,1,5.607,5.607h0A5.61,5.61,0,0,1,426.687,381.894Z" transform="translate(-382.01 -370.68)" fill="#fff"/>
        <path id="Trazado_35490" data-name="Trazado 35490" d="M393.7,380.983h0a1.465,1.465,0,0,1-1.466-1.466h0a1.465,1.465,0,0,1,1.466-1.466h0a1.465,1.465,0,0,1,1.466,1.466h0A1.473,1.473,0,0,1,393.7,380.983Zm5.82-1.466h0a1.465,1.465,0,0,0-1.466-1.466h0a1.465,1.465,0,0,0-1.466,1.466h0a1.465,1.465,0,0,0,1.466,1.466h0A1.465,1.465,0,0,0,399.516,379.516Zm4.353,0h0a1.465,1.465,0,0,0-1.466-1.466h0a1.465,1.465,0,0,0-1.466,1.466h0a1.465,1.465,0,0,0,1.466,1.466h0A1.465,1.465,0,0,0,403.869,379.516Zm4.353,0h0a1.465,1.465,0,0,0-1.466-1.466h0a1.465,1.465,0,0,0-1.466,1.466h0a1.465,1.465,0,0,0,1.466,1.466h0A1.465,1.465,0,0,0,408.223,379.516Zm4.353,0h0a1.465,1.465,0,0,0-1.466-1.466h0a1.465,1.465,0,0,0-1.466,1.466h0a1.465,1.465,0,0,0,1.466,1.466h0A1.465,1.465,0,0,0,412.576,379.516Zm4.359,0h0a1.465,1.465,0,0,0-1.466-1.466h0A1.465,1.465,0,0,0,414,379.516h0a1.465,1.465,0,0,0,1.466,1.466h0A1.465,1.465,0,0,0,416.935,379.516Zm4.353,0h0a1.465,1.465,0,0,0-1.466-1.466h0a1.465,1.465,0,0,0-1.466,1.466h0a1.465,1.465,0,0,0,1.466,1.466h0A1.465,1.465,0,0,0,421.288,379.516Z" transform="translate(-386.353 -373.812)" fill="#d82366"/>
      </g>
      <path id="Trazado_35491" data-name="Trazado 35491" d="M77.131,209.586s.725-9.926,10.167-9.926,10.656,9.926,10.656,9.926,12.105-4.359,16.223,10.167H62.6S61.15,211.035,77.131,209.586Z" transform="translate(12.911 -45.366)" fill="#fff"/>
      <path id="Trazado_35492" data-name="Trazado 35492" d="M408.053,270.576s1.012-13.836,14.175-13.836,14.848,13.836,14.848,13.836,16.873-6.073,22.612,14.175H387.8C387.8,284.746,385.78,272.6,408.053,270.576Z" transform="translate(-125.27 -69.622)" fill="#fff"/>
      <g id="Grupo_33573" data-name="Grupo 33573" transform="translate(191.168 212.784)">
        <g id="Grupo_33560" data-name="Grupo 33560" transform="translate(1.61)">
          <path id="Trazado_35493" data-name="Trazado 35493" d="M269.381,307.052h0a2.851,2.851,0,0,1-2.841-2.841h0a2.851,2.851,0,0,1,2.841-2.841h0a2.851,2.851,0,0,1,2.841,2.841h0A2.854,2.854,0,0,1,269.381,307.052Z" transform="translate(-266.54 -301.37)" fill="#18a5be"/>
          <path id="Trazado_35494" data-name="Trazado 35494" d="M271.055,301.38a3.146,3.146,0,0,0-.575.058,2.835,2.835,0,0,1,0,5.555,2.708,2.708,0,0,0,.575.057,2.835,2.835,0,1,0,0-5.67Z" transform="translate(-268.214 -301.374)" fill="#43b4b7"/>
        </g>
        <g id="Grupo_33561" data-name="Grupo 33561" transform="translate(0 4.302)">
          <path id="Trazado_35495" data-name="Trazado 35495" d="M266.581,314.532h0a2.851,2.851,0,0,1-2.841-2.841h0a2.851,2.851,0,0,1,2.841-2.841h0a2.851,2.851,0,0,1,2.841,2.841h0A2.854,2.854,0,0,1,266.581,314.532Z" transform="translate(-263.74 -308.85)" fill="#18a5be"/>
          <path id="Trazado_35496" data-name="Trazado 35496" d="M268.255,308.86a3.144,3.144,0,0,0-.575.058,2.835,2.835,0,0,1,0,5.555,2.706,2.706,0,0,0,.575.058,2.835,2.835,0,1,0,0-5.67Z" transform="translate(-265.414 -308.854)" fill="#43b4b7"/>
        </g>
        <g id="Grupo_33562" data-name="Grupo 33562" transform="translate(0.477 8.983)">
          <path id="Trazado_35497" data-name="Trazado 35497" d="M267.411,322.672h0a2.851,2.851,0,0,1-2.841-2.841h0a2.851,2.851,0,0,1,2.841-2.841h0a2.851,2.851,0,0,1,2.841,2.841h0A2.851,2.851,0,0,1,267.411,322.672Z" transform="translate(-264.57 -316.99)" fill="#18a5be"/>
          <path id="Trazado_35498" data-name="Trazado 35498" d="M269.085,317a3.149,3.149,0,0,0-.575.057,2.835,2.835,0,0,1,0,5.555,2.71,2.71,0,0,0,.575.058,2.835,2.835,0,1,0,0-5.67Z" transform="translate(-266.244 -316.994)" fill="#43b4b7"/>
        </g>
        <g id="Grupo_33563" data-name="Grupo 33563" transform="translate(2.502 12.91)">
          <path id="Trazado_35499" data-name="Trazado 35499" d="M270.931,329.5h0a2.851,2.851,0,0,1-2.841-2.841h0a2.851,2.851,0,0,1,2.841-2.841h0a2.851,2.851,0,0,1,2.841,2.841h0A2.847,2.847,0,0,1,270.931,329.5Z" transform="translate(-268.09 -323.82)" fill="#18a5be"/>
          <path id="Trazado_35500" data-name="Trazado 35500" d="M272.605,323.83a3.144,3.144,0,0,0-.575.057,2.835,2.835,0,0,1,0,5.555,2.708,2.708,0,0,0,.575.058,2.835,2.835,0,1,0,0-5.67Z" transform="translate(-269.764 -323.824)" fill="#43b4b7"/>
        </g>
        <g id="Grupo_33564" data-name="Grupo 33564" transform="translate(5.676 16.545)">
          <path id="Trazado_35501" data-name="Trazado 35501" d="M276.451,335.822h0a2.851,2.851,0,0,1-2.841-2.841h0a2.851,2.851,0,0,1,2.841-2.841h0a2.851,2.851,0,0,1,2.841,2.841h0A2.854,2.854,0,0,1,276.451,335.822Z" transform="translate(-273.61 -330.14)" fill="#18a5be"/>
          <path id="Trazado_35502" data-name="Trazado 35502" d="M278.125,330.15a3.146,3.146,0,0,0-.575.058,2.835,2.835,0,0,1,0,5.555,2.708,2.708,0,0,0,.575.058,2.835,2.835,0,1,0,0-5.67Z" transform="translate(-275.284 -330.144)" fill="#43b4b7"/>
        </g>
        <g id="Grupo_33565" data-name="Grupo 33565" transform="translate(9.477 18.989)">
          <path id="Trazado_35503" data-name="Trazado 35503" d="M283.061,340.072h0a2.851,2.851,0,0,1-2.841-2.841h0a2.851,2.851,0,0,1,2.841-2.841h0a2.851,2.851,0,0,1,2.841,2.841h0A2.851,2.851,0,0,1,283.061,340.072Z" transform="translate(-280.22 -334.39)" fill="#18a5be"/>
          <path id="Trazado_35504" data-name="Trazado 35504" d="M284.735,334.4a3.147,3.147,0,0,0-.575.057,2.835,2.835,0,0,1,0,5.555,2.711,2.711,0,0,0,.575.058,2.835,2.835,0,1,0,0-5.67Z" transform="translate(-281.894 -334.394)" fill="#43b4b7"/>
        </g>
        <g id="Grupo_33566" data-name="Grupo 33566" transform="translate(13.146 20.311)">
          <path id="Trazado_35505" data-name="Trazado 35505" d="M289.441,342.372h0a2.851,2.851,0,0,1-2.841-2.841h0a2.851,2.851,0,0,1,2.841-2.841h0a2.851,2.851,0,0,1,2.841,2.841h0A2.854,2.854,0,0,1,289.441,342.372Z" transform="translate(-286.6 -336.69)" fill="#18a5be"/>
          <path id="Trazado_35506" data-name="Trazado 35506" d="M291.115,336.7a3.144,3.144,0,0,0-.575.058,2.835,2.835,0,0,1,0,5.555,2.711,2.711,0,0,0,.575.057,2.835,2.835,0,1,0,0-5.67Z" transform="translate(-288.274 -336.694)" fill="#43b4b7"/>
        </g>
        <g id="Grupo_33567" data-name="Grupo 33567" transform="translate(17.735 19.69)">
          <path id="Trazado_35507" data-name="Trazado 35507" d="M297.421,341.292h0a2.851,2.851,0,0,1-2.841-2.841h0a2.851,2.851,0,0,1,2.841-2.841h0a2.851,2.851,0,0,1,2.841,2.841h0A2.854,2.854,0,0,1,297.421,341.292Z" transform="translate(-294.58 -335.61)" fill="#18a5be"/>
          <path id="Trazado_35508" data-name="Trazado 35508" d="M299.1,335.62a3.146,3.146,0,0,0-.575.057,2.835,2.835,0,0,1,0,5.555,2.708,2.708,0,0,0,.575.057,2.835,2.835,0,1,0,0-5.67Z" transform="translate(-296.254 -335.614)" fill="#43b4b7"/>
        </g>
        <g id="Grupo_33568" data-name="Grupo 33568" transform="translate(21.939 18.051)">
          <path id="Trazado_35509" data-name="Trazado 35509" d="M304.731,338.442h0a2.851,2.851,0,0,1-2.841-2.841h0a2.851,2.851,0,0,1,2.841-2.841h0a2.851,2.851,0,0,1,2.841,2.841h0A2.847,2.847,0,0,1,304.731,338.442Z" transform="translate(-301.89 -332.76)" fill="#18a5be"/>
          <path id="Trazado_35510" data-name="Trazado 35510" d="M306.405,332.77a3.144,3.144,0,0,0-.575.057,2.835,2.835,0,0,1,0,5.555,2.712,2.712,0,0,0,.575.057,2.835,2.835,0,1,0,0-5.67Z" transform="translate(-303.564 -332.764)" fill="#43b4b7"/>
        </g>
        <g id="Grupo_33569" data-name="Grupo 33569" transform="translate(24.78 14.227)">
          <path id="Trazado_35511" data-name="Trazado 35511" d="M309.671,331.792h0a2.851,2.851,0,0,1-2.841-2.841h0a2.851,2.851,0,0,1,2.841-2.841h0a2.851,2.851,0,0,1,2.841,2.841h0A2.858,2.858,0,0,1,309.671,331.792Z" transform="translate(-306.83 -326.11)" fill="#18a5be"/>
          <path id="Trazado_35512" data-name="Trazado 35512" d="M311.345,326.12a3.147,3.147,0,0,0-.575.057,2.835,2.835,0,0,1,0,5.555,2.708,2.708,0,0,0,.575.058,2.835,2.835,0,1,0,0-5.67Z" transform="translate(-308.504 -326.114)" fill="#43b4b7"/>
        </g>
        <g id="Grupo_33570" data-name="Grupo 33570" transform="translate(26.689 9.977)">
          <path id="Trazado_35513" data-name="Trazado 35513" d="M312.991,324.4h0a2.851,2.851,0,0,1-2.841-2.841h0a2.851,2.851,0,0,1,2.841-2.841h0a2.851,2.851,0,0,1,2.841,2.841h0A2.847,2.847,0,0,1,312.991,324.4Z" transform="translate(-310.15 -318.72)" fill="#18a5be"/>
          <path id="Trazado_35514" data-name="Trazado 35514" d="M314.665,318.73a3.146,3.146,0,0,0-.575.058,2.835,2.835,0,0,1,0,5.555,2.708,2.708,0,0,0,.575.058,2.835,2.835,0,1,0,0-5.67Z" transform="translate(-311.824 -318.724)" fill="#43b4b7"/>
        </g>
        <g id="Grupo_33571" data-name="Grupo 33571" transform="translate(27.04 5.388)">
          <path id="Trazado_35515" data-name="Trazado 35515" d="M313.6,316.422h0a2.851,2.851,0,0,1-2.841-2.841h0a2.851,2.851,0,0,1,2.841-2.841h0a2.851,2.851,0,0,1,2.841,2.841h0A2.851,2.851,0,0,1,313.6,316.422Z" transform="translate(-310.76 -310.74)" fill="#18a5be"/>
          <path id="Trazado_35516" data-name="Trazado 35516" d="M315.275,310.75a3.141,3.141,0,0,0-.575.058,2.835,2.835,0,0,1,0,5.555,2.71,2.71,0,0,0,.575.058,2.835,2.835,0,1,0,0-5.67Z" transform="translate(-312.434 -310.744)" fill="#43b4b7"/>
        </g>
        <g id="Grupo_33572" data-name="Grupo 33572" transform="translate(26.465 0.575)">
          <path id="Trazado_35517" data-name="Trazado 35517" d="M312.6,308.052h0a2.851,2.851,0,0,1-2.841-2.841h0a2.851,2.851,0,0,1,2.841-2.841h0a2.851,2.851,0,0,1,2.841,2.841h0A2.847,2.847,0,0,1,312.6,308.052Z" transform="translate(-309.76 -302.37)" fill="#18a5be"/>
          <path id="Trazado_35518" data-name="Trazado 35518" d="M314.275,302.38a3.146,3.146,0,0,0-.575.057,2.835,2.835,0,0,1,0,5.555,2.712,2.712,0,0,0,.575.057,2.835,2.835,0,1,0,0-5.67Z" transform="translate(-311.434 -302.374)" fill="#43b4b7"/>
        </g>
      </g>
      <g id="Grupo_33580" data-name="Grupo 33580" transform="translate(270.096 184.323)">
        <g id="Grupo_33574" data-name="Grupo 33574" transform="translate(0 2.962)">
          <path id="Trazado_35519" data-name="Trazado 35519" d="M403.008,257.9l.006.236a.9.9,0,0,1-.868.914l-.236.006a.9.9,0,0,1-.914-.868l-.006-.236a.9.9,0,0,1,.868-.914l.236-.006A.893.893,0,0,1,403.008,257.9Z" transform="translate(-400.99 -257.03)" fill="#18a5be"/>
          <path id="Trazado_35520" data-name="Trazado 35520" d="M400.99,258.075a.855.855,0,0,0,.029.207,1.014,1.014,0,0,1,1.984-.046,1.257,1.257,0,0,0,.017-.207,1.015,1.015,0,0,0-2.03.046Z" transform="translate(-400.99 -257.034)" fill="#43b4b7"/>
        </g>
        <g id="Grupo_33575" data-name="Grupo 33575" transform="translate(1.547 3.502)">
          <path id="Trazado_35521" data-name="Trazado 35521" d="M405.7,258.838l.006.236a.9.9,0,0,1-.868.914l-.236.006a.9.9,0,0,1-.914-.868l-.006-.236a.9.9,0,0,1,.868-.914l.236-.006A.889.889,0,0,1,405.7,258.838Z" transform="translate(-403.679 -257.969)" fill="#18a5be"/>
          <path id="Trazado_35522" data-name="Trazado 35522" d="M403.68,259a.855.855,0,0,0,.029.207,1.014,1.014,0,0,1,1.984-.046,1.257,1.257,0,0,0,.017-.207,1.015,1.015,0,0,0-2.03.046Z" transform="translate(-403.679 -257.969)" fill="#43b4b7"/>
        </g>
        <g id="Grupo_33576" data-name="Grupo 33576" transform="translate(3.209 3.29)">
          <path id="Trazado_35523" data-name="Trazado 35523" d="M408.588,258.468l.006.236a.9.9,0,0,1-.868.914l-.236.006a.9.9,0,0,1-.914-.868l-.006-.236a.9.9,0,0,1,.868-.914l.236-.006A.893.893,0,0,1,408.588,258.468Z" transform="translate(-406.57 -257.6)" fill="#18a5be"/>
          <path id="Trazado_35524" data-name="Trazado 35524" d="M406.57,258.635a.859.859,0,0,0,.029.207,1.014,1.014,0,0,1,1.984-.046,1.26,1.26,0,0,0,.017-.207,1.015,1.015,0,0,0-2.03.046Z" transform="translate(-406.57 -257.6)" fill="#43b4b7"/>
        </g>
        <g id="Grupo_33577" data-name="Grupo 33577" transform="translate(4.589 2.536)">
          <path id="Trazado_35525" data-name="Trazado 35525" d="M411,257.158l.006.236a.9.9,0,0,1-.868.914l-.236.006a.9.9,0,0,1-.914-.868l-.006-.236a.9.9,0,0,1,.868-.914l.236-.006A.9.9,0,0,1,411,257.158Z" transform="translate(-408.974 -256.289)" fill="#18a5be"/>
          <path id="Trazado_35526" data-name="Trazado 35526" d="M408.97,257.325a.856.856,0,0,0,.029.207,1.014,1.014,0,0,1,1.984-.046,1.26,1.26,0,0,0,.017-.207,1.015,1.015,0,0,0-2.03.046Z" transform="translate(-408.97 -256.289)" fill="#43b4b7"/>
        </g>
        <g id="Grupo_33578" data-name="Grupo 33578" transform="translate(5.86 1.374)">
          <path id="Trazado_35527" data-name="Trazado 35527" d="M413.2,255.138l.006.236a.9.9,0,0,1-.868.914l-.236.006a.9.9,0,0,1-.914-.868l-.006-.236a.9.9,0,0,1,.868-.914l.236-.006A.892.892,0,0,1,413.2,255.138Z" transform="translate(-411.179 -254.269)" fill="#18a5be"/>
          <path id="Trazado_35528" data-name="Trazado 35528" d="M411.18,255.3a.856.856,0,0,0,.029.207,1.014,1.014,0,0,1,1.984-.046,1.257,1.257,0,0,0,.017-.207,1.015,1.015,0,0,0-2.03.046Z" transform="translate(-411.179 -254.269)" fill="#43b4b7"/>
        </g>
        <g id="Grupo_33579" data-name="Grupo 33579" transform="translate(6.699)">
          <path id="Trazado_35529" data-name="Trazado 35529" d="M414.658,252.748l.006.236a.9.9,0,0,1-.868.914l-.236.006a.9.9,0,0,1-.914-.868l-.006-.236a.9.9,0,0,1,.868-.914l.236-.006A.889.889,0,0,1,414.658,252.748Z" transform="translate(-412.639 -251.879)" fill="#18a5be"/>
          <path id="Trazado_35530" data-name="Trazado 35530" d="M412.64,252.915a.857.857,0,0,0,.029.207,1.014,1.014,0,0,1,1.984-.046,1.26,1.26,0,0,0,.017-.207,1.015,1.015,0,0,0-2.03.046Z" transform="translate(-412.639 -251.879)" fill="#43b4b7"/>
        </g>
      </g>
      <g id="Grupo_33587" data-name="Grupo 33587" transform="translate(217.91 300.356)">
        <g id="Grupo_33581" data-name="Grupo 33581" transform="translate(0 8.383)">
          <path id="Trazado_35531" data-name="Trazado 35531" d="M311.834,468.339l.477.265a.888.888,0,0,1,.345,1.213l-.264.477a.889.889,0,0,1-1.213.345l-.477-.265a.888.888,0,0,1-.345-1.213l.265-.477A.9.9,0,0,1,311.834,468.339Z" transform="translate(-310.242 -468.228)" fill="#18a5be"/>
          <path id="Trazado_35532" data-name="Trazado 35532" d="M311.019,470.574a1.04,1.04,0,0,0,.219.092,1.166,1.166,0,0,1,1.11-2,1.192,1.192,0,0,0-.2-.138,1.167,1.167,0,0,0-1.133,2.042Z" transform="translate(-310.318 -468.296)" fill="#43b4b7"/>
        </g>
        <g id="Grupo_33582" data-name="Grupo 33582" transform="translate(1.438 7.16)">
          <path id="Trazado_35533" data-name="Trazado 35533" d="M314.334,466.216l.477.265a.889.889,0,0,1,.345,1.213l-.265.477a.888.888,0,0,1-1.213.345l-.477-.265a.888.888,0,0,1-.345-1.213l.265-.477A.889.889,0,0,1,314.334,466.216Z" transform="translate(-312.742 -466.102)" fill="#18a5be"/>
          <path id="Trazado_35534" data-name="Trazado 35534" d="M313.511,468.454a1.037,1.037,0,0,0,.219.092,1.166,1.166,0,0,1,1.11-2,1.193,1.193,0,0,0-.2-.138,1.167,1.167,0,0,0-1.133,2.041Z" transform="translate(-312.816 -466.172)" fill="#43b4b7"/>
        </g>
        <g id="Grupo_33583" data-name="Grupo 33583" transform="translate(2.197 5.384)">
          <path id="Trazado_35535" data-name="Trazado 35535" d="M315.654,463.127l.477.265a.888.888,0,0,1,.345,1.213l-.265.477a.888.888,0,0,1-1.213.345l-.477-.264a.889.889,0,0,1-.345-1.213l.265-.477A.9.9,0,0,1,315.654,463.127Z" transform="translate(-314.062 -463.014)" fill="#18a5be"/>
          <path id="Trazado_35536" data-name="Trazado 35536" d="M314.839,465.364a1.037,1.037,0,0,0,.219.092,1.166,1.166,0,0,1,1.11-2,1.2,1.2,0,0,0-.2-.138,1.167,1.167,0,0,0-1.133,2.042Z" transform="translate(-314.138 -463.083)" fill="#43b4b7"/>
        </g>
        <g id="Grupo_33584" data-name="Grupo 33584" transform="translate(2.254 3.571)">
          <path id="Trazado_35537" data-name="Trazado 35537" d="M315.754,459.976l.477.264a.889.889,0,0,1,.345,1.213l-.265.477a.888.888,0,0,1-1.213.345l-.477-.265a.888.888,0,0,1-.345-1.213l.265-.477A.891.891,0,0,1,315.754,459.976Z" transform="translate(-314.162 -459.862)" fill="#18a5be"/>
          <path id="Trazado_35538" data-name="Trazado 35538" d="M314.939,462.214a1.037,1.037,0,0,0,.219.092,1.166,1.166,0,0,1,1.11-2,1.194,1.194,0,0,0-.2-.138,1.167,1.167,0,0,0-1.133,2.042Z" transform="translate(-314.238 -459.932)" fill="#43b4b7"/>
        </g>
        <g id="Grupo_33585" data-name="Grupo 33585" transform="translate(1.84 1.637)">
          <path id="Trazado_35539" data-name="Trazado 35539" d="M315.034,456.609l.477.265a.888.888,0,0,1,.345,1.213l-.265.477a.888.888,0,0,1-1.213.345l-.477-.265a.888.888,0,0,1-.345-1.213l.265-.477A.9.9,0,0,1,315.034,456.609Z" transform="translate(-313.442 -456.498)" fill="#18a5be"/>
          <path id="Trazado_35540" data-name="Trazado 35540" d="M314.219,458.844a1.038,1.038,0,0,0,.219.092,1.166,1.166,0,0,1,1.11-2,1.2,1.2,0,0,0-.2-.138,1.167,1.167,0,0,0-1.133,2.042Z" transform="translate(-313.518 -456.566)" fill="#43b4b7"/>
        </g>
        <g id="Grupo_33586" data-name="Grupo 33586" transform="translate(0.966)">
          <path id="Trazado_35541" data-name="Trazado 35541" d="M313.514,453.766l.477.265a.888.888,0,0,1,.345,1.213l-.264.477a.889.889,0,0,1-1.213.345l-.477-.265a.888.888,0,0,1-.345-1.213l.265-.477A.888.888,0,0,1,313.514,453.766Z" transform="translate(-311.922 -453.652)" fill="#18a5be"/>
          <path id="Trazado_35542" data-name="Trazado 35542" d="M312.7,456a1.034,1.034,0,0,0,.219.092,1.166,1.166,0,0,1,1.11-2,1.194,1.194,0,0,0-.2-.138A1.167,1.167,0,0,0,312.7,456Z" transform="translate(-311.997 -453.722)" fill="#43b4b7"/>
        </g>
      </g>
      <g id="Grupo_33588" data-name="Grupo 33588" transform="translate(80.176 82.693)">
        <path id="Unión_1" data-name="Unión 1" d="M49.094,29.886H0C3.341,16.643,22.065,16.441,22.065,16.441c3.8-9.422,12.116-10.321,18.526-9.37C42.658,3.487,46.421,0,53.246,0,67.289,0,69.031,13.451,69.031,13.451s24.181-.3,24.181,16.436Z" transform="translate(0 0)" fill="#85f"/>
      </g>
      <g id="Grupo_33589" data-name="Grupo 33589" transform="translate(306.625 102.602)">
        <path id="Unión_2" data-name="Unión 2" d="M21.7,14.7H0C0,6.469,11.9,6.619,11.9,6.619S12.749,0,19.662,0A6.741,6.741,0,0,1,25.89,3.482c3.152-.467,7.239-.023,9.109,4.61,0,0,9.213.1,10.857,6.613Z" fill="#85f"/>
      </g>
      <g id="Grupo_33590" data-name="Grupo 33590" transform="translate(237.076 155.723)">
        <path id="Trazado_35547" data-name="Trazado 35547" d="M343.57,204.138c0,1.616,0,4.394,7.131,3.939,2.185-.138,3.968-1.311,3.968-2.927s-1.777-2.927-3.968-2.927S343.57,201.556,343.57,204.138Z" transform="translate(-343.57 -202.145)" fill="#a176ff"/>
      </g>
      <g id="Grupo_33592" data-name="Grupo 33592" transform="translate(108.965 235.212)">
        <path id="Trazado_35549" data-name="Trazado 35549" d="M128.28,342.084c-.564-1.518-1.783-2.231-3.554-1.288a6.609,6.609,0,0,0-2.369,2.565,8.108,8.108,0,0,0-1.5,5.285,4.915,4.915,0,0,0,2.22,3.324,2.735,2.735,0,0,0,1.633.495,3.045,3.045,0,0,0,1.679-.817,16.959,16.959,0,0,0,2.835-3.376,4.34,4.34,0,0,0,.949-2.03C130.292,344.66,128.8,343.482,128.28,342.084Z" transform="translate(-120.795 -340.371)" fill="#a176ff"/>
      </g>
      <g id="Grupo_33593" data-name="Grupo 33593" transform="translate(107.11 226.438)">
        <path id="Trazado_35550" data-name="Trazado 35550" d="M118.651,325.537a1.672,1.672,0,0,0-.794.552,1.617,1.617,0,0,0-.2.707,13.846,13.846,0,0,0-.086,1.541,2.022,2.022,0,0,0,.495,1.57,2.481,2.481,0,0,0,2.277.121,2.21,2.21,0,0,0,1.167-.6,1.889,1.889,0,0,0,.334-.874c.184-1.029.753-2.588.127-3.123S119.744,325.088,118.651,325.537Z" transform="translate(-117.57 -325.113)" fill="#a176ff"/>
      </g>
      <g id="Grupo_33594" data-name="Grupo 33594" transform="translate(306.906 219.473)">
        <path id="Trazado_35551" data-name="Trazado 35551" d="M471.015,314.473a3.327,3.327,0,0,0-.656-.972,2,2,0,0,0-2.841.2,4.233,4.233,0,0,0-.673,1.512c-1.34,4.56-2.68,9.5-1.2,13.934.184.541.489,1.139,1.035,1.219.661.1,1.179-.6,1.512-1.219C470.475,324.882,473.31,319.177,471.015,314.473Z" transform="translate(-465 -313.002)" fill="#a176ff"/>
      </g>
      <g id="Grupo_33595" data-name="Grupo 33595" transform="translate(155.939 130.703)">
        <path id="Trazado_35552" data-name="Trazado 35552" d="M213.194,159.139c-4.135-.558-10.714-1.346-10.714,2,0,1.265,5.837,2.479,6.8,2.709a77.7,77.7,0,0,1,8.7,2.864c5.417,2,9.753-.7,5.463-3.715A21.974,21.974,0,0,0,213.194,159.139Z" transform="translate(-202.48 -158.637)" fill="#bea0ff"/>
      </g>
      <g id="Grupo_33596" data-name="Grupo 33596" transform="translate(271.285 297.013)">
        <path id="Trazado_35553" data-name="Trazado 35553" d="M416.751,455.108c3.893-1.5,10.041-3.974,8.43-6.907-.61-1.1-6.308.638-7.269.9a77.935,77.935,0,0,1-9.006,1.679c-5.71.851-8.218,5.3-3,5.889A22.105,22.105,0,0,0,416.751,455.108Z" transform="translate(-403.057 -447.839)" fill="#bea0ff"/>
      </g>
    </g>
  </g>
</svg>
