<svg width="16" height="16" xmlns="http://www.w3.org/2000/svg">

 <g>
  <title>background</title>
  <rect fill="none" id="canvas_background" height="402" width="582" y="-1" x="-1"/>
 </g>
 <g>
  <title>Layer 1</title>
  <g id="Grupo_40158">
   <path fill-rule="evenodd" fill="#ffffff" id="Trazado_42785" d="m8.492005,13.005c-1.02839,0.0002 -2.03437,-0.3005 -2.894,-0.865l-2.018,0.641l0.651,-1.944c-0.65194,-0.88836 -1.00237,-1.96209 -1,-3.064c-0.00012,-0.16715 0.01023,-0.33415 0.031,-0.5c0.3036,-2.893 2.89495,-4.99212 5.78795,-4.68852c2.51145,0.26356 4.48245,2.27251 4.69805,4.78852c0.01,0.139 0.01,0.277 0.01,0.405c-0.0121,2.897 -2.36696,5.2375 -5.264,5.232l-0.002,-0.005zm2.872,-3.973c-0.16,-0.075 -0.907,-0.448 -1.046,-0.5c-0.139,-0.052 -0.246,-0.075 -0.352,0.085c-0.1504,0.2036 -0.31094,0.39951 -0.481,0.587c-0.1,0.107 -0.181,0.118 -0.331,0.043c-0.45604,-0.17551 -0.87624,-0.43272 -1.24,-0.759c-0.33564,-0.30401 -0.62384,-0.65659 -0.855,-1.046c-0.085,-0.161 -0.01,-0.235 0.065,-0.32c0.08624,-0.08172 0.16489,-0.17108 0.235,-0.267c0.02158,-0.01869 0.04014,-0.04062 0.055,-0.065c0.03731,-0.05805 0.07072,-0.11851 0.1,-0.181c0.04593,-0.08409 0.04209,-0.18658 -0.01,-0.267c-0.032,-0.075 -0.342,-0.833 -0.47,-1.132c-0.128,-0.299 -0.257,-0.256 -0.342,-0.256c-0.085,0 -0.192,-0.011 -0.3,-0.011c-0.15691,0.00026 -0.30548,0.07069 -0.405,0.192c-0.49088,0.45196 -0.67196,1.14931 -0.463,1.783c0.11699,0.3819 0.30121,0.73985 0.544,1.057c0.63517,0.99869 1.54292,1.7947 2.616,2.294c1.57,0.609 1.57,0.405 1.847,0.384c0.43416,-0.0806 0.81206,-0.34542 1.036,-0.726c0.10273,-0.22773 0.13276,-0.48159 0.086,-0.727c-0.032,-0.053 -0.139,-0.1 -0.289,-0.171l0,0.003zm3.385,-1.409c-0.1279,-3.45328 -3.031,-6.149054 -6.48425,-6.02118c-3.22893,0.11956 -5.835766,2.67806 -6.01575,5.90418c-0.010005,0.0873 -0.01468,0.17513 -0.014,0.263c0.001135,1.13338 0.312374,2.24485 0.9,3.214l-1.135,3.335l3.47,-1.1c3.04328,1.6625 6.8581,0.5432 8.5206,-2.5c0.4944,-0.90502 0.7583,-1.91784 0.7684,-2.949c0,-0.054 -0.01,-0.1 -0.01,-0.15l0,0.004z"/>
   <rect fill="none" id="Rectángulo_5883" height="16" width="16" y="-17.062499" x="2"/>
  </g>
 </g>
</svg>