<svg xmlns="http://www.w3.org/2000/svg" width="176" height="176" viewBox="0 0 176 176">
  <g id="Grupo_35996" data-name="Grupo 35996" transform="translate(-75 -169)">
    <g id="Grupo_35995" data-name="Grupo 35995" transform="translate(-3.7 138.445)">
      <path id="Trazado_39923" data-name="Trazado 39923" d="M182.58,734.185s-31.831-.923-28.669,5.229-46.587,2-52.068,7.844,2.951,12.611,70.618,14,80.526-6.459,80.315-14.149S218.206,732.8,182.58,734.185Z" transform="translate(-10.075 -555.159)" fill="#6d31ff"/>
      <path id="Trazado_39924" data-name="Trazado 39924" d="M325.121,184.481l-.1.342a.412.412,0,0,1-.508.281l-2.7-.562a.412.412,0,0,1-.281-.508l.212-.736a.412.412,0,0,1,.508-.281l2.583.956A.412.412,0,0,1,325.121,184.481Z" transform="translate(-184.532 -120.31)" fill="#e08d56"/>
      <path id="Trazado_39925" data-name="Trazado 39925" d="M341.225,189.227l-1.273-6.2-3.1.493,2.078,8.506Z" transform="translate(-196.633 -120.327)" fill="#f7af80"/>
      <g id="Grupo_35909" data-name="Grupo 35909" transform="translate(137.179 57.251)">
        <path id="Trazado_39926" data-name="Trazado 39926" d="M328.655,159.95c-.012-.051-.376-2.316-.4-2.364-.2-.46-.655-.451-1.109-.291l-3.957.592a.89.89,0,0,0-.434.177.917.917,0,0,0-.285,1.016l2.018,5a1,1,0,0,0,.371.429,1.231,1.231,0,0,0,1.275.066l1.862-.655c1.082-.282,1.151-.841.982-1.319Z" transform="translate(-322.421 -157.195)" fill="#f7af80"/>
      </g>
      <path id="Trazado_39927" data-name="Trazado 39927" d="M313.211,217.712l1.054-2.951s4.492,3.981,7.378,3.584-4.005-19.815-4.005-19.815l5.27-2.53s5.936,15.941,5.319,25.69S313,224.036,313,224.036Z" transform="translate(-177.807 -130.569)" fill="#252430"/>
      <path id="Trazado_39928" data-name="Trazado 39928" d="M696.52,449.386l.036-.348a.406.406,0,0,0-.36-.444l-2.67-.479a.406.406,0,0,0-.444.36l-.078.75a.405.405,0,0,0,.36.444l2.711.077A.405.405,0,0,0,696.52,449.386Z" transform="translate(-477.704 -329.537)" fill="#e08d56"/>
      <path id="Trazado_39929" data-name="Trazado 39929" d="M453.3,299.2c-.124,0-.245,0-.367-.015-3.395-.278-9.414-5.327-13.646-9.1-4.718-4.206-8.849-8.417-8.891-8.459l2.244-2.2c.041.041,4.108,4.186,8.749,8.323,8.41,7.5,11.159,8.251,11.8,8.3.044,0,.089.005.134.005,2.943,0,8.8-7.534,11.9-12.724l2.7,1.608a71.461,71.461,0,0,1-4.916,7.075C459.166,296.844,455.986,299.2,453.3,299.2Z" transform="translate(-270.46 -196.41)" fill="#f2bc98"/>
      <path id="Trazado_39930" data-name="Trazado 39930" d="M560.4,291.13l-1.279.714s-5.214,9.616-7.526,10.945a5.726,5.726,0,0,0,3.445,2.888s6.7-6.452,8.229-11.672C564.39,290.2,560.4,291.13,560.4,291.13Z" transform="translate(-366.109 -205.567)" fill="#1d69d8"/>
      <path id="Trazado_39931" data-name="Trazado 39931" d="M546.837,347.013s-1.581,1.044-2.533.323c0,0,0,1.176.908,1.31,0,0,.011,1.477,1.048,1.672,0,0,.134.95,1.446.947a1.241,1.241,0,0,0,1.72,0s-.543-.134-.139-1.4S546.837,347.013,546.837,347.013Z" transform="translate(-360.352 -249.749)" fill="#1d69d8"/>
      <path id="Trazado_39932" data-name="Trazado 39932" d="M551.081,345.18s1.631,2.466,3.758,2.688l-.676,1a5.956,5.956,0,0,1-3.74-3.068Z" transform="translate(-365.181 -248.302)" fill="#1f58bb"/>
      <g id="Grupo_35941" data-name="Grupo 35941" transform="translate(183.402 43.916)">
        <path id="Trazado_39933" data-name="Trazado 39933" d="M716.183,357a15.027,15.027,0,0,1,2.53,6.113c.824,6.178-6.9,15.294-7.8,16.414l-2.422-1.95a56.335,56.335,0,0,0,3.955-5.751c2.336-3.923,3.022-6.609,2.688-8.5a30.074,30.074,0,0,0-1.686-4.427,2.959,2.959,0,0,0,2.114.344C716.783,358.988,716.183,357,716.183,357Z" transform="translate(-673.326 -301.547)" fill="#f2bc98"/>
        <path id="Trazado_39934" data-name="Trazado 39934" d="M566.49,101.019l2.017-5.478s-2.131-2.743-8.03-1.051-11.18,5.659-10.729,9.077,1.09,5.761-2.015,6.77-1.83,4.262-.7,6.286,1.505,4.3-1.717,6.281.564,5.489.106,6.487-1.668,2.163-2.447,1.38-.173-2.114,1.019-1.447c0,0-1.982-1.2-2.265.495s1.155,2.919,3.44,2.006,2.617-2.21,3.815-1.667-2.835,4.191-.229,6.511,8.767-4.854,14.228-1.587,7.653.357,7.653.357l2.242-29.5" transform="translate(-541.693 -93.939)" fill="#4c1a0a"/>
        <path id="Trazado_39935" data-name="Trazado 39935" d="M592.7,266.309s-7.119,1.926-8.807,7.306a3.1,3.1,0,0,0,.881,3.645s6.822-5.016,7.1-7.073A28.715,28.715,0,0,1,592.7,266.309Z" transform="translate(-574.83 -229.973)" fill="#1d69d8"/>
        <path id="Trazado_39936" data-name="Trazado 39936" d="M618.764,710.231l1.121,11.466,3.671.056-.228-13.4Z" transform="translate(-602.518 -578.837)" fill="#f2bc98"/>
        <g id="Grupo_35910" data-name="Grupo 35910" transform="translate(9.568 142.269)">
          <path id="Trazado_39937" data-name="Trazado 39937" d="M603.935,778.027s3.05,5.4,8.02-9.189C611.955,768.838,606.518,779.929,603.935,778.027Z" transform="translate(-600.383 -768.838)" fill="#f7b3a6"/>
          <path id="Trazado_39938" data-name="Trazado 39938" d="M599.261,780.634l.428.022-.15-5.3a4.044,4.044,0,0,1,.328-1.819s.782-3.33-1.21-4.7c0,0-4.51,13.646-8.02,9.189,0,0-.966.077-3.186,1.617,0,0-.949.508.209.974l4.268.539s2.483.806,3.644-2.3c0,0,3.412-6.77,3.527-3.083Z" transform="translate(-587.084 -768.838)" fill="#04adc5"/>
          <path id="Trazado_39939" data-name="Trazado 39939" d="M645.136,822.853l-.481.1.041.313.429.022Z" transform="translate(-632.519 -811.467)" fill="#155f69"/>
          <path id="Trazado_39940" data-name="Trazado 39940" d="M594.4,822.8a2.6,2.6,0,0,1-2.473.534l-4.268-.539c-.434-.174-.573-.355-.575-.513a1.34,1.34,0,0,0,.881.3l4.123.467a3.225,3.225,0,0,0,2.312-.253" transform="translate(-587.086 -811.02)" fill="#155f69"/>
        </g>
        <path id="Trazado_39941" data-name="Trazado 39941" d="M611.955,757.137s-4.574,13.88-8.02,9.189a30.754,30.754,0,0,0,4.193-9.517l.125-2.8S612.027,755.534,611.955,757.137Z" transform="translate(-590.814 -614.869)" fill="#f2bc98"/>
        <path id="Trazado_39942" data-name="Trazado 39942" d="M602.555,414.52c-1.049-2.043-4.439-8.749-10.95-9.451-4.8-.518-9.81,7.019-9.812,7.023-2.939,4.945-7.139,14.993,7.572,16.574l1.3.14C611.138,430.647,602.659,414.67,602.555,414.52Z" transform="translate(-571.054 -339.463)" fill="#364f6b"/>
        <path id="Trazado_39943" data-name="Trazado 39943" d="M587.754,479.475c1.053-8.909-.065-16.571-.137-27.166-.084-4.813-2.675-6.7-4.819-7.435a3.955,3.955,0,0,0-1.324-.413c-.222-.03-.436-.048-.644-.058l-3.016-5.34-.417-.738s-2.361,2.58-2.409,10.453c0,.067,0,.134,0,.2q0,.792.03,1.654c.012.329.028.665.048,1.01q.029.49.069,1c.854,10.92,6.064,28.684,6.064,28.684h0l.1,1.04" transform="translate(-567.969 -365.728)" fill="#364f6b"/>
        <path id="Trazado_39944" data-name="Trazado 39944" d="M611.294,632.11l.121,1.252c.54,3.437,2.437,9.7,2.038,12.909-.2,1.629-.331,5.152-.411,8.737l-5.2.6L604.979,635.3Z" transform="translate(-591.638 -518.663)" fill="#364f6b"/>
        <path id="Trazado_39945" data-name="Trazado 39945" d="M622.7,450.2l1.985,14.184,2.181.153.039-14.028Z" transform="translate(-605.627 -375.101)" fill="#1b2b3f" opacity="0.24"/>
        <path id="Trazado_39946" data-name="Trazado 39946" d="M677.583,441.651a18.257,18.257,0,0,1,.565,16.319l-5.4-9.966Z" transform="translate(-645.119 -368.353)" fill="#364f6b"/>
        <path id="Trazado_39947" data-name="Trazado 39947" d="M663.914,252.716s6.214,4.687,4.1,7.328-6.192,5.272-8.5,3.8-.911-12.092,2.365-12.3S663.914,252.716,663.914,252.716Z" transform="translate(-633.78 -218.299)" fill="#4c1a0a"/>
        <path id="Trazado_39948" data-name="Trazado 39948" d="M605.99,208.415s2.6,5.693,0,7.61-2.332,3.357-1.314,4.831a4.068,4.068,0,0,1,1.317-3.483C607.62,216.033,610.037,214.583,605.99,208.415Z" transform="translate(-590.823 -184.283)" fill="#6b2411"/>
        <path id="Trazado_39949" data-name="Trazado 39949" d="M633.566,103.808s5.679-4.1,8.624-2.966,6.836,6.117,6.469,8.637a7.287,7.287,0,0,0,1.785,6.265c1.494,1.589.285,4.554.236,6.393s2.769,3.586,2.619,4.855-1.729,2.1-1.058,3.263,1.274.987.859,3.8c0,0-.093-2.019-1.378-2.378a4.71,4.71,0,0,1-.422,5.161,5.272,5.272,0,0,0,.076-3.57,2.968,2.968,0,0,1-1.128,2.558c-1.3.936-.062,3.53,1.29,3.684,0,0-6.168,2.058-8.678-3.354S633.566,103.808,633.566,103.808Z" transform="translate(-614.199 -99.231)" fill="#4c1a0a"/>
        <path id="Trazado_39950" data-name="Trazado 39950" d="M700.769,310.438c-2.023-6.414-10.362-15.6-11.435-16.764l-2.287,2.108c.029.031,2.876,3.129,5.678,6.879,3.023,4.047,4.387,6.67,4.972,8.332,0,0,.751,1.153,1.73.949S700.769,310.438,700.769,310.438Z" transform="translate(-656.407 -251.57)" fill="#f2bc98"/>
        <path id="Trazado_39951" data-name="Trazado 39951" d="M632.732,247.637l-5.153-.241a10.24,10.24,0,0,0,.106-6.271l5.681.453S631.913,245.307,632.732,247.637Z" transform="translate(-609.474 -210.098)" fill="#f2bc98"/>
        <path id="Trazado_39952" data-name="Trazado 39952" d="M633.17,243.6a15.464,15.464,0,0,1,.594-2.017l-5.681-.453a9.64,9.64,0,0,1,.429,3.331C630.159,245.129,632.023,244.3,633.17,243.6Z" transform="translate(-609.872 -210.098)" fill="#dbac8c"/>
        <path id="Trazado_39953" data-name="Trazado 39953" d="M599.92,272.758c1.072-1.547,2.23-2.951,3.158-4.064,0,0,1.378-1.975,3.236-1.878s4.638-.118,5.728.665a6.116,6.116,0,0,1,1.666,1.87,40,40,0,0,1,2.555,3.454Z" transform="translate(-587.646 -230.371)" fill="#f2bc98"/>
        <path id="Trazado_39954" data-name="Trazado 39954" d="M600.78,268.771a6.136,6.136,0,0,0-1.665-1.88,2.673,2.673,0,0,0-.943-.36c-.119,1.48.079,5.837-3.083,5.69-3.135-.146-2.584-4.394-2.507-5.912a4.981,4.981,0,0,0-2.431,1.8c-3.678,4.437-11.38,14.752-2.518,19.211a13.537,13.537,0,0,1-.973,10.167s3.956,2.833,7.213,2.866c.286,0,1.168.044,1.453.068,3.246.27,8.7-1.789,8.7-1.789" transform="translate(-574.71 -229.973)" fill="#2975fa"/>
        <g id="Grupo_35911" data-name="Grupo 35911" transform="translate(10.715 17.609)">
          <circle id="Elipse_845" data-name="Elipse 845" cx="1.762" cy="1.762" r="1.762" fill="#f2bc98"/>
          <circle id="Elipse_846" data-name="Elipse 846" cx="1.034" cy="1.034" r="1.034" transform="translate(0.729 0.729)" fill="#e6b08c"/>
        </g>
        <g id="Grupo_35912" data-name="Grupo 35912" transform="translate(28.259 18.224)">
          <circle id="Elipse_847" data-name="Elipse 847" cx="1.762" cy="1.762" r="1.762" fill="#f2bc98"/>
          <circle id="Elipse_848" data-name="Elipse 848" cx="1.034" cy="1.034" r="1.034" transform="translate(0.729 0.729)" fill="#e6b08c"/>
        </g>
        <path id="Trazado_39955" data-name="Trazado 39955" d="M617.816,120.937a47.391,47.391,0,0,1,.227-6.046c.029-.226.051-.454.062-.686a8.545,8.545,0,1,0-17.071-.8,8.746,8.746,0,0,0,.05,1.415,53.135,53.135,0,0,1-.233,5.545c-.275,1.9-1.7,10.355,4.309,13.334A8.326,8.326,0,0,1,606.5,135a2.424,2.424,0,0,0,1.423.68c1.257.358,2.784.3,3.5-.422a8.332,8.332,0,0,1,1.405-1.225C618.982,131.366,617.992,122.845,617.816,120.937Z" transform="translate(-588.108 -102.816)" fill="#f2bc98"/>
        <g id="Grupo_35919" data-name="Grupo 35919" transform="translate(13.937 14.093)">
          <g id="Grupo_35917" data-name="Grupo 35917" transform="translate(0.331)">
            <g id="Grupo_35914" data-name="Grupo 35914" transform="translate(0.23 1.992)">
              <g id="Grupo_35913" data-name="Grupo 35913">
                <path id="Trazado_39956" data-name="Trazado 39956" d="M616.727,173.855a1.307,1.307,0,1,1-1.241-1.425A1.337,1.337,0,0,1,616.727,173.855Z" transform="translate(-613.348 -171.968)" fill="#2f1b11"/>
                <path id="Trazado_39957" data-name="Trazado 39957" d="M613.84,171.862s-.085-1.144-1.133-1.193-1.363-.139-1.48-.425c0,0-.006.544.4.609a1.542,1.542,0,0,1-1.155-.157,1.207,1.207,0,0,0,1.168.685C612.559,171.393,613.368,171.357,613.84,171.862Z" transform="translate(-610.474 -170.244)" fill="#2f1b11"/>
              </g>
              <path id="Trazado_39958" data-name="Trazado 39958" d="M616.388,176.447a.366.366,0,0,0-.018.493c.169.206-.137.486-.307.28a.774.774,0,0,1-.023-1,.215.215,0,0,1,.287-.061.209.209,0,0,1,.061.287Z" transform="translate(-614.731 -174.887)" fill="#fff"/>
            </g>
            <g id="Grupo_35916" data-name="Grupo 35916" transform="translate(9.162 2.3)">
              <g id="Grupo_35915" data-name="Grupo 35915">
                <path id="Trazado_39959" data-name="Trazado 39959" d="M652.846,174.571a1.307,1.307,0,1,0,1.368-1.3A1.337,1.337,0,0,0,652.846,174.571Z" transform="translate(-652.844 -172.937)" fill="#2f1b11"/>
                <path id="Trazado_39960" data-name="Trazado 39960" d="M653.03,173.071s.191-1.131,1.239-1.082,1.37-.011,1.513-.285c0,0-.044.542-.457.569a1.543,1.543,0,0,0,1.165-.049,1.207,1.207,0,0,1-1.227.573C654.349,172.723,653.547,172.613,653.03,173.071Z" transform="translate(-652.991 -171.704)" fill="#2f1b11"/>
              </g>
              <path id="Trazado_39961" data-name="Trazado 39961" d="M656.062,177.329a.366.366,0,0,0-.018.493c.169.206-.137.487-.307.28a.774.774,0,0,1-.023-1,.215.215,0,0,1,.287-.061.209.209,0,0,1,.061.287Z" transform="translate(-654.973 -175.891)" fill="#fff"/>
            </g>
            <path id="Trazado_39962" data-name="Trazado 39962" d="M612.71,161.814a5.658,5.658,0,0,0-3.328.392,2.2,2.2,0,0,1,1.87-1.39C612.712,160.67,613.038,161.244,612.71,161.814Z" transform="translate(-609.382 -160.793)" fill="#421d0d"/>
            <path id="Trazado_39963" data-name="Trazado 39963" d="M655.457,162.6a5.658,5.658,0,0,1,3.277.7A2.2,2.2,0,0,0,657,161.739C655.561,161.458,655.184,162,655.457,162.6Z" transform="translate(-645.679 -161.479)" fill="#421d0d"/>
          </g>
          <path id="Trazado_39964" data-name="Trazado 39964" d="M658.374,195.9a1.685,1.685,0,1,0,1.762-1.6A1.685,1.685,0,0,0,658.374,195.9Z" transform="translate(-647.714 -187.231)" fill="#f07c80" opacity="0.37"/>
          <path id="Trazado_39965" data-name="Trazado 39965" d="M611.179,194.667a1.685,1.685,0,1,1-1.6-1.762A1.685,1.685,0,0,1,611.179,194.667Z" transform="translate(-607.81 -186.134)" fill="#f07c80" opacity="0.37"/>
          <g id="Grupo_35918" data-name="Grupo 35918" transform="translate(4.063 11.718)">
            <path id="Trazado_39966" data-name="Trazado 39966" d="M632.276,216.388s-3.175.678-5.011.088c0,0-.325-.015-.108.211,0,0,2.074,4.075,5.231-.153C632.388,216.535,632.626,216.333,632.276,216.388Z" transform="translate(-627.082 -216.379)" fill="#352626"/>
            <path id="Trazado_39967" data-name="Trazado 39967" d="M627.494,216.97a.663.663,0,0,1-.337-.282c-.217-.226.108-.211.108-.211,1.836.59,5.011-.088,5.011-.088.35-.055.112.146.112.146q-.136.182-.27.344A7.478,7.478,0,0,1,627.494,216.97Z" transform="translate(-627.082 -216.379)" fill="#fff"/>
          </g>
        </g>
        <path id="Trazado_39968" data-name="Trazado 39968" d="M653.507,271.4a25.02,25.02,0,0,0-.513-4.041,14.025,14.025,0,0,1,5.271,1.4s4.638.843,8.643,8.432c0,0-3.555,4.091-7.34,4.774S653.6,273.6,653.507,271.4Z" transform="translate(-629.532 -230.805)" fill="#2975fa"/>
        <path id="Trazado_39969" data-name="Trazado 39969" d="M602.326,108.284s.116,3.335-2.779,4.219-3.731,1.321-4.456,2.306-1.4,2.381-4.685,2.839c0,0,.991-10.894,6.305-12S602.326,108.284,602.326,108.284Z" transform="translate(-580.137 -103.014)" fill="#4c1a0a"/>
        <path id="Trazado_39970" data-name="Trazado 39970" d="M648.6,115.906s2.574,2.11,2.487,3.014-2.323,4.151.707,5.244a1.877,1.877,0,0,1-.2-2.41,5.473,5.473,0,0,0,1.13-1.9s-.392,4.512,3.523,6.053c0,0,2.007-6.112-1.592-10.539S647.539,113.32,648.6,115.906Z" transform="translate(-625.91 -108.906)" fill="#4c1a0a"/>
        <path id="Trazado_39971" data-name="Trazado 39971" d="M630.487,107.921s.731,2.07-.87,2.3-4.406.849-3.965,2.229a1.9,1.9,0,0,1-.438,2.086s.941-.932-.516-1.927a1.576,1.576,0,0,1,.739-2.856c1.122-.115,3.307-1.4,2.4-2.448s-5.079-3.3-2.941-4.075,9.433-1.3,11.182,2-.777,3.726-.777,3.726Z" transform="translate(-606.644 -100.817)" fill="#4c1a0a"/>
        <path id="Trazado_39972" data-name="Trazado 39972" d="M659.142,104.274l-1.9,4.256S658.57,107.5,659.142,104.274Z" transform="translate(-632.882 -102.095)" fill="#6b2411"/>
        <path id="Trazado_39973" data-name="Trazado 39973" d="M583.505,106.178s-8.445-.035-11.192,4.727.326,6.441-2.178,8.852-2.959,3.435-2.082,5.026,3.209,6.947.242,7.922-3.451,4.065-1.323,5.054c0,0-1.772-2.8.716-3.7s4.24-2.041,3.662-5.669-2.843-2.987-1.111-5.964,2.536-2.228,2.411-8.789S583.505,106.178,583.505,106.178Z" transform="translate(-560.61 -103.598)" fill="#6b2411"/>
        <path id="Trazado_39974" data-name="Trazado 39974" d="M628.008,112.641s-5.044.119-5.1,1.394,1.362,1.831.626,2.341-1.669-.005-1.993,1.474c0,0,1-.505,3.507-1.665s-1.158-1.516.019-2.469A5.99,5.99,0,0,1,628.008,112.641Z" transform="translate(-604.708 -108.699)" fill="#6b2411"/>
        <path id="Trazado_39975" data-name="Trazado 39975" d="M585.813,219.644s1.4,5.129-.959,6.1-3.144,2-1.9,3.7.586,4.657-.463,5.017c0,0,3.271-.254,1.635-5.359,0,0-.861-1.314.944-2.122S588.36,224.347,585.813,219.644Z" transform="translate(-573.794 -193.145)" fill="#6b2411"/>
        <path id="Trazado_39976" data-name="Trazado 39976" d="M672.038,114.848s4.618,1.164,5.22,4.291-.218,6.051,1.6,8.663-.344,4.717,1.353,7.193.667,7.048.667,7.048a36.792,36.792,0,0,0-2.324-7.719c-1.514-3.2.061-2-1.016-6.584s-.477-5.787-1.136-7.685S673.6,115.317,672.038,114.848Z" transform="translate(-644.561 -110.44)" fill="#6b2411"/>
        <path id="Trazado_39977" data-name="Trazado 39977" d="M671.478,126.612s-.072,6.928,3.116,8.558C674.594,135.17,671.362,129.092,671.478,126.612Z" transform="translate(-644.117 -119.725)" fill="#6b2411"/>
        <path id="Trazado_39978" data-name="Trazado 39978" d="M672.524,143.326s2.909,8.258,1.24,11.442a10.893,10.893,0,0,0-.914,7.849c.455,1.83-5.348,4.271-2.657,11.532,0,0-.845-4.673,1.451-7.069,3.655-3.814,2.557-4.8,2.047-6.978s1.222-3.65,1.361-7.109C675.127,151.114,674.252,145.814,672.524,143.326Z" transform="translate(-642.54 -132.915)" fill="#6b2411"/>
        <path id="Trazado_39979" data-name="Trazado 39979" d="M687.448,218.476s2.6,5.693,0,7.61-2.332,3.357-1.314,4.831a4.068,4.068,0,0,1,1.317-3.483C689.077,226.094,691.5,224.644,687.448,218.476Z" transform="translate(-655.11 -192.224)" fill="#6b2411"/>
        <g id="Grupo_35920" data-name="Grupo 35920" transform="translate(10.919 20.168)">
          <circle id="Elipse_849" data-name="Elipse 849" cx="0.795" cy="0.795" r="0.795" fill="#04adc5"/>
          <path id="Trazado_39980" data-name="Trazado 39980" d="M596.4,189.612a.788.788,0,0,0-.205.02.791.791,0,0,1-.071,1.528.793.793,0,1,0,.277-1.549Z" transform="translate(-595.569 -189.611)" fill="#29c5d1"/>
        </g>
        <g id="Grupo_35921" data-name="Grupo 35921" transform="translate(29.278 20.82)">
          <circle id="Elipse_850" data-name="Elipse 850" cx="0.795" cy="0.795" r="0.795" fill="#04adc5"/>
          <path id="Trazado_39981" data-name="Trazado 39981" d="M683.5,192.707a.778.778,0,0,0-.205.02.791.791,0,0,1-.071,1.528.793.793,0,1,0,.277-1.549Z" transform="translate(-682.664 -192.706)" fill="#29c5d1"/>
        </g>
        <path id="Trazado_39982" data-name="Trazado 39982" d="M614.224,737.083l6.822-.707-.1,2.467-6.282.651Z" transform="translate(-598.934 -600.95)" fill="#1b2b3f"/>
        <path id="Trazado_39983" data-name="Trazado 39983" d="M708.511,708.625l2.05,11.336,3.664-.243-1.316-13.333Z" transform="translate(-673.346 -577.282)" fill="#f2bc98"/>
        <g id="Grupo_35922" data-name="Grupo 35922" transform="translate(29.641 142.188)">
          <path id="Trazado_39984" data-name="Trazado 39984" d="M698.849,777.881s3.213,5.3,7.737-9.428C706.586,768.453,701.488,779.7,698.849,777.881Z" transform="translate(-695.361 -768.453)" fill="#f7b3a6"/>
          <path id="Trazado_39985" data-name="Trazado 39985" d="M694.492,780.225l.429.009-.311-5.288a4.045,4.045,0,0,1,.272-1.828s.68-3.352-1.353-4.665c0,0-4.094,13.777-7.737,9.428,0,0-.963.106-3.135,1.713,0,0-.933.537.239.967l4.282.41s2.506.73,3.572-2.413c0,0,3.2-6.87,3.432-3.189Z" transform="translate(-682.304 -768.453)" fill="#04adc5"/>
          <path id="Trazado_39986" data-name="Trazado 39986" d="M740.358,822.292l-.478.112.05.311.429.009Z" transform="translate(-727.744 -810.943)" fill="#155f69"/>
          <path id="Trazado_39987" data-name="Trazado 39987" d="M689.635,823.841a2.6,2.6,0,0,1-2.455.609l-4.282-.41c-.44-.161-.583-.338-.59-.5a1.343,1.343,0,0,0,.889.277l4.135.341a3.226,3.226,0,0,0,2.3-.323" transform="translate(-682.306 -811.932)" fill="#155f69"/>
        </g>
        <path id="Trazado_39988" data-name="Trazado 39988" d="M706.586,757.178s-4.15,14.012-7.737,9.428a30.75,30.75,0,0,0,3.9-9.639l.04-2.8S706.61,755.573,706.586,757.178Z" transform="translate(-665.721 -614.99)" fill="#f2bc98"/>
        <path id="Trazado_39989" data-name="Trazado 39989" d="M661.07,481.81c.326-8.965-1.411-16.511-2.345-27.065-.475-4.79-3.211-6.459-5.407-7.019a3.952,3.952,0,0,0-1.353-.3c-.224-.012-.438-.012-.647-.006l-3.44-5.077-.475-.7s-2.144,2.763-1.551,10.614c.005.067.01.134.016.2q.064.79.165,1.646c.039.327.082.66.13,1q.068.486.15.993c1.739,10.815,8.376,28.1,8.376,28.1h0l.181,1.029" transform="translate(-623.813 -368.342)" fill="#364f6b"/>
        <path id="Trazado_39990" data-name="Trazado 39990" d="M695.116,630.837l.223,1.238c.818,3.381,3.218,9.466,3.08,12.7-.07,1.641.089,5.162.3,8.741l-5.129,1.022-4.509-20Z" transform="translate(-658.012 -517.659)" fill="#364f6b"/>
        <path id="Trazado_39991" data-name="Trazado 39991" d="M705.814,735.07l6.742-1.259.1,2.467-6.208,1.159Z" transform="translate(-671.217 -598.926)" fill="#1b2b3f"/>
        <path id="Trazado_39992" data-name="Trazado 39992" d="M594.023,351.857a19.51,19.51,0,0,1-1.85,13.7s14.982-.261,18.9-.249c0,0-2.031-2.9-1.248-12.717Z" transform="translate(-581.532 -297.488)" fill="#2975fa"/>
        <path id="Trazado_39993" data-name="Trazado 39993" d="M690.38,296.691s6.912,8.961,8.151,12.249c0,0-1.9,1.826-3.557,1.819,0,0-5.688-8.527-8.944-10.714A14.637,14.637,0,0,0,690.38,296.691Z" transform="translate(-655.604 -253.951)" fill="#2975fa"/>
        <path id="Trazado_39994" data-name="Trazado 39994" d="M725.84,354.9s.359,1.861-.672,2.464c0,0,1.088.448,1.558-.337,0,0,1.369.556,1.946-.328,0,0,.929.24,1.429-.974a1.241,1.241,0,0,0,.655-1.59s-.332.45-1.349-.409S725.84,354.9,725.84,354.9Z" transform="translate(-686.492 -298.799)" fill="#2975fa"/>
        <path id="Trazado_39995" data-name="Trazado 39995" d="M725.6,352.81s2.9-.563,3.922-2.443l.661,1.006a5.956,5.956,0,0,1-4.266,2.28Z" transform="translate(-686.832 -296.312)" fill="#1f58bb"/>
        <g id="Grupo_35923" data-name="Grupo 35923" transform="translate(16.668 35.522)">
          <circle id="Elipse_851" data-name="Elipse 851" cx="0.795" cy="0.795" r="0.795" fill="#04adc5"/>
          <path id="Trazado_39996" data-name="Trazado 39996" d="M623.676,262.45a.8.8,0,0,0-.205.02A.791.791,0,0,1,623.4,264a.793.793,0,1,0,.277-1.549Z" transform="translate(-622.844 -262.449)" fill="#29c5d1"/>
        </g>
        <g id="Grupo_35924" data-name="Grupo 35924" transform="translate(16.404 36.817)">
          <circle id="Elipse_852" data-name="Elipse 852" cx="0.795" cy="0.795" r="0.795" fill="#04adc5"/>
          <path id="Trazado_39997" data-name="Trazado 39997" d="M622.42,268.594a.787.787,0,0,0-.205.02.791.791,0,0,1-.071,1.528.774.774,0,0,0,.2.039.795.795,0,0,0,.074-1.588Z" transform="translate(-621.588 -268.594)" fill="#29c5d1"/>
        </g>
        <g id="Grupo_35925" data-name="Grupo 35925" transform="translate(16.073 38.276)">
          <circle id="Elipse_853" data-name="Elipse 853" cx="0.795" cy="0.795" r="0.795" fill="#04adc5"/>
          <path id="Trazado_39998" data-name="Trazado 39998" d="M620.851,275.515a.786.786,0,0,0-.205.02.791.791,0,0,1-.072,1.528.776.776,0,0,0,.2.039.795.795,0,0,0,.074-1.588Z" transform="translate(-620.019 -275.515)" fill="#29c5d1"/>
        </g>
        <g id="Grupo_35926" data-name="Grupo 35926" transform="translate(16.203 39.758)">
          <circle id="Elipse_854" data-name="Elipse 854" cx="0.795" cy="0.795" r="0.795" fill="#04adc5"/>
          <path id="Trazado_39999" data-name="Trazado 39999" d="M621.47,282.547a.788.788,0,0,0-.205.02.791.791,0,0,1-.071,1.528.793.793,0,1,0,.277-1.549Z" transform="translate(-620.638 -282.546)" fill="#29c5d1"/>
        </g>
        <g id="Grupo_35927" data-name="Grupo 35927" transform="translate(16.494 41.215)">
          <circle id="Elipse_855" data-name="Elipse 855" cx="0.795" cy="0.795" r="0.795" fill="#04adc5"/>
          <path id="Trazado_40000" data-name="Trazado 40000" d="M622.849,289.459a.786.786,0,0,0-.205.02.791.791,0,0,1-.071,1.528.793.793,0,1,0,.277-1.549Z" transform="translate(-622.017 -289.458)" fill="#29c5d1"/>
        </g>
        <g id="Grupo_35928" data-name="Grupo 35928" transform="translate(17.022 42.565)">
          <circle id="Elipse_856" data-name="Elipse 856" cx="0.795" cy="0.795" r="0.795" fill="#04adc5"/>
          <path id="Trazado_40001" data-name="Trazado 40001" d="M625.355,295.862a.8.8,0,0,0-.205.02.791.791,0,0,1-.071,1.529.793.793,0,1,0,.277-1.549Z" transform="translate(-624.523 -295.861)" fill="#29c5d1"/>
        </g>
        <g id="Grupo_35929" data-name="Grupo 35929" transform="translate(18.074 43.41)">
          <circle id="Elipse_857" data-name="Elipse 857" cx="0.795" cy="0.795" r="0.795" fill="#04adc5"/>
          <path id="Trazado_40002" data-name="Trazado 40002" d="M630.345,299.869a.778.778,0,0,0-.205.02.791.791,0,0,1-.071,1.528.793.793,0,1,0,.277-1.549Z" transform="translate(-629.513 -299.868)" fill="#29c5d1"/>
        </g>
        <g id="Grupo_35930" data-name="Grupo 35930" transform="translate(19.341 43.858)">
          <circle id="Elipse_858" data-name="Elipse 858" cx="0.795" cy="0.795" r="0.795" fill="#04adc5"/>
          <path id="Trazado_40003" data-name="Trazado 40003" d="M636.357,301.993a.786.786,0,0,0-.205.02.791.791,0,0,1-.071,1.528.793.793,0,1,0,.277-1.549Z" transform="translate(-635.525 -301.993)" fill="#29c5d1"/>
        </g>
        <g id="Grupo_35931" data-name="Grupo 35931" transform="translate(20.747 43.535)">
          <circle id="Elipse_859" data-name="Elipse 859" cx="0.795" cy="0.795" r="0.795" fill="#04adc5"/>
          <path id="Trazado_40004" data-name="Trazado 40004" d="M643.025,300.461a.8.8,0,0,0-.205.02.791.791,0,0,1-.071,1.529.794.794,0,1,0,.277-1.549Z" transform="translate(-642.193 -300.46)" fill="#29c5d1"/>
        </g>
        <g id="Grupo_35932" data-name="Grupo 35932" transform="translate(21.932 42.978)">
          <circle id="Elipse_860" data-name="Elipse 860" cx="0.795" cy="0.795" r="0.795" fill="#04adc5"/>
          <path id="Trazado_40005" data-name="Trazado 40005" d="M648.647,297.822a.785.785,0,0,0-.205.02.791.791,0,0,1-.071,1.528.793.793,0,1,0,.277-1.548Z" transform="translate(-647.815 -297.822)" fill="#29c5d1"/>
        </g>
        <g id="Grupo_35933" data-name="Grupo 35933" transform="translate(22.774 41.986)">
          <circle id="Elipse_861" data-name="Elipse 861" cx="0.795" cy="0.795" r="0.795" fill="#04adc5"/>
          <path id="Trazado_40006" data-name="Trazado 40006" d="M652.641,293.115a.787.787,0,0,0-.205.02.791.791,0,0,1-.071,1.528.793.793,0,1,0,.277-1.549Z" transform="translate(-651.809 -293.114)" fill="#29c5d1"/>
        </g>
        <g id="Grupo_35934" data-name="Grupo 35934" transform="translate(23.231 40.734)">
          <circle id="Elipse_862" data-name="Elipse 862" cx="0.795" cy="0.795" r="0.795" fill="#04adc5"/>
          <path id="Trazado_40007" data-name="Trazado 40007" d="M654.809,287.176a.789.789,0,0,0-.205.02.791.791,0,0,1-.071,1.528.793.793,0,1,0,.277-1.549Z" transform="translate(-653.977 -287.175)" fill="#29c5d1"/>
        </g>
        <g id="Grupo_35935" data-name="Grupo 35935" transform="translate(23.686 39.495)">
          <circle id="Elipse_863" data-name="Elipse 863" cx="0.795" cy="0.795" r="0.795" fill="#04adc5"/>
          <path id="Trazado_40008" data-name="Trazado 40008" d="M656.967,281.3a.8.8,0,0,0-.205.02.791.791,0,0,1-.071,1.529.793.793,0,1,0,.277-1.549Z" transform="translate(-656.135 -281.297)" fill="#29c5d1"/>
        </g>
        <g id="Grupo_35936" data-name="Grupo 35936" transform="translate(23.712 38.041)">
          <circle id="Elipse_864" data-name="Elipse 864" cx="0.795" cy="0.795" r="0.795" fill="#04adc5"/>
          <path id="Trazado_40009" data-name="Trazado 40009" d="M657.092,274.4a.786.786,0,0,0-.205.02.791.791,0,0,1-.071,1.528.774.774,0,0,0,.2.039.795.795,0,1,0,.074-1.588Z" transform="translate(-656.26 -274.4)" fill="#29c5d1"/>
        </g>
        <g id="Grupo_35937" data-name="Grupo 35937" transform="translate(23.573 36.64)">
          <circle id="Elipse_865" data-name="Elipse 865" cx="0.795" cy="0.795" r="0.795" fill="#04adc5"/>
          <path id="Trazado_40010" data-name="Trazado 40010" d="M656.432,267.752a.786.786,0,0,0-.205.02.791.791,0,0,1-.071,1.529.784.784,0,0,0,.2.039.795.795,0,0,0,.074-1.588Z" transform="translate(-655.6 -267.752)" fill="#29c5d1"/>
        </g>
        <g id="Grupo_35938" data-name="Grupo 35938" transform="translate(23.424 35.466)">
          <circle id="Elipse_866" data-name="Elipse 866" cx="0.795" cy="0.795" r="0.795" fill="#04adc5"/>
          <path id="Trazado_40011" data-name="Trazado 40011" d="M655.723,262.186a.8.8,0,0,0-.205.02.791.791,0,0,1-.071,1.529.793.793,0,1,0,.277-1.549Z" transform="translate(-654.891 -262.185)" fill="#29c5d1"/>
        </g>
        <path id="Trazado_40012" data-name="Trazado 40012" d="M582.234,455.821a32.06,32.06,0,0,1-2.759,5.827l.823.375s2.352-3.5,2.815-5.844Z" transform="translate(-571.511 -379.536)" fill="#1b2b3f"/>
        <path id="Trazado_40013" data-name="Trazado 40013" d="M669.8,461.968a32.063,32.063,0,0,0,2.58,5.908l-.834.349s-2.244-3.571-2.635-5.927Z" transform="translate(-642.093 -384.387)" fill="#1b2b3f"/>
        <path id="Trazado_40014" data-name="Trazado 40014" d="M580.863,356s2.37,8.532-4.845,17.1l8.137-5.609.713-7.489Z" transform="translate(-568.782 -300.758)" fill="#2975fa"/>
        <path id="Trazado_40015" data-name="Trazado 40015" d="M661.608,306.725l-3.373,10.962s-2.108,10.962,2.021,13.089l-9.7-3.822,1.653-22.627S656.3,300.539,661.608,306.725Z" transform="translate(-627.605 -259.071)" fill="#2975fa"/>
        <path id="Trazado_40016" data-name="Trazado 40016" d="M578.38,359.835l.032,7.163-.711,1.477s-3.67,6.95-6.4,8.317c0,0,.23,2.553,4.238,1.978s3.453-.52,5.315,1.022,4.751-1.325,6.637-.464,4.991,1.609,6.89.234c2.206-1.6,3.6-.778,5.629-2.247,0,0-7.089-4.338-7.249-12.092Z" transform="translate(-565.056 -303.784)" fill="#2975fa"/>
        <g id="Grupo_35940" data-name="Grupo 35940" transform="translate(30.176 74.681)">
          <g id="Grupo_35939" data-name="Grupo 35939">
            <path id="Trazado_40017" data-name="Trazado 40017" d="M689.9,455.286c-.035.037-.509.585-.551.615-.4.292-.781.061-1.089-.3l-3.081-2.455a.879.879,0,0,1-.283-.365.9.9,0,0,1,.258-1.007l4.585-3.379a.98.98,0,0,1,.528-.183,1.213,1.213,0,0,1,1.12.572l1.265,1.476c.784.774.567,1.284.188,1.609Z" transform="translate(-684.841 -448.211)" fill="#f2bc98"/>
          </g>
        </g>
      </g>
      <g id="Grupo_35943" data-name="Grupo 35943" transform="translate(156.326 78.555)">
        <path id="Trazado_40018" data-name="Trazado 40018" d="M448.77,271.041l.42.014a.487.487,0,0,0,.5-.468l.353-3.237a.487.487,0,0,0-.468-.5l-.9-.031a.486.486,0,0,0-.5.468l.132,3.254A.487.487,0,0,0,448.77,271.041Z" transform="translate(-440.809 -265.012)" fill="#e08d56"/>
        <g id="Grupo_35942" data-name="Grupo 35942">
          <path id="Trazado_40019" data-name="Trazado 40019" d="M414.224,264.557c-.047-.039-.743-.562-.782-.609-.383-.454-.138-.93.267-1.329l2.686-3.894a1.055,1.055,0,0,1,.414-.369,1.084,1.084,0,0,1,1.227.226l4.426,5.212a1.179,1.179,0,0,1,.263.618,1.456,1.456,0,0,1-.593,1.389l-1.663,1.637c-.863,1-1.492.785-1.911.358Z" transform="translate(-413.251 -258.257)" fill="#f2bc98"/>
        </g>
      </g>
      <g id="Grupo_35969" data-name="Grupo 35969" transform="translate(102.171 39.081)">
        <path id="Trazado_40020" data-name="Trazado 40020" d="M185.62,108.907l-1.514-1.288s-2.8,1.607-2.039,4.6,2.657,8.373,2.657,8.373l1.245.387,4.75-13.933Z" transform="translate(-176.542 -99.446)" fill="#231f20"/>
        <g id="Grupo_35944" data-name="Grupo 35944" transform="translate(6.444 18.385)">
          <circle id="Elipse_867" data-name="Elipse 867" cx="1.739" cy="1.739" r="1.739" fill="#e8a071"/>
          <circle id="Elipse_868" data-name="Elipse 868" cx="1.02" cy="1.02" r="1.02" transform="translate(0.719 0.719)" fill="#d18a5b"/>
        </g>
        <path id="Trazado_40021" data-name="Trazado 40021" d="M289.383,108.425l.455,1.248s-1.254,6.681.4,8.9h1.2l1.1-8.026S290.4,107.7,289.383,108.425Z" transform="translate(-261.339 -100.443)" fill="#231f20"/>
        <g id="Grupo_35945" data-name="Grupo 35945" transform="translate(27.72 16.646)">
          <circle id="Elipse_869" data-name="Elipse 869" cx="1.739" cy="1.739" r="1.739" fill="#e8a071"/>
          <circle id="Elipse_870" data-name="Elipse 870" cx="1.02" cy="1.02" r="1.02" transform="translate(0.719 0.719)" fill="#d18a5b"/>
        </g>
        <path id="Trazado_40022" data-name="Trazado 40022" d="M215.108,109.373l-.4-16.228s-1.111-6.917-11.81-6.4-9.917,9.862-9.917,9.862l.054.011.99,13.7a4.565,4.565,0,0,0,1.967,4l3.818,2.951c5.438,4.111,9.256.527,9.256.527l2.484-1.554A7.3,7.3,0,0,0,215.108,109.373Z" transform="translate(-185.249 -83.407)" fill="#f7af80"/>
        <path id="Trazado_40023" data-name="Trazado 40023" d="M239.4,234.04l-1.123,7.655h-5.984l-.644-7.843Z" transform="translate(-215.773 -199.522)" fill="#f7af80"/>
        <path id="Trazado_40024" data-name="Trazado 40024" d="M239.026,236.576s-4.345,2.085-7.147.1l-.232-2.827,7.751.188Z" transform="translate(-215.774 -199.522)" fill="#e08d56"/>
        <path id="Trazado_40025" data-name="Trazado 40025" d="M256.387,474.065s-1.213-10.916,3.257-11.346c3.7-.356,4.456,1.642,5.2,7.429.723,5.614,2.074,33.484-2.778,33.925C258.946,504.357,258.044,501.384,256.387,474.065Z" transform="translate(-235.18 -380.113)" fill="#f7af80"/>
        <path id="Trazado_40026" data-name="Trazado 40026" d="M198.238,473.3s0-10.983,4.49-10.917c3.715.054,4.247,2.124,4.35,7.957.1,5.66-1.635,33.508-6.505,33.411C197.439,503.692,196.87,500.638,198.238,473.3Z" transform="translate(-188.856 -379.881)" fill="#f7af80"/>
        <path id="Trazado_40027" data-name="Trazado 40027" d="M201.748,617.443s-.044-4.041-2.332-4.154-3.525,3.157-3.2,5.389-.481,11.2-.43,15.231c.081,6.486-.428,16.256-.428,16.256l3.379.211Z" transform="translate(-187.138 -498.972)" fill="#f7af80"/>
        <path id="Trazado_40028" data-name="Trazado 40028" d="M268.217,619.987s.178-4.037,2.469-4.074,3.418,3.272,3.014,5.493.108,11.21-.077,15.236c-.3,6.48-.112,16.262-.112,16.262l-3.384.1Z" transform="translate(-244.635 -501.045)" fill="#f7af80"/>
        <g id="Grupo_35946" data-name="Grupo 35946" transform="translate(24.509 151.47)">
          <path id="Trazado_40029" data-name="Trazado 40029" d="M280.207,789.548l0,1.865,3.175.148-.218-2.008Z" transform="translate(-278.603 -789.548)" fill="#c755ff"/>
          <path id="Trazado_40030" data-name="Trazado 40030" d="M280.24,794.853l0,.544,3.149.163-.083-.784Z" transform="translate(-278.632 -793.674)" fill="#b42eed"/>
          <path id="Trazado_40031" data-name="Trazado 40031" d="M276.671,816.189l0,.089-3.162-.22-.207-1.23,3.337,1.354" transform="translate(-273.159 -809.499)" fill="#404040"/>
          <path id="Trazado_40032" data-name="Trazado 40032" d="M277.341,797.2a13.88,13.88,0,0,1-3.175-.158s-2.232,2.74-1.343,4.2c0,0,7.381,2.749,10.946,1.588s.875-2.671.141-2.438C283.91,800.384,279.526,800.316,277.341,797.2Z" transform="translate(-272.614 -795.459)" fill="#020202"/>
          <path id="Trazado_40033" data-name="Trazado 40033" d="M278.236,798.134c-.393-.514.269-1.1.269-1.1a13.88,13.88,0,0,0,3.175.158c2.185,3.12,6.569,3.188,6.569,3.188s1.849,1.746-3.256.835C284.992,801.219,280.156,800.649,278.236,798.134Z" transform="translate(-276.953 -795.459)" fill="#30302f"/>
          <path id="Trazado_40034" data-name="Trazado 40034" d="M299.21,811.01a15.991,15.991,0,0,0,2.441.532c5.106.911,3.257-.835,3.257-.835a10.264,10.264,0,0,1-2.747-.512s-3.053-.4-2.969.632" transform="translate(-293.588 -805.783)" fill="#404040"/>
          <path id="Trazado_40035" data-name="Trazado 40035" d="M295.69,805.841a2.4,2.4,0,0,1,2.059-.114A1.317,1.317,0,0,0,295.69,805.841Z" transform="translate(-290.826 -801.97)" fill="#020202"/>
          <path id="Trazado_40036" data-name="Trazado 40036" d="M299.6,807.531a2.4,2.4,0,0,1,2.059-.114A1.317,1.317,0,0,0,299.6,807.531Z" transform="translate(-293.912 -803.304)" fill="#020202"/>
          <path id="Trazado_40037" data-name="Trazado 40037" d="M303.254,809.227a2.394,2.394,0,0,1,2.059-.114A1.317,1.317,0,0,0,303.254,809.227Z" transform="translate(-296.795 -804.642)" fill="#020202"/>
        </g>
        <g id="Grupo_35947" data-name="Grupo 35947" transform="translate(0 150.837)">
          <path id="Trazado_40038" data-name="Trazado 40038" d="M199.02,786.638l-.058,1.864-3.178.042.284-2Z" transform="translate(-187.471 -786.544)" fill="#c755ff"/>
          <path id="Trazado_40039" data-name="Trazado 40039" d="M199.049,791.91l-.022.544-3.153.058.109-.781Z" transform="translate(-187.543 -790.638)" fill="#b42eed"/>
          <path id="Trazado_40040" data-name="Trazado 40040" d="M201.013,813.735l-.006.089,3.168-.115.248-1.222-3.38,1.242" transform="translate(-191.593 -807.019)" fill="#404040"/>
          <path id="Trazado_40041" data-name="Trazado 40041" d="M164.718,794.538a13.877,13.877,0,0,0,3.178-.053s2.14,2.813,1.2,4.239c0,0-7.469,2.5-10.993,1.223s-.786-2.7-.06-2.442C158.046,797.5,162.43,797.583,164.718,794.538Z" transform="translate(-156.347 -792.811)" fill="#020202"/>
          <path id="Trazado_40042" data-name="Trazado 40042" d="M173.193,795.59c.409-.5-.232-1.1-.232-1.1a13.876,13.876,0,0,1-3.178.053c-2.288,3.045-6.671,2.967-6.671,2.967s-1.906,1.683,3.227.943C166.338,798.448,171.19,798.039,173.193,795.59Z" transform="translate(-161.412 -792.811)" fill="#30302f"/>
          <path id="Trazado_40043" data-name="Trazado 40043" d="M168.682,807.574a16,16,0,0,1-2.458.451c-5.133.74-3.227-.943-3.227-.943a10.266,10.266,0,0,0,2.763-.421s3.064-.3,2.946.73" transform="translate(-161.322 -802.389)" fill="#404040"/>
          <path id="Trazado_40044" data-name="Trazado 40044" d="M187.376,802.619a2.4,2.4,0,0,0-2.054-.182A1.317,1.317,0,0,1,187.376,802.619Z" transform="translate(-179.214 -798.765)" fill="#020202"/>
          <path id="Trazado_40045" data-name="Trazado 40045" d="M183.411,804.178a2.394,2.394,0,0,0-2.054-.182A1.317,1.317,0,0,1,183.411,804.178Z" transform="translate(-176.085 -799.995)" fill="#020202"/>
          <path id="Trazado_40046" data-name="Trazado 40046" d="M179.7,805.752a2.394,2.394,0,0,0-2.054-.182A1.317,1.317,0,0,1,179.7,805.752Z" transform="translate(-173.159 -801.237)" fill="#020202"/>
        </g>
        <path id="Trazado_40047" data-name="Trazado 40047" d="M196.938,275.044l-11.847,1.913s-4.039,2.266.283,6.912l3.483,25.958a30.712,30.712,0,0,0,18.461-1.247l2.124-24.217s5.225-3.52,0-7.9Z" transform="translate(-177.679 -232.031)" fill="#f7af80"/>
        <path id="Trazado_40048" data-name="Trazado 40048" d="M215.859,271.2l-6.535,4.835L194.1,273.25l-2.59-1.563s8.684-3.64,13.358-3.3a34.706,34.706,0,0,1,10.992,2.808" transform="translate(-184.097 -226.762)" fill="#f7af80"/>
        <ellipse id="Elipse_871" data-name="Elipse 871" cx="7.281" cy="9.387" rx="7.281" ry="9.387" transform="translate(10.596 83.092) rotate(-87.768)" fill="#f7af80"/>
        <path id="Trazado_40049" data-name="Trazado 40049" d="M215.436,420.2c-.286,0-10.336,2.206-10.336,2.206s-.722,11.958-.763,16.072c-.038,3.818,20.394,3.96,20.19.524-.269-4.534-.668-15.864-.668-15.864Z" transform="translate(-194.221 -346.585)" fill="#f7af80"/>
        <path id="Trazado_40050" data-name="Trazado 40050" d="M221.163,416.724a14.065,14.065,0,0,1-4.178,11.056,10.573,10.573,0,0,1-6.755,2.829c-6.455.363-11.59-4.327-11.582-11.928,0,0-1.439-13.209,9.1-13.654C218.074,404.59,221.107,411.214,221.163,416.724Z" transform="translate(-189.678 -334.598)" fill="#4c2b0c"/>
        <path id="Trazado_40051" data-name="Trazado 40051" d="M254.371,478.848l3.8,58.975,5.284-.284,1.2-68.332Z" transform="translate(-233.708 -385.265)" fill="#4c2b0c"/>
        <path id="Trazado_40052" data-name="Trazado 40052" d="M202.313,479.6l-5.8,59.362-5.238-.326,1.283-67.512Z" transform="translate(-183.911 -386.776)" fill="#4c2b0c"/>
        <g id="Grupo_35948" data-name="Grupo 35948" transform="translate(13.941 16.166)">
          <path id="Trazado_40053" data-name="Trazado 40053" d="M225.387,149.062a1.454,1.454,0,1,1-1.452-1.374A1.415,1.415,0,0,1,225.387,149.062Z" transform="translate(-222.483 -147.688)" fill="#231f20"/>
          <path id="Trazado_40054" data-name="Trazado 40054" d="M231.194,151.55a.379.379,0,0,1-.005.512c-.185.205.118.511.3.3a.8.8,0,0,0,.073-1.033.223.223,0,0,0-.294-.077.216.216,0,0,0-.077.294Z" transform="translate(-229.308 -150.481)" fill="#fff"/>
        </g>
        <g id="Grupo_35949" data-name="Grupo 35949" transform="translate(23.125 16.166)">
          <path id="Trazado_40055" data-name="Trazado 40055" d="M268.95,149.062a1.454,1.454,0,1,1-1.452-1.374A1.415,1.415,0,0,1,268.95,149.062Z" transform="translate(-266.046 -147.688)" fill="#231f20"/>
          <path id="Trazado_40056" data-name="Trazado 40056" d="M274.757,151.55a.379.379,0,0,1-.005.512c-.185.205.118.511.3.3a.8.8,0,0,0,.073-1.033.223.223,0,0,0-.294-.077.216.216,0,0,0-.077.294Z" transform="translate(-272.871 -150.481)" fill="#fff"/>
        </g>
        <g id="Grupo_35950" data-name="Grupo 35950" transform="translate(19.053 19.92)">
          <path id="Trazado_40057" data-name="Trazado 40057" d="M248.894,167.38a6.632,6.632,0,0,1-.693-1.213c-.249-.609-.548-.806-1.118-.576s-.835,4.943,2.351,5.3,2.776-1.873,2.359-2.405S250.006,168.868,248.894,167.38Z" transform="translate(-246.73 -165.498)" fill="#e08d56"/>
          <path id="Trazado_40058" data-name="Trazado 40058" d="M249.546,171.325c-2.743-.307-2.928-3.84-2.562-4.964-.491.691-.546,4.875,2.449,5.21,1.677.187,2.357-.342,2.565-.963C251.7,171.113,251,171.487,249.546,171.325Z" transform="translate(-246.73 -166.179)" fill="#c77236"/>
        </g>
        <g id="Grupo_35952" data-name="Grupo 35952" transform="translate(18.206 28.264)">
          <g id="Grupo_35951" data-name="Grupo 35951" transform="translate(1.883 0.585)">
            <path id="Trazado_40059" data-name="Trazado 40059" d="M251.645,213.388a1.379,1.379,0,0,0,1.338-.079A.939.939,0,0,1,251.645,213.388Z" transform="translate(-251.645 -212.159)" fill="#f09d9e"/>
            <path id="Trazado_40060" data-name="Trazado 40060" d="M262.47,207.856s.2.037.131.2C262.6,208.057,262.816,207.85,262.47,207.856Z" transform="translate(-260.188 -207.855)" fill="#e49d73"/>
          </g>
          <path id="Trazado_40061" data-name="Trazado 40061" d="M242.815,205.8s-.381-.911.341-.681C243.156,205.116,242.648,205.086,242.815,205.8Z" transform="translate(-242.714 -205.079)" fill="#3a3a3a"/>
          <path id="Trazado_40062" data-name="Trazado 40062" d="M242.879,205.75s2.114,2.223,4.136.523c0,0-1.354,1.269-3.959-.619Z" transform="translate(-242.844 -205.533)" fill="#3a3a3a"/>
        </g>
        <path id="Trazado_40063" data-name="Trazado 40063" d="M269.191,134.754a2.559,2.559,0,0,0-2.034-2.226,4.453,4.453,0,0,0-.859-.1,1.319,1.319,0,0,0-.568.044l.135-.356c-.265.078-.749.707-.749.707l-.062-.508a3.647,3.647,0,0,0-.283,1.223l.612-.017C266.029,133.583,268.453,133.876,269.191,134.754Z" transform="translate(-241.915 -119.231)" fill="#231f20"/>
        <path id="Trazado_40064" data-name="Trazado 40064" d="M215.291,135.6a2.558,2.558,0,0,1,2.034-2.226,4.456,4.456,0,0,1,.859-.1,1.319,1.319,0,0,1,.568.044l-.135-.356c.265.078.749.707.749.707l.062-.508a3.65,3.65,0,0,1,.283,1.223l-.612-.017C218.453,134.432,216.029,134.725,215.291,135.6Z" transform="translate(-202.866 -119.901)" fill="#231f20"/>
        <path id="Trazado_40065" data-name="Trazado 40065" d="M193.745,85.294s-.284-4.936,2.007-5.445,6.408,1.122,9.1,1.494,12.044-.434,12.743-6.372a3.034,3.034,0,0,1-3.162-.658c-2.6-2.081-10.926-4.793-15.949-2.343S189.788,78.269,193.745,85.294Z" transform="translate(-184.543 -71)" fill="#231f20"/>
        <path id="Trazado_40066" data-name="Trazado 40066" d="M183.639,96.742s-1.581-2.123-1.3-3.481a4.156,4.156,0,0,0-.369,2.672s-2.1.764-2.23,1.739c0,0,.2-.424,1.947-.424a3.943,3.943,0,0,0-.887,1.824A9.946,9.946,0,0,1,183.639,96.742Z" transform="translate(-174.812 -88.568)" fill="#231f20"/>
        <path id="Trazado_40067" data-name="Trazado 40067" d="M188.644,113.091l.4,1.273s1.071,7.7-.583,9.917l-.895.306-2.188-7.678S187.626,112.37,188.644,113.091Z" transform="translate(-179.258 -104.157)" fill="#231f20"/>
        <path id="Trazado_40068" data-name="Trazado 40068" d="M281.124,110.288s2.042-.251,2.423,1.338a45.705,45.705,0,0,1,.173,6.944l.778.258-.057-1.739.7-4.478-.6-2.815-.366-1.488Z" transform="translate(-254.821 -100.443)" fill="#231f20"/>
        <path id="Trazado_40069" data-name="Trazado 40069" d="M250.874,90.378s5.909,1.072,8.118-2.3,1.846-4.668,1.846-4.668l-1.384-.885S259.294,90.539,250.874,90.378Z" transform="translate(-230.948 -80.095)" fill="#514b4d"/>
        <path id="Trazado_40070" data-name="Trazado 40070" d="M246.246,85.309s7.877-2.811,7.281-8.572l-1.486-.536s.939,4.694-6.487,8.959Z" transform="translate(-226.749 -75.105)" fill="#514b4d"/>
        <path id="Trazado_40071" data-name="Trazado 40071" d="M284.384,95.72s5.765-1.678,6.062-5.879a2.407,2.407,0,0,1-1.4.157S287.647,94.427,284.384,95.72Z" transform="translate(-257.394 -85.869)" fill="#514b4d"/>
        <path id="Trazado_40072" data-name="Trazado 40072" d="M192.229,143.648h-3.247l3.229.852Z" transform="translate(-182.103 -128.333)" fill="#514b4d"/>
        <path id="Trazado_40073" data-name="Trazado 40073" d="M193.168,151.83l-.135.869-2.708-1.473Z" transform="translate(-183.162 -134.315)" fill="#514b4d"/>
        <path id="Trazado_40074" data-name="Trazado 40074" d="M195.09,160.064l-.382.719-1.414-1.517Z" transform="translate(-185.506 -140.659)" fill="#514b4d"/>
        <path id="Trazado_40075" data-name="Trazado 40075" d="M293.684,135.338l1.8-.811-1.8,1.923Z" transform="translate(-264.734 -121.136)" fill="#514b4d"/>
        <path id="Trazado_40076" data-name="Trazado 40076" d="M293.622,142.775l1.6-1.312-1.615,2.058Z" transform="translate(-264.674 -126.609)" fill="#514b4d"/>
        <path id="Trazado_40077" data-name="Trazado 40077" d="M293.453,152.6l.711-.785-.276,1.239-.446-.148Z" transform="translate(-264.543 -134.777)" fill="#514b4d"/>
        <path id="Trazado_40078" data-name="Trazado 40078" d="M195.727,159.291l.895-.306s3.618,12.689,8.326,13.029a1.968,1.968,0,0,0,2.22-2.191h1.678s.187,1.921.944,1.791,4.916-2.8,5.349-5.283,1.179-9.343,1.179-9.343l.778.258s.49,8.66.49,9.169c0,2.614-3.118,6.246-5.4,7.433a8.316,8.316,0,0,1-3.341,1.174c-2.412.28-4.582.7-8.79-2.554,0,0-3.111-2.646-3.81-4.984C195.61,165.359,195.727,159.291,195.727,159.291Z" transform="translate(-187.419 -138.862)" fill="#2d2a2b"/>
        <path id="Trazado_40079" data-name="Trazado 40079" d="M224.283,194.39a2.86,2.86,0,0,0-1.678-.55,14.457,14.457,0,0,0-2.177.271,8.842,8.842,0,0,1-2.178.449c-.791,0-2.9.767-2.968,2.229a2.916,2.916,0,0,0,1.753,2.607c.4.063-.382-1.969.212-2.405a11.606,11.606,0,0,1,5.358-1.324,9.092,9.092,0,0,0,2.348,0,3.976,3.976,0,0,1,1.781.308c.738.379,2.162.18,2.933,1.61s1.188-1.264,1.234-1.38a4.867,4.867,0,0,0-3.125-1.813C226.238,194.347,225.551,193.626,224.283,194.39Z" transform="translate(-202.856 -167.939)" fill="#2d2a2b"/>
        <g id="Grupo_35968" data-name="Grupo 35968" transform="translate(5.193 38.223)">
          <g id="Grupo_35953" data-name="Grupo 35953">
            <path id="Trazado_40080" data-name="Trazado 40080" d="M207.333,258.364a33.5,33.5,0,0,0-7.448-3.188c-.719-.219-.411-2.854-.411-2.854l-4.242.189-4.242-.189s.289,2.583-.411,2.854a43.99,43.99,0,0,0-7.448,3.994,4.328,4.328,0,0,0-2.1,4.567c.424,3.349,2.171,4.286,2.171,4.286l2.756,29.543h19.811l2.206-30.748S213.658,261.9,207.333,258.364Z" transform="translate(-180.981 -252.322)" fill="#b42eed"/>
          </g>
          <g id="Grupo_35954" data-name="Grupo 35954" transform="translate(10.256 0.305)" opacity="0.41">
            <path id="Trazado_40081" data-name="Trazado 40081" d="M229.632,253.824l1.245.087c.373.025.809.046,1.276.067s.965.038,1.463.042,1,.006,1.462-.007l.672-.029.6-.046.506-.056c.152-.013.281-.039.389-.057l.339-.055-.333.083c-.107.025-.235.06-.386.084s-.319.06-.505.086l-.6.071c-.214.017-.441.037-.675.05-.469.02-.969.032-1.47.027s-1-.031-1.468-.062-.9-.076-1.276-.113C230.124,253.912,229.632,253.824,229.632,253.824Z" transform="translate(-229.632 -253.77)" fill="#fff"/>
          </g>
          <g id="Grupo_35966" data-name="Grupo 35966" transform="translate(10.588 0.89)">
            <g id="Grupo_35965" data-name="Grupo 35965">
              <g id="Grupo_35955" data-name="Grupo 35955">
                <path id="Trazado_40082" data-name="Trazado 40082" d="M231.6,256.543s.012.134.009.329a4.92,4.92,0,0,1-.075.7,4.094,4.094,0,0,1-.18.671,2.4,2.4,0,0,1-.132.291,2.707,2.707,0,0,1-.015-.332,4.31,4.31,0,0,1,.08-.7,4.648,4.648,0,0,1,.185-.669A3.038,3.038,0,0,1,231.6,256.543Z" transform="translate(-231.209 -256.543)" fill="#c755ff"/>
              </g>
              <g id="Grupo_35956" data-name="Grupo 35956" transform="translate(0.792 0.176)">
                <path id="Trazado_40083" data-name="Trazado 40083" d="M235.29,257.378s.018.133.022.328a4.976,4.976,0,0,1-.045.7,4.315,4.315,0,0,1-.151.681,2.434,2.434,0,0,1-.12.3,2.8,2.8,0,0,1-.028-.33,4.317,4.317,0,0,1,.051-.7,4.715,4.715,0,0,1,.157-.679A3.2,3.2,0,0,1,235.29,257.378Z" transform="translate(-234.967 -257.378)" fill="#c755ff"/>
              </g>
              <g id="Grupo_35957" data-name="Grupo 35957" transform="translate(1.585 0.308)">
                <path id="Trazado_40084" data-name="Trazado 40084" d="M238.986,258s.023.132.036.327a4.9,4.9,0,0,1-.016.7,4.25,4.25,0,0,1-.123.69,2.547,2.547,0,0,1-.107.306,2.615,2.615,0,0,1-.041-.328,4.367,4.367,0,0,1,.022-.7,4.754,4.754,0,0,1,.129-.688C238.936,258.125,238.986,258,238.986,258Z" transform="translate(-238.728 -258.004)" fill="#c755ff"/>
              </g>
              <g id="Grupo_35958" data-name="Grupo 35958" transform="translate(2.375 0.396)">
                <path id="Trazado_40085" data-name="Trazado 40085" d="M242.673,258.422a3.266,3.266,0,0,1,.049.324,4.954,4.954,0,0,1,.013.7,4.367,4.367,0,0,1-.094.7,2.618,2.618,0,0,1-.094.312,2.6,2.6,0,0,1-.055-.325,4.361,4.361,0,0,1-.007-.705,4.864,4.864,0,0,1,.1-.694C242.629,258.546,242.674,258.422,242.673,258.422Z" transform="translate(-242.474 -258.422)" fill="#c755ff"/>
              </g>
              <g id="Grupo_35959" data-name="Grupo 35959" transform="translate(3.159 0.44)">
                <path id="Trazado_40086" data-name="Trazado 40086" d="M246.344,258.63a3.227,3.227,0,0,1,.063.321,4.994,4.994,0,0,1,.042.7,4.333,4.333,0,0,1-.065.7,2.635,2.635,0,0,1-.081.317,2.688,2.688,0,0,1-.068-.322,4.4,4.4,0,0,1-.036-.7,4.9,4.9,0,0,1,.071-.7C246.3,258.757,246.344,258.63,246.344,258.63Z" transform="translate(-246.196 -258.63)" fill="#c755ff"/>
              </g>
              <g id="Grupo_35960" data-name="Grupo 35960" transform="translate(3.936 0.44)">
                <path id="Trazado_40087" data-name="Trazado 40087" d="M249.988,258.63s.039.126.076.317a4.9,4.9,0,0,1,.071.7,4.376,4.376,0,0,1-.036.7,2.6,2.6,0,0,1-.068.321,2.447,2.447,0,0,1-.081-.317,4.316,4.316,0,0,1-.065-.7,4.969,4.969,0,0,1,.042-.7C249.954,258.759,249.988,258.63,249.988,258.63Z" transform="translate(-249.883 -258.63)" fill="#c755ff"/>
              </g>
              <g id="Grupo_35961" data-name="Grupo 35961" transform="translate(4.706 0.396)">
                <path id="Trazado_40088" data-name="Trazado 40088" d="M253.6,258.422a3.238,3.238,0,0,1,.089.312,4.775,4.775,0,0,1,.1.694,4.361,4.361,0,0,1-.007.705,2.576,2.576,0,0,1-.055.325,2.553,2.553,0,0,1-.094-.312,4.3,4.3,0,0,1-.094-.7,4.889,4.889,0,0,1,.013-.7A3.273,3.273,0,0,1,253.6,258.422Z" transform="translate(-253.531 -258.422)" fill="#c755ff"/>
              </g>
              <g id="Grupo_35962" data-name="Grupo 35962" transform="translate(5.463 0.308)">
                <path id="Trazado_40089" data-name="Trazado 40089" d="M257.169,258s.049.121.1.306a4.762,4.762,0,0,1,.128.688,4.369,4.369,0,0,1,.022.7,2.615,2.615,0,0,1-.041.328,2.474,2.474,0,0,1-.107-.306,4.293,4.293,0,0,1-.123-.69,4.883,4.883,0,0,1-.016-.7C257.146,258.136,257.169,258,257.169,258Z" transform="translate(-257.127 -258.004)" fill="#c755ff"/>
              </g>
              <g id="Grupo_35963" data-name="Grupo 35963" transform="translate(6.21 0.176)">
                <path id="Trazado_40090" data-name="Trazado 40090" d="M260.693,257.378a3.063,3.063,0,0,1,.114.3,4.684,4.684,0,0,1,.157.679,4.364,4.364,0,0,1,.051.7,2.7,2.7,0,0,1-.028.33,2.489,2.489,0,0,1-.12-.3,4.251,4.251,0,0,1-.151-.681,4.857,4.857,0,0,1-.045-.7A3.074,3.074,0,0,1,260.693,257.378Z" transform="translate(-260.671 -257.378)" fill="#c755ff"/>
              </g>
              <g id="Grupo_35964" data-name="Grupo 35964" transform="translate(6.947)">
                <path id="Trazado_40091" data-name="Trazado 40091" d="M264.173,256.543a3.072,3.072,0,0,1,.127.292,4.666,4.666,0,0,1,.185.669,4.355,4.355,0,0,1,.08.7,2.652,2.652,0,0,1-.015.332,2.445,2.445,0,0,1-.132-.291,4.179,4.179,0,0,1-.179-.671,4.848,4.848,0,0,1-.074-.7C264.161,256.677,264.173,256.543,264.173,256.543Z" transform="translate(-264.164 -256.543)" fill="#c755ff"/>
              </g>
            </g>
          </g>
          <g id="Grupo_35967" data-name="Grupo 35967" transform="translate(9.597 2.854)">
            <path id="Trazado_40092" data-name="Trazado 40092" d="M226.508,265.859a13.083,13.083,0,0,0,9.306,0A10.779,10.779,0,0,1,226.508,265.859Z" transform="translate(-226.508 -265.859)" fill="#9f22d4"/>
          </g>
        </g>
        <path id="Trazado_40093" data-name="Trazado 40093" d="M181.843,284.913l.885,30.779,10.7.734-.415-21.817s-3.846-2.1-4.382-11.035-1.1-12.575-1.1-12.575L181,274.584Z" transform="translate(-175.803 -228.84)" fill="#28283a"/>
        <path id="Trazado_40094" data-name="Trazado 40094" d="M281,267l8.01,3.794s3.4,6.134-.632,9.7l-.467,31.959-6,.82-.279-32.568Z" transform="translate(-254.723 -225.683)" fill="#252430"/>
        <path id="Trazado_40095" data-name="Trazado 40095" d="M197.928,502.607l-.795,59.854S198.587,510.468,197.928,502.607Z" transform="translate(-188.535 -411.624)" fill="#5e3513"/>
        <path id="Trazado_40096" data-name="Trazado 40096" d="M293.827,505.71l-1.33,59.845S292.889,513.543,293.827,505.71Z" transform="translate(-263.797 -414.073)" fill="#5e3513"/>
        <path id="Trazado_40097" data-name="Trazado 40097" d="M190.7,263s1.265,11.172,2.53,21.712v14.124l-8.74-17.107.94-13.67L181,268.27Z" transform="translate(-175.803 -222.526)" fill="#28283a"/>
      </g>
      <path id="Trazado_40098" data-name="Trazado 40098" d="M373.145,297.7l5.992-4.651-2.169-3.066-8.039,6.733Z" transform="translate(-221.946 -204.741)" fill="#f7af80"/>
      <path id="Trazado_40099" data-name="Trazado 40099" d="M398.627,276.731l-.425.016a.493.493,0,0,1-.509-.473L397.327,273a.493.493,0,0,1,.473-.509l.917-.034a.493.493,0,0,1,.509.473l-.125,3.3A.493.493,0,0,1,398.627,276.731Z" transform="translate(-244.357 -190.906)" fill="#e08d56"/>
      <g id="Grupo_35970" data-name="Grupo 35970" transform="translate(152.724 79.71)">
        <path id="Trazado_40100" data-name="Trazado 40100" d="M404.784,270.113c.048-.04.751-.571.791-.619.386-.461.138-.943-.274-1.345l-2.73-3.937a1.066,1.066,0,0,0-.42-.373,1.1,1.1,0,0,0-1.243.231l-4.47,5.29a1.194,1.194,0,0,0-.265.626,1.475,1.475,0,0,0,.6,1.405l1.688,1.654c.876,1.013,1.513.792,1.937.357Z" transform="translate(-396.16 -263.74)" fill="#f7af80"/>
      </g>
      <path id="Trazado_40101" data-name="Trazado 40101" d="M178.172,294.48s16.309,21.1,22.734,19.746,23.834-18.348,23.834-18.348l-3.562-5.33S206.63,305.863,200.534,306.3c-5.783.411-17.886-16.063-17.886-16.063C180.361,286.936,176.275,290.9,178.172,294.48Z" transform="translate(-71.015 -203.964)" fill="#28283a"/>
      <path id="Trazado_40102" data-name="Trazado 40102" d="M181.693,287l-4.427.211s-2.689,3.951.764,9.353Z" transform="translate(-69.898 -202.386)" fill="#28283a"/>
      <path id="Trazado_40103" data-name="Trazado 40103" d="M636,365a6.037,6.037,0,0,0,6.535,0S640.216,365.843,636,365Z" transform="translate(-432.718 -263.944)" fill="#1d69d8"/>
      <path id="Trazado_40104" data-name="Trazado 40104" d="M316.966,147.36l-.506.051a.645.645,0,0,1-.653-.378l-2.025-4.507a.645.645,0,0,1,.276-.829l.29-.16a.645.645,0,0,1,.893.283l2.241,4.616A.645.645,0,0,1,316.966,147.36Z" transform="translate(-178.379 -87.524)" fill="#f7af80"/>
      <g id="Grupo_35973" data-name="Grupo 35973" transform="translate(219.786 116.297)">
        <rect id="Rectngulo_4531" data-name="Rectngulo 4531" width="1.856" height="4.018" rx="0.824" transform="translate(0.004 1.295) rotate(-44.259)" fill="#04adc5"/>
        <rect id="Rectngulo_4532" data-name="Rectngulo 4532" width="1.509" height="3.547" rx="0.754" transform="matrix(0.716, -0.698, 0.698, 0.716, 0.334, 1.385)" fill="#55c8d9"/>
        <rect id="Rectngulo_4533" data-name="Rectngulo 4533" width="3.005" height="3.005" rx="1.502" transform="translate(2.152 0.017) rotate(45.741)" fill="#b7d2d9"/>
        <g id="Grupo_35971" data-name="Grupo 35971" transform="translate(0.263 0.28)">
          <rect id="Rectngulo_4534" data-name="Rectngulo 4534" width="2.633" height="2.633" rx="1.316" transform="translate(1.886 0) rotate(45.741)" fill="#1a1a1a"/>
          <path id="Trazado_40105" data-name="Trazado 40105" d="M718.049,440.306l-.82.8a.745.745,0,0,0-.2.721.738.738,0,0,1,.195-.326l.82-.8a.745.745,0,0,1,1.052.014l.8.82a.74.74,0,0,1,.186.331.744.744,0,0,0-.181-.726l-.8-.82A.745.745,0,0,0,718.049,440.306Z" transform="translate(-716.696 -439.787)" fill="#333"/>
        </g>
        <g id="Grupo_35972" data-name="Grupo 35972" transform="translate(1.127 1.101)">
          <path id="Trazado_40106" data-name="Trazado 40106" d="M719.778,449.172l-.142-.145v-.108l.208.214v.04Zm.128.023.208.213h-.108l-.142-.145v-.067Z" transform="translate(-719.636 -447.571)" fill="#d2f0f4"/>
          <path id="Trazado_40107" data-name="Trazado 40107" d="M720.423,447.467l-.208-.214.108,0,.142.145v.067Zm.077-.51v.107l-.177.172-.107,0Zm.5.508-.284.277v-.107l.177-.172Zm-.321-.235h.054v.054l-.189.185h-.054v-.054Zm.114,0,.207.213h-.107l-.142-.145v-.068Z" transform="translate(-720.093 -446.022)" fill="#d2f0f4"/>
          <path id="Trazado_40108" data-name="Trazado 40108" d="M722.556,446.689l-.053-.054.054-.053.053.054Zm.359.368-.053-.054.055-.053.053.054Z" transform="translate(-721.899 -445.726)" fill="#d2f0f4"/>
          <path id="Trazado_40109" data-name="Trazado 40109" d="M723.154,444.778v.067h-.04l-.208-.214h.108Zm.228.234v.108l-.208-.213v-.041h.067Zm-.192-.677v.107l-.177.172-.107,0Zm.5.508-.284.277v-.107l.177-.172Zm-.267-.295v.04h-.068l-.142-.145v-.108Zm.268.275h-.108l-.142-.145v-.068l.04,0Z" transform="translate(-722.216 -443.952)" fill="#d2f0f4"/>
          <path id="Trazado_40110" data-name="Trazado 40110" d="M725.012,442.967v.067h-.04l-.208-.214h.108Zm.228.234v.108l-.207-.213v-.041h.068Zm-.192-.677v.107l-.177.172-.107,0Zm.5.508-.284.277V443.2l.177-.172Zm-.268-.295v.04h-.068l-.142-.145v-.108Zm.268.275h-.108l-.142-.145V442.8l.04,0Z" transform="translate(-723.682 -442.523)" fill="#d2f0f4"/>
        </g>
        <path id="Trazado_40111" data-name="Trazado 40111" d="M722.555,447.155l1.417-1.381-.016.159-1.178,1.148Z" transform="translate(-720.813 -443.988)" fill="#a8e3eb"/>
        <path id="Trazado_40112" data-name="Trazado 40112" d="M723.787,448.419l1.417-1.381-.016.159-1.178,1.148Z" transform="translate(-721.786 -444.986)" fill="#a8e3eb"/>
      </g>
      <path id="Trazado_40113" data-name="Trazado 40113" d="M447,230.206s3.162-5.481,9.064-6.113C456.064,224.093,448.9,221.985,447,230.206Z" transform="translate(-283.559 -152.549)" fill="#ffe840"/>
      <path id="Trazado_40114" data-name="Trazado 40114" d="M404.443,214.364s-1.12-6.228-6.459-8.821C397.984,205.543,405.442,205.986,404.443,214.364Z" transform="translate(-244.876 -138.101)" fill="#ffe840"/>
      <path id="Trazado_40115" data-name="Trazado 40115" d="M441.695,199.519s1.092-6.453,6.242-7.992C447.936,191.527,441.542,191.065,441.695,199.519Z" transform="translate(-279.371 -127.036)" fill="#ff9843"/>
      <g id="Grupo_35974" data-name="Grupo 35974" transform="translate(168.302 33.67)">
        <path id="Trazado_40116" data-name="Trazado 40116" d="M476.37,59.9a2.64,2.64,0,0,0,3.1,1.027c2.107-.644-3.97-4.788-7.713-1.724a3.831,3.831,0,0,0-.522,5.885l2.368.5C473.585,65.6,470.764,60.739,476.37,59.9Z" transform="translate(-470.061 -55.401)" fill="#f15a29"/>
        <path id="Trazado_40117" data-name="Trazado 40117" d="M496.931,49.906c-1.532-2.942,2.577-5.467,5.328-4.266l.749,1.9s-3.343-.226-3.848,1.149c-.488,1.393,1.254,2.159,1.254,2.159S497.889,51.735,496.931,49.906Z" transform="translate(-491.004 -45.335)" fill="#f7941d"/>
      </g>
      <g id="Grupo_35975" data-name="Grupo 35975" transform="translate(88.396 46.037)">
        <path id="Trazado_40118" data-name="Trazado 40118" d="M99.142,115.612a1.8,1.8,0,0,1-2.192.415c-1.374-.628,3.1-2.879,5.367-.486a2.621,2.621,0,0,1-.166,4.028l-1.635.13C100.5,119.7,102.839,116.679,99.142,115.612Z" transform="translate(-95.493 -112.258)" fill="#662d91"/>
        <path id="Trazado_40119" data-name="Trazado 40119" d="M94.886,107.437c1.291-1.848-1.256-3.91-3.223-3.341L91,105.316s2.287.142,2.488,1.114-1.031,1.339-1.031,1.339S94.092,108.586,94.886,107.437Z" transform="translate(-91 -104)" fill="#92278f"/>
      </g>
      <g id="Grupo_35976" data-name="Grupo 35976" transform="translate(175.682 155.824)">
        <path id="Trazado_40120" data-name="Trazado 40120" d="M510.747,630.716a2.556,2.556,0,0,1,3.138-.456c1.907.979-4.589,3.9-7.66.354a3.729,3.729,0,0,1,.49-5.72l2.345-.084S505.55,628.962,510.747,630.716Z" transform="translate(-505.074 -624.811)" fill="#662d91"/>
        <path id="Trazado_40121" data-name="Trazado 40121" d="M528.256,649.194c-1.957,2.548,1.535,5.652,4.37,4.961l1.029-1.687s-3.24-.338-3.476-1.755c-.236-1.4,1.552-1.839,1.552-1.839S529.471,647.608,528.256,649.194Z" transform="translate(-522.92 -643.424)" fill="#92278f"/>
      </g>
      <g id="Grupo_35977" data-name="Grupo 35977" transform="translate(149.254 47.324)">
        <path id="Trazado_40122" data-name="Trazado 40122" d="M382.72,117.91s.835-3.946,7.215-5.156l-2.88-2.65s-5.847.677-7.287,5.084Z" transform="translate(-379.754 -110.104)" fill="#1b75bc"/>
        <path id="Trazado_40123" data-name="Trazado 40123" d="M382.119,122.413l-1.57-2.088a5.987,5.987,0,0,0-.85,1.656l2.967,2.736s.835-3.946,7.215-5.156l-.922-.85C383.473,119.144,382.119,122.413,382.119,122.413Z" transform="translate(-379.7 -116.897)" fill="#1a6ca3"/>
      </g>
      <g id="Grupo_35978" data-name="Grupo 35978" transform="translate(144.721 124.655)">
        <path id="Trazado_40124" data-name="Trazado 40124" d="M360.646,483.392s.681-3.251,5.944-4.257l-2.384-2.183s-4.814.557-6.006,4.195Z" transform="translate(-358.2 -476.952)" fill="#1b75bc"/>
        <path id="Trazado_40125" data-name="Trazado 40125" d="M360.181,487.067l-1.285-1.718a4.923,4.923,0,0,0-.7,1.362l2.446,2.245s.681-3.251,5.944-4.257l-.758-.7C361.3,484.373,360.181,487.067,360.181,487.067Z" transform="translate(-358.2 -482.516)" fill="#1a6ca3"/>
      </g>
      <g id="Grupo_35979" data-name="Grupo 35979" transform="translate(94.214 69.142)">
        <path id="Trazado_40126" data-name="Trazado 40126" d="M125.07,220.625s-.752-3.54-6.47-4.637l2.585-2.381s5.248.611,6.548,4.559Z" transform="translate(-118.6 -213.607)" fill="#f7941d"/>
        <path id="Trazado_40127" data-name="Trazado 40127" d="M125.63,224.657l1.41-1.88a5.563,5.563,0,0,1,.768,1.488l-2.663,2.459s-.752-3.54-6.47-4.637l.83-.752C124.408,221.728,125.63,224.657,125.63,224.657Z" transform="translate(-118.658 -219.707)" fill="#fbb040"/>
      </g>
      <g id="Grupo_35980" data-name="Grupo 35980" transform="translate(227.018 83.586)">
        <path id="Trazado_40128" data-name="Trazado 40128" d="M755.517,289.629s-.8-3.785-6.917-4.958l2.764-2.546s5.611.653,7,4.874Z" transform="translate(-748.6 -282.126)" fill="#f7941d"/>
        <path id="Trazado_40129" data-name="Trazado 40129" d="M756.115,294.02l1.507-2.01a5.948,5.948,0,0,1,.821,1.591l-2.847,2.63s-.8-3.785-6.917-4.958l.888-.8C754.809,290.888,756.115,294.02,756.115,294.02Z" transform="translate(-748.662 -288.71)" fill="#fbb040"/>
      </g>
      <g id="Grupo_35981" data-name="Grupo 35981" transform="translate(215.361 140.839)">
        <path id="Trazado_40130" data-name="Trazado 40130" d="M695.529,560.044s1.6-3.457,7.736-3.225l-2.087-3.057s-5.523-.611-7.779,3.141Z" transform="translate(-693.379 -553.725)" fill="#da1c5c"/>
        <path id="Trazado_40131" data-name="Trazado 40131" d="M695.429,564.656l-.991-2.256a5.941,5.941,0,0,0-1.138,1.349l2.15,3.141s1.6-3.457,7.736-3.225l-.675-.97C697.368,561.936,695.429,564.656,695.429,564.656Z" transform="translate(-693.3 -560.571)" fill="#ee2a7b"/>
      </g>
      <g id="Grupo_35982" data-name="Grupo 35982" transform="translate(87.7 120.307)">
        <path id="Trazado_40132" data-name="Trazado 40132" d="M95.436,462.644s-1.6-3.457-7.736-3.225l2.087-3.057s5.523-.611,7.779,3.141Z" transform="translate(-87.7 -456.325)" fill="#da1c5c"/>
        <path id="Trazado_40133" data-name="Trazado 40133" d="M95.457,467.256,96.448,465a5.943,5.943,0,0,1,1.138,1.349l-2.15,3.141s-1.6-3.457-7.736-3.225l.675-.97C93.539,464.536,95.457,467.256,95.457,467.256Z" transform="translate(-87.7 -463.171)" fill="#ee2a7b"/>
      </g>
      <g id="Grupo_35983" data-name="Grupo 35983" transform="translate(99.08 144.333)">
        <path id="Trazado_40134" data-name="Trazado 40134" d="M157.514,574.911a2.528,2.528,0,0,0-2.647-1.676c-2.115.112,2.556,5.373,6.763,3.425a3.67,3.67,0,0,0,1.866-5.34l-2.073-1.022C161.43,570.284,162.9,575.448,157.514,574.911Z" transform="translate(-151.673 -570.298)" fill="#d3b020"/>
        <path id="Trazado_40135" data-name="Trazado 40135" d="M147.885,585.907c.723,3.086-3.676,4.463-5.956,2.7l-.241-1.94s3.049,1,3.842-.172c.771-1.169-.649-2.293-.649-2.293S147.431,583.992,147.885,585.907Z" transform="translate(-141.687 -581.268)" fill="#f7d134"/>
      </g>
      <g id="Grupo_35984" data-name="Grupo 35984" transform="translate(172.589 59.128)">
        <path id="Trazado_40136" data-name="Trazado 40136" d="M495.438,168.2s-2.424.169-3.689,3.879l-1.349-1.939s.906-3.436,3.647-3.942Z" transform="translate(-490.4 -166.179)" fill="#f7941d"/>
        <path id="Trazado_40137" data-name="Trazado 40137" d="M497.583,167.6l-1.117-1.117a4.169,4.169,0,0,1,1.054-.379l1.391,2s-2.424.169-3.689,3.879l-.422-.611C495.517,168.145,497.583,167.6,497.583,167.6Z" transform="translate(-493.872 -166.1)" fill="#fbb040"/>
      </g>
      <g id="Grupo_35985" data-name="Grupo 35985" transform="translate(169.469 127.153)">
        <path id="Trazado_40138" data-name="Trazado 40138" d="M477.792,494.618s.611-2.93,5.354-3.837L481,488.8s-4.342.506-5.4,3.773Z" transform="translate(-475.6 -488.8)" fill="#009444"/>
        <path id="Trazado_40139" data-name="Trazado 40139" d="M477.392,497.983l-1.159-1.56a4.47,4.47,0,0,0-.632,1.223l2.192,2.024s.611-2.93,5.354-3.837l-.675-.632C478.383,495.558,477.392,497.983,477.392,497.983Z" transform="translate(-475.6 -493.851)" fill="#0db253"/>
      </g>
      <g id="Grupo_35986" data-name="Grupo 35986" transform="translate(203.926 30.555)">
        <path id="Trazado_40140" data-name="Trazado 40140" d="M645.819,33.546s-2.947-.788-5.952,3.107l-.811-2.86s2.462-3.71,5.927-3.187Z" transform="translate(-639.056 -30.555)" fill="#da1c5c"/>
        <path id="Trazado_40141" data-name="Trazado 40141" d="M646.528,32.457l-.879-1.761a4.58,4.58,0,0,1,1.41-.011l.836,2.941s-2.947-.788-5.952,3.107l-.262-.909C643.862,32.236,646.528,32.457,646.528,32.457Z" transform="translate(-641.128 -30.618)" fill="#ee2a7b"/>
      </g>
      <g id="Grupo_35987" data-name="Grupo 35987" transform="translate(174.896 110.902)">
        <path id="Trazado_40142" data-name="Trazado 40142" d="M508.873,415.1s-3.254-.978-6.729,3.241l-.8-3.208s2.867-4.043,6.706-3.326Z" transform="translate(-501.341 -411.715)" fill="#f7941d"/>
        <path id="Trazado_40143" data-name="Trazado 40143" d="M509.441,413.748l-.908-1.995a4.845,4.845,0,0,1,1.562.043l.826,3.293s-3.254-.978-6.729,3.241l-.257-1.027C506.481,413.421,509.441,413.748,509.441,413.748Z" transform="translate(-503.389 -411.709)" fill="#fbb040"/>
      </g>
      <g id="Grupo_35988" data-name="Grupo 35988" transform="translate(140.388 145.785)">
        <path id="Trazado_40144" data-name="Trazado 40144" d="M337.644,581.342s3.837.937,7.625-4.156l1.113,3.682s-3.094,4.859-7.588,4.266Z" transform="translate(-337.644 -577.186)" fill="#da1c5c"/>
        <path id="Trazado_40145" data-name="Trazado 40145" d="M339.432,582.8l1.181,2.266a5.329,5.329,0,0,1-1.819.044l-1.15-3.768s3.837.937,7.625-4.156l.346,1.17C342.887,582.994,339.432,582.8,339.432,582.8Z" transform="translate(-337.644 -577.186)" fill="#ee2a7b"/>
      </g>
      <g id="Grupo_35989" data-name="Grupo 35989" transform="translate(190.05 45.498)">
        <path id="Trazado_40146" data-name="Trazado 40146" d="M573.338,104.911s2.516-1.613,6.494,1.088l-.116-2.907s-3.421-2.715-6.484-1.176Z" transform="translate(-573.232 -101.443)" fill="#009444"/>
        <path id="Trazado_40147" data-name="Trazado 40147" d="M574.33,103.718l.284-1.9a4.1,4.1,0,0,0-1.32.41l.106,3s2.516-1.613,6.493,1.088l-.034-.918C576.748,102.724,574.33,103.718,574.33,103.718Z" transform="translate(-573.281 -101.737)" fill="#0db253"/>
      </g>
      <g id="Grupo_35990" data-name="Grupo 35990" transform="translate(151.686 103.741)">
        <path id="Trazado_40148" data-name="Trazado 40148" d="M396.838,385.839s.028-3.818-5.6-6.23l3.2-1.87s5.254,1.819,5.7,6.184Z" transform="translate(-391.237 -377.739)" fill="#da1c5c"/>
        <path id="Trazado_40149" data-name="Trazado 40149" d="M397.892,388.544l1.87-1.613a5.653,5.653,0,0,1,.457,1.7l-3.291,1.916s.028-3.818-5.6-6.23l1.021-.6C397.306,385.251,397.892,388.544,397.892,388.544Z" transform="translate(-391.308 -382.452)" fill="#ee2a7b"/>
      </g>
      <g id="Grupo_35991" data-name="Grupo 35991" transform="translate(236.532 42.855)">
        <path id="Trazado_40150" data-name="Trazado 40150" d="M799.008,105.782a2.419,2.419,0,0,0,2.981.342c1.779-.978-4.446-3.565-7.24-.119a3.53,3.53,0,0,0,.618,5.394l2.208.018C797.572,111.4,794.147,107.569,799.008,105.782Z" transform="translate(-793.734 -101.032)" fill="#009444"/>
        <path id="Trazado_40151" data-name="Trazado 40151" d="M815.069,93.783c-1.917-2.35,1.3-5.375,4-4.808l1.017,1.561s-3.057.411-3.234,1.749,1.526,1.7,1.526,1.7S816.27,95.25,815.069,93.783Z" transform="translate(-810.112 -88.905)" fill="#39b54a"/>
      </g>
      <g id="Grupo_35992" data-name="Grupo 35992" transform="translate(234.733 107.593)">
        <path id="Trazado_40152" data-name="Trazado 40152" d="M790.746,396.085s.185,3.939-5.546,6.643l3.383,1.792s5.345-2.086,5.623-6.6Z" transform="translate(-785.2 -396.07)" fill="#009444"/>
        <path id="Trazado_40153" data-name="Trazado 40153" d="M791.885,398.051l1.993,1.591a5.864,5.864,0,0,0,.4-1.777l-3.461-1.854s.185,3.939-5.546,6.643l1.081.572C791.422,401.465,791.885,398.051,791.885,398.051Z" transform="translate(-785.258 -396.012)" fill="#0db253"/>
      </g>
      <g id="Grupo_35993" data-name="Grupo 35993" transform="translate(166.405 185.447)">
        <path id="Trazado_40154" data-name="Trazado 40154" d="M467.37,779.9a2.64,2.64,0,0,0,3.1,1.027c2.107-.644-3.97-4.788-7.713-1.724a3.831,3.831,0,0,0-.522,5.885l2.368.5C464.585,785.6,461.764,780.739,467.37,779.9Z" transform="translate(-461.061 -775.401)" fill="#f15a29"/>
        <path id="Trazado_40155" data-name="Trazado 40155" d="M487.931,769.906c-1.532-2.942,2.577-5.467,5.328-4.266l.749,1.9s-3.343-.226-3.848,1.149c-.488,1.393,1.254,2.159,1.254,2.159S488.889,771.735,487.931,769.906Z" transform="translate(-482.004 -765.335)" fill="#f7941d"/>
      </g>
      <g id="Grupo_35994" data-name="Grupo 35994" transform="translate(90.419 98.695)">
        <path id="Trazado_40156" data-name="Trazado 40156" d="M102.792,359.618s.611-2.93,5.354-3.837L106,353.8s-4.342.506-5.4,3.773Z" transform="translate(-100.6 -353.8)" fill="#009444"/>
        <path id="Trazado_40157" data-name="Trazado 40157" d="M102.392,362.983l-1.159-1.56a4.47,4.47,0,0,0-.632,1.223l2.192,2.024s.611-2.93,5.354-3.837l-.675-.632C103.383,360.558,102.392,362.983,102.392,362.983Z" transform="translate(-100.6 -358.851)" fill="#0db253"/>
      </g>
    </g>
    <rect id="Rectngulo_4535" data-name="Rectngulo 4535" width="176" height="176" transform="translate(75 169)" fill="none"/>
  </g>
</svg>
