<svg xmlns="http://www.w3.org/2000/svg" xmlns:xlink="http://www.w3.org/1999/xlink" width="46" height="46" viewBox="0 0 46 46">
  <defs>
    <clipPath id="clip-path">
      <circle id="Elipse_717" data-name="Elipse 717" cx="23" cy="23" r="23" transform="translate(556 190)" fill="#6d31ff"/>
    </clipPath>
  </defs>
  <g id="Grupo_35748" data-name="Grupo 35748" transform="translate(-5.262 -42.309)">
    <g id="Grupo_1" data-name="Grupo 1" transform="translate(-550.738 -147.691)" clip-path="url(#clip-path)">
      <rect id="Rectángulo_4214" data-name="Rectángulo 4214" width="56" height="49" transform="translate(551 187)" fill="#5a28f1"/>
      <g id="Grupo_2490" data-name="Grupo 2490" transform="translate(-6277.931 -256.817)">
        <path id="Trazado_4978" data-name="Trazado 4978" d="M6843.818,478.771c8.3-7.443,9.622-22.875,9.622-22.875l1,1.162,1.606-1.308,1.143,1.952,1.048-.907,1.479,1.036,1.721-.945.952,1.373,1.241-.918.707,1.079,1.547-1.206.992,1.569,1.116-.839,1.135,1.81,1.42-1.177.85,2.234s-1.318,15.432-9.622,22.875l.126-1.843-2.131,2.316-.552-1.778-2.325,2.327.006-2.2-1.877,1.075-.147-1.478-1.573,1.9-.312-2.114-1.67,1.321-.136-1.284-1.374.852-.395-1.27-1.685,1.064-.265-1.277-1.37.917-.1-1.868-1.685,1.064.107-1.556-2.827.288Z" fill="#f2e3c7"/>
        <path id="Trazado_4979" data-name="Trazado 4979" d="M6870.332,470.325s-1.333,10.8-7.979,18.992l16.1,2.456s5.509-5.439,7.472-18.812Z" transform="translate(-16.035 -11.254)" fill="#f9eede"/>
        <path id="Trazado_4980" data-name="Trazado 4980" d="M6899.257,479.192l10.317,1.96-.192,1.174-10.3-1.664Z" transform="translate(-44.395 -18.101)" fill="#f2e3c7"/>
        <path id="Trazado_4981" data-name="Trazado 4981" d="M6896.693,489.085l10.317,1.96-.193,1.174-10.3-1.664Z" transform="translate(-42.415 -25.739)" fill="#f2e3c7"/>
        <path id="Trazado_4982" data-name="Trazado 4982" d="M6891.908,545.781l9.313,2.016-.167,1.172-9.3-1.721Z" transform="translate(-38.74 -69.518)" fill="#f2e3c7"/>
        <path id="Trazado_4983" data-name="Trazado 4983" d="M6882.117,500.255a42.106,42.106,0,0,1-3.742,8.156l13.913,2.708a25.01,25.01,0,0,0,3.659-8.474Zm9.723,9.8-12.349-2.479a51.253,51.253,0,0,0,3.438-6.653l11.891,2.369C6894.593,506.145,6891.84,510.052,6891.84,510.052Z" transform="translate(-28.407 -34.365)" fill="#f2e3c7"/>
        <path id="Trazado_4984" data-name="Trazado 4984" d="M6892.189,510.275l13.191,2.526-.358.663-13.1-2.463Z" transform="translate(-38.868 -42.101)" fill="#f2e3c7"/>
        <path id="Trazado_4985" data-name="Trazado 4985" d="M6914.852,506.805l-3.07,7.61.819.2,2.793-7.643Z" transform="translate(-54.202 -39.422)" fill="#f2e3c7"/>
        <path id="Trazado_4986" data-name="Trazado 4986" d="M6917.666,528.555l5.939,1.072-.263.79-5.923-1.073Z" transform="translate(-58.555 -56.217)" fill="#f2e3c7"/>
      </g>
    </g>
  </g>
</svg>
