<svg xmlns="http://www.w3.org/2000/svg" width="360" height="360" viewBox="0 0 360 360">
  <g id="Grupo_40137" data-name="Grupo 40137" transform="translate(-775.238 -257.625)">
    <ellipse id="Elipse_760" data-name="Elipse 760" cx="105.337" cy="18.336" rx="105.337" ry="18.336" transform="translate(917.193 567.83)" fill="#fde375"/>
    <g id="Grupo_40164" data-name="Grupo 40164">
      <path id="Trazado_42885" data-name="Trazado 42885" d="M962.7,575.6l-3.972,1.731.605,16.72,76.563,3.7-.383-16.291Z" fill="#5224e2"/>
      <path id="Trazado_42886" data-name="Trazado 42886" d="M981.152,567.83l-22.42,9.5,76.786,4.125,14.585-6.039-4.534-5.721Z" fill="#6d31fd"/>
      <path id="Trazado_42887" data-name="Trazado 42887" d="M984.371,552.3l-11.8,2.078-.683,17.374,78.216,3.661,10.324-11.557-7.113-10.8Z" fill="#5224e2"/>
      <path id="Trazado_42888" data-name="Trazado 42888" d="M1061.56,550.891l-74.936-3.258-1.065-19.263,107.062-10.063Z" fill="#5224e2"/>
      <path id="Trazado_42889" data-name="Trazado 42889" d="M985.559,528.37l31.033-12.58,76.029,2.518-31.776,12.447Z" fill="#6d31fd"/>
      <g id="Grupo_40152" data-name="Grupo 40152">
        <path id="Trazado_42890" data-name="Trazado 42890" d="M1008.788,519.838s-1.769-.137-2.019,1.326,1.066,3.346,9.247,2.995c8.508-.366,11.54-1.644,21.747-3.232,0,0,5.76-.753,6.14-1.684a2.235,2.235,0,0,0-.345-2.364,5.756,5.756,0,0,0-1.6-.329Z" fill="#006070"/>
        <path id="Trazado_42891" data-name="Trazado 42891" d="M1028.773,499.588s4.715-2.914,13.475-1.145l-2.676,5.3Z" fill="#006070"/>
        <path id="Trazado_42892" data-name="Trazado 42892" d="M1040.644,499.056s-.24-2.867,1.239-3.057,2.087.608,1.755,1.287c-.239.489-1.613.488-1.551,1.661A1.957,1.957,0,0,1,1040.644,499.056Z" fill="#006070"/>
        <path id="Trazado_42893" data-name="Trazado 42893" d="M1029.985,484.695l1.068,26.989,10.035-.867-2.447-28.314Z" fill="#f4b08e"/>
        <path id="Trazado_42894" data-name="Trazado 42894" d="M1028.049,499.117s7.52,2.224,14.2-.674l1.007,19.18s-11.017,2.191-13.574,2.971-15.977,2.793-20.531,1.02c0,0-2.083-.7-1.516-2.14s10.006-5.405,15.045-8.539,5.6-4.034,5.736-5.217S1028.049,499.117,1028.049,499.117Z" fill="#2bbee0"/>
        <path id="Trazado_42895" data-name="Trazado 42895" d="M1021.69,517.143s16.718-5.175,12.87-17.211c0,0-4.435.034-5.069-.4,0,0,2.1,4.711.117,7.868s-10.4,7.1-10.4,7.1Z" fill="#006070"/>
        <path id="Trazado_42896" data-name="Trazado 42896" d="M1020.993,516.054s6.151-2.933,8.737-5.3,3.987-4.512,4-7.459-1.018-5.575-3.38-5.756-2.3,1.573-2.3,1.573.653,6.05.065,7.225c-.962,1.925-5.489,4.827-9.732,6.994Z" fill="#4295a8"/>
        <path id="Trazado_42897" data-name="Trazado 42897" d="M1042.235,511.026l.595-1.505s.1-1.546-.816-1.409-.871,1.306-.871,1.306a1.123,1.123,0,0,0-1.61-.418,1.107,1.107,0,0,0-.42,1.587s-1.085-.616-1.694.264.1,1.323.1,1.323a1.248,1.248,0,0,0-1.608.8c-.45,1.206.354,1.393.354,1.393a1.115,1.115,0,0,0-1.351.629,1.272,1.272,0,0,0,.48,1.557s-1.18-.384-1.4.6.932,1.35.932,1.35-1.084.208-1.1.857l.017.224,1.592-.346,4.492-4.159Z" fill="#0e7992"/>
        <path id="Trazado_42898" data-name="Trazado 42898" d="M1018.694,513.173c-.691.362-1.4.726-2.1,1.086,2.116.42,4.688,2.224,5.1,7.652.456-.05,1.17-.133,1.608-.188C1023.366,519.669,1023.057,514.676,1018.694,513.173Z" fill="#0e7992"/>
        <path id="Trazado_42899" data-name="Trazado 42899" d="M1035.436,519.239s1.674-8.564,7.394-9.718l.425,8.1Z" fill="#5ed4f0"/>
        <path id="Trazado_42900" data-name="Trazado 42900" d="M1020.271,512.32s2.862.865,3.77,2.931a1.056,1.056,0,0,0,.985-.423,5.36,5.36,0,0,0-3.515-3.2A1.247,1.247,0,0,0,1020.271,512.32Z" fill="#0e7992"/>
        <path id="Trazado_42901" data-name="Trazado 42901" d="M1023.191,510.6a4.578,4.578,0,0,1,2.163,1.159,7.049,7.049,0,0,1,1.456,2.144,1.3,1.3,0,0,0,.981-.541s-.939-2.86-3.553-3.428A1.245,1.245,0,0,0,1023.191,510.6Z" fill="#0e7992"/>
        <path id="Trazado_42902" data-name="Trazado 42902" d="M1025.647,508.895s3.131.644,4.127,2.868a1.325,1.325,0,0,0,.948-.613,6.058,6.058,0,0,0-4.239-2.939A.958.958,0,0,0,1025.647,508.895Z" fill="#0e7992"/>
        <path id="Trazado_42903" data-name="Trazado 42903" d="M1027.519,507.194s3.572.335,4.939,2.108a1.282,1.282,0,0,0,.631-.8,5.928,5.928,0,0,0-4.975-2.163A.985.985,0,0,0,1027.519,507.194Z" fill="#0e7992"/>
        <path id="Trazado_42904" data-name="Trazado 42904" d="M1028.333,505.063a8.6,8.6,0,0,1,5.49,1.522.915.915,0,0,0,.316-1.009s-1.667-2.038-5.78-1.5A.885.885,0,0,0,1028.333,505.063Z" fill="#0e7992"/>
        <path id="Trazado_42905" data-name="Trazado 42905" d="M1028.257,501.694s3.969-.437,6.2.364a1.463,1.463,0,0,1-.011,1.195,25.939,25.939,0,0,0-6.111-.381S1027.836,502.527,1028.257,501.694Z" fill="#0e7992"/>
      </g>
      <g id="Grupo_40153" data-name="Grupo 40153">
        <path id="Trazado_42906" data-name="Trazado 42906" d="M1038.91,522.563s-1.769-.136-2.019,1.326,1.066,3.346,9.247,2.995c8.508-.365,11.541-1.644,21.747-3.232,0,0,5.76-.752,6.141-1.683a2.236,2.236,0,0,0-.346-2.365,5.8,5.8,0,0,0-1.6-.329Z" fill="#006070"/>
        <path id="Trazado_42907" data-name="Trazado 42907" d="M1058.9,502.313s4.714-2.913,13.474-1.144l-2.675,5.3Z" fill="#006070"/>
        <path id="Trazado_42908" data-name="Trazado 42908" d="M1070.766,501.782s-.239-2.867,1.239-3.058,2.088.608,1.756,1.287c-.24.489-1.614.489-1.552,1.661A1.961,1.961,0,0,1,1070.766,501.782Z" fill="#006070"/>
        <path id="Trazado_42909" data-name="Trazado 42909" d="M1060.107,487.42l1.068,26.989,10.035-.867-2.447-28.314Z" fill="#f4b08e"/>
        <path id="Trazado_42910" data-name="Trazado 42910" d="M1058.171,501.842s7.52,2.225,14.2-.673l1.008,19.18s-11.018,2.19-13.574,2.971-15.978,2.793-20.532,1.019c0,0-2.083-.7-1.516-2.139s10.007-5.406,15.045-8.54,5.6-4.033,5.737-5.216S1058.171,501.842,1058.171,501.842Z" fill="#2bbee0"/>
        <path id="Trazado_42911" data-name="Trazado 42911" d="M1051.812,519.868s16.719-5.175,12.87-17.211c0,0-4.435.035-5.069-.4,0,0,2.1,4.711.117,7.868s-10.4,7.1-10.4,7.1Z" fill="#006070"/>
        <path id="Trazado_42912" data-name="Trazado 42912" d="M1051.116,518.779s6.15-2.933,8.737-5.294,3.986-4.512,4-7.46-1.017-5.575-3.38-5.756-2.3,1.573-2.3,1.573.653,6.051.066,7.226c-.963,1.924-5.49,4.827-9.733,6.994Z" fill="#4295a8"/>
        <path id="Trazado_42913" data-name="Trazado 42913" d="M1072.357,513.752l.595-1.506s.1-1.546-.816-1.409-.87,1.307-.87,1.307a1.124,1.124,0,0,0-1.611-.419,1.108,1.108,0,0,0-.42,1.588s-1.084-.617-1.694.264.1,1.323.1,1.323a1.248,1.248,0,0,0-1.608.8c-.449,1.207.354,1.394.354,1.394a1.113,1.113,0,0,0-1.35.629,1.273,1.273,0,0,0,.479,1.557s-1.179-.384-1.4.6.931,1.35.931,1.35-1.084.208-1.1.857l.017.224,1.592-.347,4.492-4.158Z" fill="#0e7992"/>
        <path id="Trazado_42914" data-name="Trazado 42914" d="M1048.816,515.9c-.69.363-1.4.726-2.1,1.086,2.116.42,4.688,2.224,5.1,7.653.456-.051,1.17-.133,1.608-.189C1053.488,522.4,1053.18,517.4,1048.816,515.9Z" fill="#0e7992"/>
        <path id="Trazado_42915" data-name="Trazado 42915" d="M1065.558,521.964s1.674-8.564,7.394-9.718l.426,8.1Z" fill="#5ed4f0"/>
        <path id="Trazado_42916" data-name="Trazado 42916" d="M1050.393,515.046s2.862.865,3.771,2.93a1.052,1.052,0,0,0,.984-.422,5.363,5.363,0,0,0-3.515-3.2A1.247,1.247,0,0,0,1050.393,515.046Z" fill="#0e7992"/>
        <path id="Trazado_42917" data-name="Trazado 42917" d="M1053.314,513.32a4.588,4.588,0,0,1,2.162,1.159,7.049,7.049,0,0,1,1.456,2.144,1.291,1.291,0,0,0,.981-.54s-.939-2.86-3.553-3.428A1.243,1.243,0,0,0,1053.314,513.32Z" fill="#0e7992"/>
        <path id="Trazado_42918" data-name="Trazado 42918" d="M1055.769,511.62s3.132.644,4.127,2.869a1.329,1.329,0,0,0,.949-.614,6.055,6.055,0,0,0-4.24-2.938A.959.959,0,0,0,1055.769,511.62Z" fill="#0e7992"/>
        <path id="Trazado_42919" data-name="Trazado 42919" d="M1057.642,509.919s3.571.336,4.939,2.108a1.282,1.282,0,0,0,.63-.8,5.926,5.926,0,0,0-4.974-2.162A.981.981,0,0,0,1057.642,509.919Z" fill="#0e7992"/>
        <path id="Trazado_42920" data-name="Trazado 42920" d="M1058.455,507.789a8.605,8.605,0,0,1,5.49,1.521.911.911,0,0,0,.316-1.008s-1.667-2.038-5.779-1.5A.884.884,0,0,0,1058.455,507.789Z" fill="#0e7992"/>
        <path id="Trazado_42921" data-name="Trazado 42921" d="M1058.379,504.42s3.97-.437,6.195.363a1.463,1.463,0,0,1-.01,1.2,25.949,25.949,0,0,0-6.112-.381S1057.958,505.252,1058.379,504.42Z" fill="#0e7992"/>
      </g>
      <path id="Trazado_42922" data-name="Trazado 42922" d="M1055.61,490.82l-.779-1.63s13.591-3.519,18.752-1.39l-10.495,5.47Z" fill="#910c55"/>
      <path id="Trazado_42923" data-name="Trazado 42923" d="M1025.909,490.82l-.779-1.63s13.591-3.519,18.753-1.39l-10.5,5.47Z" fill="#910c55"/>
      <path id="Trazado_42924" data-name="Trazado 42924" d="M1038.383,373.587a45.368,45.368,0,0,0-17.053,18.607c-5.835,12.384,5.216,101.454,5.216,101.454s9.35,3.959,16.767-2.044l-2.577-83.626,4.833,2.268,9.963,82a22.083,22.083,0,0,0,17.689-.643l-3.809-72.435s-.958-13.008-3.067-21.736-4.074-14.6-4.074-14.6S1045.554,383.176,1038.383,373.587Z" fill="#e00b71"/>
      <path id="Trazado_42925" data-name="Trazado 42925" d="M1030.066,410.815l3.834,70.548S1028.857,433.239,1030.066,410.815Z" fill="#bc0f65"/>
      <path id="Trazado_42926" data-name="Trazado 42926" d="M1056.15,410.309,1063,480.628S1060.726,432.294,1056.15,410.309Z" fill="#bc0f65"/>
      <path id="Trazado_42927" data-name="Trazado 42927" d="M1055.1,389.153l8.454,18.677-2.293.974a154.215,154.215,0,0,1-8.184-18.841Z" fill="#bc0f65"/>
      <path id="Trazado_42928" data-name="Trazado 42928" d="M1040.736,368.5s-2.565.561-4.6,4.056,7.717,8.217,12.028,9.715c5.79,2.012,14.612,2.19,16.145,2.211,1.994.027,1.584-3.03,1.5-4.091a4.411,4.411,0,0,0-1.075-2.139Z" fill="#910c55"/>
      <path id="Trazado_42929" data-name="Trazado 42929" d="M1059.438,378.57s-.206,4.708-.953,6.67l-1.389-.341.957-6.508Z" fill="#bc0f65"/>
      <path id="Trazado_42930" data-name="Trazado 42930" d="M1042.2,371.282s-3.23,4.137-4.109,6.412l1.227.871,3.99-6.278Z" fill="#bc0f65"/>
      <path id="Trazado_42931" data-name="Trazado 42931" d="M1047.075,373.636a44.772,44.772,0,0,0-2.746,7.966l4.82,2.087s2.8-4.679,3.173-7.174Z" fill="#bc0f65"/>
      <g id="Grupo_40154" data-name="Grupo 40154">
        <circle id="Elipse_761" data-name="Elipse 761" cx="1.305" cy="1.305" r="1.305" transform="translate(1046.645 378.228)" fill="#fccc05"/>
        <path id="Trazado_42932" data-name="Trazado 42932" d="M1048.5,378.351a1.27,1.27,0,0,0-.63-.114,1.3,1.3,0,0,1-.748,2.3,1.29,1.29,0,0,0,.275.179,1.3,1.3,0,1,0,1.1-2.364Z" fill="#e8bc05"/>
      </g>
      <path id="Trazado_42933" data-name="Trazado 42933" d="M1052.979,393.97s-1.547-4.206-5.429-4.206-3.883,2.277-2.373,2.828a8.4,8.4,0,0,0,3.869,0S1049.781,396.019,1052.979,393.97Z" fill="#eaa07f"/>
      <path id="Trazado_42934" data-name="Trazado 42934" d="M1078.347,344.775l10.222-2.663s7.833,7.163,6.854,17.855-9.492,34.877-38.455,41.369l-3.989-7.366s26.393-6.807,28.166-33.748Z" fill="#f4b08e"/>
      <path id="Trazado_42935" data-name="Trazado 42935" d="M1090.011,376.9l-10.683-3.311-3.567,3.644a35.32,35.32,0,0,1-3.7,4.857c1.563.446,4.867,2.1,7.334,8.188A47.861,47.861,0,0,0,1090.011,376.9Z" fill="#eaa07f"/>
      <path id="Trazado_42936" data-name="Trazado 42936" d="M1078.41,370.8a6.245,6.245,0,0,0-2.771.244,5.793,5.793,0,0,0-1.5,2.785,1.863,1.863,0,0,0,.377,1.162,2.043,2.043,0,0,0-1.222.6,3.386,3.386,0,0,0-.568,3.031c.486.977,7.307,6.03,14.746,7.074,0,0,1.4.294,1.869-.355a8.225,8.225,0,0,0,1.229-2.283,2.448,2.448,0,0,0-.287-.7,1.3,1.3,0,0,0,1.072-.495c.429-.552,1.6-2.92,1.174-3.658C1091.905,377.1,1087.507,374.009,1078.41,370.8Z" fill="#e00b71"/>
      <path id="Trazado_42937" data-name="Trazado 42937" d="M1075.164,375.3a38.35,38.35,0,0,0,14.084,6.614S1080.623,381.053,1075.164,375.3Z" fill="#bc0f65"/>
      <path id="Trazado_42938" data-name="Trazado 42938" d="M1077.629,379.135a23.141,23.141,0,0,0,7.033,2.758A9.068,9.068,0,0,1,1077.629,379.135Z" fill="#bc0f65"/>
      <path id="Trazado_42939" data-name="Trazado 42939" d="M1050.858,329.523s19.4-2.014,37.711,12.589c0,0-16.595,34.765-22.762,38.275,0,0-17.24,1.474-27.424-10.618C1038.383,369.769,1041.184,345.521,1050.858,329.523Z" fill="#f80a73"/>
      <g id="Grupo_40155" data-name="Grupo 40155">
        <path id="Trazado_42940" data-name="Trazado 42940" d="M1047.294,337.416l-.953-9.611,2.385-.32s8.841-.613,12.784,2.082l-17.356,21.214a9.652,9.652,0,0,1-1.4.509c-.106-.042-5.318-.333-10.986-1.4Z" fill="#f80a73"/>
        <path id="Trazado_42941" data-name="Trazado 42941" d="M1050.194,332.006l-1.468-4.521s-13.493,2.445-26.688-2c0,0-8.151,3.54-10.532,11.055,0,0,3.943,13.044,28.552,14.349C1040.058,350.884,1050.51,338.468,1050.194,332.006Z" fill="#f80a73"/>
        <path id="Trazado_42942" data-name="Trazado 42942" d="M1069.321,330.261s-7.67-1.684-9.2-1.217a1.968,1.968,0,0,0-1.011,3.155s-1.874,2.586.31,4.318c2.45,1.943,7.772,3.883,11.937,4.858s7.707.346,8.215-.685a4.825,4.825,0,0,0,.491-2,2.12,2.12,0,0,0,1.353-2.39C1081.075,334.519,1072.15,331.037,1069.321,330.261Z" fill="#e00b71"/>
        <path id="Trazado_42943" data-name="Trazado 42943" d="M1078.34,336.675c-.24.705-6.117-.659-9.96-1.968s-6.765-2.943-6.525-3.648,3.551-.215,7.4,1.094S1078.58,335.97,1078.34,336.675Z" fill="#910c55"/>
        <path id="Trazado_42944" data-name="Trazado 42944" d="M1065.02,330.9l-.725,2.129a33.23,33.23,0,0,0,4.085,1.676,50.733,50.733,0,0,0,6.888,1.852l1.545-4.537Z" fill="#f4b08e"/>
        <path id="Trazado_42945" data-name="Trazado 42945" d="M1076.813,332.022l1.175-3.448-10.909-3.716-2.059,6.044Z" fill="#eaa07f"/>
        <path id="Trazado_42946" data-name="Trazado 42946" d="M1061.277,333.57a41.408,41.408,0,0,0,17.065,5.073S1067.65,338.939,1061.277,333.57Z" fill="#bc0f65"/>
        <path id="Trazado_42947" data-name="Trazado 42947" d="M1061.51,335.581s6.03,3.163,9.658,3.67C1071.168,339.251,1064.544,338.483,1061.51,335.581Z" fill="#bc0f65"/>
        <path id="Trazado_42948" data-name="Trazado 42948" d="M1011.291,333.249a30.7,30.7,0,0,0-2.033,3.58c-.666,1.544.355,2.8,2.34,3.921s1.382,2.5,3.263,2.787,12.209-10.333,12.883-17.249a1.207,1.207,0,0,0-.971-1.4c-1.139-.169-1.795-1.048-2.663-.173,0,0-.757-2.169-2.712-1.463C1020.53,323.568,1015.109,327.428,1011.291,333.249Z" fill="#e00b71"/>
        <path id="Trazado_42949" data-name="Trazado 42949" d="M1027.646,326.987s5.936,2.34,21.682.645l-7.141,7.841Z" fill="#f80a73"/>
        <path id="Trazado_42950" data-name="Trazado 42950" d="M1013.289,338.88a32.05,32.05,0,0,0,10.094-11.714A93.406,93.406,0,0,1,1013.289,338.88Z" fill="#bc0f65"/>
        <path id="Trazado_42951" data-name="Trazado 42951" d="M1016.666,339.367a29.709,29.709,0,0,0,6.77-8.4S1019.254,336.311,1016.666,339.367Z" fill="#bc0f65"/>
        <ellipse id="Elipse_762" data-name="Elipse 762" cx="8.553" cy="1.346" rx="8.553" ry="1.346" transform="translate(1009.604 336.477) rotate(-48.976)" fill="#910c55"/>
        <path id="Trazado_42952" data-name="Trazado 42952" d="M1007.827,298.686c-.561,1.081-1.164,2.34-1.815,3.8-7.024,15.777,3.165,29.993,5.312,32.723a38.73,38.73,0,0,1,3.894-5.186,36.069,36.069,0,0,1,4.946-4.844c-5.117-5.18-8.532-13.218-5.641-25.619Z" fill="#f4b08e"/>
        <path id="Trazado_42953" data-name="Trazado 42953" d="M1016.572,294.916s-3.7-1.759-10.621-.187a18.721,18.721,0,0,0,.635,5.368c.516,1.361,3.139,1.536,4.021,1.391,0,0,3.645,1.189,4.646-.147C1015.979,300.373,1016.324,296.943,1016.572,294.916Z" fill="#f4b08e"/>
        <path id="Trazado_42954" data-name="Trazado 42954" d="M1013.055,295.086s.585-9.421,3.158-9.257c2.224.141.115,11.005.115,11.005Z" fill="#f4b08e"/>
        <path id="Trazado_42955" data-name="Trazado 42955" d="M1013.71,291.753a1.277,1.277,0,0,0-1.511-1.209c-1.434.168-2.043,3.821-.787,5.125C1012.427,296.724,1014.058,295.85,1013.71,291.753Z" fill="#eaa07f"/>
        <path id="Trazado_42956" data-name="Trazado 42956" d="M1010.9,291.828a1.277,1.277,0,0,0-1.615-1.065c-1.413.3-1.3,4.093-.311,5.177S1011.628,295.876,1010.9,291.828Z" fill="#eaa07f"/>
        <path id="Trazado_42957" data-name="Trazado 42957" d="M1012.649,301.615l2.546-1.824-.63-1.943-2.892-1.3-.521.3a2.021,2.021,0,0,0,1.481,2.831,1.952,1.952,0,0,0,.016,1.94" fill="#eaa07f"/>
        <path id="Trazado_42958" data-name="Trazado 42958" d="M1012.63,301.924a3.152,3.152,0,0,0,2.993-.8c1.037-1.214,1.391-3.464.705-4.293s-4.075-1.605-4.952-.446.431,2.526,2.208,2.928A5.075,5.075,0,0,0,1012.63,301.924Z" fill="#f4b08e"/>
        <path id="Trazado_42959" data-name="Trazado 42959" d="M1008.276,292.472s-.54-.729-1.66-.1-1.165,3.277.156,3.773,1.625-.494,1.736-1.093A10.216,10.216,0,0,0,1008.276,292.472Z" fill="#eaa07f"/>
        <path id="Trazado_42960" data-name="Trazado 42960" d="M1007.949,297.54s2.305,1.05,1.891,2.93A5.228,5.228,0,0,0,1007.949,297.54Z" fill="#eaa07f"/>
        <path id="Trazado_42961" data-name="Trazado 42961" d="M1020.167,325.178q-.641-.648-1.242-1.359c-2.2,4.918-7.356,5.548-11.529,5.127a38.361,38.361,0,0,0,3.928,6.265c.243.31.7.943,1.054,1.369a29.349,29.349,0,0,0,4.871-4.788,36.607,36.607,0,0,0,4.081-5.508Q1020.736,325.755,1020.167,325.178Z" fill="#eaa07f"/>
        <path id="Trazado_42962" data-name="Trazado 42962" d="M1010.056,304.2a12.849,12.849,0,0,0,3.648.468.624.624,0,0,1,.3.587c.009.314-.083,1.176-.365,1.372a9.964,9.964,0,0,1-3.555-.17Z" fill="#4295a8"/>
        <path id="Trazado_42963" data-name="Trazado 42963" d="M1005.691,302.417s1.03.815,4.955,1.96c0,0,1.53.361,1.613,1.091a1.017,1.017,0,0,1-1.151,1.13,14.163,14.163,0,0,1-6.164-2.08s-.244-.18-.181-.7S1005.2,302.281,1005.691,302.417Z" fill="#2bbee0"/>
        <path id="Trazado_42964" data-name="Trazado 42964" d="M1011.362,306.66l.418-1.841a.932.932,0,0,0-.7-1.113l-1.362-.308a.929.929,0,0,0-1.112.7l-.418,1.842a.928.928,0,0,0,.7,1.112l1.361.309A.93.93,0,0,0,1011.362,306.66Zm-.922-.141-1.367-.311a.066.066,0,0,1-.044-.077l.418-1.841a.066.066,0,0,1,.029-.042.063.063,0,0,1,.05-.008l1.362.309a.067.067,0,0,1,.049.079l-.418,1.841A.066.066,0,0,1,1010.44,306.519Z" fill="#fccc05"/>
      </g>
      <g id="Grupo_40157" data-name="Grupo 40157">
        <g id="Grupo_40156" data-name="Grupo 40156">
          <path id="Trazado_42965" data-name="Trazado 42965" d="M854.312,363.237q-12.2,0-21.134-4.957a34.193,34.193,0,0,1-13.78-13.944,43.5,43.5,0,0,1-4.848-20.97,42.958,42.958,0,0,1,4.848-20.807,34.3,34.3,0,0,1,13.78-13.889q8.931-4.956,21.134-4.957A48.065,48.065,0,0,1,869.073,286a31.178,31.178,0,0,1,11.493,6.209l-6.21,14.489a38.024,38.024,0,0,0-9.8-5.229,30.182,30.182,0,0,0-9.8-1.634q-9.261,0-14.325,5.882t-5.066,17.648q0,11.765,5.066,17.757t14.325,5.991a30.209,30.209,0,0,0,9.8-1.634,38.025,38.025,0,0,0,9.8-5.229l6.21,14.489a31.177,31.177,0,0,1-11.493,6.209A48.065,48.065,0,0,1,854.312,363.237Z" fill="#4295a8"/>
          <path id="Trazado_42966" data-name="Trazado 42966" d="M926.429,363.237q-11.985,0-20.753-4.9A33.5,33.5,0,0,1,892.168,344.5q-4.739-8.931-4.739-21.134,0-12.092,4.794-21.025a33.592,33.592,0,0,1,13.508-13.78q8.713-4.847,20.7-4.848t20.643,4.848a33.349,33.349,0,0,1,13.4,13.78q4.738,8.934,4.739,21.025,0,12.2-4.739,21.134a33.692,33.692,0,0,1-13.4,13.834Q938.411,363.237,926.429,363.237Zm0-15.578a16.725,16.725,0,0,0,13.562-6.1q5.065-6.1,5.066-18.192,0-11.982-5.066-18.029a16.79,16.79,0,0,0-13.562-6.046q-8.5,0-13.509,5.991t-5.011,18.084q0,12.2,5.011,18.247T926.429,347.659Z" fill="#4295a8"/>
          <path id="Trazado_42967" data-name="Trazado 42967" d="M976.809,362.256V284.693h14.925l38.563,48.041-3.377,2.615V284.693H1046.2v77.563H1031.06l-38.237-47.823,3.05-2.832v50.655Z" fill="#4295a8"/>
        </g>
        <path id="Trazado_42968" data-name="Trazado 42968" d="M858.905,363.237q-12.2,0-21.133-4.957a34.189,34.189,0,0,1-13.781-13.944,43.5,43.5,0,0,1-4.847-20.97,42.957,42.957,0,0,1,4.847-20.807,34.291,34.291,0,0,1,13.781-13.889q8.931-4.956,21.133-4.957A48.061,48.061,0,0,1,873.666,286a31.178,31.178,0,0,1,11.493,6.209L878.95,306.7a38.046,38.046,0,0,0-9.8-5.229,30.173,30.173,0,0,0-9.8-1.634q-9.261,0-14.325,5.882t-5.066,17.648q0,11.765,5.066,17.757t14.325,5.991a30.2,30.2,0,0,0,9.8-1.634,38.047,38.047,0,0,0,9.8-5.229l6.209,14.489a31.177,31.177,0,0,1-11.493,6.209A48.061,48.061,0,0,1,858.905,363.237Z" fill="#2bbee0"/>
        <path id="Trazado_42969" data-name="Trazado 42969" d="M931.022,363.237q-11.985,0-20.753-4.9A33.515,33.515,0,0,1,896.761,344.5q-4.738-8.931-4.738-21.134,0-12.092,4.793-21.025a33.6,33.6,0,0,1,13.508-13.78q8.714-4.847,20.7-4.848t20.643,4.848a33.349,33.349,0,0,1,13.4,13.78q4.74,8.934,4.739,21.025,0,12.2-4.739,21.134a33.692,33.692,0,0,1-13.4,13.834Q943.006,363.237,931.022,363.237Zm0-15.578a16.723,16.723,0,0,0,13.562-6.1q5.067-6.1,5.066-18.192,0-11.982-5.066-18.029a16.788,16.788,0,0,0-13.562-6.046q-8.5,0-13.508,5.991T912.5,323.366q0,12.2,5.011,18.247T931.022,347.659Z" fill="#2bbee0"/>
        <path id="Trazado_42970" data-name="Trazado 42970" d="M981.4,362.256V284.693h14.924l38.563,48.041-3.377,2.615V284.693H1050.8v77.563h-15.142l-38.237-47.823,3.05-2.832v50.655Z" fill="#2bbee0"/>
      </g>
      <g id="Grupo_40159" data-name="Grupo 40159">
        <path id="Trazado_42971" data-name="Trazado 42971" d="M854.405,458.931q-12.2,0-21.133-4.957a34.189,34.189,0,0,1-13.781-13.944,43.5,43.5,0,0,1-4.847-20.97,42.957,42.957,0,0,1,4.847-20.807,34.291,34.291,0,0,1,13.781-13.889q8.931-4.956,21.133-4.957a48.061,48.061,0,0,1,14.761,2.288,31.178,31.178,0,0,1,11.493,6.209l-6.209,14.489a38.046,38.046,0,0,0-9.8-5.229,30.2,30.2,0,0,0-9.8-1.634q-9.261,0-14.325,5.882T835.45,419.06q0,11.765,5.066,17.757t14.325,5.991a30.2,30.2,0,0,0,9.8-1.634,38.047,38.047,0,0,0,9.8-5.229l6.209,14.489a31.177,31.177,0,0,1-11.493,6.209A48.061,48.061,0,0,1,854.405,458.931Z" fill="#4295a8"/>
        <path id="Trazado_42972" data-name="Trazado 42972" d="M898.473,457.95V380.387h55.339v15.688h-35.4v14.6h33.117v15.687H918.408v15.9h35.4V457.95Z" fill="#4295a8"/>
        <path id="Trazado_42973" data-name="Trazado 42973" d="M980.159,457.95v-77.6H1017.1q13.512,0,20.707,6.43t7.193,17.22q0,10.79-7.3,17.22t-20.6,6.43h-16.457v30.3Zm20.489-45.555h13.732q5.992,0,8.774-2.125a7.167,7.167,0,0,0,2.779-6.049,7.469,7.469,0,0,0-2.725-6.267q-2.726-2.124-8.828-2.125h-13.732Z" fill="#4295a8"/>
        <g id="Grupo_40158" data-name="Grupo 40158">
          <path id="Trazado_42974" data-name="Trazado 42974" d="M837.878,555.758v-61H814.783V478.2H881.67v16.559H858.575v61Z" fill="#4295a8"/>
          <path id="Trazado_42975" data-name="Trazado 42975" d="M926.841,556.739q-11.985,0-20.753-4.9A33.5,33.5,0,0,1,892.58,538q-4.738-8.931-4.739-21.133,0-12.093,4.794-21.025a33.6,33.6,0,0,1,13.508-13.78q8.714-4.846,20.7-4.848t20.643,4.848a33.349,33.349,0,0,1,13.4,13.78q4.738,8.934,4.739,21.025,0,12.2-4.739,21.133a33.688,33.688,0,0,1-13.4,13.835Q938.823,556.738,926.841,556.739Zm0-15.578a16.725,16.725,0,0,0,13.562-6.1q5.066-6.1,5.066-18.192,0-11.982-5.066-18.029a16.79,16.79,0,0,0-13.562-6.046q-8.5,0-13.509,5.991t-5.011,18.084q0,12.2,5.011,18.247T926.841,541.161Z" fill="#4295a8"/>
        </g>
        <path id="Trazado_42976" data-name="Trazado 42976" d="M858.905,458.931q-12.2,0-21.133-4.957a34.189,34.189,0,0,1-13.781-13.944,43.5,43.5,0,0,1-4.847-20.97,42.957,42.957,0,0,1,4.847-20.807,34.291,34.291,0,0,1,13.781-13.889q8.931-4.956,21.133-4.957a48.061,48.061,0,0,1,14.761,2.288,31.178,31.178,0,0,1,11.493,6.209l-6.209,14.489a38.046,38.046,0,0,0-9.8-5.229,30.2,30.2,0,0,0-9.8-1.634q-9.261,0-14.325,5.882T839.95,419.06q0,11.765,5.066,17.757t14.325,5.991a30.2,30.2,0,0,0,9.8-1.634,38.047,38.047,0,0,0,9.8-5.229l6.209,14.489a31.177,31.177,0,0,1-11.493,6.209A48.061,48.061,0,0,1,858.905,458.931Z" fill="#2bbee0"/>
        <path id="Trazado_42977" data-name="Trazado 42977" d="M903.873,457.95V380.387h55.339v15.688h-35.4v14.6h33.117v15.687H923.808v15.9h35.4V457.95Z" fill="#2bbee0"/>
        <path id="Trazado_42978" data-name="Trazado 42978" d="M985.618,457.95v-77.6h36.946q13.512,0,20.707,6.43t7.193,17.22q0,10.79-7.3,17.22t-20.6,6.43h-16.457v30.3Zm20.489-45.555h13.733q5.991,0,8.773-2.125a7.164,7.164,0,0,0,2.779-6.049,7.466,7.466,0,0,0-2.725-6.267q-2.726-2.124-8.827-2.125h-13.733Z" fill="#2bbee0"/>
      </g>
      <g id="Grupo_40160" data-name="Grupo 40160">
        <path id="Trazado_42979" data-name="Trazado 42979" d="M842.471,555.758v-61h-23.1V478.2h66.887v16.559H863.169v61Z" fill="#2bbee0"/>
        <path id="Trazado_42980" data-name="Trazado 42980" d="M931.434,556.739q-11.985,0-20.752-4.9A33.508,33.508,0,0,1,897.173,538q-4.738-8.931-4.738-21.133,0-12.093,4.793-21.025a33.6,33.6,0,0,1,13.508-13.78q8.713-4.846,20.7-4.848t20.643,4.848a33.349,33.349,0,0,1,13.4,13.78q4.74,8.934,4.739,21.025,0,12.2-4.739,21.133a33.688,33.688,0,0,1-13.4,13.835Q943.418,556.738,931.434,556.739Zm0-15.578A16.723,16.723,0,0,0,945,535.06q5.067-6.1,5.066-18.192,0-11.982-5.066-18.029a16.788,16.788,0,0,0-13.562-6.046q-8.5,0-13.508,5.991t-5.011,18.084q0,12.2,5.011,18.247T931.434,541.161Z" fill="#2bbee0"/>
      </g>
      <path id="Trazado_42981" data-name="Trazado 42981" d="M1089.287,325.008s7.348.636,7.723,6.14-6.494,6.308-2.5,11.226c0,0-7.8-.192-10.393-5.531C1081.214,330.871,1084.335,325.629,1089.287,325.008Z" fill="#6d31fd"/>
      <path id="Trazado_42982" data-name="Trazado 42982" d="M1092.146,330.916s-.2-4.567-3.36-5.531c0,0,.846,1.906-2.078,5.718-2.744,3.578-1.057,10.97,7.8,11.271,0,0-5.264-1.659-3.98-4.915A27.782,27.782,0,0,0,1092.146,330.916Z" fill="#5224e2"/>
      <path id="Trazado_42983" data-name="Trazado 42983" d="M1097.01,331.148c-.264-3.873-3.978-5.334-6.158-5.861l-1.311,1.054s3.085,1.681.921,5.894-2.167,8.91,4.046,10.139C1090.516,337.456,1097.385,336.653,1097.01,331.148Z" fill="#6d31fd"/>
      <path id="Trazado_42984" data-name="Trazado 42984" d="M1089.287,325.008a7.025,7.025,0,0,0-5.53,3.909,13.628,13.628,0,0,1,8.389,2,10.816,10.816,0,0,1,3.993,3.743,5.82,5.82,0,0,0,.871-3.511C1096.635,325.644,1089.287,325.008,1089.287,325.008Z" fill="#422c9b" opacity="0.41"/>
      <path id="Trazado_42985" data-name="Trazado 42985" d="M1085.871,323.544s-1.4,2.785,2.205,3.336,3.586-1.9,3.558-3.272S1085.871,323.544,1085.871,323.544Z" fill="#e00b71"/>
      <path id="Trazado_42986" data-name="Trazado 42986" d="M1091.634,323.608a.417.417,0,0,0-.078-.236c-.05,1.359-.5,3.047-3.557,2.58-1.537-.235-2.163-.875-2.377-1.532-.106.866.168,2.111,2.454,2.46C1091.683,327.432,1091.662,324.976,1091.634,323.608Z" fill="#f80a73"/>
      <circle id="Elipse_763" data-name="Elipse 763" cx="3.426" cy="3.426" r="3.426" transform="translate(1056.243 306.086)" fill="#eaa07f"/>
      <path id="Trazado_42987" data-name="Trazado 42987" d="M1058.332,308.518a1.073,1.073,0,0,1,1.116,1.162c-.061,1.174-.947,1.2-1.318,1.057a.483.483,0,0,1,.058-.875c.377-.094.554.338.554.338A1.188,1.188,0,0,0,1058.332,308.518Z" fill="#d88564"/>
      <path id="Trazado_42988" data-name="Trazado 42988" d="M1090.148,303.976l4.925-4.9s5.921,1.561,4.455,13.838c-1.287,10.783-8.619,13.506-12.287,12.048C1080.066,322.106,1090.148,303.976,1090.148,303.976Z" fill="#6d31fd"/>
      <circle id="Elipse_764" data-name="Elipse 764" cx="3.426" cy="3.426" r="3.426" transform="translate(1088.57 313.824)" fill="#f4b08e"/>
      <path id="Trazado_42989" data-name="Trazado 42989" d="M1093.608,317.24a1.072,1.072,0,0,0-1.529.508c-.493,1.067.279,1.5.673,1.55a.483.483,0,0,0,.357-.8c-.29-.259-.648.041-.648.041S1092.4,317.251,1093.608,317.24Z" fill="#d88564"/>
      <circle id="Elipse_765" data-name="Elipse 765" cx="16.58" cy="16.58" r="16.58" transform="translate(1059.604 296.021)" fill="#f4b08e"/>
      <path id="Trazado_42990" data-name="Trazado 42990" d="M1057.223,307.116c9.685,3.569,12.6-6.225,18.514-7.009,5.368-.713,9.749,4.758,9.749,4.758l11.4-2.491s.982-16.369-20.269-16.141C1057.879,286.433,1057.223,307.116,1057.223,307.116Z" fill="#6d31fd"/>
      <path id="Trazado_42991" data-name="Trazado 42991" d="M1088.6,301.892a5.126,5.126,0,0,0-3.118,2.973c-1.733,5.086,3.249,5.783,5.053,8.75,1.4,2.309-.449,5.118-.449,5.118s4.959.443,6.791-6.966S1096.35,299.642,1088.6,301.892Z" fill="#6d31fd"/>
      <path id="Trazado_42992" data-name="Trazado 42992" d="M1087.084,303.14l8.326-3.115A13.882,13.882,0,0,0,1087.084,303.14Z" fill="#5224e2"/>
      <path id="Trazado_42993" data-name="Trazado 42993" d="M1085.486,304.865s.066-5.5-4.171-7.634-8.3-1.9-12.959,2.378c-5.085,4.665-10.479,6.522-13.169,5.011,0,0,.236,3.925,6.953,3.229s10.808-6.448,14.718-6.707C1081.4,300.842,1085.486,304.865,1085.486,304.865Z" fill="#241c6b"/>
      <path id="Trazado_42994" data-name="Trazado 42994" d="M1076.944,298.737c4.91.286,8.542,6.128,8.542,6.128s.066-5.5-4.171-7.634-8.3-1.9-12.959,2.378c-5.085,4.665-10.479,6.522-13.169,5.011a3.293,3.293,0,0,0,1.4,2.25C1064.034,309.282,1070.552,298.365,1076.944,298.737Z" fill="#5224e2"/>
      <rect id="Rectángulo_5892" data-name="Rectángulo 5892" width="2.955" height="1.04" rx="0.52" transform="matrix(0.971, 0.24, -0.24, 0.971, 1070.739, 321.759)" fill="#4d4d4d"/>
      <path id="Trazado_42995" data-name="Trazado 42995" d="M1080,308.486a2.766,2.766,0,0,1,3.732.923Z" fill="#6d31fd"/>
      <g id="Grupo_40163" data-name="Grupo 40163">
        <g id="Grupo_40161" data-name="Grupo 40161">
          <path id="Trazado_42996" data-name="Trazado 42996" d="M1063.586,317.592a6.373,6.373,0,0,1-4.443-3.312c-1.842-3.692.273-8.749.364-8.963a.789.789,0,0,1,.916-.457l12.2,3.121a.79.79,0,0,1,.594.8c-.011.217-.285,5.335-3.489,7.806a6.818,6.818,0,0,1-5.832,1.075C1063.794,317.641,1063.688,317.617,1063.586,317.592Z" fill="#4295a8"/>
          <path id="Trazado_42997" data-name="Trazado 42997" d="M1061.531,305.959l10.9,2.787s-.459,9.834-8.367,8.145c-6.067-1.295-5.08-7.231-4.292-9.926A1.456,1.456,0,0,1,1061.531,305.959Z" fill="#062625"/>
          <path id="Trazado_42998" data-name="Trazado 42998" d="M1069.412,311.414l-2.526-.624,2.308-2.872-3.567-.912-.272,0-3.023,3.761,2.526.624-3.64,4.233a6.7,6.7,0,0,0,2.847,1.269c.108.024.21.036.316.055l.271,0Z" fill="#20514e"/>
          <path id="Trazado_42999" data-name="Trazado 42999" d="M1061.924,305.865l-.086-.642-2.9-.728a.4.4,0,0,0-.488.3l-.2.871a.4.4,0,0,0,.295.472l.995.323.734-1.038Z" fill="#4295a8"/>
          <ellipse id="Elipse_766" data-name="Elipse 766" cx="0.262" cy="0.426" rx="0.262" ry="0.426" transform="translate(1058.851 305.555) rotate(-76.112)" fill="#fccc05"/>
          <rect id="Rectángulo_5893" data-name="Rectángulo 5893" width="4.217" height="1.33" transform="translate(1072.22 311.082) rotate(13.888)" fill="#128d93"/>
        </g>
        <g id="Grupo_40162" data-name="Grupo 40162">
          <path id="Trazado_43000" data-name="Trazado 43000" d="M1080.979,321.892a6.369,6.369,0,0,0,5.473-.86c3.351-2.408,3.837-7.868,3.856-8.1a.791.791,0,0,0-.6-.832l-12.252-2.926a.791.791,0,0,0-.9.433c-.092.2-2.235,4.853-.551,8.532a6.816,6.816,0,0,0,4.659,3.67C1080.772,321.839,1080.876,321.867,1080.979,321.892Z" fill="#4295a8"/>
          <path id="Trazado_43001" data-name="Trazado 43001" d="M1088.218,312.557l-10.944-2.614s-4.177,8.915,3.607,11.106c5.971,1.681,7.865-4.031,8.423-6.783A1.454,1.454,0,0,0,1088.218,312.557Z" fill="#062625"/>
          <path id="Trazado_43002" data-name="Trazado 43002" d="M1083,314.774l2.335-2.906-3.983-.951-2.906,3.832,2.526.625-3.307,3.844a6.777,6.777,0,0,0,3.216,1.831c.272.077.532.133.787.18l3.858-5.831Z" fill="#20514e"/>
          <path id="Trazado_43003" data-name="Trazado 43003" d="M1087.914,312.291l.375-.528,2.9.706a.4.4,0,0,1,.291.5l-.233.862a.4.4,0,0,1-.481.28l-1.03-.178-.167-1.26Z" fill="#4295a8"/>
          <ellipse id="Elipse_767" data-name="Elipse 767" cx="0.262" cy="0.426" rx="0.262" ry="0.426" transform="translate(1089.95 313.244) rotate(-76.112)" fill="#fccc05"/>
          <rect id="Rectángulo_5894" data-name="Rectángulo 5894" width="4.217" height="1.33" transform="translate(1076.054 313.399) rotate(-166.112)" fill="#4295a8"/>
        </g>
        <path id="Trazado_43004" data-name="Trazado 43004" d="M1089.589,314.7l3.731,1.756-.723,1.124-3.176-1.563Z" fill="#4295a8"/>
      </g>
      <path id="Trazado_43005" data-name="Trazado 43005" d="M1075.364,356.4s7.528,6.068,1.845,17.436a18.963,18.963,0,0,0,13.575,5.476s15.895-26.511-2.215-37.2C1088.569,342.112,1080.014,343.8,1075.364,356.4Z" fill="#f80a73"/>
      <path id="Trazado_43006" data-name="Trazado 43006" d="M1049.706,393.359s.593-.881,5.015.215c0,0,4.78,4.6,3.135,7.725,0,0-2.108,3.347-4.877,3.634C1052.979,404.933,1049.922,398.247,1049.706,393.359Z" fill="#eaa07f"/>
      <path id="Trazado_43007" data-name="Trazado 43007" d="M1041.354,400.233a2.7,2.7,0,0,1,1.272-2.8c1.614-1.126,6.556-4.409,7.919-4.275a2.4,2.4,0,0,1,1.929,3.184,2,2,0,0,1,1.653,1.654c.432,1.581-.323,2.192-.323,2.192a1.8,1.8,0,0,1,1.294,1.294,2.586,2.586,0,0,1-.431,2.121c-.288.431-4.961,4.745-7.046,4.349s-.539-3.558-.539-3.558-2.66,1.438-3.7.072,1.114-3.379,1.114-3.379S1042.032,402.015,1041.354,400.233Z" fill="#f4b08e"/>
      <path id="Trazado_43008" data-name="Trazado 43008" d="M1025.13,489.19l.717,5.43a2.361,2.361,0,0,0,1.787,1.422c1.418.3,6.709.757,14.25-.623a2.556,2.556,0,0,0,1.83-1.971c.158-1.507.169-5.648.169-5.648A50.207,50.207,0,0,1,1025.13,489.19Z" fill="#bc0f65"/>
      <path id="Trazado_43009" data-name="Trazado 43009" d="M1054.831,489.19l.717,5.43a2.361,2.361,0,0,0,1.787,1.422c1.418.3,6.708.757,14.25-.623a2.558,2.558,0,0,0,1.83-1.971c.158-1.507.168-5.648.168-5.648A50.2,50.2,0,0,1,1054.831,489.19Z" fill="#bc0f65"/>
      <path id="Trazado_43010" data-name="Trazado 43010" d="M1052.714,402.539s2.442-.811,2.716.92c.284,1.8-.038,3.618-.835,4.242-1.451,1.135-3.31,1.437-4.24.96a.922.922,0,0,1,.359-1.567,4.965,4.965,0,0,0,1.725-1.122l.1-1.246S1051.64,404.206,1052.714,402.539Z" fill="#f4b08e"/>
      <path id="Trazado_43011" data-name="Trazado 43011" d="M1092.62,518.307v61.159l-56.72,18.281-.383-16.291,14.585-6.039-1.523-18.442,12.98-6.084-.715-20.136Z" fill="#422c9b"/>
      <path id="Trazado_43012" data-name="Trazado 43012" d="M1048.579,556.975l-76.01-2.593,14.054-6.749,74.936,3.258Z" fill="#6d31fd"/>
      <path id="Trazado_43013" data-name="Trazado 43013" d="M1045.3,400.275l5.856-3.436S1047.93,399.766,1045.3,400.275Z" fill="#eaa07f"/>
      <path id="Trazado_43014" data-name="Trazado 43014" d="M1047.95,403.712l5.029-3.146S1049.964,403.542,1047.95,403.712Z" fill="#eaa07f"/>
    </g>
    <rect id="Rectángulo_5895" data-name="Rectángulo 5895" width="360" height="360" transform="translate(775.238 257.625)" fill="none"/>
  </g>
</svg>
