<svg xmlns="http://www.w3.org/2000/svg" width="360" height="360" viewBox="0 0 360 360">
  <g id="Grupo_40080" data-name="Grupo 40080" transform="translate(-151.49 -363.696)">
    <path id="Trazado_43015" data-name="Trazado 43015" d="M297.374,455.5l-11.559,1.522s-5.859-3.853-5.859-14.906c0,0,14.657-4.233,23.219-1.559Z" fill="#fcc6ae"/>
    <ellipse id="Elipse_768" data-name="Elipse 768" cx="52.833" cy="9.197" rx="52.833" ry="9.197" transform="translate(191.695 689.302)" fill="#fde375"/>
    <path id="Trazado_43016" data-name="Trazado 43016" d="M256.826,474.321s7.522,9.492,15.632,15.758c7.886,6.091,16.314.7,15.058-16.6-1.177-16.2-3-24.085-3-24.085l11.342-1.174s12.245,49.934-5.225,59.125c-23.685,12.461-35.946-12.874-40.642-19.655S256.826,474.321,256.826,474.321Z" fill="#fcc6ae"/>
    <g id="Grupo_40170" data-name="Grupo 40170">
      <path id="Trazado_43017" data-name="Trazado 43017" d="M277.871,497.036c2.168.631,2.734,5.55,2.858,7.082a.562.562,0,0,1-.4.587c-1.609.475-7.185,1.908-7.871-.823a2.726,2.726,0,0,1,2.292-3.606S274.189,495.965,277.871,497.036Z" fill="#bc0f65"/>
      <g id="Grupo_40169" data-name="Grupo 40169">
        <g id="Grupo_40168" data-name="Grupo 40168">
          <g id="Grupo_40167" data-name="Grupo 40167">
            <g id="Grupo_40165" data-name="Grupo 40165">
              <path id="Trazado_43018" data-name="Trazado 43018" d="M276.956,500.541a.674.674,0,0,1,.808.5l.015.068s.643-.237.845.2l-.1-.448a1.449,1.449,0,1,0-2.824.655l.015.067a.662.662,0,0,0,.8.541l.119-.028-.166-.717-.009-.039a.673.673,0,0,1,.5-.807" fill="#fccc05"/>
            </g>
            <g id="Grupo_40166" data-name="Grupo 40166">
              <path id="Trazado_43019" data-name="Trazado 43019" d="M277.555,503.125a.674.674,0,0,1-.808-.5l-.016-.068s-.642.238-.844-.2l.1.447a1.449,1.449,0,1,0,2.824-.654l-.016-.068a.66.66,0,0,0-.8-.54l-.12.027.166.718.009.038a.674.674,0,0,1-.5.808" fill="#fccc05"/>
            </g>
          </g>
          <path id="Trazado_43020" data-name="Trazado 43020" d="M276.911,501.328l.257,1.109a.221.221,0,1,0,.431-.1l-.257-1.109a.221.221,0,0,0-.431.1Z" fill="#fccc05"/>
        </g>
      </g>
      <path id="Trazado_43021" data-name="Trazado 43021" d="M273.872,491.042h0c-2.494,5.768-11.154,10.5-13.052,11.483,3.6,3.651,8.019,6.757,13.368,7.823.476-6.073,3.483-14.311,4.88-17.869A9.089,9.089,0,0,1,273.872,491.042Z" fill="#bcb5b1" opacity="0.2" style="mix-blend-mode: multiply;isolation: isolate"/>
    </g>
    <g id="Grupo_40171" data-name="Grupo 40171">
      <path id="Trazado_43022" data-name="Trazado 43022" d="M258.422,454.57a37.861,37.861,0,0,1-18.666-4.378,30.2,30.2,0,0,1-12.172-12.316,38.422,38.422,0,0,1-4.281-18.522,37.94,37.94,0,0,1,4.281-18.378,30.284,30.284,0,0,1,12.172-12.267,37.882,37.882,0,0,1,18.666-4.378,42.453,42.453,0,0,1,13.038,2.02,27.543,27.543,0,0,1,10.151,5.485l-5.485,12.8a33.6,33.6,0,0,0-8.659-4.619,26.679,26.679,0,0,0-8.66-1.443q-8.18,0-12.653,5.2t-4.474,15.587q0,10.392,4.474,15.683t12.653,5.293a26.68,26.68,0,0,0,8.66-1.444,33.59,33.59,0,0,0,8.659-4.618l5.485,12.8a27.543,27.543,0,0,1-10.151,5.484A42.455,42.455,0,0,1,258.422,454.57Z" fill="#910c55"/>
      <path id="Trazado_43023" data-name="Trazado 43023" d="M303.1,453.7H285.011L317.052,385.2h14.24L363.429,453.7h-17.8L322.44,399.726h3.945Zm-3.271-14.144,7.024-13.567h33.58l6.927,13.567Z" fill="#910c55"/>
      <path id="Trazado_43024" data-name="Trazado 43024" d="M381.082,453.7V399.822h-20.4V385.2h59.078v14.625h-20.4V453.7Z" fill="#910c55"/>
      <path id="Trazado_43025" data-name="Trazado 43025" d="M432.243,453.7V385.2h48.879v13.855H449.851v12.893H479.1V425.8h-29.25v14.047h31.271V453.7Z" fill="#910c55"/>
      <path id="Trazado_43026" data-name="Trazado 43026" d="M310.06,558.868q-11.258,0-19.436-4.234a29.839,29.839,0,0,1-12.6-12.123q-4.426-7.888-4.426-18.859a37.341,37.341,0,0,1,4.426-18.57,30.363,30.363,0,0,1,12.46-12.172,39.649,39.649,0,0,1,18.907-4.281,49.763,49.763,0,0,1,14,1.924,30.279,30.279,0,0,1,10.728,5.292l-5.677,12.8a39.868,39.868,0,0,0-9.141-4.474,30.3,30.3,0,0,0-9.333-1.395q-9.143,0-13.615,5.147t-4.474,15.732q0,10.97,4.667,16.261t14.384,5.292a43.629,43.629,0,0,0,6.351-.481,42.932,42.932,0,0,0,6.639-1.54l-3.945,5.2V531.542H308.04v-12.22h28.192v34.35a47.228,47.228,0,0,1-7.938,2.886,65.212,65.212,0,0,1-8.9,1.732A75.159,75.159,0,0,1,310.06,558.868Z" fill="#910c55"/>
      <path id="Trazado_43027" data-name="Trazado 43027" d="M380.3,558.868a36.969,36.969,0,0,1-18.33-4.33,29.591,29.591,0,0,1-11.931-12.22,39.3,39.3,0,0,1-4.185-18.666,38.709,38.709,0,0,1,4.233-18.57,29.683,29.683,0,0,1,11.931-12.172,37.05,37.05,0,0,1,18.282-4.281q10.582,0,18.233,4.281a29.458,29.458,0,0,1,11.835,12.172,43.506,43.506,0,0,1,0,37.236,29.756,29.756,0,0,1-11.835,12.22Q390.882,558.868,380.3,558.868Zm0-13.759a14.773,14.773,0,0,0,11.979-5.389q4.474-5.386,4.474-16.068,0-10.584-4.474-15.924a16.1,16.1,0,0,0-23.91-.048q-4.428,5.292-4.426,15.972,0,10.777,4.426,16.117A14.691,14.691,0,0,0,380.3,545.109Z" fill="#910c55"/>
      <path id="Trazado_43028" data-name="Trazado 43028" d="M273.719,671.521V603.013h31.848q12.507,0,18.714,5.389t6.206,15.2a19,19,0,0,1-6.494,14.962q-6.5,5.726-18.041,5.725l8.274-1.732a10.556,10.556,0,0,1,6.4,2.165,13.925,13.925,0,0,1,4.57,6.4l8.083,20.4H314.13l-8.852-22.8a5.282,5.282,0,0,0-2.886-2.983,10.882,10.882,0,0,0-4.33-.866h-6.543v26.653ZM291.327,631.4H302.68q5.868,0,8.419-1.78a6.283,6.283,0,0,0,2.55-5.533q0-3.944-2.55-5.677t-8.419-1.731H291.327Z" fill="#910c55"/>
      <path id="Trazado_43029" data-name="Trazado 43029" d="M347.588,671.521V603.013h18.089v68.508Zm14.144-74.377H351.245l10.006-15.2h15.588Z" fill="#910c55"/>
      <path id="Trazado_43030" data-name="Trazado 43030" d="M398.053,671.521H379.964L412,603.013h14.24l32.137,68.508h-17.8l-23.189-53.979h3.945Zm-3.272-14.144L401.8,643.81h33.58l6.928,13.567Z" fill="#910c55"/>
      <path id="Trazado_43031" data-name="Trazado 43031" d="M270.822,404.633h5.3l.18-10.788-7.979-1.3Z" fill="#910c55"/>
      <path id="Trazado_43032" data-name="Trazado 43032" d="M270.709,439.56l.113-5.292h5.3l-.655,5.292-8.643,5.574Z" fill="#910c55"/>
      <path id="Trazado_43033" data-name="Trazado 43033" d="M323.134,508.642h5.3l-1.963-8.275H322.09Z" fill="#910c55"/>
    </g>
    <path id="Trazado_43034" data-name="Trazado 43034" d="M208.712,645.917l-1.862-2.808s13.954-2.807,20.793.834c0,0-1.929,5.643-9.846,4.393S208.712,645.917,208.712,645.917Z" fill="#023f42"/>
    <path id="Trazado_43035" data-name="Trazado 43035" d="M237.564,644.03l-1.863-2.807s13.955-2.808,20.793.834c0,0-1.929,5.643-9.846,4.392S237.564,644.03,237.564,644.03Z" fill="#023f42"/>
    <path id="Trazado_43036" data-name="Trazado 43036" d="M252.8,557.663s5.393-6.9,13.708-6.168C266.509,551.495,263.278,563.1,252.8,557.663Z" fill="#e00b71"/>
    <path id="Trazado_43037" data-name="Trazado 43037" d="M252.844,556.492s8.55-1.908,14.506,3.939C267.35,560.431,257.489,567.342,252.844,556.492Z" fill="#c1106d"/>
    <path id="Trazado_43038" data-name="Trazado 43038" d="M204.623,544.513a107.113,107.113,0,0,0,0,28.882c2.168,15.845,5.359,49.968,3.954,83.261h15.586s5.9-64.149,4.008-88.068l7.975-.962s3.863,46.311,1.436,89.843c0,0,6.736,1.689,12.908-.813,0,0,9.84-54.743,6-98.357l-20.348-19.781Z" fill="#241c6b"/>
    <path id="Trazado_43039" data-name="Trazado 43039" d="M256.494,558.3l-20.348-19.781-31.523,5.995a107.113,107.113,0,0,0,0,28.882c.986,7.208,2.183,18.2,3.063,31.176l20.564-9.426a258.945,258.945,0,0,0-.079-26.557l7.975-.962s.767,9.2,1.4,23.257l19.828-9.089C257.415,573.857,257.163,565.909,256.494,558.3Z" fill="#241c6b" opacity="0.41" style="mix-blend-mode: multiply;isolation: isolate"/>
    <g id="Grupo_40172" data-name="Grupo 40172">
      <path id="Trazado_43040" data-name="Trazado 43040" d="M207,616.207c-3.341-3.116-5.991-36.175-6.308-42.725a10.559,10.559,0,0,1,1.335-6.3l1.406-2.864s-2.588-.214-2.553-4.273c.018-2.014,1.566-6.824,2.1-6.9-.474-2.367,4.339-1.809,4.339-1.809l49.088-9.39,1.3,11.243.643,6.2a5.368,5.368,0,0,1-.749,3.384c-1.018,1.527-30.478,34.885-37.581,42.65C220.023,605.419,209.08,618.146,207,616.207Z" fill="#f80a73"/>
      <path id="Trazado_43041" data-name="Trazado 43041" d="M207.751,563.061s.287,5.71,4.135,6.41c15.312,2.785,40.228-8.973,40.228-8.973S211.513,570.791,207.751,563.061Z" fill="#e00b71"/>
      <path id="Trazado_43042" data-name="Trazado 43042" d="M211.943,573.461s22.358,1.443,40.565-9.571c0,0-35.259,30.344-39.081,36.426,0,0,2.93-7.664,14.033-21.108l-5.341,2.415,4.171-4.457S216.917,576.811,211.943,573.461Z" fill="#e00b71"/>
    </g>
    <path id="Trazado_43043" data-name="Trazado 43043" d="M285.1,454.735s-7.968-5.684-5.883-15.438c0,0,9.553-4.795,17.6-1.042,0,0,2.505,10.163-2.173,17.092Z" fill="#fcc6ae"/>
    <path id="Trazado_43044" data-name="Trazado 43044" d="M287.178,440.071l-2.167.668s4.229-16.941,9.972-16.941c5.134,0-2.432,15.93-2.432,15.93S292.14,441.48,287.178,440.071Z" fill="#fcc6ae"/>
    <g id="Grupo_40173" data-name="Grupo 40173">
      <path id="Trazado_43045" data-name="Trazado 43045" d="M253.118,454.57a37.861,37.861,0,0,1-18.666-4.378,30.2,30.2,0,0,1-12.172-12.316A38.422,38.422,0,0,1,218,419.354a37.94,37.94,0,0,1,4.281-18.378,30.284,30.284,0,0,1,12.172-12.267,37.882,37.882,0,0,1,18.666-4.378,42.454,42.454,0,0,1,13.038,2.02,27.544,27.544,0,0,1,10.151,5.485l-5.485,12.8a33.6,33.6,0,0,0-8.659-4.619,26.679,26.679,0,0,0-8.66-1.443q-8.18,0-12.653,5.2t-4.474,15.587q0,10.392,4.474,15.683T253.5,440.33a26.68,26.68,0,0,0,8.66-1.444,33.589,33.589,0,0,0,8.659-4.618l5.485,12.8a27.543,27.543,0,0,1-10.151,5.484A42.455,42.455,0,0,1,253.118,454.57Z" fill="#f80a73"/>
      <path id="Trazado_43046" data-name="Trazado 43046" d="M297.8,453.7H279.707L311.748,385.2h14.24L358.125,453.7h-17.8l-23.188-53.978h3.945Zm-3.271-14.144,7.024-13.567h33.58l6.927,13.567Z" fill="#f80a73"/>
      <path id="Trazado_43047" data-name="Trazado 43047" d="M375.778,453.7V399.822h-20.4V385.2h59.078v14.625h-20.4V453.7Z" fill="#f80a73"/>
      <path id="Trazado_43048" data-name="Trazado 43048" d="M426.939,453.7V385.2h48.879v13.855H444.547v12.893H473.8V425.8h-29.25v14.047h31.271V453.7Z" fill="#f80a73"/>
      <path id="Trazado_43049" data-name="Trazado 43049" d="M304.756,558.868q-11.258,0-19.436-4.234a29.839,29.839,0,0,1-12.6-12.123q-4.426-7.888-4.426-18.859a37.341,37.341,0,0,1,4.426-18.57,30.364,30.364,0,0,1,12.46-12.172,39.649,39.649,0,0,1,18.907-4.281,49.763,49.763,0,0,1,14,1.924,30.279,30.279,0,0,1,10.728,5.292l-5.677,12.8a39.868,39.868,0,0,0-9.141-4.474,30.3,30.3,0,0,0-9.333-1.395q-9.143,0-13.615,5.147t-4.474,15.732q0,10.97,4.667,16.261t14.384,5.292a43.629,43.629,0,0,0,6.351-.481,42.933,42.933,0,0,0,6.639-1.54l-3.945,5.2V531.542H302.736v-12.22h28.192v34.35a47.228,47.228,0,0,1-7.938,2.886,65.21,65.21,0,0,1-8.9,1.732A75.158,75.158,0,0,1,304.756,558.868Z" fill="#f80a73"/>
      <path id="Trazado_43050" data-name="Trazado 43050" d="M374.995,558.868a36.969,36.969,0,0,1-18.33-4.33,29.591,29.591,0,0,1-11.931-12.22,39.3,39.3,0,0,1-4.185-18.666,38.709,38.709,0,0,1,4.233-18.57,29.682,29.682,0,0,1,11.931-12.172,37.049,37.049,0,0,1,18.282-4.281q10.582,0,18.233,4.281a29.458,29.458,0,0,1,11.835,12.172,43.506,43.506,0,0,1,0,37.236,29.756,29.756,0,0,1-11.835,12.22Q385.579,558.868,374.995,558.868Zm0-13.759a14.773,14.773,0,0,0,11.979-5.389q4.475-5.386,4.474-16.068,0-10.584-4.474-15.924a16.1,16.1,0,0,0-23.91-.048q-4.428,5.292-4.426,15.972,0,10.777,4.426,16.117A14.691,14.691,0,0,0,374.995,545.109Z" fill="#f80a73"/>
      <path id="Trazado_43051" data-name="Trazado 43051" d="M268.415,671.521V603.013h31.848q12.507,0,18.714,5.389t6.206,15.2a19,19,0,0,1-6.494,14.962q-6.495,5.726-18.041,5.725l8.274-1.732a10.556,10.556,0,0,1,6.4,2.165,13.925,13.925,0,0,1,4.57,6.4l8.083,20.4H308.826l-8.852-22.8a5.282,5.282,0,0,0-2.886-2.983,10.882,10.882,0,0,0-4.33-.866h-6.543v26.653ZM286.023,631.4h11.353q5.868,0,8.419-1.78a6.283,6.283,0,0,0,2.55-5.533q0-3.944-2.55-5.677t-8.419-1.731H286.023Z" fill="#f80a73"/>
      <path id="Trazado_43052" data-name="Trazado 43052" d="M342.284,671.521V603.013h18.089v68.508Zm14.144-74.377H345.941l10.006-15.2h15.588Z" fill="#f80a73"/>
      <path id="Trazado_43053" data-name="Trazado 43053" d="M392.749,671.521H374.66l32.04-68.508h14.241l32.136,68.508h-17.8l-23.189-53.979h3.945Zm-3.272-14.144L396.5,643.81h33.58l6.928,13.567Z" fill="#f80a73"/>
      <path id="Trazado_43054" data-name="Trazado 43054" d="M294.026,422.882s1.688,7.929-4.75,17.176a5.958,5.958,0,0,1,4.95,6.553c-.452,5.692-12.122,2.017-12.122,2.017Z" fill="#c61268" opacity="0.2" style="mix-blend-mode: multiply;isolation: isolate"/>
      <path id="Trazado_43055" data-name="Trazado 43055" d="M240.85,435.038q-4.473-5.291-4.474-15.684t4.474-15.587q4.474-5.2,12.653-5.2c.615,0,1.226.026,1.835.068a58.7,58.7,0,0,0-7.592-14.014,35.232,35.232,0,0,0-13.294,4.084,30.29,30.29,0,0,0-12.172,12.267A37.94,37.94,0,0,0,218,419.354a38.422,38.422,0,0,0,4.281,18.522,30.2,30.2,0,0,0,12.172,12.316,33.081,33.081,0,0,0,8.109,3.157,50.266,50.266,0,0,0,10.284-13.033Q245.146,440.109,240.85,435.038Z" fill="#c61268" opacity="0.2" style="mix-blend-mode: multiply;isolation: isolate"/>
    </g>
    <path id="Trazado_43056" data-name="Trazado 43056" d="M216.072,457.414a176.545,176.545,0,0,1,1.2,25.654s10.282,2.481,16.628-3.627a140.49,140.49,0,0,0-.839-24.243Z" fill="#fcc6ae"/>
    <path id="Trazado_43057" data-name="Trazado 43057" d="M199.772,476.486s18.314-13.547,48.782-4.511l-20.2,21.887Z" fill="#fcc6ae"/>
    <path id="Trazado_43058" data-name="Trazado 43058" d="M233.066,455.2l-16.994,2.216s.541,3.8.909,10.105c2.608-1.309,8.186-3.444,16.88-3.522C233.705,461.226,233.455,458.247,233.066,455.2Z" fill="#e8b09a"/>
    <g id="Grupo_40174" data-name="Grupo 40174">
      <circle id="Elipse_769" data-name="Elipse 769" cx="4.409" cy="4.409" r="4.409" transform="translate(192.254 439.24)" fill="#fcc6ae"/>
      <path id="Trazado_43059" data-name="Trazado 43059" d="M194.863,442.875a1.359,1.359,0,0,1,1.854.856c.469,1.413-.565,1.852-1.068,1.856a.613.613,0,0,1-.336-1.061c.4-.284.811.144.811.144S196.377,443.058,194.863,442.875Z" fill="#e8b09a"/>
    </g>
    <g id="Grupo_40176" data-name="Grupo 40176">
      <circle id="Elipse_770" data-name="Elipse 770" cx="4.409" cy="4.409" r="4.409" transform="translate(240.823 432.39)" fill="#fcc6ae"/>
      <circle id="Elipse_771" data-name="Elipse 771" cx="4.409" cy="4.409" r="4.409" transform="translate(240.823 432.39)" fill="#bcb5b1" opacity="0.2" style="mix-blend-mode: multiply;isolation: isolate"/>
      <path id="Trazado_43060" data-name="Trazado 43060" d="M246.879,435.117a1.359,1.359,0,0,0-1.419,1.468c.074,1.487,1.2,1.522,1.666,1.344a.612.612,0,0,0-.07-1.11c-.477-.12-.7.427-.7.427A1.5,1.5,0,0,1,246.879,435.117Z" fill="#e8b09a"/>
      <g id="Grupo_40175" data-name="Grupo 40175">
        <circle id="Elipse_772" data-name="Elipse 772" cx="1.564" cy="1.564" r="1.564" transform="translate(244.914 439.144)" fill="#e00b71"/>
        <path id="Trazado_43061" data-name="Trazado 43061" d="M246.107,439.188a1.565,1.565,0,0,0-.591.29,1.559,1.559,0,0,1,.675,2.764,1.541,1.541,0,0,0,.658-.015,1.564,1.564,0,1,0-.742-3.039Z" fill="#f80a73"/>
      </g>
    </g>
    <circle id="Elipse_773" data-name="Elipse 773" cx="25.004" cy="25.004" r="25.004" transform="translate(195.969 410.597)" fill="#fcc6ae"/>
    <path id="Trazado_43062" data-name="Trazado 43062" d="M198.133,436.283s.849-12.27.613-12.189,5.008-13.853,22.319-7.5,22.454,6.229,22.454,6.229l.754,5.759s-3.479,5.743-16.4-.069c-8.8-3.96-15.727-4.093-20.1-3.452a7.483,7.483,0,0,0-6.277,6.238,80.357,80.357,0,0,0-.9,10.288Z" fill="#bcb5b1" opacity="0.2" style="mix-blend-mode: multiply;isolation: isolate"/>
    <path id="Trazado_43063" data-name="Trazado 43063" d="M242.314,413.931a1.546,1.546,0,0,1,1.952-.1,2.907,2.907,0,0,1,1.1,1.786c.4,1.813.549,14.342.584,17.974a1.547,1.547,0,0,1-.879,1.41l-.914.439a1.5,1.5,0,0,1-2.122-1.015l-.011-.052c-.355-1.725-1.072-8.141-3.911-13.8a1.261,1.261,0,0,1-.063-.146c-.13-.363-.619-1.882.052-2.607C238.676,417.208,241.1,415.018,242.314,413.931Z" fill="#6d31fd"/>
    <path id="Trazado_43064" data-name="Trazado 43064" d="M239.46,423.689l6.222-3.654c.036.958.068,2.006.1,3.089l-5.62,2.644C239.951,425.085,239.719,424.389,239.46,423.689Z" fill="#422c9b"/>
    <path id="Trazado_43065" data-name="Trazado 43065" d="M245.888,428.43l-4.56,2.032c-.139-.693-.3-1.444-.5-2.234l5.014-2.07C245.863,426.933,245.876,427.7,245.888,428.43Z" fill="#5224e2"/>
    <path id="Trazado_43066" data-name="Trazado 43066" d="M245.954,432.485l-3.986,1.574c-.122-.611-.261-1.357-.31-1.728l4.261-1.853C245.932,431.163,245.944,431.837,245.954,432.485Z" fill="#5224e2"/>
    <g id="Grupo_40177" data-name="Grupo 40177">
      <circle id="Elipse_774" data-name="Elipse 774" cx="1.813" cy="1.813" r="1.813" transform="translate(213.825 436.544)" fill="#141414"/>
      <circle id="Elipse_775" data-name="Elipse 775" cx="0.61" cy="0.61" r="0.61" transform="translate(215.54 437.081)" fill="#fff"/>
    </g>
    <path id="Trazado_43067" data-name="Trazado 43067" d="M230.856,430.661a6.227,6.227,0,0,1,3.17.477.47.47,0,0,0,.634-.568,2.183,2.183,0,0,0-2.078-1.458,2.055,2.055,0,0,0-2.182.836A.472.472,0,0,0,230.856,430.661Z" fill="#5224e2"/>
    <path id="Trazado_43068" data-name="Trazado 43068" d="M233.8,462.136a29.86,29.86,0,0,1-8.263,1.616,26.634,26.634,0,0,1-8.827-.483c-.866-.331-.522,2.477-.482,3.35a1.158,1.158,0,0,0,.777,1.093s1.889,1.071,8.315.645c7.625-.5,8.775-1.778,8.775-1.778a1.583,1.583,0,0,0,.626-1.186C234.665,464.521,234.619,461.694,233.8,462.136Z" fill="#5224e2"/>
    <g id="Grupo_40178" data-name="Grupo 40178">
      <circle id="Elipse_776" data-name="Elipse 776" cx="1.813" cy="1.813" r="1.813" transform="translate(230.651 433.801)" fill="#141414"/>
      <circle id="Elipse_777" data-name="Elipse 777" cx="0.61" cy="0.61" r="0.61" transform="translate(232.381 434.336)" fill="#fff"/>
    </g>
    <path id="Trazado_43069" data-name="Trazado 43069" d="M211.569,433.9a6.222,6.222,0,0,1,2.728-1.683.47.47,0,0,0,.117-.843,2.183,2.183,0,0,0-2.528.229,2.054,2.054,0,0,0-1.126,2.048A.472.472,0,0,0,211.569,433.9Z" fill="#5224e2"/>
    <path id="Trazado_43070" data-name="Trazado 43070" d="M195.049,421.851a1.41,1.41,0,0,0-1.91.41,6.308,6.308,0,0,0-.375,2.154c-.263,1.837,2.932,13.856,3.833,17.375a1.545,1.545,0,0,0,1.213,1.136l1,.188a1.5,1.5,0,0,0,1.789-1.527l0-.053c-.1-1.758-1.062-8.142.222-14.345a1.367,1.367,0,0,0,.024-.156c.032-.385.113-1.979-.722-2.506C199.409,424.08,196.5,422.589,195.049,421.851Z" fill="#6d31fd"/>
    <path id="Trazado_43071" data-name="Trazado 43071" d="M197.339,417.274a8.521,8.521,0,0,0-4.407,9.349l7.693,1.58a10.059,10.059,0,0,1,2.211-4.857C204.687,421.285,199.543,417.609,197.339,417.274Z" fill="#6d31fd"/>
    <path id="Trazado_43072" data-name="Trazado 43072" d="M196.033,419.948l-2.178.651s-2.154,2.686-.487,8.018l3.364-2.945Z" fill="#6d31fd"/>
    <g id="Grupo_40179" data-name="Grupo 40179">
      <path id="Trazado_43073" data-name="Trazado 43073" d="M195.592,417.42c-1.17-4.585-3.378-20.744,22.231-24.366,0,0,17.1-3.988,25.712,10.3,0,0,5.493,13.822,9.842,14.625a24.967,24.967,0,0,1-16.8,7.507c-11.071.514-15.705-11.735-22.514-11.78-6.447-.041-7.211,6.1-10.136,8.279-.334.25-.864,1.47-1.329,1.236l-5.622-2.9C196.271,420,195.783,418.171,195.592,417.42Z" fill="#6d31fd"/>
      <path id="Trazado_43074" data-name="Trazado 43074" d="M242.421,408.4c1.884,3.678,5.995,10.278,10.956,9.579h0c-4.349-.8-9.842-14.625-9.842-14.625-8.613-14.288-25.712-10.3-25.712-10.3-25.609,3.622-23.4,19.781-22.231,24.366a4.282,4.282,0,0,0,.29.936s1.78-22.225,24.016-21.789C232.4,396.813,239.794,402.462,242.421,408.4Z" fill="#5224e2"/>
      <path id="Trazado_43075" data-name="Trazado 43075" d="M202.836,423.346h0s-5.738-13.1,7.475-17.433c10.879-3.573,16.352,2.522,21.434,6.537s13.99,8.653,21.632,5.529c0,0-15.87,8.446-23.354,3.247s-14.918-12.4-20.14-8.907S202.836,423.346,202.836,423.346Z" fill="#2bbee0"/>
      <path id="Trazado_43076" data-name="Trazado 43076" d="M202.836,423.346s6.883-6.425,18.929-5.3c0,0-3.554-10.283-11.926-7.016S202.836,423.346,202.836,423.346Z" fill="#422c9b"/>
      <path id="Trazado_43077" data-name="Trazado 43077" d="M212.112,412.957l-2.971,1.055c-1.844,1.777-1.876,4.719-1.685,6.416a25.614,25.614,0,0,1,2.607-1.057A9.267,9.267,0,0,1,212.112,412.957Z" fill="#241c6b"/>
      <path id="Trazado_43078" data-name="Trazado 43078" d="M206.309,414.934l-2.3,1.292a13.339,13.339,0,0,0-1.177,7.12,15.961,15.961,0,0,1,2.282-1.655A10.459,10.459,0,0,1,206.309,414.934Z" fill="#241c6b"/>
      <path id="Trazado_43079" data-name="Trazado 43079" d="M214.529,412.634a10.329,10.329,0,0,0-2.244,6.083,26.828,26.828,0,0,1,3.067-.573,20.684,20.684,0,0,1,1.825-4.781Z" fill="#241c6b"/>
      <path id="Trazado_43080" data-name="Trazado 43080" d="M220.908,416.178l-1.63-1.7a7.71,7.71,0,0,0-1.66,3.451,27.379,27.379,0,0,1,4.149.136A14.364,14.364,0,0,0,220.908,416.178Z" fill="#241c6b"/>
      <path id="Trazado_43081" data-name="Trazado 43081" d="M214.059,413.706c6.809.045,11.443,12.294,22.514,11.78a24.967,24.967,0,0,0,16.8-7.507c-21.533,7.773-24.791-12.644-37.745-10.531-17.446,2.846-12.8,15.9-12.8,15.9C203.028,419.714,206.956,413.66,214.059,413.706Z" fill="#fccc05"/>
    </g>
    <path id="Trazado_43082" data-name="Trazado 43082" d="M200.321,430.545l-6.953-1.928c.212.936.451,1.956.7,3.01l6.111,1.107C200.207,432.02,200.251,431.288,200.321,430.545Z" fill="#5224e2"/>
    <path id="Trazado_43083" data-name="Trazado 43083" d="M195.243,436.425l5.018,1.145c-.044-.705-.1-2.015-.12-2.828l-5.547-.939C194.779,434.556,195.066,435.713,195.243,436.425Z" fill="#5224e2"/>
    <path id="Trazado_43084" data-name="Trazado 43084" d="M196.1,420.621l4.8,2.159A8.356,8.356,0,0,0,196.1,420.621Z" fill="#5224e2"/>
    <path id="Trazado_43085" data-name="Trazado 43085" d="M195.845,438.834l.51,2.009,4.217.4-.188-2.038Z" fill="#5224e2"/>
    <path id="Trazado_43086" data-name="Trazado 43086" d="M225.961,465.467a3.163,3.163,0,1,0,3.366,2.947A3.164,3.164,0,0,0,225.961,465.467Zm.31,4.677a1.523,1.523,0,1,1,1.42-1.621A1.525,1.525,0,0,1,226.271,470.144Z" fill="#e00b71"/>
    <g id="Grupo_40180" data-name="Grupo 40180">
      <circle id="Elipse_778" data-name="Elipse 778" cx="1.564" cy="1.564" r="1.564" transform="translate(196.885 446.223)" fill="#e00b71"/>
      <path id="Trazado_43087" data-name="Trazado 43087" d="M198.245,446.236a1.555,1.555,0,0,0-.619.224,1.559,1.559,0,0,1,.37,2.821,1.546,1.546,0,0,0,.656.057,1.564,1.564,0,0,0-.407-3.1Z" fill="#f80a73"/>
    </g>
    <path id="Trazado_43088" data-name="Trazado 43088" d="M218.456,445.252l12.616-1.764a2.172,2.172,0,0,1,2.466,1.93c.3,3.058-.087,8.331-6.03,9.592-6.932,1.471-10.388-3.1-10.908-7.307A2.187,2.187,0,0,1,218.456,445.252Z" fill="#141414"/>
    <path id="Trazado_43089" data-name="Trazado 43089" d="M227.508,455.01a6.977,6.977,0,0,0,5.5-4.488c-1.779-2.041-4.666-3.291-8.777-2.419a6.977,6.977,0,0,0-5.5,4.488C220.51,454.632,223.4,455.882,227.508,455.01Z" fill="#ed1c24"/>
    <path id="Trazado_43090" data-name="Trazado 43090" d="M223.65,450.067c3.8-.494,6.54.539,8.377,2.267a7.085,7.085,0,0,0,.985-1.812c-1.779-2.041-4.666-3.291-8.777-2.419a7,7,0,0,0-5.319,4.04A8.261,8.261,0,0,1,223.65,450.067Z" fill="#fc3a49"/>
    <path id="Trazado_43091" data-name="Trazado 43091" d="M214.893,557.917c28.76,3.8,43.908-3.2,43.908-3.2-5.063-33.835-2.369-82.089-2.369-82.089-7.878-3.645-17.951-4.307-17.951-4.307-.417,2.745-2.224,11.164-15.307,11.925-6.334.369-9.962-10.257-9.962-10.257-11.842,2.668-15.671,6.716-15.671,6.716a665.656,665.656,0,0,1,2.451,78.374q2.689.666,5.275,1.2l2-4.892,2.2,5.581Z" fill="#2bbee0"/>
    <path id="Trazado_43092" data-name="Trazado 43092" d="M199.772,492.42l8.668,1.442s3.021,5.646,2.3,15.6c-1.275,17.536-3.185,25.068,36.109,23.441l-27.153,25.564-10.233-1.5-2.2-5.581-2,4.892-5.275-1.2,1.71-42.805Z" fill="#23adc4" opacity="0.28" style="mix-blend-mode: multiply;isolation: isolate"/>
    <path id="Trazado_43093" data-name="Trazado 43093" d="M237.393,535.038l-1.59-.773s-3.415,7.094,1.16,13.133l4.894-2.631Z" fill="#261a6b"/>
    <path id="Trazado_43094" data-name="Trazado 43094" d="M194.011,482.069s-17.8,32.668,0,56.3c11.024,14.637,43.058,8.656,55.066,4.385l-2.234-9.09s-53.4,11.932-43.4-27.35Z" fill="#fcc6ae"/>
    <path id="Trazado_43095" data-name="Trazado 43095" d="M243.976,536.48s3.4-8.673,17.681-6.338c0,0,4.344,8.895-.159,16.79,0,0-6.912,2.294-17.021-2.745Z" fill="#fcc6ae"/>
    <g id="Grupo_40185" data-name="Grupo 40185">
      <path id="Trazado_43096" data-name="Trazado 43096" d="M236.963,547.4a19.568,19.568,0,0,0-1.16-13.133,7.975,7.975,0,0,1,7.608-1.5s3.012,4.25,1.465,14.725A7.3,7.3,0,0,1,236.963,547.4Z" fill="#422c9b"/>
      <g id="Grupo_40181" data-name="Grupo 40181">
        <path id="Trazado_43097" data-name="Trazado 43097" d="M239.15,547.073a.7.7,0,0,0-.137.837l1.618,3.016s.215.426.851.2c.5-.181.976-2.425,1.151-3.35a.687.687,0,0,0-.259-.678A2.368,2.368,0,0,0,239.15,547.073Z" fill="#fccc05"/>
        <path id="Trazado_43098" data-name="Trazado 43098" d="M239.15,547.073a.736.736,0,0,0-.092.11,2.847,2.847,0,0,1,1.961.646.69.69,0,0,1,.26.678,18.639,18.639,0,0,1-.617,2.466.661.661,0,0,0,.82.152c.5-.181.976-2.425,1.151-3.35a.687.687,0,0,0-.259-.678A2.368,2.368,0,0,0,239.15,547.073Z" fill="#dbb203"/>
      </g>
      <g id="Grupo_40182" data-name="Grupo 40182">
        <path id="Trazado_43099" data-name="Trazado 43099" d="M237.727,534.026a.7.7,0,0,1-.306-.791l.96-3.284s.123-.461.792-.37c.53.072,1.456,2.17,1.818,3.04a.687.687,0,0,1-.114.717A2.368,2.368,0,0,1,237.727,534.026Z" fill="#fccc05"/>
        <path id="Trazado_43100" data-name="Trazado 43100" d="M237.727,534.026a.76.76,0,0,1-.113-.088A2.854,2.854,0,0,0,239.4,532.9a.687.687,0,0,0,.114-.717A18.664,18.664,0,0,0,238.4,529.9c.054-.117.239-.39.77-.317s1.456,2.17,1.818,3.04a.687.687,0,0,1-.114.717A2.368,2.368,0,0,1,237.727,534.026Z" fill="#dbb100"/>
      </g>
      <g id="Grupo_40183" data-name="Grupo 40183">
        <circle id="Elipse_779" data-name="Elipse 779" cx="1.846" cy="1.846" r="1.846" transform="translate(238.892 541.919) rotate(-20.031)" fill="#fccc05"/>
        <path id="Trazado_43101" data-name="Trazado 43101" d="M241.464,543.293a.232.232,0,0,0,.23-.349h0l-.7-1.749a1.845,1.845,0,0,0-1.57,1.609q-.011.094-.012.186h0Z" fill="#dbb203"/>
      </g>
      <g id="Grupo_40184" data-name="Grupo 40184">
        <circle id="Elipse_780" data-name="Elipse 780" cx="1.846" cy="1.846" r="1.846" transform="translate(238.866 535.177)" fill="#fccc05"/>
        <path id="Trazado_43102" data-name="Trazado 43102" d="M240.918,537.295a.232.232,0,0,0,.23-.349h0l-.7-1.749a1.845,1.845,0,0,0-1.57,1.609q-.011.094-.012.186h0Z" fill="#dbb203"/>
      </g>
    </g>
    <path id="Trazado_43103" data-name="Trazado 43103" d="M204.345,483.774l-6.8-7.071S186,486.554,183.329,507.347c0,0,4.671,9.007,22.461,5.671l2.558-12.787S210.016,489.668,204.345,483.774Z" fill="#2bbee0"/>
    <path id="Trazado_43104" data-name="Trazado 43104" d="M183.329,506.291a7.133,7.133,0,0,0-1.612,3.391s2.907,4.418,11.008,6.005c7.95,1.556,13.248-.45,13.248-.45a7.7,7.7,0,0,0,.127-3.769s-8.093,2.05-12.986.549A27.828,27.828,0,0,1,183.329,506.291Z" fill="#4295a8"/>
    <path id="Trazado_43105" data-name="Trazado 43105" d="M254.131,534.784c.056-.084,3.058-5.041,3.058-5.041s4.225.287,6.838.26,8.646-1.857,10.063-.567.167,6.015-11.758,5.973Z" fill="#fcc6ae"/>
    <path id="Trazado_43106" data-name="Trazado 43106" d="M261.331,535.887a31.808,31.808,0,0,0,6.713.565c2.432-.187,4.417-.5,5.337,0,1.444.783,1.24,4.238-5.67,4.628-7.381.417-7.339-1.209-7.339-1.209Z" fill="#fcc6ae"/>
    <path id="Trazado_43107" data-name="Trazado 43107" d="M260.831,540.39a31.725,31.725,0,0,0,6.713.565c2.431-.187,4.417-.5,5.337,0,1.444.784,1.24,4.238-5.671,4.628-7.38.417-7.338-1.209-7.338-1.209Z" fill="#fcc6ae"/>
    <path id="Trazado_43108" data-name="Trazado 43108" d="M267.4,545.292l-2.64.694-.921-.812c-1.819-.132-2.067-.661-2.067-.661l-2.919,2.141s3.78,2.974,6.143,3,5.671-2.419,5.671-3.2C270.671,545.735,270.789,545.115,267.4,545.292Z" fill="#fcc6ae"/>
    <path id="Trazado_43109" data-name="Trazado 43109" d="M248.576,534.079l-1.73-1.178s3.934-5.411,9.438-5.994,4.671-2.711,6.756-2.043-.487,6.884-5.2,6.455l-1.974,2.378S254.711,535.955,248.576,534.079Z" fill="#fcc6ae"/>
    <path id="Trazado_43110" data-name="Trazado 43110" d="M243.515,474.073l1.99-4.6s20.287,1.808,29.052,20.947a20.683,20.683,0,0,1-14.616,12.191l-10.2-11.357S242.18,478.779,243.515,474.073Z" fill="#2bbee0"/>
    <path id="Trazado_43111" data-name="Trazado 43111" d="M282.655,447.376l-1.907,4.1a5.565,5.565,0,0,1-4.073-3.947c-.722-3.225,3.281-7.89,10.647-6.8,0,0,4.642.855,4.92,3.579S288.771,448.488,282.655,447.376Z" fill="#fcc6ae"/>
    <path id="Trazado_43112" data-name="Trazado 43112" d="M281.193,439.321l-2.1.648s4.1-16.432,9.671-16.432c4.98,0-2.358,15.451-2.358,15.451S286.006,440.688,281.193,439.321Z" fill="#fcc6ae"/>
    <path id="Trazado_43113" data-name="Trazado 43113" d="M258.44,502.152a3.427,3.427,0,0,0,1.723,2.582s11.9-2.9,16.1-14.316a4.835,4.835,0,0,0-1.973-1.723S270.282,497.34,258.44,502.152Z" fill="#4295a8"/>
    <path id="Trazado_43114" data-name="Trazado 43114" d="M210.538,470.345l2.557-.813s1.823,10.786,13.311,10.072c9.011-.559,11.141-7.693,11.652-11.665l2.547.092s.046,13.186-14.067,14.138C212.567,483.113,210.538,470.345,210.538,470.345Z" fill="#4295a8"/>
    <g id="Grupo_40186" data-name="Grupo 40186">
      <path id="Trazado_43115" data-name="Trazado 43115" d="M233.894,680.891a3.871,3.871,0,0,0-1.732,3.116,2.193,2.193,0,0,0,.795,1.76c1.861,1.536,6.772,4.965,14.7,10.051,5.588,3.586,14.142,5.71,21.971,5.232a15.092,15.092,0,0,0,9.759-3.937s1.881-3.63-1.164-3.88l-22.742-1.084Z" fill="#023f42"/>
      <path id="Trazado_43116" data-name="Trazado 43116" d="M235.59,643.891h20.978s-1.742,24.018-1.028,27.408,14.236,9.222,14.236,9.222,9.651,2.454,8.317,13.963c0,0-6.588,5.17-19.514,1.918-10.881-2.738-13.315-6.482-20.209-10.929a30.933,30.933,0,0,1-5-3.447c-1.779-1.668.723-8.613,1.279-14.173S235.59,643.891,235.59,643.891Z" fill="#0e7992"/>
      <path id="Trazado_43117" data-name="Trazado 43117" d="M235.7,641.223s7.061,4.114,20.793.834a3.363,3.363,0,0,1,.556,4.058s-8.228,4.5-22.294-.389A2.912,2.912,0,0,1,235.7,641.223Z" fill="#006070"/>
      <path id="Trazado_43118" data-name="Trazado 43118" d="M247.927,652.416a21.691,21.691,0,0,0,7.647.272.806.806,0,0,1,.971.642,9.068,9.068,0,0,1-.256,4.435.787.787,0,0,1-.594.5,16.18,16.18,0,0,1-8.291-.364C245.762,657.274,246.617,651.953,247.927,652.416Z" fill="#023f42"/>
      <path id="Trazado_43119" data-name="Trazado 43119" d="M248.4,661.713a24.166,24.166,0,0,0,7.005.016,1.008,1.008,0,0,1,1.181.824,8.333,8.333,0,0,1-.3,4.215,1.025,1.025,0,0,1-.653.622c-1.248.383-4.868,1.278-8-.084C246.031,666.6,246.443,660.918,248.4,661.713Z" fill="#023f42"/>
      <path id="Trazado_43120" data-name="Trazado 43120" d="M269.776,680.521s-1.106-.478-2.7-1.238c-10.146,1.31-10.692,12.712-10.582,16.552.66.194,1.351.383,2.083.567,12.926,3.252,19.514-1.918,19.514-1.918C279.427,682.975,269.776,680.521,269.776,680.521Z" fill="#4295a8"/>
      <path id="Trazado_43121" data-name="Trazado 43121" d="M248.446,670.684a13.42,13.42,0,0,0,6.944-1.136s.6-.2.687,1c.083,1.146,1.43,1.69,1.46,2.891.028,1.126-3.9,2.446-7.027,2.8,0,0-1.792.273-2.168-.417C247.851,674.923,246.674,670.476,248.446,670.684Z" fill="#023f42"/>
      <path id="Trazado_43122" data-name="Trazado 43122" d="M253.1,679.751s2.488,2.71,3.627,2.418,7.539-4.28,6.651-5.234a10.129,10.129,0,0,0-2.133-1.6,1.514,1.514,0,0,0-1.664-.123c-5.2,2.91-5.592,3.1-5.592,3.1S252.352,679.028,253.1,679.751Z" fill="#023f42"/>
    </g>
    <g id="Grupo_40187" data-name="Grupo 40187">
      <path id="Trazado_43123" data-name="Trazado 43123" d="M205.043,682.777a3.876,3.876,0,0,0-1.733,3.117,2.192,2.192,0,0,0,.8,1.76c1.861,1.536,6.772,4.964,14.7,10.051,5.587,3.586,14.141,5.709,21.97,5.232A15.09,15.09,0,0,0,250.532,699s1.882-3.629-1.164-3.879l-22.741-1.084Z" fill="#023f42"/>
      <path id="Trazado_43124" data-name="Trazado 43124" d="M206.739,645.778h20.977s-1.741,24.018-1.027,27.408,14.235,9.222,14.235,9.222,9.652,2.454,8.318,13.963c0,0-6.588,5.17-19.514,1.918-10.882-2.738-13.316-6.482-20.21-10.93a30.869,30.869,0,0,1-5-3.447c-1.779-1.668.722-8.612,1.278-14.172S206.739,645.778,206.739,645.778Z" fill="#0e7992"/>
      <path id="Trazado_43125" data-name="Trazado 43125" d="M206.85,643.109s7.06,4.115,20.793.834A3.365,3.365,0,0,1,228.2,648s-8.229,4.5-22.294-.389A2.913,2.913,0,0,1,206.85,643.109Z" fill="#006070"/>
      <path id="Trazado_43126" data-name="Trazado 43126" d="M219.076,654.3a21.684,21.684,0,0,0,7.646.272.806.806,0,0,1,.972.642,9.068,9.068,0,0,1-.256,4.435.789.789,0,0,1-.594.5,16.18,16.18,0,0,1-8.291-.364C216.911,659.161,217.766,653.84,219.076,654.3Z" fill="#023f42"/>
      <path id="Trazado_43127" data-name="Trazado 43127" d="M219.553,663.6a24.153,24.153,0,0,0,7.006.017,1.007,1.007,0,0,1,1.181.824,8.32,8.32,0,0,1-.3,4.214,1.022,1.022,0,0,1-.653.623c-1.247.383-4.867,1.278-8-.085C217.18,668.491,217.592,662.8,219.553,663.6Z" fill="#023f42"/>
      <path id="Trazado_43128" data-name="Trazado 43128" d="M240.924,682.408s-1.1-.478-2.7-1.238c-10.146,1.31-10.691,12.711-10.581,16.552.659.193,1.35.382,2.083.567,12.926,3.252,19.514-1.918,19.514-1.918C250.576,684.862,240.924,682.408,240.924,682.408Z" fill="#4295a8"/>
      <path id="Trazado_43129" data-name="Trazado 43129" d="M219.6,672.57a13.414,13.414,0,0,0,6.944-1.135s.6-.205.687,1c.083,1.147,1.429,1.69,1.459,2.891.028,1.126-3.9,2.447-7.026,2.8,0,0-1.793.272-2.168-.417C219,676.809,217.823,672.362,219.6,672.57Z" fill="#023f42"/>
      <path id="Trazado_43130" data-name="Trazado 43130" d="M224.251,681.638s2.488,2.71,3.628,2.418,7.539-4.28,6.651-5.234a10.038,10.038,0,0,0-2.134-1.6,1.514,1.514,0,0,0-1.664-.123c-5.2,2.91-5.591,3.1-5.591,3.1S223.5,680.915,224.251,681.638Z" fill="#023f42"/>
    </g>
    <path id="Trazado_43131" data-name="Trazado 43131" d="M246.592,474.086s5.954,6.9,7.969,18.962A162.17,162.17,0,0,0,246.592,474.086Z" fill="#23adc4"/>
    <path id="Trazado_43132" data-name="Trazado 43132" d="M263.541,541.2l5.312-.214A5.632,5.632,0,0,1,263.541,541.2Z" fill="#e8b09a"/>
    <path id="Trazado_43133" data-name="Trazado 43133" d="M258.957,531.978a6.232,6.232,0,0,1,2.159,3.924c.106,2.241-.022,9.243-2.159,10.251a16.6,16.6,0,0,0,1.35-5.994C260.532,536.393,260.829,534.618,258.957,531.978Z" fill="#e8b09a"/>
    <g id="Grupo_40188" data-name="Grupo 40188">
      <rect id="Rectángulo_5896" data-name="Rectángulo 5896" width="360" height="360" transform="translate(151.49 363.696)" fill="none"/>
    </g>
  </g>
</svg>
