<svg xmlns="http://www.w3.org/2000/svg" width="361.157" height="442.24" preserveAspectRatio="none" viewBox="0 0 361.157 442.24">
  <g id="Grupo_37301" data-name="Grupo 37301" transform="translate(-384.777 -249.47)">
    <g id="Grupo_37287" data-name="Grupo 37287" transform="translate(485.175 366.141)">
      <g id="Grupo_37275" data-name="Grupo 37275" transform="translate(203.728 190.398) rotate(-120)">
        <g id="Grupo_37274" data-name="Grupo 37274" transform="translate(134.567 100.531) rotate(77)">
          <path id="Trazado_41015" data-name="Trazado 41015" d="M20.061,1.52s-9.29-3.9-16.429.794S1.116,13.43,6.887,13.71c3.86.187,9.287-.839,12.119,3.206s7.616,5.491,10.494,3.452S32.454,7.785,20.061,1.52Z" transform="translate(0 0)" fill="#d8c6fe"/>
          <path id="Trazado_41016" data-name="Trazado 41016" d="M3.632,2.315C-.592,5.092-.7,8.473,1.114,10.83c.006-1.779,1.044-3.7,3.627-5.4,7.14-4.7,16.429-.793,16.429-.793,5.1,2.579,8.085,5.88,9.636,9.017C29.936,9.737,26.9,4.979,20.059,1.52,20.059,1.52,10.771-2.381,3.632,2.315Z" transform="translate(0 0)" fill="#cfb9ff"/>
        </g>
        <g id="Grupo_37300" data-name="Grupo 37300" transform="translate(0 0)">
          <path id="Trazado_41017" data-name="Trazado 41017" d="M5,40.029A30.04,30.04,0,0,1,3.511,9.416c8.69-16.894,25.337-7.249,26.557-.37s.739,9.4,6.112,15.3S35.717,45.12,20.8,46.423C20.8,46.423,10.225,48.1,5,40.029Z" transform="translate(0 19.487) rotate(-30)" fill="#d8c6fe"/>
          <path id="Trazado_41018" data-name="Trazado 41018" d="M24.192,24.346c-5.373-5.9-4.892-8.423-6.112-15.3C17.195,4.054,8.194-2.388,0,.895c6.154.542,11.545,5.189,12.219,8.992,1.22,6.88.74,9.4,6.112,15.3,4.87,5.347.532,18.066-11.434,21.371a15.616,15.616,0,0,0,1.911-.139C23.729,45.117,29.565,30.244,24.192,24.346Z" transform="translate(11.275 12.68) rotate(-29)" fill="#cfb9ff"/>
        </g>
      </g>
      <g id="Grupo_37276" data-name="Grupo 37276" transform="matrix(0.875, -0.485, 0.485, 0.875, 0, 70.825)">
        <path id="Trazado_41019" data-name="Trazado 41019" d="M16.978,4.755s16.2-10.66,28.774-.057,9.061,22.882,1,22.972S32.65,23.711,21.627,33.5,9.8,44.124,3.258,39.186-.587,17.32,16.978,4.755Z" transform="translate(0 0)" fill="#d8c6fe"/>
        <path id="Trazado_41020" data-name="Trazado 41020" d="M19.018,11.965s16.206-10.659,28.776-.056a26.29,26.29,0,0,1,6.219,7.35c-.023-4.274-2.382-9.6-8.264-14.562-12.57-10.6-28.774.057-28.774.057C.607,16.463-2.847,31.955,2.052,38.009,2.238,30.6,7.337,20.321,19.018,11.965Z" transform="translate(0.003 0)" fill="#cfb9ff"/>
      </g>
      <g id="Grupo_37277" data-name="Grupo 37277" transform="translate(69.855 198.123)">
        <path id="Trazado_41021" data-name="Trazado 41021" d="M272.354,750.936s10.064-8.178,9.064-19.13-11.093-9.6-14.912-3.218c-2.553,4.269-4.68,11.053-10.988,11.813s-10.854,5.315-10.285,9.818S257.725,761.207,272.354,750.936Z" transform="translate(-245.185 -723.678)" fill="#d8c6fe"/>
        <path id="Trazado_41022" data-name="Trazado 41022" d="M282.64,731.807c-.591-6.48-4.364-8.651-8.139-8.023,2.015,1.085,3.571,3.43,3.932,7.394,1,10.953-9.064,19.13-9.064,19.13-6.021,4.227-11.58,5.612-16.081,5.469,4.972,1.388,12.215.828,20.289-4.84C273.577,750.937,283.641,742.759,282.64,731.807Z" transform="translate(-246.408 -723.678)" fill="#cfb9ff"/>
      </g>
      <path id="Trazado_41023" data-name="Trazado 41023" d="M267.763,845.336s-18.777-.11-18.785,5.064,46.06-1.969,50.936.948-5.586,5.594.277,7.232,39.652-.069,41.1-6.539S298.3,844.581,267.763,845.336Z" transform="translate(-172.506 -533.594)" fill="#bfa2ff" opacity="0.19"/>
    </g>
    <g id="Grupo_37288" data-name="Grupo 37288" transform="translate(401.553 499.47) rotate(18)">
      <path id="Trazado_40854" data-name="Trazado 40854" d="M.766,29.5S6.664.93,35.448.022,58.766,26.067,95.882,30.965,117.8,97.176,69.051,102.486-4.812,49.8.766,29.5Z" transform="translate(28.172 38.162)" fill="#d8c6fe"/>
      <path id="Trazado_41108" data-name="Trazado 41108" d="M82.244,30.965C45.128,26.067,50.593-.884,21.81.022A34.294,34.294,0,0,0,0,8.095,36.408,36.408,0,0,1,14.042,4.966C42.825,4.06,37.36,31.01,74.476,35.908c28.71,3.79,26.11,41.327.9,60.6C107.585,79.714,113.676,35.114,82.244,30.965Z" transform="translate(41.81 38.162)" fill="#cfb9ff"/>
    </g>
    <g id="Grupo_37299" data-name="Grupo 37299" transform="translate(501.659 249.47)">
      <path id="Trazado_41109" data-name="Trazado 41109" d="M311.583,607.6s-28.8,28.26-34.231,80.651c0,0-.591,6.03,2.363,8.037S290.959,697.638,296.5,687s28.741-61.44,28.741-61.44S340.2,609.955,311.583,607.6Z" transform="translate(-214.567 -387.076)" fill="#1b1b23"/>
      <path id="Trazado_41110" data-name="Trazado 41110" d="M359.441,609.4l4.808,2.88a11.89,11.89,0,0,1-13.006,5.891c-11.562-2.237-16.607-12.9-16.607-12.9Z" transform="translate(-223.218 -386.723)" fill="#263375"/>
      <path id="Trazado_41111" data-name="Trazado 41111" d="M347.133,605.262s13.052,18.3,7.407,36.048c-7.2,22.626-63.138,6.109-75.839.2s-12.411-22.188,10.538-24.286C313.263,615.029,347.133,605.262,347.133,605.262Z" transform="translate(-213.509 -386.723)" fill="#202035"/>
      <g id="Grupo_37290" data-name="Grupo 37290" transform="translate(0 0)">
        <path id="Trazado_41112" data-name="Trazado 41112" d="M219.311,348.894a4.407,4.407,0,0,0-1.581,2.121l-14.063,40.231a4.43,4.43,0,0,0,.2,3.39l4.59,12.552,22-49.326-11.146-8.968" transform="translate(-203.42 -348.042)" fill="#1aa35b"/>
        <path id="Trazado_41113" data-name="Trazado 41113" d="M222.135,348.743a4.442,4.442,0,0,1,4.073-.6l44.872,15.685a4.427,4.427,0,0,1,2.51,2.226l4.831,13.18-50.723-16Z" transform="translate(-206.243 -347.891)" fill="#1db76a"/>
        <rect id="Rectángulo_4552" data-name="Rectángulo 4552" width="56.411" height="51.496" rx="5.227" transform="matrix(0.944, 0.33, -0.33, 0.944, 20.347, 11.303)" fill="#20ce7b"/>
        <path id="Trazado_41114" data-name="Trazado 41114" d="M263.525,402.641l.471-1.416a4.107,4.107,0,0,0-2.591-5.178l-8.459-2.815,2.816-8.459a4.106,4.106,0,0,0-2.592-5.177l-1.416-.471a4.107,4.107,0,0,0-5.178,2.592l-2.815,8.458L235.3,387.36a4.106,4.106,0,0,0-5.177,2.592l-.471,1.416a4.107,4.107,0,0,0,2.592,5.178l8.458,2.815-2.815,8.459A4.106,4.106,0,0,0,240.48,413l1.416.471a4.106,4.106,0,0,0,5.177-2.592l2.816-8.458,8.459,2.815A4.106,4.106,0,0,0,263.525,402.641Z" transform="translate(-207.346 -352.572)" fill="#1aa35b"/>
        <g id="Grupo_37289" data-name="Grupo 37289" transform="translate(21.501 26.224)">
          <rect id="Rectángulo_4553" data-name="Rectángulo 4553" width="9.681" height="35.698" rx="4.821" transform="matrix(0.949, 0.316, -0.316, 0.949, 19.508, 0)" fill="#fff"/>
          <rect id="Rectángulo_4554" data-name="Rectángulo 4554" width="9.681" height="35.698" rx="4.821" transform="matrix(-0.316, 0.949, -0.949, -0.316, 36.928, 19.508)" fill="#fff"/>
        </g>
      </g>
      <g id="Grupo_37291" data-name="Grupo 37291" transform="translate(146.663 223.108)">
        <path id="Trazado_41116" data-name="Trazado 41116" d="M381.338,610.643l-5.194,5.752,4.735,3.316,5.4-5.345Z" transform="translate(-376.144 -610.643)" fill="#f7af80"/>
      </g>
      <path id="Trazado_41117" data-name="Trazado 41117" d="M260.818,439.732l-2.731-9.973,6.5-.941,3.173,9.473Z" transform="translate(-211.668 -360.101)" fill="#f7af80"/>
      <g id="Grupo_37292" data-name="Grupo 37292" transform="translate(43.731 57.711)">
        <path id="Trazado_41118" data-name="Trazado 41118" d="M269.14,424.96c.07-.088.949-2.271,1-2.37.505-.949-.1-1.423-.978-2.186l.756.5a71.756,71.756,0,0,0-6.221-4.892c-.95-.611-1.906.673-2.363,1.4l-6.173,9.249a2.1,2.1,0,0,0-.231,1.181,2.5,2.5,0,0,0,1.576,2.152l3.565,2.125c1.907,1.369,3.022.723,4.1-.621Z" transform="translate(-254.922 -415.856)" fill="#f7af80"/>
      </g>
      <g id="Grupo_37293" data-name="Grupo 37293" transform="translate(107.858 315.735)">
        <path id="Trazado_41119" data-name="Trazado 41119" d="M355.446,741.428a1.276,1.276,0,0,1,1.508-.373l.859.843s.5,9.672,1.03,12.6,4.489,17.028-2.181,20.471a11.074,11.074,0,0,1-3.326.919Z" transform="translate(-333.897 -722.927)" fill="#603913"/>
        <path id="Trazado_41120" data-name="Trazado 41120" d="M338.314,740.14s4.467,8.3,5.135,12.77c.485,3.24.815,17.675,3.948,20.505,2.6,2.349,11.574.99,9.039-13.411s-1.6-19.552-1.6-19.552-1.535-4.305-7.2-7.28l-1.98-3.017-7.215,5.006Z" transform="translate(-331.631 -721.301)" fill="#351c07"/>
        <path id="Trazado_41121" data-name="Trazado 41121" d="M330.443,724.358l9.2,14.577s3.239.5,6.142-3.356l-6.555-15.851Z" transform="translate(-330.443 -719.728)" fill="#dd966f"/>
        <path id="Trazado_41122" data-name="Trazado 41122" d="M346.035,739.915s4.152,7.262,4.265,11.957,1.047,15.04,1.047,15.04l-5.169,1.477s-1.478-13.692-1.929-15.524-4.359-11.717-4.359-11.717a2.634,2.634,0,0,1,1.825-2.57C343.682,737.842,345,737.954,346.035,739.915Z" transform="translate(-331.868 -722.509)" fill="#603913"/>
        <path id="Trazado_41123" data-name="Trazado 41123" d="M346.816,730.155A6.984,6.984,0,0,1,346,735.63l2.62,3.937s1.669-2.209.176-6.4Z" transform="translate(-332.79 -721.301)" fill="#351c07"/>
        <path id="Trazado_41124" data-name="Trazado 41124" d="M345.987,772.172c.544,3.3,1.34,6.2,2.568,7.307,2.128,1.922,8.523,1.356,9.385-6.809C356.6,771.458,352.266,768.384,345.987,772.172Z" transform="translate(-332.788 -727.365)" fill="#211104"/>
        <path id="Trazado_41125" data-name="Trazado 41125" d="M347.876,731.769s.836,3.505-1.233,4.828L346,735.63a7.073,7.073,0,0,0,.816-5.475Z" transform="translate(-332.79 -721.301)" fill="#211104"/>
        <path id="Trazado_41126" data-name="Trazado 41126" d="M351.3,734.9s-.352,8.427,5.524,14l-.027-7.728A10.972,10.972,0,0,0,351.3,734.9Z" transform="translate(-333.59 -722.017)" fill="#211104"/>
        <path id="Trazado_41127" data-name="Trazado 41127" d="M344.656,754.473l-.392-.349c.07-.081,1.8-1.967,6.823-2.228l.027.525C346.337,752.671,344.673,754.455,344.656,754.473Z" transform="translate(-332.528 -724.582)" fill="#211104"/>
        <path id="Trazado_41128" data-name="Trazado 41128" d="M343.554,751.827l-.346-.4a11.237,11.237,0,0,1,7.4-2.235l-.012.525A10.929,10.929,0,0,0,343.554,751.827Z" transform="translate(-332.369 -724.174)" fill="#211104"/>
        <path id="Trazado_41129" data-name="Trazado 41129" d="M342.706,749.351l-.346-.4c.139-.121,3.445-2.954,7.516-2.212l-.093.517C345.96,746.566,342.738,749.323,342.706,749.351Z" transform="translate(-332.241 -723.785)" fill="#211104"/>
        <path id="Trazado_41130" data-name="Trazado 41130" d="M344.913,756.5l-.314-.421c.149-.111,3.692-2.719,6.983-1.528l-.178.494C348.382,753.956,344.948,756.479,344.913,756.5Z" transform="translate(-332.579 -724.936)" fill="#211104"/>
        <path id="Trazado_41131" data-name="Trazado 41131" d="M345.191,758.455l-.3-.429c.14-.1,3.474-2.417,7.054-1.049l-.189.492C348.439,756.2,345.222,758.432,345.191,758.455Z" transform="translate(-332.622 -725.283)" fill="#211104"/>
        <path id="Trazado_41132" data-name="Trazado 41132" d="M351.768,759.812a6.753,6.753,0,0,0-6.224.928l-.33-.408a7.159,7.159,0,0,1,6.74-1.011Z" transform="translate(-332.672 -725.634)" fill="#211104"/>
        <path id="Trazado_41133" data-name="Trazado 41133" d="M351.862,761.935a6.037,6.037,0,0,0-6,.883l-.356-.386a6.474,6.474,0,0,1,6.535-.99Z" transform="translate(-332.716 -725.952)" fill="#211104"/>
        <path id="Trazado_41134" data-name="Trazado 41134" d="M345.817,765.545l-.364-.38a7.554,7.554,0,0,1,6.842-1.407l-.118.513A7.141,7.141,0,0,0,345.817,765.545Z" transform="translate(-332.708 -726.335)" fill="#211104"/>
        <path id="Trazado_41135" data-name="Trazado 41135" d="M346.1,767.707l-.283-.443c.14-.09,3.489-2.19,6.88-1.021l-.172.5C349.376,765.654,346.128,767.687,346.1,767.707Z" transform="translate(-332.762 -726.693)" fill="#211104"/>
        <path id="Trazado_41136" data-name="Trazado 41136" d="M352.915,769.03a8.335,8.335,0,0,0-6.58.813l-.284-.442a8.723,8.723,0,0,1,7.035-.869Z" transform="translate(-332.798 -727.03)" fill="#211104"/>
      </g>
      <g id="Grupo_37294" data-name="Grupo 37294" transform="translate(102.421 365.082)">
        <path id="Trazado_41137" data-name="Trazado 41137" d="M348.618,802.014a1.341,1.341,0,0,1,1.634-.062l.706,1.053s-1.549,10.077-1.633,13.2.986,18.512-6.626,20.632a11.654,11.654,0,0,1-3.625.236Z" transform="translate(-326.308 -781.442)" fill="#603913"/>
        <path id="Trazado_41138" data-name="Trazado 41138" d="M332.184,797.3s2.83,9.509,2.563,14.259c-.194,3.444-2.94,18.393-.317,21.98,2.177,2.977,11.718,3.495,12.184-11.89s2.537-20.493,2.537-20.493-.464-6.612-6.516-8.384L339.8,789.23,333.38,792.2Z" transform="translate(-325.269 -779.562)" fill="#351c07"/>
        <path id="Trazado_41139" data-name="Trazado 41139" d="M324.04,782.653l9.581,15.412s3.406.554,6.49-3.487l-6.783-16.734Z" transform="translate(-324.04 -777.844)" fill="#dd966f"/>
        <path id="Trazado_41140" data-name="Trazado 41140" d="M340.454,798.357s2.727,8.373,1.839,13.236-2.136,15.726-2.136,15.726l-5.644.418s1.4-14.429,1.332-16.413-1.671-11.166-1.671-11.166-1.1-2.985.744-4.207C337.093,794.5,339.809,796.115,340.454,798.357Z" transform="translate(-325.52 -780.493)" fill="#603913"/>
        <path id="Trazado_41141" data-name="Trazado 41141" d="M333.545,831.754c-.145,3.52.056,6.674,1.084,8.08,1.782,2.437,8.5,3.22,11.129-5.012C344.637,833.287,340.827,829.193,333.545,831.754Z" transform="translate(-325.468 -785.854)" fill="#211104"/>
        <path id="Trazado_41142" data-name="Trazado 41142" d="M346.66,794.345s-1.868,8.56,3,15.557l1.625-7.971S351.034,796.746,346.66,794.345Z" transform="translate(-327.4 -780.334)" fill="#211104"/>
        <path id="Trazado_41143" data-name="Trazado 41143" d="M335.951,813.257l-.33-.444c.09-.067,2.276-1.641,7.509-.837l-.084.547C338.068,811.759,335.972,813.242,335.951,813.257Z" transform="translate(-325.787 -782.959)" fill="#211104"/>
        <path id="Trazado_41144" data-name="Trazado 41144" d="M335.381,810.291l-.273-.481a11.832,11.832,0,0,1,8.1-.722l-.125.538A11.506,11.506,0,0,0,335.381,810.291Z" transform="translate(-325.71 -782.503)" fill="#211104"/>
        <path id="Trazado_41145" data-name="Trazado 41145" d="M335.031,807.543l-.271-.482c.17-.1,4.182-2.308,8.219-.672l-.207.512C338.982,805.368,335.071,807.521,335.031,807.543Z" transform="translate(-325.657 -782.06)" fill="#211104"/>
        <path id="Trazado_41146" data-name="Trazado 41146" d="M335.8,815.357l-.234-.5c.177-.083,4.387-2.014,7.525-.083l-.29.471C339.916,813.472,335.837,815.338,335.8,815.357Z" transform="translate(-325.778 -783.287)" fill="#211104"/>
        <path id="Trazado_41147" data-name="Trazado 41147" d="M335.679,817.405l-.222-.507c.166-.072,4.1-1.748,7.494.427l-.3.466C339.509,815.778,335.716,817.389,335.679,817.405Z" transform="translate(-325.763 -783.633)" fill="#211104"/>
        <path id="Trazado_41148" data-name="Trazado 41148" d="M342.169,820.2a7.111,7.111,0,0,0-6.614-.374l-.253-.492a7.544,7.544,0,0,1,7.164.4Z" transform="translate(-325.739 -783.994)" fill="#211104"/>
        <path id="Trazado_41149" data-name="Trazado 41149" d="M341.813,822.4a6.358,6.358,0,0,0-6.37-.371l-.284-.475a6.814,6.814,0,0,1,6.947.377Z" transform="translate(-325.718 -784.323)" fill="#211104"/>
        <path id="Trazado_41150" data-name="Trazado 41150" d="M334.8,824.847l-.295-.469a7.951,7.951,0,0,1,7.353.013l-.23.5A7.516,7.516,0,0,0,334.8,824.847Z" transform="translate(-325.619 -784.734)" fill="#211104"/>
        <path id="Trazado_41151" data-name="Trazado 41151" d="M334.636,827.135l-.2-.517c.164-.063,4.065-1.511,7.309.418l-.283.475C338.456,825.72,334.674,827.12,334.636,827.135Z" transform="translate(-325.609 -785.115)" fill="#211104"/>
        <path id="Trazado_41152" data-name="Trazado 41152" d="M341.387,829.949a8.774,8.774,0,0,0-6.957-.569l-.2-.516a9.186,9.186,0,0,1,7.437.61Z" transform="translate(-325.578 -785.463)" fill="#211104"/>
        <path id="Trazado_41153" data-name="Trazado 41153" d="M340.978,789.23a9.9,9.9,0,0,1-.959,4.343l3.384,4.937.414-5.735Z" transform="translate(-326.451 -779.562)" fill="#351c07"/>
      </g>
      <path id="Trazado_41154" data-name="Trazado 41154" d="M357.552,609.451l5.845,11.328-18.948,2.684-.937-13.5Z" transform="translate(-224.557 -387.355)" fill="#202035"/>
      <path id="Trazado_41155" data-name="Trazado 41155" d="M330.627,440.855s-6.039-1.163-8.043,3.128-4.913,7.707-8.355,8.248a7.891,7.891,0,0,0,5.628-.786s-3.509,2.1.177,6.707l11.926-8.31Z" transform="translate(-220.139 -361.895)" fill="#2d2928"/>
      <path id="Trazado_41156" data-name="Trazado 41156" d="M331.884,437.537a12.56,12.56,0,0,1,9.939-2.2c10.469,1.82,17.724,12.615,22.956,16.344s4.547,7.443,4.547,7.443l1.286-2.5-.59,3.5,1.121-.58-1.611,2.744,1.228,4.107-1.874-2.8-.2,1.8-.716,1.942s-2.366,3.67-1.136,7.272c0,0-2.788-.193-2.873-2.079,0,0,.149,7.181-4.318,9.953,0,0-3.913,2.493-3.66,4.749,0,0-1.351-2.805-.775-4.491,0,0-.821,4.535-2.479,5.158s-4.4,4.251-4.255,5.613a4.294,4.294,0,0,1-.462-3.2s-.664,2.454-2.517,2.749l.161-2.882-6.584,5.788L322.248,470.8Z" transform="translate(-221.349 -361.052)" fill="#191818"/>
      <g id="Grupo_37296" data-name="Grupo 37296" transform="translate(87.435 101.062)">
        <g id="Grupo_37295" data-name="Grupo 37295">
          <path id="Trazado_41157" data-name="Trazado 41157" d="M313.808,469.882a13.342,13.342,0,0,0,1.974-2c.8-1.054,1.481-1.282,2.471-.54s-.936,10.034-7.308,9.077-4.577-5.334-3.338-5.893C310.275,469.326,310.879,472.2,313.808,469.882Z" transform="translate(-306.391 -466.91)" fill="#ba6e50"/>
          <path id="Trazado_41158" data-name="Trazado 41158" d="M310.866,476c5.487.825,7.674-5.945,7.545-8.317.6,1.6-1.462,9.753-7.454,8.854-3.356-.5-4.4-1.884-4.484-3.2C306.791,474.476,307.966,475.566,310.866,476Z" transform="translate(-306.403 -467.027)" fill="#af624e"/>
        </g>
        <path id="Trazado_41159" data-name="Trazado 41159" d="M314.1,472.721l-7.544-.643s.588-2.539,3.9-1.981,5.256-2.224,5.73-2.6,1.8-.294,1.864.492S314.1,472.721,314.1,472.721Z" transform="translate(-306.415 -466.966)" fill="#ba6e50"/>
      </g>
      <path id="Trazado_41160" data-name="Trazado 41160" d="M350.6,530.544s-1.011,3.3-3.6,12.612,5.791,43.711,5.791,43.711c-3.63,3.214-32.424-.233-39.1-1.05-6.8-.835-10.1.107-10.1.107-7.29-34.366-3.313-66.9-3.313-66.9-30.185-13.115-41.609-76.749-41.609-76.749,3.335-5.495,11.118-5.422,11.118-5.422,14.013,54.394,32.961,61.747,38.1,62.624s14.167-.15,14.167-.15c18.233,1.055,27.958,4.742,35.181,11.8,0,0,22.891,19.6,27.409,38.94s-16.1,40.343-16.1,40.343l-7.153-5.563s14.168-18.339,11.954-29.414C371.234,544.851,350.6,530.544,350.6,530.544Z" transform="translate(-211.756 -361.314)" fill="#2b3990"/>
      <path id="Trazado_41161" data-name="Trazado 41161" d="M327.217,510.648s-2.8,10.138,3.581,15.566l-.053-1.8s-3.319-3.544-1.286-14.009Z" transform="translate(-222.006 -372.41)" fill="#25337a"/>
      <path id="Trazado_41162" data-name="Trazado 41162" d="M340.555,494.267s-1,9.784.162,15.268c0,0-3.557,10.053-10.127,12.443,0,0-3.718-4.479-1.567-12.441l-3.441-10.706Z" transform="translate(-221.851 -369.976)" fill="#dd966f"/>
      <path id="Trazado_41163" data-name="Trazado 41163" d="M332.394,445.678s-10.34,5.538-14.28,16.939-5.122,25.992-2.254,29.4c0,0,.992,1.942,4.764,2.285s11.7.821,17.089-3.727a29.212,29.212,0,0,0,7.488-9.221s4.318,1.532,5.719-1.656.093-6.029-2.972-5.917c0,0,2.424-3.985,1.775-7.69S344.5,445.743,332.394,445.678Z" transform="translate(-220.145 -362.645)" fill="#dd966f"/>
      <ellipse id="Elipse_734" data-name="Elipse 734" cx="2.308" cy="2.308" rx="2.308" ry="2.308" transform="translate(124.789 112.566)" fill="#ce8865"/>
      <path id="Trazado_41164" data-name="Trazado 41164" d="M326.9,460.38s3.087.437,4.447,1.946.988,3.226,2.259,2.982.858-5.185-2.824-6.577a10.679,10.679,0,0,0-3.285-.468C326.2,458.4,326.03,460.207,326.9,460.38Z" transform="translate(-221.969 -364.54)" fill="#191818"/>
      <path id="Trazado_41165" data-name="Trazado 41165" d="M325.975,449.033a80.432,80.432,0,0,0,17.9,12.105s3.788,1.669,3.633,4.754-3.344,9.15-3.344,9.15l2.079,2.849,5.591-6.5s8.9-.072,7.015-10.111-11.161-20.057-20.972-21.8C327.82,437.694,325.975,449.033,325.975,449.033Z" transform="translate(-221.911 -361.681)" fill="#191818"/>
      <g id="Grupo_37297" data-name="Grupo 37297" transform="translate(102.568 98.513)">
        <path id="Trazado_41166" data-name="Trazado 41166" d="M324.275,466.015a2.886,2.886,0,1,0,3.408-2.032A2.808,2.808,0,0,0,324.275,466.015Z" transform="translate(-324.212 -463.909)" fill="#231f20"/>
        <path id="Trazado_41167" data-name="Trazado 41167" d="M326.556,466.085a.753.753,0,0,0-.211.993c.27.477-.45.937-.721.458a1.593,1.593,0,0,1,.307-2.033.441.441,0,0,1,.6-.022.429.429,0,0,1,.022.6Z" transform="translate(-324.39 -464.13)" fill="#fff"/>
      </g>
      <path id="Trazado_41168" data-name="Trazado 41168" d="M343.481,510.966A24.555,24.555,0,0,1,331.533,526.3l-.053-1.8s8.695-7.084,9.936-13.509Z" transform="translate(-222.741 -372.495)" fill="#25337a"/>
      <path id="Trazado_41169" data-name="Trazado 41169" d="M315.856,482.625l1.468-1.583,1.405.812.8,0,.538.81.54-.441a6.1,6.1,0,0,0,2.207.053c.589-.245,2.4,2.938,2.946,4.131,0,0,.521,2.539-.266,3.666l-.48-1.261-.4,2.134-.848-3.824-.464-1.556-.736-.1-.343-.54-1.618.291-1.11-.639-1.832,0-.734-.836v.834l-.594-.882Z" transform="translate(-220.384 -367.98)" fill="#66534e"/>
      <path id="Trazado_41170" data-name="Trazado 41170" d="M315.142,481.59l-.2-.686s-.543,1.409-.917,1.541l.025,1.751.437-.441s-.093.528-.025.464.778-1.624.778-1.624Z" transform="translate(-220.108 -367.96)" fill="#66534e"/>
      <path id="Trazado_41171" data-name="Trazado 41171" d="M316.2,486.226a10.873,10.873,0,0,0,4.712,1.241s-.673,5.284-4.746,3.745Z" transform="translate(-220.431 -368.763)" fill="#191818"/>
      <path id="Trazado_41172" data-name="Trazado 41172" d="M316.2,486.226a10.873,10.873,0,0,0,4.712,1.241s-.673,5.284-4.746,3.745Z" transform="translate(-220.431 -368.763)" fill="#191818"/>
      <path id="Trazado_41173" data-name="Trazado 41173" d="M316.2,486.226a10.873,10.873,0,0,0,4.712,1.241s-.673,5.284-4.746,3.745Z" transform="translate(-220.431 -368.763)" fill="#191818"/>
      <path id="Trazado_41174" data-name="Trazado 41174" d="M320.671,491.082c-1.152-.469-2.547-.789-3.28-.027a1.393,1.393,0,0,0-.444,1.5A2.9,2.9,0,0,0,320.671,491.082Z" transform="translate(-220.538 -369.422)" fill="#be1e2d"/>
      <path id="Trazado_41175" data-name="Trazado 41175" d="M317.457,491.53c.67-.7,1.891-.486,2.977-.087.081-.117.156-.238.224-.361-1.152-.469-2.547-.789-3.28-.027a1.857,1.857,0,0,0-.593,1.452l.158.048A1.619,1.619,0,0,1,317.457,491.53Z" transform="translate(-220.524 -369.422)" fill="#d6384c"/>
      <path id="Trazado_41176" data-name="Trazado 41176" d="M341.282,484.421s-1.669,7.33-2.8,6.781a6.986,6.986,0,0,1-1.728-1.172l-.313,1.563-1.154-.913a4.587,4.587,0,0,1-.57,1.322c-.241.181-1.336-.256-1.336-.256l-.966,1.745-1.247-.538s-.352.46-.879,1.053l-1.311-.733-.115,1.233-1.353-1.223a7.4,7.4,0,0,0-1.327.751c-.1.178-1.909-1.024-1.909-1.024-.6,3.544-4.837,5.188-5.491,5.409s-1.717-1.3-1.717-1.3l-.735-1.62.482-.414-.341-1.276.841-1.1a30.615,30.615,0,0,1-3.134-1.1l.091.565s-.379,4.175,1.269,6.116,4.46,3.735,14.545,1.1c0,0,8.282-1.492,11.743-6.747l2.9-4.4Z" transform="translate(-220.131 -368.49)" fill="#66534e"/>
      <path id="Trazado_41177" data-name="Trazado 41177" d="M346.1,484.324l3.442,3.821c-.18-.2-2.518-4.365-2.518-4.365l.385,1.742Z" transform="translate(-224.947 -368.393)" fill="#66534e"/>
      <path id="Trazado_41178" data-name="Trazado 41178" d="M314.083,492.89l-.52,3.3.609-.676a7.078,7.078,0,0,0,.493,4.021l.244-.8a14.114,14.114,0,0,0,1.6,3l.037-.667,1.352,1.36.668-.577,1.528,1.387s2.432-.827,5.275-1.631c0,0-8.169-.752-8.284-1.977S314.083,492.89,314.083,492.89Z" transform="translate(-220.038 -369.768)" fill="#66534e"/>
      <path id="Trazado_41179" data-name="Trazado 41179" d="M324.176,500.938l.848,2.527,3.148-1.375.182,1.283,6.143-2.85-.053.943s5.425-2.113,6.544-4.351Z" transform="translate(-221.639 -370.405)" fill="#66534e"/>
      <path id="Trazado_41180" data-name="Trazado 41180" d="M324.613,486.372l-.066,1.189.53.366-.09,1.616.555.481-.1,1.7.455.437.723-4.027Z" transform="translate(-221.695 -368.785)" fill="#66534e"/>
      <path id="Trazado_41181" data-name="Trazado 41181" d="M326.666,487.933l-.583,2.23.05,2.236a4.67,4.67,0,0,0,1.3-2.345A2.463,2.463,0,0,0,326.666,487.933Z" transform="translate(-221.927 -369.02)" fill="#66534e"/>
      <path id="Trazado_41182" data-name="Trazado 41182" d="M323.975,445.416s-3.491,4.943,1.291,8.442l.994-4.4s8.934,7.813,9.533,13.5c0,0,1.136-.629,1.251-4.33,0,0,10.972,3.007,7.2,8.6l2.072-2.058-3.344,9.15s8.3-6.049,9.021-9.029-1.415-25.913-6.105-26.818a20.66,20.66,0,0,0-9.6-3.391c-5.212-.281-9.679.863-12.112-1.575a4.536,4.536,0,0,0,3.409,3.943s-5.893-.971-8.621,2.913a12.817,12.817,0,0,1,4.408-.3s-1.455,4.322-4.982,5.042C318.388,445.1,321.24,446.915,323.975,445.416Z" transform="translate(-220.766 -360.809)" fill="#191818"/>
      <path id="Trazado_41183" data-name="Trazado 41183" d="M374.3,466.114s2.76.154,2.7,2.474-3.34,6.059-2.874,8.758c0,0-1.528-.471-1.231-4.675A19.964,19.964,0,0,1,374.3,466.114Z" transform="translate(-228.984 -365.728)" fill="#191818"/>
      <path id="Trazado_41184" data-name="Trazado 41184" d="M280.194,630.294l-8.182,7.927s41.142,60.965,50.152,80.008c0,0,9.952,2.535,14.844-7.351,0,0-11.7-31.162-14.643-36.544s-18.686-27.2-18.686-27.2L294.9,623.286Z" transform="translate(-213.769 -389.442)" fill="#202035"/>
      <path id="Trazado_41185" data-name="Trazado 41185" d="M256.2,428.1l-.8-.076a.931.931,0,0,1-.834-1.011l.132-6.215a.93.93,0,0,1,1.011-.834l1.72.166a.929.929,0,0,1,.833,1.011l-1.054,6.126A.93.93,0,0,1,256.2,428.1Z" transform="translate(-211.137 -358.764)" fill="#e08d56"/>
      <path id="Trazado_41186" data-name="Trazado 41186" d="M269.624,420.659l.461-.17s3.5,1.959,2.237,3.979c-.825,1.32-6.506,7.729-6.506,7.729s1.894-2.713,1.984-2.977C267.9,428.92,267.8,429.379,269.624,420.659Z" transform="translate(-212.834 -358.844)" fill="#f7af80"/>
      <path id="Trazado_41187" data-name="Trazado 41187" d="M370.052,524.807s-3.922,4.123-4.184,13.046Z" transform="translate(-227.93 -374.584)" fill="#25337a"/>
      <path id="Trazado_41188" data-name="Trazado 41188" d="M374.855,615.966l-.215-.672a.816.816,0,0,0-1.024-.528l-5.321,1.272a.818.818,0,0,0-.528,1.025l.463,1.45a.818.818,0,0,0,1.025.528l5.073-2.049A.818.818,0,0,0,374.855,615.966Z" transform="translate(-228.21 -388.151)" fill="#e08d56"/>
      <g id="Grupo_37298" data-name="Grupo 37298" transform="translate(137.406 226.302)">
        <path id="Trazado_41189" data-name="Trazado 41189" d="M368.311,627.785l1.991,1.649a1.98,1.98,0,0,0,2.579.178c.08-.065,1.912-1.267,1.979-1.346l5.205-6.17c1.016-1.224,1.377-2.351-.288-3.821l-2.715-2.828a2.446,2.446,0,0,0-2.321-1.025,1.978,1.978,0,0,0-1.043.428l-7.251,7.3s-1.494,1.2-1.159,2.164S368.311,627.785,368.311,627.785Z" transform="translate(-365.241 -614.403)" fill="#f7af80"/>
      </g>
      <path id="Trazado_41190" data-name="Trazado 41190" d="M372.442,630.117l-.989,1.135a2.58,2.58,0,0,0,3.262-.122c1.048-.881,4.731-5.641,4.731-5.641a11.1,11.1,0,0,0-1.29.424C377.945,626.039,372.442,630.117,372.442,630.117Z" transform="translate(-228.773 -389.774)" fill="#f7af80"/>
      <path id="Trazado_41191" data-name="Trazado 41191" d="M290.005,695.373l6.056.886s9.662,10.929,18.271,37.144S329.366,767,329.366,767a21.139,21.139,0,0,1-11.742,12.259l-39.317-71.717S280.883,695.471,290.005,695.373Z" transform="translate(-214.719 -400.319)" fill="#202035"/>
    </g>
  </g>
</svg>
