<svg xmlns="http://www.w3.org/2000/svg" xmlns:xlink="http://www.w3.org/1999/xlink" width="414" height="452" viewBox="0 0 414 452">
  <defs>
    <clipPath id="clip-path">
      <rect id="Rectángulo_4534" data-name="Rectángulo 4534" width="414" height="452" transform="translate(0 284)" fill="none" stroke="#707070" stroke-width="1"/>
    </clipPath>
  </defs>
  <g id="Enmascarar_grupo_19" data-name="Enmascarar grupo 19" transform="translate(0 -284)" clip-path="url(#clip-path)">
    <g id="Grupo_37298" data-name="Grupo 37298" transform="translate(-121.253 44.996)">
      <g id="Grupo_37320" data-name="Grupo 37320" transform="translate(-12.35 1056.699)">
        <g id="Grupo_37319" data-name="Grupo 37319" transform="translate(141.603 -805.476)">
          <g id="Grupo_37300" data-name="Grupo 37300" transform="translate(158.827)">
            <path id="Trazado_41145" data-name="Trazado 41145" d="M312.235-782.972s2.167-5.529.309-8.918c0,0-.788-1.376-5.538-1.354-4.841.021-7.522-1.313-5.772-6.147a6.02,6.02,0,0,1,3.042-3.584l-1.9-.917s-4.4,3.293-3.438,7.689,3.334,4.667,6.689,4.875c2.9.18,5.257-.167,5.709,1.25.563,1.764.175,6.494-.892,7.716Z" transform="translate(-281.683 805.665)" fill="#414042"/>
            <path id="Trazado_41146" data-name="Trazado 41146" d="M301.55-803.433l.375-.366.344-.337,1.752,1.149-.758.488Z" transform="translate(-281.356 805.636)" fill="#414042"/>
            <path id="Trazado_41147" data-name="Trazado 41147" d="M302-803.131l2.236-2.345.591.761-2.087,2.24Z" transform="translate(-281.302 805.476)" fill="#414042"/>
            <path id="Trazado_41148" data-name="Trazado 41148" d="M312.544-791.7s-.788-1.374-5.538-1.354c-4.841.021-7.522-1.313-5.772-6.147a6,6,0,0,1,2.808-3.427l.307-.2-.555-.365,1.419-1.523-.592-.761-1.659,1.739-.365-.24-.345.337-.341.334c-1.1.995-3.733,3.79-2.969,7.292.959,4.4,3.334,4.667,6.689,4.875,2.9.18,5.257-.167,5.709,1.25.563,1.764.175,6.494-.892,7.716l1.789-.611S314.4-788.312,312.544-791.7Z" transform="translate(-281.683 805.476)" fill="#414042" opacity="0.57"/>
            <path id="Trazado_41149" data-name="Trazado 41149" d="M337.748-755.314l.431-.25h.486l-.1,2.195-.389.083Z" transform="translate(-277.039 811.428)" fill="#414042"/>
            <path id="Trazado_41150" data-name="Trazado 41150" d="M285.084-756.664s-4.89-11.779,2.555-17.224,16.336-5,23.893-9.668,13.169-3.5,15.779-3.667a50.4,50.4,0,0,0,11.126-2.515s4.542-1.931,6.21,2.626-.785,14.113-.67,16.225.448,8.556.448,8.556S334.2-752.774,308.754-749a46.349,46.349,0,0,1-18.337,0S287.862-751,285.084-756.664Z" transform="translate(-283.508 807.304)" fill="#39b54a"/>
            <path id="Trazado_41151" data-name="Trazado 41151" d="M339.421-787.137a4.251,4.251,0,0,0-2.6-2.795c-1.24.147-2.543,1.069-4.318,2.628,0,0-9.168,11.668-3.084,26.253l9.554-5.642c-.085-1.637-.175-3.322-.223-4.22C338.636-773.025,341.087-782.581,339.421-787.137Z" transform="translate(-278.281 807.33)" fill="#8dc63f"/>
            <path id="Trazado_41152" data-name="Trazado 41152" d="M331.766-780.987c4.762-1.492,6.3-5.811,6.714-8.78a5.474,5.474,0,0,0-3.964.028,50.4,50.4,0,0,1-11.126,2.515,57.029,57.029,0,0,0-6.163.162l-.338,2.365-.5,1.834S325.515-779.028,331.766-780.987Z" transform="translate(-279.586 807.305)" fill="#266d2d"/>
            <path id="Trazado_41153" data-name="Trazado 41153" d="M311.953-783.178s5.731-16.593,11.842-16.37-2.444,20.064-2.444,20.064-3.513,5.113-22.655,10.086c0,0-4.515-5.34-8.07-5.648,0,0,1.276-1,12.652-4.17A49.437,49.437,0,0,0,311.953-783.178Z" transform="translate(-282.659 806.183)" fill="#f7941d"/>
            <path id="Trazado_41154" data-name="Trazado 41154" d="M285.084-758.137a32.569,32.569,0,0,0,3.137,5.222h11.5c4.167-6,2.833-16.752-1.719-21.866a8.771,8.771,0,0,0-6.216-3.01,24.574,24.574,0,0,0-4.15,2.429C280.194-769.916,285.084-758.137,285.084-758.137Z" transform="translate(-283.508 808.778)" fill="#8dc63f"/>
            <path id="Trazado_41155" data-name="Trazado 41155" d="M290.15-751.318a46.343,46.343,0,0,0,18.336,0c25.447-3.779,35.671-13.336,35.671-13.336s-.173-3.352-.313-6.015c-4.971,3.439-16.3,10.672-35.469,13.906-19.59,3.3-22.564-.355-22.614-.417A20.549,20.549,0,0,0,290.15-751.318Z" transform="translate(-283.239 809.627)" fill="#fff"/>
            <path id="Trazado_41156" data-name="Trazado 41156" d="M325.1-781.8a45.566,45.566,0,0,1-11.619,7.824,93.3,93.3,0,0,1-14.126,5.43l-1.24-2.926a106.67,106.67,0,0,0,13.167-4.555c6.45-2.782,9.172-5.444,9.172-5.444l.569-1.379Z" transform="translate(-281.765 808.174)" fill="#f9b75f"/>
            <circle id="Elipse_797" data-name="Elipse 797" cx="1.09" cy="1.09" r="1.09" transform="translate(22.115 34.939)" fill="#dd7f19"/>
            <circle id="Elipse_798" data-name="Elipse 798" cx="1.041" cy="1.041" r="1.041" transform="translate(28.97 32.305)" fill="#dd7f19"/>
            <circle id="Elipse_799" data-name="Elipse 799" cx="1.017" cy="1.017" r="1.017" transform="translate(35.221 29.048)" fill="#dd7f19"/>
            <path id="Trazado_41157" data-name="Trazado 41157" d="M294.876-779.3s5.584-.667,9.419,6.751a1.086,1.086,0,0,0,1.305.694c.973-.25.611-1.445.611-1.445s-1.861-7.473-8.723-6.861a5.1,5.1,0,0,0-1.556.222C295.313-779.752,294.6-779.436,294.876-779.3Z" transform="translate(-282.159 808.491)" fill="#414042"/>
            <path id="Trazado_41158" data-name="Trazado 41158" d="M301.593-781.27s5.2-.621,8.778,6.292a1.013,1.013,0,0,0,1.217.647c.907-.233.57-1.346.57-1.346s-1.735-6.965-8.13-6.4a4.778,4.778,0,0,0-1.451.207C302-781.693,301.335-781.4,301.593-781.27Z" transform="translate(-281.358 808.263)" fill="#414042"/>
            <path id="Trazado_41159" data-name="Trazado 41159" d="M307.622-783.773s4.92-.588,8.3,5.949a.959.959,0,0,0,1.151.612c.857-.221.538-1.274.538-1.274s-1.64-6.585-7.686-6.046a4.489,4.489,0,0,0-1.371.2C308.007-784.172,307.377-783.895,307.622-783.773Z" transform="translate(-280.638 807.97)" fill="#414042"/>
            <path id="Trazado_41160" data-name="Trazado 41160" d="M318.58-780.8s4.024-3.453,6.835,1.333c2.666,4.542-4.992,27.264,3.723,27.559,3.918.133,11.335-.5,11.335-.5v2.279s-11.5,1.389-15.336-.556-2.278-12.588-1.667-19.407.834-10.985-4.5-9.6C318.97-779.692,318.3-779.859,318.58-780.8Z" transform="translate(-279.333 808.275)" fill="#414042"/>
            <path id="Trazado_41161" data-name="Trazado 41161" d="M338.331-755.039l3.237-.153-.1.958-3.056.181Z" transform="translate(-276.97 811.472)" fill="#414042"/>
            <g id="Grupo_37299" data-name="Grupo 37299" transform="translate(144.568 250.933)">
              <path id="Trazado_41162" data-name="Trazado 41162" d="M425.447-552.545s11.825,1.6,16.287-9.643c5.246-13.214,3.812-21.279,12.485-18.566,8.328,2.6,15.394,28.794-5.615,44.106s-36.99,1.836-35.878-8.035C413.657-552.943,425.447-552.545,425.447-552.545Z" transform="translate(-412.672 581.279)" fill="#414042"/>
              <path id="Trazado_41163" data-name="Trazado 41163" d="M451.034-581.277c5.1,8.787,5.857,27.435-10.588,39.42-9.844,7.174-18.584,8.028-24.978,5.9,5.537,6.546,17.9,10.173,32.8-.687,21.009-15.312,13.944-41.5,5.615-44.106A10.023,10.023,0,0,0,451.034-581.277Z" transform="translate(-412.339 581.279)" fill="#414042"/>
            </g>
          </g>
          <path id="Trazado_41164" data-name="Trazado 41164" d="M399.363-693.581s53.736-16.45,74.787,5.72c0,0-63.579-32.659-155.27,37.741C318.88-650.12,344.13-677.058,399.363-693.581Z" transform="translate(-120.462 818.12)" fill="#a176ff"/>
          <path id="Trazado_41165" data-name="Trazado 41165" d="M213.1-590.417S230.2-650.941,303.317-661.2C303.317-661.2,229.052-661.043,213.1-590.417Z" transform="translate(-133.076 822.681)" fill="#a176ff"/>
          <path id="Trazado_41166" data-name="Trazado 41166" d="M225.5-599.9s28.238-56.2,101.975-52.434C327.476-652.332,254.524-666.23,225.5-599.9Z" transform="translate(-131.598 823.594)" fill="#a176ff"/>
          <g id="Grupo_37301" data-name="Grupo 37301" transform="translate(182.448 212.283)">
            <path id="Trazado_41167" data-name="Trazado 41167" d="M310.375-561.441c-.314-.677-5.2-10-5.393-10.726-1.823-6.955,3.325-10.889,9.831-13.142l49.609-28.618a12.74,12.74,0,0,1,6.444-1.883,13.125,13.125,0,0,1,12.252,8.844l21.312,80a14.279,14.279,0,0,1-.338,8.119c-2.9,8.422-7.793,10.063-13.7,12.108l-26.7,9.254c-14.642,6.48-20.393.834-22.76-6.026Z" transform="translate(-304.611 615.811)" fill="#f7af80"/>
          </g>
          <path id="Trazado_41168" data-name="Trazado 41168" d="M386.765-537.1l98.163,214.262-63.582,27.665L346.712-517.4Z" transform="translate(-117.143 837.481)" fill="#f7af80"/>
          <g id="Grupo_37253" data-name="Grupo 37253" transform="translate(115.335 61.487)">
            <g id="Grupo_37252" data-name="Grupo 37252">
              <path id="Trazado_40951" data-name="Trazado 40951" d="M320.628-509.046c-7.223.37-9.7-4.9-10.982-8.643l-64.14-187.392c-1.351-3.96-2.161-11.663,6.053-15.255l13.8-5.7,72.253,215.706Z" transform="translate(-244.649 753.463)" fill="#232223"/>
              <path id="Trazado_40952" data-name="Trazado 40952" d="M255.8-704.7l64.141,187.4a14.906,14.906,0,0,0,18.93,9.275q.685-.235,1.345-.535l74.569-33.914a14.906,14.906,0,0,0,8.059-18L366.888-740.063a14.9,14.9,0,0,0-18.66-9.8l-.054.018-82.757,26.093a14.908,14.908,0,0,0-9.737,18.7C255.717-704.933,255.755-704.814,255.8-704.7Z" transform="translate(-243.417 750.54)" fill="#353535"/>
              <path id="Trazado_40953" data-name="Trazado 40953" d="M268.991-707.412l60.886,183.766,78.768-35.709L353.413-735.361Z" transform="translate(-241.746 752.351)" fill="#fff"/>
              <path id="Trazado_40954" data-name="Trazado 40954" d="M274.087-692.039l83.458-29.333-4.138-13.986-84.416,27.947Z" transform="translate(-241.746 752.351)" fill="#efefef"/>
              <circle id="Elipse_730" data-name="Elipse 730" cx="3.719" cy="3.719" r="3.719" transform="translate(65.618 18.067)" fill="#232223"/>
              <circle id="Elipse_731" data-name="Elipse 731" cx="2.488" cy="2.488" r="2.488" transform="translate(66.853 19.299)" fill="#353535"/>
            </g>
            <path id="Trazado_41169" data-name="Trazado 41169" d="M326.14-634.638l44-18.1,1.725,5.7-43.89,18.009Z" transform="translate(-234.931 762.204)" fill="#e2e2e2"/>
            <path id="Trazado_41170" data-name="Trazado 41170" d="M328.348-627.211l44-18.1,1.725,5.7L330.181-621.6Z" transform="translate(-234.668 763.089)" fill="#e2e2e2"/>
            <path id="Trazado_41171" data-name="Trazado 41171" d="M280.118-690.11l16.9,49.778a1.968,1.968,0,0,0,2.574,1.226L368.1-665.756a2.017,2.017,0,0,0,1.183-2.477l-14.969-48.2a2.246,2.246,0,0,0-2.763-1.382l-70.231,25.159A2.018,2.018,0,0,0,280.118-690.11Z" transform="translate(-240.432 754.43)" fill="#e2e5ed"/>
            <path id="Trazado_41172" data-name="Trazado 41172" d="M280.927-689.945l16.518,48.2a1.977,1.977,0,0,0,2.575,1.207L367.4-666.212a1.976,1.976,0,0,0,1.183-2.438L353.8-715.935a1.978,1.978,0,0,0-2.555-1.271l-69.109,24.759A1.978,1.978,0,0,0,280.927-689.945Z" transform="translate(-240.336 754.502)" fill="#fff"/>
            <path id="Trazado_41173" data-name="Trazado 41173" d="M286.672-690.08l13.2,38.22,7.258-2.524L293.7-692.428a1.629,1.629,0,0,0-2.037-1.008l-3.951,1.274A1.63,1.63,0,0,0,286.672-690.08Z" transform="translate(-239.649 757.341)" fill="#66dbe3" opacity="0.39"/>
            <path id="Trazado_41174" data-name="Trazado 41174" d="M303.916-675.522l6.7,17.93,7.257-2.524L311-678.13a1.781,1.781,0,0,0-2.386-.994l-3.913,1.733A1.479,1.479,0,0,0,303.916-675.522Z" transform="translate(-237.593 759.039)" fill="#66dbe3" opacity="0.39"/>
            <path id="Trazado_41175" data-name="Trazado 41175" d="M311.761-688.052l10.3,27.572L329.314-663l-10.587-27.772a1.177,1.177,0,0,0-1.5-.69l-4.655,1.661A1.356,1.356,0,0,0,311.761-688.052Z" transform="translate(-236.656 757.577)" fill="#66dbe3" opacity="0.39"/>
            <path id="Trazado_41176" data-name="Trazado 41176" d="M298.871-653.98l7.816-3.071,1.3,3.071-8.188,2.7Z" transform="translate(-238.183 761.689)" fill="#8ca3a8" opacity="0.51"/>
            <path id="Trazado_41177" data-name="Trazado 41177" d="M310.406-658.109l7.211-2.745,1.156,2.55-7.2,2.643Z" transform="translate(-236.808 761.236)" fill="#8ca3a8" opacity="0.51"/>
            <path id="Trazado_41178" data-name="Trazado 41178" d="M321.44-662.051l7.012-2.731,1.07,2.453-7.1,2.692Z" transform="translate(-235.492 760.767)" fill="#8ca3a8" opacity="0.51"/>
            <path id="Trazado_41179" data-name="Trazado 41179" d="M331.974-666.657l5.845-2.116,1.024,2.605-5.955,1.861Z" transform="translate(-234.236 760.291)" fill="#8ca3a8" opacity="0.51"/>
            <path id="Trazado_41180" data-name="Trazado 41180" d="M340.688-669.587l1.21,2.334,6.048-2.334-1.1-2.568Z" transform="translate(-233.196 759.888)" fill="#8ca3a8" opacity="0.51"/>
            <path id="Trazado_41181" data-name="Trazado 41181" d="M320.639-696.663,332.674-665l5.862-2.14-12.307-32.194a1.71,1.71,0,0,0-2.367-.917l-2.275,1.146A1.955,1.955,0,0,0,320.639-696.663Z" transform="translate(-235.603 756.516)" fill="#66dbe3" opacity="0.39"/>
            <path id="Trazado_41182" data-name="Trazado 41182" d="M328.74-702.969l12.731,34.185,5.118-2.3-12.035-34.022a1.552,1.552,0,0,0-2.1-.9l-3.012,1.352A1.336,1.336,0,0,0,328.74-702.969Z" transform="translate(-234.631 755.835)" fill="#66dbe3" opacity="0.39"/>
            <path id="Trazado_41183" data-name="Trazado 41183" d="M341.137-695.99l7.815,22.91,6.209-2.637-7.767-22.777a1.491,1.491,0,0,0-1.986-.894l-3.388,1.416A1.583,1.583,0,0,0,341.137-695.99Z" transform="translate(-233.153 756.627)" fill="#66dbe3" opacity="0.39"/>
            <path id="Trazado_41184" data-name="Trazado 41184" d="M349.085-673.63l1.21,2.419,6.141-2.419-1.4-2.8Z" transform="translate(-232.195 759.379)" fill="#8ca3a8" opacity="0.51"/>
            <path id="Trazado_41185" data-name="Trazado 41185" d="M292.334-636.5l81.682-32.277,2.35,7.489-60.985,25.37L295.3-627.558Z" transform="translate(-238.963 760.291)" fill="#f1f2f2"/>
            <path id="Trazado_41186" data-name="Trazado 41186" d="M304.423-620.169l1.938,5.461,15.05-5.461-2.4-5.881Z" transform="translate(-237.521 765.386)" fill="#bea0ff" opacity="0.15"/>
            <path id="Trazado_41187" data-name="Trazado 41187" d="M301.789-627.334l1.938,5.461,15.05-5.461-2.4-5.881Z" transform="translate(-237.835 764.532)" fill="#bea0ff" opacity="0.15"/>
            <path id="Trazado_41188" data-name="Trazado 41188" d="M334.577-611.856l44-18.1,1.725,5.7-43.89,18.009Z" transform="translate(-233.925 764.92)" fill="#e2e2e2"/>
            <path id="Trazado_41189" data-name="Trazado 41189" d="M336.785-604.429l44-18.1,1.725,5.7-43.89,18.009Z" transform="translate(-233.662 765.806)" fill="#e2e2e2"/>
            <path id="Trazado_41190" data-name="Trazado 41190" d="M312.859-597.387l1.938,5.461,15.05-5.461-2.4-5.882Z" transform="translate(-236.515 768.103)" fill="#bea0ff" opacity="0.15"/>
            <path id="Trazado_41191" data-name="Trazado 41191" d="M310.225-604.552l1.938,5.461,15.05-5.461-2.4-5.882Z" transform="translate(-236.829 767.248)" fill="#bea0ff" opacity="0.15"/>
            <path id="Trazado_41192" data-name="Trazado 41192" d="M343.015-587.832l44-18.1,1.725,5.7-43.89,18.009Z" transform="translate(-232.919 767.785)" fill="#e2e2e2"/>
            <path id="Trazado_41193" data-name="Trazado 41193" d="M345.223-580.4l44-18.1,1.725,5.7L347.056-574.8Z" transform="translate(-232.656 768.671)" fill="#e2e2e2"/>
            <path id="Trazado_41194" data-name="Trazado 41194" d="M321.3-573.363l1.938,5.461,15.05-5.461-2.4-5.881Z" transform="translate(-235.509 770.968)" fill="#bea0ff" opacity="0.15"/>
            <path id="Trazado_41195" data-name="Trazado 41195" d="M318.663-580.527l1.938,5.461,15.05-5.461-2.4-5.881Z" transform="translate(-235.823 770.113)" fill="#bea0ff" opacity="0.15"/>
            <line id="Línea_1" data-name="Línea 1" x2="33.908" y2="94.06" transform="translate(81.89 122.101)" fill="none" stroke="#f1f2f2" stroke-miterlimit="10" stroke-width="1"/>
            <line id="Línea_2" data-name="Línea 2" y1="31.992" x2="81.16" transform="translate(64.945 126.734)" fill="none" stroke="#f1f2f2" stroke-miterlimit="10" stroke-width="1"/>
            <line id="Línea_3" data-name="Línea 3" y1="32.811" x2="80.577" transform="translate(73.994 153.711)" fill="none" stroke="#f1f2f2" stroke-miterlimit="10" stroke-width="1"/>
          </g>
          <path id="Trazado_41196" data-name="Trazado 41196" d="M384.8-535.025l4.506.822a5.306,5.306,0,0,0,6.154-4.255l8.951-34.355a5.306,5.306,0,0,0-4.255-6.152l-9.712-1.771a5.305,5.305,0,0,0-6.153,4.257l-3.746,35.3A5.306,5.306,0,0,0,384.8-535.025Z" transform="translate(-113.119 832.266)" fill="#e6935d"/>
          <path id="Trazado_41197" data-name="Trazado 41197" d="M343.526-536.2s21.957-5.886,29.653,14.94C373.179-521.261,363.9-534.617,343.526-536.2Z" transform="translate(-117.523 837.496)" fill="#e6935d"/>
          <g id="Grupo_37305" data-name="Grupo 37305" transform="translate(0 137.125)">
            <g id="Grupo_37302" data-name="Grupo 37302" transform="translate(0 73.786)">
              <path id="Trazado_41198" data-name="Trazado 41198" d="M147.36-607.429s-.115,4.974,3.588,6.854,19.922,3.8,23.8,4.291,22.675,1.734,22.675,1.734,2.765-.079,3.474-1.618c.9-1.963,2.718-5.99,2.718-5.99Z" transform="translate(-140.916 618.182)" fill="#b50b30"/>
              <ellipse id="Elipse_800" data-name="Elipse 800" cx="7.732" cy="33.772" rx="7.732" ry="33.772" transform="translate(0 15.382) rotate(-84.121)" fill="#ed1832"/>
              <path id="Trazado_41199" data-name="Trazado 41199" d="M175.242-611.766s-25.558-2.486-28.318,1.35,29.548,13.46,49.793,8.8c0,0-26.748,1.415-42.71-5.327C139.8-612.949,175.242-611.766,175.242-611.766Z" transform="translate(-140.988 617.571)" fill="#b50b30"/>
              <path id="Trazado_41200" data-name="Trazado 41200" d="M174.954-611.545s18.677,2.01,22.261,4.549-1.664,4.628-1.664,4.628,5.094-3.08-1.327-5.04S174.954-611.545,174.954-611.545Z" transform="translate(-137.625 617.691)" fill="#b50b30"/>
            </g>
            <g id="Grupo_37304" data-name="Grupo 37304" transform="translate(17.903)">
              <path id="Trazado_41201" data-name="Trazado 41201" d="M168.258-628.893l-1.077,1.949a2.532,2.532,0,0,0,.133,2.674c1.865,2.685,6.97,8.49,17,9.967a1.281,1.281,0,0,0,1.278-.618l2.052-3.465a1.273,1.273,0,0,0-.492-1.77L169.976-629.4A1.274,1.274,0,0,0,168.258-628.893Z" transform="translate(-156.494 689.33)" fill="#b50b30"/>
              <path id="Trazado_41202" data-name="Trazado 41202" d="M176.861-656.587s-7.713,7.566,11.06,19.578c17.845,11.417,22.623,5.4,23.84,1.8s-5.136-12.987-17.6-19.678C182.03-661.409,176.861-656.587,176.861-656.587Z" transform="translate(-155.488 685.902)" fill="#b50b30"/>
              <path id="Trazado_41203" data-name="Trazado 41203" d="M176.891-654.177s1.829-1.744,7.358,1.856,26.648,9.438,24.808,17.316S170.907-646.612,176.891-654.177Z" transform="translate(-155.377 686.343)" fill="#603222"/>
              <path id="Trazado_41204" data-name="Trazado 41204" d="M185.059-638.913s2.4-5.023,11.2-8.471,7.63-11.664,9.423-14.5,6-2.888,7.208.807.29,8.941-1.015,10.584a35.014,35.014,0,0,0,8.881-9.75c3.526-5.984,7.075-4.514,8.9-3.415s12.566,13.777-27.5,32.853Z" transform="translate(-154.324 685.143)" fill="#603222"/>
              <g id="Grupo_37303" data-name="Grupo 37303" transform="translate(46.375 20.488)">
                <path id="Trazado_41205" data-name="Trazado 41205" d="M227.992-663.662a5.078,5.078,0,0,0-6.436.347,7.951,7.951,0,0,1,1.446.7c1.766,1.064,11.917,13.012-23.97,31.121l1.455.691C240.557-649.885,229.813-662.564,227.992-663.662Z" transform="translate(-199.032 664.656)" fill="#51281d"/>
              </g>
              <path id="Trazado_41206" data-name="Trazado 41206" d="M213.692-664.74s6.937-4.392,5.064-12.427-9.275-6.911-10.355-1.512S214.806-671.579,213.692-664.74Z" transform="translate(-151.553 682.961)" fill="#603222"/>
              <path id="Trazado_41207" data-name="Trazado 41207" d="M217.324-674.467a11.027,11.027,0,0,1-.332,6.406,11.042,11.042,0,0,0,1.749-9.105c-1.86-7.979-9.166-6.922-10.324-1.618C210.963-681.426,215.85-680.79,217.324-674.467Z" transform="translate(-151.538 682.961)" fill="#51281d"/>
              <path id="Trazado_41208" data-name="Trazado 41208" d="M219.4-666.994s4.14-8.064,9.868-7.617,4.3,6.016,1,6.842S223.595-669.661,219.4-666.994Z" transform="translate(-150.228 683.955)" fill="#603222"/>
              <path id="Trazado_41209" data-name="Trazado 41209" d="M230.143-670.544c-2.584.646-5.212-.869-8.241-.283a21.708,21.708,0,0,0-2.5,3.639c4.192-2.667,7.561.052,10.863-.775,2.2-.548,3.55-3.191,2.537-5.034A3.95,3.95,0,0,1,230.143-670.544Z" transform="translate(-150.228 684.149)" fill="#51281d"/>
              <path id="Trazado_41210" data-name="Trazado 41210" d="M212.862-635.4a73.891,73.891,0,0,1-10.548,17.11c-6.435,7.4-18.073,5.059-22.069,3.192s-15.86-9.3-13.983-21.734,11.7-19.942,11.7-19.942-3.022,5.646,14.456,15.3S212.862-635.4,212.862-635.4Z" transform="translate(-156.589 686.085)" fill="#ed1832"/>
              <path id="Trazado_41211" data-name="Trazado 41211" d="M176.692-647.794s-4.208-10.041-11.79-7-9.031,10.825-5.41,14.969,10.306,3.291,10.306,3.291l1.167-2.865s-7.867.88-8.537-4.946,4.991-7.247,7.721-5.056a7.029,7.029,0,0,1,2.718,5.095Z" transform="translate(-157.598 686.252)" fill="#ed1832"/>
              <path id="Trazado_41212" data-name="Trazado 41212" d="M181.029-651.385l1.426-1.843s8.81,5.121,16.454,3.429l4.09,2.225-6.439,2.459-6.334,1.42Z" transform="translate(-154.804 686.507)" fill="#603222"/>
              <path id="Trazado_41213" data-name="Trazado 41213" d="M191.509-648.033a16.894,16.894,0,0,0,1.618-1.4s5.7.382,8.615-4.376l-3.9,6.943Z" transform="translate(-153.554 686.438)" fill="#603222"/>
              <path id="Trazado_41214" data-name="Trazado 41214" d="M208.854-659.94c1.207,3.695.29,8.939-1.015,10.584,0,0,.86-.609,2.11-1.71a15.037,15.037,0,0,0,.7-10.091,3.849,3.849,0,0,0-6.74-1.415A3.763,3.763,0,0,1,208.854-659.94Z" transform="translate(-152.076 685.22)" fill="#51281d"/>
              <path id="Trazado_41215" data-name="Trazado 41215" d="M179.137-621.953s12.426,2.16,17.375-4.1a25.973,25.973,0,0,0,5.024-9.4l3.805,1.33S199.7-610.81,179.137-621.953Z" transform="translate(-155.03 688.627)" fill="#fff" opacity="0.6"/>
            </g>
          </g>
          <path id="Trazado_41216" data-name="Trazado 41216" d="M394.1-700.6s67.456-9.614,79.68,17.376-48.668,64.05-48.668,64.05,64.06-33.161,52.969-65.782S397.5-700.831,394.1-700.6Z" transform="translate(-111.492 817.446)" fill="#a176ff"/>
          <path id="Trazado_41217" data-name="Trazado 41217" d="M461.68-685.559s7.243,7.275,3.169,17.132-33.762,37.09-71.757,56.654c0,0,61.46-28.483,75.269-56.654C468.36-668.427,472.318-679.954,461.68-685.559Z" transform="translate(-111.612 819.776)" fill="#a176ff"/>
          <g id="Grupo_37306" data-name="Grupo 37306" transform="translate(319.473 147.485)">
            <path id="Trazado_41218" data-name="Trazado 41218" d="M444.1-670.393A87.317,87.317,0,0,0,471.492-673s-3.723,18.251-11.107,18.59S441.852-663.079,444.1-670.393Z" transform="translate(-425.038 673.789)" fill="#11647a"/>
            <path id="Trazado_41219" data-name="Trazado 41219" d="M445.371-670.3a2.267,2.267,0,0,0-.151.683s11.406-1.274,12.728,6.4a22.9,22.9,0,0,1-.055,8.631,10.535,10.535,0,0,0,2.322.173,4.68,4.68,0,0,0,1.354-.27c1.266-1.014,2.656-2.2,4.018-3.48,3.817-5.432,5.736-14.84,5.736-14.84A89.071,89.071,0,0,1,445.371-670.3Z" transform="translate(-424.869 673.789)" fill="#0e5768"/>
            <path id="Trazado_41220" data-name="Trazado 41220" d="M448.911-671.608s-1.472,13.129,11.318,12,11.431-13.582,11.431-13.582,6.225-.565,9.281,1.7c0,0,13.582,30.22,1.359,68.023,0,0-30.446,10.525-46.971-5.207a4.091,4.091,0,0,1-.905-4.753c1.358-2.716,9.394-14.714,9.62-37.633a91.967,91.967,0,0,0-13.808,5.489,22.848,22.848,0,0,1-.97-17.642Z" transform="translate(-426.932 673.759)" fill="#27aae1"/>
            <path id="Trazado_41221" data-name="Trazado 41221" d="M479.42-668.385a104.078,104.078,0,0,1-.039,64.331h0s-2.461-.849-12.818.509-14.166-5.414-14.166-5.414c15.629,3.246,20.7-14.79,21.274-23.278s-9.57-15.873-9.57-15.873,4.669-5.348,5.773-7.894l1.358.593s7.293-9.226,8.188-12.974" transform="translate(-424.013 674.339)" fill="#24a2ce"/>
            <path id="Trazado_41222" data-name="Trazado 41222" d="M477.308-668.559,472.219-673S485.1-670.96,486.8-660.66s-7.244,19.919-7.244,19.919l-11.544-8.828S477.874-661.292,477.308-668.559Z" transform="translate(-422.151 673.789)" fill="#27aae1"/>
            <path id="Trazado_41223" data-name="Trazado 41223" d="M468.373-654.341l13.52,10.413-2.32,2.886-13.129-10.526Z" transform="translate(-422.338 676.014)" fill="#1c89af"/>
            <path id="Trazado_41224" data-name="Trazado 41224" d="M434.683-614.962c16.525,15.732,46.971,5.207,46.971,5.207.17-5.942-8.716-4.075-14.827-3s-13.525-2.49-13.525-2.49c-16.222-8.238-19.524-4.47-19.524-4.47A4.091,4.091,0,0,0,434.683-614.962Z" transform="translate(-426.285 680.041)" fill="#0e5768"/>
            <path id="Trazado_41225" data-name="Trazado 41225" d="M430.062-665.25s-.711,11.588,3.024,18.124l-2.547,1.359s-4.839-7.273-3.141-19.015Z" transform="translate(-427.037 674.713)" fill="#1c89af"/>
            <path id="Trazado_41226" data-name="Trazado 41226" d="M445.184-671.5s-.872,14.9,12.223,13.751c12.564-1.1,13.328-10.781,13.328-15.958h-2.292s.935,12.755-10.017,13.327c-9.761.509-11.068-5.353-11.29-11.969Z" transform="translate(-424.875 673.705)" fill="#1c89af"/>
            <path id="Trazado_41227" data-name="Trazado 41227" d="M460.507-612.946a32.669,32.669,0,0,1-7.206-2.3c-16.222-8.238-19.524-4.47-19.524-4.47a4.091,4.091,0,0,0,.905,4.753,30.865,30.865,0,0,0,14.947,7.585C456.083-608.132,459.1-610.682,460.507-612.946Z" transform="translate(-426.285 680.041)" fill="#11647a"/>
          </g>
          <path id="Trazado_41228" data-name="Trazado 41228" d="M226.5-561.807s-15.7,25.329-10.228,40.846,82.454-10.993,128.839-40.846c0,0-97.979,62.816-128.839,48.8C216.273-513,199.836-517.135,226.5-561.807Z" transform="translate(-133.296 834.534)" fill="#a176ff"/>
          <path id="Trazado_41229" data-name="Trazado 41229" d="M238.058-558.761s-16.9,18.818-12.674,30.173,45.162-8.979,45.162-8.979-30.9,13.467-40.8,9.243S238.058-558.761,238.058-558.761Z" transform="translate(-131.693 834.897)" fill="#a176ff"/>
          <g id="Grupo_37307" data-name="Grupo 37307" transform="translate(303.395 250.933)">
            <path id="Trazado_41230" data-name="Trazado 41230" d="M425.447-552.545s11.825,1.6,16.287-9.643c5.246-13.214,3.812-21.279,12.485-18.566,8.328,2.6,15.394,28.794-5.615,44.106s-36.99,1.836-35.878-8.035C413.657-552.943,425.447-552.545,425.447-552.545Z" transform="translate(-412.672 581.279)" fill="#d8c6fe"/>
            <path id="Trazado_41231" data-name="Trazado 41231" d="M451.034-581.277c5.1,8.787,5.857,27.435-10.588,39.42-9.844,7.174-18.584,8.028-24.978,5.9,5.537,6.546,17.9,10.173,32.8-.687,21.009-15.312,13.944-41.5,5.615-44.106A10.023,10.023,0,0,0,451.034-581.277Z" transform="translate(-412.339 581.279)" fill="#cfb9ff"/>
          </g>
          <g id="Grupo_37312" data-name="Grupo 37312" transform="translate(77.917 287.388)">
            <g id="Grupo_37308" data-name="Grupo 37308" transform="translate(65.697 12.745)">
              <path id="Trazado_41232" data-name="Trazado 41232" d="M270.566-533.531s20.187,6.616,26.762,31.648-4.982,27.827-4.982,27.827l-3.662-1.875s10.1-8.848-2.8-37.294c0,0-5.681-10.409-11.81-13.413Z" transform="translate(-269.837 537.773)" fill="#c13633"/>
              <path id="Trazado_41233" data-name="Trazado 41233" d="M270.913-532.168s8.3-2.273,11.082,7.353-5.424,24.488-4.623,35.429c.855,11.682,8.7,17.251,15.052,15.781,0,0,2.383-.563,3.191-2.3,0,0-12.731-4.808-11.489-17.776s7.428-21.584,3.761-32.736-11.4-12.849-17.972-9.126Z" transform="translate(-269.915 537.321)" fill="#ef4136"/>
              <path id="Trazado_41234" data-name="Trazado 41234" d="M287.1-482.869l1.876-1.418s5.234,1.94,8.371-5.945c0,0-.106,8.676-6.329,10.821S285.319-483.051,287.1-482.869Z" transform="translate(-268.007 542.936)" fill="#ef4136"/>
            </g>
            <g id="Grupo_37311" data-name="Grupo 37311">
              <path id="Trazado_41235" data-name="Trazado 41235" d="M272.6-536.815l-11.067,16.694L275.2-490.387l9.05-15.371a3.078,3.078,0,0,0,.2-2.772Z" transform="translate(-205.218 550.126)" fill="#58595b"/>
              <path id="Trazado_41236" data-name="Trazado 41236" d="M221-518.872l-9.386,16.5,55.87-17.751,11.067-16.694-55.989,16.7A2.677,2.677,0,0,0,221-518.872Z" transform="translate(-211.171 550.126)" fill="#6d6e71"/>
              <path id="Trazado_41237" data-name="Trazado 41237" d="M211.472-501.5,223.2-476.3a2.7,2.7,0,0,0,3.237,1.446l53.4-16.227a2.7,2.7,0,0,0,1.688-3.676l-11.736-26.668a2.7,2.7,0,0,0-3.324-1.477l-53.4,17.7A2.7,2.7,0,0,0,211.472-501.5Z" transform="translate(-211.218 551.768)" fill="#414042"/>
              <g id="Grupo_37309" data-name="Grupo 37309" transform="translate(19.796 44.746)">
                <circle id="Elipse_801" data-name="Elipse 801" cx="11.934" cy="11.934" r="11.934" transform="translate(4.853)" fill="#231f20"/>
                <path id="Trazado_41238" data-name="Trazado 41238" d="M235.945-504.217l-7.04,8.911,18.847,14.579,7.36-9.282Z" transform="translate(-228.905 509.268)" fill="#231f20"/>
              </g>
              <path id="Trazado_41239" data-name="Trazado 41239" d="M242.884-526.681l3.5,7.152,14.2-4.821-2.7-9.169Z" transform="translate(-207.442 550.519)" fill="#232323"/>
              <path id="Trazado_41240" data-name="Trazado 41240" d="M265.975-533.654l-6.993,10.066-2.7-9.169,6.089-7.148Z" transform="translate(-205.844 549.758)" fill="#2c2c2d"/>
              <path id="Trazado_41241" data-name="Trazado 41241" d="M243.484-540.747l-6.531,8.2,23.91-8.2,3.985-7.961Z" transform="translate(-208.149 548.708)" fill="#6d6e71"/>
              <path id="Trazado_41242" data-name="Trazado 41242" d="M241.1-523.125l-4.149-10.27,23.91-8.2,3.321,9.418Z" transform="translate(-208.149 549.556)" fill="#414042"/>
              <path id="Trazado_41243" data-name="Trazado 41243" d="M262.3-548.708l4.538,9.409-5.2,7.97-3.321-9.418Z" transform="translate(-205.602 548.708)" fill="#58595b"/>
              <path id="Trazado_41244" data-name="Trazado 41244" d="M248.4-514.565l2,4.675a1.241,1.241,0,0,0,1.58.672l10.571-3.992a1.241,1.241,0,0,0,.7-1.65l-1.96-4.587a1.241,1.241,0,0,0-1.57-.677l-10.616,3.905A1.242,1.242,0,0,0,248.4-514.565Z" transform="translate(-206.796 552.107)" fill="#ef4136"/>
              <path id="Trazado_41245" data-name="Trazado 41245" d="M249.465-515.728l1.937,4.76,10.239-3.542-9.3.775Z" transform="translate(-206.657 552.641)" fill="#f76666"/>
              <path id="Trazado_41246" data-name="Trazado 41246" d="M238.747-532.7l2.947,7.459,20.631-7.459-2.532-7.733Z" transform="translate(-207.935 549.695)" fill="#f7941d"/>
              <path id="Trazado_41247" data-name="Trazado 41247" d="M239.229-532.562l19.966-7.344,2.283,6.762Z" transform="translate(-207.878 549.758)" fill="#fbb040"/>
              <path id="Trazado_41248" data-name="Trazado 41248" d="M239.711-532.549l18.181-.632-17.048,3.235Z" transform="translate(-207.82 550.559)" fill="#fbb040"/>
              <path id="Trazado_41249" data-name="Trazado 41249" d="M241.009-529.177l.664,1.7,16.064-5.313Z" transform="translate(-207.665 550.606)" fill="#fbb040"/>
              <path id="Trazado_41250" data-name="Trazado 41250" d="M221.168-518.363l-2.214,4.317,10.184-2.878,1.443-4.1Z" transform="translate(-210.296 552.01)" fill="#fbb040"/>
              <path id="Trazado_41251" data-name="Trazado 41251" d="M231.355-521.361,236-523l-1.156,4.428-4.78,1.218Z" transform="translate(-208.97 551.774)" fill="#f15a29"/>
              <path id="Trazado_41252" data-name="Trazado 41252" d="M257.278-508.159l1.605,3.6,7.084-2.712-1.937-3.708Z" transform="translate(-205.725 553.207)" fill="#38bbc7"/>
              <path id="Trazado_41253" data-name="Trazado 41253" d="M262.173-504.46l1.494,2.767,3.874-1.826-1.439-2.736Z" transform="translate(-205.142 553.77)" fill="#00a79d"/>
              <g id="Grupo_37310" data-name="Grupo 37310" transform="translate(16.87 54.601)">
                <circle id="Elipse_802" data-name="Elipse 802" cx="11.934" cy="11.934" r="11.934" fill="#232323"/>
                <circle id="Elipse_803" data-name="Elipse 803" cx="11.029" cy="11.029" r="11.029" transform="translate(0.904 0.915)" fill="#323232"/>
                <circle id="Elipse_804" data-name="Elipse 804" cx="9.866" cy="9.866" r="9.866" transform="translate(1.811 2.079)" fill="#1e120d"/>
                <path id="Trazado_41254" data-name="Trazado 41254" d="M237.586-498.067a9.85,9.85,0,0,0-8.092,4.231,9.81,9.81,0,0,1,5.637-1.774A9.866,9.866,0,0,1,245-485.744a9.817,9.817,0,0,1-1.774,5.635,9.853,9.853,0,0,0,4.231-8.092A9.866,9.866,0,0,0,237.586-498.067Z" transform="translate(-225.909 500.146)" fill="#231f20"/>
              </g>
            </g>
          </g>
          <g id="Grupo_37314" data-name="Grupo 37314" transform="translate(254.548 21.954)">
            <g id="Grupo_37313" data-name="Grupo 37313" transform="translate(0 39.189)">
              <path id="Trazado_41255" data-name="Trazado 41255" d="M389.08-743.695s-5.794-7.611-13.893-7.131-7.337,7.955-2.721,10.919c3.087,1.982,8.04,3.709,8.453,8.378s3.664,8.127,7,7.812S396.31-732.669,389.08-743.695Z" transform="translate(-369.03 750.847)" fill="#d8c6fe"/>
              <path id="Trazado_41256" data-name="Trazado 41256" d="M375.187-750.825c-4.79.284-6.479,3.015-6.106,5.813.847-1.461,2.612-2.553,5.544-2.726,8.1-.481,13.892,7.131,13.892,7.131,2.976,4.537,3.867,8.669,3.657,11.984,1.139-3.633.9-8.986-3.094-15.072C389.08-743.695,383.286-751.306,375.187-750.825Z" transform="translate(-369.03 750.848)" fill="#cfb9ff"/>
            </g>
            <path id="Trazado_41257" data-name="Trazado 41257" d="M397.88-740.3a44.794,44.794,0,0,1,20.854-40.667c23.8-15.365,38.134,9.486,34.592,19.282s-6.042,12.7-3.488,24.32-16.055,26.5-36.3,17.079C413.535-720.286,398.629-725.989,397.88-740.3Z" transform="translate(-365.603 785.861)" fill="#d8c6fe"/>
            <path id="Trazado_41258" data-name="Trazado 41258" d="M448.432-737.385c-2.554-11.62-.056-14.522,3.486-24.32,2.57-7.106-4.268-22.127-17.3-23.982,7.548,5.278,11.058,15.295,9.1,20.712-3.542,9.8-6.041,12.7-3.488,24.32,2.316,10.532-12.755,23.739-30.674,19.107a23.433,23.433,0,0,0,2.573,1.242C432.377-710.888,450.985-725.766,448.432-737.385Z" transform="translate(-364.197 785.882)" fill="#cfb9ff"/>
          </g>
          <g id="Grupo_37316" data-name="Grupo 37316" transform="translate(63.967 220.212)">
            <g id="Grupo_37315" data-name="Grupo 37315" transform="translate(25.479)">
              <path id="Trazado_41259" data-name="Trazado 41259" d="M249.594-580.229s5.462-13.263-1.294-23.38-15.851-3.472-16.192,4.748c-.228,5.5,1.288,13.215-4.441,17.285s-7.742,10.9-4.811,14.974S240.8-562.521,249.594-580.229Z" transform="translate(-221.519 608.727)" fill="#d8c6fe"/>
              <path id="Trazado_41260" data-name="Trazado 41260" d="M247.138-603.609c-4-5.986-8.812-6.1-12.148-3.5,2.532-.01,5.282,1.448,7.727,5.109,6.756,10.117,1.293,23.38,1.293,23.38-3.619,7.287-8.29,11.57-12.74,13.808,5.565-1.276,12.31-5.647,17.163-15.419C248.432-580.229,253.894-593.492,247.138-603.609Z" transform="translate(-220.356 608.727)" fill="#cfb9ff"/>
            </g>
            <path id="Trazado_41261" data-name="Trazado 41261" d="M217.1-583.567s-5.116-4.471-12.248,4.19-8.511,20.02-1.419,24.466,14.054-4.55,11.6-12.753S221.711-578.811,217.1-583.567Z" transform="translate(-198.755 611.589)" fill="#d8c6fe"/>
            <path id="Trazado_41262" data-name="Trazado 41262" d="M214.172-567.664c-2.45-8.2,6.676-11.148,2.063-15.9,0,0-2.771-2.414-7.075-.244a5.678,5.678,0,0,1,3.361,1.149c4.614,4.755-4.513,7.7-2.063,15.9,1.573,5.267-.736,10.854-4.467,13.007C211.682-553.389,216.221-560.8,214.172-567.664Z" transform="translate(-197.892 611.59)" fill="#cfb9ff"/>
          </g>
          <g id="Grupo_37317" data-name="Grupo 37317" transform="translate(63.183 49.488)">
            <path id="Trazado_41263" data-name="Trazado 41263" d="M201.927-736.722s10.017-26.261,33.777-24.449,30.04,19.22,20.636,26.158-19.928,7.293-24.587,28.145-4.9,22.5-16.778,22.244S191.927-707.069,201.927-736.722Z" transform="translate(-198.054 761.261)" fill="#d8c6fe"/>
            <path id="Trazado_41264" data-name="Trazado 41264" d="M210.44-729.978s10.017-26.261,33.777-24.449a38.114,38.114,0,0,1,13.538,3.37c-3.648-5.005-10.936-9.267-22.051-10.115-23.759-1.812-33.776,24.449-33.776,24.449-9.319,27.632-.253,48.769,10.636,51.734C206.507-693.851,203.789-710.258,210.44-729.978Z" transform="translate(-198.054 761.261)" fill="#cfb9ff"/>
          </g>
          <path id="Trazado_41265" data-name="Trazado 41265" d="M271.877-538.373s51.9-19.155,83.759-50.393C355.636-588.766,330.1-554.53,271.877-538.373Z" transform="translate(-126.067 831.319)" fill="#a176ff"/>
          <g id="Grupo_37318" data-name="Grupo 37318" transform="translate(242.999 227.772)">
            <path id="Trazado_41266" data-name="Trazado 41266" d="M377.439-582.961s3.651-8.842-.848-15.593-10.568-2.325-10.8,3.156c-.156,3.666.851,8.814-2.973,11.524s-5.17,7.263-3.218,9.984S371.563-571.159,377.439-582.961Z" transform="translate(-358.711 601.972)" fill="#d8c6fe"/>
            <path id="Trazado_41267" data-name="Trazado 41267" d="M375.816-598.555c-2.662-3.993-5.873-4.074-8.1-2.34,1.688-.006,3.521.969,5.15,3.413,4.5,6.75.847,15.592.847,15.592-2.418,4.858-5.536,7.711-8.505,9.2,3.713-.847,8.213-3.758,11.456-10.271C376.665-582.961,380.316-591.8,375.816-598.555Z" transform="translate(-357.936 601.972)" fill="#cfb9ff"/>
          </g>
        </g>
        <path id="Trazado_41268" data-name="Trazado 41268" d="M336.615-711.727l8.188-2.854.837,2.233-8.188,2.792Z" transform="translate(23.256 10.839)" fill="#e2e5ed"/>
      </g>
    </g>
  </g>
</svg>
