<svg xmlns="http://www.w3.org/2000/svg" xmlns:xlink="http://www.w3.org/1999/xlink" width="176" height="176" viewBox="0 0 176 176">
  <defs>
    <clipPath id="clip-path">
      <path id="Trazado_41074" data-name="Trazado 41074" d="M-115.128,21.429a45.513,45.513,0,0,0-2.812,7.024l1.9,1.438,2.568-5.746A4.54,4.54,0,0,1-115.128,21.429Z" fill="none"/>
    </clipPath>
    <clipPath id="clip-path-2">
      <path id="Trazado_41092" data-name="Trazado 41092" d="M-94.267,21.362a45.538,45.538,0,0,1,2.924,6.977l-1.873,1.469-2.66-5.7A4.542,4.542,0,0,0-94.267,21.362Z" fill="none"/>
    </clipPath>
    <clipPath id="clip-path-3">
      <path id="Trazado_41141" data-name="Trazado 41141" d="M-127.7,34.818s-25.28-15.9-41.212,3.262,1.032,39.714-4.7,53.214-23.267,11.795-19.375,37.37c5.279,34.695,93.425,37.111,139.375,19.67S-25.3,103.882-35.127,94.57c-10.287-9.746,7.872-25.413-12.145-41.649C-64.075,39.292-96.751,51.817-127.7,34.818Z" fill="none"/>
    </clipPath>
  </defs>
  <g id="Grupo_37016" data-name="Grupo 37016" transform="translate(2 3464)">
    <g id="Grupo_37017" data-name="Grupo 37017" transform="translate(193.461 -3464)">
      <path id="Trazado_41057" data-name="Trazado 41057" d="M-127.7,34.818s-25.28-15.9-41.212,3.262,1.032,39.714-4.7,53.214-23.267,11.795-19.375,37.37c5.279,34.695,93.425,37.111,139.375,19.67S-25.3,103.882-35.127,94.57c-10.287-9.746,7.872-25.413-12.145-41.649C-64.075,39.292-96.751,51.817-127.7,34.818Z" fill="#6d31ff"/>
      <g id="Grupo_37239" data-name="Grupo 37239">
        <path id="Trazado_41058" data-name="Trazado 41058" d="M-161.383,99.007a3.734,3.734,0,0,0,3.724,3.723h99.318a3.734,3.734,0,0,0,3.724-3.723v-68.1H-161.383Z" fill="#f8f5ff"/>
      </g>
      <rect id="Rectángulo_4533" data-name="Rectángulo 4533" width="43.124" height="26.192" transform="translate(-155.88 35.301)" fill="#fff"/>
      <circle id="Elipse_797" data-name="Elipse 797" cx="3.684" cy="3.684" r="3.684" transform="translate(-152.598 37.966)" fill="none" stroke="#c9b5f4" stroke-miterlimit="10" stroke-width="0.5"/>
      <rect id="Rectángulo_4534" data-name="Rectángulo 4534" width="26.526" height="1.391" rx="0.695" transform="translate(-142.861 39.282)" fill="#c9b5f4"/>
      <rect id="Rectángulo_4535" data-name="Rectángulo 4535" width="26.526" height="1.391" rx="0.695" transform="translate(-142.861 41.26)" fill="#c9b5f4"/>
      <g id="Grupo_37240" data-name="Grupo 37240">
        <rect id="Rectángulo_4536" data-name="Rectángulo 4536" width="43.368" height="26.192" rx="1.957" transform="translate(-103.282 35.301)" fill="none" stroke="#c9b5f4" stroke-miterlimit="10" stroke-width="0.5"/>
        <line id="Línea_8" data-name="Línea 8" y1="25.04" x2="42.17" transform="translate(-102.815 35.747)" fill="none" stroke="#c9b5f4" stroke-miterlimit="10" stroke-width="0.5"/>
        <line id="Línea_9" data-name="Línea 9" x2="42.482" y2="24.507" transform="translate(-102.971 36.014)" fill="none" stroke="#c9b5f4" stroke-miterlimit="10" stroke-width="0.5"/>
      </g>
      <g id="Grupo_37241" data-name="Grupo 37241">
        <rect id="Rectángulo_4537" data-name="Rectángulo 4537" width="43.368" height="26.192" rx="1.957" transform="translate(-156.002 70.54)" fill="none" stroke="#c9b5f4" stroke-miterlimit="10" stroke-width="0.5"/>
        <line id="Línea_10" data-name="Línea 10" y1="25.04" x2="42.17" transform="translate(-155.535 70.986)" fill="none" stroke="#c9b5f4" stroke-miterlimit="10" stroke-width="0.5"/>
        <line id="Línea_11" data-name="Línea 11" x2="42.482" y2="24.507" transform="translate(-155.691 71.253)" fill="none" stroke="#c9b5f4" stroke-miterlimit="10" stroke-width="0.5"/>
      </g>
      <g id="Grupo_37242" data-name="Grupo 37242">
        <rect id="Rectángulo_4538" data-name="Rectángulo 4538" width="43.368" height="26.192" rx="1.957" transform="translate(-103.282 70.54)" fill="none" stroke="#c9b5f4" stroke-miterlimit="10" stroke-width="0.5"/>
        <line id="Línea_12" data-name="Línea 12" y1="25.04" x2="42.17" transform="translate(-102.815 70.986)" fill="none" stroke="#c9b5f4" stroke-miterlimit="10" stroke-width="0.5"/>
        <line id="Línea_13" data-name="Línea 13" x2="42.482" y2="24.507" transform="translate(-102.971 71.253)" fill="none" stroke="#c9b5f4" stroke-miterlimit="10" stroke-width="0.5"/>
      </g>
      <path id="Trazado_41059" data-name="Trazado 41059" d="M-58.341,26.131h-99.318a3.735,3.735,0,0,0-3.724,3.724v1.052H-54.617V29.855A3.735,3.735,0,0,0-58.341,26.131Z" fill="#c9b5f4"/>
      <path id="Trazado_41060" data-name="Trazado 41060" d="M-78.374,15.16l-1.735-1.7a1.983,1.983,0,0,0-.489-.478h0a1.944,1.944,0,0,0-1.089-.334h-39.454a1.963,1.963,0,0,0-1.957,1.958V36.886a1.95,1.95,0,0,0,.574,1.381h0v0l1.9,1.9a1.956,1.956,0,0,0,1.479.679h39.454a1.955,1.955,0,0,0,1.475-.673,1.952,1.952,0,0,0,.483-1.284V16.609A1.956,1.956,0,0,0-78.374,15.16Z" fill="#545655" opacity="0.23"/>
      <g id="Grupo_37254" data-name="Grupo 37254">
        <path id="Trazado_41061" data-name="Trazado 41061" d="M-78.321,45.369a2.4,2.4,0,0,1-1.807.825h-48.341a2.392,2.392,0,0,1-1.812-.832l-2.333-2.324,13.193-10.158,37.371,8.854Z" fill="#1aa35b"/>
        <path id="Trazado_41062" data-name="Trazado 41062" d="M-78.321,45.369a2.389,2.389,0,0,0,.592-1.573V16.5a2.4,2.4,0,0,0-.79-1.775l-2.725-2.665L-90.853,36.7Z" fill="#1db76a"/>
        <rect id="Rectángulo_4539" data-name="Rectángulo 4539" width="53.138" height="32.092" rx="2.398" transform="translate(-133.318 11.651)" fill="#20ce7b"/>
        <g id="Grupo_37253" data-name="Grupo 37253">
          <path id="Trazado_41063" data-name="Trazado 41063" d="M-108.247,15.589l.335-1.336a6.181,6.181,0,0,1,6.315.05l1,2.532,1.642,21.186-1.827,3.879s-1.588.06-2.454.063-2.6-.079-2.6-.079l-2.3-.262Z" fill="#606060"/>
          <g id="Grupo_37247" data-name="Grupo 37247">
            <path id="Trazado_41064" data-name="Trazado 41064" d="M-114.736,26.165a19.093,19.093,0,0,1,3.924-5.451l-3.569-1.927a15.367,15.367,0,0,0-4.089,5.5" fill="#424242"/>
            <path id="Trazado_41065" data-name="Trazado 41065" d="M-108.35,16.413l.008-.489-1.976.64a19.7,19.7,0,0,0-5.261,2.557s.426,3.407,2.339,5.289a40.142,40.142,0,0,1,.7,7.986c-.174,3.493-.4,8.563-.4,8.563a19.256,19.256,0,0,0,6.224.932l.488-.583-.065-23Z" fill="#1e1e1e"/>
            <path id="Trazado_41066" data-name="Trazado 41066" d="M-107.226,18.374l-.235,23.66,1.238-.01-.071-23.718Z" fill="#303030"/>
            <path id="Trazado_41067" data-name="Trazado 41067" d="M-109.843,21.387l-1.254,2.837.291,17.133,1.36.276-.5-17.061,1.642-3.384Z" fill="#e3513b"/>
            <path id="Trazado_41068" data-name="Trazado 41068" d="M-114.214,23.286a11.725,11.725,0,0,1,7.821-2.493l0,.28a12.315,12.315,0,0,0-7.711,2.4Z" fill="#f7f5c9"/>
            <path id="Trazado_41069" data-name="Trazado 41069" d="M-115.186,21.03l6.617-3.889.142.288-6.7,3.813Z" fill="#f7f5c9"/>
            <path id="Trazado_41070" data-name="Trazado 41070" d="M-107.912,14.253s-.231,2.291,2.611,3.14l-.608,2.337s-3.322-1.146-3.262-2.916Z" fill="#0f0f0f"/>
            <path id="Trazado_41071" data-name="Trazado 41071" d="M-106.7,18.5l.8,1.232.076,22.154-.884.007Z" fill="#0f0f0f"/>
            <path id="Trazado_41072" data-name="Trazado 41072" d="M-115.576,19.535A23.612,23.612,0,0,0-120.4,30.562a24.962,24.962,0,0,0,.563,9.711l2.328-.256a30.085,30.085,0,0,1,4.034-15.872S-115.592,21.7-115.576,19.535Z" fill="#1e1e1e"/>
            <path id="Trazado_41073" data-name="Trazado 41073" d="M-115.128,21.429a45.513,45.513,0,0,0-2.812,7.024l1.9,1.438,2.568-5.746A4.54,4.54,0,0,1-115.128,21.429Z" fill="#424242"/>
            <g id="Grupo_37246" data-name="Grupo 37246">
              <g id="Grupo_37245" data-name="Grupo 37245" clip-path="url(#clip-path)">
                <g id="Grupo_37244" data-name="Grupo 37244">
                  <rect id="Rectángulo_4540" data-name="Rectángulo 4540" width="2.433" height="0.2" transform="translate(-116.212 22.291) rotate(-10.925)" fill="#353535"/>
                  <rect id="Rectángulo_4541" data-name="Rectángulo 4541" width="2.433" height="0.2" transform="translate(-116.207 22.932) rotate(-10.925)" fill="#353535"/>
                  <rect id="Rectángulo_4542" data-name="Rectángulo 4542" width="2.646" height="0.225" transform="matrix(0.98, -0.201, 0.201, 0.98, -116.408, 23.593)" fill="#353535"/>
                  <rect id="Rectángulo_4543" data-name="Rectángulo 4543" width="3.496" height="0.225" transform="translate(-116.78 24.39) rotate(-12.216)" fill="#353535"/>
                  <rect id="Rectángulo_4544" data-name="Rectángulo 4544" width="4.046" height="0.225" transform="matrix(0.976, -0.218, 0.218, 0.976, -117.207, 25.23)" fill="#353535"/>
                  <rect id="Rectángulo_4545" data-name="Rectángulo 4545" width="4.046" height="0.225" transform="matrix(0.976, -0.218, 0.218, 0.976, -117.401, 26.033)" fill="#353535"/>
                  <rect id="Rectángulo_4546" data-name="Rectángulo 4546" width="4.046" height="0.225" transform="matrix(0.976, -0.218, 0.218, 0.976, -117.695, 26.836)" fill="#353535"/>
                  <rect id="Rectángulo_4547" data-name="Rectángulo 4547" width="4.046" height="0.225" transform="matrix(0.976, -0.218, 0.218, 0.976, -117.988, 27.639)" fill="#353535"/>
                  <rect id="Rectángulo_4548" data-name="Rectángulo 4548" width="4.046" height="0.225" transform="matrix(0.976, -0.218, 0.218, 0.976, -118.082, 28.441)" fill="#353535"/>
                  <rect id="Rectángulo_4549" data-name="Rectángulo 4549" width="4.046" height="0.225" transform="matrix(0.976, -0.218, 0.218, 0.976, -118.076, 29.241)" fill="#353535"/>
                  <rect id="Rectángulo_4550" data-name="Rectángulo 4550" width="4.046" height="0.225" transform="matrix(0.976, -0.218, 0.218, 0.976, -118.069, 30.042)" fill="#353535"/>
                  <g id="Grupo_37243" data-name="Grupo 37243">
                    <rect id="Rectángulo_4551" data-name="Rectángulo 4551" width="0.2" height="4.846" transform="translate(-115.702 21.891) rotate(-27.225)" fill="#353535"/>
                    <rect id="Rectángulo_4552" data-name="Rectángulo 4552" width="0.2" height="4.846" transform="translate(-116.143 22.517) rotate(-27.216)" fill="#353535"/>
                    <rect id="Rectángulo_4553" data-name="Rectángulo 4553" width="0.2" height="4.846" transform="translate(-116.586 23.141) rotate(-27.215)" fill="#353535"/>
                    <rect id="Rectángulo_4554" data-name="Rectángulo 4554" width="0.2" height="4.846" transform="matrix(0.889, -0.457, 0.457, 0.889, -116.885, 24.102)" fill="#353535"/>
                    <rect id="Rectángulo_4555" data-name="Rectángulo 4555" width="0.2" height="4.846" transform="matrix(0.889, -0.457, 0.457, 0.889, -117.326, 24.729)" fill="#353535"/>
                    <rect id="Rectángulo_4556" data-name="Rectángulo 4556" width="0.2" height="4.846" transform="translate(-117.769 25.352) rotate(-27.215)" fill="#353535"/>
                    <rect id="Rectángulo_4557" data-name="Rectángulo 4557" width="0.2" height="4.846" transform="translate(-117.961 26.355) rotate(-27.215)" fill="#353535"/>
                    <rect id="Rectángulo_4558" data-name="Rectángulo 4558" width="0.2" height="4.846" transform="translate(-118.662 26.361) rotate(-27.215)" fill="#353535"/>
                  </g>
                </g>
              </g>
            </g>
            <path id="Trazado_41075" data-name="Trazado 41075" d="M-118.164,28.876l2.033,1.291a34.108,34.108,0,0,0-1.378,9.85l-1.691.186S-119.883,33.151-118.164,28.876Z" fill="#e25349"/>
            <path id="Trazado_41076" data-name="Trazado 41076" d="M-115.393,18.857s.286,3.8,2.295,5.274l-.241.468a8.5,8.5,0,0,1-2.542-5.41Z" fill="#0f0f0f"/>
            <path id="Trazado_41077" data-name="Trazado 41077" d="M-120.14,39.79l2.9-.336.006.8-2.57.5Z" fill="#424242"/>
            <path id="Trazado_41078" data-name="Trazado 41078" d="M-120,40.636l2.9-.622,0,.438-2.9.564Z" fill="#1e1e1e"/>
            <path id="Trazado_41079" data-name="Trazado 41079" d="M-118.167,22.973l1.074.857-.525,1.047-1.138-.634Z" fill="#424242"/>
            <path id="Trazado_41080" data-name="Trazado 41080" d="M-118.123,23.505l.7.416-.342.58-.7-.419Z" fill="#e3513b"/>
            <path id="Trazado_41081" data-name="Trazado 41081" d="M-109.635,21.6l-1.251,2.495.407,17.83h.641l-.419-17.7,1.421-2.627Z" fill="#c64040"/>
          </g>
          <g id="Grupo_37252" data-name="Grupo 37252">
            <path id="Trazado_41082" data-name="Trazado 41082" d="M-94.583,26.1a19.084,19.084,0,0,0-4.011-5.387l3.538-1.984a15.38,15.38,0,0,1,4.177,5.429" fill="#424242"/>
            <path id="Trazado_41083" data-name="Trazado 41083" d="M-101.125,16.455l.392-.464,1.579.583a19.683,19.683,0,0,1,5.3,2.473s-.372,3.413-2.254,5.325a40.228,40.228,0,0,0-.571,8c.231,3.49.538,8.555.538,8.555a19.263,19.263,0,0,1-6.209,1.032l-.5-.576-.3-23Z" fill="#1e1e1e"/>
            <path id="Trazado_41084" data-name="Trazado 41084" d="M-102.217,18.434l.614,23.654-1.238.01-.31-23.716Z" fill="#303030"/>
            <path id="Trazado_41085" data-name="Trazado 41085" d="M-99.552,21.4l1.3,2.817-.016,17.135-1.355.3.222-17.067-1.7-3.357Z" fill="#e3513b"/>
            <path id="Trazado_41086" data-name="Trazado 41086" d="M-95.15,23.233a11.728,11.728,0,0,0-7.861-2.367l0,.279a12.318,12.318,0,0,1,7.748,2.277Z" fill="#f7f5c9"/>
            <path id="Trazado_41087" data-name="Trazado 41087" d="M-94.215,20.962l-6.678-3.782-.137.291,6.759,3.705Z" fill="#f7f5c9"/>
            <path id="Trazado_41088" data-name="Trazado 41088" d="M-101.6,14.3s.268,2.287-2.561,3.181l.646,2.327s3.3-1.2,3.215-2.968Z" fill="#0f0f0f"/>
            <path id="Trazado_41089" data-name="Trazado 41089" d="M-102.737,18.567l-.775,1.244.279,22.152.884-.007Z" fill="#0f0f0f"/>
            <path id="Trazado_41090" data-name="Trazado 41090" d="M-93.849,19.461a23.612,23.612,0,0,1,5,10.948,24.968,24.968,0,0,1-.407,9.719l-2.332-.219A30.086,30.086,0,0,0-95.876,24.1S-93.8,21.624-93.849,19.461Z" fill="#1e1e1e"/>
            <path id="Trazado_41091" data-name="Trazado 41091" d="M-94.267,21.362a45.538,45.538,0,0,1,2.924,6.977l-1.873,1.469-2.66-5.7A4.542,4.542,0,0,0-94.267,21.362Z" fill="#424242"/>
            <g id="Grupo_37251" data-name="Grupo 37251">
              <g id="Grupo_37250" data-name="Grupo 37250" clip-path="url(#clip-path-2)">
                <g id="Grupo_37249" data-name="Grupo 37249">
                  <rect id="Rectángulo_4559" data-name="Rectángulo 4559" width="0.2" height="2.433" transform="translate(-95.6 21.981) rotate(-79.995)" fill="#353535"/>
                  <rect id="Rectángulo_4560" data-name="Rectángulo 4560" width="0.2" height="2.433" transform="translate(-95.595 22.622) rotate(-79.995)" fill="#353535"/>
                  <rect id="Rectángulo_4561" data-name="Rectángulo 4561" width="0.225" height="2.646" transform="translate(-95.594 23.234) rotate(-79.315)" fill="#353535"/>
                  <rect id="Rectángulo_4562" data-name="Rectángulo 4562" width="0.225" height="3.496" transform="translate(-96.04 23.831) rotate(-78.703)" fill="#353535"/>
                  <rect id="Rectángulo_4563" data-name="Rectángulo 4563" width="0.225" height="4.046" transform="translate(-96.135 24.532) rotate(-78.348)" fill="#353535"/>
                  <rect id="Rectángulo_4564" data-name="Rectángulo 4564" width="0.225" height="4.046" transform="translate(-95.928 25.331) rotate(-78.348)" fill="#353535"/>
                  <rect id="Rectángulo_4565" data-name="Rectángulo 4565" width="0.225" height="4.046" transform="translate(-95.622 26.129) rotate(-78.348)" fill="#353535"/>
                  <rect id="Rectángulo_4566" data-name="Rectángulo 4566" width="0.225" height="4.046" transform="translate(-95.315 26.928) rotate(-78.348)" fill="#353535"/>
                  <rect id="Rectángulo_4567" data-name="Rectángulo 4567" width="0.225" height="4.046" transform="translate(-95.208 27.728) rotate(-78.348)" fill="#353535"/>
                  <rect id="Rectángulo_4568" data-name="Rectángulo 4568" width="0.225" height="4.046" transform="translate(-95.202 28.528) rotate(-78.348)" fill="#353535"/>
                  <rect id="Rectángulo_4569" data-name="Rectángulo 4569" width="0.225" height="4.046" transform="translate(-95.195 29.329) rotate(-78.348)" fill="#353535"/>
                  <g id="Grupo_37248" data-name="Grupo 37248">
                    <rect id="Rectángulo_4570" data-name="Rectángulo 4570" width="4.846" height="0.2" transform="translate(-96.012 26.069) rotate(-63.694)" fill="#353535"/>
                    <rect id="Rectángulo_4571" data-name="Rectángulo 4571" width="4.846" height="0.2" transform="translate(-95.561 26.689) rotate(-63.703)" fill="#353535"/>
                    <rect id="Rectángulo_4572" data-name="Rectángulo 4572" width="4.846" height="0.2" transform="translate(-95.108 27.305) rotate(-63.704)" fill="#353535"/>
                    <rect id="Rectángulo_4573" data-name="Rectángulo 4573" width="4.846" height="0.2" transform="matrix(0.443, -0.897, 0.897, 0.443, -94.793, 28.262)" fill="#353535"/>
                    <rect id="Rectángulo_4574" data-name="Rectángulo 4574" width="4.846" height="0.2" transform="translate(-94.342 28.882) rotate(-63.703)" fill="#353535"/>
                    <rect id="Rectángulo_4575" data-name="Rectángulo 4575" width="4.846" height="0.2" transform="translate(-93.889 29.498) rotate(-63.704)" fill="#353535"/>
                    <rect id="Rectángulo_4576" data-name="Rectángulo 4576" width="4.846" height="0.2" transform="translate(-93.681 30.497) rotate(-63.704)" fill="#353535"/>
                    <rect id="Rectángulo_4577" data-name="Rectángulo 4577" width="4.846" height="0.2" transform="translate(-92.98 30.491) rotate(-63.704)" fill="#353535"/>
                  </g>
                </g>
              </g>
            </g>
            <path id="Trazado_41093" data-name="Trazado 41093" d="M-91.112,28.759l-2.012,1.324a34.089,34.089,0,0,1,1.536,9.826l1.694.159S-89.325,33.006-91.112,28.759Z" fill="#e25349"/>
            <path id="Trazado_41094" data-name="Trazado 41094" d="M-94.043,18.786s-.225,3.807-2.21,5.31l.248.464a8.5,8.5,0,0,0,2.455-5.45Z" fill="#0f0f0f"/>
            <path id="Trazado_41095" data-name="Trazado 41095" d="M-88.961,39.64l-2.909-.289.006.8,2.578.462Z" fill="#424242"/>
            <path id="Trazado_41096" data-name="Trazado 41096" d="M-89.091,40.488-92,39.912l0,.438,2.908.517Z" fill="#1e1e1e"/>
            <path id="Trazado_41097" data-name="Trazado 41097" d="M-91.2,22.857l-1.06.874.542,1.039,1.128-.653Z" fill="#424242"/>
            <path id="Trazado_41098" data-name="Trazado 41098" d="M-91.239,23.39l-.689.427.351.574.7-.43Z" fill="#e3513b"/>
            <path id="Trazado_41099" data-name="Trazado 41099" d="M-99.757,21.617l1.291,2.474-.12,17.835-.641.009.135-17.708-1.463-2.6Z" fill="#c64040"/>
          </g>
        </g>
      </g>
      <path id="Trazado_41100" data-name="Trazado 41100" d="M-117.34,135.214s3.479-3.812-1-7.4c0,0,4.164,2.989,5.821-1.389,0,0-.326,4.591,4.44,4.672,0,0-3.9,2.334-1.532,5.581,0,0-2.121-1.956-2.885-.03C-112.5,136.651-112.895,130.487-117.34,135.214Z" fill="#ff9815"/>
      <path id="Trazado_41101" data-name="Trazado 41101" d="M-45.11,19.7s3.479-3.812-1-7.4c0,0,4.164,2.989,5.822-1.388,0,0-.327,4.59,4.44,4.671,0,0-3.9,2.334-1.532,5.581,0,0-2.122-1.956-2.886-.03C-40.265,21.135-40.665,14.971-45.11,19.7Z" fill="#ff9815"/>
      <path id="Trazado_41102" data-name="Trazado 41102" d="M-186.387,24.474s3.479-3.812-1-7.4c0,0,4.164,2.989,5.821-1.388,0,0-.326,4.59,4.44,4.672,0,0-3.9,2.333-1.532,5.58,0,0-2.121-1.956-2.885-.03C-181.542,25.911-181.942,19.747-186.387,24.474Z" fill="#ff9815"/>
      <path id="Trazado_41103" data-name="Trazado 41103" d="M-97.6,11.651l-19.046,32.092h9.681l17.789-32.092Z" fill="#fffdf3" opacity="0.24"/>
      <path id="Trazado_41104" data-name="Trazado 41104" d="M-106.01,11.651l-19.251,32.092h3.948l19.264-32.092Z" fill="#fffdf3" opacity="0.24"/>
      <g id="Grupo_37265" data-name="Grupo 37265">
        <g id="Grupo_37264" data-name="Grupo 37264" clip-path="url(#clip-path-3)">
          <path id="Trazado_41105" data-name="Trazado 41105" d="M-123.394,92.76h-39.454a1.963,1.963,0,0,0-1.957,1.957v2.038l-1.1-.464a1.107,1.107,0,0,0-1.446.587l-2.088,6.2-.92.426a2.677,2.677,0,0,0-1.132,1.023,2.961,2.961,0,0,0-.481,2.241c-6.441,2.4-18.482,6.02-38.738,9.273-37.939,6.093-58.843-8.633-58.843-8.633l-3.718,9.277c37.726,20.969,89.253,3.813,104.322-2.009a2.192,2.192,0,0,0,2.824.812l1.319-.278v1.785a1.963,1.963,0,0,0,1.957,1.958h39.454a1.963,1.963,0,0,0,1.957-1.958V94.717A1.963,1.963,0,0,0-123.394,92.76Z" fill="#545655" opacity="0.23"/>
          <path id="Trazado_41106" data-name="Trazado 41106" d="M28.037,181.648s-59.41,22.075-83.032-46.183a2.715,2.715,0,0,0,1.339-1.882,2.481,2.481,0,0,0-.064-1.41l-.319-.881,2.044-4.072,9.706-1.69a2.017,2.017,0,0,0,1.635-2.326l-3.927-22.545a2.018,2.018,0,0,0-2.326-1.636l-39.928,6.956A2.015,2.015,0,0,0-88.47,108.3l3.927,22.545a2.016,2.016,0,0,0,2.326,1.636l13.338-2.324,4.53,7.029a2.068,2.068,0,0,0,2.688,1.245c4.886,20.8,24.251,72.883,94.326,59.423Z" fill="#545655" opacity="0.23"/>
          <g id="Grupo_37258" data-name="Grupo 37258">
            <path id="Trazado_41107" data-name="Trazado 41107" d="M26.338,176.175s-64.374,27.149-88.681-53.3l-4.679,5.849s12.472,83.912,98.685,63.446Z" fill="#f9b180"/>
            <g id="Grupo_37255" data-name="Grupo 37255">
              <path id="Trazado_41108" data-name="Trazado 41108" d="M-74.456,126.474c-.07-.11-1.122-1.6-1.171-1.725-.471-1.156.327-1.95,1.4-2.485l7.9-6.047a2.209,2.209,0,0,1,1.066-.47,2.281,2.281,0,0,1,2.31,1.246l5.475,13.293a2.483,2.483,0,0,1,.126,1.406,3.062,3.062,0,0,1-2.085,2.393l-4.387,2.2c-2.375,1.446-3.493.6-4.055-.524Z" fill="#f9b180"/>
            </g>
            <g id="Grupo_37257" data-name="Grupo 37257">
              <path id="Trazado_41109" data-name="Trazado 41109" d="M-41.029,122.968a1.955,1.955,0,0,1-1.3.965l-38.591,8.208a1.958,1.958,0,0,1-1.588-.357l-2.257-1.459,8.808-10.349,31.336.723Z" fill="#bc4893"/>
              <path id="Trazado_41110" data-name="Trazado 41110" d="M-41.029,122.968a1.948,1.948,0,0,0,.2-1.356l-4.634-21.79a1.952,1.952,0,0,0-.932-1.283l-2.628-1.665-3.486,21.3Z" fill="#db53a4"/>
              <rect id="Rectángulo_4578" data-name="Rectángulo 4578" width="43.368" height="26.192" rx="1.957" transform="translate(-90.657 105.389) rotate(-12.006)" fill="#f462b2"/>
              <g id="Grupo_37256" data-name="Grupo 37256">
                <path id="Trazado_41111" data-name="Trazado 41111" d="M-57.176,112.732l5.568-8.5-6.131,5.741Z" fill="#f2eec1"/>
                <path id="Trazado_41112" data-name="Trazado 41112" d="M-62.015,104.81l9.282-1.857L-60.29,106Z" fill="#f2eec1"/>
                <path id="Trazado_41113" data-name="Trazado 41113" d="M-61.351,106.624l2.712,3.888.9-.539,6.131-5.741-1.125-1.278L-60.29,106Z" fill="#fffbd5"/>
                <path id="Trazado_41114" data-name="Trazado 41114" d="M-75.392,120.544l17.653-10.572L-60.29,106-77.1,115.868Z" fill="#09c757"/>
                <path id="Trazado_41115" data-name="Trazado 41115" d="M-73.916,122.706l16.741-9.973-.563-2.76-17.653,10.572Z" fill="#05d65b"/>
                <path id="Trazado_41116" data-name="Trazado 41116" d="M-78.325,114.459l16.31-9.65L-60.29,106-77.1,115.868Z" fill="#05d65b"/>
                <path id="Trazado_41117" data-name="Trazado 41117" d="M-73.916,122.706l.212-3.217-2.483-4.353-2.137-.676-.051,3.6,2.156,3.718Z" fill="#fffbd5"/>
                <path id="Trazado_41118" data-name="Trazado 41118" d="M-52.8,106.059l-.193-.526-1.339-1.933-.462-.233,2.066-.413,1.125,1.278Z" fill="#09b34f"/>
                <ellipse id="Elipse_798" data-name="Elipse 798" cx="0.667" cy="2.054" rx="0.667" ry="2.054" transform="translate(-77.662 117.1) rotate(-28.14)" fill="#09c757"/>
              </g>
            </g>
            <path id="Trazado_41119" data-name="Trazado 41119" d="M-60.306,130.458l.831.3a1.023,1.023,0,0,0,1.307-.612l2.8-6.246a1.023,1.023,0,0,0-.612-1.307l-1.79-.648a1.024,1.024,0,0,0-1.307.612l-1.845,6.593A1.024,1.024,0,0,0-60.306,130.458Z" fill="#d89364"/>
            <path id="Trazado_41120" data-name="Trazado 41120" d="M-55.3,97.87l-9.4,28.777-7.084,1.507L-62.9,99.485Z" fill="#fffdf3" opacity="0.1"/>
            <path id="Trazado_41121" data-name="Trazado 41121" d="M-64.982,99.977l-8.58,28.605-3.069.653,9.209-28.739Z" fill="#fffdf3" opacity="0.1"/>
          </g>
          <g id="Grupo_37263" data-name="Grupo 37263">
            <path id="Trazado_41122" data-name="Trazado 41122" d="M-170.712,102.757l-.775-.559a1.106,1.106,0,0,1-.249-1.54l3.872-6.311a1.107,1.107,0,0,1,1.541-.249l1.669,1.2a1.108,1.108,0,0,1,.249,1.541l-4.767,5.665A1.106,1.106,0,0,1-170.712,102.757Z" fill="#b27246"/>
            <g id="Grupo_37259" data-name="Grupo 37259">
              <path id="Trazado_41123" data-name="Trazado 41123" d="M-121.587,112.6a1.949,1.949,0,0,1-1.441.742l-39.411,1.843a1.96,1.96,0,0,1-1.509-.609l-1.99-1.806,10.369-8.784,30.8,5.793Z" fill="#c1a933"/>
              <path id="Trazado_41124" data-name="Trazado 41124" d="M-121.587,112.6a1.945,1.945,0,0,0,.423-1.3l-1.041-22.253a1.949,1.949,0,0,0-.711-1.417l-2.323-2.069-6.894,20.457Z" fill="#dbc43a"/>
              <rect id="Rectángulo_4579" data-name="Rectángulo 4579" width="43.368" height="26.192" rx="1.957" transform="translate(-167.708 87.209) rotate(-2.677)" fill="#f2dd49"/>
            </g>
            <path id="Trazado_41125" data-name="Trazado 41125" d="M-128.173,99.875a.9.9,0,0,0-.08-.246,1.944,1.944,0,0,0-.159-.158,2.786,2.786,0,0,0-.982-.865c-.278-.338-1.3-1.055-4.722.007,0,0-.245-.112-.654-.29a10.9,10.9,0,0,0-1.141-.742c.013,0,.024-.008.036-.009s.161-.521-.843-.969a.652.652,0,0,0-.744.152c-.849-.421-1.525-.718-1.525-.718l-.748-.326.014,0s.128-.409-.885-.848a.662.662,0,0,0-.735.15L-143.661,94a2.469,2.469,0,0,0-.984-.538.648.648,0,0,0-.34-.04l-.976-.426c-2.286-1.274-2.829-.083-2.935.884l-8.335,1.465a8.7,8.7,0,0,0-1.6,6.823c-.617,1.3-.518,3.89,1.642,3.932s7.158-.32,12.54-.245,16.486-1.681,16.769-4.084A3.3,3.3,0,0,0-128.173,99.875Z" fill="#c1ae40" opacity="0.47"/>
            <g id="Grupo_37260" data-name="Grupo 37260">
              <path id="Trazado_41126" data-name="Trazado 41126" d="M-149.229,92.76l-9,1.582s-1.63,4.8,3.317,4.8S-149.229,92.76-149.229,92.76Z" fill="#63173d"/>
              <path id="Trazado_41127" data-name="Trazado 41127" d="M-132.169,97.407l1.752.188a2.93,2.93,0,0,1,1.532,3.173c-.283,2.4-11.386,4.159-16.769,4.084s-10.38.288-12.54.245-2.259-2.63-1.642-3.932S-132.169,97.407-132.169,97.407Z" fill="#d3d5d6"/>
              <path id="Trazado_41128" data-name="Trazado 41128" d="M-149.89,93.827s-.549-3.772,2.929-1.834l6.974,3.044s3.636,1.594,4.634,2.649l-4.858.238-7.214-2.282Z" fill="#c81c62"/>
              <path id="Trazado_41129" data-name="Trazado 41129" d="M-130.3,97.757s-.518-1.479-4.818-.144c0,0-8.324-3.815-14.6-4.551,0,0-.617-.129-1.833,2.049,0,0-2.059,3.51-5.57,1.821a3.1,3.1,0,0,1-1.115-2.59,8.7,8.7,0,0,0-1.6,6.823l5.242,1.921,10.259-.436,13.042-2.579Z" fill="#e72770"/>
              <path id="Trazado_41130" data-name="Trazado 41130" d="M-159.836,101.165a5.863,5.863,0,0,0,.467,3.3c.772,1.3,8.951-.455,9.787-.19s9.7.306,12.4-.35,7.563-1.881,8.3-3.16a14.215,14.215,0,0,0-.368-2.139c-.141-.176-1.164-1.034-1.164-1.034s-1.277,2.285-10.121,3.234c0,0-9.267.234-11.429.393C-154.631,101.419-157.9,102.107-159.836,101.165Z" fill="#e8e8e8"/>
              <path id="Trazado_41131" data-name="Trazado 41131" d="M-146.263,95.4a1.081,1.081,0,0,1-1.23.563.814.814,0,0,1-.531-1.022A.815.815,0,0,1-147,94.411C-146.572,94.547-146.127,94.973-146.263,95.4Z" fill="#c81c62"/>
              <path id="Trazado_41132" data-name="Trazado 41132" d="M-141.921,96.48a1.078,1.078,0,0,1-1.23.563.814.814,0,0,1-.531-1.021.815.815,0,0,1,1.023-.533C-142.23,95.625-141.786,96.05-141.921,96.48Z" fill="#c81c62"/>
              <path id="Trazado_41133" data-name="Trazado 41133" d="M-137.84,97.967a1.078,1.078,0,0,1-1.23.564.815.815,0,0,1-.531-1.022.814.814,0,0,1,1.022-.531C-138.15,97.114-137.705,97.538-137.84,97.967Z" fill="#c81c62"/>
              <path id="Trazado_41134" data-name="Trazado 41134" d="M-138.3,98.034s.442-1.39,1.428-1.462c0,0,.161-.521-.843-.969s-1.537,1.729-1.537,1.729a.885.885,0,0,0,.087.625C-138.941,98.259-138.426,98.386-138.3,98.034Z" fill="#e8e8e8"/>
              <path id="Trazado_41135" data-name="Trazado 41135" d="M-142.263,96.381s.536-1.578,1.542-1.674c0,0,.128-.409-.885-.848s-1.609,1.819-1.609,1.819a1.132,1.132,0,0,0,.02.776A.514.514,0,0,0-142.263,96.381Z" fill="#e8e8e8"/>
              <path id="Trazado_41136" data-name="Trazado 41136" d="M-146.368,94.992s.674-1.762,1.738-1.937c0,0,.019-.189-1.015-.6s-1.674,1.832-1.674,1.832a.955.955,0,0,0-.051.711A.556.556,0,0,0-146.368,94.992Z" fill="#e8e8e8"/>
              <path id="Trazado_41137" data-name="Trazado 41137" d="M-136.754,85.7-151.99,112.69l7.334-.368L-129.7,85.346Z" fill="#fffdf3" opacity="0.24"/>
              <path id="Trazado_41138" data-name="Trazado 41138" d="M-143.746,86.04l-16.218,27.035,3.316-.157,16.244-27.06Z" fill="#fffdf3" opacity="0.24"/>
            </g>
            <path id="Trazado_41139" data-name="Trazado 41139" d="M-271.58,110.029s21.616,13.66,59.2,5.673c33.791-7.181,44.269-14.228,44.269-14.228l1.58,8.8s-62.466,31.751-108.3,9.206Z" fill="#d3a179"/>
            <g id="Grupo_37262" data-name="Grupo 37262">
              <g id="Grupo_37261" data-name="Grupo 37261">
                <path id="Trazado_41140" data-name="Trazado 41140" d="M-155.985,109.773c.134-.042,2.044-.552,2.168-.618,1.193-.632,1.082-1.844.566-3.03L-155.6,95.631a2.4,2.4,0,0,0-.559-1.13,2.466,2.466,0,0,0-2.78-.569l-13.766,7.225a2.694,2.694,0,0,0-1.079,1.079,3.312,3.312,0,0,0,.068,3.433l2.115,4.865c.965,2.848,2.477,2.925,3.726,2.38Z" fill="#d3a179"/>
              </g>
            </g>
          </g>
        </g>
      </g>
      <rect id="Rectángulo_4580" data-name="Rectángulo 4580" width="176" height="176" transform="translate(-195.461)" fill="none"/>
    </g>
  </g>
</svg>
