<svg xmlns="http://www.w3.org/2000/svg" xmlns:xlink="http://www.w3.org/1999/xlink" width="414" height="542" viewBox="0 0 414 542">
  <defs>
    <clipPath id="clip-path">
      <rect id="Rectángulo_4556" data-name="Rectángulo 4556" width="414" height="542" transform="translate(0 194)" fill="none" stroke="#707070" stroke-width="1"/>
    </clipPath>
  </defs>
  <g id="Enmascarar_grupo_18" data-name="Enmascarar grupo 18" transform="translate(0 -194)" clip-path="url(#clip-path)">
    <g id="Grupo_37287" data-name="Grupo 37287" transform="translate(-99.33 -157.948)">
      <g id="Grupo_37275" data-name="Grupo 37275" transform="translate(50.559 1333.133) rotate(-120)">
        <g id="Grupo_37274" data-name="Grupo 37274" transform="translate(504.088 740.884) rotate(77)">
          <path id="Trazado_41015" data-name="Trazado 41015" d="M397.925,696.738s-10.941-4.594-19.348.935-2.963,13.09,3.833,13.42c4.546.221,10.938-.988,14.272,3.775s8.97,6.467,12.359,4.066S412.52,704.116,397.925,696.738Z" transform="translate(-374.299 -694.948)" fill="#d8c6fe"/>
          <path id="Trazado_41016" data-name="Trazado 41016" d="M378.577,697.674c-4.974,3.271-5.1,7.253-2.965,10.028.007-2.095,1.229-4.36,4.271-6.362,8.409-5.529,19.348-.933,19.348-.933,6.007,3.037,9.522,6.925,11.348,10.62-1.024-4.611-4.6-10.214-12.656-14.287C397.923,696.738,386.984,692.144,378.577,697.674Z" transform="translate(-374.299 -694.948)" fill="#cfb9ff"/>
        </g>
        <g id="Grupo_37300" data-name="Grupo 37300">
          <path id="Trazado_41017" data-name="Trazado 41017" d="M5.888,47.142A35.377,35.377,0,0,1,4.134,11.089c10.234-19.9,29.839-8.538,31.276-.435s.87,11.074,7.2,18.02-.544,24.463-18.116,26C24.492,54.672,12.042,56.643,5.888,47.142Z" transform="translate(345.611 645.44) rotate(-30)" fill="#d8c6fe"/>
          <path id="Trazado_41018" data-name="Trazado 41018" d="M28.49,28.672c-6.328-6.947-5.761-9.919-7.2-18.021C20.25,4.774,9.65-2.812,0,1.054c7.248.638,13.6,6.111,14.391,10.59,1.437,8.1.871,11.073,7.2,18.02,5.735,6.3.626,21.277-13.465,25.168a18.391,18.391,0,0,0,2.25-.163C27.945,53.134,34.818,35.618,28.49,28.672Z" transform="translate(358.889 637.422) rotate(-29)" fill="#cfb9ff"/>
        </g>
      </g>
      <g id="Grupo_37276" data-name="Grupo 37276" transform="matrix(0.875, -0.485, 0.485, 0.875, -248.122, 193.748)">
        <path id="Trazado_41019" data-name="Trazado 41019" d="M242.2,559.828s19.084-12.554,33.887-.067,10.671,26.948,1.174,27.053-16.605-4.662-29.586,6.87-13.927,12.508-21.633,6.692S221.513,574.626,242.2,559.828Z" transform="translate(-38.568 -8.802)" fill="#d8c6fe"/>
        <path id="Trazado_41020" data-name="Trazado 41020" d="M244.6,568.319s19.085-12.553,33.889-.066a30.962,30.962,0,0,1,7.325,8.657c-.027-5.034-2.806-11.307-9.732-17.149-14.8-12.487-33.887.067-33.887.067-19.277,13.788-23.345,32.034-17.575,39.163C224.842,590.27,230.847,578.16,244.6,568.319Z" transform="translate(-38.567 -8.802)" fill="#cfb9ff"/>
      </g>
      <g id="Grupo_37277" data-name="Grupo 37277" transform="translate(14 8)">
        <path id="Trazado_41021" data-name="Trazado 41021" d="M277.182,755.78s11.852-9.631,10.675-22.529-13.064-11.306-17.562-3.79c-3.007,5.027-5.512,13.017-12.941,13.912s-12.783,6.259-12.112,11.563S259.953,767.875,277.182,755.78Z" fill="#d8c6fe"/>
        <path id="Trazado_41022" data-name="Trazado 41022" d="M287.856,733.251c-.7-7.631-5.14-10.188-9.585-9.449,2.373,1.278,4.205,4.04,4.631,8.708,1.177,12.9-10.675,22.529-10.675,22.529-7.091,4.978-13.638,6.609-18.939,6.441,5.855,1.635,14.386.975,23.894-5.7C277.182,755.78,289.034,746.149,287.856,733.251Z" fill="#cfb9ff"/>
      </g>
      <path id="Trazado_41023" data-name="Trazado 41023" d="M271.1,845.374s-22.113-.129-22.123,5.964,54.244-2.319,59.987,1.117-6.578,6.588.326,8.517,46.7-.081,48.4-7.7S307.067,844.485,271.1,845.374Z" transform="translate(18 26)" fill="#bfa2ff" opacity="0.19"/>
    </g>
    <g id="Grupo_37288" data-name="Grupo 37288" transform="translate(93.695 -49.105) rotate(18)">
      <path id="Trazado_40854" data-name="Trazado 40854" d="M81.8,651s6.946-33.652,40.845-34.72,27.461,30.672,71.172,36.441,25.81,77.976-31.6,84.229S75.23,674.9,81.8,651Z" transform="translate(0 0)" fill="#d8c6fe"/>
      <path id="Trazado_41108" data-name="Trazado 41108" d="M192.007,652.725c-43.711-5.769-37.275-37.508-71.172-36.441-11.32.357-19.631,4.349-25.685,9.507a42.877,42.877,0,0,1,16.537-3.685c33.9-1.067,27.461,30.672,71.173,36.441,33.812,4.464,30.75,48.67,1.062,71.363C221.85,710.136,229.024,657.611,192.007,652.725Z" transform="translate(1.809 0)" fill="#cfb9ff"/>
    </g>
    <g id="Grupo_37299" data-name="Grupo 37299" transform="translate(-106.42 -144.891)">
      <path id="Trazado_41109" data-name="Trazado 41109" d="M317.674,607.6s-33.921,33.282-40.313,94.982c0,0-.7,7.1,2.783,9.465s13.241,1.586,19.767-10.937,33.848-72.357,33.848-72.357S351.377,610.373,317.674,607.6Z" fill="#1b1b23"/>
      <path id="Trazado_41110" data-name="Trazado 41110" d="M363.849,610.13l5.662,3.392a14,14,0,0,1-15.317,6.938c-13.617-2.634-19.558-15.2-19.558-15.2Z" fill="#263375"/>
      <path id="Trazado_41111" data-name="Trazado 41111" d="M360.788,605.262s15.371,21.556,8.723,42.453c-8.477,26.646-74.357,7.195-89.315.237s-14.616-26.13,12.41-28.6C320.9,616.765,360.788,605.262,360.788,605.262Z" fill="#202035"/>
      <g id="Grupo_37290" data-name="Grupo 37290">
        <path id="Trazado_41112" data-name="Trazado 41112" d="M222.135,348.894a5.19,5.19,0,0,0-1.862,2.5l-16.562,47.38a5.217,5.217,0,0,0,.231,3.992l5.406,14.783,25.914-58.091-13.127-10.562" fill="#1aa35b"/>
        <path id="Trazado_41113" data-name="Trazado 41113" d="M222.135,348.894a5.232,5.232,0,0,1,4.8-.712l52.845,18.472a5.213,5.213,0,0,1,2.956,2.622l5.689,15.522-59.736-18.842Z" fill="#1db76a"/>
        <rect id="Rectángulo_4552" data-name="Rectángulo 4552" width="66.435" height="60.646" rx="5.227" transform="matrix(0.944, 0.33, -0.33, 0.944, 227.382, 361.201)" fill="#20ce7b"/>
        <path id="Trazado_41114" data-name="Trazado 41114" d="M269.581,406.857l.555-1.668a4.837,4.837,0,0,0-3.052-6.1l-9.962-3.315,3.316-9.962a4.836,4.836,0,0,0-3.052-6.1l-1.668-.555a4.837,4.837,0,0,0-6.1,3.052l-3.315,9.961-9.962-3.315a4.836,4.836,0,0,0-6.1,3.052l-.555,1.668a4.836,4.836,0,0,0,3.052,6.1l9.961,3.315-3.315,9.962a4.836,4.836,0,0,0,3.052,6.1l1.668.555a4.835,4.835,0,0,0,6.1-3.052l3.316-9.961,9.962,3.315A4.835,4.835,0,0,0,269.581,406.857Z" fill="#1aa35b"/>
        <g id="Grupo_37289" data-name="Grupo 37289">
          <rect id="Rectángulo_4553" data-name="Rectángulo 4553" width="11.401" height="42.041" rx="4.821" transform="matrix(0.949, 0.316, -0.316, 0.949, 251.716, 378.775)" fill="#fff"/>
          <rect id="Rectángulo_4554" data-name="Rectángulo 4554" width="11.401" height="42.041" rx="4.821" transform="matrix(-0.316, 0.949, -0.949, -0.316, 272.232, 401.749)" fill="#fff"/>
        </g>
      </g>
      <g id="Grupo_37291" data-name="Grupo 37291">
        <path id="Trazado_41116" data-name="Trazado 41116" d="M382.26,610.643l-6.117,6.774,5.576,3.9,6.357-6.294Z" fill="#f7af80"/>
      </g>
      <path id="Trazado_41117" data-name="Trazado 41117" d="M261.3,441.672l-3.217-11.745,7.655-1.108,3.737,11.156Z" fill="#f7af80"/>
      <g id="Grupo_37292" data-name="Grupo 37292">
        <path id="Trazado_41118" data-name="Trazado 41118" d="M271.667,426.578c.082-.1,1.118-2.675,1.18-2.791.6-1.118-.116-1.676-1.152-2.575l.89.593a84.51,84.51,0,0,0-7.326-5.761c-1.119-.719-2.245.793-2.783,1.644l-7.27,10.892a2.476,2.476,0,0,0-.272,1.391,2.943,2.943,0,0,0,1.856,2.534l4.2,2.5c2.246,1.612,3.559.852,4.827-.731Z" fill="#f7af80"/>
      </g>
      <g id="Grupo_37293" data-name="Grupo 37293">
        <path id="Trazado_41119" data-name="Trazado 41119" d="M355.821,741.517a1.5,1.5,0,0,1,1.776-.439l1.012.993s.594,11.391,1.213,14.836,5.287,20.054-2.569,24.108a13.041,13.041,0,0,1-3.917,1.082Z" fill="#603913"/>
        <path id="Trazado_41120" data-name="Trazado 41120" d="M338.314,741.914s5.261,9.775,6.048,15.039c.571,3.816.96,20.816,4.649,24.149,3.062,2.766,13.631,1.166,10.645-15.794s-1.879-23.026-1.879-23.026-1.808-5.07-8.484-8.574l-2.332-3.553-8.5,5.895Z" fill="#351c07"/>
        <path id="Trazado_41121" data-name="Trazado 41121" d="M330.443,725.181l10.84,17.167s3.815.593,7.233-3.952l-7.72-18.668Z" fill="#dd966f"/>
        <path id="Trazado_41122" data-name="Trazado 41122" d="M347.127,740.227s4.89,8.552,5.023,14.082,1.233,17.712,1.233,17.712l-6.087,1.74s-1.741-16.125-2.272-18.283-5.133-13.8-5.133-13.8a3.1,3.1,0,0,1,2.149-3.027C344.356,737.786,345.91,737.918,347.127,740.227Z" fill="#603913"/>
        <path id="Trazado_41123" data-name="Trazado 41123" d="M346.961,730.155A8.225,8.225,0,0,1,346,736.6l3.086,4.637s1.965-2.6.207-7.532Z" fill="#351c07"/>
        <path id="Trazado_41124" data-name="Trazado 41124" d="M345.987,772.5c.641,3.889,1.578,7.3,3.024,8.6,2.506,2.264,10.038,1.6,11.053-8.019C358.487,771.656,353.382,768.036,345.987,772.5Z" fill="#211104"/>
        <path id="Trazado_41125" data-name="Trazado 41125" d="M348.209,732.056s.984,4.128-1.452,5.686L346,736.6a8.33,8.33,0,0,0,.961-6.448Z" fill="#211104"/>
        <path id="Trazado_41126" data-name="Trazado 41126" d="M351.3,734.9s-.414,9.924,6.506,16.483l-.032-9.1A12.921,12.921,0,0,0,351.3,734.9Z" fill="#211104"/>
        <path id="Trazado_41127" data-name="Trazado 41127" d="M344.726,754.931l-.462-.411c.083-.1,2.121-2.316,8.035-2.624l.032.618C346.7,752.809,344.746,754.91,344.726,754.931Z" fill="#211104"/>
        <path id="Trazado_41128" data-name="Trazado 41128" d="M343.616,752.295l-.408-.466a13.234,13.234,0,0,1,8.71-2.632l-.014.618A12.871,12.871,0,0,0,343.616,752.295Z" fill="#211104"/>
        <path id="Trazado_41129" data-name="Trazado 41129" d="M342.767,749.836l-.407-.466c.164-.143,4.057-3.479,8.851-2.6l-.11.609C346.6,746.556,342.8,749.8,342.767,749.836Z" fill="#211104"/>
        <path id="Trazado_41130" data-name="Trazado 41130" d="M344.969,756.906l-.37-.5c.176-.131,4.348-3.2,8.224-1.8l-.21.582C349.054,753.905,345.01,756.876,344.969,756.906Z" fill="#211104"/>
        <path id="Trazado_41131" data-name="Trazado 41131" d="M345.245,758.794l-.358-.505c.165-.117,4.091-2.847,8.307-1.236l-.222.579C349.07,756.139,345.282,758.767,345.245,758.794Z" fill="#211104"/>
        <path id="Trazado_41132" data-name="Trazado 41132" d="M352.933,759.979a7.952,7.952,0,0,0-7.33,1.093l-.389-.481a8.431,8.431,0,0,1,7.938-1.191Z" fill="#211104"/>
        <path id="Trazado_41133" data-name="Trazado 41133" d="M352.991,762.1a7.11,7.11,0,0,0-7.061,1.04l-.419-.455a7.625,7.625,0,0,1,7.7-1.166Z" fill="#211104"/>
        <path id="Trazado_41134" data-name="Trazado 41134" d="M345.882,765.906l-.429-.447c.12-.115,2.995-2.813,8.058-1.657l-.139.6A8.41,8.41,0,0,0,345.882,765.906Z" fill="#211104"/>
        <path id="Trazado_41135" data-name="Trazado 41135" d="M346.146,768.03l-.333-.522c.165-.106,4.109-2.579,8.1-1.2l-.2.585C350.009,765.612,346.184,768.006,346.146,768.03Z" fill="#211104"/>
        <path id="Trazado_41136" data-name="Trazado 41136" d="M354.135,769.191a9.816,9.816,0,0,0-7.749.958l-.335-.52a10.273,10.273,0,0,1,8.285-1.023Z" fill="#211104"/>
      </g>
      <g id="Grupo_37294" data-name="Grupo 37294">
        <path id="Trazado_41137" data-name="Trazado 41137" d="M350.314,802.072a1.58,1.58,0,0,1,1.924-.073l.831,1.24s-1.824,11.868-1.923,15.551,1.161,21.8-7.8,24.3a13.726,13.726,0,0,1-4.269.278Z" fill="#603913"/>
        <path id="Trazado_41138" data-name="Trazado 41138" d="M332.184,798.738s3.333,11.2,3.018,16.793c-.228,4.056-3.462,21.661-.373,25.885,2.564,3.506,13.8,4.116,14.349-14s2.988-24.134,2.988-24.134-.547-7.787-7.674-9.874l-3.344-4.175-7.555,3.5Z" fill="#351c07"/>
        <path id="Trazado_41139" data-name="Trazado 41139" d="M324.04,783.507l11.283,18.151s4.011.652,7.643-4.106l-7.988-19.708Z" fill="#dd966f"/>
        <path id="Trazado_41140" data-name="Trazado 41140" d="M341.628,798.883s3.212,9.861,2.166,15.588-2.516,18.52-2.516,18.52l-6.647.492s1.654-16.993,1.569-19.33S334.232,801,334.232,801s-1.292-3.515.876-4.955C337.669,794.345,340.868,796.242,341.628,798.883Z" fill="#603913"/>
        <path id="Trazado_41141" data-name="Trazado 41141" d="M333.552,831.9c-.171,4.146.066,7.86,1.277,9.516,2.1,2.87,10.005,3.792,13.107-5.9C346.616,833.706,342.129,828.884,333.552,831.9Z" fill="#211104"/>
        <path id="Trazado_41142" data-name="Trazado 41142" d="M346.723,794.345s-2.2,10.081,3.529,18.321l1.914-9.387S351.874,797.173,346.723,794.345Z" fill="#211104"/>
        <path id="Trazado_41143" data-name="Trazado 41143" d="M336.01,813.525l-.389-.523c.106-.079,2.681-1.933,8.843-.986l-.1.644C338.5,811.761,336.034,813.507,336.01,813.525Z" fill="#211104"/>
        <path id="Trazado_41144" data-name="Trazado 41144" d="M335.429,810.57l-.321-.567a13.935,13.935,0,0,1,9.541-.85l-.147.634A13.551,13.551,0,0,0,335.429,810.57Z" fill="#211104"/>
        <path id="Trazado_41145" data-name="Trazado 41145" d="M335.079,807.855l-.319-.568c.2-.112,4.925-2.718,9.68-.791l-.244.6C339.732,805.293,335.126,807.829,335.079,807.855Z" fill="#211104"/>
        <path id="Trazado_41146" data-name="Trazado 41146" d="M335.838,815.613l-.276-.59c.209-.1,5.167-2.372,8.862-.1l-.341.555C340.69,813.393,335.886,815.59,335.838,815.613Z" fill="#211104"/>
        <path id="Trazado_41147" data-name="Trazado 41147" d="M335.718,817.617l-.261-.6c.2-.085,4.826-2.059,8.826.5l-.352.549C340.229,815.7,335.762,817.6,335.718,817.617Z" fill="#211104"/>
        <path id="Trazado_41148" data-name="Trazado 41148" d="M343.389,820.483a8.374,8.374,0,0,0-7.789-.441l-.3-.58a8.885,8.885,0,0,1,8.437.471Z" fill="#211104"/>
        <path id="Trazado_41149" data-name="Trazado 41149" d="M342.995,822.686a7.488,7.488,0,0,0-7.5-.437l-.334-.559a8.025,8.025,0,0,1,8.181.444Z" fill="#211104"/>
        <path id="Trazado_41150" data-name="Trazado 41150" d="M334.854,825.084l-.347-.552c.148-.093,3.689-2.259,8.659.015l-.271.593A8.852,8.852,0,0,0,334.854,825.084Z" fill="#211104"/>
        <path id="Trazado_41151" data-name="Trazado 41151" d="M334.671,827.33l-.231-.609c.193-.074,4.787-1.78,8.608.492l-.333.56C339.17,825.664,334.716,827.313,334.671,827.33Z" fill="#211104"/>
        <path id="Trazado_41152" data-name="Trazado 41152" d="M342.658,830.235a10.333,10.333,0,0,0-8.193-.67l-.233-.608a10.819,10.819,0,0,1,8.758.718Z" fill="#211104"/>
        <path id="Trazado_41153" data-name="Trazado 41153" d="M341.148,789.23a11.654,11.654,0,0,1-1.129,5.115L344,800.159l.488-6.754Z" fill="#351c07"/>
      </g>
      <path id="Trazado_41154" data-name="Trazado 41154" d="M360.047,609.451l6.883,13.341-22.315,3.161-1.1-15.894Z" fill="#202035"/>
      <path id="Trazado_41155" data-name="Trazado 41155" d="M333.541,440.881s-7.112-1.37-9.472,3.684-5.786,9.076-9.84,9.714a9.293,9.293,0,0,0,6.628-.926s-4.133,2.472.209,7.9l14.045-9.786Z" fill="#2d2928"/>
      <path id="Trazado_41156" data-name="Trazado 41156" d="M333.6,437.966a14.791,14.791,0,0,1,11.7-2.589c12.329,2.144,20.873,14.857,27.035,19.248s5.355,8.765,5.355,8.765l1.514-2.942-.695,4.122,1.32-.683-1.9,3.232,1.446,4.837-2.207-3.3-.23,2.116-.843,2.287s-2.787,4.322-1.338,8.564c0,0-3.283-.227-3.384-2.448,0,0,.176,8.457-5.085,11.722,0,0-4.608,2.936-4.31,5.593,0,0-1.591-3.3-.913-5.289,0,0-.967,5.341-2.919,6.075s-5.179,5.006-5.011,6.611a5.058,5.058,0,0,1-.544-3.77s-.782,2.89-2.964,3.238l.19-3.394-7.754,6.817-19.819-29.634Z" fill="#191818"/>
      <g id="Grupo_37296" data-name="Grupo 37296">
        <g id="Grupo_37295" data-name="Grupo 37295">
          <path id="Trazado_41157" data-name="Trazado 41157" d="M315.126,470.41a15.713,15.713,0,0,0,2.325-2.353c.94-1.241,1.744-1.51,2.91-.636s-1.1,11.817-8.607,10.69-5.39-6.282-3.931-6.94C310.965,469.755,311.676,473.136,315.126,470.41Z" fill="#ba6e50"/>
          <path id="Trazado_41158" data-name="Trazado 41158" d="M311.646,477.479c6.462.971,9.037-7,8.886-9.8.7,1.881-1.722,11.486-8.778,10.427-3.952-.594-5.185-2.219-5.281-3.766C306.848,475.683,308.231,476.967,311.646,477.479Z" fill="#af624e"/>
        </g>
        <path id="Trazado_41159" data-name="Trazado 41159" d="M315.437,473.688l-8.885-.757s.693-2.99,4.594-2.333,6.19-2.619,6.748-3.061,2.115-.346,2.195.579S315.437,473.688,315.437,473.688Z" fill="#ba6e50"/>
      </g>
      <path id="Trazado_41160" data-name="Trazado 41160" d="M366.93,547.191s-1.191,3.889-4.239,14.853,6.82,51.478,6.82,51.478c-4.275,3.785-38.186-.274-46.042-1.237-8.014-.983-11.893.126-11.893.126-8.585-40.472-3.9-78.783-3.9-78.783-35.549-15.445-49-90.386-49-90.386,3.927-6.471,13.094-6.385,13.094-6.385,16.5,64.059,38.818,72.719,44.87,73.752s16.684-.177,16.684-.177c21.473,1.242,32.926,5.585,41.432,13.9,0,0,26.959,23.079,32.279,45.859S388.075,617.7,388.075,617.7l-8.424-6.552s16.686-21.6,14.078-34.64C391.235,564.04,366.93,547.191,366.93,547.191Z" fill="#2b3990"/>
      <path id="Trazado_41161" data-name="Trazado 41161" d="M327.325,510.691s-3.292,11.939,4.217,18.332l-.062-2.121s-3.909-4.174-1.515-16.5Z" fill="#25337a"/>
      <path id="Trazado_41162" data-name="Trazado 41162" d="M343.216,494.267s-1.172,11.522.191,17.981c0,0-4.189,11.839-11.927,14.654,0,0-4.379-5.275-1.846-14.652l-4.053-12.608Z" fill="#dd966f"/>
      <path id="Trazado_41163" data-name="Trazado 41163" d="M335.614,445.678S323.437,452.2,318.8,465.627s-6.032,30.611-2.655,34.629c0,0,1.168,2.287,5.611,2.691s13.776.967,20.126-4.389A34.4,34.4,0,0,0,350.7,487.7s5.085,1.8,6.735-1.95.109-7.1-3.5-6.968c0,0,2.855-4.693,2.091-9.057S349.871,445.755,335.614,445.678Z" fill="#dd966f"/>
      <circle id="Elipse_734" data-name="Elipse 734" cx="2.718" cy="2.718" r="2.718" transform="translate(350.382 480.458)" fill="#ce8865"/>
      <path id="Trazado_41164" data-name="Trazado 41164" d="M326.993,460.76s3.636.515,5.237,2.292,1.164,3.8,2.66,3.512,1.01-6.106-3.326-7.746a12.577,12.577,0,0,0-3.869-.551C326.175,458.429,325.971,460.556,326.993,460.76Z" fill="#191818"/>
      <path id="Trazado_41165" data-name="Trazado 41165" d="M325.975,450.765a94.723,94.723,0,0,0,21.078,14.256s4.461,1.965,4.279,5.6-3.938,10.776-3.938,10.776l2.449,3.355,6.585-7.659s10.483-.085,8.262-11.908-13.144-23.621-24.7-25.672C328.148,437.411,325.975,450.765,325.975,450.765Z" fill="#191818"/>
      <g id="Grupo_37297" data-name="Grupo 37297">
        <path id="Trazado_41166" data-name="Trazado 41166" d="M324.286,466.389A3.4,3.4,0,1,0,328.3,464,3.307,3.307,0,0,0,324.286,466.389Z" fill="#231f20"/>
        <path id="Trazado_41167" data-name="Trazado 41167" d="M326.763,466.212a.887.887,0,0,0-.249,1.17c.318.562-.53,1.1-.849.539a1.876,1.876,0,0,1,.362-2.394.52.52,0,0,1,.71-.026.5.5,0,0,1,.026.711Z" fill="#fff"/>
      </g>
      <path id="Trazado_41168" data-name="Trazado 41168" d="M345.613,510.966a28.918,28.918,0,0,1-14.071,18.057l-.062-2.121s10.24-8.343,11.7-15.91Z" fill="#25337a"/>
      <path id="Trazado_41169" data-name="Trazado 41169" d="M315.856,482.906l1.729-1.864,1.655.956.943,0,.634.954.636-.519a7.187,7.187,0,0,0,2.6.063c.694-.288,2.829,3.46,3.47,4.865,0,0,.614,2.99-.313,4.317l-.565-1.485-.475,2.513-1-4.5-.546-1.832-.867-.12-.4-.636-1.906.343-1.307-.753-2.158,0-.865-.984v.982l-.7-1.039Z" fill="#66534e"/>
      <path id="Trazado_41170" data-name="Trazado 41170" d="M315.341,481.712l-.237-.808s-.639,1.659-1.08,1.815l.029,2.062.515-.519s-.109.622-.029.546.916-1.913.916-1.913Z" fill="#66534e"/>
      <path id="Trazado_41171" data-name="Trazado 41171" d="M316.2,486.226a12.806,12.806,0,0,0,5.549,1.462s-.792,6.223-5.589,4.41Z" fill="#191818"/>
      <path id="Trazado_41172" data-name="Trazado 41172" d="M316.2,486.226a12.806,12.806,0,0,0,5.549,1.462s-.792,6.223-5.589,4.41Z" fill="#191818"/>
      <path id="Trazado_41173" data-name="Trazado 41173" d="M316.2,486.226a12.806,12.806,0,0,0,5.549,1.462s-.792,6.223-5.589,4.41Z" fill="#191818"/>
      <path id="Trazado_41174" data-name="Trazado 41174" d="M321.346,491.168c-1.357-.552-3-.929-3.863-.032a1.64,1.64,0,0,0-.523,1.763A3.409,3.409,0,0,0,321.346,491.168Z" fill="#be1e2d"/>
      <path id="Trazado_41175" data-name="Trazado 41175" d="M317.576,491.7c.789-.82,2.227-.572,3.506-.1.1-.138.184-.28.264-.425-1.357-.552-3-.929-3.863-.032a2.187,2.187,0,0,0-.7,1.71l.186.056A1.906,1.906,0,0,1,317.576,491.7Z" fill="#d6384c"/>
      <path id="Trazado_41176" data-name="Trazado 41176" d="M346.1,484.421s-1.966,8.633-3.3,7.986a8.226,8.226,0,0,1-2.035-1.38l-.369,1.841-1.359-1.075a5.4,5.4,0,0,1-.671,1.557c-.284.213-1.573-.3-1.573-.3l-1.138,2.055-1.468-.633s-.415.542-1.035,1.24l-1.544-.863-.135,1.452-1.594-1.44a8.72,8.72,0,0,0-1.563.885c-.119.21-2.248-1.206-2.248-1.206-.712,4.174-5.7,6.11-6.467,6.37s-2.022-1.527-2.022-1.527l-.866-1.908.568-.487-.4-1.5.99-1.3a36.055,36.055,0,0,1-3.691-1.3l.107.665s-.446,4.917,1.5,7.2,5.252,4.4,17.129,1.3c0,0,9.754-1.757,13.83-7.946l3.416-5.186Z" fill="#66534e"/>
      <path id="Trazado_41177" data-name="Trazado 41177" d="M346.1,484.421l4.054,4.5c-.212-.235-2.965-5.141-2.965-5.141l.453,2.051Z" fill="#66534e"/>
      <path id="Trazado_41178" data-name="Trazado 41178" d="M314.176,492.89l-.613,3.889.717-.8a8.336,8.336,0,0,0,.581,4.735l.287-.944a16.622,16.622,0,0,0,1.886,3.529l.044-.786,1.592,1.6.787-.68,1.8,1.634s2.864-.974,6.212-1.921c0,0-9.62-.886-9.756-2.328S314.176,492.89,314.176,492.89Z" fill="#66534e"/>
      <path id="Trazado_41179" data-name="Trazado 41179" d="M324.176,501.617l1,2.976,3.707-1.619.214,1.511,7.235-3.356-.062,1.11s6.389-2.488,7.707-5.124Z" fill="#66534e"/>
      <path id="Trazado_41180" data-name="Trazado 41180" d="M324.624,486.372l-.078,1.4.624.431-.106,1.9.654.566-.112,2,.536.515.852-4.742Z" fill="#66534e"/>
      <path id="Trazado_41181" data-name="Trazado 41181" d="M326.77,487.933l-.687,2.626.059,2.633a5.5,5.5,0,0,0,1.535-2.762A2.9,2.9,0,0,0,326.77,487.933Z" fill="#66534e"/>
      <path id="Trazado_41182" data-name="Trazado 41182" d="M324.968,447.532s-4.111,5.821,1.52,9.942l1.171-5.18s10.521,9.2,11.227,15.9c0,0,1.338-.741,1.473-5.1,0,0,12.922,3.541,8.479,10.127l2.44-2.424-3.938,10.776s9.779-7.124,10.624-10.633-1.667-30.518-7.19-31.583a24.332,24.332,0,0,0-11.308-3.994c-6.138-.331-11.4,1.016-14.264-1.855a5.342,5.342,0,0,0,4.015,4.644s-6.94-1.144-10.153,3.43a15.094,15.094,0,0,1,5.191-.358s-1.714,5.09-5.867,5.938C318.388,447.164,321.747,449.3,324.968,447.532Z" fill="#191818"/>
      <path id="Trazado_41183" data-name="Trazado 41183" d="M374.558,466.114s3.25.181,3.177,2.914-3.934,7.136-3.385,10.314c0,0-1.8-.555-1.45-5.506A23.511,23.511,0,0,1,374.558,466.114Z" fill="#191818"/>
      <path id="Trazado_41184" data-name="Trazado 41184" d="M281.648,631.539l-9.636,9.336s48.452,71.8,59.064,94.224c0,0,11.72,2.985,17.482-8.657,0,0-13.783-36.7-17.245-43.038s-22.006-32.033-22.006-32.033L298.97,623.286Z" fill="#202035"/>
      <path id="Trazado_41185" data-name="Trazado 41185" d="M256.492,429.547l-.94-.09a1.1,1.1,0,0,1-.982-1.191l.156-7.319a1.1,1.1,0,0,1,1.191-.982l2.026.2a1.094,1.094,0,0,1,.981,1.191l-1.241,7.215A1.1,1.1,0,0,1,256.492,429.547Z" fill="#e08d56"/>
      <path id="Trazado_41186" data-name="Trazado 41186" d="M270.3,420.689l.543-.2s4.122,2.307,2.634,4.686c-.972,1.554-7.662,9.1-7.662,9.1s2.231-3.2,2.337-3.506C268.273,430.418,268.154,430.959,270.3,420.689Z" fill="#f7af80"/>
      <path id="Trazado_41187" data-name="Trazado 41187" d="M370.8,524.807s-4.619,4.856-4.927,15.364Z" fill="#25337a"/>
      <path id="Trazado_41188" data-name="Trazado 41188" d="M376.121,616.186l-.253-.792a.961.961,0,0,0-1.206-.622l-6.267,1.5a.963.963,0,0,0-.622,1.207l.545,1.707a.963.963,0,0,0,1.207.622l5.974-2.413A.963.963,0,0,0,376.121,616.186Z" fill="#e08d56"/>
      <g id="Grupo_37298" data-name="Grupo 37298">
        <path id="Trazado_41189" data-name="Trazado 41189" d="M368.857,630.163,371.2,632.1c1.049.77,2.129.955,3.037.209.094-.077,2.252-1.492,2.331-1.585l6.13-7.266c1.2-1.441,1.622-2.769-.339-4.5l-3.2-3.331a2.88,2.88,0,0,0-2.733-1.207,2.33,2.33,0,0,0-1.228.5l-8.539,8.6s-1.76,1.416-1.365,2.548S368.857,630.163,368.857,630.163Z" fill="#f7af80"/>
      </g>
      <path id="Trazado_41190" data-name="Trazado 41190" d="M372.618,630.939l-1.165,1.337a3.038,3.038,0,0,0,3.842-.144c1.234-1.037,5.572-6.643,5.572-6.643a13.064,13.064,0,0,0-1.519.5C379.1,626.137,372.618,630.939,372.618,630.939Z" fill="#f7af80"/>
      <path id="Trazado_41191" data-name="Trazado 41191" d="M292.084,695.373l7.132,1.044s11.379,12.871,21.517,43.744,17.706,39.57,17.706,39.57-3.219,10.262-13.829,14.437l-46.3-84.46S281.341,695.488,292.084,695.373Z" fill="#202035"/>
    </g>
  </g>
</svg>
