<svg xmlns="http://www.w3.org/2000/svg" width="120" height="144" viewBox="0 0 120 144">
  <g id="Grupo_3995" data-name="Grupo 3995" transform="translate(-48 -120)">
    <rect id="Rectángulo_2130" data-name="Rectángulo 2130" width="120" height="144" transform="translate(48 120)" fill="none"/>
    <g id="Grupo_40194" data-name="Grupo 40194" transform="translate(-1081.926 -240.512)">
      <path id="Trazado_43067" data-name="Trazado 43067" d="M1202.172,517.523s-12.111,1.363-14.119,2.814a3.054,3.054,0,0,0,.093,5.141s-1.459,4.735,2.617,6.188c4.571,1.628,13.359,1.814,19.965,1.163s11.495-3.349,11.726-5.117a7.49,7.49,0,0,0-.281-3.187,3.287,3.287,0,0,0,.791-4.187C1221.568,517.894,1206.716,517.245,1202.172,517.523Z" transform="translate(-15.921 -58.588)" fill="#e00b71"/>
      <path id="Trazado_43068" data-name="Trazado 43068" d="M1222.778,524.857c0,1.156-9.314,2.094-15.616,2.094s-11.41-.938-11.41-2.094,5.108-2.094,11.41-2.094S1222.778,523.7,1222.778,524.857Z" transform="translate(-20.07 -61.015)" fill="#910c55"/>
      <path id="Trazado_43069" data-name="Trazado 43069" d="M1254.687,491.525s11.306-1.779,13.921,6.374-7.433,11.921.412,17.844c0,0-11.823,2.615-17.717-4.461C1244.708,503.365,1247.457,494.3,1254.687,491.525Z" transform="translate(-43.795 -46.635)" fill="#6d31fd"/>
      <path id="Trazado_43070" data-name="Trazado 43070" d="M1265.235,500.135s-2-6.807-7.123-7.082c0,0,1.984,2.557-1,9.389-2.8,6.413,2.494,16.921,15.949,14.075,0,0-8.548-.539-7.826-5.923A43.163,43.163,0,0,0,1265.235,500.135Z" transform="translate(-47.836 -47.41)" fill="#5224e2"/>
      <path id="Trazado_43071" data-name="Trazado 43071" d="M1275.369,497.9c-1.84-5.737-7.98-6.555-11.46-6.536l-1.583,2.075s5.275,1.384,3.583,8.538.055,14.229,9.873,13.767C1267.936,509.821,1277.984,506.053,1275.369,497.9Z" transform="translate(-50.556 -46.636)" fill="#6d31fd"/>
      <path id="Trazado_43072" data-name="Trazado 43072" d="M1254.9,491.525a10.9,10.9,0,0,0-6.876,7.949,21.153,21.153,0,0,1,13.383-.114,16.774,16.774,0,0,1,7.41,4.152,9.042,9.042,0,0,0,0-5.614C1266.2,489.746,1254.9,491.525,1254.9,491.525Z" transform="translate(-44.006 -46.635)" fill="#422c9b" opacity="0.41"/>
      <path id="Trazado_43073" data-name="Trazado 43073" d="M1250.137,487.725s-1.077,4.717,4.564,4.2,4.693-4.2,4.141-6.255S1250.137,487.725,1250.137,487.725Z" transform="translate(-44.936 -43.767)" fill="#e00b71"/>
      <path id="Trazado_43074" data-name="Trazado 43074" d="M1258.87,485.883a.644.644,0,0,0-.2-.326c.431,2.066.377,4.779-4.4,5.212-2.4.218-3.584-.512-4.151-1.423.163,1.344,1.04,3.117,4.612,2.792C1260.369,491.626,1259.422,487.934,1258.87,485.883Z" transform="translate(-44.965 -43.977)" fill="#f80a73"/>
      <circle id="Elipse_1103" data-name="Elipse 1103" cx="5.317" cy="5.317" r="5.317" transform="translate(1155.183 427.261)" fill="#eaa07f"/>
      <path id="Trazado_43075" data-name="Trazado 43075" d="M1163.311,467.063a1.663,1.663,0,0,1,2.114,1.335c.345,1.79-.98,2.158-1.591,2.084a.75.75,0,0,1-.24-1.341c.533-.282.961.3.961.3A1.843,1.843,0,0,0,1163.311,467.063Z" transform="translate(-5.196 -35.484)" fill="#d88564"/>
      <path id="Trazado_43076" data-name="Trazado 43076" d="M1204.185,519.684v3.49a51.6,51.6,0,0,0,6.839.417,78.738,78.738,0,0,0,11.045-.726v-7.438Z" transform="translate(-23.931 -57.655)" fill="#f4b08e"/>
      <path id="Trazado_43077" data-name="Trazado 43077" d="M1222.069,510.652V505h-17.884v9.909Z" transform="translate(-23.931 -52.88)" fill="#eaa07f"/>
      <path id="Trazado_43078" data-name="Trazado 43078" d="M1246.191,424.83l5.593-9.222s9.5.146,11.866,19.187c2.077,16.723-7.955,23.557-14.023,22.727C1237.756,455.9,1246.191,424.83,1246.191,424.83Z" transform="translate(-41.836 -11.945)" fill="#6d31fd"/>
      <circle id="Elipse_1104" data-name="Elipse 1104" cx="5.317" cy="5.317" r="5.317" transform="translate(1206.766 426.877)" fill="#f4b08e"/>
      <path id="Trazado_43079" data-name="Trazado 43079" d="M1265.542,467.063a1.663,1.663,0,0,0-2.114,1.335c-.345,1.79.98,2.158,1.591,2.084a.75.75,0,0,0,.239-1.341c-.533-.282-.961.3-.961.3A1.843,1.843,0,0,1,1265.542,467.063Z" transform="translate(-51.035 -35.484)" fill="#d88564"/>
      <circle id="Elipse_1105" data-name="Elipse 1105" cx="25.73" cy="25.73" r="25.73" transform="translate(1160.801 405.35)" fill="#f4b08e"/>
      <path id="Trazado_43080" data-name="Trazado 43080" d="M1158.706,429.879c15.921,1.769,16.667-14.071,25.281-17.456,7.821-3.072,16.459,3.538,16.459,3.538l16.242-8s-4.618-25.025-36.547-16.767C1151.992,398.477,1158.706,429.879,1158.706,429.879Z" transform="translate(-2.784 0)" fill="#6d31fd"/>
      <path id="Trazado_43081" data-name="Trazado 43081" d="M1239.851,425.792a7.954,7.954,0,0,0-3.589,5.64c-.718,8.306,7.048,7.5,10.871,11.3,2.974,2.955,1.23,7.878,1.23,7.878s7.635-1.18,7.635-13.024S1250.682,419.515,1239.851,425.792Z" transform="translate(-38.599 -15.47)" fill="#6d31fd"/>
      <path id="Trazado_43082" data-name="Trazado 43082" d="M1239.555,425.819l11.383-7.794A21.548,21.548,0,0,0,1239.555,425.819Z" transform="translate(-40.128 -13.051)" fill="#5224e2"/>
      <path id="Trazado_43083" data-name="Trazado 43083" d="M1197.663,429.433s-1.948-8.307-9.127-9.947-13.208.228-18.638,8.409c-5.922,8.922-13.357,13.729-17.972,12.453,0,0,1.818,5.826,11.677,2.276s13.881-13.741,19.675-15.587C1190,424.9,1197.663,429.433,1197.663,429.433Z" transform="translate(0 -13.471)" fill="#241c6b"/>
      <path id="Trazado_43084" data-name="Trazado 43084" d="M1182.512,423.383c7.5-1.4,15.151,6.051,15.151,6.051s-1.948-8.307-9.127-9.947-13.207.228-18.638,8.409c-5.922,8.922-13.357,13.729-17.972,12.453a5.113,5.113,0,0,0,2.946,2.869C1166.991,444.076,1172.744,425.2,1182.512,423.383Z" transform="translate(0 -13.471)" fill="#5224e2"/>
      <path id="Trazado_43085" data-name="Trazado 43085" d="M1196.5,533.046s13.79,2.9,27.607-1.087C1224.111,531.959,1208.553,537.744,1196.5,533.046Z" transform="translate(-20.414 -65.226)" fill="#bc0f65"/>
      <path id="Trazado_43086" data-name="Trazado 43086" d="M1176.335,528.366s-6.281-.983-15.882,4.414c0,0,1.433,5.235,3.316,7.705,1.369,1.8,4.21,3.182,8.419,2.281,0,0,4.631-1.531,5.025-4.26C1177.48,536.648,1176.862,531.491,1176.335,528.366Z" transform="translate(-3.905 -63.548)" fill="#f4b08e"/>
      <path id="Trazado_43087" data-name="Trazado 43087" d="M1179.142,518.923s-3.292-14.273.608-15.166c3.371-.772,5.033,16.32,5.033,16.32Z" transform="translate(-11.869 -52.299)" fill="#f4b08e"/>
      <path id="Trazado_43088" data-name="Trazado 43088" d="M1175.948,520.931a1.982,1.982,0,0,0-2.781-1.131c-2.059.884-1.351,6.588,1.094,7.973C1176.237,528.893,1178.277,526.872,1175.948,520.931Z" transform="translate(-9.174 -59.555)" fill="#eaa07f"/>
      <path id="Trazado_43089" data-name="Trazado 43089" d="M1168.54,523.563a1.982,1.982,0,0,0-2.874-.87c-1.969,1.07-.118,6.66,1.825,7.838S1171.406,529.265,1168.54,523.563Z" transform="translate(-5.907 -60.835)" fill="#eaa07f"/>
      <path id="Trazado_43090" data-name="Trazado 43090" d="M1180.773,544l2.982-3.838-1.8-2.613-4.879-.661-.641.676a3.135,3.135,0,0,0,3.454,3.556,3.031,3.031,0,0,0,.88,2.88" transform="translate(-11.218 -67.482)" fill="#eaa07f"/>
      <path id="Trazado_43091" data-name="Trazado 43091" d="M1180.88,542.681s3.027-.093,4.1-2.509c1.006-2.264.54-5.767-.848-6.7s-6.77-.587-7.563,1.525,1.757,3.567,4.578,3.379C1181.147,538.379,1180.227,541.139,1180.88,542.681Z" transform="translate(-11.218 -65.696)" fill="#f4b08e"/>
      <path id="Trazado_43092" data-name="Trazado 43092" d="M1162.348,528.268s-1.125-.845-2.515.581-.285,5.39,1.9,5.545,2.2-1.453,2.1-2.394A15.884,15.884,0,0,0,1162.348,528.268Z" transform="translate(-3.339 -63.422)" fill="#eaa07f"/>
      <path id="Trazado_43093" data-name="Trazado 43093" d="M1168.226,542.654s3.893.543,4.108,3.523A8.115,8.115,0,0,0,1168.226,542.654Z" transform="translate(-7.464 -70.123)" fill="#eaa07f"/>
      <rect id="Rectángulo_5585" data-name="Rectángulo 5585" width="4.586" height="1.613" rx="0.807" transform="translate(1181.739 446.905)" fill="#4d4d4d"/>
      <path id="Trazado_43094" data-name="Trazado 43094" d="M1223.537,451.127s2.462-2.666,5.966,0Z" transform="translate(-32.793 -27.667)" fill="#6d31fd"/>
      <g id="Grupo_40193" data-name="Grupo 40193" transform="translate(1156.914 425.288)">
        <g id="Grupo_40191" data-name="Grupo 40191">
          <path id="Trazado_43095" data-name="Trazado 43095" d="M1174.926,473.5A9.888,9.888,0,0,1,1167,470.17c-4.151-4.875-2.849-13.282-2.791-13.638a1.227,1.227,0,0,1,1.21-1.03l19.547.156a1.227,1.227,0,0,1,1.193.988c.065.33,1.559,8.143-2.348,13.059-1.906,2.4-4.728,3.675-8.386,3.792C1175.257,473.5,1175.089,473.5,1174.926,473.5Z" transform="translate(-1162.43 -455.502)" fill="#4295a8"/>
          <path id="Trazado_43096" data-name="Trazado 43096" d="M1168.537,457.794l17.459.139s2.973,14.985-9.57,15.387c-9.622.308-10.347-9-10.163-13.356A2.26,2.26,0,0,1,1168.537,457.794Z" transform="translate(-1163.469 -456.552)" fill="#062625"/>
          <path id="Trazado_43097" data-name="Trazado 43097" d="M1186.914,463.121h-4.038l2.407-5.185-5.714-.045-.411.1-3.153,6.79h4.038l-3.908,7.733a10.406,10.406,0,0,0,4.762.852c.172-.005.33-.024.5-.035l.41-.1Z" transform="translate(-1167.941 -456.596)" fill="#20514e"/>
          <path id="Trazado_43098" data-name="Trazado 43098" d="M1166.752,456.459l-.368-.935-4.634-.017a.621.621,0,0,0-.623.639l.03,1.385a.621.621,0,0,0,.62.6l1.619.115.72-1.836Z" transform="translate(-1161.128 -455.504)" fill="#4295a8"/>
          <ellipse id="Elipse_1106" data-name="Elipse 1106" cx="0.661" cy="0.407" rx="0.661" ry="0.407" transform="translate(0.881 0.819)" fill="#fccc05"/>
          <rect id="Rectángulo_5586" data-name="Rectángulo 5586" width="6.544" height="2.064" transform="translate(23.08 4.979)" fill="#128d93"/>
        </g>
        <g id="Grupo_40192" data-name="Grupo 40192" transform="translate(23.173)">
          <path id="Trazado_43099" data-name="Trazado 43099" d="M1225.7,473.5a9.887,9.887,0,0,0,7.926-3.334c4.151-4.875,2.849-13.282,2.791-13.638a1.226,1.226,0,0,0-1.21-1.03l-19.547.156a1.226,1.226,0,0,0-1.193.988c-.066.33-1.559,8.143,2.347,13.059,1.906,2.4,4.729,3.675,8.387,3.792C1225.37,473.5,1225.538,473.5,1225.7,473.5Z" transform="translate(-1208.574 -455.502)" fill="#4295a8"/>
          <path id="Trazado_43100" data-name="Trazado 43100" d="M1234.168,457.794l-17.459.139s-2.972,14.985,9.571,15.387c9.621.308,10.346-9,10.163-13.356A2.26,2.26,0,0,0,1234.168,457.794Z" transform="translate(-1209.612 -456.552)" fill="#062625"/>
          <path id="Trazado_43101" data-name="Trazado 43101" d="M1230.4,463.108l2.436-5.246-6.355.05-2.95,6.855h4.038l-3.549,7.023a10.518,10.518,0,0,0,5.527,1.561c.437.014.85,0,1.251-.023l3.64-10.221Z" transform="translate(-1212.875 -456.583)" fill="#20514e"/>
          <path id="Trazado_43102" data-name="Trazado 43102" d="M1248.151,456.459l.367-.935,4.634-.017a.62.62,0,0,1,.622.639l-.03,1.385a.62.62,0,0,1-.62.6l-1.619.115-.719-1.836Z" transform="translate(-1224.152 -455.504)" fill="#4295a8"/>
          <ellipse id="Elipse_1107" data-name="Elipse 1107" cx="0.661" cy="0.407" rx="0.661" ry="0.407" transform="translate(27.421 0.819)" fill="#fccc05"/>
          <rect id="Rectángulo_5587" data-name="Rectángulo 5587" width="6.544" height="2.064" transform="translate(6.544 7.043) rotate(-180)" fill="#4295a8"/>
        </g>
        <path id="Trazado_43103" data-name="Trazado 43103" d="M1254.464,462.817l6.275,1.255-.67,1.962-5.367-1.172Z" transform="translate(-1203.869 -458.852)" fill="#4295a8"/>
      </g>
    </g>
  </g>
</svg>
