<svg xmlns="http://www.w3.org/2000/svg" width="120" height="144" viewBox="0 0 120 144">
  <g id="Grupo_3995" data-name="Grupo 3995" transform="translate(-48 -120)">
    <rect id="Rectángulo_2130" data-name="Rectángulo 2130" width="120" height="144" transform="translate(48 120)" fill="none"/>
    <g id="Grupo_40202" data-name="Grupo 40202" transform="translate(-854.282 -247.399)">
      <path id="Trazado_43104" data-name="Trazado 43104" d="M999.266,457.65s8.324.925,9.62-11.655c.758-7.361-5.365-9.143-5.365-9.143s8.324-5.1,2.22-20.086c-5.744-14.1-20.644-9.139-20.644-9.139s-3.017-6-8.77-6.261a11.562,11.562,0,0,0-8.964,3.532s-5.052-10.308-21.323-6.181S930.78,416,930.78,416s-15.5,4.464-15.5,20.5c0,18.926,12.394,20.593,12.394,20.593s.05,16.4,16.2,12.949c0,0,9.883,9.25,17.653.74l8.694-3.078s6.96,7.329,13.863,4.928c6.382-2.22,4.489-8.517,4.489-8.517S995.7,467.525,999.266,457.65Z" transform="translate(0 0)" fill="#f80a73"/>
      <path id="Trazado_43105" data-name="Trazado 43105" d="M972.976,480.771c-14.419,3.061-19.43,16.023-17.553,25.3a18.315,18.315,0,0,0,5.685-.4s9.883,9.25,17.653.74l8.694-3.078s6.96,7.329,13.863,4.928c6.382-2.22,4.489-8.517,4.489-8.517a7.277,7.277,0,0,0,3.552.53C1008.266,485.975,990.179,477.119,972.976,480.771Z" transform="translate(-17.232 -35.624)" fill="#bc0f65" opacity="0.5"/>
      <g id="Grupo_40195" data-name="Grupo 40195" transform="translate(980.282 446.832)">
        <circle id="Elipse_1108" data-name="Elipse 1108" cx="4.282" cy="4.282" r="4.282" transform="translate(0 0)" fill="#dd9f66"/>
        <path id="Trazado_43106" data-name="Trazado 43106" d="M1038.426,489.229a1.49,1.49,0,0,0-1.893,1.2c-.309,1.6.878,1.933,1.425,1.865a.672.672,0,0,0,.214-1.2c-.478-.252-.861.272-.861.272A1.65,1.65,0,0,1,1038.426,489.229Z" transform="translate(-1032.806 -486.459)" fill="#cc8652"/>
        <path id="Trazado_43107" data-name="Trazado 43107" d="M1035.581,484.375a4.28,4.28,0,0,1,4.013,2.8,7.13,7.13,0,0,0-5.489,3.836l-1.1-5.769A4.255,4.255,0,0,1,1035.581,484.375Z" transform="translate(-1031.3 -484.375)" fill="#db9b63" opacity="0.29" style="mix-blend-mode: multiply;isolation: isolate"/>
      </g>
      <g id="Grupo_40196" data-name="Grupo 40196" transform="translate(938.99 446.832)">
        <circle id="Elipse_1109" data-name="Elipse 1109" cx="4.282" cy="4.282" r="4.282" transform="translate(0 0)" fill="#dd9f66"/>
        <path id="Trazado_43108" data-name="Trazado 43108" d="M962.288,489.229a1.49,1.49,0,0,1,1.893,1.2c.309,1.6-.878,1.933-1.425,1.865a.672.672,0,0,1-.214-1.2c.478-.252.861.272.861.272A1.65,1.65,0,0,0,962.288,489.229Z" transform="translate(-959.346 -486.459)" fill="#cc8652"/>
        <path id="Trazado_43109" data-name="Trazado 43109" d="M961.609,484.375a4.28,4.28,0,0,0-4.013,2.8,7.13,7.13,0,0,1,5.489,3.836l1.1-5.769A4.256,4.256,0,0,0,961.609,484.375Z" transform="translate(-957.327 -484.375)" fill="#db9b63" opacity="0.29" style="mix-blend-mode: multiply;isolation: isolate"/>
      </g>
      <circle id="Elipse_1110" data-name="Elipse 1110" cx="20.722" cy="20.722" r="20.722" transform="translate(943.263 430.361)" fill="#edb477"/>
      <path id="Trazado_43110" data-name="Trazado 43110" d="M979.561,499.544" transform="translate(-27.856 -44.116)" fill="none" stroke="#f80a73" stroke-miterlimit="10" stroke-width="0.95"/>
      <path id="Trazado_43111" data-name="Trazado 43111" d="M987.477,475.632s4.428,2.441,7.275,1.066c0,0,3.649,5.244,10.346,2.235,0-.009,1.009.958,1.009.948a20.669,20.669,0,0,0-1.353-7.368c-.129-.236-.263-.466-.406-.69-2-3.124-22-7.624-22-7.624l-13.843,3.665a20.62,20.62,0,0,0-3.845,12.016,27.159,27.159,0,0,0,.314,3.617C966.814,483.86,979.149,483.09,987.477,475.632Z" transform="translate(-21.4 -28.8)" fill="#db9b63" opacity="0.19" style="mix-blend-mode: multiply;isolation: isolate"/>
      <path id="Trazado_43112" data-name="Trazado 43112" d="M956.4,467.61s15.5,7.571,27.807-4.895a8.74,8.74,0,0,0,7.769,2.562s4.665,7.944,13.913,1.308l7.749-3.225s-4.249-16.83-19.5-19.5-32.742,4.984-33.909,13.323S956.4,467.61,956.4,467.61Z" transform="translate(-17.82 -19.753)" fill="#f80a73"/>
      <g id="Grupo_40197" data-name="Grupo 40197" transform="translate(952.218 457.5)">
        <path id="Trazado_43113" data-name="Trazado 43113" d="M1002.12,503.2a1.841,1.841,0,0,1,1.829,2.141,11.926,11.926,0,0,1-23.448.082,1.86,1.86,0,0,1,1.816-2.223Z" transform="translate(-980.467 -503.202)" fill="#062625"/>
        <path id="Trazado_43114" data-name="Trazado 43114" d="M1003.168,515.651a11.77,11.77,0,0,0-16.623.01,11.916,11.916,0,0,0,16.623-.01Z" transform="translate(-983.101 -507.11)" fill="#ed1c24"/>
        <path id="Trazado_43115" data-name="Trazado 43115" d="M995.977,513.918a11.662,11.662,0,0,1,6.152,3.842,11.98,11.98,0,0,0,2.96-2.109,11.361,11.361,0,0,0-8.307-3.431,11.854,11.854,0,0,0-5.8,1.485A11.986,11.986,0,0,1,995.977,513.918Z" transform="translate(-985.023 -507.11)" fill="#fc3a49"/>
      </g>
      <g id="Grupo_40198" data-name="Grupo 40198" transform="translate(976.694 454.771)">
        <circle id="Elipse_1111" data-name="Elipse 1111" cx="0.519" cy="0.519" r="0.519" transform="translate(0)" fill="#f80a73"/>
        <circle id="Elipse_1112" data-name="Elipse 1112" cx="0.519" cy="0.519" r="0.519" transform="translate(2.145)" fill="#f80a73"/>
        <circle id="Elipse_1113" data-name="Elipse 1113" cx="0.519" cy="0.519" r="0.519" transform="translate(1.038 1.194)" fill="#f80a73"/>
      </g>
      <g id="Grupo_40199" data-name="Grupo 40199" transform="translate(948.093 454.771)">
        <circle id="Elipse_1114" data-name="Elipse 1114" cx="0.519" cy="0.519" r="0.519" transform="translate(0)" fill="#f80a73"/>
        <circle id="Elipse_1115" data-name="Elipse 1115" cx="0.519" cy="0.519" r="0.519" transform="translate(2.145)" fill="#f80a73"/>
        <circle id="Elipse_1116" data-name="Elipse 1116" cx="0.519" cy="0.519" r="0.519" transform="translate(1.038 1.194)" fill="#f80a73"/>
      </g>
      <g id="Grupo_40200" data-name="Grupo 40200" transform="translate(972.243 458.768)">
        <path id="Trazado_43116" data-name="Trazado 43116" d="M1026.887,512.867c.15-3.108,1.243-6.779-.572-7.049-3.935-.586-3.547,12.664-3.547,12.664s-3.518,5.9.415,7.8,9.155,1.575,11.1-6.683c0,0,4.05-4.548,2.769-5.937-.635-.689-1.7-1.434-3.884,2.106,0,0,3.859-7.064,1.088-8.163a1.507,1.507,0,0,0-1.778.91s.615-2.7-.949-3.033c-1.873-.4-2.676,2-3.352,3.6A35.272,35.272,0,0,0,1026.887,512.867Z" transform="translate(-1018.196 -505.439)" fill="#e0a570"/>
        <path id="Trazado_43117" data-name="Trazado 43117" d="M1026.887,512.867c.15-3.108,1.243-6.779-.572-7.049-3.935-.586-3.547,12.664-3.547,12.664s-3.518,5.9.415,7.8,9.155,1.575,11.1-6.683c0,0,4.05-4.548,2.769-5.937-.635-.689-1.7-1.434-3.884,2.106,0,0,3.859-7.064,1.088-8.163a1.507,1.507,0,0,0-1.778.91s.615-2.7-.949-3.033c-1.873-.4-2.676,2-3.352,3.6A35.272,35.272,0,0,0,1026.887,512.867Z" transform="translate(-1018.196 -505.439)" fill="#e0a570"/>
        <path id="Trazado_43118" data-name="Trazado 43118" d="M1041.05,519.514a1.281,1.281,0,0,0-1.561-.458,2.03,2.03,0,0,1,.567.458c1.281,1.389-2.769,5.937-2.769,5.937-1.275,5.4-3.95,7.41-6.749,7.621,3.142.215,6.318-1.581,7.744-7.621C1038.281,525.451,1042.331,520.9,1041.05,519.514Z" transform="translate(-1022.19 -511.29)" fill="#db9b63" opacity="0.29" style="mix-blend-mode: multiply;isolation: isolate"/>
        <path id="Trazado_43119" data-name="Trazado 43119" d="M1023.206,527.954l-.721,4.876s-5.279-1.222-5.543-5.625.072-3.563-.777-5.586c0,0-.883-1.472.123-2.285,1.144-.925,4.286.424,4.882,4.671C1021.169,524,1024.658,524.341,1023.206,527.954Z" transform="translate(-1015.806 -511.341)" fill="#e0a570"/>
        <path id="Trazado_43120" data-name="Trazado 43120" d="M1026.537,523.38a14.14,14.14,0,0,1,5.323.989c2.521,1.055,3.054,1.868,3.054,1.868A30.666,30.666,0,0,0,1026.537,523.38Z" transform="translate(-1020.456 -513.213)" fill="#db9b63" opacity="0.29" style="mix-blend-mode: multiply;isolation: isolate"/>
        <path id="Trazado_43121" data-name="Trazado 43121" d="M1039.2,512.178l-1.632,4.361A8.013,8.013,0,0,0,1039.2,512.178Z" transform="translate(-1025.239 -508.359)" fill="#db9b63" opacity="0.29" style="mix-blend-mode: multiply;isolation: isolate"/>
        <path id="Trazado_43122" data-name="Trazado 43122" d="M1024.421,528.064s3.049,1.571,1.561,6.448C1025.981,534.512,1029.793,530.228,1024.421,528.064Z" transform="translate(-1019.539 -515.244)" fill="#db9b63" opacity="0.29" style="mix-blend-mode: multiply;isolation: isolate"/>
      </g>
      <g id="Grupo_40201" data-name="Grupo 40201" transform="translate(936.785 458.443)">
        <path id="Trazado_43123" data-name="Trazado 43123" d="M963.649,512.292c-.15-3.107-1.243-6.779.572-7.049,3.935-.586,3.547,12.664,3.547,12.664s3.518,5.9-.415,7.8-9.155,1.574-11.1-6.684c0,0-4.05-4.547-2.769-5.937.635-.688,1.7-1.433,3.884,2.107,0,0-3.859-7.064-1.088-8.163a1.507,1.507,0,0,1,1.778.91s-.615-2.7.949-3.033c1.873-.4,2.676,2,3.352,3.6A35.337,35.337,0,0,1,963.649,512.292Z" transform="translate(-953.23 -504.865)" fill="#e0a570"/>
        <path id="Trazado_43124" data-name="Trazado 43124" d="M963.649,512.292c-.15-3.107-1.243-6.779.572-7.049,3.935-.586,3.547,12.664,3.547,12.664s3.518,5.9-.415,7.8-9.155,1.574-11.1-6.684c0,0-4.05-4.547-2.769-5.937.635-.688,1.7-1.433,3.884,2.107,0,0-3.859-7.064-1.088-8.163a1.507,1.507,0,0,1,1.778.91s-.615-2.7.949-3.033c1.873-.4,2.676,2,3.352,3.6A35.337,35.337,0,0,1,963.649,512.292Z" transform="translate(-953.23 -504.865)" fill="#e0a570"/>
        <path id="Trazado_43125" data-name="Trazado 43125" d="M953.48,518.939a1.282,1.282,0,0,1,1.561-.458,2.052,2.052,0,0,0-.567.458c-1.281,1.39,2.769,5.937,2.769,5.937,1.275,5.4,3.95,7.411,6.749,7.621-3.143.215-6.319-1.58-7.744-7.621C956.25,524.876,952.2,520.329,953.48,518.939Z" transform="translate(-953.23 -510.716)" fill="#db9b63" opacity="0.29" style="mix-blend-mode: multiply;isolation: isolate"/>
        <path id="Trazado_43126" data-name="Trazado 43126" d="M973.626,527.379l.721,4.877s5.279-1.223,5.543-5.625-.072-3.564.777-5.586c0,0,.883-1.472-.123-2.285-1.144-.924-4.286.424-4.882,4.671C975.663,523.431,972.174,523.767,973.626,527.379Z" transform="translate(-961.915 -510.766)" fill="#e0a570"/>
        <path id="Trazado_43127" data-name="Trazado 43127" d="M969.819,522.805a14.146,14.146,0,0,0-5.322.99c-2.521,1.055-3.054,1.868-3.054,1.868A30.661,30.661,0,0,1,969.819,522.805Z" transform="translate(-956.789 -512.639)" fill="#db9b63" opacity="0.29" style="mix-blend-mode: multiply;isolation: isolate"/>
        <path id="Trazado_43128" data-name="Trazado 43128" d="M962.309,511.6l1.632,4.361A8.015,8.015,0,0,1,962.309,511.6Z" transform="translate(-957.164 -507.785)" fill="#db9b63" opacity="0.29" style="mix-blend-mode: multiply;isolation: isolate"/>
        <path id="Trazado_43129" data-name="Trazado 43129" d="M976.144,527.489s-3.049,1.571-1.56,6.449C974.584,533.938,970.772,529.654,976.144,527.489Z" transform="translate(-961.915 -514.669)" fill="#db9b63" opacity="0.29" style="mix-blend-mode: multiply;isolation: isolate"/>
      </g>
    </g>
  </g>
</svg>
