<svg xmlns="http://www.w3.org/2000/svg" width="120" height="144" viewBox="0 0 120 144">
  <g id="Grupo_3995" data-name="Grupo 3995" transform="translate(-48 -120)">
    <rect id="Rect치ngulo_2130" data-name="Rect치ngulo 2130" width="120" height="144" transform="translate(48 120)" fill="none"/>
    <g id="Grupo_40209" data-name="Grupo 40209" transform="translate(-602.542 -290.622)">
      <circle id="Elipse_1117" data-name="Elipse 1117" cx="30.09" cy="30.09" r="30.09" transform="translate(678.146 460.483)" fill="#fcc6ae"/>
      <path id="Trazado_43130" data-name="Trazado 43130" d="M687.918,511.817s2.931-14.508,2.637-14.448,8.142-15.747,27.8-5.46,25.818,10.943,25.818,10.943v6.99s-5.05,6.309-19.56-2.646c-9.886-6.1-18.126-7.343-23.444-7.261a9.005,9.005,0,0,0-8.465,6.462,96.613,96.613,0,0,0-2.681,12.136Z" transform="translate(-6.947 -24.676)" fill="#bcb5b1" opacity="0.2" style="mix-blend-mode: multiply;isolation: isolate"/>
      <circle id="Elipse_1118" data-name="Elipse 1118" cx="5.305" cy="5.305" r="5.305" transform="translate(732.927 492.037)" fill="#fcc6ae"/>
      <path id="Trazado_43131" data-name="Trazado 43131" d="M794.449,547.945a1.635,1.635,0,0,0-2.078,1.312c-.339,1.759.963,2.122,1.564,2.048a.737.737,0,0,0,.235-1.318c-.524-.277-.944.3-.944.3A1.812,1.812,0,0,1,794.449,547.945Z" transform="translate(-53.906 -51.424)" fill="#e8b09a"/>
      <path id="Trazado_43132" data-name="Trazado 43132" d="M784.983,494.746a1.86,1.86,0,0,1,2.343.191,3.5,3.5,0,0,1,1.039,2.3c.191,2.224-1.587,17.2-2.112,21.537a1.862,1.862,0,0,1-1.27,1.546l-1.159.38a1.809,1.809,0,0,1-2.373-1.543l-.005-.063c-.153-2.114-.007-9.881-2.508-17.082a1.618,1.618,0,0,1-.052-.184c-.1-.454-.444-2.343.47-3.1C780.128,498.088,783.367,495.854,784.983,494.746Z" transform="translate(-47.799 -27.37)" fill="#6d31fd"/>
      <path id="Trazado_43133" data-name="Trazado 43133" d="M781.124,512.6l8-3.388c-.106,1.149-.232,2.4-.367,3.7l-7.118,2.276C781.492,514.339,781.324,513.473,781.124,512.6Z" transform="translate(-48.872 -34.023)" fill="#422c9b"/>
      <path id="Trazado_43134" data-name="Trazado 43134" d="M788.812,525.254l-5.759,1.711c-.057-.849-.134-1.77-.241-2.743l6.307-1.686C789.016,523.464,788.913,524.376,788.812,525.254Z" transform="translate(-49.631 -40.018)" fill="#5224e2"/>
      <path id="Trazado_43135" data-name="Trazado 43135" d="M788.538,534.325l-5,1.256c-.05-.749-.1-1.661-.1-2.11l5.373-1.545C788.718,532.745,788.627,533.551,788.538,534.325Z" transform="translate(-49.912 -44.241)" fill="#5224e2"/>
      <path id="Trazado_43136" data-name="Trazado 43136" d="M682.2,471.312c-.679-5.654-.789-25.281,30.335-25.6,0,0,21.027-2.085,29.07,16.309,0,0,4.394,17.352,9.458,18.99a30.049,30.049,0,0,1-21.224,6.33c-13.291-1.117-16.9-16.458-25.023-17.576-7.687-1.057-9.557,6.149-13.389,8.294-.438.245-1.261,1.619-1.779,1.267l-6.255-4.334C682.607,474.493,682.311,472.237,682.2,471.312Z" transform="translate(-4.299 -5.43)" fill="#6d31fd"/>
      <path id="Trazado_43137" data-name="Trazado 43137" d="M683.55,474.563c-.634-5.278-.736-23.6,28.319-23.9,0,0,19.158-2.965,26.666,14.206,0,0,4.215,16.22,12.527,16.14h0c-5.064-1.638-9.458-18.99-9.458-18.99-8.043-18.394-29.07-16.309-29.07-16.309-31.124.319-31.014,19.945-30.335,25.6.111.925.407,3.181,1.193,3.682l.235.164C683.595,474.929,683.57,474.724,683.55,474.563Z" transform="translate(-4.299 -5.43)" fill="#5224e2"/>
      <path id="Trazado_43138" data-name="Trazado 43138" d="M695.831,490.76h0s-4.8-16.522,11.645-19.633c13.54-2.562,19.117,5.566,24.553,11.152s15.341,12.511,24.948,9.979c0,0-20.256,7.6-28.374.223S712.74,475.352,705.964,478.7,695.831,490.76,695.831,490.76Z" transform="translate(-10.213 -16.674)" fill="#2bbee0"/>
      <path id="Trazado_43139" data-name="Trazado 43139" d="M696.364,495.806s9.217-6.591,23.415-3.366c0,0-2.633-12.826-13.133-10.237S696.364,495.806,696.364,495.806Z" transform="translate(-10.745 -21.72)" fill="#422c9b"/>
      <path id="Trazado_43140" data-name="Trazado 43140" d="M713.937,487.313l-3.711.794c-2.478,1.832-2.976,5.337-3.014,7.392a30.764,30.764,0,0,1,3.276-.853A11.152,11.152,0,0,1,713.937,487.313Z" transform="translate(-15.625 -24.174)" fill="#241c6b"/>
      <path id="Trazado_43141" data-name="Trazado 43141" d="M701.823,489.951l-2.941,1.183a16.057,16.057,0,0,0-2.517,8.312,19.077,19.077,0,0,1,2.982-1.618A12.589,12.589,0,0,1,701.823,489.951Z" transform="translate(-10.746 -25.36)" fill="#241c6b"/>
      <path id="Trazado_43142" data-name="Trazado 43142" d="M721.8,487.3a12.434,12.434,0,0,0-3.629,6.908,32.611,32.611,0,0,1,3.75-.2,24.893,24.893,0,0,1,2.924-5.419Z" transform="translate(-20.555 -24.167)" fill="#241c6b"/>
      <path id="Trazado_43143" data-name="Trazado 43143" d="M734.161,494.932l-1.679-2.284a9.279,9.279,0,0,0-2.52,3.858,33.06,33.06,0,0,1,4.93.811A17.364,17.364,0,0,0,734.161,494.932Z" transform="translate(-25.859 -26.574)" fill="#241c6b"/>
      <circle id="Elipse_1119" data-name="Elipse 1119" cx="5.305" cy="5.305" r="5.305" transform="translate(672.474 492.42)" fill="#fcc6ae"/>
      <path id="Trazado_43144" data-name="Trazado 43144" d="M714.9,550.728a30.092,30.092,0,0,1-28.1-40.862,30.089,30.089,0,1,0,54.163,25.8A30.071,30.071,0,0,1,714.9,550.728Z" transform="translate(-4.637 -34.318)" fill="#bcb5b1" opacity="0.2" style="mix-blend-mode: multiply;isolation: isolate"/>
      <path id="Trazado_43145" data-name="Trazado 43145" d="M678.4,547.945a1.635,1.635,0,0,1,2.078,1.312c.339,1.759-.963,2.122-1.564,2.048a.737.737,0,0,1-.235-1.318c.524-.277.945.3.945.3A1.812,1.812,0,0,0,678.4,547.945Z" transform="translate(-2.65 -51.424)" fill="#e8b09a"/>
      <circle id="Elipse_1120" data-name="Elipse 1120" cx="2.182" cy="2.182" r="2.182" transform="translate(695.081 492.324)" fill="#141414"/>
      <circle id="Elipse_1121" data-name="Elipse 1121" cx="0.734" cy="0.734" r="0.734" transform="translate(697.244 493.058)" fill="#fff"/>
      <circle id="Elipse_1122" data-name="Elipse 1122" cx="2.182" cy="2.182" r="2.182" transform="translate(720.153 492.324)" fill="#141414"/>
      <path id="Trazado_43146" data-name="Trazado 43146" d="M758.972,531.459a7.492,7.492,0,0,1,3.8.651.565.565,0,0,0,.776-.667,2.628,2.628,0,0,0-2.465-1.805,2.472,2.472,0,0,0-2.645.953A.568.568,0,0,0,758.972,531.459Z" transform="translate(-38.629 -43.196)" fill="#5224e2"/>
      <circle id="Elipse_1123" data-name="Elipse 1123" cx="0.734" cy="0.734" r="0.734" transform="translate(722.335 493.058)" fill="#fff"/>
      <path id="Trazado_43147" data-name="Trazado 43147" d="M711.6,533.769a7.5,7.5,0,0,1,3.668-1.2.565.565,0,0,0,.375-.952,2.627,2.627,0,0,0-3.022-.449c-1.452.557-1.847,1.4-1.9,2.075A.568.568,0,0,0,711.6,533.769Z" transform="translate(-17.202 -43.784)" fill="#5224e2"/>
      <path id="Trazado_43148" data-name="Trazado 43148" d="M682.553,498.495a1.86,1.86,0,0,0-2.344.19,3.506,3.506,0,0,0-1.039,2.3c-.191,2.224,1.587,17.2,2.113,21.538a1.861,1.861,0,0,0,1.27,1.545l1.159.38a1.809,1.809,0,0,0,2.374-1.543l0-.063c.154-2.114.007-9.881,2.508-17.082a1.61,1.61,0,0,0,.052-.183c.1-.455.444-2.344-.47-3.1C687.407,501.836,684.169,499.6,682.553,498.495Z" transform="translate(-3.005 -29.056)" fill="#6d31fd"/>
      <path id="Trazado_43149" data-name="Trazado 43149" d="M711.086,483.581c8.117,1.117,11.731,16.458,25.022,17.576a30.048,30.048,0,0,0,21.224-6.33c-26.909,5.908-27.6-18.963-43.392-18.466-21.262.668-17.753,16.969-17.753,16.969C696.985,489.025,702.617,482.416,711.086,483.581Z" transform="translate(-10.569 -19.244)" fill="#fccc05"/>
      <path id="Trazado_43150" data-name="Trazado 43150" d="M687.757,516.346l-8-3.388c.107,1.149.232,2.4.367,3.7l7.118,2.276C687.39,518.088,687.558,517.221,687.757,516.346Z" transform="translate(-3.278 -35.709)" fill="#5224e2"/>
      <path id="Trazado_43151" data-name="Trazado 43151" d="M681.312,527.784l5.809,2.15c.057-.848.192-2.42.3-3.394l-6.472-1.988C681.051,525.481,681.211,526.906,681.312,527.784Z" transform="translate(-3.811 -40.925)" fill="#5224e2"/>
      <path id="Trazado_43152" data-name="Trazado 43152" d="M684.506,498.992l5.385,3.326A10.057,10.057,0,0,0,684.506,498.992Z" transform="translate(-5.412 -29.427)" fill="#5224e2"/>
      <path id="Trazado_43153" data-name="Trazado 43153" d="M682.231,535.819l.295,2.477,4.969,1.14.094-2.461Z" transform="translate(-4.388 -45.993)" fill="#5224e2"/>
      <g id="Grupo_40203" data-name="Grupo 40203" transform="translate(699.992 502.309)">
        <path id="Trazado_43154" data-name="Trazado 43154" d="M722.557,562.548s-.016-2.9,4.438-3.626,13.682-.713,15.172,1.78-.885,6.405-6.7,6.971S721.672,568.2,722.557,562.548Z" transform="translate(-722.49 -558.506)" fill="#062625"/>
        <path id="Trazado_43155" data-name="Trazado 43155" d="M742.057,567.263c-1.539-3.181-7.813-3.133-12.619-2.665-3.107.3-5.222,1.561-6.3,3.046,1.539,3.181,7.812,3.133,12.619,2.665C738.863,570.007,740.978,568.748,742.057,567.263Z" transform="translate(-722.781 -561.142)" fill="#ed1c24"/>
        <path id="Trazado_43156" data-name="Trazado 43156" d="M732.681,564.948c4.3.247,9.7,1.006,11.552,3.567a6.05,6.05,0,0,0,1.248-1.252c-1.539-3.181-7.813-3.133-12.619-2.665a12.307,12.307,0,0,0-2.114.387A12.471,12.471,0,0,1,732.681,564.948Z" transform="translate(-726.204 -561.142)" fill="#fc3a49"/>
      </g>
      <g id="Grupo_40204" data-name="Grupo 40204" transform="translate(676.802 500.29)">
        <circle id="Elipse_1124" data-name="Elipse 1124" cx="1.882" cy="1.882" r="1.882" transform="translate(0)" fill="#e00b71"/>
        <path id="Trazado_43157" data-name="Trazado 43157" d="M683.128,554.838a1.867,1.867,0,0,0-.774.17,1.876,1.876,0,0,1,0,3.424,1.881,1.881,0,1,0,.774-3.594Z" transform="translate(-681.246 -554.838)" fill="#f80a73"/>
      </g>
      <g id="Grupo_40205" data-name="Grupo 40205" transform="translate(736.015 500.29)">
        <circle id="Elipse_1125" data-name="Elipse 1125" cx="1.882" cy="1.882" r="1.882" fill="#e00b71"/>
        <path id="Trazado_43158" data-name="Trazado 43158" d="M790.752,554.838a1.869,1.869,0,0,0-.774.17,1.876,1.876,0,0,1,0,3.424,1.881,1.881,0,1,0,.774-3.594Z" transform="translate(-788.87 -554.838)" fill="#f80a73"/>
      </g>
      <g id="Grupo_40206" data-name="Grupo 40206" transform="translate(675.525 432.068) rotate(3)">
        <path id="Trazado_43159" data-name="Trazado 43159" d="M66.724,30.5A33.425,33.425,0,1,0,.13,36.35a238.877,238.877,0,0,0,34.723.134A134.978,134.978,0,0,0,66.724,30.5Z" transform="translate(1.533 1.988)" fill="#f39200"/>
        <path id="Trazado_43160" data-name="Trazado 43160" d="M26.6,24.3A33.338,33.338,0,0,1,14.681,0,33.412,33.412,0,0,0,.13,30.6a238.876,238.876,0,0,0,34.723.134c1-.072,1.972-.154,2.936-.243A33.321,33.321,0,0,1,26.6,24.3Z" transform="translate(1.533 7.737)" fill="#bcb5b1" opacity="0.2" style="mix-blend-mode: multiply;isolation: isolate"/>
        <path id="Trazado_43161" data-name="Trazado 43161" d="M4.727,0S10.4,10.013,5.886,33.285L0,33.565S5.766,11.3,4.727,0Z" transform="translate(39.736 3.36)" fill="#f9b233"/>
        <path id="Trazado_43162" data-name="Trazado 43162" d="M0,0S10.967,10.41,11.866,30.44l5.562-.413S14.208,2,0,0Z" transform="translate(18.597 6.26)" fill="#f9b233"/>
        <path id="Trazado_43163" data-name="Trazado 43163" d="M0,5.765S12.842,12.683,14.879,36.68a44.762,44.762,0,0,0,11.228-.8s3.9-22.532.129-33.911C26.237,1.97,12.545-4.4,0,5.765Z" transform="translate(17.818)" fill="#c97106"/>
        <path id="Trazado_43164" data-name="Trazado 43164" d="M.566,6.093S37.781,9.244,68.42,0A13.3,13.3,0,0,1,70,7.352S49.176,16.8,1.3,13.807C1.3,13.807-1.045,11.142.566,6.093Z" transform="translate(0 27.806)" fill="#f39200"/>
        <path id="Trazado_43165" data-name="Trazado 43165" d="M4.938,5.3A7.055,7.055,0,0,1,3.646.856C1.667.749.566.656.566.656-1.045,5.7,1.3,8.369,1.3,8.369,49.176,11.358,70,1.914,70,1.914A11.6,11.6,0,0,0,70.017,0C62.187,2.54,41.41,7.6,4.938,5.3Z" transform="translate(0 33.243)" fill="#bcb5b1" opacity="0.2" style="mix-blend-mode: multiply;isolation: isolate"/>
      </g>
      <g id="Grupo_40208" data-name="Grupo 40208" transform="translate(678.131 502.082)">
        <path id="Trazado_43166" data-name="Trazado 43166" d="M697.4,580.306s-3.243,6.062,2.632,17.542c0,0,5.774-.38,8.756-1.82,2.168-1.047,4.222-3.719,4.179-8.307,0,0-.611-5.165-3.378-6.158A34.5,34.5,0,0,0,697.4,580.306Z" transform="translate(-688.941 -568.026)" fill="#fcc6ae"/>
        <path id="Trazado_43167" data-name="Trazado 43167" d="M710.811,602.661s1.4-3.95,4.556-3.538A8.649,8.649,0,0,0,710.811,602.661Z" transform="translate(-695.376 -576.536)" fill="#e8b09a"/>
        <g id="Grupo_40207" data-name="Grupo 40207" transform="translate(0 0)">
          <path id="Trazado_43168" data-name="Trazado 43168" d="M702.1,596.5a.989.989,0,0,0,1.334.423l3.916-1.97a.99.99,0,0,0,.456-1.323l-11.545-19.341a.989.989,0,0,0-1.334-.422l-1.015.511a.99.99,0,0,0-.456,1.323Z" transform="translate(-687.521 -565.138)" fill="#e94e1b"/>
          <path id="Trazado_43169" data-name="Trazado 43169" d="M706.918,592.221l-2.63,1.323a.99.99,0,0,1-1.334-.422l-7.981-19.2c-.016.007-.034.011-.05.019l-1.015.511a.99.99,0,0,0-.456,1.323l8.644,20.8a.99.99,0,0,0,1.335.423l3.916-1.97a.99.99,0,0,0,.456-1.323Z" transform="translate(-687.521 -565.212)" fill="#dd4319"/>
          <path id="Trazado_43170" data-name="Trazado 43170" d="M695.568,564.863l4.07-2.047-1.518-3.019-4.439,2.232Z" transform="translate(-687.67 -558.86)" fill="#575756"/>
          <path id="Trazado_43171" data-name="Trazado 43171" d="M682.795,571.023c-.23-6.347.551-6.166,2.921-7.358,1.96-.987,2.769-1.383,4.028-2.016a.636.636,0,0,1,.818.289l1.52,3.022c-1.277.687-.523,3.941-.211,4.485l-2.918,1.468s-1.129-1.65-1.514-2.194c-.683-.962-.914-1.154-1.353-1.092-1.322.183-.878,1.112-1.253,3.3-.192,1.116-.575,1.829-1.16,1.842C683.33,572.78,682.839,572.228,682.795,571.023Z" transform="translate(-682.756 -559.666)" fill="#575756"/>
          <path id="Trazado_43172" data-name="Trazado 43172" d="M683.618,577.121c.585-.013.966-.725,1.159-1.841.377-2.191-.068-3.121,1.254-3.3a.8.8,0,0,1,.779.35.707.707,0,0,0-.379-.036c-1.322.184-.878,1.114-1.253,3.3-.192,1.116-.575,1.828-1.16,1.841a.645.645,0,0,1-.491-.326A.379.379,0,0,0,683.618,577.121Z" transform="translate(-683.103 -564.333)" fill="#333332"/>
          <path id="Trazado_43173" data-name="Trazado 43173" d="M697.675,569.595c-.5-1.178-1.18-4.263.056-4.928l-1.52-3.022-.008-.012a.714.714,0,0,1,.408.326l1.52,3.023c-1.056.567-.706,2.908-.212,4.489Z" transform="translate(-688.805 -559.686)" fill="#333332"/>
          <rect id="Rect치ngulo_5588" data-name="Rect치ngulo 5588" width="2.607" height="4.203" transform="matrix(0.893, -0.449, 0.449, 0.893, 9.117, 1.172)" fill="#575756"/>
        </g>
        <path id="Trazado_43174" data-name="Trazado 43174" d="M692.131,581.685l-.49-1.223a5.776,5.776,0,0,0-3.1,1.018c-1.714,1.11-.577,4.4,1.661,5.018s6.58-.243,7.4-1.826C699.018,581.924,693.019,582.118,692.131,581.685Z" transform="translate(-684.985 -568.155)" fill="#e8b09a"/>
        <path id="Trazado_43175" data-name="Trazado 43175" d="M690.6,590.237a2.113,2.113,0,0,0-1.775,2.663c.484,2.339,6.592,2.817,8.561.558C698.979,591.634,697.3,589.073,690.6,590.237Z" transform="translate(-685.456 -572.421)" fill="#e8b09a"/>
        <path id="Trazado_43176" data-name="Trazado 43176" d="M691.713,598.375a2.112,2.112,0,0,0-1.521,2.816c.7,2.285,6.931,1.544,8.576-.233S698.281,596.6,691.713,598.375Z" transform="translate(-686.04 -575.944)" fill="#e8b09a"/>
        <path id="Trazado_43177" data-name="Trazado 43177" d="M715.069,587.215l-3.373-3.934-3.112,1.319-1.731,4.955.569.815a3.343,3.343,0,0,0,4.452-2.849,3.231,3.231,0,0,0,3.2-.305" transform="translate(-693.595 -569.424)" fill="#e8b09a"/>
        <path id="Trazado_43178" data-name="Trazado 43178" d="M714.387,585.375s.548-3.181-1.746-4.819c-2.15-1.533-5.909-1.794-7.177-.542s-2.057,6.946-.02,8.225,4.1-1.074,4.507-4.061C709.95,584.178,712.637,585.728,714.387,585.375Z" transform="translate(-692.4 -567.597)" fill="#fcc6ae"/>
        <path id="Trazado_43179" data-name="Trazado 43179" d="M695.294,605.939s-1.123,1,.069,2.751,5.569,1.448,6.2-.8-1.049-2.607-2.053-2.7A16.9,16.9,0,0,0,695.294,605.939Z" transform="translate(-688.18 -579.271)" fill="#e8b09a"/>
      </g>
    </g>
  </g>
</svg>
