<svg xmlns="http://www.w3.org/2000/svg" width="120" height="144" viewBox="0 0 120 144">
  <g id="Grupo_3995" data-name="Grupo 3995" transform="translate(-48 -120)">
    <rect id="Rectángulo_2130" data-name="Rectángulo 2130" width="120" height="144" transform="translate(48 120)" fill="none"/>
    <g id="Grupo_40190" data-name="Grupo 40190" transform="translate(-1289.498 -252.424)">
      <path id="Trazado_43023" data-name="Trazado 43023" d="M1465.384,465.745s13.663,10.363,12.961,16.991-9.644,6.2-18.316-.909A17.18,17.18,0,0,1,1465.384,465.745Z" transform="translate(-48.88 -29.054)" fill="#0e7992"/>
      <path id="Trazado_43024" data-name="Trazado 43024" d="M1465.384,465.745s2.355,1.786,5.059,4.349a13.154,13.154,0,0,0,2.421,11.747,10.621,10.621,0,0,0,5.059,2.6c-1.993,4.773-10.053,3.808-17.894-2.618A17.18,17.18,0,0,1,1465.384,465.745Z" transform="translate(-48.88 -29.054)" fill="#006070" opacity="0.7"/>
      <path id="Trazado_43025" data-name="Trazado 43025" d="M1415.5,453.255l5.682-4.175s4.795,5.424,5.072,19.231,8.534,12.42,10.824,10.477,4.579-7.147,10.2-4.857,3.4,18.8-11.865,19.5a21.471,21.471,0,0,1-9.644-2.082c-4.232-2.29-4.441,2.845,2.567,4.788s7.077,15.542-12.836,10.13a37.363,37.363,0,0,1-12.7-8.257c-4.094-3.938-4.924.158-3.568,2.028,1.711,2.36-1.983,9.125-17.178,1.475-17.585-8.853-18.734-40.555-8.742-55.819Z" transform="translate(-7.007 -19.996)" fill="#fccc05"/>
      <path id="Trazado_43026" data-name="Trazado 43026" d="M1409.623,523.311c-1.356-1.87-.526-5.966,3.568-2.028a37.362,37.362,0,0,0,12.7,8.257c19.913,5.412,19.844-8.188,12.836-10.13s-6.8-7.077-2.567-4.788a21.472,21.472,0,0,0,9.644,2.082c6.443-.293,10.563-3.4,12.749-7.076-13.354,9.016-35.2-2.638-33.78-12.408l-34.707,2.666s-1.629,17.843,12.021,28.276C1409.2,529.209,1410.888,525.056,1409.623,523.311Z" transform="translate(-17.393 -43.272)" fill="#dbb100" opacity="0.5"/>
      <path id="Trazado_43027" data-name="Trazado 43027" d="M1367.011,469.929c5.665,2.9,24.443,11.1,45.674,5.08l-1.9-22.6-37.47-6.718C1369.238,451.923,1367.017,460.892,1367.011,469.929Z" transform="translate(-7.007 -19.996)" fill="#dbb100" opacity="0.5"/>
      <circle id="Elipse_1096" data-name="Elipse 1096" cx="4.674" cy="4.674" r="4.674" transform="translate(1359.448 438.896)" fill="#d3927a"/>
      <circle id="Elipse_1097" data-name="Elipse 1097" cx="24.676" cy="24.676" r="24.676" transform="translate(1364.027 418.844)" fill="#e2a388"/>
      <path id="Trazado_43028" data-name="Trazado 43028" d="M1426.175,458.712a24.565,24.565,0,0,0-7.479-13.524A24.678,24.678,0,0,1,1380.771,476a24.679,24.679,0,0,0,45.4-17.29Z" transform="translate(-13.223 -19.769)" fill="#d69680" opacity="0.62"/>
      <path id="Trazado_43029" data-name="Trazado 43029" d="M1378.823,450.905s-1.29,9.421-4.917,11c0,0-4.257-8.452,4.546-12.355Z" transform="translate(-9.657 -21.74)" fill="#fccc05"/>
      <circle id="Elipse_1098" data-name="Elipse 1098" cx="4.674" cy="4.674" r="4.674" transform="translate(1408.999 442.124)" fill="#e2a388"/>
      <circle id="Elipse_1099" data-name="Elipse 1099" cx="4.674" cy="4.674" r="4.674" transform="translate(1408.999 442.124)" fill="#d69680" opacity="0.62"/>
      <path id="Trazado_43030" data-name="Trazado 43030" d="M1420.554,437.139c-2.789-6.184-10.142-11.681-20.746-13.98-13.182-2.858-16.583,2.983-19.635,2.845s-6.534-6.215-11.762-4.434c-7.943,2.706-7.943,15.195,5.279,19.887a10.833,10.833,0,0,0,9.724-1.507s1.15,9.9,13.076,5.843c0,0,6.253,4.605,10.508-1.482,0,0,2.308,4.646,6.921,4.811,0,0,.7,2.241,4.614,1.968l5.31-.881A40.208,40.208,0,0,0,1420.554,437.139Z" transform="translate(-5.19 -8.953)" fill="#fccc05"/>
      <path id="Trazado_43031" data-name="Trazado 43031" d="M1466.048,481.824a1.78,1.78,0,0,0-2.458,1.055c-.666,1.833.672,2.445,1.331,2.469a.8.8,0,0,0,.478-1.377c-.516-.388-1.066.159-1.066.159S1464.058,482.009,1466.048,481.824Z" transform="translate(-50.551 -36.243)" fill="#c18370"/>
      <path id="Trazado_43032" data-name="Trazado 43032" d="M1370.971,474.965a1.509,1.509,0,0,1,1.636,1.571c-.019,1.655-1.264,1.74-1.793,1.563a.681.681,0,0,1,.031-1.236c.526-.153.8.445.8.445A1.672,1.672,0,0,0,1370.971,474.965Z" transform="translate(-8.553 -33.219)" fill="#c18370"/>
      <g id="Grupo_40186" data-name="Grupo 40186" transform="translate(1370.11 401.424)">
        <path id="Trazado_43033" data-name="Trazado 43033" d="M1433.719,438.719s10.764-24.056-11.444-33.49c-19.631-8.338-32.611-2.514-36.831,12.969a101.108,101.108,0,0,1,26.771,6.73C1426.421,430.662,1433.719,438.719,1433.719,438.719Z" transform="translate(-1385.443 -401.424)" fill="#2bbee0"/>
        <path id="Trazado_43034" data-name="Trazado 43034" d="M1431.631,404.1a53.6,53.6,0,0,0-7.78-2.656,42.76,42.76,0,0,1,15.772,3.793c22.208,9.433,11.445,33.49,11.445,33.49a45.854,45.854,0,0,0-6.521-5.556C1446.474,425.776,1447.9,411.016,1431.631,404.1Z" transform="translate(-1402.792 -401.435)" fill="#4295a8" opacity="0.47"/>
        <path id="Trazado_43035" data-name="Trazado 43035" d="M1434.114,431.665l-17.644-6.751-.737,4.752,16.2,5.886Z" transform="translate(-1399.125 -412.034)" fill="#4295a8"/>
        <path id="Trazado_43036" data-name="Trazado 43036" d="M1433.786,433.244l-1.177,2.313-15.272-5.271.592-3.291Z" transform="translate(-1399.849 -412.974)" fill="#f8cf48"/>
        <g id="Grupo_40185" data-name="Grupo 40185" transform="translate(24.936 9.968)">
          <g id="Grupo_40184" data-name="Grupo 40184">
            <g id="Grupo_40183" data-name="Grupo 40183">
              <g id="Grupo_40181" data-name="Grupo 40181">
                <path id="Trazado_43037" data-name="Trazado 43037" d="M1432.268,420.775a.867.867,0,0,0-.173,1.213l.054.072s-.766.436-.5,1l-.355-.473a1.866,1.866,0,1,1,2.984-2.241l.054.071a.852.852,0,0,1-.127,1.233l-.127.1-.569-.758-.031-.041a.868.868,0,0,0-1.213-.172" transform="translate(-1430.923 -419.603)" fill="#4295a8"/>
              </g>
              <g id="Grupo_40182" data-name="Grupo 40182" transform="translate(1.121 1.616)">
                <path id="Trazado_43038" data-name="Trazado 43038" d="M1435.242,424.837a.868.868,0,0,0,.172-1.213l-.054-.072s.766-.436.5-1l.355.473a1.866,1.866,0,0,1-2.984,2.241l-.054-.072a.851.851,0,0,1,.126-1.232l.127-.1.569.758.031.041a.868.868,0,0,0,1.213.172" transform="translate(-1432.968 -422.551)" fill="#4295a8"/>
              </g>
            </g>
            <path id="Trazado_43039" data-name="Trazado 43039" d="M1434.437,422.757l.88,1.172a.285.285,0,0,1-.456.342l-.881-1.172a.285.285,0,0,1,.456-.342Z" transform="translate(-1432.279 -420.976)" fill="#4295a8"/>
          </g>
        </g>
      </g>
      <path id="Trazado_43040" data-name="Trazado 43040" d="M1374.4,428.476l4.222-5.719s2.12,1.046,8.456,6.022l-4.272,5.8Z" transform="translate(-10.345 -9.636)" fill="#fccc05"/>
      <path id="Trazado_43041" data-name="Trazado 43041" d="M1406.969,500.6a3.434,3.434,0,0,1-3.424-3.229.549.549,0,0,1,.514-.58h.034a.547.547,0,0,1,.546.515,2.346,2.346,0,0,0,2.341,2.2c.044,0,.089,0,.135,0a2.339,2.339,0,0,0,2.194-2.475.548.548,0,0,1,.514-.58h.034a.547.547,0,0,1,.546.515,3.435,3.435,0,0,1-3.223,3.634C1407.109,500.6,1407.039,500.6,1406.969,500.6Z" transform="translate(-23.51 -42.922)" fill="#4d4d4d"/>
      <g id="Grupo_40187" data-name="Grupo 40187" transform="translate(1362.995 432.102)">
        <path id="Trazado_43042" data-name="Trazado 43042" d="M1399.34,468.125a9.5,9.5,0,0,0-7.681-9.63,9.5,9.5,0,0,1-5.175,18.217,9.5,9.5,0,0,0,12.856-8.587Z" transform="translate(-1378.798 -457.882)" fill="#bbe2ef"/>
        <rect id="Rectángulo_5583" data-name="Rectángulo 5583" width="2.928" height="8.562" transform="translate(18.579 12.88) rotate(-81.081)" fill="#4d4d4d"/>
        <circle id="Elipse_1100" data-name="Elipse 1100" cx="9.503" cy="9.503" r="9.503" transform="translate(0 0)" fill="#d0ecf4"/>
        <path id="Trazado_43043" data-name="Trazado 43043" d="M1386.287,457.381c.153,0,.3.014.456.026l5.363,16.739a9.469,9.469,0,0,1-5.067,2.177l-5.685-17.743A9.463,9.463,0,0,1,1386.287,457.381Z" transform="translate(-1376.481 -457.376)" fill="#fafeff" opacity="0.69"/>
        <path id="Trazado_43044" data-name="Trazado 43044" d="M1444.559,474.719a9.5,9.5,0,0,0-7.681-9.63,9.5,9.5,0,0,1-5.175,18.217,9.5,9.5,0,0,0,12.856-8.587Z" transform="translate(-1399.224 -460.86)" fill="#bbe2ef"/>
        <rect id="Rectángulo_5584" data-name="Rectángulo 5584" width="7.433" height="2.929" transform="translate(41.699 12.465) rotate(-5.766)" fill="#4d4d4d"/>
        <circle id="Elipse_1101" data-name="Elipse 1101" cx="9.503" cy="9.503" r="9.503" transform="translate(24.793 3.616)" fill="#d0ecf4"/>
        <path id="Trazado_43045" data-name="Trazado 43045" d="M1431.506,463.975c.153,0,.3.014.456.026l5.363,16.739a9.467,9.467,0,0,1-5.067,2.177l-5.685-17.743A9.46,9.46,0,0,1,1431.506,463.975Z" transform="translate(-1396.907 -460.355)" fill="#fafeff" opacity="0.69"/>
      </g>
      <path id="Trazado_43046" data-name="Trazado 43046" d="M1374.078,524.144s5.3-2.322,4.408-5.532-5.575-8.024-6.757-8.157l-9.089,11.982S1365.037,528.347,1374.078,524.144Z" transform="translate(-5.033 -49.25)" fill="#e2a388"/>
      <path id="Trazado_43047" data-name="Trazado 43047" d="M1368.761,507.031l1.228-1.454s-9.294-9.582-13.253-9.994-4.272,3.256-2.132,5.233,10.293,7.457,10.293,7.457Z" transform="translate(-0.81 -42.518)" fill="#e2a388"/>
      <path id="Trazado_43048" data-name="Trazado 43048" d="M1359.072,506.071s-5.232,6.162-5.262,8.343,3.024,9.294,11.507,9.373Z" transform="translate(-1.044 -47.27)" fill="#e2a388"/>
      <g id="Grupo_40189" data-name="Grupo 40189" transform="translate(1351.498 450.084)">
        <path id="Trazado_43049" data-name="Trazado 43049" d="M1367.447,504.526l.247,19.186s-6.7,2.9-11.119,1.138l-3.917-19.341a14.2,14.2,0,0,1,7.478-2.284A25.994,25.994,0,0,1,1367.447,504.526Z" transform="translate(-1352.022 -496.067)" fill="#e4e5ef"/>
        <path id="Trazado_43050" data-name="Trazado 43050" d="M1366.28,501.632l1.49,14.751-1.892.223-1.265-15.243Z" transform="translate(-1357.422 -495.227)" fill="#f2f0dd"/>
        <path id="Trazado_43051" data-name="Trazado 43051" d="M1357.179,523.669l1.744,8.216a1.509,1.509,0,0,0,1.317,1.188,20.7,20.7,0,0,0,7.962-1.049,1.5,1.5,0,0,0,1.042-1.45l-.095-8.976s-1.723,1.867-6.46,2.339S1357.179,523.669,1357.179,523.669Z" transform="translate(-1354.064 -504.368)" fill="#603813"/>
        <path id="Trazado_43052" data-name="Trazado 43052" d="M1363.218,523.586s6-.94,5.919-2.618-8.025-.066-8.23-.008-4.024.739-3.74,2.078S1363.218,523.586,1363.218,523.586Z" transform="translate(-1354.052 -503.737)" fill="#72421a"/>
        <path id="Trazado_43053" data-name="Trazado 43053" d="M1366.931,521.113s-5.294.575-6.39,1.306,1.968,1.688,4.192,1.052c0,0-3.255.064-3.387-.627s5.625-1.647,6.131-1.26-1.344,1.086-2.845,1.189c0,0,.647.462,2.751-.315S1368.559,521,1366.931,521.113Z" transform="translate(-1355.479 -504.143)" fill="#603813"/>
        <path id="Trazado_43054" data-name="Trazado 43054" d="M1366.83,518.581l1.021-.068.244,2.409a2.911,2.911,0,0,1-1.824.344l-.221-2.658Z" transform="translate(-1358.071 -502.974)" fill="#f2f0dd"/>
        <path id="Trazado_43055" data-name="Trazado 43055" d="M1360.54,533.123s.547,4.369,1.394,4.589c0,0-1.114.4-1.518-.41a30,30,0,0,1-1.009-4.2Z" transform="translate(-1355.071 -509.563)" fill="#e0d8d3"/>
        <path id="Trazado_43056" data-name="Trazado 43056" d="M1360.274,531.284l-1.133-.022.1.658,1.123-.048Z" transform="translate(-1354.95 -508.733)" fill="#e0d8d3"/>
        <path id="Trazado_43057" data-name="Trazado 43057" d="M1356.817,502.126l9.772-.673.947,2.661A30.4,30.4,0,0,1,1351.5,505.9l.369-2.8Z" transform="translate(-1351.498 -495.268)" fill="#cbcdd8"/>
        <path id="Trazado_43058" data-name="Trazado 43058" d="M1352.171,502.131c.116.957,3.292,1.358,7.751.817s7.085-1.523,6.968-2.48-2.929-1.525-7.389-.984S1352.055,501.174,1352.171,502.131Z" transform="translate(-1351.801 -494.284)" fill="#b9bcc9"/>
        <path id="Trazado_43059" data-name="Trazado 43059" d="M1361.251,502.733c4.515-.654,5.544-1.587,5.556-1.784-.033-.274-1.9-1.135-6.82-.538-.287.035-.568.072-.842.112-4.355.631-5.929,1.644-6.039,1.966.243.4,2.619.925,7.178.372Q1360.784,502.8,1361.251,502.733Z" transform="translate(-1352.224 -494.704)" fill="#c0c2cc"/>
        <ellipse id="Elipse_1102" data-name="Elipse 1102" cx="1.657" cy="0.467" rx="1.657" ry="0.467" transform="matrix(0.99, -0.143, 0.143, 0.99, 6.152, 4.868)" fill="#b9bcc9"/>
        <path id="Trazado_43060" data-name="Trazado 43060" d="M1365.5,497.067l-.353-4.333,4.927-.714a2.973,2.973,0,0,1-.3-1.835l-5.784,1.2.392,5.558S1364.6,497.365,1365.5,497.067Z" transform="translate(-1357.141 -490.178)" fill="#f2f0dd"/>
        <path id="Trazado_43061" data-name="Trazado 43061" d="M1373.944,491.246c.114.453.341.807.612.768s.436-.446.369-.91-.365-.969-.635-.93S1373.83,490.792,1373.944,491.246Z" transform="translate(-1361.622 -490.172)" fill="#e5e2cc"/>
        <g id="Grupo_40188" data-name="Grupo 40188" transform="translate(6.103 4.855)">
          <path id="Trazado_43062" data-name="Trazado 43062" d="M1362.745,499.5c.037.255.8.356,1.707.225s1.61-.445,1.573-.7l.47,1.78c-1.48,1.333-3.866.56-3.866.56Z" transform="translate(-1362.629 -499.027)" fill="#cbcdd8"/>
        </g>
        <path id="Trazado_43063" data-name="Trazado 43063" d="M1367.972,511.145l.094,3.41a38.079,38.079,0,0,1-12.327,1.785l-.682-3.325A35.193,35.193,0,0,0,1367.972,511.145Z" transform="translate(-1353.105 -499.646)" fill="#e00b71"/>
        <path id="Trazado_43064" data-name="Trazado 43064" d="M1369.5,525.743a26.269,26.269,0,0,1-11.6,1.679l.2.945s6.989.449,11.405-1.651Z" transform="translate(-1354.393 -506.24)" fill="#e00b71"/>
      </g>
      <path id="Trazado_43065" data-name="Trazado 43065" d="M1381.887,519.351a2.665,2.665,0,0,0-2.959-1.076c-1.951.544-4.869,3.744-4.511,5.354s1.692,2.2,3.637,1.206a17.673,17.673,0,0,0,3.442-2.348Z" transform="translate(-10.339 -52.732)" fill="#e2a388"/>
      <path id="Trazado_43066" data-name="Trazado 43066" d="M1381.546,519.114a2.811,2.811,0,0,0-3.823-1.07c-2.382,1.343-4.727,4.146-3.933,6.055s2.95,1.482,4.026.9a25.351,25.351,0,0,0,3.339-2.751s-4.159,3.022-5.759,2.39-1.014-3.14,1.866-5.529C1379.266,517.447,1381.546,519.114,1381.546,519.114Z" transform="translate(-9.998 -52.495)" fill="#d3927a"/>
    </g>
  </g>
</svg>
