<svg xmlns="http://www.w3.org/2000/svg" width="165.107" height="45.171" viewBox="0 0 165.107 45.171">
  <g id="Grupo_34608" data-name="Grupo 34608" transform="translate(-763.656 -3729.002)">
    <g id="Grupo_34605" data-name="Grupo 34605" transform="translate(763.656 3729.002)">
      <g id="Grupo_34604" data-name="Grupo 34604">
        <g id="Grupo_34603" data-name="Grupo 34603">
          <g id="Grupo_34601" data-name="Grupo 34601" transform="translate(12.607)">
            <path id="Trazado_41677" data-name="Trazado 41677" d="M814.7,3740.5a7.964,7.964,0,0,1,0,11.251l-.581.581s6.4,4.958,3.228,9.75l3.842-3.842a17.133,17.133,0,0,0-24.229-24.23l-.581.581c-2.043,2.043-4.764,7.047-.444,11.368l1.027,1.027,6.155-6.154.333-.333a7.966,7.966,0,0,1,11.251,0" transform="translate(-793.64 -3729.002)" fill="#2bbee0"/>
          </g>
          <g id="Grupo_34602" data-name="Grupo 34602" transform="translate(0 12.089)">
            <path id="Trazado_41678" data-name="Trazado 41678" d="M775.155,3779.337a7.965,7.965,0,0,1,0-11.251l.581-.581s-6.4-4.958-3.228-9.75l-3.842,3.842a17.133,17.133,0,1,0,24.229,24.23l.581-.581c2.043-2.042,4.764-7.048.444-11.368l-1.027-1.027L786.738,3779l-.333.333a7.964,7.964,0,0,1-11.251,0" transform="translate(-763.656 -3757.755)" fill="#2bbee0"/>
          </g>
        </g>
        <path id="Trazado_41679" data-name="Trazado 41679" d="M810.119,3765.949l-9.516,9.516a2.617,2.617,0,0,0,3.7,3.7l9.516-9.517a2.617,2.617,0,0,0-3.7-3.7Z" transform="translate(-784.626 -3749.972)" fill="#2bbee0"/>
      </g>
    </g>
    <g id="Grupo_34607" data-name="Grupo 34607" transform="translate(814.841 3732.848)">
      <g id="Grupo_34606" data-name="Grupo 34606">
        <path id="Trazado_41680" data-name="Trazado 41680" d="M900.654,3778.571a5.3,5.3,0,0,1-5.457.572,4.781,4.781,0,0,1-2.854-3.268,5.35,5.35,0,0,1,0-3.135,4.778,4.778,0,0,1,2.854-3.273,5.319,5.319,0,0,1,5.511.607,4.036,4.036,0,0,0,1.29.744,4.3,4.3,0,0,0,5.473-2.627,11.892,11.892,0,1,0,0,12.185s-2.08-3.632-5.938-2.275A6.5,6.5,0,0,0,900.654,3778.571Z" transform="translate(-885.394 -3752.224)" fill="#2bbee0"/>
        <path id="Trazado_41681" data-name="Trazado 41681" d="M1031.421,3772.393v0c-.01-.155-.021-.309-.036-.462l-.016.036a12.183,12.183,0,0,0-24.189.429,12.36,12.36,0,0,0-.062,1.235,12.183,12.183,0,0,0,19.03,10.078l.059-.125a5.009,5.009,0,0,0,4.2,1.931h1.045v-12.291c0-.279-.013-.554-.031-.828Zm-6.388,1.185a5.69,5.69,0,0,1-11.38-.005v-.016a5.69,5.69,0,1,1,11.38,0Z" transform="translate(-955.938 -3751.65)" fill="#2bbee0"/>
        <path id="Trazado_41682" data-name="Trazado 41682" d="M1082.146,3762.647h-1.127c-4.74,0-5.993,4.238-5.993,6.479v4.186h.012v6.375a6.768,6.768,0,0,0,1.527,4.774,5.766,5.766,0,0,0,4.467,1.748h1.127v-12.9h-.013Z" transform="translate(-995.295 -3752.347)" fill="#2bbee0"/>
        <path id="Trazado_41683" data-name="Trazado 41683" d="M1077.922,3738.149a4.119,4.119,0,1,0,4.119,4.119A4.119,4.119,0,0,0,1077.922,3738.149Z" transform="translate(-994.585 -3738.149)" fill="#2bbee0"/>
        <path id="Trazado_41684" data-name="Trazado 41684" d="M959.059,3749.262c-3.171-.044-5.385.833-6.75,2.2l0-2.814,0-1.746v-6.226h-1.116a5.44,5.44,0,0,0-4.743,2.407,7.542,7.542,0,0,0-1.192,4.01l-.055,20.171a7.125,7.125,0,0,0,1.2,3.887,5.468,5.468,0,0,0,4.739,2.326h1.116v-.019h.067v-12.846l.008,0c0-3.344,1.79-4.851,4.38-4.851,2.261,0,4.1,1.366,4.1,4.286l.013.28v6.709a8.326,8.326,0,0,0,.7,3.113,5.387,5.387,0,0,0,5.233,3.3h1.116v-14.442C967.866,3752.653,963.816,3749.328,959.059,3749.262Z" transform="translate(-920.053 -3739.611)" fill="#2bbee0"/>
        <path id="Trazado_41685" data-name="Trazado 41685" d="M1116.149,3761.1c-4.458-.067-6.4,1.459-7.671,3.2a4.634,4.634,0,0,0-.413-.593,5.418,5.418,0,0,0-4.583-2.154h-1.121v10.1s-.012.888-.012,1.366v5.8c0,2.229,1.246,6.445,5.96,6.445h1.1l0,.04v-.04h.017v-12.245s0-.424,0-1.082c.175-2.989,1.909-4.374,4.363-4.342,4.356.057,4.166,4.487,4.166,4.487v6.737a8.357,8.357,0,0,0,.706,3.126,5.408,5.408,0,0,0,5.255,3.319h1.121v-13.182S1125.715,3761.244,1116.149,3761.1Z" transform="translate(-1011.129 -3751.449)" fill="#2bbee0"/>
      </g>
    </g>
  </g>
</svg>
