<svg id="Capa_1" data-name="Capa 1" xmlns="http://www.w3.org/2000/svg" viewBox="0 0 232.96 64"><defs><style>.cls-1{fill:#fccc05;}.cls-2{fill:#6d31fd;}</style></defs><title>Mesa de trabajo 1</title><path class="cls-1" d="M49.11,16.49a11.14,11.14,0,0,1,0,15.74l-.82.81s9,6.94,4.52,13.64l5.37-5.37A24,24,0,0,0,24.29,7.41l-.82.81c-2.85,2.86-6.66,9.86-.62,15.91l1.44,1.44L32.9,17l.47-.47a11.14,11.14,0,0,1,15.74,0"/><path class="cls-1" d="M18.09,47.51a11.14,11.14,0,0,1,0-15.74L18.9,31s-9-6.94-4.52-13.64L9,22.69a24,24,0,0,0,33.9,33.9l.81-.81c2.86-2.86,6.66-9.86.62-15.91L42.9,38.43,34.29,47l-.46.47a11.14,11.14,0,0,1-15.74,0"/><path class="cls-1" d="M37.66,22.75,24.35,36.07a3.66,3.66,0,0,0,5.18,5.18L42.84,27.93a3.66,3.66,0,1,0-5.18-5.18Z"/><path class="cls-2" d="M98.33,42.64a7.38,7.38,0,0,1-7.63.8,6.66,6.66,0,0,1-4-4.57,7.23,7.23,0,0,1-.33-2.2,7.58,7.58,0,0,1,.32-2.19,6.7,6.7,0,0,1,4-4.57,7.4,7.4,0,0,1,7.71.85,5.94,5.94,0,0,0,1.8,1c5.67,1.8,7.66-3.68,7.66-3.68A16.64,16.64,0,0,0,77,36.67,16.29,16.29,0,0,0,93.65,53.28a16.07,16.07,0,0,0,14.22-8.11S105,40.09,99.56,42A10.11,10.11,0,0,0,98.33,42.64Z"/><path class="cls-2" d="M178.67,34.8h0c0-.22,0-.43,0-.65l0,.05a17,17,0,0,0-33.84.6,16.56,16.56,0,0,0-.09,1.73,17,17,0,0,0,26.62,14.1l.08-.18a7,7,0,0,0,5.88,2.71h1.46V36c0-.39,0-.77,0-1.16Zm-8.94,1.66a8,8,0,0,1-15.92,0v0a8,8,0,1,1,15.92,0Z"/><path class="cls-2" d="M192.86,20.19h-1.58c-6.63,0-8.38,5.93-8.38,9.07v5.85h0V44a9.46,9.46,0,0,0,2.13,6.68,8.1,8.1,0,0,0,6.25,2.45h1.58v-18h0Z"/><path class="cls-2" d="M187.94,5.78a5.77,5.77,0,1,0,5.77,5.77A5.76,5.76,0,0,0,187.94,5.78Z"/><path class="cls-2" d="M129.3,19.29c-4.43-.07-7.53,1.16-9.44,3.07V7.27h-1.56a7.59,7.59,0,0,0-6.63,3.37A10.52,10.52,0,0,0,110,16.25l-.08,28.21a10,10,0,0,0,1.67,5.44,7.66,7.66,0,0,0,6.63,3.26h1.56v0h.1v-18h0c0-4.68,2.5-6.79,6.13-6.79,3.16,0,5.73,1.91,5.73,6l0,.4v9.38a11.67,11.67,0,0,0,1,4.36,7.55,7.55,0,0,0,7.32,4.62h1.56V32.92C141.62,24,136,19.38,129.3,19.29Z"/><path class="cls-2" d="M217.15,19.29c-6.23-.1-9,2-10.73,4.48a5.72,5.72,0,0,0-.58-.83,7.57,7.57,0,0,0-6.41-3h-1.57V34.06s0,1.24,0,1.91v8.11c0,3.12,1.74,9,8.34,9h1.54v0h0V34.45c.25-4.18,2.67-6.12,6.11-6.07,6.09.08,5.83,6.28,5.83,6.28v9.42a11.71,11.71,0,0,0,1,4.37A7.58,7.58,0,0,0,228,53.1h1.57V34.66S230.54,19.49,217.15,19.29Z"/></svg>