<svg id="Capa_1" data-name="Capa 1" xmlns="http://www.w3.org/2000/svg" viewBox="0 0 2048 2048"><defs><style>.cls-1{fill:#fccc05;}</style></defs><title>Mesa de trabajo 5</title><path class="cls-1" d="M1508.32,523.62c137.73,137.73,137.73,361.85,0,499.58L1482.53,1049s284.31,220.17,143.35,433l170.59-170.59c296.61-296.62,296.61-779.26,0-1075.88s-779.26-296.61-1075.88,0l-25.78,25.78C604.1,352,483.27,574.2,675.11,766l45.6,45.6L994,538.36l14.79-14.79c137.73-137.73,361.85-137.73,499.58,0"/><path class="cls-1" d="M523.82,1508.13c-137.74-137.73-137.74-361.85,0-499.59l25.78-25.78S265.3,762.58,406.26,549.81L235.67,720.4c-296.62,296.62-296.62,779.26,0,1075.88s779.26,296.61,1075.88,0l25.78-25.79c90.71-90.7,211.54-312.93,19.7-504.77l-45.6-45.6-273.29,273.28-14.79,14.78c-137.73,137.74-361.85,137.74-499.58,0"/><path class="cls-1" d="M1145.18,722.44,722.63,1145c-45.19,45.19-45.19,119.13,0,164.32s119.14,45.19,164.33,0l422.55-422.55c45.19-45.19,45.19-119.14,0-164.33S1190.37,677.25,1145.18,722.44Z"/></svg>