<svg xmlns="http://www.w3.org/2000/svg" width="489.811" height="892.397" viewBox="0 0 489.811 892.397">
  <g id="Grupo_34600" data-name="Grupo 34600" transform="translate(56.233 86.629)">
    <g id="Grupo_34597" data-name="Grupo 34597" transform="translate(594.02 293.961)">
      <g id="Grupo_34521" data-name="Grupo 34521" transform="translate(-650.003 -185.495)">
        <g id="Grupo_34520" data-name="Grupo 34520" transform="translate(0)">
          <g id="Grupo_34519" data-name="Grupo 34519">
            <g id="Grupo_34517" data-name="Grupo 34517" transform="translate(29.589)">
              <path id="Trazado_41635" data-name="Trazado 41635" d="M-148.205,448.954a18.694,18.694,0,0,1,0,26.407l-1.363,1.363s15.028,11.638,7.577,22.885l9.017-9.017a40.257,40.257,0,0,0,0-56.868,40.257,40.257,0,0,0-56.868,0l-1.363,1.363c-4.794,4.794-11.182,16.541-1.041,26.681l2.41,2.41,14.445-14.445.782-.782a18.694,18.694,0,0,1,26.407,0" transform="translate(197.644 -421.965)" fill="none" stroke="#2bbee0" stroke-linecap="round" stroke-linejoin="round" stroke-width="0.5"/>
            </g>
            <g id="Grupo_34518" data-name="Grupo 34518" transform="translate(0 28.374)">
              <path id="Trazado_41636" data-name="Trazado 41636" d="M-292.49,589.452a18.694,18.694,0,0,1,0-26.407l1.363-1.363s-15.028-11.638-7.577-22.884l-9.017,9.017a40.258,40.258,0,0,0,0,56.868,40.257,40.257,0,0,0,56.868,0l1.363-1.363c4.794-4.795,11.182-16.541,1.042-26.681l-2.411-2.411L-265.3,588.673l-.782.782a18.694,18.694,0,0,1-26.407,0" transform="translate(319.479 -538.798)" fill="none" stroke="#2bbee0" stroke-linecap="round" stroke-linejoin="round" stroke-width="0.5"/>
            </g>
          </g>
          <path id="Trazado_41637" data-name="Trazado 41637" d="M-148.326,570.784l-22.335,22.335a6.16,6.16,0,0,0,0,8.686,6.16,6.16,0,0,0,8.686,0l22.335-22.335a6.16,6.16,0,0,0,0-8.686A6.16,6.16,0,0,0-148.326,570.784Z" transform="translate(208.159 -533.286)" fill="none" stroke="#2bbee0" stroke-miterlimit="10" stroke-width="0.5"/>
        </g>
      </g>
      <g id="Grupo_34531" data-name="Grupo 34531" transform="translate(-438.412 -380.34)">
        <g id="Grupo_34530" data-name="Grupo 34530" transform="translate(0 0)">
          <g id="Grupo_34529" data-name="Grupo 34529">
            <g id="Grupo_34527" data-name="Grupo 34527" transform="translate(29.589)">
              <path id="Trazado_41641" data-name="Trazado 41641" d="M723.05-353.351a18.694,18.694,0,0,1,0,26.407l-1.363,1.363s15.028,11.638,7.577,22.885l9.017-9.017a40.258,40.258,0,0,0,0-56.868,40.257,40.257,0,0,0-56.868,0l-1.363,1.363c-4.795,4.794-11.181,16.541-1.041,26.681l2.41,2.41,14.445-14.445.782-.782a18.694,18.694,0,0,1,26.407,0" transform="translate(-673.611 380.34)" fill="none" stroke="#2bbee0" stroke-linecap="round" stroke-linejoin="round" stroke-width="0.5"/>
            </g>
            <g id="Grupo_34528" data-name="Grupo 34528" transform="translate(0 28.374)">
              <path id="Trazado_41642" data-name="Trazado 41642" d="M578.765-212.853a18.693,18.693,0,0,1,0-26.407l1.363-1.363s-15.028-11.638-7.577-22.884l-9.017,9.017a40.258,40.258,0,0,0,0,56.868,40.257,40.257,0,0,0,56.868,0l1.363-1.363c4.794-4.794,11.181-16.541,1.041-26.681l-2.41-2.411-14.445,14.445-.782.782a18.694,18.694,0,0,1-26.407,0" transform="translate(-551.776 263.507)" fill="none" stroke="#2bbee0" stroke-linecap="round" stroke-linejoin="round" stroke-width="0.5"/>
            </g>
          </g>
          <path id="Trazado_41643" data-name="Trazado 41643" d="M722.929-231.521l-22.335,22.335a6.16,6.16,0,0,0,0,8.686,6.16,6.16,0,0,0,8.686,0l22.335-22.335a6.16,6.16,0,0,0,0-8.686A6.16,6.16,0,0,0,722.929-231.521Z" transform="translate(-663.096 269.019)" fill="none" stroke="#2bbee0" stroke-miterlimit="10" stroke-width="0.5"/>
        </g>
      </g>
      <g id="Grupo_34536" data-name="Grupo 34536" transform="translate(-544.429 -284.437)">
        <g id="Grupo_34535" data-name="Grupo 34535" transform="translate(0 0)">
          <g id="Grupo_34534" data-name="Grupo 34534">
            <g id="Grupo_34532" data-name="Grupo 34532" transform="translate(29.589)">
              <path id="Trazado_41644" data-name="Trazado 41644" d="M286.51,41.545a18.694,18.694,0,0,1,0,26.407l-1.363,1.363s15.028,11.638,7.577,22.885l9.017-9.017a40.212,40.212,0,1,0-56.868-56.868l-1.363,1.363c-4.794,4.794-11.182,16.541-1.041,26.681l2.41,2.41,14.445-14.445.782-.782a18.694,18.694,0,0,1,26.407,0" transform="translate(-237.071 -14.556)" fill="none" stroke="#2bbee0" stroke-linecap="round" stroke-linejoin="round" stroke-width="0.5"/>
            </g>
            <g id="Grupo_34533" data-name="Grupo 34533" transform="translate(0 28.374)">
              <path id="Trazado_41645" data-name="Trazado 41645" d="M142.225,182.043a18.694,18.694,0,0,1,0-26.407l1.363-1.363s-15.028-11.638-7.577-22.884l-9.017,9.017a40.212,40.212,0,1,0,56.868,56.868l1.363-1.363c4.794-4.794,11.182-16.541,1.042-26.681l-2.411-2.411-14.445,14.445-.782.782a18.694,18.694,0,0,1-26.407,0" transform="translate(-115.236 -131.389)" fill="none" stroke="#2bbee0" stroke-linecap="round" stroke-linejoin="round" stroke-width="0.5"/>
            </g>
          </g>
          <path id="Trazado_41646" data-name="Trazado 41646" d="M286.389,163.375,264.054,185.71a6.142,6.142,0,1,0,8.686,8.686l22.335-22.335a6.142,6.142,0,1,0-8.686-8.686Z" transform="translate(-226.556 -125.877)" fill="none" stroke="#2bbee0" stroke-miterlimit="10" stroke-width="0.5"/>
        </g>
      </g>
      <g id="Grupo_34541" data-name="Grupo 34541" transform="translate(-514.619 -164.652)">
        <g id="Grupo_34540" data-name="Grupo 34540" transform="translate(0)">
          <g id="Grupo_34539" data-name="Grupo 34539">
            <g id="Grupo_34537" data-name="Grupo 34537" transform="translate(29.589)">
              <path id="Trazado_41647" data-name="Trazado 41647" d="M409.258,534.778a18.694,18.694,0,0,1,0,26.407l-1.363,1.363s15.028,11.638,7.577,22.885l9.017-9.017a40.212,40.212,0,1,0-56.868-56.868l-1.363,1.363c-4.794,4.794-11.182,16.541-1.041,26.681l2.41,2.41,14.445-14.445.782-.781a18.693,18.693,0,0,1,26.407,0" transform="translate(-359.819 -507.789)" fill="none" stroke="#2bbee0" stroke-linecap="round" stroke-linejoin="round" stroke-width="0.5"/>
            </g>
            <g id="Grupo_34538" data-name="Grupo 34538" transform="translate(0 28.374)">
              <path id="Trazado_41648" data-name="Trazado 41648" d="M264.973,675.276a18.694,18.694,0,0,1,0-26.407l1.363-1.363s-15.028-11.638-7.577-22.885l-9.017,9.017a40.212,40.212,0,1,0,56.868,56.868l1.363-1.363c4.794-4.794,11.181-16.541,1.041-26.681l-2.41-2.41L292.159,674.5l-.782.782a18.694,18.694,0,0,1-26.407,0" transform="translate(-237.983 -624.622)" fill="none" stroke="#2bbee0" stroke-linecap="round" stroke-linejoin="round" stroke-width="0.5"/>
            </g>
          </g>
          <path id="Trazado_41649" data-name="Trazado 41649" d="M409.137,656.608,386.8,678.943a6.142,6.142,0,1,0,8.686,8.686l22.335-22.335a6.142,6.142,0,1,0-8.686-8.686Z" transform="translate(-349.304 -619.11)" fill="none" stroke="#2bbee0" stroke-miterlimit="10" stroke-width="0.5"/>
        </g>
      </g>
      <g id="Grupo_34546" data-name="Grupo 34546" transform="translate(-620.636 -68.748)">
        <g id="Grupo_34545" data-name="Grupo 34545" transform="translate(0)">
          <g id="Grupo_34544" data-name="Grupo 34544">
            <g id="Grupo_34542" data-name="Grupo 34542" transform="translate(29.589)">
              <path id="Trazado_41650" data-name="Trazado 41650" d="M-27.282,929.674a18.694,18.694,0,0,1,0,26.407l-1.363,1.363s15.028,11.638,7.577,22.885l9.017-9.017a40.258,40.258,0,0,0,0-56.868,40.257,40.257,0,0,0-56.868,0l-1.363,1.363c-4.795,4.794-11.182,16.541-1.042,26.681l2.411,2.411,14.445-14.445.782-.781a18.694,18.694,0,0,1,26.407,0" transform="translate(76.721 -902.685)" fill="none" stroke="#2bbee0" stroke-linecap="round" stroke-linejoin="round" stroke-width="0.5"/>
            </g>
            <g id="Grupo_34543" data-name="Grupo 34543" transform="translate(0 28.374)">
              <path id="Trazado_41651" data-name="Trazado 41651" d="M-171.567,1070.172a18.694,18.694,0,0,1,0-26.407l1.363-1.363s-15.028-11.638-7.577-22.885l-9.017,9.017a40.258,40.258,0,0,0,0,56.868,40.257,40.257,0,0,0,56.868,0l1.363-1.363c4.794-4.794,11.182-16.541,1.041-26.681l-2.41-2.41-14.445,14.445-.782.782a18.694,18.694,0,0,1-26.407,0" transform="translate(198.557 -1019.518)" fill="none" stroke="#2bbee0" stroke-linecap="round" stroke-linejoin="round" stroke-width="0.5"/>
            </g>
          </g>
          <path id="Trazado_41652" data-name="Trazado 41652" d="M-27.4,1051.5l-22.335,22.335a6.16,6.16,0,0,0,0,8.686,6.16,6.16,0,0,0,8.686,0l22.335-22.335a6.16,6.16,0,0,0,0-8.686A6.16,6.16,0,0,0-27.4,1051.5Z" transform="translate(87.236 -1014.006)" fill="none" stroke="#2bbee0" stroke-miterlimit="10" stroke-width="0.5"/>
        </g>
      </g>
      <g id="Grupo_34551" data-name="Grupo 34551" transform="translate(-303.028 -359.497)">
        <g id="Grupo_34550" data-name="Grupo 34550" transform="translate(0 0)">
          <g id="Grupo_34549" data-name="Grupo 34549">
            <g id="Grupo_34547" data-name="Grupo 34547" transform="translate(29.589)">
              <path id="Trazado_41653" data-name="Trazado 41653" d="M1280.514-267.526a18.694,18.694,0,0,1,0,26.407l-1.363,1.363s15.028,11.638,7.577,22.885l9.017-9.017a40.257,40.257,0,0,0,0-56.868,40.257,40.257,0,0,0-56.868,0l-1.363,1.363c-4.794,4.794-11.182,16.541-1.042,26.681l2.411,2.41,14.445-14.445.782-.782a18.694,18.694,0,0,1,26.407,0" transform="translate(-1231.075 294.516)" fill="none" stroke="#2bbee0" stroke-linecap="round" stroke-linejoin="round" stroke-width="0.5"/>
            </g>
            <g id="Grupo_34548" data-name="Grupo 34548" transform="translate(0 28.374)">
              <path id="Trazado_41654" data-name="Trazado 41654" d="M1136.228-127.029a18.694,18.694,0,0,1,0-26.407l1.363-1.363s-15.028-11.638-7.577-22.885L1121-168.666a40.258,40.258,0,0,0,0,56.868,40.258,40.258,0,0,0,56.868,0l1.363-1.363c4.794-4.794,11.181-16.541,1.041-26.681l-2.41-2.41-14.445,14.445-.782.782a18.694,18.694,0,0,1-26.407,0" transform="translate(-1109.239 177.683)" fill="none" stroke="#2bbee0" stroke-linecap="round" stroke-linejoin="round" stroke-width="0.5"/>
            </g>
          </g>
          <path id="Trazado_41655" data-name="Trazado 41655" d="M1280.393-145.7l-22.335,22.335a6.16,6.16,0,0,0,0,8.686,6.16,6.16,0,0,0,8.686,0l22.335-22.335a6.16,6.16,0,0,0,0-8.686A6.159,6.159,0,0,0,1280.393-145.7Z" transform="translate(-1220.56 183.194)" fill="none" stroke="#2bbee0" stroke-miterlimit="10" stroke-width="0.5"/>
        </g>
      </g>
      <g id="Grupo_34556" data-name="Grupo 34556" transform="translate(-409.045 -263.594)">
        <g id="Grupo_34555" data-name="Grupo 34555" transform="translate(0 0)">
          <g id="Grupo_34554" data-name="Grupo 34554">
            <g id="Grupo_34552" data-name="Grupo 34552" transform="translate(29.589)">
              <path id="Trazado_41656" data-name="Trazado 41656" d="M843.973,127.37a18.694,18.694,0,0,1,0,26.407l-1.363,1.363s15.028,11.638,7.577,22.885l9.017-9.017a40.212,40.212,0,1,0-56.868-56.868l-1.363,1.363c-4.794,4.794-11.181,16.541-1.041,26.681l2.41,2.41,14.445-14.445.782-.782a18.694,18.694,0,0,1,26.407,0" transform="translate(-794.534 -100.38)" fill="none" stroke="#2bbee0" stroke-linecap="round" stroke-linejoin="round" stroke-width="0.5"/>
            </g>
            <g id="Grupo_34553" data-name="Grupo 34553" transform="translate(0 28.374)">
              <path id="Trazado_41657" data-name="Trazado 41657" d="M699.688,267.867a18.694,18.694,0,0,1,0-26.407l1.363-1.363s-15.028-11.638-7.577-22.885l-9.017,9.017A40.212,40.212,0,1,0,741.325,283.1l1.363-1.363c4.794-4.794,11.181-16.541,1.041-26.681l-2.41-2.41-14.445,14.445-.782.782a18.694,18.694,0,0,1-26.407,0" transform="translate(-672.698 -217.213)" fill="none" stroke="#2bbee0" stroke-linecap="round" stroke-linejoin="round" stroke-width="0.5"/>
            </g>
          </g>
          <path id="Trazado_41658" data-name="Trazado 41658" d="M843.852,249.2l-22.335,22.335a6.142,6.142,0,1,0,8.686,8.686l22.335-22.335a6.142,6.142,0,0,0-8.686-8.686Z" transform="translate(-784.019 -211.701)" fill="none" stroke="#2bbee0" stroke-miterlimit="10" stroke-width="0.5"/>
        </g>
      </g>
      <g id="Grupo_34561" data-name="Grupo 34561" transform="translate(-372.283 -153.207)">
        <g id="Grupo_34560" data-name="Grupo 34560">
          <g id="Grupo_34559" data-name="Grupo 34559">
            <g id="Grupo_34557" data-name="Grupo 34557" transform="translate(29.589)">
              <path id="Trazado_41659" data-name="Trazado 41659" d="M995.348,581.9a18.694,18.694,0,0,1,0,26.407l-1.363,1.363s15.028,11.638,7.577,22.885l9.017-9.017a40.212,40.212,0,1,0-56.868-56.868l-1.363,1.363c-4.794,4.794-11.181,16.541-1.041,26.681l2.41,2.41,14.445-14.445.782-.781a18.694,18.694,0,0,1,26.407,0" transform="translate(-945.909 -554.916)" fill="none" stroke="#2bbee0" stroke-linecap="round" stroke-linejoin="round" stroke-width="0.5"/>
            </g>
            <g id="Grupo_34558" data-name="Grupo 34558" transform="translate(0 28.374)">
              <path id="Trazado_41660" data-name="Trazado 41660" d="M851.062,722.4a18.694,18.694,0,0,1,0-26.407l1.363-1.363S837.4,683,844.848,671.749l-9.017,9.017A40.212,40.212,0,1,0,892.7,737.633l1.363-1.363c4.795-4.794,11.181-16.541,1.041-26.681l-2.41-2.41-14.445,14.445-.782.782a18.694,18.694,0,0,1-26.407,0" transform="translate(-824.073 -671.749)" fill="none" stroke="#2bbee0" stroke-linecap="round" stroke-linejoin="round" stroke-width="0.5"/>
            </g>
          </g>
          <path id="Trazado_41661" data-name="Trazado 41661" d="M995.227,703.735,972.892,726.07a6.142,6.142,0,0,0,8.686,8.686l22.335-22.335a6.142,6.142,0,1,0-8.686-8.686Z" transform="translate(-935.394 -666.237)" fill="none" stroke="#2bbee0" stroke-miterlimit="10" stroke-width="0.5"/>
        </g>
      </g>
      <g id="Grupo_34566" data-name="Grupo 34566" transform="translate(-478.3 -57.303)">
        <g id="Grupo_34565" data-name="Grupo 34565" transform="translate(0)">
          <g id="Grupo_34564" data-name="Grupo 34564">
            <g id="Grupo_34562" data-name="Grupo 34562" transform="translate(29.589)">
              <path id="Trazado_41662" data-name="Trazado 41662" d="M558.807,976.8a18.694,18.694,0,0,1,0,26.407l-1.363,1.363s15.028,11.638,7.577,22.885l9.017-9.017A40.212,40.212,0,1,0,517.17,961.57l-1.363,1.363c-4.795,4.794-11.181,16.541-1.041,26.681l2.41,2.41,14.445-14.445.782-.782a18.694,18.694,0,0,1,26.407,0" transform="translate(-509.368 -949.812)" fill="none" stroke="#2bbee0" stroke-linecap="round" stroke-linejoin="round" stroke-width="0.5"/>
            </g>
            <g id="Grupo_34563" data-name="Grupo 34563" transform="translate(0 28.374)">
              <path id="Trazado_41663" data-name="Trazado 41663" d="M414.522,1117.3a18.693,18.693,0,0,1,0-26.406l1.363-1.363s-15.028-11.638-7.577-22.885l-9.017,9.017a40.211,40.211,0,1,0,56.868,56.868l1.363-1.363c4.794-4.795,11.181-16.541,1.041-26.681l-2.41-2.41-14.445,14.444-.782.782a18.694,18.694,0,0,1-26.407,0" transform="translate(-387.532 -1066.645)" fill="none" stroke="#2bbee0" stroke-linecap="round" stroke-linejoin="round" stroke-width="0.5"/>
            </g>
          </g>
          <path id="Trazado_41664" data-name="Trazado 41664" d="M558.686,1098.632l-22.335,22.335a6.142,6.142,0,1,0,8.686,8.686l22.335-22.335a6.142,6.142,0,1,0-8.686-8.686Z" transform="translate(-498.853 -1061.133)" fill="none" stroke="#2bbee0" stroke-miterlimit="10" stroke-width="0.5"/>
        </g>
      </g>
      <g id="Grupo_34576" data-name="Grupo 34576" transform="translate(-266.709 -252.149)">
        <g id="Grupo_34575" data-name="Grupo 34575" transform="translate(0 0)">
          <g id="Grupo_34574" data-name="Grupo 34574">
            <g id="Grupo_34572" data-name="Grupo 34572" transform="translate(29.589)">
              <path id="Trazado_41668" data-name="Trazado 41668" d="M1430.063,174.5a18.693,18.693,0,0,1,0,26.407l-1.363,1.363s15.028,11.638,7.577,22.885l9.017-9.017a40.212,40.212,0,1,0-56.868-56.868l-1.363,1.363c-4.794,4.794-11.181,16.541-1.041,26.681l2.41,2.41,14.445-14.445.782-.781a18.694,18.694,0,0,1,26.407,0" transform="translate(-1380.624 -147.507)" fill="none" stroke="#2bbee0" stroke-linecap="round" stroke-linejoin="round" stroke-width="0.5"/>
            </g>
            <g id="Grupo_34573" data-name="Grupo 34573" transform="translate(0 28.374)">
              <path id="Trazado_41669" data-name="Trazado 41669" d="M1285.777,314.994a18.694,18.694,0,0,1,0-26.407l1.363-1.363s-15.028-11.638-7.576-22.885l-9.017,9.017a40.212,40.212,0,1,0,56.868,56.868l1.363-1.363c4.795-4.794,11.181-16.541,1.041-26.681l-2.41-2.41-14.446,14.445-.782.782a18.694,18.694,0,0,1-26.407,0" transform="translate(-1258.787 -264.34)" fill="none" stroke="#2bbee0" stroke-linecap="round" stroke-linejoin="round" stroke-width="0.5"/>
            </g>
          </g>
          <path id="Trazado_41670" data-name="Trazado 41670" d="M1429.942,296.326l-22.335,22.335a6.142,6.142,0,0,0,8.686,8.686l22.335-22.335a6.142,6.142,0,1,0-8.686-8.686Z" transform="translate(-1370.109 -258.828)" fill="none" stroke="#2bbee0" stroke-miterlimit="10" stroke-width="0.5"/>
        </g>
      </g>
      <g id="Grupo_34586" data-name="Grupo 34586" transform="translate(-342.916 -36.46)">
        <g id="Grupo_34585" data-name="Grupo 34585">
          <g id="Grupo_34584" data-name="Grupo 34584">
            <g id="Grupo_34582" data-name="Grupo 34582" transform="translate(29.589)">
              <path id="Trazado_41674" data-name="Trazado 41674" d="M1116.271,1062.626a18.693,18.693,0,0,1,0,26.406l-1.363,1.363s15.028,11.638,7.577,22.885l9.017-9.017a40.212,40.212,0,1,0-56.868-56.868l-1.363,1.363c-4.794,4.795-11.182,16.541-1.041,26.681l2.41,2.41,14.445-14.445.782-.782a18.693,18.693,0,0,1,26.407,0" transform="translate(-1066.832 -1035.636)" fill="none" stroke="#2bbee0" stroke-linecap="round" stroke-linejoin="round" stroke-width="0.5"/>
            </g>
            <g id="Grupo_34583" data-name="Grupo 34583" transform="translate(0 28.374)">
              <path id="Trazado_41675" data-name="Trazado 41675" d="M971.985,1203.123a18.693,18.693,0,0,1,0-26.407l1.363-1.363s-15.028-11.638-7.577-22.885l-9.017,9.017a40.212,40.212,0,1,0,56.868,56.868l1.363-1.363c4.794-4.794,11.181-16.541,1.041-26.681l-2.41-2.41-14.445,14.445-.782.782a18.694,18.694,0,0,1-26.407,0" transform="translate(-944.996 -1152.469)" fill="none" stroke="#2bbee0" stroke-linecap="round" stroke-linejoin="round" stroke-width="0.5"/>
            </g>
          </g>
          <path id="Trazado_41676" data-name="Trazado 41676" d="M1116.15,1184.456l-22.335,22.335a6.142,6.142,0,0,0,8.686,8.686l22.335-22.335a6.142,6.142,0,0,0-8.686-8.686Z" transform="translate(-1056.317 -1146.958)" fill="none" stroke="#2bbee0" stroke-miterlimit="10" stroke-width="0.5"/>
        </g>
      </g>
    </g>
    <g id="Grupo_34598" data-name="Grupo 34598" transform="translate(575.02 735.961)">
      <g id="Grupo_34521-2" data-name="Grupo 34521" transform="translate(-574.003 -400.495)">
        <g id="Grupo_34520-2" data-name="Grupo 34520" transform="translate(0)">
          <g id="Grupo_34519-2" data-name="Grupo 34519">
            <g id="Grupo_34517-2" data-name="Grupo 34517" transform="translate(29.589)">
              <path id="Trazado_41635-2" data-name="Trazado 41635" d="M-148.205,448.954a18.694,18.694,0,0,1,0,26.407l-1.363,1.363s15.028,11.638,7.577,22.885l9.017-9.017a40.257,40.257,0,0,0,0-56.868,40.257,40.257,0,0,0-56.868,0l-1.363,1.363c-4.794,4.794-11.182,16.541-1.041,26.681l2.41,2.41,14.445-14.445.782-.782a18.694,18.694,0,0,1,26.407,0" transform="translate(197.644 -421.965)" fill="none" stroke="#2bbee0" stroke-linecap="round" stroke-linejoin="round" stroke-width="0.5"/>
            </g>
            <g id="Grupo_34518-2" data-name="Grupo 34518" transform="translate(0 28.374)">
              <path id="Trazado_41636-2" data-name="Trazado 41636" d="M-292.49,589.452a18.694,18.694,0,0,1,0-26.407l1.363-1.363s-15.028-11.638-7.577-22.884l-9.017,9.017a40.258,40.258,0,0,0,0,56.868,40.257,40.257,0,0,0,56.868,0l1.363-1.363c4.794-4.795,11.182-16.541,1.042-26.681l-2.411-2.411L-265.3,588.673l-.782.782a18.694,18.694,0,0,1-26.407,0" transform="translate(319.479 -538.798)" fill="none" stroke="#2bbee0" stroke-linecap="round" stroke-linejoin="round" stroke-width="0.5"/>
            </g>
          </g>
          <path id="Trazado_41637-2" data-name="Trazado 41637" d="M-148.326,570.784l-22.335,22.335a6.16,6.16,0,0,0,0,8.686,6.16,6.16,0,0,0,8.686,0l22.335-22.335a6.16,6.16,0,0,0,0-8.686A6.16,6.16,0,0,0-148.326,570.784Z" transform="translate(208.159 -533.286)" fill="none" stroke="#2bbee0" stroke-miterlimit="10" stroke-width="0.5"/>
        </g>
      </g>
      <g id="Grupo_34531-2" data-name="Grupo 34531" transform="translate(-438.412 -380.34)">
        <g id="Grupo_34530-2" data-name="Grupo 34530" transform="translate(0 0)">
          <g id="Grupo_34529-2" data-name="Grupo 34529">
            <g id="Grupo_34527-2" data-name="Grupo 34527" transform="translate(29.589)">
              <path id="Trazado_41641-2" data-name="Trazado 41641" d="M723.05-353.351a18.694,18.694,0,0,1,0,26.407l-1.363,1.363s15.028,11.638,7.577,22.885l9.017-9.017a40.258,40.258,0,0,0,0-56.868,40.257,40.257,0,0,0-56.868,0l-1.363,1.363c-4.795,4.794-11.181,16.541-1.041,26.681l2.41,2.41,14.445-14.445.782-.782a18.694,18.694,0,0,1,26.407,0" transform="translate(-673.611 380.34)" fill="none" stroke="#2bbee0" stroke-linecap="round" stroke-linejoin="round" stroke-width="0.5"/>
            </g>
            <g id="Grupo_34528-2" data-name="Grupo 34528" transform="translate(0 28.374)">
              <path id="Trazado_41642-2" data-name="Trazado 41642" d="M578.765-212.853a18.693,18.693,0,0,1,0-26.407l1.363-1.363s-15.028-11.638-7.577-22.884l-9.017,9.017a40.258,40.258,0,0,0,0,56.868,40.257,40.257,0,0,0,56.868,0l1.363-1.363c4.794-4.794,11.181-16.541,1.041-26.681l-2.41-2.411-14.445,14.445-.782.782a18.694,18.694,0,0,1-26.407,0" transform="translate(-551.776 263.507)" fill="none" stroke="#2bbee0" stroke-linecap="round" stroke-linejoin="round" stroke-width="0.5"/>
            </g>
          </g>
          <path id="Trazado_41643-2" data-name="Trazado 41643" d="M722.929-231.521l-22.335,22.335a6.16,6.16,0,0,0,0,8.686,6.16,6.16,0,0,0,8.686,0l22.335-22.335a6.16,6.16,0,0,0,0-8.686A6.16,6.16,0,0,0,722.929-231.521Z" transform="translate(-663.096 269.019)" fill="none" stroke="#2bbee0" stroke-miterlimit="10" stroke-width="0.5"/>
        </g>
      </g>
      <g id="Grupo_34536-2" data-name="Grupo 34536" transform="translate(-544.429 -284.437)">
        <g id="Grupo_34535-2" data-name="Grupo 34535" transform="translate(0 0)">
          <g id="Grupo_34534-2" data-name="Grupo 34534">
            <g id="Grupo_34532-2" data-name="Grupo 34532" transform="translate(29.589)">
              <path id="Trazado_41644-2" data-name="Trazado 41644" d="M286.51,41.545a18.694,18.694,0,0,1,0,26.407l-1.363,1.363s15.028,11.638,7.577,22.885l9.017-9.017a40.212,40.212,0,1,0-56.868-56.868l-1.363,1.363c-4.794,4.794-11.182,16.541-1.041,26.681l2.41,2.41,14.445-14.445.782-.782a18.694,18.694,0,0,1,26.407,0" transform="translate(-237.071 -14.556)" fill="none" stroke="#2bbee0" stroke-linecap="round" stroke-linejoin="round" stroke-width="0.5"/>
            </g>
            <g id="Grupo_34533-2" data-name="Grupo 34533" transform="translate(0 28.374)">
              <path id="Trazado_41645-2" data-name="Trazado 41645" d="M142.225,182.043a18.694,18.694,0,0,1,0-26.407l1.363-1.363s-15.028-11.638-7.577-22.884l-9.017,9.017a40.212,40.212,0,1,0,56.868,56.868l1.363-1.363c4.794-4.794,11.182-16.541,1.042-26.681l-2.411-2.411-14.445,14.445-.782.782a18.694,18.694,0,0,1-26.407,0" transform="translate(-115.236 -131.389)" fill="none" stroke="#2bbee0" stroke-linecap="round" stroke-linejoin="round" stroke-width="0.5"/>
            </g>
          </g>
          <path id="Trazado_41646-2" data-name="Trazado 41646" d="M286.389,163.375,264.054,185.71a6.142,6.142,0,1,0,8.686,8.686l22.335-22.335a6.142,6.142,0,1,0-8.686-8.686Z" transform="translate(-226.556 -125.877)" fill="none" stroke="#2bbee0" stroke-miterlimit="10" stroke-width="0.5"/>
        </g>
      </g>
      <g id="Grupo_34541-2" data-name="Grupo 34541" transform="translate(-514.619 -164.652)">
        <g id="Grupo_34540-2" data-name="Grupo 34540" transform="translate(0)">
          <g id="Grupo_34539-2" data-name="Grupo 34539">
            <g id="Grupo_34537-2" data-name="Grupo 34537" transform="translate(29.589)">
              <path id="Trazado_41647-2" data-name="Trazado 41647" d="M409.258,534.778a18.694,18.694,0,0,1,0,26.407l-1.363,1.363s15.028,11.638,7.577,22.885l9.017-9.017a40.212,40.212,0,1,0-56.868-56.868l-1.363,1.363c-4.794,4.794-11.182,16.541-1.041,26.681l2.41,2.41,14.445-14.445.782-.781a18.693,18.693,0,0,1,26.407,0" transform="translate(-359.819 -507.789)" fill="none" stroke="#2bbee0" stroke-linecap="round" stroke-linejoin="round" stroke-width="0.5"/>
            </g>
            <g id="Grupo_34538-2" data-name="Grupo 34538" transform="translate(0 28.374)">
              <path id="Trazado_41648-2" data-name="Trazado 41648" d="M264.973,675.276a18.694,18.694,0,0,1,0-26.407l1.363-1.363s-15.028-11.638-7.577-22.885l-9.017,9.017a40.212,40.212,0,1,0,56.868,56.868l1.363-1.363c4.794-4.794,11.181-16.541,1.041-26.681l-2.41-2.41L292.159,674.5l-.782.782a18.694,18.694,0,0,1-26.407,0" transform="translate(-237.983 -624.622)" fill="none" stroke="#2bbee0" stroke-linecap="round" stroke-linejoin="round" stroke-width="0.5"/>
            </g>
          </g>
          <path id="Trazado_41649-2" data-name="Trazado 41649" d="M409.137,656.608,386.8,678.943a6.142,6.142,0,1,0,8.686,8.686l22.335-22.335a6.142,6.142,0,1,0-8.686-8.686Z" transform="translate(-349.304 -619.11)" fill="none" stroke="#2bbee0" stroke-miterlimit="10" stroke-width="0.5"/>
        </g>
      </g>
      <g id="Grupo_34551-2" data-name="Grupo 34551" transform="translate(-303.028 -359.497)">
        <g id="Grupo_34550-2" data-name="Grupo 34550" transform="translate(0 0)">
          <g id="Grupo_34549-2" data-name="Grupo 34549">
            <g id="Grupo_34547-2" data-name="Grupo 34547" transform="translate(29.589)">
              <path id="Trazado_41653-2" data-name="Trazado 41653" d="M1280.514-267.526a18.694,18.694,0,0,1,0,26.407l-1.363,1.363s15.028,11.638,7.577,22.885l9.017-9.017a40.257,40.257,0,0,0,0-56.868,40.257,40.257,0,0,0-56.868,0l-1.363,1.363c-4.794,4.794-11.182,16.541-1.042,26.681l2.411,2.41,14.445-14.445.782-.782a18.694,18.694,0,0,1,26.407,0" transform="translate(-1231.075 294.516)" fill="none" stroke="#2bbee0" stroke-linecap="round" stroke-linejoin="round" stroke-width="0.5"/>
            </g>
            <g id="Grupo_34548-2" data-name="Grupo 34548" transform="translate(0 28.374)">
              <path id="Trazado_41654-2" data-name="Trazado 41654" d="M1136.228-127.029a18.694,18.694,0,0,1,0-26.407l1.363-1.363s-15.028-11.638-7.577-22.885L1121-168.666a40.258,40.258,0,0,0,0,56.868,40.258,40.258,0,0,0,56.868,0l1.363-1.363c4.794-4.794,11.181-16.541,1.041-26.681l-2.41-2.41-14.445,14.445-.782.782a18.694,18.694,0,0,1-26.407,0" transform="translate(-1109.239 177.683)" fill="none" stroke="#2bbee0" stroke-linecap="round" stroke-linejoin="round" stroke-width="0.5"/>
            </g>
          </g>
          <path id="Trazado_41655-2" data-name="Trazado 41655" d="M1280.393-145.7l-22.335,22.335a6.16,6.16,0,0,0,0,8.686,6.16,6.16,0,0,0,8.686,0l22.335-22.335a6.16,6.16,0,0,0,0-8.686A6.159,6.159,0,0,0,1280.393-145.7Z" transform="translate(-1220.56 183.194)" fill="none" stroke="#2bbee0" stroke-miterlimit="10" stroke-width="0.5"/>
        </g>
      </g>
      <g id="Grupo_34556-2" data-name="Grupo 34556" transform="translate(-409.045 -263.594)">
        <g id="Grupo_34555-2" data-name="Grupo 34555" transform="translate(0 0)">
          <g id="Grupo_34554-2" data-name="Grupo 34554">
            <g id="Grupo_34552-2" data-name="Grupo 34552" transform="translate(29.589)">
              <path id="Trazado_41656-2" data-name="Trazado 41656" d="M843.973,127.37a18.694,18.694,0,0,1,0,26.407l-1.363,1.363s15.028,11.638,7.577,22.885l9.017-9.017a40.212,40.212,0,1,0-56.868-56.868l-1.363,1.363c-4.794,4.794-11.181,16.541-1.041,26.681l2.41,2.41,14.445-14.445.782-.782a18.694,18.694,0,0,1,26.407,0" transform="translate(-794.534 -100.38)" fill="none" stroke="#2bbee0" stroke-linecap="round" stroke-linejoin="round" stroke-width="0.5"/>
            </g>
            <g id="Grupo_34553-2" data-name="Grupo 34553" transform="translate(0 28.374)">
              <path id="Trazado_41657-2" data-name="Trazado 41657" d="M699.688,267.867a18.694,18.694,0,0,1,0-26.407l1.363-1.363s-15.028-11.638-7.577-22.885l-9.017,9.017A40.212,40.212,0,1,0,741.325,283.1l1.363-1.363c4.794-4.794,11.181-16.541,1.041-26.681l-2.41-2.41-14.445,14.445-.782.782a18.694,18.694,0,0,1-26.407,0" transform="translate(-672.698 -217.213)" fill="none" stroke="#2bbee0" stroke-linecap="round" stroke-linejoin="round" stroke-width="0.5"/>
            </g>
          </g>
          <path id="Trazado_41658-2" data-name="Trazado 41658" d="M843.852,249.2l-22.335,22.335a6.142,6.142,0,1,0,8.686,8.686l22.335-22.335a6.142,6.142,0,0,0-8.686-8.686Z" transform="translate(-784.019 -211.701)" fill="none" stroke="#2bbee0" stroke-miterlimit="10" stroke-width="0.5"/>
        </g>
      </g>
      <g id="Grupo_34561-2" data-name="Grupo 34561" transform="translate(-372.283 -153.207)">
        <g id="Grupo_34560-2" data-name="Grupo 34560">
          <g id="Grupo_34559-2" data-name="Grupo 34559">
            <g id="Grupo_34557-2" data-name="Grupo 34557" transform="translate(29.589)">
              <path id="Trazado_41659-2" data-name="Trazado 41659" d="M995.348,581.9a18.694,18.694,0,0,1,0,26.407l-1.363,1.363s15.028,11.638,7.577,22.885l9.017-9.017a40.212,40.212,0,1,0-56.868-56.868l-1.363,1.363c-4.794,4.794-11.181,16.541-1.041,26.681l2.41,2.41,14.445-14.445.782-.781a18.694,18.694,0,0,1,26.407,0" transform="translate(-945.909 -554.916)" fill="none" stroke="#2bbee0" stroke-linecap="round" stroke-linejoin="round" stroke-width="0.5"/>
            </g>
            <g id="Grupo_34558-2" data-name="Grupo 34558" transform="translate(0 28.374)">
              <path id="Trazado_41660-2" data-name="Trazado 41660" d="M851.062,722.4a18.694,18.694,0,0,1,0-26.407l1.363-1.363S837.4,683,844.848,671.749l-9.017,9.017A40.212,40.212,0,1,0,892.7,737.633l1.363-1.363c4.795-4.794,11.181-16.541,1.041-26.681l-2.41-2.41-14.445,14.445-.782.782a18.694,18.694,0,0,1-26.407,0" transform="translate(-824.073 -671.749)" fill="none" stroke="#2bbee0" stroke-linecap="round" stroke-linejoin="round" stroke-width="0.5"/>
            </g>
          </g>
          <path id="Trazado_41661-2" data-name="Trazado 41661" d="M995.227,703.735,972.892,726.07a6.142,6.142,0,0,0,8.686,8.686l22.335-22.335a6.142,6.142,0,1,0-8.686-8.686Z" transform="translate(-935.394 -666.237)" fill="none" stroke="#2bbee0" stroke-miterlimit="10" stroke-width="0.5"/>
        </g>
      </g>
      <g id="Grupo_34566-2" data-name="Grupo 34566" transform="translate(-478.3 -57.303)">
        <g id="Grupo_34565-2" data-name="Grupo 34565" transform="translate(0)">
          <g id="Grupo_34564-2" data-name="Grupo 34564">
            <g id="Grupo_34562-2" data-name="Grupo 34562" transform="translate(29.589)">
              <path id="Trazado_41662-2" data-name="Trazado 41662" d="M558.807,976.8a18.694,18.694,0,0,1,0,26.407l-1.363,1.363s15.028,11.638,7.577,22.885l9.017-9.017A40.212,40.212,0,1,0,517.17,961.57l-1.363,1.363c-4.795,4.794-11.181,16.541-1.041,26.681l2.41,2.41,14.445-14.445.782-.782a18.694,18.694,0,0,1,26.407,0" transform="translate(-509.368 -949.812)" fill="none" stroke="#2bbee0" stroke-linecap="round" stroke-linejoin="round" stroke-width="0.5"/>
            </g>
            <g id="Grupo_34563-2" data-name="Grupo 34563" transform="translate(0 28.374)">
              <path id="Trazado_41663-2" data-name="Trazado 41663" d="M414.522,1117.3a18.693,18.693,0,0,1,0-26.406l1.363-1.363s-15.028-11.638-7.577-22.885l-9.017,9.017a40.211,40.211,0,1,0,56.868,56.868l1.363-1.363c4.794-4.795,11.181-16.541,1.041-26.681l-2.41-2.41-14.445,14.444-.782.782a18.694,18.694,0,0,1-26.407,0" transform="translate(-387.532 -1066.645)" fill="none" stroke="#2bbee0" stroke-linecap="round" stroke-linejoin="round" stroke-width="0.5"/>
            </g>
          </g>
          <path id="Trazado_41664-2" data-name="Trazado 41664" d="M558.686,1098.632l-22.335,22.335a6.142,6.142,0,1,0,8.686,8.686l22.335-22.335a6.142,6.142,0,1,0-8.686-8.686Z" transform="translate(-498.853 -1061.133)" fill="none" stroke="#2bbee0" stroke-miterlimit="10" stroke-width="0.5"/>
        </g>
      </g>
      <g id="Grupo_34576-2" data-name="Grupo 34576" transform="translate(-266.709 -252.149)">
        <g id="Grupo_34575-2" data-name="Grupo 34575" transform="translate(0 0)">
          <g id="Grupo_34574-2" data-name="Grupo 34574">
            <g id="Grupo_34572-2" data-name="Grupo 34572" transform="translate(29.589)">
              <path id="Trazado_41668-2" data-name="Trazado 41668" d="M1430.063,174.5a18.693,18.693,0,0,1,0,26.407l-1.363,1.363s15.028,11.638,7.577,22.885l9.017-9.017a40.212,40.212,0,1,0-56.868-56.868l-1.363,1.363c-4.794,4.794-11.181,16.541-1.041,26.681l2.41,2.41,14.445-14.445.782-.781a18.694,18.694,0,0,1,26.407,0" transform="translate(-1380.624 -147.507)" fill="none" stroke="#2bbee0" stroke-linecap="round" stroke-linejoin="round" stroke-width="0.5"/>
            </g>
            <g id="Grupo_34573-2" data-name="Grupo 34573" transform="translate(0 28.374)">
              <path id="Trazado_41669-2" data-name="Trazado 41669" d="M1285.777,314.994a18.694,18.694,0,0,1,0-26.407l1.363-1.363s-15.028-11.638-7.576-22.885l-9.017,9.017a40.212,40.212,0,1,0,56.868,56.868l1.363-1.363c4.795-4.794,11.181-16.541,1.041-26.681l-2.41-2.41-14.446,14.445-.782.782a18.694,18.694,0,0,1-26.407,0" transform="translate(-1258.787 -264.34)" fill="none" stroke="#2bbee0" stroke-linecap="round" stroke-linejoin="round" stroke-width="0.5"/>
            </g>
          </g>
          <path id="Trazado_41670-2" data-name="Trazado 41670" d="M1429.942,296.326l-22.335,22.335a6.142,6.142,0,0,0,8.686,8.686l22.335-22.335a6.142,6.142,0,1,0-8.686-8.686Z" transform="translate(-1370.109 -258.828)" fill="none" stroke="#2bbee0" stroke-miterlimit="10" stroke-width="0.5"/>
        </g>
      </g>
      <g id="Grupo_34586-2" data-name="Grupo 34586" transform="translate(-342.916 -36.46)">
        <g id="Grupo_34585-2" data-name="Grupo 34585">
          <g id="Grupo_34584-2" data-name="Grupo 34584">
            <g id="Grupo_34582-2" data-name="Grupo 34582" transform="translate(29.589)">
              <path id="Trazado_41674-2" data-name="Trazado 41674" d="M1116.271,1062.626a18.693,18.693,0,0,1,0,26.406l-1.363,1.363s15.028,11.638,7.577,22.885l9.017-9.017a40.212,40.212,0,1,0-56.868-56.868l-1.363,1.363c-4.794,4.795-11.182,16.541-1.041,26.681l2.41,2.41,14.445-14.445.782-.782a18.693,18.693,0,0,1,26.407,0" transform="translate(-1066.832 -1035.636)" fill="none" stroke="#2bbee0" stroke-linecap="round" stroke-linejoin="round" stroke-width="0.5"/>
            </g>
            <g id="Grupo_34583-2" data-name="Grupo 34583" transform="translate(0 28.374)">
              <path id="Trazado_41675-2" data-name="Trazado 41675" d="M971.985,1203.123a18.693,18.693,0,0,1,0-26.407l1.363-1.363s-15.028-11.638-7.577-22.885l-9.017,9.017a40.212,40.212,0,1,0,56.868,56.868l1.363-1.363c4.794-4.794,11.181-16.541,1.041-26.681l-2.41-2.41-14.445,14.445-.782.782a18.694,18.694,0,0,1-26.407,0" transform="translate(-944.996 -1152.469)" fill="none" stroke="#2bbee0" stroke-linecap="round" stroke-linejoin="round" stroke-width="0.5"/>
            </g>
          </g>
          <path id="Trazado_41676-2" data-name="Trazado 41676" d="M1116.15,1184.456l-22.335,22.335a6.142,6.142,0,0,0,8.686,8.686l22.335-22.335a6.142,6.142,0,0,0-8.686-8.686Z" transform="translate(-1056.317 -1146.958)" fill="none" stroke="#2bbee0" stroke-miterlimit="10" stroke-width="0.5"/>
        </g>
      </g>
    </g>
  </g>
</svg>
