<?xml version="1.0" encoding="utf-8"?>
<!-- Generator: Adobe Illustrator 24.0.1, SVG Export Plug-In . SVG Version: 6.00 Build 0)  -->
<svg version="1.1" id="Capa_1" xmlns="http://www.w3.org/2000/svg" xmlns:xlink="http://www.w3.org/1999/xlink" x="0px" y="0px"
	 viewBox="0 0 233 64" style="enable-background:new 0 0 233 64;" xml:space="preserve">
<style type="text/css">
	.st0{fill:#F80A73;}
</style>
<title>Mesa de trabajo 1</title>
<path class="st0" d="M49.1,16.5c4.3,4.3,4.3,11.4,0,15.7L48.3,33c0,0,9,6.9,4.5,13.6l5.4-5.4c8.9-9.8,8.1-25-1.8-33.9
	c-9.1-8.2-23-8.2-32.1,0l-0.8,0.8c-2.9,2.9-6.7,9.9-0.6,15.9l1.4,1.4l8.6-8.6l0.5-0.5C37.7,12.2,44.8,12.2,49.1,16.5"/>
<path class="st0" d="M18.1,47.5c-4.3-4.3-4.3-11.4,0-15.7l0.8-0.8c0,0-9-6.9-4.5-13.6L9,22.7c-8.9,9.8-8.2,25,1.7,33.9
	c9.1,8.3,23.1,8.3,32.2,0l0.8-0.8c2.9-2.9,6.7-9.9,0.6-15.9l-1.4-1.4L34.3,47l-0.5,0.5C29.5,51.8,22.4,51.8,18.1,47.5"/>
<path class="st0" d="M37.7,22.8L24.4,36.1c-1.4,1.4-1.4,3.7,0,5.2s3.7,1.4,5.2,0l13.3-13.3c1.4-1.4,1.4-3.7,0-5.2
	S39.1,21.3,37.7,22.8z"/>
<path class="st0" d="M98.3,42.6c-2.2,1.7-5.1,2-7.6,0.8c-2-0.8-3.5-2.5-4-4.6c-0.2-0.7-0.3-1.5-0.3-2.2c0-0.7,0.1-1.5,0.3-2.2
	c0.5-2.1,2-3.8,4-4.6c2.5-1.2,5.5-0.9,7.7,0.9c0.5,0.4,1.1,0.8,1.8,1c5.7,1.8,7.7-3.7,7.7-3.7c-4.8-7.9-15-10.4-22.9-5.6
	c-5,3-8,8.4-8,14.2c-0.2,9,7,16.4,16,16.6c0.2,0,0.5,0,0.7,0c5.9,0.1,11.3-3,14.2-8.1c0,0-2.9-5.1-8.3-3.2
	C99.1,42.2,98.7,42.4,98.3,42.6z"/>
<path class="st0" d="M178.7,34.8L178.7,34.8c0-0.2,0-0.4,0-0.7v0c-1.1-9.3-9.5-16-18.8-15c-8.1,0.9-14.4,7.5-15,15.6
	c-0.1,0.6-0.1,1.2-0.1,1.7c0,9.4,7.5,17,16.9,17.1c3.5,0,6.8-1,9.7-3l0.1-0.2c1.4,1.8,3.6,2.8,5.9,2.7h1.5V36c0-0.4,0-0.8,0-1.2
	L178.7,34.8z M169.7,36.5c-0.4,4.4-4.4,7.6-8.8,7.2c-3.8-0.4-6.8-3.4-7.2-7.2l0,0c-0.4-4.4,2.8-8.3,7.2-8.8c4.4-0.4,8.3,2.8,8.8,7.2
	C169.8,35.4,169.8,35.9,169.7,36.5z"/>
<path class="st0" d="M192.9,20.2h-1.6c-6.6,0-8.4,5.9-8.4,9.1v5.9l0,0V44c-0.2,2.4,0.6,4.8,2.1,6.7c1.6,1.7,3.9,2.6,6.2,2.5h1.6v-18
	l0,0V20.2z"/>
<path class="st0" d="M187.9,5.8c-3.2,0-5.8,2.6-5.8,5.8c0,3.2,2.6,5.8,5.8,5.8c3.2,0,5.8-2.6,5.8-5.8C193.7,8.4,191.1,5.8,187.9,5.8
	C188,5.8,187.9,5.8,187.9,5.8z"/>
<path class="st0" d="M129.3,19.3c-4.4-0.1-7.5,1.2-9.4,3.1V7.3h-1.6c-2.6-0.1-5.2,1.2-6.6,3.4c-1.1,1.7-1.7,3.6-1.7,5.6l-0.1,28.2
	c0,1.9,0.6,3.8,1.7,5.4c1.5,2.2,4,3.4,6.6,3.3h1.6l0,0h0.1v-18l0,0c0-4.7,2.5-6.8,6.1-6.8c3.2,0,5.7,1.9,5.7,6v0.4v9.4
	c0,1.5,0.4,3,1,4.4c1.2,2.9,4.2,4.8,7.3,4.6h1.6V32.9C141.6,24,136,19.4,129.3,19.3z"/>
<path class="st0" d="M217.1,19.3c-6.2-0.1-9,2-10.7,4.5c-0.2-0.3-0.4-0.6-0.6-0.8c-1.5-2-3.9-3.1-6.4-3h-1.6v14.1c0,0,0,1.2,0,1.9
	v8.1c0,3.1,1.7,9,8.3,9h1.5l0,0l0,0V34.5c0.2-4.2,2.7-6.1,6.1-6.1c6.1,0.1,5.8,6.3,5.8,6.3v9.4c0,1.5,0.4,3,1,4.4
	c1.2,2.9,4.1,4.8,7.3,4.6h1.6V34.7C229.6,34.7,230.5,19.5,217.1,19.3z"/>
</svg>
