<svg xmlns="http://www.w3.org/2000/svg" width="20" height="24" viewBox="0 0 20 24"><g transform="translate(3165 -6011.301)"><g transform="translate(-3218 5961)"><path d="M1388.809,100.46c0,.01,0,.027.005.048a.4.4,0,0,0,.224.336.525.525,0,0,0,.473-.1h0l.033-.023.007-.005c.083-.055.176-.112.193-.121a24.351,24.351,0,0,1,3.9-1.592c3.393-1.149,4.538-2.908,4.538-6.969a.563.563,0,0,0-.008-.073.391.391,0,0,0-.222-.314c-.011,0-.021-.007-.032-.01s-.013-.007-.021-.009h-.009a.374.374,0,0,0-.33.071,17.972,17.972,0,0,1-4.214,1.783c-3.393,1.15-4.538,2.908-4.538,6.969v.009h0Z" transform="translate(-1335.225 -41.311)" fill="#e6b8f9"/><path d="M1386.857,124.852a.933.933,0,0,0,.011.1.843.843,0,0,0,.479.717,1.12,1.12,0,0,0,1.009-.22h0l.071-.049.015-.011c.177-.119.377-.239.412-.26a51.917,51.917,0,0,1,8.319-3.4c7.24-2.453,9.684-6.2,9.684-14.869a1.229,1.229,0,0,0-.017-.156.835.835,0,0,0-.474-.67c-.024-.01-.045-.014-.068-.022s-.028-.014-.045-.019a.14.14,0,0,0-.019,0,.8.8,0,0,0-.7.151c-.263.193-2.2,1.5-8.99,3.805-7.24,2.453-9.684,6.205-9.684,14.869v.02h0S1386.856,124.85,1386.857,124.852Z" transform="translate(-1333.855 -51.428)" fill="#e6b8f9"/></g><g transform="translate(-3218 5961)"><path d="M1388.809,100.46c0,.01,0,.027.005.048a.4.4,0,0,0,.224.336.525.525,0,0,0,.473-.1h0l.033-.023.007-.005c.083-.055.176-.112.193-.121a24.351,24.351,0,0,1,3.9-1.592c3.393-1.149,4.538-2.908,4.538-6.969a.563.563,0,0,0-.008-.073.391.391,0,0,0-.222-.314c-.011,0-.021-.007-.032-.01s-.013-.007-.021-.009h-.009a.374.374,0,0,0-.33.071,17.972,17.972,0,0,1-4.214,1.783c-3.393,1.15-4.538,2.908-4.538,6.969v.009h0Z" transform="translate(-1335.225 -41.311)" fill="#b42eed"/><path d="M1386.857,124.852a.933.933,0,0,0,.011.1.843.843,0,0,0,.479.717,1.12,1.12,0,0,0,1.009-.22h0l.071-.049.015-.011c.177-.119.377-.239.412-.26a51.917,51.917,0,0,1,8.319-3.4c7.24-2.453,9.684-6.2,9.684-14.869a1.229,1.229,0,0,0-.017-.156.835.835,0,0,0-.474-.67c-.024-.01-.045-.014-.068-.022s-.028-.014-.045-.019a.14.14,0,0,0-.019,0,.8.8,0,0,0-.7.151c-.263.193-2.2,1.5-8.99,3.805-7.24,2.453-9.684,6.205-9.684,14.869v.02h0S1386.856,124.85,1386.857,124.852Z" transform="translate(-1333.855 -51.428)" fill="#b42eed"/></g></g></svg>