<svg xmlns="http://www.w3.org/2000/svg" width="159" height="35" viewBox="0 0 159 35"><g transform="translate(30.501)"><g transform="translate(0)"><path d="M1479.77,83.639h-2.777a1.253,1.253,0,0,1-1.256-1.253V79.422a1.214,1.214,0,0,1,1.256-1.253h2.777l.026-6.641a1.3,1.3,0,0,1,1.257-1.252l3.77-.066a1.241,1.241,0,0,1,1.191,1.252l-.026,6.707h6.745a1.215,1.215,0,0,1,1.257,1.253v2.964a1.254,1.254,0,0,1-1.257,1.253h-6.745V96.687c0,2.239.859,2.635,2.116,2.635a10.809,10.809,0,0,0,4.034-1.186.991.991,0,0,1,1.521.594l1.19,2.9a1.091,1.091,0,0,1-.594,1.581,20.342,20.342,0,0,1-7.738,1.977c-5.225,0-6.747-3.162-6.747-7.842V83.639" transform="translate(-1475.737 -70.209)" fill="#fafafa"/><path d="M1554.156,101.959a19.1,19.1,0,0,1,5.225.791c.065-4.151-.727-5.8-4.1-5.8a28.186,28.186,0,0,0-7.407,1.187c-.794.2-1.257-.331-1.455-1.055l-.529-2.438a1.184,1.184,0,0,1,.859-1.517,27.4,27.4,0,0,1,9.128-1.515c8.465,0,9.258,5.14,9.258,11.73v14.037a1.3,1.3,0,0,1-1.256,1.252h-1.853c-.594,0-.859-.263-1.124-.923l-.661-1.78a11.431,11.431,0,0,1-8.134,3.361c-4.96,0-8.532-3.361-8.532-8.831C1543.575,105.649,1547.411,101.959,1554.156,101.959Zm-.794,12.653a7.832,7.832,0,0,0,5.953-3.3V107.1a9.989,9.989,0,0,0-4.629-1.054c-3.175,0-5.358,1.648-5.358,4.35A3.971,3.971,0,0,0,1553.362,114.611Z" transform="translate(-1520.296 -84.311)" fill="#fafafa"/><path d="M1631.751,106.459l-8.333-11.137a1.029,1.029,0,0,1,.793-1.78h4.3a1.909,1.909,0,0,1,1.587.726l5.291,7.578h.066l5.422-7.578a1.8,1.8,0,0,1,1.522-.726h4.364c1.125,0,1.455.857.794,1.713l-8.332,11.137,8.4,11.8c.594.857.264,1.713-.794,1.713h-4.166a1.8,1.8,0,0,1-1.389-.79l-5.819-8.172h-.066l-5.953,8.435a1.271,1.271,0,0,1-1.058.527h-4.432c-1.124,0-1.389-.857-.793-1.713Z" transform="translate(-1572.364 -85.583)" fill="#fafafa"/><path d="M1720.421,91.612a11.889,11.889,0,0,1,12.169,12.191,16.043,16.043,0,0,1-.133,1.78,1.213,1.213,0,0,1-1.189,1.12h-17.989a7.646,7.646,0,0,0,7.606,7.052,11.314,11.314,0,0,0,5.886-1.912c.793-.462,1.256-.725,1.785-.066l1.852,2.5a1.021,1.021,0,0,1-.132,1.713,15.235,15.235,0,0,1-9.789,3.295c-8,0-13.292-6.261-13.292-13.839C1707.194,98,1712.484,91.612,1720.421,91.612Zm6.018,10.939a6.248,6.248,0,0,0-6.084-5.865,6.684,6.684,0,0,0-6.745,5.865Z" transform="translate(-1627.767 -84.311)" fill="#fafafa"/><path d="M1794.7,115.2l1.39-2.57a1.142,1.142,0,0,1,1.653-.33,13.728,13.728,0,0,0,6.149,1.714c1.985,0,3.242-.791,3.242-2.241,0-1.78-1.455-2.636-5.094-4.284-4.1-1.778-7.539-4.282-7.539-8.632,0-3.295,2.712-7.249,9.061-7.249a14.872,14.872,0,0,1,7.8,2.043,1.469,1.469,0,0,1,.528,1.912l-1.191,2.24a1.39,1.39,0,0,1-1.718.527,15.163,15.163,0,0,0-5.423-1.384c-2.249,0-2.977.989-2.977,1.978,0,1.713,1.653,2.438,4.232,3.558,4.828,2.109,8.8,4.151,8.8,9.094,0,4.086-3.9,7.71-9.787,7.71a13.905,13.905,0,0,1-8.73-2.7A1.108,1.108,0,0,1,1794.7,115.2Z" transform="translate(-1685.112 -84.311)" fill="#fafafa"/></g></g><g transform="translate(30.501)"><g transform="translate(0)"><path d="M1479.77,83.639h-2.777a1.253,1.253,0,0,1-1.256-1.253V79.422a1.214,1.214,0,0,1,1.256-1.253h2.777l.026-6.641a1.3,1.3,0,0,1,1.257-1.252l3.77-.066a1.241,1.241,0,0,1,1.191,1.252l-.026,6.707h6.745a1.215,1.215,0,0,1,1.257,1.253v2.964a1.254,1.254,0,0,1-1.257,1.253h-6.745V96.687c0,2.239.859,2.635,2.116,2.635a10.809,10.809,0,0,0,4.034-1.186.991.991,0,0,1,1.521.594l1.19,2.9a1.091,1.091,0,0,1-.594,1.581,20.342,20.342,0,0,1-7.738,1.977c-5.225,0-6.747-3.162-6.747-7.842V83.639" transform="translate(-1475.737 -70.209)" fill="#fafafa"/><path d="M1554.156,101.959a19.1,19.1,0,0,1,5.225.791c.065-4.151-.727-5.8-4.1-5.8a28.186,28.186,0,0,0-7.407,1.187c-.794.2-1.257-.331-1.455-1.055l-.529-2.438a1.184,1.184,0,0,1,.859-1.517,27.4,27.4,0,0,1,9.128-1.515c8.465,0,9.258,5.14,9.258,11.73v14.037a1.3,1.3,0,0,1-1.256,1.252h-1.853c-.594,0-.859-.263-1.124-.923l-.661-1.78a11.431,11.431,0,0,1-8.134,3.361c-4.96,0-8.532-3.361-8.532-8.831C1543.575,105.649,1547.411,101.959,1554.156,101.959Zm-.794,12.653a7.832,7.832,0,0,0,5.953-3.3V107.1a9.989,9.989,0,0,0-4.629-1.054c-3.175,0-5.358,1.648-5.358,4.35A3.971,3.971,0,0,0,1553.362,114.611Z" transform="translate(-1520.296 -84.311)" fill="#fafafa"/><path d="M1631.751,106.459l-8.333-11.137a1.029,1.029,0,0,1,.793-1.78h4.3a1.909,1.909,0,0,1,1.587.726l5.291,7.578h.066l5.422-7.578a1.8,1.8,0,0,1,1.522-.726h4.364c1.125,0,1.455.857.794,1.713l-8.332,11.137,8.4,11.8c.594.857.264,1.713-.794,1.713h-4.166a1.8,1.8,0,0,1-1.389-.79l-5.819-8.172h-.066l-5.953,8.435a1.271,1.271,0,0,1-1.058.527h-4.432c-1.124,0-1.389-.857-.793-1.713Z" transform="translate(-1572.364 -85.583)" fill="#fafafa"/><path d="M1720.421,91.612a11.889,11.889,0,0,1,12.169,12.191,16.043,16.043,0,0,1-.133,1.78,1.213,1.213,0,0,1-1.189,1.12h-17.989a7.646,7.646,0,0,0,7.606,7.052,11.314,11.314,0,0,0,5.886-1.912c.793-.462,1.256-.725,1.785-.066l1.852,2.5a1.021,1.021,0,0,1-.132,1.713,15.235,15.235,0,0,1-9.789,3.295c-8,0-13.292-6.261-13.292-13.839C1707.194,98,1712.484,91.612,1720.421,91.612Zm6.018,10.939a6.248,6.248,0,0,0-6.084-5.865,6.684,6.684,0,0,0-6.745,5.865Z" transform="translate(-1627.767 -84.311)" fill="#fafafa"/><path d="M1794.7,115.2l1.39-2.57a1.142,1.142,0,0,1,1.653-.33,13.728,13.728,0,0,0,6.149,1.714c1.985,0,3.242-.791,3.242-2.241,0-1.78-1.455-2.636-5.094-4.284-4.1-1.778-7.539-4.282-7.539-8.632,0-3.295,2.712-7.249,9.061-7.249a14.872,14.872,0,0,1,7.8,2.043,1.469,1.469,0,0,1,.528,1.912l-1.191,2.24a1.39,1.39,0,0,1-1.718.527,15.163,15.163,0,0,0-5.423-1.384c-2.249,0-2.977.989-2.977,1.978,0,1.713,1.653,2.438,4.232,3.558,4.828,2.109,8.8,4.151,8.8,9.094,0,4.086-3.9,7.71-9.787,7.71a13.905,13.905,0,0,1-8.73-2.7A1.108,1.108,0,0,1,1794.7,115.2Z" transform="translate(-1685.112 -84.311)" fill="#fafafa"/></g></g><g transform="translate(0 7.301)"><path d="M1388.809,101.823c0,.012,0,.031.006.056a.455.455,0,0,0,.257.388.6.6,0,0,0,.543-.119h0l.038-.027.008-.006c.095-.064.2-.129.221-.14a27.874,27.874,0,0,1,4.476-1.837c3.9-1.327,5.21-3.356,5.21-8.043a.653.653,0,0,0-.009-.085.451.451,0,0,0-.255-.363c-.013-.005-.024-.008-.037-.012s-.015-.008-.024-.011h-.01a.427.427,0,0,0-.379.082,20.577,20.577,0,0,1-4.837,2.058c-3.9,1.327-5.21,3.356-5.21,8.043v.011h0Z" transform="translate(-1388.139 -91.612)" fill="#b42eed"/><path d="M1386.857,127.762a1.121,1.121,0,0,0,.013.118.972.972,0,0,0,.55.828,1.281,1.281,0,0,0,1.158-.254h0l.082-.057.018-.012c.2-.137.432-.275.472-.3a59.43,59.43,0,0,1,9.55-3.919c8.312-2.831,11.116-7.161,11.116-17.161a1.422,1.422,0,0,0-.019-.18.962.962,0,0,0-.544-.774c-.027-.012-.052-.016-.078-.025s-.032-.017-.051-.022-.014,0-.022,0a.912.912,0,0,0-.808.175c-.3.222-2.523,1.736-10.321,4.392-8.311,2.831-11.117,7.161-11.117,17.161v.023h0A.079.079,0,0,0,1386.857,127.762Z" transform="translate(-1386.856 -101.074)" fill="#b42eed"/></g><g transform="translate(30.501)"><g transform="translate(0)"><path d="M1479.77,83.639h-2.777a1.253,1.253,0,0,1-1.256-1.253V79.422a1.214,1.214,0,0,1,1.256-1.253h2.777l.026-6.641a1.3,1.3,0,0,1,1.257-1.252l3.77-.066a1.241,1.241,0,0,1,1.191,1.252l-.026,6.707h6.745a1.215,1.215,0,0,1,1.257,1.253v2.964a1.254,1.254,0,0,1-1.257,1.253h-6.745V96.687c0,2.239.859,2.635,2.116,2.635a10.809,10.809,0,0,0,4.034-1.186.991.991,0,0,1,1.521.594l1.19,2.9a1.091,1.091,0,0,1-.594,1.581,20.342,20.342,0,0,1-7.738,1.977c-5.225,0-6.747-3.162-6.747-7.842V83.639" transform="translate(-1475.737 -70.209)" fill="#fafafa"/><path d="M1554.156,101.959a19.1,19.1,0,0,1,5.225.791c.065-4.151-.727-5.8-4.1-5.8a28.186,28.186,0,0,0-7.407,1.187c-.794.2-1.257-.331-1.455-1.055l-.529-2.438a1.184,1.184,0,0,1,.859-1.517,27.4,27.4,0,0,1,9.128-1.515c8.465,0,9.258,5.14,9.258,11.73v14.037a1.3,1.3,0,0,1-1.256,1.252h-1.853c-.594,0-.859-.263-1.124-.923l-.661-1.78a11.431,11.431,0,0,1-8.134,3.361c-4.96,0-8.532-3.361-8.532-8.831C1543.575,105.649,1547.411,101.959,1554.156,101.959Zm-.794,12.653a7.832,7.832,0,0,0,5.953-3.3V107.1a9.989,9.989,0,0,0-4.629-1.054c-3.175,0-5.358,1.648-5.358,4.35A3.971,3.971,0,0,0,1553.362,114.611Z" transform="translate(-1520.296 -84.311)" fill="#fafafa"/><path d="M1631.751,106.459l-8.333-11.137a1.029,1.029,0,0,1,.793-1.78h4.3a1.909,1.909,0,0,1,1.587.726l5.291,7.578h.066l5.422-7.578a1.8,1.8,0,0,1,1.522-.726h4.364c1.125,0,1.455.857.794,1.713l-8.332,11.137,8.4,11.8c.594.857.264,1.713-.794,1.713h-4.166a1.8,1.8,0,0,1-1.389-.79l-5.819-8.172h-.066l-5.953,8.435a1.271,1.271,0,0,1-1.058.527h-4.432c-1.124,0-1.389-.857-.793-1.713Z" transform="translate(-1572.364 -85.583)" fill="#fafafa"/><path d="M1720.421,91.612a11.889,11.889,0,0,1,12.169,12.191,16.043,16.043,0,0,1-.133,1.78,1.213,1.213,0,0,1-1.189,1.12h-17.989a7.646,7.646,0,0,0,7.606,7.052,11.314,11.314,0,0,0,5.886-1.912c.793-.462,1.256-.725,1.785-.066l1.852,2.5a1.021,1.021,0,0,1-.132,1.713,15.235,15.235,0,0,1-9.789,3.295c-8,0-13.292-6.261-13.292-13.839C1707.194,98,1712.484,91.612,1720.421,91.612Zm6.018,10.939a6.248,6.248,0,0,0-6.084-5.865,6.684,6.684,0,0,0-6.745,5.865Z" transform="translate(-1627.767 -84.311)" fill="#fafafa"/><path d="M1794.7,115.2l1.39-2.57a1.142,1.142,0,0,1,1.653-.33,13.728,13.728,0,0,0,6.149,1.714c1.985,0,3.242-.791,3.242-2.241,0-1.78-1.455-2.636-5.094-4.284-4.1-1.778-7.539-4.282-7.539-8.632,0-3.295,2.712-7.249,9.061-7.249a14.872,14.872,0,0,1,7.8,2.043,1.469,1.469,0,0,1,.528,1.912l-1.191,2.24a1.39,1.39,0,0,1-1.718.527,15.163,15.163,0,0,0-5.423-1.384c-2.249,0-2.977.989-2.977,1.978,0,1.713,1.653,2.438,4.232,3.558,4.828,2.109,8.8,4.151,8.8,9.094,0,4.086-3.9,7.71-9.787,7.71a13.905,13.905,0,0,1-8.73-2.7A1.108,1.108,0,0,1,1794.7,115.2Z" transform="translate(-1685.112 -84.311)" fill="#fafafa"/></g></g></svg>