<svg xmlns="http://www.w3.org/2000/svg" xmlns:xlink="http://www.w3.org/1999/xlink" width="129.004" height="144" viewBox="0 0 128.472 144">
  <defs>
    <clipPath id="clip-path">
      <path id="Trazado_8293" data-name="Trazado 8293" d="M98.324,61.117a89.7,89.7,0,0,1-9.691-3.525V-.663L36-1,34.12,35.952c-7.557,3.117-8.626,14.381-11.153,21.387C17.125,73.5,10.84,73.062,10.84,80.123c0,11,21.719,5.8,25.518,23.854,0,0,.269,12.856,21.319,12.856,14.127,0,15.66-3.529,24.052-17.921s13.652-4.131,21.581-11.125S108.839,64.38,98.324,61.117Z" transform="translate(-10.84 1)" fill="none"/>
    </clipPath>
    <clipPath id="clip-path-2">
      <path id="Trazado_8311" data-name="Trazado 8311" d="M120.13,125.161a48.269,48.269,0,0,1,6.147.3s1.652,8.99-3.113,12.238a7.1,7.1,0,0,1-3.909,1.145c-7.707.2-8.519-6.424-8.016-12.583A28.178,28.178,0,0,1,120.13,125.161Z" transform="translate(-111.12 -125.156)" fill="none"/>
    </clipPath>
  </defs>
  <g id="Grupo_3995" data-name="Grupo 3995" transform="translate(-46.029 -120)">
    <rect id="Rectángulo_2130" data-name="Rectángulo 2130" width="120" height="144" transform="translate(48 120)" fill="none"/>
    <g id="Grupo_34401" data-name="Grupo 34401" transform="translate(-1.971 11.933)">
      <rect id="Rectángulo_2130-2" data-name="Rectángulo 2130" width="128.472" height="124.579" transform="translate(48 120)" fill="none"/>
      <g id="Mesa_de_trabajo_6" data-name="Mesa de trabajo 6" transform="translate(61.139 123.106)">
        <g id="Capa_1" data-name="Capa 1" transform="translate(0 0)">
          <path id="Trazado_8259" data-name="Trazado 8259" d="M36.358,164.634s.289,12.872,21.319,12.872c14.127,0,15.66-3.529,24.052-17.921s13.652-4.131,21.581-11.125,5.545-23.4-4.986-26.662c-19.284-5.984-17.593-9.584-30.052-18.511s-39.466-1.434-45.3,14.725S10.84,133.742,10.84,140.8C10.84,151.794,32.559,146.594,36.358,164.634Z" transform="translate(-7.358 -59.68)" fill="#6d31ff"/>
          <g id="Grupo_3795" data-name="Grupo 3795" transform="translate(3.482)" clip-path="url(#clip-path)">
            <path id="Trazado_8260" data-name="Trazado 8260" d="M120.68,10.934l8.713-1.865s12.99-.364,13.466,12.519,2.828,13.466,5.2,12.012a2.67,2.67,0,0,1-3.335,2.915s7.256,4.309,6.056,9.505-3.564,11.141,1.513,10.765a4.065,4.065,0,0,1-6.206.97s-.848,6.337-8.369,6.242a9.9,9.9,0,0,0-8.685-5.846c-6.59-.364-5.331-8.65-5.331-8.65Z" transform="translate(-77.178 -5.08)" fill="#3a1b17"/>
            <path id="Trazado_8261" data-name="Trazado 8261" d="M102.676,10.94,93.891,9.51S80.9,9.791,81.055,22.683s-2.155,13.6-4.6,12.258a2.67,2.67,0,0,0,3.473,2.745s-7.03,4.665-5.572,9.778,4.1,10.955-.978,10.832a4.069,4.069,0,0,0,6.25.657s1.164,6.285,8.67,5.818c0,0-1.038-5.782,5.545-6.475s8.194-.713,8.194-.713Z" transform="translate(-48.611 -5.348)" fill="#3a1b17"/>
            <circle id="Elipse_549" data-name="Elipse 549" cx="2.269" cy="2.269" r="2.269" transform="translate(57.487 25.197)" fill="#bc8044"/>
            <circle id="Elipse_550" data-name="Elipse 550" cx="1.331" cy="1.331" r="1.331" transform="translate(58.425 26.135)" fill="#d38c5b"/>
            <circle id="Elipse_551" data-name="Elipse 551" cx="2.269" cy="2.269" r="2.269" transform="translate(33.248 25.799)" fill="#bc8044"/>
            <circle id="Elipse_552" data-name="Elipse 552" cx="1.331" cy="1.331" r="1.331" transform="translate(34.187 26.737)" fill="#d38c5b"/>
            <path id="Trazado_8262" data-name="Trazado 8262" d="M123.744,118.724l6.313-.154a12.551,12.551,0,0,1,.036-7.679l-6.963.4S124.809,115.9,123.744,118.724Z" transform="translate(-78.657 -66.576)" fill="#bc8044"/>
            <path id="Trazado_8263" data-name="Trazado 8263" d="M123.8,113.789a18.641,18.641,0,0,0-.669-2.483l6.963-.4a11.833,11.833,0,0,0-.614,4.067C127.435,115.75,125.186,114.68,123.8,113.789Z" transform="translate(-78.657 -66.588)" fill="#a56c38"/>
            <path id="Trazado_8264" data-name="Trazado 8264" d="M92.37,216.938c1.307-3.4,5.545-14.563,13.882-15.335,6.159-.566,12.729,12.547,12.733,12.555,3.98,8.828,12.131,25.66-9.406,27.64l-1.671.154C78.041,244,92.37,216.938,92.37,216.938Z" transform="translate(-58.005 -121.351)" fill="#262626"/>
            <path id="Trazado_8265" data-name="Trazado 8265" d="M101.2,128.593c-4.8,5.6-13.592,18.266-2.456,22.9,2.436,7.066-2.9,14.947-2.9,14.947s8.341,3.057,12.5,2.8c.364-.024,1.493-.052,1.861-.048,4.17.052,10.773-3.6,10.773-3.6s-4.5-7.489-2.119-14.6c11.485-5.462,2.376-17.2-2.21-22.971,0,0-1.711-2.578-4.091-2.507s-7.763-.238-9.177.741a7.822,7.822,0,0,0-2.186,2.345Z" transform="translate(-60.669 -75.403)" fill="#05e866"/>
            <path id="Trazado_8266" data-name="Trazado 8266" d="M143.123,185.834s-4.9,1.228-7.873-2.574C135.25,183.26,137.282,188.306,143.123,185.834Z" transform="translate(-85.977 -110.284)" fill="#0fd35e"/>
            <path id="Trazado_8267" data-name="Trazado 8267" d="M108.89,186.392s4.959.982,7.739-2.962C116.629,183.43,114.847,188.571,108.89,186.392Z" transform="translate(-70.057 -110.386)" fill="#0fd35e"/>
            <path id="Trazado_8268" data-name="Trazado 8268" d="M99.481,46.1l.745-17.913s.689-10.353,11.177-9.9c11.763.519,12.317,9.988,12.317,9.988l.048,2.309h0l.82,16.159s.436,4.143-4.907,7.006c-.737.4-1.343.752-1.861,1.085l-.107.091a12.278,12.278,0,0,1-2.717,1.822,6,6,0,0,1-2.9.824h0a7.208,7.208,0,0,1-5.125-1.533L104,54.273A9.069,9.069,0,0,1,99.481,46.1Z" transform="translate(-64.371 -10.64)" fill="#bc8044"/>
            <path id="Trazado_8269" data-name="Trazado 8269" d="M124.076,57.312h0a6.036,6.036,0,0,0,2.9-.824,12.475,12.475,0,0,0,2.717-1.822l.107-.1c.519-.329,1.129-.689,1.861-1.081,5.343-2.863,4.907-7.01,4.907-7.01l-.82-16.159-.048-2.305a10.944,10.944,0,0,0-8.622-9.466c10.614,1.081,11.133,9.9,11.133,9.9l.048,2.309.82,16.159s.436,4.143-4.907,7.006c-.737.4-1.343.753-1.861,1.085l-.107.091a12.278,12.278,0,0,1-2.717,1.822,6,6,0,0,1-2.9.824h0a7.224,7.224,0,0,1-3.113-.4C123.68,57.339,123.866,57.331,124.076,57.312Z" transform="translate(-78.863 -10.807)" fill="#ad733e"/>
            <path id="Trazado_8270" data-name="Trazado 8270" d="M112.685,59.934a1.782,1.782,0,1,1-1.826-1.814,1.826,1.826,0,0,1,1.826,1.814Z" transform="translate(-70.197 -34.705)" fill="#2f1b11"/>
            <path id="Trazado_8271" data-name="Trazado 8271" d="M110.15,59.34a2.49,2.49,0,0,0-3.271.206s-1.481-.238-1.758-1.232a2.733,2.733,0,0,0,2.1.17A2,2,0,0,1,110.15,59.34Z" transform="translate(-67.78 -34.741)" fill="#2f1b11"/>
            <path id="Trazado_8272" data-name="Trazado 8272" d="M110.786,61.266a.5.5,0,0,0,.024.669c.25.261-.139.669-.4.4a1.054,1.054,0,0,1-.127-1.347.293.293,0,0,1,.4-.111.281.281,0,0,1,.111.4Z" transform="translate(-70.788 -36.347)" fill="#fff"/>
            <path id="Trazado_8273" data-name="Trazado 8273" d="M104.8,54.543a.052.052,0,0,0,.032,0,15.843,15.843,0,0,1,1.842-.792,3.168,3.168,0,0,1,1.323-.218,3.022,3.022,0,0,1,1.287.349h.028a.063.063,0,0,0,.036,0,.483.483,0,0,0,.218-.4.424.424,0,0,0-.194-.313,5.192,5.192,0,0,0-1.394-.234,4.653,4.653,0,0,0-.867.032,6.03,6.03,0,0,0-2.345,1.509.055.055,0,0,0,0,.071A.047.047,0,0,0,104.8,54.543Z" transform="translate(-67.555 -31.572)" fill="#3a1b17"/>
            <path id="Trazado_8274" data-name="Trazado 8274" d="M142.486,53.6a.044.044,0,0,1-.032,0,14.726,14.726,0,0,0-1.881-.709,3.168,3.168,0,0,0-1.331-.147,3.089,3.089,0,0,0-1.271.4h-.024a.055.055,0,0,1-.036,0,.471.471,0,0,1-.242-.4.432.432,0,0,1,.178-.325,5.382,5.382,0,0,1,1.382-.3,4.012,4.012,0,0,1,.867,0,6.021,6.021,0,0,1,2.416,1.39.055.055,0,0,1,0,.071A.047.047,0,0,1,142.486,53.6Z" transform="translate(-87.439 -31.07)" fill="#3a1b17"/>
            <path id="Trazado_8275" data-name="Trazado 8275" d="M140,77.9a2.087,2.087,0,1,0,2.036-2.139A2.087,2.087,0,0,0,140,77.9Z" transform="translate(-88.845 -45.358)" fill="#f48f8a" opacity="0.41"/>
            <path id="Trazado_8276" data-name="Trazado 8276" d="M108.755,77.415a2.087,2.087,0,1,1-2.139-2.036,2.087,2.087,0,0,1,2.139,2.036Z" transform="translate(-67.455 -45.129)" fill="#f48f8a" opacity="0.41"/>
            <path id="Trazado_8277" data-name="Trazado 8277" d="M124.608,93.6s.475,1.053,1.37.982a1.465,1.465,0,0,0,1.311-1.085s.1-.459.4-.3c0,0,.265.131.079.5a2.135,2.135,0,0,1-1.774,1.41,1.861,1.861,0,0,1-1.933-1.287s-.107-.3.055-.4C124.125,93.4,124.434,93.2,124.608,93.6Z" transform="translate(-79.197 -55.869)" fill="#3a3a3a"/>
            <path id="Trazado_8278" data-name="Trazado 8278" d="M99.024,15.839s-16.131,12.171-21.7,2.1c0,0,3.434-1.046,6.424-6.864s19.478-8.575,22.813-.57Z" transform="translate(-50.991 -2.948)" fill="#3a1b17"/>
            <path id="Trazado_8279" data-name="Trazado 8279" d="M131.735,19.416s-2.915,5.85,2.182,7.2,10.206,6.784,7.83,9.505c0,0,1.315.927,2.618-1.905s4.23-15.351-5.446-16.7S131.735,19.416,131.735,19.416Z" transform="translate(-83.353 -9.986)" fill="#3a1b17"/>
            <path id="Trazado_8280" data-name="Trazado 8280" d="M100.766,41.419l-.4,8.25s2.7-5.545,1.727-8.281S100.766,41.419,100.766,41.419Z" transform="translate(-64.912 -23.87)" fill="#3a1b17"/>
            <path id="Trazado_8281" data-name="Trazado 8281" d="M58.1,244.042l-2.867,8.575s-23.589,9.466-32.678,10.622c0,0-4.753,1.905-6.123-2.606-2.353-7.727,18.694-21.363,30.349-24.646l3.846-8.206,1.3,2.444S53.38,242.014,58.1,244.042Z" transform="translate(-14.108 -137.171)" fill="#212121"/>
            <path id="Trazado_8282" data-name="Trazado 8282" d="M25.88,295.285l-6.111-.075s-3.838,3.22-3.168,6.147,7.3,45.653,7.3,45.653.935.471,3.588-.463L27.29,343,28.9,346.17l2.257-.551S29.31,328,29.694,319.8,30.779,307.654,25.88,295.285Z" transform="translate(-14.272 -177.896)" fill="#212121"/>
            <path id="Trazado_8283" data-name="Trazado 8283" d="M104.52,259.142c1.953-.737,9.707-2.986,12.5,4.832,0,0,.131,2.242.135,2.254a6.643,6.643,0,0,1-.091,1.188c-.479,5.339-3.03,7.806-6.63,8.761h0s-20.341,5.065-28.25,5.751c0,0-3.141,1.117-4.44-3.414C75.509,270.726,94.417,261.775,104.52,259.142Z" transform="translate(-51.136 -155.586)" fill="#262626"/>
            <path id="Trazado_8284" data-name="Trazado 8284" d="M155.145,244.83s1.406,4.531,4.618,6.2l-1.188,1.343s-4.23-4.162-4.574-6.681Z" transform="translate(-97.301 -147.469)" fill="#3c3d3f"/>
            <path id="Trazado_8285" data-name="Trazado 8285" d="M97.338,243.11s-1.406,4.531-4.618,6.2l1.188,1.343s4.238-4.162,4.574-6.685Z" transform="translate(-60.291 -146.43)" fill="#3c3d3f"/>
            <path id="Trazado_8286" data-name="Trazado 8286" d="M84.488,293l-5.275-1.834s-4.662,3.826-4.1,7.759c.42,2.97,5.941,44.754,5.941,44.754a6.184,6.184,0,0,0,4.075-.539V340.72l1.5,2.452,2.265-.345s-1.509-17.05-.99-25.252S89.189,305.452,84.488,293Z" transform="translate(-49.627 -175.456)" fill="#262626"/>
            <path id="Trazado_8287" data-name="Trazado 8287" d="M124.153,223.68s-6.412,3.961-12.468,3.961c-6.468.024-12.547-3.608-12.547-3.608l-1,2.008s4.852,3.687,13.589,3.469,13.414-4.226,13.414-4.226Z" transform="translate(-63.565 -134.695)" fill="#0fd35e"/>
            <path id="Trazado_8288" data-name="Trazado 8288" d="M154.965,117.536s.954-.091-.768,2.606-2.772,4.836,1.252,6.543c0,0-2.459-1.655-.428-3.521s4.357-1.9,3.081-4.662S154.965,117.536,154.965,117.536Z" transform="translate(-96.496 -70.244)" fill="#3a1b17"/>
            <path id="Trazado_8289" data-name="Trazado 8289" d="M138.76,59.728a1.782,1.782,0,1,0,1.826-1.818,1.822,1.822,0,0,0-1.826,1.818Z" transform="translate(-88.097 -34.579)" fill="#2f1b11"/>
            <path id="Trazado_8290" data-name="Trazado 8290" d="M139.06,59.14a2.49,2.49,0,0,1,3.271.206s1.481-.238,1.758-1.232a2.733,2.733,0,0,1-2.1.17A2,2,0,0,0,139.06,59.14Z" transform="translate(-88.278 -34.621)" fill="#2f1b11"/>
            <path id="Trazado_8291" data-name="Trazado 8291" d="M141.064,61.06a.491.491,0,0,0,0,.665c.25.261-.135.669-.4.4a1.05,1.05,0,0,1-.131-1.347.293.293,0,0,1,.4-.111.289.289,0,0,1,.111.4Z" transform="translate(-89.058 -36.22)" fill="#fff"/>
            <path id="Trazado_8292" data-name="Trazado 8292" d="M24.86,224.07l89.527,1.354L99.282,252.257,44.259,255Z" transform="translate(-19.307 -134.931)" fill="#af6419"/>
          </g>
          <path id="Trazado_8294" data-name="Trazado 8294" d="M163.072,233.977l.036.4a.491.491,0,0,1-.444.523l-3.2.5a.483.483,0,0,1-.519-.44l-.075-.9a.483.483,0,0,1,.448-.5l3.24-.024a.479.479,0,0,1,.515.44Z" transform="translate(-96.76 -140.648)" fill="#996133"/>
          <path id="Trazado_8295" data-name="Trazado 8295" d="M16.529,144.149a12.919,12.919,0,0,0,4.61,4.879c3.564,2.1,9.45.836,18.028-3.873A107.577,107.577,0,0,0,50.3,138.046l-2.376-3.188a105.212,105.212,0,0,1-10.693,6.832c-9.687,5.311-13.07,4.507-14.06,3.917-2.931-1.735-4.309-5.418-4.951-8.2a28.088,28.088,0,0,1-.7-6.087l-3.961-.087C13.531,131.626,13.424,138.664,16.529,144.149Z" transform="translate(-8.995 -78.86)" fill="#bc8044"/>
          <path id="Trazado_8296" data-name="Trazado 8296" d="M102.694,125.562s-11.83-.519-16.634,8.919c0,0,.792,5.244,7.165,5.58Z" transform="translate(-52.787 -75.434)" fill="#05e866"/>
          <path id="Trazado_8297" data-name="Trazado 8297" d="M3.368,124.811c-.055-.02-.883-.277-.935-.3-.511-.3-.444-.824-.2-1.335l1.188-4.551a1.038,1.038,0,0,1,.265-.483,1.073,1.073,0,0,1,1.224-.2l5.9,3.386a1.137,1.137,0,0,1,.455.491,1.444,1.444,0,0,1-.087,1.5l-.994,2.111c-.467,1.232-1.129,1.24-1.667.978Z" transform="translate(-2.048 -70.766)" fill="#bc8044"/>
          <path id="Trazado_8298" data-name="Trazado 8298" d="M20.193,123.417l.4.119a.487.487,0,0,0,.6-.329l1.133-3.034a.479.479,0,0,0-.329-.6l-.863-.253a.487.487,0,0,0-.6.329l-.669,3.168a.479.479,0,0,0,.333.6Z" transform="translate(-12.794 -71.657)" fill="#a56c38"/>
          <path id="Trazado_8299" data-name="Trazado 8299" d="M139.022,261.676l5.172-2.986H135.64Z" transform="translate(-82.731 -155.84)" fill="#1e1e1d"/>
          <rect id="Rectángulo_2106" data-name="Rectángulo 2106" width="38.302" height="1.604" transform="translate(17.989 105.837)" fill="#1e1e1d"/>
          <path id="Trazado_8300" data-name="Trazado 8300" d="M144.18,263.28l5.172-3.477V258.69l-5.172,2.986Z" transform="translate(-87.889 -155.84)" fill="#4d4d4d"/>
          <path id="Trazado_8301" data-name="Trazado 8301" d="M43.82,198.817l1.446-.958,41.451-.768-.923,1.426Z" transform="translate(-27.276 -118.636)" fill="#1e1e1d"/>
          <path id="Trazado_8302" data-name="Trazado 8302" d="M144.18,224.473l1.418-.816,1.731-26.567-.923,1.426Z" transform="translate(-87.889 -118.636)" fill="#42413f"/>
          <path id="Trazado_8303" data-name="Trazado 8303" d="M43.82,200.991l1.446,25.656h38.3l2.226-25.957Z" transform="translate(-27.276 -120.811)" fill="#302f2e"/>
          <path id="Trazado_8304" data-name="Trazado 8304" d="M92.244,230a3.628,3.628,0,1,1-1.061-2.572A3.632,3.632,0,0,1,92.244,230Z" transform="translate(-52.135 -136.314)" fill="#7a7875"/>
          <path id="Trazado_8305" data-name="Trazado 8305" d="M88.612,226.36a3.723,3.723,0,0,1,.871.111,3.624,3.624,0,0,0,0,7.042,3.524,3.524,0,0,1-.871.111,3.632,3.632,0,0,1,0-7.264Z" transform="translate(-52.135 -136.314)" fill="#a3a19f"/>
          <path id="Trazado_8306" data-name="Trazado 8306" d="M168.294,145.38s13.173,14.222,12.341,22.757-15.842,18.341-15.842,18.341l-1.723-4.25s15.355-8.115,13.862-16.012c-1.355-7.129-11.4-17.993-11.4-17.993Z" transform="translate(-99.297 -87.406)" fill="#bc8044"/>
          <path id="Trazado_8307" data-name="Trazado 8307" d="M137.42,125.267s11.794-1.1,17.062,8.079c0,0-.527,5.279-6.875,5.941Z" transform="translate(-83.806 -75.234)" fill="#05e866"/>
          <path id="Trazado_8308" data-name="Trazado 8308" d="M120.13,125.161a48.269,48.269,0,0,1,6.147.3s2.416,13.145-7.022,13.383c-7.707.2-8.519-6.424-8.016-12.583A28.178,28.178,0,0,1,120.13,125.161Z" transform="translate(-67.922 -75.192)" fill="#bc8044"/>
          <g id="Grupo_3796" data-name="Grupo 3796" transform="translate(43.198 49.964)" clip-path="url(#clip-path-2)">
            <path id="Trazado_8309" data-name="Trazado 8309" d="M142.23,134.245s-6.828-.147-7.343.444-.055,1.873-.055,1.873a1.937,1.937,0,0,1,1.533-1.5C137.636,134.879,142.23,134.245,142.23,134.245Z" transform="translate(-125.327 -130.636)" fill="#a56c38"/>
            <path id="Trazado_8310" data-name="Trazado 8310" d="M104.17,136.373s6.776-.855,7.351-.321.249,1.854.249,1.854a1.937,1.937,0,0,0-1.683-1.331Z" transform="translate(-106.923 -131.63)" fill="#a56c38"/>
          </g>
          <path id="Trazado_8312" data-name="Trazado 8312" d="M161.919,240.713c-.036.048-.539.752-.586.792-.44.4-.919.158-1.327-.234l-3.937-2.578a1.041,1.041,0,0,1-.376-.4,1.085,1.085,0,0,1,.194-1.228l5.077-4.523a1.152,1.152,0,0,1,.606-.277,1.442,1.442,0,0,1,1.394.558l1.671,1.612c1.018.836.816,1.465.4,1.893Z" transform="translate(-94.776 -139.871)" fill="#bc8044"/>
        </g>
      </g>
    </g>
  </g>
</svg>
