<svg xmlns="http://www.w3.org/2000/svg" xmlns:xlink="http://www.w3.org/1999/xlink" width="129.004" height="144" viewBox="0 0 120 144">
  <defs>
    <clipPath id="clip-path">
      <path id="Trazado_8460" data-name="Trazado 8460" d="M92.835,63.547c-4.137-1.285.693-2.865-1.888-4.008L88.4,0H11.58l8.83,40.7c-7.728,3.193-2.091,11.816-4.672,18.968C9.761,76.2,3.33,75.776,3.33,82.985c0,11.253,22.222,5.932,26.108,24.4,0,0,.271,13.158,21.813,13.158,14.45,0,16.018-3.611,24.609-18.336s13.968-4.226,22.08-11.383S103.6,66.886,92.835,63.547Z" transform="translate(-3.33)" fill="none"/>
    </clipPath>
  </defs>
  <g id="Grupo_3995" data-name="Grupo 3995" transform="translate(-48 -120)">
    <rect id="Rectángulo_2130" data-name="Rectángulo 2130" width="120" height="144" transform="translate(48 120)" fill="none"/>
    <g id="Mesa_de_trabajo_4" data-name="Mesa de trabajo 4" transform="translate(61 133)">
      <path id="Trazado_8313" data-name="Trazado 8313" d="M29.438,167.126s.271,13.158,21.813,13.158c14.45,0,16.018-3.611,24.609-18.336s13.968-4.226,22.08-11.383,5.673-23.94-5.106-27.279c-19.726-6.123-18-9.806-30.744-18.94s-40.38-1.463-46.333,15.07S3.33,135.519,3.33,142.727C3.33,153.98,25.552,148.66,29.438,167.126Z" transform="translate(-3.33 -59.742)" fill="#6d31ff"/>
      <g id="Grupo_3797" data-name="Grupo 3797" transform="translate(0)" clip-path="url(#clip-path)">
        <path id="Trazado_8314" data-name="Trazado 8314" d="M77.155,69.73s-3.44,5.179-1.7,8.1,2.107,3.983,1.179,4.891a2.618,2.618,0,0,0,1.378-2.334s.215,2.865,2.318,3.363,14.726-3.647,14.726-3.647Z" transform="translate(-45.937 -41.474)" fill="#261b17"/>
        <path id="Trazado_8315" data-name="Trazado 8315" d="M114.82,70.63s3.44,5.179,1.694,8.1-2.107,3.979-1.179,4.887a2.6,2.6,0,0,1-1.357-2.33s-.215,2.869-2.322,3.367S96.93,81.012,96.93,81.012Z" transform="translate(-59.001 -42.009)" fill="#261b17"/>
        <path id="Trazado_8316" data-name="Trazado 8316" d="M61.466,17.133A7.424,7.424,0,0,0,54.735,12c-5.483-.539-7.476,11.05-3.927,13.23s9.1-2.772,9.1-2.772Z" transform="translate(-30.511 -7.128)" fill="#3a3735"/>
        <path id="Trazado_8317" data-name="Trazado 8317" d="M60.455,21.84s-4.948-7.294-9.7-6.727-7.484,5.483-5,6.727S55.941,24.616,57.4,24.3,60.516,22.59,60.455,21.84Z" transform="translate(-28.005 -8.971)" fill="#261b17"/>
        <circle id="Elipse_553" data-name="Elipse 553" cx="2.557" cy="2.557" r="2.557" transform="translate(29.071 26.343)" fill="#c19063"/>
        <circle id="Elipse_554" data-name="Elipse 554" cx="1.499" cy="1.499" r="1.499" transform="translate(30.128 27.401)" fill="#ad754e"/>
        <circle id="Elipse_555" data-name="Elipse 555" cx="2.557" cy="2.557" r="2.557" transform="translate(53.42 26.064)" fill="#c19063"/>
        <circle id="Elipse_556" data-name="Elipse 556" cx="1.499" cy="1.499" r="1.499" transform="translate(54.478 27.121)" fill="#ad754e"/>
        <path id="Trazado_8318" data-name="Trazado 8318" d="M34.047,231.205c-3.4-28.556,7.63-62.323,8.1-63.765l4.271,1.414c-.113.34-11.188,34.269-7.9,61.82Z" transform="translate(-21.213 -99.59)" fill="#c19063"/>
        <path id="Trazado_8319" data-name="Trazado 8319" d="M170.143,158.25h-.061c-4.457.507-9.454-5.637-13.3-11.05-3.777-5.308-6.763-10.6-6.889-10.827l3.923-2.2c.028.053,3.007,5.341,6.65,10.451,5.235,7.351,7.861,8.809,8.753,9.093.373-1.021,1.045-4.863-1.293-17.959-1.483-8.3-3.436-16.107-3.457-16.184l4.36-1.1c0,.081,1.994,7.959,3.5,16.367,2.837,15.755,1.714,19.9.43,21.752A3.765,3.765,0,0,1,170.143,158.25Z" transform="translate(-90.501 -70.464)" fill="#c19063"/>
        <path id="Trazado_8320" data-name="Trazado 8320" d="M106.393,248.27c-.186,5.924-8.153,10.536-15.8,10.288S76.913,253.319,77.1,247.395s6.532-10.536,14.183-10.289S106.579,242.346,106.393,248.27Z" transform="translate(-47.206 -141.02)" fill="#c19063"/>
        <path id="Trazado_8321" data-name="Trazado 8321" d="M120.3,303.751s-1.439-16.128,5.162-16.614c5.462-.405,6.516,2.561,7.428,11.115.887,8.295,1.986,49.409-5.175,49.9C123.1,348.471,121.864,344.058,120.3,303.751Z" transform="translate(-72.82 -170.762)" fill="#c19063"/>
        <path id="Trazado_8322" data-name="Trazado 8322" d="M75.044,302.5s-1.122-16.148,5.487-16.525c5.466-.3,6.484,2.691,7.209,11.257.725,8.311,2.646,49.437-4.526,49.793C78.6,347.26,75.83,342.827,75.044,302.5Z" transform="translate(-45.941 -170.077)" fill="#c19063"/>
        <path id="Trazado_8323" data-name="Trazado 8323" d="M93.422,254.2c-.405,0-16.614,3.363-16.614,3.363s-.912,17.627-.928,23.705c0,5.624,31.275,5.62,30.943.559-.438-6.682-1.139-23.377-1.139-23.377Z" transform="translate(-46.481 -151.193)" fill="#c19063"/>
        <path id="Trazado_8324" data-name="Trazado 8324" d="M73.33,268.514s2.541,71.906,4.263,111.731l10.588-.259L87.4,293.824S89.81,264.782,73.33,268.514Z" transform="translate(-44.965 -159.51)" fill="#1b2b3f"/>
        <path id="Trazado_8325" data-name="Trazado 8325" d="M119.012,293.384l3.327,86.032h10.592c.7-39.857-.219-111.78-.219-111.78C116.147,264.333,119.012,293.384,119.012,293.384Z" transform="translate(-72.023 -159.029)" fill="#1b2b3f"/>
        <path id="Trazado_8326" data-name="Trazado 8326" d="M84.906,225.968,73.26,243.109s-1.714,26.125,15.37,26.745,16.954-27.15,16.954-27.15L92.24,225.47Z" transform="translate(-44.894 -134.105)" fill="#1b2b3f"/>
        <path id="Trazado_8327" data-name="Trazado 8327" d="M108.921,114.223l-1.657,11.889-9.284.069L96.89,114.02Z" transform="translate(-58.978 -67.817)" fill="#c19063"/>
        <path id="Trazado_8328" data-name="Trazado 8328" d="M108.068,118.04s-6.435,3.408-10.8.361l-.405-4.38,12.031.2Z" transform="translate(-58.96 -67.817)" fill="#b28056"/>
        <path id="Trazado_8329" data-name="Trazado 8329" d="M77.512,143l-17.424,2.946s-5.928,3.384.49,10.183l5.4,38.212s14.434,3.752,28.815-2.026L97.663,156.6s7.663-5.244-1.706-11.638Z" transform="translate(-35.604 -85.054)" fill="#c19063"/>
        <path id="Trazado_8330" data-name="Trazado 8330" d="M67.543,145.128l-3.833-2.273s14.381-5.458,21.274-5a51.163,51.163,0,0,1,16.233,4.02l-9.579,7.2Z" transform="translate(-39.243 -81.975)" fill="#c19063"/>
        <path id="Trazado_8331" data-name="Trazado 8331" d="M97.555,141.87a51.061,51.061,0,0,0-16.233-4.02c-6.893-.454-21.274,5-21.274,5s-5.928,3.384.49,10.183l5.414,38.224s14.434,3.752,28.815-2.026l2.873-35.716S105.3,148.265,97.555,141.87Z" transform="translate(-35.58 -81.975)" fill="#c19063"/>
        <path id="Trazado_8332" data-name="Trazado 8332" d="M110.085,165.707c-.292.786-1.062,1.337-1.216,2.176-.118.575.142.916.725.92s2.545-.478,2.666-1.029c.158-.717-1.706-1.422-2-2.071-.045-.1-.182,0-.142.081.227.5,2.046,1.037,2.026,1.6s-1.957,1.447-2.679,1.252l-.446-.292a.608.608,0,0,1,0-.3,1.475,1.475,0,0,1,.134-.486,3.78,3.78,0,0,1,.369-.6,5.134,5.134,0,0,0,.737-1.216c.036-.1-.118-.142-.154-.045Z" transform="translate(-66.086 -98.521)" fill="#191817"/>
        <path id="Trazado_8333" data-name="Trazado 8333" d="M107,165.569a2.606,2.606,0,0,0,.981,1.71.082.082,0,1,0,.081-.142,2.5,2.5,0,0,1-.9-1.621c0-.1-.174-.057-.158.045Z" transform="translate(-64.989 -98.411)" fill="#191817"/>
        <path id="Trazado_8334" data-name="Trazado 8334" d="M106.4,165.508a3.3,3.3,0,0,0-.219,2.6,1.143,1.143,0,0,0,1.576.6c.093-.045,0-.186-.085-.142-.851.405-1.443-.405-1.511-1.167a4.174,4.174,0,0,1,.405-1.856c.036-.1-.122-.138-.158-.041Z" transform="translate(-64.388 -98.408)" fill="#191817"/>
        <path id="Trazado_8335" data-name="Trazado 8335" d="M107.445,165.259c.146-.267.288-.539.405-.81l-.15-.02.207,1.1c0,.1.178.057.158-.045l-.207-1.1a.085.085,0,0,0-.15,0c-.138.272-.28.539-.425.81-.053.093.089.178.142.085Z" transform="translate(-65.152 -97.746)" fill="#191817"/>
        <path id="Trazado_8336" data-name="Trazado 8336" d="M108.276,165.825a2.525,2.525,0,0,0,.859-1.657h-.15l.527.887a.082.082,0,0,0,.142-.081c-.178-.3-.353-.592-.527-.887a.081.081,0,0,0-.15,0,2.383,2.383,0,0,1-.786,1.556c-.081.065,0,.207.085.142Z" transform="translate(-65.679 -97.565)" fill="#191817"/>
        <path id="Trazado_8337" data-name="Trazado 8337" d="M108.612,164.168c.02-.134.061-.316.227-.324s.166.17.235.263.2,0,.138-.085a2.056,2.056,0,0,0-.15-.259.3.3,0,0,0-.271-.081c-.243.045-.312.271-.34.486C108.45,164.273,108.6,164.269,108.612,164.168Z" transform="translate(-65.853 -97.351)" fill="#191817"/>
        <path id="Trazado_8338" data-name="Trazado 8338" d="M104.354,166.883a1.106,1.106,0,0,0-.758-.024c-.316.118-.454.454-.733.624a.081.081,0,0,0,0,.13c.405.373-.045,1.05.438,1.443a1.041,1.041,0,0,0,1.175.081c.089-.053,0-.19-.085-.142a.855.855,0,0,1-.81.032.7.7,0,0,1-.373-.746.871.871,0,0,0-.215-.786v.13c.442-.267.693-.875,1.329-.6.1.041.178-.1.081-.142Z" transform="translate(-62.511 -99.211)" fill="#191817"/>
        <path id="Trazado_8339" data-name="Trazado 8339" d="M114.238,167.506a.985.985,0,0,1,1.05.405.92.92,0,0,0,.49.312l-.02-.15a1.256,1.256,0,0,0-.5.924.81.81,0,0,1-.369.628.644.644,0,0,1-.859-.231,5.826,5.826,0,0,0-1.763.081c.219.377,2.318.49,2.707.292.612-.32.308-1.175.863-1.552a.081.081,0,0,0,0-.15c-.377-.109-.458-.442-.77-.628a1.244,1.244,0,0,0-.855-.085c-.1,0-.061.178.045.158Z" transform="translate(-68.124 -99.514)" fill="#191817"/>
        <path id="Trazado_8340" data-name="Trazado 8340" d="M106.382,163.913a2.026,2.026,0,0,0-.81-.243.081.081,0,0,0-.081.081c0,.531-.912.669-.636,1.285.045.093.186,0,.142-.081-.134-.3.2-.511.405-.689a.742.742,0,0,0,.267-.515l-.081.081a1.941,1.941,0,0,1,.77.239c.1.032.142-.126.045-.158Z" transform="translate(-63.683 -97.348)" fill="#191817"/>
        <path id="Trazado_8341" data-name="Trazado 8341" d="M110.824,164.44c.1-.053.19-.13.292-.174a8.628,8.628,0,0,1,2.2.093.673.673,0,0,0,.49.069l-.1-.077a.592.592,0,0,0,.105.3c.057.085.174.162.211.255a.543.543,0,0,1-.1.519c-.061.085.081.17.142.081a.66.66,0,0,0,.182-.474c-.041-.276-.353-.405-.381-.677a.089.089,0,0,0-.105-.081c-.316.073-2.172-.227-2.484-.211a1.3,1.3,0,0,0-.535.243c-.093.049,0,.19.081.138Z" transform="translate(-67.194 -97.579)" fill="#191817"/>
        <path id="Trazado_8342" data-name="Trazado 8342" d="M104.759,172.629c-.328.142-.519.454-.243.758a1.094,1.094,0,0,0,.588.28,2.431,2.431,0,0,1,1.05.575.089.089,0,0,0,.118,0c.405-.405,2.683-.425,3.242-.6.32-.105.571-.247.6-.6a.081.081,0,0,0-.162,0c-.041.446-2.342.523-2.687.608a3.359,3.359,0,0,0-.908.32c-.186.1-.2.041-.361-.077a2.325,2.325,0,0,0-.47-.263c-.178-.069-.365-.1-.543-.158-.377-.122-.6-.49-.122-.693.093-.045,0-.182-.085-.142Z" transform="translate(-63.434 -102.672)" fill="#191817"/>
        <path id="Trazado_8343" data-name="Trazado 8343" d="M110.34,173.186a.973.973,0,0,0,.774.96,13.066,13.066,0,0,0,2.294-.134,1.621,1.621,0,0,1,1.362-.069.085.085,0,0,0,.122-.093c-.195-.616.624-.924.519-1.556-.089-.547-.705-.738-1.187-.725a.081.081,0,0,0,0,.162,1.07,1.07,0,0,1,.94.373c.219.328.02.636-.182.9a.9.9,0,0,0-.247.887l.118-.093a1.621,1.621,0,0,0-1.26-.041,12.345,12.345,0,0,1-2.484.219.81.81,0,0,1-.6-.81.081.081,0,1,0-.162,0Z" transform="translate(-66.977 -102.046)" fill="#191817"/>
        <path id="Trazado_8344" data-name="Trazado 8344" d="M118.794,165.49a1.426,1.426,0,0,1,.782.077,2.533,2.533,0,0,1,.515.462,1.256,1.256,0,0,0,.875.377l-.041-.154a.81.81,0,0,0-.369.689c0,.178.036.357.032.535s-.19.693-.466.588c-.1-.036-.142.122-.045.158.223.085.49-.182.588-.357.28-.494-.207-1.074.344-1.471a.085.085,0,0,0-.045-.154c-.571,0-.77-.425-1.175-.725a1.378,1.378,0,0,0-1-.19c-.105,0-.105.174,0,.166Z" transform="translate(-71.959 -98.317)" fill="#191817"/>
        <path id="Trazado_8345" data-name="Trazado 8345" d="M105.179,162.353c-.113-.251-.182-.405-.024-.632a.571.571,0,0,1,.454-.288c.255-.053.527-.069.782-.138.486-.134.673-.45.916-.859h-.15c.138.458,2.127.62,2.553.754.7.215,1.216.458,1.248,1.268a.081.081,0,0,0,.162,0,1.268,1.268,0,0,0-.539-1.106c-.523-.34-3.055-.259-3.266-.956a.081.081,0,0,0-.15,0,1.39,1.39,0,0,1-1.009.81,3.958,3.958,0,0,0-.871.178c-.494.215-.438.656-.247,1.078.045.1.182,0,.142-.081Z" transform="translate(-63.741 -95.371)" fill="#191817"/>
        <path id="Trazado_8346" data-name="Trazado 8346" d="M101.659,164.449a2.026,2.026,0,0,0-1.114.154,3.759,3.759,0,0,0-.361.312,2.026,2.026,0,0,1-.81.3.081.081,0,0,0-.036.134,1.88,1.88,0,0,1,.332,1.216,1.438,1.438,0,0,0,.154.81c.336.494.908.405,1.406.308.105-.02.061-.178-.041-.158-.405.093-.81.182-1.139-.134-.251-.239-.211-.608-.219-.924a1.913,1.913,0,0,0-.377-1.216l-.036.138a2.14,2.14,0,0,0,.9-.344,1.572,1.572,0,0,1,.584-.405,2.747,2.747,0,0,1,.774-.024.085.085,0,0,0,0-.166Z" transform="translate(-60.42 -97.799)" fill="#191817"/>
        <path id="Trazado_8347" data-name="Trazado 8347" d="M102.03,172.349a1.021,1.021,0,0,0-.093.928c.267.539.916.705.81,1.426a.081.081,0,0,0,.1.1,2.329,2.329,0,0,1,.96-.045,4.17,4.17,0,0,0,.705.1,1.268,1.268,0,0,0,.584-.13c.2-.109.328-.328.547-.405.093-.036.053-.194-.045-.154a1.354,1.354,0,0,0-.357.251,1.276,1.276,0,0,1-1.127.243,3.242,3.242,0,0,0-1.309,0l.1.1a1.114,1.114,0,0,0-.243-.908c-.105-.138-.243-.243-.357-.373a.81.81,0,0,1-.13-1.037c.049-.093-.093-.174-.138-.081Z" transform="translate(-61.937 -102.497)" fill="#191817"/>
        <path id="Trazado_8348" data-name="Trazado 8348" d="M114.063,160.074c.109-.105.219-.215.324-.324s.235-.385.405-.1a.077.077,0,0,0,.126,0,3.566,3.566,0,0,1,.847-.648l-.113-.032c.065.142.085.292.263.276s.559-.559.721-.239a.089.089,0,0,0,.113.032,1.864,1.864,0,0,1,.9-.251c.195.045.093.259.061.405s-.073.405-.093.6a.081.081,0,0,0,.162,0c.024-.231.344-1.045,0-1.167a1.717,1.717,0,0,0-1.122.267l.113.028c-.085-.17-.182-.267-.377-.195s-.45.511-.608.158a.085.085,0,0,0-.113-.028,3.619,3.619,0,0,0-.875.677h.126a.948.948,0,0,0-.263-.276.093.093,0,0,0-.1,0c-.215.215-2.026.442-2.261.648a6.666,6.666,0,0,0,1.738.118Z" transform="translate(-68.143 -94.327)" fill="#191817"/>
        <path id="Trazado_8349" data-name="Trazado 8349" d="M124.011,161.681l.207-.061-.1-.1a4.9,4.9,0,0,1-.3.535c-.02.041-.053.065-.061.109,0,.113.15.231.142.271s-.28.195-.332.308a.412.412,0,0,0,.069.365l.028-.109a3.508,3.508,0,0,1-.438.195.085.085,0,0,0-.057.1,1.126,1.126,0,0,0,.182.316l.032-.113a1.51,1.51,0,0,0-.531.292c-.065.081.053.2.118.113a2.207,2.207,0,0,1,.494-.263.081.081,0,0,0,.028-.109,1.621,1.621,0,0,1-.166-.28l-.057.1a4.113,4.113,0,0,0,.474-.211.085.085,0,0,0,.032-.113c-.195-.312.271-.344.32-.612a.093.093,0,0,0-.041-.093c-.174-.126.154-.583.219-.762,0-.057-.045-.113-.1-.1l-.207.057a.082.082,0,1,0,.045.158Z" transform="translate(-74.408 -96.035)" fill="#191817"/>
        <path id="Trazado_8350" data-name="Trazado 8350" d="M98.363,158.441c.057.369,0,.742.073,1.11l.1-.1a1.528,1.528,0,0,0-.45-.041.081.081,0,0,0-.081.1c.085.3.32.47.462.733l.049-.122a2.433,2.433,0,0,0-.377.13.085.085,0,0,0-.057.1.693.693,0,0,0,.247.324c.17.15.3.336.466.49v-.126c-.113.049-.243.061-.361.1a.081.081,0,0,0-.036.134c.109.105.223.207.328.316s.186-.041.113-.118-.215-.207-.324-.312l-.036.138a3.448,3.448,0,0,0,.405-.122.077.077,0,0,0,0-.126c-.118-.113-.207-.247-.32-.365s-.288-.2-.348-.381l-.057.1a2.543,2.543,0,0,1,.373-.13.081.081,0,0,0,.049-.122c-.13-.243-.365-.405-.442-.693l-.077.105a1.139,1.139,0,0,1,.405.036.085.085,0,0,0,.1-.1c-.073-.365,0-.742-.073-1.11,0-.1-.174-.057-.158.045Z" transform="translate(-59.64 -94.177)" fill="#191817"/>
        <path id="Trazado_8351" data-name="Trazado 8351" d="M98.908,158.347a7.429,7.429,0,0,0,.94.292.081.081,0,0,0,.089-.036,2.558,2.558,0,0,0,.138-.28l-.113.032a2.431,2.431,0,0,1,.693.539.081.081,0,0,0,.13,0c.284-.344.713.3.883.511a.073.073,0,0,0,.077.024c.166-.065.259-.17.405,0a5.669,5.669,0,0,1,.405.575c.057.085.2,0,.138-.081a4.458,4.458,0,0,0-.454-.693.227.227,0,0,0-.158-.085c-.211,0-.2.13-.43-.041s-.381-.405-.6-.563a.081.081,0,0,0-.081,0,1.122,1.122,0,0,0-.267.251h.13a2.69,2.69,0,0,0-.75-.6.085.085,0,0,0-.113.028c-.093.211-.089.207-.328.15a2.516,2.516,0,0,1-.616-.186c-.089-.049-.174.093-.081.142Z" transform="translate(-60.173 -94.079)" fill="#191817"/>
        <path id="Trazado_8352" data-name="Trazado 8352" d="M100.026,159.805a6.637,6.637,0,0,0,.948.96,3.869,3.869,0,0,1,.875.887c.049.089.19,0,.138-.085a3.205,3.205,0,0,0-.758-.81,7.641,7.641,0,0,1-1.062-1.05c-.065-.085-.207,0-.142.081Z" transform="translate(-60.833 -94.97)" fill="#191817"/>
        <path id="Trazado_8353" data-name="Trazado 8353" d="M120.126,162.16a2.723,2.723,0,0,1,.685-.661c.3-.239.588-.49.9-.709.085-.061,0-.2-.085-.142-.324.231-.624.486-.936.738a2.812,2.812,0,0,0-.709.693.082.082,0,1,0,.142.081Z" transform="translate(-72.707 -95.541)" fill="#191817"/>
        <path id="Trazado_8354" data-name="Trazado 8354" d="M100.947,163.986a2.079,2.079,0,0,1,1.321.081c.1.045.178-.1.085-.142a2.257,2.257,0,0,0-1.451-.1.082.082,0,1,0,.045.158Z" transform="translate(-61.328 -97.396)" fill="#191817"/>
        <path id="Trazado_8355" data-name="Trazado 8355" d="M100.488,162.83a6.41,6.41,0,0,1,1.082.041c.105,0,.146-.134.045-.158a7.464,7.464,0,0,0-1.127-.049C100.387,162.664,100.387,162.822,100.488,162.83Z" transform="translate(-61.073 -96.747)" fill="#191817"/>
        <path id="Trazado_8356" data-name="Trazado 8356" d="M100.424,161.676h.515a.085.085,0,0,0,0-.166c-.174,0-.344.032-.515.024a.081.081,0,0,0,0,.162Z" transform="translate(-61.033 -96.063)" fill="#191817"/>
        <path id="Trazado_8357" data-name="Trazado 8357" d="M101.958,160.231a1.819,1.819,0,0,1-.024.535c-.032.1.126.142.158.041a1.949,1.949,0,0,0,.028-.575.081.081,0,0,0-.162,0Z" transform="translate(-61.975 -95.254)" fill="#191817"/>
        <path id="Trazado_8358" data-name="Trazado 8358" d="M103.25,161.161v.669a.081.081,0,1,0,.162,0v-.669a.081.081,0,0,0-.162,0Z" transform="translate(-62.76 -95.807)" fill="#191817"/>
        <path id="Trazado_8359" data-name="Trazado 8359" d="M104.419,161.58a3.607,3.607,0,0,0-.053,1.045.081.081,0,1,0,.162,0,3.647,3.647,0,0,1,.049-1,.082.082,0,1,0-.158-.041Z" transform="translate(-63.414 -96.068)" fill="#191817"/>
        <path id="Trazado_8360" data-name="Trazado 8360" d="M119.53,162.069a1.929,1.929,0,0,1,.2.847.081.081,0,0,0,.162,0,1.994,1.994,0,0,0-.207-.887C119.648,161.931,119.49,161.971,119.53,162.069Z" transform="translate(-72.44 -96.338)" fill="#191817"/>
        <path id="Trazado_8361" data-name="Trazado 8361" d="M120.985,161.588c.089.17.032.377.093.559.036.1.195.057.158-.045-.065-.2,0-.405-.109-.6C121.079,161.41,120.937,161.5,120.985,161.588Z" transform="translate(-73.303 -96.036)" fill="#191817"/>
        <path id="Trazado_8362" data-name="Trazado 8362" d="M122.19,160.923a1.033,1.033,0,0,1,.049.405.081.081,0,0,0,.162,0,1.183,1.183,0,0,0-.053-.446c-.041-.093-.2-.053-.158.045Z" transform="translate(-74.022 -95.659)" fill="#191817"/>
        <path id="Trazado_8363" data-name="Trazado 8363" d="M120.124,164.316a1.548,1.548,0,0,1,.831.231c.089.057.17-.081.081-.138a1.657,1.657,0,0,0-.912-.259c-.105,0-.105.17,0,.166Z" transform="translate(-72.75 -97.633)" fill="#191817"/>
        <path id="Trazado_8364" data-name="Trazado 8364" d="M121.454,163a2.76,2.76,0,0,1,.644.174.082.082,0,0,0,.045-.158,2.92,2.92,0,0,0-.689-.178A.081.081,0,0,0,121.454,163Z" transform="translate(-73.541 -96.854)" fill="#191817"/>
        <path id="Trazado_8365" data-name="Trazado 8365" d="M122.651,162.011a1.058,1.058,0,0,1,.5.1c.093.049.174-.093.081-.142a1.216,1.216,0,0,0-.579-.122.081.081,0,1,0,0,.162Z" transform="translate(-74.252 -96.264)" fill="#191817"/>
        <path id="Trazado_8366" data-name="Trazado 8366" d="M105.316,19.828c.442-6.005-4.948-8.595-12.023-9.113-6.962-.511-14,2.792-14.183,8.635h0v.284a10.86,10.86,0,0,0,.154,1.734l1.771,22.49a9.8,9.8,0,0,0,4.571,8.133l1.961,1.864a6.127,6.127,0,0,0,4.607,1.475,8.583,8.583,0,0,0,5.183-1.544l1.937-1.9a9.8,9.8,0,0,0,4.457-8.2l1.475-23.021C105.259,20.391,105.3,20.119,105.316,19.828Z" transform="translate(-48.402 -6.342)" fill="#c19063"/>
        <path id="Trazado_8367" data-name="Trazado 8367" d="M95.173,196.024l1.694-42.244c.9-.709,3.27-2.873,3.408-5.916.105-2.375-1.159-4.668-3.765-6.816l-.085-.085-.126-.049a58.546,58.546,0,0,0-11.046-3.384c.81,4.765,1.264,16.176-8.343,15.775-9.227-.405-7.051-12.315-6.484-15.1-5.381,1.463-11.946,3.562-12.262,3.7l-.045.02-.041.024a6.261,6.261,0,0,0-2.861,4.19c-.332,2.212.669,4.6,2.97,7.108L61.7,196.984S85.89,199.889,95.173,196.024Z" transform="translate(-34.155 -81.8)" fill="#fff"/>
        <path id="Trazado_8368" data-name="Trazado 8368" d="M53.888,151.432l-2.727-3.112s-5.936,3.923-7.991,8.226c0,0,1.394,5.41,8.611,7.294l5.535-9.061Z" transform="translate(-27.026 -88.218)" fill="#fff"/>
        <path id="Trazado_8369" data-name="Trazado 8369" d="M147.518,149.981l1.8-4.1s6.844,4.915,8.915,9.215c0,0-1.394,5.41-8.611,7.294l-5.535-9.061Z" transform="translate(-87.051 -86.766)" fill="#fff"/>
        <path id="Trazado_8370" data-name="Trazado 8370" d="M81.443,290s-.126,2.273-3.363,9.13l1.24.689a40.174,40.174,0,0,0,3.935-9.174Z" transform="translate(-47.79 -172.486)" fill="#31434f"/>
        <path id="Trazado_8371" data-name="Trazado 8371" d="M138.347,290s.126,2.273,3.367,9.13l-1.24.689a40.174,40.174,0,0,1-3.935-9.174Z" transform="translate(-82.561 -172.486)" fill="#31434f"/>
        <path id="Trazado_8372" data-name="Trazado 8372" d="M75.636,19.7l-.032,5.2s-.081,5.588-.527,6.281c-.276.405-.547.195-.547.195s-2.695-2.026-3.007-4.64V24.813a6.8,6.8,0,0,1-1.929-6.933c1.187-4.364.462-10.033,6.078-11.281,0,0,5.466-3.74,10.674-1.933,0,0,10.191-.34,12.87,4.413,0,0,4.611,7.055,2.683,12.23l-1,2.431s-1.56,6.581-2.35,6.577-1.722-5.142-1.349-8.931-1.045-5.839-2.229-6.4-2.557.405-7.355.624c-5.231.247-7.1-.936-8.6-.563A5.545,5.545,0,0,0,75.636,19.7Z" transform="translate(-42.578 -2.482)" fill="#261b17"/>
        <path id="Trazado_8373" data-name="Trazado 8373" d="M111.852,98.214s-.507,1.216-1.511,1.143a1.645,1.645,0,0,1-1.507-1.216s-.13-.511-.47-.316c0,0-.292.154-.073.559a2.4,2.4,0,0,0,2.026,1.536,2.087,2.087,0,0,0,2.14-1.5s.113-.336-.077-.454A.372.372,0,0,0,111.852,98.214Z" transform="translate(-65.71 -58.158)" fill="#3a3a3a"/>
        <path id="Trazado_8374" data-name="Trazado 8374" d="M96.6,58.025A2.136,2.136,0,1,1,94.464,56,2.079,2.079,0,0,1,96.6,58.025Z" transform="translate(-56.263 -33.307)" fill="#231f20"/>
        <path id="Trazado_8375" data-name="Trazado 8375" d="M99.046,59.147a.559.559,0,0,1,0,.754c-.271.3.174.75.45.446a1.183,1.183,0,0,0,.105-1.52.332.332,0,0,0-.434-.113.32.32,0,0,0-.113.434Z" transform="translate(-60.21 -34.899)" fill="#fff"/>
        <path id="Trazado_8376" data-name="Trazado 8376" d="M127.115,58.025A2.136,2.136,0,1,1,124.984,56a2.079,2.079,0,0,1,2.131,2.026Z" transform="translate(-74.416 -33.307)" fill="#231f20"/>
        <path id="Trazado_8377" data-name="Trazado 8377" d="M129.566,59.147a.559.559,0,0,1,0,.754c-.271.3.174.75.45.446a1.179,1.179,0,0,0,.105-1.52.332.332,0,0,0-.434-.113.324.324,0,0,0-.113.434Z" transform="translate(-78.362 -34.899)" fill="#fff"/>
        <path id="Trazado_8378" data-name="Trazado 8378" d="M110.639,69.086a9.908,9.908,0,0,1-.786-1.9c-.247-.936-.648-1.276-1.52-1.05s-2.14,7.051,2.431,8.161,4.393-2.213,3.882-3.068S111.984,71.461,110.639,69.086Z" transform="translate(-65.278 -39.299)" fill="#e28f56"/>
        <path id="Trazado_8379" data-name="Trazado 8379" d="M110.928,74.138c-3.918-1.037-3.424-6.212-2.646-7.768-.867.9-1.848,6.97,2.431,8.1,2.395.632,3.5,0,3.935-.847C114.105,74.3,112.987,74.689,110.928,74.138Z" transform="translate(-65.305 -39.476)" fill="#c97236"/>
        <path id="Trazado_8380" data-name="Trazado 8380" d="M120.46,45.706s.482,2.05,1.179,2.322,3.594-.158,4.964.968c0,0,.381-1.856-.766-2.431S122.223,45.106,120.46,45.706Z" transform="translate(-72.997 -27.066)" fill="#261b17"/>
        <path id="Trazado_8381" data-name="Trazado 8381" d="M94.509,45.953s-.555,2.026-1.26,2.277-3.586-.284-5,.81c0,0-.316-1.868.851-2.4S92.767,45.3,94.509,45.953Z" transform="translate(-53.817 -27.188)" fill="#261b17"/>
        <path id="Trazado_8382" data-name="Trazado 8382" d="M89.491,19.242s-2.289-5.2-5.341-7.193c0,0,2.739-.7,5.851,5.908C90,17.957,90.621,19.4,89.491,19.242Z" transform="translate(-51.4 -7.154)" fill="#3a3735"/>
        <path id="Trazado_8383" data-name="Trazado 8383" d="M98.8,15.415s-.486-6.662-3-9.835c0,0,3.169-.028,4.016,8.51C99.816,14.073,99.933,15.913,98.8,15.415Z" transform="translate(-58.329 -3.319)" fill="#3a3735"/>
        <path id="Trazado_8384" data-name="Trazado 8384" d="M120.969,16.549s.709-6.484,3-9.519c0,0-2.727-.105-3.817,8.185C120.15,15.215,119.964,17.006,120.969,16.549Z" transform="translate(-72.804 -4.181)" fill="#3a3735"/>
        <path id="Trazado_8385" data-name="Trazado 8385" d="M126.934,17.943s1.151-5.414,3.339-7.776c0,0-2.289-.324-3.918,6.581C126.354,16.747,126.046,18.243,126.934,17.943Z" transform="translate(-76.472 -6.045)" fill="#3a3735"/>
        <path id="Trazado_8386" data-name="Trazado 8386" d="M48.13,36.959a2.52,2.52,0,0,0,.677,1.969c1.037.855,11.293-2.217,11.293-2.217S48.884,34.673,48.13,36.959Z" transform="translate(-29.972 -21.338)" fill="#261b17"/>
        <path id="Trazado_8387" data-name="Trazado 8387" d="M102.348,89.872s-1.977-1.9-4.052-.62-4.615,2.93-4.615,2.93a4.482,4.482,0,0,0,3.813,0c1.787-1,3.756-.251,4.409-.628S102.348,89.872,102.348,89.872Z" transform="translate(-57.068 -52.822)" fill="#261b17"/>
        <path id="Trazado_8388" data-name="Trazado 8388" d="M113.432,89.872s1.982-1.9,4.052-.62,4.615,2.93,4.615,2.93a4.49,4.49,0,0,1-3.817,0c-1.791-1-3.756-.251-4.409-.628S113.432,89.872,113.432,89.872Z" transform="translate(-68.797 -52.822)" fill="#261b17"/>
        <path id="Trazado_8389" data-name="Trazado 8389" d="M109.5,105.259s-2.237-.673-3.092.96-.3,5.227,1.114,6.313l.652-.81.316,1.751a7.188,7.188,0,0,0,1.106-1.653l.6.928S113.432,106.79,109.5,105.259Z" transform="translate(-64.397 -62.524)" fill="#261b17"/>
        <path id="Trazado_8390" data-name="Trazado 8390" d="M189.5,106.441c.045-.053.673-.81.705-.863.3-.6-.085-1.058-.632-1.39l-3.931-3.586a1.159,1.159,0,0,0-.547-.3,1.216,1.216,0,0,0-1.289.559l-3.529,6.836a1.3,1.3,0,0,0-.13.742,1.656,1.656,0,0,0,1,1.374l2.237,1.374c1.216.879,1.836.482,2.188-.093Z" transform="translate(-108.491 -59.642)" fill="#c19063"/>
        <path id="Trazado_8391" data-name="Trazado 8391" d="M188.043,98.179s-3.671-3.886.843-11.909l4.891.292s-3.886,5.916-1.293,9.32Z" transform="translate(-112.356 -51.312)" fill="#757334"/>
        <path id="Trazado_8392" data-name="Trazado 8392" d="M188.519,97.125a13.016,13.016,0,0,1,1.3-8.57s.328.377.96-.494l2.026.19s-.247.365.543.839a7.043,7.043,0,0,0-1.054,6.889.654.654,0,0,0-.235,1.171l-2.387.7A2.063,2.063,0,0,0,188.519,97.125Z" transform="translate(-113.338 -52.376)" fill="#68652d"/>
        <circle id="Elipse_557" data-name="Elipse 557" cx="0.968" cy="0.968" r="0.968" transform="translate(75.764 39.302)" fill="#757334"/>
        <path id="Trazado_8393" data-name="Trazado 8393" d="M166.09,96.089s5.41.1,7.347,7.006l4.348.089s-2.05-8.51-6.552-9.624Z" transform="translate(-100.136 -55.648)" fill="#757334"/>
        <path id="Trazado_8394" data-name="Trazado 8394" d="M172.75,96.331l2.225-1.171s.146.669,1.216.405a12.813,12.813,0,0,1,4.518,7.416s-.405.057-.462.656l-1.722-.032s.085-1.09-.705-.839c0,0-2.549-5.349-5-5.616C172.815,97.121,173.662,96.578,172.75,96.331Z" transform="translate(-104.098 -56.599)" fill="#68652d"/>
        <circle id="Elipse_558" data-name="Elipse 558" cx="0.782" cy="0.782" r="0.782" transform="translate(72.421 41.762)" fill="#757334"/>
        <path id="Trazado_8395" data-name="Trazado 8395" d="M178.4,91.31a9.154,9.154,0,0,1,7.063,7.817l.118,1.386-5.4.13s-1.2-5.92-4.624-6.273Z" transform="translate(-105.769 -54.309)" fill="#8e8e30"/>
        <path id="Trazado_8396" data-name="Trazado 8396" d="M178.64,94.8s.721-.162.685.7a7.675,7.675,0,0,1,3.173,5.673l3.809-.032s-.126-1.082.405-1.09c0,0-1.337-5.43-5.086-6.617,0,0-1.074.122-1.114-.575Z" transform="translate(-107.601 -55.231)" fill="#ddda7a"/>
        <circle id="Elipse_559" data-name="Elipse 559" cx="1.191" cy="1.191" r="1.191" transform="translate(74.277 40.554)" fill="#8e8e30"/>
        <path id="Trazado_8397" data-name="Trazado 8397" d="M180.544,114.031l-.454.122a.543.543,0,0,1-.669-.405l-1.216-3.461a.551.551,0,0,1,.405-.669l.981-.263a.547.547,0,0,1,.669.405l.685,3.6a.547.547,0,0,1-.4.673Z" transform="translate(-107.333 -65.032)" fill="#ad754e"/>
        <path id="Trazado_8398" data-name="Trazado 8398" d="M51.051,186.144l1.029-.405c.049,0,0-.093-.041-.073l-1.029.405C50.962,186.091,51.01,186.164,51.051,186.144Z" transform="translate(-31.677 -110.429)" fill="#191817"/>
        <path id="Trazado_8399" data-name="Trazado 8399" d="M53.553,185.752c.535.154,1.07.324,1.621.478a.042.042,0,0,0,.024-.081c-.539-.154-1.074-.32-1.621-.474a.041.041,0,1,0-.024.077Z" transform="translate(-33.183 -110.434)" fill="#191817"/>
        <path id="Trazado_8400" data-name="Trazado 8400" d="M57.519,186.913c.195.308.385.62.579.924.028.045.1,0,.073-.036l-.579-.928C57.563,186.828,57.486,186.873,57.519,186.913Z" transform="translate(-35.556 -111.137)" fill="#191817"/>
        <path id="Trazado_8401" data-name="Trazado 8401" d="M51,186.761l.94,2.646c0,.053.1.032.081,0l-.94-2.65c0-.049-.1-.032-.081.02Z" transform="translate(-31.68 -111.062)" fill="#191817"/>
        <path id="Trazado_8402" data-name="Trazado 8402" d="M53.38,190.891c.762-.547,1.52-1.106,2.281-1.653.045-.032,0-.093-.057-.061-.762.547-1.52,1.106-2.281,1.649C53.279,190.858,53.323,190.919,53.38,190.891Z" transform="translate(-33.054 -112.513)" fill="#191817"/>
        <path id="Trazado_8403" data-name="Trazado 8403" d="M51.1,186.778l3.177,1a.041.041,0,1,0,.024-.077l-3.185-1a.042.042,0,0,0-.024.081Z" transform="translate(-31.722 -111.043)" fill="#191817"/>
        <path id="Trazado_8404" data-name="Trazado 8404" d="M53.576,185.975a5.912,5.912,0,0,0-.6.523c-.041.036,0,.1.057.061a5.9,5.9,0,0,1,.616-.531c.045-.032,0-.093-.057-.061Z" transform="translate(-32.849 -110.604)" fill="#191817"/>
        <path id="Trazado_8405" data-name="Trazado 8405" d="M52.89,187.4q.065,1.187.19,2.358c0,.053.089.032.081-.02-.081-.774-.146-1.552-.186-2.334a.043.043,0,0,0-.085,0Z" transform="translate(-32.807 -111.437)" fill="#191817"/>
        <path id="Trazado_8406" data-name="Trazado 8406" d="M56.458,186.6c.069.259.1.531.166.79a.041.041,0,1,0,.081,0c-.069-.263-.1-.531-.166-.81a.042.042,0,0,0-.081.02Z" transform="translate(-34.929 -110.957)" fill="#191817"/>
        <path id="Trazado_8407" data-name="Trazado 8407" d="M54.822,188.567c-.5.592-.968,1.216-1.414,1.84-.032.045.041.089.069.045.446-.632.916-1.248,1.414-1.84C54.924,188.571,54.855,188.526,54.822,188.567Z" transform="translate(-33.111 -112.146)" fill="#191817"/>
        <path id="Trazado_8408" data-name="Trazado 8408" d="M50.92,255.04l54.612.827-9.211,16.371-33.568,1.674Z" transform="translate(-31.636 -151.693)" fill="#c1721b"/>
        <path id="Trazado_8409" data-name="Trazado 8409" d="M142.171,260.775l-.28.109.215.17-.194.288.194.19-.223.405-.032.79s0,.024-.02.028c-.494.134-10.941,2.995-10.941,3.076h-.024c-.34-.061-4.632-1.682-4.891-1.779h0l-.207-.624a.052.052,0,0,1,0-.024l.2-.344-.2-.041-.377-.993a.032.032,0,0,1,0-.032l.231-.239-.344-.093.32-.336a.028.028,0,0,0,0-.045l-.474-.211.288-.324a.032.032,0,0,0,0-.036l-.328-.458a.028.028,0,0,1,.024-.045l4.316-.2,12.793-.579a.028.028,0,0,1,.028.032l-.219,1.135Z" transform="translate(-75.743 -154.304)" fill="#8c8c3f"/>
        <path id="Trazado_8410" data-name="Trazado 8410" d="M130.48,265.24a.036.036,0,0,0,0,.02l.032.361.1,1.078a.024.024,0,0,1-.036.028c-.511-.158-4.457-1.678-4.713-1.779v-.02l-.146-.628a.028.028,0,0,1,0-.02l.239-.348-.186-.045-.369-.993a.032.032,0,0,1,0-.032l.235-.239-.34-.093.316-.336a.028.028,0,0,0,0-.045l-.474-.211.288-.324a.032.032,0,0,0,0-.036l-.328-.458a.028.028,0,0,1,0-.045l4.307-.195h.02l.624.6h0l.515,1.742h0l.036,1.009-.353.43.405.134a.028.028,0,0,1,0,.04Z" transform="translate(-75.746 -155.166)" fill="#b2b059"/>
        <path id="Trazado_8411" data-name="Trazado 8411" d="M125,256.724a41.225,41.225,0,0,0,5.519,2.156h0c.746-.093,11.176-2.46,11.731-2.881a.032.032,0,0,0,0-.04c-.648-.738-4.1-2.265-4.478-2.387C137.319,253.422,125.556,256.266,125,256.724Z" transform="translate(-75.693 -150.816)" fill="#979936"/>
        <path id="Trazado_8412" data-name="Trazado 8412" d="M129.372,257.067c.036.085.109.361-.405.482-.028,0-.032.045,0,.053,1.244.482,2.942,1.216,3.116,1.3a.028.028,0,0,0,.024,0,1.694,1.694,0,0,1,1.066-.361,1.264,1.264,0,0,1,.81.405.024.024,0,0,0,.028,0l8.732-2.131a.028.028,0,0,0,0-.049c-.109-.093-.34-.365.049-.713a.028.028,0,0,0,0-.049c-.968-.527-2.119-1.082-2.334-1.183a.024.024,0,0,0-.036,0c0,.057-.109.17-.555.166a1.37,1.37,0,0,1-.916-.344h0c-.377.081-8.262,1.8-9.547,2.395a.028.028,0,0,0-.032.032Z" transform="translate(-78.042 -151.455)" fill="#ddda7a"/>
        <path id="Trazado_8413" data-name="Trazado 8413" d="M147.435,257.864c.045.466-.75.916-1.767,1.009s-1.88-.2-1.921-.669.746-.916,1.767-1.009S147.395,257.4,147.435,257.864Z" transform="translate(-86.847 -152.964)" fill="#fcee21"/>
        <path id="Trazado_8414" data-name="Trazado 8414" d="M130.9,265.117a9.935,9.935,0,0,0-1.649-.592c-.555-.182-1.131-.324-1.686-.519-.158-.057-.267.174-.109.227.579.19,1.131.442,1.7.648a9.525,9.525,0,0,0,1.653.547.166.166,0,0,0,.089-.312Z" transform="translate(-77.112 -157.021)" fill="#777530"/>
        <path id="Trazado_8415" data-name="Trazado 8415" d="M130.047,266.468c-.543-.194-1.155-.243-1.682-.466-.17-.073-.267.2-.073.235.567.093,1.1.377,1.669.5a.142.142,0,0,0,.085-.272Z" transform="translate(-77.591 -158.205)" fill="#777530"/>
        <path id="Trazado_8416" data-name="Trazado 8416" d="M130.616,268.746a2.1,2.1,0,0,1-.442-.178c-.19-.126-.3.2-.1.219a2.056,2.056,0,0,1,.462.126C130.648,268.949,130.729,268.787,130.616,268.746Z" transform="translate(-78.65 -159.722)" fill="#777530"/>
        <path id="Trazado_8417" data-name="Trazado 8417" d="M156.408,264.43a6.7,6.7,0,0,0-1.734.312c-.575.138-1.143.3-1.71.47a.126.126,0,0,0,.061.239c.612-.1,1.216-.211,1.823-.353a6.585,6.585,0,0,0,1.621-.462.113.113,0,0,0-.061-.207Z" transform="translate(-92.286 -157.278)" fill="#777530"/>
        <path id="Trazado_8418" data-name="Trazado 8418" d="M156.267,266.739c-.288.032-.571.081-.855.122-.17.024-.142.276.024.247.284-.053.571-.1.855-.158a.106.106,0,1,0-.024-.211Z" transform="translate(-93.717 -158.651)" fill="#777530"/>
        <path id="Trazado_8419" data-name="Trazado 8419" d="M136.4,256.193l4.794,2.8h.024l4.583-1.062a.028.028,0,0,0,0-.053l-5.049-2.719h-.02l-4.332.985a.028.028,0,0,0,0,.049Z" transform="translate(-82.469 -151.764)" fill="#ffe506"/>
        <path id="Trazado_8420" data-name="Trazado 8420" d="M148.28,263.07l.239,3.307s0,.032.036.024l4.149-1.094a.024.024,0,0,0,.02-.024l.223-3.286a.028.028,0,0,0-.036-.028l-4.607,1.074A.028.028,0,0,0,148.28,263.07Z" transform="translate(-89.543 -155.813)" fill="#ffbc00"/>
        <path id="Trazado_8421" data-name="Trazado 8421" d="M139.327,256.719c.446-.1,2.837-.648,3.015-.689h0l4.024,2.233a.028.028,0,0,1,0,.053l-3.294.713h0l-3.74-2.261a.024.024,0,1,1,0-.049Z" transform="translate(-84.205 -152.281)" fill="#ffd300"/>
        <path id="Trazado_8422" data-name="Trazado 8422" d="M158.755,265.349l-.28.109.219.166-.2.292.194.19-.227.405-.036.81s-10.941,3-10.941,3.08h-.032c-.348-.061-4.9-1.783-4.9-1.783l-.215-.648.215-.353-.207-.045-.381-1.009.243-.255-.344-.093.348-.365-.511-.227.3-.34-.369-.519,4.368-.2L158.832,264l-.227,1.171Z" transform="translate(-85.588 -157.022)" fill="#8c8c3f"/>
        <path id="Trazado_8423" data-name="Trazado 8423" d="M146.859,269.856l-.17.405.105,1.118c0-.1-4.567-1.815-4.567-1.815l-.049-.665.3-.361-.162-.049-.361-1.013.251-.251-.336-.1.348-.365-.511-.227.3-.34-.369-.519,4.368-.2.64.616.519,1.755.036,1.025-.361.438.348.154Z" transform="translate(-85.594 -157.902)" fill="#b2b059"/>
        <path id="Trazado_8424" data-name="Trazado 8424" d="M141.636,261.3a41.288,41.288,0,0,0,5.523,2.156c.729-.089,11.52-2.537,11.751-2.905-.6-.729-4.113-2.285-4.494-2.407C153.939,257.992,142.188,260.836,141.636,261.3Z" transform="translate(-85.59 -153.534)" fill="#979936"/>
        <path id="Trazado_8425" data-name="Trazado 8425" d="M145.876,261.623s.235.405-.486.523c1.313.507,3.213,1.333,3.213,1.333a1.714,1.714,0,0,1,1.078-.369,1.256,1.256,0,0,1,.839.405l8.785-2.148s-.494-.328.041-.778c-1.078-.588-2.4-1.216-2.4-1.216s.041.207-.559.2a1.349,1.349,0,0,1-.924-.353S147.108,261.027,145.876,261.623Z" transform="translate(-87.824 -154.179)" fill="#ddda7a"/>
        <path id="Trazado_8426" data-name="Trazado 8426" d="M164.065,262.432c.045.466-.746.916-1.767,1.013s-1.876-.207-1.921-.673.75-.912,1.767-1.009S164.024,261.97,164.065,262.432Z" transform="translate(-96.738 -155.681)" fill="#fcee21"/>
        <path id="Trazado_8427" data-name="Trazado 8427" d="M147.521,269.687a9.574,9.574,0,0,0-1.657-.588c-.555-.186-1.131-.324-1.686-.523-.158-.057-.267.174-.105.227.575.194,1.127.442,1.7.648a9.524,9.524,0,0,0,1.653.547.166.166,0,0,0,.1-.312Z" transform="translate(-86.993 -159.739)" fill="#777530"/>
        <path id="Trazado_8428" data-name="Trazado 8428" d="M146.677,271.038c-.543-.195-1.155-.243-1.682-.466-.17-.073-.267.207-.073.235.567.093,1.1.377,1.67.5a.142.142,0,1,0,.085-.271Z" transform="translate(-87.482 -160.924)" fill="#777530"/>
        <path id="Trazado_8429" data-name="Trazado 8429" d="M147.246,273.32a1.993,1.993,0,0,1-.438-.182c-.195-.126-.308.2-.105.219a2.058,2.058,0,0,1,.462.113C147.278,273.519,147.359,273.361,147.246,273.32Z" transform="translate(-88.542 -162.44)" fill="#777530"/>
        <path id="Trazado_8430" data-name="Trazado 8430" d="M173.038,269a6.888,6.888,0,0,0-1.734.312c-.575.138-1.143.3-1.71.47a.126.126,0,0,0,.061.239c.612-.1,1.216-.211,1.823-.353a6.41,6.41,0,0,0,1.621-.462.113.113,0,0,0-.061-.207Z" transform="translate(-102.178 -159.996)" fill="#777530"/>
        <path id="Trazado_8431" data-name="Trazado 8431" d="M172.9,271.309c-.284.032-.571.081-.855.122-.17.024-.138.28.024.247.288-.053.571-.1.855-.158a.106.106,0,0,0-.024-.211Z" transform="translate(-103.61 -161.369)" fill="#777530"/>
        <path id="Trazado_8432" data-name="Trazado 8432" d="M152.9,260.715l4.867,2.845,4.672-1.09-5.126-2.76Z" transform="translate(-92.291 -154.47)" fill="#ffe506"/>
        <path id="Trazado_8433" data-name="Trazado 8433" d="M164.91,267.61l.243,3.363,4.2-1.11.227-3.343Z" transform="translate(-99.435 -158.521)" fill="#ffbc00"/>
        <path id="Trazado_8434" data-name="Trazado 8434" d="M155.82,261.3c.069,0,3.1-.7,3.1-.7l4.1,2.273-3.38.725Z" transform="translate(-94.028 -155)" fill="#ffd300"/>
        <path id="Trazado_8435" data-name="Trazado 8435" d="M148.59,253.615l-.28.109.215.166-.2.3.195.19-.227.405h0l-.036.79a.024.024,0,0,1-.02.024c-.49.134-10.941,2.995-10.941,3.076h0c-.34-.061-4.636-1.682-4.891-1.779h0l-.207-.624a.024.024,0,0,1,0-.024l.207-.34-.2-.045-.377-.993a.045.045,0,0,1,0-.032l.231-.239-.34-.093.316-.336a.028.028,0,0,0,0-.045l-.474-.211.288-.324a.028.028,0,0,0,0-.036l-.324-.458a.028.028,0,0,1,.02-.045l4.32-.194,12.789-.584s.036,0,.032.032l-.219,1.139Z" transform="translate(-79.573 -150.045)" fill="#757334"/>
        <path id="Trazado_8436" data-name="Trazado 8436" d="M136.886,258.074h0l.032.361.1,1.078a.032.032,0,0,1-.036.032c-.515-.162-4.457-1.682-4.717-1.783h0l-.142-.628a.052.052,0,0,1,0-.024l.239-.348-.19-.045-.365-.993a.024.024,0,0,1,0-.028l.235-.243-.34-.093.32-.336a.028.028,0,0,0,0-.045l-.474-.211.288-.324a.028.028,0,0,0,0-.036l-.324-.458a.028.028,0,0,1,.02-.045l4.307-.194.624.6h0l.515,1.746h0l.041,1.009a.032.032,0,0,1,0,.02l-.353.43.405.134a.028.028,0,0,1,0,.041Z" transform="translate(-79.567 -150.902)" fill="#565425"/>
        <path id="Trazado_8437" data-name="Trazado 8437" d="M131.387,249.556a41.3,41.3,0,0,0,5.523,2.156h0c.742-.1,11.172-2.46,11.751-2.885a.028.028,0,0,0,0-.041c-.648-.737-4.1-2.265-4.457-2.387C143.709,246.234,131.946,249.095,131.387,249.556Z" transform="translate(-79.494 -146.549)" fill="#8e8e30"/>
        <path id="Trazado_8438" data-name="Trazado 8438" d="M135.734,249.9c.036.085.109.361-.405.482a.028.028,0,1,0,0,.057c1.24.482,2.942,1.216,3.112,1.293a.024.024,0,0,0,.028,0,1.669,1.669,0,0,1,1.066-.361,1.24,1.24,0,0,1,.81.405.032.032,0,0,0,.028,0l8.712-2.131a.028.028,0,0,0,0-.049c-.105-.093-.34-.365.053-.713a.028.028,0,0,0,0-.045c-.968-.531-2.123-1.086-2.334-1.187a.024.024,0,0,0-.036,0c-.02.061-.113.17-.559.166a1.354,1.354,0,0,1-.912-.344h-.024c-.377.085-8.258,1.807-9.547,2.4A.024.024,0,0,0,135.734,249.9Z" transform="translate(-81.823 -147.19)" fill="#ddda7a"/>
        <path id="Trazado_8439" data-name="Trazado 8439" d="M153.819,250.692c.041.466-.75.916-1.767,1.013s-1.88-.207-1.925-.669.75-.916,1.767-1.013S153.774,250.23,153.819,250.692Z" transform="translate(-90.641 -148.698)" fill="#fcee21"/>
        <path id="Trazado_8440" data-name="Trazado 8440" d="M137.275,257.947a9.53,9.53,0,0,0-1.653-.588c-.559-.186-1.135-.324-1.686-.523-.158-.057-.267.174-.109.227.575.195,1.131.442,1.7.648a9.485,9.485,0,0,0,1.649.547.166.166,0,0,0,.1-.312Z" transform="translate(-80.901 -152.756)" fill="#777530"/>
        <path id="Trazado_8441" data-name="Trazado 8441" d="M136.434,259.3c-.543-.194-1.155-.243-1.682-.466-.174-.073-.267.207-.077.235.571.093,1.106.377,1.67.5a.146.146,0,0,0,.089-.271Z" transform="translate(-81.389 -153.941)" fill="#777530"/>
        <path id="Trazado_8442" data-name="Trazado 8442" d="M137.05,261.58a2.078,2.078,0,0,1-.438-.182c-.19-.126-.3.2-.105.219a2.086,2.086,0,0,1,.466.126C137.05,261.779,137.147,261.625,137.05,261.58Z" transform="translate(-82.479 -155.457)" fill="#777530"/>
        <path id="Trazado_8443" data-name="Trazado 8443" d="M162.837,257.26a6.889,6.889,0,0,0-1.73.312c-.579.138-1.147.3-1.714.47a.126.126,0,0,0,.065.239c.608-.1,1.216-.211,1.824-.348a6.509,6.509,0,0,0,1.621-.466.113.113,0,0,0-.065-.207Z" transform="translate(-96.11 -153.013)" fill="#777530"/>
        <path id="Trazado_8444" data-name="Trazado 8444" d="M162.653,259.569c-.288.032-.571.081-.859.122-.17.024-.138.28.028.247.284-.053.571-.1.851-.158a.106.106,0,0,0-.02-.211Z" transform="translate(-97.514 -154.386)" fill="#777530"/>
        <path id="Trazado_8445" data-name="Trazado 8445" d="M142.8,249.029l4.794,2.8h.02l4.583-1.066a.028.028,0,0,0,0-.053L147.159,248h0l-4.332.985a.028.028,0,0,0-.024.045Z" transform="translate(-86.282 -147.505)" fill="#ffe506"/>
        <path id="Trazado_8446" data-name="Trazado 8446" d="M154.663,255.882l.239,3.3a.028.028,0,0,0,.036.028l4.145-1.114a.024.024,0,0,0,.024-.024l.219-3.286a.028.028,0,0,0-.032-.028l-4.611,1.074a.032.032,0,0,0-.02.049Z" transform="translate(-93.337 -151.526)" fill="#ffbc00"/>
        <path id="Trazado_8447" data-name="Trazado 8447" d="M145.711,249.549c.446-.1,2.837-.648,3.015-.689h0l4.028,2.233a.028.028,0,0,1,0,.053l-3.294.717h0l-3.744-2.257a.028.028,0,0,1,0-.057Z" transform="translate(-88 -148.017)" fill="#ffd300"/>
        <path id="Trazado_8448" data-name="Trazado 8448" d="M171.73,272.078l.377,1.722s.96,1.058,4.676.944c3.906-.118,4.121-1.216,4.121-1.216l.1-1.588Z" transform="translate(-103.491 -161.744)" fill="#ffbc00"/>
        <path id="Trazado_8449" data-name="Trazado 8449" d="M180.809,269.707c-.875-.742-3.74-.863-4.137-.871-2.926-.073-4.559.267-4.863,1.122-.357,1.054,2.156,1.426,2.756,1.528a13.371,13.371,0,0,0,5.041-.17,2.071,2.071,0,0,0,1.151-.535C181.186,270.339,181.129,269.991,180.809,269.707Z" transform="translate(-103.518 -159.892)" fill="#ffe506"/>
        <path id="Trazado_8450" data-name="Trazado 8450" d="M174.32,270.841c-.405-.405.571-.944,3.1-.985s3.971.462,4.129.932C181.76,271.4,175.329,271.9,174.32,270.841Z" transform="translate(-104.979 -160.504)" fill="#ffd300"/>
        <path id="Trazado_8451" data-name="Trazado 8451" d="M175.25,266.232l.381,1.722s.96,1.058,4.676.944c3.906-.113,4.121-1.216,4.121-1.216l.1-1.592Z" transform="translate(-105.585 -158.265)" fill="#ffbc00"/>
        <path id="Trazado_8452" data-name="Trazado 8452" d="M184.339,263.907c-.875-.742-3.74-.863-4.137-.871-2.926-.073-4.563.267-4.863,1.122-.357,1.054,2.156,1.426,2.756,1.532a13.441,13.441,0,0,0,5.041-.17,2.1,2.1,0,0,0,1.151-.539C184.716,264.527,184.659,264.175,184.339,263.907Z" transform="translate(-105.617 -156.443)" fill="#ffe506"/>
        <path id="Trazado_8453" data-name="Trazado 8453" d="M177.87,265c-.405-.405.571-.944,3.1-.985s3.975.466,4.133.932C185.3,265.565,178.871,266.059,177.87,265Z" transform="translate(-107.09 -157.03)" fill="#ffd300"/>
        <path id="Trazado_8454" data-name="Trazado 8454" d="M170.64,261.218l.377,1.722s.96,1.058,4.676.944c3.906-.118,4.121-1.216,4.121-1.216l.1-1.589Z" transform="translate(-102.843 -155.285)" fill="#ffbc00"/>
        <path id="Trazado_8455" data-name="Trazado 8455" d="M179.733,258.887c-.879-.742-3.744-.863-4.141-.871-2.926-.073-4.559.267-4.863,1.122-.357,1.054,2.156,1.426,2.755,1.528a13.339,13.339,0,0,0,5.037-.166,2.128,2.128,0,0,0,1.155-.539C180.1,259.5,180.045,259.155,179.733,258.887Z" transform="translate(-102.875 -153.457)" fill="#ffe506"/>
        <path id="Trazado_8456" data-name="Trazado 8456" d="M173.23,259.981c-.405-.405.571-.944,3.1-.985s3.971.462,4.129.932C180.67,260.545,174.239,261.023,173.23,259.981Z" transform="translate(-104.33 -154.045)" fill="#ffd300"/>
        <path id="Trazado_8457" data-name="Trazado 8457" d="M171.59,254.972l.377,1.718s.96,1.058,4.676.948c3.906-.118,4.121-1.216,4.121-1.216l.1-1.593Z" transform="translate(-103.408 -151.568)" fill="#ffbc00"/>
        <path id="Trazado_8458" data-name="Trazado 8458" d="M180.673,252.637c-.879-.742-3.744-.859-4.141-.871-2.922-.073-4.559.267-4.863,1.127-.357,1.054,2.156,1.426,2.755,1.528a13.421,13.421,0,0,0,5.037-.17,2.152,2.152,0,0,0,1.155-.535C181.046,253.257,180.989,252.909,180.673,252.637Z" transform="translate(-103.434 -149.74)" fill="#ffe506"/>
        <path id="Trazado_8459" data-name="Trazado 8459" d="M174.18,253.735c-.405-.405.571-.948,3.1-.989s3.971.466,4.129.936C181.62,254.295,175.189,254.793,174.18,253.735Z" transform="translate(-104.895 -150.327)" fill="#ffd300"/>
      </g>
      <path id="Trazado_8461" data-name="Trazado 8461" d="M87.726,268.015a14.851,14.851,0,0,0,.182-2.289c0-2.529-.357-4.166-4.307-8.007a.284.284,0,0,0-.138-.073l-4.19-.855h-.065l-6.009.272a.263.263,0,0,0-.154.053c-3.485,2.488-5.345,5.029-5.345,8.611a9.1,9.1,0,0,0,.361,2.541l.466,1,18.762-.195Z" transform="translate(-41.616 -152.733)" fill="#353535"/>
      <path id="Trazado_8462" data-name="Trazado 8462" d="M87.2,207.841l-18.3-3.509a.28.28,0,0,0-.3.405l6.163,13.372a.284.284,0,0,0,.195.158l18.5,4.052a.276.276,0,0,0,.308-.385L87.384,208a.267.267,0,0,0-.182-.158Z" transform="translate(-42.133 -121.529)" fill="#6e6e71"/>
      <path id="Trazado_8463" data-name="Trazado 8463" d="M122.268,225.612l-6.366-13.96a.276.276,0,0,0-.458-.069l-.361.405a.28.28,0,0,0-.041.3l6.394,14a.276.276,0,0,0,.47.053l.328-.425A.284.284,0,0,0,122.268,225.612Z" transform="translate(-69.76 -125.79)" fill="#626463"/>
      <path id="Trazado_8464" data-name="Trazado 8464" d="M69.633,203.258l18.036,3.461a.271.271,0,0,0,.259-.089l.336-.405a.276.276,0,0,0-.158-.454l-17.9-3.327a.288.288,0,0,0-.182.028l-.47.251a.28.28,0,0,0,.081.535Z" transform="translate(-42.617 -120.407)" fill="#353535"/>
      <path id="Trazado_8465" data-name="Trazado 8465" d="M86.268,220.311l1.447-2.026a.324.324,0,0,1,.053-.053,1.306,1.306,0,0,1,1.755.178s.705.511-.219,1.621l-3.076,3.918a.259.259,0,0,0-.061.178L86.378,230a.329.329,0,0,1,0,.065c-.065.308-.656,2.6-4.6,2.938,0,0-1.682.255-1.516-2l-.276-13.247s-.377-5.673,3.821-5.945a.3.3,0,0,1,.154.036c.405.207,2.14,1.325,2.144,4.51v.028l-.34,3.74a.28.28,0,0,0,.5.186Z" transform="translate(-48.919 -125.98)" fill="#353535"/>
      <path id="Trazado_8466" data-name="Trazado 8466" d="M96.521,225.834a1.82,1.82,0,0,0-1.463.592.329.329,0,0,0-.049.057l-.652,1.037a.308.308,0,0,0-.041.122l-.069.81a.276.276,0,0,0,.5.182l1.074-1.507a.3.3,0,0,0,.028-.049,1.475,1.475,0,0,1,.733-.725.276.276,0,0,0-.065-.519Z" transform="translate(-57.405 -134.32)" fill="#090a0b"/>
      <path id="Trazado_8467" data-name="Trazado 8467" d="M86.469,235.524l-.081-2.269a.259.259,0,0,1,.061-.178l3.076-3.918c.924-1.131.219-1.621.219-1.621a1.3,1.3,0,0,0-1.755-.178.324.324,0,0,0-.053.053l-2.026,2.837s-2.383,3.217-5.223,2.646a.28.28,0,0,0-.336.276l.093,4.648a.28.28,0,0,0,.1.207c.5.405,2.914,2.026,5.892-2.318A.259.259,0,0,0,86.469,235.524Z" transform="translate(-49.14 -135.078)" fill="#848385"/>
      <path id="Trazado_8468" data-name="Trazado 8468" d="M83.185,211.316l-2.837,5.47a.276.276,0,0,1-.466.041l-.6-.81a.28.28,0,0,1-.024-.3l2.792-5.268a.276.276,0,0,1,.405-.077l.669.624A.28.28,0,0,1,83.185,211.316Z" transform="translate(-48.47 -125.093)" fill="#090a0b"/>
      <path id="Trazado_8469" data-name="Trazado 8469" d="M70.807,223.76l3.286.693a.276.276,0,0,0,.276-.442l-.458-.6a.272.272,0,0,0-.174-.105l-3.124-.49a.28.28,0,0,0-.267.438l.3.405a.288.288,0,0,0,.166.1Z" transform="translate(-43.159 -132.525)" fill="#626463"/>
      <path id="Trazado_8470" data-name="Trazado 8470" d="M76.137,209.213l-3.837-.405a.284.284,0,0,0-.284.162l-2.261,5.077a.28.28,0,0,0,.211.405l3.347.527a.28.28,0,0,0,.288-.146l2.751-5.2a.276.276,0,0,0-.215-.421Z" transform="translate(-42.819 -124.194)" fill="#848385"/>
      <path id="Trazado_8471" data-name="Trazado 8471" d="M79.476,211.052l-.028.045a.271.271,0,0,1-.288.134l-1.856-.312a.276.276,0,0,1-.194-.405h0a.272.272,0,0,1,.28-.138l1.884.267a.28.28,0,0,1,.2.409Z" transform="translate(-47.192 -125.125)" fill="#353535"/>
      <path id="Trazado_8472" data-name="Trazado 8472" d="M99.4,229.379a.742.742,0,0,0,.47.956.81.81,0,0,0,.936-.579.742.742,0,0,0-.478-.952A.786.786,0,0,0,99.4,229.379Z" transform="translate(-60.442 -136.077)" fill="#090a0b"/>
      <path id="Trazado_8473" data-name="Trazado 8473" d="M109.419,267.78a.271.271,0,0,1-.061.207c-.292.381-1.471,1.678-2.569-.227-.041-.073-.081-.146-.122-.227-1.3-2.561-.648-3.692-2.6-4.863,0,0,1.783,1.155,2.537.28a.28.28,0,0,1,.405,0A9.506,9.506,0,0,1,109.419,267.78Z" transform="translate(-63.248 -156.231)" fill="#090a0b"/>
      <path id="Trazado_8474" data-name="Trazado 8474" d="M80.676,214.46l-.053.081a.271.271,0,0,1-.28.13l-.405-.065a.276.276,0,0,1-.2-.405l.032-.061a.28.28,0,0,1,.271-.142l.405.041a.28.28,0,0,1,.227.421Z" transform="translate(-48.757 -127.281)" fill="#353535"/>
      <path id="Trazado_8475" data-name="Trazado 8475" d="M75.872,216.841l-.053.109a.276.276,0,0,1-.344.146l-.32-.118a.284.284,0,0,1-.174-.353l.032-.077a.276.276,0,0,1,.32-.17l.34.081a.28.28,0,0,1,.2.381Z" transform="translate(-45.938 -128.694)" fill="#a7a6a6"/>
      <path id="Trazado_8476" data-name="Trazado 8476" d="M97.1,256.212a.276.276,0,0,0-.089.511,8.4,8.4,0,0,1,2.289,1.929,3.593,3.593,0,0,0,2.873,1.276s1.256.089.328-1.167C102.5,258.76,100.276,255.531,97.1,256.212Z" transform="translate(-58.964 -152.333)" fill="#626463"/>
      <path id="Trazado_8477" data-name="Trazado 8477" d="M67.86,285.457l20.379-.227-.357,1.349H68.156Z" transform="translate(-41.711 -169.649)" fill="#626463"/>
    </g>
  </g>
</svg>
